<svg width="42" height="42" viewBox="0 0 42 42" fill="none" xmlns="http://www.w3.org/2000/svg">
<path d="M17.4561 1.19062C20.3758 1.19218 23.2134 2.15684 25.5292 3.93505C27.8449 5.71328 29.5093 8.20572 30.2645 11.0261C31.0197 13.8464 30.8234 16.8371 29.7061 19.5346C28.5888 22.232 26.6128 24.4855 24.0846 25.9459C21.5563 27.4062 18.6169 27.9917 15.7221 27.6115C12.8273 27.2315 10.1386 25.9071 8.07295 23.8437C6.0073 21.7803 4.68003 19.0931 4.29686 16.1987C3.91369 13.3042 4.49603 10.3642 5.95362 7.83437C7.1162 5.81293 8.79233 4.13465 10.8122 2.96949C12.8323 1.80433 15.1242 1.1937 17.4561 1.19943V1.19062ZM17.4561 0.28639C14.0154 0.281709 10.6903 1.52826 8.10053 3.79372C5.51081 6.05918 3.83316 9.18902 3.38025 12.5998C2.92734 16.0106 3.73007 19.4698 5.63882 22.3326C7.54758 25.1954 10.4321 27.2665 13.7549 28.1599C17.0776 29.0534 20.612 28.7081 23.699 27.1886C26.7861 25.6691 29.2153 23.0789 30.5341 19.9009C31.8527 16.7229 31.9709 13.1737 30.8666 9.915C29.7622 6.65631 27.5106 3.91031 24.5315 2.1888C22.3804 0.945679 19.9405 0.289633 17.4561 0.28639Z" fill="#B3B2B6"/>
<path d="M16.7381 6.98749C20.1329 6.98548 23.4127 8.21774 25.9663 10.4548C28.5199 12.6917 30.173 15.7808 30.6179 19.1464C31.0626 22.512 30.2686 25.9245 28.3838 28.7479C26.499 31.5715 23.652 33.6135 20.3732 34.4935C17.0944 35.3734 13.6075 35.0313 10.5622 33.5308C7.51696 32.0303 5.12106 29.474 3.82099 26.338C2.5209 23.2019 2.40531 19.7002 3.49574 16.4853C4.58617 13.2703 6.80824 10.5615 9.74793 8.86344C11.8714 7.63945 14.2783 6.99269 16.7292 6.98749H16.7381ZM16.7292 4.25132C13.0457 4.25238 9.46547 5.46881 6.54367 7.71195C3.62189 9.95512 1.52186 13.0996 0.569265 16.6579C-0.383332 20.2161 -0.135272 23.9892 1.27498 27.3921C2.68523 30.795 5.17886 33.6376 8.3692 35.4788C11.5594 37.3201 15.2682 38.0573 18.9202 37.5761C22.5722 37.0949 25.9634 35.4222 28.5678 32.8174C31.1723 30.2125 32.8445 26.8212 33.3252 23.169C33.8058 19.517 33.0681 15.8085 31.2263 12.6184C29.7643 10.0675 27.6526 7.94945 25.1061 6.47977C22.5597 5.01006 19.6694 4.24117 16.7292 4.25132Z" fill="#B3B2B6"/>
<path d="M23.8453 10.5805C26.4259 10.5805 28.9484 11.3458 31.094 12.7795C33.2396 14.2132 34.9118 16.2511 35.8992 18.6352C36.8866 21.0194 37.1448 23.6427 36.6412 26.1737C36.1375 28.7045 34.8946 31.0293 33.0698 32.8537C31.2448 34.6783 28.9198 35.9206 26.3889 36.4237C23.8578 36.9268 21.2345 36.668 18.8505 35.6801C16.4666 34.6921 14.4291 33.0195 12.9959 30.8736C11.5627 28.7276 10.798 26.2049 10.7986 23.6244C10.8032 20.1658 12.1794 16.8503 14.6252 14.4051C17.071 11.9598 20.3868 10.5845 23.8453 10.5805ZM23.8453 6.02124C20.3614 6.02124 16.9558 7.05434 14.059 8.98987C11.1623 10.9254 8.90456 13.6765 7.57133 16.8951C6.2381 20.1139 5.88927 23.6557 6.56894 27.0726C7.24862 30.4895 8.92627 33.6282 11.3897 36.0917C13.8532 38.5552 16.9919 40.2329 20.4089 40.9125C23.8258 41.5922 27.3676 41.2433 30.5862 39.9101C33.8049 38.5769 36.556 36.3192 38.4915 33.4224C40.4271 30.5256 41.4602 27.12 41.4602 23.6361C41.4602 18.9644 39.6043 14.484 36.301 11.1805C32.9975 7.87705 28.5171 6.02124 23.8453 6.02124Z" fill="#F5663E"/>
</svg>
