<svg width="100%" height="100%" viewBox="0 0 177 51" fill="none" xmlns="http://www.w3.org/2000/svg">
<path d="M21.3212 1.92314C24.8852 1.92504 28.3491 3.10259 31.1759 5.27324C34.0027 7.4439 36.0344 10.4864 36.9563 13.9292C37.8781 17.3719 37.6385 21.0226 36.2746 24.3154C34.9107 27.6081 32.4987 30.359 29.4125 32.1416C26.3263 33.9242 22.7382 34.6389 19.2045 34.1749C15.6708 33.711 12.3888 32.0943 9.86726 29.5755C7.34575 27.0567 5.72556 23.7765 5.25783 20.2433C4.7901 16.7101 5.50096 13.1212 7.28022 10.0331C8.69937 7.56555 10.7454 5.51688 13.2111 4.09459C15.6769 2.67229 18.4747 1.9269 21.3212 1.93389V1.92314ZM21.3212 0.819352C17.1211 0.813638 13.0622 2.33529 9.90093 5.10072C6.73969 7.86614 4.6918 11.6867 4.13894 15.8502C3.58607 20.0138 4.56595 24.2364 6.89595 27.731C9.22595 31.2255 12.7471 33.7537 16.8032 34.8443C20.8592 35.9349 25.1735 35.5135 28.9418 33.6586C32.7102 31.8038 35.6755 28.642 37.2853 24.7626C38.895 20.8832 39.0393 16.5508 37.6912 12.5729C36.3431 8.59505 33.5946 5.24303 29.958 3.1416C27.3322 1.62414 24.3539 0.82331 21.3212 0.819352Z" fill="#B3B2B6"/>
<path d="M20.432 9.01495C24.576 9.01249 28.5796 10.5167 31.6968 13.2474C34.8139 15.978 36.8319 19.7488 37.3749 23.8572C37.9178 27.9655 36.9486 32.1311 34.6478 35.5777C32.3471 39.0244 28.8717 41.517 24.8693 42.5912C20.8669 43.6653 16.6105 43.2477 12.8932 41.4161C9.17587 39.5845 6.25123 36.464 4.66424 32.6359C3.07724 28.8077 2.93614 24.5332 4.26721 20.6088C5.59829 16.6843 8.31075 13.3777 11.8992 11.3049C14.4913 9.81079 17.4294 9.02129 20.4212 9.01495H20.432ZM20.4212 5.67493C15.9248 5.67623 11.5544 7.16111 7.98779 9.89929C4.4212 12.6375 1.85772 16.4759 0.694895 20.8195C-0.46793 25.163 -0.165125 29.7688 1.55635 33.9227C3.27783 38.0765 6.32178 41.5464 10.2162 43.794C14.1105 46.0417 18.6377 46.9416 23.0957 46.3542C27.5536 45.7668 31.6932 43.7249 34.8724 40.5452C38.0517 37.3655 40.0929 33.2257 40.6797 28.7676C41.2664 24.3096 40.3659 19.7826 38.1176 15.8885C36.333 12.7747 33.7553 10.1892 30.6468 8.39517C27.5384 6.60112 24.0102 5.66254 20.4212 5.67493Z" fill="#B3B2B6"/>
<path d="M29.0999 13.3809C32.25 13.3809 35.3292 14.3151 37.9483 16.0652C40.5674 17.8153 42.6087 20.3029 43.814 23.2132C45.0193 26.1235 45.3345 29.3258 44.7197 32.4153C44.1049 35.5047 42.5877 38.3425 40.3601 40.5696C38.1324 42.7968 35.2943 44.3133 32.2048 44.9274C29.1152 45.5415 25.9129 45.2256 23.0028 44.0197C20.0928 42.8137 17.6057 40.7719 15.8562 38.1524C14.1067 35.5329 13.1732 32.4534 13.1739 29.3034C13.1796 25.0816 14.8595 21.0344 17.845 18.0495C20.8306 15.0646 24.8782 13.3857 29.0999 13.3809ZM29.0999 7.81543C24.8472 7.81543 20.69 9.07652 17.1539 11.4392C13.6179 13.8019 10.8619 17.1601 9.23443 21.0891C7.60697 25.0182 7.18116 29.3416 8.01083 33.5126C8.8405 37.6836 10.8884 41.515 13.8955 44.5221C16.9027 47.5293 20.734 49.5772 24.9051 50.4068C29.0761 51.2365 33.3995 50.8107 37.3285 49.1832C41.2575 47.5558 44.6157 44.7998 46.9784 41.2637C49.3411 37.7277 50.6022 33.5705 50.6022 29.3177C50.6022 23.615 48.3368 18.1458 44.3044 14.1133C40.2719 10.0808 34.8027 7.81543 29.0999 7.81543Z" fill="#F5663E"/>
<path d="M79.3133 25.8018H77.9766V39.6922H79.3133V25.8018Z" fill="#1D2222"/>
<path d="M79.3133 20.1885H77.9766V22.6469H79.3133V20.1885Z" fill="#1D2222"/>
<path d="M71.1106 29.9685C71.9484 29.6081 72.65 28.9906 73.1139 28.2053C73.5917 27.4065 73.8397 26.4913 73.8306 25.5605C73.8283 24.9631 73.7241 24.3704 73.5224 23.8081C73.3271 23.2448 73.0334 22.7207 72.6552 22.2599C72.28 21.8033 71.8169 21.4267 71.2934 21.1525C70.7412 20.8626 70.1251 20.7159 69.5015 20.7261H60.6641V39.6911H69.5338C70.2099 39.6985 70.8813 39.5769 71.512 39.3327C72.1168 39.0938 72.6693 38.7396 73.139 38.2899C73.6024 37.8451 73.9749 37.3144 74.2356 36.7274C74.5067 36.1173 74.6436 35.4561 74.637 34.7886C74.651 33.7115 74.318 32.6586 73.6873 31.7854C73.0631 30.9013 72.153 30.2595 71.1106 29.9685ZM62.0259 21.9517H69.1324C69.6042 21.9462 70.0707 22.0517 70.4942 22.2599C70.9001 22.4597 71.2601 22.7416 71.5514 23.0877C71.8504 23.4463 72.0856 23.8536 72.2466 24.2919C72.418 24.7577 72.5042 25.2505 72.5011 25.7469C72.5008 26.2372 72.4097 26.7232 72.2323 27.1804C72.0688 27.6253 71.8259 28.0369 71.5155 28.3952C71.2027 28.7431 70.827 29.0288 70.4082 29.2374C69.9627 29.4566 69.4711 29.566 68.9747 29.5564H62.0259V21.9517ZM72.9813 36.0321C72.7903 36.487 72.5237 36.9062 72.1929 37.2721C71.8625 37.6372 71.463 37.9332 71.0174 38.1429C70.5523 38.3571 70.0457 38.466 69.5338 38.4619H62.0259V30.6888H69.7201C70.2066 30.6866 70.6871 30.7957 71.1249 31.0078C71.5564 31.2202 71.9413 31.5162 72.2574 31.8786C72.5815 32.2475 72.8353 32.6726 73.0064 33.1329C73.1841 33.5974 73.2752 34.0905 73.2751 34.5879C73.2742 35.084 73.1743 35.575 72.9813 36.0321Z" fill="#1D2222"/>
<path d="M153.891 37.8214V31.0374C153.891 29.3268 153.406 27.9865 152.436 27.0165C151.466 26.0465 150.144 25.5615 148.469 25.5615C146.885 25.5615 145.193 26.1672 143.394 27.3785L143.928 28.2851C144.636 27.7832 145.403 27.3704 146.211 27.0559C146.906 26.7844 147.644 26.64 148.39 26.6295C148.951 26.6007 149.511 26.6891 150.035 26.889C150.56 27.089 151.037 27.396 151.436 27.7906C151.821 28.214 152.118 28.7094 152.311 29.2482C152.503 29.787 152.587 30.3585 152.558 30.9299V32.2917C151.891 32.0461 151.202 31.8626 150.501 31.7434C149.751 31.6116 148.99 31.5445 148.229 31.5427C147.439 31.5346 146.653 31.6384 145.892 31.8509C145.238 32.0325 144.619 32.3219 144.061 32.7074C143.57 33.0445 143.16 33.4864 142.86 34.0012C142.573 34.5052 142.426 35.0768 142.434 35.6568C142.434 36.2418 142.556 36.8204 142.792 37.3555C143.02 37.8725 143.353 38.3363 143.771 38.7173C144.2 39.1085 144.698 39.416 145.24 39.624C145.811 39.8488 146.419 39.9631 147.032 39.9609C148.142 39.9709 149.242 39.7424 150.257 39.2907C151.221 38.8656 152.062 38.2036 152.701 37.3663V38.5167C152.696 38.6821 152.73 38.8464 152.799 38.9968C152.868 39.1472 152.97 39.2797 153.099 39.3839C153.343 39.5981 153.656 39.7165 153.981 39.7172H154.206C154.292 39.7172 154.377 39.7088 154.461 39.6921V38.488C154.077 38.488 153.891 38.2658 153.891 37.8214ZM152.558 35.6712C152.541 36.0727 152.379 36.4545 152.103 36.7463C151.622 37.4486 150.943 37.9924 150.153 38.3088C149.248 38.6984 148.271 38.8937 147.286 38.8822C146.807 38.8868 146.332 38.8005 145.885 38.6277C145.466 38.4713 145.08 38.2366 144.749 37.9361C144.428 37.6404 144.172 37.2801 144 36.8789C143.823 36.4656 143.733 36.0204 143.735 35.5708C143.734 35.1173 143.851 34.6714 144.077 34.2778C144.302 33.8841 144.626 33.5564 145.018 33.3274C146.03 32.7142 147.201 32.4161 148.383 32.4709C149.806 32.4714 151.217 32.7251 152.551 33.2199L152.558 35.6712Z" fill="#1D2222"/>
<path d="M165.189 25.5616C164.57 25.5596 163.955 25.6453 163.361 25.816C162.774 25.9784 162.213 26.2195 161.691 26.5327C161.167 26.8435 160.685 27.2205 160.257 27.6544C159.83 28.0844 159.468 28.5746 159.182 29.1094V25.8017H157.953V39.6921H159.286V31.0912C159.466 30.4831 159.746 29.9091 160.114 29.3925C160.481 28.8773 160.918 28.4154 161.411 28.02C161.893 27.6322 162.434 27.3248 163.013 27.1097C163.572 26.8996 164.165 26.7915 164.762 26.7908C165.887 26.7908 166.702 27.2005 167.206 28.02C167.71 28.8395 167.965 30.1475 167.97 31.9442V39.6921H169.306V31.704C169.306 29.7282 168.995 28.2099 168.371 27.1491C167.747 26.0884 166.687 25.5592 165.189 25.5616Z" fill="#1D2222"/>
<path d="M138.653 37.1649C138.348 37.4874 137.996 37.7628 137.61 37.982C137.198 38.2201 136.759 38.4078 136.302 38.5411C135.837 38.6833 135.354 38.7558 134.868 38.7561C134.137 38.759 133.415 38.5948 132.758 38.2759C132.105 37.9598 131.521 37.5191 131.037 36.9786C129.987 35.7936 129.411 34.2619 129.421 32.6781C129.413 31.8805 129.553 31.0884 129.833 30.3416C130.093 29.6454 130.483 29.0055 130.984 28.4565C131.468 27.9268 132.054 27.5002 132.707 27.2022C133.446 26.869 134.252 26.7136 135.061 26.7485C135.87 26.7833 136.66 27.0075 137.366 27.4029C138.114 27.818 138.726 28.4402 139.13 29.1948L140.441 28.7683C139.966 27.7771 139.208 26.949 138.262 26.3887C137.253 25.8046 136.102 25.5095 134.937 25.5358C133.99 25.5257 133.052 25.7162 132.184 26.0949C131.367 26.4566 130.628 26.9739 130.009 27.6179C129.383 28.2712 128.896 29.044 128.575 29.89C128.235 30.7761 128.062 31.718 128.067 32.6674C128.06 33.629 128.243 34.5824 128.604 35.4734C128.945 36.3244 129.438 37.1064 130.059 37.7813C130.67 38.4483 131.41 38.9847 132.234 39.3582C133.091 39.7463 134.021 39.9432 134.962 39.9352C135.589 39.9363 136.214 39.8507 136.818 39.6807C137.395 39.5181 137.948 39.2769 138.459 38.964C138.945 38.6751 139.383 38.3123 139.757 37.8889C140.101 37.4945 140.371 37.0418 140.556 36.5521L139.255 36.1938C139.132 36.5595 138.926 36.8918 138.653 37.1649Z" fill="#1D2222"/>
<path d="M109.579 20.1885H108.242V22.6469H109.579V20.1885Z" fill="#1D2222"/>
<path d="M120.901 25.5615C120.281 25.5598 119.665 25.6455 119.069 25.816C118.483 25.9792 117.921 26.2203 117.399 26.5327C116.882 26.8457 116.407 27.2226 115.984 27.6544C115.557 28.0853 115.195 28.5753 114.909 29.1094V25.8017H113.676V39.6921H115.013V31.0912C115.191 30.4826 115.471 29.9084 115.84 29.3925C116.206 28.8765 116.643 28.4144 117.138 28.02C117.618 27.6309 118.159 27.3233 118.74 27.1097C119.299 26.8992 119.891 26.7912 120.488 26.7908C121.609 26.7908 122.424 27.2005 122.933 28.02C123.441 28.8395 123.701 30.1475 123.71 31.9441V39.6921H125.043V31.704C125.043 29.7282 124.732 28.2099 124.108 27.1491C123.484 26.0884 122.415 25.5592 120.901 25.5615Z" fill="#1D2222"/>
<path d="M94.4279 28.8184C93.7957 27.9211 93.0138 27.1391 92.1164 26.5069C91.187 25.8673 90.08 25.5363 88.952 25.5608C88.0497 25.552 87.1578 25.7532 86.3467 26.1486C85.5642 26.5323 84.869 27.0727 84.3039 27.7362C83.7263 28.4199 83.2782 29.2032 82.9816 30.0477C82.6703 30.9218 82.5127 31.8433 82.5157 32.7713C82.5133 33.6748 82.676 34.5711 82.9959 35.416C83.3058 36.2552 83.7674 37.0302 84.3577 37.7025C84.9419 38.3658 85.6489 38.9098 86.4398 39.3044C87.2618 39.7102 88.168 39.9165 89.0846 39.9064C90.121 39.9011 91.1365 39.6151 92.0233 39.0786C92.9409 38.5528 93.7198 37.8156 94.2953 36.9284V39.9745C94.3101 40.6651 94.168 41.3501 93.8796 41.9778C93.6165 42.5329 93.2334 43.0225 92.7579 43.4113C92.267 43.8052 91.7049 44.1008 91.1022 44.2822C90.4481 44.4802 89.7681 44.5793 89.0846 44.576C88.046 44.573 87.0208 44.3418 86.0815 43.8987C85.1354 43.4599 84.3508 42.7354 83.8381 41.8273L82.9314 42.4437C83.2127 42.9215 83.5482 43.3653 83.9312 43.7661C84.3159 44.1657 84.7565 44.5073 85.2393 44.7803C85.7732 45.0714 86.3449 45.2873 86.938 45.4218C87.6437 45.579 88.3652 45.6547 89.0882 45.6476C89.9377 45.655 90.7834 45.5342 91.5968 45.2892C92.3537 45.0658 93.0614 44.701 93.6825 44.2141C94.2862 43.7366 94.7759 43.1306 95.116 42.4401C95.4879 41.6661 95.6721 40.8152 95.6536 39.9566V25.8009H94.4494L94.4279 28.8184ZM94.2953 35.0147C94.2274 35.4967 94.0442 35.9552 93.7614 36.3514C93.4462 36.8083 93.0631 37.2143 92.6253 37.5555C92.1656 37.9139 91.6577 38.2059 91.1166 38.4228C90.5736 38.6432 89.9931 38.7564 89.4071 38.7561C88.654 38.7616 87.9093 38.5974 87.2282 38.2759C86.5629 37.9555 85.9646 37.5116 85.4651 36.9678C84.9568 36.4126 84.5548 35.7688 84.2789 35.0684C83.9902 34.3472 83.8442 33.5768 83.8488 32.7999C83.8501 32.0591 83.9711 31.3233 84.2072 30.621C84.4373 29.9193 84.7904 29.264 85.25 28.6858C85.7062 28.1135 86.2745 27.6403 86.92 27.2954C87.5072 26.9929 88.1504 26.8146 88.8094 26.7714C89.4685 26.7282 90.1294 26.8212 90.751 27.0445C91.2738 27.2282 91.7683 27.4839 92.2204 27.8042C92.681 28.1285 93.0905 28.5198 93.4352 28.9654C93.7901 29.4165 94.0786 29.9161 94.2917 30.449L94.2953 35.0147Z" fill="#1D2222"/>
<path d="M104.862 38.3158C104.41 38.5127 103.921 38.6081 103.428 38.5953C102.988 38.6026 102.556 38.4668 102.199 38.2083C102.021 38.0743 101.879 37.898 101.785 37.6953C101.692 37.4926 101.651 37.2698 101.665 37.0472V26.8945H104.923V25.8015H101.665V21.0459H100.328V25.8015H98.3789V26.8945H100.328V37.3661C100.318 37.7376 100.397 38.1062 100.558 38.4412C100.705 38.736 100.908 38.9991 101.156 39.2153C101.413 39.4304 101.708 39.5935 102.027 39.6955C102.368 39.8047 102.723 39.8591 103.081 39.8568C103.431 39.8591 103.781 39.8231 104.124 39.7493C104.417 39.6855 104.706 39.6053 104.991 39.5092C105.214 39.4362 105.428 39.3414 105.632 39.2261C105.801 39.1293 105.923 39.0648 105.991 39.029L105.589 37.9539C105.507 38.0076 105.263 38.1295 104.862 38.3158Z" fill="#1D2222"/>
<path d="M109.579 25.8018H108.242V39.6922H109.579V25.8018Z" fill="#1D2222"/>
<path d="M170.349 21.1429H169.148V20.7129H172.069V21.1429H170.865V24.6586H170.349V21.1429Z" fill="#1D2222"/>
<path d="M175.837 22.9341C175.808 22.3822 175.772 21.7228 175.779 21.2319H175.762C175.625 21.6942 175.464 22.1851 175.263 22.7299L174.568 24.6436H174.181L173.543 22.7657C173.357 22.2066 173.185 21.6906 173.085 21.2319C173.085 21.7228 173.045 22.3822 173.009 22.9736L172.902 24.6686H172.418L172.694 20.7266H173.343L174.016 22.6331C174.181 23.1205 174.314 23.5541 174.414 23.9627H174.432C174.532 23.5649 174.672 23.1312 174.848 22.6331L175.564 20.7266H176.213L176.46 24.6686H175.962L175.837 22.9341Z" fill="#1D2222"/>
</svg>
