<svg width="124" height="35" fill="none" xmlns="http://www.w3.org/2000/svg"><path d="M14.926.773a11.336 11.336 0 1 1-5.677 1.52A11.306 11.306 0 0 1 14.926.78V.773zm0-.773a12.116 12.116 0 1 0-.033 24.233A12.116 12.116 0 0 0 14.926 0z" fill="#B3B2B6"/><path d="M14.302 5.737a11.956 11.956 0 1 1 .03 23.911 11.956 11.956 0 0 1-.037-23.911h.007zm-.007-2.338a14.299 14.299 0 1 0 12.387 7.149 14.22 14.22 0 0 0-12.387-7.15z" fill="#B3B2B6"/><path d="M20.372 8.792A11.149 11.149 0 1 1 9.224 19.938 11.16 11.16 0 0 1 20.372 8.792zm0-3.896a15.052 15.052 0 1 0 0 30.104 15.052 15.052 0 0 0 0-30.104z" fill="#F5663E"/><path d="M55.518 17.488h-.936v9.724h.936v-9.724zm0-3.93h-.936v1.722h.936v-1.721zm-5.74 6.848a3.01 3.01 0 0 0 1.402-1.235c.334-.559.508-1.2.501-1.851a3.675 3.675 0 0 0-.215-1.227 3.532 3.532 0 0 0-.607-1.083 3.086 3.086 0 0 0-.954-.776 2.606 2.606 0 0 0-1.254-.298h-6.186V27.21h6.209c.473.006.943-.08 1.384-.25a3.465 3.465 0 0 0 1.907-1.824c.19-.427.285-.89.28-1.357a3.512 3.512 0 0 0-.664-2.103 3.291 3.291 0 0 0-1.804-1.271zm-6.36-5.612h4.975c.33-.004.657.07.953.216.284.14.536.337.74.58.21.25.374.535.487.842a2.896 2.896 0 0 1-.512 2.872 2.603 2.603 0 0 1-.775.59c-.312.153-.656.23-1.004.223h-4.864v-5.323zm7.669 9.856a3.06 3.06 0 0 1-.552.868c-.231.256-.51.463-.823.61-.325.15-.68.226-1.038.223h-5.256V20.91h5.386c.34-.002.677.075.983.223.302.149.572.356.793.61.227.258.405.556.525.878.124.325.188.67.188 1.018-.001.348-.071.691-.206 1.011zm56.636 1.252v-4.749c0-1.197-.339-2.135-1.018-2.814-.679-.68-1.605-1.019-2.777-1.019-1.109 0-2.293.424-3.552 1.272l.373.635a7.411 7.411 0 0 1 1.598-.86 4.36 4.36 0 0 1 1.526-.3 2.822 2.822 0 0 1 2.132.814 3.044 3.044 0 0 1 .785 2.197v.954a8.082 8.082 0 0 0-1.44-.384 9.314 9.314 0 0 0-1.59-.14 5.85 5.85 0 0 0-1.636.215c-.458.127-.891.33-1.282.6-.343.235-.63.545-.84.905a2.279 2.279 0 0 0-.299 1.159c0 .41.086.814.251 1.19.16.361.393.686.685.952.3.274.649.49 1.029.635.399.157.825.237 1.254.236a5.438 5.438 0 0 0 2.258-.47 4.371 4.371 0 0 0 1.71-1.346v.805a.75.75 0 0 0 .279.607c.171.15.39.233.617.233h.158c.06 0 .12-.006.178-.017v-.843c-.268 0-.399-.156-.399-.467zm-.933-1.505a1.169 1.169 0 0 1-.318.753 3.014 3.014 0 0 1-1.365 1.093 4.93 4.93 0 0 1-2.007.402 2.653 2.653 0 0 1-1.776-.662 2.16 2.16 0 0 1-.524-.74 2.288 2.288 0 0 1-.186-.916 1.818 1.818 0 0 1 .898-1.57 4.171 4.171 0 0 1 2.356-.6c.996 0 1.983.178 2.917.524l.005 1.716zm8.841-7.077a4.585 4.585 0 0 0-1.279.178 4.977 4.977 0 0 0-2.173 1.287c-.299.301-.552.645-.752 1.019v-2.316h-.861v9.724h.934v-6.02c.126-.427.321-.828.579-1.19.257-.36.563-.684.908-.96a4.015 4.015 0 0 1 1.122-.638 3.49 3.49 0 0 1 1.224-.223c.787 0 1.358.287 1.711.86.352.574.531 1.49.534 2.747v5.424h.936V21.62c0-1.383-.219-2.446-.655-3.188-.437-.743-1.179-1.113-2.228-1.112zm-18.576 8.122a3.14 3.14 0 0 1-.73.572 4.162 4.162 0 0 1-.916.392 3.433 3.433 0 0 1-2.48-.186 3.891 3.891 0 0 1-1.205-.908 4.493 4.493 0 0 1-1.131-3.01 4.532 4.532 0 0 1 .288-1.636c.182-.487.455-.935.806-1.32.339-.37.75-.669 1.206-.878a3.625 3.625 0 0 1 3.261.14c.524.291.953.727 1.235 1.255l.918-.298a3.891 3.891 0 0 0-1.525-1.666 4.447 4.447 0 0 0-2.328-.597 4.69 4.69 0 0 0-3.45 1.457c-.438.458-.779.999-1.003 1.59-.239.621-.36 1.28-.356 1.945-.005.673.123 1.34.376 1.964a5.305 5.305 0 0 0 1.018 1.616c.428.467.946.842 1.523 1.104.6.271 1.251.41 1.91.403.439.001.876-.059 1.299-.178.404-.113.79-.282 1.149-.501.34-.203.646-.457.908-.753.24-.276.43-.593.56-.936l-.912-.25c-.086.255-.23.488-.42.68zM76.705 13.56h-.936v1.72h.936v-1.72zm7.927 3.761a4.612 4.612 0 0 0-1.282.178c-.41.115-.804.283-1.17.502a5.03 5.03 0 0 0-.99.785 4.42 4.42 0 0 0-.753 1.019v-2.316h-.863v9.724h.936v-6.02c.125-.427.321-.829.58-1.19.256-.361.561-.685.907-.96a3.952 3.952 0 0 1 1.122-.638 3.482 3.482 0 0 1 1.224-.223c.784 0 1.355.287 1.71.86.357.574.539 1.49.545 2.747v5.424h.933V21.62c0-1.383-.218-2.446-.654-3.188-.437-.743-1.185-1.113-2.245-1.112zM66.1 19.6a6.697 6.697 0 0 0-1.618-1.619 3.764 3.764 0 0 0-2.215-.662 4.072 4.072 0 0 0-1.824.412 4.455 4.455 0 0 0-1.43 1.111 5.154 5.154 0 0 0-.925 1.618 5.63 5.63 0 0 0-.326 1.907c-.002.632.112 1.26.336 1.85.217.588.54 1.13.953 1.601.41.465.904.845 1.458 1.122a4.08 4.08 0 0 0 1.851.421 4.014 4.014 0 0 0 2.057-.58 4.654 4.654 0 0 0 1.59-1.505v2.133c.01.483-.089.963-.29 1.402a2.902 2.902 0 0 1-.786 1.004 3.432 3.432 0 0 1-1.159.61 4.796 4.796 0 0 1-1.412.205 4.963 4.963 0 0 1-2.102-.474 3.49 3.49 0 0 1-1.57-1.45l-.635.431c.197.335.431.645.7.926.269.28.577.519.915.71.374.204.774.355 1.19.449.493.11.998.163 1.505.158a5.906 5.906 0 0 0 1.755-.25 4.373 4.373 0 0 0 1.46-.753 3.625 3.625 0 0 0 1.004-1.242c.26-.542.39-1.138.376-1.739v-9.909h-.843L66.1 19.6zm-.093 4.337a2.12 2.12 0 0 1-.373.936c-.22.32-.489.604-.796.842a4.35 4.35 0 0 1-1.056.608c-.38.154-.786.233-1.196.233a3.511 3.511 0 0 1-1.525-.336 4.079 4.079 0 0 1-1.235-.916 4.306 4.306 0 0 1-.83-1.33 4.207 4.207 0 0 1-.301-1.587 4.817 4.817 0 0 1 .25-1.526 4.36 4.36 0 0 1 .73-1.354c.32-.4.718-.732 1.17-.974a3.37 3.37 0 0 1 2.681-.175c.366.128.713.307 1.029.532a4.203 4.203 0 0 1 1.45 1.851l.002 3.196zm7.394 2.31a2.356 2.356 0 0 1-1.003.196c-.309.005-.61-.09-.86-.271a.94.94 0 0 1-.374-.813v-7.107h2.28v-.765h-2.28v-3.329h-.936v3.33h-1.365v.764h1.365v7.33a1.635 1.635 0 0 0 .58 1.295c.179.15.386.265.609.336.238.076.487.114.738.113.245.002.49-.024.73-.075.205-.045.408-.101.607-.169.155-.05.306-.117.449-.198.118-.067.203-.113.25-.138l-.28-.752a5.933 5.933 0 0 1-.51.253zm3.304-8.759h-.936v9.724h.936v-9.724zm42.538-3.261h-.841v-.301h2.045v.3h-.843v2.462h-.361v-2.461zm3.842 1.254c-.02-.386-.046-.848-.041-1.192h-.012c-.095.324-.208.668-.349 1.049l-.486 1.34h-.271l-.447-1.315c-.13-.391-.251-.753-.321-1.074 0 .344-.028.806-.053 1.22l-.075 1.186h-.339l.194-2.76h.454l.471 1.335c.116.341.208.645.279.93h.012c.07-.278.168-.581.291-.93l.502-1.335h.454l.173 2.76h-.349l-.087-1.214z" fill="#1D2222"/></svg>