<svg width="220" height="220" fill="none" xmlns="http://www.w3.org/2000/svg"><g filter="url(#filter0_d_2134_15599)"><rect x="19" y="10" width="182" height="182" rx="15" fill="#fff"/><rect x="19.454" y="10.454" width="181.091" height="181.091" rx="14.546" stroke="#000" stroke-opacity=".14" stroke-width=".909"/></g><path d="M132.799 114.799a4.05 4.05 0 1 1 .002-8.1 4.05 4.05 0 0 1-.002 8.1zm-44.597 0a4.051 4.051 0 1 1 .001-8.103 4.051 4.051 0 0 1-.001 8.103zm46.032-24.303l8.101-13.966a1.667 1.667 0 0 0 .161-1.273 1.677 1.677 0 0 0-2.064-1.166 1.67 1.67 0 0 0-1.008.794l-8.186 14.134a49.44 49.44 0 0 0-20.716-4.472 50.274 50.274 0 0 0-20.76 4.43l-8.185-14.135a1.672 1.672 0 0 0-2.91 1.646l8.058 13.966A47.723 47.723 0 0 0 62 128.596h96.917a47.479 47.479 0 0 0-24.683-38.1" fill="#3DDC84"/><defs><filter id="filter0_d_2134_15599" x=".829" y=".915" width="218.342" height="218.342" filterUnits="userSpaceOnUse" color-interpolation-filters="sRGB"><feFlood flood-opacity="0" result="BackgroundImageFix"/><feColorMatrix in="SourceAlpha" values="0 0 0 0 0 0 0 0 0 0 0 0 0 0 0 0 0 0 127 0" result="hardAlpha"/><feOffset dy="9.085"/><feGaussianBlur stdDeviation="9.085"/><feComposite in2="hardAlpha" operator="out"/><feColorMatrix values="0 0 0 0 0.113725 0 0 0 0 0.133333 0 0 0 0 0.133333 0 0 0 0.06 0"/><feBlend in2="BackgroundImageFix" result="effect1_dropShadow_2134_15599"/><feBlend in="SourceGraphic" in2="effect1_dropShadow_2134_15599" result="shape"/></filter></defs></svg>