<svg width="220" height="220" fill="none" xmlns="http://www.w3.org/2000/svg"><g filter="url(#filter0_d_2134_15708)"><rect x="19" y="10" width="182" height="182" rx="15" fill="#fff"/><rect x="19.454" y="10.454" width="181.091" height="181.091" rx="14.546" stroke="#000" stroke-opacity=".14" stroke-width=".909"/></g><path d="M76.546 81.773c0 .802-.488 1.395-1.326 1.395-.697 0-1.22-.593-1.22-1.395 0-.768.558-1.395 1.29-1.395.768 0 1.256.627 1.256 1.395zm-1.93 41.916V91.626h1.314v32.063h-1.314zm45.029-22.845c0 16.165-8.974 23.514-18.797 23.514-10.035 0-18.16-7.949-18.16-22.845C82.687 86.217 91.095 78 101.554 78c10.246-.001 18.09 8.082 18.09 22.844zm-35.626.334c0 12.257 5.94 21.779 16.891 21.779 11.027 0 17.351-9.815 17.351-21.918 0-11.224-5.068-21.468-16.631-21.468s-17.61 9.645-17.61 21.607zm40.449 19.037c2.205 1.47 6.011 2.889 9.284 2.889 6.213 0 11.738-4.346 11.738-10.743 0-5.936-3.681-9.034-9.929-11.694-5.593-2.382-10.621-4.966-10.621-11.312 0-6.613 5.21-11.29 12.291-11.29 3.807 0 6.679 1.069 8.015 2.004l-.53 1.153c-1.136-.8-4.205-1.822-7.544-1.822-7.483 0-10.743 5.655-10.743 9.817 0 5.75 4.457 7.672 10.202 10.411 6.679 3.273 10.219 6.159 10.219 12.438 0 6.747-4.809 12.223-13.36 12.223-3.541 0-7.615-1.201-9.619-2.738l.597-1.336z" fill="#000"/><defs><filter id="filter0_d_2134_15708" x=".829" y=".915" width="218.342" height="218.342" filterUnits="userSpaceOnUse" color-interpolation-filters="sRGB"><feFlood flood-opacity="0" result="BackgroundImageFix"/><feColorMatrix in="SourceAlpha" values="0 0 0 0 0 0 0 0 0 0 0 0 0 0 0 0 0 0 127 0" result="hardAlpha"/><feOffset dy="9.085"/><feGaussianBlur stdDeviation="9.085"/><feComposite in2="hardAlpha" operator="out"/><feColorMatrix values="0 0 0 0 0.113725 0 0 0 0 0.133333 0 0 0 0 0.133333 0 0 0 0.06 0"/><feBlend in2="BackgroundImageFix" result="effect1_dropShadow_2134_15708"/><feBlend in="SourceGraphic" in2="effect1_dropShadow_2134_15708" result="shape"/></filter></defs></svg>