<svg width="220" height="220" fill="none" xmlns="http://www.w3.org/2000/svg"><g filter="url(#filter0_d_2134_15735)"><rect x="19" y="10" width="182" height="182" rx="15" fill="#fff"/><rect x="19.454" y="10.454" width="181.091" height="181.091" rx="14.546" stroke="#000" stroke-opacity=".14" stroke-width=".909"/></g><path d="M55 113.199h4.277v-11.148c0-2.199 1.443-3.797 3.504-3.797 1.993 0 3.23 1.254 3.23 3.281v11.663h4.156v-11.251c0-2.181 1.409-3.693 3.47-3.693 2.096 0 3.264 1.271 3.264 3.504v11.44h4.277v-12.487c0-3.641-2.353-6.063-5.944-6.063-2.628 0-4.792 1.408-5.668 3.658h-.103c-.67-2.336-2.508-3.658-5.084-3.658-2.474 0-4.398 1.39-5.188 3.504h-.086v-3.16H55v18.207zm35.54-2.938c-1.855 0-3.092-.944-3.092-2.439 0-1.443 1.185-2.37 3.247-2.508l4.208-.257v1.391c0 2.199-1.941 3.813-4.363 3.813zm-1.288 3.23c2.336 0 4.62-1.22 5.668-3.195h.086v2.903h4.123v-12.54c0-3.658-2.938-6.046-7.455-6.046-4.638 0-7.54 2.44-7.73 5.84h3.968c.275-1.511 1.563-2.49 3.59-2.49 2.113 0 3.401 1.099 3.401 3.005v1.306l-4.81.275c-4.431.275-6.922 2.216-6.922 5.445 0 3.281 2.56 5.497 6.08 5.497zm28.652-12.007c-.292-3.83-3.264-6.87-8.073-6.87-5.291 0-8.726 3.658-8.726 9.481 0 5.909 3.435 9.464 8.76 9.464 4.569 0 7.712-2.68 8.056-6.751h-4.037c-.395 2.061-1.803 3.298-3.968 3.298-2.714 0-4.466-2.199-4.466-6.012 0-3.744 1.735-6.012 4.432-6.012 2.284 0 3.641 1.46 3.985 3.401l4.037.001zM131.113 88c-7.231 0-11.766 4.93-11.766 12.814 0 7.885 4.535 12.797 11.766 12.797 7.215 0 11.75-4.912 11.75-12.797 0-7.884-4.535-12.814-11.75-12.814zm0 3.779c4.415 0 7.232 3.504 7.232 9.035 0 5.514-2.817 9.018-7.232 9.018-4.431 0-7.231-3.504-7.231-9.018 0-5.53 2.8-9.035 7.231-9.035zm13.554 14.446c.189 4.569 3.933 7.386 9.636 7.386 5.995 0 9.774-2.954 9.774-7.661 0-3.693-2.13-5.771-7.163-6.922l-2.851-.653c-3.041-.721-4.294-1.683-4.294-3.332 0-2.061 1.889-3.436 4.689-3.436 2.834 0 4.775 1.392 4.981 3.71h4.226c-.103-4.362-3.711-7.317-9.173-7.317-5.393 0-9.224 2.972-9.224 7.37 0 3.538 2.164 5.736 6.733 6.784l3.212.756c3.127.739 4.398 1.769 4.398 3.556 0 2.061-2.079 3.538-5.067 3.538-3.024 0-5.308-1.494-5.583-3.779h-4.294z" fill="#000"/><defs><filter id="filter0_d_2134_15735" x=".829" y=".915" width="218.342" height="218.342" filterUnits="userSpaceOnUse" color-interpolation-filters="sRGB"><feFlood flood-opacity="0" result="BackgroundImageFix"/><feColorMatrix in="SourceAlpha" values="0 0 0 0 0 0 0 0 0 0 0 0 0 0 0 0 0 0 127 0" result="hardAlpha"/><feOffset dy="9.085"/><feGaussianBlur stdDeviation="9.085"/><feComposite in2="hardAlpha" operator="out"/><feColorMatrix values="0 0 0 0 0.113725 0 0 0 0 0.133333 0 0 0 0 0.133333 0 0 0 0.06 0"/><feBlend in2="BackgroundImageFix" result="effect1_dropShadow_2134_15735"/><feBlend in="SourceGraphic" in2="effect1_dropShadow_2134_15735" result="shape"/></filter></defs></svg>