<svg width="220" height="220" fill="none" xmlns="http://www.w3.org/2000/svg"><g filter="url(#filter0_d_2134_15740)"><rect x="19" y="10" width="182" height="182" rx="15" fill="#fff"/><rect x="19.454" y="10.454" width="181.091" height="181.091" rx="14.546" stroke="#000" stroke-opacity=".14" stroke-width=".909"/></g><path d="M64.303 90.297A2.11 2.11 0 0 0 63.196 90c-.416 0-.792.099-1.108.297a2.167 2.167 0 0 0-.791.79A2.091 2.091 0 0 0 61 92.177c0 .395.099.751.297 1.088.198.336.455.593.79.79a2.11 2.11 0 0 0 1.108.297c.416 0 .792-.098 1.108-.296.336-.198.594-.455.791-.791.198-.337.297-.693.297-1.088 0-.396-.099-.752-.297-1.088a2.167 2.167 0 0 0-.79-.791zm1.03 6.151H61.1v15.527h4.232V96.448zm16.89-3.402a6.606 6.606 0 0 0-2.294-1.463A8.196 8.196 0 0 0 77 91.068h-8.505v20.907h4.371v-6.586h3.917c1.107 0 2.116-.178 3.026-.515a6.67 6.67 0 0 0 2.354-1.463 6.934 6.934 0 0 0 1.542-2.255c.356-.87.534-1.86.534-2.928 0-1.068-.178-2.057-.514-2.927a6.537 6.537 0 0 0-1.503-2.255zm-3.481 7.971c-.693.633-1.662.97-2.928.97h-2.947v-7.438h2.967c1.246 0 2.235.317 2.928.97.692.633 1.028 1.562 1.028 2.749s-.356 2.097-1.048 2.749zm17.11-4.252c-.99-.435-2.137-.653-3.482-.653-1.365 0-2.552.218-3.56.653-1.01.435-1.78 1.028-2.354 1.78a4.925 4.925 0 0 0-.93 2.651h3.877c.099-.574.396-1.029.87-1.385.475-.356 1.108-.534 1.9-.534.81 0 1.443.198 1.898.593.475.396.712.97.712 1.682v1.028l-3.916.237c-1.939.119-3.422.574-4.47 1.385-1.049.811-1.563 1.899-1.563 3.323 0 .93.218 1.741.672 2.453a4.593 4.593 0 0 0 1.86 1.661c.79.396 1.681.593 2.65.593.653 0 1.286-.098 1.899-.316a5.6 5.6 0 0 0 1.661-.89c.495-.396.89-.87 1.187-1.404h.08v2.373h4.094v-10.681c0-1.048-.277-1.958-.811-2.73-.515-.79-1.286-1.384-2.275-1.819zm-1.05 9.534a2.58 2.58 0 0 1-.454 1.483c-.297.435-.712.771-1.227 1.029a3.957 3.957 0 0 1-1.68.375c-.713 0-1.286-.178-1.741-.514-.436-.336-.653-.791-.653-1.384 0-.554.218-.989.653-1.326.435-.336 1.048-.534 1.84-.593l3.282-.198v1.128h-.02zm17.506-7.18h-.079a4.819 4.819 0 0 0-1.068-1.524c-.455-.435-1.009-.771-1.622-1.028a5.68 5.68 0 0 0-2.057-.376c-1.305 0-2.433.316-3.382.97-.95.652-1.682 1.562-2.196 2.768-.514 1.187-.771 2.611-.771 4.253 0 1.661.257 3.085.771 4.292.514 1.206 1.246 2.116 2.196 2.769.949.653 2.057.969 3.362.969.772 0 1.464-.118 2.097-.376a5.093 5.093 0 0 0 1.661-1.028c.475-.435.831-.95 1.088-1.523h.079v2.67h4.174V91.088h-4.233v8.03h-.02zm-.415 7.555c-.277.692-.693 1.226-1.207 1.602-.514.376-1.127.554-1.819.554-.713 0-1.326-.178-1.84-.554-.514-.376-.91-.91-1.187-1.602-.277-.692-.415-1.503-.415-2.453 0-.949.138-1.76.415-2.452.277-.693.673-1.227 1.187-1.602.514-.376 1.127-.574 1.84-.574.692 0 1.305.198 1.819.574.514.375.91.909 1.207 1.602.277.692.435 1.503.435 2.452 0 .95-.139 1.761-.435 2.453zm24.605-13.055c-.87-.949-1.938-1.661-3.184-2.156-1.246-.494-2.631-.751-4.174-.751-1.562 0-2.947.257-4.193.751a8.67 8.67 0 0 0-3.165 2.157c-.87.949-1.543 2.076-2.017 3.401-.475 1.326-.712 2.829-.712 4.49 0 1.662.237 3.165.712 4.49.474 1.326 1.147 2.473 2.017 3.402.871.95 1.939 1.662 3.165 2.156 1.246.495 2.631.752 4.193.752 1.543 0 2.947-.257 4.174-.752a8.896 8.896 0 0 0 3.184-2.156c.87-.949 1.543-2.076 2.018-3.402.474-1.325.712-2.828.712-4.49 0-1.661-.238-3.164-.712-4.49-.455-1.305-1.128-2.452-2.018-3.401zm-2.433 11.71c-.455 1.068-1.107 1.899-1.958 2.472-.831.594-1.839.871-2.967.871-1.147 0-2.136-.297-2.986-.871-.831-.593-1.484-1.404-1.959-2.472-.455-1.068-.692-2.334-.692-3.798 0-1.463.237-2.73.692-3.797.455-1.069 1.108-1.9 1.959-2.493.83-.593 1.839-.87 2.966-.87 1.148 0 2.137.297 2.967.87.831.594 1.484 1.424 1.958 2.493.455 1.068.693 2.353.693 3.797.02 1.464-.218 2.73-.673 3.798zm22.528-3.442c-1.009-.929-2.611-1.622-4.826-2.057l-2.215-.455c-1.246-.257-2.117-.573-2.671-.989-.534-.415-.81-.93-.81-1.582 0-.514.158-.95.454-1.345.297-.376.713-.672 1.266-.89.534-.218 1.167-.317 1.899-.317s1.385.12 1.958.337a3.055 3.055 0 0 1 1.365.989c.336.435.534.93.574 1.523h4.134c-.02-1.286-.376-2.413-1.029-3.363-.653-.95-1.582-1.7-2.769-2.235-1.187-.534-2.591-.791-4.233-.791-1.167 0-2.235.158-3.204.455-.969.296-1.82.732-2.532 1.305a6.213 6.213 0 0 0-1.661 2.018c-.396.771-.594 1.641-.594 2.59 0 1.563.515 2.83 1.543 3.818 1.029.989 2.591 1.701 4.668 2.117l2.196.435c1.305.277 2.235.613 2.788 1.028.554.416.811.97.811 1.662 0 .514-.158.969-.494 1.365-.336.395-.791.712-1.385.949-.593.237-1.266.356-2.057.356a6.556 6.556 0 0 1-2.136-.336c-.633-.218-1.147-.534-1.543-.969a2.844 2.844 0 0 1-.732-1.504h-4.133c.039 1.306.415 2.453 1.127 3.383.712.949 1.681 1.681 2.927 2.175 1.246.515 2.71.752 4.372.752 1.74 0 3.243-.277 4.509-.811 1.246-.554 2.216-1.325 2.908-2.314.672-1.009 1.028-2.176 1.028-3.541.02-1.562-.494-2.828-1.503-3.758z" fill="#000"/><defs><filter id="filter0_d_2134_15740" x=".829" y=".915" width="218.342" height="218.342" filterUnits="userSpaceOnUse" color-interpolation-filters="sRGB"><feFlood flood-opacity="0" result="BackgroundImageFix"/><feColorMatrix in="SourceAlpha" values="0 0 0 0 0 0 0 0 0 0 0 0 0 0 0 0 0 0 127 0" result="hardAlpha"/><feOffset dy="9.085"/><feGaussianBlur stdDeviation="9.085"/><feComposite in2="hardAlpha" operator="out"/><feColorMatrix values="0 0 0 0 0.113725 0 0 0 0 0.133333 0 0 0 0 0.133333 0 0 0 0.06 0"/><feBlend in2="BackgroundImageFix" result="effect1_dropShadow_2134_15740"/><feBlend in="SourceGraphic" in2="effect1_dropShadow_2134_15740" result="shape"/></filter></defs></svg>