<svg width="222" height="222" fill="none" xmlns="http://www.w3.org/2000/svg"><g filter="url(#filter0_d_2134_15721)"><rect x="20" y="10" width="182" height="182" rx="15" fill="#fff"/><rect x="20.454" y="10.454" width="181.091" height="181.091" rx="14.546" stroke="#000" stroke-opacity=".14" stroke-width=".909"/></g><g clip-path="url(#clip0_2134_15721)" fill-rule="evenodd" clip-rule="evenodd"><path d="M126.205 109.809c-6.857 5.054-16.796 7.751-25.354 7.751-11.999 0-22.8-4.438-30.973-11.819-.642-.581-.066-1.372.704-.92 8.82 5.132 19.724 8.219 30.988 8.219 7.597 0 15.954-1.572 23.638-4.834 1.161-.493 2.132.76.997 1.603" fill="#F90"/><path d="M129.055 106.547c-.873-1.12-5.794-.529-8.003-.267-.673.082-.775-.503-.169-.925 3.919-2.758 10.35-1.962 11.1-1.037.75.93-.196 7.376-3.878 10.453-.565.472-1.105.22-.853-.406.827-2.065 2.681-6.693 1.803-7.818" fill="#F90"/><path d="M121.207 85.883v-2.681c0-.406.308-.679.678-.679h12.004c.385 0 .693.278.693.678v2.297c-.005.385-.329.888-.904 1.684l-6.22 8.881c2.311-.056 4.751.288 6.847 1.47.472.266.601.657.636 1.042v2.861c0 .39-.431.847-.883.611-3.693-1.936-8.598-2.147-12.682.021-.416.226-.853-.226-.853-.617v-2.717c0-.436.006-1.181.442-1.844l7.207-10.334H121.9c-.385 0-.693-.273-.693-.673m-43.787 16.73h-3.652a.69.69 0 0 1-.653-.622V83.248c0-.375.314-.673.704-.673h3.405a.688.688 0 0 1 .663.627v2.45h.067c.888-2.368 2.558-3.472 4.808-3.472 2.285 0 3.713 1.104 4.74 3.472.884-2.368 2.892-3.472 5.044-3.472 1.531 0 3.206.631 4.228 2.05 1.156 1.576.92 3.867.92 5.875l-.006 11.83a.69.69 0 0 1-.704.678h-3.646c-.365-.026-.658-.319-.658-.678v-9.934c0-.791.072-2.764-.103-3.514-.272-1.258-1.089-1.613-2.147-1.613-.883 0-1.808.591-2.183 1.536-.375.945-.339 2.527-.339 3.59v9.935a.69.69 0 0 1-.703.678h-3.647a.691.691 0 0 1-.658-.678l-.005-9.934c0-2.09.344-5.168-2.25-5.168-2.624 0-2.522 3-2.522 5.168v9.934a.69.69 0 0 1-.703.678m67.496-20.433c5.419 0 8.351 4.653 8.351 10.57 0 5.717-3.241 10.253-8.351 10.253-5.322 0-8.219-4.654-8.219-10.453 0-5.835 2.933-10.37 8.219-10.37zm.03 3.826c-2.691 0-2.861 3.668-2.861 5.954 0 2.29-.036 7.18 2.831 7.18 2.83 0 2.963-3.945 2.963-6.348 0-1.582-.066-3.473-.544-4.972-.411-1.305-1.228-1.814-2.389-1.814m15.349 16.607h-3.636c-.365-.026-.658-.319-.658-.678l-.005-18.749c.031-.344.334-.61.704-.61h3.385c.318.015.58.23.652.523v2.866h.067c1.022-2.563 2.455-3.785 4.977-3.785 1.639 0 3.236.59 4.263 2.208.956 1.5.956 4.022.956 5.835v11.799c-.041.329-.344.591-.704.591h-3.662c-.334-.026-.612-.273-.647-.591v-10.18c0-2.05.236-5.05-2.286-5.05-.889 0-1.706.596-2.111 1.5-.514 1.145-.581 2.286-.581 3.55v10.093a.702.702 0 0 1-.714.678m-48.657-8.953c0 1.423.036 2.61-.683 3.873-.581 1.027-1.505 1.659-2.527 1.659-1.403 0-2.225-1.069-2.225-2.645 0-3.113 2.79-3.678 5.435-3.678v.79zm3.683 8.901a.764.764 0 0 1-.863.088c-1.212-1.007-1.433-1.475-2.096-2.435-2.003 2.044-3.426 2.655-6.02 2.655-3.077 0-5.465-1.895-5.465-5.69 0-2.965 1.603-4.983 3.893-5.97 1.983-.873 4.752-1.027 6.868-1.268v-.473c0-.868.067-1.895-.447-2.645-.442-.673-1.294-.95-2.049-.95-1.392 0-2.63.714-2.933 2.193-.062.329-.303.653-.637.668l-3.539-.38c-.298-.067-.632-.308-.545-.766.812-4.294 4.695-5.588 8.167-5.588 1.777 0 4.099.473 5.501 1.818 1.778 1.66 1.608 3.873 1.608 6.282v5.691c0 1.71.709 2.46 1.377 3.385.231.33.282.725-.016.971a151.75 151.75 0 0 0-2.799 2.425l-.005-.011m-51.56-8.901c0 1.423.036 2.61-.683 3.873-.58 1.027-1.5 1.659-2.527 1.659-1.403 0-2.22-1.069-2.22-2.645 0-3.113 2.79-3.678 5.43-3.678v.79zm3.683 8.901a.764.764 0 0 1-.863.088c-1.212-1.007-1.428-1.475-2.096-2.435-2.003 2.044-3.42 2.655-6.02 2.655-3.071 0-5.465-1.895-5.465-5.69 0-2.965 1.608-4.983 3.893-5.97 1.983-.873 4.752-1.027 6.868-1.268v-.473c0-.868.067-1.895-.442-2.645-.447-.673-1.3-.95-2.05-.95-1.391 0-2.634.714-2.937 2.193-.062.329-.303.653-.632.668l-3.544-.38c-.298-.067-.627-.308-.545-.766.817-4.294 4.695-5.588 8.167-5.588 1.777 0 4.1.473 5.501 1.818 1.778 1.66 1.608 3.873 1.608 6.282v5.691c0 1.71.709 2.46 1.377 3.385.236.33.287.725-.01.971-.745.622-2.07 1.777-2.8 2.425l-.01-.011" fill="#000"/></g><path d="M92.806 159h1.332v-4.727h4.273v-1.2h-4.273v-3.133h5.225v-1.185h-6.557V159zm7.884-10.362v1.581h1.434v-1.581h-1.434zm.088 10.362h1.244v-7.376h-1.244V159zm7.488-6.162l.074-1.2a2.581 2.581 0 0 0-.849-.132c-.908 0-1.874.674-2.298 1.61v-1.492h-1.244V159h1.244v-2.81c0-2.4.951-3.527 2.122-3.527.322 0 .673.058.951.175zm7.529 2.137c0-1.902-1.347-3.469-3.528-3.469-2.224 0-3.571 1.713-3.571 3.806s1.391 3.805 3.601 3.805c1.697 0 2.927-.834 3.293-2.268l-1.171-.279c-.22.923-.995 1.449-2.122 1.449-1.332 0-2.269-.98-2.357-2.473h5.825c.015-.132.03-.395.03-.571zm-5.781-.468c.248-1.23 1.097-1.961 2.253-1.961 1.303 0 2.093.834 2.21 1.961h-4.463zm11.934 4.61c2.912 0 5.035-2.195 5.035-5.24 0-3.044-2.123-5.239-5.035-5.239-2.927 0-5.049 2.195-5.049 5.239 0 3.045 2.122 5.24 5.049 5.24zm-.015-1.2c-2.122 0-3.673-1.698-3.673-4.04 0-2.341 1.551-4.054 3.673-4.054 2.152 0 3.689 1.713 3.689 4.054 0 2.342-1.537 4.04-3.689 4.04zm9.052 1.2c1.625 0 2.708-.907 2.708-2.195.015-3.045-4.259-1.888-4.259-3.469 0-.585.527-.922 1.361-.922.79 0 1.522.483 1.727 1.244l1.039-.454c-.307-1.083-1.434-1.815-2.737-1.815-1.58 0-2.59.791-2.59 1.962 0 2.795 4.244 1.58 4.244 3.468 0 .6-.585 1.127-1.493 1.127-1.141 0-1.727-.702-2.005-1.566l-1.068.469c.322 1.039 1.288 2.151 3.073 2.151z" fill="#000" fill-opacity=".39"/><defs><filter id="filter0_d_2134_15721" x="0" y="0" width="222" height="222" filterUnits="userSpaceOnUse" color-interpolation-filters="sRGB"><feFlood flood-opacity="0" result="BackgroundImageFix"/><feColorMatrix in="SourceAlpha" values="0 0 0 0 0 0 0 0 0 0 0 0 0 0 0 0 0 0 127 0" result="hardAlpha"/><feOffset dy="10"/><feGaussianBlur stdDeviation="10"/><feComposite in2="hardAlpha" operator="out"/><feColorMatrix values="0 0 0 0 0.113725 0 0 0 0 0.133333 0 0 0 0 0.133333 0 0 0 0.06 0"/><feBlend in2="BackgroundImageFix" result="effect1_dropShadow_2134_15721"/><feBlend in="SourceGraphic" in2="effect1_dropShadow_2134_15721" result="shape"/></filter><clipPath id="clip0_2134_15721"><path fill="#fff" transform="translate(53 82)" d="M0 0H118V35.56H0z"/></clipPath></defs></svg>