<svg width="124" height="35" viewBox="0 0 124 35" fill="none" xmlns="http://www.w3.org/2000/svg">
<path d="M14.926 0.77266C17.4208 0.773992 19.8456 1.59828 21.8243 3.11773C23.803 4.63719 25.2253 6.76696 25.8706 9.17689C26.5159 11.5868 26.3481 14.1423 25.3934 16.4472C24.4387 18.7522 22.7503 20.6778 20.5899 21.9256C18.4296 23.1734 15.9179 23.6737 13.4443 23.3489C10.9707 23.0242 8.67331 21.8925 6.90826 20.1293C5.1432 18.3662 4.00906 16.07 3.68165 13.5968C3.35424 11.1235 3.85184 8.61132 5.09732 6.44962C6.09073 4.72235 7.52297 3.28828 9.24898 2.29268C10.975 1.29707 12.9335 0.775292 14.926 0.780186V0.77266ZM14.926 1.12228e-05C11.9859 -0.00398838 9.14469 1.06117 6.93182 2.99697C4.71895 4.93276 3.28543 7.60713 2.89843 10.5216C2.51142 13.4361 3.19734 16.3919 4.82834 18.8381C6.45934 21.2843 8.92414 23.0541 11.7634 23.8175C14.6026 24.5809 17.6226 24.2859 20.2604 22.9875C22.8983 21.6891 24.9741 19.4759 26.1009 16.7603C27.2277 14.0447 27.3287 11.0121 26.385 8.22752C25.4413 5.443 23.5174 3.09658 20.9717 1.62559C19.1337 0.563362 17.0489 0.00278154 14.926 1.12228e-05Z" fill="#B3B2B6"/>
<path d="M14.3024 5.73654C17.2032 5.73482 20.0057 6.78779 22.1877 8.69925C24.3697 10.6107 25.7824 13.2503 26.1624 16.1261C26.5425 19.0019 25.864 21.9178 24.2535 24.3305C22.643 26.7431 20.2102 28.488 17.4085 29.2399C14.6068 29.9918 11.6273 29.6994 9.02522 28.4174C6.42311 27.1353 4.37586 24.9509 3.26497 22.2712C2.15407 19.5915 2.05529 16.5993 2.98705 13.8522C3.9188 11.1051 5.81752 8.79045 8.32942 7.33953C10.1439 6.29363 12.2006 5.74098 14.2949 5.73654H14.3024ZM14.2949 3.39852C11.1473 3.39944 8.08806 4.43885 5.59145 6.35558C3.09484 8.2723 1.3004 10.9592 0.486427 13.9997C-0.327551 17.0401 -0.115587 20.2642 1.08945 23.1719C2.29448 26.0796 4.42525 28.5085 7.15131 30.0819C9.87738 31.6553 13.0464 32.2852 16.167 31.874C19.2875 31.4628 22.1852 30.0335 24.4107 27.8077C26.6362 25.5819 28.0651 22.684 28.4758 19.5634C28.8865 16.4428 28.2561 13.2739 26.6823 10.548C25.4331 8.36836 23.6287 6.55853 21.4528 5.30269C19.2769 4.04686 16.8072 3.38985 14.2949 3.39852Z" fill="#B3B2B6"/>
<path d="M20.3719 8.79234C22.5769 8.79234 24.7324 9.44623 26.5658 10.6713C28.3992 11.8964 29.8281 13.6377 30.6718 15.6749C31.5155 17.7121 31.7361 19.9538 31.3057 22.1164C30.8754 24.279 29.8134 26.2654 28.254 27.8244C26.6947 29.3834 24.708 30.445 22.5453 30.8749C20.3826 31.3047 18.141 31.0836 16.1039 30.2394C14.0669 29.3953 12.326 27.966 11.1013 26.1324C9.87661 24.2987 9.2232 22.1431 9.2237 19.938C9.22768 16.9828 10.4036 14.1498 12.4935 12.0604C14.5834 9.97092 17.4167 8.79566 20.3719 8.79234ZM20.3719 4.89648C17.395 4.89648 14.4849 5.77925 12.0097 7.43314C9.53447 9.08703 7.60527 11.4378 6.46605 14.1881C5.32683 16.9384 5.02876 19.9648 5.60953 22.8845C6.1903 25.8042 7.62383 28.4862 9.72883 30.5912C11.8338 32.6962 14.5158 34.1297 17.4355 34.7105C20.3552 35.2912 23.3816 34.9932 26.1319 33.8539C28.8822 32.7147 31.233 30.7855 32.8869 28.3103C34.5408 25.8351 35.4235 22.925 35.4235 19.9481C35.4235 15.9561 33.8377 12.1277 31.015 9.305C28.1923 6.48227 24.3638 4.89648 20.3719 4.89648Z" fill="#F5663E"/>
<path d="M55.5177 17.4883H54.582V27.2116H55.5177V17.4883Z" fill="#1D2222"/>
<path d="M55.5177 13.5586H54.582V15.2795H55.5177V13.5586Z" fill="#1D2222"/>
<path d="M49.7774 20.4056C50.3639 20.1533 50.855 19.721 51.1797 19.1713C51.5142 18.6122 51.6878 17.9715 51.6814 17.32C51.6798 16.9018 51.6069 16.4869 51.4657 16.0933C51.3289 15.699 51.1234 15.3321 50.8586 15.0096C50.596 14.6899 50.2718 14.4263 49.9053 14.2344C49.5188 14.0314 49.0875 13.9288 48.651 13.9359H42.4648V27.2114H48.6736C49.147 27.2166 49.6169 27.1314 50.0584 26.9605C50.4817 26.7933 50.8685 26.5454 51.1973 26.2305C51.5217 25.9192 51.7824 25.5477 51.9649 25.1368C52.1547 24.7098 52.2505 24.2469 52.2459 23.7796C52.2557 23.0257 52.0226 22.2886 51.5811 21.6774C51.1442 21.0585 50.5071 20.6093 49.7774 20.4056ZM43.4181 14.7938H48.3927C48.7229 14.7899 49.0495 14.8639 49.3459 15.0096C49.6301 15.1494 49.8821 15.3468 50.086 15.5891C50.2953 15.8401 50.4599 16.1252 50.5726 16.4319C50.6926 16.758 50.7529 17.103 50.7507 17.4504C50.7506 17.7937 50.6868 18.1339 50.5626 18.4539C50.4482 18.7654 50.2782 19.0535 50.0609 19.3043C49.8419 19.5478 49.5789 19.7478 49.2857 19.8938C48.9739 20.0473 48.6298 20.1238 48.2823 20.1171H43.4181V14.7938ZM51.0869 24.6501C50.9532 24.9685 50.7666 25.262 50.535 25.5181C50.3037 25.7737 50.0241 25.9809 49.7122 26.1277C49.3866 26.2776 49.032 26.3538 48.6736 26.3509H43.4181V20.9098H48.8041C49.1446 20.9083 49.481 20.9846 49.7874 21.1331C50.0894 21.2818 50.3589 21.489 50.5802 21.7427C50.807 22.0009 50.9847 22.2985 51.1045 22.6207C51.2289 22.9458 51.2926 23.291 51.2926 23.6392C51.2919 23.9865 51.222 24.3302 51.0869 24.6501Z" fill="#1D2222"/>
<path d="M107.723 25.9022V21.1534C107.723 19.956 107.384 19.0178 106.705 18.3388C106.026 17.6598 105.1 17.3203 103.928 17.3203C102.819 17.3203 101.635 17.7443 100.376 18.5922L100.749 19.2268C101.245 18.8755 101.781 18.5865 102.347 18.3664C102.834 18.1763 103.35 18.0752 103.873 18.0679C104.265 18.0477 104.657 18.1096 105.024 18.2496C105.392 18.3895 105.725 18.6045 106.005 18.8807C106.274 19.177 106.482 19.5238 106.617 19.901C106.752 20.2781 106.811 20.6782 106.79 21.0782V22.0315C106.323 21.8595 105.841 21.731 105.35 21.6476C104.825 21.5554 104.293 21.5084 103.76 21.5072C103.207 21.5015 102.656 21.5741 102.124 21.7229C101.666 21.85 101.233 22.0526 100.842 22.3225C100.499 22.5584 100.212 22.8677 100.002 23.2281C99.8009 23.5809 99.6979 23.981 99.7033 24.387C99.7034 24.7965 99.7888 25.2015 99.9542 25.5761C100.114 25.938 100.347 26.2626 100.639 26.5294C100.939 26.8032 101.288 27.0184 101.668 27.1641C102.067 27.3214 102.493 27.4014 102.922 27.3999C103.699 27.4069 104.469 27.2469 105.18 26.9308C105.854 26.6332 106.443 26.1698 106.89 25.5836V26.3889C106.887 26.5047 106.91 26.6197 106.959 26.725C107.007 26.8303 107.079 26.923 107.169 26.996C107.34 27.1459 107.559 27.2288 107.786 27.2293H107.944C108.004 27.2293 108.064 27.2234 108.122 27.2117V26.3688C107.854 26.3688 107.723 26.2133 107.723 25.9022ZM106.79 24.3971C106.778 24.6781 106.665 24.9454 106.472 25.1497C106.135 25.6413 105.66 26.0219 105.107 26.2434C104.473 26.5161 103.79 26.6529 103.1 26.6448C102.765 26.648 102.432 26.5876 102.119 26.4667C101.826 26.3572 101.556 26.1929 101.324 25.9825C101.099 25.7755 100.92 25.5233 100.8 25.2425C100.676 24.9532 100.612 24.6415 100.614 24.3268C100.613 24.0094 100.696 23.6973 100.853 23.4217C101.011 23.1461 101.238 22.9167 101.512 22.7564C102.22 22.3272 103.04 22.1185 103.868 22.1569C104.864 22.1572 105.851 22.3348 106.785 22.6812L106.79 24.3971Z" fill="#1D2222"/>
<path d="M115.631 17.3203C115.199 17.319 114.768 17.3789 114.352 17.4984C113.941 17.6121 113.548 17.7809 113.183 18.0002C112.816 18.2177 112.479 18.4816 112.179 18.7854C111.88 19.0863 111.627 19.4295 111.427 19.8039V17.4884H110.566V27.2117H111.5V21.1911C111.626 20.7654 111.821 20.3636 112.079 20.002C112.336 19.6414 112.642 19.318 112.987 19.0412C113.324 18.7698 113.703 18.5546 114.109 18.404C114.5 18.2569 114.915 18.1813 115.333 18.1808C116.12 18.1808 116.691 18.4676 117.044 19.0412C117.396 19.6149 117.575 20.5305 117.578 21.7882V27.2117H118.514V21.6201C118.514 20.237 118.295 19.1742 117.859 18.4316C117.422 17.6891 116.68 17.3187 115.631 17.3203Z" fill="#1D2222"/>
<path d="M97.0551 25.4423C96.8414 25.6681 96.5954 25.8608 96.3251 26.0143C96.0366 26.1809 95.7292 26.3123 95.4094 26.4056C95.0842 26.5052 94.7461 26.5559 94.406 26.5561C93.8943 26.5582 93.3889 26.4432 92.9284 26.22C92.4716 25.9987 92.0626 25.6902 91.7243 25.3119C90.9887 24.4824 90.5857 23.4102 90.5929 22.3015C90.5875 21.7432 90.6853 21.1887 90.8814 20.6659C91.0629 20.1786 91.3363 19.7307 91.6867 19.3464C92.0258 18.9756 92.4362 18.677 92.8933 18.4684C93.41 18.2352 93.9742 18.1264 94.5406 18.1508C95.107 18.1752 95.6597 18.3321 96.1545 18.6089C96.678 18.8995 97.1066 19.335 97.3887 19.8632L98.3069 19.5647C97.9743 18.8708 97.4435 18.2912 96.7816 17.899C96.0751 17.4901 95.2697 17.2835 94.4536 17.3019C93.791 17.2948 93.1344 17.4282 92.527 17.6933C91.9551 17.9464 91.4379 18.3086 91.0043 18.7594C90.5663 19.2167 90.225 19.7576 90.0009 20.3499C89.7624 20.9702 89.6416 21.6295 89.6447 22.294C89.6399 22.9671 89.7678 23.6346 90.0209 24.2583C90.2599 24.854 90.605 25.4014 91.0394 25.8738C91.4673 26.3407 91.9853 26.7161 92.5622 26.9776C93.1616 27.2493 93.8131 27.3871 94.4712 27.3815C94.9105 27.3823 95.3478 27.3223 95.7707 27.2034C96.1748 27.0895 96.5614 26.9207 96.9196 26.7016C97.2595 26.4994 97.5659 26.2455 97.8277 25.9491C98.0685 25.673 98.258 25.3561 98.3871 25.0133L97.4765 24.7625C97.3902 25.0185 97.246 25.2511 97.0551 25.4423Z" fill="#1D2222"/>
<path d="M76.7052 13.5586H75.7695V15.2795H76.7052V13.5586Z" fill="#1D2222"/>
<path d="M84.6316 17.3203C84.198 17.3191 83.7665 17.3791 83.3497 17.4984C82.9393 17.6127 82.5462 17.7814 82.1807 18.0002C81.8187 18.2192 81.4858 18.483 81.1898 18.7854C80.8913 19.087 80.6379 19.43 80.4372 19.8038V17.4884H79.5742V27.2117H80.5099V21.1911C80.6351 20.7651 80.831 20.3631 81.0894 20.002C81.3456 19.6408 81.6513 19.3173 81.9975 19.0412C82.3339 18.7688 82.7127 18.5536 83.1189 18.404C83.5102 18.2567 83.9249 18.1811 84.3431 18.1808C85.1274 18.1808 85.6977 18.4676 86.0539 19.0412C86.4101 19.6149 86.5916 20.5305 86.5983 21.7881V27.2117H87.5315V21.6201C87.5315 20.237 87.3132 19.1742 86.8767 18.4316C86.4403 17.6891 85.6919 17.3187 84.6316 17.3203Z" fill="#1D2222"/>
<path d="M66.1003 19.5996C65.6578 18.9714 65.1105 18.4241 64.4823 17.9815C63.8317 17.5338 63.0568 17.3021 62.2672 17.3192C61.6356 17.3131 61.0112 17.4539 60.4434 17.7307C59.8958 17.9993 59.4091 18.3775 59.0135 18.842C58.6092 19.3206 58.2955 19.8689 58.0879 20.46C57.87 21.072 57.7596 21.717 57.7617 22.3666C57.7601 22.999 57.874 23.6264 58.0979 24.2179C58.3149 24.8053 58.638 25.3478 59.0512 25.8184C59.4601 26.2827 59.955 26.6635 60.5087 26.9397C61.0841 27.2238 61.7183 27.3682 62.36 27.3612C63.0855 27.3575 63.7963 27.1572 64.4171 26.7817C65.0594 26.4136 65.6046 25.8976 66.0075 25.2765V27.4088C66.0178 27.8923 65.9184 28.3717 65.7165 28.8111C65.5323 29.1997 65.2641 29.5424 64.9313 29.8146C64.5877 30.0903 64.1942 30.2973 63.7724 30.4242C63.3145 30.5628 62.8384 30.6322 62.36 30.6299C61.633 30.6277 60.9153 30.4659 60.2578 30.1558C59.5956 29.8486 59.0463 29.3415 58.6874 28.7058L58.0527 29.1373C58.2496 29.4717 58.4845 29.7823 58.7526 30.0629C59.0219 30.3426 59.3303 30.5817 59.6683 30.7729C60.042 30.9767 60.4422 31.1278 60.8574 31.2219C61.3514 31.3319 61.8564 31.385 62.3625 31.3799C62.9571 31.3852 63.5492 31.3006 64.1185 31.1291C64.6484 30.9727 65.1438 30.7173 65.5785 30.3765C66.0011 30.0423 66.3439 29.6181 66.582 29.1347C66.8423 28.5929 66.9713 27.9973 66.9583 27.3963V17.4873H66.1154L66.1003 19.5996ZM66.0075 23.9369C65.9599 24.2743 65.8317 24.5953 65.6337 24.8726C65.4131 25.1925 65.145 25.4767 64.8385 25.7155C64.5167 25.9664 64.1611 26.1708 63.7824 26.3226C63.4023 26.4769 62.996 26.5561 62.5858 26.5559C62.0586 26.5598 61.5373 26.4449 61.0606 26.2198C60.5948 25.9955 60.176 25.6848 59.8263 25.3041C59.4705 24.9155 59.1891 24.4648 58.996 23.9746C58.7939 23.4697 58.6917 22.9304 58.6949 22.3866C58.6959 21.868 58.7806 21.353 58.9458 20.8614C59.1069 20.3701 59.3541 19.9114 59.6758 19.5067C59.9951 19.1061 60.3929 18.7749 60.8448 18.5334C61.2558 18.3217 61.706 18.1969 62.1674 18.1666C62.6288 18.1364 63.0914 18.2015 63.5265 18.3578C63.8924 18.4864 64.2386 18.6654 64.555 18.8896C64.8775 19.1166 65.1642 19.3905 65.4054 19.7024C65.6539 20.0182 65.8558 20.3679 66.005 20.741L66.0075 23.9369Z" fill="#1D2222"/>
<path d="M73.4013 26.2471C73.0852 26.385 72.7427 26.4518 72.3979 26.4428C72.0893 26.4479 71.7874 26.3528 71.5374 26.1719C71.4126 26.0781 71.313 25.9547 71.2478 25.8128C71.1825 25.6709 71.1536 25.515 71.1637 25.3591V18.2522H73.444V17.4871H71.1637V14.1582H70.228V17.4871H68.8633V18.2522H70.228V25.5824C70.2209 25.8424 70.2759 26.1004 70.3885 26.3349C70.4912 26.5413 70.6336 26.7254 70.8074 26.8768C70.9869 27.0274 71.1939 27.1415 71.417 27.213C71.6554 27.2894 71.9043 27.3275 72.1546 27.3258C72.3999 27.3275 72.6447 27.3022 72.8846 27.2506C73.0899 27.2059 73.2926 27.1498 73.4917 27.0825C73.6475 27.0314 73.7979 26.9651 73.9407 26.8843C74.0586 26.8166 74.1439 26.7714 74.1915 26.7464L73.9106 25.9938C73.8529 26.0314 73.6823 26.1167 73.4013 26.2471Z" fill="#1D2222"/>
<path d="M76.7052 17.4883H75.7695V27.2116H76.7052V17.4883Z" fill="#1D2222"/>
<path d="M119.243 14.2268H118.402V13.9258H120.447V14.2268H119.604V16.6877H119.243V14.2268Z" fill="#1D2222"/>
<path d="M123.085 15.4808C123.065 15.0945 123.039 14.6329 123.044 14.2893H123.032C122.937 14.6129 122.824 14.9565 122.683 15.3379L122.197 16.6774H121.926L121.479 15.3629C121.349 14.9716 121.228 14.6104 121.158 14.2893C121.158 14.6329 121.13 15.0945 121.105 15.5084L121.03 16.695H120.691L120.885 13.9355H121.339L121.81 15.2701C121.926 15.6113 122.018 15.9148 122.089 16.2008H122.101C122.171 15.9224 122.269 15.6188 122.392 15.2701L122.894 13.9355H123.348L123.521 16.695H123.172L123.085 15.4808Z" fill="#1D2222"/>
</svg>
