<svg width="43" height="43" viewBox="0 0 43 43" fill="none" xmlns="http://www.w3.org/2000/svg">
<path d="M33.3516 3.9707V23.2567L36.685 20.8757L40.2564 16.1138V12.3042L38.8278 7.78029L33.3516 3.9707Z" fill="#82D7B9"/>
<path d="M1.875 41.878L6.56936 37.1836" stroke="#212121" stroke-width="1.3" stroke-miterlimit="10" stroke-linecap="square"/>
<path d="M10.3822 19.9062L6.57258 23.7158C4.79941 25.5046 3.80701 27.9229 3.81252 30.4416C3.81804 32.9603 4.82102 35.3742 6.60201 37.1552C8.38299 38.9362 10.7969 39.9392 13.3156 39.9447C15.8343 39.9502 18.2526 38.9578 20.0414 37.1846L23.851 33.375L10.3822 19.9062Z" stroke="#212121" stroke-width="1.3" stroke-miterlimit="10" stroke-linecap="square"/>
<path d="M41.878 1.87695L37.1836 6.57132" stroke="#212121" stroke-width="1.3" stroke-miterlimit="10" stroke-linecap="square"/>
<path d="M33.3711 23.851L37.1807 20.0414C38.9539 18.2526 39.9463 15.8343 39.9408 13.3156C39.9353 10.7969 38.9323 8.38299 37.1513 6.60201C35.3703 4.82102 32.9564 3.81804 30.4377 3.81252C27.919 3.80701 25.5007 4.79941 23.7119 6.57258L19.9023 10.3822L33.3711 23.851Z" stroke="#212121" stroke-width="1.3" stroke-miterlimit="10" stroke-linecap="square"/>
<path d="M18.0635 19.9746L14.2539 23.7842" stroke="#212121" stroke-width="1.3" stroke-miterlimit="10" stroke-linecap="square"/>
<path d="M23.7783 25.6875L19.9688 29.4971" stroke="#212121" stroke-width="1.3" stroke-miterlimit="10" stroke-linecap="square"/>
</svg>
