<svg width="42" height="42" viewBox="0 0 42 42" fill="none" xmlns="http://www.w3.org/2000/svg">
<path d="M29.2143 24.5733L17.071 12.7871L15.2852 13.8586L12.7852 16.3587L25.2856 28.8591L26.3571 28.1448L29.2143 24.5733Z" fill="#FFECBA"/>
<path d="M10.9997 36.0024L2.35938 27.3613L2.63939 27.6413" stroke="#212121" stroke-width="1.3" stroke-miterlimit="10" stroke-linecap="square"/>
<path d="M20.2891 16.7148L28.9122 25.3387L28.3015 24.728" stroke="#212121" stroke-width="1.3" stroke-miterlimit="10" stroke-linecap="square"/>
<path d="M21.7171 25.2867L13.0625 16.6328L13.2718 16.8421" stroke="#212121" stroke-width="1.3" stroke-miterlimit="10" stroke-linecap="square"/>
<path d="M39.4139 14.4132L39.6417 14.6403L31 6" stroke="#212121" stroke-width="1.3" stroke-miterlimit="10" stroke-linecap="square"/>
<path d="M18.1406 29.1946C19.5551 29.4483 20.9895 29.5748 22.4265 29.5725C24.321 29.5725 26.1379 28.8199 27.4774 27.4803C28.817 26.1407 29.5696 24.3238 29.5696 22.4294C29.5696 15.2862 26.7124 12.429 26.7124 5.28587C26.7143 3.73471 27.2294 2.22778 28.1774 1" stroke="#212121" stroke-width="1.3" stroke-miterlimit="10" stroke-linecap="square"/>
<path d="M9.57175 27.0963C8.15745 26.8409 6.72305 26.7132 5.28587 26.7149C3.73584 26.7194 2.23014 27.2326 1 28.1756" stroke="#212121" stroke-width="1.3" stroke-miterlimit="10" stroke-linecap="square"/>
<path d="M23.8548 12.8076C22.4403 12.5539 21.0059 12.4275 19.5689 12.4297C17.6744 12.4297 15.8575 13.1823 14.518 14.5219C13.1784 15.8615 12.4258 17.6784 12.4258 19.5728C12.4258 26.716 15.283 29.5732 15.283 36.7163C15.2811 38.2675 14.766 39.7744 13.818 41.0022" stroke="#212121" stroke-width="1.3" stroke-miterlimit="10" stroke-linecap="square"/>
<path d="M32.4297 14.9055C33.844 15.1609 35.2784 15.2886 36.7156 15.2869C38.2656 15.2824 39.7713 14.7692 41.0014 13.8262" stroke="#212121" stroke-width="1.3" stroke-miterlimit="10" stroke-linecap="square"/>
</svg>
