<svg width="42" height="42" viewBox="0 0 42 42" fill="none" xmlns="http://www.w3.org/2000/svg">
<rect x="6.33008" y="14.4297" width="26.5209" height="5.11463" fill="#A8CEF1"/>
<rect x="28.7031" y="17.8574" width="12.981" height="4.47777" transform="rotate(-67.8646 28.7031 17.8574)" fill="#A8CEF1"/>
<path d="M7.66602 40.877C9.87515 40.877 11.666 39.0861 11.666 36.877C11.666 34.6678 9.87515 32.877 7.66602 32.877C5.45688 32.877 3.66602 34.6678 3.66602 36.877C3.66602 39.0861 5.45688 40.877 7.66602 40.877Z" stroke="#212121" stroke-width="1.3" stroke-miterlimit="10" stroke-linecap="round" stroke-linejoin="round"/>
<path d="M34.334 40.877C36.5431 40.877 38.334 39.0861 38.334 36.877C38.334 34.6678 36.5431 32.877 34.334 32.877C32.1248 32.877 30.334 34.6678 30.334 36.877C30.334 39.0861 32.1248 40.877 34.334 40.877Z" stroke="#212121" stroke-width="1.3" stroke-miterlimit="10" stroke-linecap="round" stroke-linejoin="round"/>
<path d="M6.33594 6.21289H38.3359L33.0026 19.5462H6.33594" stroke="#212121" stroke-width="1.3" stroke-miterlimit="10" stroke-linecap="round" stroke-linejoin="round"/>
<path d="M1 0.876953L6.33333 6.21029V19.5436L1 27.5436H41" stroke="#212121" stroke-width="1.3" stroke-miterlimit="10" stroke-linecap="round" stroke-linejoin="round"/>
</svg>
