<svg width="43" height="42" viewBox="0 0 43 42" fill="none" xmlns="http://www.w3.org/2000/svg">
<path d="M5.04492 5.86547C5.04492 5.20842 5.57756 4.67578 6.23461 4.67578H36.5807C37.2377 4.67578 37.7704 5.20842 37.7704 5.86547V9.44824H5.04492V5.86547Z" fill="#F5663E"/>
<path d="M9.81836 4.67578L9.81836 37.4012L6.23559 37.4012C5.57854 37.4012 5.0459 36.8686 5.0459 36.2115L5.0459 5.86547C5.0459 5.20842 5.57854 4.67578 6.23559 4.67578L9.81836 4.67578Z" fill="#F5663E"/>
<path d="M14.1426 4.67913V1.04297" stroke="#212121" stroke-width="1.3" stroke-miterlimit="10" stroke-linecap="square"/>
<path d="M28.6816 4.67913V1.04297" stroke="#212121" stroke-width="1.3" stroke-miterlimit="10" stroke-linecap="square"/>
<path d="M21.4121 4.67913V1.04297" stroke="#212121" stroke-width="1.3" stroke-miterlimit="10" stroke-linecap="square"/>
<path d="M41.4116 28.3125H37.7754" stroke="#212121" stroke-width="1.3" stroke-miterlimit="10" stroke-linecap="square"/>
<path d="M41.4116 13.7734H37.7754" stroke="#212121" stroke-width="1.3" stroke-miterlimit="10" stroke-linecap="square"/>
<path d="M41.4116 21.041H37.7754" stroke="#212121" stroke-width="1.3" stroke-miterlimit="10" stroke-linecap="square"/>
<path d="M5.04827 28.3125H1.41211" stroke="#212121" stroke-width="1.3" stroke-miterlimit="10" stroke-linecap="square"/>
<path d="M5.04827 13.7734H1.41211" stroke="#212121" stroke-width="1.3" stroke-miterlimit="10" stroke-linecap="square"/>
<path d="M5.04827 21.041H1.41211" stroke="#212121" stroke-width="1.3" stroke-miterlimit="10" stroke-linecap="square"/>
<path d="M14.1426 41.0424V37.4062" stroke="#212121" stroke-width="1.3" stroke-miterlimit="10" stroke-linecap="square"/>
<path d="M28.6816 41.0424V37.4062" stroke="#212121" stroke-width="1.3" stroke-miterlimit="10" stroke-linecap="square"/>
<path d="M21.4121 41.0424V37.4062" stroke="#212121" stroke-width="1.3" stroke-miterlimit="10" stroke-linecap="square"/>
<path d="M34.1342 4.67578H8.68108C6.67289 4.67578 5.04492 6.30375 5.04492 8.31194V33.7651C5.04492 35.7733 6.67289 37.4012 8.68108 37.4012H34.1342C36.1424 37.4012 37.7704 35.7733 37.7704 33.7651V8.31194C37.7704 6.30375 36.1424 4.67578 34.1342 4.67578Z" stroke="#212121" stroke-width="1.3" stroke-miterlimit="10" stroke-linecap="square"/>
<path d="M28.6822 31.0402C30.1883 31.0402 31.4093 29.8192 31.4093 28.3131C31.4093 26.8069 30.1883 25.5859 28.6822 25.5859C27.1761 25.5859 25.9551 26.8069 25.9551 28.3131C25.9551 29.8192 27.1761 31.0402 28.6822 31.0402Z" stroke="#212121" stroke-width="1.3" stroke-miterlimit="10" stroke-linecap="square"/>
</svg>
