<svg width="42" height="45" viewBox="0 0 42 45" fill="none" xmlns="http://www.w3.org/2000/svg">
<path d="M1.22266 6.53871C1.22266 5.63497 1.95528 4.90234 2.85902 4.90234H5.97875V43.9267H2.85902C1.95528 43.9267 1.22266 43.1941 1.22266 42.2904V6.53871Z" fill="#82D7B9"/>
<path d="M15.8574 3.92683C15.8574 3.15059 16.1658 2.40614 16.7147 1.85725C17.2636 1.30836 18.008 1 18.7843 1H38.2964C39.0727 1 39.8171 1.30836 40.366 1.85725C40.9149 2.40614 41.2233 3.15059 41.2233 3.92683V15.6341C41.2233 16.4104 40.9149 17.1548 40.366 17.7037C39.8171 18.2526 39.0727 18.561 38.2964 18.561H22.6867L15.8574 23.439V3.92683Z" stroke="#212121" stroke-width="1.3" stroke-miterlimit="10" stroke-linecap="square"/>
<path d="M27.5646 12.707H21.7109" stroke="#212121" stroke-width="1.3" stroke-miterlimit="10" stroke-linecap="square"/>
<path d="M35.3695 6.85547H21.7109" stroke="#212121" stroke-width="1.3" stroke-miterlimit="10" stroke-linecap="square"/>
<path d="M10.9788 4.90234H5.1251C4.0901 4.90234 3.0975 5.31349 2.36565 6.04534C1.6338 6.77719 1.22266 7.76979 1.22266 8.80478V40.0243C1.22266 41.0593 1.6338 42.0519 2.36565 42.7837C3.0975 43.5156 4.0901 43.9267 5.1251 43.9267H23.6617C24.6967 43.9267 25.6893 43.5156 26.4211 42.7837C27.153 42.0519 27.5641 41.0593 27.5641 40.0243V23.4389" stroke="#212121" stroke-width="1.3" stroke-miterlimit="10" stroke-linecap="square"/>
<path d="M1.22266 10.7578H10.9788" stroke="#212121" stroke-width="1.3" stroke-miterlimit="10" stroke-linecap="square"/>
<path d="M1.22266 37.0977H27.5641" stroke="#212121" stroke-width="1.3" stroke-miterlimit="10" stroke-linecap="square"/>
</svg>
