<svg width="156" height="74" fill="none" xmlns="http://www.w3.org/2000/svg"><path d="M123.776 69.596c0-.22-.219-.11-.329-.22-.109.22-.219.22-.329 0-.109 0-.109.11-.219.11v-.441c-.219 0-.329 0-.438.22.109 0 .219-.11.329-.11 0 .33 0 .33-.329.44-.11-.11-.11-.33-.329-.33l-.548.55c-.11-.33-.11-.33-.438-.11-.11-.11-.11-.22-.22-.33-.109.11-.109-.11-.219-.11 0 .11-.11.22-.11.33v.11h.329c.22-.11.22.11.22.22-.22.11-.329.221-.549.11-.109-.11-.219 0-.328.111 0 0-.11.11-.22.11 0-.11-.109-.22-.109-.22l-.219.22c-.11-.11 0-.44-.329-.44 0 .11.109.33.109.44 0 .11-.109.33-.219.44v-.22c-.219 0-.329 0-.548-.11l-.109.11c0-.11-.11-.11-.11-.22-.329 0-.658 0-1.096.11 0 0 0 .11-.11.11-.219-.11 0-.44-.219-.55-.219.11-.219.33-.329.55 0-.11-.109-.11-.109-.11-.22.11-.22.11-.22.33-.109-.11-.109-.22 0-.44-.328.22-.548.11-.876.11-.11 0-.22-.11-.329-.22-.11.11-.11.22-.219.22 0 .11.109.22.219.11h.109c.11 0 .11.11.11.11l-.11.11c-.109 0-.328-.11-.438-.22-.11-.11-.219-.22-.329-.11h-.329l-.109.11c.109.11.219.11.329.22-.11 0-.22.11-.329.11h-.329c0 .11 0 .221.11.331.109-.22.328-.22.219-.33.109 0 .219 0 .329-.11 0 0 0-.11.109-.11.11.22 0 .33-.109.44-.11.11-.329.22-.439.33 0 0-.109-.11-.219-.11 0 .11-.11.11-.11.22l-.219-.22c0-.11.219-.22 0-.44-.109-.11-.109 0-.219.11 0 0 .11 0 .219.11-.219.22-.219.22-.219.55-.219 0-.329.11-.548.11.11-.22.438-.11.438-.33h-.109c-.219 0-.329.11-.548.11-.11 0-.22.11-.22.22-.109 0-.219 0-.438.11.11-.11.11-.22.219-.33h-.219c-.11 0-.219.11-.329 0h-.329c-.219 0-.328 0-.438.33 0 0 0 .111-.11.111-.109-.22-.219-.33-.328-.33-.11 0-.22-.11-.329-.22h-.767c-.11 0-.329.11-.439.11-.109 0-.219 0-.219.11h-.329s-.11 0-.11-.11v.11c0 .11.22.11.11.22 0 .11-.11.11-.219 0h-.329l-.11.11c.11 0 .22 0 .329.11-.219.11-.548.11-.877.22v-.22s-.109 0-.219-.11v.33c-.109-.11-.109-.22-.219-.22-.11.22-.329.11-.438.11 0 .11 0 .11.109.22-.109-.11-.219-.22-.329-.22h-.438c0-.11.219-.22 0-.33 0 .22-.329.11-.329.22-.109.22-.219 0-.438.11-.11.11-.329.11-.439.11 0-.22.11-.22.22-.33.109 0 .219 0 .328-.11-.109-.11-.109-.22-.219-.33-.109 0-.219.11-.219.11h-.329c-.329.11-.548.22-.767.33-.11 0-.219 0-.219.11-.11.11-.329 0-.439.22-.109-.11-.219 0-.329 0-.219 0-.548 0-.767.11h-.438c-.11 0-.219.11-.219.11h-.329c-.11.33-.329.33-.548.441 0-.11-.11-.11-.11-.22h-.22c-.218.11-.438 0-.547.11h-.767c-.11 0-.22.11-.22.11-.11 0-.11.11-.219.22 0-.11-.11-.11-.11-.11h-.109c-.11.22-.329.22-.548.11h-.22v-.11c-.218 0-.438.11-.547-.11 0 0-.11 0-.11.11h-.11v-.33c-.11 0-.219.11-.438.11-.22-.11-.329-.11-.548-.11-.11 0-.22.11-.329 0h-.219l-.329-.33s.11.11.11.22c-.22 0-.329 0-.329.22h.329c-.11.11-.11.22-.22.33-.109 0-.109 0-.219-.11-.11.22-.328.22-.548.11-.11 0-.11 0-.219.11l-.219-.22c-.22 0-.439 0-.767.11.11-.11.11-.22.219-.33 0-.11.11-.11.11-.22-.11 0-.33.11-.11.22h-.22c0 .11 0 .11-.109.22-.11 0-.11-.11-.11-.11 0-.11 0-.33-.11-.44v-.22c-.109 0-.218 0-.438.11.22.11.33.33.33.66-.11-.11-.11-.11-.22-.11v.22c-.11 0-.22.11-.329.11 0-.11.11-.33.11-.33-.11 0-.22 0-.329-.11-.329-.11-.658 0-.877.33 0-.11 0-.22.11-.33h-.548c-.11.11-.22.33-.22.44-.219 0-.328-.22-.547-.11-.11-.22.11-.22.219-.22-.11-.44-.329 0-.439-.22v-.22s-.11 0-.11.11 0 .22-.218.22v-.22c-.11.11-.22.11-.33.22v-.33c-.109 0-.218 0-.218-.11 0 .11 0 .11-.11.11h-.11c-.219-.11-.328-.11-.548 0v.11c-.11 0-.329-.11-.438.11.22.11.22.11.438-.11h.548c-.11.22-.11.33-.219.44-.22 0-.11-.22-.22-.22-.109 0-.218.11-.438.11-.11 0-.11-.22-.328-.22-.22 0-.439 0-.548.22-.22-.22 0-.22.11-.33-.11-.11-.22-.11-.22 0-.11.22-.329.33-.438.55-.11-.11-.22-.22-.439-.11-.11 0-.22 0-.329-.11 0-.11-.219-.11-.219-.11-.22.22-.548.22-.877.44h.877c.11 0 .22.11.329.22-.548-.11-.987.11-1.425-.11-.11.11-.22.11-.329.22v-.33c.22 0 .22 0 .22-.11-.11.11-.11.11-.22.11s-.11-.11-.219-.11v.33l-.11-.11c-.11-.22-.11-.33-.328-.22h-.658s-.11 0-.11.11c.11 0 .22.11.439.11v.11c-.11 0-.22.11-.329 0-.22 0-.329 0-.548-.11.11-.11.22-.11.329-.22 0-.11-.11-.22-.11-.33-.11.11-.219.22-.329.22-.11-.11-.328-.11-.548-.11h-.438c-.22 0-.22 0-.22.22v.22c0-.11.11-.11.11-.11h.439c0 .11.328 0 .219.22h-.439c-.328.11-.547 0-.876-.11-.22.11-.33.22-.548.11.11-.11.219-.11.438-.22l.11-.11c.11.11.219 0 .219-.11s-.11-.11-.22-.11c-.218 0-.328.11-.547.11 0 0-.11 0-.11-.11-.11-.11-.329-.11-.329 0-.11.11-.219.11-.329 0-.11-.11-.328 0-.438-.22 0 0-.11 0-.11.11-.11.11-.219.11-.328.11l.11-.11c-.22 0-.44 0-.658.11h-.22c-.219-.11-.438-.22-.767-.22.11.11.11.22.22.33.219 0 .438.11.657.11 0 .11 0 .22-.11.11-.11 0-.219-.22-.438 0 0 0-.11 0-.11-.11-.11 0-.11-.11-.219-.11-.22.11-.329 0-.548 0-.11 0-.22.11-.329 0h-.877c-.11 0-.11-.11-.219-.22l-.11.11c-.328 0-.657-.11-1.096-.11v-.11c.11-.11.22-.22.439-.33-.329-.11-.767-.22-1.096-.11v-.331c-.11.11-.22.22-.439.22h-.438c-.11 0-.22.11-.329.11-.219 0-.548.11-.767.11h-.11c.11.11.11.11.33 0 .109 0 .328.11.438.11 0 .11-.11.11-.22.11-.438 0-.767 0-1.205-.11h-.439s0-.11-.11-.11h-.109c-.22.11-.548.11-.877.11h-.548c-.11-.11-.329-.33-.657-.11h-.877c-.11-.11 0-.11.11-.22.219.11.438.22.767 0 0-.11-.11-.22-.11-.44-.22.11-.438 0-.658 0-.219.11-.328.22-.328.44-.22.66-.33.55-.33.55-.109 0-.109 0-.218.11l.438-.44c-.11-.11-.22-.11-.329 0-.11.11-.329.11-.438.11-.22 0-.33 0-.548-.11-.11-.11-.22 0-.33 0-.109 0-.218 0-.218-.22-.11.11-.11.22-.11.22.329.22.658.11.986.33-.11.11-.328.11-.438.11a.932.932 0 0 0-.767 0h-.22l.33-.33c0-.11-.11-.11-.11-.22-.11.11-.22.11-.329.22l.22.22h-.22c-.329 0-.658-.11-.986-.11h-.439c-.438 0-.767-.11-1.206 0h-.219c-.11-.11-.219 0-.328 0-.22-.22-.549-.22-.768-.33l-.11-.11c0 .11-.109.11-.218.11-.11-.11-.22 0-.33 0h-.767c-.11 0-.219-.11-.328 0-.11 0-.22 0-.33-.11.11-.11.33.11.22-.22.11.11.22.11.329.22.11 0 .219-.11.329-.11-.22-.22-.439-.33-.658-.22h-.548c-.11 0-.11-.11-.22-.11-.109 0-.109.11-.218.11-.11 0-.22-.11-.33-.11 0 0 0 .22-.218.11-.11-.11 0-.22.11-.33h-.44c-.109 0-.109.11-.109.22-.11 0-.22 0-.438.11.219.22.548.22.986.11.11.11.11.11-.11.22h-.657c-.438-.11-.877-.11-1.315-.22h-.11c-.22 0-.329.11-.548 0-.11 0-.22 0-.329-.11-.548-.11-1.096-.22-1.644-.22-.22 0-.438-.11-.658-.22-.219 0-.438.11-.767 0-.219-.11-.438-.11-.657-.11h-.11c-.11-.11-.11-.221-.22-.331h-.109c0 .11.11.11.22.33-.22 0-.33-.11-.44-.11-.109 0-.328 0-.438-.11 0 0-.11-.11-.219 0-.219.11-.438 0-.767 0s-.548-.11-.877-.11c-.329 0-.548-.11-.877-.11-.548-.11-1.096-.22-1.644-.22-.219 0-.438-.11-.657-.11-.11 0-.33-.22-.439-.33-.11 0-.11.11-.219.11-.11 0-.22-.331-.438-.11-.11-.111 0-.331-.22-.331 0 .11 0 .11.11.22-.329 0-.438 0-.548-.22-.11 0-.11.11-.22 0-.109-.11-.218 0-.328 0-.22-.11-.438 0-.658 0 0 0-.11 0-.11.11.11 0 .11.11.11.11-.11.11-.219.11-.438.22-.11-.22-.22-.11-.438-.11 0-.22.11-.22.219-.22h.219c.11 0 .11-.11.22-.11-.22-.22-.44-.33-.658-.22 0-.11-.11-.11-.11-.22-.11.22-.22.22-.329.11-.11 0-.22 0-.329-.11h-.11c-.219-.11-.438-.221-.767-.221-.11 0-.219-.11-.328-.11h-.33c-.109 0-.218-.11-.438-.11 0-.11.22-.11.22-.11v-.11c-.548-.441-.768-.441-.768-.441-.11-.11-.219-.11-.328-.11h-.22c-.219.11-.438 0-.657 0 0 0-.11-.11-.22-.11s-.219.11-.438.11h-.11c-.11 0-.219-.11-.328-.22-.22-.22-.439-.22-.768-.11-.11-.11-.11-.22-.219-.33l-.11.11c-.328-.22-.547-.22-.767.11-.11.11-.219.11-.329 0 .22-.11.439-.11.658-.441h-.11c-.11 0-.11.11-.219.11-.11 0-.11-.11-.219-.11h-.11c-.219.11-.438 0-.657 0-.11 0-.22-.11-.22-.11-.109.11-.109.22-.219.33-.11 0-.11 0-.219-.11l.11-.11s.11 0 .11-.11v-.11h-.877c-.11-.22.11-.33.11-.55-.11 0-.22-.111-.22-.111-.329.11-.548-.11-.767-.22-.22-.11-.439-.22-.658-.11 0 0-.11 0-.22-.11l-.109-.11v.33c-.11 0-.11-.11-.219-.11-.11-.11-.22-.11-.329 0-.219.11-.219 0-.219-.22h.22c-.22-.11-.549-.22-.768-.441-.329.22-.548-.11-.877-.22-.11.11-.219.11-.438.11-.11 0-.22.22-.329.11-.22.11-.329 0-.438-.11-.11-.11-.22-.11-.439-.22.22 0 .329 0 .548-.11-.11-.11-.219-.11-.329-.22h-.329c-.11-.11-.11 0-.219 0-.11-.11-.11-.221-.11-.221-.109.11-.109.22-.218.33-.11-.11-.22-.11-.33-.11 0-.11 0-.33-.109-.44-.22-.11-.438-.22-.657-.22-.22-.11-.22.11-.33.33-.109-.22-.438-.11-.547-.44-.22 0-.33 0-.439-.11h-.219c-.11-.221-.22-.331-.438-.331-.11 0-.22-.11-.22-.22-.11 0-.219.11-.219-.11h-.22c-.109 0-.328 0-.328-.22 0-.11-.11-.11-.22-.11-.328 0-.657-.11-.986-.331 0 0-.11-.11-.219-.11-.219-.11-.438-.11-.657-.33h-.11c-.22-.11-.329-.11-.548-.331-.11-.11-.22-.22-.329-.22-.219 0-.329-.11-.548-.22-.11 0-.22 0-.329-.11 0-.22-.329-.331-.548-.331-.11-.11-.219 0-.329.11.11 0 .22-.11.33-.11 0 .11-.11.11-.11.22.11 0 .11.11.219.11-.329 0-.658-.11-.767-.44l.11-.11c.109 0 .218.11.328.11.11 0 .11-.22.22-.33-.33-.22-.658-.11-.878-.22-.11-.11-.11-.11-.219 0h.22c-.11.11-.11.11-.439.33v-.44c0 .11-.11.22-.11.22-.11-.11-.328-.11-.438-.22-.11-.11-.22-.221-.329-.441 0 0 0-.11.11-.22-.11-.22-.329-.33-.548-.441-.11 0-.22-.11-.329-.22-.11-.11-.22-.11-.329 0v-.33l-.11-.11c-.219 0-.438-.221-.657-.11.11-.111.11-.221.11-.331-.11 0-.22-.11-.33-.11-.219 0-.328-.11-.438-.22-.219-.33-.438-.441-.548-.33-.11-.111-.219-.331-.329-.441.11 0 .11-.11.22-.11 0-.11-.11-.33-.22-.33-.219 0-.328 0-.438-.221l-.11-.11c-.219.11-.438-.22-.548-.22l-.328-.661c-.11 0-.22.11-.33-.11-.109-.11-.328-.11-.328-.33 0-.11-.22-.22-.329-.331l-.329-.33c-.219-.22-.329-.44-.548-.661l-.657-.66s-.11-.11-.11-.221c0-.22-.11-.33-.329-.44-.11 0-.219-.11-.219-.22a1.52 1.52 0 0 0-.329-.441c-.11-.22-.11-.44-.329-.55v-.331s-.11-.11-.11-.22c-.109-.11-.109-.22-.218-.33-.22-.11-.22-.331-.33-.441-.109-.22-.218-.44-.438-.55.11-.221.11-.441-.11-.551 0 0 0-.11-.109-.22v-.11c-.22-.331-.329-.772-.438-1.212-.22-.44-.33-.991-.439-1.432-.11-.33-.11-.55-.11-.88-.109-.331-.219-.551-.109-.882-.22-.22-.11-.55-.11-.88 0-.11-.11-.22-.11-.33 0-.111-.109-.111-.109-.221s.11-.11.11-.11c0-.22-.22-.33 0-.55-.22-.221 0-.441-.22-.551.11-.33-.109-.661 0-.992v-.22c0-.22 0-.44.11-.55.11-.11.11-.22 0-.33-.11-.11.11-.331 0-.441.22-.22.11-.66.22-.881v-.44-.11c.219-.221.219-.551.219-.772 0-.11 0-.11.11-.22.109-.11.109-.22 0-.33-.11-.11 0-.22 0-.33.109-.11.109-.33.218-.441.11-.22.11-.44.22-.66.11-.221.329-.551.329-.882v-.11c.219 0 .219-.33.219-.44.11-.33.11-.661.329-.991.11-.22.11-.44.328-.661.11-.11 0-.22 0-.44.22 0 .33-.11.33-.33.109-.221.218-.331.328-.552.11-.11.22-.22.329-.44 0 0 0-.11.11-.22.109-.11.219-.11.328-.22 0-.11-.11-.22 0-.22.11-.221 0-.441.329-.551.11 0 .11-.11.11-.11.11-.22.219-.551.548-.551.11-.22.328-.44.548-.55.11-.22.329-.331.657-.331-.328-.22-.328-.33-.438-.33.22-.11.11-.33.329-.44 0-.221.329-.221.329-.441s.328-.22.328-.44c-.11 0-.11 0-.219-.11.11-.221.329-.111.329-.111.22-.33.438-.55.658-.77.328 0 .328-.331.328-.551.11 0 .22 0 .33-.11.109 0 .109 0 .109-.11.11-.331.438-.551.548-.882h.22c-.11-.22.328-.22.109-.44.11 0 .219-.22.328-.11h.11c.11-.11.22-.33.439-.44l.328-.331c.11-.11.33-.22.33-.44h-.22l.986-.661h.33c-.11-.22 0-.33.218-.44.11 0 .22-.11.22-.221.11-.11.219-.22.328-.22 0 0 .11 0 .11-.11l.329-.661c.329.11.438-.22.657-.22l.11-.11c.11-.22.329-.44.658-.33.11-.331.438-.662.767-.551.22-.22.329-.22.548-.11h.22c.218-.22.438-.441.657-.551-.11-.11-.329 0-.329-.22l.22-.22c0 .11 0 .11.109.22.11.11.219.22.329.11.219-.11.219-.22.219-.44 0-.11.11-.331.22-.441.218-.22.328-.44.657-.55.11 0 .219-.221.438-.331.22-.11.329-.11.439 0 .11.11.219.11.219-.11 0-.11-.11-.22-.11-.33.329-.22.658-.441.877-.771h.548c0-.22.22-.33.438-.44.22-.111.439-.111.549.22.219-.11.438-.22.547-.441h.22c.219 0 .329-.22.438-.33-.22.11-.329.11-.548.22.11-.11.11-.22.22-.44.109-.221.219-.11.438-.11-.11-.221 0-.331.11-.441.218-.11.328.11.438.22.11-.11.329-.11.329-.33-.11 0-.11.11-.22.11s-.219-.11-.329-.11c.22-.11.33-.33.549-.22 0-.22.219-.331.328-.331.22-.11.33 0 .548.11.22.11.22.11.33-.11 0-.11.109-.11.218-.22 0-.11.11-.33.11-.44.329-.11.548-.11.767-.331.22.11.548-.22.877.11l.22-.22c.657 0 .767-.11.986-.11 0 0 .11-.11.219-.11.11-.11.22-.22.329-.22.329 0 .438-.221.657-.331v-.11c.33.11.439-.22.658-.22 0-.11-.11-.22-.11-.33.33-.11.549-.221.877 0 0-.11.33-.11.22-.441.11-.11.219-.11.328 0 .11.11.33 0 .439-.11.11-.11.219-.22.438-.11.11 0 .22-.11.22-.22 0-.221 0-.441.219-.551 0 .22-.11.33-.11.44.11.11.329.11.438 0 .33-.22.768-.33 1.096-.55.11 0 .22-.11.22-.22s.219-.11.219-.11c.22.22.438 0 .657-.11l.658-.331.11.11c.219-.11.438-.11.767-.22-.329-.11-.548 0-.767 0 0-.22.11-.33.219-.33h.658c0-.11 0-.11.11-.221.109.11.218-.11.328.11.11.11.22 0 .22-.22.109 0 .218.11.218.11.22-.11-.11-.22.11-.33 0 .11.11.11.11.33.219-.11.328-.11.438-.22-.11 0-.22 0-.329.11.11-.22.33-.22.439-.22h.329c.11 0 .219 0 .328-.11.22 0 .33 0 .439-.11.219-.11.438-.22.657-.22.22 0 .439-.221.548-.331.11 0 .22-.11.22 0 .328 0 .657-.11.876-.22.22-.11.439-.22.658-.11 0 0 .11 0 .11-.11.219-.22.438-.22.657-.22.22 0 .33 0 .439-.221 0-.11.219 0 .329-.11.219 0 .328-.11.548-.11.219 0 .438-.11.657-.11.22 0 .22 0 .329-.11.11 0 .329-.11.438-.11h.439c.22-.11.438-.221.657-.221.22 0 .439-.11.549-.33.11 0 .11 0 .219.11.11.11.219.11.219 0 .22-.22.438-.11.548-.11h.22c.109-.22.328-.33.547-.22.11.11.329 0 .329-.11.11-.11.22-.221.329-.221.22 0 .548-.11.767-.22.22-.11.548-.11.767-.11.22-.22.439-.33.768-.22v-.22c.11 0 .11 0 .219-.11.11-.111.219-.111.329 0 0 .11.11.11.219 0 .11-.111.329-.111.438-.221.439.33.658.33.877.22.329-.11.658-.22.986-.22.22 0 .33 0 .549-.11.11-.11.219-.11.438-.11.11 0 .329 0 .438-.11.22-.22.439-.11.548-.11.33.11.768 0 1.096 0 .33 0 .548-.11.877-.11.11 0 .33.11.548.11V.22h.549c.219.11.328.11.547 0 .22-.11.439 0 .658-.11h.22c.109 0 .109.11.218 0 .11 0 .22-.111.439 0 0 0 .11-.111.22-.111.109.22.328.11.438 0h.219c.11 0 .219.11.438.11 0-.11.22-.11.438 0 .22 0 .549.11.768 0h.877c.328 0 .548 0 .767.11h.329c.219 0 .438 0 .548.11.219.11.548.11.767.11.329 0 .658-.11.986.11h.22c.219.11.548 0 .767.22.219-.11.438.111.658.111h.438c0 .33.329.33.548.44.11 0 .22 0 .22.22.109.22.328.22.438.331.219.22.438.33.767.33.11 0 .329.11.438.22.22.11.329.22.548.331.22 0 .22.11.22.33h.438s0 .11.11.22c.328.33.767.551 1.096.882l.438.44.438.44c.11.33.439.441.439.771 0 .11 0 .22.11.22.219.11.109.33.109.441 0 .11-.11.11-.22.33.11.11.11.22.22.22 0 .11.11.331.11.441.11 0 .328.11.438.22 0 0-.11 0-.11.11.11.22.22 0 .33-.11.109.22.218.33.328.661-.11 0-.22-.11-.329-.11 0 .11 0 .22-.11.33-.109 0-.219-.11-.328-.11h-.329c-.11.11-.329.22-.438.11 0 .22.11.22.219.22.219 0 .438 0 .657.11.11 0 .33 0 .33-.11.218 0 .328.11.547.11v-.11s-.11 0-.11-.11v-.11c.22 0 .33 0 .549.11.11-.22.329.11.438 0-.11-.11-.11-.33-.438-.33 0 0-.11-.11-.22-.11l.22-.22c-.11-.11-.22-.11-.439 0h-.219c-.11-.11 0-.11 0-.22s.11-.22.329-.22c.329-.221.767 0 1.096-.11h.11c.438.11.767 0 1.205.11h.548c.329 0 .767 0 1.096.11-.11.22.11.33.22.55h.547c.11 0 .22.11.22.22-.11 0-.22.11-.439.11.22.22.22.22.658 0 .11.22.329.22.548.22 0-.11 0-.11.11-.22h.328v-.11s0-.11-.11-.11c-.328.11-.328.11-.438 0h.22v-.33c.219.11.438.11.548.22.11.11.219 0 .328 0 .11 0 .33 0 .439-.11l.11-.11c.109 0 .328.11.438.11.11 0 .22-.11.329-.11.11 0 .219.11.438.22v-.33c.22.11.329.11.548.22 0 0 .11.11.11 0 .219-.11.329.11.438.22v.11c.11 0 .11 0 .22-.11 0-.11 0-.33.328-.33 0 .11-.11.22-.11.33.22 0 .22 0 .22-.22.219 0 .438-.11.767-.11.22 0 .329.11.548.11h.22c0 .11 0 .11-.11.22h.219c.22.11.22.11.11 0 .219-.11.547-.11.876 0 .11 0 .33 0 .439.11.11 0 .219.11.329.11.11-.22.219-.11.438-.11.11 0 .22 0 .438.11.33.11.658 0 .768.33 0-.11 0-.11.11-.11.109 0 .218-.11.438-.11.219 0 .219.11.219.33h.548c.22.11.548.221.767.11-.329-.11-.548-.11-.877-.11a.857.857 0 0 1 1.206 0c-.11.11-.11.11-.329.221h.329c0-.11 0-.22.11-.33 0 0 .219-.11.328-.11.22.11.548 0 .768.11.219 0 .548.11.767.22.11 0 .219 0 .329.11.11 0 .219.11.438.11-.11.11-.11.22-.11.44.22 0 .33.11.548 0h.11c.11.11.219.11.329-.11.11-.11.11 0 .219 0 0 .11-.109.22.11.22 0-.11-.11-.11-.11-.22.11 0 .219-.11.329-.11v.11c.219 0 .438-.11.548-.11 0 0 .11 0 .11.11.109.22.328.22.438.22.11 0 .219 0 .329.11.109 0 .109-.11.219-.22.11 0 .219.22.329 0 0 0 .219 0 .329.11.109 0 .328-.11.438-.11h.11c.109 0 .219.11.109.22l-.109.111c.109.22.438.11.657.11 0-.11.11-.22.11-.33.219 0 .329.11.548.11h.548c.219 0 .438.22.548.44l.11.11c.109 0 .109-.22.219-.22v.11l.219-.22c.11.22.329.11.548.22.329.11.658.11 1.096.11.219 0 .219 0 .439.33.109-.22.328-.11.548-.33v.44l.328.331.22-.22c.109 0 .109.11.219.11.109.11.109.11.219.11h.658v-.22h.109c.11.33.439.22.767.33h.11c0-.11.11-.11.11-.11h.328c.11 0 .22.11.329.11.11 0 .329.11.439.22.219.11.329.331.438.441 0 0-.109 0-.219.11.219.22.438.22.767.11s.548 0 .877 0c.11 0 .219 0 .329.11v.22c.329-.11.767 0 1.096-.11-.11 0-.219-.11-.439-.11v-.11c.11 0 .11-.11.22-.11.219 0 .438.11.657.11.11 0 .22 0 .22.22 0 .11.109.22.219.22.109 0 .219.111.329.221 0 0 .109-.11.219-.11l.109.11c.329-.11.658-.22.987-.22v.44c.329.11.657.11.877 0v.22h.109a.696.696 0 0 1 .658 0c.109 0 .109 0 .219-.11l.219.22c.11 0 .11.11.22.11.219-.11.328.11.548.11.219-.11.328-.22.548 0 .109.111.219.111.438.111h.11l.657.33c.11.11.219.11.329.11.219-.11.329-.11.329.22 0-.11.109-.22.219-.11.219.11.548.22.767.331.11 0 .11.11.22.22 0 0 0-.11.109-.11.11 0 .11 0 .219.11v.11c.11.11.329-.33.439 0 0 0-.11.11-.11.22s.11.22.11.331c.219 0 .329-.22.548-.11 0-.11 0-.22-.11-.33.219.11.219.11.219.33.329.11.548.22.877.33.219-.22.439-.11.658-.11-.11.11-.11.11-.219.11.109.11.109.22.219.33.109 0 .219 0 .438-.11v.22c.219-.11.219.331.439.22h.219c.11 0 .329.111.438.111.11 0 .11 0 .22.11.109 0 .109 0 .219.11h.219c.219 0 .329.22.548.11.11 0 .438.22.548.33.219 0 .438 0 .548.221l.11.11c.219 0 .328.22.548.22-.11.11-.22.11-.329.22-.11.11-.219.22-.439.33l.11.111c.219-.33.219-.33.767-.11l.219-.22c.11 0 .11.11.11.11l-.219.22c.109.11.219.11.219.22.11-.22.219-.33.329-.55l.219.22.11.11c.219 0 .438.22.657.11h.11c.219.33.658.22.986.33l.987.33c.109 0 .109.111.219.221h.219c.219.11 0 .33.11.44h.438c.11 0 .22.11.439.22v.331l.219-.22c.11.11.329.22.438.33.11 0 .329 0 .439.22 0 .11.219.11.329.11h.219c.219.331.548.331.986.441.219 0 .329.11.548.22.11 0 .11.11.11.11-.219.11-.219-.22-.329-.11.11.33.329.44.658.33.109-.11.329 0 .329.11 0 .111 0 .111.109.111 0 0 .11-.11.219-.11 0 .11.11.11.11.22.11-.11.219 0 .329.22h-.219v.11c.109 0 .219.11.328.11 0-.11-.109-.11-.109-.22.219 0 .329.22.438.44l.11-.11c.109.11.219.221.438.331 0 0 0 .11.11.11.329.11.548.33.767.55.11.11.219.11.219.331l.11.11c.219 0 .219.22.219.33.329 0 .658.22.877.441l.11.11c0 .33.219.55.548.55 0 0 .109 0 .109.11.219.221.548.331.658.662.109.22.329.44.548.44.109 0 .109.11.109.11.11.11.11.22.22.22.219.11.328.33.328.551.22 0 .329.22.439.33.219.22.438.551.658.771l.219.22c0 .11 0 .22.219.11l.11.11c.109.11.109.331.328.331 0 0 0 .11.11.22h.329c.109 0 .109.22.109.33.329.11.329.441.548.661l-.219-.22c0-.11-.109-.22-.219-.22.11.11.11.22.219.22v.22c.219.11.219.33.439.44 0 0 .109 0 .109.111.219.33.439.55.658.991.109.22.109.44.329.66 0-.11 0-.11.109-.11.219.11.11.441.329.441 0 .11.11.22.11.33.109.11.109.22-.11.33l-.11.111c0 .11.11.11.11.22l-.11.11c.11.11.22.22.439.33-.11.221 0 .331.219.441v.33c.219 0 .219.22.329.33.11.111.11.331.219.551h.11v.441c0 .22 0 .33.109.44.11.11.11.22.11.33 0 .221.11.441.11.662 0 .11.109.33.109.44 0 0 0 .11.11.22 0-.11.109-.22.109-.33.11.22.11.44 0 .77h.22c.109.221 0 .221-.11.331 0 .55.219 1.101.548 1.542-.11.11-.11.11-.219.11v.33c0 .44-.11.771 0 1.212v.44c0 .33-.11.66 0 1.101 0 .11 0 .22-.11.33-.109.11-.109.22-.109.22v.441s.109 0 .109.11c-.109.22-.329.44-.219.771-.11.22-.11.44 0 .55v.111c-.219 0-.219.22-.219.44 0 .33 0 .771-.11 1.102 0 .22 0 .55-.219.77.11.33-.219.441-.219.771 0 .22-.11.44-.219.661-.11.33-.22.77-.439 1.101v.11c0 .33-.219.44-.438.551-.11.11-.22.11-.22.33 0 .11.11.22.11.33-.219.11-.219.331-.329.441 0 0-.109 0-.109-.11 0 .33 0 .77-.439.77 0 .111.11.111.11.221.109 0 .109-.11.219-.11 0 .11-.11.22-.11.22-.219.11-.328.11-.438.22 0 .11 0 .22.11.33-.11-.11-.22-.11-.329-.22-.11.11-.11.22-.11.33 0 .111-.109.221-.109.441s-.11.33-.329.33c-.11 0-.219.11-.329.331-.11.11-.219.33-.329.33-.109 0-.109.11-.219.22h.11l-.22.221c.11.22-.219.33-.328.55-.22.22-.329.441-.548.661-.11.11-.22.22-.439.22-.11 0-.11 0-.219.11 0 .11.109.11.109.22l-.657.331v-.33c-.11.11-.219.22-.11.33 0 .11.11.22-.109.22v.11c0 .11-.11.11-.11.11-.219 0-.438.221-.658.441-.328.22-.548.44-.767.66-.219.111-.329.221-.548.331-.219 0-.219.11-.219.22-.11 0-.11-.11-.219-.11-.11.11-.219.22-.439.33-.219.11-.548.221-.657.441-.329.11-.548.44-.877.55-.219.11-.439.221-.767.441l-.329-.33c-.11 0-.219.11-.329.11 0 .22.329 0 .438.22-.109.22-.438.11-.657.33-.11.22-.439.22-.658.331l-.658.33c-.109-.11-.109-.33-.328-.33.109.11.109.22.219.44-.11 0-.219.11-.329.11-.11-.11-.11-.11-.11-.22-.109 0-.328 0-.438-.11 0 .11-.11.22-.11.33.11 0 .22.11.329.11-.219.221-.548.331-.767.441l-.986.33c-.329.11-.548.33-.877.441h-.329c-.219.11-.219.11-.329 0-.11.11-.219.22-.329.22-.219 0-.329.11-.548.11 0-.11.11-.11.11-.22h-.219c-.11 0-.11 0-.22-.11-.109 0-.328-.11-.548.11-.109.11-.328.22-.438.33-.11.11-.11.22 0 .33 0 .111-.11.221-.219.221-.11 0-.219 0-.219.11-.11.11-.329.11-.329-.11-.11.11-.11.22-.219.22-.11.11-.11.11-.22 0-.109-.11-.329-.22-.548-.11-.219.11-.438 0-.657.22h-.11c-.219 0-.329 0-.438.11-.22.11-.439.22-.768.22v.221c-.328-.22-.328-.11-.438.11-.219-.11-.329-.11-.438.11-.11-.11-.11-.22-.22-.22-.328 0-.328 0-.548-.22-.109 0-.219.11-.329.11-.109-.11-.219-.11-.328-.22-.22.22-.439.33-.548.55 0 .11-.11.11-.22.22-.109 0-.328.11-.438.11 0 .11 0 .22-.11.441h-.109v-.11c.109-.11 0-.22 0-.33-.11-.11-.219-.11-.329 0-.219.11-.329.11-.548.22-.219.11-.219.11-.329-.11 0 0-.109 0-.109.11 0 0 0-.11-.11-.11 0 .11-.11.11-.11.11-.109.22 0 .22-.328.22h-.22c.11-.11.11-.22.22-.22h-.11c0 .11-.11.22-.11.33l.11.11c.219 0 .219.11.219.22-.109 0-.219 0-.438.11.219.11.329.11.438.221-.109.11-.329.22-.438.33-.11 0-.329-.11-.439.11l-.329-.33c.11 0 .11 0 .22-.11 0-.11-.11-.11-.22-.22-.219.44-.219.66-.438.66zm19.51-45.26c0-.11 0-.22-.219-.22l.219.22c.109 0 .219.22.329 0h-.329zM76.756 7.708c0 .11 0 .11.219.11-.11-.11-.11-.11-.22-.11 0-.11.11-.22-.11-.22 0 0 0 .11.11.22zm28.058 3.304c.11 0 .329 0 .439.22v-.22c.109 0 .219.11.438.11.219-.11.219-.11.219-.22-.438.11-.438.11-.657-.11 0 .11 0 .22-.11.22-.109 0-.219-.11-.329 0 0-.11.11-.22 0-.22-.219 0-.328.11-.657.11.219.11.438.11.657.11zM77.084 9.36c.11 0 .22 0 .22-.11-.22-.33-.33-.33-.439-.22 0 .22 0 .22.22.33h-.22.11c0 .11 0 0 .11 0zm39.02 4.295c.109.11.328.11.438.22 0-.11.11-.22.11-.33.109-.11.219-.11.329-.11-.11-.11-.22-.11-.439-.11l-.219.22-.329-.33c-.11-.11-.219-.331-.438-.441-.11.11-.22.11-.439.22 0-.11-.109-.22-.329-.22 0 0 0 .11-.109.11v.11c.219.11.438.11.657.22-.109.11-.219.11-.328.22h.328l.11.11c.329.331.438.331.658.11zM69.631 8.589c.11 0 .22.11.22.11.328 0 .328.11.328.33.22-.11.329.11.439.221.11-.22-.11-.33-.22-.55l.22-.22c-.11 0-.22.11-.33.11-.219 0-.109-.22-.219-.331h-.328v.11h.328c-.328.11-.328.11-.438.22-.11-.11-.22 0-.329.11.329.11.329 0 .329-.11zm13.591.44s0 .11.11.11v-.11c0-.11 0 0-.11 0-.11-.33-.438-.22-.658-.22 0-.11 0-.11-.11-.22-.218.11-.547 0-.657.22.329 0 .548.11.877.11.11.11.329.11.548.11zm22.798 2.203c-.219-.11-.219-.11-.219.11.109 0 .109-.11.219-.11 0 .33 0 .33.219.33v-.22c.11 0 .329 0 .329.11.11.22.329.11.548.22h.219c0-.22-.219-.22-.329-.33l-.109.11-.219-.22h-.658zm-76.285.44c-.11.22-.22.22-.33.22v-.22c-.109 0-.218 0-.218.11-.11.11-.11.221-.11.331v-.11l.11.11c-.439.44-.658.55-1.096.33l-.658.33h-.11c-.11 0-.329.111-.438.111 0 .22.11.33 0 .55-.11 0 0-.22-.22-.22-.109.11.11.22 0 .33h-.328v.22c-.22.111-.329.221-.548.221-.22.11-.329.11-.439.33-.219.33-.328.33-.548.11 0 .22 0 .22-.11.331l-.328.33-.11.11c-.11 0-.219.11-.219.33-.219-.11-.329-.11-.329-.11-.11.11-.328.221-.438.221-.329 0-.658.22-.877.44-.22.22-.548.33-.767.551-.22.11-.658.22-.658.55-.219.22-.438.22-.548.441 0 .11-.219 0-.329 0-.219.22-.548.33-.767.33 0 .22 0 .33-.11.44-.109.111-.328.111-.328.331-.22-.11-.33.11-.439.11-.219 0-.219.22-.219.44h-.438c0 .111-.11.221-.22.331-.11.11-.219.11-.328.22-.439.33-.768.661-1.316.881v.11c-.11.22-.328.441-.548.551-.219.11-.438.33-.657.55-.11.11-.33.221-.33.441 0 .11-.109.11-.218.22-.22.11-.439.22-.548.33-.22.111-.33.331-.548.551l.11.11v.11h-.33l-.657.661c-.11.11-.22.22-.11.33v.11c-.219.111-.329.331-.548.221 0 .11-.11.22-.11.33-.219.11-.547.22-.547.551-.33.22-.439.55-.768.77-.219.111-.548.331-.219.772h-.438c0 .11-.11.11-.11.22.11 0 .11.11.22.11v.11c-.11 0-.22.11-.33.11v.22c-.438.22-.548.22-.548.441h-.11c-.109 0-.218.11-.218.22-.11.11-.11.22-.22.22l-.328.33c-.11.111-.22.221-.11.441v.11c-.11 0-.11.11-.11.11 0 .11 0 .22-.11.331a.606.606 0 0 0-.328.55c0 .11-.11.11-.11.22-.219.221-.219.551-.548.772v.11c-.11.33-.328.66-.438.88-.11.11-.11.22-.22.441h-.109c0 .11-.11.22-.11.33v.22c0 .221 0 .331-.219.331-.219.11-.219.11-.219.33v.11h-.11c-.11.11-.11.22-.219.22.11.111.22.331.11.331-.11.11 0 .22.11.33-.33.22-.33.551-.33.771-.109.44-.328.771-.219 1.212v.11c-.11.22-.11.44-.11.66v.661h-.218c.219.11.11.33.11.44V41.075c-.11.22 0 .441 0 .551h.218c-.219.22-.219.55 0 .771-.219.22-.219.44.11.66-.11.441 0 .772.22 1.212-.11.22-.11.44.109.55.22.11.11.331.11.551 0 .22 0 .44.11.66.109.221.218.441.218.772.11 0 .11.11.22.11-.22.22-.33.33-.11.44v.11c0 .11.11.33.11.44.11.111.11.331.219.441.11.11.11.22.219.33h.329c0 .11-.11.11-.11.221l.329.33.11.11c0 .22.11.33.328.441v.11c0 .22.22.33.33.55.109.11.218.11.328.22 0 .111 0 .221.22.331l.109.11c0 .22.11.22.329.33.11 0 .11.11.11.221-.11.11 0 .11.218.11v.22c.22.11.439.22.548.44 0 0 0 .111.11.111.329.11.329.44.439.66v.11c.219.11.328.221.438.331.11.22.329.33.548.44.11 0 .11.11.22.11.328.11.438.551.876.662 0 .22.329.22.438.33.22.22.548.33.768.55.219.11.438.22.548.44.11.221.329.441.657.441.11 0 .11.11.11.22.11.22.11.22.329.22h.548l.11.111c.219.22.438.33.876.22 0 0 0 .11.11.11.11.22.329.44.657.44.33 0 .439.11.658.221.11 0 .11.11.22.11.218 0 .328.11.328.22.11.11.22.11.329.11h.22c.109.33.438.441.766.551.22 0 .33.11.439.33.11-.11.219-.11.329 0 .11.11.328.22.438.22.22 0 .329.11.439.331.328 0 .438 0 .657.22l.11-.11c.11.11.219.22.329.22.219 0 .328.11.328.33.11 0 .22-.11.33-.11.109.331.438.22.657.22 0 .111.11.221.11.221.219 0 .219.22.219.22.219 0 .438 0 .657-.11 0 .11.11.22.11.33h.438l.658.331c.22-.11.438-.11.657.11l.11.11c.22.11.438.11.658.22.11 0 .329 0 .329.22h.11c.109 0 .109 0 .218.11l.22.221c.657.11 1.205.33 1.863.44 0 .11-.11.22.11.33.11-.11.11-.22.219-.22.328.441.877.551 1.315.331l.658.33c.11 0 .219-.11.328-.11.11.22.33.22.439.22.11 0 .22 0 .329.11.329.11.548.11.877.22.328.111.547.111.876.221.33.11.658.11 1.096.22h.22c.219.11.548.22.767.22.329.11.767.22 1.096.22h.11c.219-.22.328 0 .438.11h.438c0 .111-.11.111-.11.111.22-.11.44 0 .549 0 .219.11.548.11.767.11.329.11.767.11 1.096.22.22 0 .329.11.548.22.22 0 .439-.11.658.22.11.111.219.111.328.111h.768c.219 0 .548-.11.767.11h.22c.109 0 .218 0 .328.11 0 0 .11 0 .11.11.438.11.767.22 1.205.22h.548c.11 0 .22.11.22.11.219-.11.438 0 .657 0h.11c.219-.11.329.221.548.11.11.221.329.111.438.331.11-.11.11-.22.329-.22.22.11.438 0 .658 0h.11c.109-.11.218 0 .328 0 .11.11.22.11.329.11.11 0 .22 0 .438.11.11 0 .33.11.439.11.219 0 .438 0 .657.11h.33c.218-.11.547-.11.766.11.11-.11.22-.22.33-.11.109.11.219.11.438.11.438-.11.877.11 1.315.11h.11c.219.11.548.11.767.22h.219c.22 0 .438.111.658 0h.11c.218.111.547.111.767.111H59c.218.11.438.11.767.22h.986v.22h1.425c.11-.11.329-.11.438 0h.33c.109 0 .109-.11.109-.11 0 .22.11.22.328.22h.22c.219.11.438.11.657.11.11 0 .33-.11.439-.11.219 0 .329.11.548.11.219 0 .329.11.438.221h.877c.22 0 .548.22.877 0h.11c.219 0 .438.11.547 0h.439c.22 0 .329.11.548.11H70.727c.11 0 .329 0 .438.22 0 0 .11.11.22.11.219 0 .438-.11.657.11h.11c.438 0 .877-.11 1.206 0h.219c.11.22.329.11.438 0 .11 0 .11-.11.22-.11.109-.11.219-.11 0-.33h.438c-.11.11-.22.22-.329.22h.439c.328 0 .657.22.986.11 0 0 .11 0 .11.11.328-.33.657-.11.986-.11.11.22.329.33.548.22v.331c.11-.11.329-.11.438-.22.11-.11.33-.22.548-.33.22-.11.439 0 .658.11 0-.11.11-.11.11-.22l.11.11c0 .11.109.22.219.11.11 0 .11-.11.219-.22l.219.22c.11.11.22.11.329.11.219-.11.328-.11.548-.11h.11c.328 0 .657-.11.876-.11H83.223c.218-.11.328.11.438 0 .11.22.328.11.547.11.22 0 .33-.11.549 0 .328.11.328.11.657 0 0 .11.11.11.11.22.329-.11.657-.22.877.11.11-.22.219-.11.328-.11.22-.11.33-.11.439-.22.11-.22.22-.11.438 0h.11c.22-.11.329 0 .438.11.11 0 .11-.11.11-.11l.11-.11h.219c.219.11.329.11.548 0h.11c.219.11.438.11.657-.11h.11c.11.11.328.11.438.11.329.11.548.11.767-.33l.11-.111.22.22c-.11 0-.22.11-.22.11.22.11.438.22.657 0h-.219c.11 0 .33-.11.439-.11.219.22.548.33.877.11h.11c.109 0 .328 0 .438-.11.219-.22.438-.11.657-.22h.768c.11 0 .11.22.219.22l.219-.22c.438 0 .767.11 1.206.11v.22c0-.11.11-.22.11-.22.218 0 .547 0 .766-.11.22-.11.439-.11.548.11h.11c.22-.22.438-.22.658-.11h.219c.329 0 .657-.11.877-.33 0 0 .109 0 .109-.11 0 .11.11.11.11.22h.548c-.11-.22-.11-.22-.329-.22-.109 0-.219 0-.219-.11.11 0 .329-.11.438-.11 0 .22.439.11.329.33.11 0 .329.11.439.11.109-.22.219-.11.438-.11 0-.11.11-.22.219-.11h.329c.219 0 .438 0 .658-.11.219-.11.438 0 .657.22h.11c.109-.11.219-.11.219-.22.219-.22.439-.11.658-.11.109 0 .109 0 .219.11s.219.11.219 0c0 0 0-.11.11-.11.109 0 .219.11.219.11.219 0 .438-.11.658 0h.109c0-.22.219-.11.329-.11h.329c.219-.11.438-.11.657-.11h.329c.329 0 .548-.111.658 0 .219.11.329 0 .329-.111h.438c.11 0 .11 0 .219-.11.329-.11.658-.11.987-.22l.109-.11c.329 0 .548.11.768 0h.328c.22.11.329.11.548 0 .329-.11.549-.22.877-.11h.768s0-.11.109-.11c.329.11.548 0 .767-.22.22.11.22.11.439-.111v.11h.329c.109-.11.219-.22.328-.22h.329c.11-.11.219-.11.439-.22 0 .11.109.11.109.11l.22-.22h.219c.109.11.329.11.438 0h.11c.329.11.548 0 .877 0 .109-.22.328-.11.438-.22 0 0 .11 0 .11-.11.219-.221.438-.111.767 0 .109-.221.438-.111.657-.221.22.22.439 0 .658 0 .219-.11.548-.11.767-.22.22-.11.548-.11.768-.44 0-.111.109-.111.219-.111h.219c.11-.11.219-.11.438 0 .11.11.329.11.548 0 .22-.11.329-.33.548-.22h.11c.11 0 .11-.11.219-.11.22 0 .329 0 .439-.22.109 0 .219.11.329.11 0-.11.109-.11.109-.22.11 0 .219.11.329 0 .11 0 .329 0 .329-.11.109-.11.219-.11.329 0 .219.11.657-.11.767-.331l.109-.11c.329.22.22.22.548 0l.11.11c.219 0 .438-.11.658-.11.109-.11.109-.22.219-.33 0 .11 0 .22.11.33 0-.11.109-.22.109-.33.219 0 .548-.11.767-.11l.22-.221c.109 0 .219-.11.328-.11h.11c.219 0 .438 0 .438-.22.22-.11.439-.11.658-.22.329-.22.658-.22.986-.22.11-.221.11-.221.439-.221h.11c.219-.11.438-.11.657-.22.329-.11.548-.22.877-.22.219 0 .438-.11.658-.22.219-.11.328-.221.548-.331v-.11c.219-.11.438-.11.548-.44.328.22 1.205-.221 1.425-.661.109 0 .109.11.219.11.219-.11.438-.11.548-.22.109 0 .219-.11.438-.11 0 0 .11 0 .11-.11.109 0 .219-.11.219-.11.11 0 .219 0 .219-.111.11-.22.329-.11.548-.22.11-.11.439-.11.548-.33l.11-.11c.329-.221.658-.221.877-.551h.109s.11-.11.11-.22c.11.11.219.11.329-.11.109-.11.329-.221.438-.331.329-.11.548-.33.767-.44 0-.22.11-.11.22-.11 0-.22.109-.22.219-.331l.109-.11c0-.11.11-.11.22-.11 0 0 .109 0 .109-.11.11-.22.329-.33.548-.551.11-.11.329-.22.548-.11 0-.22 0-.44.329-.44 0 0 0-.11.11-.11l.109-.11c.22 0 .329-.221.439-.441.109 0 .219 0 .329-.11.109-.22.219-.22.438-.11.11-.22.11-.441.219-.661 0-.11 0-.22.11-.22a.607.607 0 0 0 .329-.551c.109 0 .219.11.328.11.22-.22.22-.66.658-.77v.44c.439-.11.439-.22.329-.44.11-.11.329-.331.329-.551 0-.11.219-.33.329-.44h-.329v-.221c.109-.22.219-.33.329-.55.109-.11.109-.11.109-.221 0-.11.11-.11.11-.22.109-.11.329-.33.329-.44 0-.22.219-.331.219-.551 0-.11.109-.22.109-.22.11-.11.22-.22.22-.33.109-.111.109-.221.219-.441.109-.22.109-.44.219-.661v-.11c-.11-.22-.11-.22.11-.44l.109-.11c0-.331.219-.551.219-.772 0-.11-.109-.22-.109-.33.109 0 .219-.11.219-.11 0-.11 0-.22.11-.33.109-.33.328-.551.219-.992v-.22c.109-.22.219-.33.109-.55-.109-.22.22-.33 0-.551.11 0 .11 0 .22-.11-.22-.11-.11-.33-.22-.55 0-.22 0-.551-.109-.771 0-.11.109-.11.109-.22 0-.221-.109-.441-.109-.661h-.329c.11-.22.219-.33.219-.551.11-.11.11-.22 0-.33-.109-.22 0-.44-.219-.551v-.11-.55-.221c.11-.11.11-.33 0-.44l-.11-.11c.11-.33-.109-.551-.219-.882-.109-.22-.219-.44-.109-.77-.11-.11-.22-.11-.329-.22 0-.11.109-.11.109-.22-.109 0-.219 0-.219-.111 0-.44 0-.77-.329-1.101.11-.22 0-.33-.109-.44v-.22-.221c-.11-.11-.219-.33-.11-.55 0 0 0-.11-.109-.11-.22-.11-.11-.221-.22-.331 0-.11 0-.22-.109-.22l-.439-.44c-.109-.111-.219-.221-.219-.441v-.11c-.219-.11-.329-.33-.438-.551-.11-.11-.22-.22-.439-.33 0-.22 0-.33.11-.551-.11 0-.219-.11-.329-.11v-.22c-.438 0-.548-.11-.767-.44-.11-.111-.11-.221-.219-.441-.11-.11-.22-.22-.22-.33-.219.11-.219-.11-.219-.221l-.109-.11c-.11-.22-.22-.22-.329-.22 0-.11-.11-.22-.11-.33 0-.11 0-.11-.219-.11-.219-.441-.219-.441-.548-.441 0-.11 0-.11-.11-.22-.219-.22-.438-.441-.657-.551-.11-.11-.22-.11-.22-.22-.109-.22-.219-.33-.438-.22 0-.11 0-.22.11-.33-.11-.111-.329-.111-.439-.221-.219-.11-.548-.22-.657-.44 0 0-.11 0-.11-.11-.219-.11-.329-.331-.548-.551-.11 0-.329 0-.438-.22-.11-.11-.329-.22-.439-.22-.219-.221-.658-.221-.767-.551-.11 0-.11.11-.219.11.219.11.329.33.657.44h-.219c-.219-.11-.329-.11-.548-.22-.11-.11-.219-.11-.219-.33 0-.11-.11-.33-.219-.44h-.22c.11-.111.11-.221-.109-.331-.11-.11-.219 0-.329.11l-.11.11v-.44c-.328-.11-.548-.33-.767-.441v-.33c-.109.11-.219.11-.329 0-.109-.11-.219-.11-.219-.11-.329-.11-.657-.22-.877-.441l-.109-.11c-.11-.11-.22-.22-.329-.22-.11 0-.219-.11-.219-.11-.11 0-.22-.11-.329-.11-.329.11-.658-.22-.987-.22h-.109c-.11-.11-.219-.11-.329-.221-.11 0-.11 0-.219-.11-.11-.11-.329-.22-.439-.33v.22s0 .11.11.11c-.11.11-.329.11-.438-.11l-.11-.11c-.219-.11-.329-.11-.548-.22l-.11-.11c.22 0 .329.11.548.11.11.11.329.11.548.11-.109-.22-.438-.11-.548-.33 0-.221-.219-.552-.438-.441-.219 0-.439 0-.548-.11h-.11c-.219 0-.438-.11-.438-.44.109-.111.109-.111.109-.331-.219.11-.328.22-.548.11-.219-.11-.438-.11-.657-.11-.11 0-.11 0-.219.11l.109.11c-.109 0-.329 0-.438.11-.219 0-.439-.11-.548-.11-.11 0-.219 0-.11-.22.219.11.439.22.658.22l.109-.11a77.99 77.99 0 0 0-.219-.22c-.109 0-.109.11-.219.11-.11-.22-.219-.33-.219-.55-.219 0-.329 0-.548-.111 0-.11 0-.11-.219-.11.109 0 .109.11.219.11-.219 0-.329.11-.439.33 0 .11-.109.11-.219 0 0 0 .11 0 .11-.11.109-.11.219-.33.109-.33l-.109.11c-.11-.11-.11-.33-.22-.44-.109-.11-.328-.11-.438-.22 0 0-.11 0-.11.11-.109.22-.219.11-.328.11.109-.11.219-.22.438-.33h.11c.109 0 .109.11.219.11.109-.11.109-.11.329-.221h-.439c-.109 0-.219-.22-.329-.22-.109 0-.328-.11-.438-.11-.219.11-.329 0-.438 0h-.22c-.219.11-.548.11-.657.33-.11.11-.11.11-.219.11 0-.33-.22-.33-.439-.33v-.11c0-.33 0-.33.329-.22h.219c0 .11 0 .22.11.22l.219-.22c0-.11-.11-.33-.11-.441-.219.11-.328.11-.548.11.11 0 .11 0 .22-.22-.22-.11-.22.11-.329.22-.219-.11-.329-.11-.548-.22-.11.11-.11.11-.329.11l.11-.11c-.22 0-.439-.11-.658-.11 0 0-.11.11-.219.11.109.11.109.11.109.22-.109.11-.219.22-.329.22-.219-.22-.219-.22-.548-.33-.109 0-.328-.11-.438-.11-.11 0-.219-.11-.219.11 0 .11-.11.11-.11.11 0-.55-.548-.66-.877-.88 0 .11-.109.22-.109.33h-.439c-.109 0-.109 0-.219-.11-.109 0-.219-.11-.329-.22a.695.695 0 0 1-.657 0v-.331c-.11 0-.22 0-.329.11v-.11l.219-.22c0-.11-.11-.22-.11-.22-.219 0-.328-.11-.548.11-.109.11-.219.22-.438 0-.11-.11-.329-.11-.548-.11 0 0-.11.11-.11.22.329 0 .548.11.768.11v.11c-.11.11-.22.11-.329.22-.219-.11-.329-.22-.548-.33-.329.11-.658-.11-.987-.22.22-.11.439 0 .658-.11-.11-.221-.219-.331-.438-.331-.11 0-.11-.11-.22-.11l-.219.22v-.44c-.219 0-.438 0-.548-.11 0-.11 0-.22-.11-.33l-.219.22c-.109-.11-.219-.11-.438-.22-.11 0-.219.11-.329.11.11.11.11.11.219.11h.11c.109 0 .109.11.219.11h.219c.219.11.439.22.658.22v.22c.219.11.11.33.11.44-.439 0-.768-.22-1.097-.33-.109-.22-.219-.11-.438-.11 0-.11.11-.11.11-.11h.328c.11 0 .22 0 .329.11 0-.22 0-.33-.219-.22l-.11-.11c-.109 0-.219-.11-.219-.11-.109.11-.219 0-.329 0 0 .11-.109.22-.109.33-.219 0-.329 0-.548-.11v-.33c.109 0 .219 0 .329-.11 0 .11-.11.22-.11.22.11 0 .219.11.329.11v-.22c.109-.11.219-.11.219-.11 0-.11-.11-.11-.11-.221-.109 0-.109 0-.109.11-.219.22-.219.11-.329-.11 0-.11 0-.11-.11-.22-.219.11-.219.33-.109.55-.219 0-.439-.22-.658-.22 0 0-.109 0-.109-.11-.11-.22-.22-.11-.439-.11v-.771h-.219c0 .11.11.11.11.22-.11 0-.22 0-.329.11 0-.11.109-.33.109-.44 0 0-.109 0-.219.11 0 .11-.109.22.11.33-.11.11-.219.11-.219 0-.11-.33-.22-.33-.439-.33h-.11c-.219 0-.438 0-.657-.11-.219-.11.109-.22 0-.22-.219-.11-.329-.11-.439-.22-.109-.11-.109 0-.219 0 .11 0 .11.11.219.22h-.438v-.33c0 .11-.11.11-.219.22 0-.22 0-.22-.219-.33 0 .11-.11.11-.11.22-.11-.11-.219-.33-.329-.11-.109-.11-.109-.22-.219-.22h-.219c0-.111 0-.111-.11-.221-.219.11-.438.22-.548 0-.109 0-.109.11-.219.11-.329 0-.548-.11-.767-.22-.11-.11-.22-.11-.439-.11-.109 0-.329.11-.438 0-.329-.11-.548-.22-.877-.11h-.11c-.219-.11-.328-.11-.438 0-.219.22-.438.22-.658 0 0 .11-.109.22-.109.44-.329-.11-.658 0-.877-.22.109.11.219 0 .329-.11h.219c0-.11-.11-.11-.11-.11-.438-.11-.877-.22-1.205-.22-.11 0-.329-.11-.439-.11-.219 0-.329-.221-.548-.111h-.109c-.329.11-.658-.11-.877 0a1.52 1.52 0 0 1-.329-.44c-.11.11-.11.22-.219.22-.219-.22-.219-.22-.658-.11 0 0-.11-.11-.11-.22-.11 0-.11.11-.219.11-.11-.11-.11-.22 0-.33.11-.111.22-.111.33-.111 0 0 .109.11.218.11v-.22h.22c.109.22.328.11.438 0 .219-.11.329-.11.219-.44v-.11c.11.11.11.11.11.22.329-.11.548 0 .877.11-.22.33-.22.33-.439.22-.109 0-.219 0-.329.11h.987v-.44c.109 0 .329.11.438 0a.697.697 0 0 1 .658 0c.219.11.329.11.438 0-.219 0-.329-.33-.548-.22-.109-.11-.219 0-.329-.11-.219-.221-.328-.11-.438 0h-.11c-.328 0-.548 0-.876-.11-.22 0-.439-.111-.658-.221a.697.697 0 0 0-.658 0c-.11.11-.329.33-.548.22v-.22c-.219-.11-.328-.11-.548 0 .22 0 .22.11.22.22.11-.11.219-.22.328-.22 0 .11.11.11.11.11-.11.11-.329.22-.439.33.11.11.11.22.22.33-.22.331-.548.11-.768.331-.11-.11-.219-.22-.328-.22-.22 0-.33-.11-.439-.22-.11 0-.11.11-.11.11-2.41 1.872-2.41 1.872-2.52 1.762-.22 0-.439.11-.658.22-.22 0-.438.11-.658 0-.219-.11-.328-.11-.548.11 0-.11 0-.11-.11-.22-.109.11-.218.11-.328 0-.22-.11-.548-.22-.767-.11h-.33c-.218-.11-.328 0-.547.11 0 .11.11.22.11.33-.22 0-.439.11-.768 0 .11-.22.33 0 .439-.11 0-.11 0-.33-.22-.33-.11 0-.328 0-.328.22v-.22c-.33 0-.548.11-.877.11-.11 0-.22 0-.329-.11v-.33c.11 0 .22.22.329.11.11-.11.219.22.329.11 0-.11 0-.22.11-.441-.11 0-.22.11-.22.11 0-.11-.11-.22-.11-.22-.328 0-.548 0-.877-.11-.219.11 0 .33 0 .55h-.219c-.219.11-.438.11-.548 0-.219 0-.328-.11-.548 0-.11.11-.219.11-.438 0h-.658c-.11-.22-.11-.22-.329-.11l-.11.11c-.109-.22-.328 0-.438-.11h-.328l-.11-.11c-.11 0-.329.11-.438 0 .328-.22.328-.33.438-.33.11-.11 0-.22-.11-.11s-.219-.11-.328 0c0 .11 0 .22.11.44l-.33-.33c-.219.33-.548.11-.767.22.11-.11.11-.22.11-.44-.11.22-.22.11-.33.11-.218.11-.218-.11-.328-.11-.11.11-.329.11-.438.11 0 .11-.11.11-.11.22v-.11c.11-.33 0-.44-.329-.55h-.329c-.11 0-.11 0-.219-.111-.11 0-.11-.11-.11-.11h-.657c-.11.11-.22 0-.22 0-.109 0-.219 0-.219-.11-.11-.11-.328-.11-.328 0s0 .11.11.22c-.11 0-.11.11-.22.11.11.33.438.22.548.33.22.11.329-.11.548-.33.11.11.22.22.11.44-.11-.11-.329-.11-.548 0 .11.11.219.11.329.22-.22 0-.549.111-.658.111-.22-.22-.22-.22-.329-.22-.22 0-.548-.11-.877 0h-.219c-.22 0-.438.11-.658.11v-.11c-.11-.11-.219-.22-.328-.22-.22 0-.11.22-.22.33-.219 0-.328-.11-.438-.11-.329 0-.548 0-.767-.22 0-.11-.11-.11-.11-.22-.11-.11-.11 0-.22.11.11.11.22 0 .22.22-.22-.11-.22-.11-.767.33 0-.11-.11-.11-.11-.22-.11-.11-.219 0-.438 0-.22.22-.329-.11-.439-.22-.11 0-.219.11-.328.11v-.22c-.11 0-.22-.11-.22 0-.219.22-.438 0-.548-.11-.219-.11-.438-.11-.548.11 0-.11-.11-.11-.11-.22v.22c-.109 0-.328.11-.438.11 0 0-.11 0-.219-.11-.11-.11-.329.11-.438-.11h-.658c0 .11 0 .22-.11.33-.11-.11-.219-.11-.328-.11 0-.11.11-.11.11-.22h-.33c-.219 0-.11-.221-.219-.221-.11 0-.219.11-.329.11-.11-.11-.11-.22-.219-.33l.22-.22c-.33 0-.33 0-.33.22 0 .11.11.22.11.44h.11l.11-.11v.22c-.439.11-.877 0-1.206-.22-.11.11-.11.22-.11.22-.329-.11-.657-.11-.877.11-.11-.22-.11-.22-.328 0-.11-.11-.22-.11-.33-.22h-.328c0 .33 0 .44.11.55-.33.111-.11-.22-.22-.33-.11 0-.219.11-.219.11-.11-.11-.329 0-.438 0 0-.22-.33-.11-.33-.44h-.218s-.11.11-.22.11c0-.44.33-.22.548-.44v.22c.22-.11.33-.11.658-.22-.11-.11-.22-.11-.22-.11-.109 0-.109 0-.218-.11 0-.11.11-.22.11-.44-.11 0-.11.11-.22.11h-.22v-.11l.44-.441h.438c.11-.11.329-.11.438-.11.11 0 .329 0 .439-.11-.11-.22-.11-.22-.33-.22h-.767c-.11 0-.219.11-.328.22-.11.11 0 .11 0 .22l-.11.11h-.22c-.109.11-.109.22-.109.33a1.52 1.52 0 0 1-.329-.44c-.219.22-.328.11-.548.11 0-.11.11-.22.22-.22-.11-.22-.33.11-.439 0-.11 0-.219.11-.438.22-.11.11-.33.11-.439.11.11.22.33.22.439.11.11 0 .219 0 .219.11l.11-.11c0 .55 0 .55.11.66-.22 0-.44 0-.659.331.11 0 .22-.11.33-.11 0 .22-.11.33-.33.33-.219 0-.11-.22-.11-.33-.109 0-.218 0-.438.11l.22.22v.44c-.11 0-.11-.11-.11-.11.11-.22-.22-.44-.22-.77-.109.11-.218.11-.328.22-.22-.22-.22-.22.11-.22.11 0 .11-.11.11-.22h-.877c0-.11.11-.11.11-.22h-.44c.11.11.11.33.22.33.11.11.22 0 .329 0 0 .11 0 .22.11.33.109 0 .219 0 .438.11v.33c-.11 0-.22-.11-.33-.11l-.109.11c-.11-.11-.11 0-.219 0h-.11l.11-.11c.11 0 .11-.11.11-.11-.11 0-.22.11-.22.11-.11-.11-.219 0-.438 0 .11-.22.22-.33.329-.44-.22 0-.329-.11-.439-.11-.11 0-.219 0-.328.11-.11.11-.11.22-.22.33h.439c.219.11.438.33.767.22l.11.11-.11.11h-.658c-.11 0-.219 0-.219.11v.221h-.548v-.11h.329c0-.11-.11-.11-.11-.22-.11.11-.11-.11-.219-.11-.11 0-.11.11-.219.22-.438.11-.548-.11-.548-.11-.438.22-.548.11-.658-.11-.219 0-.328 0-.548-.11-.329-.22-.438-.11-.548.11 0 0 0 .11-.11.11 0-.11-.109-.11-.109-.22-.11.11-.22.22-.22.33 0 0 .11.11.11.22-.438 0-.767-.11-1.096.22v-.44c-.11.11-.219.11-.328.22-.11 0-.11.11-.22 0a.696.696 0 0 0-.657 0c-.22.11-.33.11-.548-.22 0 .22-.22.22-.33.33l.22.22c0 .11-.11.22-.11.22h-.11c0-.22-.109-.44-.218-.44-.22-.11-.33-.11-.548-.11.11 0 .219-.11.328-.11 0-.22-.11-.33-.219-.22-.11.11-.219 0-.219-.11h.22c.218 0 .328.11.547 0 .22-.11.548-.22.767-.33.11 0 .11-.11.22-.221.11.22.219.33.329.44-.11 0-.11.11-.11.11.11.11.22 0 .329-.11 0-.11-.11-.22-.11-.22h.11c.329-.11.329-.11.11-.33-.11-.11-.11-.22-.11-.33.219 0 .329.11.438.11 0-.11.11-.22.11-.44h.11c0-.221-.22 0-.22-.221.22-.11.439-.11.548-.22.11.22 0 .33-.11.33-.109 0-.109.11-.109.22h.548c0 .11-.11.22-.11.22.22.22 0 .22-.11.33.11.111.33.221.44.111.109-.11.109-.11.218-.11h.439c0-.11 0-.22.11-.33.219 0 .328.22.547.22.11-.22.11-.33.22-.55.11.11.11.22.11.33-.44 0-.549 0-.549.11.11.22.33 0 .439 0-.11.11-.11.22-.22.22h-.658v.11c.11 0 .22.11.33.11.328.22.328.22.548 0 0 0 0 .11.11.11.109 0 .109-.11.109-.11.11 0 .11.11.11.11.219.11.328.11.438-.11 0-.33 0-.44.11-.55-.11-.11-.22-.22-.33-.22-.328.22 0 .33 0 .55-.109-.11-.218-.11-.218-.22 0-.22-.11-.33-.22-.44l.22-.221c-.22-.11-.549-.11-.658-.44h1.425c.329 0 .657-.11.877-.11.11 0 .328-.11.438 0 .22.11.329.11.548 0 .11 0 .22-.11.329 0 .11.11.329.11.438 0h.11c-.11.11-.11.11-.11.22.33.11.877.11 1.096 0l-.329-.33c.22 0 .33 0 .439-.11h.22s.109.11.109.22v.11c.11 0 .11-.11.11-.11-.11 0-.11 0 0-.11.328-.11.657-.11 1.095-.11.439.11.768 0 1.206.11.22 0 .548-.11.877-.11h2.411c.11 0 .33 0 .439.11.11.11.219.11.328 0 .11-.11.33-.11.439 0h.438c.11 0 .33-.11.439 0-.22.44-.548.22-.987.22.11.22.22.33.33.44.109.11.109.33.218.44.22-.11.439 0 .658 0-.22.22-.329 0-.439 0 0 .11 0 .11-.11.22 0 0-.109 0-.109.11l.33.331c.218 0 .438-.11.547-.11.11.11.22.33.329.22l.438-.44-.11-.11c.22-.11.44.11.549-.11 0 0 0-.11-.11-.22h.22c0 .11-.11.22-.11.44.438-.22.438-.22.657 0 .11.11.22.11.33.11.109-.22.219-.11.438 0 .11.11.219 0 .329 0-.11-.22-.22-.33-.22-.44h.658c0 .11.11.22.11.33.219-.11.328-.22.438-.22h-.22v-.22c-.218 0-.328 0-.547.11-.11-.22-.33-.33-.548-.22v.33h-.33l.22-.22c-.11 0-.11-.11-.22-.11-.218 0-.328.11-.547.11-.11-.11-.329-.331-.658-.22-.219 0-.11-.111-.11-.221.22-.11.33-.11.439.11.22-.11.439-.22.548-.33l-.11.11c.11 0 .11.11.11.11.329 0 .658-.11.987-.11h.438l.11-.11h-.33s-.109 0-.109-.11c.22 0 .329-.11.439-.11-.11-.11-.11-.22-.22-.331-.11-.11-.219-.33-.438-.33-.22 0-.329-.11-.439-.33l-.11-.11c-.109.11-.109 0-.109-.11-.11-.111-.11-.331-.329-.331-.219 0-.219-.33-.328-.44-.33-.221-.658-.331-.987-.551-.11 0-.219-.11-.219-.11-.22 0-.11-.11-.22-.22h-.218l-.11.11c-.11-.11-.11-.22-.22-.22-.328-.111-.547-.331-.767-.441-.11-.11-.219 0-.219 0-.11-.11-.329-.22-.438-.22-.11 0-.11-.11-.22-.11-.109-.22-.218-.11-.328 0-.11-.331-.329-.22-.329-.331-.22-.22-.548-.22-.877-.33-.11-.11-.329-.11-.329-.22h-.438v.33c-.11 0-.22 0-.329-.11-.11 0-.11 0-.22-.11-.109-.11-.218-.11-.328-.11h-.22v-.22c-.218-.111-.109.22-.218.22-.22 0-.548-.11-.767-.11-.549 0-.987-.11-1.535-.11-.11 0-.329.11-.438 0-.11-.111-.33 0-.439 0-.22 0-.548.11-.767-.111v-.22c-.11-.11-.11 0-.22.11-.109.11-.328 0-.438-.11l-.11-.11c-.109 0-.109.11-.218.11 0 .33.219.11.328.22 0 .11-.11.11-.219.22-.11 0-.22.11-.438.11-.22 0-.439.11-.768 0-.11.11-.219 0-.438-.11-.11 0-.22-.11-.329 0-.219.11-.329.22-.657.11-.11 0-.22-.11-.33 0-.109.11-.328 0-.328-.22.11 0 .22-.11.329-.11-.11 0-.33-.11-.439.11a.602.602 0 0 1-.548.33c-.11 0-.219.11-.328.11-.439.11-.768.22-1.206.11-.11 0-.11.11-.22.11-.219 0-.438 0-.657.11h-.22c-.109 0-.438.111-.438.111 0 .22-.219.11-.219.22l-.22-.22c-.109-.22-.109-.22-.218-.11h-.548c0-.11-.11-.11-.22-.22 0 .33-.219.22-.328.33-.22.11-.439.22-.658.22 0-.22.329-.11.329-.33-.11 0-.22.11-.439.11 0 .22 0 .22-.328.33-.11 0-.22 0-.33.11-.109.11-.328.11-.438.11-.328 0-.548.11-.877.22-.11 0-.219.111-.328.111-.11 0-.22.11-.33 0-.109-.33-.218-.22-.328-.22h-.548c-.22 0-.329-.11-.329-.22-.329.11-.548.44-.877.11-.11.11-.219.11-.219.22.11 0 .11.11.22.11 0 .22-.11.44-.33.44-.11 0-.11.22-.11.22h-.766s0 .11-.11.221c-.22-.11-.329-.11-.438-.22v-.11c-.11 0-.33.11-.548.11 0 .22.11.33.219.33-.329.22-.658-.11-.877.11-.22.22-.658 0-.877.33-.11-.22-.329-.22-.548-.11-.11 0-.22.11-.22 0-.218-.11-.438 0-.657-.11-.328 0-.438.11-.548.33-.11 0-.219-.11-.328-.11.11.33.11.33-.22.33v-.33c-.11.11-.219.11-.219.11-.22.331 0 .331.11.441l-.22.22c.33 0 .33 0 .439.11-.11 0-.22.11-.329.11 0-.11-.11-.11-.22-.22l-.109.11c0 .22-.11.22-.219.33-.22.111-.548.221-.767.221l-.11-.11c-.219.22-.657.22-.548.66-.22.11-.329 0-.438-.22-.11.11-.22.11-.439.22-.219 0-.438.11-.657.221-.11 0-.22.11-.22.11-.219 0-.328 0-.438.11-.22.22-.438.33-.767.44-.11 0-.11 0-.22.11-.219.331-.767.11-.986.441l-.11-.11-.986.33c-.11-.33.22-.11.22-.22-.11-.22-.33-.22-.33-.11-.11.11-.219.11-.219.11-.219 0-.438.11-.548.33-.219 0-.219 0-.219.22h.22c-.22.111-.44.331-.658.331.11-.11.11-.22.219-.33-.22.11-.439.22-.658.22.11.11.22 0 .439.11l-.11.11c-.11.11-.22.11-.329.11-.329.22-.657.33-.877.661-.11.11-.219.22-.328.22h-.11c-.11.22-.329.11-.548.33-.11-.11-.11-.22-.22-.33-.438-.11-.438.11-.547.22zm62.803-1.761h-.11c-.109 0-.328-.11-.438-.11h-.11c-.109-.11-.218 0-.218 0-.11-.11-.22-.22-.33-.11 0 .11 0 .11-.109.22l-.219-.22c0 .11 0 .11-.11.22-.11-.33-.438-.22-.657-.33v.33c.219 0 .548 0 .657.33.11-.11.22-.11.33-.22.109.33.328.33.547.33.11 0 .22 0 .22.11.11 0 .219.22.438 0-.11-.11-.22-.22-.439-.33.439-.11.768.22 1.206 0-.22-.11-.329-.33-.438-.44l.11-.11a.332.332 0 0 0-.44 0c0 .11 0 .22.11.33zm-11.18-1.872h-1.534v.11l.33.33c.218.33.657.22.766-.11.11 0 .33-.11.439-.11v-.22zm33.211 5.396c.219.22.11.44.439.55 0-.11.109-.11.109-.22.219.22 0 .44.11.55.219 0 .438.33.767.22 0-.33-.329-.11-.438-.33v-.33c-.11-.11-.22-.33-.329-.55-.11 0-.11 0-.219.11 0-.11-.11-.11-.11-.22-.219.11-.219.22-.329.22zM98.896 72.459s0-.11 0 0c.11 0 .328-.11.438-.11v.22c.22 0 .438 0 .548-.22h-.329c-.11-.11-.219-.11-.329-.11-.328 0-.548 0-.876-.11-.22 0-.22 0-.33.22.11 0 .22.11.33.11 0 .11 0 .11-.11.22.11-.11.22-.11.329-.11l-.22-.22c.33 0 .439 0 .549.11zm42.855-12.554c-.219 0-.438 0-.548.22-.109.11-.219.22-.219.33v.11c.11-.11.219-.22.329-.22.438 0 .548-.33.877-.55.109-.11.109-.22 0-.33-.11.22-.329.33-.439.44zM51.108 71.027c-.11-.22-.11-.33-.33-.33-.328 0-.657-.11-.986-.11-.219 0-.219.11-.219.22s.11.11.11.11c.11-.11.22-.11.329-.11v.22h.657c-.11-.11-.11-.11-.219-.11.11 0 .22 0 .329.11.11 0 .22.11.329 0zM90.018 9.14c0-.11-.11-.22-.11-.22-.11 0-.22.11-.329.22-.219 0-.329-.11-.548-.11.11.22.11.33.22.44.109-.11.328-.11.438 0l.11.11h.657v-.33c-.22-.11-.329-.11-.438-.11zm13.591 1.652c-.11 0-.11-.11-.22-.11-.109 0-.109 0-.219-.11-.219-.33-.548-.11-.877-.11l-.109.11s0 .11.109.11h.11c.219 0 .438.11.658.22h-.658v.11h.658s.109 0 .109-.11c.219 0 .329-.11.439-.11zm-36.06-2.533v.22c0 .22 0 .22.328.22v-.33h.11l.22.22c.109.11.328 0 .438 0 0 0 .11-.11.11-.22-.22 0-.22 0-.33-.11.11 0 .11-.11.22-.11-.11 0-.22-.22-.33 0h-.329c-.218.22-.328.11-.438.11zm25.976 1.872v-.22c.11.11.329-.11.438 0 0-.33-.328-.44-.548-.661-.11.11-.219.33-.438.11.22.44.22.771.548.771zm3.617-.991h-.329c.11.11-.11.11-.11.22s-.11.22-.11.22c-.218 0-.328 0-.438.11h-.438c.329.22.439.22.658.33h.11c.219-.11.328-.11.438-.44 0-.11.11-.11.11-.22.109 0 .219 0 .328.11-.11-.11-.11-.22-.22-.33zM60.534 72.018c-.11 0-.22 0-.329-.11h-.329c-.11 0-.11-.11-.22-.11l.11-.11c-.11 0-.219-.11-.328-.11-.11 0-.22.11-.22.22s0 .22.11.22c.329.22.767.11 1.206 0-.11.11-.11.11 0 0zm79.025-48.563c0-.11 0-.22-.109-.22-.11 0-.11-.11-.22-.22-.109-.22-.438-.22-.657-.11.109.66.548.55.986.55zm-97 46.36c.657.11 1.424.331 2.082.22l-1.973-.33-.11.11c0-.11 0 0 0 0zm65.872-58.032c.329 0 .548-.11.768 0 .219.11.438.11.657.22 0 0 .11 0 .11-.11-.219-.11-.329-.11-.439-.22v-.22c-.219-.11-.328-.11-.548 0-.219.11-.328.11-.548-.11.11.22.11.33 0 .44zM79.276 9.03c.22.22.439.11.548.22.11.11.22-.11.22-.33-.11.22-.22.22-.439 0-.11 0-.11 0-.22.11h-.109c-.11 0-.219.11-.219.22-.11-.11-.11-.11-.329 0 .11 0 .11.11.22.11 0 .11-.22 0-.22.22.22 0 .33-.22.548-.33v-.22zm43.952 6.387c-.329-.11-.548-.11-.877-.22 0 .11-.109.22-.109.44h.109c.11-.11.329 0 .439 0 .219.11.328 0 .438-.22zM74.015 73.009c0 .22 0 .22.11.22h.657c.22 0 .22 0 .22-.11a.332.332 0 0 1-.439 0l.22-.22h-.439c0 .11-.11.22-.11.22-.11-.11-.219-.11-.219-.11zm-13.043-.77h.22c.219 0 .438 0 .657.11.11 0 .22 0 .329-.11-.11-.11-.11-.22-.329-.11-.22 0-.438 0-.767-.11 0 0-.11.11-.11.22zM69.631 9.36v-.22c-.329 0-.329 0-.438-.22-.11 0-.11.11-.22.11 0 .11-.11.11-.11.22 0 0 .11.11.22.11h.548zm38.691 2.092c-.329-.22-.658-.11-.987-.11.11.11.329.33.548.22.11 0 .11-.11.219 0 .22.11.22 0 .22-.11zM49.135 70.807c0-.33-.329-.11-.439-.11v-.22c-.11 0-.219 0-.219.11-.11 0-.219.11-.329.11.22.11.33.11.439.11h.548zM91.77 9.58h.33c.109 0 .218-.11.109-.33-.11-.22-.33.11-.439-.11l-.11.11c0 .22 0 .22.11.33zM46.395 70.476v-.22c-.22-.11-.439-.22-.658 0 .22.11.438.11.658.22zm63.68.551c-.109.11-.109.22-.219.22.548.11.767.11.767-.11 0 0-.109-.11-.109-.22-.329.33-.329.33-.439.11zm-38.252.991c-.22.11-.548.33-.438.44 0 0 .11.11.219.11.11-.11.22-.22.329-.22 0-.11 0-.22-.11-.33zm24.99-61.557c-.22-.11-.438 0-.657-.11 0 0-.11 0-.11.11.11.11.11.11.22.11h.218v.22c.22 0 .33-.11.33-.33zm34.745 8.92c-.11-.22-.219-.11-.329-.11.11.22-.109.44.11.66h.219c-.219-.11-.329-.22-.219-.44 0 0 .109-.11.219-.11zM85.524 8.699c.11.33.219.33.329.33.11 0 .219-.11.11-.33 0 .11-.22 0-.44 0zM56.369 2.753c-.11-.11-.329-.11-.329.11 0 .11-.11.11-.22.11-.109 0-.218 0-.218.11.11.11.219.11.328 0 0-.11.22-.22.439-.33zm-3.07 68.825c.11 0 .11 0 0 0 .11 0 .33-.11.33-.22s.11-.11.11-.11h.219v-.11h-.439s-.11 0-.11.11c0 0 0 .22-.11.33zM68.098 9.03c-.22 0-.33 0-.439.11v.22c0 .11.11 0 .22-.11l.219-.22zm6.795.44c-.22-.44-.22-.44-.438-.33.11.11.11.33.438.33zm-7.782-.88c.11 0 .329.11.329-.11 0-.11-.11-.221-.22-.331-.109 0-.109.11-.218.11 0 .22 0 .33.11.33zm37.156 1.651c.11 0 .11 0 0 0 .658.11.768.11.768 0-.22 0-.439-.11-.658-.11.11 0 0 .11-.11.11zM89.47 73.12c.11-.11.219-.33.219-.44 0-.11-.11-.11-.11-.22l-.11.11v.55zm-7.454-.33c-.219-.22-.438-.22-.767 0 .22 0 .439.11.658.11 0-.11 0-.11.11-.11zm49.213-54.84c-.109-.11-.219-.11-.219-.22-.11 0-.219 0-.219.11s-.11.22-.219.33c0 0 0 .11.109.11h.11c0-.11.109-.22.109-.33.11-.11.11.22.329 0zm6.467 44.269v-.22a.602.602 0 0 0-.548.33c.219 0 .438 0 .548-.11zm-9.974-45.26c.219.11.329.22.438.33l.11-.11c0-.11-.11-.11-.11-.11-.109-.11-.219-.11-.438-.11zm-22.688 54.73c-.11 0-.22-.11-.329.11 0 .11 0 .22.109.22.11-.11.329-.11.22-.33zM68.206 9.03c.11.33.11.44.329.44 0-.11-.11-.22-.11-.44h-.219zm61.818 8.479c-.22 0-.329 0-.439.11.11.11.329.11.439.22-.11-.11 0-.22 0-.33zM70.837 9.25c0 .22.11.33.328.22l.11-.11-.11-.11h-.328zm58.09 7.819l-.109-.11c-.11 0-.219 0-.329.11v.11s.11.11.11 0c.109 0 .219 0 .328-.11zm-14.248-3.855c-.11-.11-.219-.11-.329-.22 0 .11-.11.22-.11.33.22.22.22 0 .439-.11zm12.385 2.643c-.109 0-.329-.11-.438.11.219.22.329.22.438-.11zm16.66 8.149c.11 0 .219-.11.329.11h.219c-.219-.11-.329-.22-.548-.33v.22zM34.557 9.36c.22 0 .33-.11.548-.11 0-.11 0-.11-.11-.22-.109.11-.438 0-.438.33zm83.52 5.616c.109.22.328.22.548.22-.329.11-.22-.22-.329-.33 0 .11-.11.11-.219.11zm8.878 53.408s.109 0 0 0c.109 0 .219 0 .328-.11v-.11h-.109c-.11 0-.11.11-.219.22zm-3.508.11c.11-.22 0-.33-.109-.44-.11.11-.11.22-.22.33h.22l.109.11zm-23.017 1.652c.219.11.329.11.548-.11-.219 0-.438 0-.548.11zm-49.322.66h.548s.11 0 .11-.11c-.33-.11-.33-.11-.658.11zm45.157 1.763c.11.11.329 0 .329.11h.22c-.11-.11-.22-.11-.33-.22 0 0-.11 0-.219.11zm40.006-50.986c0-.22-.11-.33-.11-.55 0 .11-.109.22-.109.44 0 .11.109.11.219.11zM36.421 6.167h.767c-.329-.11-.548-.22-.767 0zm36.498 66.512c-.11.11-.219.11-.329.22.22.11.33.22.439.11 0-.11-.11-.22-.11-.33zm57.214-53.739c-.109.11-.329.22-.219.441.11 0 .219-.11.329-.11-.11-.11-.11-.22-.11-.33zM22.172 64.2c-.22.11-.22.11-.11.33.11 0 .11 0 .22-.11 0 0-.11-.11-.11-.22zm86.807-51.867c.11 0 .22.11.22.11.109 0 0 .22.109.22.11-.33.11-.33-.329-.33zM78.619 9.47c0-.11 0-.11 0 0 0-.11-.11-.22-.22-.22h-.11v.11c.11 0 .22 0 .33.11zM51.217 71.027c0 .11.11.11.11.22h.11v-.22h-.22zm59.187-58.473c.219 0 .219.33.439.11-.329-.22-.329-.22-.439-.11zm-79.792-1.432c-.22-.11-.33 0-.439.11 0 0 0 .11.11.22l.328-.33zm90.314 3.854c-.109.11-.109.22-.109.22.109.11.219.11.329-.11-.11 0-.11 0-.22-.11zM73.906 9.14c-.22 0-.33 0-.439.22h.439v-.22zm70.585 15.857c.11.33.329.33.439.22-.11 0-.219-.11-.439-.22zm-33.977-13.104c.109.33.219.33.329.22-.11-.11-.22-.22-.329-.22zm-27.62 60.896c-.22 0-.33-.33-.549 0h.548zm48.883-52.527c.11 0 .219 0 .329-.22h-.329v.22zM111.5 12.443c-.109.11-.219.11-.329.22.11.11.11.11.329 0v-.22zm29.484 51.096c-.219.11-.329.22-.329.44.219-.11.439-.22.329-.44zM95.388 10.13c-.11.22-.219.11-.329.33h.33c.109-.11.109-.11 0-.33zM60.863 8.699c-.11 0-.22.11-.33.11.11.11.22.11.33.22V8.7zm32.443 1.652c.11.22.219.22.329.22.11 0 .11 0 .11-.11-.11-.11-.33-.11-.44-.11zm-61.598.33c-.22-.11-.22-.11-.33.11.11 0 .22-.11.33-.11zM77.303 9.14s0 .11 0 0c.11.11.22.11.22.11v-.33c0 .11-.11.22-.22.22zm2.521.33h-.548c.22 0 .33.11.548 0zm44.61 60.015c.109-.11.219-.11.328-.22-.109 0-.109-.11-.219-.11-.109.11-.219.11-.109.33zM76.974 6.277c0 .11.11.22.22.22v-.11c0-.11-.11-.11-.22-.11zM57.356 9.69c.11 0 .11 0 0 0 .22 0 .329 0 .22-.22l-.22.22zm68.065 7.267c-.109-.22-.219-.11-.329-.11 0 .22.11.22.329.11zM63.493 8.81c-.11-.11-.11-.22-.329-.11l.22.22.11-.11zm62.146 8.148c0 .11-.109.22-.109.33.109-.11.219-.11.329-.22-.11 0-.11-.11-.22-.11zm-57.214 55.72c-.11-.11-.219-.11-.438 0 .22.11.329 0 .438 0zm20.496-.22c.22-.11.22-.11 0-.33v.33zm48.775-50.875c-.11-.22-.11-.22-.329-.11.11 0 .219.11.329.11zm-25.1-10.13c0 .11-.109.11-.109.22.109 0 .219.11.329.11 0-.11-.11-.22-.22-.33zm-41.54-3.524c.11 0 .22 0 .329-.11-.22-.11-.33-.11-.33.11zm60.173 9.58c.11.22.11.22.329.11-.11 0-.219 0-.329-.11zm-69.6-9.03c.11-.11.11-.22 0-.22h-.109v.11l.11.11zm67.627 10.241c0 .33 0 .33.22.22l-.22-.22zm8.769 4.185c-.11.11-.11.11-.11.22.11 0 .11.11.219.11-.109-.11-.109-.22-.109-.33zM14.828 17.509c.11.11.22.11.33 0-.11-.11-.22 0-.33 0zm114.538.88c.11.111.11.221.11.331.219-.22.219-.22-.11-.33zM70.727 72.46c0-.22 0-.22-.22-.22l.22.22zM94.621 9.69c-.11 0-.22 0-.22.22.11 0 .22 0 .22-.22zm2.63 62.657c-.219-.11-.219-.11-.328.11.11-.11.219-.11.328-.11zm13.811-60.345c.109.22.109.22.329 0h-.329zm6.576 1.762c-.109 0-.109.11-.219.22.11 0 .11 0 .219.11v-.33zM82.455 73.009c.11.22.11.22.329.11 0-.11-.11-.11-.33-.11zm19.29-62.438c.11.11.22.11.329.22 0-.33-.219-.22-.329-.22zm-18.413-1.21s0 .11 0 0c.11.11.219.11.329.11-.11-.11-.22-.221-.33-.11zM48.806 3.963c-.11.11-.22.11-.329.22.11 0 .22 0 .329-.22zM94.621 8.81c-.11 0-.11 0-.329.11.11.11.22.11.22.11.219 0 .219-.11.109-.22zm-39.02.99c-.11.11-.11.22.11.331 0-.11 0-.22-.11-.33zm35.293-.22c0-.11 0-.22-.11-.22 0 .11 0 .22.11.22zm41.76 10.242c-.11 0-.219-.11-.329-.11 0 .33.219.11.329.11zM101.088 9.8h.219v-.22l-.219.22zM90.237 8.699c0 .11.11.22.219.22 0-.11 0-.33-.22-.22zm50.199 52.307c-.219-.11-.219-.11-.329.11.219 0 .329 0 .329-.11zM61.191 9.03c0-.11 0-.22.11-.33-.22.11-.22.11-.11.33zm84.396 16.848c.11 0 .11.11.22.11v-.11c0-.11-.11-.11-.22 0zm-86.588 46.14v-.22c-.11 0-.219.11-.329.11.11.11.22.11.33.11zm57.872-58.033c.11 0 .11.11.219.11v-.33c0 .11-.109.11-.219.22zm-2.85 56.822c-.219-.11-.329-.11-.219.11 0 0 .11-.11.219-.11zm.219-57.042c.22.11.22.11.329-.11-.109 0-.219 0-.329.11zm23.675 6.937s0-.11 0 0c-.109-.11-.219-.11-.329-.11v.11h.329zm-20.496-7.378c0 .11.11.22.11.33l.219-.22c-.11 0-.219 0-.329-.11zm-5.152-1.761c-.109 0-.109-.11-.109-.11s-.11 0-.11.11l.11.11s0-.11.109-.11zm11.509 56.711c.11 0 .11.22.219.22.11-.22 0-.22-.219-.22zM72.59 9.47c.11-.11.11-.11.11-.22-.11.11-.11.11-.11.22zm-.877-.22c-.11-.11-.11-.11-.219-.11v.11c.11.11.11.11.22 0zM55.822 71.247s0 .11 0 0c0 .22 0 .22.219.11-.11 0-.11 0-.22-.11zm64.119-57.152c-.11-.11-.11-.11-.219-.11v.11h.219zM56.478 9.47c-.11.11-.11.11 0 .33v-.33zM68.973 72.9c.11 0 .11-.11.11-.22h-.11v.22zM31.05 11.012c0-.11 0-.11 0 0-.11-.11-.22-.11-.329 0h.329zm-2.411 55.72c.11.11.219.11.328 0h-.328zM130.79 17.29c.109-.11 0-.22-.11-.22h-.109c.109 0 .109.11.219.22zM4.635 35.789c.11-.11 0-.22 0-.33-.11.11 0 .22 0 .33zm49.98-32.485c.11.22.22.11.22 0-.11-.11-.11 0-.22 0zm52.063 8.699c-.11-.22-.11-.22-.329-.11.109 0 .219.11.329.11zm3.397.991c.11.11.22 0 .329 0-.109-.22-.219 0-.329 0zm15.236 3.194c-.11-.11-.22-.11-.329 0h.329zm-50.529 56.16c0 .11 0 .22.11.22.11-.11 0-.22-.11-.22zm20.826-61.997c0 .11 0 .11 0 0 .11.11.11.11.219 0h-.22zm25.757 4.735c0 .11.109.11.219.11l.11-.11h-.329zm10.303 51.867c-.22-.11-.22-.11-.329 0h.329zM71.713 8.92c.11-.11.22-.11.33-.11-.11 0-.11-.11-.22-.11 0 0-.11.11-.11.22zm59.516 8.369c0-.11-.109-.22-.219-.22v.11c0 .11.11.11.219.11zm-7.124 50.875s.109 0 0 0c.109 0 .109-.11.109-.11h-.109c.109 0 0 .11 0 .11zM38.613 7.708h.328c0-.11-.11-.11-.328 0zm22.25 64.53c0-.11-.11-.11-.22-.11v.11h.22zm71.024-54.509h-.219c.109.22.219.11.219 0zM81.249 8.92c-.11-.11-.11-.11-.219 0v.11c.11 0 .22-.11.22-.11zM73.467 72.9c-.11 0-.11-.11-.219-.11l-.11.11c.11.11.22.11.33 0-.11.11-.11.11 0 0zm-54.145-9.58c-.11-.22-.11-.22-.219-.11.11.11.11.11.22.11zm47.46-54.18c0 .221.109.111.219.111v-.11h-.22zm-4.604-6.606s0-.11 0 0c-.11-.11-.22 0-.329 0v.11c.11-.11.22-.11.329-.11zm46.144 8.7c0-.221 0-.221-.11-.221 0 .11.11.11.11.22zm-2.96.11c0 .11 0 .11 0 0 .11 0 .11 0 .22-.11h-.11l-.11.11zm.329.33s.11 0 0 0c.11 0 .11-.11.219-.11-.219-.11-.219 0-.219.11zm31.238 8.369c.109.11.219.11.219-.11-.11.11-.219.11-.219.11zM66.672 9.47h-.11l-.11.11.11.11c.11-.11.11-.22.11-.22zm37.485 59.795c-.11 0-.22 0-.329-.11.109.22.219.22.329.11zm31.895-47.131c.109 0 .109-.11 0 0 .109-.11 0-.11 0-.22h-.11c.11.11.11.11.11.22zm-14.687 47.131c-.11.11-.11.11-.11.22.219 0 .219 0 .11-.22zM73.796 73.12l-.22-.22c0 .11.11.22.22.22zm3.288-.55l.22.22c0-.22 0-.33-.22-.22zM100.87 10.02s0-.11 0 0c0-.11 0-.11-.11-.22v.11s0 .11.11.11zM7.266 24.446c.11.11.11.22.219 0-.11.11-.11.11-.22 0zM95.388 72.46c.11.11.11.11.22 0l.11-.11h-.11c-.11 0-.11.11-.22.11zm12.386-61.777s0 .11 0 0c0 .11.109.11.219.22v-.11s-.11-.11-.219-.11zM70.508 72.238c-.11-.11-.22 0-.22 0v.11c.11-.11.11-.11.22-.11zm.657-63.759c.11.11.11.11.22 0h-.22zm29.813 2.423c-.219-.11-.219 0-.219.22l.219-.22zM52.094 70.917c.11 0 .11-.11.22-.11-.11-.11-.11-.11-.22.11zm85.163-9.03s0 .11 0 0c.11 0 .11 0 .22-.11-.11 0-.22.11-.22.11zm-85.492 9.25c.11.11.11.22.22 0h-.22zm88.452-10.461c.109-.11.109-.11 0-.22v.22zM65.795 8.039c-.11 0-.11 0 0 0h-.22c.11.11.11 0 .22 0zM11.869 59.575s-.11 0 0 0v.22h.11c0-.22-.11-.22-.11-.22zm135.253-4.736c.11.11.11 0 .219 0v-.11c-.109.11-.109.11-.219.11zM4.306 52.638v-.11s-.11 0-.11-.11c0 .11 0 .11.11.22zm147.967-7.928c0-.11 0-.11-.219-.11.11.11.11.11.219.11zm-.876-4.405s.109 0 0 0c.109-.11.109-.11 0-.22v.22zm-122.1 26.428c-.11.11-.11.11-.22.11.11.11.22.22.22-.11zM81.906 8.48c0 .11-.11.11 0 0 0 .11.11.11.11.11v-.11h-.11zm64.229 17.84v-.11h-.11c0-.11 0 0 .11.11-.11-.11-.11-.11 0 0zm-7.782-3.304c0 .11 0 .11 0 0 0 .11.109.11.109.22v-.11s-.109 0-.109-.11zM70.727 9.03c.11 0 .11-.11.11-.11h-.11v.11zm66.75 11.122c.109 0 .109 0 0 0v-.11.11zM85.414 9.03c-.11-.11-.11-.11-.219-.11v.11h.22zm45.158 10.13v-.11h-.11c.11 0 .11 0 .11.11 0-.11 0-.11 0 0zM95.388 9.58c0 .11 0 .11-.11.22h.22c0-.11 0-.11-.11-.22zm32.882 8.92c.109 0 .109 0 0 0 .109 0 .109-.11.109-.22h-.109v.22zM80.482 72.79s.11-.11 0 0v-.22h-.11c.11.11.11.11.11.22zm-11.837-.22c0 .11-.11.11 0 0 0 .11.11.11.219.11v-.11h-.22zM119.5 16.077c.11 0 .11-.11 0 0v-.22h-.109c.109.11.109.11.109.22zm-49.98 56.271c.11 0 .22 0 .11-.22 0 .11-.11.22-.11.22zm47.788-58.143c.11.11.11 0 .22 0v-.11c-.11 0-.11 0-.22.11zm-1.315-.33c0 .11 0 .11 0 0 0 .11.11.11.219.11l.11-.11c-.11.11-.219.11-.329 0zm-8.768-1.872c-.11 0-.11-.11-.11-.11l-.11.11h.11c0 .11 0 0 .11 0zm3.507 1.101l-.11-.11v.11h.11zm1.425 58.033c-.11-.11-.219-.11-.219.11.109 0 .109-.11.219-.11zm-58.968.33c0-.11.11-.11.11-.11s0-.11-.11-.11c0 0-.11 0-.11.11.11 0 .11 0 .11.11zm4.056.33s-.11 0-.11-.11h-.11c.11.11.11.11.22.11-.11 0 0 0 0 0zm1.096.111v-.22c-.11.11-.11.11 0 .22zM25.789 13.765h-.11v.11c0-.11 0-.11.11-.11zm83.19-2.753s0-.11 0 0c-.109-.11-.109 0-.109 0h.109zM66.014 71.908h-.11v.11l.11-.11c0 .11 0 .11 0 0zm46.363-57.923c-.11 0-.11 0 0 0-.11-.11-.11 0-.219 0 0 0 .109.11.219 0-.11.11-.11.11 0 0zm3.836.881v.22h.11c0-.11 0-.11-.11-.22zm-1.096.33c-.109 0-.109-.11 0 0l-.109-.11c-.11.11-.11.11.109.11-.109 0-.109 0 0 0zm-16.112-4.184v-.11h-.11s.11 0 .11.11zM69.302 72.238c0 .11-.11.11-.11.22.11 0 .22-.11.11-.22zm48.446-2.202h-.219c.109.11.109 0 .219 0zM51.656 3.964h-.11.11zm73.983 12.334c-.109 0-.109-.11-.109-.11v.22s0-.11.109-.11zm-83.41 53.297c0 .11 0 .11 0 0 0 .11.11.11.11.11l-.11-.11zm37.376 3.084c0-.11 0-.11-.22-.11.11 0 .11 0 .22.11zm11.837 0c.11-.11 0-.11 0-.11-.11 0 0 .11 0 .11zm-11.398.11v-.11h-.11l.11.11zm47.678-54.62h-.219v.11c.109 0 .219-.11.219-.11zm5.59.11v.11c.109 0 0-.11 0-.11zm-49.323 54.4s0 .11 0 0c.11.11.11.11 0 0 .11.11.22 0 .22 0h-.22zm-46.253-3.854c-.11-.11-.22-.11-.22 0h.22zM67.549 9.36h-.11l-.11.11c.11 0 .11 0 .22-.11-.11.11 0 .11 0 0zm62.146 9.69c-.11 0-.11.11 0 0v.22h.109c-.109-.11-.109-.11-.109-.22zm-73.107-9.8c0-.22 0-.22-.11-.11 0 .11.11.11.11.11zm75.08 10.351c.109-.11.109-.11 0 0 .109-.11 0-.11 0-.11v.11c0-.11 0 0 0 0zM93.635 8.59c-.11 0-.11.11-.11.11h.11v-.11zm46.034 15.307c0 .11.109.11.109.11v-.11h-.109zM91.552 8.589h.22v-.11l-.22.11zm-20.825 0v.11-.11zm-4.165 0s-.11 0 0 0c-.11 0-.11.11-.11.11l.11-.11zm-1.096-6.166c0 .11 0 .11 0 0 0 .11.11.11.11.11l-.11-.11zm65.106 64.97v.11h.109c-.109 0-.109 0-.109-.11zM62.616 8.59v-.11h-.11l.11.11c-.11-.11-.11-.11 0 0zM24.254 65.081s-.11.11 0 0c0 .11.11.11.11.11v-.11c0 .11-.11 0-.11 0z" fill="#F5663E"/><path d="M104.047 72.239c-.109.11-.219.11-.328.11h-.329c-.11 0-.22 0-.22.22 0 .11 0 .22-.109.22-.219 0-.329-.11-.548-.11 0 0 0 .11-.11.11-.109 0-.329 0-.438.11v-.11s0-.11.109-.11c.11 0 .22-.11.329-.22.11-.11.219-.22.439-.22.219 0 .548 0 .767-.11.219.11.329.11.438.11zm10.523-.993h.329c0-.22.219-.22.439-.33v.22c.109 0 .109-.11.219-.11.109 0 .219 0 .219.11 0 0 0 .11-.11.22-.328.11-.657.11-.986.11 0 0 0-.11-.11-.22zM84.867 8.26c-.22.11-.329.22-.548.33-.11-.11-.11-.22-.22-.33.11-.11.22-.22 0-.44h.11c.22 0 .329.11.548.11 0 .11-.11.22.11.33zm34.526 62.217c.438-.11.767-.22 1.205-.22v.22c-.219.11-.329.11-.548.22-.219-.11-.438 0-.657-.22zM83.661 8.26c-.22-.11-.329-.22-.329-.33 0-.11.22-.221.439-.11.11-.001.11-.001.219.11-.11.11-.22.22-.33.11v.22zm35.402 62.217c0 .11 0 .22-.11.22-.328.11-.657.22-1.096.11.11-.11.22-.22.22-.11.219.11.438-.11.657-.11.11 0 .219 0 .329-.11zm-27.84 2.862c-.218 0-.438 0-.547-.11.219-.11.329-.33.657-.33-.11.22-.11.33-.11.44zm-13.48.111h-.768l-.11-.11c.33-.22.548 0 .877.11zm48.554-4.295c-.11 0-.219.11-.329 0-.219-.11-.219 0-.219.22h-.329c0-.33.329-.11.438-.33.11 0 .22 0 .439.11zM86.84 73.559c-.329.11-.658.11-.987 0 .22-.22.33 0 .549 0 .11-.11.219-.11.438 0 0-.11 0-.11 0 0zm34.634-3.412c-.11.33-.329.33-.548.33v-.11c0-.22.329-.33.548-.22zm12.825-3.414c0-.11.109-.33.329-.22h.219c0 .22-.11.22-.329.22-.11-.11-.219-.11-.219 0zM88.263 73.45c-.22.11-.438.11-.657-.11h.11c.218 0 .328 0 .547.11zm43.842-5.946c.22-.11.329-.33.658-.22-.11.11-.548.22-.658.22zm-106.316-.992c-.33 0-.548 0-.768-.33.22.11.439.22.768.33zm105.878 1.102c-.219 0-.329.22-.548.11l.219-.22c.11.11.22.11.329.11zm-3.506.77c0 .11-.11.221-.11.331h-.219c-.109-.11 0-.22.329-.33zM100.978 72.9c-.219 0-.329.22-.548.11.219-.33.219-.33.548-.11zm-77.71-7.27c.219 0 .438 0 .657.221-.329 0-.438-.11-.657-.22zM128.27 16.079v-.11h-.219c.109 0 .109-.11.219-.11.219 0 .329.11.329.22h-.329zm-27.182 56.711h.658c-.11.11-.329.11-.658 0 0 .11 0 0 0 0zm10.193-.882l.11-.11c.109 0 .219-.22.438 0-.109 0-.329 0-.548.11.11 0 0 0 0 0zm12.495-2.311c0 .33 0 .33-.438.22.109-.22.329-.22.438-.22zm-41.21 3.744v.33h-.33c.11-.22.11-.22.33-.33zm46.251-5.176c-.109.11-.109.44-.438.33.219-.11.329-.22.438-.33zm25.538-30.834l.111.11v.33c-.111-.11-.111-.33-.111-.44zM28.64 67.503c-.11 0-.22-.11-.439-.11.22-.11.22-.11.439.11zm106.755-1.21c0 .11-.109.11-.109.22h-.22c.11-.11.22-.22.329-.22.11 0 0 0 0 0zm-17.866-53.74c.11.11.219.11.329.22-.329 0-.329 0-.329-.22zM77.961 73.34c.11 0 .22.11.438.11-.219.11-.329-.11-.438-.11 0 .11 0 0 0 0zm32.992-1.542c.11 0 .11-.11.219-.11-.109.22-.109.22-.219.11 0 .11 0 .11 0 0zm-39.678.991h.33c-.11.11-.11.11-.33 0zm34.198-.22c-.109 0-.109.11-.219.11v-.11c0-.11.11-.11.219 0 0-.11 0-.11 0 0zm-94.59-13.655c.11.11.11.22 0 .22h-.11s0-.11.11-.22zM92.211 73.34h.548c-.22.11-.329.11-.548 0zm-22.031-.33h.219v.11s-.11.11-.22-.11zm57.543-4.737l.219-.22c.11.33.11.33-.219.22zm-5.48 1.874c-.11-.22 0-.22.109-.33h.11c-.11.11-.11.22-.219.33zm-45.927 3.081h.22v.11c0 .11-.11 0-.22-.11 0 .11 0 .11 0 0zM37.08 69.046v.33h-.11c0-.11 0-.22.11-.33zm-20.934-6.828c.11.11.219 0 .219.22-.11 0-.22-.11-.22-.22-.109.11-.109.11 0 0zm54.69 11.452c0-.11.111-.11.111-.22 0 .11 0 .11-.11.22zm17.21-.77c-.11 0-.11.111-.219.111 0-.11 0-.11.11-.33.11.11.11.11.11.22zm45.268-54.949h-.329v-.11c.22.11.22.11.329.11zM86.731 73.12c0 .22 0 .22-.22.11.11-.11.22-.11.22-.11.11 0 0 0 0 0zm8.109 0l.11.11v.11s-.11-.11-.11-.22c0 .11 0 0 0 0z" fill="#F5663E"/><path d="M154.355 37.332c0-.11-.109-.22 0-.22.22.11.11.11 0 .22zm-37.921 33.584c.11.11.11.11 0 .22v-.22zm-34.09 3.085h-.328c.219-.11.219-.11.328 0zM12.855 60.346c.11 0 .11.11.22.11h-.11c-.11.11-.11 0-.11-.11-.11.11 0 .11 0 0zm6.795 3.635l.22.22c-.11 0-.22 0-.22-.22zm1.647.329h-.111c0-.111 0-.111.11 0zm-.44.33s-.11 0-.11-.11c0 0 0 .11.11.11zm9.317 3.084v-.22h.11v.11c0 .11 0 .11-.11.11zm47.24-60.676v-.22c.11 0 .11 0 .329.11-.22 0-.22 0-.329.11zm45.487 62.877c-.11-.11-.221-.11 0-.22v.22zM17.459 63.1v-.22h.11c0 .11 0 .11-.11.22.11 0 .11 0 0 0zm98.644 8.038h.11c0 .11-.11.11-.11 0 0 .11 0 .11 0 0-.109 0 0 0 0 0zm-60.392.662h.111c0 .11 0 .11-.111 0zm53.049.33l.111-.111c0 .11 0 .11-.111.11.111 0 0 0 0 0zm18.305-56.603h-.219c0-.11.109-.11.219 0 0-.11 0 0 0 0zm-22.36 56.933c0 .11.11.11.11.11l-.11.11v-.22zm-40.334.22h-.111v-.11c0 .11 0 .11.11.11zm-34.527-5.396l.11.11s-.11 0-.11.11v-.11-.11zM154.356 36.23c-.11.11-.11 0-.11 0s0-.11.11 0c-.11-.11 0-.11 0 0zM88.482 73.451l.112-.111c0 .11-.112.11-.112.11zm27.073-59.797c0-.11.109-.22.328-.11.22 0 .22.11.22.22-.11-.11-.329-.11-.548-.11.109 0 .109 0 0 0zM46.722 11.34c0-.22-.219-.22-.329-.22-.11.11-.219.22-.438.11-.22 0-.438.11-.658.11h-.328v-.11l.11-.11h.438c.11 0 .219 0 .219-.22.11 0 .219 0 .438.11.11-.11.329-.22.548 0-.11-.33.33-.22.33-.44h-.11c-.22.11-.549-.11-.877.11h-.11c-.22-.11-.329 0-.438.11 0 .11.11.11.11.22h-.33c0-.22.11-.33.11-.55h.22s0-.11-.11-.11h-.548c-.11 0-.22.22-.22.33.11.11.22.11.33.22-.11 0-.22-.11-.33-.11.11-.11-.11-.22 0-.44h-.548v-.22c-.11.22-.219.33-.438.55-.11 0-.11-.11-.22-.11v.22c.22.11.549.11.768 0 .11.33-.329.22-.329.44l.22.22v.11h-.44c-.109.11-.218.11-.218 0-.22.11-.439.221-.548.331-.11.11-.22.11-.33.22l-.109.11c-.219 0-.438 0-.657.11v-.11c.11 0 .219-.11.438-.22-.11 0-.22-.11-.329-.11.11-.11.329-.11.439-.22.11-.11.11-.22.11-.33-.44.11-.768 0-1.206 0 0-.11.328-.22.11-.33-.11 0-.33 0-.33.22 0 0 0-.11-.11-.22-.328 0-.547-.11-.876-.11 0 0-.11 0-.11-.111-.219-.22-.438-.22-.657 0l.219.22s.11 0 .22-.11c.109.11.438.11.328.44.22.11.11-.33.329-.22v.22c.11 0 .219-.11.329-.11.11 0 .219.11.219.11-.22.11-.439.22-.658.11-.329-.11-.548-.11-.767.22-.11.111-.329.221-.548.331-.11-.11-.22-.11-.329-.22 0 .11-.11.11-.11.22-.11 0-.219-.11-.328 0-.11.11-.33 0-.33-.11v-.22c-.109.11-.109.11-.109.55-.11 0-.219 0-.438.11 0-.11-.11-.33-.11-.55-.11 0-.219 0-.11.11v.11c0 .11-.109.11-.109.11-.11 0-.11 0-.11-.11v-.11c-.11 0-.328.11-.438.11-.11 0-.329-.11-.439-.22 0 .11.11.22.11.33h-.11c0 .11-.11.11-.11.22 0-.22-.109-.33-.218-.55-.11 0-.11.11-.22.11l.22.22c-.11.11-.11.22-.22 0-.11.44.11.771.548.771.11.11 0 .22-.11.33-.109 0-.328 0-.438.11-.219 0-.328.11-.547.11-.11 0-.11.11-.11.11l-.11-.11c.11 0 .22-.11.22-.11.11-.11.11-.11.11-.22.328-.11.328-.11.218-.33 0 .11 0 .11-.11.22a.332.332 0 0 0-.438 0c0 .11-.219 0-.219.11-.22-.11-.438-.22-.548-.44-.11 0-.11-.11-.11-.22.11 0 .22-.11.33-.11 0-.22 0-.33.109-.33.22 0 .329-.11.438-.331 0-.11.11-.11.22-.11s.219 0 .219-.11c.219 0 .328.22.548 0 0-.11-.11-.22-.22-.33.11-.11.22-.11.22.11 0 .11 0 .22.11.22h.218c.11 0 .22-.11.439-.11.11 0 .22-.11.329-.11.219.11.329-.11.548 0 0 0 .11 0 .11-.11l.109-.11c.438 0 .658-.331.986-.441l.11-.11c.11.11 0 .22-.11.22-.11.11-.328.11-.328.33l-.22.11c.22 0 .22 0 .658-.22.11.11.11.22.22.44 0-.11 0-.33.218-.33.11.11.11.22.22.33.11 0 .11-.11.219-.11-.11-.11-.11-.22-.22-.33h-.218c-.11 0-.11-.11-.22-.11.11-.22.439 0 .548-.33 0-.11-.11-.11-.11-.22h.33c.328-.22.986-.331 1.315-.11 0-.11 0-.221-.11-.331.22.11.439.33.658.11.11-.11.438.11.548-.22.219.22.438.22.657.11.11 0 .11-.11.22-.11.219.11.328 0 .548 0 .219 0 .329 0 .438-.11.22-.11.438 0 .658-.22h.11c.219.11.438 0 .657 0h.11c.219-.22.438-.11.657-.11h.22c.219-.11.438-.221.767-.11h.11c.218-.111.547-.111.767-.221.328-.11.657-.22.986 0l.22-.22.109.11s.11-.11.219-.11c.11.11.22.33.329.44h.11c0-.11-.22-.22 0-.33.219-.11.219.11.328.11 0 .22-.329.11-.219.33.11 0 .22 0 .329-.22 0-.11.11-.11.219-.11-.11 0-.11-.11-.22-.11.22-.22.33-.11.549 0-.22 0-.11.22-.11.33.11 0 .22.11.33 0 .109-.11.218 0 .438.22-.11 0-.11 0-.22.11l.11.11c.329 0 .657-.22.986-.44.11.11 0 .11-.11.11-.109.11-.218.11-.109.33-.11.11-.329.22-.438.331-.22-.22-.439-.11-.658 0v.11c.22 0 .548 0 .767-.11h.11c.11 0 .22.11.329 0 0 0 .219.11.329.11-.22-.11 0 0-.11.11 0 0 0 .22.11.33 0 0-.11.11-.33.11.11.11.22.11.22.11s-.11.11-.22.11c0-.11-.109-.22-.109-.33-.11 0-.22 0-.329-.11-.219 0-.328-.11-.328-.33v-.11c-.11 0-.22.11-.439 0-.22 0-.329 0-.438.33.219 0 .328 0 .438-.11 0 .11 0 .22.11.22s.11.11.219.11c-.11.11-.22.22-.439.11v-.22c-.11 0-.219 0-.219.11a.602.602 0 0 1-.548.33c-.11 0-.329.111-.438 0h-.22l-.328-.33c-.11.11-.329.11-.22.33-.219.111-.438.221-.767.111.22-.11.33-.11.548-.11-.219-.22-.328-.22-.657-.22l.329-.33c.328 0 .657-.11.876-.11.11 0 .22 0 .33.22-.22-.11-.33-.11-.44.11h.987c-.11-.11-.219-.22-.329-.22.22 0 .33 0 .548-.11-.11-.11-.11-.11-.11-.221 0-.11 0 0-.218-.22-.11-.11-.33-.33-.548-.22-.22.11-.33.11-.439 0v.22h-.438l-.11.11c.22 0 .11.22.22.33-.22 0-.33 0-.44-.11-.218-.11-.328-.11-.547 0-.11.11-.22.11-.329.11.11.11.22.11.329.22.11 0 .11-.11.22-.11 0 .11 0 .22.109.33-.11 0-.22-.11-.33-.11-.218.11-.438.22-.657.22-.11.331-.329.441-.548.662zm-3.946-1.21c-.11 0-.11.11-.219.11 0 .11 0 .11.11.22-.22 0-.329.11-.439 0-.11-.11-.219 0-.219.11.11.11.329 0 .329.33H41.9v.22h.438c.11-.11.329 0 .438-.11.11 0 .22-.11.11-.22l-.11-.11c.11-.22-.11-.44 0-.55zm5.48-.441c-.438 0-1.095 0-1.205.11.329 0 .767.22 1.206-.11zm.987-.661c-.219 0-.329.11-.548.11-.22 0-.438 0-.657.11.11.11.219.22.328.11.11-.11.22-.11.33-.11.218.33.328 0 .547.11v-.33c0 .11 0 0 0 0zm-4.384.66c0 .11.11.221.11.221.219 0 0 .22.219.22.11 0 .11-.11.219-.22.11-.11.11-.11.438-.11v-.22c-.219.11-.438.11-.657.22-.11-.11-.22-.11-.329-.11zm1.425.772c.438-.11.767-.11 1.206-.22-.33-.22-.658 0-.987 0-.11 0-.22.11-.22.22zm.657-.881h.987c.11 0 .11 0 .11-.11-.11-.11-.22-.11-.33 0-.218.11-.328.22-.547.11-.11-.11-.22-.11-.22 0zm-7.233 2.092c.11-.11.11-.22.219-.33.11-.11.219-.11.328-.22-.219-.11-.438 0-.547.11-.11.22-.22.33 0 .44zm1.315-1.211c.11 0 .11.11.219.11.11-.11.329-.11.438-.22l-.11-.11c-.109.11-.328 0-.547.22zm-6.796 2.312c.11.11.11.11 0 0 .22-.11.439-.11.439-.33h-.11l-.329.33zm9.426-1.321c-.219-.11-.328-.11-.548.11.11 0 .33-.22.548-.11zm8.878-1.212c-.219-.22-.219-.22-.548-.11.11.11.33.11.548.11zm-5.7-.44c-.328-.22-.328-.22-.438.11.22 0 .33 0 .439-.11zm-3.068.22c.22 0 .329.11.438-.11-.219 0-.219 0-.438.11zm2.302.44c0-.11.11-.11.11-.22-.11 0-.11 0-.11.22zm-2.412-.55c-.11.11-.11.11-.11.33 0-.22.11-.33.11-.33zm-8.549 2.533l.22.22c0-.22 0-.33-.22-.22zm11.29-2.973h-.22s0 .22.22 0zm-3.18.66h-.218v.11c.11 0 .11 0 .219-.11zm-5.48 1.982c.11-.11.11-.22 0-.33v.33zm3.18-1.651h-.11v.11c-.11 0 0 0 .11-.11-.11.11-.11.11 0 0z" fill="#F5663E"/><path d="M52.203 8.92c.11-.11.22-.331.329-.441.11-.11.22-.22.329-.22h.767c.329 0 .767-.11 1.096-.11.22 0 .439 0 .548.11v.11c-.11.11-.329.22-.438.22.11.22.219.33.328.55h-.219c-.219-.22-.328 0-.548 0 0 0 0 .11-.11.22-.109-.11-.109-.22-.219-.33-.219 0 0 .22-.11.22-.109-.11-.218-.11-.328-.22h-.22v.661c-.328-.55-.767-.44-1.205-.11.11-.22.22-.55 0-.66zm.877-.11c-.329-.221-.438-.221-.658 0 .11.11.22.22.22.33 0 0 .11 0 .219-.11.219-.22.438-.22.767-.22.22 0 .22 0 .11-.221-.22.11-.439 0-.658.22zm0 .44c.22.22.22.22.329 0-.11-.11-.22-.11-.329 0zm1.425-.551l.22-.22c-.11.11-.22.11-.22.22zm-22.469 3.965v.22h-.438c0 .11-.11.22-.22.33l.11.11.658-.33s-.11-.22.11-.22c.11.11.11.33.329.33 0 0 0-.11.11-.11.109 0 .109.11.218.11.11-.11.11-.11.11-.22.11.11.11.11-.11.55 0 .111.11.111.11.221v.11c-.22 0-.329.11-.548.11-.11 0-.22 0-.329.11-.11.11-.11.11-.329.11l.22-.22s0-.11.11-.11c-.11 0-.11-.11-.22 0l-.11.11c0 .22-.219.22-.329.22-.219 0-.11-.33-.328-.33 0 .22-.22.33-.33.44l-.657-.33c-.219.11-.329.44-.657.22.219-.11.438-.22.438-.55.22.11.438 0 .658-.11.11-.11.329-.11.548-.22.328-.44.548-.44.876-.55z" fill="#F5663E"/><path d="M28.64 13.874c.219.11.328-.11.657-.22-.11.11-.11.22-.219.33.11.22.329.11.438 0 .33-.22.549-.33.987-.22 0 .22-.11.33-.329.44l.22-.22h-.33c-.219 0-.328.11-.548.11h-.11c-.109.11-.109.11-.218.11 0 0-.11-.11-.11-.22-.22 0-.329-.11-.548.11-.11.11-.22 0-.329.11 0-.22.11-.22.22-.22 0 0 .109 0 .219-.11zm7.561-1.651c.11.11.22.33.33.44.218 0 .328-.11.438.22.11-.11.219-.22.328-.22.22.11.22.11.11.44-.11 0-.22-.22-.329-.11v.22c-.11-.11-.219-.33-.329-.33h-.438c-.11-.11-.22-.22-.22-.33 0 0 .11-.22.11-.33zm70.037 1.101c.329 0 .658 0 .987.11.109 0 .219 0 .438.11.329.11.658.11.987.22h.328c0 .11-.109.22-.219.11-.329-.11-.548-.22-.877-.22-.219 0-.328-.11-.548-.11h-.328c-.22 0-.439 0-.768-.11v-.11zm-52.06-2.312v.22c-.22.22-.329.11-.548.11-.11.11-.22.11-.329.22 0-.11 0-.22-.11-.22h.658c.11 0 .22-.11.22-.22.109 0 .218-.11.328-.11v-.33h.329v.22c.11 0 .22.11.329.11-.11.11-.22.11-.439.11-.11-.22-.219-.22-.438-.11zm-3.948.11c-.329 0-.548 0-.767.22-.11 0-.11-.22-.22-.11-.218.11-.328 0-.547 0 0 0-.11 0-.22-.11.22-.11.439-.11.658-.11.329 0 .548-.11.877-.11.22 0 .22 0 .22.22zm53.488 1.872c-.329.22-1.206 0-1.534-.33.328.11.548.11.767.22.329 0 .548-.11.767.11zM122.57 17.4c.22-.11.439-.11.548.11.22-.11.22-.22.11-.44.219 0 .219 0 .219.44.11.11.329.11.439.22-.22.11-.548 0-.768-.11-.109 0-.328-.11-.548-.22zm-29.265-6.167c-.329.33-.657 0-.986 0-.11 0-.22-.11-.22-.22.22 0 .439-.22.658 0 .11.22.439-.11.548.22zM33.79 13.876c-.11.11-.22.11-.329.11-.329-.22-.548 0-.767.11 0 0-.11-.11-.22-.11 0 0 0-.11.11-.11.22 0 .329-.33.548-.22.11.22.439 0 .658.22zm12.166-2.424c.11.11 0 .22-.11.44 0-.22-.11-.22-.328-.22h-.549c-.11 0-.219 0-.328-.11.219-.11.438-.22.657-.11.22.11.439.11.658 0zm-4.713.77c.11 0 .22 0 .22-.11v.11c-.22.111-.33.331-.549.441v-.33h.11c0-.11-.11-.33-.11-.44.11 0 .22.11.329.11 0 .11-.11.11 0 .22-.11 0-.11 0 0 0zm32.115-4.184v-.22c0-.11-.11-.11-.11-.22h.438c.22.22 0 .44 0 .66-.11 0-.11.11-.11.11-.218 0-.218-.11-.218-.33zM55.38 9.251c-.11-.11-.219-.33-.328-.44 0-.111.11-.111.11-.221.109 0 .328.11.438 0 .219 0 .329.11.329.22-.22.11-.439.11-.548.44zm0-.33s0 .11 0 0c.11 0 .22 0 .22-.11-.11 0-.22.11-.22.11zm1.974-.112c0-.11.11-.22.11-.33.329 0 .438.22.658.44l-.11.11c-.22-.11-.438-.11-.657-.22zm6.686 1.762c.11 0 .22-.11.22-.11.218.22.438.11.657 0l.22.22c-.44-.11-.768 0-1.097-.11zm70.916 11.564h.219c0 .22.219.22.329.22.11 0 .11.11.219.11 0 .11-.109.11-.219.11-.11-.11-.219-.11-.438-.22 0 .22-.11 0-.11-.22 0 .11 0 .11 0 0zm3.178 1.87c-.219 0-.329 0-.439-.11-.109-.11-.219-.22-.438-.11-.11 0-.11 0-.11-.11s.11-.11.22-.11h.328c.11 0 .11.11.11.11.11.22.219.33.329.33zM60.752 10.682c-.329.22-.767.22-1.096.11.877 0 .877 0 .987-.22.11 0 .11 0 .11.11zm32.773.991c.11-.11.22-.11.22-.22.11.11.219.11.219.11.11 0 .219 0 .329.11-.11.11-.22.11-.439.22-.11 0-.219-.11-.329-.22zm-15.344-1.321c.439 0 .439 0 .439.11h-.329c0 .11.11.33-.11.44 0-.22-.11-.44 0-.55zm18.852 1.76h-.658c.11-.11.22-.22.438-.22.11 0 .22 0 .22.11v.11zm-57.544.222c-.11.11-.219.22-.438.33 0-.11-.11-.22-.11-.44.11.11.22.11.22.11s.11-.11.11-.22c0 .11.109.22.218.22zM89.8 10.79v.11c.22 0 .439 0 .767.11-.219.11-.657.11-.986 0 0-.11 0-.22.22-.22zM48.696 4.846v-.11h-.22l-.109-.11s0-.11.11-.11c.219 0 .438 0 .657.22-.219 0-.328 0-.438.11zm86.041 17.289c-.109 0-.219.11-.438.11v-.22c.109-.11.219-.11.329-.22 0 0 .109.11.109.33zm-101.276-9.47c.11 0 .22.11.22.11-.11.11-.22.22-.439.22.11 0 .11-.11.22-.33zm66.97-.22c-.11 0-.329.11-.439.22l-.11-.11v-.11c0-.22.33-.22.549 0zM81.906 9.358l.22.22c.11 0 .11 0 .219-.11-.11.22-.22.33-.22.441l-.109-.11c0-.11-.22-.22-.11-.44-.11.11-.11 0 0 0zm-9.315-1.54c-.11.11-.11.22-.219.44h-.438c.219-.22.438-.33.657-.44zm-25.21 2.972h.657c0 .33-.219.33-.657 0zm64.886 3.635c-.329.22-.439.22-.548 0 .219-.11.329.11.548 0zm21.813 7.268c-.219 0-.439.11-.768-.11 0-.11.11-.11.11-.22.11 0 .11 0 .219.11.11.22.22.22.439.22zM58.232 8.81c0-.11 0-.22.11-.22h.329v.22c-.11-.11-.22-.22-.439 0zm7.453.11c-.11.11-.22.11-.438.22-.11 0-.11 0-.22-.11l.11-.11c.11.11.329-.22.548 0zm33.21 3.522c.219-.22.438-.11.657-.11-.11.22-.329.11-.658.11zm-28.824-1.76l-.22-.221h.658c-.11.11-.329 0-.438.22zm-10.962-.441c-.329 0-.548.11-.877.11.33-.11.658-.22.877-.11z" fill="#F5663E"/><path d="M73.357 8.039c-.22 0-.22.11-.22.22-.11-.11-.219-.11-.328-.22h.219l.219-.22c.11.11.11.22.11.22zm-37.812 4.624c0-.22.22-.22.329-.11.11 0 .11.11.11.33-.22-.11-.33-.11-.44-.22zm5.15-.55c-.22-.11-.33.11-.548 0 .328-.22.328-.22.547 0zm11.729-.66c.219 0 .219-.11.219-.22h.329c-.22 0-.329.44-.548.22zm-20.826 2.862c.11 0 .329-.11.438-.11-.11.11-.11.33-.329.33-.11 0-.11 0-.11-.22zm15.894-2.312v-.22h.439c0 .22 0 .22-.439.22zM30.94 14.647c.11-.22.438-.11.547-.33-.11.22-.11.33-.547.33zm41.869-6.609v-.33c.11 0 .11-.11.219-.11v.11c.11.11 0 .22-.22.33zm-25.756 3.304c.11 0 .11-.11.219-.11.11 0 .11.11.22.11v.11c-.22-.11-.33 0-.44-.11zm-8.44.992c0 .11.11.11.11.22-.11 0-.219.11-.328.11 0-.22.219-.22.219-.33zm-4.932.219h-.439c.11-.11.22-.11.329-.33.11.11.11.22.11.33zm53.816-1.321c-.22 0-.22 0-.329-.22.329 0 .329 0 .329.22zm-58.53 3.084c0 .22-.219.11-.328.22 0-.11-.11-.22 0-.22h.328zm26.634-3.083c-.11.11-.33.11-.548 0 .219-.11.438-.11.548 0 0-.11 0-.11 0 0zm20.934-.772h.329l.11.11v.11c-.11 0-.11 0-.11-.11-.11 0-.22 0-.329-.11zM70.29 69.266c.11 0 .329 0 .439.11-.22.11-.22.11-.439-.11zM57.356 11.12c-.22-.11-.22-.11-.329-.22.11 0 .22-.11.439-.11-.11.11-.11.22-.11.33zm78.476 11.894c.11-.11.11-.11.11-.22.109.11.328 0 .328.22h-.438zM89.47 10.021c.11.11.11.22 0 .33h-.11c-.11-.22 0-.33.11-.33zm18.742 3.413c-.11 0-.22.11-.329.11v-.22c.109 0 .219 0 .329.11zm-75.407-.88l.11-.11c.109 0 .218 0 .218.22 0-.11-.11-.11-.328-.11zm29.592-1.872h.547v.11c-.11 0-.219.11-.438.11 0-.11 0-.22-.11-.22zm38.801 1.761c-.11-.11-.219.33-.329.11 0-.22.219-.11.329-.11zm-21.373-1.761h-.438c.219-.22.329 0 .438 0zm-33.102.66v.11c-.11.11-.219.11-.328.11 0-.11.11-.22.328-.22zM59 10.682c.11-.11.22-.11.22-.221v.33s-.11-.11-.22-.11zm22.578-1.323c0 .11.11.11.11.22-.11 0-.11.11-.22.11 0-.11 0-.22.11-.33-.11 0 0 0 0 0zm-16.99.112v.22h-.328c.11-.11.219-.11.329-.22zm32.883 2.753h-.328c.11-.11.11-.22.219-.22 0 0 .11 0 .11.22 0-.11 0-.11 0 0zm-20.606-1.983v-.33h.22c.109.11 0 .11-.11.11 0 .11 0 .11-.11.22.11 0 0 0 0 0zm16.112 1.212c.219.11.328.11.438.11-.22.11-.22.11-.438-.11zm-17.209-1.212c-.11 0-.328.11-.438-.11.11 0 .22 0 .439.11 0-.11 0 0 0 0zM58.562 8.149c-.11.11-.11.11-.219.11 0-.11-.11-.11-.11-.22.11.11.22.11.33.11zm12.824 2.203h.329v.11c-.11 0-.22.11-.33-.11 0 .11 0 0 0 0zm3.288 0c-.11 0-.22.11-.33.11v-.11c.11 0 .11-.11.33 0zm31.785 2.862h-.329c.11-.22.11-.22.329 0zm-8.11-1.43h-.329c.11-.11.22-.11.33 0zm-50.2-.112c.11.11.11.22.11.33-.22 0-.22 0-.11-.33zm4.055-2.09c-.219-.221 0-.331.11-.441-.11.11-.11.22-.11.44zm-15.343 1.65h-.329c0-.11.11-.11.22-.11.11-.11.11 0 .11.11zm-2.74 2.423c.218-.11.218-.11.438 0h-.439zm2.191-2.422c-.11 0-.219.11-.329.11.11-.22.22-.22.33-.11zm94.48 51.314l.329.33c-.219 0-.329-.11-.329-.33-.11 0 0 0 0 0zm-88.56-55.72c.11-.22.219-.22.328-.11-.11 0-.219.11-.328.11zm34.305 3.525c-.11 0-.22-.11-.329-.11.329-.11.329-.11.329.11zM47.38 12.003c-.22 0-.22-.11-.11-.22.11 0 .11.11.11.22zm-10.193-1.212c0 .22 0 .22-.22.33 0-.11.11-.22.22-.33zm60.065.111c0 .11 0 .22-.11.44 0-.22 0-.22.11-.44zm-62.586.66c-.11.11-.22.11-.33.22 0-.22.11-.22.33-.22zm17.756-.22s0 .11-.11.11h-.11c0-.11 0-.11-.11-.22.22.11.33 0 .33.11zm-21.043 1.21c-.11.11-.11.11-.33.11.22-.11.33-.11.33-.11zm70.145-.108v-.33c.11 0 .11.11.22.11-.11.11-.22.11-.22.22zM65.027 9.689c.11 0 .22.11.22.11v.11c-.11 0-.11-.11-.22-.22zm32.662 2.204l.22.22c-.11.11-.11.11-.22-.22zm25.979 5.396c.11-.11.11-.22.219-.22 0 .11 0 .22-.219.22zm-1.865 0c0-.11-.11-.11-.11-.11s0-.11.11-.11l.11.11s-.11 0-.11.11zm-41.322-6.607c-.11 0-.219 0-.329.11.11-.33.22-.22.33-.11 0-.11 0 0 0 0zm-2.848-.551c.11 0 .219 0 .329.11-.22.11-.22.11-.33-.11zm-66.64 15.747l.218-.22c0 .11-.11.22-.219.22zM86.29 10.681c-.22 0-.22 0-.11-.22 0 .11.11.11.11.22zM73.906 7.708c0-.11.11-.22.22-.11-.11.11-.22.11-.22.11zM56.37 8.26c-.11.11-.22.11-.22.22 0-.22 0-.22.22-.22zM41.9 12.223c-.11 0-.22.11-.329.11v-.11c.11 0 .22-.11.33 0 0-.11 0-.11 0 0zm10.411-1.32c.11 0 .22.11.22.11-.11.11-.11.11-.22-.11zm34.966-.222c-.11 0-.11 0-.22-.11v-.11l.22.22zm46.8 11.012c0 .11.11.11.11.22-.11 0-.219-.11-.219-.11l.109-.11zm-35.73-9.47c-.11.11-.11.11-.22 0v-.11c.11.11.11.11.22.11zM75.002 8.81c0-.22 0-.22.22-.11 0 .11-.11.11-.22.11zm64.01 15.418c-.109.22-.109.22-.328.11.109 0 .109 0 .328-.11zm-16.113-7.489c.11.11 0 .22-.219.33.109-.11.109-.22.219-.33zm-61.926-6.386c0 .11.11.11.11.11h-.22c.11 0 .11 0 .11-.11zm-31.457 5.395c-.11 0-.11.11-.22.11 0-.11 0-.22.22-.11zm32.662-5.065c-.11.11-.219.11-.328 0h.328z" fill="#F5663E"/><path d="M97.252 10.903v-.33c.11.22.329.33 0 .33zm-64.777 3.742c.11 0 .11-.11.219-.11 0 .22-.11.22-.22.11zm12.166-3.413h.219c-.11.11-.11.11-.22 0zM55.6 8.48c0-.11 0-.22.11-.33 0 .22 0 .22-.11.33zm-25.867 3.193c.11 0 .22-.11.33.11-.11 0-.22-.11-.33-.11zm18.633.111c.11 0 .22.11.329.11v.11c-.22-.11-.329-.11-.329-.22zm-17.865 1.1h-.219c.11 0 .11 0 .22-.11v.11zm69.928-.44c.109 0 .109.11.219.11-.219 0-.219 0-.219-.11zM74.784 7.71c-.111-.111 0-.111 0-.111s.11 0 0 .11c.11 0 .11 0 0 0zm65.982 18.06l-.11-.11c.11-.11.11 0 .11.11.109-.11 0-.11 0 0zm-89-17.069s.11-.11.219-.11c0 .11-.11.11-.22.11zm-38.58 14.646l.11.11v.11c-.11 0-.11-.11-.11-.22 0 .11 0 0 0 0zm87.793 46.03c-.11-.11-.11-.11 0 0-.11-.11 0-.22 0-.22v.22c0-.11 0-.11 0 0zM73.249 9.911h-.22s.11 0 .11-.11c.11 0 .11 0 .11.11 0-.11 0 0 0 0zm6.466.55c0-.11 0-.22.11-.33.11.22.11.22-.11.33zm-8.549-.11h.111c-.111.111-.111.111-.111 0 0 .111 0 .111 0 0zm4.823 0c-.11.22-.22.11-.329.11.22 0 .22 0 .329-.11zm9.645.11v.22h-.11s0-.11.11-.22c-.11 0 0 0 0 0zm31.786 5.396c.11 0 .11 0 .219.11v.11l-.219-.22c0 .11 0 .11 0 0zm-36.828-5.285c.11 0 .11 0 0 0v0zm-29.045.33v-.111h.111c-.111 0 0 0-.111.11.111 0 .111 0 0 0zm-.22 0h-.22l.11-.111c0 .11.11.11.11.11zm.768.11l-.11-.11v-.111c0 .11.11.22.11.22zm-19.84 3.745l.11-.11h.11c-.11.11-.11.22-.22.11 0 .11 0 .11 0 0zm25.647-3.745h.22v.11c0-.11-.11 0-.22-.11zm35.842.22v-.22l.11.11s0 .11-.11.11c.11 0 .11 0 0 0zM48.477 4.734c0 .22-.11.22-.22.11.11 0 .11 0 .22-.11zm51.844 7.159l-.219.22c0-.11 0-.11-.11-.22h.329zm-54.364.22h.111c0 .111 0 .111-.111 0 0 .111 0 .111 0 0zm54.801 0h.111c0 .111-.111.111-.111 0zm-67.735-.11h.22v.111c-.11 0-.11 0-.22-.11 0 .11 0 .11 0 0 0 .11 0 0 0 0zm65.764-.331c-.111 0-.111.113 0 0h-.111.11c-.11 0-.11 0 0 0zm-6.686-.22c0 .11-.11.11 0 0-.11.11-.11.11-.11 0v-.11c0 .11 0 .11.11.11zm-42.747 0c-.11 0-.11.11-.11 0l-.11-.11h.11l.11.11zm-1.315-.33c0 .11 0 .11 0 0h-.219v-.11c.11.11.22.11.22.11zm10.85-.22h.11v.111c0-.11-.11-.11-.11-.11zM122.46 17.4v-.33l.11.11c-.11.11-.11.11-.11.22zM80.92 10.352h.111v.11c0-.11-.111-.11-.111-.11zm-1.971 59.355c-.111 0-.111 0 0 0-.111-.111 0-.111 0-.111v.11zM42.23 6.277s.11 0 .219.11c-.22 0-.22 0-.22-.11zm31.564 3.743l-.11-.11c.11 0 .11 0 .11.11.11-.11.11 0 0 0zm50.64 7.82c0 .11.11.22-.111.22.111-.11.111-.11.111-.22zm1.425.55c-.11 0-.11.11-.11.11h-.109s0-.11.109-.11h.11zM16.691 20.703c0-.11-.11-.11 0 0 0-.11 0-.11.11-.11-.11 0 0 0-.11.11.11-.11 0 0 0 0zm58.75-11.78c.11-.114.11 0 .22 0h-.22zm-2.302-.223c.11 0 .11 0 .219.11-.11 0-.22 0-.22-.11zm.437-.33l.11.11h-.22s0-.11.11-.11zm-.767-.77h-.22c.11-.11.11-.11.22 0zm31.788 5.615c-.111 0-.111 0 0 0-.111-.11 0-.11 0-.11v.11zM93.417 9.8c0-.11 0-.11-.11-.22.219 0 .219.11.11.22.109 0 .109 0 0 0zm-43.405 0l.11.11s0 .111-.11.111v-.22z" fill="#F5663E"/></svg>