<svg fill="none" height="75" width="194" xmlns="http://www.w3.org/2000/svg"><g fill="#82d7b9"><path d="m154 70.6c0-.2-.3-.1-.5-.2-.1.2-.3.2-.4 0h-.3v-.4c-.2 0-.4 0-.5.3l.4-.2c0 .4 0 .4-.4.5-.1-.1-.1-.3-.4-.3l-.7.5c-.1-.3-.1-.3-.5 0l-.3-.4-.3-.1-.1.3v.1h.4c.3-.1.3.1.3.2-.3.1-.5.3-.7.1-.2 0-.3 0-.4.2h-.3l-.1-.2-.3.3c-.2-.1 0-.5-.4-.5l.1.5-.3.4v-.2l-.6-.1h-.2l-.1-.1h-1.4l-.1.2c-.3-.1 0-.5-.3-.6-.3.1-.3.4-.4.6l-.1-.1c-.3 0-.3 0-.3.3-.1-.1-.1-.2 0-.4-.4.2-.7 0-1.1 0l-.4-.1c-.1 0-.1.2-.3.2 0 0 .2.2.3 0h.1c.2 0 .2.2.2.2l-.2.1-.5-.2c-.2-.1-.3-.2-.4-.1h-.6l.4.3-.4.1h-.4l.2.4c.1-.3.4-.3.2-.4h.4s0-.2.2-.2c.1.2 0 .3-.2.4l-.5.4-.3-.1-.1.2-.3-.2c0-.1.3-.3 0-.5l-.3.1.3.1c-.3.3-.3.3-.3.6l-.6.1c.1-.2.5 0 .5-.3h-.7l-.3.3-.5.1.2-.3h-.2c-.2 0-.3.1-.4 0h-.4c-.3 0-.5 0-.6.3l-.1.1-.4-.3-.4-.2h-1.5c-.2 0-.3 0-.3.2h-.4l-.2-.1v.1c0 .1.3.1.2.2h-.7l-.1.1.4.2c-.3 0-.7 0-1.1.2v-.3s-.2 0-.3-.2v.4c-.1-.1-.1-.2-.3-.2-.1.2-.4 0-.5 0l.1.3-.4-.2h-.5c0-.1.2-.3 0-.4 0 .3-.4.1-.4.3-.2.2-.3 0-.6 0-.1.2-.4.2-.5.2l.2-.4h.4c0-.2 0-.3-.2-.4l-.3.1h-.4l-1 .3c-.1 0-.2 0-.2.2-.2 0-.4 0-.6.2-.1-.1-.3 0-.4 0h-1.5l-.3.2h-.4c-.1.3-.4.3-.7.4v-.2h-.4l-.6.1h-1l-.3.1-.2.3-.2-.1h-.1c-.2.2-.4.2-.7 0h-.3c-.2 0-.5 0-.6-.2 0 0-.2 0-.2.2h-.1v-.4l-.6.1h-1.3l-.4-.4.1.2c-.3 0-.4 0-.4.2h.4l-.3.4-.2-.1c-.2.2-.5.2-.7 0-.2 0-.2 0-.3.2l-.3-.2h-1c.2 0 .2-.2.3-.3 0 0 .2 0 .2-.2-.2 0-.4.1-.2.2h-.2l-.2.3-.1-.2-.1-.4v-.2h-.6c.3.2.4.4.4.8l-.2-.2v.3h-.5l.2-.3h-.4a1 1 0 0 0 -1.1.3l.1-.4h-.7l-.2.5c-.3 0-.4-.2-.7-.1-.2-.3.1-.3.3-.3-.2-.4-.5 0-.6-.2v-.2l-.1.1c0 .1 0 .2-.3.2v-.2l-.4.2v-.3l-.3-.1-.1.1h-.8v.1c-.2 0-.4-.1-.6.1h1.2l-.2.4c-.3 0-.2-.3-.3-.3l-.5.1c-.2 0-.2-.2-.5-.2-.2 0-.5 0-.6.2-.3-.2 0-.2.1-.3h-.3c-.1.2-.4.3-.5.6-.2-.1-.3-.3-.6-.1l-.4-.2h-.2l-1.1.4h1c.2 0 .3 0 .5.2-.7-.1-1.3.1-1.8-.1l-.4.2v-.3l.3-.1h-.6v.3l-.1-.1c-.2-.2-.2-.3-.4-.2h-1l.6.2v.1h-.5l-.6-.1.4-.2-.2-.4c-.1.1-.2.3-.4.3-.1-.2-.4-.2-.6-.2h-.6c-.3 0-.3 0-.3.3v.2l.2-.1h.5s.4 0 .3.2h-.6c-.4.1-.6 0-1-.1-.3.1-.5.2-.7.1l.5-.2.2-.1.2-.1c0-.2-.1-.2-.2-.2l-.7.2s-.2 0-.2-.2h-.4c-.1.2-.2.2-.4 0-.1 0-.4 0-.5-.2l-.2.1-.4.1h.2-1.1l-1-.2c.2.1.2.2.3.4h.8c0 .2 0 .3-.1.2-.2 0-.3-.2-.6 0l-.1-.1-.3-.1h-2.1c-.2 0-.2-.2-.3-.3l-.2.1h-1.3v-.2l.5-.3c-.4-.1-1-.2-1.4-.1v-.4c0 .2-.2.3-.5.3h-1l-1 .2c0 .1 0 .1.4 0l.5.1-.3.1-1.5-.1h-.5l-.1-.1h-.2l-1 .1h-.9c0-.1-.4-.3-.8-.1h-1.1c-.1-.1 0-.1.2-.2.2 0 .5.2 1 0l-.2-.5c-.3.1-.6 0-.8 0-.3.1-.4.2-.4.5-.3.6-.4.5-.4.5l-.3.1.5-.4c-.1-.1-.2-.1-.4 0l-.5.1-.7-.1c-.1-.1-.3 0-.4 0s-.3 0-.3-.2l-.1.2 1.2.3-.5.1h-1.3c.2 0 .3-.2.4-.3v-.2c-.2 0-.4 0-.5.2l.3.2h-2.1c-.5 0-1-.2-1.5 0h-.2c-.2-.2-.3 0-.5 0-.2-.3-.6-.3-1-.4v-.1h-2.6c.1-.1.4 0 .3-.3.1.2.2.2.4.3l.4-.1c-.3-.3-.6-.4-.8-.3h-1.6s0 .1-.2 0c-.2 0 0-.2.1-.3h-.5c-.2 0-.2.1-.2.2l-.5.1c.2.3.7.3 1.2.1.1.2.1.2-.1.3h-.9l-1.6-.3c-.3 0-.4.2-.7 0h-.4l-2-.3-.9-.2h-1l-.8-.1-.4-.4h-.1l.3.4-.6-.1c-.1 0-.4 0-.5-.2h-.3c-.3.2-.5 0-1 0h-1l-1.1-.2-2-.2-.9-.1-.5-.3h-.3c-.1 0-.3-.3-.5 0-.2-.2 0-.4-.3-.4l.1.2c-.4 0-.5 0-.7-.2-.1 0-.1.1-.2 0h-1.3l-.1.1.1.1c-.1.2-.2.2-.5.3-.1-.3-.3-.1-.6-.1 0-.3.2-.3.3-.3h.6c-.3-.3-.6-.4-.9-.3v-.2c-.2.2-.4.2-.5 0h-.5c-.3-.1-.6-.3-1-.3h-.8l-.6-.2h.3v-.2c-.7-.4-1-.4-1-.4 0-.2-.2-.2-.4-.2h-.3c-.3.2-.6 0-.8 0h-1c-.1 0-.3 0-.4-.2-.3-.2-.6-.2-1 0l-.2-.4h-.2c-.4-.1-.7-.1-1 .2h-.3c.2-.1.5-.1.8-.5h-.2s0 .2-.2.2-.2-.2-.3-.2h-.1c-.3.2-.6 0-.8 0a.5.5 0 0 1 -.3 0c-.2 0-.2.2-.3.3l-.3-.1.2-.2h.1v-.1h-1c-.2-.2 0-.3 0-.5l-.2-.1c-.4 0-.7-.2-1-.3-.2 0-.5-.2-.8 0l-.3-.2-.1-.1v.3h-.3c-.1-.2-.2-.2-.4 0-.3 0-.3 0-.3-.3h.3l-1-.4c-.3.2-.6-.2-1-.3l-.6.1c-.1 0-.2.3-.4.2-.3 0-.4 0-.5-.2l-.6-.2.7-.1-.4-.2h-.7l-.1-.2c-.2 0-.2.2-.3.3l-.4-.1-.1-.5-.9-.2c-.2-.1-.2.1-.4.3-.1-.2-.5 0-.6-.4l-.6-.1h-.3c-.1-.2-.2-.3-.5-.3l-.3-.3h-.5c-.2 0-.4 0-.4-.3l-.3-.1c-.4 0-.8-.1-1.2-.4h-.3l-.9-.4h-.2l-.6-.3c-.2-.1-.3-.3-.5-.3s-.4 0-.6-.2h-.4c0-.3-.4-.4-.7-.4-.2-.1-.3 0-.4 0h.4s-.2 0-.2.2l.3.1c-.4 0-.8-.1-1-.4l.2-.2.4.2.3-.4c-.4-.2-.8 0-1.1-.2h-.3.3l-.6.3v-.4.2l-.6-.2c-.2-.1-.3-.2-.4-.5v-.2c0-.2-.3-.3-.6-.4l-.4-.3h-.3v-.3l-.1-.1c-.3 0-.6-.2-.9-.1.2-.1.2-.2.2-.3l-.4-.2c-.3 0-.4 0-.6-.2-.3-.3-.5-.4-.7-.3l-.4-.5h.3c0-.2-.1-.4-.3-.4s-.4 0-.5-.2l-.2-.1-.6-.3-.4-.6-.5-.1c0-.2-.4-.2-.4-.4l-.4-.3-.4-.4-.7-.6-.8-.7-.1-.2c0-.2-.2-.4-.4-.5-.2 0-.3 0-.3-.2l-.4-.4c-.1-.3-.1-.5-.4-.6v-.3s-.2-.1-.2-.3c0 0 0-.2-.2-.3-.3-.1-.3-.3-.4-.4-.2-.3-.3-.5-.6-.6.2-.2.2-.4-.1-.6l-.2-.2-.5-1.3c-.3-.5-.4-1-.5-1.5-.2-.3-.2-.5-.2-.9-.1-.3-.3-.5-.1-.9-.3-.2-.2-.5-.2-.8v-.5h-.3l.1-.1c0-.2-.3-.4 0-.6-.3-.2 0-.4-.3-.5.2-.4-.1-.7 0-1v-.3c0-.2 0-.4.2-.5.1-.1.1-.2 0-.4-.2 0 .1-.3 0-.4.2-.2.1-.7.2-.9v-.7c.3-.2.3-.5.3-.7s0-.2.2-.3v-.3c-.2-.1 0-.2 0-.3s0-.4.2-.5l.3-.6c.1-.3.4-.6.4-1 .3 0 .3-.4.3-.5.1-.3.1-.7.4-1 .1-.2.1-.5.4-.7.1 0 0-.2 0-.4.3 0 .4-.1.4-.4l.4-.5c.2-.1.3-.2.4-.5l.2-.2.4-.2c0-.1-.2-.2 0-.2.1-.3 0-.5.4-.6l.1-.1c.2-.2.3-.6.7-.6.1-.2.4-.4.7-.5.1-.2.4-.4.8-.4l-.5-.3c.2-.1 0-.3.4-.4 0-.3.4-.3.4-.5s.4-.2.4-.4l-.3-.1c.1-.3.4-.2.4-.2l.8-.7c.4 0 .4-.4.4-.6l.5-.1v-.1l.8-1h.2c0-.1.5-.1.2-.4.1 0 .3-.2.4 0h.1c.2-.2.3-.4.6-.5l.4-.4c.1 0 .4-.2.4-.4h-.3l1.2-.7h.5c-.2-.2 0-.3.2-.4.2 0 .3-.1.3-.2.1-.2.3-.3.4-.3h.1l.5-.7c.4 0 .5-.3.8-.3h.1c.1-.3.4-.5.8-.4.2-.4.6-.7 1-.6.2-.2.4-.2.7 0h.2l.8-.6c0-.2-.4 0-.4-.3 0 0 .2 0 .3-.2l.1.2c.2.1.3.3.5.1.2 0 .2-.2.2-.4l.3-.5c.3-.2.4-.4.8-.5l.6-.3c.2-.2.4-.2.5 0 .1 0 .3 0 .3-.2l-.2-.3c.5-.2.9-.4 1.1-.8h.7c0-.2.3-.3.6-.4.2-.1.5-.1.6.2.3-.1.6-.2.7-.4h.3c.3 0 .4-.3.5-.4l-.6.2.2-.4c.2-.2.3-.1.6-.1-.2-.2 0-.3.1-.5.3 0 .4.2.6.3.1-.1.4-.1.4-.4l-.3.1h-.4c.3-.2.4-.4.7-.3 0-.2.2-.3.4-.3h.7c.2.2.2.2.4 0l.2-.3.2-.4c.4-.1.7-.1 1-.3.2 0 .6-.3 1 0l.3-.1c.8 0 1-.2 1.2-.2h.3c.1-.2.3-.3.4-.3.4 0 .6-.2.8-.3v-.1c.4 0 .6-.3.8-.3v-.3c.3-.1.6-.2 1 0 0-.1.4-.1.3-.4.1-.2.2-.2.4 0 .1 0 .4 0 .5-.2.2 0 .3-.2.6 0l.2-.3c0-.2 0-.4.3-.6l-.1.5h.5c.4-.2 1-.3 1.4-.6.1 0 .3 0 .3-.2l.2-.1c.3.2.6 0 .8-.1l.9-.3h.1l1-.2h-1c0-.2.1-.3.3-.3h.8l.1-.2c.2.1.3-.1.4.1.2.1.3 0 .3-.2h.3c.3 0-.2-.1.1-.3l.2.4.5-.2h-.4c.1-.2.4-.2.5-.2h.9c.2 0 .4 0 .5-.2l.8-.2c.3 0 .6-.2.7-.3h.3a3 3 0 0 0 1-.3c.3 0 .6-.2.9 0l.1-.2c.3-.2.6-.2.8-.2.3 0 .4 0 .6-.2l.4-.1.7-.1.8-.2h.4l.5-.2h.6l.8-.2c.3 0 .6-.1.7-.3h.3c.1.2.2.2.2 0 .3-.2.6 0 .7 0h.3c.1-.3.4-.4.7-.3.1.1.4 0 .4 0 .1-.2.2-.3.4-.3a3 3 0 0 0 1-.2l.9-.1c.3-.3.5-.4 1-.3v-.2h.2c.2-.2.3-.2.4 0h.3c.1-.2.4-.2.5-.3.6.3.9.3 1.1.2l1.3-.2.6-.1.6-.1c.1 0 .4 0 .5-.2.3-.2.6 0 .7 0h1.4l1-.2.8.1h1.4c.3-.2.6 0 .8-.2h1.1l.3-.1c.1.2.4.1.5 0h.3l.6.1h2.5l1 .1h.4l.7.1 1 .1c.4 0 .8 0 1.2.2h.2c.3 0 .7 0 1 .2.3-.1.5 0 .8 0h.6c0 .4.4.4.6.5.2 0 .3 0 .3.3l.6.3c.2.2.5.3 1 .3l.5.3.6.3c.3 0 .3.1.3.3h.6l.1.3 1.4.8.5.5.6.4c0 .4.5.5.5.8l.1.2c.3.2.2.4.2.5l-.3.3c.1.1.1.2.3.2l.1.5.6.2-.2.1c.2.3.3 0 .4 0 .2.1.3.3.4.6l-.4-.1-.1.3-.4-.1h-.4c-.2.1-.4.2-.6.1 0 .2.2.2.3.2l.8.1h1.2l-.1-.2h.7c0-.2.4.1.5 0-.1 0-.1-.3-.5-.3l-.3-.1.3-.2c-.2-.2-.3-.2-.6 0h-.3v-.3l.4-.2c.5-.2 1 0 1.4-.1h.1l1.5.1h.7l1.4.1c-.2.2.1.4.3.6h.6c.2 0 .3 0 .3.2l-.5.1c.2.2.2.2.8 0 .1.2.4.2.7.2l.1-.2h.4v-.1l-.1-.1h-.6.3v-.3c.3 0 .5 0 .7.2h.4l.5-.1.2-.1h.9l.6.2v-.4c.2.2.4.2.7.3.4-.1.5 0 .6.2v.1l.3-.1c0-.1 0-.3.4-.3l-.1.3c.3 0 .3 0 .3-.2l1-.1h.7c0 .2 0 .2-.2.3h.3c.3.1.3.1.1 0h1.1l.6.1.4.1c.1-.2.3-.1.5-.1l.6.1c.4.1.8 0 1 .3l.6-.2c.3 0 .3.1.3.4h.7c.2 0 .6.2 1 0h-1.2c.4-.4 1.1-.4 1.5 0l-.4.2h.4l.2-.4h1.4l.9.3h.4l.5.2-.1.4c.3 0 .4.2.7 0h.1c.1.2.3.2.4 0 .2-.2.2 0 .3 0 0 0-.1.2.1.2l-.1-.3h1.2c.2.3.4.3.6.3h.4l.2-.2c.2 0 .3.3.5 0l.4.2.5-.2h.1c.2 0 .3.2.2.3h-.2c.2.3.6.2.9.2l.1-.3h1.4c.2 0 .5.3.6.5l.2.1c.1 0 .1-.2.3-.2v.1l.2-.2c.2.2.4.1.7.2l1.4.1c.2 0 .2 0 .5.4.2-.3.4-.2.7-.4v.5l.4.3.3-.2h.3c0 .2 0 .2.2.2h.8v-.2h.2c.1.3.5.2 1 .3h1l.6.2.5.5-.3.1c.3.2.6.2 1 .1h1l.5.1v.2h1.4l-.6-.2c.1 0 .1-.2.3-.2l.8.1c.1 0 .3 0 .3.2l.2.3c.2 0 .3 0 .5.2l.2-.1h.2l1.2-.1v.4h1v.2h1.3l.3.1c.1 0 .1.2.3.2.2-.2.4 0 .6 0 .3 0 .4-.2.7 0 .2.2.3.2.6.2h.1c.3 0 .5.2.8.3l.4.1c.3 0 .4 0 .4.2 0 0 .2-.2.3 0l1 .3.2.2.2-.1h.2v.2c.2.1.5-.3.6 0l-.1.2v.4c.4 0 .5-.3.8-.2 0 0 0-.2-.2-.3.3.1.3.1.3.3l1.1.4c.3-.2.5-.1.8-.1h-.3l.3.4h.6v.1c.2 0 .2.4.5.3h.8c.2 0 .2 0 .3.2h.5c.3 0 .5.3.7.2l.7.3c.3 0 .5 0 .7.3h.1c.3 0 .4.3.7.3l-.4.2-.6.4h.2c.3-.3.3-.3 1 0 0-.2 0-.2.2-.3l.1.1c0 .2 0 .2-.2.3.1 0 .2 0 .2.2l.5-.6.2.3h.2c.2 0 .5.3.8.2h.1c.3.3.8.2 1.2.3l1.3.3.2.3h.3c.3 0 0 .3.2.4h.5l.5.2v.4l.3-.2.6.3c.1 0 .4 0 .5.2l.4.1h.3c.3.4.7.4 1.2.5.3 0 .4 0 .7.2l.1.1c-.2.1-.2-.2-.4-.1.2.3.4.4.8.3l.5.1v.2l.4-.2.1.3c.1-.1.3 0 .4.2h-.3v.1l.4.1v-.2c.2 0 .3.2.5.4l.6.3h.2l1 .6c0 .1.2.1.2.4h.1c.3 0 .3.3.3.4.4 0 .8.2 1.1.5h.1c0 .4.3.6.7.6l.2.1.8.7c.1.2.4.5.7.5.2.2.2.3.4.3.2.1.4.3.4.5.2 0 .4.3.5.4l.8.8c.2 0 .2 0 .3.2 0 .1 0 .2.3.1l.1.1c.1.1.1.3.4.3 0 0 0 .2.2.3h.4l.1.3c.4.1.4.5.7.7l-.3-.2c0-.2-.1-.3-.3-.3l.3.3v.2c.3 0 .3.3.6.4v.1l1 1c0 .3 0 .5.3.7l.2-.1c.2.1 0 .4.4.4l.1.4c.1 0 .1.2-.1.3l-.2.1c0 .1.2.1.2.3h-.2l.6.4c-.2.2 0 .3.2.4v.4c.3 0 .3.2.5.3l.2.6h.2v.4l.1.5.1.3.2.7.1.4.1.2.2-.3c.1.2.1.5 0 .8h.3c0 .2 0 .2-.2.3 0 .6.3 1.1.7 1.6l-.3.1v3.1l-.1.4-.1.2v.5c0 .3-.3.5-.2.8v.7c-.3 0-.3.2-.3.4v1.2c0 .2 0 .5-.4.7.2.4-.2.5-.2.8l-.3.7c-.1.3-.3.8-.6 1.1v.1c0 .4-.2.5-.5.6-.1 0-.3 0-.3.3l.2.4c-.3 0-.3.3-.4.4l-.2-.1c0 .3 0 .8-.5.8l.1.2.3-.1-.2.2-.5.2.1.4-.4-.3-.1.4-.1.4c0 .2-.2.4-.5.4 0 0-.2 0-.4.3-.1.1-.2.3-.4.3l-.2.2c0 .2 0 .2-.2.3.2.2-.3.3-.4.5l-.7.7c-.1.1-.2.2-.5.2l-.3.1.1.3-.8.3v-.3c-.1 0-.2.2-.1.3 0 .1.1.2-.1.2v.1l-.2.1c-.3 0-.5.3-.8.5l-1 .7-.6.3c-.3 0-.3.1-.3.2h-.3l-.5.2c-.3.2-.7.3-.8.5l-1.1.5-1 .5-.4-.3h-.4c0 .3.4 0 .5.3 0 .2-.5.1-.8.3-.1.3-.5.3-.8.4-.3 0-.5.2-.8.3-.1-.1-.1-.3-.4-.3l.3.4-.5.1v-.1l-.6-.1-.2.3.4.1c-.2.3-.6.4-1 .5l-1.1.3c-.5.1-.7.4-1.1.5h-.9l-.4.2-.6.1v-.2h-.2l-.3-.1h-.6l-.6.4v.3c0 .2-.1.3-.3.3h-.2c-.2.2-.4.2-.4 0-.2 0-.2.2-.3.2h-.3a.7.7 0 0 0 -.7-.1c-.2 0-.5 0-.8.2h-.1l-.6.1-1 .2v.3c-.3-.3-.3-.2-.5 0-.2 0-.4 0-.5.2-.1-.1-.1-.2-.3-.2-.4 0-.4 0-.7-.3l-.4.1-.4-.2-.7.6-.2.2-.6.1-.1.5h-.1v-.5h-.5l-.6.2c-.3.2-.3.2-.4 0h-.5c0 .3 0 .3-.4.3h-.2l.2-.3h-.1l-.1.4h.1c.3 0 .3.2.3.3l-.6.1.6.2-.6.4h-.5l-.4-.2.2-.2-.2-.2c-.3.5-.3.7-.6.7zm24.2-46-.3-.1c.2 0 .2 0 .3.2.1 0 .3.2.4 0h-.4zm-82.7-16.7.2.1h-.2c0-.2 0-.3-.2-.3zm34.8 3.4c.2 0 .5 0 .6.2v-.2h.5l.3-.1c-.5 0-.5 0-.8-.2l-.1.3h-.5c0-.1.2-.3 0-.3l-.8.2h.8zm-34.3-1.8.2-.1c-.2-.4-.4-.4-.5-.2 0 .2 0 .2.3.3h-.3.1c0 .1 0 0 .2 0zm48.5 4.4c.1 0 .4 0 .5.2l.2-.4h.4c-.2-.2-.3-.2-.6-.2l-.2.2c-.2 0-.3-.2-.5-.3 0-.1-.2-.3-.5-.4-.1 0-.3 0-.5.2l-.4-.2h-.2v.2c.3 0 .6 0 .8.2l-.4.2h.4l.2.1c.4.4.5.4.8.2zm-57.9-5.2.3.1c.4 0 .4.1.4.4.2-.2.4 0 .5.2.2-.2-.1-.4-.3-.6.2 0 .2 0 .3-.2l-.4.1c-.3 0-.1-.2-.3-.3h-.4.4l-.5.3c-.1-.1-.3 0-.4.1.4.1.4 0 .4 0zm16.9.5h.1c0-.2 0 0-.1 0-.1-.4-.6-.3-.8-.3l-.2-.2c-.2.1-.6 0-.8.2l1.1.1c.1.2.4.2.7.2zm28.3 2.2c-.2-.1-.2-.1-.2.1l.2-.1c0 .3 0 .3.3.3v-.2l.4.1c.2.2.4.1.7.2h.3c0-.2-.3-.2-.4-.3l-.2.1-.2-.2zm-94.8.4c-.2.3-.3.3-.4.3v-.3c-.2 0-.3 0-.3.2l-.1.3v.1-.2h.1c-.5.5-.8.6-1.4.4l-.8.4h-.7c0 .3.2.4 0 .6-.1 0 0-.2-.2-.2-.2.1.1.2 0 .3h-.4v.3l-.7.2-.6.3c-.2.4-.4.4-.7.1v.4c-.2 0-.4.2-.5.3l-.1.1c-.2 0-.3.1-.3.3h-.4l-.6.2c-.4 0-.8.2-1 .4-.3.2-.7.3-1 .6-.3 0-.8.2-.8.5-.3.2-.6.2-.7.5h-.4c-.3.2-.7.3-1 .3l-.1.5c-.1 0-.4 0-.4.3-.3-.1-.4.1-.6.1s-.2.2-.2.4h-.7c0 .2-.1.3-.3.4l-.4.2c-.5.3-1 .7-1.6.9v.1c-.1.2-.4.5-.7.6-.3 0-.5.3-.8.5-.1.1-.4.3-.4.5l-.3.2-.7.3-.6.6.1.1v.1h-.3l-.8.7c-.2.1-.3.2-.2.3v.1c-.2.1-.4.4-.6.3l-.2.3c-.3.1-.7.2-.7.5-.4.3-.5.6-1 .8-.2.1-.6.4-.2.8h-.5l-.2.2.3.1v.2h-.4v.3c-.6.2-.7.2-.7.4h-.1c-.2 0-.3.2-.3.3-.1 0-.1.2-.3.2l-.4.3c-.1.1-.3.2-.1.5-.2 0-.2.2-.2.2v.3c-.4.1-.5.4-.5.6l-.1.2c-.3.2-.3.6-.7.8v.1l-.6.9-.2.4h-.3l-.1.4v.2c0 .2 0 .3-.3.3-.3.2-.3.2-.3.4-.2.2-.2.3-.4.3.2.1.3.3.2.3-.2.2 0 .3.1.4-.4.2-.4.5-.4.8-.1.4-.4.7-.3 1.2v.1l-.1.7v.6h-.3c.3.2.2.4.2.5v1.7c-.2.2 0 .4 0 .5h.2c-.2.2-.2.6 0 .8-.2.2-.2.5.2.7-.2.4 0 .8.2 1.2-.1.2-.1.5.2.6.2 0 .1.3.1.5l.1.7c.2.2.3.4.3.8h.4c-.3.3-.4.4-.1.5v.6l.4.4.2.4h.5v.2l.3.3.2.1c0 .3 0 .4.4.5v.1c0 .2.2.3.4.6l.4.2s0 .2.3.3v.1c0 .3.2.3.5.4l.1.2c-.1.1 0 .1.3.1v.2c.3.1.6.2.7.5h.1c.4.2.4.5.6.8l.5.4.7.4c.1 0 .1.2.3.2.4 0 .5.5 1 .6 0 .3.5.3.6.4l1 .5c.2.1.5.2.6.5.2.2.5.4.9.4l.1.2c.1.3.1.3.4.3h.7c.3.3.6.4 1.1.3l.1.1c.2.2.5.5.9.5s.5 0 .8.2h.3c.2 0 .4.2.4.3l.4.1h.2c.2.4.6.5 1 .6.3 0 .4 0 .5.3h.5l.5.2c.3 0 .4.2.5.4.5 0 .6 0 .9.2l.1-.1.4.2c.3 0 .4.1.4.3h.4c.2.3.6.2.8.2l.2.2c.3 0 .3.2.3.2l.8-.1.1.3h.6l.8.4c.2-.1.5-.1.8 0l.1.2.8.2c.2 0 .5 0 .5.2l.4.1.2.3c.9 0 1.5.3 2.4.4 0 .1-.2.2 0 .4.2-.2.2-.3.4-.3.4.5 1 .6 1.6.4.3 0 .5.2.8.3l.4-.1c.2.2.4.2.6.2l.4.1 1 .2 1.2.3c.4 0 .8 0 1.3.2h.3l1 .2 1.3.2h.1c.3-.2.5 0 .6.2h.5-.1.7c.3.2.7.2 1 .2s.9 0 1.3.2l.7.2c.3 0 .5 0 .8.2.1.2.3.2.4.2h1c.2 0 .6-.2 1 0h.2c.1 0 .3 0 .4.2h.1l1.5.3h.7l.3.1h.9c.3 0 .4.2.7.1.2.3.4.1.6.4.1-.1.1-.3.4-.3.2.2.5 0 .8 0h.5l.4.2h.6l.5.2.9.1h.4c.2-.1.6-.1 1 .1 0-.1.2-.2.3-.1l.6.1c.5-.1 1 .1 1.6.1h.1l1 .2h.3c.2 0 .5.2.8 0h.1c.3.2.7.2 1 .2h1.1l1 .2h1.2v.2h2.7l.1-.1c0 .2.2.2.4.2h.3l.8.1h1.2l.6.2h1c.3 0 .8.3 1.2 0h.1c.3 0 .5.2.7 0h.5l.7.2h2.1s.4 0 .5.2h.3c.2 0 .5 0 .8.2h1.9c.1.2.4.1.5 0l.3-.1c.2-.1.3-.1 0-.3h.6l-.4.2h.5c.4 0 .8.2 1.2 0 0 0 .2 0 .2.2.4-.3.8-.1 1.2-.1.1.2.4.3.7.2v.4c.1-.2.4-.2.5-.3l.7-.3c.3-.1.5 0 .8.1l.2-.2c0 .2.2.3.4.2l.2-.2c.2 0 .2 0 .3.2l.4.1h.8l1.1-.2h2.3c.2.2.4.1.7.1h.7c.4.1.4.1.8 0l.2.2c.4 0 .8-.2 1 .1.2-.2.3 0 .5 0l.5-.3c.1-.2.3-.1.5 0h.2c.3-.1.4 0 .5.1h.2l.1-.2h1c.4.1.6.1 1-.1h.6c.4.2.7.2 1-.2v-.3l.4.3h-.3c.3.2.5.3.8 0h-.3.6c.2.2.7.3 1 0h.7c.3-.3.6-.1.9-.3h.9c.2 0 .2.3.3.3l.3-.3 1.5.2v.2l.1-.2c.3 0 .7 0 1-.2.2 0 .5 0 .6.2h.2c.2-.3.5-.3.8-.2h.3c.4 0 .8 0 1-.3l.2-.1.1.2h.7c-.1-.2-.1-.2-.4-.2l-.3-.1.6-.1c0 .2.5 0 .4.3l.5.1c.2-.2.3 0 .6 0 0-.2.1-.3.2-.2h.4l.9-.1c.2-.1.5 0 .8.2h.1l.3-.2c.3-.2.5-.1.8-.1h.3c.1.2.3.2.3 0h1.4c0-.1.3 0 .4 0h.4l.9-.1h.4c.4 0 .6-.1.8 0l.4-.1h.5c.2 0 .2 0 .3-.2.4 0 .8 0 1.2-.2h2.2c.4-.2.7-.3 1.1-.2h1l.1-.1c.4.1.7 0 1-.2l.5-.2v.2h.4c.1-.2.3-.3.4-.3h.4l.6-.2.1.1.3-.2h2c.2-.2.4-.1.6-.2l.1-.1c.3-.3.5-.1 1 0 0-.3.5-.1.8-.3.2.3.5 0 .8 0s.7 0 1-.2c.2 0 .6 0 .9-.4l.3-.1h1.5c.2-.1.4-.4.7-.3h.4c.2 0 .4 0 .5-.3l.4.1.2-.2s.2.1.4 0l.4-.1c.1-.1.2-.1.4 0 .3 0 .8-.1 1-.4.5.2.3.2.8 0h1c0-.2 0-.3.2-.4l.1.3.2-.3 1-.1.2-.2.4-.1h.1c.3 0 .6 0 .6-.3.2 0 .5 0 .8-.2.4-.2.8-.2 1.2-.2.1-.2.1-.2.6-.2l1-.3 1-.2.8-.2.7-.3v-.2c.3 0 .5 0 .7-.4.4.2 1.5-.2 1.8-.7l.2.1c.3 0 .6 0 .7-.2l.6-.1.4-.1.2-.1c.2-.3.4-.1.7-.3.2 0 .6 0 .7-.3l.1-.1c.4-.2.9-.2 1.1-.6h.2l.1-.2c.1.1.3.1.4-.1l.6-.3 1-.5c0-.2 0 0 .2 0 0-.3.1-.3.3-.4v-.1c0-.2.2-.2.4-.2h.1c.1-.3.4-.4.7-.6.1-.1.4-.2.7-.1 0-.3 0-.5.4-.5h.1l.1-.2c.3 0 .5-.2.6-.4.1 0 .3 0 .4-.2s.3-.2.5 0l.3-.7c0-.2 0-.3.2-.3s.4-.3.4-.5h.4c.2-.1.2-.6.8-.7v.5c.5-.2.5-.3.4-.5.1-.1.4-.3.4-.6l.4-.4h-.4v-.2l.4-.6.1-.2.2-.2.4-.5c0-.2.3-.3.3-.5l.1-.3.3-.3.2-.4.3-.7v-.1c-.1-.2-.1-.2.2-.5 0-.4.4-.6.4-.9l-.2-.3.3-.1.1-.3c.2-.4.4-.6.3-1v-.4c.1-.2.3-.3.1-.5 0-.3.3-.4 0-.6l.3-.1c-.3-.1-.1-.3-.3-.6v-1.6h-.5l.3-.6v-.3c-.2-.3 0-.5-.3-.6v-.8c.1 0 .1-.3 0-.4l-.1-.1c.1-.4-.2-.6-.3-1-.1-.2-.3-.4-.1-.7l-.5-.2c0-.2.2-.2.2-.3h-.3c0-.5 0-.9-.4-1.2.1-.2 0-.3-.1-.4v-.5c-.2-.1-.3-.3-.2-.5l-.1-.2c-.3 0-.1-.2-.3-.3l-.1-.2-.6-.5-.2-.4v-.1c-.3-.1-.4-.4-.6-.6l-.5-.3.1-.6h-.4v-.3c-.5 0-.7-.1-1-.5l-.2-.4-.3-.3c-.3 0-.3-.1-.3-.3h-.1c-.1-.3-.3-.3-.4-.3l-.1-.3-.3-.1c-.3-.5-.3-.5-.7-.5l-.1-.2-.9-.6s-.2 0-.2-.2c-.2-.2-.3-.3-.6-.2l.2-.4c-.2 0-.4 0-.6-.2-.3 0-.7-.2-.8-.4l-.1-.1c-.3-.1-.4-.4-.7-.6-.2 0-.4 0-.6-.2l-.5-.2c-.3-.3-.8-.3-1-.6l-.2.1c.2.1.4.4.8.5h-.3l-.7-.3c-.1 0-.2 0-.2-.3l-.3-.4h-.3c.1-.2.1-.3-.1-.4l-.4.1-.2.1v-.3l-1-.4v-.6h-.3l-.3-.1a3 3 0 0 1 -1.1-.4l-.1-.2-.4-.2a.5.5 0 0 1 -.3 0l-.4-.2c-.4.1-.8-.2-1.3-.2l-.5-.2-.3-.2-.5-.3v.2l.1.1c-.1.2-.4.2-.5 0l-.2-.2c-.2 0-.4 0-.6-.2l-.2-.1h.7c.1.2.4.2.7.2-.2-.2-.6-.1-.7-.3 0-.3-.3-.6-.5-.5h-1c-.2 0-.5-.2-.5-.5l.1-.4c-.2.1-.4.3-.7.1h-1v.2h-1.1c-.2 0-.3 0-.2-.3l.8.3.2-.2c-.2 0-.3-.2-.3-.2l-.3.1-.2-.5-.7-.1c0-.2 0-.2-.3-.2.2 0 .2.2.3.2-.3 0-.4 0-.6.3 0 .1 0 .1-.2 0l.1-.1c.1-.1.3-.4.1-.4v.2l-.4-.5-.5-.2-.1.1c-.2.2-.3.1-.5.1l.6-.3h.4l.4-.1h-.5c-.2 0-.3-.3-.4-.3h-1.4c-.3 0-.7 0-.8.3h-.3c0-.3-.3-.3-.5-.3 0-.4 0-.4.4-.3h.2c0 .1 0 .2.2.2l.2-.2v-.2h-.8c.2 0 .2 0 .3-.2-.3 0-.3.2-.4.3l-.7-.3c-.1.2-.1.2-.4.2l.1-.2h-1.1l.2.3-.4.2-.7-.3-.6-.2s-.2 0-.2.2h-.2c0-.5-.6-.6-1-.8l-.2.3h-.5l-.3-.1-.4-.2a1 1 0 0 1 -.8 0v-.4c-.2 0-.3 0-.4.2v-.2l.2-.2-.1-.2c-.3 0-.4-.1-.7.1-.1.1-.3.2-.5 0l-.7-.1-.2.2 1 .1v.1c-.1.2-.3.2-.4.3l-.7-.4c-.4.1-.8 0-1.2-.2l.8-.1c-.1-.2-.3-.3-.5-.3l-.3-.1c-.2 0-.2 0-.3.2v-.5h-.7l-.1-.4-.3.2-.5-.2h-.4l.2.2h.2l.2.1h.3l.8.2v.3c.3 0 .2.3.2.4-.6 0-1-.2-1.4-.3-.1-.2-.3-.1-.5-.1l.1-.1h.8c0-.2 0-.3-.3-.2l-.4-.2c-.1.1-.2 0-.4 0l-.1.4c-.3 0-.4 0-.7-.2v-.3l.4-.1-.1.2.4.1v-.2l.3-.1-.2-.2h-.1c-.3.3-.3.2-.4 0l-.2-.3c-.2.2-.2.4 0 .6l-.9-.2-.1-.1c-.2-.3-.3-.1-.6-.1v-.8h-.3s.2 0 .2.2l-.4.1.1-.4h-.3c0 .2-.1.3.2.4h-.3c-.1-.3-.3-.3-.5-.3h-.2l-.8-.1c-.3-.1.1-.3 0-.3-.3 0-.4 0-.5-.2h-.3l.3.2h-.6v-.3l-.3.2c0-.2 0-.2-.2-.3l-.2.2c-.1 0-.2-.3-.4 0-.1-.2-.1-.3-.3-.3h-.2l-.2-.2c-.2 0-.5.2-.6 0h-.3c-.4 0-.7 0-1-.2h-1c-.4-.2-.6-.3-1-.2h-.7c-.3.2-.6.2-.9 0v.5c-.5-.1-1 0-1.2-.3.2.2.3 0 .4 0h.2l-.1-.2-1.5-.2-.6-.1c-.3 0-.4-.2-.7-.1h-1.1c-.2-.1-.4-.2-.5-.5-.1.1-.1.3-.3.3-.2-.3-.2-.3-.8-.2l-.1-.2-.3.1v-.3l.4-.1h.3v-.1h.3c0 .2.4 0 .5 0 .3-.1.4-.1.3-.5l.1.1 1.1.1c-.3.4-.3.4-.5.3h-.5 1.3v-.4h1.9c-.3 0-.4-.3-.7-.2l-.4-.1c-.3-.2-.4-.1-.6 0l-1.2-.1-.8-.2a1 1 0 0 0 -.8 0c-.2 0-.4.3-.7.2v-.2h-.7c.3 0 .3 0 .3.2l.4-.2h.1l-.5.4.3.3c-.3.4-.7.2-1 .4l-.4-.2c-.3 0-.4-.2-.5-.3l-.2.1c-3 2-3 2-3.1 1.8-.3 0-.6.1-.8.3h-.8c-.3-.2-.5-.2-.7 0l-.2-.2c-.1.2-.2.2-.4 0-.2 0-.7-.2-1 0h-.3c-.3-.2-.4 0-.7 0l.1.4h-1c.2-.2.5 0 .6-.1 0-.1 0-.4-.3-.4-.1 0-.4 0-.4.3v-.3l-1 .1h-.5v-.4c.2 0 .3.2.4.1.2-.1.3.2.4.1l.2-.4h-.3l-.1-.1-1.1-.1c-.3 0 0 .3 0 .5h-3c-.2-.2-.2-.2-.4-.1l-.2.1c-.1-.2-.4 0-.5-.1h-.4l-.2-.1h-.5l.5-.3c.2-.2 0-.3 0-.2-.2.2-.4 0-.5 0l.1.5-.4-.3c-.2.3-.7 0-1 .2.2-.1.2-.2.2-.5-.1.3-.3.1-.4.1-.3.2-.3 0-.4 0h-.6v.3-.1c0-.4 0-.5-.5-.6h-.4l-.3-.1-.1-.1h-1.1l-.3-.1c-.1-.2-.4-.2-.4 0l.2.2h-.3c.1.4.5.3.7.4s.4 0 .6-.3c.2.1.3.2.2.4h-.7c.1.2.3.2.4.3h-.8l-.4-.1c-.3 0-.7-.2-1.1 0h-1.1c-.1-.2-.3-.3-.4-.3-.3 0-.1.3-.3.4l-.5-.1c-.4 0-.7 0-1-.3l-.1-.2c-.2-.1-.2 0-.3.1.1.1.3 0 .3.2-.3 0-.3 0-1 .4l-.1-.2c-.1-.2-.3 0-.6 0-.2.2-.4-.2-.5-.3l-.4.1v-.2h-.3c-.3.2-.5 0-.7 0-.2-.2-.5-.2-.6 0 0 0-.2 0-.2-.2v.2l-.5.1h-.3c-.1-.2-.4 0-.5-.2h-.9l-.1.3h-.4l.1-.3h-.4c-.3 0-.1-.2-.3-.2h-.4l-.2-.2.2-.3c-.4 0-.4 0-.4.3l.2.4h.1l.1-.1v.2c-.5.1-1 0-1.5-.2l-.1.2-1 .1c-.2-.2-.2-.2-.5 0-.1 0-.3 0-.4-.2h-.4l.1.6c-.4 0-.1-.3-.3-.4l-.2.1h-.6c0-.2-.4 0-.4-.4h-.3l-.2.1c0-.4.4-.2.7-.4v.2l.8-.2-.3-.2h-.3l.2-.5-.3.1h-.3v-.1l.6-.5h1.1s.4 0 .5-.2c-.1-.2-.1-.2-.4-.2h-1l-.4.2c-.1.1 0 .1 0 .2l-.1.2h-.3l-.1.3c-.2-.1-.3-.2-.4-.5-.3.3-.4.2-.7.2 0-.2.1-.3.3-.3-.2-.2-.4.1-.6 0l-.5.3h-.6c.2.3.4.3.6.2h.4l.1.6c-.3 0-.5 0-.8.4l.4-.1c0 .2-.1.3-.4.3s-.1-.2-.1-.3h-.6l.3.3v.5l-.1-.2c.1-.2-.3-.4-.3-.7-.1 0-.3 0-.4.2-.3-.2-.3-.2.1-.2.2 0 .2-.2.2-.3h-1.1l.1-.2h-.5c0 .1 0 .3.2.3.2.2.3 0 .4 0 0 .2 0 .3.2.4h.5v.4h-.9.1l.1-.2-.2.1h-.6l.4-.4-.5-.1h-.4l-.3.4h.5c.3.1.6.3 1 .2l.1.1-.1.2h-1.1v.3h-.7v-.1h.4l-.1-.2c-.1 0-.1-.2-.3-.2l-.2.3-.7-.1c-.6.2-.7 0-.8-.2h-.7c-.4-.3-.6-.2-.7 0l-.1.2c0-.2-.2-.2-.2-.3l-.3.4s.2 0 .2.2c-.6 0-1-.1-1.4.2v-.4c-.1 0-.3 0-.4.2h-.3a1 1 0 0 0 -.8 0c-.3.1-.4.1-.7-.2 0 .2-.2.2-.4.3l.3.2-.1.2h-.2l-.2-.4-.7-.1.4-.1c0-.2-.2-.4-.3-.2-.1 0-.3 0-.3-.2h.3c.3 0 .4.2.7 0l1-.3.2-.2.4.4-.1.1c.1.2.3 0 .4 0l-.1-.3h.1c.4-.1.4-.1.1-.3l-.1-.4.5.1.2-.4h.1c0-.2-.3 0-.3-.2l.7-.2c.2.2 0 .3-.1.3l-.1.2h.6l-.1.2c.3.3 0 .3-.1.4.1 0 .4.2.5 0h.8c0-.1 0-.3.2-.4l.6.3.3-.6c.2.1.2.2.2.3l-.7.1c.1.3.4 0 .5 0-.1.2-.1.3-.3.3h-.8l.4.2c.4.2.4.2.7 0l.2.1v-.1l.2.1c.3.1.4.1.6-.1l.1-.6-.4-.2c-.4.2 0 .3 0 .6-.1-.1-.3-.1-.3-.3l-.2-.4.2-.2c-.2-.1-.7-.1-.8-.5h2.8c.2 0 .5-.2.6 0h.7c.1 0 .3-.2.4 0h.6v0c.4.2 1 .2 1.3 0l-.4-.3.5-.1h.3l.2.2v.2-.2l1.5-.1 1.5.1 1-.1h3l.6.1c.1.1.3.1.4 0h1.6c-.2.5-.6.2-1.2.2.1.3.3.4.4.5.2 0 .2.3.3.4h.8c-.3.2-.4 0-.5 0l-.2.2-.1.2.4.3.7-.1c.1 0 .3.3.4.2l.5-.4-.1-.2c.3 0 .5.2.7 0 0 0 0-.2-.2-.3h.3l-.1.5c.5-.3.5-.3.8 0h.4c.1-.2.3 0 .6 0 0 .2.2 0 .4 0l-.3-.4h.8l.1.4.6-.3h-.3v-.2l-.7.1a.5.5 0 0 0 -.6-.2v.3h-.5c.2 0 .2 0 .3-.2l-.3-.1-.6.1c-.2-.1-.4-.3-.9-.2-.2 0 0-.1 0-.2h.5c.2 0 .5-.1.6-.3l-.1.2h1.9l.1-.3h-.5c.3 0 .4-.2.5-.2 0 0 0-.2-.2-.3s-.3-.4-.6-.4c-.2 0-.4 0-.5-.3l-.2-.1v-.1c-.2-.1-.2-.3-.5-.3s-.3-.4-.4-.5l-1.2-.6h-.4c-.3 0-.1-.2-.3-.3h-.3v.1l-.4-.2-1-.4c0-.2-.2 0-.2 0-.1-.2-.4-.3-.5-.3h-.3c-.1-.3-.3-.2-.4 0-.2-.4-.4-.3-.4-.4-.3-.2-.7-.2-1.1-.3l-.4-.3h-.6v.4l-.4-.1-.3-.2h-.4v-.3c-.3-.1-.2.2-.3.2h-1l-1.9-.2h-1.1c-.2 0-.6.1-1-.1v-.2c0-.1 0 0-.2 0-.1.2-.4 0-.5 0l-.2-.1h-.2c0 .4.2.2.4.3l-.3.2-.5.1h-1.5c-.2 0-.3-.2-.5 0-.2 0-.4.1-.8 0h-.4c-.1.1-.4 0-.4-.2l.4-.1c-.1 0-.4-.1-.5.1-.2.2-.4.3-.7.3l-.4.2c-.6 0-1 .2-1.5 0-.2 0-.2.2-.3.2h-1.1l-.5.2c0 .2-.3.1-.3.2l-.3-.2c-.1-.2-.1-.2-.2-.1h-.7l-.3-.2c0 .3-.3.2-.4.3l-.8.2c0-.2.4 0 .4-.3l-.6.1c0 .2 0 .2-.4.3l-.4.1c-.1.2-.4.2-.5.2-.4 0-.7 0-1.1.2h-.4c-.2 0-.3.2-.4 0-.2-.2-.3-.1-.4-.1h-.7c-.3 0-.4-.1-.4-.3-.4.2-.7.5-1.1.2-.2 0-.3 0-.3.2h.3c0 .3-.2.5-.4.5s-.2.3-.2.3h-1v.2l-.6-.2v-.2l-.7.2c0 .2.2.3.3.3-.4.2-.8-.1-1.1.1s-.8 0-1 .3c-.2-.2-.5-.2-.8 0h-.2c-.3-.2-.6 0-.9-.2-.4 0-.5.1-.6.4l-.5-.2c.2.4.2.4-.2.4v-.5l-.3.2c-.3.3 0 .3.1.4l-.2.2.5.1-.4.1-.3-.2-.1.1c0 .3-.1.3-.3.4a3 3 0 0 1 -1 .2v-.1c-.3.2-.9.2-.8.7-.2 0-.4 0-.5-.3l-.5.3c-.3 0-.6 0-.9.2h-.2c-.3 0-.4 0-.6.2l-1 .4-.2.2c-.3.3-1 0-1.2.4l-.2-.1-1.2.3c-.1-.3.3 0 .3-.2-.2-.2-.4-.2-.4-.1l-.3.1c-.3 0-.6.1-.7.3-.3 0-.3 0-.3.3h.3c-.3 0-.5.3-.8.3l.3-.3-.9.2.6.1-.1.1-.5.1c-.4.2-.8.4-1 .7l-.5.2c-.2.2-.5.1-.8.4l-.2-.4c-.6 0-.6.1-.7.2zm78-1.7-.6-.2h-.4c-.1 0-.3-.2-.4 0l-.2.2c0-.2 0-.2-.2-.3l-.2.3c-.1-.4-.5-.3-.8-.4v.4c.3 0 .7 0 .8.3l.4-.2c.2.3.5.3.7.3l.3.1c.1 0 .3.2.5 0l-.5-.3c.5-.1 1 .2 1.5 0-.3-.1-.4-.4-.5-.5a.5.5 0 0 0 -.5 0l.2.3zm-13.8-2h-2v.2c.2 0 .3.2.5.3.3.3.8.2 1-.1l.5-.1v-.2zm41.3 5.5c.3.3.1.5.5.6l.2-.2c.2.2 0 .4 0 .5.4 0 .6.4 1 .2 0-.3-.4 0-.5-.3v-.3l-.4-.6-.3.1-.1-.2zm-19.5 59.9.5-.1v.2c.3 0 .6 0 .7-.2h-.4l-.4-.1-1.1-.1c-.3 0-.3 0-.4.2l.4.1-.1.2h.4l-.3-.3zm53.3-12.7c-.3 0-.6 0-.7.2l-.3.3v.1l.4-.2c.6 0 .7-.3 1.1-.5.2-.2.2-.3 0-.4zm-112.7 11.2c-.2-.2-.2-.3-.5-.3l-1.2-.1c-.3 0-.3.1-.3.2l.2.1h.4v.1h.8-.3.4c.2 0 .3.2.5 0zm48.3-62.7v-.3c-.2 0-.4.2-.5.3l-.7-.1.3.4h.5l.2.1h.8v-.3zm17 1.6h-.3c-.2 0-.2 0-.3-.2-.3-.3-.7 0-1 0h-.2l.1.1h.1l.9.3h-.9 1c.3 0 .4-.2.5-.2zm-44.9-2.5v.2c0 .2 0 .2.4.2v-.3h.1l.3.2h.6l.1-.2-.4-.1.3-.1c-.2 0-.3-.3-.4 0h-.5c-.2.2-.4 0-.5 0zm32.3 1.9v-.3c.1 0 .4-.2.6 0 0-.4-.5-.5-.7-.7-.2 0-.3.3-.6 0 .3.5.3.9.7.9zm4.5-1h-.4l-.1.2-.2.2-.5.1h-.6c.4.3.6.3.9.4.4-.1.5-.1.6-.5 0 0 .2 0 .2-.2l.4.1zm-45.5 63.7c-.2 0-.3 0-.4-.2h-.7l.1-.2h-.3l-.3.1c0 .1 0 .3.2.3.4.2 1 0 1.5 0-.2 0-.2 0 0 0zm98.3-49.3c0-.1 0-.2-.2-.2l-.3-.3c0-.2-.5-.2-.8 0 .2.6.7.5 1.3.5zm-120.7 47c.8.1 1.8.4 2.6.2l-2.4-.3zm82.1-58.7c.4 0 .6-.2.9 0 .3 0 .5 0 .8.2l.2-.1c-.3-.1-.5-.1-.6-.3v-.2h-1.4c.2.1.2.2 0 .4zm-36.5-2.8c.3.2.5 0 .7.2.1 0 .2-.1.2-.4 0 .3-.2.3-.5 0l-.3.2h-.1c-.1 0-.3 0-.3.2-.1-.1-.1-.1-.4 0h.3c0 .2-.3 0-.3.3.3 0 .4-.2.7-.3zm54.6 6.4c-.4 0-.6 0-1-.2 0 .1-.2.2-.2.5h.2c0-.2.4 0 .5 0 .3 0 .4 0 .5-.3zm-61.1 58.5c0 .2 0 .2.2.2h.8l.3-.1h-.6l.3-.3h-.5c0 .2-.2.3-.2.3l-.3-.2zm-16.2-.8h1.5c-.1-.1-.1-.2-.4-.1l-1-.1v.2zm10.8-63.8v-.2c-.4 0-.4 0-.6-.3 0 0 0 .2-.2.2 0 0-.2 0-.2.2h1zm48.1 2.1c-.4-.2-.8 0-1.2 0 .1 0 .4.2.7.1h.5zm-73.6 60.2c0-.3-.4 0-.5 0v-.3l-.3.1-.4.1.5.1zm53-62h.4c.2 0 .3-.2.2-.4-.2-.2-.4 0-.6-.1h-.1l.1.4zm-56.4 61.6v-.2c-.3-.1-.5-.3-.8 0 .3 0 .5 0 .8.2zm79.2.5c-.1.2-.1.3-.3.3l1-.1-.2-.3c-.4.4-.4.4-.5.1zm-47.6 1c-.3.2-.7.4-.5.5l.2.1.5-.2c0-.1 0-.2-.2-.3zm31.1-62.4-.8-.1-.2.1.3.1h.3v.2c.3 0 .4 0 .4-.3zm43.2 9c-.1-.2-.3 0-.4 0 .1.2-.1.4.1.6h.3c-.3 0-.4-.2-.3-.4l.3-.1zm-57.2-10.6c0 .4.2.4.4.4.1 0 .2-.2.1-.4zm-36.4-6.1c-.1-.1-.4-.1-.4.1l-.3.1-.3.1h.5zm-3.8 69.8c.1 0 .1 0 0 0l.4-.2.1-.1h.3v-.1h-.7zm18.5-63.4h-.7v.3l.3-.1.3-.2zm8.4.4c-.2-.4-.2-.4-.5-.3.1 0 .1.3.5.3zm-9.6-.9s.4.1.4-.1l-.3-.3h-.3c0 .3 0 .4.2.4zm46.2 1.7c.1 0 .1 0 0 0h1l-.9-.1h-.1zm-18.4 63.8.2-.5-.1-.2-.1.1zm-9.3-.4c-.3-.2-.5-.2-1 0l.9.1zm61.2-55.6-.3-.2-.3.1c0 .1 0 .2-.2.3l.1.1h.2v-.3c.2-.1.2.2.5 0zm8 45v-.3c-.2 0-.5.1-.6.3zm-12.4-46 .6.3h.1l-.1-.2zm-28.2 55.5-.4.1.1.3c.2-.2.5-.2.3-.4zm-45.8-63.5c.2.3.2.4.4.4l-.1-.4zm76.9 8.6h-.5c0 .2.4.2.5.3zm-73.6-8.4c0 .2.1.3.4.2l.1-.1-.1-.1zm72.2 8-.1-.2-.4.1v.1s.1.1.1 0zm-17.7-4-.4-.2-.1.3c.2.2.2 0 .5-.1zm15.4 2.7c-.1 0-.4-.1-.5.1.2.2.4.2.5-.1zm20.7 8.3c.2 0 .3-.2.4 0h.3c-.3 0-.4-.2-.7-.3zm-135.7-15h.7l-.2-.2c-.1 0-.5 0-.5.3zm103.8 5.8c.2.2.4.2.7.2-.4.1-.3-.2-.4-.3h-.3zm11 54.2.5-.1v-.3h-.1c-.2 0-.2.2-.3.3zm-4.3 0c.2-.1 0-.3-.1-.4-.2.1-.2.3-.3.4zm-28.5 1.9c.3 0 .4 0 .7-.2-.3 0-.6 0-.7.2zm-61.3.6h.8c-.4-.2-.4-.2-.8 0zm56.1 1.8.4.1h.3c-.1 0-.3 0-.4-.2zm49.7-51.7-.2-.6-.1.5h.3zm-124.2-15.7h.9c-.4-.2-.6-.3-1 0zm45.4 67.4-.4.2c.2.2.4.3.5.2zm71.1-54.5c-.1.1-.4.2-.2.5l.4-.2c-.2 0-.2-.2-.2-.3zm-134.2 46c-.3 0-.3 0-.2.3.2 0 .2 0 .3-.2l-.1-.2zm108-52.7.2.1.1.2c.2-.3.2-.3-.4-.3zm-37.9-2.9c0-.1 0-.1 0 0l-.3-.2h-.1zm-34 62.4.1.3h.2v-.3zm73.6-59.3c.3 0 .3.4.5.1-.4-.2-.4-.2-.5 0zm-99.2-1.4h-.6s0 .2.2.3zm112.3 3.9-.2.2c.2.1.3.1.5-.1zm-58.5-6c-.3 0-.4 0-.5.3h.5v-.2zm87.8 16.2c.1.3.4.3.5.2zm-42.3-13.4c.2.3.3.3.4.2zm-34.3 61.7c-.3 0-.4-.3-.7 0zm60.8-53.2c.1 0 .2 0 .4-.3h-.4zm-25.2-8-.4.2c0 .2 0 .2.4 0zm36.6 51.9c-.2 0-.4.2-.4.4.3-.1.6-.2.4-.4zm-56.7-54.2c-.1.2-.2 0-.4.3h.4c.2-.1.2-.1 0-.3zm-43-1.5-.3.1.4.3v-.4zm40.4 1.7.4.2h.2c-.2-.2-.4-.2-.6-.2zm-76.6.3-.4.1h.4zm56.7-1.5h.3v-.2c0 .2-.1.3-.3.3zm3.2.3h-.7zm55.4 60.9.5-.2c-.2 0-.2-.2-.3-.2-.2.2-.3.2-.2.4zm-59-64.1.3.2v-.1zm-24.4 3.5c.2 0 .2 0 0 0 .3 0 .4 0 .3-.2zm84.7 7.4c-.2-.2-.3-.1-.4-.1 0 .2.1.2.4.1zm-77-8.3c-.2 0-.2-.2-.4 0l.2.1h.2zm77.2 8.3v.3s.2 0 .3-.2zm-71.1 56.5h-.6zm25.5-.2c.3-.1.3-.1 0-.3zm60.6-51.6c-.1-.2-.1-.2-.4-.1h.4zm-31.2-10.3-.1.2.4.2c0-.2-.1-.3-.3-.4zm-51.6-3.6h.4c-.3-.2-.4-.2-.4 0zm74.8 9.8c.1.2.1.2.4 0zm-86.6-9.2c.2-.1.2-.2 0-.2zm84.1 10.4c0 .3 0 .3.3.2zm11 4.2c-.2.1-.2.1-.2.3h.3c-.2 0-.2-.2-.2-.3zm-153.4-5.4h.4c0-.2-.2 0-.4 0zm142.5.9.1.3c.3-.2.3-.2-.1-.3zm-73 54.8c0-.2 0-.2-.2-.2l.3.2zm29.8-63.7c-.2 0-.3 0-.3.3.1 0 .3 0 .3-.3zm3.2 63.6c-.2-.1-.2-.1-.4.1zm17.2-61.2c.2.2.2.2.4 0zm8.2 1.8-.3.2.3.1zm-43.8 60c.2.3.2.3.4.2l-.4-.1zm24-63.3.4.2c0-.3-.2-.2-.4-.2zm-22.9-1.2.4.1c-.1-.1-.2-.2-.4-.1zm-42.9-5.5-.3.2c.1 0 .3 0 .4-.2zm57 5h-.3l.2.2c.3 0 .3-.2.2-.3zm-48.5 1s0 .2.2.3l-.2-.4zm44-.3s0-.2-.2-.2l.1.2zm51.9 10.4-.4-.1c0 .3.2.1.4.1zm-39.3-10.1h.3v-.2zm-13.5-1 .3.1s0-.3-.3-.2zm62.4 53c-.2-.1-.2-.1-.4 0zm-98.5-52.8.1-.4c-.2.1-.2.1-.1.4zm105 17s0 .2.2.2v-.2zm-107.7 46.9v-.3l-.4.1c.1.2.2.2.4.2zm72-59s0 .2.2.2v-.3l-.3.2zm-3.6 57.7c-.3 0-.4 0-.3.1h.3zm.3-57.8.4-.1h-.4zm29.4 7-.4-.1v.1zm-25.5-7.5.2.4c0-.2 0-.2.2-.3h-.4zm-6.4-1.8h-.3l.2.1h.1zm14.4 57.6c.2 0 .2.2.3.2.1-.2 0-.2-.3-.2zm-63.7-59.7.1-.2zm-1.1-.2-.3-.1c.1.2.1.2.3 0zm-19.8 62.9c0 .2 0 .2.3 0zm79.8-58-.3-.1v.1zm-79-4.7v.3zm15.6 64.4.1-.2h-.1zm-47.2-62.8c0-.1 0-.1 0 0-.1-.1-.3-.1-.4 0zm-3 56.5c.2.1.3.1.4 0zm127-50.2c.2 0 0-.2 0-.2h-.2l.3.2zm-156.8 18.8v-.3c-.2 0 0 .2 0 .3zm62.1-33c.2.3.3.2.3 0zm64.8 8.9c-.2-.2-.2-.2-.4-.1h.4zm4.2 1h.4c-.1-.2-.3 0-.4 0zm19 3.2h-.5.4zm-62.9 57 .1.2c.2-.1 0-.2-.1-.2zm25.9-62.9c0 .1 0 .1 0 0h.3zm32 4.8.3.1.1-.1zm12.8 52.6c-.2-.1-.2-.1-.4 0zm-74.5-58.9h.4c-.1 0-.1-.2-.3-.2zm74 8.5s-.1-.2-.3-.2v.1zm-8.9 51.6h.2zm-106.3-61.3h.4zm27.7 65.5-.3-.1h.3zm88.3-55.3h-.3c.2.2.3.1.3 0zm-63-9h-.2v.2zm-9.6 65c-.2 0-.2-.2-.3-.2l-.1.1c0 .2.2.2.4 0-.2.2-.2.2 0 0zm-67.4-9.9c-.1-.2-.1-.2-.2 0zm59-55c0 .3.2.2.3.2v-.1h-.3zm-5.7-6.6c-.1-.1-.2 0-.4 0zm57.4 8.8-.1-.2zm-3.7.1c0 .1 0 .1 0 0l.3-.1h-.1zm.4.3h.3c-.3-.2-.3 0-.3 0zm38.9 8.5h.3zm-87.4-10.6h-.1l-.2.1.2.1zm46.6 60.7-.4-.2c.2.3.3.3.4.2zm39.7-47.8c.1-.2.1 0 0 0v-.3h-.1v.3zm-18.3 47.8-.1.2c.3 0 .3 0 .1-.2zm-59.1 3.9-.3-.3c0 .2.1.3.3.3zm4-.6.3.2c0-.2 0-.3-.2-.2zm29.6-63.4-.1-.3v.2h.1zm-116.4 14.6c.2.1.2.2.3 0zm109.6 48.7h.3l.1-.1h-.1zm15.4-62.7.3.3v-.2h-.3zm-46.3 62.5h-.3zm.8-64.7h.3zm37 2.5c-.2-.2-.2 0-.2.2l.3-.2zm-60.6 60.8h.3c-.2-.2-.2-.2-.3 0zm105.9-9.1.3-.1h-.3zm-106.4 9.4c.1 0 .1.2.2 0zm110-10.7c.1 0 .1 0 0-.2zm-92.6-53.3c-.1 0-.1 0 0 0h-.3zm-67 52.2v.3h.1zm168.2-4.8c.1.1.1 0 .2 0zm-177.6-2.2v-.1l-.2-.1zm184-8c0-.2 0-.2-.3-.2.1.2.1.2.3.2zm-1.1-4.5c.1-.1.1-.1 0-.2zm-151.9 26.8-.2.1c.1.1.2.2.2-.1zm65.6-59.1c-.2.1 0 .1 0 0v.1zm79.8 18.1v-.1h-.1l.1.1c-.1-.1-.1-.1 0 0zm-9.6-3.4c0 .2 0 .2 0 0v.3zm-84.2-14.1v-.2zm83 11.2c.1 0 .1 0 0 0zm-64.8-11.2c-.1-.2-.1-.2-.3-.2v.2zm56.2 10.2h-.2zm-43.8-9.7-.1.2h.3zm41 9v-.2.3zm-59.6 55.2v-.2h-.1v.2zm-14.7-.2c-.2.1 0 .1 0 0l.2.1h-.2zm63.2-57.3c.1-.1.1 0 0 0v-.2h-.1zm-62.1 57s.2 0 0-.1v.2zm59.4-58.9h.3v-.1zm-1.7-.3h.5zm-10.9-2h-.2.1c0 .2 0 0 .1 0zm4.4 1.2-.1-.1h.1zm1.8 58.9c-.2-.2-.3-.2-.3 0zm-73.4.3.2-.1-.2-.1zm5 .3h-.2.3zm1.5.1v-.2c-.2.1-.2.1 0 .2zm-40.5-59h-.2v.2l.2-.1zm103.4-2.7c-.1-.1-.1 0-.1 0zm-53.3 61.6h-.1v.2-.2c0 .2 0 .2 0 0zm57.7-58.7c-.2 0-.2 0 0 0h-.3.3c-.2.1-.2.1 0 0zm4.7.9v.2h.2zm-1.3.3c-.2-.1-.2 0 0 0l-.2-.1c-.1.1-.1.1.2.1-.2 0-.2 0 0 0zm-20-4.2v-.2h-.2.1zm-37 62c0 .2-.2.2-.2.3.2 0 .3-.1.2-.2zm60.2-2.2h-.2c0 .2 0 0 .2 0zm9.8-54.5v.1zm-103.7 54c0 .2 0 .2 0 0 0 .2.2.2.2.2l-.2-.1zm46.5 3.3h-.3zm14.7 0c-.1 0 0 0 0 0zm45.1-55.3h-.2v.1h.2zm7 .1v.2c.1 0 0-.2 0-.2zm-61.4 55.2c.2.1.2.1 0 0h.3zm-57.4-4c-.1-.1-.2-.1-.2 0zm37-60.3h-.1l-.2.1.3-.1c-.1.1 0 .1 0 0zm77.3 9.8c-.1.1-.1 0 0 0v.2h.1zm-91-10c0-.1 0-.1 0 0zm93.5 10.7c.2-.1.2-.1 0 0 .2-.1 0-.1 0-.1zm-47.4-11.3v.1zm57.3 15.5.1.2v-.2zm-59.8-15.5h.2v-.1zm-31.1 0-.2.1h.2zm-1.4-6.2h.1zm81 65.9h.1zm-84.5-59.7v-.1h-.2l.2.1c-.2-.1-.2-.1 0 0zm-47.7 57.3.1.1h-.1z"/><path d="m128 32.3-.4.1h-.4c-.1 0-.3 0-.3.2l-.1.3-.7-.1h-.1c-.2 0-.4 0-.6.2v-.1l.2-.1.4-.3c.1 0 .2-.2.5-.2l1-.1zm13.1-1h.4c0-.2.3-.2.6-.3v.2l.2-.1.3.1-.1.2-1.3.1zm6-.8 1.5-.2v.2l-.7.2c-.3 0-.5 0-.8-.2zm-.4 0-.1.2c-.5.2-.9.3-1.4.2.1-.2.3-.3.3-.2.2.2.5 0 .8 0 .1 0 .3 0 .4-.2zm-34.7 2.9h-.6c.3-.2.4-.4.8-.4l-.1.4zm-16.7.1h-1c.3-.3.6 0 1 0zm60.4-4.3c-.1 0-.3.1-.4 0-.3-.1-.3 0-.3.2h-.4c0-.3.4-.1.5-.3h.6zm-49.1 4.4c-.4.2-.8.2-1.2 0 .3-.2.4 0 .7 0zm43.1-3.4c-.1.3-.4.3-.7.3 0-.3.4-.4.7-.3zm15.9-3.5s.2-.3.4-.2h.3c0 .2-.1.2-.4.2zm-57.2 6.8c-.3.2-.6.2-.8 0zm54.6-6c.2-.1.3-.3.7-.2l-.8.2zm-132.3-1c-.4 0-.7 0-1-.3zm131.7 1.1c-.3 0-.4.2-.7.1l.3-.2zm-4.4.8-.1.3h-.3c-.1 0 0-.2.4-.3zm-33.8 4.6c-.3 0-.4.2-.7.1.3-.3.3-.3.7-.1zm-96.6-7.4c.2 0 .5 0 .8.2-.4 0-.6 0-.8-.2zm96.7 7.3h.9zm12.7-.9.2-.1s.2-.3.5 0h-.7zm15.6-2.4c0 .4 0 .4-.6.3.1-.3.4-.3.6-.3zm-51.3 3.8v.4h-.4c.1-.3.1-.3.4-.4zm57.5-5.2c-.1 0-.1.4-.5.3zm-124.6-.7-.5-.1c.3-.1.3-.1.5.1zm132.8-1.2-.1.2h-.3zm-71.4 7.1.5.1c-.3.2-.4 0-.5 0zm41-1.5.3-.1c-.2.2-.2.2-.3 0 0 .2 0 .2 0 0zm-49.3 1h.4zm42.5-.3c-.1 0-.1.2-.3.2v-.2zm-117.6-13.8c.1.1.1.2 0 .2h-.2zm101.1 14.6h.7zm-27.4-.4h.3v.2s-.2.1-.3-.1zm71.6-4.7.2-.2c.2.3.2.3-.2.2zm-6.9 1.9c0-.2 0-.2.2-.3h.1zm-57.1 3.1h.3v.1h-.3zm-48.8-4.3v.4h-.1l.1-.3zm-26-6.9c.1.2.3 0 .3.3-.2 0-.3-.1-.3-.3-.1.2-.1.2 0 0zm68 11.7c0-.1.2-.1.2-.3 0 .2 0 .2-.2.3zm21.4-.8h-.3l.2-.2zm-1.6.2c0 .2 0 .2-.3.1h.3zm10.1 0 .1.1v.1zm26.8-2.2c.2 0 .2 0 0 .2zm-42.4 3.1h-.4c.3-.1.3-.1.4 0zm-86.4-13.9c.1 0 .1.2.3.2h-.2v-.2c-.2.2 0 .2 0 0zm8.4 3.8c.2 0 .2 0 .3.2-.1 0-.2 0-.2-.3zm2.1.3h-.1c0-.1 0-.1.1 0zm-.5.3-.2-.1zm11.5 3.1v-.2h.2v.1zm115.4 2.3c-.2-.1-.3-.1 0-.3zm-131.2-7v-.2h.2l-.2.2c.2 0 .2 0 0 0zm122.7 8.2h.1c0 .1 0 .1 0 0zm-9.1 1 .1-.1zm-5.1.3.2.1-.2.2v-.2zm-50.1.3h-.2v-.2c0 .2 0 .2.2.2zm-43-5.5.2.1-.2.1zm73 6.2h.1zm-22.7-4.2.6.1c-.3.1-.3.1-.6-.1zm75.3-6.8.4.3c-.3 0-.4-.1-.4-.3-.2 0 0 0 0 0zm-37.1 6.9c-.1-.1-.1-.1 0 0-.1-.1 0-.2 0-.2v.2c0-.1 0-.1 0 0zm-27.4.3c-.1 0-.1 0 0 0-.1 0 0 0 0 0z"/></g></svg>