<svg fill="none" height="89" width="297" xmlns="http://www.w3.org/2000/svg"><path d="m7.3 65.5-.7-.4c-.2-.2-.1-.4-.4-.5-.1 0 0-.3 0-.4l.6-.3c.8 0 1.5.4 2.3.4v.2-.2l-.4-.4h-.7l-.1-.3h.4l-.4-.4v.5c-.5 0-.2-.3-.3-.5l-.6.2h-.5v-.1h.2l.3-.3h-.7l.1-.3c-.3-.2-.7.1-1-.1.1-.3.7-.3 1-.4l-.5-.5-.1.3h-.2s-.3-.3-.6-.2v-.4l.1.4c-.7-.1-.7-.1-.7-.5v-.2l.6-.5 1 .1h.4s.2.2.2 0h-.7c.2 0 .3-.2.3-.3 0 0 0-.2-.2-.2h-.6l-.7-1.2.1-.2.5.7c.3 0 .4-.1.3-.2a5 5 0 0 0 -.3-1l-.5-.2h-.7l.6-.3.2-.2v-.2l-.6-.2-.4 1.2c-.4-.2-.4-.2-.2-.7-.3-.2-.4 0-.6 0a.4.4 0 0 1 -.3 0c.3-.2.2-.5.6-.7l-.9-.4c.1-.3.1-.3-.3-.8l.7-.1-1-.4c0-.3.6-.4.5-.7l-.7-.2.3-.5c-.5 0-.5 0-1.1-.3 0-.2.3-.2.6-.2-.5-.4-.2-.7-.4-1l.1-.3.4-.2h1.4c.2.2.3.5.2.8s0 .3.6.5c0-.5 0-1-.2-1.5 0-.1-.1-.2 0-.2.5-.5.1-1 .2-1.5 0-.5 0-.4-.8-.7-.1.2.2.4 0 .5-.4.2 0 .4-.5.6 0-.6-.3-1.2.3-1.8h-.8c-.2 0-.4 0-.4-.2.7-.1 1.1-.6 2-.7h.1v-.1c.1-.3.7-.2.7-.5l.2-.5c0-.1 0-.4.4-.4s.3.3.4.5l-.6.8v.1a145.6 145.6 0 0 0 .5-.2v-.8l.6-.3.2-.2v-.1c0-.3.2-.4.6-.3.3 0 .6.2.8.3h-.2c-.5.2-.6.3-.3.6l.3.2c.2 0 .3.2.3.3l-.1.4c-.1.2-.4.5-.9.6l.5.5c-.2.2 0 .5-.3.6v1.4l-.2.7-.6.2-.2-.2h-.4c0 .6-.2 1.2-.1 1.8l.7.1.7.2-.1.6c-.5 0-.5 0-.8-.5l-.2.3v.6h.4l.3-.1.8.3-.1.4c-.4.2-.2.4-.3.7 0 .1.6 0 .3.3-.4.2 0 .3 0 .4l.3.4v.7l.2.1c.3.3.4.7.3 1l-.3.3c1 .5 1.6 1.2 1.7 1.9v.4c.4.3.6.7.5 1 .7.5.7.5.5 1.1l.6.2c.2 0 .4.1.5.3l.2.4.1.2.4.2c.2.1.2.2.2.3l.3.4a7.5 7.5 0 0 1 1.7 1.4l.4.4c.5.4 1 .8 1.3 1.3 0 .1.1.3 0 .4.8.2 1.3.5 1.5.8.3.3.7.6 1.2.8l1.5.6c1 .3 2 .8 2.7 1.2l.7.4.5.1.2.2.3.2c1 .3 2 .7 2.7 1.1l1.3.5.9.4 1 .2c.4.1.6.4.9.4 1 .2 1.7.6 2.5.9.7.1 1.2.3 1.7.6l.5.1c1 0 2 .3 3 .6a29.4 29.4 0 0 0 5 1.2c1 0 1.8.3 2.8.4l-.1.2c.3.2 1 0 1.3.3l.4-.1c.5.7.6.7 1.8.6l1-.1h.7l-.2.4 1 .3 1.3-.2.1-.3c.8 0 .8 0 1 .2.3 0 .7-.2 1.3 0-.2 0-.4.2-.5.4h.7l.7-.2.2.3h1.3c.3 0 .6.3 1 0 .1.2.4.3.7.4l1.1.1h.4l.3.2c.4.4 1 .2 1.6.2l.9.1h.2l2.3.5h.5c0-.3-.5-.3-.7-.5l.2-.1.6-.2.8.1v.7l.3.1v-.2l.3-.2.7.2c.4-.1-.2-.3.2-.5.6.3 1.3.5 2 .2l1.1.4.2.6a6 6 0 0 0 2.8-.1l1.2.4h.3c.2 0 .2-.3.5-.2.3 0 .6-.1.9.1.2.2.8.3 1.2.2h.3c.1-.2.2-.2.4-.2.3.1.3.1.4 0 .5-.2 1 0 1.4 0l.6.7h1.2l.5-.4h.2l.1.3.3.1h.3c.2.1.3.1.4 0h2.6l.9-.2c-.2 0-.2.2 0 .2l.4-.2.5.3.6-.1c0-.2.2-.2.4-.2h.2l.3.1.2.5c.5 0 1 0 1.3-.2l3.5-.2c.3 0 .7 0 1-.2a432.6 432.6 0 0 0 1 0c0 .3.6 0 .8.4.2.3.5.1.7 0l2 .5h.3v-.2a.6.6 0 0 1 -.2-.2v-.3h.2s0 .2.2.2l.6.2.4-.1c.2.1.5 0 .8 0a2 2 0 0 0 1.5-.2h.4c.7 0 1.2 0 1.3.5h1.9v-.2h.7c.3 0 .4 0 .3-.2.3 0 .5.2.8 0 .3 0 .4 0 .4.3h.9c.5.2 1 0 1.5 0l.2-.4 1.1.3a7 7 0 0 0 1.8-.3l.3-.2c.2.3.5.5 1 .5h.5c0-.2.4-.3.6-.3.7-.1 1.3-.3 1.7-.7.5.5 1.5 0 1.8.6.2-.4.2-.4.9-.5l-.4.4.3.4.3-.2c.4-.1.6-.4 1.2-.3.1 0 .1-.2.5-.2.4.1.6 0 .8.3l.3.1.1.1h.1-.3c0-.1.2-.3.4-.3l.7-.2.6.3c.5-.2 1.2-.2 1.4-.6.5 0 1 .2 1.3.1.4 0 .7.3 1.2.1v.2-.1l-.4-.6.3-.2h.6l1.4-.1v.4h.3s.4-.2.6-.1h1.2c.8-.1 1.6-.2 2.4-.1l1.6-.3c.5.2 1 .3 1.5.1l-.2.2v.1h.2v-.3h1.9l.3.3c.4 0 .5-.3.7-.4h.8c.2 0 0-.3 0-.5.4-.2 1.2 0 1.6-.2l.6.4c.2 0 .5 0 .6-.2 0 0 0-.2.2-.2h.3c.1 0 0 0 0 .1l.1.2.2-.1.3-.3 1-.3c.4-.1.5-.1.8.1l.4.3.4-.4.8-.2v.4-.3h.5l.2-.2.8.2c.2 0 .3 0 .3.2v.2c.2 0 .2-.1.3-.2v-.2h.6l.2-.2.5.6.2-.4h.5v-.2c-.5 0-.6-.1-.5-.4h.4c.3.2.4.2.5-.1l1.4.3.7-.3.3-.1h.3a1.5 1.5 0 0 0 .8 0c.3-.2.5 0 .6.2l1.4-.3v.5a4 4 0 0 1 1.6-.5l.5-.2c.2 0 .3-.2.4-.3h.7l.6.2h-.2.2c.4 0 .4-.2.5-.4l.6.3.2-.3h.7l.6-.3h.3l.5.4.7.1h.3l.2.2h.7v-.7l.7.3c1-.5 2.2-.8 3.6-.9l2-.2c.3.1.7.4 1.3.3.7 0 .7 0 1.3-.5.7 0 .8.4 1.2.6l.7-.4-.4-.2.3-.5.5-.1-.3-.4h1.8c.2-.3.8-.4.9-.8.3 0 .4.1.3.3 0 .2 0 .2.2.3.4-.2.3-.4.5-.6a5.6 5.6 0 0 0 1-.4 2.2 2.2 0 0 1 1.4.1l2-.7c.6.1.7.3.8.6.3 0 .5 0 .8-.2l.6-.3.3.3a3 3 0 0 0 1.1-.1 4.3 4.3 0 0 1 2-.2l.1-.5.3.4c.4 0 .2-.3.4-.4a14.4 14.4 0 0 0 1.6.3l.3-.1 1.5-.6-.2-.3c.5-.3.7.1 1.1.2l.2-.3h1.7l.4.1 1.1-.3-.2-.2c.4-.2.7 0 1 0 .1-.2.5-.2.8-.2l.7.3h1c.4.2.7 0 1-.1-.3-.3-1.2-.1-1.2-.6l.7-.2.3.4a15.4 15.4 0 0 1 1.5 0c.2-.2-.1-.3-.3-.5.4-.1.6-.4 1.1-.6.6-.1.5-.3.2-.6-.1 0-.2-.1 0-.2h.3l.4.1v.6l1-.5h.6c.2 0 .6-.3 1.1-.2h.6l.4-.2.6-.4h-.1v-.3l.3-.1h.5c.7-.1.7.1.8.4h-.5s.2.1.2 0h.3v-.1c.4-.5.6-.7 1.5-.4a2.2 2.2 0 0 0 1.1 0c-.2 0-.3.3-.7.3v.1-.1c.5 0 .5 0 .6-.3-.2 0 0-.3-.3-.3l.5-.1.5.3.5-.5.4.2c.2.3.6.3 1 .2l.2-.7 1.6-.1h.4c.5 0 .7 0 1-.2a158.4 158.4 0 0 1 .5.1l-.2.1h.3l1.2.1.8-.2c0-.2 0-.3-.2-.4 0-.2-.3-.3-.5-.3l-.2-.2 2-.5.2.1h-.1c.6-.1.6-.1 1-.5l.2.1.2.2 2-.2c.7-.1.7-.1 1.3-.5-.4-.3-.7.1-1.1 0l-.3-.4h.8c.4 0 .4-.3.5-.5l.4.2c.1 0 .3 0 .4-.2.8 0 1.5-.3 2-.6l.5.1c0 .2 0 .3.4.2l.3-.1-.4-.2c0-.3.3-.4.7-.4l-.1.2h.2l.2-.2h-.3l.6-.3v-.3h.6l.4.4h.2c.2-.3.7-.4 1.1-.5.2-.2 0-.2-.2-.2a4 4 0 0 0 -.3-.2c.4-.2 1-.1 1.3-.4h.5l-.4.4a1.4 1.4 0 0 0 .5 0h.2l.1-.2 1-.5c.3-.2.6-.3 1-.2l1-.1h.1l.2-.1c0-.1 0-.2.2-.2l.4-.2a2 2 0 0 1 .9.1c.2-.1.2-.3.5-.4l.9-.1.2-.5h.8v.3h.9l.7-.2.5.1h.5c-.1-.2-.2-.5-.7-.4l-.7-.9c.3-.2.8-.2 1.1-.3l.2-.2.5-.2v.4h.2l.2-.3c0-.1.3-.3.6-.3l.3-.2.7.2c.2 0 .4-.2.4-.3s0-.2-.2-.3a7 7 0 0 1 1.7-.2c.2 0 .4 0 .5-.3.2-.3.2-.3.7-.3h.3v-.2l1.3-.2h.3c.2 0 .4 0 .5-.2l.3-.2a2 2 0 0 0 1-.3l.2-.1c.7 0 1-.4 1.4-.7h-.7c0-.2.2-.3.4-.4h2l-.4-.8h.9l.1-.1h1.3c.3-.2.1-.4-.2-.5.2-.2.6-.3.4-.6l1-.3.5-.1.2-.3h.5c.2 0 .6.2.7 0 0 0 .1-.1.2 0 .3 0 .5-.2.5-.3 0-.4 0-.8.3-1.1l.6.2 2.6-1.4.6.2.9-.5-.1-.3c.6-.1.6-.1.9-.6.3 0 .6 0 .8-.2.2 0 .4-.2.4-.3l.4-.3.8-.1c.3 0 .5-.2.6-.3.2 0 .5 0 .5-.2l.1-.3.4-.3c.3-.2.3-.5.8-.7 0-.2-.1-.3.2-.3s.4-.2.6-.3v.4h.5l.6-.4c-.3-.2-.7-.4-.3-.7-.1-.3 0-.7-.6-.9l-.1-.2c.3-.2.3.1.6.1l.8-.4.3.1a4.5 4.5 0 0 0 1.5-1.2l.6-.6c-.1-.3.2-.5.4-.7l.5-.7.3-.7.2-.4c.4-.4.2-.8.5-1.2l-.2-.6a1 1 0 0 1 0-1c.1-.4.2-.7.1-1 0-.5-.3-1-.4-1.6l-.1-.2v-.7l-.5-.5-1.1-1.8c0-.3-.4-.3-.6-.4l-.9-1.2c0-.1-.1-.3-.4-.4-.4-.2-.6-.6-1.2-.8l-.2-.1c-1-1-2.1-1.8-3.4-2.6l-1.7-1-2.3-1.3-.8-.4h-.4c-.5-.5-1.2-.8-2-1v-.2h.9c0 .1 0 .2.2.2 0 .1.1 0 .2 0l-.1-.1h-.3c0-.3-.4-.4-.7-.4-.6.1-1.1 0-1.7-.2l-.6-.2c-.2 0-.8 0-1-.3-.2-.2-.8-.1-.9-.4-1-.5-2-1.1-3.5-1-.2-.3-.3-.6-.8-.7-.4 0-.8-.3-1-.5l-.7-.3-1.2-.4-1.1-.5-1-.3c-.6-.2-1.1-.6-1.9-.6l-.4-.1-.7-.2a1 1 0 0 1 -.6-.2h-.5l-.6-.5a3 3 0 0 0 -1.8 0c0-.3-.3-.5-.7-.7-.3-.1-.8-.3-1.3-.3l-2.2-.4-2.8-.5-.6.1c0-.1-.2-.3-.5-.4l-.8-.1-.2-.4-.9.5c-.3-.1-.4-.3-.8-.2h-.5l-.3-.3c-.2-.2-.6-.1-1-.1a2 2 0 0 1 -.5-.1 1 1 0 0 1 -.4-.2c-.2-.2-.6-.2-1.3-.3l-.6-.1.3-.2h-.1c-1 0-2-.3-2.9-.6l-.7-.2c-1.1.1-2-.3-3-.4a17.8 17.8 0 0 1 -3.2-.5 9 9 0 0 1 -.9-.2c-.3-.1-.7-.2-.9 0-.5.1-.9-.2-1.3-.1l-.3-.1c-.5-.4-1.2-.4-1.9-.3l-.9-.1c-.5-.1-1 0-1.3-.3-.4-.2-1 0-1.2-.3-.6 0-1-.4-1.7-.2l-.5-.5-.6.3h-.2a1.4 1.4 0 0 0 -.6 0h-.2l-.4-.3-1.2.2a16 16 0 0 0 -4.3-.8h-.2l-1-.1h-1.1c-.5-.3-1 0-1.4 0-.6-.2-1-.6-1.7-.5l-.4.3-.3-.4.4-.4c-.4-.1-.7 0-1 .1l-.2.2h-.4a2.1 2.1 0 0 1 -.9 0 8 8 0 0 0 -1-.1l-.4-.1c-.3-.3-.5-.3-.8 0-.4.2-.7.2-1.3 0a1 1 0 0 0 -.4-.3 7 7 0 0 0 -1.3 0c-.8.1-1.3-.1-2-.2v-.2c-.2-.3-.6-.2-.8-.2l-.3.3-.4-.3-.8.1h-.9l-1 .2h-1l-.7-.1.2-.1h-.3a7.1 7.1 0 0 1 -3-.3c-.6-.2-1.3-.2-2-.2-.4 0-1 .2-1.2-.2h-2.5l-.3.2c-.4 0-.8 0-1.2-.2-.4 0-.8-.3-1.3-.2-.5 0-.9-.2-1.3-.1-1 0-1.8-.3-2.7-.3l-.4-.5h-.3c0 .4-.3.5-.7.5s-1 .2-1.5 0h-.3l-.1.1c-.5.4-1 .3-1.6.3.1-.3.6-.3 1-.3l-.6-.2h-2.2a54.3 54.3 0 0 1 -4.1 0h-2.7a43.8 43.8 0 0 1 -4.2 0c-.1-.3.4-.2.7-.3a8 8 0 0 0 -.6-.2h-.6a3.6 3.6 0 0 0 -1.5 0l1.2.3c-.1.3-.6 0-.8.3l.4.1c.4 0 .3.2.1.4l-.8-.1a25.3 25.3 0 0 0 -3.5 0h-2c0-.2.3-.1.4-.2v-.2l-.2-.1h-.3c-.3 0-.4.2-.6.4l-.1-.3h-3.8l-.5.1c.1.2.5.1.7.2l-.4.2h-1.5l-.4-.5-.3.1a6 6 0 0 0 -1.7 0 8.2 8.2 0 0 0 -2 0c-.8-.2-1.6 0-2.3 0l-2.3.1-2 .1h-2.7a19790.6 19790.6 0 0 0 -2.6 0c-.5 0-1 0-1.6.2-.3 0-.7.2-1 0a.4.4 0 0 0 -.2 0c-.6.3-1.3.1-1.9.1l-1.3.1c-.4.2-.7 0-1 0-.4 0-1 .3-1.4 0a.4.4 0 0 0 -.3 0c-.9.3-1.9.1-2.8.2l-3 .3h-.9c-.3 0-.4 0-1.1-.3l-1.5.6s.1.2 0 .2c-.2.2-.4 0-.6 0 .3 0 .2-.1 0-.2a.7.7 0 0 1 -.3-.3v-.3h-.4c.6-.3 1.2-.6 2-.3.6-.4 1.3-.4 2-.3v-.1c-.5-.2-1-.3-1.6-.1h-2.6l.7-.4a90.2 90.2 0 0 1 2-.1c.2 0 .3-.1.3-.2v-.2h-.1l-.2-.1c-.5 0-.2.3-.5.3-.2.1-.5 0-.7-.1 0 0-.1-.2-.2-.1-.5 0-1-.2-1.5 0h-1.1c-.4 0-.9 0-1.3.2h-.3l-1.2-.1h-.4c-.2.3-.4.3-.5 0h-.3l-.6.1a2 2 0 0 0 -.3 0l.2.1h.2s0 .2-.3.2l-1 .2.4.3h-.2c-.2.1 0 0 0 0h.2a3.9 3.9 0 0 0 1.8 0h1.9c0 .2.1.4.5.3a13.8 13.8 0 0 0 1.6.5h1.4l-.3.6-1 .1c-.2 0-.3.2-.4.3-.1.2.1.2.2.3l.1.3c-.7 0-1.2.3-1.9.3l-2-.4-.4.1-.6-.4-.8.2c-.3-.1-.4-.3-.8-.2l-4.1.2-.7.2c-1 .5-1 .5-2.3.5a2 2 0 0 0 -.6 0 2 2 0 0 1 -1.1 0c-.3 0-.6-.1-.8 0-.8 0-1.5 0-2.3.2h-1.2a10 10 0 0 0 -2.4.3l-.3.4h-.3l-.7-.2a3 3 0 0 0 -.8 0l-1 .1 1.5-.5.5.2.2-.3h.9v-.2c0-.3 0-.3-.4-.3h-.4c0-.1 0-.2-.3-.2v.1l.2.1h.2a3.5 3.5 0 0 1 -1.3.4c-.6 0-1 .4-1.7.4l-.2.1v.2h.7v.6l-1-.2-.2-.3-.5-.1h-.4l-.5.1h-.7a9 9 0 0 1 -.6-.2l-.2.2v.2l-1.2-.2-1.2-.1c-.3.1-.4.4-.8.5-.2 0-.2 0-.3.2-.4.3-.4.3-1 .1a.6.6 0 0 0 -.3 0l-.3.2-.4-.3h-1.4c-.2 0-.5 0-.8.2l-.9.2-2.5.2.8-.4.3-.6c.7 0 1.3-.3 2-.2a.6.6 0 0 0 .2 0l.9-.3h-1.4l-.2-.4h.2a2 2 0 0 0 1-.1l.7-.1.4-.1.3-.2.5-.2.3.3-.6.4-.2.5h.5c1-.2 2.1-.3 3.2-.3.4 0 .8-.1 1.1-.3l.1-.3.3.2c.4.4.9.5 1.5.2l.7-.3c.7.1 1.4 0 2-.3l-.8-.3c.2-.2.6-.1 1-.2l.2.4c.5 0 1-.3 1.4-.1h.3a16449.8 16449.8 0 0 0 -.4 0c0-.3-.6-.3-.7-.6-.3.2-.7 0-1 0h-1c0-.2.5 0 .7-.2-.1-.2-.4 0-.6-.1l-.7-.2h-.6l-1.8.5.4.3-.5.2h-.2c0-.3.2-.4-.1-.6a.5.5 0 0 1 -.2-.2v-.2h1c.2.2.3.1.5-.2.8-.1 1.6 0 2.4-.4l-.5-.2c.3-.2 1-.4.7-.8.6 0 1.2-.2 1.5.3h1l-.8.3.3.1 1.9.1c.8 0 1 .1 1.4.6v.2h-.6l.1-.2c-.1 0-.4-.1-.4 0h-1.7c.4.4.4.4 1 .3h.2c0 .4.6.2.9.4l.5-.2.8-.1.2.7h1c.2 0 .2-.1.3-.2h.9l.8-.1.1-.1-.5-.2-.7.2-.6-.4-.2-.3.4.1h.2l-.3-.1h-.3l-.3-.1c0-.3-.4-.2-.7-.3 0 0 .6-.1 0-.3l.3-.1h.5c.5 0 1 0 1.4-.2.7-.1 1.4 0 2-.2l.4.4 1.2-.6 2.8-.1-1.5-.7h1.2l1.1.3-.4.2c.5.1.5.1 1.3-.2l.4.3a.9.9 0 0 0 .5 0c.2-.1.2-.2 0-.4v-.1l2-.1c.3.2-.2.1-.3.2l.5.2-.5.3h.4c.1.1.3 0 .4 0 1-.7 1.7-.8 3-.5l.5-.1.4-.1c-.3-.3-.9.1-1-.3l1.2-.2.4-.3s-.2 0-.3-.2c.8-.3.8-.3 1.5.3l-.2.2-.3.2.2.1 2-.1h.8c.6 0 1.2 0 1.8-.3h.1c.4.2.8 0 1.2 0l.9.2-.4.6c-.1.1-.7 0-.5.3h-.2l-.3.2-.2.1h.6a23 23 0 0 1 2.6-.2h.6c.4.3.9.2 1.3.3 0 0-.2.2-.1.3h.5l.5-.2v.4h-.5l.6.2-.1-.2h.4c.2.2.4.4 1 .3l-.4-.3.4-.6h.1l.5.3c.4.2.7.2 1.1 0l.6-.2c-.4-.2-.7-.3-1-.2h-.5c-.3-.2-.7 0-1.1 0-.4-.1-.8 0-1.1.3-.1-.3-.2-.4-.5-.2-.2.1-.2 0-.4 0-.1-.2 0-.3.3-.3l1.8-.2h3.4l.8-.2-.8-.4-.5.1c-.4.4-1 .5-1.5.2a1 1 0 0 0 -.4-.3 34.1 34.1 0 0 0 -2 0c.3 0 0-.4.6-.4l1-.1 1.2-.1a6 6 0 0 0 2.2-.4 1.8 1.8 0 0 1 1 .1c.2 0 .4.2.7 0l.3.2.2.4c-.2-.2-.4-.2-.7 0l-.8.3.7.3h2a77.4 77.4 0 0 1 6.1-.4l-.3-.4h-2.4l-.5.4c-.6-.2-1.1.1-1.5 0l-1.2-.4c-.3-.2-.4 0-.6 0l-.3-.2c.1-.3.7 0 .9-.2.5 0 1 0 1.4-.2h1v.4h1.2c0-.6.9-.4 1.3-.6v-.3l.5-.3c.3.3.9.2 1 .5h2.6v-.3h2l-.1.3.8.4c-.3.4-.5.4-.8.2l-.6-.3v.4l-.6.3h-.2a.7.7 0 0 1 -.4 0 1 1 0 0 0 -.4 0l-.2.1.1.2h1.5a42 42 0 0 1 3.9-.1h.2c-.2.2-.2.5-.6.5-.7.1-1.2.4-2 .2.2-.2.7-.1.8-.3v-.2c-.7-.1-1.2.1-1.8.2-.1.4.4.4.7.6h1.1l-.5.4c.6 0 1 .1 1.6 0l-.3-.5c.8-.2 1.6 0 2.3 0 .4 0 .8 0 1-.3a8 8 0 0 0 2.8 0l-.6-.4-.8.2c0-.3.3-.4.5-.5l1.3-.1.3-.2-.3-.2h-.5l-.5-.1c-.1-.2-.7 0-.8-.3a3 3 0 0 0 -.4 0c-.5.2-.5.2-1 0l-.3-.1-1.5.3v-.3l1.2-.3h2.9l.4-.5c.3 0 .6 0 .7.2l.3.2c.4 0 .1-.2.2-.2l.2-.2.6.2.1.2h.2l.3.1h4.3l-.3-.4c.5-.1 1.1-.2 1.5 0 0 .2.3.3.6.4h1.2l.1-.3c0-.2.2-.3.5-.3a9.8 9.8 0 0 1 1.5.1h.3s.2-.1.2 0c.7.3 1-.3 1.4-.2 0-.4-.7 0-.7-.4a4.7 4.7 0 0 1 1.7 0l.1.6-.2.1a23.4 23.4 0 0 1 -1.6.1l-.4.2.5.3c-.2 0-.2.1 0 .2l.2-.1h.2l.7-.3a4 4 0 0 1 1 0c.4 0 .7-.2.9-.5h.7l.4.1c0 .1.1.2.3.2h.5c.7 0 1.4.3 2.2.1h.3l.8-.1-.4-.3.7-.3.3.1c.2.2.4.4.9.5l.5.1 1.2-.4c.4.1.1.4.4.5h1.3l.8.2c.3 0 .3 0 .3.2s.3.1.5 0l-.2-.3h-.6s.2-.2-.2-.3c-.4 0-.8 0-1-.3.6-.3.6-.3 1.3 0v-.4c.6 0 1-.2 1.6 0a.7.7 0 0 0 .3 0c.6-.2 1 0 1.5.2h-2.4l-.4.1c1 .7 1.2.7 2.3.3h.2c.3-.2.1-.3.2-.5h.5l1.1.7c.5-.3 1.3 0 1.7-.5.4.2.8.4 1.3.3l.3-.2c.6-.3.6-.3 1.2 0l-.5.2.2.1h1.1c.4 0 .7.2 1 .3l.2.2h.8c.3.2.6.2 1 .3h1c.7 0 1.4 0 2 .2l1-.2c.2 0 .2.2.2.3l-.4.2.8.1c.2 0 0-.3.3-.3h.7c.3.2.7.1 1.1 0h.7c-.3 0-.7 0-.9-.3l.6-.2c.2-.2.4-.2.8-.3v.5c.1.2 0 .2.3.3.6.3 1.5.3 2.2.4.1.2-.2.2-.3.3.1.1.2.3.4.3l.3.1v.3l.4.2.2-.2.2-.1.3.3c.7.2 1.5-.2 2.1.3l.5-.3c0-.3-.7-.2-.5-.5l-.4-.1-.8-.1c-.3 0-.2-.2-.3-.3h1.7l.4-.1 1.2-.6.3.6h-1.2v.2l1.1.2h.5c.2-.5 1-.4 1.3-.6l.7.3.3.4c.1.2 0 .4-.2.6.4 0 .6 0 .7-.2 0-.2.3-.3.6-.2.1.3.2.3.8 0 .8.3 1.7.3 2.6.4l-.2.2-.2.1a2 2 0 0 0 -.6 0c-.2 0-.4 0-.5.2l.2.4.6.2.6.1 2.1.1 1.2-.3c-.2-.2-.5-.2-.7-.2h-.6c-.3-.3-.7-.2-1.1-.2-.5 0-.8-.2-1-.4a2.8 2.8 0 0 1 1.3.1l.5-.4h.7c.5 0 1 .3 1.6 0l.3.1v.5h1.1l.4-.1h.3l.3.3c.7.1.7.1 1-.1l-1 .1c.6-.3.7-.4 1.3-.4.3 0 .2-.3.6-.2l1 .2c.8 0 1.6.2 2.3.3l.4-.3c.9 0 1.5.4 2.3.5l.6.2.7.1.8.3v.4h1l.3-.3 1.8.2c.2.4 1 .4 1.2.8l.5.2h-.6.6l.2-.1h2.2c.5-.2 1.1-.3 1.6 0h1.4l1.3.5c.4.1.6.4 1.1.5l.3.2c.3.2.7.3 1.2.2 1.3-.2 2.2 0 3 .7l.2.2 1.2-.1s.1.3.3.3.4 0 .6.2l.4.2.1.1.3.1h.4c.2-.2.4-.2.6-.2h.7l.8.3h1.8c.2.2.4.5 1 .4h1l.8.4.8.4c.4 0 .5-.2.8-.3h.3v.5l.6.2 1.3.3a1 1 0 0 0 .5 0 1.8 1.8 0 0 1 1 0l1.6.5.5-.2c.8 0 1.5.3 2 .6l.3.2c.1.2.5.3.8.4.4 0 .8 0 1 .2l.4.1h.4c.2 0 .3.1.3.2l-.2.2.1.1c.3.1.6.1.8.3l.8.3h1c.6.2 1 .6 1.7.5l.5.2c.4.2.4.6 1 .5l1.2.6.7.2c.5 0 .6.3 1 .5.3 0 .8 0 1 .2 1 .7 2.2.9 3.4 1.3l.4.1c.2.3.5.5 1 .6l.9.5c.6.3 1.2.6 1.6 1 1.2.2 1.8 1 2.8 1.3l2 1.2c.9.5 1.4 1.2 2.3 1.7.8.5 1.5 1 2 1.6l.6.5.7.5c.4.2.5.4.6.7v.3l.5.3.4.2c0 .3.3.6.6 1 .3.2.6.4.7.7 0 .3.3.5.8.5l-.2.6.4.6.8 1.3v.4l.2.7.3.7a45.7 45.7 0 0 1 .4 3.6l-.1.2c.1.4.1.8-.1 1.2 0 .4 0 .8-.2 1.2-.1.4-.3.7-.6 1-.6.4-1 1-1 1.4s-.2.8-.6 1.1a1 1 0 0 0 -.4.5v.4l-.2.2c-.6 0-1 .2-1 .6v.2c-.1.2-.5 0-.5.3l-.6.8-.3.2c-.8.4-1.5.9-1.9 1.4l-.7.6-.3.3-.1.1-.3.1a24.7 24.7 0 0 0 -2.2.8c-.2 0-.2.2-.2.3l-.2.4c-.5 0-.7.4-1.3.3-.3 0-.7.2-.6.4l-.1.5-.5.4-2 1-.8.3c-.2 0-.3 0-.2-.2l.4-.4c-.6.1-.6.1-.4.5-1 0-1 0-1.3.6h.5l-.6.5c-.8 0-1 .4-1.4.7l-1.2.8c-1 0-1.1 0-2 .5l-1.4.7a7 7 0 0 1 -1 .3c-.3.2-.5.5-.9.6-.8.2-1.4.5-2.4.5l-.1.5c-.3.2-.5 0-.8 0l-.2.4-1.2-.1c0 .2 0 .5-.3.7l-1.1.4a2 2 0 0 0 -1 .4c-.2.1-.5 0-.8 0 0 .2-.2.3-.4.5l-.9.3-1.3.2c-.6-.2-1 .1-1.5.1l-.1.1.1.1h.4l.2.2c-.8 0-.8 0-.5.4l-.7.2a4 4 0 0 1 -1.6.6h-.3c-.5.4-.6.4-1.5.4-.2 0-.2 0-.5.3h-1.4l-.1.4c-.2.2-.4.4-.9.3-.4 0-.3 0-.2.4l-.8.2-.4.1h-.6c-.3 0-.7 0-.7.3v.1l-.6.4c-.7 0-1.4 0-2 .3l-1.9.3-.2-.2-.3.2-1 .3c.2.2.3.4 0 .6-.8 0-.8 0-1.5.2h-.2c-.2.3-.4.4-.8.3h-.4l-.2-.2h-.2v.1l.5.1c-.4.3-1 .3-1.5.5a7 7 0 0 1 -.7 0c0-.2-.4-.2-.8-.3a2 2 0 0 0 -1 .5l.8.1a3 3 0 0 1 -1.3.6c-.9.1-1.7.4-2.3.7a2.7 2.7 0 0 1 -1 .1v-.1h-.2.2l-.1.2-.3.1-1.6.3h-1.1c-.3.5-1.2.5-1.7.7l-.5-.1c-.5 0-1 0-1.5.3l-.6.1c-.2.2.3.3 0 .5l-.9.1.2-.6-.4.3h-.3l-.3.3h-.3v.2h.2v-.3l.6.1-.1.4-.9.1-1 .5c-.3-.1-.6-.3-1-.1l-1.7.3-.6-.2-1.1.2v-.3h-.3c-.5-.1-.5-.1-.5.2h-.7a1.3 1.3 0 0 0 -.8.5l-.3.9h-.5l-.4.2-.4-.2c-.3 0-.5.3-1 .3a9.8 9.8 0 0 0 -2.6.2 2.4 2.4 0 0 0 -.9 0l-.3.2-.2.2-.8-.4-.2.1c0 .3-.2.5-.7.5-.2 0-.4 0-.4.2 0 0 0 .2-.2.2l-1.7.5h-1.4l-.3.3-.2.2h-.4a1.9 1.9 0 0 1 -.7 0c-.3-.1-.4-.2-.7 0l-.3-.2c-.2-.2-.5-.3-.9-.3-.2.1 0 .2.2.3-.4.3-.9.2-1.4 0l-.7.4h-.2a1.5 1.5 0 0 0 -.5-.3.7.7 0 0 0 -.3 0h-.2l-.5.3c-.3.2-.4.3-.9 0h-.2a1 1 0 0 0 -.3 0c-.3 0-.6 0-1 .2-.5 0-1.2-.4-1.6.3h.9v.1c-.4.4-1.1.5-1.7.7h-.3c-.4-.1-.6 0-1 .1-.3.1-.6.2-1.1 0-.2 0-.6 0-.9.2 0 .3.4.1.6.2h-.1c-.3.2-.6.3-.8 0h-.6a5 5 0 0 0 -.7 0c-.1 0-.3 0-.5-.2l-.3.1c0 .1-.2.3-.4.3a2 2 0 0 1 -.7.2h-1c-.3-.3-1 0-1.4-.3-.4 0-.9.1-1.2.3-.2 0-.2.1-.3.2v.3c-.9.5-2 .2-3 .1 0 .3-.4.1-.6.1l-.4.4c-.3-.1-.4-.4-.8-.5h-1.1a1 1 0 0 0 -.3 0l-.3.2c.2.3.5.2.7.2.3 0 .6-.2 1 0l-1.5.3h-1.6a2 2 0 0 1 -1.5.4h-.4c-.3 0-.4.4-.9.3-.4 0-.6.2-1 .3-.2 0-.4.2-.7 0l.5-.2v-.6c-.5 0-.2.2-.4.2l-.4-.1-.8.4-.5-.5a14.7 14.7 0 0 1 -1.2.1l-.3.2c-.1.2-.4 0-.6 0l-1.2.1c-.4.1-.7.2-.9.4v.2h-.3c0 .4-.3.5-.7.6l-1-.3c-.4-.1-.8.2-1.2-.1.3-.2.7 0 1-.1s.7-.1.8-.4h-1.4c-.4.2-.9.3-1.4.2l-.7.1-.2.3c.3.1.1.2 0 .3v.3h-.1c-.4-.1-.1-.5-.3-.8l-1.2.9s-.5-.2-.7-.1h-1c-.3 0-.5.2-.8.3a.7.7 0 0 0 -.7 0c-.7.3-1.5.2-2.2.3l-.2-.2c.2 0 .3 0 .5-.2l.2-.3c-.3-.1-.6-.1-.8 0a6 6 0 0 1 -1.6 0h-2.6c-.2.2-.5.4-1 .3-.5 0-.5.2-.7.4-.6.1-1.4 0-1.6.5-.3 0-.6-.1-.4-.3v-.2h-.5l-.2.2c-.2.2-.4.3-.9.2l-.3.2h-.6l-.1-.5h-.3c-.4 0-.8.2-1.2.1l-.4.2c.2.1-.2.3.1.5.3-.2 0-.4 0-.5l1.3.5-.2.3h-3.2c-.3 0-.5 0-.6-.3-.7.1-1.5 0-2 .4l.2-.6h.8c.3 0 .7-.2.6-.4l-.3-.1h-.4l-.3.1c-.1.2-.3.2-.5.2l-.8.2.2.3.5.3h-.1l-.4.1-.2-.3h-2.3l-1.6.2c-.2 0-.2 0-.2-.2l-.4.2c-.3.1-.4 0-.5-.2v-.1h-1v.3l-.2.2-.4-.1s-.2-.3-.6-.2c-.3 0-.7-.2-1 0-.2 0-.2.3-.6.3h-.7c-.4-.4-.7-.4-1.6 0-.1.1.5.2.4.4-.8-.2-.8-.2-1.5 0l-.7-.3-.7.1c0-.5 0-.5-.7-.6l-.7-.2h-.5l.2.1.3-.2v.6c-.4.2-.7.2-1 .1h-1.1c-.4.2-1 0-1.3.3l-1.4.1c-.3 0-.3-.3-.7-.3l-1-.3a7 7 0 0 1 -1.3.3c-.5 0-1 .3-1.6.1-.3 0-.5.3-.9 0-.3-.2-.6 0-.9 0l-.6-.3c-.2 0-.3-.2-.5-.3h-.3v.3c.1.2 0 .3-.3.3h-1l-.2.2v.3l-.1.2a3 3 0 0 1 -.5-.2 6 6 0 0 1 -.6-.5c-.6 0-1.1-.2-1.9-.1v.3h-.1a.7.7 0 0 1 -.3 0h-.1c-.3-.2-.6-.3-1-.2h-.4c-.4-.3-1-.2-1.5-.3l-.7-.2h2l-.6-.4-.3-.1c-.5 0-.4-.3-.8-.3h-.3v.3c-.9 0-.9 0-1.1-.4l-.7-.4h-.5.3v.2l-.4.3c-1 0-2 .3-3.2.2l-.7.2c-.6-.1-1-.4-1.6-.2a5.8 5.8 0 0 0 -2.1 0h-.2v.1c0 .1.1.2.3.1h.5l.2.1c-.3.3-.8.1-1 .3l-1-.2a3 3 0 0 0 -1.2.2c-.7-.4-1.5-.2-2.4-.2-.2-.2-.7-.2-.9-.4.4 0 .6 0 .6-.2 0-.4-.4-.5-1-.5l-.4.2-.6-.2-.3-.1c-.7 0-1.4 0-2-.2-.1.2.2.3.3.4l.3.3c-.1.1-.3.2-.5.1h-1.2l-.3.4a13.3 13.3 0 0 0 -1.5.2l-.3-.3c0-.2-.2-.2-.3-.4-.6 0-1 .3-1.2.6-.5-.1-.7-.3-.8-.5l-.3-.2-.6-.2-.3.3v.2c-.8.2-.6-.3-.9-.4-.2 0-.2.3-.5.2h-.1v-.4l.2-.2c-.4 0-.8.1-1-.2h-.4a1 1 0 0 1 -.3 0h-.4c-.4-.3-1-.2-1.5-.2l-.2.2-.2-.3-2.5-.4-2.4-.3c-.2 0-.2-.1-.1-.2h1c.5 0 .8.1 1.2.3.8 0 1.7 0 2.3-.6l-.4-.1h-3.5a6 6 0 0 0 -1.6-.3c-.3 0-.5 0-.6-.2h-.2l-.2-.2-.2-.2c-.2-.1-.5.2-.7 0l.5-.4v-.1l-.2-.1c-.4 0-.5.1-.7.2l-.7-.2.6.3-.1.2h-.4c-.3-.2-.8 0-1-.2h-.2l-.2-.1c-.7.1-1.3-.3-2-.3l-.7.1-.5-.4-.6.2-.5-.2-1.2.2-.2.1h-.1v-.4l-.2-.2c-.6 0-1-.4-1.8-.4l-.8-.4.1-.3v.1h-.3l-.2.6c-.6-.2-1.3-.3-2-.3-.4 0-1.1 0-1.4-.4l-1.6-.3-.4-.5-.7-.2a.8.8 0 0 0 -.3 0l-.2.1c-.2.3-.4.2-.5 0h0a1.6 1.6 0 0 1 -.9 0 7 7 0 0 1 -.7-.3l-.3.5c-.8-.1-1.5-.4-2.3-.2l-.6-.6-.5.2v-.3c.2-.1.2-.3.2-.4 0-.2-.3-.3-.5-.4 0-.3.3-.3.6-.2.3 0 .3.1.4 0-.2-.2-.6-.3-1-.4h-.3l-.2-.2h-.1c-.7.1-1.2-.3-1.8-.3-.3-.3-.7-.2-1-.2h-.2l-1.4-.2h-1.4l-.3-.1 1.8-.4-.5-.2-.6-.1c-.2 0-.2-.2 0-.3l.4-.2h.1c.5 0 .5 0 .4-.3-1 .1-1 .1-1 .6l-.6-.1v-.3h-.7l-.8-.3-.1.4h-1l-.7-.7c-.3-.2.2-.3 0-.5a2 2 0 0 1 -.4-.4h-.4l-.2-.4-.7.3c0 .4.9.4 1.1.8l-1.4-.5-.3-.3c-.2-.2-.2-.4 0-.6.4-.2 0-.4 0-.6-.6-.2-1.1 0-1.6.3l-.5-.2-.6-.2-.2-.3-.4-.4c-.1 0-.3-.2-.5 0-.1.1-.1.2 0 .2 0 .2.3.4.5.5l-.6.2-.7-.4c-.1-.3-.7-.2-.8-.4l-.3-.3-.5-.2v-.3l.2-.3c.3 0 .6.2.6-.1 0-.1.1-.2.3-.2l.5-.1c-.2-.4-.9-.7-1.2-1 0-.1.4 0 .3-.2-.4 0-.2.1-.2.2a9 9 0 0 1 -1.6-1c-.3-.3-.6-.3-1.1 0h-.4c-.3-.2-.3-.3 0-.4h.6l-.2-.6h-.8c.3-.4.3-.5-.2-.7l-1-1.2h.7c-.8-.2-1.4-.5-1.8-.8l-.2.1v.4l.4.3c.2.1.5.3.4.4-.1.3.2.4.4.5v.1c-.3 0-.8 0-.8-.3l-1.2-.5-.3-.2v-.2l.3-.1c-.4-.3 0-.8-.9-1 .1.4.4.8.7 1.2zm251.9-51.3.3-.1h-.3v-.3h-.5l-.3.2h.9v.2h-.4zm-147 72h.1v-.2h-.3zm-93.8-14.2h-.4.5l-.2.2h.1zm80.7-66.1h.3-.3c-.1-.1-.1-.3-.4-.1h.4zm10.2 80h.2-.2l-.1-.1h.1zm-25.7 0c-.1-.2-.2-.3-.5-.1h.5c.2 0 .3.2.6 0h-.6zm209-50.8-.2.2c-.1.1-.1.2 0 .2v-.5l-.2-.1a.4.4 0 0 0 -.2 0l.1.1h.4zm-55.4-24.9h.2-.3s-.1-.2-.4-.1zm-74.2 72.3h-.2v.2l.5.1-.4-.3h.4zm116.6-59v.4l.3-.3c.3 0 .6 0 .6-.3l-.6-.2v.5h-.3v-.2h-.2c0-.1 0 0-.1 0h.1l.2.2zm-175.7 63.8.3-.1.1-.2h-.3l-.1.3-.2.2c.2 0 .3-.1.2-.2zm166.6-68.3h-.6l.2.2.2-.1h.1l.2-.2-.3-.2v.2zm-84.2 60.5c.3-.2.3-.3 0-.4-.1.1-.2.2 0 .3.4.3.4.3.8 0h-.8zm-49.3 7.3h-.2c-.2-.2-.3-.2-.3-.1h.5c-.2.2-.5.3-.4.5.5 0 .5 0 .4-.4zm-31.3-.2c-.2 0-.3 0-.3-.2l-1-.1c0 .2.2.3.4.2h.6c-.3.2 0 .3.4.6l-.1-.5h.3zm151.3-71c.1-.2.6-.2.5-.5-.3-.1-.5 0-.6.1v.3a4 4 0 0 0 -.4 0h-.1.6zm-131 70-.8.1c.4.3.4.3 1 .1l-.2-.2c.3 0 .5 0 .6-.2-.5-.1-.5-.1-.6.2zm37-2.5h.8c.3 0 .5-.1.3-.3l-1 .3h-.3zm-53.5 4.5-.6-.2-.8.2 1 .1.4-.1h.2v-.1h-.1v.1zm177-60.2-.5-.1.6.1c-.2.3.2.3.4.4.3 0 .4-.2.1-.3h-.6zm-55.8 42.1h.1c0 .2.1.4.5.4h.2v-.2c-.2-.3-.3-.3-1-.2h.1zm60-37.9-.1.2v.1-.3c.3-.1.7 0 .7-.4h-.5l-.4.2v-.4l.1-.3-.3-.2a.9.9 0 0 1 -.2-.3l-.4.1c-.1.2 0 .5.1.7.3.2.3.4.8.4l-.1.2h.2zm-198.5-25.3c.2-.2.8.1 1.1-.2l-1.1-.2v.4c-.3-.1-.6-.3-1-.2 0 .2.1.3.4.3h.6zm68.5 76.4c0-.2 0-.3-.3-.3l-.3.1.2.1h.4l.3.2h1c-.4-.2-.8-.4-1.3-.1zm22-79.8h-.6a1 1 0 0 0 -.4.1v.2h.7c.2 0 .3-.2.3-.2h.1-.1zm11.5 1.9c-.4-.2-.8-.1-1.2 0h.3a1.7 1.7 0 0 0 .6 0h.3l.4.2h.6c.2 0 .4 0 .3-.2zm94.5 24.4c-.2-.2-.3-.3-.5-.2h-.1c0 .3.3.2.5.2h.2c-.2 0-.3.1-.3.2v.4h.7v-.5l-.4-.1zm-28-13.5h.7c-.3-.2-.5 0-.6 0v-.2l-.9-.3-.7-.4-.6.2 2.2.7zm-75.4-11.3h1.6c-.2-.5-.4-.6-.9-.4l-.8.4c-.2-.2.2-.4-.2-.6-.5.2-1.3 0-2 .4h1.7l.5.2zm-34.5 79c.2-.2.2-.5 0-.9h.6l.1-.3h-.1a.5.5 0 0 0 -.3 0l-.5.1c-.1.1-.2.3-.1.4 0 .3.2.5.3.8h-.4c-.3-.1-.6 0-.7.2h.5v.3h2.3l2.3.2.4-.1-.5-.2c-.6 0-1.1-.2-1.5-.4a1 1 0 0 0 -.4-.1l-1.4-.2-.3.4c-.1.1-.3 0-.4 0v-.1zm-22.3-79 1.5-.4c-.5-.4-1.1-.3-1.9-.4l.3.6a11 11 0 0 0 -.9-.3 4 4 0 0 0 -.7 0c0 .2 0 .3.4.3l.7.1h.5zm78.7 1.6-.1-.2a1.2 1.2 0 0 0 -.5-.2.8.8 0 0 0 -.3 0l-.1.1-.3.3h1.4s0 .2.2.2l3.5.3-.2-.2a12 12 0 0 0 -3.6-.3zm-203.5 48.4c-.3 0-.3.2-.4.3l-.2.3c.1 0 .4.1.4.3 0 .4.1.4.7.5 0-.5-.3-1-.6-1.4.1 0 .3-.1.2-.2 0-.2-.1-.5-.4-.7-.2.3 0 .7.3 1zm93.3-49.3h1.7l-.2-.5h-1c-.4.1-.4.1-.5.5l-.5-.2c-.4 0-.7.1-.7.4h1c.1 0 .2 0 .2-.2zm158.4 9.5-.5-.1c-.1-.1-.2-.3-.5-.2v.2c0 .1 0 .3.2.3h.6l.2-.2c0 .1-.2.3 0 .4a6 6 0 0 0 .8-.2h.6c-.4-.1 0-.4-.4-.5l-.7-.3-.8-.2.1.4c.2.2.4.3.7.3h-.3zm-160.2-9.2c.1-.2.3-.3.2-.4l-.3-.2h-1.1c-.3.2-1 .2-1.4.4l-.2-.2-.5-.2h-.3l.2.2h.6l-.5.4c.3 0 .5.2.6.1.4 0 .8.2 1.2 0s.8 0 1.2 0l.4-.1zm-12.5 80.6-.1-.2h-.1l.2.2v.4l-.6-.2-.4.1h-.6l.4.3 1 .2 2.7.2.3-.1c0-.2 0-.5-.5-.6l-.4.2-.6-.3c-.2 0-.3.3-.7.2-.4 0-.4-.1-.5-.3h-.1zm50.4-1-.3-.1h-.2l.3.1h.2v.2l1 .3.3.4h-.6 1l-.2-.6c.6 0 1-.3 1.5-.4a32.6 32.6 0 0 0 -1-.6l-.2-.1-.2.1h.4c-.3.3-.3.3-1.4.4l-.7-.5.1.4zm59-81.5c-.3 0-.5.2-1 .1l.4-.3a3.4 3.4 0 0 0 -2 .1h-.3l-1.4-.2c-.3 0-.3-.3-.6-.2l-.6.2-.8.2h.3a60.4 60.4 0 0 1 3.4.4h3l-.4-.3h.3v-.1h-.4zm-19.2.4h1.4l1 .1h3.7c.4 0 .9.2 1.2.1h1.3l.7.1.5-.4-.2-.1h-.9c-.3 0-.4.2-.8 0-.3-.1-.5.1-.7.1h-1.1a3.3 3.3 0 0 0 -1.4-.2h-1a11 11 0 0 0 -2.5-.2l-1.7-.1c-.1 0-.3 0-.4-.2h2.7c.6 0 .7 0 1.2-.3-.6-.2-1.3-.1-2-.1l-.9-.6c-.1.2-.3.3-.6.3l-.8.1h-1.6l-.6-.2c.1.2.1.4.3.5l.9.1.3.1.4.1-1 .4h-.5l-.3-.1a1.9 1.9 0 0 0 -1.1 0 2 2 0 0 1 -.8.1c-.2 0-.5 0-.6-.2a1 1 0 0 0 -.8-.1c-.8.2-1.8.2-2.7.2l-.3.1.5.1h.4l.2.2.7.2h.3l.4-.6.6.4h1.7c.7-.1 1.1 0 1.7.2.1 0 .4 0 .5-.2l.2-.1-.2-.2c.6 0 .3.4.6.5l.2-.2.2-.2c.6.2.6.2.4.5l-.2.2c.6.2.5-.2.8-.2.4 0 .6-.2.8-.3zm-100.2 82.1-.8-.6c.4-.3.8.3 1.2 0-.2-.2-.5-.2-.8-.3h-.8c-.3 0-.5.1-.8 0l-.8-.1c-.3-.2-.8 0-1.1-.2h-.1v.3a2.3 2.3 0 0 1 -.9 0l-.4-.1a.7.7 0 0 1 -.2-.2 3 3 0 0 1 -1.2 0l-.3-.2h-.4c-.2.2-.4.4-.3.6.8.2 1.5.4 2.3.4h1s.3.1.4 0h.7l.6.2c.4.2.9 0 1.3.2zm79-83.9v.3h-.7c-.3.1-.5 0-.8 0-.4-.4-.9-.2-1.4 0h-.3l-.4-.2c-.3 0-.5.2-.7.3h-1.4c-.5 0-.6.1-.5.4h.4l2.6.1h3.6c.5 0 .8-.2.9-.5l-.6-.1zm-6.2 1.6h2.4l1 .1c1 0 2 0 2.8.2.5 0 .6-.3 1-.3v-.4a27.1 27.1 0 0 0 -2 0l-1 .2h-1c-.9-.2-1.8-.2-2.6 0-.2 0-.4 0-.6.2zm-19.3.7v-.4l-1.2-.3a65 65 0 0 0 -3.7.4c-.1.1-.2.2-.1.3h1.4c.2 0 .4.2.8 0l.3-.1.1-.2c0-.1.3-.1.4 0l.1.2h1.9zm66.3.5c0-.4-.5-.5-1-.5h-.8a3.5 3.5 0 0 0 -1.5-.1 2.8 2.8 0 0 1 -1.3-.1h-.2l.3.4.2.1c.6-.2.5 0 .7.3v0l1 .2c.2-.1.3-.3 0-.4-.2 0-.5 0-.4-.3l2.2.2h.8zm-36.2-1c.7 0 1.5-.2 2 .3l.5-.4 1 .1h.4c.2 0 .3 0 .4-.2.1 0-.2-.3-.4-.3h-3.7c-.2 0-.4-.2-.7 0-.2 0 .2.2.3.3l.2.1zm31.7 75.7h2.9l.3-.3-.4-.2-.3-.1h-2zm34.6-71.6 2 .2 1.8.3 1.8.3h.6l.5-.1-2.9-.5-2.8-.5c-.3 0-.7 0-1 .3zm-63.6-5.3-.2-.3-.5-.3c-.6.3-1.4.3-1.9.6l.3.2c.8 0 1.6 0 2.3-.2zm57.2 4.1c0 .3 0 .6.2 1 .7 0 1-.1 1-.4h1c-.6-.6-1.4-.5-2.2-.5zm-16.2-1.7h-.9c-.2-.2-.6-.2-1-.2s-.8.2-1.1 0c-.2-.1-.6 0-.8 0h-.2v.1h.1l.5.2a21.6 21.6 0 0 1 3 .1h.2zm2 71.5c1 .3 2 .2 2.6.5l1-.2c-1.2-.1-2.1-.6-3.5-.3zm-35.6-74c-.6-.3-1.2-.2-1.8-.3l-.1.3-.2.2 1.6.2.5-.5zm-98.4 81.4.1.2h1.5l.3-.5h-1c-.4 0-.7.2-1 .3zm119-3 .8.2h1c.3 0 .5 0 .8-.2h-1c-.2 0-.5-.1-.8 0h-.7zm34.4-74.4h.2l.3.1a1.6 1.6 0 0 0 .5 0h.5a1.7 1.7 0 0 0 .9 0l-.6-.3h-1.2l-.5.2zm-2.6.8 2.8.4h.4l-1-.2c-.6-.3-1.2-.3-1.8-.4-.1 0-.4 0-.5.2zm-76.6 76.9-.6-.3-.3-.1h-.4l-.4.8h.2l.6-.4zm-135.9-37.3c0 .4-.3.8-.1 1.2.3-.3.7-.4.7-.7s.1-.3-.7-.5zm264.1 12-1.1.6h-.1v.3h.3l1.2-.5zm-120.6-54.3v.1c.6.2 1.2 0 1.8 0 .4.2 1 0 1.5 0-1-.2-2.1 0-3.3-.1zm-28 81.4c.2-.3.1-.5-.2-.7h-.3a2 2 0 0 0 -1.2 0c1 .2 1 .2 1.6.7zm15.8-2.3c-.9-.3-.9-.3-1.6 0l1.1.3zm-35.7 3.2c-.5.3-1.1 0-1.7.2.6.4.7.4 1.3.3.2-.1.6 0 .3-.5zm59.2-83.5c-.2.2-.2.4.2.4l.5-.1c.3 0 .5.2.7 0 0-.1-.1-.3-.3-.3h-1.2zm96.5 59.3-1.2-.2h-.3l-.1.1v.4l.8-.1.7-.2zm-83.8 18.2c.4.2.6.2.9.1h1l-.3-.3zm26.5-4.8-.1-.2h-.8l-.3.3v.2h.7l.4-.4zm-94.5 11c.5.4 1 .2 1.6.2l-.9-.5zm56.7-84.6c.8.3 1 .3 1.3-.2-.5 0-.9-.1-1.4.1zm17.2 79.7h-1c-.2 0-.3 0-.3.2 0 .1.3.2.5.1l.7-.3zm-47-78.6c-.1-.3-.4-.2-.7-.2l-.2.1-.2.1v.4h.7l-.3-.2.7-.1zm-9 82.2c-.2-.3 0-.4-.6-.4h-.7v.4l.6-.1h.7zm40-3.6h.7c.3 0 .5.2.7 0-.2-.3-.7-.3-1.2-.4zm38.2-5.4c0-.2-.2-.3-.4-.2-.8 0-.9.1-1 .5zm-97-70.1-1.4-.3h-.3v.5h1.7zm91 69.8.4.3.7-.1v-.2l-.2-.1h-.9zm-190.4-26.4-.2.5.3.4c.2-.2.3-.3.3-.5 0-.1 0-.3-.3-.4zm150 34c.8-.1.9-.2.4-.5-.5.3-.5.3-.2.6h-.1zm-26.7-79.5 1.3.2.2-.1-.1-.1-.4-.1zm-57.8 79.9c0-.2-.3-.3-.5-.3h-.3v.2c0 .2.3.3.5.3.3 0 .3-.1.3-.2zm89.2-1.4-.7-.5h-.4v.2h.1zm-89.5-74.5.6.1h.7c-.4-.3-.8-.3-1.3 0zm200.3 47.3-.8-.2c-.3-.1-.5 0-.6.1.4.2.7.4 1.4.1zm-232.2 23.3h-1.3l.3.2h.8l.1-.3zm62.2 6.7.1.5h.6v-.2zm68.2-5.6c.9.4.9.4 1.3.3l-1-.4zm46-5.6c-.4-.3-.8-.3-1.2-.2 0 .4.6.2 1.2.2zm-89 12h-.2l-.3-.1h-.5l-.1.2.2.1a1.2 1.2 0 0 0 .7 0l.1-.1zm93.3-14.8h1c.2 0 .3 0 .1-.2l-.2-.2-1 .4zm-125 13.5c-.3-.3-.5-.3-1 0zm167.8-22.8c.7 0 .8 0 1-.2l-.2-.3zm-32.5-54.7v-.4h-.2l-.2-.1c-.2 0-.2.2 0 .3zm-51.1-5v-.2l-1.2.1c.5.4.8 0 1.2.1zm-50.7 81.9c-.4-.2-.7 0-1 0-.2 0-.2 0 0 .2zm-28.1.6h1-.5c-.3 0-.2.2-.5 0zm32.5-.6.4-.2s-.1-.3-.3-.2a2 2 0 0 0 -.5.1zm20.9-81.4-.1.2h.6zm-43.8 83.4c.3-.1.3-.3.1-.4s-.3 0-.5.3zm-9.4-81.7.1.6.6-.5h-.7zm82.1 75h1.2c-.2-.3-.4-.3-1.2 0zm66.2-14.6h-.7c-.2 0-.1.2-.1.2l.3.1c.2 0 .4-.2.5-.3zm-32.3-59.7-.2-.1s-.3-.2-.5-.1c0 .2.2.2.3.2zm-131.1 79.2h.6l.2-.1s0-.2-.2-.2h-.4l-.1.3zm18 1.1h-.4v.1c.4 0 .2.3.3.4h.2v-.5zm143-19.5h.5l.3-.2h-.1a1 1 0 0 0 -.4-.1l-.4.3zm-171.7 18.1h-.2l-.2.2v.2l.4.2zm36.7 2.1-.7-.1c-.3 0-.4 0-.3.2h1zm-61-4.9-.2.1.5.3.2-.1v-.3zm188.2-71.5h.9zm40.6 12.8-.8-.5c0 .3 0 .3.8.5zm-119.5-19.3-.5.2v.1l.1.1h.2c.3 0 .3 0 .2-.4zm46.7 3-.6-.3-.2.1c-.1 0 0 .1 0 .1zm50.8 6.4c-.4-.2-.4-.2-1 0zm-182.4 72.6-.4-.2-.3.2.3.1h.4zm58.3-82.8c-.1-.1-.3-.3-.6-.2l-.1.1c.1.2.4.2.7 0zm-21.2 83.3-.3-.1a.7.7 0 0 0 -.3 0h-.1l.1.2h.6zm108.5-81.3c.3.2.6.3 1 .1-.3-.1-.5-.3-1-.1zm14.1 64.5c.2.3.5.3.6.2l.4-.3h-.1zm-161.6 13-.2.1v.3c.1 0 .3.1.4 0 .1 0 .1 0 0-.1l-.2-.2zm84.4 1c-.4.4-.4.4 0 .5zm-66.9 2.3c.5.1.5.1.8 0zm126.8-13.9-.8.1h-.1v.2h.3zm-4.8-67c.1.3.4.4.6.3h.2v-.1h-.1l-.7-.1zm-205.7 50.1h-.3s-.3.1-.2.2l.3.1.1-.3zm125.4 31.2.2-.2v-.2h-.4v.2l.2.1zm25-84.2h-.2l-.2.1v.2l.3-.1v-.2zm-53.9 83.7h-.6l.2.2s.3 0 .4-.2zm-13-.7h-.8l.2.2h.4v-.4zm22.8.3-.2-.1h-.3v.1c.2 0 .3.2.5 0zm172-37.8c-.2 0-.3-.2-.3-.2l-.3.1.1.2h.4v-.1zm-144.9-43.3-.2-.2-.4.1.2.1zm41.6.1c-.1.1-.3.3 0 .4h.4c.1-.2-.1-.3-.4-.4zm-119.5 78.6h-.6l.4.2c.2 0 0 0 .2-.2zm87 0a.9.9 0 0 0 .4 0h.1v-.1c.1 0 .1 0 0 0h-.5zm19.3-80.1-.9-.2h-.2c.2.3.6.2 1.1.2zm115.2 24.3h-.2v.3h.1c.1 0 .2 0 .2-.2h-.1zm-58.7-20.5-.3.1s0 .2.3.2c.2 0 .2-.1.3-.2zm-218.1 49.7v-.2l-.3-.1v.3h.2zm257.9 2.1-.4-.1h-.2s.2.3.4.3 0 0 .2-.2zm-66.5 18.2.1-.2-.1-.2a.4.4 0 0 0 -.2 0h-.2c0 .2.2.3.4.4zm-4.1-73.4v-.1h-.7l.6.2v-.1zm42 66h.6v-.1h-.5zm6 .3.2.1c.2 0 .3 0 .5-.2v-.1h-.3a2 2 0 0 0 -.3.2zm-25.6 4.8.4-.1.1-.2h-.4v.3zm1.8-2.8-.3.2.2.2.3-.1c0-.1 0-.2-.2-.3zm-88.7 15.4h.2l.2-.1-.2-.1zm109.7-16.5c-.3 0-.3 0-.4.2zm24.6-54.4-.3.1v.2h.3zm-240.1 59c0-.3 0-.5-.7-.4l.7.3zm211.2-6.7-.3.1.2.2.3-.1zm14.8-4.6-.1-.2-.4.1.1.1zm9-3.3-.2-.1h-.2v.1h.3zm5-45.8.3-.2-.2-.1h-.2c0 .2.1.2.2.3zm-19.8-4.6a3 3 0 0 0 -.4-.1h-.2l.4.2zm-34.2 67.5.2-.2-.1-.1-.3.2zm-21.2.3v-.2h-.2l-.1.2zm-65.7 9-.4-.2-.2.1.2.1zm-120.2-34.5-.2-.1h-.2c0 .1 0 .2.2.2l.1-.1zm33.2 27-.4-.2-.1.1.3.2.2-.2zm143.1 1.7.2-.1v-.1l-.3.2.1.1zm-128.7.2-.3.1.2.1h.3zm232.3-55-.2.3.3.1s.1 0 0 0zm-114 56.2h.6c0-.1.3-.1.1-.3zm109.7-58.3.5.2h.2v-.2zm-77.5-19h.6l-.1-.1a.8.8 0 0 0 -.3 0l-.2.2zm-41.5 78.9a3 3 0 0 0 -.4-.1v.1l.2.1h.2zm-96.8 0v-.2h-.5.5zm98.2-81.3h.7zm81.6 8.4h.2l-.2-.2h-.2zm-102.7 74v.2h.5v-.2zm-46.7-.3-.2.2.2.2.3-.1zm-10.4.9-.3-.1-.4.1c0 .1.2.2.4.1zm37-82.7.2.3h.1v-.2l-.2-.1zm32.1-1-.4-.2s-.4.2-.3.3h.2l.5-.2zm-48.5 85.5c.2 0 .4 0 .3-.2h-.2c-.2 0-.2.1 0 .2zm-28.5-1-.1.1.2.2.1-.1zm85.5-84.1h-.6l.3.2.2-.2zm-32.3 84.1h-.4l-.4.1c.3 0 .5.2.7 0zm-38-.3v.5c.3-.2.2-.3 0-.5zm94.5-83.3-.2.2h.4l-.2-.3zm-65 83v-.1h-.4l.1.1h.4zm75.4-82.2h-.4.3zm-50 81.6-.2-.1h-.3l.1.1zm-62.1-.7h-.3v.1h.2zm-10.3-.5h-.4s-.1 0 0 0v.2zm72.2.2h.6v-.1h-.2a4 4 0 0 0 -.4.1zm-1.1-79.5-.1-.1h-.3l.1.1zm60.4.6h-.2v.2h.3zm-152.5 76.4h.3s.1 0 0 0l-.2-.1zm154.2-76.3h-.3l.1.1h.2zm-44.7 75.9c.1.1.2 0 .2 0zm-1.4-.3h-.5l.2.2zm23.9-.8-.1-.1-.3.1.1.1h.3zm-7.5-.4v-.1h-.3l.1.1zm9.4-.4h-.4l.2.1zm8.8-1.4c.2-.2.3-.3 0-.4h-.2v.2zm.3-1.5-.3.2.1.2.2-.2zm20.2-.2-.2.2h.2zm1.4-69.6-.1-.1h-.3v.2h.4zm-197.1 64.2-.2-.1h-.3l.1.1zm213.2-63.1h-.4l.2.1zm13.7 60.6.2-.1-.1-.1-.3.1h.2zm-8.8-.6-.1-.1-.4.1.2.1h.3zm.3-.4h.6l-.3-.2zm15.2-1.1-.1-.1h-.2l.1.1zm-29.7-57.7-.3-.1h-.2l.1.2h.4zm30.3 54.3c.5 0 .4 0 .3-.2zm-21.5-54v-.2h-.4v.2l.4-.1zm23.2 52.3a2 2 0 0 0 -.3 0h-.1.3zm11.2-3.4h.1v-.1h-.3l.2.2zm-261.2-5.1.2-.2h-.4zm274.3-1.4h-.2l-.2.1h.4zm-272.7-3h.2v-.1h-.2l.1.1zm-2.5-.3h.1c0-.2 0-.3-.2-.2zm289-11.4v.1h.4a5 5 0 0 0 -.5 0zm-32.5-22.3.2-.2v-.1h-.3zm-147 73h-.2v.1h.3zm65.3-85.8h-.2v.2h.3l-.1-.1zm-55.1 85.5v.2h.2v-.2zm12-85.3-.2-.1h-.2.4zm122.8 13.5h-.1zm-183 71.2v.1zm78.8-84.3v.1zm-29.8 84.6-.1-.1h-.1v.2zm-.8-.2-.2.2h.3zm-32.2-.3v.2l.2-.1h-.2zm40.6-83.7h-.3l.2.2v-.2zm-55.2 83.4h-.2l.3.2-.2-.2zm100.2-83.1h.2l-.2-.1h-.2.2zm-21.5.2v.1zm-63.4 82.8h.2-.3zm44.1.2h-.1zm13.4-83h.4zm-71 82.3v.2h.2l-.1-.2zm38.6.2h-.2a3 3 0 0 0 -.3 0zm-15.4 0h.3v-.1zm-17.2-.3-.2-.1h-.2.4zm71.3-81.6-.1-.2h-.2l.1.2zm46.2.3-.2.1h.2zm-98.7 81.1h.1zm107.7-80.9a7 7 0 0 0 -.5 0c-.1 0 0 0 0 0zm-40.4 0h-.2.3zm80.2 8.6h-.2zm-137-8.6-.1-.2-.1.1.1.2v-.1zm30.2 80.3v.1h.2-.2zm78.3-79.2-.2-.2s-.1 0 0 .1l.1.1zm-88 78v-.1c-.2 0 0 0 0 0zm34-1h-.2l.2.2h.2zm-9 0h-.2.1zm18.6 0v-.1s-.2 0 0 0zm-124.7-.8.1-.1-.1-.1zm36-76.3h-.2zm-37.5 76h-.4l.2.1h.1zm40-76-.1-.1h-.1v.2h.2zm73.8 75.8h-.4l.3.1h.1zm20.1.2h.2l-.1-.1zm26.4-74.8v-.1zm-29.7 72.3-.1.1v.1h.3zm-100.8-72.9h.1zm107.6 71.3h.2l-.1-.1a.5.5 0 0 0 -.3 0zm-98.2-71.2h-.1zm-84.6 42.7h-.2l.1.1h.1zm22.8 27.2h.2zm211.8-65.2h-.2l.2.2.2-.1h-.2zm44.5 41.1h-.2v.1h.2zm-195.4-45.7h.1s-.1 0 0 0zm101.8 70.5h.2l-.1-.2h-.2v.2zm53-66.4v.2h.3l-.2-.2zm-36.5-3.1h.2zm-7.3 68.8h.3zm29.3-65.8h-.2l.2.1zm40 45.1v-.1h-.2zm-50.3 20.2-.1-.1h-.2v.2zm.7-.3h-.2v.2h.3v-.2zm-12-.2h-.1v.1h.2zm-123.7-68.2v-.1h-.2v.3h.2zm184 53.2-.2.2h.4l-.1-.2zm-39.2 13h-.2.2-.1zm-4.6 0h.2l-.1-.2-.2.1h.1zm-208-1.7h-.3.2zm-11.6-11.4.1-.1h-.2l.2.1zm67.4-51.4h-.2l.1.1h.1zm10.6-1.4h.1-.2zm137.1 64h-.2v.1h.2zm35.7-6.1h-.2v.1h.3v-.1zm-10 .4h-.3l.2.1zm-167.8-57.4-.1-.2h-.2v.2zm168.4 57.8h-.2s-.1 0 0 0zm-7.7-57.4-.1-.1h-.3.4zm1 60-.1-.2h-.2l.2.2h.2zm-148.6-60.8-.1-.1s-.1 0 0 0c-.1 0-.1 0 0 .1zm129.6 1v.1zm-3.9-.4h-.1zm15.7 62h.1zm-8.8 1-.1-.1h-.1.2zm-138.7-64.3-.1.1h.2zm183.7 11.7h-.2zm-38.5-10.9h.1zm-214.9 63.9h-.2c-.1 0 0 0 0 0zm252.4-12v-.1zm-49.8 14.4h-.2zm44.8-15.5v.1zm-179.5-51.8h-.3zm-13.8 2.3v-.1h-.2.2zm-67.1 46h-.2l.2.1zm212.2-47.7h-.2zm-13 68.7h-.1v.1h.1zm12.9-69.1h.1-.3.1zm65.3 46.6v-.1h-.1v.1zm-89.3 23v.1zm49.1-66v.2h.2l-.1-.2zm47.8 18.1h-.3.2zm-44-17.8h.2-.3zm-238.3 37.5h-.1zm184.5 29.1h-.2v.1h.2zm3.1.5v-.1h-.1.1zm12.8.3h.3-.2zm-11.3.1h-.2zm-10.6 0v.1zm1.2.1h-.1zm99-52h-.3.4zm-94.4 52.5v-.1zm55.5-67.9h.1-.2zm-41 68h-.1v.1h.1zm-116.2-73.1h.1zm130.1.7h-.2zm74 40.4c-.2 0 0 0 0 0zm-252 32.6h-.1zm68-74h-.2zm72.5 75h.1zm1.4 0h-.1.2-.2zm-141-.6h-.1v.1h.1zm154.7-74h-.2zm-16.2 75h.3zm-1.5.3h-.1zm7 0h-.2v.1l.1.1.1-.1zm28.5-75.3c0-.1 0 0-.1 0zm-47.4 76.3h-.1zm75.5-70.3h.1v-.1zm-86.4 70.2h-.2v.1h.2zm37.9-76.7h-.2v.1h.2zm21.8 0h-.2v.1h.2zm-12.7 0h-.4zm-14.6 0v-.1zm-133.3 76.7h-.2zm101.9 1h-.2zm104-70.6v.1zm-148.4-7.9h-.1zm79 .4h-.2zm-47.5 79.3h-.1v.1-.1zm62.7-79.4v.1zm-65.9 79.5h.2zm109.6-71.6h-.1zm-32.8-8h-.3zm-68.8 80h.1-.1v.1zm57.6-80.3h-.3zm-139 80v.1h.1zm75.1-80.4v.2h.1v-.2zm-73.5 80.6h-.2.1zm14.8.1v-.1h-.2l.1.1zm50.6-80.9h-.3s0 .1.1 0zm-60.3 81v-.1s-.1 0 0 0zm50.7.3h.1c-.1 0 0 0 0 0zm-59.7-.3h-.1zm27 .1h-.1zm184.4-62h.1v-.1zm-15-9.6h.2l-.1-.1h-.1zm-133.6 72.1-.1.1h.2l-.2-.1zm-46.1 0h-.2.1zm34 0v.1h.2-.2zm-28.8 0h.2-.3zm6.8.4h.3l-.1-.1h-.2zm183-64-.1.1h.1zm-188.2 64.6h-.2zm33 .5h-.2zm170.4-55.3h-.2.3zm-14.7-10h.1v-.1zm-177 65.5h-.5.4z" fill="#f5663e"/></svg>