<svg fill="none" height="88" width="172" xmlns="http://www.w3.org/2000/svg"><path d="m136 4.7c0 .2-.2.1-.3.2-.2-.2-.3-.2-.4 0l-.2-.1v.5c-.3 0-.4 0-.5-.2h.3c0-.3 0-.3-.3-.4-.1.1-.1.4-.4.4l-.6-.7c-.1.4-.1.4-.5.1l-.2.4c-.1-.1-.1.2-.3.2v-.6h.3c.2.2.2 0 .2-.2-.2-.2-.3-.3-.6-.2-.1.2-.2 0-.4 0 0 0 0-.2-.2-.2l-.1.2-.3-.2c0 .1 0 .5-.3.5l.1-.5a1 1 0 0 0 -.2-.5v.2a1 1 0 0 0 -.7.2v-.2c0 .2-.2.2-.2.3-.4 0-.7 0-1.2-.2h-.1c-.3 0 0 .4-.3.6-.2-.2-.2-.4-.3-.7l-.2.1c-.2 0-.2 0-.2-.3v.5c-.4-.3-.6-.2-1-.2l-.3.3-.3-.3s.1-.2.3 0c.2 0 .2-.2.2-.2l-.1-.1c-.1 0-.4 0-.5.2-.1.1-.2.3-.4.1h-.4c0-.2.2-.2.3-.3l-.3-.2h-.4l.1-.4c.1.3.4.3.3.4 0 0 .2 0 .3.2h.1c.2-.2 0-.3 0-.4l-.6-.4-.2.1-.1-.3-.3.3c0 .1.3.3 0 .5-.1.2-.1 0-.2-.1l.2-.1c-.2-.3-.2-.3-.2-.7l-.6-.1c.1.2.5.1.5.4h-.2l-.6-.2-.2-.2c-.1 0-.3 0-.5-.2l.2.4h-.2c-.1 0-.2-.1-.4 0h-.3c-.3 0-.4 0-.5-.4h-.1l-.4.3-.4.3h-.8l-.5-.2-.2-.1h-.4l-.1.1v-.1c0-.1.2-.1.1-.3h-.6l-.2 0 .3-.1c-.2-.2-.6-.2-1-.3v.3l-.2.1v-.4l-.2.3c-.1-.3-.4-.2-.5-.2l.1-.2-.3.2h-.5c0 .2.2.3 0 .4 0-.2-.4-.1-.4-.2-.1-.3-.2 0-.5-.2h-.5c0 .2.2.2.3.3l.3.1c0 .2 0 .3-.2.4l-.2-.1-.3.1-.8-.4-.3-.1c-.1-.1-.3 0-.5-.3 0 .2-.2 0-.3 0l-.9-.1h-.5l-.2-.1h-.4c0-.4-.3-.4-.6-.6l-.1.3h-.2l-.6-.1h-.9l-.2-.2c-.2 0-.2 0-.3-.2l-.1.1h-.1c-.1-.2-.4-.3-.6-.1h-.3v.1c-.2 0-.5-.1-.6.1h-.2v.1h-.5c-.1.2-.3.2-.5.2-.1 0-.2-.1-.4 0h-.2l-.4.4.2-.2c-.3 0-.4 0-.4-.3h.4c-.2-.1-.2-.3-.3-.4l-.2.1c-.2-.2-.4-.2-.6-.1l-.3-.1-.2.2-.9-.1.3.4v.3s-.3-.2 0-.3h-.3v-.3c-.2 0-.2.2-.2.2l-.1.5v.2h-.5c.2-.2.3-.5.3-.9 0 .2 0 .2-.2.2v-.3l-.4-.1.2.4h-.4c-.4.2-.7 0-1-.3l.1.4h-.6a1 1 0 0 1 -.2-.5c-.2 0-.4.2-.6 0-.1.4.1.4.2.4 0 .5-.3 0-.5.2v.3-.2s0-.2-.3-.2v.2c-.1 0-.3 0-.4-.2v.4l-.2.1-.1-.1h-.8v-.2c-.1 0-.3.2-.5 0 .3-.2.3-.2.5 0h.6c0-.2 0-.3-.2-.5-.3 0-.1.3-.3.3l-.4-.1-.4.2c-.2 0-.5 0-.6-.3-.3.3 0 .3.1.4-.1.2-.2.2-.2 0l-.5-.6c-.1.1-.3.2-.5.1l-.4.1c0 .2-.2.2-.2.2-.3-.3-.6-.3-1-.5h1l.4-.3c-.7.1-1.1-.1-1.6.1l-.3-.2a510.2 510.2 0 0 1 .3.5l-.3-.1h-.2v-.2l-.2.1c0 .3 0 .4-.3.3h-.7s-.2 0-.2-.2h.5v-.4h-.3a1 1 0 0 0 -.7.1l.4.3-.1.4c-.1-.2-.3-.3-.4-.3l-.6.1h-.5c-.2 0-.2 0-.2-.2v-.2l.1.1h.5s.4 0 .2-.2h-.3c-.4-.1-.6 0-1 .1-.3-.1-.4-.2-.6-.1l.5.2v.2c.2-.2.3 0 .3.1l-.2.2-.6-.1-.1.1c-.2.2-.4.2-.4 0-.1-.1-.2-.1-.4 0 0 .2-.3 0-.5.3v-.3l-.4-.2v.2c-.2 0-.4 0-.6-.2h-.3c-.2.2-.5.3-.8.3 0-.1 0-.3.2-.4l.7-.1v-.1c-.2 0-.3.3-.6 0l-.1.2-.2.1h-.6c-.2 0-.3-.1-.4 0h-1l-.2.3-.1-.2-1.3.2.5.5c-.3.1-.8.2-1.2.1v.4c-.1-.1-.2-.3-.5-.3h-.5l-.3-.1-.9-.1h-.1c.1-.2.1-.2.4 0l.5-.2h-2.2l-.1.2h-.2c-.2-.2-.6-.2-1-.2h-.5c-.2.2-.4.4-.8.2h-.9c-.2 0 0 0 0 .2.3-.1.6-.2 1 0l-.2.5h-.7c-.3 0-.4-.2-.4-.5 0 0 0 .2-.2.2l-.3-.2.5.5c0 .2-.2.2-.3 0h-.5a1 1 0 0 0 -.6 0c-.2.2-.3 0-.4 0s-.2 0-.2.3c-.2-.1-.2-.3-.2-.3.4-.2.8 0 1.1-.4h-.4a1 1 0 0 1 -.9 0h-.2l.3.3-.1.3c-.1-.2-.2-.2-.4-.3l.3-.3h-.3l-1 .2h-2.1c-.1.1-.3 0-.4 0l-.8.4h-2.3c0 .2.3 0 .2.3l.4-.2.3.1c-.2.3-.5.4-.7.3h-.6l-.2.1-.3-.1-.4.1s0-.3-.2-.1c-.1.1 0 .2.1.4h-.4v-.4l-.6-.1c.3-.3.6-.3 1.1-.2l-.1-.2h-.7l-1.5.2h-.7c-.1 0-.3 0-.4.2l-1.8.2-.7.3h-.9l-.7.1h-.1l-.3.4.2-.4-.5.1c-.2 0-.4 0-.5.2h-.3c-.2-.2-.4 0-.8 0l-1 .1-1 .1-1.8.3-.7.1-.5.4-.2-.1c-.1 0-.3.4-.5.1-.1.1 0 .4-.3.4l.2-.3c-.4 0-.5 0-.6.3h-.6c-.3.1-.5 0-.8 0l-.1-.1.1-.2-.5-.2c0 .2-.2.1-.4.1 0 .3 0 .3.2.3h.5c-.3.4-.5.5-.7.4 0 0-.2 0-.2.2 0-.3-.2-.3-.3-.1l-.4.1h-.1c-.3.1-.5.3-.9.3l-.3.1h-.4l-.5.1c0 .2.3.2.3.2-.2 0-.4 0-.4.2l-.4.1h-1l-.4.3c-.1 0-.2-.2-.5-.2-.2 0-.3.2-.5.3-.2.3-.4.3-.8.1l-.2.4-.2-.1c-.3.3-.6.3-.8-.1-.1-.2-.3-.2-.4 0 .3 0 .5 0 .7.5l-.3-.1h-1l-.3.2-.2-.4-.2.2s.2 0 .2.2v.1h-1l.2.7-.3.1c-.4-.1-.6.2-.8.3-.3.1-.5.2-.8.1l-.2.1-.1.2v-.4l-.3.1h-.2c-.3-.1-.3 0-.3.3h.3c-.3.1-.6.2-.9.5-.4-.3-.6.1-1 .2h-.4c-.2 0-.3-.3-.4-.2-.3-.1-.4 0-.5.1l-.5.3.6.1-.3.3h-.6c-.1.1-.1 0-.2 0l-.2.2-.2-.4c-.1.2-.3.2-.4.2l-.1.5-.7.2c-.3.2-.3 0-.4-.3-.1.2-.5 0-.6.5l-.5.1h-.2c-.1.3-.3.4-.5.4-.1 0-.3.1-.3.3 0 0-.2-.2-.2 0h-.2c-.2 0-.4 0-.4.3 0 .2-.1.2-.3.2-.3 0-.7.1-1 .4h-.3c-.2.2-.5.2-.7.5h-.1c-.3.1-.4.1-.6.4l-.4.2c-.3 0-.4.2-.6.3l-.4.1c0 .3-.3.4-.6.4-.1.1-.2 0-.4-.1l.4.1-.1-.2.2-.2c-.3 0-.7.2-.8.5l.1.2.4-.2s0 .3.2.4c-.4.3-.7.2-1 .3 0 .1 0 .1-.2 0h.2l-.4-.4v.5l-.2-.2s-.3 0-.5.2c0 .2-.2.3-.3.5l.1.3c-.1.3-.4.4-.6.5l-.4.3h-.3v.4l-.2.1c-.2 0-.4.3-.7.1l.1.4-.3.2c-.3 0-.4 0-.5.2l-.5.3-.4.5.3.1c0 .2-.1.4-.3.4s-.3 0-.5.3v.1c-.3-.1-.6.3-.7.3l-.3.8c-.2 0-.3-.2-.4 0s-.4.2-.4.5l-.3.4c-.2 0-.3.2-.4.4l-.6.7-.7.8s-.2.1-.2.3 0 .4-.3.5c-.1 0-.3.1-.3.3s-.2.3-.3.5c-.2.2-.2.5-.4.6v.4l-.1.3-.3.4c0 .1-.2.2-.2.5-.1.3-.3.5-.5.6.1.3.1.6-.1.7l-.1.3c-.3.5-.4 1-.5 1.5-.3.5-.4 1.2-.5 1.7a3 3 0 0 0 -.1 1c-.2.4-.3.7-.2 1.1-.2.3 0 .7 0 1l-.2.4-.1.3v.1c0 .3-.2.4 0 .7 0 .1.2.4 0 .5 0 .4-.2.8 0 1.2v.2c-.2.3-.2.4 0 .7v.4c-.2.1 0 .4 0 .5.2.3 0 .8.2 1v.6c.2.4.2.7.2 1l.2.3v.4c-.2 0 0 .2 0 .4 0 0 0 .3.2.5l.2.8c.2.2.4.6.4 1v.1c.2 0 .2.4.2.6l.4 1.1c.1.3.1.5.4.8v.5c.2 0 .3.2.3.4l.4.7.4.6v.3l.4.3v.2c.2.3 0 .5.4.7l.1.1c.1.3.3.6.6.6l.6.7c.2.3.4.4.8.4l-.3.3c.3 0 .1.3.4.5 0 .2.4.2.3.5 0 .3.4.3.4.5l-.2.2c0 .2.3 0 .3 0l.8 1c.3 0 .3.4.3.6.1 0 .3 0 .4.2l.1.1c.1.4.5.7.6 1h.3c-.2.3.3.3 0 .6.2 0 .3.2.4.1h.2l.4.5.4.4c.1.2.4.3.4.5h-.3l1.1.8h.4c-.1.3 0 .4.2.6.1 0 .3 0 .3.2l.3.3.2.1c0 .3.2.5.3.8.4-.1.5.3.7.3h.2c0 .3.3.6.7.5.1.4.5.8.8.6.3.3.4.3.6.2h.3l.7.6c-.1.1-.3 0-.3.3l.2.2.1-.2c.1-.2.3-.3.4-.2.2.2.2.3.2.6 0 .1.1.4.3.5.2.2.3.5.7.6.1 0 .2.3.5.4.2.2.3.2.5 0 0-.1.2 0 .2.2l-.1.4 1 .9h.6c0 .2.2.4.4.5.3.1.5.1.7-.3l.6.6h.2c.2 0 .4.2.5.4l-.6-.3.2.5c.1.3.3.1.5.1-.1.3 0 .4.1.6.3 0 .4-.2.5-.3.1.1.4.1.4.4l-.3-.1h-.3c.2.2.3.5.6.4 0 .2.2.3.3.3.3.2.4 0 .6 0 .3-.2.3-.2.4 0 0 .2.1.2.3.3v.5l1 .4c.2-.1.5.3.9-.1l.2.3c.2 0 .4.4.6.2l.3.2.3.2c.4 0 .5.3.8.4v.1c.3 0 .5.3.7.3l-.1.4c.3.1.6.3 1 0 0 .1.3.1.2.5.1.1.2.1.4 0l.4.1c.2.2.3.3.5.2l.3.2c0 .3 0 .6.2.7l-.1-.5c.1-.2.4-.2.5 0l1.2.6.2.3.3.1c.2-.2.5 0 .7.1l.7.4h.1c.3 0 .5 0 .9.2h-.8c0 .2.2.4.3.4h.7l.1.2c.2-.1.3.2.4-.1.1-.1.2 0 .2.3.2 0 .3-.2.3-.2.2.2-.1.3.1.4l.1-.4.5.3-.3-.1c0 .2.3.2.4.2h.4l.4.1c.2 0 .3 0 .5.2l.7.2c.2 0 .5.3.6.4l.1.2 1 .2c.2.2.5.3.7.2h.1c.3.4.5.4.8.4.2 0 .3 0 .4.2l.4.1.5.2.7.1.4.1.5.2h.4l.8.2c.2 0 .5.2.6.4l.2-.1h.3c.2.3.5.1.6.1h.2c.3.2.5.3.7.2.2-.2.4 0 .4 0l.4.4c.2 0 .6 0 .8.2l.9.1c.2.3.5.4.8.3v.3l.3.1h.6l.5.3c.2-.3.4-.3.7-.2.3.2.7.3 1 .3l.7.1c.1.2.2.2.5.2h.5c.2.4.4.2.6.2h1.2l1 .2.6-.2v.2h.5c.2-.2.3-.2.6 0h1.2c.1 0 .2.2.5 0 0 0 0 .2.2.2.1-.2.4-.1.5 0 .2.2.4.2.6.2.1 0 .2-.2.5-.2.1.3.3.2.5.2s.6-.2.8 0h1c.4 0 .6 0 .8-.2h.4l.6-.1.9-.1c.3 0 .7.1 1-.2h.3c.2 0 .6 0 .8-.2.3.1.5-.1.8-.1h.5c0-.4.3-.4.6-.6 0 0 .2 0 .2-.2.1-.3.4-.3.5-.4.2-.3.5-.3.7-.3l.5-.2.6-.4c.3 0 .3-.2.3-.4h.4l.2-.3c.3-.4.8-.6 1.2-1l.5-.5c0-.2.3-.4.5-.6 0-.3.4-.5.4-.9 0-.1 0-.2.2-.2.2-.2 0-.4 0-.5l-.1-.4.3-.3.1-.5.4-.4-.1-.1c0-.3.2 0 .3 0 .1-.2.3-.3.4-.7l-.4.1-.1-.4-.4.2h-.3c-.2-.2-.4-.3-.5-.2 0-.2.1-.2.2-.2l.6-.1h1l-.1.2v.1h.6c.1.2.4-.2.5 0-.1 0-.1.3-.5.3l-.3.1.3.3h-.7c-.2.1 0 .1 0 .3 0 0 0 .2.3.2.4.3.9 0 1.2.2h.2c.4-.2.8 0 1.3-.2h.6l1.2-.1c-.1-.3.1-.4.3-.7h.6s.2 0 .2-.2l-.5-.1c.3-.3.3-.3.8 0 0-.3.3-.3.6-.3v.3h.4v.2h-.6.3v.4l.6-.2c.1-.2.2 0 .4 0h.4l.2.2.4-.1.4.1.5-.2v.3c.2 0 .4 0 .6-.2 0 0 .1-.1.1 0 .3.1.4-.1.5-.3l.2.1c0 .2 0 .4.4.4l-.1-.4c.2 0 .2 0 .2.3l.9.1.6-.1h.2v-.4h.2l-.2.3h1l.5-.1.4-.2c0 .3.2.2.4.2s.3 0 .5-.2c.4 0 .8 0 .9-.4h.6c.2 0 .2 0 .2-.3h.6c.3-.2.6-.3.9-.2-.4.2-.6.2-1 .2.4.3 1 .3 1.3 0 0-.2 0-.2-.3-.3h.3c0 .1 0 .3.2.4 0 .1.3.3.5.1l.8-.1.9-.3.3-.1.5-.1-.1-.5c.2 0 .3-.2.6 0h.1c.1-.2.3-.2.4 0 0 .2 0 0 .2 0 0 0-.1-.2.1-.2v.3l.3.1v-.1l.6.1.1-.1c.1-.3.4-.3.5-.3l.2-.1c.2 0 .2.1.3.3.1 0 .2-.3.3 0 0 0 .3 0 .4-.2l.5.2h.1c.1 0 .3-.2.1-.3v-.1c0-.3.4-.2.6-.2l.2.4.6-.1h.6c.2 0 .5-.3.6-.5l.1-.1c.1 0 .1.2.3.2v-.1l.2.2c.1-.2.4 0 .6-.2l1.2-.1c.3 0 .3 0 .5-.4.1.2.4.1.6.4v-.6l.4-.4c0 .2 0 .2.2.3l.3-.1c0-.2 0-.2.2-.2h.7v.3h.1c.2-.4.5-.3.9-.4h.1l.1.2h.4l.4-.2.5-.2.4-.6h-.2c.2-.3.5-.3.8-.2h1l.4-.1v-.3l1.2.1c-.1 0-.2.2-.5.2.1 0 .1.2.3.2l.7-.1c.1 0 .2 0 .2-.3 0-.1.1-.2.3-.2l.3-.3.3.1h.1l1 .2v-.6h1v-.2h1l.3.1.2-.2.2-.2c.3.2.4-.1.6-.1.3.1.4.3.7 0l.4-.1h.2l.7-.4.4-.1c.2 0 .3 0 .3-.3 0 .1.1.3.3.1l.8-.4.3-.2v.1l.3-.1v-.3c.1 0 .4.4.5 0l-.1-.2.1-.4c.2 0 .4.3.6.1l-.1.4c.2-.1.2-.1.2-.4l1-.4c.2.3.5.2.7.2 0-.2 0-.2-.2-.2l.2-.4c.2 0 .3 0 .5.2v-.2c.3 0 .3-.5.5-.3h.2l.5-.2.3-.1.2-.1h.3c.2 0 .3-.3.6-.2 0 0 .5-.2.6-.4.2 0 .5 0 .6-.2l.1-.1c.3 0 .4-.3.6-.3l-.3-.3c-.2 0-.3-.2-.5-.4.3.3.3.3 1 0 0 .2 0 .2.2.3l.1-.1-.2-.3.2-.2.4.6.2-.3h.1c.3 0 .5-.3.8-.2.3-.4.8-.3 1.2-.4l1-.4c.2 0 .2-.1.3-.3h.3c.2 0 0-.3 0-.5h.6l.4-.2v-.4l.3.2.5-.4s.3 0 .5-.2l.3-.1h.3c.2-.4.6-.4 1-.6.3 0 .4 0 .7-.2v-.1c-.2-.2-.2.2-.3 0 .1-.3.4-.4.8-.3l.3-.1.1-.2.3.2.1-.3c.1.1.2 0 .4-.3h-.3l.4-.2-.1.2c.2 0 .3-.2.5-.5v.2l.6-.4v-.2c.4-.1.7-.4 1-.6l.2-.4.1-.1c.2 0 .2-.3.2-.4.4 0 .8-.3 1-.6h.1c0-.5.3-.7.6-.7 0 0 .2 0 .2-.2.2-.2.6-.4.7-.7s.4-.6.6-.6l.1-.1c.1-.1.1-.3.3-.3s.3-.3.3-.6c.3 0 .4-.3.5-.4l.7-1c.2 0 .2 0 .3-.2 0-.1 0-.2.2-.1l.2-.1c0-.2 0-.4.3-.4l.1-.3h.4l.1-.4c.4-.1.4-.5.6-.8 0 .2 0 .2-.2.3l-.2.3c0-.2 0-.3.2-.3v-.3c.2 0 .2-.3.5-.5l.1-.1.7-1.2.4-.8.1.2c.3-.2.1-.5.4-.5l.1-.4c.1-.2.1-.3-.1-.4l-.1-.2v-.4l.5-.3c-.2-.3 0-.4.2-.6v-.2c.2 0 .2-.2.4-.3 0-.2 0-.4.2-.7h.1v-.5c0-.3 0-.4.2-.5v-.4l.2-.8.1-.5.1-.3.2.4v-1h.2c.1-.2 0-.2-.1-.3 0-.7.2-1.3.6-1.8-.1-.2-.1-.2-.3-.2v-4.1c-.2-.1-.2-.3-.2-.3v-.5l.1-.1c0-.3-.3-.5-.2-1v-.7c-.2 0-.2-.3-.2-.5 0-.4 0-1-.2-1.3 0-.3 0-.7-.2-1 .1-.3-.2-.5-.2-.9l-.3-.8c-.1-.3-.2-.9-.5-1.3 0-.5-.2-.6-.5-.7l-.2-.4.1-.4-.3-.5h-.2c0-.3 0-.8-.4-.8v-.3l.3.1-.1-.2c-.2-.1-.4-.1-.5-.3l.1-.4c0 .2-.2.2-.3.3l-.1-.4-.2-.5c0-.3 0-.4-.3-.4-.2 0-.3-.1-.4-.4-.1-.1-.2-.4-.4-.4l-.2-.3h.1l-.2-.2c.1-.3-.3-.4-.4-.7l-.6-.8c-.1 0-.2-.2-.5-.2l-.2-.2.1-.2-.7-.4v.4c-.1-.1-.3-.3-.1-.4 0-.1 0-.3-.2-.3v-.2c-.3 0-.6-.3-.8-.5l-.9-.8-.6-.4c-.2 0-.2-.2-.2-.3l-.3.1-.4-.3c-.3-.2-.6-.3-.8-.6-.3-.1-.6-.5-1-.6l-.8-.5-.3.3h-.4c0-.4.4 0 .5-.3-.1-.3-.5-.2-.8-.4 0-.3-.4-.3-.7-.4l-.7-.4c-.1.1-.1.4-.4.4l.3-.6h-.4l-.1.2-.5.1-.1-.4.3-.1c-.2-.3-.6-.4-.8-.5l-1.1-.4-1-.6h-.8l-.4-.2-.6-.2c0 .2.2.2.2.3h-.3l-.2.1c-.2 0-.4.2-.6 0l-.5-.5c-.1-.1-.1-.2 0-.4 0-.1-.1-.2-.3-.2 0 0-.2 0-.2-.2-.1-.1-.4-.1-.4.2 0-.2 0-.3-.2-.3h-.3c0 .1-.3.3-.6.1-.2-.1-.4 0-.7-.2h-.1c-.3 0-.4 0-.5-.2l-.8-.2v-.3c-.4.3-.4.1-.5-.1-.3.1-.4.1-.5-.2-.1.2-.1.3-.3.3-.3 0-.3 0-.6.3l-.3-.2-.4.3c-.2-.3-.5-.4-.6-.7l-.2-.2-.5-.1-.1-.6h-.2v.2c.2 0 0 .2 0 .4h-.3l-.6-.3c-.3-.1-.3-.1-.4.1l-.1-.1-.1.1-.2-.1c0-.3 0-.3-.3-.3h-.3c.1.2.1.3.3.3h-.2v-.5c.3 0 .3-.2.3-.3l-.5-.1.5-.3-.5-.4c-.1 0-.4.2-.5-.1l-.3.4.2.1-.2.3c-.5-1.6-.5-1.7-.8-1.7zm21.5 53.6c0 .1 0 .3-.2.3l.2-.3c.2 0 .3-.2.4 0zm-73.7 19.7c0-.2 0-.2.3-.2-.1 0-.1.2-.3.2 0 .1.2.2 0 .2zm31.1-4c.1 0 .4 0 .5-.3v.3l.5-.1c.2 0 .2 0 .2.2-.2-.1-.3-.1-.5.1v-.2h-.7c0 .1.1.2 0 .2h-.7c.3-.2.5-.2.7-.2zm-30.7 1.9.2.1c-.2.4-.3.4-.4.3 0-.2 0-.3.2-.4h-.2zm43.2-5c.1-.2.4-.2.5-.3l.1.4.4.1c-.1.2-.3.2-.5.2l-.2-.3-.4.4c-.1.1-.2.4-.5.5l-.5-.2s-.1.2-.3.2l-.2-.1v-.1l.8-.3-.4-.3h.4c.5-.5.6-.5.8-.2zm-51.3 6 .2-.1c.3 0 .3-.1.3-.4.2.1.3-.1.4-.3.2.3 0 .4-.2.7l.2.2h-.3c-.3 0-.1.2-.3.3h-.3v-.1h.3l-.3-.3c-.2.1-.3 0-.4-.1.2-.1.2-.1.4.1zm15-.5.1-.1v.1c-.3.4-.7.3-1 .3v.2c-.3 0-.7 0-.8-.2l1-.2c.2 0 .5-.2.7 0zm25.1-2.7c-.2.2-.2.2-.2-.1l.2.1c0-.4 0-.4.3-.4v.3l.4-.1c0-.3.3-.2.6-.3h.2c0 .3-.2.3-.4.4v-.1l-.3.2c-.3.2-.5 0-.8 0zm-84.4-.5c-.1-.3-.3-.3-.4-.3v.3l-.2-.1-.1-.4v-.2.3-.1c-.4-.6-.7-.7-1.1-.4l-.8-.4-.6-.2v-.7s0 .3-.2.3c-.1-.2.1-.3 0-.4h-.4v-.3c-.2-.1-.3-.3-.6-.3-.2 0-.3 0-.5-.4-.2-.3-.3-.3-.6 0l-.1-.5-.4-.4c-.2 0-.3-.1-.3-.4l-.3.1-.5-.2c-.3 0-.7-.3-1-.5l-.8-.7c-.2-.1-.7-.3-.7-.7-.2-.2-.5-.2-.6-.5 0-.1-.2 0-.4 0l-.8-.4-.1-.5c-.2-.1-.4-.1-.4-.4-.2.1-.4-.1-.5-.1-.2 0-.2-.3-.2-.5h-.5c0-.2-.1-.3-.3-.4 0-.2-.2-.2-.3-.3-.5-.4-.9-.8-1.5-1v-.2c0-.2-.3-.5-.6-.6l-.7-.7c-.1-.1-.4-.2-.4-.5l-.2-.3c-.3 0-.5-.2-.6-.3l-.6-.7.1-.1v-.2h-.4l-.7-.7c-.1-.2-.2-.3-.1-.4v-.2c-.3-.1-.4-.4-.6-.2l-.1-.4c-.3-.2-.6-.3-.6-.7-.4-.2-.5-.6-.9-.9-.2-.1-.6-.4-.2-.9h-.5l-.1-.3s0-.1.2 0v-.2l-.4-.2v-.2c0-.1-.2-.1-.2-.3h-.1l-.3-.2c0-.2 0-.3-.2-.3l-.4-.4c0-.1-.2-.4 0-.6v-.2l-.2-.1-.1-.4a.7.7 0 0 1 -.4-.7l-.1-.2c-.3-.3-.3-.7-.6-1l-.6-1.2-.2-.5h-.2v-.7c0-.2 0-.4-.3-.4-.3-.1-.3-.1-.3-.4l-.3-.3c0-.2.2-.4 0-.4 0-.2 0-.3.2-.4-.4-.3-.4-.7-.4-1 0-.5-.3-.9-.2-1.4v-.1l-.1-.8v-.8h-.2c.3-.1.2-.4.2-.5v-2c-.2-.2 0-.5 0-.6h.2a.7.7 0 0 1 0-1c-.2-.2-.2-.4.1-.7 0-.5 0-1 .3-1.4-.1-.3-.1-.6.1-.7s.1-.4.1-.6c0-.3 0-.6.2-.8l.2-1h.2c0-.2 0-.5.2-.5v-.6c.2-.1.2-.4.3-.5l.3-.4h.3v-.3l.3-.4.1-.1c0-.3.1-.4.4-.5v-.2l.3-.6.4-.3.2-.4h.2c0-.3 0-.3.3-.5l.1-.2c0-.3.2-.3.3-.3v-.3c.2 0 .5-.2.6-.5l.1-.1c.4-.1.4-.5.5-.8l.5-.4c.1-.3.4-.4.6-.5l.2-.2c.4 0 .5-.6 1-.7 0-.3.4-.3.5-.4.2-.3.6-.4.9-.7.2-.1.4-.2.6-.5 0-.3.3-.5.7-.5l.1-.3c.1-.2.1-.2.4-.2h.6l.1-.2c.2-.2.5-.4 1-.2l.1-.2c.1-.2.4-.5.7-.5l.8-.2s0-.2.2-.2l.4-.2c0-.2.2-.2.3-.2h.3c0-.4.5-.5.8-.6.3 0 .4-.1.5-.4.1.1.2.1.4 0 0-.1.3-.3.5-.3s.3 0 .4-.4c.4 0 .5 0 .8-.2v.1l.5-.2c.2 0 .3-.2.3-.4l.4.1c.1-.4.5-.3.7-.3l.1-.2c.3 0 .3-.3.3-.3.2 0 .5 0 .7.2l.1-.4h.5l.7-.4c.3.1.5.1.8-.2l.8-.3c.1 0 .4 0 .4-.3h.1l.3-.1c0-.2 0-.2.2-.3l2-.5c0-.1 0-.3.2-.4l.2.3c.4-.6 1-.7 1.5-.4l.7-.4.4.1c0-.3.3-.3.5-.3h.3l1-.3 1-.3 1.2-.3h.2l.9-.2a4 4 0 0 1 1.2-.3h.1c.3.3.4 0 .5-.1h.5l-.1-.1h.6c.2-.2.6-.2.8-.2.4 0 .9 0 1.2-.2.3 0 .4-.2.6-.3.3 0 .5.1.8-.2 0-.2.2-.2.3-.2h.9c.2 0 .6.2.8-.1h.3l.3-.1s.2 0 .2-.2l1.3-.2h.6l.2-.1h.8c.3 0 .5-.3.7-.2.1-.2.4-.1.5-.4.1.2.1.3.3.3.3-.1.5 0 .8 0h.1c.1.1.2 0 .4 0l.3-.1c.1 0 .3 0 .5-.2h.5c.2 0 .5 0 .7-.2h.4c.2.1.6.1.8-.1.2 0 .3.2.4 0h.5l1.4-.2h.2l.8-.2h.3c.2 0 .4-.2.7 0h.1c.3-.2.6-.2.9-.2h.9c.3 0 .5 0 .9-.2h1.1v-.3h1.3a3436 3436 0 0 1 .7 0h.4l.1.2c0-.3.1-.3.4-.3h.2l.8-.1.4.1.6-.1c.3 0 .4-.2.5-.3h1c.2 0 .6-.2 1 0h1.2l.6-.1a157110 157110 0 0 1 1.8-.2c.1 0 .4 0 .5-.3l.2-.1c.3 0 .5.1.8-.1h1.5c.2-.3.4-.2.6 0l.2.1c.1.1.2.1 0 .4h.5l-.4-.3h.5c.4 0 .7-.2 1.1 0l.1-.2c.4.4.8.1 1.1.1.1-.2.4-.4.6-.2v-.4c.1 0 .4 0 .5.2s.4.3.6.4c.3.1.5 0 .7-.1l.2.2c0-.2.2-.3.3-.2l.3.2.2-.2.4-.1h.7l1 .2h1.7c.2.2.3-.1.4 0 .2-.2.4-.1.6-.1h1.4l.1-.3c.4.2.7.3 1 0 .1.2.2 0 .3 0l.5.3c.1.3.3.1.5 0h.1c.3.1.4 0 .5-.1l.1.1.2.1a3436 3436 0 0 1 .8 0h.1c.3 0 .5 0 .8.2.2-.2.4-.2.6-.2.3 0 .6 0 .8.4l.1.2.3-.3-.3-.1a3355.2 3355.2 0 0 1 .5 0l.5.1c.2-.3.6-.4 1-.1h.1l.5.1c.2.3.5.1.7.3h.9s0-.3.2-.3l.2.3 1.4-.2.1.2c.2 0 .6 0 .9.2.2.1.4.1.6-.2a3355.2 3355.2 0 0 0 1 .1c.4 0 .8.2 1 .5l.1.1c0-.1.2-.1.2-.3h.6c-.2.3-.2.3-.4.3l-.2.1.4.2c0-.3.5-.2.4-.4l.5-.2c.1.3.2.2.5.2 0 .1.1.2.2.1h.4l.7.1c.3.2.5 0 .7-.2h.2l.2.2c.3.3.5.2.7.2s.2 0 .3-.2h.2l.1.2c.2 0 .3-.2.3-.2.2 0 .5.2.7 0h.1c0 .3.3.2.4.2h.4l.7.1h1.1c.2-.1.4 0 .4.1h.4c.2 0 .2 0 .3.2l1 .2.2.2c.4 0 .6-.2.8 0h.4c.2-.2.4-.2.6 0 .4.1.6.2 1 .1a7840.9 7840.9 0 0 0 1 .1c.3-.1.6 0 .8.3.2-.1.2-.1.5.1v-.1h.4l.3.3h.4l.5.2v-.1l.3.3h.3c0-.2.3-.2.5 0 .4-.2.7 0 1 0 .2.2.4 0 .5.2l.2.1c.2.3.4.2.8 0 .1.3.5.2.7.3.3-.2.5 0 .8 0 .2.1.6.1.8.3.3.1.6.1.9.5l.2.1h.2c.2.2.3.2.5 0h.6c.3.2.4.4.6.3h.2l.2.1c.2 0 .4 0 .5.3l.4-.1v.2c.2 0 .3-.1.4 0 .2 0 .4 0 .4.2h.4c.2-.2.7 0 .8.3l.1.2c.4-.3.3-.3.6 0l.2-.2.7.2.2.4c0-.2 0-.3.2-.4v.4l1 .1.2.3h.5c.2 0 .4 0 .4.4.3 0 .5 0 .8.2.3.3.7.3 1 .3.2.2.2.2.5.2h.2c.2.2.5.2.7.3.4.1.6.3 1 .3l.7.2.6.4v.2c.2 0 .5 0 .6.5.4-.3 1.3.2 1.6.8l.2-.2.6.3.5.1.1.2h.3c.1 0 .2 0 .2.2.1.3.4.1.6.3.1.1.5.1.6.4l.2.1c.3.3.7.3 1 .7 0 0 .2 0 .2.2 0-.1.2-.1.3.1l.5.4.9.6c0 .2 0 0 .2 0 0 .4.1.4.2.5l.2.1.2.1.1.2.6.6c.2.2.4.3.6.2 0 .2 0 .5.4.5l.1.1.2.1c.2 0 .3.3.4.6l.4.1c.1.3.2.3.5.1l.2.8.1.3c.3.1.4.4.4.6l.4-.1c.2.3.2.8.7 1v-.8c.5.1.5.2.4.5 0 .1.3.4.3.7l.4.5h-.4v.2l.4.7.1.3.1.2.4.5.2.7.2.3.2.3.2.6c.2.2.2.5.3.8-.1.3-.1.3.1.6l.1.1c0 .4.3.7.3 1l-.2.3c.2 0 .3.2.3.2l.1.4c.1.4.4.6.2 1.1v.3c.2.3.3.4.2.6-.2.3.2.4 0 .7l.2.1c-.2.2-.1.4-.2.7 0 .2 0 .6-.2.9 0 .1.2.1.2.3l-.2.7h-.3l.2.7c.1.1.1.3 0 .4-.1.2 0 .5-.2.6v1.8l-.2.1c.2.4 0 .7-.2 1-.1.3-.2.6-.1 1l-.4.2.1.3-.2.1c0 .6 0 1-.4 1.3.1.3 0 .4-.1.6v.5c-.1.1-.2.4-.1.6l-.1.2c-.3 0-.2.2-.3.4l-.1.2-.5.5-.2.6c-.3.2-.4.5-.5.7l-.5.4.1.7-.4.1v.3c-.4 0-.6.1-.8.5l-.2.5c-.2.1-.3.3-.3.4-.2-.1-.2.1-.2.3l-.2.1c0 .3-.2.3-.3.3l-.1.3c0 .2 0 .2-.3.2-.2.5-.2.5-.6.5l-.1.3-.7.6c-.2.1-.3.1-.3.3-.1.2-.2.4-.5.2l.1.4c0 .2-.3.1-.4.3-.3.1-.6.2-.8.5v.1l-.7.7c-.1 0-.4 0-.5.2s-.3.3-.5.3c-.2.3-.7.3-.8.7-.1 0-.1-.2-.3-.2.3-.1.4-.4.8-.5h-.3l-.6.3c-.1 0-.2 0-.2.4l-.3.5h-.2c.1.1.1.2-.1.4-.2 0-.3 0-.4-.2l-.1-.1v.5l-.9.5v.4h-.3l-.3.2c-.3 0-.7.2-1 .5v.1l-.4.3-.3.1-.3.1c-.4-.1-.8.3-1.1.3h-.2l-.3.3h-.3c0 .2-.3.3-.5.5v-.3l.2-.1c-.2-.1-.4-.1-.5.1l-.1.1-.6.3-.2.1.6-.1.6-.1c0 .2-.4.1-.6.4 0 .2-.2.6-.4.5l-.7.1c-.3 0-.6.1-.6.5l.2.4c-.3-.1-.4-.2-.6-.1l-.8.1-.2-.1.1-.1c-.1 0-.4 0-.5-.2l-.6.2c-.1 0-.2 0-.1.2l.7-.2h.1l-.2.4-.2-.2c-.2.3-.3.4-.3.7a1 1 0 0 0 -.6.1l-.2.1.2-.1c-.2 0-.4-.1-.5-.4 0-.1-.1-.1-.2 0l.1.1.1.4-.1-.1-.2.5-.5.3-.2-.1c0-.3-.2-.2-.3-.2.1.2.2.3.5.4l.3-.1.4.2h-.5c-.1 0-.2.3-.4.3l-.4.1h-.8c-.2-.1-.6-.1-.7-.4h-.2c0 .3-.3.3-.5.3v.1c0 .4 0 .4.3.3h.3l.1-.3.2.3v.5l-.7-.1.3.2c-.3.2-.3 0-.4-.2l-.6.2h-.4.1l-.7.2-.2-.2v-.2c0-.2-.1-.3-.3-.3-.2.3-.2.3-.6.4l-.5.1s-.2.2-.2 0l-.1-.2c0 .6-.6.8-1 1l-.1-.4h-.5l-.2.2c-.2 0-.3 0-.4.2a.7.7 0 0 0 -.7 0v.4l-.4-.1v.1l.2.3v.2c-.3 0-.4.2-.7-.1-.1-.1-.2-.3-.5 0l-.6.1-.1-.2.8-.2v-.2l-.3-.3-.6.4c-.4-.1-.8.2-1.1.3l.7.1c-.1.3-.2.4-.5.4l-.2.1-.3-.2v.5l-.6.1v.4l-.3-.2c-.2 0-.3 0-.5.2l-.4-.1.3-.1c.2 0 .2-.2.3-.2h.3l.7-.2v-.3c.2-.1.1-.4.1-.5-.5 0-.8.2-1.2.4-.1.2-.2.1-.5.1l.1.1h.8c0 .2 0 .3-.3.2l-.1.1-.2.1c-.2-.1-.3 0-.4 0l-.1-.4a1 1 0 0 0 -.6.2v.4h.3v-.2l.3-.1v.3h.2l-.1.4-.1-.2c-.3-.2-.3-.1-.4.1l-.1.3c-.3-.1-.3-.4-.1-.6l-.8.2v.1c-.2.3-.3.2-.6.2v.9h-.2l.1-.3-.4-.1.2.5-.3-.1c0-.1-.1-.3.1-.4 0-.1-.2-.1-.2 0-.1.4-.2.4-.5.4h-.1l-.7.1c-.3.1 0 .3 0 .3l-.5.2c-.1.2-.1 0-.3 0 .2 0 .2 0 .3-.2h-.5v.4c0-.2-.1-.2-.2-.3 0 .3 0 .3-.3.4l-.1-.3c-.1.2-.3.4-.4.2l-.2.2h-.3v.3c-.3-.1-.6-.3-.7 0l-.2-.1c-.4 0-.6 0-.9.2l-.5.1h-.5c-.3.2-.6.3-1 .2h-.5c-.3-.3-.5-.3-.8 0v-.7c-.4.2-.8 0-1 .3l.3.1h.3c0 .2-.2.2-.2.2l-1.3.2-.5.2c-.2 0-.4.2-.6 0h-.1c-.4 0-.7.2-1 0l-.4.6c0-.1 0-.3-.2-.3-.2.3-.2.3-.7.2l-.1.2-.3-.1c-.1.1-.1.3 0 .4l.4.1.2-.1v.3h.3c0-.3.3-.2.4 0 .3 0 .4 0 .3.5v.1l.1-.3c.4.2.6 0 1 0-.3-.5-.3-.5-.5-.3l-.4-.2h1.1v.5h.5c.3.2.5.2.7 0h.5c-.2 0-.3.4-.6.3l-.4.1c-.2.3-.3.2-.4 0h-.2c-.3 0-.6 0-1 .2l-.7.2c-.2.2-.4.2-.7 0-.1-.1-.3-.4-.6-.2v.2c-.2.2-.4.2-.6 0 .2 0 .2-.1.2-.2l.4.2.1-.1-.5-.4c.2-.1.2-.3.3-.4-.3-.4-.6-.1-.9-.4 0 .2-.2.3-.3.3-.3 0-.4.1-.5.2h-.1c-.2 0-.2 0-.3.2l-.7-.3h-.7c-.3.1-.4.1-.6-.1l-.2.2h-.3a433.3 433.3 0 0 0 -1.2.1c-.3.2-.4 0-.6 0v-.5h-.8c.1.3.4 0 .5.2 0 .1 0 .4-.2.4s-.4 0-.4-.3v.3l-1-.2s-.2 0-.3.2v.4s.2-.3.3-.2c.2.2.3-.2.4-.1l.1.5-.2-.1-.1.2c-.4 0-.7 0-1 .2-.3-.2 0-.4 0-.7h-2.7c-.1.3-.1.3-.3.1h-.2c0 .2-.3 0-.5 0h-.3l-.1.2c-.2 0-.4-.2-.5 0a577.1 577.1 0 0 1 0 .4c0-.2-.1 0-.3 0l.2-.6-.4.4c-.3-.4-.6-.1-.9-.2.2.1.2.2.2.5-.2-.3-.3-.1-.4-.1-.2-.2-.2 0-.4 0h-.5v-.3.1c0 .4 0 .5-.4.7h-.4l-.2.1-.2.1h-.9c-.2 0-.3 0-.3.2h-.3v-.3l-.2-.1c.2-.4.5-.3.6-.4.3-.1.4.1.6.4.2-.2.3-.3.2-.5h-.6c0-.2.2-.2.3-.3l-.7-.1h-.2c-.3 0-.7.2-1 0h-1c-.1.2-.2.3-.4.3s0-.2-.2-.3h-.5c-.3 0-.6 0-.8.3 0 .2-.2.2-.2.3l-.2-.1c.1-.2.2 0 .2-.3-.2.1-.2.1-.8-.4l-.1.3c-.3-.1-.5-.3-.7-.1-.3-.3-.4 0-.5.2l-.4-.1v.2c-.1 0-.2.2-.2 0-.3-.2-.5 0-.6.2-.3.1-.5.1-.7-.2v.3-.3h-.8c-.1.2-.4 0-.5.2h-.7l-.1-.4-.4.1.1.3h-.3c-.3 0-.2.2-.3.2l-.4-.1c0 .1 0 .3-.2.4l.2.2c-.3 0-.3 0-.3-.2l.1-.5h.2v-.2c-.4-.1-1 0-1.3.3l-.1-.3c-.4.2-.7.2-1-.1-.1.3-.1.3-.3 0l-.4.3h-.4l.1-.6c-.3 0 0 .3-.2.4l-.2-.1h-.5c0 .3-.4.1-.4.5h-.2l-.4 0c0 .5.4.2.6.5v-.3l.8.3-.3.1-.2.2v.5l-.1-.1h-.3l.5.6h.5l.5.1s.3 0 .4.2c0 .2 0 .2-.3.2h-.9l-.3-.2v-.3l-.1-.1h-.3l-.1-.4-.4.5c-.2-.3-.3-.1-.6-.1 0 .1.1.2.3.2-.2.3-.4 0-.5 0s-.3 0-.5-.2c-.1-.2-.4-.2-.5-.2.1-.2.4-.2.5 0 .1 0 .2 0 .2-.2l.2.1.2-.2c-.2 0-.5 0-.7-.4l.3.1c0-.3 0-.4-.3-.4s-.2.3-.2.4l-.4-.1c0-.2 0-.2.2-.3v-.5l-.1.1c.1.3-.3.5-.3 1 0-.2-.2-.2-.3-.3-.3.2-.3.2.1.2l.1.3h-1l.2.2h-.5l.2-.3c.1-.2.3 0 .4 0l.1-.4c.1 0 .3 0 .5-.2v-.4l-.4.2v-.2c-.2.2-.2 0-.3 0h-.2l.2.2v.2l-.2-.1c0 .1-.2 0-.4 0 0 .3.2.4.3.5l-.5.2s-.2 0-.3-.2l-.3-.4h.5c.3-.1.5-.4.9-.2v-.2h-.8s-.2 0-.2-.2v-.3h-.5v.1h.4c0 .2-.2.2-.2.3l-.2.1-.2-.2c-.2-.2-.2.1-.3.1-.5-.3-.6-.1-.7.1a1 1 0 0 0 -.6.2c-.4.2-.5 0-.6-.2l-.2-.1v.3l-.3-.6.1-.2c-.5 0-.8.1-1.2-.3v.5c-.1 0-.3 0-.4-.2-.1 0-.1-.2-.2 0h-.8c-.3-.2-.4-.2-.7.2 0-.2-.2-.2-.3-.4l.2-.2v-.3h-.2c0 .3-.1.5-.3.5a1 1 0 0 1 -.6.2l.4.1c-.1.1-.1.3-.4.1 0-.1-.2 0-.2.2h.2c.3 0 .4-.2.6 0l.9.4.2.2.4-.5-.1-.1c.1-.2.2 0 .3.1v.3c.4 0 .4 0 .2.4-.2 0-.2.2-.2.3h.5l.1.4h.2c0 .3-.3 0-.3.3.3.1.5.1.6.3.1-.3 0-.4 0-.4-.2 0-.2-.2-.2-.3h.6l-.1-.3c.2-.2 0-.2-.1-.3 0-.2.3-.3.4-.2l.3.2h.5v.3l.7-.2.2.6c.2 0 .2-.2.2-.4-.2 0-.2 0-.3-.2.1-.3.4 0 .5 0l-.2-.3h-.8v-.1l.4-.1c.4-.3.4-.3.6 0l.1-.2.1.2c.2 0 .2-.2.2-.2.2 0 .3 0 .4.2.2.1.2.2.3.4l-.4.2c-.3-.2 0-.4 0-.6l-.2.2c0 .3-.1.4-.3.5l.3.3c-.3.1-.6.1-.7.5h1.5l1 .2h.5c.2-.2.4-.2.6 0 .1 0 .2.1.4 0 0-.2.3-.2.4 0h.2l-.2-.3h1.3l-.4.4.5.1h.2l.1-.2v-.2c.2 0 .2.2.2.2 0 .1 0 .2.2.2.4.2.7.2 1.2.2.5-.2.9 0 1.4-.2l1 .2h2.6c.1 0 .4 0 .5-.2h.3c.2.2.4.2.5 0h.5c.1 0 .4.2.5 0-.2-.5-.6-.2-1-.2 0-.3.2-.4.3-.5l.2-.6c.3.2.5 0 .7 0-.2-.2-.3 0-.4 0l-.2-.2v-.1c0-.2.2-.3.3-.4h.6c.1 0 .2-.3.4-.2l.4.6c.2.2.4 0 .5.2l-.1.3h.2v-.5c.3 0 .3 0 .5-.3l.4-.1c.1.2.2.1.5 0 .1-.2.2 0 .3 0 0 .1-.2.2 0 .4h.7v-.4l.4.2h-.2v.3l-.6-.1c-.1.2-.4.4-.6.2v-.4h-.3l.3.3-.3.1-.6-.1c-.1.1-.4.4-.7.2-.3 0-.1.2-.1.3.2.1.3.1.4-.1l.7.4-.2-.2h1.7l.2.2h-.4l-.1.1.5.1-.3.4c-.1.2-.2.4-.5.4-.2 0-.3.1-.5.4v.1c-.2 0-.2 0-.2.2-.1.1-.1.4-.4.4-.2 0-.2.3-.3.5l-1.1.6c-.2 0-.3.2-.3.2-.2 0-.1 0-.2.2h-.3v-.1l-.3.2-.9.6c-.1.1-.2 0-.2 0l-.5.2-.2.2c-.2.2-.3 0-.4 0-.1.2-.4 0-.4 0-.2.3-.6.3-1 .5l-.3.2h-.5v-.4l-.4.2-.2.1-.4.1h-.2v.3c-.3.1-.1-.3-.3-.3l-.8.2h-2.2c-.1.2-.4 0-.5 0-.2 0-.6 0-.8.2v.3c-.1.1-.1 0-.3-.2 0 0-.3 0-.5.2v.1l-.3-.1c0-.4.2-.2.3-.3l-.2-.2c-.1 0-.2-.2-.5-.2-.2 0-.5-.1-.8 0-.1-.1-.3 0-.5.2h-.4c-.2-.2-.3-.3-.7-.2-.1 0-.2.1-.4 0 0-.1-.3 0-.3.3l.3.1s-.3.1-.5-.1a.7.7 0 0 0 -.6-.4l-.3-.1c-.5-.2-.9-.3-1.4-.2l-.2-.1-.7-.1h-.3l-.5-.2c0-.2-.2-.1-.2-.2l-.2.2-.3-.2h-.6l-.2.2c0-.4-.3-.2-.4-.4l-.7-.2c0 .2.3.1.3.4l-.4-.2c0-.2 0-.2-.4-.4h-.4c-.1-.2-.3-.2-.5-.2l-1-.3-.3-.1c-.1 0-.2-.1-.4 0l-.2.1h-.6c-.3 0-.4.1-.4.3-.3-.2-.6-.6-1-.2 0 0-.2 0-.2-.2.1 0 .1-.2.3-.2 0-.2-.2-.5-.4-.5l-.1-.2h-.9l-.1-.3c-.2.1-.4.1-.5.3h-.6c.1-.2.3-.3.4-.3-.4-.3-.8.1-1-.1-.2-.3-.7 0-1-.4 0 .2-.3.2-.6.1-.1 0-.2-.1-.2 0l-.7.1c-.4 0-.5-.1-.7-.4l-.3.2c.1-.4.1-.4-.3-.4v.4c0-.2-.2-.2-.2-.2-.1-.4.1-.4.2-.4l-.2-.2.5-.1-.4-.2c0 .2-.1.2-.2.3l-.1-.1c0-.3-.2-.3-.3-.4-.2-.2-.6-.3-.8-.3l-.2.1c-.2-.2-.7-.2-.6-.8-.2 0-.3 0-.4.3l-.5-.3c-.3 0-.5 0-.8-.2l-.2-.1c-.2 0-.4 0-.5-.2a2 2 0 0 0 -.8-.5l-.3-.1c-.2-.4-.8-.2-1-.6l-.2.2-1-.4c-.2.4.2.1.2.2-.2.3-.4.3-.4.2l-.2-.2a.7.7 0 0 1 -.7-.3c-.2 0-.2 0-.2-.3h.2c-.2-.1-.4-.4-.7-.4l.3.4c-.3-.1-.5-.3-.8-.3l.5-.1-.1-.1c-.1-.2-.2-.2-.4-.2l-1-.7c0-.2-.2-.3-.3-.3h-.1c-.1-.3-.4-.1-.6-.4l-.3.4c-4.6-1.5-4.6-1.6-4.8-1.8zm69.6 2-.6.2h-.3c-.2.1-.3.3-.4.1l-.1-.2-.3.2v-.2c-.2.4-.6.2-.8.4v-.4c.2 0 .6 0 .7-.4l.4.2c.1-.4.3-.4.6-.4h.2c.2 0 .3-.3.5 0l-.5.3c.5.1.9-.3 1.4 0-.3.1-.4.4-.5.5l.1.2h-.5l.1-.4zm-12.4 2.4h-1.7v-.1l.4-.4c.2-.4.7-.3.8.1l.5.1zm36.8-6.5c.3-.2.1-.5.5-.6l.1.2c.3-.2 0-.5.1-.6.3 0 .5-.4.9-.3 0 .4-.4.2-.5.4v.4l-.4.7-.2-.2-.1.3zm-17.3-69.9.5.2v-.4c.2 0 .5 0 .6.3h-.4l-.3.1-1 .1c-.3 0-.3 0-.4-.2l.4-.2-.1-.2.3.1-.2.3.6-.2zm47.4 14.9c-.2 0-.5 0-.6-.3l-.2-.4v-.1l.3.2c.5 0 .6.4 1 .7.1.1.1.2 0 .4-.1-.2-.2-.4-.5-.5zm-100.3-13.4c-.2.3-.2.4-.4.4l-1 .1c-.3 0-.3-.1-.3-.2v-.2c.2.2.3.2.5.2v-.3h.7l-.3.1h.4c.1 0 .2-.2.4 0zm43 73.5-.2.1-.4-.2-.6.1.3-.5h.5v-.1h.8v.3c-.2.3-.4.3-.5.3zm15-2c-.1 0-.1.2-.3.2l-.2.1c-.3.4-.6.2-1 .2l-.1-.2.1-.1h.1c.3 0 .5-.1.8-.3h-.8.8c.3 0 .5 0 .6.2zm-40 2.9v-.3c0-.3 0-.3.4-.2v.3h.1l.3-.2h.5v.2c-.2 0-.2 0-.3.2l.3.1c-.2 0-.3.3-.4 0h-.5c0-.3-.3-.1-.5-.1zm28.8-2.2v.3c.1-.2.4.1.5 0 0 .4-.4.5-.6.7-.1 0-.3-.3-.5 0 .2-.5.2-.9.6-1zm4 1.2h-.4c.2-.1 0-.1 0-.3l-.2-.2c-.2 0-.4 0-.5-.2h-.5l.8-.2c.3.1.5.1.6.5v.3c.2 0 .3 0 .5-.2-.2 0-.2.2-.3.3zm-40.4-74.5h-.7c-.1 0-.1.2-.3.2l.2.1-.4.2-.2-.3v-.3c.6-.2 1 0 1.4 0zm87.4 57.6-.1.3-.3.2c0 .3-.4.3-.7.2.1-.7.6-.7 1.1-.7zm-107.3-55c.7-.2 1.6-.5 2.3-.3l-2.2.4-.1-.2c.1.2 0 .2 0 0zm72.8 68.8h.9c.2-.1.5-.1.7-.3l.1.2c-.2 0-.3 0-.5.2v.3h-.6c-.2-.2-.3-.2-.6.1zm-32.3 3.2c.3-.3.5-.1.6-.3.2-.1.3.2.3.4-.1-.2-.3-.2-.5 0l-.2-.1s-.2.1-.2 0c0 0-.2-.1-.2-.3-.1.2-.1.2-.4 0l.3-.1c0-.1-.3 0-.3-.3.3 0 .4.3.6.4zm48.8-7.5-1 .3v-.6c.2.2.4 0 .5 0 .2 0 .3 0 .5.3zm-54.4-68.2c0-.2 0-.2.2-.2h.7l.2.1a.4.4 0 0 0 -.5 0l.3.3h-.5l-.1-.3zm-14.3.8h.3l.7-.1h.4c-.2.2-.2.4-.4.2-.3 0-.5 0-.9.2 0 0-.2 0 0-.3zm9.3 74.5v.2c-.4 0-.4 0-.5.3l-.3-.1-.1-.3.2-.1zm43-2.4c-.4.2-.8.1-1.2.1.1-.1.4-.4.6-.3.2 0 .2.2.3 0l.2.2zm-65.7-70.4c0 .4-.4 0-.5 0v.4c-.1 0-.2 0-.2-.2l-.4-.1.5-.1zm47 72.6h.4c.2 0 .3 0 .2.3-.2.3-.4 0-.5.2l-.2-.2c.2 0 .2-.2.2-.3zm-50-72.1v.2c-.3.2-.5.3-.8 0 .3-.2.5-.2.8-.2zm70.5-.5-.3-.3c.6-.1.9-.1.9.1l-.2.3c-.3-.4-.3-.4-.4-.1zm-42.2-1.4c-.2-.2-.6-.4-.5-.5l.3-.2c.1.2.2.3.4.3zm27.5 73h-.9l.2-.2h.3v-.4c.4.2.4.3.4.4zm38.4-10.6c0 .3-.2.2-.3.2.1-.3-.1-.6.1-.8h.2c-.2.1-.3.2-.2.5zm-50.8 12.6c0-.4.2-.4.3-.4.2 0 .3.1.2.4zm-32.4 7c-.2.1-.4.1-.4-.2h-.3s-.2 0-.2-.2c.1-.2.2-.2.4 0zm-3.3-81.4c.1 0 .4.1.4.3h.4v.2h-.4l-.2-.1v-.4zm16.2 74h-.5v-.3l.2.1.3.3zm7.5-.4c-.3.5-.3.5-.5.4.1-.2.1-.5.5-.4zm-8.6.9s.3-.2.3.1l-.2.4-.3-.1zm41.2-1.8c0-.1 0-.1 0 0h.9l-.8.2v-.2zm-16.2-74.5.2.6-.1.2-.1-.1zm-8.3.4c-.2.3-.5.3-.9 0l.8-.1zm54.4 65c-.1 0-.3 0-.3.2l-.2-.1c0-.2-.1-.3-.3-.4 0 0 0-.2.2-.2l.2.4c.1.3.1-.1.4 0zm7.4-52.5v.3a.7.7 0 0 1 -.7-.4zm-11.3 53.7.5-.4.1.2h-.1c-.1 0-.3 0-.5.2zm-24.9-64.8-.4-.2c0-.1 0-.2.2-.2 0 0 .2.1.2.4zm-41 74c.2-.4.2-.6.5-.6l-.2.6h-.2zm68.4-10h-.4c0-.2.3-.2.4-.4zm-65.4 9.8c0-.2.1-.4.4-.2v.2zm64.2-9.2h-.5v-.2s.2-.1.2 0zm-15.8 4.6c0 .2-.2.2-.3.3l-.1-.4c.2-.3.3-.1.4.1zm13.8-3c-.2 0-.4 0-.5-.2.2-.3.3-.3.5.1zm18.4-9.8c.1 0 .3.1.4-.2h.2l-.6.4zm-120.9 17.1.6.1-.1.3c-.1-.1-.4 0-.5-.4zm92.5-6.5c.1-.2.4-.2.6-.2-.4-.2-.2.2-.4.3h-.2zm10-63c0-.2 0-.2 0 0h.3v.2h-.1c-.1-.2-.1-.3-.3-.3zm-3.8-.4c.1.3 0 .4-.1.6l-.3-.4h.3v-.2zm-25.6-1.8c.2-.2.3-.2.6.1zm-54.6-1h.6l.1.1c-.4.1-.4.1-.7-.1zm50-1.9.3-.1h.3l-.4.2zm44.2 60.3-.2.7v-.5c0-.2 0-.2.2-.2zm-110.6 18.2h.8c-.3.1-.6.1-.8 0zm40.5-78.8-.3-.3c.2-.1.3-.2.4-.1v.4zm63.3 63.9c-.2-.2-.4-.3-.3-.5h.4zm-119.5-54c-.2-.1-.2-.1-.1-.4l.2.2v.2zm96.1 61.6.3-.1.1-.3c0 .4 0 .6-.4.4zm-33.6 3.5-.2.2h-.2zm-30.2-73 .1-.4h.1v.3c.2.1 0 .1-.2 0zm65.2 69.2c.2 0 .2-.4.5-.2-.4.3-.4.3-.5.2zm-88.4 1.6c-.2.2-.3 0-.4 0v-.4zm100-4.5v-.1c0-.2.2-.2.3 0l-.2.2zm-52 7c-.3 0-.4 0-.5-.3h.5zm78.2-18.8c.1-.4.3-.4.5-.3zm-37.6 15.7c.1-.4.3-.4.4-.3zm-30.4-72.3c-.3 0-.4.4-.6 0zm54 62.4c.1 0 .2 0 .3.3h-.3v-.4zm-22.5 9.2-.3-.2c0-.2 0-.2.3 0zm32.9-60.3c-.2-.1-.4-.3-.4-.5.3 0 .4 0 .4.5zm-50.6 63c-.1-.3-.2-.1-.4-.4h.4zm-38.4 1.8c0-.2-.2-.2-.3-.2.1 0 .2 0 .3-.2zm36-2c0-.2.2-.2.3-.2l.2.1-.5.2zm-68.2-.6c0 .2 0 .2 0 0-.3.2-.3.2-.4-.1zm50.4 2c.2 0 .2 0 0 0l.3-.2v.4l-.3-.3zm2.8-.3h-.6c.3 0 .5-.3.6 0zm49.6-71.1.3.2-.2.2zm-52.8 74.8c0-.2.1-.3.2-.3v.1c0 .2-.1.2-.2.2zm-21.6-4.1c0-.1 0-.1 0 0 .2 0 .3 0 .2.2zm75.2-8.6c0 .2-.2.1-.3.1.1-.2.2-.1.3-.1zm-68.5 9.5c-.2.1-.2.3-.4.1l.2-.2zm68.9-9.4-.1-.4c0 .2.2.2.3.3zm-63.3-66h-.4c.2-.2.3 0 .4 0zm22.7.2c.3.1.3.1 0 .4zm54 60.2c-.2.3-.2.3-.4.2.1 0 .2 0 .3-.2zm-27.7 12c0-.2-.2-.2-.2-.3l.4-.1zm-46.2 4.2.4.1c-.3.2-.3 0-.4-.1zm66.7-11.4c.1-.2.1-.2.3 0zm-77.2 10.6v.3zm75-11.9c0-.4 0-.4.2-.2zm9.7-5-.1-.3.2-.1v.4zm-136.4 6.1h.4zm127-.9v-.4c.2.3.2.3 0 .4zm-65-64.1c0 .3 0 .3-.2.3zm26.2 74.4c-.1 0-.2 0-.2-.2zm3.2-74c-.3 0-.3 0-.4-.2l.4.2c-.1-.2-.1 0 0 0zm15.3 71.5c0-.3 0-.3.3 0zm7.2-2.1s0-.2-.2-.3l.2-.1zm-39-70.2c.2-.3.2-.3.4-.2l-.3.2zm21.4 73.8.4-.3c-.1.4-.4.3-.4.3zm-20.5 1.4.4-.1c-.1.2-.1.2-.4.1zm-38.1 6.3-.4-.2c.1 0 .3 0 .4.2zm50.8-5.5-.3-.1.2-.2zm-43.2-1.4.2-.4zm39.1.4-.1.2c-.1-.1 0-.1.1-.2zm46.2-12h-.4c.1-.4.2 0 .4 0zm-35 11.7h.2v.3zm-12 1.4c0-.1 0-.2.2-.2 0 0 0 .2-.2.2zm55.8-62c-.3.2-.3.2-.4 0zm-88 61.6.1.4c-.2-.2-.2-.2-.1-.4zm93.5-19.8.2-.1c0 .2 0 .2-.2 0zm-95.8-55v.3l-.4-.1zm64 69 .3-.1v.4c0-.2 0-.3-.2-.3zm-3-67.3c-.3.2-.4.2-.3-.1l.2.1zm0 67.6c.3-.2.3-.2.4.1l-.3-.1zm26.3-8.2-.4.1v-.1zm-22.7 8.6v-.4l.3.2zm-5.7 2c-.2 0-.2.2-.2.2v-.2zm13-67s0-.4.2-.4c0 .3-.1.4-.3.3zm-57 69.4.1.3v-.3zm-1 .3-.2.1h.3zm-17.4-73.4c0-.3 0-.3.2-.2 0 0 0 .2-.2.2zm70.9 67.8h-.3zm-70.3 5.3c-.1-.1-.1-.1 0-.4zm14-75v.2-.3zm-42.3 73.2h-.2c.2-.2.2 0 .3 0zm-2.5-66.1h.3zm113 59-.1.2h-.2c.2-.1.3-.1.3-.3zm-139.5-22.5v.4c-.3 0 0-.2 0-.4zm55.1 38.8c.1-.1.3-.1.4 0-.1.1-.3.1-.4 0zm57.7-10.3c-.1.3-.1.3-.4.1h.4zm3.7-1c.2-.2.2-.2 0 0 .2-.2.3 0 .4 0-.1.1-.2 0-.4 0zm17-3.8c-.2.2-.3.2-.4 0h.3zm-56-66.7c0-.1 0-.3.2-.3.1.3 0 .3-.1.3zm23 73.4h.3zm28.5-5.4c0-.1 0-.1 0 0l.3-.1.1.1c-.2-.1-.2 0-.4 0zm11.6-61.4c-.3.2-.3.2-.4 0zm-66.4 68.5.2.1-.2.2zm65.8-9.8c0 .1-.1.3-.3.3v-.2zm-7.8-60.3c.1 0 .1 0 0 0l.1.2h-.1c.1 0 .1 0 0-.2zm-94.8 71.6.4-.1c0 .1-.2.2-.4.1zm24.8-76.4c0 .2-.1.2-.3.2v-.2zm78.6 64.6h-.2c.1-.3.1-.1.2 0zm-56 10.3h-.3v-.1l.2.1zm-8.8-75.8s0 .2-.2.2v-.2h.3zm-60 11.3c0 .2 0 .2-.2.1l.3-.1zm52.7 64.2c0-.2.1-.1.2-.1v.1zm-5.1 7.8c0 .2 0 .2 0 0-.1.2-.3 0-.4 0zm51.1-10.2-.1.3zm-3.3-.1.3.1h-.2v-.1zm.4-.3c.1 0 .1 0 0 0l.2.2s-.2 0-.2-.2zm34.6-10c.1 0 .2 0 .2.2l-.2-.1zm-77.8 12.7h-.1l-.1-.2v-.1zm41.5-70.9-.4.1c.3-.1.3-.2.4-.1zm35.3 56c.2.1 0 .1 0 .3zm-16.1-56-.1-.2s.2 0 0 .2zm-52.7-4.6-.2.3c0-.3 0-.4.2-.3zm3.5.7.3-.3c.1.3 0 .3-.3.3zm26.2 74v.3-.2zm-103.5-17.2c.1-.1.1-.3.3 0zm97.7-56.9h.3v.1zm13.6 73.2.3-.3v.2h-.3zm-41.2-73c0 .1 0 .1 0 0h-.3v-.1zm.5 75.5h.3zm33-2.8c-.2.1-.2 0-.2-.3l.3.3zm-53.7-71.1.2.2c-.1.1-.2.1-.2-.2zm94.1 10.9.3.1zm-94.6-11c0-.1 0-.1 0 0 .1-.1.1-.3.2 0zm98 12.4v.3zm-142.4 1.2v-.2h.1zm149.8 5.9c0-.1 0-.1 0 0 0-.1 0 0 .2 0v.1l-.3-.1zm-158.1 2.3v.2h-.1zm163.8 9.6-.2.1zm-1 5.2c.2 0 .2 0 0 0 .2.1.2.1 0 .2zm-134.9-31.6h-.3s.2-.2.2 0zm58 69.1h.2zm71.1-20.8v.1h-.1zm-8.6 3.7.1-.2v.1zm-75.1 16.5.2.1h-.1v-.1zm74.1-13c-.1 0-.1 0 0 0zm-57.7 13c0 .1 0 .1 0 0l-.2.1v-.1c0 .1.1 0 .2 0zm50-11.8v.1zm-39 11.3v-.3h.2l-.1.3zm36.6-10.5.1.3v-.3zm-52.9-64.5c.1.1.1.1 0 0v.2h-.1zm-13.1.2.2-.1v.1zm56.3 67.1v.3h-.1zm-55.3-66.8s.2 0 0 .2zm52.8 69h.2v.2l-.2-.1zm-1.4.3c-.1 0-.1 0 0 0l.3-.1v.1zm-9.8 2.2-.1.1h-.2.2zm3.9-1.3c0 .1 0 .1 0 0l-.2.1h.2zm1.7-68.7c-.2.1-.3.1-.3-.1zm-65.2-.4.1.1-.1.2-.1-.2h.1zm4.4-.4s-.2 0-.2.2c0-.2 0-.3.2-.2zm1.3-.2v.2c-.2 0-.1 0 0-.2zm-36.3 68.8c0 .1 0 .1 0 0h-.1v-.2zm92.1 3.5c-.1.2-.1 0-.1 0 0-.1 0-.1.1 0 0-.1 0-.1 0 0zm-47.4-72.3h-.1v-.1zm51.2 68.7h-.3.3c-.1-.2-.1 0 0 0zm4.4-1v-.4.2zm-1.4-.5c0 .2 0 .2 0 0v.2zm-17.8 5.1v.1h-.1v-.1zm-32.8-72.6-.1-.2c.2 0 .2 0 .1.2zm-19.7 80.9c0-.2 0 0 0 0zm82-14.6-.1.1v-.3.2zm-92.3-63.3.2-.1h-.2zm41.4-3.5c0 .2 0 .2-.2.2zm.5-.3c.1.1 0 .1 0 .2h-.1zm52.7 64.8h-.3v-.2zm6.2-.2v-.1c.1.1.1.1 0 .1zm-54.5-64.4c.1-.1.2 0 .2 0zm-51.2 4.5h-.3zm32.8 70.5-.2-.2zm68.9-11.4v-.2h.1zm-81 11.6c0 .2 0 .2-.1.1zm83.3-12.1c0 .1 0 .1 0 0 .1.1 0 .1 0 .1 0 .1-.1.1 0-.1-.1.1 0 .1 0 0zm-42.2 13v-.2.1zm51-18.1v-.1zm-53.4 18h.3v.2c-.2 0-.3 0-.3-.2zm-23 .1v-.1zm-4.6 0-.2-.1zm-1.3 7.1.1-.2v.2zm72.3-76.8v-.2zm-75.4 69.6v.1h-.2v-.1zm-42.4-67.1.1-.1z" fill="#82d7b9"/></svg>