<svg fill="none" height="87" width="177" xmlns="http://www.w3.org/2000/svg"><path d="m4 64-.4-.3c0-.2 0-.4-.2-.5v-.4l.4-.3c.4 0 .8.4 1.3.4v.2-.2l-.2-.3h-.4v-.3l.2-.1-.2-.4v.5c-.3 0-.2-.3-.2-.5l-.4.2h-.3v-.1h.2v-.1l-.3-.1v-.3c-.2-.1-.4.2-.6 0 0-.3.4-.3.6-.5l-.3-.5v.4h-.2s-.1-.3-.3-.3v-.3h-.1v.3c-.3 0-.3 0-.4-.4v-.1l.4-.5.6.1h.2s.1.2.2 0h-.4l.2-.2-.1-.3-.4.1-.4-1.3v-.2l.4.6c.1 0 .2 0 .1-.2l-.1-.9-.3-.2h-.6l.4-.3.1-.2v-.2l-.3-.2-.3 1.2c-.2-.2-.2-.2-.1-.7-.2-.2-.3 0-.4.1h-.1v-.1c.1-.2 0-.5.3-.7l-.5-.4-.2-.7.4-.2-.6-.3c0-.3.4-.4.3-.7l-.4-.2.2-.5c-.3 0-.3 0-.7-.3 0-.2.2-.1.4-.1v-.2c-.3-.2-.1-.6-.2-.9v-.2l.3-.2.5-.1h.2c.2.3.2.6.1.9 0 .2 0 .2.4.4l-.1-1.5v-.2c.3-.4 0-1 0-1.4.1-.5 0-.4-.3-.7l-.1.6c-.2.1 0 .3-.3.5 0-.6-.1-1.2.2-1.7h-.2c-.1 0-.3 0-.3-.2.5-.1.7-.7 1.2-.7l.1-.2c0-.2.4-.2.4-.4l.1-.5c0-.1 0-.4.2-.4.3 0 .2.3.3.4a2.3 2.3 0 0 1 -.4.9v.1h.2l.1-.2v-.8c.2 0 .3-.2.4-.3l.1-.2v-.1c0-.3.1-.4.4-.3l.5.3h-.3c-.3.2-.3.3-.2.6l.2.2.2.3v.3c-.1.3-.3.5-.6.7l.3.5c-.1.1 0 .4-.2.5v2l-.5.3v-.2l-.2-.1v.1c0 .6-.2 1.1 0 1.7l.4.1.4.2-.1.6c-.3 0-.3 0-.5-.5l-.1.3v.5h.2l.2-.1.5.3-.1.3c-.3.2-.1.5-.2.7 0 .1.3.1.1.3s0 .3 0 .5c.2 0 .2.2.2.4v.6l.1.1c.2.3.3.6.2 1l-.1.2c.6.5 1 1.2 1 1.9v.4c.2.3.3.6.2 1 .5.4.5.4.4 1l.3.2.3.3.1.4.1.2.3.2v.3l.2.4a5.7 5.7 0 0 1 1 1.4l.3.3.8 1.3v.4c.4.2.7.5.9.8.1.3.4.5.7.7.2.3.5.5.9.6.6.3 1.1.7 1.5 1.2.2.2.3.3.5.3l.3.2.1.2.2.1 1.6 1.1.8.5.5.3c.2.2.5.2.7.3l.4.4c.6.1 1 .6 1.5.8l1 .6.4.1c.6.1 1.2.3 1.7.6a13 13 0 0 0 3 1.1c.6.1 1.1.4 1.7.4v.3c.1.2.5 0 .7.2h.2c.4.6.4.6 1.1.5l.6-.1h.4v.4l.5.3.8-.2v-.3c.5 0 .5 0 .6.2.2 0 .5-.2.8 0l-.3.4h.5l.3-.2.2.2.8.1c.1 0 .3.2.5 0l.5.4h.6l.3.1.1.2c.3.3.7.2 1 .2h.5v.1h.1l1.4.4h.3c0-.2-.3-.3-.4-.5h.1c.1-.2.2-.2.4-.2h.4l.1.7.2.1a125.2 125.2 0 0 0 .1-.3l.4.1c.3 0 0-.3.1-.4.4.2.8.4 1.3 0l.6.5.1.6a2.2 2.2 0 0 0 1.7-.1l.7.3h.2s.1-.2.3-.1h.5c.2.3.5.3.7.3h.2c0-.2.1-.3.3-.2.1.1.2 0 .2 0 .3-.2.6 0 .9 0l.3.6h.7l.3-.3h.1v.2l.3.2h1.5l.1-.1h.4l.4-.1v.1l.3-.1.3.2h.3c0-.2.2-.3.3-.3h.1l.2.2.1.4c.3 0 .6.1.8-.2.7.1 1.4-.2 2.1-.2l.5-.1c.1-.1.3.2.5 0 .2.2.6 0 .7.3 0 .3.3.1.4 0l1.1.5h.2v-.4l-.1-.2h.1l.1.1c.1.1.2.3.4.2l.2-.1h.5c.4.2.7 0 1-.2h.2c.4 0 .7 0 .7.5h1.2v-.2h.4c.2 0 .2 0 .2-.2h.5c.2 0 .2 0 .2.3h.5c.3.2.6 0 .9-.1l.1-.3.7.3c.4 0 .8-.1 1-.3.2 0 .2-.1.3-.2 0 .3.3.5.6.5l.3-.1.3-.2c.4-.1.8-.3 1-.7.3.5.9 0 1 .6.2-.4.2-.4.6-.5l-.2.4.2.3h.2c.2-.2.3-.5.7-.4 0 0 0-.2.3-.2.2.1.3 0 .4.3l.2.1h.1-.1s0-.2.2-.3l.4-.1.4.2c.3-.1.7-.1.8-.5.3 0 .6.2.8.1.2 0 .4.3.7.1v.2-.1l-.2-.6.2-.2h.3l.8-.1.1.4h.1s.2-.2.4-.1h.7c.5-.1 1-.2 1.4-.1l1-.3c.3.1.6.3.9.1l-.1.2v-.1h1.2l.2.3c.3 0 .3-.3.4-.4h.5v-.5c.3-.2.7 0 1-.2l.3.4c.1 0 .3 0 .4-.2v-.2h.3v.2l.2-.1.1-.3.6-.3c.3-.1.3 0 .5.1l.2.3.3-.4.4-.2v.4h.1v-.3h.2l.2-.2c.1 0 .2.2.5.2l.1.2v.1l.2-.1v-.2h.4v-.2l.4.6.1-.4h.3v-.1c-.3 0-.3-.2-.3-.4.1-.2.2 0 .2 0 .2.1.3.1.3-.2l.9.3.4-.3.2-.1h.2a.6.6 0 0 0 .5 0c.1-.1.2 0 .3.2l.8-.3v.5l1-.5c.1 0 .2 0 .3-.2l.2-.2c.1 0 .3-.1.4 0l.4.1h-.1.1c.2 0 .2-.2.3-.3l.3.3.2-.4h.4l.3-.3.2.1.3.3.5.1h.1l.2.2h.4v-.7l.4.2c.6-.4 1.3-.7 2.1-.8l1.2-.3c.2.1.4.4.8.4.4-.1.4-.1.8-.6.4 0 .4.4.7.6l.4-.4-.2-.2.2-.5h.2l-.1-.4v-.1h1c.2-.2.5-.3.6-.7.2 0 .2.1.2.3l.1.2c.2-.1.2-.4.3-.5a2.6 2.6 0 0 0 .6-.4.8.8 0 0 1 .8.1 4 4 0 0 1 1.2-.7c.3.1.4.3.5.6l.5-.2.3-.3.2.3h.3l.4-.1.5-.2h.6l.1-.5.2.3c.2 0 .1-.2.2-.3l.8.3h.2l.2-.1.9-.6-.2-.3c.4-.2.5.1.7.2l.1-.3h1l.3.1.6-.3v-.2c.1-.2.3 0 .5 0 0-.2.3-.2.5-.2l.4.3h.6c.2.2.4 0 .6-.1-.2-.3-.7-.1-.7-.6l.4-.2.2.4h.9c.1-.2-.1-.3-.2-.4.2-.2.4-.5.7-.6.3-.2.2-.3 0-.6v-.2h.5v.6l.6-.4h.3c.2 0 .4-.3.7-.3h.4s.2 0 .2-.2l.3-.4v-.2l.2-.1h.3c.4-.1.4.1.4.4h-.2.2l.1-.2c.2-.5.3-.6.8-.4a.8.8 0 0 0 .7 0c-.1.1-.2.3-.4.3v.2-.1c.3 0 .3 0 .4-.3-.2 0-.1-.3-.2-.3l.3-.1.3.3.3-.5.2.2c.1.3.3.3.6.2l.1-.7 1-.1h.2c.3 0 .4 0 .6-.2s.3-.2.4.1h-.1v.1h.1l.7.1.5-.2-.1-.4-.4-.3v-.2l1.1-.5.2.1h-.1c.4-.1.4-.1.6-.4h.1l.1.2 1.3-.2c.3 0 .3 0 .7-.5-.3-.3-.4.2-.7.1l-.1-.5h.4c.3 0 .3-.2.3-.4l.3.1s.2 0 .2-.2c.5 0 1-.2 1.2-.5l.3.1c0 .2 0 .3.2.2l.2-.1-.2-.2c0-.3.1-.4.4-.5v.4l.2-.2h-.2l.3-.3v-.3h.4l.2.4h.2c0-.3.4-.4.7-.5 0-.2-.1-.2-.2-.2l-.2-.2c.3-.2.6-.1.8-.4h.3l-.2.4a.5.5 0 0 0 .3 0l.2-.2.5-.5c.2-.2.4-.3.7-.2l.5-.1h.1l.1-.1.1-.2.3-.1a.7.7 0 0 1 .5 0c.1 0 .1-.3.3-.3l.5-.2.1-.4h.5v.2h.6c.2 0 .3 0 .4-.2.1 0 .2 0 .3.2l.3-.1c0-.2-.1-.4-.4-.4l-.4-.8c.1-.2.4-.2.6-.3l.2-.2.2-.2v.4h.1l.2-.3.3-.3.2-.2.5.2.2-.3-.1-.3 1-.2c.1 0 .2 0 .3-.3 0-.3 0-.2.4-.2h.2v-.3c.2 0 .5 0 .7-.2h.2l.3-.1.2-.2.6-.3.1-.1c.4 0 .6-.4.9-.7l-.5-.1.3-.3h1.1l-.2-.8.5.1v-.2h.8c.2-.2 0-.4 0-.5 0-.2.3-.3.1-.6l.7-.2.2-.2.1-.2h.4s.3.1.4-.1c.3 0 .4-.1.4-.3l.1-1 .4.1 1.6-1.3.3.2.6-.4-.1-.4c.4 0 .4 0 .5-.6l.5-.1.3-.3.2-.4h.5c.2 0 .3-.2.4-.4l.3-.1v-.3l.2-.3c.2-.2.2-.5.5-.7 0-.2 0-.3.2-.3s.2-.2.3-.3v.4h.3l.4-.4c-.2-.2-.5-.3-.2-.6 0-.4 0-.7-.4-1v-.2c.2 0 .1.2.3.2l.5-.5.2.2a3.5 3.5 0 0 0 .9-1.2c0-.2.2-.4.4-.6-.1-.3 0-.5.2-.7l.3-.6.2-.8.1-.4c.3-.3.1-.7.3-1.1l-.1-.6c-.2-.3-.2-.7 0-1v-1l-.2-1.5v-.8l-.3-.6-.7-1.7c0-.3-.3-.3-.4-.4l-.5-1.1-.2-.4c-.3-.2-.4-.6-.8-.8v-.1c-.7-1-1.3-1.8-2.1-2.6l-1-.9-1.4-1.3-.5-.4h-.2a4 4 0 0 0 -1.2-1v-.1h.5l.1.2h.2-.3c0-.3-.2-.4-.4-.4-.4.1-.6 0-1-.2l-.3-.2c-.2 0-.5 0-.7-.2 0-.2-.4-.2-.5-.5-.6-.5-1.2-1-2-1l-.5-.6c-.3 0-.5-.3-.6-.5a.9.9 0 0 0 -.5-.3l-.7-.4a2 2 0 0 0 -.6-.5 5 5 0 0 1 -.6-.3c-.4-.1-.7-.5-1.2-.5l-.2-.2s-.3-.2-.4-.1l-.4-.2h-.3l-.3-.5-.6-.2c-.1 0-.3 0-.5.2 0-.3-.2-.5-.4-.6l-.8-.4-1.3-.4-1.7-.5-.3.2c0-.2-.2-.3-.3-.4a1 1 0 0 0 -.5-.1l-.1-.4-.6.5c-.1-.1-.2-.3-.5-.3h-.3l-.1-.2c-.1-.2-.4-.1-.6-.1l-.3-.1a.5.5 0 0 1 -.3-.2c0-.2-.3-.2-.7-.2l-.4-.2.2-.1v-.1c-.7 0-1.3-.2-1.8-.6l-.4-.1c-.7 0-1.2-.3-1.8-.4l-1-.3-.9-.2-.5-.2c-.2-.1-.4-.2-.6 0-.3.1-.5-.2-.8-.1l-.1-.1c-.3-.4-.8-.4-1.2-.3l-.5-.1c-.3-.1-.6 0-.8-.3-.2-.2-.5 0-.7-.3-.3 0-.6-.4-1-.2l-.3-.4-.4.2h-.1a.5.5 0 0 0 -.4 0v.1l-.3-.3-.7.2c-.3 0-.5-.2-.7-.3-.6-.3-1.2-.4-1.9-.5h-.1a2.1 2.1 0 0 0 -1.3-.2c-.3-.2-.6 0-.8.1-.4-.2-.6-.6-1-.5l-.3.3-.2-.4.3-.4c-.3-.1-.4 0-.6.1l-.1.2h-.3a.8.8 0 0 1 -.5 0 3 3 0 0 0 -.6-.1h-.2c-.2-.4-.3-.3-.5 0-.2.2-.4.1-.8-.1l-.2-.2h-.8c-.5 0-.8-.2-1.1-.3h-.1c-.1-.4-.3-.2-.5-.2l-.2.3-.2-.4-.5.2h-.5l-.6.1a1 1 0 0 0 -.6 0c0 .1-.3 0-.4 0l.1-.2h-.2a2.6 2.6 0 0 1 -1.8-.2c-.3-.2-.7-.2-1.2-.2-.2 0-.5.1-.6-.2h-1.5l-.3.2c-.2 0-.4 0-.6-.2-.3 0-.5-.3-.8-.2l-.8-.1c-.6 0-1-.3-1.6-.2l-.3-.6-.1.1c0 .3-.2.4-.4.4-.3 0-.6.3-1 .1h-.2c-.3.4-.6.4-1 .3.1-.2.4-.2.7-.3l-.4-.1h-1.3a20 20 0 0 1 -2.4-.1 16 16 0 0 1 -3.1.1h-1c-.1-.4.2-.3.4-.4l-.4-.1h-.3a1.3 1.3 0 0 0 -1 0l.8.3c0 .3-.4 0-.5.3h.3c.2.1.1.2 0 .4h-.2l-1-.1a9 9 0 0 1 -1.1 0h-1.2l.2-.1v-.4h-.4c-.2 0-.2.2-.4.3v-.2h-2.6c0 .3.3.2.4.3l-.2.1h-.9l-.3-.4-.1.1h-1a3 3 0 0 0 -1.2 0c-.5-.2-1 0-1.4 0l-1.4.1h-1.2l-1.6.1h-1.5c-.4 0-.7 0-1 .2-.2 0-.4.2-.6 0a.2.2 0 0 0 -.1 0c-.3.3-.8.1-1.1.1l-.8.1c-.3.2-.4 0-.6 0s-.6.3-.9 0a.2.2 0 0 0 -.1 0c-.5.3-1.1.1-1.7.2l-1.8.3h-.4c-.2 0-.3 0-.7-.3l-.9.6v.2c-.1.2-.2 0-.4 0 .2 0 .2-.1.1-.2a.5.5 0 0 1 -.2-.3v-.2l-.3-.2c.4-.2.8-.4 1.3-.1.3-.5.7-.4 1.2-.4v-.1c-.3-.1-.7-.3-1 0l-1.6-.1.4-.3a33.3 33.3 0 0 1 1.3-.2l.1-.2a.2.2 0 0 0 0-.1v-.1h-.3c-.3 0 0 .2-.2.3l-.5-.1-.1-.2h-1.5l-.8.2h-1.1c-.2.2-.3.2-.3 0h-.2a2 2 0 0 0 -.4 0h-.1.2c0 .2 0 .3-.2.3l-.6.2.2.3h-.1.1a1.5 1.5 0 0 0 1.1 0h1.1c0 .2.1.4.4.2.1.2.3.3.6.4h1.1l-.2.7-.6.1-.3.3c0 .2.1.2.2.2v.4c-.4 0-.7.2-1.1.3l-1.2-.4-.3.1-.3-.4-.5.2c-.1-.1-.2-.3-.5-.2l-2.3.2-.4.2c-.6.5-.7.5-1.4.5h-1.1a.9.9 0 0 0 -.4 0c-.5 0-1 0-1.4.2h-.9c-.4 0-.7 0-1 .2l-.4.1-.2.4h-.1a1.1 1.1 0 0 0 -.9-.1h-.7l1-.5.3.2.1-.3h.5v-.2c0-.3 0-.3-.2-.3h-.2c0-.1 0-.2-.2-.2v.2h.2l-.2.2a2 2 0 0 1 -.5.2c-.4 0-.6.4-1 .4l-.2.1v.2h.4v.5l-.6-.1v-.3l-.4-.1h-.2l-.3.1h-.4l-.4-.2v.2l-.1.2-.7-.2-.8-.1c-.1.1-.2.4-.4.4l-.2.2c-.2.3-.2.3-.6.2a.2.2 0 0 0 -.2 0l-.2.2-.2-.3h-.8c-.2 0-.3 0-.5.2l-.5.2-1.5.1c.2 0 .3-.2.5-.3l.2-.6c.3 0 .7-.3 1.1-.2a.2.2 0 0 0 .1 0l.6-.3h-.9v-.3a.7.7 0 0 0 .6-.1l.4-.1h.3l.2-.2c0-.2.1-.3.3-.2l.2.3-.4.3-.1.5h.3a7 7 0 0 1 1.9-.3c.2 0 .5-.1.6-.3l.1-.2.2.1c.2.4.5.5.9.2l.4-.3c.4.1.8 0 1.2-.2l-.4-.5c0-.3.3-.2.5-.3l.2.4c.3 0 .5-.2.8 0h.2a333.6 333.6 0 0 0 -.2 0c0-.3-.4-.4-.4-.7-.3.2-.5 0-.7 0l-.6.1c0-.3.3-.1.4-.3 0-.2-.2 0-.3 0-.1-.2-.3-.2-.4-.2h-.5l-1 .5.2.3-.4.1-.1-.5-.1-.2v-.2h.5c.2.2.3.2.4-.2.4 0 1 0 1.4-.3l-.3-.2c.2-.2.6-.4.4-.8.4 0 .7-.2 1 .3h.5l-.4.4.2.1 1 .1c.6 0 .7 0 1 .5v.2h-.5l.2-.1-.2-.1h-1.1c.3.4.3.4.6.4h.1c0 .3.4.2.6.3l.3-.2h.5l.1.7h.6l.1-.3c.2 0 .4.2.6 0h.5v-.2l-.3-.2-.4.2-.4-.4v-.2h.3-.3l-.2-.2c0-.2-.3-.2-.5-.2 0-.1.4-.2 0-.3l.3-.2h.3l.8-.2c.4-.2.8 0 1.2-.2l.3.4.7-.6 1.6-.1-.8-.7h.7l.6.3-.2.2c.3.1.3.1.7-.2l.3.2a.3.3 0 0 0 .3 0v-.4l1.2-.2c.2.3-.1.2-.2.3l.3.2-.3.3h.5c.6-.7 1-.8 1.8-.5l.3-.1.2-.2c-.2-.2-.5.2-.6-.2l.7-.2.3-.3-.2-.2c.5-.3.5-.3.9.3l-.1.2-.2.2h1.8c.4 0 .7 0 1-.3h.2c.2.2.4 0 .6 0l.6.2-.3.6s-.4 0-.3.2l-.1.1-.2.1v.2h.3l1.5-.2h.4c.2.3.5.1.8.2l-.1.3h.3l.3-.1v.3h-.3l.4.2-.2-.2h.3c0 .2.2.4.5.3l-.2-.3.2-.5.3.2c.3.2.4.2.7 0 .1 0 .2 0 .3-.2-.2-.2-.3-.2-.6-.1h-.2c-.2-.2-.5-.1-.7-.1-.3 0-.5.1-.7.3 0-.3 0-.3-.2-.2h-.3c0-.1 0-.3.2-.3l1-.1 2.1-.1.5-.2-.5-.3-.3.1c-.3.3-.7.4-.9.1 0 0-.1-.2-.3-.2h-.2l-1.1.2.1-.2h.2c.3 0 0-.5.4-.4.2 0 .4 0 .7-.2h.6c.5 0 1-.1 1.4-.4a.7.7 0 0 1 .5 0c.2.2.3.3.4.2l.3.1v.3h-.3l-.5.3.4.3.6.1h.6l2.7-.3c.3 0 .6 0 1-.2l-.2-.3h-1.5l-.3.4c-.4-.2-.7 0-.9 0l-.7-.5c-.2-.1-.3 0-.4 0l-.2-.2c.1-.3.5 0 .6-.2l.8-.1h.6v.3c.3.2.5 0 .8 0 0-.5.5-.4.7-.5v-.3l.3-.3c.2.3.6.2.6.5h1.6v-.3h1.2l-.1.3.5.4c-.2.3-.3.3-.5.2l-.3-.3v.4c-.2 0-.3.2-.4.3h-.2a.3.3 0 0 1 -.2 0 .4.4 0 0 0 -.3 0h-.2l.2.2h3.3l-.4.5c-.4 0-.7.3-1.2.1.1-.2.4-.1.5-.3v-.1c-.4-.2-.7 0-1 .1-.2.4.2.5.3.6h.7l-.3.4h1l-.4-.5c.5-.2 1 0 1.4 0 .2 0 .4 0 .6-.3a3 3 0 0 0 1.6 0l-.3-.4-.5.2c0-.3.2-.3.3-.5h.9l.2-.2-.2-.1-.3-.1h-.3c0-.2-.4-.1-.5-.4h-.2c-.3.3-.3.3-.6 0h-.2l-.9.2v-.2c.2-.2.5-.3.7-.3l.9-.1h.8l.3-.4.4.1.2.3c.2 0 0-.2.1-.3h.5v.2l.2.1h2.8l-.2-.4c.3 0 .7-.1.9.1l.3.3h.8v-.2c0-.3.1-.3.3-.3h1.2c.4.4.6-.2.9-.2 0-.4-.4 0-.5-.3a1.7 1.7 0 0 1 1 0l.1.6-.8.1h-.3l-.2.2.3.3c-.1 0 0 .1 0 .2h.1c0-.1.1 0 .1 0l.5-.4h.5c.3 0 .5-.2.6-.4l.4-.1.2.2.2.2h.3c.5 0 .9.2 1.3 0 0 0 .2.1.2 0h.5l-.3-.3.5-.3h.1c.2.3.3.4.6.5l.3.1.7-.4c.3.1 0 .4.2.6h1.3c.2 0 .2.2.2.3 0 .2.1.1.3 0l-.1-.3h-.4l-.1-.3c-.2 0-.5 0-.6-.2.3-.4.3-.4.7-.2l.1-.3c.3 0 .6-.2 1 0a.3.3 0 0 0 .1 0c.3-.1.6 0 .9.2h-1.5l-.2.1c.6.7.7.7 1.4.3h.1c.2-.1.1-.3.1-.4h.3l.7.6c.3-.3.8 0 1-.4.2.2.5.3.8.2l.1-.1c.4-.4.4-.4.8-.1l-.3.2v.1h.7c.3 0 .5.2.6.3l.2.1h.2l.2.2.6.2h.6l1.2.1c.2.1.3.1.7-.1v.3l-.2.2h.5s0-.2.2-.3h.4c.2.2.4.2.6.1h.5c-.2-.1-.5-.1-.6-.3l.4-.2c0-.2.2-.2.4-.3v.5c.1.1 0 .2.2.2.4.4.9.3 1.3.4.1.2 0 .2-.1.4 0 0 0 .2.2.2l.2.1v.3l.2.2.2-.2v-.1l.2.3c.4.2 1-.2 1.3.3l.3-.3c0-.2-.4-.2-.3-.5l-.2-.1-.5-.1c-.2 0-.1-.1-.2-.2h1l.3-.2.7-.5.2.6h-.8v.1l.7.2h.3c.1-.5.5-.3.8-.5l.4.3.2.4c0 .1 0 .3-.2.5.2 0 .4 0 .4-.2.1-.2.2-.3.4-.2 0 .3.1.3.5 0 .5.3 1 .2 1.5.4v.2h-.7l-.3.2.2.5.3.1.4.2h1.3c.2-.2.2-.2.6-.2 0-.2-.2-.2-.4-.2h-.3c-.2-.3-.5-.3-.7-.2-.3 0-.5-.2-.6-.4a1 1 0 0 1 .8 0l.3-.3h.4c.3 0 .6.3 1 0h.1v.6l.7-.1h.4l.2.3c.4 0 .4 0 .6-.2-.2 0-.4 0-.6.2.3-.4.4-.4.8-.4.1 0 .1-.3.3-.2l.7.1 1.3.4.3-.3c.5 0 .9.3 1.3.4l.4.2.4.2.5.2v.4h.6l.1-.3 1.1.2c.1.4.6.4.8.7l.2.3h-.3.3l.2-.2.6.1h.6c.3-.2.7-.3 1 0h.9l.7.5c.3 0 .4.4.7.4l.2.2c.1.3.4.3.7.3.8-.3 1.3 0 1.7.6l.2.2.7-.1s0 .2.2.3c.1 0 .2 0 .3.2l.3.2v.1h.4l.4-.1h.4l.5.2h1.1c0 .3.2.5.6.4l.6.1c.2 0 .4.2.5.4 0 .1.2.3.4.3s.3-.2.5-.3h.2v.6l.3.1.8.3a.4.4 0 0 0 .3 0 .7.7 0 0 1 .6 0l1 .5.3-.2c.4 0 .9.3 1.2.5l.2.2c0 .3.2.4.4.4.2.1.5 0 .6.3h.5l.2.2-.1.2v.1l.5.3.4.3h.7c.3.2.5.6 1 .5l.3.2c.2.2.2.6.6.5l.7.5.4.3c.3 0 .4.3.6.4.1.1.5.1.6.3.5.6 1.3.8 2 1.2l.2.1.6.5.6.6c.4.2.7.6 1 .9.7.2 1 1 1.6 1.3l1.2 1.2c.5.5.8 1.1 1.4 1.6l1.2 1.5.3.5.5.5.3.6v.4l.3.3.2.2c0 .3.2.6.4.9l.4.7c0 .3.2.5.5.6l-.1.5.2.6.5 1.2v.4l.1.8.2.6a70 70 0 0 1 .1 3.7v1.2c0 .4 0 .8-.2 1.2l-.3.9c-.4.4-.5.9-.6 1.4 0 .4-.1.7-.4 1a1 1 0 0 0 -.2.5v.4l-.1.2c-.4 0-.6.2-.6.6v.2c-.1.1-.3 0-.3.2l-.4.8-.1.2c-.6.4-1 1-1.2 1.4l-.4.6-.2.3v.1l-.2.1-1.1.5-.3.2v.3l-.2.5c-.3 0-.4.4-.8.3-.1 0-.4.2-.3.4v.4l-.4.4-1.2 1a2 2 0 0 1 -.5.3l-.1-.2.2-.4c-.3.1-.3.1-.2.5-.6 0-.6 0-.8.6h.3l-.3.4c-.5.1-.7.4-.9.8l-.7.7c-.6 0-.7.1-1.2.6l-.8.6a3 3 0 0 1 -.6.3l-.5.6c-.5.2-1 .5-1.5.5v.5h-.5l-.1.3h-.7c0 .2 0 .4-.2.6l-.7.4a1 1 0 0 0 -.6.4c0 .2-.3 0-.4 0l-.3.5-.5.3-.8.2c-.4-.1-.6.1-1 .1v.1l.1.1h.2l.2.2c-.5 0-.5 0-.4.4a2 2 0 0 0 -.4.2c-.2.2-.5.4-1 .5l-.1.1c-.3.4-.4.4-1 .4l-.2.3h-.8l-.1.3c-.1.2-.2.4-.5.4s-.2 0-.2.3l-.4.2-.3.1h-.3c-.2 0-.4 0-.5.3v.1l-.3.4a2 2 0 0 0 -1.1.3l-1.2.3-.2-.2-.1.2-.6.3c.1.2.2.4 0 .6l-1 .2v-.5.3c-.2.2-.3.3-.5.2h-.3l-.1-.1c-.1 0 0 0 0 0l.2.2c-.2.3-.6.3-.9.4l-.4.1c0-.3-.2-.3-.5-.3a1 1 0 0 0 -.6.4l.5.2-.8.5-1.4.7h-.3a1 1 0 0 1 -.3.1v-.1.2l-.2.1a5 5 0 0 0 -1 .4h-.6c-.2.4-.7.4-1 .6-.2 0-.3-.2-.4-.1-.3 0-.6 0-.8.3l-.4.1c-.1.2.2.3 0 .4-.1.2-.1.2-.5.2l.1-.6-.3.2-.1.1-.2.2h-.2v.2h.1v-.2l.4.1v.4h-.6l-.6.5c-.2 0-.3-.2-.6 0l-1 .2-.3-.2-.7.3v-.3h-.2c-.3-.2-.3-.2-.3.1a1 1 0 0 0 -.4 0l-.3.3-.2.3-.2.8h-.3l-.2.2-.2-.2c-.2.1-.3.3-.6.3-.5 0-1 0-1.4.2h-.2a.9.9 0 0 0 -.5.1l-.3.1v.2l-.5-.4-.2.1c0 .3 0 .5-.4.5-.1 0-.2 0-.2.2v.2l-1.2.5h-.8c0 .1 0 .2-.2.3l-.1.1-.2.1a.7.7 0 0 1 -.4 0c-.2-.1-.3-.2-.4-.1l-.2-.1a.5.5 0 0 0 -.5-.3c-.2.1 0 .2 0 .3-.2.3-.5.2-.8 0l-.4.4h-.1l-.2-.3h-.2l-.4.3c-.2.2-.2.2-.5 0h-.4l-.6.2c-.2 0-.7-.4-.9.2h.5v.2c-.2.3-.6.4-1 .6h-.2c-.2 0-.3 0-.5.2-.2 0-.4.2-.7 0-.1 0-.4 0-.5.2 0 .2.2 0 .3.1v.1c-.2.1-.4.2-.6 0l-.3-.1a2 2 0 0 0 -.4.1l-.3-.2h-.2l-.2.4-.5.1h-.5c-.2-.2-.6 0-.9-.2l-.7.2-.2.2v.3c-.5.5-1.1.3-1.7.1-.1.3-.3.2-.4.2l-.2.4c-.3-.2-.3-.5-.5-.6h-.3a2 2 0 0 0 -.4 0h-.2l-.1.3c0 .2.2.2.4.2s.3-.3.6 0l-1 .2h-.9c-.2.2-.5.5-.9.4h-.2c-.2 0-.2.4-.5.3-.3 0-.4.2-.6.3-.2 0-.3.2-.5 0l.3-.2v-.6c-.2 0 0 .2-.2.2l-.2-.1-.5.4-.3-.4h-.7l-.2.2c-.1.2-.2.1-.4 0l-.7.1a1 1 0 0 0 -.5.4v.2h-.2c0 .4-.2.5-.5.6a5 5 0 0 0 -.6-.3c-.2 0-.4.2-.7-.1.2-.2.5 0 .7-.1s.3 0 .4-.3a.8.8 0 0 0 -.4-.1h-.4c-.2.2-.5.3-.8.3a1 1 0 0 0 -.4 0l-.2.3c.2.1 0 .2 0 .3v.3c-.3-.1-.1-.5-.2-.8a4 4 0 0 1 -.7.9s-.3-.2-.5-.1h-.5c-.2 0-.4.2-.5.3-.2-.1-.3-.2-.5 0-.4.2-.9.2-1.3.3v-.2l.2-.2.1-.3h-2.9c-.2.2-.3.4-.6.4s-.3.1-.4.3c-.4.1-.9 0-1 .5-.2-.1-.4-.1-.3-.3v-.2h-.2l-.2.2c0 .2-.2.3-.5.2l-.2.2h-.3l-.1-.5h-.2c-.2 0-.5.2-.7.1l-.2.2c0 .1-.1.3 0 .4.2-.1 0-.3 0-.4l.8.5-.2.3c-.2-.1-.5-.2-.8 0h-1c-.2 0-.3 0-.4-.3-.4.1-.9 0-1.2.4l.1-.6h.5c.2 0 .5-.2.4-.4h-.6c0 .2-.2.2-.3.2l-.5.2.1.3.3.3-.3.1-.1-.3h-1.4l-1 .2v-.2h-.1l-.2.2c-.2 0-.3 0-.3-.2v-.1h-.6v.3l-.1.2-.3-.1s0-.3-.3-.2c-.2 0-.4-.2-.6 0-.1 0-.1.3-.3.3h-.5c-.2-.4-.4-.4-1 0 0 .1.4.2.3.4-.5-.2-.5-.2-.9 0l-.4-.3-.4.1c0-.5 0-.5-.4-.6l-.4-.2h-.4l.2.1.2-.1-.1.4v.1c-.2.2-.4.3-.6.1h-.6c-.2.2-.6 0-.8.3l-.8.1c-.2 0-.2-.3-.5-.2l-.5-.4c-.3.2-.5.3-.8.3s-.6.3-1 .1c-.1 0-.3.3-.5 0-.2-.2-.4 0-.5 0a.8.8 0 0 1 -.4-.2l-.3-.4h-.2v.4c0 .1 0 .2-.2.2h-.4l-.1.1-.2.1v.5l-.4-.2-.3-.4c-.4 0-.7-.3-1.1-.2v.3a.3.3 0 0 1 -.3 0c-.2-.2-.4-.3-.6-.2h-.2c-.2-.3-.6-.2-1-.2l-.3-.3 1.2.1-.4-.5h-.2c-.2 0-.2-.3-.4-.3h-.2v.3c-.6 0-.6 0-.7-.4 0-.2 0-.2-.4-.4h-.3.2l-.1.2-.2.3c-.6 0-1.2.3-2 .2l-.4.1c-.3 0-.6-.3-1-.1h-.2a2.1 2.1 0 0 0 -1 0v.1l.1.1h.3l.1.1c-.1.2-.4.1-.6.3-.1-.2-.4-.2-.6-.2l-.7.1c-.4-.3-.9-.1-1.4-.1-.1-.2-.4-.2-.5-.5h.3c0-.5-.2-.6-.6-.5h-.2l-.4-.1s-.1-.1-.1 0a2 2 0 0 1 -1.2-.3c-.1.2 0 .3.1.4l.2.3c0 .1-.2.2-.3.1h-.7l-.2.4a5 5 0 0 0 -.4 0l-.5.2c0-.1 0-.2-.2-.3 0-.1 0-.2-.2-.3-.3 0-.5.2-.7.5-.3-.1-.4-.3-.5-.5l-.1-.2a.6.6 0 0 0 -.4-.1l-.2.2v.2c-.4.2-.3-.2-.5-.4-.1 0 0 .3-.3.2l-.1-.1v-.2l.1-.2c-.2 0-.4.1-.6-.1h-.6c-.2-.4-.6-.3-.9-.2l-.1.1-.1-.3-1.5-.3a9 9 0 0 1 -1.4-.3c-.1 0-.2-.1-.1-.2h.5c.4 0 .6 0 .8.3.5-.1 1 0 1.4-.6l-.3-.1h-1.2a2 2 0 0 1 -.8 0c-.3-.2-.6-.3-1-.2l-.3-.3h-.1l-.2-.2v-.1c-.2-.2-.4.1-.5-.1l.4-.3-.2-.2-.4.2-.4-.1.3.3c0 .1-.2.2-.3.1-.2-.1-.4 0-.6-.2h-.2c-.4 0-.8-.4-1.2-.3h-.4l-.3-.3-.4.1-.3-.1-.7.2h-.1v-.4h-.2c-.4-.2-.6-.5-1-.5l-.5-.4v-.4h-.2v.6a4 4 0 0 0 -1.2-.3c-.3 0-.7 0-.9-.4l-1-.3-.2-.5-.4-.1a.3.3 0 0 0 -.2 0l-.1.1c-.1.2-.2.2-.3 0a.6.6 0 0 1 -.6 0l-.4-.4-.2.5c-.5 0-.9-.3-1.4-.2l-.3-.5-.3.2v-.8c0-.1 0-.2-.2-.3 0-.3.2-.3.3-.2h.3c-.1-.2-.4-.3-.6-.4h-.2v-.1l-.2-.1c-.4.1-.7-.3-1-.3-.2-.2-.5-.2-.7-.2-.4.1-.6-.2-1-.1a2 2 0 0 1 -.7 0l-.1-.2 1-.4-.2-.1-.4-.1c-.2-.1-.2-.2 0-.3l.2-.2h.1c.3 0 .3 0 .2-.3-.5.1-.5.1-.5.5h-.5v-.3h-.6a3 3 0 0 1 -.4-.3l-.1.4h-.6l-.5-.7c0-.2.2-.3 0-.4a2 2 0 0 1 -.2-.4h-.2l-.1-.4-.5.3c.1.3.6.3.7.7l-.8-.4-.2-.4v-.5c.2-.3 0-.4 0-.6-.4-.2-.7 0-1 .2l-.3-.1a.7.7 0 0 1 -.3-.2l-.1-.3c0-.2-.2-.3-.3-.4 0 0-.1-.2-.2 0h-.1v.2c0 .2.2.4.3.5l-.3.2-.5-.5c0-.3-.4 0-.4-.3l-.2-.3-.3-.2v-.2l.1-.4c.2 0 .4.2.4 0s0-.2.2-.3h.2c0-.5-.5-.7-.6-1 0-.2.2 0 .1-.3-.2 0 0 .2-.1.3l-1-1c-.1-.3-.3-.3-.6 0h-.2c-.2-.2-.2-.3 0-.4h.3l-.1-.6h-.5c.2-.4.2-.4-.1-.6l-.6-1.2h.4c-.4-.2-.8-.5-1-.8l-.2.1v.4l.3.3.2.4c0 .3.1.3.2.5v.1c-.2 0-.4 0-.4-.3l-.8-.5-.1-.2v-.2l.2-.1c-.3-.3 0-.8-.6-1 0 .4.2.8.5 1.2zm150.5-50.3h.2l-.2-.2v-.2h-.3l-.2.2h.5v.2h-.1zm-87.9 70.3h.1-.2l.1.1zm-56-13.5h-.1.2l-.1.2zm48.4-64.6h.1-.2c0-.1 0-.3-.2-.1h.2zm5.9 77.9h.1-.1l-.1-.1h.1zm-15.4 0c0-.1 0-.3-.2-.1h.2c.1 0 .2.2.4 0h-.4zm124.9-49.8-.1.2c-.1.1 0 .2 0 .2v-.4l-.1-.1a.2.2 0 0 0 -.1 0v.2l.2-.1zm-33-24.1h.1-.2s0-.3-.2-.1h.3zm-44.5 70.5h-.1v.1l.3.2-.2-.3h.2zm69.8-57.6v.4l.2-.4c.1 0 .3 0 .3-.2l-.4-.3v.5h-.1v-.2h-.2v.1zm-105 62.2h.1l.1-.2h-.2v.2l-.2.2c.2 0 .2 0 .1-.2zm99.5-66.7h-.3l.1.2.1-.1h.1v-.4l-.1.2zm-50.3 59c.1-.2.2-.3 0-.4-.1.1-.1.3 0 .4.2.2.2.2.4 0zm-29.6 7.3-.2-.1h.3c-.1.2-.4.3-.3.5.3 0 .3 0 .3-.4zm-18.6-.1-.2-.2-.6-.1c0 .1 0 .2.2.2l.4-.1c-.2.2 0 .4.2.6v-.4h.1v-.1h-.1zm90.3-69.5c.1-.1.4-.1.3-.4-.1-.1-.3 0-.3.1v.3h-.3zm-78.2 68.5h-.5c.2.3.2.3.6.2l-.1-.3c.2 0 .3 0 .4-.2-.4 0-.4 0-.4.3zm22-2.6h.6c.1 0 .3 0 .1-.3l-.6.3-.1.1zm-31.8 4.5-.3-.2-.5.3h.6l.2-.1h.1v-.1.1zm105.8-58.8-.3-.2v.1h.4c-.1.3.1.3.2.4.2 0 .3-.1 0-.3zm-33.4 41c0 .2.1.4.4.4h.2v-.2c-.2-.3-.2-.3-.6-.2zm36-37a.3.3 0 0 0 -.1.3v-.3c.1 0 .3 0 .4-.4h-.3l-.2.2v-.6c0-.1 0-.2-.2-.3l-.1-.3-.2.2v.6c.2.2.2.4.5.4v.2h.1zm-118.7-24.2c.2-.3.5 0 .7-.3-.3 0-.4-.2-.7-.1v.4c-.2-.2-.3-.4-.6-.3 0 .2.1.3.3.3zm40.8 74.1s0-.2-.2-.2h-.2l.1.2h.3l.2.2h.6c-.3-.2-.5-.4-.8-.2zm13.4-77.5h-.4l-.3.1v.1l.1.1h.4zm6.8 1.8c-.2-.2-.5-.1-.7 0h.2a.6.6 0 0 0 .4 0h.1l.2.2h.4c.1 0 .3 0 .2-.2zm56.4 23.5c-.1-.1-.2-.2-.3-.1 0 .2 0 .2.2.2h.1l-.2.2v.3h.5v-.4a2 2 0 0 0 -.3-.2zm-16.7-13c.1 0 .3.1.4 0-.2-.2-.3 0-.4 0v-.3l-.5-.3-.4-.4-.3.2 1.2.7zm-45-10.9h.9c0-.4-.2-.5-.5-.3l-.5.3c0-.1.2-.4 0-.6-.4.3-.9.1-1.2.4l.2.1h.8s.2 0 .2.2zm-20.8 77v-.9h.4v-.5a.2.2 0 0 0 -.2 0l-.3.1c0 .1-.1.2 0 .4v.8h-.1c-.2-.2-.4-.1-.4.1l.2.1v.2l.6.1h.8l1.4.1h.2l-.3-.2c-.3 0-.7-.2-.9-.4l-.2-.2-.8-.1-.2.4h-.3v-.1zm-13.1-77c.3 0 .6 0 1-.2-.4-.3-.8-.3-1.2-.3l.2.5-.6-.3h-.4c0 .2 0 .3.2.3l.4.1h.4zm47 1.6-.1-.2-.2-.2h-.4l-.2.4h.8l.1.1 2.2.3-.2-.2c-.6-.3-1.4-.3-2-.2zm-121.5 47.3c-.2 0-.2.2-.2.3l-.2.2c.1.2.3.2.3.4 0 .4 0 .4.4.5 0-.5-.2-1-.3-1.4 0 0 .1-.1 0-.2 0-.2 0-.5-.2-.7 0 .3 0 .6.2 1zm55.7-48.2c.3.2.3.2 1 0l-.1-.5-.6.1c-.3 0-.3 0-.3.5l-.3-.2c-.2 0-.4.1-.4.4h.5c.2 0 .2-.1.2-.3zm94.5 9h-.3c0-.2 0-.3-.2-.2v.5l.4-.1.2-.2c0 .2-.2.3 0 .5l.2-.1.2-.1h.4c-.3-.2 0-.4-.3-.5a5 5 0 0 0 -.4-.3 4 4 0 0 0 -.5-.2l.1.4.4.3zm-95.6-8.7c0-.1.2-.2.1-.4l-.1-.1h-.7c-.2.1-.6.1-.8.3 0 0-.2 0-.1-.2l-.3-.1h-.2v.2h.5l-.3.4h.3c.2 0 .5.2.7 0 .3-.2.5 0 .8 0l.2-.1zm-7.6 78.6v-.2h-.1v.7l-.2-.1h-.7c0 .2.1.3.2.3l.6.2 1.6.2.2-.1c0-.2 0-.5-.3-.6l-.2.2-.4-.3c-.2 0-.2.3-.4.2-.3 0-.3-.1-.3-.2zm30-1v-.2l-.2.1h.3v.2l.6.3.2.4h-.4.6l-.1-.6c.4 0 .6-.3 1-.3a18.7 18.7 0 0 0 -.8-.6v-.3l-.2.2c0 .1.2 0 .2 0h.1c-.2.2-.2.2-.9.4l-.4-.5v.7zm35.5-79.5c-.2 0-.4.2-.6.1l.2-.3h-.6l-.6.1s-.1.1-.2 0l-.8-.1c-.2 0-.2-.3-.3-.2l-.4.1-.5.2.2.1a22.2 22.2 0 0 1 2 .3h1.8l-.2-.3h.1v-.1zm-11.5.5c.1 0 .3.1.4 0 .1 0 .3.1.4 0l.6.1h.7l1.5.1h1.5l.4.1.3-.4h-.6c-.2 0-.3.2-.5 0s-.3 0-.5 0h-.6a1.3 1.3 0 0 0 -.9-.1h-.5l-1.5-.3h-1c-.1 0-.3 0-.3-.2l.3-.1a33933.2 33933.2 0 0 0 2-.2c-.3-.3-.7-.1-1.1-.1l-.6-.6-.3.3a1 1 0 0 1 -.5 0h-1.3l.1.4.6.1.2.1h.2l-.6.5h-.3l-.2-.2a.7.7 0 0 0 -.7.1s-.2.1-.4 0l-.4-.1c-.1-.2-.3-.2-.4-.1l-1.7.2-.1.1.3.1h.2l.1.1.5.3h.1l.2-.6.4.3h1l1 .2.4-.1v-.4c.3 0 0 .3.3.4l.1-.1.1-.3c.4.3.4.3.3.6l-.1.2c.3.1.3-.2.5-.2l.4-.3zm-60 80-.4-.6c.2-.2.4.4.7 0l-.5-.2h-1l-.4-.1c-.2-.2-.5 0-.7-.3v.4a.9.9 0 0 1 -.6 0l-.2-.2-.2-.1h-.6l-.3-.2h-.2c0 .2-.2.3-.1.6.4.1.8.4 1.3.3l.6.1h.6l.4.1c.3.2.5 0 .8.2h.9zm47.5-81.8v.2a1 1 0 0 1 -.8 0c-.4-.4-.7-.1-1 0h-.1l-.3-.2-.4.3h-.5a4 4 0 0 0 -.4 0c-.2 0-.3.2-.3.4h.3c.5 0 1 0 1.6.2h.3l1.8-.1c.3 0 .4-.2.5-.5l-.3-.1zm-3.8 1.5h1.5l.6.1c.6 0 1.1 0 1.7.2.2 0 .3-.3.6-.3v-.4h-1.3l-.5.2h-.6c-.6-.2-1.1-.2-1.6 0zm-11.5.7v-.4c-.2-.1-.4-.3-.7-.3l-1.6.2c-.3 0-.4.2-.6.3v.4h.8c.1 0 .2.1.4 0l.3-.2v-.2h.3v.2zm39.6.4c0-.4-.3-.5-.6-.5h-.4a1.4 1.4 0 0 0 -1 0 1 1 0 0 1 -.7-.2h-.2l.2.4.1.1c.4-.2.4.1.4.3v.1l.6.2c.2-.1.2-.3 0-.4 0 0-.2 0-.2-.3l1.3.2h.5zm-21.6-1c.4.2 1-.1 1.2.3l.3-.3.6.1h.2l.3-.2c0-.1-.1-.3-.3-.3h-1.5a2 2 0 0 1 -.7 0c-.1 0-.2-.2-.4 0l.2.3v.1zm18.8 73.8h1.8l.1-.3-.2-.2h-.1c-.5-.2-.9-.2-1.3-.1zm20.9-69.8 1.2.3 1 .3c.4 0 .7 0 1 .2h.4l.3-.1-1.8-.5c-.6 0-1.1-.2-1.6-.4-.2 0-.5 0-.6.2zm-38-5c0-.1 0-.2-.2-.3l-.3-.3c-.3.3-.8.3-1 .6v.2c.6 0 1 0 1.5-.2zm34.1 4 .1.8c.4 0 .6 0 .6-.4h.6c-.3-.5-.8-.4-1.3-.4zm-9.8-1.8-.5-.1h-.6c-.2 0-.4 0-.7-.2h-.4l-.1.1v.2l.3.2a8 8 0 0 1 1.7.1h.3zm1.1 69.6c.6.3 1.2.2 1.5.5.3 0 .5-.2.6-.3-.7 0-1.2-.5-2-.2zm-21.1-72c-.4-.3-.7-.1-1.1-.3v.3l-.1.2.9.1.3-.4zm-59 79.4.2.1c.2.1.4 0 .6.2l.3-.2.1-.4h-.6a1 1 0 0 0 -.5.3zm71.2-3.2v.1l.4.2h.6l.5-.2a.1.1 0 0 0 0-.1l-.1-.1c-.2 0-.4.2-.5.1-.1 0-.3-.2-.5-.1h-.4zm20.6-72.3h.1l.2.1a.6.6 0 0 0 .3 0h.3a.7.7 0 0 0 .5 0l-.3-.3h-.8zm-1.6.8 1.7.4.3-.1c-.3 0-.6 0-.7-.2-.3-.3-.7-.2-1-.3 0 0-.2 0-.3.2zm-45.8 75-.4-.4h-.4l-.2.7.4-.3zm-81.2-36.3v1.1c.2-.2.4-.3.4-.6s.1-.3-.4-.5zm157.8 11.3-.7.6v.3h.1l.8-.5zm-72-52.7v.1c.4.2.7 0 1 0h1c-.6-.3-1.3 0-2-.1zm-17 79.2c.3-.3.2-.5 0-.6l-.2-.1a.8.8 0 0 0 -.7.1c.6.2.6.2 1 .6zm9.6-2.3c-.5-.2-.5-.2-1 .2l.7.2zm-21.3 3.2c-.3.3-.7 0-1 .3.3.3.3.3.7.2.1 0 .4 0 .2-.5zm35.5-81.2c-.2.2-.1.3 0 .3h.4c.1 0 .3.1.4-.1 0 0 0-.2-.2-.2a6 6 0 0 0 -.7 0zm57.5 57.5-.8-.1h-.2v.4h.5l.4-.3zm-50 18c.1.2.2.2.4.1h.6l-.2-.3-.9.2zm15.7-4.8v-.1a2 2 0 0 0 -.5 0l-.2.2v.3h.4zm-56.4 11c.3.3.6.2 1 .1l-.6-.4zm34-82.5c.5.3.6.3.8-.2l-.8.1zm10 77.6v-.1a4 4 0 0 0 -.5 0c-.1 0-.2.1-.1.2 0 .2.1.2.2.2l.5-.3zm-27.8-76.5c0-.2-.2-.2-.4-.1h-.1l-.1.2v.1h.4l-.2-.2zm-5.6 80c0-.2 0-.4-.3-.4h-.4v.4h.8zm24-3.5h.4c.1 0 .3.1.4 0-.1-.3-.4-.3-.7-.5l-.2.5zm22.8-5.4c0-.2-.1-.2-.3-.2-.4.1-.5.2-.5.6zm-57.8-67.9-.8-.3h-.2v.2l.2.2h.5zm54.2 67.7.3.4.3-.2s.1 0 0-.1v-.1zm-113.6-25.5-.1.5.1.3c.2 0 .2-.2.2-.4l-.1-.4zm89.5 33c.5-.3.5-.4.2-.7-.3.3-.3.3-.1.6h-.1zm-15.9-77.7v.1l.8.1.1-.1v-.1l-.3-.1zm-34.6 78.1c0-.2-.1-.4-.3-.4l-.2.1v.2c0 .1.2.3.4.2zm53.3-1.5-.4-.5h-.3v.2zm-53.3-72.4.3.1h.5c-.3-.3-.5-.3-.8 0zm119.4 45.7-.4-.2-.3.1c.2.2.4.4.7.1zm-138.6 23h-.8l.1.3h.5v-.3zm37.1 6.6v.5c.1.1.3.1.4 0v-.2l-.3-.3zm40.8-5.5c.5.3.5.3.7.2l-.5-.4zm27.4-5.6c-.2-.3-.5-.3-.7-.2 0 .4.4.2.7.2zm-53.1 11.8v-.1h-.2c0-.1-.1-.1-.2 0h-.1l-.1.1v.1h.1a.5.5 0 0 0 .4 0zm55.7-14.7.6.1c.2 0 .2-.1.1-.3l-.1-.1zm-74.6 13.4c-.2-.3-.3-.3-.6 0zm100.2-22.5.6-.1v-.4zm-19.3-53v-.5h-.3s-.1.1 0 .2l.3.2zm-30.5-4.9v-.2l-.7.1c.2.3.5 0 .7 0zm-30.5 79.7h-.5c-.1 0-.2.1 0 .3zm-16.7.7h.6-.3c-.2 0-.1.2-.3 0zm19.4-.7.2-.1c0-.1 0-.3-.2-.3a1 1 0 0 0 -.2.2zm12.6-79.2v.2h.3zm-26.3 81.2c.2 0 .2-.2 0-.3 0-.2-.1 0-.2.2zm-5.4-79.4v.6l.3-.6zm48.8 72.7h.8c-.2-.3-.3-.3-.8 0zm39.6-14.2h-.5v.2s.1.1.2 0zm-19.2-58-.1-.2s-.2-.2-.3-.1c0 .2 0 .2.2.3zm-78.3 77.2h.4v-.3h-.3zm10.7 1h-.2l-.1.2c.3 0 .2.2.2.3l.1.1zm85.3-19.2h.4l.2-.1-.1-.1a.4.4 0 0 0 -.3 0zm-102.5 18-.2.1a.2.2 0 0 0 0 .3l.3.1v-.5zm22 2-.5-.2c-.1 0-.2 0-.2.2zm-36.5-4.8-.1.1.2.2h.2v-.3l-.3-.1zm112.5-70c.3.2.3.2.5 0zm24.2 12.4-.5-.4c0 .3 0 .3.5.4zm-71.3-18.4a2 2 0 0 0 -.3.2.2.2 0 0 0 0 .2h.2c.1 0 .2-.1 0-.4zm27.9 2.7-.4-.2h-.1v.2zm30.2 6.3c-.2-.3-.2-.3-.6-.1zm-109 71c0-.2 0-.3-.2-.3l-.2.2.2.1h.3zm35-81-.3-.2-.1.2c0 .1.2.1.4 0zm-12.8 81.3-.2-.3a.3.3 0 0 0 -.2 0v.5l.4-.1zm65-79.3c.2.3.3.3.6.2-.2-.2-.3-.3-.6-.2zm8.3 62.8c.1.3.2.2.3.2l.3-.3zm-96.5 13h-.2l.1.3s.1.2.2 0v-.1zm50.3.8c-.2.3-.2.3 0 .4zm-39.9 2.3h.5zm75.7-13.7h-.5v.2s.1.1.2 0c0 0 .2 0 .3-.2zm-2.7-65.2c0 .3.2.3.4.3v-.3zm-123 49s-.3 0-.2.2l.2.1zm74.9 30v-.2h-.2v.4h.2zm15-82-.2.1v.2h.2zm-32.3 81.7c-.1 0-.2-.1-.2 0h-.2l.2.2zm-7.8-.6h-.3v.1h.3v-.2zm13.6.2v-.3h-.3l.1.2s.2.1.2 0zm102.8-37.1-.2-.2-.2.1.1.2h.3zm-86.4-41.8v-.2l-.3.1v.1zm25 0c-.2.2-.3.3 0 .4 0 .1 0 0 .1 0 0-.2 0-.3-.2-.4zm-71.8 76.8-.3-.2v.1l.2.2zm52-.2a.3.3 0 0 0 .2 0l.1-.1h-.3zm11.7-78.1-.5-.2h-.2c.2.3.4.2.7.2zm68.9 23.5h-.1v.3l.2-.2v-.1zm-35-19.8-.2.1s0 .2.2.2l.2-.2zm-130.4 48.7v-.2h-.2c0-.1 0 0 0 0v.2l.1.1zm153.9 1.7-.2-.2h-.1c0 .1 0 .3.2.3zm-39.7 17.8v-.4h-.2zm-2.3-71.5h-.4.3zm24.9 64.2h.4v-.1h-.3c-.1.1 0 0 0 .1zm3.7.3v.1l.3-.2v-.1h-.1zm-15.4 4.7.3-.1v-.2h-.2v.3zm1.1-2.7-.2.1.1.2h.2v-.3zm-53 15 .1.1.1-.1zm65.6-16.1-.3.1zm14.7-53-.2.1v.2l.3-.1zm-143.4 57.7c0-.2 0-.4-.4-.3zm126-6.8-.1.1.1.2.2-.1zm9-4.5-.1-.2-.3.1v.1h.3zm5.3-3.2-.1-.1h-.2v.1zm3.1-44.6.1-.2v-.1l-.2.1zm-11.8-4.5h-.3l.2.2v-.2zm-20.6 65.8.1-.2-.2.1zm-12.7.4v-.3l-.1.2h.1zm-39.2 8.8-.2-.2-.1.2zm-71.8-33.3v.2l.1-.2zm20 26.2-.2-.1h-.1c0 .2 0 .2.2.3zm85.4 1.5.2-.2h-.2zm-76.8.3-.2.1.1.1h.2zm138.7-53.9v.2l.1.2s.1 0 0-.1v-.3zm-68 54.8h.3s.1 0 0-.2l-.4.2zm65.5-56.9.2.2h.1v-.2zm-46.4-18.3h.4v-.2a.3.3 0 0 0 -.3 0zm-24.8 76.8-.2-.2v.1c0 .2 0 .1.1.1zm-57.8 0h-.2zm58.8-79.2h.4zm48.7 8h.1l-.1-.1h-.1l.1.2zm-61.5 72.4v.1h.3v-.3l-.3.1zm-27.8-.2-.1.1v.2l.3-.1zm-6.2.8-.2-.1-.2.1c0 .2.1.2.2.1zm22.2-80.6v.3h.1v-.3zm19.1-1.2h-.1l-.2.2h.1l.3-.1zm-29 83.4s.2-.1 0-.2c-.2 0-.1 0 0 .2zm-17-1-.2.1.2.2v-.2zm51-82h-.2v.2l.2-.1zm-19.4 82h-.4c.2.1.3.2.4 0zm-22.6-.3v.5zm56.6-81.1-.2.2h.3zm-39 80.8h-.3zm45.1-80v-.1h-.1v.1zm-30 79.5v-.2h-.3l.1.1h.2zm-37-.6h-.2.1zm-6.1-.5-.2-.1h-.1v.2zm43 0 .3.1h.1a.1.1 0 0 0 0-.2c-.2 0-.2.1-.3.2zm-.4-77.2v-.1h-.3v.1h.2zm36 .5v.2l.2-.1-.1-.1zm-91.1 74.5h.2l-.1-.2zm92.2-74.4v-.1h-.2v.2zm-27 73.9h.1c0 .1 0 0 .1 0zm-.8-.2-.2-.2v.3zm14.3-.9v-.1l-.2.1v.1h.2zm-4.5-.4v-.1h-.1v.1zm5.6-.4h-.2l.1.1zm5.3-1.4v-.3h-.1v.2zm.1-1.4v.2c-.1 0 0 0 0 .1zm12.1-.3-.1.2c0 .1.1 0 .1 0zm1-67.7v-.1h-.3v.3h.3zm-117.8 62.8h-.1c0-.1-.1-.1-.2 0zm127.3-61.8h-.2v.2s0 .1.1 0h.1zm8 59 .2-.1v-.1l-.2.1zm-5.2-.5v-.3l-.3.2h.5zm.2-.5.3.1-.1-.2zm9-1v-.2h-.1v.2zm-17.5-56.2-.1-.2h-.1v.2zm18 52.7c.3.1.3 0 .2-.2zm-12.7-52.3h-.3zm13.7 50.8h-.2v.1h.2zm6.7-3.2h.1v-.2h-.2zm-155.9-4.8.1-.1h-.2zm163.8-1.8h-.1l-.2.1h.2zm-162.8-2.3h.1v-.2h-.1zm-1.5-.3v-.4.3zm172.5-11.6.3.1zm-19.2-21.7v-.3l-.1.1v.2zm-88.1 71.4v-.1c-.1 0 0 .1 0 .1zm39.2-83.7h-.1v.2h.1v-.1zm-25.8.2h-.2zm-36 82.6v.1zm29.2.1v-.1.2zm-.4-.2-.1.2h.2zm-19.2-.1h-.1v.1h.1zm24.3-81.5h-.1l.1.1zm-33 81.1h-.3l.2.2-.1-.2zm60-81h-.2.1zm-12.9.2v.1zm-38 80.8h.1-.2zm26.3.1h-.1zm8.3-80.8h.2zm-42.6 80.3h-.1v.1h.1zm23 0h-.4l.2.1h.1zm-9.3 0 .1.2.2-.1v-.1h-.4zm-10.1-.1h-.2zm42.6-79.7h-.1zm27.6.3h-.1v.2h.1v-.3zm5.4.1h-.3zm-24.1 0-.2.1v.1h.2v-.1zm47.8 8.4h-.1zm-81.8-8.2v-.1.2zm18 78.2h-.1zm46.8-77.3-.2-.1.1.2v-.1zm-52.7 76c-.1 0 0 0 0 0zm20.3-1-.1.1v.1h.2zm-5.4 0h-.1zm-63.3-.6v-.1zm21.6-74.3h-.1v.1h.1zm-22.5 74.1h-.1v.1zm24-74v-.2l-.1.1v.2h.1zm44 73.6h-.3l.1.1h.1zm11.9.1h.1zm-2-2.3v.2h.1v-.2zm-60-70.9h.1zm64.2 69.2v-.2a.2.2 0 0 0 -.1 0v.1zm-58.5-69-.1-.2v.2zm-50.6 41.6h-.1zm140.1-37.5v.1h.1v-.1zm26.5 40v-.1h-.1zm-55.9 24.3v-.1zm31.8-64.6h-.1v.2l.2-.1zm-22-3h.2-.1zm-4.3 67h.1zm17.5-64.1c-.1 0-.1 0 0 0zm23.8 43.8v-.1.2zm-30 19.7h-.3l.1.1h.2zm.4-.2h-.2v.1h.2zm-7.2-.2v.1zm-73.7-66v-.2h-.1v.2zm109.8 51.4-.2.2h.2zm-23.5 12.6h-.1.2zm-2.8 0h.2l-.1-.1v.1zm-124.2-1.3h-.1l.1.1zm-6.6-11v-.2.1zm40.2-50.2h-.2v.1zm6.3-1.3.1-.1h-.2.1zm81.7 62v.1zm21.4-6h-.1v.1-.1zm-6 .4h-.1s0 .1 0 0zm-100-55.6-.1-.1h-.1v.1h.1zm100.3 56h-.1zm-4.4-56h-.2v.1h.2zm.5 58.3h-.2l.1.1h.1zm2 0v.1h.1zm-90.7-58.7v-.1h-.1v.1zm78.9 61.6h-.1zm27.2-51.2h-.2zm-151.4 52c-.1 0 0 0 0 0zm3 .9v.1zm117.6 1.2h-.1zm27.1-15.3v.2zm-107.1-50.2h-.1v.1h.1zm-8.2 2.4h-.1zm86.6-2h-.2.1zm-7.8 67.2h-.1zm46.8-22v.1zm-39-45.5h.1zm39 45.3h-.1zm-53.4 22.6v.1zm29.4-64.4v.1zm23 40.3h.1zm-163.1-2.8v.1zm168.6-20h-.1c-.1 0 0 0 0 0zm-26.2-17.2h.1zm-32.4 64.8v.1zm2 .5h-.1zm7.6.3v.1h.2-.2zm-6.7.2-.1-.1v.1zm53.6-50.7v-.1h-.2v.1zm-62 52.9v-.1zm.8-.1v.1zm-84.1-.2-.1-.2v.1zm82.6.8h.2zm-.9.2v.1zm4.2.2v-.1l-.1.1zm-11.2.8v-.1zm-6.6-.2h-.2v.1h.1zm22.8-74.6v.1zm5.5 0-.1-.1h-.1v.1zm-8.7 0v-.1zm-79.8 74.9v-.1h-.1v.1zm60.8.8v-.1h-.1.1zm62.3-68.9h-.1zm-88.6-7.5c-.1 0 0 0 0 0zm18.6 77.5v.1zm37.6-77.4v.2-.1zm-39.5 77.5v.1h.2v-.1zm46-77.6h-.1zm-41.2 78.1v-.1zm34.5-78.3h-.1zm-83 78.1a17.6 17.6 0 0 0 -.1 0zm45-78.4h-.1v.2-.2zm-35.4 78.6h-.1zm30.4-78.8h-.1v.1h.2zm-36 79-.1-.1zm14.5 0v.1zm97.4-69.9.1-.1zm-79.9 70.4v.1zm-27.5.1h-.1zm3.1 0v.1h.1v-.1h-.2zm4 .2.1.1h.1v-.1h-.3zm109.5-62.4-.1.1h.1zm-112.5 63.2h-.2.1zm121.5-53.8h-.1c-.1 0 0 0 0 0zm-114.6 54.3h-.2zm7.6 0 .1.1z" fill="#411e43"/></svg>