<svg fill="none" height="92" width="230" xmlns="http://www.w3.org/2000/svg"><path d="m5.4 67.4-.4-.4c-.2-.2-.1-.4-.4-.5l.1-.4.4-.3c.6 0 1.1.4 1.8.4v.1-.1l-.3-.4h-.6v-.3h.3l-.3-.5v.5c-.5 0-.2-.3-.3-.5-.2 0-.3.2-.5.3h-.3v-.3h.1l.2-.2h-.6l.1-.3c-.3-.2-.5.2-.8 0 .1-.3.5-.3.8-.5l-.4-.5v.3h-.3s-.2-.3-.5-.2v-.4.4c-.5-.1-.5-.1-.5-.5v-.1l.5-.5h.7l.3.1s.1.2.2 0h-.5l.2-.3-.1-.3-.5.2-.5-1.4v-.2l.5.6c.2 0 .2 0 .2-.2l-.2-1-.4-.1a3 3 0 0 0 -.6 0l.5-.4.1-.2v-.2l-.4-.1-.3 1c-.2-.2-.2-.2-.1-.7-.3-.2-.3 0-.5.1a.3.3 0 0 1 -.2 0v-.1c.3-.2.2-.5.5-.7l-.7-.4-.2-.8.5-.2-.8-.4c0-.2.5-.3.4-.7l-.6-.1.2-.5c-.4 0-.4 0-.9-.3 0-.2.3-.2.5-.2-.3-.4-.2-.7-.3-1l.1-.3.3-.2.7-.1h.4c.2.3.2.6.1 1 0 .2 0 .2.5.4l-.1-1.6s-.1-.1 0-.2c.3-.4 0-1 0-1.5.1-.5 0-.4-.5-.7-.1.2.2.4 0 .6-.3.2 0 .4-.4.6 0-.7-.2-1.3.2-1.9h-.4c-.2 0-.3 0-.4-.2.6-.1 1-.6 1.6-.7h.1v-.2c.1-.2.5-.2.6-.4l.1-.5c0-.2 0-.4.3-.5.3 0 .2.3.3.5 0 .3-.3.6-.5.8v.1l.1.1a87.3 87.3 0 0 0 .4-.1v-1l.5-.4.1-.1v-.2c0-.3.2-.4.5-.3l.7.3h-.2c-.4.2-.5.4-.3.6l.3.3.2.3v.3l-.7.7.4.5c-.2.2 0 .5-.3.6v1.4l-.1.7-.5.3-.2-.3h-.4v.1c0 .6-.2 1.2 0 1.8l.5.1.5.2v.7c-.4 0-.4 0-.7-.6l-.1.3v.7h.5l.6.2-.1.4c-.3.2-.2.5-.2.7s.4.1.1.4c-.2.2 0 .3 0 .4.2.1.2.3.3.4v.7l.1.1c.3.4.4.7.3 1l-.2.3c.7.5 1.2 1.2 1.3 2v.4c.3.3.4.7.3 1 .6.5.6.5.5 1.2l.4.1c.2 0 .3.2.4.3l.1.4.1.3.4.2v.3l.3.4a6.4 6.4 0 0 1 1.4 1.5l.2.4 1 1.2.1.5c.5.2 1 .5 1.1.8.2.3.5.6 1 .8.3.3.6.5 1 .6a7 7 0 0 1 2.1 1.3l.6.3.4.2.2.2.2.1 2 1.2 1 .5.8.4c.2.1.6.1.8.3.3 0 .4.3.6.4.8.1 1.3.6 2 .9.5 0 1 .3 1.3.6h.4c.8.2 1.6.4 2.2.7a18.8 18.8 0 0 0 4 1.2c.7 0 1.4.3 2.1.4v.2c.2.3.7 0 1 .3h.3c.4.6.4.6 1.4.5h1.3l-.2.4.8.2 1-.2.1-.3c.6 0 .6 0 .7.3.3 0 .6-.3 1-.1l-.3.4h.5c.2 0 .4 0 .5-.2l.2.3h1c.3 0 .5.3.7 0 .2.3.4.4.7.5.2 0 .5.1.8 0l.3.1.2.2c.4.3.9.2 1.3.2.3 0 .5-.1.6.1h.2l1.8.5h.4c0-.3-.4-.3-.6-.5l.2-.1.5-.2h.5l.1.8h.2c0-.2.1-.3.3-.3l.5.2c.3-.1-.2-.3.1-.5.5.2 1 .4 1.6.1l.8.5.2.6a3.5 3.5 0 0 0 2.2-.2l.9.5h.2c.2 0 .2-.4.4-.2.3 0 .5-.1.7.1s.6.3 1 .2h.2c0-.2.1-.2.3-.2h.3c.4-.2.8 0 1.1 0l.4.7h1l.3-.4h.2l.1.3.2.1h2.6l.6-.2v.2l.4-.2.4.3.4-.1c0-.2.2-.2.3-.2h.2l.2.1.2.5c.3 0 .7 0 1-.2 1 0 1.8-.3 2.7-.3h.7c.1-.2.4.1.6 0h.1c.1.2.6 0 .8.3.1.3.4.1.5 0l1.5.5h.3v-.3l-.2-.2v-.2h.2l.1.2.5.2.3-.1h.6c.5.2.9 0 1.2-.2h.3c.5 0 1 0 1 .5h1.4v-.2h.6c.3 0 .3 0 .3-.2h.6c.2 0 .3 0 .3.3h.6c.5.2.8 0 1.2-.1l.2-.3.9.3c.4 0 1-.1 1.3-.3l.3-.2c0 .3.3.5.8.5l.3-.1.5-.2c.5-.1 1-.4 1.3-.7.3.5 1.1 0 1.4.6.2-.4.2-.4.7-.6l-.3.4.2.4h.3c.2-.2.4-.5.9-.4 0 0 0-.3.4-.2.3 0 .4 0 .6.3l.2.1h.1-.2l.3-.3.6-.1.5.2c.4-.1.9-.2 1-.5h1c.3 0 .6.3 1 .2v.2-.2l-.3-.5c0-.1 0-.2.2-.3h1.5l.1.3h1.6c.6-.2 1.2-.2 1.8-.2l1.3-.2c.3 0 .7.2 1.1 0l-.1.2v.1h.1v-.2l.1-.2 1.4.1.2.3c.4 0 .4-.2.6-.4h.6c.2 0 0-.3 0-.5.3-.2.9 0 1.2-.2l.5.4c.1 0 .4 0 .4-.2l.2-.2h.2c.1 0 0 0 0 .1l.1.2.2-.1.2-.3c.3 0 .5-.2.8-.3s.4-.1.6.1l.3.3.3-.4.6-.2v.4h.1l-.1-.4.4.2.2-.3.6.2c.1 0 .2 0 .2.2v.1l.2-.1v-.2h.5l.2-.2.3.6.2-.4h.4v-.2c-.4 0-.4-.2-.4-.4h.3c.3.2.3.2.4-.2l1.1.4.5-.4h.5a1 1 0 0 0 .7 0c.2-.2.3 0 .4.2l1-.4v.6c.4-.3.8-.5 1.3-.6l.4-.1.3-.3h.5l.5.1h-.1.1c.3 0 .3-.2.4-.3l.5.3.1-.4h.6l.4-.3.3.1.3.3.6.1h.2l.2.2h.5v-.6l.5.2a7 7 0 0 1 2.8-.8l1.5-.3c.3.1.6.4 1.1.3.5 0 .5 0 1-.5.6 0 .6.4 1 .6l.5-.4-.3-.3.2-.5h.3l-.2-.4.2-.1h1.2c.2-.2.7-.4.7-.7.3 0 .3.1.3.3 0 .1-.1.2.2.3.2-.2.2-.5.3-.7a3.7 3.7 0 0 0 .8-.3 1.3 1.3 0 0 1 .8 0h.3l1.5-.6c.4 0 .6.3.6.6l.6-.2.5-.4.2.4h.5l.4-.2.7-.2h.8l.2-.5.2.4c.3 0 .1-.3.2-.4l1 .3h.3l.3-.1 1.1-.6-.2-.4c.5-.2.6.2.9.3l.1-.3h1.3l.3.1 1-.3-.2-.3c.2-.2.5 0 .7 0 .2-.2.4-.1.7-.2l.5.4h.8c.3.2.5 0 .7-.1-.2-.3-.9-.1-.9-.7l.6-.2.2.5h1.2c.1-.3-.1-.4-.3-.5.4-.2.5-.5 1-.6.3-.2.2-.3 0-.6v-.3h.3l.3.1v.6l.7-.4c.2-.2.3-.2.5-.1.2 0 .5-.3.9-.2h.4l.4-.2.4-.4v-.4l.2-.1c.1-.1.3 0 .4 0 .5-.1.5.1.5.4h-.2.2l.1-.1c.3-.6.5-.7 1-.5a1.3 1.3 0 0 0 1 0l-.5.4v.1c-.1 0-.1 0 0-.1.3 0 .3 0 .4-.3-.2 0 0-.3-.2-.4h.3l.4.3.4-.5.4.2c0 .3.4.3.8.2v-.8h1.6c.4 0 .6-.1.8-.3.2-.1.3-.2.5.2h-.2l.2.1.1-.1.9.2.6-.3-.1-.4a1 1 0 0 0 -.5-.3l-.1-.2 1.5-.5h.1l.1.1h-.1c.5-.1.5-.1.8-.5l.2.1.1.2 1.6-.2c.5-.1.5-.1 1-.6-.4-.2-.6.2-1 .2l-.1-.6h.6c.3 0 .3-.2.4-.4l.3.2c.1 0 .2 0 .3-.3a3 3 0 0 0 1.6-.5h.3c0 .2 0 .4.3.3l.3-.2-.3-.2c0-.2.2-.4.5-.4v.2h.1l.1-.1h-.2l.4-.3v-.4h.5l.3.4h.2c.2-.3.5-.4.9-.5 0-.2 0-.2-.2-.2l-.3-.2c.3-.2.8-.1 1-.4h.5l-.4.4a.8.8 0 0 0 .4 0h.2v-.2l.8-.5c.3-.2.5-.3.9-.3h.7l.1-.1h.1l.2-.3h.3a1.2 1.2 0 0 1 .7 0c.1-.1.1-.4.4-.4l.7-.1v-.4h.4l.3-.1v.3h.7c.3 0 .5 0 .6-.2l.4.1c.1.2.2 0 .4 0-.1-.2-.2-.4-.6-.4l-.5-.9c.2-.2.6-.2.8-.3l.2-.2.3-.2v.4h.2l.2-.3c0-.1.2-.3.4-.3l.3-.2.5.2c.2 0 .3-.2.3-.3l-.1-.3c.4-.2.8-.2 1.3-.2.2 0 .3-.1.4-.3.1-.3.1-.3.5-.3h.3v-.3c.3 0 .6 0 1-.2h.2l.3-.1.3-.2c.3 0 .5-.2.7-.4h.2c.6-.1.8-.5 1.1-.7l-.5-.2.3-.3h1.6l-.3-.8h.6l.1-.2h1c.2-.2.1-.3-.1-.5.1-.2.4-.3.3-.6l.8-.2.3-.2.2-.2h.4l.5-.1h.2c.2 0 .4-.2.3-.3 0-.4 0-.8.2-1.1l.5.1 2-1.3.5.1.7-.4v-.4c.4 0 .4 0 .6-.6l.7-.1.3-.4.3-.3c.2-.1.4-.2.6-.1.2 0 .4-.2.5-.3.2 0 .4 0 .4-.2v-.3l.3-.3c.3-.2.3-.6.7-.7v-.1c0-.2-.1-.2.1-.3.3 0 .3-.1.5-.3v.4h.3l.6-.4c-.3-.2-.6-.3-.3-.6-.1-.4 0-.8-.5-1v-.2c.2-.2.2.1.4 0l.6-.3.2.1a3.9 3.9 0 0 0 1.2-1.3l.5-.5c-.1-.3.2-.6.3-.8l.4-.7.3-.7.1-.5c.3-.3.2-.8.4-1.2l-.2-.6c-.2-.3-.2-.7 0-1l.1-1c0-.6-.2-1.1-.3-1.7v-.8c-.3-.2-.4-.4-.5-.6l-.8-1.8c0-.3-.4-.3-.5-.5l-.7-1.1c0-.2-.1-.3-.3-.5-.3-.2-.5-.6-1-.8v-.1c-.8-1-1.7-1.9-2.7-2.7l-1.3-1-1.8-1.3-.7-.4-.2-.1c-.4-.4-1-.7-1.6-1v-.2h.7c0 .2.1.2.2.3h.1v-.2h-.3c0-.2-.3-.4-.5-.3-.5 0-.9-.1-1.3-.3l-.5-.1c-.1 0-.6 0-.8-.3-.1-.2-.6-.2-.7-.5-.8-.5-1.5-1.1-2.7-1-.1-.3-.2-.6-.6-.7-.3 0-.6-.3-.7-.5l-.6-.3a3 3 0 0 1 -1-.5c-.1-.2-.4-.3-.8-.5-.2 0-.5-.1-.7-.3-.5-.2-1-.5-1.5-.5l-.3-.2-.6-.2c-.2 0-.3 0-.4-.2h-.4l-.5-.5-.7-.2c-.2 0-.5 0-.7.2 0-.3-.2-.5-.5-.7-.3-.1-.6-.3-1-.3l-1.7-.5-2.2-.4h-.4l-.4-.3-.7-.1-.1-.4-.7.5c-.2-.1-.4-.3-.7-.3h-.4l-.2-.2c-.1-.2-.4-.2-.7-.2h-.4a.7.7 0 0 1 -.4-.3c-.1-.2-.4-.2-1-.2a2 2 0 0 1 -.4-.2l.3-.1-.2-.1c-.8 0-1.6-.3-2.2-.6l-.5-.2c-.9.1-1.6-.3-2.4-.4l-1.2-.2-1.2-.3-.7-.2c-.2-.1-.5-.2-.7-.1-.4.2-.7-.1-1 0l-.2-.2c-.4-.4-1-.3-1.5-.3-.3 0-.5.2-.7 0-.4-.2-.8-.1-1-.3-.3-.2-.7 0-1-.4-.4 0-.8-.3-1.3-.1l-.4-.5-.4.2h-.2a.8.8 0 0 0 -.4 0l-.2.1-.3-.3-.9.2-.9-.3c-.7-.3-1.6-.5-2.4-.5h-.2a3.4 3.4 0 0 0 -1.7-.2c-.4-.2-.7 0-1 0-.5-.2-.7-.6-1.4-.5l-.3.4-.2-.5.3-.4c-.3-.1-.5 0-.7.1l-.2.2-.3.1a1.3 1.3 0 0 1 -.7 0l-.8-.2h-.3c-.2-.4-.3-.3-.6 0-.3.2-.6.2-1-.2l-.3-.1h-1c-.6 0-1-.2-1.5-.3l-.1-.1c-.1-.3-.4-.2-.6-.1l-.2.2-.3-.3-.7.2h-.6a6 6 0 0 1 -.8 0l-.8.1h-.6l.2-.2h-.2a4.2 4.2 0 0 1 -2.3-.3 4 4 0 0 0 -1.6-.2c-.3 0-.7.2-.9-.2h-2l-.3.3-.9-.3c-.3 0-.6-.3-1-.2l-1-.1c-.7 0-1.4-.3-2-.3l-.4-.5h-.2c0 .4-.2.5-.6.5-.3 0-.7.2-1.2 0h-.1l-.2.2c-.3.3-.7.2-1.2.2.1-.3.4-.2.8-.3l-.5-.2h-1.7a31.8 31.8 0 0 1 -3.2 0 25.6 25.6 0 0 1 -4 .1h-1.4c0-.4.4-.3.6-.4l-.5-.2h-.4a2.1 2.1 0 0 0 -1.2 0l1 .4c-.1.2-.5 0-.7.3h.3c.3 0 .3.2.2.4h-.7a14.9 14.9 0 0 0 -2.7 0l-1.5-.1.2-.2v-.2h-.1l-.2-.1c-.3 0-.4.2-.5.4v-.3h-2.9l-.5.1c.1.3.4.1.6.3h-1.4l-.4-.3h-1.5a4.8 4.8 0 0 0 -1.5 0c-.6-.2-1.3 0-1.8 0-.6 0-1.2 0-1.8.2h-4.4a6 6 0 0 0 -1.3 0l-1.2.2c-.2 0-.5.2-.7 0h-.2c-.4.3-1 .2-1.5.2h-1c-.3.2-.5.1-.8.1s-.7.3-1 0a.3.3 0 0 0 -.2 0c-.7.2-1.5.1-2.3.2l-2.2.2-.7.2-1-.5-1 .6v.3c-.2.2-.4 0-.6 0 .3 0 .2-.2.1-.2a.6.6 0 0 1 -.3-.3v-.3l-.3-.1c.5-.3 1-.5 1.6-.2.4-.5 1-.4 1.6-.4-.4-.2-.8-.4-1.3-.2h-2c.3-.3.3-.3.5-.3a52.9 52.9 0 0 1 1.6-.2l.2-.2v-.2h-.3c-.3 0-.1.2-.3.3-.2 0-.4 0-.6-.2l-.1-.1c-.4 0-.7-.2-1.1 0h-1l-1 .2h-1.1c0-.1-.1 0-.2 0h-.1c-.2.2-.3.2-.4 0l-.2-.1-.5.1h-.2.3c0 .1 0 .3-.2.3l-.8.2.3.3h-.2.2a2.3 2.3 0 0 0 1.4 0h1.5c.1.2.1.4.5.2a9 9 0 0 0 1.2.5h1l-.3.7-.7.1c-.2 0-.3.2-.3.3-.1.2 0 .2.1.3l.1.4-1.5.2-1.5-.4-.4.1-.4-.4-.6.2c-.2 0-.3-.3-.7-.2l-3 .2a1 1 0 0 0 -.6.2c-.7.5-.8.5-1.7.5h-.5l-.4.1h-.5c-.2-.1-.4-.2-.6-.1l-1.8.2h-1a6 6 0 0 0 -1.4.3h-.4l-.2.4h-.4l-.5-.1h-1.5l1.2-.4.4.2.2-.4h.6v-.2c0-.2 0-.3-.3-.3h-.1c0-.1 0-.2-.2-.2v.2h.2l-.4.3a3 3 0 0 1 -.6.1c-.4.1-.8.5-1.3.5h-.2v.3h.6v.6l-.9-.1v-.3l-.5-.1h-.7a2 2 0 0 1 -.5 0l-.5-.1v.2l-.1.2c-.4 0-.6-.2-1-.3h-.9c-.2 0-.2.4-.6.4l-.2.2c-.3.4-.3.4-.8.2a.4.4 0 0 0 -.2 0l-.3.2-.2-.3h-1.1c-.2 0-.5 0-.7.2l-.6.2-2 .2.7-.4.2-.6c.5-.1 1-.3 1.5-.2a.4.4 0 0 0 .2 0l.6-.3c-.3-.2-.7 0-1 0l-.2-.5h.1a1.2 1.2 0 0 0 .9 0c.1-.2.3-.2.5-.2h.3l.2-.2c.1-.2.2-.3.5-.2l.2.3-.5.3-.1.5h.3l2.5-.2.9-.3v-.4c.2 0 .2.1.2.2.4.4.7.4 1.2.1l.5-.2c.6 0 1.1-.1 1.7-.3l-.8-.3c.2-.3.5-.2.8-.3l.2.4c.4 0 .6-.2 1 0h.3a559.4 559.4 0 0 0 -.3 0c0-.4-.5-.4-.6-.7-.2.2-.5 0-.8 0l-.7.1c0-.3.3-.2.5-.3-.1-.2-.3 0-.5-.1l-.5-.2a1 1 0 0 0 -.4 0l-1.4.5.2.4-.4.1h-.1v-.5c-.2-.1-.2-.2-.2-.3v-.2h.7c.2.2.3.1.4-.2.6-.1 1.3 0 1.9-.4l-.4-.2c.2-.2.8-.4.6-.8.4 0 .9-.2 1.1.3l.7-.1-.5.5.3.1 1.4.1c.7 0 .8 0 1.1.5v.2h-.5v-.2h-1.1a2 2 0 0 0 -.5 0c.4.4.4.4.8.3h.1c0 .4.5.2.7.4l.4-.2h.7l.1.6h.8c.2 0 .2 0 .2-.2.2 0 .4.2.7 0h.6l.1-.2-.4-.2-.5.2-.5-.4-.1-.3.3.1h.1l-.2-.1h-.1l-.3-.1c0-.3-.3-.2-.5-.3 0 0 .5-.2 0-.3l.3-.2h.4l1.1-.3c.5-.2 1-.1 1.6-.2l.3.4.9-.7h2.1c-.3-.4-.8-.4-1.1-.7l.9-.1.9.4-.4.1c.5.2.5.2 1-.1l.4.2a.5.5 0 0 0 .3 0c.2 0 .2-.2 0-.3v-.2l1.6-.1c.2.2-.1.2-.2.3l.3.1-.3.3.3.1h.3c.8-.7 1.3-.9 2.4-.5l.3-.2.3-.1c-.2-.3-.7.1-.8-.3l1-.2.2-.2c0-.1 0-.2-.2-.3.7-.3.7-.3 1.2.3l-.2.2-.2.2.2.1h1.5l.6-.1c.5 0 1 0 1.4-.2 0 0 .1-.1.1 0h1l.6.1-.3.6c0 .1-.5 0-.4.3l-.2.1-.2.1-.1.2h.4l2-.3h.5c.3.4.7.2 1 .3v.4h.3l.4-.1v.4l-.3.1.4.2-.1-.3h.4c0 .2.2.5.6.3h.2l-.4-.3.2-.5h.1l.4.2c.3.2.5.3.9 0l.4-.2c-.3-.2-.5-.2-.8-.1h-.3c-.3-.2-.6-.1-1-.2l-.8.4c0-.3-.1-.3-.3-.2h-.3c-.1-.1 0-.3.2-.3l1.4-.1 2.4-.3.7-.1-.7-.4-.4.2c-.3.3-.8.4-1.1 0l-.4-.2h-.5l-1.5.2.2-.1.3-.1c.3 0 0-.4.5-.4l.9-.1.9-.1c.6 0 1.2-.1 1.7-.4a1 1 0 0 1 .7 0c.2.2.3.3.6.2l.2.1.2.4c-.2-.2-.4-.2-.5 0l-.7.3.6.3h1.5a45.4 45.4 0 0 1 4.7-.4l-.2-.4h-1.9l-.3.4c-.5-.2-1 .1-1.2 0l-1-.4c-.1-.2-.3 0-.4 0l-.3-.3c.2-.3.6 0 .8-.2l1-.1c.2-.1.5 0 .8 0v.4l1-.1c0-.5.6-.4 1-.5v-.2l.4-.3c.2.3.6.1.7.5h2v-.2l1.6-.1-.1.4.6.4c-.2.3-.3.4-.6.2l-.4-.3v.4l-.6.3a.4.4 0 0 1 -.3 0 .6.6 0 0 0 -.4 0l-.2.1.1.2h1.2c1-.1 2-.2 3-.1h.1c0 .2-.1.5-.4.5-.5.1-1 .4-1.6.2.2-.2.6-.1.7-.4-.6-.2-1 0-1.4 0-.2.5.3.5.5.7s.5 0 .9 0l-.4.4c.4 0 .8.2 1.2 0l-.3-.4c.6-.2 1.2 0 1.8 0 .3 0 .6 0 .8-.3h2l-.3-.5-.7.3c0-.3.3-.4.4-.5l1-.1.3-.2-.3-.2s-.3-.1-.4 0c0 0-.3 0-.4-.2 0 0-.5 0-.6-.3h-.3c-.4.3-.4.3-.8 0h-.2l-1.2.2v-.2c.3-.2.6-.3 1-.3l1-.1h1.2l.3-.5c.3 0 .5 0 .6.2l.2.3c.3-.1.1-.2.2-.3l.2-.1s.4 0 .4.2v.1l.2.1h3.7l-.3-.4c.4-.1 1-.2 1.1.1l.5.3h1v-.2c0-.3.2-.4.4-.4l1 .1h.5c.5.4.7-.2 1.1-.2 0-.4-.6 0-.6-.4a2.7 2.7 0 0 1 1.4 0v.7h-.1a13.6 13.6 0 0 1 -1.3.2l-.2.1.3.4c-.1 0-.1 0 0 .1h.4l.6-.3.7-.1c.3 0 .6-.2.7-.4l.6-.1.3.2.2.2h.4c.6 0 1.1.2 1.7 0l.2.1.6-.2-.3-.2.6-.3h.2c.1.2.3.4.7.5l.4.2 1-.5c.3.1 0 .4.2.6h1.7c.2 0 .2.2.2.3 0 .2.2.2.4.1l-.2-.4h-.4s0-.2-.2-.3c-.3 0-.6 0-.8-.2.5-.4.5-.4 1-.2l.1-.3c.4 0 .8-.2 1.2 0a.4.4 0 0 0 .2 0c.5-.2.8 0 1.1.2h-1.8l-.3.1c.7.7 1 .7 1.8.3h.1c.3-.1.2-.3.2-.4h.4l.8.6c.4-.3 1 0 1.3-.4.4.2.7.3 1 .2l.3-.1c.5-.4.5-.4 1-.1l-.5.2.2.1h.8c.3.1.6.2.7.4h.2l.3.1.4.1.7.2h.8c.5 0 1 0 1.5.2.3.1.4 0 1-.2v.3l-.3.3h.6c.2 0 0-.3.2-.3h.6c.2.2.5.2.9 0h.5c-.3 0-.6 0-.7-.3.1 0 .4 0 .5-.2 0-.2.3-.2.5-.3l.1.5c0 .2 0 .3.2.3.5.4 1.1.3 1.7.4l-.2.4.2.3h.3v.3s.2 0 .3.2l.2-.2.1-.2.2.4c.6.2 1.2-.2 1.7.2l.4-.3c0-.2-.6-.1-.4-.4l-.3-.2h-.7c-.2-.1 0-.2-.2-.3h1.3l.4-.2.9-.6.2.7h-1v.1l1 .2h.3c.2-.4.7-.3 1-.5.3 0 .5.1.6.3l.2.4-.1.6c.2 0 .4 0 .5-.2 0-.2.2-.3.5-.3 0 .4 0 .4.6 0 .6.4 1.3.3 2 .5l-.2.1-.1.2h-.5l-.4.1.2.5.5.1.4.2 1.6.1c.3-.2.3-.2 1-.3-.2-.2-.4-.2-.6-.2h-.5c-.2-.3-.5-.3-.8-.2a.7.7 0 0 1 -.7-.4 1.6 1.6 0 0 1 1 0l.3-.3h.5c.5 0 .9.2 1.3 0h.2v.5l.9-.1h.5l.3.3c.5.1.5.1.8-.2-.4 0-.6 0-.9.2h.1c.4-.4.5-.4 1-.4.2 0 .1-.3.4-.2l.8.1 1.8.4.3-.3c.7 0 1.2.3 1.8.4l.4.3.6.1.6.3v.4h.8l.2-.3 1.4.2c.1.4.7.4 1 .8l.3.2h-.5.5l.2-.1h1.7c.3-.2.8-.3 1.2 0h1.1l1 .5c.3.1.5.5.9.5l.2.2c.2.3.5.4.9.3 1-.3 1.7 0 2.3.6l.2.3.9-.2.2.3.5.2.3.3.1.1h.6l.4-.2h.5c.2.2.4.3.7.3l.7.1h.6c.2.2.3.4.8.4h.8l.6.4c.2.2.3.3.6.3l.6-.2h.2v.2l.1.3.4.2 1 .4a.6.6 0 0 0 .4 0 1 1 0 0 1 .8 0l1.3.4.4-.2c.6.1 1 .3 1.5.6l.2.2c.1.3.4.3.6.4.3.1.6 0 .8.3h.6l.3.2-.2.3h.1l.6.3c.1.2.3.3.6.4h.8c.4.2.7.6 1.3.5l.4.2c.3.2.3.6.8.5l.9.6.6.3c.3 0 .4.3.7.4.2.1.6.1.8.3.7.7 1.7.8 2.6 1.2l.3.2c.1.2.4.4.8.6l.7.5c.5.3.9.6 1.2 1 1 .2 1.4 1 2.2 1.4l1.5 1.2c.7.5 1.1 1.2 1.8 1.7.6.5 1.2 1 1.6 1.7l.4.4.6.6c.2.2.4.4.4.6v.4l.4.3c.2 0 .3.1.3.2 0 .3.2.7.5 1l.5.7c0 .3.2.5.6.6v.6c0 .2 0 .4.2.6l.6 1.3v.4l.2.8.2.6a61 61 0 0 1 .2 4v1.2c0 .4 0 .8-.2 1.2 0 .4-.2.7-.5 1-.4.5-.7 1-.7 1.5 0 .4-.2.8-.5 1.1a1 1 0 0 0 -.3.5v.4l-.2.2c-.5 0-.7.2-.7.6v.2c-.2.2-.4 0-.5.3 0 .3-.2.6-.4.8l-.2.3c-.7.4-1.2.9-1.5 1.4l-.5.6a1 1 0 0 0 -.3.3v.1l-.3.2a15.8 15.8 0 0 0 -1.7.7l-.2.3-.1.5c-.4 0-.5.4-1 .3-.2 0-.5.2-.5.4v.5l-.4.4a28 28 0 0 1 -2.2 1.4c-.2 0-.2 0-.2-.2l.3-.5c-.4.2-.4.2-.3.5-.7 0-.7 0-1 .7h.4l-.4.4c-.7.1-.9.5-1.2.8a7 7 0 0 1 -.9.8c-.8 0-.8.1-1.5.6l-1 .7-.9.2c-.2.2-.4.5-.7.6-.5.3-1 .6-1.8.6l-.1.5c-.2.2-.4 0-.6 0l-.2.4h-.9c0 .2 0 .4-.2.6s-.5.3-.9.4c-.3 0-.6.2-.7.4-.2.2-.4.1-.6 0l-.4.5a2 2 0 0 1 -.7.4c-.3.1-.6.2-1 .1l-1.2.2v.1h.4l.1.3c-.6 0-.6 0-.4.4l-.5.2c-.3.3-.8.5-1.3.6h-.2c-.4.4-.5.5-1.2.5l-.3.3h-1.1l-.1.4c-.1.1-.3.3-.7.3-.3 0-.2 0-.2.3l-.5.3-.4.1h-.4c-.3 0-.5 0-.6.3l-.5.5c-.5 0-1 0-1.4.3l-1.5.3-.2-.2-.2.2-.8.3c.2.2.2.5 0 .6-.7 0-.7 0-1.2.2l-.2.1c-.1.2-.3.3-.6.2h-.2l-.3-.2v.2h.3c-.3.4-.7.4-1.1.5l-.6.1c0-.3-.3-.3-.6-.3-.4 0-.6.2-.8.4l.7.2a2 2 0 0 1 -1 .6c-.8.1-1.4.4-1.9.7h-.3l-.5.1v-.1.2l-.2.1-1.3.4h-.8c-.3.4-1 .5-1.3.6h-.5c-.3 0-.8 0-1 .3h-.5c-.2.3.2.4 0 .5-.2.2-.3.2-.7.2l.1-.7-.3.3-.3.1-.2.2h-.2v.2h.1l.1-.2.4.1v.4h-.7a5 5 0 0 1 -.8.5c-.3 0-.5-.2-.8 0l-1.3.3-.4-.2-1 .2.1-.3h-.3c-.3-.1-.3-.1-.4.2h-.5a1 1 0 0 0 -.4.2 1 1 0 0 0 -.2.3l-.2.9h-.4a3 3 0 0 0 -.3.3l-.3-.3c-.2.1-.4.3-.8.3-.6 0-1.2 0-1.7.3h-.3a1.4 1.4 0 0 0 -.7 0l-.3.2-.2.2-.5-.4h-.2c0 .4-.1.6-.5.6-.2 0-.3 0-.4.2v.2l-1.5.5h-1l-.2.3-.2.2h-.3a1.1 1.1 0 0 1 -.6 0c-.1-.1-.3-.2-.5 0l-.2-.2c-.2-.2-.4-.3-.7-.3-.2.1 0 .2.1.3-.3.3-.6.2-1 0l-.5.4h-.3s0-.2-.2-.3h-.4l-.5.4c-.2.2-.3.2-.7 0l-.2-.1h-.2l-.8.2c-.3 0-.9-.3-1.2.3h.7v.2c-.3.3-.8.4-1.3.6h-.2c-.3 0-.5 0-.8.2-.2.1-.5.2-.9 0-.1 0-.5 0-.7.2 0 .2.3 0 .5.2-.3.1-.5.3-.7 0h-.5a3 3 0 0 0 -.5 0l-.4-.2h-.2c0 .2-.2.3-.3.4l-.6.2h-.7c-.3-.3-.8-.1-1.1-.3l-1 .2-.2.3v.3c-.7.5-1.5.2-2.3.1 0 .3-.3.1-.5.1l-.3.4c-.2-.1-.3-.4-.6-.5h-1.1l-.2.2c.1.3.4.2.6.2s.4-.2.7 0c-.3.1-.7.3-1.1.3h-1.3c-.3.2-.6.5-1.2.4h-.2c-.3 0-.4.4-.7.3-.4 0-.5.2-.8.3-.2.1-.4.2-.6 0l.4-.2v-.6c-.4 0-.2.2-.3.2l-.3-.1-.6.4-.4-.4a8.7 8.7 0 0 1 -1 0l-.1.2c-.2.2-.4.1-.6.1h-.9c-.3.1-.5.3-.6.5v.1c-.2 0-.4 0-.3.1 0 .4-.2.5-.6.6a7 7 0 0 0 -.8-.4c-.2 0-.6.2-.9 0 .3-.2.6-.1.8-.2.3 0 .5 0 .6-.3l-.5-.1h-.5c-.3.2-.7.3-1 .3l-.6.1-.2.2c.2.2 0 .3 0 .4v.3h-.1c-.3-.2 0-.5-.2-.8l-1 .9-.5-.2h-.7a6 6 0 0 0 -.7.4c-.2-.1-.4-.2-.6 0-.5.3-1.1.2-1.7.3v-.2l.3-.2.1-.3c-.2-.2-.4-.1-.6 0h-3.2c-.2.2-.4.4-.8.3-.4 0-.4.2-.5.4-.5.1-1 0-1.3.5-.2 0-.4 0-.3-.3v-.2a1 1 0 0 0 -.4 0l-.1.2c-.2.2-.3.4-.7.3l-.3.1-.4.1-.1-.6h-.2c-.3 0-.6.2-1 .1l-.2.2c0 .2-.2.3 0 .5.3-.2 0-.3 0-.5l1 .5-.2.3h-1l-1.4.1c-.3 0-.4-.1-.4-.3-.6 0-1.2-.1-1.6.3l.1-.5h.7c.2-.1.5-.3.4-.5h-.8c0 .2-.2.2-.3.2l-.6.2.1.4.4.2-.1.1h-.3l-.2-.2h-1.7l-1.3.1-.2-.1v-.1l-.2.2c-.3.2-.4.1-.4-.1v-.2h-.8v.3l-.2.2h-.3c0-.1-.2-.3-.4-.3-.3 0-.5-.1-.8 0-.2.1-.1.4-.5.4h-.5c-.3-.5-.6-.5-1.2-.1-.2.2.4.2.2.5-.6-.2-.6-.2-1.1 0l-.5-.3h-.6c0-.4 0-.4-.5-.5l-.6-.3h-.2l-.2.1h.2l.3-.1-.1.4v.2c-.3.2-.5.2-.8 0a.8.8 0 0 0 -.4 0h-.4c-.3.2-.7 0-1 .3l-1.1.2c-.2 0-.2-.3-.5-.3l-.8-.3-1 .3c-.4 0-.8.2-1.3 0-.2 0-.4.4-.6.1-.3-.2-.5 0-.7 0l-.5-.3-.4-.4h-.2v.4c0 .2 0 .3-.2.3h-.8l-.2.2v.5l-.5-.2-.4-.5c-.5 0-.9-.3-1.5-.1v.3a.4.4 0 0 1 -.3 0c-.3-.2-.5-.4-.9-.2h-.1c-.4-.4-.8-.3-1.2-.3l-.6-.2h1.6l-.5-.5h-.2c-.4 0-.3-.4-.6-.3h-.3v.3c-.7 0-.7 0-.9-.5 0-.2 0-.2-.5-.4l-.2.1-.2-.1v.1h.2v.2l-.3.3c-.8 0-1.6.3-2.5.2l-.6.1c-.4 0-.7-.3-1.2-.1h-.4a3.4 3.4 0 0 0 -1.3 0v.1l.2.1h.3l.3.1c-.3.2-.7.1-.8.3-.3-.2-.6-.2-.9-.2l-.8.1c-.6-.3-1.2-.1-1.9-.1-.1-.2-.6-.2-.7-.5l.5-.1c0-.4-.4-.6-.9-.5l-.2.1-.5-.2h-.2l-1.5-.3c-.2.3 0 .3.2.4 0 .2.1.3.2.3 0 .2-.2.2-.4.2l-1-.1-.1.5h-.6l-.6.2-.2-.4-.3-.3c-.5 0-.7.3-1 .5-.3 0-.4-.2-.5-.4l-.2-.3a1 1 0 0 0 -.5 0c-.1 0-.2 0-.3.2v.2c-.5.2-.4-.3-.6-.4-.2 0-.2.3-.4.1h-.1v-.3l.1-.1c-.3-.1-.6 0-.8-.2h-.7c-.4-.4-.8-.3-1.3-.2v.2l-.3-.4c-.6-.1-1.2-.3-1.9-.3a14 14 0 0 1 -1.8-.4c-.2 0-.2 0-.2-.2h.8c.4 0 .7.1 1 .4.6-.1 1.3-.1 1.7-.7h-.3a1 1 0 0 0 -.3-.1h-2.3c-.3-.2-.8-.3-1.2-.2-.3 0-.4-.1-.5-.3h-.1l-.2-.2-.1-.2c-.2-.1-.4.2-.6 0l.4-.4v-.1l-.2-.1c-.2 0-.4 0-.5.2l-.5-.2.4.3v.2h-.4c-.2-.2-.5 0-.8-.2l-.2-.1c-.6 0-1-.4-1.6-.3l-.5.1-.4-.4-.5.1h-.4c-.1-.1-.4-.1-.9.1h-.3v-.5c-.6 0-.9-.5-1.5-.4l-.6-.5.1-.2v-.2h-.1l-.2.7-1.5-.4c-.4 0-.9 0-1.1-.3l-1.3-.4-.3-.5-.5-.1a.5.5 0 0 0 -.3 0l-.1.1c-.2.2-.3.2-.4 0a1 1 0 0 1 -.8 0l-.5-.4-.3.5c-.5 0-1-.4-1.7-.2l-.5-.6-.4.3v-.4c.2-.1.2-.3.2-.4 0-.2-.2-.3-.4-.4 0-.3.2-.3.5-.2h.3l-.8-.4h-.2l-.2-.2c-.6.1-1-.4-1.5-.3-.2-.3-.5-.2-.8-.3h-.2c-.4.1-.7-.2-1-.1h-1.1l-.2-.2 1.4-.4-.4-.1-.5-.2c-.1 0-.1-.1 0-.2l.3-.3.1.1v-.1c.4 0 .4 0 .3-.3-.7.2-.7.2-.7.6l-.5-.1v-.3h-.7l-.6-.3-.1.4h-.8l-.6-.7c-.1-.2.3-.3 0-.5a2 2 0 0 1 -.2-.4h-.4v-.4h-.1l-.5.3c0 .4.6.4.8.8l-1-.5-.3-.3a.5.5 0 0 1 0-.6c.3-.2 0-.4 0-.6-.5-.2-.9 0-1.2.2a4 4 0 0 0 -.4-.1 1 1 0 0 1 -.4-.2.4.4 0 0 1 -.2-.4l-.3-.3c-.1-.1-.3-.2-.4-.1l-.1.1v.2l.4.5-.4.2-.6-.5c0-.3-.5-.1-.6-.4 0 0 0-.2-.2-.3l-.4-.2v-.2l.2-.4c.2 0 .4.2.5 0 0-.2 0-.3.2-.3h.3c-.1-.5-.6-.8-.9-1.1 0-.1.4 0 .2-.2-.2 0 0 .1-.1.2a7 7 0 0 1 -1.2-1c-.3-.4-.5-.3-1 0h-.2c-.2-.2-.2-.4 0-.5h.6l-.2-.6h-.6c.2-.4.2-.4-.2-.6l-.8-1.3h.6c-.6-.2-1-.5-1.4-.8l-.1.1v.4l.3.3.3.4c-.1.3.1.4.3.5v.2c-.3 0-.6 0-.6-.4l-1-.5-.2-.2v-.2l.3-.1c-.4-.3 0-.8-.7-1 0 .4.2.8.5 1.2zm195-52.8h.2l-.2-.1-.1-.2h-.3l-.3.1h.7v.2h-.3l.1.1h.1zm-113.8 74v-.2h-.2.2v.1zm-72.6-14.6h-.3.3l-.1.3zm62.5-67.8h.2-.2c-.1 0-.1-.2-.3 0zm7.8 82h.2-.4l.1-.1v.1zm-20 0c0-.1 0-.2-.3 0h.4c.1 0 .2.2.5 0h-.5zm161.9-52.2-.1.2c-.1.2 0 .3 0 .2v-.4l-.1-.1a.3.3 0 0 0 -.2 0v.1zm-42.8-25.4h.2-.2c-.1 0-.2-.3-.4-.1h.4zm-57.5 74.1-.1.1v.1l.4.1-.3-.3h.3-.4zm90.3-60.5v.4l.3-.4c.2 0 .4 0 .4-.2l-.5-.3v.6h-.2v-.3l-.1-.1h-.1v.2h.2zm-136 65.3h.2l.1-.2h-.2v.2l-.3.3c.2 0 .3-.2.2-.3zm129-70h-.5l.2.2.1-.1.1-.1.1-.2h-.2zm-65.2 62c.2-.2.2-.3 0-.4-.1.1-.1.3 0 .4.3.3.3.3.6 0zm-38.4 7.5h-.1c-.1-.2-.3-.2-.2-.1h.2l.2.1c-.2.1-.5.2-.3.5.3-.2.3-.2.3-.5zm-24.1 0c-.2 0-.3-.1-.3-.2l-.7-.2c0 .2 0 .3.2.3l.5-.1c-.2.2 0 .3.3.6v-.4h.1v-.1h-.1zm117-73c.1-.1.5-.2.4-.4-.2-.1-.3 0-.4.1v.3h-.4zm-101.4 72h-.5c.2.3.2.3.7.1l-.3-.1c.3 0 .5 0 .5-.2-.4-.1-.4-.1-.5.2zm28.7-2.7h.6c.2 0 .4-.1.2-.3l-.8.3h-.2zm-41.4 4.7-.5-.3-.6.3h1.1v-.1zm137-61.8-.4-.1.4.1c-.1.3.2.3.4.4.2 0 .3-.2 0-.3zm-43.2 43.2v-.2h-.1l.1.2c0 .1.1.3.4.3h.2v-.2c0-.2-.2-.3-.7-.1zm46.4-39v.4-.3c.1-.1.5-.1.5-.4-.1 0-.3-.1-.4 0l-.3.1v-.6c0-.1 0-.2-.2-.3l-.2-.3-.2.2v.6c.2.2.3.4.7.4l-.1.2zm-153.5-25.6c.2-.2.7.1.9-.2-.3 0-.5-.3-.9-.2v.4c-.2-.1-.4-.3-.8-.2 0 .2.1.3.3.3h.5zm53 78.2c0-.2 0-.3-.3-.3l-.2.1.1.2h.4l.2.2.8-.1c-.4-.2-.7-.4-1-.1zm17-81.7a1 1 0 0 0 -.4 0l-.3.1v.2h.5l.3-.3zm9 1.9c-.4-.2-.7-.1-1 0h.3a1 1 0 0 0 .4 0h.2l.3.2h.5c.2 0 .4 0 .3-.2zm72.9 24.8c0-.2-.2-.3-.3-.2h-.1c0 .3.2.2.3.2h.2l-.2.2v.4h.6v-.6a3 3 0 0 0 -.4-.1zm-21.5-13.8s.3.1.4 0c-.2-.2-.3 0-.5 0v-.2l-.6-.3-.6-.4-.4.2zm-58.5-11.5.6-.1h.7c-.1-.4-.3-.5-.7-.3l-.6.4c-.1-.2.2-.4-.2-.6-.4.2-1 0-1.4.4h1.3l.4.2zm-26.8 81a1 1 0 0 0 0-1h.5v-.3a.3.3 0 0 0 -.2 0l-.4.1-.1.4.2.8h-.3c-.2-.1-.4 0-.5.2h.4v.3l.7.1h1l1.8.1h.3l-.4-.2c-.4 0-.8-.2-1.1-.5l-.3-.1-1.1-.2-.3.4c0 .2-.2.1-.3 0h.1zm-17.1-81 1.2-.3c-.4-.4-.9-.3-1.5-.3l.3.5c-.3 0-.5-.2-.8-.3h-.3c0 .2 0 .4.3.3l.6.1h.4zm61 1.6-.2-.2a.8.8 0 0 0 -.4-.2h-.2v.1c-.2.1-.2.2-.3.4h1.2l2.8.4-.2-.2c-.9-.3-1.8-.4-2.8-.3zm-157.6 49.8c-.2 0-.2.1-.3.2l-.1.3.2.4c0 .4.1.4.6.5 0-.5-.2-1-.4-1.4l.1-.3-.3-.7c-.1.4 0 .7.2 1zm72.3-50.6h1.4l-.2-.6-.7.1c-.4 0-.4 0-.5.5l-.4-.2c-.2 0-.5.1-.5.4h.7c.2 0 .3-.1.2-.3zm122.6 9.5-.4-.1c0-.1-.1-.3-.3-.2v.2l.1.3h.4l.2-.2c0 .1-.2.2 0 .4h.3l.3-.2h.5c-.4-.1 0-.4-.3-.5l-.6-.3a6 6 0 0 0 -.6-.2l.1.4c.1.1.3.3.5.3h-.2zm-124-9.4c.1 0 .3-.2.2-.4l-.2-.1h-.9c-.2.2-.7.1-1 .3 0 0-.2 0-.2-.2l-.4-.1h-.2l.1.2h.5l-.4.4c.2 0 .4.2.5.1.3-.1.6.2.9 0s.6 0 1 0l.2-.2zm-9.7 82.8-.1-.2v.5l-.3-.1-.3.1h-.5l.3.3.8.2 2 .2.2-.1c0-.3 0-.5-.3-.6l-.3.1-.5-.2c-.2 0-.2.2-.5.2s-.3-.2-.4-.3zm39-1.1-.2-.1h-.1l.1.1h.2v.2l.8.3.2.4h-.4.7l-.1-.6c.5 0 .7-.3 1.2-.4a23.8 23.8 0 0 0 -1-.6v-.2l-.2.2h.3c-.2.2-.2.2-1 .4l-.5-.5zm45.7-83.6c-.2.1-.4.3-.7.2l.3-.4a2 2 0 0 0 -.8 0c-.3 0-.6 0-.7.2h-.3l-1.1-.2c-.2 0-.2-.3-.4-.2l-.5.1-.7.2.3.1a35.4 35.4 0 0 1 2.6.4h2.3l-.3-.4h.2-.1zm-14.8.4.4.1h2.3l2 .2h2.4l.4-.4h-.9c-.2 0-.3.2-.6 0-.2-.2-.3.1-.6 0-.2 0-.6.1-.8 0a2.2 2.2 0 0 0 -1-.1h-.8c-.6-.2-1.3-.3-2-.3h-1.3c-.1 0-.3 0-.3-.2l.4-.1h1.7c.4 0 .5 0 .9-.2-.5-.3-1-.1-1.5-.2l-.7-.5a1 1 0 0 1 -.5.3h-1.9l-.4-.1c0 .2 0 .4.2.5l.7.1h.3c0 .1.2 0 .2.2l-.7.4a1 1 0 0 1 -.4 0l-.2-.2a1.1 1.1 0 0 0 -.6 0 1 1 0 0 0 -.3.1h-.6a1 1 0 0 1 -.5-.1c-.2-.2-.4-.2-.6-.2a7 7 0 0 1 -2 .3l-.3.1.4.1h.3l.2.1.5.3h.3l.2-.6.5.4h1.3c.5-.2.9 0 1.3.1h.4l.1-.2v-.2c.4 0 .1.4.4.4l.2-.1v-.1c.6.2.6.2.4.5l-.1.2c.4.2.3-.2.6-.2l.6-.3zm-77.6 84.3-.6-.7c.3-.2.6.4.9 0l-.6-.2h-1.3c-.2-.1-.4 0-.6-.2-.2-.1-.6 0-.8-.2h-.1v.3a1.4 1.4 0 0 1 -.7 0 1 1 0 0 1 -.3 0l-.2-.3c-.2.1-.6.2-.9.1v-.1l-.3-.2h-.1l-.2.1c0 .2-.3.3-.2.6.6.1 1.1.4 1.8.3l.7.1h.9l.5.1c.3.2.7 0 1 .2s.6 0 1.1 0zm61.2-86v.2l-.6.2-.6-.1c-.3-.5-.7-.2-1 0h-.3l-.3-.3-.6.3h-1.1c-.3 0-.4.2-.4.5h.4a6 6 0 0 1 2 .1h2.7c.5 0 .7-.2.7-.6h-.4zm-4.9 1.6h2c.3-.1.5.1.7.1.8 0 1.5 0 2.2.2.3 0 .4-.3.8-.3v-.4h-1.6l-.8.2a2 2 0 0 1 -.8 0 5 5 0 0 0 -2 0c-.1 0-.3 0-.5.2zm-14.9.7v-.3l-.9-.3c-.7 0-1.4 0-2.1.2-.3 0-.6.1-.8.3v.2l.2.1h1.4c.2 0 .3 0 .3-.2l.1-.2h.3v.2zm51.4.4c-.1-.4-.5-.4-.8-.4h-.6a2.1 2.1 0 0 0 -1.2-.1h-.5c-.2 0-.4 0-.5-.2l-.2.1.3.4s0 .1.1 0c.5-.1.4.2.5.4v.1l.8.2c.2-.1.3-.3 0-.4-.2 0-.3 0-.3-.3l1.7.1zm-28.1-1c.6.2 1.2-.1 1.6.4l.4-.4.7.1h.3l.4-.2c0-.1-.2-.3-.4-.3h-2.7c-.2 0-.4-.3-.5-.1-.2.1 0 .3.2.4zm24.5 77.8 2.3-.1.2-.3-.2-.2-.3-.1h-1.6zm27-73.5 1.5.3 1.4.3c.4 0 .9 0 1.3.2h.9l-2.2-.6c-.8 0-1.5-.2-2.2-.4-.2-.1-.6 0-.8.2zm-49.4-5.4s0-.2-.2-.3a1 1 0 0 0 -.4-.2c-.4.2-1 .2-1.4.6l.2.1c.6.1 1.3 0 1.8-.1zm44.2 4.3c0 .3 0 .6.2.9.5 0 .8 0 .8-.4h.7c-.4-.5-1-.5-1.7-.5zm-12.5-1.9-.7-.1c-.1-.1-.5-.1-.8 0-.2 0-.5 0-.8-.2h-.7v.2l.4.2a12.6 12.6 0 0 1 2.2.1h.4zm1.6 73.3c.7.2 1.4.1 2 .5l.6-.3c-.9-.1-1.5-.6-2.6-.2zm-27.6-76c-.4-.2-1 0-1.4-.2v.5l-.2.2 1.2.1.4-.4zm-76.1 83.8.1.2h1.2l.2-.5h-.9zm92.2-3.2v.1l.5.2h.8l.6-.2a.1.1 0 0 0 0-.2h-.2l-.6.1c-.1 0-.3-.2-.6-.1h-.5zm26.6-76.3h.1l.3.1a1 1 0 0 0 .4 0h.4a1 1 0 0 0 .6 0l-.4-.3h-1zm-2 .8 2.1.5.3-.2-.8-.1c-.4-.3-.9-.2-1.3-.4-.1 0-.3 0-.4.2zm-59.4 78.8-.4-.3h-.6l-.3.7.1.1.5-.4h.7zm-105.2-38.2c0 .5-.2.8 0 1.2.2-.2.5-.3.5-.6s.1-.3-.5-.6zm204.4 12.3-1 .5v.3h.3l1-.4zm-93.3-55.7v.2h2.5c-.8-.3-1.6-.1-2.5-.2zm-21.7 83.4c.2-.3.1-.5 0-.6l-.3-.2a1.2 1.2 0 0 0 -.7 0 1 1 0 0 0 -.2.1c.7.2.7.2 1.2.7zm12.3-2.4c-.7-.3-.7-.3-1.3.1l1 .3zm-27.6 3.3c-.4.4-1 0-1.3.3.4.3.5.3 1 .2 0 0 .4 0 .2-.5zm45.8-85.5c-.1.2 0 .3.2.4l.4-.1c.2 0 .4.2.6 0l-.3-.3h-1zm74.7 60.6-1-.1h-.4v.5l.6-.1.6-.3zm-64.9 18.9c.3.2.5.2.7.1h.8l-.3-.4zm20.5-5v-.3l-.7.1-.2.2v.2c0 .2.3.1.5 0l.4-.3zm-73.2 11.4c.4.3.7.2 1.2.2l-.7-.5zm44-86.8c.5.4.6.3 1-.1-.4 0-.8-.2-1.1.1zm13.1 81.7h-.7c-.2 0-.2 0-.2.2 0 .1.2.2.3.1zm-36.2-80.5c-.1-.3-.3-.2-.5-.2l-.2.1-.2.1v.3h.5l-.2-.2zm-7.1 84.2c-.1-.2 0-.4-.4-.4h-.6v.4zm31-3.7h.6c.1 0 .3.2.5 0-.2-.3-.6-.3-1-.4zm29.5-5.6c0-.2 0-.2-.3-.2-.6.1-.6.2-.7.6zm-74.9-71.7-1-.3h-.3v.3h1.3-.1zm70.4 71.4.4.4.4-.2.1-.2zm-147.4-27-.2.6.3.3.2-.4c0-.2 0-.3-.2-.5zm116 34.8c.7-.2.7-.3.3-.6-.3.3-.3.3-.1.6h-.1zm-20.6-81.5 1.1.1h.1v-.2h-1.3zm-44.7 82c0-.2-.2-.3-.4-.3h-.3v.2c0 .2.3.3.5.3l.2-.1zm69-1.5-.6-.5h-.3v.2l.1.1zm-69.2-76.3.5.1h.5c-.3-.3-.6-.4-1-.1zm154.9 48.3-.6-.2c-.2-.1-.4 0-.4.1.2.2.5.3 1 .1zm-179.7 24h-.9c0 .2.1.3.2.3h.6v-.3zm48.1 6.8.1.5c0 .2.3.2.5 0v-.1zm52.9-5.7c.6.4.6.4 1 .3l-.8-.5zm35.6-5.8c-.4-.4-.7-.3-1-.3 0 .5.5.3 1 .3zm-69 12.4-.1-.1h-.6l-.1.1v.1h.2a.7.7 0 0 0 .3 0h.2v-.1zm72.3-15.3h.8c.2 0 .2 0 .1-.2l-.2-.2zm-96.6 14c-.3-.4-.4-.4-.8 0h.7zm129.8-23.6.7-.1v-.4zm-25.2-55.9v-.4h-.3c-.1 0-.2.1 0 .2zm-39.6-5v-.2h-.9c.4.4.7.1 1 .2zm-39.3 83.8c-.3-.2-.4 0-.6 0s-.3 0-.1.2zm-21.7.6.8.1-.4-.2c-.2.1-.1.3-.4.1zm25.2-.7.3-.1-.2-.3-.4.2zm16.2-83.4v.3h.4l-.4-.3zm-34 85.6c.2-.2.3-.3.1-.4-.1-.2-.2 0-.3.2l.3.2zm-7-83.7v.6l.5-.5h-.5zm63.4 76.7h1c-.2-.3-.3-.3-1 0zm51.2-15h-.5l-.1.3h.3l.4-.3zm-25-61 .1-.1-.2-.1-.3-.2c-.1.3 0 .3.2.3h.3zm-101.3 81 .4.1.2-.1-.1-.2h-.3l-.2.3zm14 1.2h-.4v.2c.3 0 .1.2.2.3h.2zm110.5-20h.4l.3-.2-.1-.1a.6.6 0 0 0 -.3 0c-.1 0-.2 0-.3.2zm-132.9 18.6h-.3l-.1.1v.2l.3.2v-.5zm28.4 2h-.6c-.2-.1-.2 0-.2.1h.8zm-47.3-5-.1.1.3.2h.2v-.2zm145.7-73.5c.4.2.4.2.7.1h-.7zm31.4 13.1-.6-.5c0 .4 0 .4.6.5zm-92.5-19.4-.4.2v.1l.1.1h.2c.2 0 .3 0 .1-.4zm36.2 3v-.3l-.5-.1h-.2l.1.2h.6zm39.3 6.5c-.4-.3-.4-.3-.8-.1h.8zm-141.2 74.5-.3-.3s-.3.2-.2.3zm45.2-85c-.1 0-.2-.2-.5-.1l-.1.1c.1.2.3.2.6 0zm-16.5 85.6-.2-.2a.4.4 0 0 0 -.3 0l-.1.1.1.1zm84-83.5c.2.3.5.4.8.2-.2-.1-.4-.3-.8-.2zm11 66.2c.1.2.3.2.4.1.2 0 .3-.2.3-.3zm-125.1 13.4h-.2l.1.3h.3v-.1zm65.3.8c-.3.4-.3.4 0 .5v-.3zm-51.8 2.5c.5 0 .5 0 .7-.2zm98.1-14.3-.6.1v.2h.2l.4-.2zm-3.5-68.6c.1.3.3.3.5.3h.1v-.1l-.6-.1zm-159.4 51.3h-.1s-.3.2-.2.3l.2.1.1-.3zm97 32 .2-.2v-.2h-.4v.2l.1.1h.2zm19.4-86.4-.1-.1-.2.2v.1h.2zm-41.7 85.7h-.3l-.2.1.2.1s.2 0 .3-.2zm-10.1-.6c-.1 0-.1-.1-.2 0h-.3v.1h.4v-.1zm17.6.2-.1-.1h-.3l.1.1c.1.1.2.2.3 0zm133.2-38.7-.2-.2h-.2v.2zm-112-44.2v-.1h-.4l.1.1zm32.3.1c-.1.1-.2.2 0 .4h.3c0-.2-.1-.3-.3-.4zm-92.8 80.6a3 3 0 0 0 -.3 0h-.2l.3.2.1-.2zm67.3 0a.5.5 0 0 0 .4 0v-.1h.1v-.1c0-.1-.3 0-.4 0v.1zm15.2-82.4-.6-.2-.2.1c.2.2.4.1.8.1zm89 25h-.1v.3h.1l.1-.2v-.1zm-45.4-21-.2.2s0 .2.2.2l.2-.1-.2-.2zm-168.8 51.3v-.3l-.2-.1s-.1 0 0 0v.3h.1zm199.5 2-.3-.2h-.1c0 .1 0 .3.2.3zm-51.5 18.7.2-.3-.2-.2a.2.2 0 0 0 -.1 0l-.1.1zm-3-75.2v-.1h-.6l.5.1zm32.2 67.5h.1l.4-.1v-.1c-.1-.1-.3 0-.4 0v.2zm4.8.2.1.2.4-.2v-.2h-.2zm-19.9 5 .3-.2.1-.1-.1-.1-.2.1v.2zm1.4-2.9-.2.2.1.2.3-.1zm-68.5 15.8h.3l-.2-.2v.2zm84.9-16.9-.4.1zm19-55.8-.2.2v.1h.3v-.3zm-185.7 60.5c0-.2 0-.4-.5-.3zm163.4-6.9-.2.1.2.2.2-.1zm11.5-4.8-.1-.1h-.3v.2h.4zm7-3.3-.2-.1h-.2v.1h.3zm4-47v-.2l-.2.2.1.2zm-15.5-4.7h-.3l.2.2zm-26.5 69.3.2-.3h-.1l-.2.1zm-16.4.3v-.2l-.1-.1-.1.2zm-50.9 9.2-.2-.1h-.1v.2zm-93-35.1-.2-.1.1.2zm25.7 27.6-.3-.2-.1.1.2.2zm110.7 1.7.2-.2v-.1l-.3.1zm-99.6.2h-.2l.1.2h.2v-.2zm179.8-56.5-.2.2.3.2v-.1zm-88.2 57.6h.4c0-.1.2-.1.1-.3zm84.8-59.8.4.2h.1v-.2zm-60-19.3h.3l.2-.1v-.2a.5.5 0 0 0 -.3 0c0 .1 0 .2-.2.3zm-32 80.7-.3-.2v.1c0 .2 0 .2.2.2zm-74.9 0v-.1h-.3.3zm76.1-83.4v.1h.6-.5zm63.2 8.6h.2l-.2-.2h-.2zm-79.5 76h.4l-.1-.1h-.3zm-36.2-.3-.2.1.1.2.3-.1zm-8.1.8-.4-.1c-.1 0-.3 0-.3.2h.5zm28.6-84.7.1.3v-.2zm24.8-1.1-.3-.1-.3.2c.1.1.2 0 .2 0zm-37.5 87.7c.1 0 .3 0 .2-.2h-.1c-.3 0-.2.1-.1.2zm-22-1h-.3l.2.2h.1l-.2-.2zm66.1-86.3h-.4l.2.2h.2zm-25 86.3h-.7c.2.1.4.2.5 0zm-29.4-.4v.5c.2-.1.1-.2 0-.4zm73.2-85.2-.2.2h.3zm-50.4 85v-.1h-.3v.2h.3zm58.4-84.2-.1-.1h-.2v.2h.3zm-38.7 83.6-.2-.1h-.2c-.1 0 0 0 0 .1h.3zm-48.1-.7h-.1l-.1.1h.1zm-8-.5h-.2v.2l.3-.2zm56 .2h.4v-.1a.2.2 0 0 0 -.1 0h-.3zm-.8-81.6h-.4zm46.6.6h-.1v.2h.3l-.2-.2zm-118 78.4h.2s.1 0 0 0l-.1-.2v.2zm119.3-78.2h-.2l.1.1h.1zm-34.5 77.8c.1.1.2 0 .2 0zm-1-.3h-.3c0-.1-.1 0-.1 0v.1h.3zm18.4-.8v-.2l-.3.2zm-5.8-.5v-.1h-.2v.1zm7.3-.4h-.3l.2.1v-.1zm6.8-1.5c.1 0 .2-.2 0-.3h-.1v.4zm.2-1.4-.2.1.1.2.2-.1-.1-.3zm15.7-.3-.2.2c.1.1.2 0 .2 0zm1-71.2v-.2h-.2v.2h.3zm-152.6 65.9v-.3h-.3v.2h.3zm165-64.9h-.2v.1s0 .1.1 0l.2-.1zm10.6 62h.2l-.1-.1-.2.1zm-6.8-.5-.1-.1-.3.1.2.1h.2zm.3-.4h.4l-.2-.2zm11.7-1.2c-.1-.1-.2 0-.2 0zm-23-59-.2-.2v.2zm23.5 55.7c.4 0 .3-.1.2-.3zm-16.7-55.4v-.1h-.3v.1zm18 53.5h-.3l.2.1v-.1zm8.6-3.4h.1v-.3h-.2zm-202-5.2.1-.2h-.3l.2.2zm212.2-1.6s-.1-.1-.1 0h-.2l.1.1zm-211-2.9h.2v-.2l-.2.1zm-2-.3.2-.1-.2-.2zm223.6-11.8v.1h.4a3 3 0 0 0 -.4 0zm-25-22.9.2-.2h-.2zm-113.6 75h-.4.2zm50.5-88h-.1v.2h.2v-.2zm-42.8 87.7v.1h.2v-.1h-.3zm9.3-87.5h-.4.3zm-46.6 86.8-.1.1h.1zm167.6-55h.1v-.1zm-106.6-31.4v.1zm-23.1 86.6-.1-.1-.1.1v.1h.2zm-.7-.2-.1.2h.3zm-24.8-.2-.2.1v.1h.2v-.1zm31.4-85.7h-.2l.2.2v-.3zm-42.8 85.5.1.2zm77.6-85.3h.2s-.1-.1-.2 0h-.1zm-16.6.3v.1zm-49 84.8h-.2.1zm34 .2h-.1zm10.5-85h.3zm-55 84.4h-.1v.2l.2-.2zm29.7 0h-.4zm-12 0 .2.1h.1v-.1l-.3.1zm-13-.2h-.4.3zm55-83.7h-.2v.1h.2zm35.7.4h-.1v.2h.2v-.2zm7.1.1h-.4zm-31.2 0h-.2v.2h.2c.1 0 0-.1 0-.2zm62 8.8h-.1v.1h.1zm-106-8.7v-.1h-.1v.2zm23.4 82.3v.1h.1v-.1zm60.6-81.3h-.2l.1.1h.1zm-68.2 80c-.1 0 0 0 0 0zm26.4-1h-.2l.1.2h.2zm-7 0h-.2.1zm14.4 0-.1-.1zm-96.5-.8v-.2zm28-78.1-.2-.1v.1h.1zm-29.4 77.9v-.1h-.2l.1.2zm31-77.8v-.2h-.1v.3h.2zm57 77.5h-.2l.2.1zm15.6.1h.2-.1zm20.6-76.5v-.1zm-23 74.1-.1.1v.1h.2zm-77.9-74.7h.1zm83.2 72.9.2-.1h-.1a.3.3 0 0 0 -.2 0h.1zm-75.8-72.8h-.1zm-65.6 43.8h-.2l.1.1h.1zm17.7 27.8v-.1zm163.9-67.1h-.2l.2.2.1-.1h-.1zm34.3 42.1h-.1zm-151-46.5s-.1 0 0 0zm78.6 72.1h.1v-.2h-.2v.2zm41.1-68v.2l.2-.1h-.2zm-28.4-3.2h.2zm-5.5 70.5v.1h.2l-.1-.2h-.1zm22.6-67.4h-.2.1zm30.9 46.2v-.2l-.1.1v.1zm-39 20.7v-.1h-.2v.2l.3-.1zm.6-.3h-.2v.2h.2zm-9.3-.2h-.1v.2h.1zm-95.6-69.7-.1-.2h-.1v.2zm142.3 54.3-.1.1v.2l.2-.2zm-30.4 13.4h-.1.2zm-3.5 0h.1v-.1h-.2v.1zm-161-1.6h-.2l.1.1h.1zm-8.8-11.7.1-.1zm52.1-52.7v-.1h-.1v.2zm8.3-1.4v-.1h-.3.2zm106 65.4h-.2v.1h.2zm27.6-6.3h-.1v.1h.1zm-7.7.4h-.2v.1h.2zm-129.8-58.6-.1-.1h-.1v.2h.2zm130.2 59.1h-.2l.1.1h.1zm-5.8-58.9v-.1h-.3v.1h.2zm.8 61.4h-.3zm-115.2-62.1v-.1h-.1v.1zm97.3.5h-.1zm5.3 64.5h-.1zm-107.2-65.7-.1.1h.1zm142.2 11.9h-.2zm-10 43.4h-.1zm-186.3 11h-.1c-.1 0 0 .1 0 0zm156.9 2.4-.1-.1zm-.6 0h-.1zm35.2-16h-.1v.2h.1zm-138.8-53h-.2zm-10.7 2.4h-.1zm132.6.8v.1zm29.5 45.2h-.1zm-49.9-47.8h-.2zm-9.9 70.7h-.1zm60.7-23v.1zm-50.8-47.9h.1v-.1h-.2zm50.5 47.6v-.1zm-31.1-44v.2h.2l-.1-.2zm30 42.5h.1zm7.1-24.2h-.2c-.1.1 0 .1 0 .2zm-34-18h.1v-.1h-.2zm-39.4 68.5h-.1zm-3.1.4v-.1c-.1 0-.1 0 0 0zm13 0h.2zm-8.8.1h-.2zm-7.2 0h-.2v.1h.1zm76.6-53.3h-.2zm-73 53.8h-.1zm42.8-69.5h.1zm-20.9-4.6h-.2zm57.2 41.6c-.1 0 0 0 0 0zm-86.6 34h.1zm-108.4-.6h-.1zm108.8 1h.1zm1 0v.1l.1-.1zm-109-.5h-.1v.2-.2zm97.5.8v.1zm9.5.3h.2zm-1.1.2h-.1zm5.4.2-.1-.1v.1zm-14.4.7h-.1zm-8.6-.1h-.1v.1h.1zm29.3-78.5h-.1v.2h.2zm17 0h-.3v.2h.3zm-10 0h-.2.3zm-11.2 0v-.1zm-103.1 78.7-.1-.1h-.1v.2h.2zm78.8 1v-.1h-.1zm-8 .6v.1zm34.8-80.7h-.1zm-36.8 81.2-.1.1zm-2.5.1v.1h.1-.1zm59.5-81.6h-.2zm-53.4 82.2.1-.1h-.1zm44.9-82.4h-.2zm-107.6 82v.1zm58.2-82.4h-.1v.2h.1zm-57 82.6h-.1zm11.4.1h-.1zm39.2-82.9h-.1v.1h.2zm-46.6 83h-.1zm19 .1v.1zm28.1-83.2h.1zm-8 83.4h.2-.1zm-46.1-.2h-.1zm152.1-73.3v-.1zm-138 73.7h.2-.1zm34.5.2-.1.1h.1zm-35.7 0h-.1zm26.3 0v.1h.1zm-22.3.1h.1-.2zm15.9.1v.1zm-10.7.1h.2zm141.7-65.5h-.1v.1zm-17.4-7.2h-.1zm-128.4 73.4h-.1zm25.6.5c-.1-.1 0 0-.1 0zm132-56.9h-.2c-.1 0 0 0 0 0h.1zm-11.5-10.2h.1v-.1zm-137 67.2h-.3l.1.1h.2z" fill="#dcdffb"/></svg>