<svg fill="none" height="84" width="232" xmlns="http://www.w3.org/2000/svg"><path d="m5.2 61.8-.5-.4c-.1 0-.1-.3-.4-.4l.1-.4.4-.3c.7.1 1.2.4 1.8.4v.2-.2l-.3-.3h-.5v-.4h.2l-.3-.5v.5c-.4 0-.2-.3-.2-.4l-.6.2h-.3v-.2h.4v-.1h-.4v-.3c-.2-.2-.5.1-.8 0 .1-.4.5-.4.9-.5l-.5-.5v.3h-.2s-.2-.2-.5-.2v-.3.4c-.5 0-.5 0-.5-.4v-.2l.5-.5.8.1h.2s.2.2.2 0h-.4l.1-.2v-.3l-.5.1-.6-1.3v-.1l.5.6c.2 0 .2-.1.2-.2l-.2-1h-1l.5-.4.1-.2v-.2l-.4-.2-.4 1.2c-.2-.3-.2-.3-.1-.7-.3-.1-.3 0-.5.1a.3.3 0 0 1 -.2 0v-.1c.2-.2.2-.5.5-.7l-.7-.4-.2-.7.5-.1-.8-.4c0-.2.5-.3.4-.6l-.5-.2.2-.5-.9-.2c0-.3.3-.2.5-.2v-.1c-.4-.3-.2-.6-.3-.9v-.2l.4-.2.7-.1h.3c.2.3.2.6.1.8 0 .3 0 .3.5.4l-.1-1.4s-.1-.1 0-.1c.3-.5 0-1 0-1.4.1-.5 0-.4-.5-.7-.1.2.2.4 0 .5-.3.2 0 .4-.4.6 0-.6-.2-1.2.2-1.7-.2-.1-.3 0-.4 0-.2 0-.3 0-.4-.2.6-.1 1-.6 1.6-.7l.2-.1c0-.2.4-.2.5-.5l.1-.4c0-.1 0-.4.3-.4s.2.3.3.4c0 .3-.2.6-.5.8l.1.2a66.5 66.5 0 0 0 .3-.3v-.7c.2 0 .4-.2.5-.3l.1-.2v-.1c0-.2.2-.4.5-.3l.7.3h-.2c-.4.2-.5.3-.3.6l.3.2.2.3v.3c-.2.2-.4.5-.7.6l.4.5c-.2.1 0 .4-.3.5v1.3l-.1.7-.5.2-.2-.2s-.1-.1-.2 0h-.1c0 .6-.2 1.1 0 1.6v.1l.5.1.5.2v.6c-.4 0-.4 0-.6-.5l-.2.2v.6h.2l.3-.1.6.3-.1.3c-.3.2-.2.5-.2.7 0 .1.4.1.2.3-.3.2 0 .3 0 .4l.2.4v.6l.1.1c.3.3.4.6.3 1l-.2.2c.8.5 1.2 1.1 1.3 1.8v.4c.3.3.4.6.4 1 .5.4.5.4.4 1l.4.1c.2 0 .4.2.5.3v.4l.2.2.3.2.1.3.3.3a6.2 6.2 0 0 1 1.3 1.4l.3.4 1 1.1.1.4c.5.2 1 .5 1.1.8.2.3.5.5 1 .7.3.3.7.5 1.1.6.8.3 1.5.7 2 1.2l.7.3.3.1.2.2.2.1c.8.3 1.5.7 2.1 1.1l1 .5c.3 0 .6.2.8.3.1.2.5.2.8.3.3 0 .4.3.6.4.8 0 1.3.5 2 .8.5 0 1 .3 1.3.5l.4.1a8 8 0 0 1 2.3.6 20.1 20.1 0 0 0 4 1l2.1.5v.2c.2.2.7 0 1 .3l.3-.2c.4.7.4.7 1.4.6h1.2l-.1.3.7.3 1-.2.2-.3c.6 0 .6 0 .6.2.4 0 .7-.2 1 0l-.3.4h.6l.5-.2.2.2 1 .1c.3 0 .5.2.7 0l.6.4h1l.2.1.2.1c.4.4.9.3 1.3.2l.7.1.1.1c.6 0 1.2.2 1.8.4h.4c0-.3-.4-.3-.6-.5h.2c.1-.2.3-.2.5-.2h.6v.7h.3c0-.2 0-.3.2-.3l.5.2c.4-.1-.1-.3.2-.4.5.2 1 .4 1.6 0l.8.5.2.6a3.9 3.9 0 0 0 2.1-.2l1 .4h.2c.1 0 .2-.3.4-.2l.7.1c.2.3.6.3 1 .3l.2-.1c0-.2.1-.2.3-.1h.3c.4-.2.8 0 1.1 0l.4.6h1l.4-.4h.1l.1.3h.2l.3.2h.3l1.5-.1h.6l.6-.2c-.1 0-.1.2 0 .2l.4-.2.4.3.4-.1c0-.2.1-.2.3-.2h.2l.2.1.2.4c.3 0 .7.1 1-.2 1 .2 1.8-.2 2.7-.2h.7c.1-.2.4.1.6 0h.2c0 .2.6 0 .7.2.1.3.4.2.5 0l1.6.6.2-.1v-.2l-.2-.1v-.2l.1-.1h.1l.2.2.4.2.3-.1h.7c.4.1.9 0 1.2-.2h.2c.6 0 1 0 1 .4l1.5.1v-.3l.6.1c.3 0 .3 0 .3-.2h.6c.2 0 .3 0 .3.3h.7c.4.1.7 0 1.1-.1l.2-.3.9.2c.5 0 1 0 1.4-.2l.2-.2c.1.3.4.4.8.5l.4-.1.4-.2c.6-.1 1-.3 1.4-.6.3.4 1.1 0 1.4.5.2-.4.2-.4.7-.5l-.3.4.2.3h.3c.2-.2.4-.5.9-.4 0 0 0-.2.4-.2.3.1.5 0 .6.3l.2.1h.1-.1s.1-.2.3-.2l.5-.2.5.2c.4-.1.9-.1 1-.5.4 0 .8.2 1.1.1.3 0 .6.3.9.2v.1-.1l-.3-.5c0-.1.1-.2.3-.2l.4-.1h1l.2.3h1.6c.5-.2 1.2-.2 1.8-.2l1.3-.2c.3.1.7.2 1.1 0l-.1.2v.1h.1v-.2l.1-.1h1.4l.2.4c.4 0 .4-.3.6-.4h.6c.2-.1 0-.3 0-.5.3-.2 1 0 1.3-.2l.4.4c.2 0 .4 0 .5-.2l.1-.2h.3v.1l.1.2.1-.2.2-.2.9-.3c.2 0 .4 0 .6.2l.2.2.4-.4.6-.1v.3-.3l.4.1.2-.3c.2.1.3.3.6.2l.2.2v.2l.2-.2v-.2h.5l.2-.1.3.5.2-.3.4-.1v-.1c-.4 0-.5-.2-.4-.4h.3c.3.2.3.2.4-.2l1.1.3c.2 0 .4-.1.5-.3h.5a1 1 0 0 0 .7 0c.2-.2.3 0 .4.2l1.1-.3v.5c.3-.3.7-.4 1.2-.5l.5-.2.2-.3h.6l.5.2h-.2.2c.3 0 .3-.2.4-.3l.4.2.2-.3h.5l.5-.3.2.1.4.3.6.1h.2l.2.2h.5v-.7l.5.2c.8-.4 1.8-.7 2.8-.8l1.6-.2c.2.1.6.4 1 .3.6 0 .6 0 1-.5.6 0 .7.4 1 .6l.5-.4-.3-.2.3-.5h.3l-.2-.4.2-.1h1.2c.2-.2.6-.3.7-.7.3 0 .3.1.3.3s-.1.2.1.3c.3-.2.3-.4.4-.6a3.9 3.9 0 0 0 .8-.3 1.4 1.4 0 0 1 1 0 6 6 0 0 1 1.7-.6c.4 0 .5.3.5.5l.7-.1.5-.3.1.3h.5l.4-.2.7-.2h.8l.2-.4.2.3c.3 0 .2-.3.3-.3l1 .3h.3l.2-.1 1.2-.6-.2-.3c.4-.2.6.1.9.2l.1-.3h1.3c.2 0 .3.1.3.2l1-.3-.2-.3c.3-.2.5 0 .7 0 .2-.2.5-.1.7-.2l.5.3h.5l.3.1c.3.1.5 0 .7-.2-.2-.2-.9 0-.9-.5l.6-.2.2.4h1.2c.2-.2 0-.3-.2-.5.3-.1.4-.4.9-.5.4-.1.3-.3 0-.6v-.1h.3l.3.1v.5c.3 0 .6-.2.8-.4h.4c.3 0 .5-.3 1-.2h.4l.3-.2.5-.4h-.1v-.2l.2-.2c.2 0 .4.1.4 0 .6 0 .6.2.6.4h-.3l.1.1h.2l.1-.2c.3-.5.4-.6 1-.4a1.4 1.4 0 0 0 1 0c-.2.1-.3.3-.5.3v.2h-.1v-.2c.4 0 .4 0 .5-.3-.2 0 0-.2-.2-.2l.3-.1.4.3.4-.5.4.2c.1.3.4.3.8.2v-.8l1.3-.1h.4c.3.1.5 0 .7-.2.2-.1.3-.2.6.2h-.3l.2.1v-.2l1 .3.6-.3c0-.1 0-.3-.2-.4a1 1 0 0 0 -.4-.3l-.2-.1 1.6-.5.2.1h-.1c.5-.1.5-.1.8-.5l.1.2.2.1 1.6-.2c.5 0 .5 0 1-.5-.4-.2-.6.2-1 .1l-.1-.5h.6c.3 0 .3-.2.4-.4l.3.2c.1 0 .2 0 .3-.2.6 0 1.2-.2 1.6-.5h.4c0 .2 0 .3.2.3l.3-.2-.3-.2c0-.2.2-.3.5-.4v.4h.1l.1-.2h-.2l.5-.3v-.3h.4l.4.4h.1c.2-.3.6-.4 1-.5l-.2-.2-.3-.1c.3-.2.8-.2 1-.5l.4.1-.3.4a.9.9 0 0 0 .4 0l.1-.1.1-.1.8-.5c.2-.2.4-.3.8-.2l.8-.1.2-.1c0-.1 0-.2.2-.2l.3-.1a1.3 1.3 0 0 1 .7 0c.1 0 .1-.3.4-.3l.6-.2.2-.4h.6v.3h.7c.3 0 .5-.1.6-.3.1 0 .3 0 .4.2h.4c-.1-.3-.2-.5-.6-.4l-.5-.8c.2-.3.6-.2.9-.3l.1-.3.4-.1v.3h.1l.2-.2c0-.1.2-.3.5-.3l.2-.2.6.2.2-.3v-.3l1.2-.1c.2 0 .4-.1.4-.3.1-.3.1-.3.6-.3h.2v-.2c.3 0 .7 0 1-.2h.2l.4-.1.3-.2c.3 0 .5-.2.7-.3l.2-.2c.6 0 .8-.3 1-.6h-.5c0-.2.2-.3.4-.4h1.5c0-.3-.2-.5-.3-.7h.7l.1-.2h1c.2-.2 0-.3-.1-.4.1-.2.4-.3.3-.6l.8-.2c.1 0 .2 0 .3-.2l.2-.2h.9l.2-.1c.2 0 .4 0 .3-.2 0-.4.1-.7.3-1l.4.1 2.1-1.2.5.1.6-.4v-.4c.5 0 .5 0 .7-.5l.6-.1.4-.4.3-.3h.6c.2 0 .3-.2.5-.3.1 0 .4 0 .3-.2l.1-.3.3-.3c.3-.2.3-.5.7-.6v-.1c0-.1-.1-.2.1-.2.3 0 .3-.2.5-.3v.4h.3l.5-.4c-.2-.2-.5-.3-.2-.6-.1-.3 0-.7-.5-.9v-.2c.2-.1.2.1.4.1l.6-.4.2.1a3.7 3.7 0 0 0 1.2-1.1l.5-.5c0-.3.2-.5.3-.7l.4-.6.3-.8.1-.3c.3-.4.2-.8.4-1.2l-.2-.5c-.1-.4-.2-.7 0-1 .1-.3.2-.6.1-.9l-.3-1.5v-.8l-.5-.5-.8-1.7c0-.3-.4-.2-.5-.4l-.7-1c0-.2-.1-.3-.3-.5-.3-.2-.5-.5-1-.7l-.1-.2c-.7-.8-1.6-1.6-2.7-2.4l-1.3-.9-1.7-1.2-.7-.4h-.3c-.4-.4-1-.8-1.6-1v-.1h.7l.2.2h.1v-.2h-.3c0-.2-.3-.3-.5-.3-.5 0-.9 0-1.3-.2l-.5-.1c-.1-.1-.6 0-.8-.3-.1-.2-.6-.2-.7-.4-.8-.5-1.5-1-2.7-1-.2-.2-.3-.5-.6-.6-.4-.1-.6-.3-.8-.5l-.6-.3c-.3 0-.6-.2-.9-.4-.2-.2-.5-.3-.9-.4l-.7-.3c-.5-.2-.9-.5-1.5-.5l-.3-.2-.6-.2-.4-.1c-.2-.1-.3 0-.4 0l-.5-.6a2 2 0 0 0 -1.4 0c0-.2-.3-.4-.5-.5l-1-.4c-.6 0-1.2-.2-1.8-.4l-2.2-.4-.4.1c0-.1-.2-.3-.4-.3l-.7-.2-.1-.3-.7.4-.7-.2h-.4l-.2-.2c-.1-.2-.4-.2-.7-.2h-.4a.7.7 0 0 1 -.4-.2c-.1-.2-.4-.2-1-.3a2 2 0 0 1 -.4-.1l.2-.1v-.1c-1 0-1.7-.3-2.3-.6l-.5-.1c-1 0-1.6-.3-2.4-.4l-1.3-.2a17.9 17.9 0 0 0 -1.9-.5c-.2 0-.5-.2-.7 0-.4.2-.7-.2-1-.1l-.3-.1c-.3-.4-1-.3-1.4-.3h-.7v-.1c-.4 0-.8 0-1-.2-.4-.2-.8 0-1-.3-.4 0-.8-.4-1.3-.2l-.4-.4-.5.2h-.2a1 1 0 0 0 -.4 0h-.2l-.3-.2-.9.2a10.6 10.6 0 0 0 -3.3-.8h-.2l-.8-.2h-.9c-.4-.2-.8 0-1 .1-.5-.2-.8-.6-1.4-.5l-.3.3-.3-.4.4-.3c-.4-.2-.6-.1-.8 0 0 .1 0 .2-.2.2h-.3a1.4 1.4 0 0 1 -.6 0l-.9-.1h-.3c-.2-.4-.3-.3-.6 0-.3.2-.5.2-1-.1l-.3-.2h-1c-.6 0-1-.2-1.5-.3h-.1c-.2-.3-.4-.2-.6-.2l-.3.3-.3-.4a4 4 0 0 1 -.6.2h-.7l-.8.1h-1.3l.2-.1h-.3a4.6 4.6 0 0 1 -2.3-.3l-1.6-.2c-.3 0-.7.2-.9-.1h-1.9c-.1 0-.2 0-.3.2l-1-.2c-.2-.1-.5-.4-1-.3h-1c-.7 0-1.3-.3-2-.3l-.4-.5h-.2c0 .3-.2.5-.5.5s-.8.2-1.2 0h-.2l-.2.1c-.3.3-.7.3-1.2.3.1-.3.5-.3.8-.4l-.5-.1h-1.6a35.3 35.3 0 0 1 -3.2 0 28.4 28.4 0 0 1 -4 0h-1.4c0-.3.3-.2.6-.3l-.5-.2h-.5a2.4 2.4 0 0 0 -1.2 0l1 .3c-.1.3-.5 0-.6.3l.3.1c.3 0 .2.2 0 .3h-.5a16.5 16.5 0 0 0 -2.8 0h-1.5c0-.2.2-.2.2-.2v-.3h-.3c-.3 0-.4.2-.5.3v-.2h-3.4c0 .3.3.2.5.3l-.3.1h-1.1l-.4-.4-.2.1h-1.3a5.4 5.4 0 0 0 -1.6 0c-.6-.2-1.2 0-1.8 0l-1.8.1h-1.6l-2 .1h-2.1l-1.2.1c-.3 0-.5.2-.8 0h-.1c-.5.3-1 .2-1.5.2h-1c-.4.2-.6 0-.9 0s-.7.3-1 0a.3.3 0 0 0 -.2 0c-.8.3-1.5.2-2.3.3l-2.3.2h-.6l-.9-.3-1.1.5v.3c-.2.2-.4 0-.5 0 .2 0 .2-.2 0-.2a.6.6 0 0 1 -.2-.3v-.2l-.4-.2c.5-.2 1-.4 1.7-.1.3-.4 1-.4 1.5-.4-.4-.2-.8-.3-1.2-.1h-2.1l.5-.4a58.5 58.5 0 0 1 1.9-.3v-.2h-.5c-.4 0-.2.2-.4.3-.2 0-.4 0-.5-.2l-.2-.1h-2.1l-.9.2h-1.2c0-.1-.1-.1-.2 0h-.1c-.2.2-.3.2-.4 0l-.2-.1-.5.1c0-.1-.1-.1-.2 0h.4c0 .1 0 .2-.3.3l-.7.1.3.3h-.2c-.1 0 0 0 0 0h.2a2.5 2.5 0 0 0 1.4 0h1.4c.1.2.1.4.5.2a9.5 9.5 0 0 0 1.2.5h1l-.2.6-.8.1-.3.3c-.1.1 0 .1.1.2l.1.4-1.4.2-1.6-.4-.4.2-.4-.4-.6.1-.7-.2-3 .3-.6.1c-.8.5-.9.5-1.8.5h-2c-.6 0-1.2 0-1.8.2h-1c-.5 0-1 0-1.4.2l-.4.1-.3.3h-.2l-.5-.1a2 2 0 0 0 -.6 0h-.9l1.2-.4.5.2.2-.3h.6v-.2c0-.3 0-.3-.3-.3h-.3c0-.1 0-.2-.2-.2v.2h.2l-.3.2-.6.2c-.5 0-.8.4-1.4.4l-.1.1v.1h.5v.6l-.8-.1v-.3l-.5-.1h-1.3a6 6 0 0 1 -.4-.1l-.1.2-.1.1-.9-.2h-1c-.2 0-.2.3-.6.4l-.2.2c-.3.3-.3.3-.8.1a.4.4 0 0 0 -.2 0l-.2.2-.3-.3h-1.1c-.2.1-.5 0-.7.2a26.9 26.9 0 0 1 -2.7.3c.3 0 .6-.2.7-.3l.3-.5c.5-.1 1-.3 1.5-.2a.4.4 0 0 0 .2 0l.6-.3c-.4-.2-.7 0-1 0l-.2-.4h.1a1.3 1.3 0 0 0 .8-.1l.6-.1h.3l.2-.2c.1-.2.2-.2.5-.2l.2.3-.5.3-.2.4h.4l2.5-.2c.4 0 .7-.1.9-.3v-.2l.3.1c.3.4.7.5 1.1.2l.6-.3c.6.1 1 0 1.6-.2l-.7-.3c.1-.2.4-.2.7-.3l.2.4c.4 0 .7-.2 1 0h.3a654.4 654.4 0 0 0 -.3 0c0-.3-.5-.3-.5-.6-.3.1-.5 0-.8 0h-.8c0-.2.4-.1.5-.2 0-.2-.3 0-.4-.1l-.5-.2h-.6l-1.4.5.2.3-.3.2-.2-.1c0-.2.2-.3 0-.5l-.2-.2v-.1h.7c.3.2.3.1.5-.2.6 0 1.2 0 1.8-.3l-.4-.2c.3-.2.8-.4.6-.8.5 0 1-.1 1.2.3h.7l-.5.4.3.1 1.4.1c.7 0 .8 0 1 .5l.2.1h-.6l.2-.2h-1.7c.3.4.3.4.8.3h.1c0 .3.5.2.7.4l.4-.2.7-.1.1.7h.8c.2 0 .2-.1.2-.3.2 0 .4.2.7 0h.6l.2-.1-.5-.2-.5.2-.5-.4-.1-.2h.4-.4l-.3-.2c0-.2-.3-.2-.5-.2 0-.1.5-.2 0-.3l.3-.2h.4l1.1-.2c.5-.1 1 0 1.6-.2l.3.4.9-.6h2.2c-.4-.4-.8-.4-1.2-.7h1l.8.3-.3.1c.4.2.4.2 1-.1l.3.2a.6.6 0 0 0 .4 0c.2 0 .1-.2 0-.3v-.2h1.6c.2.1-.2 0-.2.2l.3.1-.4.3.3.1h.4c.8-.7 1.3-.8 2.4-.5l.3-.2h.3c-.2-.3-.7 0-.8-.3l1-.2.3-.3s-.2 0-.3-.2c.7-.3.7-.3 1.2.3l-.2.2-.2.2h.2c.5.1 1 0 1.6 0h.5c.5 0 1-.1 1.4-.3h.2c.3.2.6 0 .9 0l.7.2-.4.5c0 .2-.5 0-.3.3l-.2.1-.2.1-.2.1h.5a15 15 0 0 1 2-.2h.5c.3.3.7.2 1 .3l-.1.3h.4l.4-.2v.4l-.3.1.4.2-.1-.3h.4c0 .2.2.4.6.3h.2l-.5-.3.3-.5h.1l.4.2c.3.3.5.3.9.1l.4-.2c-.3-.2-.5-.3-.8-.2h-.3c-.3-.2-.6 0-1 0-.3 0-.6 0-.8.3 0-.3-.1-.3-.3-.2h-.4c0-.2 0-.3.3-.3l1.4-.2 2.7-.1.6-.2-.7-.3-.4.1c-.3.3-.8.4-1.1.1l-.4-.2h-.5l-1.5.2.2-.2h.2c.4 0 .1-.4.5-.4l.9-.1.9-.1a4 4 0 0 0 1.7-.3 1.2 1.2 0 0 1 .7 0c.2.1.4.2.6.1l.3.1.1.4c-.2-.2-.3-.2-.5 0l-.6.2.5.3.7.1h.9a50.2 50.2 0 0 1 4.7-.4l-.2-.4h-2l-.3.4c-.5-.2-.9.1-1.2 0l-.8-.3c-.2-.2-.3 0-.5 0l-.2-.2c.1-.3.5 0 .7-.2.4 0 .8 0 1.1-.2h.8l-.1.4h1c0-.5.7-.4 1-.6v-.2l.4-.3c.2.3.7.1.8.4l.4.1h1.6v-.3h1.6l-.1.3.6.4c-.2.3-.3.3-.6.1l-.4-.3v.4l-.6.3a.5.5 0 0 1 -.3 0 .7.7 0 0 0 -.4 0l-.2.1.1.2h1.2c1-.1 2-.2 3-.1h.2c-.2.2-.2.4-.5.5-.5 0-1 .4-1.6.1.2-.2.6 0 .7-.3-.6-.2-1 0-1.4 0-.1.4.3.5.5.6h.9l-.4.3c.4 0 .8.2 1.2 0l-.3-.3c.7-.2 1.3 0 1.8 0 .3 0 .6 0 .8-.2.7 0 1.5 0 2.1-.2l-.4-.3-.6.2c0-.2.3-.3.4-.4l1-.1.3-.2-.3-.2h-.4l-.4-.1c0-.1-.6 0-.6-.3h-.3c-.4.2-.4.2-.9 0h-.1l-1.2.2v-.2c.3-.2.6-.3 1-.3l1-.1h1.2l.3-.4.6.1.2.3c.3 0 0-.2.1-.3h.7v.2l.2.1h3.7l-.3-.4c.4 0 1-.1 1.2.1 0 .2.2.3.4.3h1v-.2c0-.2.2-.3.4-.3a6.4 6.4 0 0 1 1.2 0h.4c.6.4.8-.2 1.2-.1 0-.4-.6 0-.6-.4a3 3 0 0 1 1.3 0v.6a15.1 15.1 0 0 1 -1.3.2l-.3.1.4.4c-.2 0-.2 0 0 0 0 .1 0 0 .1 0h.2l.5-.2.8-.1c.3 0 .5-.2.7-.4h.5l.3.1.3.2h.4c.5 0 1 .2 1.7 0l.2.1.6-.1-.3-.3.6-.3.2.1c.1.2.3.4.7.4l.4.2 1-.4c.3 0 0 .3.2.5h1.7c.2 0 .2.2.2.3 0 .2.2.2.4 0l-.1-.3h-.5s.1-.2-.2-.2c-.2 0-.6 0-.7-.3.4-.3.4-.3 1-.1v-.5c.4 0 .8-.2 1.2 0a.5.5 0 0 0 .3 0c.4-.1.8 0 1 .2h-1.8l-.2.1c.7.6.9.6 1.7.3l.2-.1c.2 0 .1-.2.2-.4h.3l1 .6c.3-.2 1 .1 1.2-.4.3.2.6.3 1 .2h.2c.6-.4.6-.4 1-.2l-.4.3h1c.3.1.6.2.7.4h.3l.2.1.4.1.7.2h.8c.6 0 1.1 0 1.6.2l.9-.2v.3s-.1.2-.3.2l.6.1c.2-.1 0-.3.3-.4h.5c.3.3.6.2 1 .1h.4c-.2 0-.5 0-.6-.3.1 0 .4 0 .4-.2.1-.2.4-.2.6-.3v.5c.1.2 0 .2.3.3.5.3 1.1.2 1.7.4l-.2.3.2.2.3.1v.3l.3.2.2-.2.1-.1.2.3c.6.2 1.2-.2 1.7.3l.4-.3c0-.2-.6-.2-.4-.5l-.3-.1-.7-.1c-.2 0 0-.1-.2-.2h1.4l.3-.2.9-.5.3.6h-1v.1l.9.2h.3c.2-.4.8-.3 1-.5.3 0 .5.2.6.3.2.1.3.2.3.4s0 .3-.2.5c.3 0 .4 0 .5-.2 0-.2.2-.2.5-.2.1.3.1.3.6 0 .6.3 1.4.3 2 .4l-.1.2h-.6l-.4.2.1.5h.5l.5.2 1.6.1c.3-.2.3-.2 1-.3l-.6-.1h-.5c-.2-.3-.5-.3-.9-.3-.3 0-.6 0-.7-.3a1.8 1.8 0 0 1 1 0l.4-.3h.5c.5 0 .9.3 1.3 0l.2.1v.5l.9-.1h.5l.3.2c.5.2.5.2.8 0h-.8c.4-.3.5-.3 1-.3.2 0 .2-.3.4-.2l.8.1 1.8.4.4-.3c.6 0 1.1.3 1.8.4l.4.2.5.2.7.2v.4h.8l.2-.3 1.4.2c.1.3.7.4 1 .7l.3.2h-.4.4l.2-.1h.8c.3.1.6 0 .8 0 .4-.1 1-.2 1.3 0h1.1l1 .5c.3.1.4.4.8.5l.2.1c.3.3.5.4 1 .3 1-.3 1.7 0 2.2.6l.3.2.9-.1.2.3.5.1.3.3h.1l.2.1h.4l.4-.2h.6c.1.2.4.3.6.3h1.4c.1.3.3.5.7.4h.9l.6.4c.1.2.3.3.6.3l.6-.2h.2v.2l.1.3.4.2 1 .3a.6.6 0 0 0 .4 0 1.2 1.2 0 0 1 .8 0l1.3.4.4-.2c.6 0 1.1.3 1.5.5l.2.2c.1.3.4.3.7.4.2 0 .5 0 .7.3h.7l.2.2-.2.2.1.1.6.2.6.3h.9c.4.2.7.6 1.3.6l.3.1c.3.2.3.6.9.5l.9.5.5.3c.4 0 .5.3.7.4.3 0 .7 0 1 .2.6.6 1.6.8 2.5 1.2l.3.1c.2.2.4.4.8.5l.7.6 1.3.8c1 .3 1.4 1 2.2 1.3l1.5 1.1c.7.5 1 1.1 1.8 1.6l1.6 1.5.4.5.6.5c.3.1.4.4.4.6l.1.3.4.3.3.2c0 .3.2.6.4.8.3.3.5.5.6.8 0 .2.2.4.6.5l-.1.5.2.6.7 1.2v.3l.1.8.3.5.2 2 .1.9v.5l-.1.2v1.2c0 .4-.1.8-.3 1.1 0 .3-.2.6-.4 1-.5.3-.7.8-.8 1.3 0 .3-.2.7-.5 1a1 1 0 0 0 -.3.4v.5l-.1.1c-.5 0-.8.2-.8.6v.2c-.1.1-.4 0-.4.2l-.4.8-.3.2c-.7.3-1.2.8-1.5 1.3a3 3 0 0 1 -.5.5 1 1 0 0 0 -.3.3v.2h-.2a17 17 0 0 0 -1.8.8l-.2.2-.1.5c-.4 0-.5.4-1 .3-.2 0-.5.2-.5.4v.4l-.5.3a28.3 28.3 0 0 1 -2.2 1.3c-.1 0-.2 0-.1-.2l.3-.4c-.4.2-.4.2-.3.4-.8 0-.8 0-1 .6l.4.1c-.2.2-.3.4-.5.4-.6 0-.8.4-1.1.7l-1 .7c-.7 0-.8.1-1.5.5l-1 .7-.9.2-.6.6c-.6.2-1.2.5-2 .5v.5h-.6l-.2.3h-.9c0 .1 0 .4-.3.5-.2.2-.5.4-.8.4l-.8.4c-.1.2-.4 0-.6 0 0 .2-.2.3-.3.5a2 2 0 0 1 -.7.3c-.3.1-.7.2-1 .1l-1.2.2s-.1 0 0 0v.1h.3l.2.3c-.7 0-.7 0-.4.3a3 3 0 0 0 -.6.2c-.3.3-.7.5-1.2.5l-.3.1c-.4.4-.4.4-1.1.4-.2 0-.2 0-.4.3h-1.1l-.1.3c-.2.2-.3.3-.7.3-.3 0-.3 0-.2.3l-.5.3h-.9c-.2 0-.5 0-.5.3v.1l-.5.4c-.5 0-1 0-1.5.3l-1.5.3-.2-.2-.2.2-.7.2c0 .3.2.5-.2.6l-1 .2h-.2c-.2.2-.3.3-.6.3h-.3l-.2-.2h-.1v.1l.3.1c-.3.3-.7.3-1.1.4l-.6.1c0-.3-.3-.3-.6-.3-.4 0-.6.2-.8.4l.7.2-1 .5c-.8.1-1.4.3-1.9.6l-.4.1h-.5.1v.2h-.3a8 8 0 0 0 -1.2.4h-.9c-.2.4-.9.4-1.3.6-.2 0-.3-.2-.4-.1-.4 0-.8 0-1.1.3h-.5c-.2.3.2.3 0 .5-.2.1-.2.2-.7.1l.2-.6-.4.3h-.2l-.3.3h-.2v.2h.2v-.2h.4v.4l-.7.1-.8.4c-.3 0-.5-.2-.8 0l-1.3.2-.5-.2-.9.3.1-.3h-.3c-.3-.1-.3-.1-.4.1h-.5a1 1 0 0 0 -.4.3 1 1 0 0 0 -.2.3l-.3.7-.4.1-.3.2-.3-.2-.7.2c-.6 0-1.3.1-1.8.3h-.3a1.5 1.5 0 0 0 -.7 0 1 1 0 0 0 -.3.2l-.1.2-.6-.4h-.2c0 .3-.1.5-.5.5-.2 0-.3 0-.3.2l-.2.2-1.4.5h-1l-.3.3h-.1l-.3.2a1.2 1.2 0 0 1 -.6-.1h-.5s-.2 0-.3-.2-.3-.3-.6-.2c-.2 0 0 .1.1.2-.3.3-.7.2-1 .1l-.6.3h-.2l-.2-.2-.1-.1a.5.5 0 0 0 -.3 0h-.1l-.4.4c-.3.1-.3.2-.7 0l-.2-.1h-.3l-.8.2c-.3 0-.9-.3-1.2.3h.7v.1c-.3.3-.8.4-1.3.6h-.2l-.8.1c-.2.2-.5.3-.9.1l-.7.1c0 .3.3.1.5.2-.3.2-.5.3-.7 0h-1l-.4-.1h-.3c0 .2-.1.3-.3.3l-.5.2h-.7c-.3-.3-.8 0-1.2-.3l-1 .3-.1.2v.2c-.7.5-1.5.3-2.3.2-.1.2-.4 0-.6 0l-.3.5c-.2-.2-.3-.5-.6-.6a3 3 0 0 0 -.4 0h-.7c0 .2-.1.2-.2.3.1.2.4.2.6.2s.4-.3.7 0l-1.1.2a5 5 0 0 1 -1.3 0c-.3.2-.6.5-1.2.4h-.3c-.3 0-.3.3-.7.3-.3-.1-.5.1-.7.2s-.4.2-.7 0l.5-.2v-.5c-.4 0-.2.2-.4.2l-.2-.2-.7.5-.4-.5a9.6 9.6 0 0 1 -1 .1l-.1.2c-.1.2-.3 0-.5 0l-1 .1c-.2 0-.5.2-.6.4v.1h-.3c0 .4-.2.5-.5.6l-.9-.3c-.2 0-.5.2-.8 0 .2-.2.5-.1.8-.2.2 0 .5 0 .6-.3l-.6-.1-.5.1-1 .2h-.6l-.2.3c.2.1 0 .2 0 .3v.3h-.1c-.3-.1 0-.4-.2-.8l-1 .9s-.3-.2-.5-.1c-.2 0-.5-.1-.8 0l-.6.3c-.2-.1-.4-.2-.6 0-.5.2-1.2.2-1.7.3l-.1-.2.3-.2.2-.3h-4c-.2.2-.4.4-.8.3-.3 0-.4.2-.5.4-.5 0-1 0-1.3.4-.2 0-.4 0-.3-.2v-.2a1 1 0 0 0 -.4 0l-.1.1c-.2.2-.3.4-.7.3l-.3.1h-.4l-.1-.4h-1.1l-.3.2c.2.2-.1.3.1.5.3-.2 0-.3 0-.5l1 .5-.2.3c-.3-.1-.7-.2-1 0h-1.6c-.2 0-.3 0-.4-.3-.5.1-1.2 0-1.6.4l.2-.6h.6c.2 0 .6-.2.5-.3l-.3-.2h-.3l-.2.2-.4.1-.6.2c0 .1 0 .2.2.3l.3.3-.4.1-.1-.3h-1.8l-1.2.2c-.2 0-.2-.1-.2-.2l-.3.1c-.3.2-.4.1-.4 0v-.2h-.8v.2l-.2.3-.3-.1c0-.1-.2-.3-.4-.3-.3 0-.6-.1-.8 0-.2.2-.1.4-.5.4h-.5c-.3-.4-.6-.4-1.3-.1 0 .2.4.2.3.4h-1.1l-.6-.2h-.4c0-.4 0-.4-.5-.5l-.5-.2h-.4l.1.1.3-.1v.5c-.3.2-.6.2-.9 0h-.8c-.3.2-.7 0-1 .3l-1 .2c-.3 0-.3-.3-.6-.3l-.8-.3-1 .3c-.4 0-.8.2-1.3 0-.2 0-.4.3-.6.1-.3-.2-.5 0-.8 0l-.4-.3-.4-.3h-.4v.3c.1.2 0 .3-.2.3h-.7l-.2.1v.3l-.1.2-.4-.2-.5-.4c-.5 0-.9-.3-1.4-.1v.3h-.1a.5.5 0 0 1 -.3 0c-.3-.2-.5-.4-.8-.2h-.3c-.3-.4-.8-.3-1.2-.3l-.6-.2h1.8l-.6-.4h-.2c-.4 0-.3-.4-.6-.4l-.3.1v.3c-.7 0-.7 0-.8-.5-.1-.2-.1-.2-.6-.4l-.2.2v-.1h-.2c0-.1 0 0 0 0h.2v.2l-.4.3c-.7 0-1.5.2-2.4.1l-.6.2c-.4-.1-.8-.3-1.2-.2h-.4a3.8 3.8 0 0 0 -1.3 0h-.1v.2h.6l.2.1c-.2.3-.6.1-.8.3l-.8-.2a2 2 0 0 0 -1 .1c-.5-.3-1.1 0-1.8 0-.1-.3-.6-.2-.7-.5l.5-.1c0-.4-.4-.6-.9-.5l-.2.1-.5-.2h-.2c-.5 0-1 0-1.5-.3-.2.3 0 .3.2.5l.2.2c-.1.2-.3.2-.4.2-.3-.1-.6-.2-1-.1l-.1.4h-.7a7 7 0 0 0 -.5.2l-.3-.3-.2-.3c-.5 0-.8.2-1 .5-.4 0-.5-.3-.6-.5l-.2-.2a1 1 0 0 0 -.5 0s-.2 0-.2.2v.1c-.6.2-.5-.2-.7-.3-.2 0-.1.3-.4.1l-.1-.1v-.2l.1-.1c-.2-.1-.6 0-.7-.2h-.8c-.4-.3-.8-.2-1.2-.2l-.2.2-.2-.3c-.6-.2-1.2-.3-1.9-.3l-1.8-.4c-.2 0-.2-.1-.2-.2h.8c.4 0 .7 0 1 .3.6-.1 1.3-.1 1.8-.6l-.4-.1h-2.5c-.5-.2-1-.3-1.4-.2l-.4-.2-.1-.1-.3-.2v-.1c-.2-.1-.5.2-.6-.1l.4-.3v-.1l-.2-.1c-.3 0-.4 0-.5.2l-.6-.2.5.3-.1.1h-.3l-.9-.1s-.1-.2-.2-.1c-.6 0-1-.3-1.6-.3l-.5.1-.4-.4-.4.2-.5-.2-.9.2h-.3v-.4c-.6-.1-.9-.5-1.5-.4l-.6-.5v-.2c.1 0 .1 0 0-.1h-.1l-.1.6-1.5-.3c-.4 0-1 0-1.2-.4l-1.3-.3-.2-.5h-.7a.5.5 0 0 0 -.2 0h-.1c-.2.2-.3.2-.5 0a1 1 0 0 1 -.7 0 5 5 0 0 1 -.6-.3l-.2.4c-.6 0-1.2-.3-1.8-.2l-.5-.5-.4.2v-.3c.2-.1.2-.3.2-.4 0-.2-.2-.3-.4-.4 0-.2.2-.2.5-.1l.3-.1-.8-.3h-.2l-.2-.2c-.6.1-1-.3-1.5-.3-.2-.2-.5-.2-.8-.2h-.1c-.4 0-.8-.2-1.1-.1h-1l-.3-.2 1.5-.3-.4-.2-.5-.1c-.2 0-.2-.2 0-.2l.3-.3h.1c.4 0 .4 0 .3-.3-.7.2-.7.2-.7.6l-.5-.1v-.3h-.7l-.7-.3v.4h-.9l-.5-.6c-.2-.2.2-.3 0-.5l-.3-.3h-.3l-.1-.4h-.2l-.5.3c0 .3.7.3.9.7l-1.2-.4-.2-.4a.4.4 0 0 1 0-.5c.3-.2 0-.4 0-.6-.5-.1-.8 0-1.2.2l-.4-.1a1 1 0 0 1 -.4-.2c-.2 0-.2-.2-.2-.3l-.3-.3c-.1-.1-.3-.2-.4-.1l-.1.1v.2l.4.4-.4.2-.6-.4c0-.3-.5-.2-.6-.4l-.2-.2-.4-.2v-.3s0-.2.2-.3c.2 0 .4.2.4-.1 0-.1.1-.2.3-.2h.3c-.2-.5-.6-.7-.9-1 0-.1.3 0 .2-.2-.3 0 0 .1-.2.2a7 7 0 0 1 -1.2-1c-.2-.2-.5-.2-.9 0h-.2c-.2-.1-.2-.3 0-.3h.4l-.1-.6h-.5c.2-.4.2-.4-.2-.6l-.8-1 .5-.1c-.6-.2-1-.4-1.3-.7h-.2v.4l.3.3c.2.2.4.3.3.4 0 .3.2.3.3.5v.1c-.2 0-.6 0-.6-.3l-1-.5-.1-.2v-.1l.2-.2c-.4-.2 0-.7-.7-1 0 .5.3.9.5 1.2zm196.5-48.3h.3l-.2-.1-.1-.2h-.3l-.3.2h.7v.2h-.3.2zm-114.6 67.8v-.3h-.2l.2.1zm-73.2-13.3h-.3.3l-.1.2zm63.1-62.2h.2-.3c0-.1 0-.3-.3-.1h.3zm7.8 75.2h.2-.2l-.1-.1h.1zm-20 0c-.2-.2-.2-.3-.4-.1h.3c.2 0 .3.2.5 0h-.5zm163-47.8-.2.2v.2l.1-.2v-.2l-.2-.1a.3.3 0 0 0 -.2 0l.1.1h.3zm-43.4-23.4h.3-.3s0-.2-.3 0zm-57.8 68h-.2v.1l.4.2-.3-.3h.3-.3zm91-55.4v.3l.2-.3c.2 0 .5 0 .5-.2l-.5-.3v.5h-.3v-.2h-.1v.1h.1zm-137.2 59.8h.3v-.2h-.2v.2l-.2.2c.2 0 .2-.1.1-.2zm130-64.2h-.4l.2.2.1-.1h.1l.1-.2-.2-.1v.1zm-65.4 56.8c.2-.1.2-.2 0-.3-.1.1-.2.2 0 .3.3.3.3.3.6 0zm-38.6 7h-.1c-.2-.1-.3-.2-.3 0h.4c-.1.1-.4.2-.3.4.4 0 .4 0 .3-.4zm-24.4-.1c-.2 0-.2-.1-.2-.2l-.8-.1c0 .1.1.2.3.2l.5-.1c-.3.2 0 .3.3.6l-.1-.4h.2v-.1h-.2zm118-66.9c.1-.1.5-.1.4-.4l-.4.1v.3h-.4zm-102.2 66h-.6c.3.3.3.3.8.1l-.2-.2c.3 0 .5 0 .5-.2-.4 0-.4 0-.5.2zm28.9-2.5h.7c.1 0 .3 0 .2-.3l-.9.3-.2.1h.1zm-41.7 4.3-.5-.2-.6.2h1.1v-.1zm138-56.6-.3-.1.4.1c-.1.3.2.3.4.4.2-.1.3-.2 0-.3-.1-.1-.3 0-.4 0zm-43.5 39.6v-.1h.1c0 .2 0 .4.4.4h.2v-.2c-.1-.2-.2-.2-.7-.1zm46.8-35.7v.3-.2c.2 0 .5 0 .5-.3-.1 0-.2-.1-.4 0l-.3.1v-.6s0-.2-.2-.2l-.1-.3-.3.1v.6c.3.2.3.4.7.4l-.1.2h.2zm-154.9-23.7c.3-.2.7 0 1-.2l-1-.2v.4c-.2-.1-.4-.3-.8-.2 0 .2.2.2.4.2zm53.6 71.8s0-.2-.2-.2h-.3l.2.2h.3l.2.2h.8c-.3-.2-.6-.4-1-.2zm17-75a1 1 0 0 0 -.5 0l-.3.1v.2h.5zm9 1.7h-1l.2.1a1.1 1.1 0 0 0 .5 0h.2l.3.1.5.1c.2 0 .4 0 .3-.2h-1zm73.7 23v-.1c-.2-.1-.3-.2-.4-.1h-.1c0 .2.2.2.3.2h.2c-.1 0-.2 0-.2.2v.3h.6v-.5zm-21.7-12.7h.4c-.2-.2-.3 0-.4 0v-.2l-.7-.3-.6-.3-.4.2zm-59-10.6.6-.1h.7c0-.4-.3-.4-.7-.3l-.6.4c-.1-.2.2-.4-.1-.6-.5.2-1 0-1.5.4h1.3zm-27 74.3c.2-.3.2-.6 0-.9h.6v-.3a.3.3 0 0 0 -.3 0l-.4.1v.3c0 .3 0 .6.2.8h-.3c-.3-.1-.5 0-.5.2h.3v.3h1.7l1.9.2.3-.1-.4-.2c-.5 0-.9-.2-1.1-.4l-.4-.1-1-.2-.3.4h-.3zm-17.2-74.4c.5 0 .9 0 1.3-.2-.4-.3-1-.3-1.5-.3l.2.5-.8-.3h-.5c0 .2 0 .3.3.3l.5.1h.4zm61.4 1.7-.1-.2a.9.9 0 0 0 -.4-.2.5.5 0 0 0 -.2 0l-.1.1-.2.3h1l.2.1 2.8.3-.2-.2c-.9-.2-1.8-.3-2.8-.2zm-158.8 45.4c-.2 0-.2.2-.3.3l-.2.2c.1.2.3.2.3.4 0 .3.1.4.6.4 0-.4-.2-.9-.4-1.3l.1-.2-.3-.6c-.1.3 0 .6.2.8zm72.8-46.3h1.4l-.2-.5h-.7c-.4.1-.4.1-.5.5l-.4-.2c-.3 0-.5.1-.5.4h.7c.2 0 .2-.1.2-.3zm123.6 8.9c-.2 0-.3 0-.4-.2-.1 0-.1-.2-.4 0v.1s0 .2.2.3l.4-.1.2-.1s-.2.2 0 .4a4 4 0 0 0 .6-.2h.5c-.4-.2 0-.4-.4-.5l-.5-.3-.6-.2v.4l.6.3h-.2zm-125-8.7c0-.1.3-.2.1-.4h-.1l-.3-.1h-.7c-.2.2-.7.1-1 .3 0 0-.2 0-.2-.2l-.4-.1h-.2l.1.2h.5l-.4.4h.5c.3 0 .6.2 1 0 .2-.2.6 0 .9 0l.3-.1zm-9.8 76v-.3h-.1l.1.2v.3h-1.2l.3.3.8.1 2 .2h.3c0-.3 0-.5-.4-.6l-.3.1-.4-.2-.6.2c-.3 0-.3-.2-.4-.3zm39.3-1-.2-.2h-.1l.2.1h.1v.2l.9.3.2.4h-.5.8l-.2-.6c.5 0 .8-.3 1.2-.4a23.1 23.1 0 0 0 -.9-.5v-.2l-.2.2h.3c-.2.2-.2.2-1.1.4l-.5-.5v.7zm46.1-76.7c-.2 0-.4.2-.8.1l.4-.3h-.9l-.7.1h-.3l-1-.1c-.3 0-.3-.3-.5-.2l-.5.1-.6.2.2.1a39.2 39.2 0 0 1 2.7.3h2.3l-.3-.3h.2zm-15 .4h1.1l.7.1h2.9c.3 0 .7.2 1 .1h1.5l.4-.3h-.9c-.2 0-.3.2-.6 0-.2-.2-.3 0-.6 0h-.8l-.5-.2h-.6a2 2 0 0 1 -.8 0l-2-.2h-1.2c-.2 0-.3 0-.4-.2l.4-.1h1.8c.4 0 .5 0 .9-.2-.5-.3-1-.1-1.5-.1l-.8-.6a1 1 0 0 1 -.4.3l-.7.1h-1.2l-.5-.2c0 .2.1.4.3.5l.7.1h.2c.1.1.3 0 .3.2l-.8.4a1 1 0 0 1 -.4 0l-.2-.2a1.2 1.2 0 0 0 -.9 0c-.2.1-.4.2-.6.1a1 1 0 0 1 -.5-.1c-.2-.2-.4-.2-.6-.2-.6.2-1.3.3-2 .3h-.3l.4.2h.5c.1.2.3.3.5.3h.2l.3-.5.5.3h1.3c.5-.1 1 0 1.4.2l.4-.1v-.3c.4 0 .1.3.4.4l.2-.2.1-.2c.5.3.5.3.3.5v.2c.3.2.3-.2.5-.2l.7-.2zm-78 77-.7-.6c.4-.2.6.3 1 0l-.7-.2h-1.2c-.3-.1-.4 0-.7-.2-.2-.1-.6 0-.8-.2v.4a1.5 1.5 0 0 1 -.8 0 1 1 0 0 1 -.3-.2h-.2a2 2 0 0 1 -.9 0l-.2-.2h-.4c-.2.2-.4.3-.3.6l1.8.3h.7c.2 0 .3.1.4 0h.5l.5.2c.3.2.7 0 1 .1.3.2.7 0 1.2.1zm61.6-78.8v.2l-.6.1h-.6c-.3-.5-.7-.3-1 0h-.3l-.3-.3-.6.3h-1.1c-.3 0-.4.1-.4.4h.4l2 .1h2.7c.5 0 .7-.2.8-.5l-.4-.1zm-5 1.5.2.1h1.8c.4-.2.6 0 .8 0 .8 0 1.5 0 2.2.2.4 0 .5-.3.8-.2v-.4a17.6 17.6 0 0 0 -1.6 0l-.8.2-.8-.1h-2l-.5.2zm-15 .7v-.4c-.3-.1-.6-.3-1-.3a42.2 42.2 0 0 0 -2.9.5v.2h1.1c.2 0 .3.2.6 0l.3-.1v-.2c0-.1.3-.1.4 0v.2h1.5zm51.7.4c0-.4-.4-.4-.7-.4h-.7a2.3 2.3 0 0 0 -1.2-.1h-.5l-.5-.1h-.1l.2.4h.1c.5-.1.5.2.6.3v.2l.7.1c.2 0 .3-.2 0-.3-.1 0-.3-.1-.2-.3l1.7.1zm-28.3-1c.6.2 1.3 0 1.7.4l.4-.4.7.1h.3l.3-.1c.1-.1-.1-.3-.3-.3h-2.9c-.2 0-.3-.3-.5-.1-.2.1.1.2.2.4zm24.8 71.4 2.3-.1.3-.2-.3-.2-.3-.1h-1.6zm27.1-67.4 1.6.3 1.4.3c.4 0 .9 0 1.3.2h.5l.4-.1-2.3-.5c-.7 0-1.4-.2-2.1-.4-.3 0-.6 0-.8.2zm-49.7-5-.1-.2-.4-.3-1.5.6.2.1c.7.1 1.3 0 1.9-.1zm44.7 4c0 .2 0 .5.2.8.5 0 .7 0 .7-.3h.7c-.4-.5-1-.5-1.6-.5zm-12.7-1.8h-.6l-.7-.1h-1c0-.2-.3 0-.6 0v.1l.4.1a14 14 0 0 1 2.4.1h.1l.1-.1zm1.7 67.2c.7.2 1.4.1 1.9.4l.8-.2c-1-.1-1.7-.5-2.7-.2zm-27.9-69.6c-.4-.2-1 0-1.4-.2v.3l-.2.2 1.2.1zm-76.8 76.7.1.2h1.3l.2-.5h-.8c-.3 0-.5.2-.7.3zm93-3v.2l.5.2h.8l.6-.2v-.1l-.2-.1-.6.1c-.1 0-.3-.2-.6-.1h-.6zm26.7-69.8.2.1h.2a1 1 0 0 0 .5 0l.3.1a1.1 1.1 0 0 0 .7 0c0-.2-.2-.3-.4-.3l-1-.1zm-2 .8 2.2.4.3-.1c-.4 0-.7 0-.8-.2-.4-.2-1-.2-1.4-.3 0 0-.3 0-.3.2zm-59.8 72.2-.4-.2-.3-.1h-.3l-.3.7h.1l.5-.3h.7zm-106.1-35c0 .3-.2.7 0 1 .2-.2.5-.3.5-.6 0-.2.1-.2-.5-.5zm206.2 11.3-1 .5v.3h.3l1-.5zm-94.2-51.1v.1c.5.2 1 0 1.4 0h1.2c-.8-.3-1.7 0-2.6-.1zm-22 76.3c.3-.2.2-.4 0-.5l-.3-.1a1.3 1.3 0 0 0 -.6 0 1 1 0 0 0 -.3 0c.8.2.8.2 1.3.6zm12.4-2.1c-.6-.3-.6-.3-1.2 0l1 .3zm-27.8 3.1c-.4.3-.9 0-1.3.2.5.3.5.4 1 .2.1 0 .4 0 .3-.4zm46.2-78.4c-.1.2-.1.3.1.3h.5l.5-.1-.2-.2h-1zm75.3 55.6-1-.1h-.2v.4h.6l.5-.3zm-65.5 17.3c.3.2.5.2.7 0l.8.1-.3-.4zm20.7-4.6-.1-.1h-.6l-.3.2v.2h.6l.3-.3zm-73.7 10.4c.4.4.8.2 1.3.2l-.7-.5zm44.3-79.5c.6.3.7.2 1-.2l-1 .1zm13.4 75v-.2a7 7 0 0 0 -.8 0c-.1 0-.2.1-.2.3l.4.1.5-.3zm-36.7-74.1c-.1-.2-.3-.2-.6-.1h-.2l-.1.2v.2h.5l-.2-.2h.6zm-7 77.3c-.1-.2 0-.3-.4-.3h-.6v.3zm31.2-3.3h.6c.2 0 .3.2.5 0-.1-.3-.6-.3-.9-.4zm29.8-5.1c0-.2-.1-.2-.3-.2-.6.1-.7.2-.7.5zm-75.7-65.9-1-.2h-.3v.2l.3.1h1.1zm71 65.6.4.3.5-.1v-.2h-.8zm-148.5-24.8-.1.5.2.3.2-.4c0-.2 0-.3-.2-.4zm117 32c.7-.3.7-.3.3-.6-.3.3-.3.3-.2.5zm-20.8-75.1v.2h1.2v-.1l-.4-.1zm-45 75.5c0-.2-.2-.3-.4-.3h-.2v.2c0 .1.2.3.4.2zm69.6-1.3-.5-.5h-.4v.2h.1zm-69.8-70h1c-.3-.2-.6-.3-1 0zm156.2 44.4-.6-.2c-.2-.1-.4 0-.4.1.3.1.5.3 1 0zm-181.2 21.8h-1l.2.2h.6l.1-.3zm48.5 6.2v.5h.5l.1-.2zm53.2-5.3c.7.4.7.4 1 .3l-.7-.4zm36-5.2c-.4-.4-.7-.3-1-.3 0 .4.4.2.9.3zm-69.7 11.4-.1-.1h-.5l-.1.1v.1h.2a.8.8 0 0 0 .3 0h.2v-.1h.1zm73-14h.7c.2 0 .2 0 .1-.2l-.2-.1-.7.3zm-97.5 12.7c-.3-.3-.5-.3-.8 0h.7zm130.9-21.5c.5.1.6 0 .6-.1v-.3zm-25.4-51.3v-.3l-.1-.1h-.2c-.1 0-.2.1 0 .2zm-39.8-4.6v-.2l-.9.1c.4.3.7 0 1 0zm-39.7 76.8h-.6c-.2 0-.3 0-.1.2zm-21.9.6h.9-.5c-.2 0-.1.2-.4 0zm25.4-.6.3-.1c0-.1 0-.3-.2-.3l-.4.2zm16.3-76.5v.3l.4-.1zm-34.1 78.5c.1 0 .2-.2 0-.3-.1-.2-.2 0-.3.2zm-7.3-76.8v.5l.4-.5zm64 70.4h1c-.3-.3-.4-.3-1 0zm51.6-13.7h-.5c-.2 0-.1.1-.2.2.2 0 .3.1.4 0zm-25.2-56v-.1l-.2-.1s-.1-.2-.3-.1c0 .2.1.2.2.2h.3zm-102.1 74.2h.6l-.2-.3h-.3zm14 1h-.3l-.1.2c.3 0 .2.2.2.3h.3l-.1-.4zm111.5-18.1h.4l.3-.2h-.1a.7.7 0 0 0 -.4 0zm-134 17-.1.1-.1.1v.2l.3.2v-.6zm28.7 2h-.6c-.2-.1-.2 0-.2.1h.8zm-47.7-4.6h-.1l.3.3.2-.1v-.2zm146.9-67.4h.6zm31.6 12-.6-.4c0 .3 0 .3.6.4zm-93.2-18-.4.2v.1l.1.1h.1c.3 0 .3 0 .2-.4zm36.4 2.7a4 4 0 0 0 -.4-.2h-.2v.2zm39.6 6c-.3-.2-.3-.2-.8 0zm-142.2 68.3-.3-.2-.3.2.2.1zm45.4-77.8c-.2-.2-.3-.3-.5-.2l-.1.1c.1.2.3.2.6 0zm-16.5 78.3-.2-.2a.4.4 0 0 0 -.3 0v.4l.5-.1zm84.8-76.5c.2.2.4.3.7.2-.2-.2-.4-.3-.7-.2zm11 60.7c.1.2.3.2.4.1l.3-.2v-.1l-.8.2zm-126.3 12.3v.2c.1.1.2.2.4.1v-.2l-.3-.1zm65.9.8c-.3.3-.3.3 0 .5zm-52.2 2.2c.4.1.4.1.6-.1zm99-13h-.7v.2h.1c.2 0 .4-.2.5-.3zm-3.7-63c.1.3.3.3.5.3l.1-.1v-.1h-.6zm-160.6 47.1c-.1 0-.4 0-.3.2h.2l.2-.2zm97.9 29.3.1-.2v-.2l-.3.1v.2h.2zm19.4-79.2-.2.1v.2h.2zm-42 78.8c-.1 0-.2-.1-.2 0h-.3l.2.2zm-10.2-.6h-.5v.1h.4v-.1zm17.8.2v-.1h-.4l.1.1c.1.1.2.2.3 0zm134.2-35.6-.2-.2-.2.1v.1zm-113-40.6v-.1h-.4l.2.1h.3zm32.6.1c-.1.1-.2.2 0 .3h.3c0-.1-.1-.3-.3-.3zm-93.4 73.9-.4-.1c0 .1.1.3.3.2zm67.9 0a.6.6 0 0 0 .3 0h.1v-.2l-.4.1zm15.2-75.4-.7-.2h-.2c.2.3.5.2.9.2zm89.8 22.8h-.2v.3h.2zm-45.9-19.2-.2.2.2.1.3-.1zm-170.1 46.8v-.2l-.2-.1v.3h.1zm201.2 2-.3-.2h-.1s0 .3.2.2zm-52 17c.2 0 .2 0 .2-.2l-.1-.2a.2.2 0 0 0 -.2 0v.1c0 .1 0 .2.2.3zm-3-69h-.6l.4.1h.1zm32.6 62.1h.5v-.2h-.4v.2zm4.8.2.1.2.4-.2v-.2h-.2zm-20 4.6.3-.2v-.1h-.2l-.1.2zm1.4-2.7-.2.2.1.2.2-.1v-.3zm-69.2 14.5h.2v-.1h-.2zm85.6-15.5-.4.1h.4zm19.2-51.1h-.3l.1.2h.2v-.3zm-187.4 55.4c0-.2 0-.4-.5-.4zm164.8-6.3-.2.1.2.2.2-.1zm11.6-4.3-.1-.2-.3.1v.1zm7-3.1-.1-.1h-.3v.1h.3zm4-43 .1-.2-.1-.2-.2.1.2.2zm-15.6-4.4-.3-.1v.1l.2.1zm-26.6 63.5.1-.3c-.2 0-.2.1-.3.2h.2zm-16.6.3v-.2l-.1-.1-.1.2h.2zm-51.4 8.4-.2-.2-.2.2zm-93.6-32.3h-.2l.1.1zm26 25.3h-.5l.2.2.2-.2zm111.6 1.7.1-.2v-.1l-.2.1v.2zm-100.5 0-.2.2.1.1h.2v-.2zm181.2-51.6c0 .1-.1.2 0 .2l.1.2.1-.2zm-88.9 52.7h.5s.2 0 0-.2zm85.6-54.7.3.1h.2v-.2h-.5zm-60.5-17.8h.2l.2-.1v-.1a.5.5 0 0 0 -.3 0zm-32.3 74-.3-.1c0 .2.1.2.2.2h.1zm-75.5 0v-.1a4 4 0 0 0 -.3 0h.3zm76.6-76.4h.6zm63.7 7.9h.2l-.2-.2h-.2zm-80.1 69.6v.1h.3v-.2zm-36.5-.3-.2.1.1.2h.3zm-8.2.8-.2-.1-.3.1.3.1zm29-77.7.1.3v-.3zm25-1-.3-.1-.3.2h.2zm-37.9 80.4c.2 0 .3 0 .3-.2h-.1c-.3 0-.2.1-.2.2zm-22.2-1-.1.2h.2v-.1zm66.7-79h-.4l.1.2.2-.1c.1 0 0 0 0-.1zm-25.2 79h-.4l-.2.2c.2 0 .4.1.5-.1zm-29.7-.2v.4c.3-.1.2-.2 0-.4zm73.8-78.2-.2.2h.3v-.2zm-50.7 78v-.2h-.4v.2h.3zm58.8-77.2-.1-.2h-.1v.2zm-39 76.6-.2-.1h-.2c-.1 0 0 .1 0 .1zm-48.5-.6h-.1v.1zm-8-.5h-.3l.1.1h.2zm56.4.2h.4v-.2a.2.2 0 0 0 -.1 0zm-.9-74.9h-.2.3zm47 .6v.2h.2l-.1-.2zm-118.8 71.8.2.1h.1l-.2-.2v.1zm120.2-71.6h-.2v.1h.2zm-34.9 71.4.1.1h.1v-.1zm-1-.2-.3-.1h-.1l.1.2.2-.1zm18.6-.8-.1-.1-.2.1v.1h.3zm-5.9-.4v-.1h-.2v.1zm7.3-.4h-.2v.1h.2zm7-1.3v-.3h-.2v.2h.1zm.1-1.4-.1.2v.2l.2-.2v-.2zm15.8-.2-.1.2c0 .1.1 0 .1 0zm1.1-65.3v-.2h-.3v.2h.3zm-153.8 60.2v-.1h-.3v.1zm166.4-59.4h-.3v.2s.1.1.2 0h.1zm10.6 57 .3-.1-.2-.1-.2.1h.1zm-6.8-.5-.1-.2-.3.2zm.3-.5.3.1h.1l-.2-.2zm11.8-1v-.1h-.2v.2zm-23.2-54.2-.2-.1h-.1v.2h.3zm23.7 51c.4.1.3 0 .2-.2zm-16.8-50.6v-.1h-.3v.1zm18 49h-.2v.2h.2zm8.8-3h.1v-.3h-.2zm-203.7-5.1-.1-.1h-.2l.2.2zm214-1.3h-.2l-.1.1s0 .1 0 0h.3zm-212.8-2.6h.2v-.2h-.2zm-2-.3.2-.1-.2-.2zm225.5-10.8v.1h.3-.3zm-25.2-21 .1-.2h-.2v.2zm-114.7 68.8v-.1h-.2c.1.1.2 0 .2 0zm50.9-80.8h-.1v.2h.2zm-43 80.4v.1h.2-.2zm9.3-80.2h-.3zm-46.9 79.7h-.1zm61.4-79.3v.1zm-23.2 79.5-.1-.1-.1.1v.1h.2zm-.7-.2-.1.2h.2v-.2zm-25-.2-.2.1v.1h.2v-.1zm31.5-78.6h-.2l.1.1zm-43.1 78.3.2.2-.1-.2zm78.2-78.1.1-.1h-.2.1zm-16.7.2c-.1 0-.1 0 0 0zm-49.5 77.8h.1-.2zm34.4.2-.1-.1v.1zm10.5-78h.3zm-55.3 77.2-.1.1v.1h.2zm30 .2h-.4zm-12 0h.3v-.1zm-13.4-.3h-.2.3zm55.6-76.5v-.1h-.2v.1zm36 .3h-.1v.2h.2v-.2zm7.1.1h-.4zm-31.5 0h-.2.3zm62.6 8h-.2v.1h.2zm-107-8v-.2.3-.1zm23.6 75.5h.2zm61-74.5-.1-.1v.2l.2-.1zm-68.6 73.3c-.2 0 0 0 0 0zm26.5-1-.1.1v.1h.2v-.1zm-7 0h-.1zm14.5 0s-.1 0 0 0zm-97.3-.7h.1v-.1c-.1 0 0 0 0 0v.1zm28.1-71.7h-.1zm-29.3 71.5v-.1h-.2l.2.2zm31.3-71.4-.1-.2-.1.1v.1zm57.5 71.2h-.3zm15.7.1h.1zm-2.6-2.3v.2h.2zm5.6-1.4v-.2a.3.3 0 0 0 -.2 0h.1v.1zm-76.9-67h-.1zm-66 40.2h-.1.1zm17.9 25.4h.1zm165.3-61.3h-.2l.2.1h.1-.1zm34.6 38.7h-.1v.1h.1zm-152.4-42.9h.1zm79.5 66.2h.1v-.3h-.2v.2zm41.4-62.3h-.2v.1h.3zm-28.7-3h.2zm-5.6 64.6v.1h.2v-.1zm22.9-61.8h-.2l.2.1zm31 42.4v-.1h-.1v.1zm-39.2 19-.2-.1h-.1v.2zm.5-.3h-.2v.2h.2zm-9.3-.1v-.2h-.2v.2zm-96.5-64-.1-.3-.1.1v.1h.2zm143.5 49.8h-.2l.1.2.2-.1v-.1zm-30.6 12-.1.2h.2l-.1-.1zm-3.6.1h.1v-.1h-.2zm-162.2-1.4-.2-.1v.1zm-8.8-10.7v-.1h-.1.1zm52.5-48.3-.1-.1v.2-.1zm8.2-1.3h.1v-.1h-.2.1zm107 60.1v-.1h-.2v.2h.2zm27.8-5.8h-.1v.1h.2v-.1zm-7.8.4h-.2s.1.1.1 0zm-130.9-53.8v-.2h-.2v.3h.2zm131.4 54.3h-.2zm-6-54.2h-.2zm.9 56.3h-.3l.2.1zm2.7 0h-.1v.1h.1zm4.7-.8c0-.1 0 0 0 0zm-123.6-56.1v-.1s-.1 0 0 0c-.1 0-.1 0 0 .1zm98.2.5h-.2.1zm5.1 59.3.1-.1h-.1zm-108-60.5v.3l.1-.1zm143.4 11h-.2zm-197.7 49.8h-.1c-.1 0 0 .1 0 .1h.1zm197-11.3h-.2.1zm-39 13.6h-.1zm-.6 0h-.1v.1zm35.4-14.6v.1zm-139.8-48.7h-.2zm-10.8 2.2v-.1h-.1.1zm-52.3 43.3h-.1zm165.4-44.9h-.1c-.1 0 0 0 0 0zm51.1 43.7v.1zm-51.1-44.1h.1v-.1h-.2zm51 43.7v-.1h-.1v.1zm-31.4-40.3h.1zm30.4 38.9h.1zm7-22h-.2c-.1 0 0 0 0 0zm-34.4-16.7h.2zm-41.9 62.7h-.1v.1zm2.4.4h-.1zm-3.1.3h-.1zm13 0 .1.1h.2-.2zm-8.7.2-.2-.1.1.1zm69.9-48.9h-.2zm-30.4-14.4v-.1h-.1zm-32 64h-.1zm-90.8-68.9s0 .1 0 0zm101.5.6h-.1zm57.7 38.2c-.1 0 0 0 0 0zm-86.7 31.5h-.1zm-109-.5v-.1l-.1.1c.1.1 0 0 .1 0zm120.7-69.6h-.1zm-12.6 70.6h.2zm4.3.3h-.2v.1h.2zm22.2-71v-.1zm-36.9 71.8h-.1zm-8.7-.1h-.1v.1h.1zm29.5-72h-.1zm17 0h-.2.3zm-9.9 0-.1-.1h-.2.3zm-115.4 72.1v.1zm79.6 1-.1-.1zm81.2-66.4h-.1zm-115.8-7.5h-.1zm61.6.3h-.1v.1zm-37.1 74.6h-.1zm49-74.7h-.1v.1h.1zm-51.4 74.7v.1h.1-.1zm59.9-74.8h-.2.1zm-53.7 75.3v-.1zm45-75.5h-.4.2zm-50-.4v.2zm-57.3 75.8h-.1zm11.6.2v-.2h-.3l.1.1zm39.4-76h-.1.2zm-27.8 76.1v.1zm28.3-76.3h.1zm-8 76.5h.2-.1zm-46.5-.2h-.1zm153.3-67.3c.1-.1 0-.1 0-.1zm-139 67.6h.1zm34.7.2h-.1v.1h.1zm-36 0h-.1zm26.6 0c0 .1 0 .1 0 0zm4.4 0h.1zm-27 0h.2zm16 .2h.1zm-10.6 0h.2zm142.9-60h-.1v.1zm-147 60.7h-.1zm25.8.4h-.1zm133-52h-.2c-.1 0 0 0 0 0zm-11.5-9.4v-.1zm-138.3 61.6h-.2.3z" fill="#ffbe18"/></svg>