<svg fill="none" height="221" width="338" xmlns="http://www.w3.org/2000/svg"><path d="m.474 109.135a4.557 4.557 0 0 1 -.434-1.157c-.054-.402.178-.848-.032-1.283-.06-.136.244-.623.443-.842.254-.186.535-.333.833-.434.808.458 1.207 1.489 2.104 1.827a.713.713 0 0 0 -.225.251s.03.138.043.214a.331.331 0 0 0 .058-.147c.046-.099.086-.201.12-.305l-.136-1.055-.66-.259c.09-.233.106-.452.159-.657l.565-.004-.06-1.068-.451 1.149c-.527-.347-.015-.753.095-1.176-.312-.249-.621.109-.92.189-.3.08-.398.042-.44-.173a.302.302 0 0 1 .38-.358c.06.024.15-.096.262-.165l-.673-.405.347-.598c-.223-.51-.911.094-1.064-.559.42-.568.97-.352 1.537-.539l-.123-1.374-.422.68-.22-.086c-.061-.024-.034-.704-.42-.729l.346-.88-.135-.053-.218.916c-.652-.496-.652-.496-.379-1.263l.187-.477 1.136-.88.977.638.294.256c.086.034.115.356.233.091 0 0-.087-.175-.16-.203a1.312 1.312 0 0 0 -.367-.144 1.064 1.064 0 0 0 .553-1.194l-.748.073c.144-1.157.273-2.277.415-3.392.082-.145.178-.283.287-.409l.02 1.673c.245.096.398-.042.448-.276a22.8 22.8 0 0 0 .512-2.31c.077-.196-.179-.48-.333-.625a2.808 2.808 0 0 0 -.807-.317c.45-.246.7-.416.95-.515a.762.762 0 0 0 .47-.803c-.001-.212-.195-.401-.358-.705l-1.517 2.536c-.163-.628-.163-.628.418-1.712-.22-.41-.497.044-.756.056a.263.263 0 0 1 -.244-.096.525.525 0 0 1 .003-.295c.547-.28.708-1.048 1.362-1.313l-.647-1.298c.36-.593.36-.593.376-1.785l.792-.113-.76-1.229c.246-.623 1.067-.597 1.19-1.41l-.496-.716.648-.93c-.55-.216-.55-.216-.9-1.087.221-.562.51-.293.78-.188l.105-.269c-.23-.781.325-1.509.422-2.26a1.09 1.09 0 0 1 .946-.758c.337.005.671.052.998.082l.448.26a3.94 3.94 0 0 1 -.587 1.999c-.362.563-.318.594.25 1.198a16.846 16.846 0 0 0 1.128-3.38c.063-.159.022-.415.11-.493.962-.835 1.03-2.12 1.51-3.202.481-1.08.389-.99-.137-1.986-.331.377-.14 1.003-.62 1.294-.482.29-.332.843-.974 1.113.58-1.48.784-2.895 1.848-3.916-.112-.326-.38-.149-.575-.225-.195-.077-.357-.24-.301-.67.941.046 1.788-.962 2.762-.819a.486.486 0 0 0 .382-.217c.267-.502.825-.198 1.104-.766.223-.32.422-.657.593-1.008.13-.33.35-.892.752-.763.4.129.085.753.039 1.158a6.711 6.711 0 0 1 -1.373 1.591.17.17 0 0 0 -.057.147c.002.096.016.192.043.285l.122.048c.012.005.382-.217.466-.396.225-.574.48-1.222.772-1.714.313-.187.624-.404.94-.562a.984.984 0 0 0 .43-.663c.215-.55.573-.707.892-.37.241.3.46.618.657.95-.136.06-.218.126-.29.126-.667.048-.95.374-.87 1.069.03.208.088.41.172.603a1.431 1.431 0 0 1 -.344 1.558 3.23 3.23 0 0 1 -1.533 1.176l.108 1.34c-.381.217-.37.941-.883 1.064l-.144.367c-.04.167-.102.327-.187.477a10.384 10.384 0 0 0 -.873 2.224c-.207.526-.491 1.035-.756 1.566l-.857.242a2.14 2.14 0 0 0 -.018-.53c-.04-.114-.143-.281-.243-.278a.448.448 0 0 0 -.357.226c-.284 1.3-1.145 2.485-1.502 3.826 0 0-.034.086.016.246.224.123.438.264.64.42.195.206.378.424.547.653l-.669 1.416c-.513-.201-.513-.201-.372-1.458a3.414 3.414 0 0 0 -.487.486c-.08.151-.143.31-.187.477l-.332.843c.147.057.24.179.38.149.138-.03.265-.066.404-.096l.593.967c-.105.269-.268.684-.47.803-.595.33-.623 1.011-.92 1.515-.11.281.508.468-.024.78-.532.314-.268.685-.312 1.049a5.554 5.554 0 0 1 -.099 1.005 2.89 2.89 0 0 1 -.364.929 1.077 1.077 0 0 0 -.133.95 3.663 3.663 0 0 1 -.466 2.3c-.082.207-.37.334-.558.486a7.275 7.275 0 0 1 .13 4.988c-.157.3-.248.63-.267.967a3.938 3.938 0 0 1 -.463 2.4c.375 1.417.375 1.417-.38 2.8.158.156.305.322.44.497a1.704 1.704 0 0 1 .154 1.837c-.096.245-.164.416-.036.593a1.43 1.43 0 0 1 .177 1.382 1.731 1.731 0 0 0 -.022.992c.28.987.455 2.001.519 3.026.038.317.059.636.062.955-.024.326-.01.653.04.975.173 1.115.288 2.239.344 3.366-.048.354-.15.7-.303 1.023.556.696.85 1.565.827 2.455.033.751.225 1.485.565 2.155a7.206 7.206 0 0 0 1.081 1.99 10.974 10.974 0 0 1 1.761 3.851c.12.414.21.83.543 1.06a1.05 1.05 0 0 1 .446 1.092.593.593 0 0 0 .166.404 12.441 12.441 0 0 1 1.855 3.648c.27.587.593 1.148.964 1.676.29.336.522.717.685 1.13.122.443.665.642.914 1.05s.207 1.054.49 1.265c.961.715 1.267 2.02 1.975 2.947a4.386 4.386 0 0 1 1.22 2.031c.031.21.31.361.513.455a7.878 7.878 0 0 1 2.6 2.432c.602.935 1.271 1.824 2.002 2.662.727.75 1.503 1.451 2.323 2.097.98.596 1.695 1.54 2.68 2.082l-.313.441c.17.645 1.039.408 1.136 1.166.183-.01.364-.038.541-.084-.023 1.782-.008 1.817 1.43 2.141.343.135.764.032 1.135.093.27.074.533.177.782.307l-.615.958.83.975 1.595.104.398-.69c.832.326.831.326.735.895.483.063 1.066-.273 1.502.307-.31.287-.604.567-.902.859a1.556 1.556 0 0 0 1.647.083c.004.312-.074.69.026.758.421.284.874.518 1.349.698.317.125.4.778.928.365a2.299 2.299 0 0 0 1.644 1.887.858.858 0 0 1 .54.635c.173.999.938.989 1.563 1.121.408.076.75.069.816.617a.34.34 0 0 0 .163.233 9.456 9.456 0 0 1 2.118 1.791c.146.132.318.233.504.297.16-.657-.271-.925-.306-1.447.096-.063.198-.117.303-.163a1.194 1.194 0 0 1 1.558.344c-.196.501-.33 1.055-.458 1.598-.038.097.1.25.164.374l.139-.354c.139-.355.355-.51.505-.352.182.202.353.416.511.638.624-.08.102-.764.64-.948.468.748 1.034 1.464 2.143 1.081l.719 1.439-.288 1.453a3.334 3.334 0 0 0 3.087.76l.953 1.418.29.016c.22.086.492-.499.738-.12s.751.027.814.658c.062.631.608.86 1.111 1.015.11.043.32.012.382-.076.223-.279.376-.346.566-.074s.252.254.342.205c.734-.361 1.145.21 1.603.446l.003 1.68 1.333.523.786-.566c.098.038.196.077.177.196a1.133 1.133 0 0 0 .457 1.196c.125.086.266.146.415.177.742.122 1.398.464 2.137.556 0 0 .102-.044.144-.042.041.002.342.134.551.428.341-.007.703-.317 1.038-.128-.178.057-.247.269-.115.293.132.023.45-.105.628-.163.11.297.189.597.313.857.123.26.448.331.68-.044.231-.374.392-.424.595-.33a.853.853 0 0 1 .386.561c.004.362-.025.723-.085 1.08.476.188.896.663 1.514.059 0 0 .115-.04.123.048 1.116.749 2.64.459 3.868.926.293.115.622.357 1.073.069.224-.138.32.661.77.302l.208.082c-.124.713.831.326.744 1.124-.088.798.41.57.697.415.6.701 1.109 1.31 1.651 1.904.086.033.245.096.393-.03a.425.425 0 0 0 .139-.354 1.17 1.17 0 0 1 .067-.961.334.334 0 0 1 .233-.163.222.222 0 0 1 .191.16c-.048.122-.12.306-.058.471s.155.611.492.616.511-.152.529-.089c.146.453.59.148.826.41.49.587 1.189.565 1.842.159.139-.041.283-.056.427-.045.733.288 1.23.709.913 1.77l1.947.933.25-.635c.237.195.488.373.75.534.293.115.433-.098.528-.413.363-.168.406.441.832.326s.51.031.217.777c.293.115.683.127.867.34.446.627 1.115.325 1.69.368.11.043.313-.329.48-.503.297.368.644.694 1.03.968a4.21 4.21 0 0 0 2.089.214c.158-.009.33-.266.56-.457-.129.795.094 1.306.608 1.649.22.086.477.187.653-.082.177-.27.504-.24.779-.259.876.06 1.74-.223 2.411-.788.074 1.214 1.541.604 1.374 2.034.643-.847.643-.847 1.446-.843l-.744.71-.031.975c.173-.045.319-.058.468-.112.489-.204.963-.694 1.52-.278.122.048.355-.51.708-.188s.648.325.593.896c-.048.122.119.272.191.413l.116.244.114-.04-.305-.12a1.417 1.417 0 0 1 1.544-.593l.474.807c.694-.151 1.395.04 1.934-.652.492.292.888.758 1.346.74.458-.017.528.885 1.107.774-.048.122-.096.244-.053.388l.034-.339.101-1.372a.945.945 0 0 1 1.166-.346c.452.178.94.299 1.534.475l-.252 1.002c.073.029.142.14.22.086s.554-.262.807-.007c.343.29.773.459 1.223.48a8.065 8.065 0 0 1 2.674.697c.538.282 1.293.084 1.961.107.386.49.765.963 1.454.824-.12.098-.233.205-.337.32-.024.061-.058.146-.001.253s.161-.05.185-.111c.069-.141.127-.289.173-.44.033-.085.186-.223.223-.208l1.841.878-.002.831c.514.202.807-.402 1.16-.617.305.12.623.245.898.226.276-.019.216-.55.375-.953.694-.475 1.222.48 1.91.2l.289.988c.233.091.526.206.785-.13.112-.185.257-.348.428-.48.034-.086.278.01.355.139.076.129-.096.244-.144.367a3.73 3.73 0 0 0 -.002.436l.32-.241c.148-.125.3-.333.461-.383.482-.15.962-.258 1.441-.365.48-.108.603.01.702.656l.127.755c.226-.304.501-.567.814-.781a2.36 2.36 0 0 1 .968-.057l-.327.831.147.058.156-.828.437.468.54-.55c.197.289.239.757.659.837.171.067.231.274.071.536-.159.262 0 .254.006.383.118-.074.225-.165.317-.27.084-.155.148-.319.192-.489l.61.423.417-.415-.017 1.517c.182-.285.398-.545.643-.777.134-.089.344.022.522.035.043-.11.106-.269.045-.293-.501-.196-.37-.639-.085-1.077.296-.18.281.111.372.273.249.408.305.374.737-.331l1.25 1.309c.298-.151.617-.28.938-.45a.705.705 0 0 1 .807.063.898.898 0 0 0 .892.28c.414-.12.378.331.359.775l1.825-.158-.48 1.222a3.532 3.532 0 0 1 2.13-.574 1.499 1.499 0 0 0 1.332-.662 1.317 1.317 0 0 1 1.321.913l-.184-.072.133.165c.427.027.636-.399.91-.701l.338.937.517-.671c.271.061.549.089.827.085.283-.074.556-.18.815-.315.121.16.248.266.266.4a1.582 1.582 0 0 0 .953 1.418.614.614 0 0 1 .403.554c.038.226.151.369.39.336a.642.642 0 0 0 .536-.537c.096-.245.196-.502.257-.943l.603.801a7.933 7.933 0 0 1 4.532-.407c.723.1 1.447.159 2.328.25.278.406.44 1.217 1.196 1.302.757.086.806.105 1.874-.675.745.222.446 1.163.68 1.861l1.139-.639-.2-.713.748-1.005.543.016.031-.904c.141-.072.255-.182.316-.158l1.598.853c.479-.574 1.252-.638 1.62-1.396.367.144.344.417.134.772s-.311.47.005.707c.491-.244.701-.853 1.038-1.172.301-.039.597-.107.884-.203a1.316 1.316 0 0 1 1.889.615 7.525 7.525 0 0 1 2.78-.757c.487.375.482.965.273 1.603a2.643 2.643 0 0 0 1.982-.52l-.017.797a1.69 1.69 0 0 0 1.367.113 2.977 2.977 0 0 1 1.135-.09c.379.099.744.242 1.088.427l.657-1.026-.024.922c.428.168.467-.578.684-.592.346.4.724.771 1.131 1.107a.829.829 0 0 0 .808.063 13.37 13.37 0 0 1 2.088-.718l.05-.883c.791-.253.692.681 1.03.969l.457-.625c.378.228.791.39 1.223.48a.829.829 0 0 1 .851.743l1.524-.29c.008-.236.019-.444.018-.656.527-.301.672.264.99.46.368-.434.728-.166 1.097-.134.129.318.253.649.399.96.146.312.489.192.745.293.257.101.172.209.266.33.327.425.745.293 1.175-.047-.034-.704-1.141-.687-.695-1.824l.938-.125-.066 1.102c.323.042.643.102.96.179.241.097.474.212.697.345.451-.43.122-.742.053-1.178.599-.16 1.071-.751 1.746-.853.674-.102.721-.507.686-1.282-.011-.258-.039-.439.202-.513.241-.075.232.091.354.139.123.126.229.267.315.42l-.406 1.251c.453-.187.894-.4 1.322-.638.313-.187.46-.13.715.083s.893-.369 1.414-.009a1.197 1.197 0 0 0 1.247.024l.914-.713.053-.135-.073-.028a.953.953 0 0 1 .632-.641c.292-.097.39.337.502.338.839-.051.645.55.481 1.148a1.813 1.813 0 0 0 -.314-.207s-.136.059-.192.093c-.056.035.077.2.123.19a1.68 1.68 0 0 0 .373-.122c.085-.065.166-.138.24-.216.764-1.012 1.133-1.163 1.828-.383a1.311 1.311 0 0 0 1.223.48c-.331.124-.604.567-.988.431l-.148.379-.048.122s-.05-.09-.03-.139c.037-.112.08-.222.129-.33.575.226.575.226.975-.435-.238-.221.084-.574-.044-.822l.568-.045.26.991.959-.935.328.566c-.08.744.27.966.891.928l.778-1.585c.602.011 1.087.61 1.809.386.149-.055.342.134.489.192.361.41.75.21 1.178-.017s.617-.28.63.586l-.232-.092c-.073-.028-.158.08-.231.121l.207.265.241-.328 1.026.981 1.086-.322a1.788 1.788 0 0 0 -.19-1.852l-.028-.504 2.607-.388s.073.029.047.132c-.026.102-.034.085-.048.122l.114.214-.172-.068.087-.22c.74.164.74.164 1.435-.494.061.129.112.263.154.399.034.149.059.301.076.453l2.399.25c.756.086.756.086 1.749-.611-.237-.798-.875.108-1.318-.235l.201-1.233.87.229c.391.153.623-.221.871-.674.111.185.185.355.294.51.108.156.317.125.605-.355a3.626 3.626 0 0 0 2.68-.358l.373.414c-.144.367-.25.636.235.586.139-.03.263-.094.504-.169l-.311-.644c.292-.492.648-.789 1.144-.651l-.062.159-.264.348c.086.034.172.138.232.091a1.3 1.3 0 0 0 .32-.312l-.285-.281.852-.3.278-.709.708.066.032 1.212.244.096c.491-.64 1.111-.636 1.679-.682.271-.33.036-.451-.019-.599a3.657 3.657 0 0 0 -.286-.493c.596-.26 1.227.072 1.814-.488 0 0 .255.213.466.395l-.757.705a.766.766 0 0 0 1.077-.156 3.936 3.936 0 0 1 1.482-.829c.469-.225.887-.427 1.341-.038.255.213.72.142 1.094.162a.544.544 0 0 0 .394-.142 1.114 1.114 0 0 1 1.844.117c.318-.199.478-.715.93-.679l1 .04.596-.979c.137.069.28.125.427.168.147.058.325.001.52.007l-.293.745a1.418 1.418 0 0 0 1.954.161c.15.157.404.158.435.509.032.351.33.13.557.092.001-.508.096-1.035-.454-1.18l-.019-2.18c.549-.391 1.038-.199 1.477-.168a1.557 1.557 0 0 1 1.107-.807l-.36.917.208.082c.167-.143.322-.299.465-.467.238-.296.582-.49.959-.54.168-.057.329-.131.482-.22l.587.696a1.075 1.075 0 0 0 .762-1.295 4.073 4.073 0 0 1 1.882.273c.294.116.614-.055.873-.461.403-.632.422-.61.98-.377.113.058.232.104.354.139l.13-.33.032-.298a2.205 2.205 0 0 0 1.554.103.433.433 0 0 1 .199-.011c.067.011.13.037.184.076.233.092.346.305.585-.052.068-.171.374-.305.518-.277.458.015.907-.127 1.273-.403.133-.088.308-.175.423-.144.784.195 1.365-.423 2.026-.883l-.614-.594a1.199 1.199 0 0 1 1.554-.363l1.307.513c.099-.61.176-1.13.291-1.818l.816.545.343-.443 1.42.444c.432-.31.388-.665.22-1.098.322-.354.911-.489.906-1.196.468-.042.885-.062 1.316-.118a1.171 1.171 0 0 0 1.02-.658c.208.082.503.085.624.245.12.16.432.48.763.031 0 0 .197-.035.261.018.321.225.624-.009.708-.329a9.66 9.66 0 0 1 1.253-2.329l.521.614c1.33-.55 2.664-1.254 4.006-1.94l.477.582 1.295-.606.221-.886c.757.085.757.085 1.492-.924a1.564 1.564 0 0 0 1.773-.602 1.319 1.319 0 0 1 1.621-.534c.306.119.641-.087.929-.355.22.086.526.206.636-.146a1.968 1.968 0 0 1 1.033-1.23c.544-.309.859-1.074 1.502-1.132a.496.496 0 0 0 .106-.269c.037-.31.036-.522.421-.497.385.024.543-.196.883-.345l-.331.844c.183.072.367.143.505.113.348-.15.685-.324 1.009-.521-.194-.584-.48-1.147.211-1.652.171-.793.741-1.599.173-2.344-.085-.034.071-.396.101-.581.487-.091.189.455.516.555l1.21-.64.188.455a8.875 8.875 0 0 0 2.494-1.969 2 2 0 0 1 .218-.267c.401-.337.808-.656 1.201-.939.071-.72.625-1.053 1.007-1.523.383-.471.79-.791 1.121-1.239.332-.448.684-1.058 1.019-1.589.151-.303.342-.584.568-.835.757-.634.896-1.708 1.501-2.458.266-.319.243-.977.339-1.475a4.866 4.866 0 0 1 .841-2.393 6.253 6.253 0 0 0 1.006-1.989c.395-1.256.667-2.56.988-3.844.011-.167.034-.332.067-.496.187-.476.567-1.047.543-1.381a4.14 4.14 0 0 1 -.01-1.485c.21-1.487.328-2.987.352-4.489.342-.585-.249-.732-.266-1.12a20.682 20.682 0 0 1 .062-2.924 2.165 2.165 0 0 0 -.054-1.121c-.309-.686-.169-1.618-.643-2.242-.098-.038-.046-.314-.067-.478a38.654 38.654 0 0 0 -1.387-7.245c-.287-.959-.69-1.837-1.023-2.786-.418-1.306-.772-2.631-1.19-3.937a6.517 6.517 0 0 0 -.628-1.206c-.064-.124-.24-.179-.258-.313a8.283 8.283 0 0 0 -1.399-3.046c.028-.125.074-.244.139-.355l.964.492c.011.187-.003.365.025.546.028.18.135.052.208.081s.125-.318.058-.4c-.066-.083-.232-.091-.354-.139.235-.599-.019-.995-.358-1.029-.793-.1-1.126-.725-1.659-1.272-.164-.192-.343-.347-.491-.546s-.843-.331-.853-1.097c-.003-.495-.646-.691-.54-1.354-.686-1.525-1.155-3.275-2.863-3.776.006-.591.138-1.286-.274-1.674a2.625 2.625 0 0 1 -.61-1.537 1.748 1.748 0 0 0 -.528-1.026 4.244 4.244 0 0 1 -.834-1.47 3.804 3.804 0 0 0 -.819-1.506 9.356 9.356 0 0 1 -.751-1.071c-.504-.692-.742-1.702-1.585-2.033-.123-.048-.134-.377-.231-.528-.096-.15-.382-.644-.641-.703-.258-.059-.368-.356-.469-.636-.102-.28-.306-.12-.538-.21l-.168-1.477a1.852 1.852 0 0 0 -1.895-.744 3.219 3.219 0 0 0 -1.265-2.994c-.711-.561-1.342-1.218-2.021-1.823-.846-.756-1.692-1.511-2.574-2.21-.159-.062-.43.015-.722.041a1.617 1.617 0 0 0 -1.018-1.683l.106-.918-1.317.696c-.219-.34-.271-.783-.732-.865a.771.771 0 0 1 -.615-.877c-.008-.483-.482-.57-.831-.721a1.13 1.13 0 0 1 -.841-1.021c-.054-.473-.46-.66-1.121-1.061a2.198 2.198 0 0 1 -.491-.546l.457-.23c-.045-.102-.053-.26-.107-.267a5.714 5.714 0 0 1 -2.576-2.422c-.174-.238-.33-.595-.565-.645-1.289-.309-1.921-1.502-2.877-2.23a10.558 10.558 0 0 1 -1.561-1.163c-.434-.43-.892-.835-1.37-1.215a6.133 6.133 0 0 1 -.793-.82c-.254-.324-.575-.69-.928-.547-.734.29-.816-.687-1.379-.654 0 0-.172-.209-.19-.343-.193-1.091-1.02-1.247-1.763-1.44-.342-.134-.77.023-.857-.547a.264.264 0 0 0 -.059-.137c-.404-.3-.978-.384-1.18-.985-.201-.6-.886-.545-.92-1.25-.635-.25-.815-1.265-1.684-1.098l-.162-1.277-.822.369a.781.781 0 0 0 -.517-.41.774.774 0 0 0 -.645.137l-.169-.828c-.463.083-.938.069-1.395-.04a3.189 3.189 0 0 1 -.958-1.152 9.835 9.835 0 0 0 -2.918-2.415c-.073-.029-.231.05-.278-.01a3.17 3.17 0 0 0 -2.105-1.321c-.361-.734-1.025-.515-1.59-.37-.391-.802-.412-1.826-1.354-1.942l-.725.59.074-1.086.751-.693c-.303-.485-.681-.422-1.057-.146a1.169 1.169 0 0 1 -1.764-.213 4.706 4.706 0 0 0 -1.009-.735c-.135-.124-.416-.163-.405-.3-.01-.836-.236-.728-.819-.322-.582.406-.952.233-1.282-.686a.961.961 0 0 0 -.352-.576 3.847 3.847 0 0 0 -1.394-.547c-.851-.094-1.178-.914-1.784-1.35 0 0-.081-.186-.072-.282.105-.734-.406-.512-.689-.58l-.565.469-.099-.97a4.174 4.174 0 0 1 -1.045.112 7.88 7.88 0 0 1 -.905-.355 5.815 5.815 0 0 1 -1.213-.18 1.521 1.521 0 0 0 -1.052-.23c-.239.033-.466-.395-.709-.603l.343-.19c-.135-.053-.187-.243-.287-.24a3.943 3.943 0 0 1 -3.003-1.658 3.847 3.847 0 0 0 -1.976-1.255c-.428-.168-1.112-.042-1.069-.871a.277.277 0 0 0 -.189-.201 10.166 10.166 0 0 0 -2.526-.752c-.17.003-.369.15-.561.245-.346-.305-.714-.59-1.055-.908-.341-.317-.475-1.16-1.136-1.166-.661-.005-.867-.594-1.344-.71-1.038-.267-1.632-1.304-2.634-1.627l.003-1.41c-.136.06-.348.061-.382.147-.24.61-.636.794-1.083.675-.447-.12-1.272.079-1.698-.526a.484.484 0 0 0 -.541.013c-.733.573-1.293.24-1.922-.063.411-.544.861-.325 1.412-.292-.267-.288-.391-.548-.586-.625a17.695 17.695 0 0 1 -2.222-.774 29.56 29.56 0 0 1 -3.932-1.77.619.619 0 0 0 -.379-.148 7.594 7.594 0 0 1 -2.959-.837 23.749 23.749 0 0 1 -2.701-1.06l-1.809-.71c.209-.821.656-.378 1.141-.498a5.418 5.418 0 0 0 -.56-.586c-.184-.143-.428-.168-.585-.343a2.011 2.011 0 0 0 -1.703-.443l1.074 1.183c-.404.561-.738-.204-1.149.34.11.117.226.229.348.334.399.241.186.496-.126.825-.281-.11-.531-.336-.81-.488a13.973 13.973 0 0 0 -1.737-.893 13.379 13.379 0 0 1 -2.006-.534l-2.056-.835c.12-.306.292-.168.43-.268a.743.743 0 0 0 .211-.538.545.545 0 0 0 -.375-.373c-.408-.076-.698.375-1.043.606l.123-.6a3.778 3.778 0 0 0 -1.882-.74 3.521 3.521 0 0 1 -2.097-.696c-.147-.128-.446-.048-.678-.069-.079.562.407.4.566.787-.19.052-.379.175-.506.14l-1.602-.629-.165-1.123c-.132.047-.333.165-.368.11a3.31 3.31 0 0 0 -1.736-.823 4.588 4.588 0 0 0 -2.121-.565.188.188 0 0 1 -.134-.053c-.594-.895-1.663-.652-2.411-1.045a11.89 11.89 0 0 0 -2.57-.642c-.722-.17-1.441-.424-2.152-.661l-2.935-.969-1.039-.408a5.537 5.537 0 0 0 -1.739-.781c-.631-.009-1.184-.254-1.806-.286-.39-.012-.92.26-1.076-.422a.234.234 0 0 0 -.244-.096c-.869.561-1.461-.123-2.136-.345-.674-.223-.878-.458-1.472-.31-.594.147-.792-.212-1.175-.349-.384-.136-1.191.196-1.455-.57a.263.263 0 0 0 -.257-.102c-1.184.142-2.127-.58-3.238-.735-1.11-.154-2.209-.444-3.311-.693-.342-.134-.759.21-1.098-.078-.338-.288-.448-.332-.867-1.385l-2.095.701c-.081.208-.065.525-.23.587-.369.293-.452-.177-.648-.325l-.029.073c.356.027.413-.26.292-.492a1.191 1.191 0 0 1 .101-1.37l-.354-.464c.893-.298 1.776-.572 2.41.509.901-.86 1.655-.409 2.423-.065l.091-.232c-.435-.51-.863-1.072-1.644-.843l-2.778-1.19c.649-.393.663-.43.959-.356.632.15 1.285.32 1.907.495a.895.895 0 0 0 .935-.367.48.48 0 0 0 .136-.428.47.47 0 0 0 -.283-.35c-.501-.196-.435.535-.767.588-.331.054-.647-.112-.64-.632.053-.134-.034-.38-.112-.397-.502-.196-.858-.689-1.528-.6-.444.052-.856-.335-1.223-.48a10.497 10.497 0 0 0 -1.565.035.923.923 0 0 1 -.391-.153l-1.141-.688a.393.393 0 0 0 -.526.047c-.439.364-.635.287-.463-.365.024-.061-.175-.238-.287-.24a3.504 3.504 0 0 0 -.726.125l.11-.282a1.07 1.07 0 0 0 -.33-.13.983.983 0 0 0 .051.374s.147.057.261.017c-.164.204-.287.48-.565.47s-.736.007-1.165.022c.053.331.082.582.11.833l-.232-.091-.119.052c-.12.052.024-.061.121-.023l.208.082a2.327 2.327 0 0 0 1.922.853c.715.02 1.411.235 2.014.621-.046.476-.216.945.37.78.232.417.489.82.769 1.205a1.582 1.582 0 0 0 1.131.712c.268.034.529.108.774.22l-.953 1.46a3.367 3.367 0 0 0 -1.097-.191c-.238.033-.512.335-.727.56-.216.226-.02.373-.009.561-.014.313-.078.621-.189.913-.746-.363-1.527.008-2.264-.127l-1.743-1.812-.635.145-.295-1.117-.959.033c-.192-.302-.217-.777-.692-.823a20.429 20.429 0 0 1 -4.362-1.035 1.313 1.313 0 0 0 -.989.148c-1.447.702-1.591.673-2.862.104a1.156 1.156 0 0 0 -.662-.147 1.182 1.182 0 0 1 -1.222-.48 1.315 1.315 0 0 0 -.806-.5c-.866-.128-1.731-.298-2.67-.385-.522-.036-.893-.421-1.393-.547a6.084 6.084 0 0 0 -2.101-.148 5.06 5.06 0 0 1 -.719 0l-.635.682c-.11-.043-.244-.025-.281-.11a1.68 1.68 0 0 0 -1.5-.886 5.545 5.545 0 0 1 -1.19-.311l2.126-.492.39.731.544-.632.924.235c.061-.13.114-.265.158-.403.225-.574.254-.648-.205-.772l-.379-.148a.65.65 0 0 1 .053-.135c.072-.183.173-.44-.137-.477a.274.274 0 0 0 -.197.177.301.301 0 0 0 .257.425c.032.024.07.038.11.043a3.895 3.895 0 0 1 -.676.285 3.299 3.299 0 0 1 -.99.077c-.735-.105-1.508.536-2.235.195a.577.577 0 0 0 -.42.568l.709.35-.48 1.221-1.051-.737c.109-.24.168-.5.173-.764-.047-.202-.29-.34-.478-.47a.71.71 0 0 0 -.379-.149c-.241.004-.494.145-.699.093-.261-.082-.5-.22-.703-.403a6.107 6.107 0 0 1 -.52-.543c-.138.172-.252.282-.341.402-.09.12-.077.196-.216.297-.49-.08-.589-.726-1.035-.957l-1.248-.702c-.406.208-.724.802-1.265.745-.123-.048-.34.22-.505.352-.631.528-.619.533-1.191-.058a.375.375 0 0 0 -.33-.13c-.139.03-.262.165-.461.313l-.069-.902a1.758 1.758 0 0 1 -.507-.002c-.343-.134-.674-.405-1.027-.403-.354.002-.672-.193-1.073.002-.359.15-.754.196-1.138.132a22.988 22.988 0 0 1 -2.826-.672 2.751 2.751 0 0 0 2.058-1.647c.763.032 1.588-.166 2.231.354a.356.356 0 0 0 .256.1l1.161-.334c-.367-.61-.996-.264-1.479-.58l.181-1.072c.061.024.192-.094.236-.062a1.12 1.12 0 0 0 1.175.277c.269-.078.556-.06.812.051a.83.83 0 0 0 .94-.237c.259-.265.503-.382.789-.213l.02.812-.939.45-.624 1.053c.171.067.301.273.46.265 1.273-.003 2.537.22 3.732.661.472.065.952.005 1.394-.172.098.038.213-.326.377-.6.057.248.087.387.105.521.156 1.077.56 1.377 1.469.93.292-.192.632-.298.981-.307.716.55 1.548.368 2.503.236l-.782-1.098c.388-.412.784-.13 1.247-.23l-.037 1.03c.489.262 1.123-.166 1.451.4l.311.25.11.042c.037.015-.031-.21-.072-.211a1.46 1.46 0 0 0 -.403-.017c.274-.697-.382-1.039-.186-1.682-.513.194-.673-.476-1.137-.446a4.934 4.934 0 0 1 -1.128-.217c.25-.636.675-.172.969-.382.079-.49-.366-.326-.513-.525a2.773 2.773 0 0 0 -.553-.64 1.05 1.05 0 0 0 -.679-.14c-.765.08-1.496.217-2.3.324l.047.85-.701.205c-.047-.131-.124-.26-.092-.304.139-.354.481-.615.31-1.077a1.31 1.31 0 0 1 .224-1.111c.359.056.71.025.933.464.222.44.334.371.836-.334.889.109 1.724.677 2.84.17l-.368-.68c.573-.383 1.399-.439 1.517-1.493.623.245 1.371.1 1.293 1.27l1.089.173-1.124.814c.126.219.161.416.266.471.602.359 1.224.683 1.862.971.941.37 1.074.535 1.067 1.703-.038.098-.077.195-.036.451l-.894-.238.386-.554c-.134-.123-.299-.385-.385-.348-.532.242-.861-.07-1.289-.309a1.93 1.93 0 0 0 -.645-.154c.165.981.17.969.807 1.036.079.024.157.055.232.09-.312.795.507.722.654 1.174.227-.1.467-.167.713-.2.322.024.642.074.957.15l-.419 1.713c.323.148.653.278.99.388.282.11.436-.21.553-.474.285.21.455.602.937.453.482-.15.637.066.957.079 0 0 .15-.096.272-.19l-.395-.719-.93.284-.308-1.263c.067-.172.024-.386.043-.576.11.135.23.262.358.38l.241-.074c.08-.025-.104-.239-.202-.277-.097-.038-.258.011-.399.012-.142.001-.244-.35-.211-.506.145-.62-.277-.659-.542-.847.101-.257.84-.164.288-.733a1.18 1.18 0 0 1 1.216-.186c.52.194 1.076.273 1.63.23.831-.068 1.519.371 2.341.327l.099 1.04 1.755-.876c.939.537 1.991.849 3.071.91-.213-.86-.774-1.264-.998-2.057l1.303.272.892 1.323-.575.17c.453.572.453.572 1.467.18.072.236.179.459.319.661a.51.51 0 0 0 .464.183c.307-.063.371-.334.342-.656a1.46 1.46 0 0 1 .14-.354l2.297.507c.043.61-.398.295-.625.516l.33.524-.748.469a.824.824 0 0 0 .817.504c1.777-1.22 2.497-1.22 3.731.054l.538-.184c.19-.052.383-.075.597-.118-.136-.66-1.09.01-.952-.952a2.363 2.363 0 0 1 1.582-.042c.147.057.45-.176.597-.372.148-.196-.063-.378-.094-.587 1.153-.493 1.153-.493 1.327 1.184a5.213 5.213 0 0 1 -.4.407c-.152.137-.32.24-.48.361-.16.12.084.217.153.258.704.37 1.485.57 2.281.585.285.017.563.088.821.21a2.796 2.796 0 0 0 2.074.25c.024-.062.231-.05.246-.017.223.582.844.332 1.16.64.266.226.547.436.841.625l-.961 1.19c-.215.225-.683-.382-.753.409-.032.297-.211.143-.336.136a1.086 1.086 0 0 0 -.736.402c.281.11.453.248.623.245a13.13 13.13 0 0 1 3.025.524c.195.077.513.202.568.35.178.733.833.68 1.24 1.01-.091.231-.409.431-.427.621-.019.19.251.367.511.314l.704-.175-.384.978-.546.025c.134.448.134.448.491.546l.037-.635.526.207c-.043.576-.039 1.141.646 1.085a.915.915 0 0 0 .243-.116l-.378-.726.81-1.093.171.067.314.674c.283.717.52.867 1.151.663.257-.09.51-.193.756-.31-.16-.599-.398-.89-.919-.784-.186.04-.392.1-.453-.178-.167-.615-.669-.559-1.116-.748-.448-.19-1.005.043-1.476.38.13-.655.08-.815-.311-.644-.392.17-.344-.023-.489-.122.02-.444.264-.672.587-.63.691.111 1.376.263 2.051.452 1.27.358 2.521.765 3.796 1.11.327.041.658.043.985.006l-.604-1.084c-.175-.308-.3-.315-.695.01-.686.562-1.457.514-1.592-.33a1.078 1.078 0 0 0 -1.016-1.005 19.807 19.807 0 0 0 -2.243-.288.83.83 0 0 1 .81-.302c.454.065.453-.937 1.033-.653.412.107.837.16 1.264.158.443.034.88.134 1.294.296a3.795 3.795 0 0 0 2.688.124 1.04 1.04 0 0 1 .947.5c.168.29.209.688.674.475 0 0 .238.291.249.479a3.82 3.82 0 0 1 -.109.817l.033-.085c-.16-.275-.364-.44-.709-.278l-1.163.446c.128.33.293.646.492.94.256.271.566.485.911.626.379.149.83.114 1.223.227 1.69.354 3.358.81 4.993 1.367.578.264 1.222.35 1.85.247l.023-.993-2.666-.863-.808.656c-.49-.799-1.309-.26-1.684-.562-.343-.67-.607-1.113-.785-1.592-.179-.48-.489-.192-.745-.222l-.117-.638c.452-.613.759.368 1.185-.071a2.43 2.43 0 0 0 1.643.236c.333-.095.672.263 1.075.422l-.434.746c.374.486.929.365 1.441.425.501-1.059 1.222-.451 1.874-.675.067-.171.021-.486.125-.572.276-.186.577-.334.892-.44.041.651.804.612.658 1.416-.034.085.275.234.434.297l2.285.897.288-.733 2.194.593-.441.8.454 1.25c-.581.619-.769.63-.982.095-.084-.217-.135-.448-.299-.964l-.398 1.014c-.331.124-.652.224-.963.37a.428.428 0 0 1 -.346.017.418.418 0 0 1 -.241-.247.608.608 0 0 0 -.465-.183c-.097-.038-.328.083-.345.16-.017.08-.012.391.074.425a7.063 7.063 0 0 0 1.552.61c1.455.303 2.877.748 4.246 1.328.074.029.092.163.151.299-.332.307-.626.84-1.051.772-.747-.11-1.655.408-2.307-.412.414-.444.907-.01 1.238-.459.034-.085.082-.208-.018-.275-.555-.599-1.314-.248-1.944-.368-.541.803.003 1.143.137 1.591.135.448.752.169 1.223.48l-.867.59c.666.136.963.817 1.735.682l-.098-.97c.994-.089 1.698.526 2.531.74.379.149.77.373 1.224-.027a4.517 4.517 0 0 0 3.024.849l-.231-.994-1.07.102c.207-.526.633-.57.914-.854.527.094 1.023.232 1.528.275.135.053.338-.178.523-.288-.075-.17-.105-.38-.211-.506-.105-.126-.358-.38-.539-.353-.18.028-.426-.026-.429-.38-.002-.354-.731-.4-.628-1.023a1.903 1.903 0 0 0 -.407-.004c-.76.21-.76.21-1.104-.603a1.302 1.302 0 0 0 -.204-.235l-1.868.014.216-.55a4.126 4.126 0 0 1 3.186.15c.498.238 1.013.44 1.54.605l.829-.817c.33.13.693.103.621.681.012.232.06.46.143.677.413-.007.252-.353.37-.475.119-.123.316-.23.367-.18.052.048.535.435.5.633a.764.764 0 0 0 .326.896c.099.06.209.096.324.107 1.469.21 2.648 1.195 4.086 1.449.141.021.284.03.427.026l-.059-.926c.672-.06 1.38.076 1.485.78a1.31 1.31 0 0 0 1.33 1.284l.463.041c.088-.119.169-.242.244-.37.221-.562.444-.7.769-.558.412.165.801.38 1.16.639a.71.71 0 0 0 .791.141s.217-.014.22.086c.359 1.171 1.163-.051 1.636.29.36-.917-.712-.45-.466-1.185a2.628 2.628 0 0 1 1.841.808c-.168.428-.34.868-.428 1.341-.097.033-.189.123-.267.107-.42-.08-.826-.197-1.28-.333a.997.997 0 0 0 -1.099.175l.231.923c-.196-.077-.256.111-.206.272.05.16.205-.019.31-.034.104-.015.183.143.244.096a2.273 2.273 0 0 1 2.101-.177c.428.168.931-.072 1.335-.491l.808.063c.108.193.188.4.238.615a.879.879 0 0 0 .664.896c.854.124 1.394.942 2.269.975.11.044.218.199.331.2.112.002.626-.05.989-.076l-.199-.714a8.333 8.333 0 0 1 1.051-.377c.098.11.22.157.216.24.016.57.068 1.085.552 1.36.184.072.263.371.406.582l1.675-.457c.388.449-.15.886-.089 1.376l1.406.552c.276.165.537.352.781.56.33.13.212.324.126.614-.201.514.145.494.493.434l.106-.918-.725-.13c.211-.284.452-.612.097-.822-.354-.21-.805-.429-.83-1.045.913-.601.913-.601 1.476.227l.422-.752c.55.146 1.2.034 1.601.629a.424.424 0 0 0 .367.144c.702-.063 1.064.417 1.353 1.01-.781-.49-1.771-.483-2.543-.997-.085-.034-.32.17-.483.261.377 1.77.646 1.947 2.141 1.518a1.04 1.04 0 0 1 .294-.068c.39-.059.38-.5.556-.77.171.068.391.154.473.27.254.538.443 1.134.708 1.788.727-.448 1.302.71 2.12-.296.316.632.59 1.12 1.211 1.012a.987.987 0 0 0 .419-.132c1.052-.56 1.04-.565 1.394.293l-.732.39c.038.156.046.314.088.317a2.063 2.063 0 0 1 1.887 1.516.954.954 0 0 0 .528.631.74.74 0 0 1 .415.346 2.922 2.922 0 0 0 1.952 1.317 3.283 3.283 0 0 1 1.938 1.17c.364.368.417.375 1.381.076a1.052 1.052 0 0 1 -.773 1.107l.725.525c.335-.207.302-.77.666-.726.363.044.691.074.733.288.187.637.616.623 1.151.663.253 0 .476.187.778.137-.279-.294-.736-.388-.703-1.01.265-.066.653-.012.83-.21.331-.378.625-.263 1.049-.337-.154.392-.293.746-.347 1.134-.053.388-.216.55.044.75.35 1.013 1.288 1.212 1.935 1.79.02.417-.329.407-.563.682.042.214.02.558.146.706a.697.697 0 0 1 .181.833c-.058.147.097.363.149.553.156-.109.304-.234.471-.337.093-.058.188-.11.287-.156l-.019.768c.544.806 1.835.213 2.082 1.523l.743-.526c.187-.477-.565-.645-.145-1.214.024-.06-.138-.365-.278-.476s-.561-.333-.794-.565c-.233-.233-.056-.361-.084-.612a1.93 1.93 0 0 1 1.222.48.96.96 0 0 0 1.195-.025 8.843 8.843 0 0 1 1.702-.742l-.156 1.547-1.392-.406-.072.184c.331.329.679.64 1.044.932.147.057.428.168.522.035.624-.799 1.281-.245 1.877-.504a2.007 2.007 0 0 1 .479 1.98c-.084.454-.339.859-.712 1.13.292.298.574.226.852-.159s.57-.481.872-.208c-.144.762-.112.788.809.417.589.908 1.639 1.18 2.441 1.833l-.342.33c-.043.11-.247.27-.296.252a1.113 1.113 0 0 0 -1.371-.101l-.205 1.132.596.53c.118.213.273.403.457.561.72.395 1.466.759 2.195 1.13.575-.424.575-.424 1.51-.254.009-.49-.316-.561-.626-.669s-.567-.138-.599-.235c-.068-.76-.544-.877-1.011-1.018-.467-.14-.687-.622-.637-1.252a1.545 1.545 0 0 1 1.263.736l.868-.703.746.293c.574.225.909 1.062 1.736.681 0 0 .216.24.19.343-.124.37-.267.733-.428 1.088.395.253.77.556 1.295.296a.604.604 0 0 1 .757.227c.118.131.047.526.059.785.603.547.603.547 1.208.121-.462-.082-.807-.316-1.252-.082l.148-.054c.785-.525 1.004-.58 1.657-.338.244.096.445-.488.762-.18.297.28.63.519.989.713.758.527 1.47 1.118 2.128 1.766l.69-.463c.979.201 1.315 1.321 2.099 1.84a2.11 2.11 0 0 0 1.004 1.396c.268.27.499.575.688.905l-.481.94 1.222.48.471-.662 1.734 1.189c-.055.895.662 1.332.714 2.17.011.258.183.467.292.693l-.563-.362a.155.155 0 0 0 -.043.11l-.043.11.657.16c.128-.077.286-.227.359-.198.34.161.668.346.982.554.379.254.836.364 1.289.31.639-.046 1.414-.01 1.693.79.039.115.329.06.488.122.116.01.226.053.318.125.312.39.312.39.727.412.254.535.567 1.04.931 1.508.41.43.318 1.24.8 1.556.122.048.127.36.145.564.068.69.387 1.027 1.006 1.03 1.651 0 2.393.77 2.571 2.688.024.233.06.464.109.692l1.381.077c.006.27-.074.69.049.809a2.046 2.046 0 0 1 .672 1.449.58.58 0 0 0 .859.506 1.46 1.46 0 0 1 1.468.252 2.388 2.388 0 0 0 1.64 1.462l.843.26c-.008.632.035 1.17.716 1.269a1.92 1.92 0 0 1 1.593 1.726c.091.416.127.826.524 1.038.396.212.74-.16 1.105-.3l.293.115-.24.612a1.199 1.199 0 0 0 .221 1.342c.393.436.774.868 1.198 1.26a.568.568 0 0 0 .489.192 1.077 1.077 0 0 1 1.096.515c.425.533.889 1.04 1.336 1.554l.696-.192a3.94 3.94 0 0 1 1.623 2.048c.065.194.2.389.165.586-.104.623.218.918.505 1.229.287.31.782.307.747.97-.038.098.265.26.422.293a.697.697 0 0 1 .667.67l-.455.443a.434.434 0 0 0 .029.321c.197.29.5.521.578.862a1.733 1.733 0 0 0 1.694 1.47c.412.711.448 1.699 1.305 1.922.159.063.205.448.341.642.312.461-.093 1.459.722 1.539.245.562.468 1.143.742 1.702.114.327.311.618.571.845.505.297.345.954.582 1.357s.857.619.987 1.079c.329 1.822 1.576 2.777 2.438 4.103.104.167.312.32.298.498.001.594.202 1.17.572 1.635.218.52.389 1.059.51 1.611.443.885.756 1.83.93 2.805 1.097 1.052 1.106 2.861 1.826 4.188.436 1.13.782 2.294 1.032 3.48.517 1.487.477 3.206.976 4.7a20.86 20.86 0 0 1 .87 4.432c.044.427.049.88.128 1.292.033.526.143 1.045.327 1.539a2.34 2.34 0 0 1 .02 1.602 1.746 1.746 0 0 0 .047 1.712c.1.183.175.378.223.581a5.186 5.186 0 0 0 -.168 2.332c.142.656.159 1.333.05 1.995-.14.678-.134 1.203.363 1.553a6.853 6.853 0 0 0 -.667 1.304 6.631 6.631 0 0 0 -.101 1.371c-.069 1.073-.132 2.134-.243 3.206a8.204 8.204 0 0 1 -.364.929c-.221.562-.312 1.189-.435 1.79-.123.6-.116 1.012-.249 1.496a230.66 230.66 0 0 1 -1.47 4.967c-.255.648-.514 1.308-.636 1.979a2.251 2.251 0 0 1 -.621 1.365.79.79 0 0 0 -.28.426 7.545 7.545 0 0 1 -1.201 2.773 12.755 12.755 0 0 1 -1.279 2.573 6.412 6.412 0 0 1 -1.475 1.89 7.403 7.403 0 0 0 -2.242 2.872 6.466 6.466 0 0 1 -1.661 2.254 2.722 2.722 0 0 0 -1.178 1.851c-.211.143-.318.27-.384.259-.701-.191-1.233.051-1.574.919a3.966 3.966 0 0 1 -.201.514c-.286.297-.526-.207-.798.378a7.608 7.608 0 0 1 -1.268 1.576 1.451 1.451 0 0 1 -.509.364 8.42 8.42 0 0 0 -3.308 2.496 6.67 6.67 0 0 1 -1.25.92 2.658 2.658 0 0 0 -.572.523.885.885 0 0 1 -.614.45c-.804.108-1.613.228-2.448.45-.24.056-.464.164-.657.318-.192.154-.347.35-.454.572-.125.318-.347.597-.569.947-.557-.091-1.081.705-1.725.226-.248-.196-.84.164-.962.652a2.342 2.342 0 0 1 -1.355 1.584c-1.011.563-2.047 1.045-3.082 1.527-.35.193-.728.33-1.119.407-.239.033-.212-.252-.062-.49.15-.237.484-.515.836-.871-.724.154-.724.154-.814.922-1.088-.427-1.088-.427-1.964.908l.444.414c-.362.239-.711.624-.95.586-.898-.155-1.506.495-2.192 1.129a13.68 13.68 0 0 1 -1.894 1.231c-1.2-.287-1.319-.235-2.628.478-.677.366-1.38.679-2.104.938-.438.11-.89.161-1.342.15-.498.369-.965.947-1.43 1.018-.989.148-2.049.691-3.035.22l-.556 1.093c-.464.213-.562-.22-.868-.34l-.529.737-1.174-.602a2.623 2.623 0 0 1 -2.476 1.849 2.05 2.05 0 0 0 -1.392.456c-.354.326-.612.013-.876-.175a6.266 6.266 0 0 1 -.865.803 3.011 3.011 0 0 1 -1.273.474 2.187 2.187 0 0 1 -1.501-.237c-.54-.494-1.209-.009-1.736-.286 0 0-.177.127-.198.218a.261.261 0 0 0 .07.253c.122.048.327.03.379.149s.026.363.04.58c-.904-.214-.93-.182-.859.608a3.627 3.627 0 0 0 -.928.242 3.414 3.414 0 0 1 -2.215.541.659.659 0 0 0 -.39.129c-.857.567-.991.585-1.944.21-.245-.096-.245-.096-.77.488l-1.556-.456c-.111.24-.251.464-.418.669-.346.343-.683.662-1.168.387-.485-.274-.403-.158-.603.638l-.979.265a1.303 1.303 0 0 1 -1.224-.114c-.277-.193-.709-.278-1.01.309a1.426 1.426 0 0 1 -.082.208l-1.01.703a3.166 3.166 0 0 0 -2.249-.163c-.787.049-1.577.014-2.356-.107l-.109-.55-.459.342-1.264.237c-.037.634-.124 1.178-.713 1.385-.741-.376-.741-.376-1.7-.16-.098.032-.21.03-.292.097-.342.331-.675.497-1.023.162-.11-.043-.257-.1-.413-.063l-.092-.628-.122-.048c-.049-.02-.096.244-.105.269l.373.414c-.631.528-1.283.357-1.936.439a4.195 4.195 0 0 1 -.844-.077c.254-.648-.15-.877-.571-1.17a2.275 2.275 0 0 0 -1.434.636l.74.7a3.108 3.108 0 0 1 -1.943.747 6.567 6.567 0 0 0 -3.044.568 1.491 1.491 0 0 1 -1.225-.114l.11-.281-.159-.063.107.268a.701.701 0 0 1 -.61.438 8.083 8.083 0 0 0 -2.001.103c-.375.092-.762-.215-1.265-.37-.683.804-1.621.535-2.295.707-.197-.218-.323-.507-.489-.516-.597-.023-1.182-.224-1.835.182-.223.138-.541.014-.717.029-.41.291.017.712-.374.954-.391.241-.503.31-1.124-.047l.784-1.314c-.442.264-.581.364-.722.436s-.297.039-.433.098c-.169.099-.331.21-.483.332-.11-.043-.257-.101-.347-.051-.09.049-.096.244-.149.379-.052.134.184.072.259-.012.096-.108.181-.226.251-.352l.439.426-.474.886c-.33-.13-.496-.463-.921-.207-.478.247-.98.442-1.498.583-.305-.303-.415-.741-1.033-.532a6.055 6.055 0 0 1 -2.041-.012l-.441-.709-1.457.119.383-.724-.416-.163c-.371-.456-.371-.456-.701.134l.029-.074a1.513 1.513 0 0 0 -1.501.229 2.646 2.646 0 0 0 -.57.553c-.374.558-.699 1.136-1.059 1.728-.2-.01-.401-.004-.6.018-.2.065-.396.144-.586.236l-.2-.713c-.394.141-.782.483-1.271.291a5.665 5.665 0 0 0 -2.655-.422.691.691 0 0 1 -.418-.051 1.316 1.316 0 0 0 -1.91.266l-.398-1.215c-.131.048-.353.073-.386.159-.25.636-.57.947-1.139.78-.245-.096-.475.025-.629.346a.823.823 0 0 1 -.318.341c-.793.295-1.581.183-2.374.478-.309.105-.672-.264-1.027-.403l-.452-.178a4.455 4.455 0 0 1 -.543.521 1.036 1.036 0 0 1 -.81.252 1.022 1.022 0 0 1 -.723-.445c-.189-.272-.305-.444-.667-.347 0 0-.282-.251-.286-.422.013-.573-.194-.908-.619-1.047-.366.251-.109.493-.097.752-.683.48-1.095.092-1.524-.359l-1.024.487c-.134-.053-.244-.096-.245-.237a2.872 2.872 0 0 0 -.104-.634.422.422 0 0 0 -.685-.268c-.257.153-.517.347-.799.49-.573.311-.619.321-.953-.374a.577.577 0 0 0 -.537-.394c-.383.005-.763.039-1.314.076-.435-.255-.934-1.213-1.872.027l.866.453-.115.293c-.721.578-1.516.52-2.275.729a.379.379 0 0 1 -.379-.078c-.322-.437-.697-.273-1.154-.114s-.913.276-1.29-.309c-.152-.257-.66-.259-1.066-.052-.215.55.351.364.458.631 0 0-.072.184-.155.179-.373.052-.789.213-.861-.465-.016-.175-.307-.332-.512-.384a3.147 3.147 0 0 0 -.856-.012 3.576 3.576 0 0 0 -.3-.71c-.101-.138-.285-.281-.475.025a1.311 1.311 0 0 1 -1.562.6l-1.035-.237c-.106-.845-.978-.708-1.257-1.326a4.506 4.506 0 0 0 -1.558.052 1.31 1.31 0 0 0 -.659 1.067c-1.441.76-2.333-.239-3.342-.903-.343.515-.572.128-.848.006l-.717.748c-.235-.515-.025-1.195-.388-1.563a2.783 2.783 0 0 0 -.444-.343 3.017 3.017 0 0 0 -.681-.169.696.696 0 0 0 -.419.061c-.18.099-.337.248-.488.345-.067.636.338.612.619.722.281.111.798-.307 1.075.281a4.222 4.222 0 0 1 -3.557-.606c-.624.404-1.307.813-1.985.278-.111-.043-.283.002-.406-.046-.415-.163-.756.634-1.207.274-.451-.361-.838.122-1.26.225-.421.102-.693.221-.921-.277l.806-.291.435-1.395c-.416-.163-.322.424-.6.414l-.22-.482-1.249.667-.162-1.206a8.364 8.364 0 0 1 -.952-.233.68.68 0 0 0 -.823.156c-.383.4-.519.064-.815-.08a2.076 2.076 0 0 0 -2.542.187l-.14.354c-.159-.062-.406-.258-.458.018-.185.83-.701.924-1.264 1.027a9.079 9.079 0 0 0 -.798-1.202c-.299-.315-.965.087-1.136-.699.474-.238.806.175 1.211.15.404-.024.732.147 1.08-.38a1.314 1.314 0 0 0 -1.454-.571 2.285 2.285 0 0 1 -1.65-.111 1.616 1.616 0 0 0 -.834-.031.941.941 0 0 0 -.412.402c.166.404-.103.552-.316.807s-.178.452-.269.684c0 0-.073-.028-.202.048-.236-.657.37-1.265.476-2.112a10.181 10.181 0 0 1 -2.023 1.561c-.147-.057-.404-.624-.714-.59-.309.033-.61-.494-.99-.389-.429.134-.847.3-1.252.496-.081-.441-.3-.64-.72-.466-.944.391-1.776-.077-2.656-.098 0 0-.019-.275-.015-.429a1.825 1.825 0 0 0 1.176-.949c-.127-.431-.471-.453-.805-.429a3.34 3.34 0 0 1 -1.748-.432c-.888-.433-1.834-.72-2.751-1.08-.426.369-.854.596-1.346.304s-.721.182-1.067.597c-.73-.118-1.491-.586-2.187.326-.239-.291-.498-.421-.169-.757a.75.75 0 0 0 .154-.392.848.848 0 0 0 -.501-.196c-.086-.034-.246.157-.359.268-.381.358-.743.597-1.133.19-.086-.034-.358.156-.538.184-.211.03-.425.031-.636.004l.284-1.299c-.085-.034-.114-.214-.192-.231-.464-.182-1.031.075-1.493-.219-.098-.039-.336.207-.52.318.068.365-.477.603-.288 1.057.507-.322.163-.74.293-1.07l1.01 1.667-.477.532a2.087 2.087 0 0 0 -1.445-.666 13.275 13.275 0 0 1 -2.034-.39c-.355-.139-.374-.485-.299-.963-.822-.098-1.527-.854-2.49-.089.232-.375.475-.745.712-1.131.293.115.611.169.928.223s.95-.192.965-.553a.656.656 0 0 0 -.723-.565c-.11-.044-.31.033-.39.129-.217.267-.423.215-.671.202-.249-.013-.661.065-.995.089a1.957 1.957 0 0 0 .211 1.62c-.024.061-.136.13-.195.135a3.213 3.213 0 0 1 -.48.038l.039-.747c-.843-.331-1.65-.648-2.492-.837-.563-.221-1.187-.283-1.771-.413-.257-.101-.214-.282-.127-.502l.052-.134a.207.207 0 0 0 .034-.086.585.585 0 0 1 -.058.147l-.121.093c-.136.06-.265.136-.396.183-.467.184-.605.031-.479-.54l.148-.379-1.054-.513a7.985 7.985 0 0 1 -.316.807c-.072.183-.283.397-.412.402-.13.006-.309-.22-.317-.378-.009-.158.015-.685-.361-.734s-.621-.611-1.151-.339c-.294.138-.459.666-.884.457a2.248 2.248 0 0 0 -.823-.097c-.03-1.254-.355-1.466-1.555-1.034-.351.426.317.773-.063 1.202-.648-.72-.648-.72-1.552-.609a2.376 2.376 0 0 0 -.515-.809c-.221-.157-.564-.108-.862-.14.437-1.113.437-1.113-.203-1.604l-.51-.821c-.122-.048-.201-.206-.316-.237s-.206.131-.306.205.102.209.148.199c.174-.057.343-.128.506-.211l-.485.91-.148.379c-.448.206-.835.223-1.119-.241a.853.853 0 0 0 -1.088-.427c-.55.179-1.017-.498-1.616.056l-1.689-.225c-.245-.167-.04-.834-.5-.916l-.749-1.112a4.713 4.713 0 0 1 -1.602.09c-.599-.235-1.352.175-1.867-.38-.229-.245-.79.395-.941-.299-.15-.694-.672-.264-.935-.494a1.677 1.677 0 0 1 -.39-.802c-.12-.343-.154-.723-.243-1.069l-.245-.096a.326.326 0 0 0 -.226.179 5.95 5.95 0 0 0 -.146.662c-.095.457-.245.624-.592.501a2.307 2.307 0 0 0 -.746-.292.84.84 0 0 0 -.916.896c-.034.085-.186.223-.363.421a2.964 2.964 0 0 1 -.38-.685c-.085-.407-.15-.819-.193-1.233-.728-.158-.973-1.115-1.88-1.104l-.273.696a.428.428 0 0 1 -.48-.081.42.42 0 0 1 -.095-.144c-.15-.553-.297-1.005-.925-.843l-.244-.096c-.12-.95-.835-.962-1.43-1.21-.158-.062-.238-.362-.532-.872l2.175 1.037c-.15-.623-.226-1.005-.331-1.385-.035-.127-.139-.294-.222-.299-.539-.028-.112-.862-.552-.964l-.122-.048a1.464 1.464 0 0 0 -.278.06l-.23.587c-.966-.379-.966-.379-.843-1.446.057-.541.057-.541-.34-1.219l-.428.156a2.442 2.442 0 0 0 -.026-.292s-.11-.043-.13-.136-.077.196-.006.266.159.062.232.091l-.23.333-.715.566c-1.063-.418-2.4-.209-3.49-.919-.22-.157-.634.033-.956.062-.454-.461-.79-1.114-1.581-1.002-.159.008-.343-.134-.454-.319a3.2 3.2 0 0 0 -1.638-.643.393.393 0 0 0 -.407.167.386.386 0 0 0 -.054.146c-.105.269.076.382.3.385.175-.026.353-.013.522.036.086.034.09.275.147.453-.529.413-.961-.067-1.355.216a1.866 1.866 0 0 0 -2.296-1.015c-.455-1.067-1.515-.919-2.432-1.279-.032-.492-.64-.703-.567-1.394.412.317.636.25.765-.08.326-.831.015-1.405-.741-1.49-.17.015-.337.054-.497.115l-.475-.694c-.073-.029-.096-.221-.175-.238a3.165 3.165 0 0 1 -1.913-1.343c-.413.514-.131.766-.11 1.071.022.304.026.546.047.78-.259.335-.495.327-.65.111a2.438 2.438 0 0 0 -1.227-.721l-.669 1.021a7.531 7.531 0 0 0 -.918-.177 7.08 7.08 0 0 0 -.872.067c-.005-.383-.002-.678-.016-.966s-.06-.531-.093-.841c-.66-.259-1.24.177-1.747.641-.478-.329-.42-.871-.457-1.351-.026-.221.02-.485-.063-.631a.997.997 0 0 0 -.564-.503c-.147-.058-.398.295-.575.493-.076.124-.13.261-.158.404-.958.103-.422-.829-.562-1.265-.266-.005-.462.637-.713.2a.475.475 0 0 1 .027-.577.473.473 0 0 1 .164-.124c.113-.101.208-.222.28-.355-.295-.328-.915-.078-.941-.765.024-.061-.245-.096-.342-.134a.567.567 0 0 1 -.66-.442c-.253-.862-.946-.823-1.578-.902l-.317.27.04-.859a13.17 13.17 0 0 0 -2.366-1.733 13.78 13.78 0 0 1 -2.25-1.673c-.195-.077-.143-.353.014-.573.291.234.628.404.988.501.693.032.933.535 1.08 1.2 1.028.079 1.977.465 3.007-.47a.997.997 0 0 0 -.802-.654c-.551-.103-1.077-.31-1.62-.438a2.989 2.989 0 0 1 -1.421-.869 3.45 3.45 0 0 0 -1.612-1.07c-.305-.12-.448-.331-.44-.709a.643.643 0 0 0 -.086-.287.987.987 0 0 1 -.173-.816c-.078-.411-.716.171-.689-.51.275-.16.579-.323.868-.52a.386.386 0 0 0 .115-.293.735.735 0 0 0 -.205-.377c-.324-.254-.636.075-.896.269l-.567-.674-.048.122.38.827c-.12.093-.2.189-.26.194-.058.005-.37.01-.407-.075-.189-.526-.759-.439-1.007-.847 0 0 .038-.098-.038-.156s-.075-.241-.14-.253c-.925-.053-1.145-1.253-1.992-1.431a6.618 6.618 0 0 0 -.771-.048l-.178-1.128c-.256.04-.545.167-.775.105s-.319-.337-.493-.504c-.174-.168-.45-.29-1.414.009a.677.677 0 0 1 -.268.035s-.074-.028-.114-.143l.336-.855c-.028-.181-.011-.329-.063-.378-.578-.467-.721-1.468-1.559-1.599l-.46-1.451c.12-.127.23-.263.329-.407.065-.129.118-.264.158-.403-.122-.048-.33-.129-.38-.036-.252.352-.464.749-.734 1.221a6.372 6.372 0 0 0 -1.802-1.483c-.496-.28-1.25-.407-1.245-1.392l-1.445-1.456.033-1.271c-.21-.181-.412-.387-.64-.561a.457.457 0 0 0 -.66.065c-.366.392-.487.232-.514-.202 0 0-.052-.119-.069-.112a.918.918 0 0 1 -.91-.484 7.131 7.131 0 0 1 -.494-.97l-.77.954c-.727-.483-1.213-1.365-2.215-1.364l-.156-1.472-.758.281a3.29 3.29 0 0 1 .283-.721 1.592 1.592 0 0 0 .394-2.046c.309-.429.546-.35.801-.137s.205.377.53.053a2.032 2.032 0 0 0 -.83-1.087.553.553 0 0 1 -.338-.613c.034-.085-.064-.265-.106-.267-.904.11-.987-1.079-1.695-1.287-.034-.704-.547-.764-.953-.952a.264.264 0 0 0 -.134-.053c-.636.004-.842-.838-1.374-.92a3.032 3.032 0 0 1 -1.393-.547c-.11-.043-.102-.28-.152-.441l-.024.062 2.303-.154a3.096 3.096 0 0 0 -.381-.573c-.184-.214-.422-.363-.59-.584-.166-.221-.07-.395.207-.526l.658-.418.038.226.117-.081-.063-.236c.576.367.627.344.744-.385-1.137-.052-1.137-.052-1.496.936l-.576-.509.225-.574a7.153 7.153 0 0 1 -.95-.528 5.256 5.256 0 0 1 -.627-.881l-.485.839-1.083-.51c-.072-.536-.153-1.118-.189-1.71-.035-.593.553-.545.413-1.051a5.444 5.444 0 0 1 -.01-1.02l-.488-.192.206-.92s-.054-.149-.072-.141l-.98.447c-.213.833.63 1.164.566 2.155l-1.179-1.563c.159-.403.01-.673.011-.997a1.735 1.735 0 0 1 .48-1.223c.617-.35.439-.829.509-1.295-.485-.67-1.162-.456-1.852-.135a4.902 4.902 0 0 0 -.426-.604 1.315 1.315 0 0 1 -.37-1.429c.11-.281-.092-.629-.12-.95-.03-.322-.165-.587-.435-.439a.99.99 0 0 0 -.393.678c.01.451.06.9.15 1.343l-.773.063c-.139-.436-.461-.872-.37-1.246.178-.706-.595-.572-.504-1.199a1.626 1.626 0 0 0 -.379-1.334.92.92 0 0 1 .133-.625c.184-.247.388-.478.61-.692.257.101.411.642.71.025.1-.257.266-.319.476-.278.189.008.378-.013.56-.063.169-1.076-.292-1.878-.315-2.79.081-.207.476.117.459-.341 0 0-.023-.122-.048-.132-.344-.022-.236.387-.394.537a13.676 13.676 0 0 1 -.781-2.861c-.081-.835-.435-.904-1.266-.369-.086-.105-.223-.187-.27-.318-.196-.472-.059-.785.326-.831.22.012.439.046.652.1l.248-1.313-.773-.402c.597-.767.6-.809.246-1.455l-.024.061-.04-3.204.838.131a3.858 3.858 0 0 1 -1.162-2.431c-.124.064-.297.109-.348.202a1.974 1.974 0 0 0 -.307.783c.029.321.083.639.163.952.026.363.161.882.004 1.102-.377.529-.08.815-.021 1.205l-.125.318c-.277-.264-.807-.317-.529-1.026-.33-.525-.5-1.17-.815-1.731a.8.8 0 0 1 -.006-.919l.477-.137c-.278-.801.627-1.814-.105-2.68a9.84 9.84 0 0 0 -.269 2.984zm314.161-13.613.444-.052-.29-.269.08-.49a.722.722 0 0 0 -.909.122l.88.346-.158.403-.33-.13.026.222zm-220.085 102.63.098.038.073.029-.183-.072.134-.342-.217.013c.005.059.09.092.119.273zm-87.953-69.685-.343-.134-.134-.053.122.048.367.144-.416.486.158.062c.083-.137.164-.345.246-.553zm144.105-116.32.24.178-.294-.185c-.026-.222.113-.647-.334-.371.106.126.219.246.339.358zm-59.039 184.193a.652.652 0 0 0 .208.082l.115-.04-.098-.038-.196-.077-.08-.229.222-.025-.17.327zm-27.425-10.597c-.033-.239-.03-.534-.443-.273l.513.202c.104.238.112.65.559.374zm267.752-29.647-.339.36c-.22.238-.272.514-.158.404a.8.8 0 0 0 .266-.319c.071-.146.131-.297.177-.452a2.48 2.48 0 0 0 -.127-.431.25.25 0 0 0 -.232-.091s-.153.137-.165.203c.006.1.05.193.124.26.141.02.284.019.424-.002zm-37.479-78.38.306.12-.318-.124c-.077-.2.023-.597-.393-.436zm-142.498 132.71a.303.303 0 0 0 -.368.364c.03.138.221.227.459.448l-.101-.858.405.046-.052-.119zm176.215-85.531-.212.862.564-.681c.281.11.577.325.864-.296l-.467-.86c-.14.234-.264.478-.371.729a1.92 1.92 0 0 0 -.011.461l-.391-.154c.068-.137.124-.28.168-.428 0 0-.079-.158-.138-.223s-.074-.029-.11-.043a2.513 2.513 0 0 0 -.005.407.676.676 0 0 0 .109.226zm-243.466 72.066c.132.022.268.018.4-.012.101-.045.176-.199.26-.307.085-.108-.293-.115-.33-.129-.126.145-.229.309-.303.487l-.437.393c.313.066.419-.132.41-.432zm237.789-86.172-.599-.235-.062.159c.027.148.064.295.11.438a1.72 1.72 0 0 1 .295-.25s.144-.043.205-.089c.06-.047.24-.216.258-.336.019-.12-.091-.234-.143-.353-.048.123-.228.221-.225.321s.138.224.161.345zm-142.778 101.945c.359-.197.543-.449.336-.855-.264.277-.436.534-.253.86.051.767.051.767.721.283zm-59.374-3.277a.559.559 0 0 1 -.142-.211c-.083-.329-.235-.445-.251-.226-.015.22.109.226.188.314.08.046.166.08.256.101-.296.25-.759.28-.806.868.59-.065.59-.065.787-.82zm-33.28-12.967c-.245-.096-.256-.354-.133-.631l-.914-.655c-.149.379-.145.621.097.687.27.029.543.022.812-.02-.546.421-.336.856-.197 1.616.206-.526.302-.77.317-1.06l.31.037.053-.135zm223.831-98.875c.3-.262.799-.095.939-.703-.21-.364-.501-.197-.714.058-.117.192-.2.403-.245.624a2.32 2.32 0 0 0 -.417-.305s-.121.093-.194.135c.022.04.051.076.086.105l.545.087zm-201.264 104.745-.891-.068c.127.755.127.755.86.648-.001-.212-.003-.424.008-.631.324.254.624.244.93-.214-.539-.423-.544-.411-.907.265zm41.783 9.237c.286.155.59.274.905.355.257.101.578.002.559-.598l-1.432.27-.343.119.098.039c.074-.058.146-.119.213-.185zm-61.159-11.414-.492-.757-.979.264c.297.21.613.391.945.541.146.057.348-.061.52-.106.086-.02.168-.049.247-.087l.052-.135a.329.329 0 0 0 -.126.035zm241.868-63.79-.43-.522a.267.267 0 0 0 -.038.098.254.254 0 0 0 -.053.134l.578.326c-.438.505.012.724.111 1.045.39-.058.576-.281.396-.648-.18-.368-.436-.327-.564-.433zm-96.455 72.167.006-.337-.034.086.116.243c-.149.379-.192.813.17 1.04a.453.453 0 0 0 .395 0 .645.645 0 0 0 .163-.416c.006-.59-.08-.694-.867-.665zm97.243-61.094a.831.831 0 0 0 -.288.733l.227-.757c.341-.149.759.043 1.074-.58-.159-.063-.285-.352-.456-.349-.17.004-.422.215-.624.334.101-.257.091-.628.302-.77a1.145 1.145 0 0 0 .211-1.328 2.624 2.624 0 0 1 .015-.756c-.224.067-.427.044-.494.144-.341.442-.494 1-.427 1.554.062.49-.045 1.012.476 1.16l-.305.416c.084.043.163.093.238.15zm-190.139-137.071c.518-.46.837.526 1.433-.058-.423-.25-.539-.818-1.069-.871l-.364.929c-.184-.467-.309-1.01-.925-.913-.159.403-.014.643.268.754.214.071.433.125.657.159zm6.661 199.422c.105-.269.201-.514-.102-.675-.304-.161-.248.058-.375.093s-.017.331.039.368c.152.088.317.152.489.191.04.186.067.549.133.56.378.008.68.423 1.152.227-.335-.583-.651-1.073-1.336-.764zm93.109-170.438a.894.894 0 0 0 -1.184-.183.501.501 0 0 0 -.115.293c-.034.086.045.244.107.268a.904.904 0 0 0 1.195-.35l.122.049zm10.678 8.734c-.274-.559-.772-.514-1.27-.358a.925.925 0 0 0 .946.438.935.935 0 0 0 .343-.129 1.088 1.088 0 0 0 .868 1.131c.183.072.452.107.529-.342zm79.861 93.099s-.073-.029-.055-.148c-.009-.3-.071-.536-.386-.49a.342.342 0 0 0 -.211.213c-.148.379.191.414.418.446.227.033.185-.04.278-.06a1.568 1.568 0 0 0 -.814 1.317l.758.298.432-1.101a3.473 3.473 0 0 0 -.383-.46zm-18.172-41.57c.251-.098.373.416.703.08-.224-.328-.489-.193-.73-.047l.216-.55c-.204-.306-.442-.597-.632-.94s-.29-.734-.459-1.167l-.781.229a53.96 53.96 0 0 0 1.683 2.396zm-71.018-55.939c.322-.017.645.006.961.067.321.142.626.318.909.526.244-1.09.076-1.38-.62-1.118-.428.157-.829.352-1.25.525.046-.476.671-.809.359-1.453-.764.293-1.463-.405-2.381.137.099.117.217.216.35.293.254.112.521.193.794.241a.923.923 0 0 1 .864.819zm-105.906 163.905a3.46 3.46 0 0 0 .83-2.115c.232.085.481.115.727.088a.828.828 0 0 0 .338-.502.288.288 0 0 0 -.329-.383 1.195 1.195 0 0 0 -1.165.953c-.249.636-.272 1.304-.428 1.991l-.311-.25c-.3-.315-.602-.335-.935.226l.419.334a1.99 1.99 0 0 0 -.221.562c.295.213.612.394.945.54.498.111.977.299 1.418.557a17.01 17.01 0 0 0 2.358 1.179c.086.034.229-.008.522-.035a2.643 2.643 0 0 0 -.404-.553 2.745 2.745 0 0 1 -1.176-1.604.8.8 0 0 0 -.327-.425c-.424-.322-.874-.611-1.347-.952-.257.294-.457.554-.685.775s-.353.073-.469-.1a.553.553 0 0 1 .048-.122c.059-.06.123-.115.192-.164zm45.313-187.072a4.899 4.899 0 0 0 1.913.158c-.253-1.044-.973-1.116-1.698-1.57a72.391 72.391 0 0 1 -.207 1.428 9.538 9.538 0 0 0 -.707-1.11 2.255 2.255 0 0 0 -.695-.385c-.202.513-.332.843.118.992.45.148.523.106.649.466.028.11.403.017.627.02zm82.81 35.712a1.318 1.318 0 0 0 -.224-1.047.423.423 0 0 0 -.302-.194.418.418 0 0 0 -.342.11 5.38 5.38 0 0 0 -.532.638l1.451.471c-.043.11-.002.366.066.407 1.136.7 2.282 1.375 3.528 2.118-.019-.275.018-.514-.046-.568a6.758 6.758 0 0 0 -3.599-1.935zm-259.98 26.562c-.294-.115-.423.215-.593.43l-.465.537c.02.346.274.489.097.94-.346.88-.24 1.007.382 1.435.296-1.106.48-2.239.551-3.381.148-.125.391-.242.42-.386.167-.55.211-1.129.13-1.698a2.862 2.862 0 0 0 -.523 2.123zm142.873-73.228c.476.511.476.511 1.858.73l.21-1.328c-.417-.051-.731-.076-1.049-.13-.598-.094-.598-.094-1.05.843l-.359-.776c-.456.047-.855.06-1.057.643.288.2.59.38.904.538.292-.026.486-.232.55-.574zm161.13 85.449c-.3.009-.348-.264-.423-.505-.075-.24.04-.605-.386-.49l-.173.44c-.062.159-.211.538-.039.746.172.21.404.159.637-.003.132-.082.269-.155.41-.22-.119.305-.474.49-.388.99.157.005.314 0 .47-.013.182-.052.368-.093.555-.12.135.052.282.11.622.356-.323-.649.262-1.025-.009-1.414a9.748 9.748 0 0 0 -.462-.943 6.784 6.784 0 0 0 -.717-.832 1.708 1.708 0 0 0 .246 1.96 2.494 2.494 0 0 0 -.327-.03zm-163.237-85.543c.189-.264.534-.425.497-.834a.643.643 0 0 0 -.516-.626c-.281-.11-.502-.338-.913-.19-.411.15-1.074-.139-1.665.109-.102.044-.214-.282-.052-.514-.12-.207-.262-.4-.423-.576-.073-.029-.234.021-.361.056-.126.035-.034.34.028.434.061.095.489.192.766.061l-.973.86c.246.237.421.546.56.516.501-.128.684.593 1.284.32.601-.272.835.498 1.302.638.122.048.35-.173.517-.276zm-83.962 176.569.053-.135c.01-.12.016-.24.014-.361l-.111.069.058.39-.312.794c-.189-.201-.29-.41-.449-.472-.159-.063-.353.073-.51.04-.156-.033-.264-.189-.56-.404.008.483-.053.925.033.958.403.158.584.596.939.806l2.68 1.475c.097.039.265-.065.42-.102.188-.477.384-.978.004-1.41l-.538.184-.451-.826c-.283.002-.508.393-.89.145-.382-.249-.298-.498-.327-.82.13-.189.038-.239-.053-.331zm54.808 18.032a2.256 2.256 0 0 0 -.183-.325s-.153.067-.233.091c-.081.025.106.197.179.226s.188-.011.28-.031l-.196.501.863 1.143c-.025.386-.03.722-.059 1.049l-.607-.323-.067.171.662.147.463-.029.272-1.304c.641.378 1.295-.282 2.005-.257a38.804 38.804 0 0 0 -.645-1.664.9.9 0 0 1 -.042-.143l-.037-.41c-.043.11-.299.151-.325.253-.12.306.138.295.321.296l.134-.018c-.556.374-.556.374-1.895.229l-.222-1.413c-.215.55-.221.816-.312 1.048-.091.233-.199.543-.32.778zm134.307-159.455c-.354.002-.767.263-1.128-.147l.704-.57a1.946 1.946 0 0 0 -2.245-.5c-.126.035-.333.024-.383-.066a2.911 2.911 0 0 0 -1.35-1.052c-.293-.115-.03-.788-.429-.634-.398.154-.595-.064-.777.005-.333.116-.687.16-1.038.129.111.184.156.357.266.4a33.42 33.42 0 0 1 2.038 1.097c.421.36.866.69 1.333.989l3.092 1.214-.115-.892c.104.056.215.1.33.13l.1-.257a.832.832 0 0 0 -.267.036s-.059.076-.131.118zm-20.799-6.924c.167.15.408.47.515.414.42-.245.5.308.782.307.283-.002.685.268.972.508.207.113.436.18.672.193.222.02.441.063.654.13.876.429 1.732.906 2.598 1.359.428.168.792.607 1.175.602.506.05.988.24 1.393.547l.71.42.97-.748c-.12-.16-.155-.287-.233-.303-.293-.115-.633-.15-.926-.265s-.691.322-.853-.236c-.162-.557-.609-.028-.893-.167-.284-.14-.855-.265-1.092-.598a2.096 2.096 0 0 0 -1.402-.847 1.75 1.75 0 0 1 -.984-.513 6.236 6.236 0 0 0 -2.518-1.454c-.611-.24-1.189-.566-1.752-.857-.159-.063-.366-.144-.269-.572a2.18 2.18 0 0 1 .632.009l2.346.921c.563.22.709.278 1.443-.082-.436-.793-1.28-.729-1.908-1.032l-.559-1.63a1.644 1.644 0 0 1 -1.864.256 9.681 9.681 0 0 0 -1.695-.75c-.171-.067-.324-.325-.473-.482-.059.4-.248.918-.127 1.22.122.301.556.415.858.618.109.093.211.194.304.303.081.117.39.012.273.347l-1.44.578c-.171-.068-.403-.159-.475-.3a1.13 1.13 0 0 0 -1.492-.727 1.158 1.158 0 0 1 -1.366-.832c-.139-.436-.39-.66-.675-.618a6.815 6.815 0 0 1 -3.127-.55c-.073-.029-.182.07-.382.146.162.162.268.36.412.388a.641.641 0 0 1 .574.55c.113.316.294.604.53.842 0 0 .159.063.342.064l.81-1.093.399 1.031a10.35 10.35 0 0 0 1.85.571c.764.103 1.121.737 1.619 1.229.147.057.459.053.668-.048a.667.667 0 0 0 .288-.734c.635.18-.084.898.235 1.235.125-.072.246-.152.362-.239.135-.13.239-.287.389-.453.435.833.423.828-.101 1.37a4.078 4.078 0 0 0 -.326.437c.435.51.683-.268 1.059-.22.376.05.733-.177 1.113-.282zm-178.834 144.09-.325-1.722c.69-.463.55 1.076 1.29.308a1.976 1.976 0 0 0 -1.546-1.058c-.281-.11-.57.016-.831-.326s-.563-.221-.739-.671-.802-.399-.947-.964c0 0-.073-.029-.149.054l-.273.697a1.31 1.31 0 0 1 -1.23-.816 1.312 1.312 0 0 1 -.098-.509 1.762 1.762 0 0 1 -1.318-.236 1.1 1.1 0 0 0 .03-.327c-.036-.197-.047-.455-.148-.523a.506.506 0 0 0 -.499.086c-.305.275-.724.478-.773 1.107.701.586 1.19 1.497 2.17 1.657.337.137.64.343.892.604.172.067.314.278.477.258a1.314 1.314 0 0 1 1.266.764c.311.574.953.375 1.235.88.281.506.907.455 1.516.737zm157.717-156.74c-.096.244-.183.464-.275.484a1.563 1.563 0 0 1 -1.561-.444c-.122-1.162-.813-.84-1.491-.585a.763.763 0 0 1 -.384-.066l-.183-.791c-.399.153-.739.373-1.046.365s-.574-.226-.868-.34a6.02 6.02 0 0 0 -.664-.177c-.465-.183-.731.136-.89.723.141.108.294.201.455.277a5.696 5.696 0 0 1 2.695 1.256c.166.165.38.273.612.31 1.109.165 2.187.497 3.196.987.586.23 1.014.003 1.414-.729-.15-.157-.321-.295-.454-.46s-.34-.5-.556-.81zm-8.032.909c.111.185.137.336.203.347.406.039.81.103 1.208.193.379.148.69.468 1.222.48.532.01.589.583.956.727 1.004.354 1.957.837 2.835 1.438.441.314.892-.44 1.309-.135l.36-.917a14.823 14.823 0 0 0 -1.427-.715 1.127 1.127 0 0 0 -.822-.097 1.916 1.916 0 0 1 -2.181-.589 4.676 4.676 0 0 0 -2.835-.971c-.234-.05-.514.122-.828.239zm-21.262-6.245.264-.673c-.271-.459-.53-.984-.982-1.09-1.033-.28-2.067-.558-3.109-.742a2.983 2.983 0 0 0 -1.286.257.8.8 0 0 0 -.321.495c-.038.098.104.309.207.335.436.07.866.178 1.285.321.269.106.332.554.771.444a1.05 1.05 0 0 0 .892-.764c.067-.171.404-.095.416.163-.018.212-.071.42-.157.616zm70.556 27.939c.257-.943-.157-1.289-.667-1.39a1.317 1.317 0 0 1 -.835-.427 2.157 2.157 0 0 0 -1.582-.819 1.56 1.56 0 0 1 -1.252-.801s-.173.045-.265.065c-.015.36-.025.71-.005 1.056-.029.073.072.211.106.197.82-.257.517.442.498.886-.03.143-.084.279-.158.404l.882.77c.399-.225.641-.483.355-.905-.135-.194-.343-.347-.088-.782l2.164 1.174c.225.144.489.333.847.572zm-37.883-17.017c.655.666 1.775.4 1.946 1.653l.869-.703.897.733c.122.048.238.22.379.149a1.22 1.22 0 0 0 .647-.282c.201-.19.042-.717-.225-.794-.952-.232-1.761-.832-2.713-1.065a3.076 3.076 0 0 1 -1.199-.54c-.232-.092-.243-.675-.605-.436-.361.239-.11.676-.078 1.027.047.131.069.183.082.258zm-32.261 183.648a7.18 7.18 0 0 0 3.206.962c.122.048.328-.224.527-.371a5.177 5.177 0 0 0 -.183-.65c-.047-.132-.121-.302-.231-.345a6.369 6.369 0 0 0 -2.225-.874zm99.669-147.224c.728.553 1.35.98 1.936 1.465.486.51 1.025.968 1.608 1.365a5.236 5.236 0 0 1 1.673 1.235.972.972 0 0 0 1.314.248 23.812 23.812 0 0 1 -2.709-2.263 12.433 12.433 0 0 1 -2.562-2.134c-.27-.318-.775-.361-1.26.084zm-63.471-37.615a1.653 1.653 0 0 0 -.302-1.53c-.807.333-1.649-.04-2.498.614.06.136.073.353.171.392.797.5 1.743.706 2.676.585l-.047-.06zm57.537 32.463a5.245 5.245 0 0 0 -.501 2.103c.595.46 1.033.279 1.385-.401l.915.472c-.08-1.485-.919-1.757-1.823-2.113l.024-.06zm-15.755-10.643c-.294-.186-.697-.273-.83-.58-.134-.306-.581-.496-1.011-.551-.429-.056-.936.013-1.15-.664-.068-.224-.55-.216-.844-.33 0 0-.167.103-.218.196a.315.315 0 0 0 -.041.143c-.003.05.006.1.026.147a.973.973 0 0 0 .368.427c.96.33 1.872.784 2.716 1.348a.67.67 0 0 0 .96-.075l.024-.06zm-60.18 161.769c.797.989 1.888 1.121 2.248 2.109.438.046.88-.041 1.268-.249-1.167-.656-1.722-2.045-3.516-1.86zm26.542-181.154c-.403-.807-1.246-.672-1.764-1.256-.12.305-.202.513-.364.675s-.232.304-.358.48l1.569.856zm-176.516 143.72c.019.204-.002.366.05.414.343.276.866.199 1.13.712 0 0 .388-.017.512-.152.252-.291.479-.603.676-.933a2.05 2.05 0 0 0 -2.375.012zm130.101 41.201-.13.33c.203.248.431.475.68.676.31.206.66.343 1.027.403a2.63 2.63 0 0 0 .981-.165.393.393 0 0 0 .111-.281c.028-.073-.075-.241-.134-.235-.314-.025-.742.131-.946-.033-.203-.165-.318-.591-.682-.635zm101.641-153.364a.842.842 0 0 0 .366.542.86.86 0 0 0 .643.123c.294-.068.301.273.436.397a1.01 1.01 0 0 0 .929.365c.121-.489-.005-.778-.311-.969l-1.32-.843-.743.386zm-3.546.767c.905.75 1.75 1.435 2.613 2.112.073.029.205-.018.565-.074-.472-.341-.902-.468-1.019-.781-.264-.838-1.04-.945-1.492-1.517-.147-.129-.437-.073-.718.282zm-149.035 141.993c-.153-.399-.255-.679-.367-.934a.652.652 0 0 0 -.26-.342c-.159-.063-.404-.159-.503-.014-.365.463-.683.987-1.009 1.494.033.07.073.138.118.202l1.005-.692zm-112.848-139.116c-.266 1.038-.935 1.664-1.115 2.623.547-.35 1.06-.472 1.38-1.108.321-.636.392-.637-.265-1.515zm272.063 134.149-1.702.742s-.114.04-.129.077a2.42 2.42 0 0 0 -.225.574s.206.194.33.13c.552-.15 1.107-.342 1.72-.538zm-81.585-171.21-.13.33c.472.595 1.285.321 1.844.837.393.366 1.09.315 1.661.44-.869-1.018-2.225-.944-3.375-1.607zm-101.117 171.682c.548-.533.65-1.043.425-1.441a1.166 1.166 0 0 0 -1.564-.615c.846.756.846.756 1.139 2.056zm18.965 1.21c-.638-.927-.638-.927-1.778-.359l1.026.981zm-40.91-7.187c-.823.551-1.222-.48-2.07-.08.378.939.425 1 1.215.999.202-.047.613.128.77-.953zm136.127-163.806c-.365.393-.456.695-.104.876.226.05.458.065.688.044.249.014.311.574.791.142-.04-.185-.008-.554-.126-.614a8.716 8.716 0 0 0 -1.325-.506zm51.495 172.29c-.51-.355-.829-.622-1.188-.819a.562.562 0 0 0 -.285-.016.56.56 0 0 0 -.254.129 3.018 3.018 0 0 0 -.312.794c.321.109.659.153.997.128.337-.026.665-.119.965-.274zm-105.626 7.455c.225.54.44.639.842.585s.636.249 1.088.427l-.04-.975zm32.551-.269.008-.378a3.009 3.009 0 0 0 -.911-.16 1.039 1.039 0 0 0 -.709.836c-.003.295.378.402.843.189a8.09 8.09 0 0 0 .73-.531zm-110.742-13.288c.245.957.905.821 1.599 1.065l-.556-1.459zm134.569-167.563c.592 1.079.741 1.095 1.584.241-.518-.26-.901-.65-1.623-.285zm-51.28 186.423.101-.257a5.903 5.903 0 0 0 -1.002-.393c-.232-.092-.467.183-.563.498-.095.315.179.55.398.495.22-.055.66-.277 1.027-.387zm18.456-195.881c.113-.647-.226-.682-.572-.662a.934.934 0 0 0 -.923.95l.755.197-.089-.529zm-81.441 181.141c.041-.534.355-.904-.223-1.047l-.77-.302-.332.843c.232.021.463.059.689.115.239.118.468.255.685.41zm45.904 8.231.806.317c.245.096.323.507.668.347.114-.83-.463-1.085-.79-1.58zm45.624 3.156c.168-.428.031-.581-.272-.601-.905-.03-1.063.049-1.433.848zm-42.631-196.84c-.452-.503-.789-.903-1.15-1.242-.073-.029-.287.014-.408.107-.122.094-.216.297-.154.392.062.094.198.43.29.41.404-.095.616.157.868.34.162.092.322.042.651.03l-.097-.038zm36.481 193.748c.081.441.042.863.194.979s.519.007.79-.071a.618.618 0 0 0 .261-.377.427.427 0 0 0 -.05-.2.423.423 0 0 0 -.136-.155 8.388 8.388 0 0 0 -.961-.137zm-180.48-136.452a10 10 0 0 0 -.736 1.122c-.072.183.035.45.061.814a1.707 1.707 0 0 0 .773-1.897l-.097-.039zm130.714 137.271c1.015-.18 1.136-.344.853-1.203-.746.497-.746.498-.756 1.241zm40.78-190.08-.077.196c.461.266.928.548 1.398.789 0 0 .192-.094.23-.192.039-.098.091-.232.033-.297a.814.814 0 0 0 -.405-.371 11.547 11.547 0 0 0 -1.179-.124zm-131.498 156.723c.206-.525.016-.939-.282-1.042a.5.5 0 0 0 -.573.382c-.063.412.122.838.413.853.29.015.335-.136.442-.193zm96.613 32.893a9.162 9.162 0 0 0 -.333-1.414c-.04-.115-.342-.135-.466-.07a.356.356 0 0 0 -.058.541c.192.231.398.495.857.943zm-30.735-203.823a1.469 1.469 0 0 0 1.358.674c-.168-.758-.521-1.009-1.358-.674zm172.91 187.425-.644-.873c-.236-.333-.477-.188-.702.133.264.442.468 1.002 1.346.74zm-268.62-41.624c-.335-.046-.542-.057-.735-.105l-.623-.244c.034.309.008.553.065.589.26.166.551.28.855.336.049-.051.193-.347.403-.631zm60.642 40.327c-.192.489-.231.841-.285 1.158s.198.43.611.24c0 0 .072-.183.259-.336zm77.884 15.059c.529 1.238.529 1.238 1.092 1.134l-.567-1.393zm54.089 5.957c-.16-.994-.682-.959-1.15-1.058-.233 1.023.48.753 1.109 1.056zm-105.799-8.92a.63.63 0 0 0 -.891-.604c-.115.04-.297.18-.306.275a.444.444 0 0 0 .156.357.7.7 0 0 0 .506.197.703.703 0 0 0 .493-.227zm112.909 4.32 1.013.51c.232.091.414-.12.409-.502.053-.135-.085-.288-.154-.47zm-145.383-20.131c-.098-.757-.323-.831-1.076-.422a.982.982 0 0 0 1.034.42l.041.002zm199.382 16.473c.629.445.812.446 1.051.018a3.47 3.47 0 0 0 .234-.811zm12.751-135.965c.158-.274.275-.571.345-.88a.532.532 0 0 0 -.337-.4c-.195-.077-.412.332-.335.602.076.233.171.459.285.676zm-50.344-31.883.148-.378-1.318-.236c.211.901.853.377 1.17.614zm-125.618 163.446c-.279-.476-.626-.345-.929-.365-.302-.02-.402.054-.324.466zm-30.56-9.98 1.02.64c-.113-.326-.276-.63-.407-.583-.385.117-.421.498-.612-.057zm35.324 11.751c.246-.086.434-.097.564-.215.131-.118.084-.645-.106-.663-.22.018-.435.078-.633.175zm93.389-174.673-.347.598c.287.24.493.038.783-.018zm-119.65 170.021c.365-.21.553-.474.432-.847-.122-.372-.294-.115-.763.434l.332.413zm61.249-187.489-.396 1.368 1.03-1.006zm22.385 201.701 1.307.514c-.022-.771-.18-.833-1.283-.504zm83.503-6.011c-.379-.149-.586-.231-.791-.212-.205.018-.223.279-.339.431.123.119.249.337.358.31.291-.132.559-.307.797-.52zm17.485-147.27.15-.095c-.073-.1-.194-.19-.216-.311-.023-.122-.077-.524-.374-.485a.184.184 0 0 0 -.124.064c-.149.379.096.475.207.66.111.184.222.115.357.168zm-209.071 125.098c.17.1.356.173.55.216.098.038.348-.061.35-.102a1.16 1.16 0 0 0 -.032-.564c-.052-.119-.204-.164-.363-.297zm18.244 9.8a61.816 61.816 0 0 1 -.44-.173c-.098-.038-.167.175-.235.275.465.182.106.592.047.922a.236.236 0 0 0 .148.199.3.3 0 0 0 .233-.163c.086-.291.145-.62.247-1.06zm169.886 13.809c.18.103.373.179.575.226.134.052.331-.124.493-.216.163-.091.013-.248-.035-.268a.62.62 0 0 0 -.453-.177c-.165.062-.32.241-.58.435zm-199.442-28.502a.622.622 0 0 0 -.537.16.626.626 0 0 0 -.197.525c-.053.134.172.279.33.524zm37.468 19.548-.692-.61c-.24-.25-.354-.139-.485.303zm-61.033-35.952-.272.189a3.7 3.7 0 0 0 .277.659c.061.024.295.003.37-.08a.45.45 0 0 0 .039-.422 1.69 1.69 0 0 0 -.405-.371l-.01.025zm263.786-84.91c.326.608.326.608.864.495zm32.222 45.237-.47-1.425c-.356.763-.356.763.47 1.425zm-111.121-91.377a3.75 3.75 0 0 0 -.701.205.54.54 0 0 0 -.159.403.396.396 0 0 0 .268.288c.337.076.504-.169.592-.896zm47.463 25.349.072-.183a4.541 4.541 0 0 0 -.474-.624c-.074-.029-.244.045-.351.102s-.013.249.031.28c.27.177.504.297.722.425zm48.662 35.017c-.183-.791-.183-.791-.982-.696zm-258.348 89.527c-.107-.338-.12-.555-.222-.694-.1-.138-.506.14-.553.404-.047.263.075.311.166.333.204.017.41.003.609-.043zm134.659-162.76c-.078-.34-.095-.728-.49-.728a.577.577 0 0 0 -.291.309c.049.414.321.549.781.42zm-95.48 178.918c-.072-.282-.075-.453-.151-.511a.385.385 0 0 0 -.602.06c-.029.074-.01.349.051.373.222.05.45.073.678.069l.025.009zm187.127-138.875c.098.687.355.93.915.797-.159-.458-.281-.9-.915-.797zm-41.311 150.935c.06.602.294.652.545.553.232-.12.451-.267.65-.436l-.067-.224zm-184.27-36.031-.26.053a4.49 4.49 0 0 0 -.099.61c.004.242.088.458.336.33a.618.618 0 0 0 .168-.428 2.096 2.096 0 0 0 -.145-.565zm89.471 36.212c-.691.645-.691.645-.418 1.063zm-73.538-21.817c.495.463.495.463.949.062l-.95-.062zm147.719 20.003a3.595 3.595 0 0 0 -.918-.177.52.52 0 0 0 -.256.365c-.034.085.155.287.248.267.313-.117.618-.257.911-.418zm53.34-152.575c-.091.698.173.816.435.904 0 0 .194-.065.223-.138a.33.33 0 0 0 -.009-.3 5.416 5.416 0 0 0 -.668-.417l.019-.05zm-263.718 29.072-.122-.048c-.024-.01-.506.14-.509.506-.043.11.155.216.237.333.096-.245.297-.434.43-.664.016-.007-.03-.068-.04-.114zm106.934 120.981a.867.867 0 0 0 .414-.769c-.168.033-.365-.002-.479.108a.388.388 0 0 0 -.148.348.393.393 0 0 0 .213.313zm100.158-179.338-.092-.233a1.898 1.898 0 0 0 -.373.305 1.74 1.74 0 0 0 -.168.427c.126-.035.275-.018.362-.097.103-.114.191-.24.261-.377zm-130.63 166.514c-.165-.192-.257-.355-.32-.337-.164.063-.317.15-.454.259.064.124.119.343.19.342.07 0 .309-.104.574-.24zm-13.393-6.781c-.082-.117-.111-.185-.14-.182a3.886 3.886 0 0 0 -.54-.028c-.048.122-.046.405-.01.419.177.027.356.021.53-.018 0 0 .065-.059.15-.167zm24.186 9.792a.482.482 0 0 0 -.063-.378c-.067-.083-.245-.096-.367-.144-.032.136-.04.276-.022.415.048.202.144.423.442.131zm216.895-15.489c-.04-.255-.039-.509-.081-.511a.8.8 0 0 0 -.46.13s-.022.344.039.368.281.039.493.038zm-117.077-155.758c-.023-.193-.019-.346-.061-.349a3.167 3.167 0 0 0 -.488-.05c-.043.11-.005.337.056.36.161.04.328.054.493.039zm44.432 17.19c-.272.189-.519.388-.302.77.217.38.274.234.456.023.181-.21.064-.595-.154-.794zm-196.599 128.467a3.346 3.346 0 0 0 -.42-.475s-.187.082-.208.172c-.022.09.084.541.3.527.218-.013.156-.108.328-.224zm92.997 35.099s-.034.086.059.136a.493.493 0 0 0 .413.099.494.494 0 0 0 .34-.255.242.242 0 0 0 .048-.122c-.09-.204-.465-.182-.734.036-.069-.041-.095.062-.126.106zm90.883-172.638c-.375-.373-.577-.579-.8-.765 0 0-.146.013-.285.043.073.607.526.53 1.085.722zm101.923 101.297c-.085-.033-.207-.081-.263.024a1.945 1.945 0 0 0 -.225.574s.088.134.147.199c.129-.147.247-.303.353-.468a.91.91 0 0 0 -.012-.329zm-45.038-69.722c-.18.098-.348.131-.399.224-.05.093-.094.457.125.472.22.016.331-.124.496-.186zm-276.654 23.682c.092-.16.16-.333.201-.513.039-.098-.113-.214-.187-.314s-.177.128-.199.219a1.668 1.668 0 0 0 -.055.5c.014.1.043.196.085.287zm273.924 109.036a2.703 2.703 0 0 0 -.211-.506s-.171-.067-.243.045c-.073.113-.091.628.14.648.232.02.164-.021.314-.187zm-86.993 14.037a.907.907 0 0 0 .393-1.003.216.216 0 0 0 -.097-.074.213.213 0 0 0 -.122-.012s-.224.138-.214.184c-.028.215.03.534.04.905zm59.74-166.794a.754.754 0 0 0 .063-.159s.043-.11-.031-.139l-.611-.24-.053.135c.148.17.306.332.474.482l.173-.116zm-12.781 165.508s.03.139.06.136c.217.004.435-.009.65-.041a.379.379 0 0 0 .096-.244c-.126-.29-.379-.149-.588-.048-.209.102-.121.094-.196.177zm6.309 3.083.058.319c.222-.061.439-.136.652-.224.029-.073.101-.256.222-.35.121-.093-.231-.203-.33-.129a2.904 2.904 0 0 0 -.576.352zm-31.639.388c.314-.046.458-.018.557-.091a.75.75 0 0 0 .252-.353s-.085-.217-.126-.219c-.13.037-.25.1-.355.185a4.78 4.78 0 0 0 -.302.446zm4.397-5.525c-.233.092-.392.101-.471.196-.08.096-.164.416.052.514.215.099.353-.002.372-.051.047-.227.071-.458.074-.69zm-108.247-1.318.099.25c.123-.082.233-.181.327-.294 0 0-.061-.166-.099-.251zm131.647 7.401c-.326-.212-.326-.212-.595.077zm73.799-112.52c-.199.077-.37.08-.45.176-.05.132-.071.272-.063.413.122-.023.287-.014.375-.093.066-.177.101-.363.104-.552zm-308.252 35.43c.192-.489.34-.868-.365-1.047zm231.633 70.51-.379.175c.035.127.046.315.122.373s.226-.038.348-.061zm19.95-4.427c-.006-.2.023-.344-.017-.387-.039-.044-.354-.14-.489.061-.029.074-.101.257.001.283.166.036.336.05.505.043zm12.383-3.73c.02-.119.025-.24.015-.361a.983.983 0 0 0 -.346.02.436.436 0 0 0 -.096.244c.139.047.282.08.427.097zm45.499-101.017c.173-.115.333-.165.376-.275.044-.11-.033-.24-.051-.373-.107.057-.27.077-.321.17-.024.159-.026.32-.004.478zm-17.231-18.417a2.103 2.103 0 0 0 -.329-.383s-.187.152-.279.243c.103.133.213.261.329.383 0 0 .146-.154.279-.243zm-95.533 138.127a8.73 8.73 0 0 0 .432-.452c.128-.147-.072-.141-.097-.221a5.807 5.807 0 0 0 -.422.356c-.136.131.042.144.087.317zm-23.011-7.863c.113-.154.211-.319.292-.492l-.179-.226c-.067.171-.225.321-.329.478s.106.126.216.24zm-78.048-6.518c-.101-.209-.146-.382-.237-.404-.09-.021-.206.131-.306.205-.099.074.065.194.126.218.139.008.279.001.417-.019zm-98.491-125.848a.854.854 0 0 0 -.163-.304s-.214.114-.208.172c.015.141.046.281.09.416zm11.979 74.053a4.927 4.927 0 0 0 -.344-.418s-.224.138-.221.168c.03.176.076.349.135.518zm151.51 61.837c.131-.067.25-.153.355-.256a.419.419 0 0 0 .024-.315c-.133.06-.261.133-.381.218 0 0-.013.178-.01.348zm-137.768-51.816-.414.12c.035.127.011.329.092.375s.227-.038.349-.061l-.028-.434zm296.395-29.772c-.213.255-.378.388-.37.476.029.176.086.346.169.504.039-.098.199-.148.204-.231.022-.249.021-.5-.003-.749zm-170.828 80.184c.354.139.477.187.608.14.131-.048.395 0 .368-.434zm168.07-86.74c.099.208.213.409.343.6 0 0 .171.067.236-.062a.408.408 0 0 0 .11-.282c-.077-.27-.307-.402-.689-.256zm-66.429-73.916c.159.062.242.208.379.148a.566.566 0 0 0 .357-.155.415.415 0 0 0 .01-.279.453.453 0 0 0 -.342-.134c-.165.133-.227.292-.404.42zm-112.898 160.511.058-.147a1.903 1.903 0 0 0 -.349-.334s-.18.098-.208.172c-.111.281.107.338.263.371a.587.587 0 0 0 .236-.062zm-103.45-39.373.057-.146a3.503 3.503 0 0 0 -.448-.261l-.048.122.373.344s.02-.049.065-.059zm175.964-143.143-.063.159.795.312.062-.16zm79.891 52.06.285-.044a1.08 1.08 0 0 0 -.113-.397s-.134-.052-.258.012l.086.428zm-174.493 125.057-.082.208.514.201.085-.432zm-49.703-19.682c-.181.14-.342.19-.38.288-.039.097-.032.368.021.375.153.027.309.021.459-.018zm-11.944-2.348c-.09-.162-.124-.33-.212-.393s-.376-.049-.469.225c-.093.273.083.399.278.405s.236-.133.403-.237zm111.914-171.012c-.058.147-.167.175-.165.204.003.029.018.387.041.58.023.192.097.038.097.038.052-.193.092-.39.119-.588 0 0-.023-.122-.092-.234zm35.201 10.59c-.201-.206-.273-.347-.375-.374-.103-.026-.552.221-.512.406s.106.197.169.18c.243-.058.483-.129.718-.212zm-126.615 172.957c.242-.004.483-.008.495-.399a.209.209 0 0 0 -.17-.179c-.333.024-.35.285-.325.578zm-29.58-13.842c-.047.122-.25.17-.247.199.033.137.075.271.125.402.024-.061.202-.119.204-.16a2.016 2.016 0 0 0 -.081-.441zm164.813-154.689c-.073-.029-.106-.197-.172-.208a1.523 1.523 0 0 0 -.397.041c.025.151.019.346.097.434.079.087.241-.075.365-.14.124-.063.075-.083.107-.127zm-108.03 176.247a.746.746 0 0 0 -.866-.058c.277.194.408.542.849.066zm-40.309-16.121-.427 1.088c.46-.2.44-.547.484-1.052zm173.723-148.82-.443.264s-.043.11.035.126l.49-.061-.082-.33zm-141.933 160.299c.053-.134.047-.334.01-.348a1.313 1.313 0 0 0 -.38-.037c-.039.098-.042.322.007.341.048.02.222.116.37.061zm152.285-154.33c-.014-.146.01-.278-.034-.31a.265.265 0 0 0 -.246.017l-.101.256zm-124.69 163.344c-.018-.204-.004-.383-.071-.465-.066-.083-.22-.086-.33-.13-.11-.043-.115.294 0 .395.116.102.201.136.384.208zm-65.807-26.738-.135-.194c-.072.081-.135.17-.189.264 0 0 .076.129.123.19.064-.077.124-.157.18-.24zm-10.5-5.236a1.178 1.178 0 0 0 -.229-.387s-.221.097-.228.15c-.01.138.003.276.037.41zm77.112 29.638c.118.096.248.175.387.236a.26.26 0 0 0 .26-.052.358.358 0 0 0 .106-.269.223.223 0 0 0 -.232-.092c-.184.049-.364.11-.538.184zm68.292-179.63c-.069-.113-.096-.222-.145-.241-.049-.02-.171.003-.254-.001-.083-.005-.008.236.021.234.125.02.253.023.378.007zm63.957 25.884c-.074-.03-.188.01-.249.057-.06.047-.062.16-.005.266l.341-.078zm-229.73 110.129.208.294c.034-.086.204-.16.19-.194a1.688 1.688 0 0 0 -.161-.345l-.238.245zm231.336-108.977c.028-.073.086-.22.005-.265-.081-.046-.147-.058-.253-.001l.014.358c.081-.022.159-.052.234-.091zm-114.021 152.523c-.034.086.001.212.043.285s.139-.03.202-.048c.064-.017.072-.183-.028-.251-.101-.067-.142.001-.217.014zm-1.273-1.106c-.098-.18-.138-.294-.214-.352s-.224.067-.226.108c.001.132.011.263.029.393zm26.259 7.854.015-.361c-.13.043-.253.104-.367.181 0 0-.058.146-.018.261zm-7.585-4.036.025-.314-.251.028c-.029.073-.077.196-.006.266.072.07.149.016.232.02zm10.353 2.88a.866.866 0 0 0 -.301-.203s-.124.135-.182.211c.063.093.14.176.228.245 0 0 .153-.138.255-.253zm10.673.339c.316-.158.509-.365.297-.758a.507.507 0 0 0 -.37.536.52.52 0 0 0 .073.222zm1.548-3.117c-.17.145-.323.212-.383.329-.061.118-.018.261-.03.398a1.04 1.04 0 0 0 .328-.224 1.96 1.96 0 0 0 .104-.552zm21.885 7.605c-.146.115-.285.24-.415.373 0 0-.057.146-.008.236s.205-.018.229-.079c.082-.17.147-.348.194-.53zm62.156-155.844c.053-.134.034-.339.01-.348a1.014 1.014 0 0 0 -.354.002c-.033.085-.096.244-.01.278.114.041.233.065.354.068zm-266.845 64.707c.048-.122.008-.307-.036-.339a.866.866 0 0 0 -.342-.134c-.043.11-.037.31.01.37.046.061.212.07.368.103zm283.23-55.848c-.111-.114-.207-.264-.27-.247a.513.513 0 0 0 -.293.28c-.034.086.114.285.197.29.083.003.208-.173.366-.323zm-38.329 141.865.384-.117a.45.45 0 0 0 .048-.123s-.101-.209-.135-.194c-.134.062-.26.141-.374.234 0 0 .069.112.077.2zm-8.951-4.798.032-.368-.521.176s.072.212.138.224c.118.007.236-.004.351-.032zm.802-.856c.116.143.242.277.378.402 0 0 .214-.113.201-.118a1.693 1.693 0 0 0 -.152-.511c-.147.066-.29.142-.427.227zm17.151 3.601c.033-.085.086-.22.017-.261-.068-.041-.134-.052-.236-.008l-.01.349zm18.557-141.628a1.89 1.89 0 0 0 -.138-.477s-.212.002-.231.05c-.019.05-.125.318-.049.376s.279.081.418.051zm-14.934 134.304c.465.395.497.027.522-.359zm24.111-130.193.082-.207-.461-.083-.106.269zm-20.789 126.941a1.196 1.196 0 0 0 -.306-.19s-.131.117-.201.189c.076.094.158.184.248.266 0 0 .15-.167.268-.289zm14.87-2.95.159.062c.047-.177.08-.357.099-.54a1.008 1.008 0 0 0 -.232-.091zm-274.728-117.407.34-.22c-.074-.028-.109-.154-.187-.171s-.153.067-.238.104zm294.572 107.86c-.085-.034-.133-.236-.167-.221a1.73 1.73 0 0 0 -.342.261c.061.023.109.226.126.218.017-.007.259-.194.393-.283zm-289.155-116.737c.073.03.171.068.273-.048.102-.115.067-.17.106-.269l-.34.037zm-2.383-1.725c.074-.054.142-.118.2-.19.106-.268.078-.52-.085-.428-.163.091-.236.387-.128.613l.012.005zm318.948 91.19-.077.195.4.312.097.039s.087-.22.006-.266a2.936 2.936 0 0 0 -.438-.285zm-15.032-63.402c.135-.1.263-.21.383-.329a.678.678 0 0 0 .015-.29c-.134.052-.26.12-.376.205 0 0 .059.207-.022.414zm-221.021 105.085c.029-.074.077-.196-.031-.281-.108-.084-.122-.048-.212.002-.09.049-.091.232-.01.278.08.046.192-.023.28-.031zm144.752-166.909c-.114.04-.214.043-.251.1a.44.44 0 0 0 -.017.26l.232.091zm-133.658 170.234c-.033.086-.086.221-.022.274s.147.057.244.025a.822.822 0 0 0 -.026-.292s-.098-.039-.169-.038zm87.282-187.214.038-.097c-.073-.03-.103-.168-.172-.209s-.134-.053-.234.021zm120.126 81.159.048-.122-.109.027-.039.098zm-.611-1.03s-.057-.107-.098-.038a.339.339 0 0 0 -.057.146s.073.03.11.043c.036.015.055-.175.076-.195zm-257.79 86.092-.192.165a.562.562 0 0 0 -.038.098l.238-.175zm278.513-33.054.073.029a.456.456 0 0 0 .048-.122l-.073-.029a.553.553 0 0 0 -.048.122zm-120.712-124.584-.11-.043.011.258.086.034zm-105.622 177.912-.017-.317a1.025 1.025 0 0 0 -.225.179.884.884 0 0 0 .004.312zm-.702-.727-.35.243s.035.127.064.124c.03-.002.237-.062.358-.085zm-34.2-13.498s-.181.028-.217.085c-.037.056-.067.171-.101.256.104-.031.205-.072.302-.121 0 0-.009-.158-.045-.173l.06-.047zm116.39-171.78c-.074-.028-.099-.18-.158-.174-.058.005-.155.108-.237.175l.223.257c-.027-.039.06-.188.172-.257zm-131.841 165.25-.178.057.127.431a.461.461 0 0 0 .129-.076 3.184 3.184 0 0 0 -.127-.431zm179.774-146.487.241-.075s-.067-.224-.113-.214c-.047.01-.195.065-.297.11zm-23.154-8.145.048-.123c-.033.086-.062.16-.181.211a.303.303 0 0 0 -.048.123c.053-.064.111-.14.181-.211zm-140.084 160.586.215-.043s-.045-.102-.07-.111l-.226.038zm46.966 18.283-.109-.226s-.09.049-.1.074c0 .082.005.164.016.246zm86.84-181.349-.048.122.428.168.048-.122zm-147.805 156.541s-.168.033-.204.089a1.136 1.136 0 0 0 -.106.269l.353-.143zm41.024 15.951c-.052-.119-.057-.248-.123-.26a1.865 1.865 0 0 0 -.373-.02c.04.115.06.278.128.319.069.041.234-.021.368-.039zm-16.472-6.227c.052.119.077.27.111.255a.743.743 0 0 0 .324-.141s-.028-.18-.031-.28zm-18.055-7.624.043-.11a.505.505 0 0 0 -.169-.18s-.163.021-.239.034zm147.495-154.815c.033-.085.086-.22.003-.295-.084-.075-.135-.052-.234.021l-.02.303zm49.028 19.53a.626.626 0 0 0 -.255.041s-.077.196-.016.22a.42.42 0 0 0 .249.013l.022-.273zm-176.169 142.515.098.038.038-.098zm185.676-138.486a4.239 4.239 0 0 0 -.434-.368l-.098-.038c-.024-.01-.072.183.014.217.165.083.338.146.518.19zm-43.096-16.496-.28.031c-.029.074-.082.208.004.242.085.033.147.057.261.018.114-.04.006-.196.015-.29zm78.229 51.873-.22-.087-.072.184.232.091zm-139.018-74.793-.004-.312c-.029.073-.18.099-.192.165-.017.127-.016.256.005.383zm-37.821 192.962a1.642 1.642 0 0 0 -.183.14s-.033.086.053.119c.068 0 .137-.006.204-.018zm152.821-146.643-.181-.367s-.111.069-.048.122c.064.053.017.246.022.376zm-162.207 139.827.034-.086c.004-.012 0 0-.098-.038-.098-.039-.029.073-.034.085a.12.12 0 0 0 .098.039zm37.207 11.588c-.114.04-.253.07-.25.099a.474.474 0 0 0 .034.31l.207.081zm-9.607-3.772-.073-.029-.098-.038.073.029c.02.031.052.054.088.063zm19.856 7.598-.018-.205s-.102.045-.038.098a.45.45 0 0 0 .006.2zm-132.621-52.207a.728.728 0 0 0 .177-.199s-.035-.126-.065-.194-.033.085-.048.122c-.014.037-.026.173-.064.271zm105.08-157.02-.094-.192s-.109.027-.114.04l-.001.253zm-106.514 155.893c0-.091-.012-.181-.036-.268 0 0-.138.03-.202.048l.04.368c.065-.059.138-.101.198-.148zm109.107-154.664.041-.463c-.024.06-.183.07-.211.142a.796.796 0 0 0 -.111.282l.281.04zm12.789 200.234-.379-.149-.124.064c.072.092.152.175.241.25 0 0 .105-.015.243-.116zm21.378 8.393.119.201s.107-.056.048-.122a1.933 1.933 0 0 0 -.024-.263zm93.47-157.558s.086.033.122-.023.033-.086.053-.134l-.185.04zm-94.896 150.805c-.102.045-.211.072-.23.121-.02.049-.087.22.002.283.088.063.146.057.232.091zm-43.96-204.882-.048.123.085.033zm52.846 203.772.266-.065c.029-.074-.018-.205-.07-.254a.277.277 0 0 0 -.232-.091.312.312 0 0 0 -.087.22c-.014.037.067.083.138.153zm-42.937-199.656-.057-.248-.102.045c.005.086.018.172.04.255zm-127.791 61.939-.098-.038-.11-.044.082.188zm.79 70.14-.057.147a.47.47 0 0 0 .211-.072l.053-.135zm283.418-61.035-.253.07c-.024.06.065.194.133.235.069.041.168-.033.249-.058l-.129-.248zm11.656 110.449s.034-.086-.04-.115l-.199.077-.043.11zm-169.09-181.596.114-.04-.05-.16a.532.532 0 0 0 -.048.122s-.043.04-.029.073zm47.285 199.613s.199-.006.248-.058c.048-.051.072-.183.032-.297-.04-.115-.183-.072-.243.045a.693.693 0 0 0 -.05.305zm114.721-127.716s-.199.007-.219.056a.833.833 0 0 0 -.02.302l.348-.131zm-36.508-21.992.129.248s.024-.062.124-.065l-.197-.289zm-67.687 151.894-.015.29.229-.009.02-.302zm88.612-136.203-.157-.174a.767.767 0 0 0 -.101.256s.082.117.133.165c.037-.084.079-.167.125-.247zm3.382 117.654.106-.269-.221.097.065.265zm-71.352 25.044c-.035-.126-.078-.27-.095-.262a.854.854 0 0 0 -.333.165s.021.163.029.251zm.937-.267h-.254l-.035.268c.074.029.159.062.251-.028.092-.091.021-.161.038-.24zm-12.629-5.239.116-.294c-.074-.029-.225-.003-.256.041-.029.113-.046.23-.052.346zm-72.766-203.41.031-.44c-.024.062-.165.063-.206.131a1.086 1.086 0 0 0 -.106.27zm150.355 194.032a1.3 1.3 0 0 0 -.331.195s-.067.171-.027.285c.122-.035.241-.083.352-.144 0 0 .014-.178.006-.336zm-53.282 13.15-.224.138c.022.04.052.075.086.105.077-.008.152-.02.227-.038zm-4.942-1.785.258-.082-.031-.209s-.158.079-.236.133c.011.062.03.121.058.177zm-221.028-87.93-.138-.224c-.033.086-.187.153-.186.224 0 .07.084.145.138.223.083-.062.161-.131.235-.204zm-2.156-30.118.211-.214a.749.749 0 0 0 -.22-.086.197.197 0 0 0 -.048.122c.025.07.06.137.106.197l-.049-.02zm116.82-88.394-.002-.283c-.029.073-.167.103-.196.177a.814.814 0 0 0 .002.282zm12.558 1.177.199-.147-.097-.039a.945.945 0 0 0 -.237.063zm90.72 199.399.106-.269c-.074-.029-.21.03-.263.094s-.067.171-.101.257zm43.599.554a.76.76 0 0 0 -.249.058l-.072.183c.08.02.162.028.244.026zm-11.084-3.138s-.098-.18-.145-.169a.933.933 0 0 0 -.235.203c.073.029.111.185.182.185.07-.001.189-.124.247-.2zm-129.421-196.76.013-.32s-.195-.006-.214.043a.613.613 0 0 0 -.111.281zm129.601 198.1a.64.64 0 0 0 -.158-.174s-.119.052-.111.069a.925.925 0 0 0 .053.26zm42.117-132.435c.044-.11.006-.265-.018-.275a1.48 1.48 0 0 0 -.357-.027c-.028.073-.076.196.009.23.094.005.189.005.283-.003zm-51.197 135.261s-.048-.202-.104-.238c-.057-.036-.171.003-.246.016-.076.013.045.244.116.314s.21-.031.234-.092zm3.667 1.44-.098-.039a.463.463 0 0 0 -.053.135l.159.062zm7.315.304.043-.11c.005-.012-.074-.029-.11-.043l.001.212zm-117.202-198.565.016-.29s-.115.04-.112.069a.831.831 0 0 0 -.096.244zm137.735 54.778-.096.245s.102-.045.116-.081c.014-.037-.027-.11-.02-.164zm-3.782-2.585.053-.134-.135-.053a.53.53 0 0 0 -.048.122s.089.063.13.065zm-37.301 145.823-.044.11.098.039zm-10.329-1.36.129-.077-.157-.174s-.024.061-.136.059zm103.988-74.43.038-.098-.061-.023zm-196.135-126.15a1.758 1.758 0 0 0 -.21.214s-.029.074.03.14c.084-.062.163-.13.235-.205l-.055-.148zm186.313 100.682s.048-.122-.043-.143l-.238.033s-.048.122.03.139a1.77 1.77 0 0 0 .251-.029zm-31.643-40.17.062.094.038-.098-.1.003zm-18.978 130.302.053-.134-.086-.034a.506.506 0 0 0 -.053.135zm-266.62-73.452a1.312 1.312 0 0 0 -.177-.197s-.024.061-.111.069c-.088.008.023.193.064.195a.82.82 0 0 0 .224-.067zm280.414 74.933.038-.098-.11-.043-.038.098zm-275.706-70.504.069.112.043-.11zm209.788 82.926.124-.064a.869.869 0 0 0 -.118-.202s-.024.061-.119.052zm-.876-.104.048-.123c.005-.012-.073-.028-.11-.043l.002.212zm62.259-16.793s-.114.04-.124.064l-.015.291s.114-.04.124-.064c.011-.097.016-.194.015-.291zm-270.189-64.148-.048.123c-.01.024.074.029.11.043l.082-.208zm123.57-124.919s.038-.097-.052-.119a.995.995 0 0 0 -.224-.003s-.044.11.03.139zm-16.76-.429.117-.081-.145-.17s-.024.061-.12.052l.148.2zm-112.011 76.542-.03-.14-.124.065.064.195zm294.468-5.207-.043.11.11.043zm2.282 114.528-.086-.034-.033.086zm-28.199-130.98a.98.98 0 0 0 -.208-.153s-.029.074-.129.077.092.163.165.191c.073.03.075-.083.136-.13zm-264.47 16.08.049.09.033-.085-.083-.005zm190.514 133.564-.11.028-.033.085.173-.045zm103.339-18.411-.053.134c-.014.037-.029.074.03.139l.096-.244zm-172.227-188.088-.11-.044.147.058zm77.142 210.232-.086-.033-.034.085zm65.907-154.187.243-.045s.048-.122-.025-.151a1.499 1.499 0 0 0 -.22-.087zm29.331 131.114.027-.285s-.073-.029-.114.04l-.101.256zm-115.702 15.801-.053.135.048-.123zm110.2-128.63-.132.047a.88.88 0 0 0 .019.276s.074.028.139-.03a2.513 2.513 0 0 1 -.014-.288zm5.352 108.934.074.028.048-.122zm-289.553-118.021-.091.233.038-.098c.038-.098.065-.059.065-.13l-.012-.004zm319.522 68.887a1.008 1.008 0 0 0 -.232-.091l-.124.064c-.124.064.074.17.143.212.068.041.189-.124.213-.185zm-31.614-57.709s-.043.11.035.127c.083.01.166.015.249.013 0 0 .043-.11-.042-.144a.674.674 0 0 0 -.242.004zm-287.416-12 .034-.085c.004-.013 0 0-.098-.039l.006.2zm171.849 140.146-.048-.132c-.061.058-.119.12-.171.187 0 0-.029.073.03.138.056-.07.12-.135.189-.193zm3.006 2.295.028-.286-.086-.034a2.009 2.009 0 0 0 -.1.257zm-4.529-.932.053-.135-.135-.053a.345.345 0 0 0 -.043.11zm17.855 6.911s-.039.097.047.131l.246-.016s-.018-.134-.047-.132a.849.849 0 0 0 -.246.017zm-12.15-4.375a.814.814 0 0 0 -.106-.197s-.024.061-.119.052l.121.231zm-11.344-4.2-.11-.043-.043.11.11.043zm1.184.578a.388.388 0 0 0 .048-.122l-.11-.044-.076.196zm151.368-76.933s-.006-.199-.042-.214c-.037-.014-.135-.053-.242.004s.011.188.055.219c.044.032.215.028.229-.009zm-146.77 79.81a.692.692 0 0 0 .058-.147l-.074-.028a.68.68 0 0 0 -.057.146zm118.459-130.227.131-.047-.042-.143-.18.098zm-103.324 136.521-.086-.033-.053.134.147.058zm-60.262-211.76a.732.732 0 0 0 -.053.134s.049.09.098.038c.048-.051.033-.085.052-.134l-.097-.039zm138.573 54.077.053-.135a1.765 1.765 0 0 0 -.254 0l-.048.122c.09.015.182.022.273.022l-.024-.01zm43.665 121.336.038-.097-.098-.039c-.097-.038-.043.11-.043.11a.41.41 0 0 0 .103.026zm-148.513 29.272-.048.122.11.043zm-149.375-58.15a.598.598 0 0 0 .043-.11l-.11-.043-.038.098s.014.034.056.036zm137.261-138.883-.11-.043.11.114zm12.185 197.965.134-.018s.028-.074-.069-.112l-.098-.038zm1.492.402c-.038.098-.14.143-.203.231s-.029.073.037.156a2.03 2.03 0 0 0 .204-.231s-.074-.099-.111-.114zm-150.317-58.082-.097-.222a.595.595 0 0 0 -.174.228c-.029.074.038.156.067.224.03.068.085-.178.155-.25zm133.962 52.888.029-.073-.115.04.062.165zm95.984-156.74.048-.122-.135-.053-.043.11c-.009.024.093.05.13.065zm-82.82 162.303c.059.076.127.145.201.206 0 0 .029-.073.117-.081.087-.008-.045-.173-.106-.197s-.127.035-.212.072zm-1.851-.063-.098-.039-.058.147.098.038a.22.22 0 0 0 .058-.146zm7.391 3.127-.094-.192c-.066.07-.129.145-.186.223 0 0 .064.124.099.18.034.056.111-.14.218-.196zm96.528-158.628.039-.098c.005-.012-.074-.029-.11-.043l.018.204zm-117.345 152.938.023-.273s-.11.028-.119.052a2.187 2.187 0 0 0 -.091.232zm142.13-127.817.098.038a.533.533 0 0 0 .048-.122l-.074-.03s-.053.065-.072.114zm-153.794 123.14-.152-.187s-.107.056-.1.074c.004.076.017.152.038.226zm107.364-157.267-.244.045-.048.123c.091 0 .181-.013.268-.036zm23.332 8.949s.044-.11-.047-.132a1.312 1.312 0 0 0 -.253 0s-.048.122.03.138c.09.012.181.01.27-.007zm-13.58-5.332s-.069-.182-.125-.219c-.056-.036-.168.033-.249.058-.08.025.065.195.126.219s.178-.057.258-.082zm-15.523-6.094a.25.25 0 0 0 .039-.098.146.146 0 0 0 -.098-.038l-.082.208zm-209.616 119.154.015-.29s-.168.033-.204.089c-.02.094-.029.19-.027.286zm108.08 43.391.136-.059a1.858 1.858 0 0 0 -.159-.204s-.024.061-.124.064zm160.396-121.45.033-.086-.085-.034-.034.085.086.034zm12.527 4.706a.292.292 0 0 0 -.114.04.807.807 0 0 0 -.053.134l.187-.082-.02-.093zm-184.485 114.18-.074-.029-.038.098zm32.783-192.274-.098-.039c-.024-.01-.024.062-.038.098-.015.037.073.03.11.043.036.015-.001-.07.026-.102zm84.106 32.878-.03-.139a1.4 1.4 0 0 0 -.201.19s-.024.06.035.126zm-120.058 159.167-.052-.119a1.463 1.463 0 0 0 -.165.203s-.024.062.035.127c.056-.074.117-.145.182-.211zm136.431-153.26s-.109.027-.114.039a1.592 1.592 0 0 0 -.013.249.816.816 0 0 0 .167-.174l-.04-.115zm-139.857 152.211a.68.68 0 0 0 -.053.134l.271-.007s-.008-.158-.021-.163zm179.653-116.782.034-.086-.086-.033zm-28.013-31.27s.043-.11-.043-.143c-.088.002-.176.01-.263.023.054.07.114.135.177.197 0 0 .077-.054.129-.077zm-143.553 152.427c.069-.065.134-.134.194-.206 0 0 .034-.086-.052-.12a.16.16 0 0 0 -.072.007.135.135 0 0 0 -.059.041c-.029.144-.021.231-.03.327zm131.793-157.58a1.037 1.037 0 0 0 -.208-.152s-.029.074-.129.077a.67.67 0 0 0 .143.21s.109-.027.175-.085zm-218.498 123.922-.086-.034a.264.264 0 0 0 -.053.134l.16.063zm150.533-150.59s-.122.023-.127.035l-.032.298s.127-.035.131-.047c.009-.079.011-.158.009-.237zm-149.023 151.449s.043-.11-.043-.143c-.085-.034-.024.061-.119.052l.09.204zm15.749 6.31.005-.265-.143.042c-.034.085.006.2-.003.295l.14-.072zm124.703-161.547-.268.036s-.043.11.047.131a.926.926 0 0 0 .258-.011zm-135.066 157.761-.026-.151s-.124.064-.116.081c.012.065.03.128.052.19zm26.17 10.274-.082.208.033-.086a.471.471 0 0 0 .029-.073zm109.683-167.994-.029.074.085.033zm-81.948 178.911.122.048.048-.122-.11-.043c-.037-.014-.046.081-.06.117zm-63.714-24.562.048-.122-.11-.043zm28.712 11.272.043-.11-.085-.033c-.012-.005-.029.073-.043.11zm251.519-65.122.085.033.053-.134-.073-.029a.222.222 0 0 0 -.065.13zm-7.689-27.452c.034-.086.067-.171.191-.236.124-.064-.037-.085-.064-.123a1.68 1.68 0 0 0 -.174.227s.025.08.047.132zm-253.233 89.616-.048.122.134.053.048-.122c.014-.037-.134-.053-.134-.053zm47.331 18.427a1.172 1.172 0 0 0 -.198.218s-.029.073.03.139c.072-.067.139-.14.198-.219 0 0-.068-.111-.079-.157zm-49.327-18.59.053-.134-.147-.058a.793.793 0 0 0 -.048.122s.056.036.093.051zm36.376 13.886-.039.098c.039.021.08.037.123.048l.072-.184zm6.111 2.399.074.029.028-.073zm-36.996-14.101c.05.064.108.12.174.167l.12-.052c.118-.052-.063-.165-.107-.197-.044-.031-.227.038-.246.087zm21.824 8.695.043-.11s-.102.044-.038.098a.45.45 0 0 0 .032.168zm227.58-94.341.039-.098-.098-.038zm-242.249 88.836c-.024.061.04.185.09.204.048.019.158-.008.228-.009.071 0-.006-.199-.055-.219-.049-.019-.146.013-.263.024zm-22.993-7.8-.044.11.086.034zm274.569-61.674-.064-.123a2.1 2.1 0 0 0 -.194.206l.047.131zm-18.012-25.015-.057-.107-.038.098zm-239.744 93.953-.195-.077s-.03.074.056.107c.086.034.068-.03.115-.04zm34.897 14.42-.069-.112c-.069-.112 0 0-.122.023l.057.107s.063-.018.109-.028zm230.606-55.587a1.038 1.038 0 0 0 -.157-.174l-.119.052c-.119.052.032.168.081.187s.151-.025.219-.055zm-6.996-28.534.11.043-.003-.17zm-246.58 75.865c-.073-.029-.077-.2-.138-.224s-.168.033-.265.065c-.097.033.081.188.142.212.062.024.169-.033.261-.053zm13.617 5.345.069.112.043-.11zm2.163.85.086.033-.098-.038z" fill="#6670c8"/></svg>