<svg fill="none" height="92" width="230" xmlns="http://www.w3.org/2000/svg"><path d="m5.2 67.4c-.2 0-.4-.2-.5-.4-.2-.1-.1-.3-.4-.5l.1-.4.4-.3c.6 0 1.1.4 1.8.4v.2-.2l-.3-.4h-.5v-.2l.3-.1-.3-.4v.5c-.5 0-.2-.3-.3-.5l-.5.2h-.3v-.1h.1l.2-.2h-.6l.1-.3c-.3-.2-.5.1-.8-.1.1-.3.5-.3.8-.4l-.4-.6v.4h-.2s-.2-.3-.5-.3v-.4.4c-.5 0-.5 0-.5-.4v-.3l.5-.6.7.1.3.1s.1.1.2 0h-.6l.2-.3-.1-.3-.5.1-.5-1.4v-.2l.5.7c.2 0 .2-.1.2-.2l-.2-1-.4-.2a3 3 0 0 0 -.6 0c.2-.2.3-.3.5-.3l.1-.2v-.2l-.4-.3-.4 1.3c-.2-.2-.2-.2-.1-.8-.3 0-.3.1-.5.2a.3.3 0 0 1 -.2 0v-.1c.3-.2.2-.6.5-.8l-.7-.4-.2-.8.5-.1-.7-.3c0-.3.5-.4.4-.7l-.5-.3.2-.5c-.4 0-.4 0-.9-.3 0-.3.3-.2.5-.2-.3-.3-.2-.7-.3-1l.1-.2.3-.2.7-.1h.3c.2.3.2.6.1.9 0 .3 0 .3.5.4l-.1-1.5s-.1-.2 0-.2c.3-.5 0-1 0-1.5.1-.5 0-.5-.5-.8-.1.2.2.4 0 .6-.3.2 0 .4-.4.6 0-.7-.2-1.2.2-1.8-.1-.1-.3 0-.4 0-.2 0-.3 0-.4-.2.6-.2 1-.7 1.6-.8h.1v-.2c.1-.3.5-.2.6-.5l.1-.5c0-.1 0-.4.3-.4s.2.3.3.5c0 .3-.2.5-.5.8l.1.2a65.5 65.5 0 0 0 .3-.3v-.8c.2 0 .4-.2.5-.3l.1-.2v-.1c0-.3.2-.4.5-.3l.7.2-.2.1c-.4.2-.5.3-.3.6l.3.2.2.3v.4l-.7.7.4.5c-.2.1 0 .4-.3.6v1.3l-.1.8-.5.2h-.3-.2c0 .6-.2 1.2 0 1.8v.1h.5l.5.3v.6c-.4 0-.4 0-.7-.5l-.1.3v.4h.2l.3-.1.6.3-.1.4c-.3.2-.2.5-.2.7 0 .1.4.1.1.3-.2.2 0 .3 0 .5.2.1.2.2.3.4v.7l.1.2c.3.3.4.7.3 1l-.2.3c.7.5 1.2 1.2 1.3 2v.4c.3.3.4.6.3 1 .6.5.6.5.5 1.1l.4.2c.2 0 .3.2.4.3l.1.4.1.2.4.2v.3l.3.4a6.4 6.4 0 0 1 1.4 1.5l.2.4 1 1.3.1.4c.5.2 1 .5 1.1.9.2.3.5.6 1 .8l1 .6a7 7 0 0 1 2.1 1.3l.6.3.4.1.2.3.2.1c.8.3 1.5.7 2 1.2l1 .5c.3 0 .6.2.8.3.2.2.6.2.8.3.3.1.4.4.6.4.8.2 1.3.6 2 1 .5 0 1 .3 1.3.5l.4.1c.8.1 1.6.3 2.2.6a18.8 18.8 0 0 0 4 1.2l2.1.5v.2c.2.2.7 0 1 .3l.3-.1c.4.7.4.7 1.4.6l.7-.1h.6l-.2.4.8.3 1-.2.1-.3c.6 0 .6 0 .7.2.3 0 .6-.3 1 0l-.3.4h.5l.5-.2.2.3h1c.3 0 .5.3.7 0l.7.4.8.2h.3l.2.1c.4.4.9.3 1.3.2.3 0 .5 0 .6.2h.2l1.8.4h.4c0-.2-.4-.3-.6-.5h.2c.1-.2.3-.2.5-.3l.5.1.1.7.2.1a140.6 140.6 0 0 0 .3-.3l.5.1c.3 0-.2-.3.1-.4.5.2 1 .4 1.6 0l.8.5.2.7a3.5 3.5 0 0 0 2.2-.2l.9.4h.2c.2 0 .2-.3.4-.2.3.1.5 0 .7.2s.6.2 1 .2l.2-.1c0-.1.1-.2.3-.1h.3c.4-.2.8 0 1.1 0l.4.6h1l.3-.3h.2l.1.2.2.2h2.6l.6-.2v.1l.4-.1.4.3c.1 0 .4 0 .4-.2l.3-.2h.2l.2.2.2.4c.3 0 .7.2 1-.2 1 .1 1.8-.2 2.7-.2l.7-.1c.1-.1.4.2.6 0h.1c.1.3.6 0 .8.3.1.3.4.2.5 0l1.5.6.3-.1v-.3l-.2-.1v-.3h.2l.1.2.5.2.3-.2c.2.2.4 0 .6 0 .5.2.9.1 1.2-.1l.3-.1c.5 0 1 0 1 .5l1.4.1v-.2l.6.1c.3 0 .3 0 .3-.2h.6c.2-.1.3 0 .3.3h.6c.5.1.8 0 1.2-.1l.2-.3.9.2c.4 0 1 0 1.3-.2l.3-.3c0 .4.3.5.8.6l.3-.1c0-.2.3-.2.5-.3.5 0 1-.3 1.3-.6.3.4 1.1 0 1.4.6.2-.5.2-.5.7-.6l-.3.4.2.4.3-.1c.2-.2.4-.4.9-.4 0 0 0-.2.4-.1.3 0 .4 0 .6.2l.2.2h.1-.2l.3-.3.6-.2.5.3c.4-.2.9-.2 1-.6.4 0 .8.2 1 .1.3 0 .6.3 1 .2v.1-.1l-.3-.6.2-.2h.4l1.1-.1.1.4h.2s.2-.2.5-.1h.9c.6-.1 1.2-.2 1.8-.1l1.3-.3c.3.1.7.3 1.1.1l-.1.2c0 .1.1 0 .1 0v-.2l.1-.1h1.4l.2.4c.4 0 .4-.3.6-.4h.6c.2-.1 0-.3 0-.5.3-.3.9 0 1.2-.2l.5.3.4-.1.2-.3h.2c.1 0 0 .1 0 .2l.1.2.2-.2.2-.2.8-.4c.3 0 .4 0 .6.2l.3.3c0-.2.2-.3.3-.5l.6-.1v.3h.1l-.1-.3.4.1.2-.3c.2.1.3.3.6.3.1 0 .2 0 .2.2v.1l.2-.2v-.1l.5.1.2-.2.3.6.2-.4h.4v-.2c-.4 0-.4-.2-.4-.4h.3c.3.1.3.1.4-.2l1.1.3c.2 0 .3-.2.5-.3l.2-.1h.3a1 1 0 0 0 .7 0c.2-.1.3 0 .4.2l1-.3v.5l1.3-.5.4-.2.3-.3h.5l.5.2h-.1.1c.3 0 .3-.2.4-.4l.5.3.1-.3h.6c.1-.2.3-.2.4-.3h.3c0 .2.2.3.3.4l.6.1h.2l.2.2h.5v-.8l.5.3a7 7 0 0 1 2.8-.9l1.5-.2c.3 0 .6.4 1.1.3.5 0 .5 0 1-.6.6 0 .6.4 1 .7l.5-.4-.3-.3.2-.5h.3l-.2-.4.2-.2 1.2.1c.2-.3.7-.4.7-.8.3 0 .3.2.3.3 0 .2-.1.3.2.3l.3-.6a3.7 3.7 0 0 0 .8-.4 1.3 1.3 0 0 1 1 .1l1.6-.7c.4 0 .6.3.6.6.2 0 .5 0 .7-.2l.4-.3.2.3h.5l.4-.1.7-.2h.8l.2-.5.2.3c.3 0 .1-.3.3-.3l1 .3h.2l.3-.1c.3-.3.7-.5 1.1-.6l-.2-.4c.5-.2.6.2.9.2l.1-.3h1.3c.2 0 .3.1.3.2l1-.4-.2-.2c.2-.2.5 0 .7 0 .2-.2.4-.2.7-.2l.5.3h.5l.3.1c.3.1.5 0 .7-.2-.2-.3-.9 0-.9-.6l.6-.2.2.4h1.2c.1-.2-.1-.3-.3-.5.4-.1.5-.4 1-.6.3-.1.2-.3 0-.6 0 0-.1-.2 0-.2h.3l.3.1v.6l.7-.5h.5c.2 0 .5-.3.9-.3h.4c.2 0 .3 0 .4-.2l.4-.4v-.2c0-.1 0-.2.2-.2h.4c.5 0 .5.2.5.4h-.3l.1.1h.2l.1-.2c.3-.5.5-.6 1-.4a1.3 1.3 0 0 0 1 0c-.2 0-.3.3-.5.3v.2c-.1 0-.1-.1 0-.2.3 0 .3 0 .4-.3-.2 0 0-.2-.2-.3l.3-.1.4.3.4-.5.4.2c0 .3.4.3.8.2v-.7l1.3-.1h.3c.4 0 .6 0 .8-.2s.3-.2.5.1h-.1l-.2.1h.3l.9.2.6-.3-.1-.4a1 1 0 0 0 -.5-.3l-.1-.2 1.5-.6h.1v.1h.1-.1c.5 0 .5 0 .8-.4l.2.1.1.2 1.6-.3c.5 0 .5 0 1-.5-.4-.3-.6.2-1 .1v-.5h.5c.3 0 .3-.2.4-.4l.3.1c.1 0 .2 0 .3-.2a3 3 0 0 0 1.6-.6l.3.1c0 .2 0 .3.3.2l.3-.1-.3-.2c0-.3.2-.4.5-.4v.2h.1l.1-.2h-.2l.4-.3v-.3h.5l.3.4h.2c.2-.3.6-.4.9-.5 0-.2 0-.2-.2-.3l-.3-.1c.3-.2.8-.2 1-.5l.5.1-.4.4a.8.8 0 0 0 .4 0l.2-.1v-.1l.8-.6c.3-.1.5-.3.9-.2l.7-.1h.1l.1-.1.2-.2.3-.1a1.2 1.2 0 0 1 .7 0c.1 0 .1-.3.4-.4h.7v-.6h.7v.3h.7l.6-.2.4.1c.1.1.2 0 .4 0-.1-.2-.2-.5-.6-.4l-.5-1 .8-.2.2-.3.3-.2v.4h.2l.2-.2c0-.2.2-.3.5-.4l.2-.1.5.1c.2 0 .3-.1.3-.2v-.4l1.2-.2c.2 0 .3 0 .4-.3s.1-.3.5-.3h.3v-.2c.3 0 .6 0 1-.2h.2c.2 0 .3 0 .3-.2l.3-.2c.3 0 .5-.1.7-.3l.2-.1c.6 0 .8-.4 1.1-.7l-.5-.1c0-.2.1-.3.3-.3l.6-.1h1l-.3-.8.6.1.1-.2h1c.2-.2.1-.4-.1-.5.1-.2.4-.3.3-.6l.8-.3.3-.1.2-.3h.9l.2-.1c.2 0 .4-.1.3-.3 0-.3 0-.7.3-1l.4.1 2-1.4.5.2.7-.5v-.3c.4-.1.4-.1.6-.6.3 0 .5 0 .7-.2l.3-.3c0-.2.2-.3.3-.4h.6c.2 0 .4-.2.5-.4l.4-.1v-.4l.3-.3c.3-.2.3-.5.7-.6v-.2c0-.1-.1-.2.1-.2.3 0 .3-.2.5-.3v.4h.3l.6-.4c-.3-.2-.6-.4-.3-.7-.1-.3 0-.7-.5-1v-.2c.2-.1.2.2.4.1l.6-.4.2.2a3.9 3.9 0 0 0 1.2-1.3l.5-.6c-.1-.3.2-.5.3-.7l.4-.7.3-.8.1-.4c.3-.4.2-.8.4-1.2l-.2-.6c-.2-.4-.2-.8 0-1.1l.1-1-.3-1.6v-.9c-.3-.1-.4-.3-.5-.6l-.8-1.8c0-.3-.4-.2-.5-.4a7 7 0 0 1 -.7-1.2l-.3-.4c-.3-.2-.5-.6-1-.8v-.2c-.8-1-1.7-1.8-2.7-2.6l-1.3-1-1.8-1.4-.7-.4h-.2c-.4-.4-1-.8-1.6-1v-.2h.7l.2.3h.1v-.2h-.3c0-.3-.3-.4-.5-.4-.5.1-.9 0-1.3-.2l-.5-.2c-.1 0-.6 0-.8-.3-.1-.2-.6-.1-.7-.4-.8-.5-1.5-1.2-2.7-1-.1-.3-.2-.6-.6-.7-.3-.1-.6-.3-.7-.5l-.6-.4a3 3 0 0 1 -1-.4c-.1-.2-.4-.4-.8-.5l-.7-.3c-.5-.2-1-.6-1.5-.6l-.3-.1-.6-.2-.4-.2c-.2-.1-.3 0-.4 0l-.5-.6-.7-.1-.7.1c0-.2-.2-.4-.5-.6l-1-.4-1.7-.4-2.2-.5-.4.1-.4-.3-.7-.2-.1-.4-.7.5c-.2 0-.4-.3-.7-.2h-.4l-.2-.3c-.1-.2-.4-.1-.7-.1l-.4-.1a.7.7 0 0 1 -.4-.2c-.1-.2-.4-.2-1-.3a2 2 0 0 1 -.4-.1l.3-.2h-.2c-.8-.1-1.6-.3-2.2-.6l-.5-.2c-.9 0-1.6-.3-2.4-.5-.4 0-.8 0-1.2-.2a16.2 16.2 0 0 0 -1.9-.5h-.7c-.4.2-.7-.2-1 0l-.2-.2c-.4-.4-1-.3-1.5-.3h-.7v-.1c-.4-.1-.8 0-1-.3-.3-.2-.7 0-1-.3-.4 0-.7-.4-1.3-.2l-.4-.5-.4.3h-.2a.8.8 0 0 0 -.4 0h-.2l-.3-.2-.9.2-.9-.4-2.4-.5h-.2a3.4 3.4 0 0 0 -1.7-.2c-.4-.2-.7 0-1 .1-.5-.2-.7-.6-1.4-.5l-.3.3-.2-.4.3-.4c-.3-.2-.5 0-.7.1l-.2.2h-.3a1.2 1.2 0 0 1 -.7 0l-.8-.2h-.3c-.2-.4-.3-.3-.6 0-.3.2-.6.2-1-.1l-.3-.2h-1c-.6.1-1-.2-1.5-.3h-.1c-.1-.4-.4-.2-.6-.2l-.2.3-.3-.4-.7.2h-.6a6 6 0 0 1 -.8.1l-.8.1-.6-.1.2-.2h-.2a4.2 4.2 0 0 1 -2.3-.2 4 4 0 0 0 -1.6-.2c-.3 0-.7.1-.9-.2h-1.9l-.3.2-.9-.2c-.3 0-.6-.4-1-.3h-1c-.7 0-1.4-.3-2-.3l-.4-.6-.2.1c0 .3-.2.5-.6.5-.3 0-.7.2-1.2 0h-.1l-.2.1c-.3.3-.7.3-1.2.3.1-.3.4-.3.8-.4l-.5-.1h-1.6a31.8 31.8 0 0 1 -3.2-.1 25.6 25.6 0 0 1 -4 .1h-1.4c0-.4.4-.3.6-.4l-.5-.1h-.4a2.1 2.1 0 0 0 -1.2 0l1 .3c-.1.3-.5 0-.7.3l.3.1c.3 0 .3.2.2.3h-.7a14.9 14.9 0 0 0 -2.7 0h-1.5c0-.2.2-.2.2-.2v-.3h-.3c-.3 0-.4.2-.5.3v-.2h-3.4c.1.3.4.2.6.3l-.3.1h-1.2l-.4-.4-.2.1h-1.2a4.8 4.8 0 0 0 -1.5 0c-.6-.2-1.3 0-1.8 0l-1.8.1h-1.5l-2.1.1h-.8a6 6 0 0 0 -1.3 0c-.4 0-.8 0-1.2.2-.2 0-.5.2-.7 0h-.3c-.4.3-1 .1-1.5.1l-1 .1c-.3.2-.5 0-.8 0s-.7.3-1 0a.3.3 0 0 0 -.2 0c-.7.3-1.5.2-2.3.3l-2.2.2c-.3 0-.4.2-.7.1-.3 0-.4 0-1-.4l-1 .6v.3h-.6c.3 0 .2-.2.1-.3a.6.6 0 0 1 -.3-.2v-.4l-.3-.2c.5-.2 1-.5 1.6-.1.4-.5 1-.4 1.6-.4v-.1c-.4-.2-.8-.2-1.4 0h-2l.5-.4a52.8 52.8 0 0 1 1.6-.1l.2-.2v-.2h-.1l-.2-.1c-.3 0-.1.3-.3.3-.2.1-.4 0-.6-.1l-.1-.2h-2l-1 .3h-.2l-.9-.1h-.3c-.2.3-.3.3-.4 0h-.2l-.5.1v-.1h-.2l.1.1h.2s0 .2-.2.2l-.8.2.3.3h-.2.2a2.3 2.3 0 0 0 1.4.1h1.4c.1.1.1.4.5.2a9 9 0 0 0 1.2.5h1l-.3.7h-.7c-.2.1-.3.3-.3.4-.1.1 0 .1.1.2l.1.4c-.6 0-1 .2-1.5.3l-1.5-.5-.4.2-.4-.4-.6.2c-.2-.1-.3-.3-.7-.3l-3 .3a1 1 0 0 0 -.6.2c-.7.5-.8.5-1.7.5h-2c-.6 0-1.2 0-1.8.2h-1a6 6 0 0 0 -1.4.2l-.4.1-.2.4h-.3l-.5-.2h-.6l-.8.1 1.2-.5.4.2.2-.3h.6v-.2c0-.3 0-.3-.3-.3h-.3c0-.1 0-.3-.2-.2v.1l.1.1h.2l-.4.2a3 3 0 0 1 -.6.2c-.4 0-.8.4-1.3.4l-.2.1v.2h.6v.6l-.9-.1v-.5h-.5c0-.1-.1-.1-.2 0h-.5a2 2 0 0 1 -.5 0l-.5-.1v.2l-.1.1-1-.2-.9-.1c-.2.1-.2.4-.6.5l-.2.2c-.3.3-.3.3-.8.2a.4.4 0 0 0 -.2 0c-.1 0-.2 0-.3.2l-.2-.4h-1.1l-.7.2c-.1.2-.4.2-.6.3l-2 .1c.3 0 .5-.2.7-.4l.2-.5c.5-.1 1-.3 1.5-.2a.4.4 0 0 0 .2 0l.6-.3c-.3-.2-.7 0-1 0l-.2-.5h.1a1.2 1.2 0 0 0 .9-.1l.5-.1.3-.1.2-.2c.1-.1.2-.2.5-.2l.2.3-.5.4-.1.5h.3c.8-.2 1.7-.3 2.5-.3l.9-.3v-.2l.2.2c.4.4.7.5 1.2.2l.5-.3c.6.1 1.1 0 1.7-.3l-.8-.3c.2-.2.5-.2.8-.3l.2.4c.4 0 .6-.2 1 0h.3a289.8 289.8 0 0 0 -.3 0c0-.3-.5-.3-.6-.6-.2.1-.5-.1-.8 0h-.7c0-.2.3-.1.5-.2-.1-.2-.3-.1-.5-.2l-.5-.1a1 1 0 0 0 -.4 0l-1.4.5.2.3-.4.2-.1-.1v-.5l-.2-.2v-.3h.7c.2.2.3.2.4-.2.6 0 1.3 0 1.9-.3l-.4-.2c.2-.3.8-.4.6-.9.4 0 .9-.1 1.1.3h.7l-.5.4.3.2h1.4c.7 0 .8.1 1.1.6v.2h-.5v-.3h-.3c-.2.1-.5 0-.8 0a2 2 0 0 0 -.5 0c.4.4.4.4.8.4h.1c0 .3.5.2.7.3l.4-.2h.7l.1.7h.8c.2 0 .2-.1.2-.3.2 0 .4.2.7 0h.6l.1-.2-.4-.2-.5.3-.5-.5-.1-.2h.4-.4l-.3-.2c0-.2-.3-.2-.5-.2 0-.1.5-.2 0-.4l.3-.1.4-.1c.4 0 .8 0 1.1-.2.5-.1 1 0 1.6-.2l.3.4.9-.6 2.1-.1-1.1-.7h.9l.9.3-.4.2c.5.1.5.1 1-.2l.4.2a.5.5 0 0 0 .3 0c.2 0 .2-.1 0-.3v-.1l1.6-.2c.2.3-.1.2-.2.3l.3.2-.3.3h.6c.8-.7 1.3-.8 2.4-.5l.3-.1.3-.2c-.2-.2-.7.2-.8-.2.2-.2.6-.2 1-.3 0 0 .2 0 .2-.2l-.2-.2c.7-.4.7-.4 1.2.3l-.2.2-.2.2h2.3c.5 0 1-.1 1.4-.3h.1c.3.2.6 0 1 0l.6.2-.3.6c0 .1-.5 0-.4.3h-.2l-.2.2-.1.1h.4l2-.2h.5c.3.3.7.2 1 .3v.2h.3l.4-.2v.5h-.3l.4.2-.1-.2h.4c0 .2.2.4.6.3h.2l-.4-.3.2-.6h.1l.4.3c.3.2.5.2.9 0l.4-.2c-.3-.2-.5-.3-.8-.2h-.3c-.3-.2-.6 0-1-.1l-.8.4c0-.3-.1-.4-.3-.2h-.3c-.1-.2 0-.3.2-.3l1.4-.2 2.6-.1c.3 0 .5 0 .7-.2l-.7-.3-.4.1c-.3.3-.8.4-1.1.1l-.4-.2h-.5l-1.5.2.2-.2h.3c.3 0 0-.5.5-.5h.8l.9-.2c.6 0 1.2 0 1.7-.3a1 1 0 0 1 .7 0c.2.1.3.3.6.1l.2.2.2.3h-.5l-.7.3.6.3.7.1h.8a45.4 45.4 0 0 1 4.7-.4l-.2-.4h-1.9l-.3.4c-.5-.2-1 0-1.2 0l-1-.5c-.1-.1-.3 0-.4 0l-.3-.2c.2-.3.6 0 .8-.2.3 0 .7 0 1-.2h.8v.6h1c0-.5.6-.4 1-.6 0 0-.1-.2 0-.2 0-.2.2-.3.4-.3.2.2.6 0 .7.4h2v-.3h1.6l-.1.3.6.5c-.2.3-.3.3-.6.2l-.4-.4v.4l-.6.3a.4.4 0 0 1 -.3 0 .6.6 0 0 0 -.4 0h-.2l.1.2h4.4c-.2.2-.2.5-.5.5-.5 0-1 .4-1.6.2.2-.3.6-.2.7-.4v-.1c-.6-.2-1 .1-1.4.1-.2.4.3.5.5.7h.9l-.4.3c.4 0 .8.2 1.2 0l-.3-.3c.6-.2 1.2 0 1.8-.1.3 0 .6 0 .8-.2.7.1 1.4 0 2-.1l-.3-.4-.7.2c0-.2.3-.3.4-.5h1l.3-.3-.3-.2h-.4l-.4-.1c0-.1-.5 0-.6-.3h-.3c-.4.2-.4.2-.8 0h-.2l-1.2.2v-.2l1-.4h2.2l.3-.5c.3 0 .5 0 .6.2l.2.2c.3 0 .1-.2.2-.2l.2-.2.4.2v.2h.2l.2.1h3.5l-.3-.4c.4-.2 1-.2 1.1 0l.5.4h1v-.3c0-.2.2-.3.4-.3h1s0 .1.2 0h.4c.5.4.7-.2 1.1-.1 0-.4-.6-.1-.6-.4a2.7 2.7 0 0 1 1.4 0v.6h-.1a13.6 13.6 0 0 1 -1.3.2l-.2.2.3.3c-.1 0-.1.1 0 .2l.1-.1h.2l.6-.3h.7c.3 0 .6-.3.7-.5h.6l.3.1c0 .1 0 .2.2.2.1 0 .3.1.4 0 .6 0 1.1.2 1.7.1h.2l.6-.1-.3-.3.6-.3h.2c.1.3.3.5.7.5l.4.2 1-.4c.3 0 0 .3.2.5h1l.7.1c.2 0 .2.1.2.3s.2.1.4 0l-.2-.3h-.4c0-.1 0-.3-.2-.3-.3 0-.6 0-.8-.3.5-.4.5-.4 1-.1l.1-.4h1.2a.4.4 0 0 0 .2 0c.5-.1.8 0 1.1.2h-1.7l-.3.2c.7.6 1 .7 1.8.3l.1-.1c.3 0 .2-.3.2-.4h.4l.8.6c.4-.2 1 .1 1.3-.4.4.2.7.4 1 .2h.3c.5-.5.5-.5 1-.2l-.5.3.2.1h.8c.3 0 .6.2.7.3l.2.1h.3l.4.2.7.2h.8c.5 0 1 0 1.5.2l1-.2v.3l-.3.2.6.1c.2 0 0-.3.2-.3h.6c.2.2.5.1.9 0h.5c-.3 0-.6 0-.7-.3l.5-.2c0-.2.3-.2.5-.3l.1.5c0 .2 0 .2.2.3.5.3 1.1.3 1.7.4l-.2.4.2.2.3.1v.2l.3.2.2-.2.2-.1.1.3c.6.2 1.2-.2 1.7.3l.4-.3c0-.2-.6-.2-.4-.5l-.3-.1-.7-.1c-.2 0 0-.2-.2-.3h1.3l.4-.1.9-.6.2.6h-1v.2l1 .2h.3c.2-.5.7-.4 1-.6l.6.3.2.5-.1.5c.2 0 .4 0 .5-.2 0-.2.2-.3.5-.2 0 .3 0 .3.6 0 .6.3 1.3.3 2 .4l-.2.2-.1.1h-.5l-.4.2.2.5.5.1.4.2h1.6c.3-.2.3-.2 1-.3-.2-.2-.4-.1-.6-.1h-.5c-.2-.3-.5-.3-.8-.3a.7.7 0 0 1 -.7-.4 1.6 1.6 0 0 1 1 .1l.3-.4h.5c.5 0 .9.3 1.3 0l.2.1v.5h.9l.3-.1h.2l.3.3c.5.2.5.2.8-.1l-.9.1h.1c.4-.3.5-.4 1-.4.2 0 .1-.2.4-.2l.8.2 1.8.3.3-.2c.7-.1 1.2.3 1.8.4l.4.2.6.2.6.2v.5h.8l.2-.3 1.4.2c.1.3.7.4 1 .7l.3.2h-.5 2.4c.3-.2.8-.3 1.2 0h1.1l1 .5c.3 0 .5.4.9.5l.2.2c.2.2.5.3.9.2 1-.2 1.7 0 2.3.7l.2.3.9-.2.2.3.5.2.3.3h.1l.2.1h.4l.4-.2h.5l.7.3h1.2c.2.3.3.5.8.4l.8.1c.3 0 .5.2.6.4.2.1.3.3.6.3s.4-.2.6-.3h.2v.3l.1.3.4.2 1 .3a.6.6 0 0 0 .4 0 1 1 0 0 1 .8 0l1.3.5.4-.2c.6 0 1 .3 1.5.6 0 0 .2 0 .2.2.1.2.4.3.7.4.2 0 .5 0 .7.3h.6l.3.2-.2.2.1.1.6.3c.1.1.3.3.6.3h.8c.4.2.7.6 1.3.6l.4.2c.3.1.3.6.8.5l.9.6.6.2c.3 0 .4.3.7.5.2 0 .6 0 .8.2.7.7 1.7.9 2.6 1.3 0 0 .3 0 .3.2.1.2.4.4.8.5l.7.6c.5.3.9.6 1.2 1 1 .2 1.4 1 2.2 1.3l1.5 1.3c.7.5 1.1 1.2 1.8 1.7.6.5 1.2 1 1.6 1.6l.4.5.6.6c.2.1.4.4.4.6v.4c.2 0 .3.2.4.3.2 0 .3 0 .3.2 0 .3.2.6.5 1l.5.7c0 .3.2.5.6.6v.6c0 .2 0 .4.2.5l.6 1.3v.5l.2.7.2.7a61 61 0 0 1 .2 3.9v1.3c0 .4 0 .8-.2 1.2 0 .3-.2.7-.5 1-.4.4-.7 1-.7 1.4s-.2.8-.5 1.2a1 1 0 0 0 -.3.4v.5l-.2.2c-.5 0-.7.2-.7.6v.2c-.2.2-.4 0-.5.3 0 .3-.2.5-.4.8l-.2.2c-.7.4-1.2 1-1.5 1.5l-.5.6a1 1 0 0 0 -.3.2v.2l-.3.1a15.8 15.8 0 0 0 -1.7.8l-.2.3-.1.4c-.4 0-.5.5-1 .4-.2 0-.5.2-.5.4v.5l-.4.3a28.1 28.1 0 0 1 -2.2 1.4c-.2 0-.2 0-.2-.2l.3-.4c-.4.1-.4.1-.3.5-.7 0-.7 0-1 .6l.4.1-.4.4c-.7 0-.9.4-1.2.8l-.9.7c-.8.1-.8.2-1.5.6l-1 .7-.9.3c-.2.2-.4.5-.7.6-.5.2-1 .6-1.8.5l-.1.6h-.6l-.2.3h-.9c0 .2 0 .4-.2.6s-.5.4-.9.5c-.3 0-.6.2-.7.4-.2.2-.4 0-.6 0l-.4.5a2 2 0 0 1 -.7.4h-1c-.4 0-.8.3-1.2.2v.2h.4l.1.3c-.6 0-.6 0-.4.3l-.5.3c-.3.2-.7.4-1.3.5l-.2.1c-.4.4-.5.4-1.2.4l-.3.3h-1.1l-.1.4c-.1.2-.3.4-.7.3-.3 0-.2 0-.2.4l-.5.2a1 1 0 0 1 -.4.2h-.4c-.3 0-.5 0-.6.2v.1l-.5.5c-.5 0-1 0-1.4.2l-1.5.4-.2-.2-.2.2-.8.2c.2.3.2.5 0 .7-.7 0-.7 0-1.2.2h-.2c-.1.3-.3.4-.6.3h-.2l-.3-.2v.1l.3.1c-.3.3-.7.4-1.1.5h-.6c0-.2-.3-.2-.6-.3-.4.1-.6.3-.8.5l.7.2a2 2 0 0 1 -1 .5c-.8.2-1.4.4-1.9.7l-.3.1h-.5v.2h-.2l-1.3.4c-.2.1-.5 0-.8 0-.3.5-1 .5-1.3.7l-.5-.1c-.3 0-.8 0-1 .3l-.5.1c-.2.2.2.3 0 .5-.2.1-.3.2-.7.1l.1-.6-.3.3h-.3l-.2.3h-.2v.2h.1l.1-.2h.4v.5h-.7a5 5 0 0 1 -.8.5c-.3 0-.5-.2-.8 0l-1.3.2-.4-.2-1 .3.1-.3h-.3c-.3-.2-.3-.2-.4.1h-.5a1 1 0 0 0 -.4.3 1 1 0 0 0 -.2.3l-.2.8-.4.1-.3.2-.3-.2c-.2 0-.4.3-.8.3-.6 0-1.2 0-1.7.2h-.3a1.4 1.4 0 0 0 -.7 0l-.3.2-.2.2-.5-.4-.2.1c0 .3-.1.5-.5.5-.2 0-.3.1-.4.3v.1l-1.4.6h-1.1l-.2.3-.2.1h-.3a1 1 0 0 1 -.6 0h-.5l-.2-.1c-.2-.3-.4-.4-.7-.4-.2.2 0 .3.1.4-.3.2-.6.2-1 0l-.5.4h-.3c0-.1 0-.2-.2-.3a.4.4 0 0 0 -.4 0c-.2 0-.3.2-.5.3-.2.2-.3.2-.7 0h-.4c-.2 0-.5 0-.8.2-.3 0-.9-.4-1.2.3h.7v.1c-.3.4-.8.5-1.3.7h-.2c-.3-.1-.5 0-.8.1-.2.2-.5.3-.9 0-.1 0-.5 0-.7.2 0 .3.3.1.5.2v.1c-.3 0-.5.2-.7 0l-.4-.1a3 3 0 0 0 -.6.1l-.4-.2s-.2-.1-.2 0c0 .2-.2.3-.3.4l-.6.1h-.7c-.3-.2-.8 0-1.1-.3-.4 0-.7.2-1 .3l-.2.2v.3c-.7.5-1.5.3-2.3.2 0 .2-.3.1-.5.1l-.3.4c-.2-.2-.3-.5-.6-.6h-.8l-.3.1-.2.2c.1.3.4.2.6.2s.4-.2.7 0l-1.1.3h-1.3c-.3.2-.6.5-1.2.4h-.2c-.3 0-.4.4-.7.3-.4 0-.5.2-.8.3-.2 0-.4.2-.6 0l.4-.2v-.7c-.4 0-.2.3-.3.3l-.3-.2-.6.5-.4-.5a8.8 8.8 0 0 1 -1 .1l-.1.2c-.2.2-.4 0-.6 0l-.9.1c-.3.1-.5.2-.6.4v.2h-.3c0 .4-.2.5-.6.7a7 7 0 0 0 -.8-.4c-.2 0-.6.2-.9-.1.3-.2.6 0 .8-.1.3-.1.5 0 .6-.3l-.5-.2-.5.1c-.3.2-.7.3-1 .3h-.6l-.2.3c.2.1 0 .2 0 .4v.3h-.1c-.3-.2 0-.5-.2-.9l-1 1s-.3-.3-.5-.2h-.7a6 6 0 0 0 -.7.4c-.2-.2-.4-.2-.6 0-.5.2-1.1.1-1.7.3v-.2l.3-.2.1-.3c-.2-.2-.4-.2-.6-.1h-3.2c-.2.3-.4.4-.8.4s-.4.2-.5.4c-.5 0-1 0-1.3.5-.2-.1-.4-.1-.3-.3v-.2a1 1 0 0 0 -.4 0l-.1.2c-.2.2-.3.3-.7.2l-.3.2h-.4l-.1-.5h-1.3l-.2.3c0 .1-.2.3 0 .4.3-.2 0-.3 0-.4l1 .5-.2.3c-.3-.1-.7-.2-1 0h-1.4c-.3 0-.4 0-.4-.3-.6.1-1.2 0-1.6.4l.1-.6h.7c.2 0 .5-.2.4-.4l-.2-.1h-.3l-.3.1-.3.2-.6.2.1.3.4.3h-.1l-.3.1-.2-.3h-1.6l-1.3.2c-.1 0-.2 0-.2-.2l-.2.2c-.3.1-.4 0-.4-.2v-.1h-.9v.3l-.2.2-.3-.1s-.2-.3-.4-.2c-.2 0-.5-.2-.8 0-.2.1-.1.3-.5.3l-.5.1c-.3-.5-.6-.5-1.2-.2-.1.2.4.3.2.5-.6-.2-.6-.2-1.1 0l-.5-.2h-.6c0-.5 0-.5-.5-.6l-.6-.2h-.4l.2.1.3-.1-.1.4v.2c-.3.1-.5.2-.8 0a.8.8 0 0 0 -.4 0h-.4c-.3.2-.7 0-1 .3l-1.1.2c-.2 0-.2-.4-.5-.3l-.8-.4c-.3.2-.6.3-1 .3s-.8.3-1.3.1c-.2 0-.4.3-.6 0-.3-.2-.5 0-.7 0l-.5-.2-.4-.4h-.2v.4c0 .2 0 .2-.2.2h-.6l-.2.1-.1.1-.1.2v.4l-.5-.3-.4-.4c-.5 0-.9-.3-1.5-.2v.3a.4.4 0 0 1 -.3 0c-.3-.2-.5-.3-.9-.2h-.1c-.4-.3-.8-.2-1.2-.2l-.6-.3 1.6.1-.5-.5s-.2-.1-.2 0c-.4 0-.3-.4-.6-.4h-.2v.3c-.7 0-.7 0-.8-.4-.1-.2-.1-.2-.6-.4l-.2.1v-.1h-.2.2v.2l-.3.4c-.8 0-1.6.2-2.5.1l-.6.2c-.4-.1-.7-.3-1.2-.2h-.4a3.4 3.4 0 0 0 -1.3 0v.2h.5l.2.2c-.3.2-.7 0-.8.2l-.9-.2c-.3 0-.6 0-.8.2-.6-.4-1.2-.1-1.9-.2-.1-.1-.6-.1-.7-.4.3 0 .5 0 .5-.2 0-.3-.4-.5-.9-.4l-.5-.1-.2-.1c-.5 0-1 0-1.5-.2-.2.2 0 .3.2.4l.2.3c0 .2-.2.2-.4.1h-1l-.1.4-.6.1-.6.2-.2-.4-.3-.3c-.5 0-.7.2-1 .5-.3 0-.4-.3-.5-.5l-.2-.2a1 1 0 0 0 -.5-.1l-.3.2v.2c-.5.2-.4-.2-.6-.4-.2 0-.2.3-.4.2h-.1v-.4l.1-.2c-.3 0-.6.1-.8-.1h-.5l-.2-.1c-.4-.3-.8-.2-1.3-.1v.1l-.3-.3-1.9-.4a14 14 0 0 1 -1.8-.3c-.2 0-.2-.1-.2-.2h.8c.4 0 .7.1 1 .3.6 0 1.3 0 1.8-.6l-.4-.1a1 1 0 0 0 -.3 0h-1.1l-1.2-.1-1.2-.2c-.3 0-.4 0-.5-.2l-.1-.1-.2-.1-.1-.2c-.2-.1-.4.2-.6 0l.4-.4v-.1c0-.1 0-.2-.2-.2s-.4.1-.5.3l-.5-.2.4.3v.1h-.3l-.9-.1-.2-.2c-.6.1-1-.3-1.6-.2h-.5l-.4-.4-.5.2-.4-.1-.9.2h-.3v-.5c-.6-.1-.9-.5-1.5-.4l-.6-.5.1-.2v-.2h-.2l-.2.6-1.5-.3c-.4 0-.9 0-1.1-.4l-1.3-.3-.3-.5-.5-.2a.5.5 0 0 0 -.3 0l-.1.2c-.2.2-.3.1-.4 0a1 1 0 0 1 -.8-.1l-.5-.3-.3.5c-.5-.1-1-.4-1.7-.3l-.5-.5-.4.2v-.3c.2-.2.2-.3.2-.5l-.4-.4c0-.2.2-.2.5-.2.2 0 .2.2.3 0-.2-.2-.5-.3-.8-.3h-.2l-.2-.2v-.1c-.6.2-1-.3-1.5-.3-.2-.2-.5-.2-.8-.2h-.1l-1-.2h-1.1l-.2-.1 1.4-.4-.4-.2-.5-.1v-.2l.3-.2h.1c.4 0 .4 0 .3-.3-.7.1-.7.1-.7.6l-.5-.2v-.2h-.7l-.6-.3-.1.4h-.8l-.6-.7c-.1-.2.3-.3 0-.5a2 2 0 0 1 -.2-.4h-.4v-.4h-.2l-.5.3c0 .3.6.3.8.7l-1-.4c0-.2-.2-.3-.3-.4a.5.5 0 0 1 0-.5c.3-.3 0-.4 0-.6-.5-.2-.9 0-1.2.2a4 4 0 0 0 -.4-.2 1 1 0 0 1 -.4-.2.4.4 0 0 1 -.2-.3l-.3-.4c-.1 0-.3-.2-.4 0h-.1v.3l.4.5-.4.1-.6-.4c0-.3-.5-.2-.6-.4 0-.1 0-.2-.2-.3l-.3-.2-.1-.3.2-.3c.2 0 .4.2.5-.1 0-.1 0-.2.2-.2l.3-.1c-.1-.5-.6-.7-.9-1 0-.2.4-.1.2-.3-.2 0 0 .2-.1.2a7 7 0 0 1 -1.2-1c-.3-.3-.5-.3-1 0h-.2c-.2-.2-.2-.3 0-.4h.5l-.2-.6h-.5c.2-.5.2-.5-.2-.7l-.8-1.1h.6c-.6-.2-1-.5-1.4-.9l-.2.2v.3l.3.4.3.4c-.1.3.1.3.3.5v.1c-.3 0-.6 0-.6-.3l-1-.6-.2-.1v-.2l.3-.1c-.4-.3 0-.9-.7-1.1 0 .4.2.8.5 1.2zm195-52.7.2-.1h-.2l-.1-.3h-.3l-.3.2h.7v.2h-.3.2zm-113.9 73.9v-.2h-.2zm-72.5-14.4h-.3.3l-.1.2zm62.5-68 .2.1h-.2c-.1 0-.1-.3-.3-.1zm7.8 82 .1.1h.1-.2l-.1-.1zm-20 0s0-.2-.3 0h.4c.1 0 .2.2.5 0h-.5zm161.9-52.1-.1.2c-.1.1 0 .2 0 .2v-.5l-.1-.1a.3.3 0 0 0 -.2 0l.1.1h.3zm-42.8-25.5h.2-.2c-.1 0-.2-.2-.4 0zm-57.5 74.2h-.1v.1l.4.2-.3-.3h.3l-.1-.1h-.2zm90.3-60.5v.4l.3-.4c.2 0 .4 0 .4-.2l-.5-.3v.5h-.2v-.2h-.2v.1h.2zm-136 65.3h.2l.1-.2c0-.1-.2 0-.2 0v.2l-.3.2c.2 0 .3-.1.2-.2zm129-70h-.5l.2.2.1-.2h.1l.1-.2-.2-.1v.1l.2.1zm-65.2 62c.2-.2.2-.3 0-.5-.1.2-.1.3 0 .4.3.3.3.3.6 0h-.6zm-38.3 7.6h-.1c-.1-.2-.3-.2-.2-.1h.4c-.2.2-.5.3-.3.5.3-.1.3-.1.3-.4zm-24.2-.2c-.2 0-.3 0-.3-.2l-.7-.1c0 .2 0 .3.2.2h.5c-.2.2 0 .3.3.6v-.5h.1zm117-73c.1 0 .5-.1.4-.4-.2 0-.3 0-.4.2v.3l-.3-.1h-.1v.1h.4zm-101.3 72h-.5c.2.4.2.4.7.2l-.2-.3c.3.1.5 0 .5-.2-.4 0-.4 0-.5.3zm28.7-2.7h.6c.2 0 .4 0 .2-.3l-.8.3-.2.1h.2zm-41.5 4.7-.5-.2-.6.2.8.1.3-.1v-.1zm137-61.7-.4-.2v.1h.4c-.1.3.2.3.4.5.2-.1.3-.2 0-.4zm-43.2 43.1v-.1.1c0 .2.1.4.4.4h.2v-.2c0-.3-.2-.3-.7-.2zm46.4-38.9v.4-.4c.1 0 .5 0 .5-.4h-.4l-.3.2v-.7l-.2-.2a1 1 0 0 1 -.2-.3l-.2.1v.7c.2.2.3.4.7.4l-.1.2zm-153.4-25.7c.2-.3.7 0 .9-.3-.3 0-.5-.2-.9-.1v.4c-.2-.2-.4-.4-.8-.2 0 .1.1.2.3.2zm53 78.1s0-.2-.3-.2h-.2l.1.2h.4l.2.2h.8c-.4-.3-.7-.4-1-.2zm17-81.6a1 1 0 0 0 -.4 0h-.3v.2h.5c.2 0 .2-.1.3-.2zm9 1.8c-.4-.2-.7 0-1 0l.3.1a1 1 0 0 0 .4 0l.2-.1.3.2.5.1c.2 0 .4 0 .3-.2h-1zm73 25v-.1l-.3-.2h-.1v.2h.5l-.2.3v.3h.6v-.5a3 3 0 0 0 -.4 0zm-21.5-13.8.4-.1h-.5v-.2l-.6-.3-.6-.3-.4.2zm-58.6-11.5.6-.2.7.1c-.1-.5-.3-.5-.7-.3-.2 0-.4.2-.6.4-.1-.2.2-.5-.2-.7-.4.3-1 0-1.4.4l.3.1h.9zm-26.8 81a1 1 0 0 0 0-1h.5v-.4a.3.3 0 0 0 -.2 0l-.4.2-.1.3.2.9h-.3c-.2-.1-.4-.1-.5.2h.4v.3h1.7l1.8.2.3-.1-.4-.2c-.4 0-.8-.2-1.1-.4l-.3-.1-1.1-.2-.3.4h-.3zm-17.1-81.1 1.2-.2c-.4-.4-.9-.3-1.5-.4l.3.6-.8-.3h-.5c0 .2 0 .3.3.3h.6c0 .1.2 0 .4 0zm61 1.7-.2-.2a.8.8 0 0 0 -.4-.2.4.4 0 0 0 -.2 0l-.3.4h1l.2.1 2.8.3-.2-.2c-.9-.2-1.8-.3-2.8-.2zm-157.7 49.6c-.2 0-.2.2-.3.3l-.1.3c0 .1.2.1.2.3 0 .4.1.5.6.5 0-.5-.2-1-.4-1.4l.1-.2c0-.3-.1-.5-.3-.7-.1.3 0 .6.2 1zm72.3-50.5c.5.2.5.2 1.4 0l-.2-.5h-.8c-.4.1-.4.1-.5.6l-.4-.3c-.2.1-.5.2-.5.4l.7.1c.2 0 .3-.2.2-.3zm122.6 9.7-.4-.2s-.1-.2-.3-.1v.2l.1.3.4-.1.2-.2c0 .2-.2.3 0 .5h.3l.3-.2h.5c-.4-.2 0-.4-.3-.5l-.6-.3-.6-.3.1.5.5.3h-.2zm-124-9.4c.1-.1.3-.2.2-.4l-.2-.1h-.9c-.2.1-.7.1-1 .3l-.2-.2-.4-.2-.2.1.1.2.5-.1-.4.5h.5c.3 0 .6.2.9 0s.6 0 1 0l.2-.1zm-9.7 82.7-.1-.2v.7l-.3-.1h-.8l.3.4.8.1 2 .2h.2c0-.3 0-.5-.3-.7l-.3.2-.5-.3c-.2 0-.2.3-.5.2-.3 0-.3-.1-.4-.2l-.1-.2zm39-1-.2-.2-.1.1h.3v.2l.8.4.2.4h-.4.4l.3-.1-.1-.6c.5.1.7-.3 1.2-.4a23.6 23.6 0 0 0 -1-.6v-.1l-.2.1c0 .2.2.1.3 0-.2.3-.2.3-1 .4l-.5-.5v.8zm45.7-83.6c-.2 0-.4.2-.7.1l.3-.3a2 2 0 0 0 -.8-.1l-.7.2h-.3l-1.1-.2c-.2 0-.2-.3-.4-.1h-.5c-.2.2-.4.2-.7.3l.3.1a35.3 35.3 0 0 1 2.6.3h2.3l-.3-.3h.2v-.1h-.1v.2zm-14.8.4c.2 0 .4.1.4 0h.6l.7.1h1l2 .1c.2 0 .6.1.8 0h1l.6.1.4-.4h-.9c-.2 0-.3.2-.6 0-.2-.2-.3 0-.6 0h-.8a2.3 2.3 0 0 0 -1-.1l-.8-.1c-.6-.2-1.3-.2-2-.2h-1.2c-.1 0-.3 0-.3-.3h2.1c.4 0 .5 0 .9-.3-.5-.2-1 0-1.5-.1l-.7-.6a1 1 0 0 1 -.5.3l-.6.1h-1.4l-.4-.2c0 .2 0 .4.2.5l.7.2h.3l.2.1-.7.5a1 1 0 0 1 -.4 0l-.2-.2a1.1 1.1 0 0 0 -.6 0 1 1 0 0 0 -.3 0c-.2.1-.4.2-.6.1a1 1 0 0 1 -.5-.2c-.2-.1-.4-.2-.6-.1a7 7 0 0 1 -2 .3h-.3l.4.2h.5c.1.2.3.3.5.3h.3l.2-.5.5.3h1.3c.5-.1.9 0 1.3.2l.4-.1.1-.2v-.1c.4 0 .1.3.4.4l.2-.1v-.3c.6.3.6.3.4.6l-.1.2c.4.1.3-.2.6-.2l.6-.3zm-77.6 84.1-.6-.6c.3-.3.6.3.9 0l-.6-.3h-1.3l-.6-.1c-.2-.2-.6 0-.8-.3h-.1v.4a1.4 1.4 0 0 1 -.7 0 1 1 0 0 1 -.3-.1l-.2-.2h-.9l-.3-.2h-.2c-.2.2-.4.4-.3.6.6.2 1.2.4 1.8.4h.7c.1 0 .3.1.4 0h.5l.5.2c.3.2.7 0 1 .2zm61.2-86v.3l-.6.1h-.6c-.3-.5-.7-.3-1 0h-.3l-.3-.3-.6.3h-1.1c-.3 0-.4.2-.4.4h.4a6 6 0 0 1 2 .2h2.7c.5 0 .7-.2.7-.6l-.4-.1-.5-.2zm-4.8 1.6.2.1h2.4l2.2.2c.3 0 .4-.3.8-.2v-.4l-1.1-.1h-.5c-.2.2-.5.3-.8.3a2 2 0 0 1 -.8-.1 5 5 0 0 0 -2 0zm-15 .7v-.3c-.3-.1-.6-.3-.9-.2l-2.1.1-.8.3v.4h1c.2 0 .4.2.6 0l.3-.1.1-.3h.3v.3h1.5zm51.4.5c-.1-.4-.5-.5-.8-.4h-.6a2.1 2.1 0 0 0 -1.2-.2h-.5l-.5-.1h-.2l.3.5h.1c.5-.2.4.1.5.3v.2l.8.2c.2-.2.3-.3 0-.4-.2 0-.3-.1-.3-.3l1.7.1zm-28.1-1c.6.1 1.2-.1 1.6.3l.4-.4.7.2h.3l.4-.2c0-.1-.2-.3-.4-.3h-2.8c-.2 0-.4-.3-.5-.1-.2.1 0 .2.2.4zm24.5 77.7h2.3l.2-.3-.2-.2-.3-.2h-1.6zm27-73.4 1.5.2c.4.2.9.3 1.4.3.4 0 .9.1 1.3.3h.5l.4-.1-2.2-.5-2.2-.5c-.2 0-.6 0-.8.3zm-49.4-5.5c0-.1 0-.2-.2-.3a1 1 0 0 0 -.4-.3c-.4.3-1 .3-1.4.7h.2c.6.2 1.3.1 1.8 0zm44.2 4.2c0 .3 0 .6.2 1 .5 0 .8-.1.8-.5l.7.1c-.4-.6-1-.6-1.7-.6zm-12.5-1.8-.7-.1c-.1-.1-.5-.2-.7-.1-.3 0-.6.1-1-.1h-.6v.2l.4.1a12.6 12.6 0 0 1 2.2.2h.2l.1-.1v-.1zm1.6 73.2c.7.3 1.4.2 2 .5.2 0 .5-.1.6-.3-.8 0-1.5-.5-2.6-.2zm-27.5-75.8c-.4-.2-1 0-1.4-.2v.3l-.2.3h1.2zm-76.2 83.7.1.1.9.1h.3l.2-.6h-.9c-.2.1-.5.2-.6.4zm92.2-3.3v.2l.5.1h.8c.2 0 .4 0 .6-.2v-.1zm26.6-76.2.1.1h.3a1 1 0 0 0 .4 0l.4.1a1 1 0 0 0 .6 0c0-.2-.2-.3-.4-.3l-1-.1zm-2 .9 2.1.4.3-.1c-.3 0-.6 0-.8-.2-.4-.2-.9-.2-1.3-.3-.1 0-.3 0-.4.2zm-59.4 78.8-.4-.3-.3-.1h-.3l-.3.8h.1l.5-.4zm-105.2-38.2c0 .4-.2.8 0 1.2.2-.2.5-.4.5-.7s.1-.3-.5-.5zm204.5 12.2-1 .6v.3h.3l1-.5zm-93.4-55.6v.1c.5.2 1 0 1.4 0 .3.2.8 0 1.1 0-.8-.3-1.6 0-2.5-.1zm-21.8 83.3c.2-.2.1-.5 0-.6l-.3-.1a1.2 1.2 0 0 0 -.7 0 1 1 0 0 0 -.2.1c.7.2.7.2 1.2.6zm12.3-2.3c-.7-.3-.7-.3-1.3 0l1 .3zm-27.6 3.3c-.4.3-.9 0-1.3.3.4.3.5.3 1 .2 0 0 .4 0 .2-.5zm45.8-85.5c-.1.2 0 .3.2.3h.4c.2-.1.4.1.6-.1l-.3-.3h-1 .1zm74.8 60.6-1-.2h-.2l-.1.2v.3h.7l.5-.3zm-65 18.8c.3.2.5.2.7.2.2-.1.5 0 .8 0l-.3-.4zm20.5-5v-.1h-.7l-.2.3v.2h.5zm-73.1 11.5c.4.3.7.1 1.2.1l-.7-.5zm44-86.8c.5.3.6.3 1-.2-.4 0-.8-.1-1.1.2zm13.1 81.7v-.1h-.7c-.2 0-.2.1-.2.2 0 .2.2.2.3.2zm-36.2-80.5c-.1-.3-.3-.3-.5-.2h-.2l-.2.2v.3h.5l-.2-.2zm-7.1 84.1c-.1-.2 0-.4-.4-.4h-.6v.4zm31-3.6h1.1c-.2-.3-.6-.3-1-.5zm29.5-5.6c0-.2 0-.3-.3-.2-.6 0-.6.1-.7.5zm-75-71.7-1-.4-.3.1v.2l.3.1h1.1zm70.3 71.4c.2.1.2.3.4.3l.4-.1.1-.2v-.1h-.9zm-147.2-27-.2.6.3.3.2-.5c0-.1 0-.3-.2-.4zm116 34.8c.7-.2.7-.3.3-.6-.3.3-.3.3-.1.6h-.1zm-20.6-81.6 1.1.2.1-.1v-.2h-1.4zm-44.7 82c0-.2-.2-.4-.4-.4l-.3.1v.2c0 .2.3.3.5.3zm69-1.5-.6-.5h-.3v.2h.1zm-69.2-76.3.5.2h.5c-.3-.4-.6-.4-1-.2zm155 48.4-.7-.3c-.2 0-.4 0-.4.2.2.1.5.3 1 0zm-179.8 24h-.9l.2.2h.6v-.3h.1zm48.1 6.8.1.5h.5v-.2zm52.9-5.8c.6.4.6.4 1 .3l-.8-.4zm35.5-5.6c-.4-.4-.7-.3-1-.3 0 .4.5.2 1 .3zm-69 12.3v-.3h-.6l-.1.2.2.1a.7.7 0 0 0 .3 0h.2v-.1h.1zm72.4-15.3h.8c.2 0 .2-.1.1-.3l-.2-.1zm-96.6 13.9c-.3-.3-.4-.3-.8 0h.7zm129.8-23.5c.5 0 .6 0 .7-.2v-.2l-.7.5zm-25.2-56v-.3l-.1-.1h-.2c-.1 0-.2.2 0 .3l.3.2zm-39.6-5v-.2l-.9.1c.4.4.7 0 1 .1zm-39.3 83.8h-.5c-.2 0-.3 0-.1.2l.7-.2zm-21.7.7h.8l-.4-.1c-.2 0-.1.3-.4 0zm25.2-.7.3-.2-.2-.2-.4.1zm16.2-83.4v.3l.4-.1zm-34 85.5c.2-.1.3-.3.1-.4-.1-.1-.2 0-.3.3l.3.1zm-7-83.6v.6l.5-.6h-.7zm63.4 76.6h1c-.2-.2-.3-.3-1 0zm51.2-15a2 2 0 0 0 -.5.1l-.1.2.3.1.4-.3zm-25-61h.1l-.2-.2s-.2-.2-.3-.1c-.1.2 0 .2.2.3h.3zm-101.3 81.2h.4l.2-.1-.1-.3h-.3zm14 1h-.5v.2c.3 0 .1.3.2.4h.2v-.5zm110.5-20h.4l.3-.2h-.1a.6.6 0 0 0 -.3 0c-.1 0-.2 0-.3.2zm-132.9 18.7h-.2l-.1.2v.2s.2 0 .3.2zm28.4 2.1-.6-.1c-.2 0-.2 0-.2.2h.8zm-47.3-5h-.1c0 .2.2.2.3.3l.2-.1v-.2zm145.8-73.5c.4.2.4.2.7 0zm31.4 13.1-.6-.5c0 .4 0 .4.6.5zm-92.6-19.5-.4.2v.1l.1.1h.2c.2 0 .3-.1.1-.4zm36.2 2.9v-.1l-.5-.2-.2.1.1.1h.6zm39.3 6.5c-.4-.2-.4-.2-.8 0zm-141.3 74.5-.3-.2s-.3.1-.2.2l.1.1h.4zm45.2-84.9c-.1-.1-.2-.2-.5-.2l-.1.2zm-16.4 85.4-.2-.2a.4.4 0 0 0 -.3 0v.2c-.1 0 0 .1 0 .1h.5zm84.1-83.3c.2.3.5.3.8.2-.2-.2-.4-.3-.8-.2zm10.9 66.1c.1.3.3.2.4.2l.3-.3zm-125.1 13.5h-.2l.1.3c0 .1.2.2.3.1v-.2zm65.3.9c-.3.4-.3.4 0 .5zm-51.8 2.4c.5.1.5.1.7-.1zm98.1-14.3h-.6v.2l.2.1zm-3.6-68.6c.1.3.3.3.5.3h.1v-.2h-.6zm-159.3 51.3h-.1s-.3.1-.2.3h.2zm97 31.9.2-.2v-.2l-.4.1v.1l.1.2h.2zm19.4-86.3h-.1l-.2.1v.2h.2zm-41.7 85.8-.3-.1-.2.2h.2zm-10.1-.7h-.5v.2h.4v-.2zm17.6.3-.1-.2h-.3l.1.2zm133.1-38.9-.2-.2-.2.1.1.2h.3zm-112-44.2h-.4l.1.1h.3zm32.3.3c-.1 0-.2.2 0 .3h.3c0-.1-.1-.3-.3-.3zm-92.7 80.5a3 3 0 0 0 -.3-.1h-.1c0 .1.2.3.3.2zm67.3-.1a.5.5 0 0 0 .4 0l.1-.1c0-.1-.3 0-.4 0v.1zm15.1-82.2-.6-.2h-.2c.2.3.4.2.8.2zm89.1 24.8h-.1v.3l.1.1.1-.2v-.2zm-45.4-20.9-.2.2s0 .2.2.2l.2-.2zm-168.8 51.1v-.2h-.2c0-.1-.1 0 0 0v.2l.1.1zm199.5 2-.3-.1h-.1s0 .3.2.3.1 0 .2-.2zm-51.5 18.8.2-.2c0-.1 0-.2-.2-.2h-.2zm-3-75.2-.1-.1h-.5l.5.2v-.1zm32.3 67.6h.5v-.4l-.4.1v.1zm4.8.3.1.1.4-.2v-.1c0-.1-.2 0-.2 0zm-19.9 5 .3-.2.1-.2h-.2v.3zm1.4-3-.2.2.1.2h.3zm-68.6 15.9h.1l.2-.1-.2-.1v.2zm84.9-17c-.3 0-.3 0-.4.2l.4-.1zm19-55.7-.2.1v.2l.3-.1v-.2zm-185.8 60.4c0-.2 0-.4-.5-.4zm163.4-7-.2.2.2.1h.2l-.2-.2zm11.5-4.7-.1-.1h-.3v.2zm7-3.3-.2-.2h-.2v.2h.3zm4-47v-.3l-.2.1.1.2zm-15.6-4.7-.3-.1v.1l.2.1zm-26.5 69.2.2-.2-.1-.1-.2.2zm-16.4.4v-.3h-.1l-.1.2h.2zm-50.9 9.1h-.2v.1h.3zm-92.9-35-.2-.2v.1l.1.2.1-.2zm25.7 27.5-.3-.1-.1.1.2.2zm110.7 1.7.2-.1v-.2c-.2 0-.2.1-.3.2zm-99.6.2-.2.1.1.2.2-.1v-.2zm179.9-56.5-.2.3.3.2v-.2zm-88.2 57.6h.4s.2 0 .1-.3zm84.8-59.7.4.1h.1v-.2h-.5zm-60-19.4h.5v-.2a.5.5 0 0 0 -.3 0zm-32 80.7-.3-.1v.1l.2.1h.1zm-74.9 0h-.3zm76-83.3h.6-.5zm63.2 8.6h.2l-.2-.2h-.2zm-79.5 76h.3v-.2l-.3.1zm-36.2-.4-.2.2.1.1h.3zm-8.1.9-.2-.1-.3.1c0 .1.2.2.3.1zm28.8-84.8v.1l.1.3v-.3zm24.8-1-.3-.2-.3.3h.2c.1 0 .3 0 .4-.2zm-37.7 87.6c.1 0 .3-.1.2-.3h-.1c-.3 0-.2.2-.1.3zm-22-1h-.2l.2.2.1-.1-.2-.2zm66.1-86.3h-.4l.2.2.2-.1zm-24.9 86.3h-.4l-.2.1c.2 0 .4.2.5 0zm-29.4-.3v.5c.2-.1.1-.3 0-.5zm73.2-85.2-.2.1h.3zm-50.4 85v-.2h-.3v.2zm58.4-84.2-.1-.2h-.2v.2zm-38.7 83.6-.2-.2h-.2c-.1 0 0 .1 0 .2h.3zm-48.1-.7h-.2l.1.1v-.1zm-8-.5-.2-.1v.2l.3-.1zm56 .1h.4v-.1h-.1zm-.8-81.5-.2-.1h-.2l.1.1zm46.6.6h-.1v.2l.3-.1zm-118 78.3.2.1s.1 0 0-.1l-.1-.1v.1zm119.3-78.1v-.1h-.2l.1.2zm-34.6 77.7v.1h.2v-.1zm-1-.2-.3-.1h-.1v.2l.3-.1zm18.4-.9v-.1l-.3.1v.1h.3zm-5.8-.4v-.3l-.2.1v.1h.2zm7.3-.4h-.3l.2.1v-.1zm6.8-1.5c.1-.1.2-.2 0-.4l-.1.1v.2zm.2-1.5-.2.2.1.2.2-.2zm15.7-.3-.2.2v.1h.2zm1-71.2v-.1h-.2v.1h.3zm-152.5 66v-.2h-.3v.1h.3zm165-65h-.2v.2h.1l.2-.1zm10.6 62.1h.2v-.1h-.3v.1zm-6.8-.5-.1-.2-.3.2zm.3-.5.3.1h.1l-.2-.2zm11.7-1.1v-.1h-.2v.1zm-23-59c0-.1 0-.2-.2-.2v.2zm23.5 55.5c.4.1.3 0 .2-.2zm-16.7-55.3h-.3zm18 53.5h-.3v.1h.2zm8.6-3.4h.1v-.2h-.2zm-202-5.2.1-.1h-.3zm212.2-1.5h-.1l-.2.1s.1.1.1 0h.2zm-211-2.7h.2v-.3h-.2v.2zm-2-.3.2-.1c0-.2-.1-.3-.2-.2zm223.6-12v.2h.4a3 3 0 0 0 -.4-.1zm-25-22.8.2-.2v-.1l-.2.1zm-113.6 74.8h-.2-.1v.1h.2zm50.5-88h-.1v.1h.2v-.1zm-42.7 87.6v.2h.2v-.2zm9.3-87.4-.2-.1h-.1.3zm-46.7 86.8-.1.1h.1zm37.9.3-.1-.1h-.1v.2zm-.7-.2-.1.1h.3zm-24.8-.2h-.2v.2l.2-.1zm31.4-85.7h-.2l.2.1zm-42.8 85.4.1.2zm77.6-85.2h.2l-.2-.1h-.1zm-16.6.3v-.1zm-49 84.8h-.2.1zm34 .2h-.1zm10.5-85h.3zm-55.1 84.3v.2l.2-.1h-.2zm29.8.2-.2-.1h-.2l.1.1zm-12 0h.4l-.1-.1h-.3zm-13.2-.3-.2-.1h-.1.3zm55.2-83.7v-.1h-.2v.2h.2zm35.7.4h-.1v.1h.2v-.1zm7 .1h-.4zm-31.2 0h-.2v.1h.2c.1 0 0 0 0-.1zm62 8.8h-.1zm-106-8.8h-.1v.3l.1-.2zm23.4 82.3v.1h.1zm60.6-81.2-.2-.1.1.2zm-68.2 80v-.1c-.1 0 0 0 0 0zm26.4-1h-.2l.1.1h.2l-.1-.2zm-7-.1h-.2.1zm14.4 0h-.1zm-96.5-.7v-.2zm28-78.2h-.2.1zm-29.2 78v-.2h-.2l.1.2zm31-77.9v-.2l-.1.1v.2h.2zm57 77.6h-.2zm15.6 0 .2.1-.1-.1zm-2.5-2.3h-.1v.2h.2zm-77.9-74.8h.1zm83.2 73 .2-.1-.1-.1a.3.3 0 0 0 -.2 0l.1.1zm-75.9-72.9-.1-.1h.1zm-65.5 43.9h-.2zm181.6-39.3-.2.1.2.1h.1l-.1-.1zm34.2 42.3h-.1zm-150.9-46.7v-.1s-.1 0 0 0zm78.6 72h.1v-.1h-.2v.2zm41.1-68v.3l.2-.1-.2-.1zm-28.4-3.1h.2zm-5.4 70.4v.2h.2l-.1-.2zm22.6-67.4h-.2v.1h.1zm30.9 46.2v-.1h-.1v.2zm-39 20.7h-.2v.1h.3zm.6-.2h-.2v.1h.2zm-9.3-.2v-.1h-.1v.2zm-95.7-69.8-.1-.2-.1.1v.1zm142.3 54.4-.1.1v.1h.2v-.2zm-30.4 13.2-.1.1h.2zm-3.5 0h.1-.2zm-161-1.5-.2-.1v.1zm-8.8-11.7h.1zm52.1-52.6v-.2l-.1.1v.2zm8.3-1.5h-.2zm106 65.5v-.1h-.2v.2zm27.6-6.4-.1.1h.1zm-7.7.5h-.2s0 .1 0 0zm-129.8-58.6-.1-.1h-.1v.1zm130.2 59h-.2l.1.2.1-.1zm-5.8-58.8v-.1h-.3.2zm.8 61.4-.2-.1h-.1l.1.1zm-115.2-62.1v-.2h-.2v.2h.1zm97.3.5h-.1zm5.3 64.4-.1-.1v.1zm-107.2-65.6h-.1v.1h.1zm142.2 11.9-.1-.1h-.1v.1zm-9.9 43.3v-.1h-.1zm-186.3 11h-.1c-.1 0 0 0 0 0zm156.8 2.4h-.1zm34.6-15.9h-.1v.1h.1v-.2zm-138.8-53h-.2zm-10.7 2.4v-.1h-.1.1zm-52 47.2v.1zm214.1-1.3h-.1zm-49.9-47.7h-.2zm-163 46.2h.1zm153 24.3h-.1zm60.7-22.9v.1zm-50.7-48h.1-.2zm19.3 3.7v.1h.2l-.1-.1zm30 42.4h.1zm-211.3-3.2v.1zm218.5-20.8h-.2c-.1 0 0 .1 0 .1zm-34-18.1h.1-.2zm-41.9 68.2v.1zm2.5.5v-.1h-.1v.1zm-3.1.3c-.1 0-.1 0 0 0zm13 0v.1h.2-.2zm-8.8.2v-.1h-.2zm-7.2 0h-.2.1zm76.6-53.3h-.2zm-73 53.8h-.1zm42.8-69.5h.1v-.1h-.1zm-121.6-5.3v.1zm100.7.6h-.2zm57.2 41.6c-.1 0 0 0 0 0zm-86.6 34h.1zm-108.4-.6h-.1zm108.7 1h.1l-.1-.1zm1-.1v.1h.1v-.1zm-109-.4h-.1v.1-.1zm107.1 1.1h.2c.1 0 0-.1 0-.1h-.2zm-1.1.2h-.1zm5.4.1h-.1v.1h.1zm-14.5.9-.1-.1v.1zm-8.6-.2h-.1v.2l.1-.1zm29.4-78.4h-.1.2v-.1zm17 0h-.3zm-10 0v-.1h-.2l.1.1h.2zm-114.3 78.7-.1-.2-.1.1v.1zm78.8.9-.1-.1zm26.8-80.2h-.1v.1h.1zm-36.8 81.3h-.1v.1zm48.6-81.4v.2-.1zm-51 81.5h.1zm59.5-81.6h-.4.2zm-53.4 82.1h.1v-.1h-.1zm44.7-82.3h-.2zm-49.5-.4h-.1v.1h.1zm-56.9 82.4h-.1v.1zm11.4.2v-.1h-.1v.1zm39.2-83-.1.1h.2zm-46.6 83h-.1v.1zm47.1-83h.1zm-8 83.3h.2-.1zm-46.1-.1h-.1zm163.7-63.4h.1zm-11.6-10v.1zm-138 74h.2-.1zm34.6 0-.1.2.1-.1zm-35.7.1h-.3zm26.3 0h.1zm-22.3 0h.2-.4zm5.2.2v.1h.2v-.1zm141.7-65.5-.1.1h.1zm-17.4-7.2h-.1zm-128.4 73.4h-.1zm25.6.5h-.1zm132-56.8h-.2c-.1 0 0 0 0 0h.1zm-11.5-10.3h.1zm-137 67.3h-.3zm9.9 0v.1z" fill="#a8cef1"/></svg>