<svg fill="none" height="63" width="169" xmlns="http://www.w3.org/2000/svg"><path d="m34.4 57.5c0-.2.2-.1.3-.2.1.2.3.2.4 0l.2.1v-.4c.3 0 .4 0 .5.2h-.4c0 .2 0 .2.4.3.1 0 .1-.3.4-.3l.5.5c.2-.2.2-.2.5 0l.3-.3h.2l.1.2h-.4c-.2 0-.2.2-.2.3.2 0 .4.2.6 0 .1 0 .2 0 .3.2h.3l.1-.1.2.2c.2 0 0-.4.4-.4l-.1.4a4764.7 4764.7 0 0 0 .2.2h.7l.1-.1 1.2.1.1.1c.3 0 0-.4.3-.5.2.1.2.3.3.5h.2c.2 0 .2 0 .2.2v-.3c.4.2.6 0 1 0h.3l.2.1c0 .1 0 .2-.2.1h-.2v.2l.6-.2s.2-.2.3 0h.5l-.4.2.4.1h.3v.3c-.2-.2-.4-.2-.3-.3h-.4v-.2c-.2.2 0 .3 0 .4l.5.3h.2l.1.1c.2 0 .2 0 .3-.2 0 0-.2-.2 0-.3.1-.1.1 0 .2 0l-.2.2c.2.1.2.1.2.4l.6.1c-.1-.1-.5 0-.5-.3h.2l.5.2c.2 0 .3 0 .3.2h.4l-.2-.2h1c.2 0 .3 0 .4.3l.2.1.3-.2.4-.2h.8l.5.1.2.1h.5c0 .2-.2.2-.1.3h.6s-.2 0-.3.2c.3 0 .6 0 1 .2v-.2h.2v.2c.1 0 .1-.2.3-.2 0 .2.3.1.4.1l-.1.2.4-.2h.4s-.2-.1 0-.2c0 .2.4 0 .4.2.1.2.2 0 .5.1l.4.1c0-.2 0-.2-.2-.3h-.2c0-.2 0-.3.2-.4l.2.1h.3c.3 0 .6.2.8.3h.2c.2.2.4.1.5.3.1-.1.3 0 .4 0l.8.1h.5l.2.2h.4c0 .3.3.3.5.4l.2-.2h.2l.6.1h.8c.2 0 .3.2.3.2l.2.2.1-.1h.1c.1.2.4.2.6.1h.3c.2 0 .4 0 .6-.2v.1h.2v-.2h1.6l.3-.3v.2c.1 0 .3 0 .3.2h-.4l.2.2h.3c0 .1.3.2.6 0l.2.2.2-.2.9.1-.3-.3v-.2s.3.2 0 .2h.3v.2h.2c0-.1 0-.3.2-.4v-.2l.4.1c-.2 0-.3.3-.4.6l.3-.1v.2h.3v-.2l.3-.1c.4 0 .7 0 1 .3 0 0 0-.2-.2-.3h.6l.2.4h.6c.2-.2 0-.2-.2-.2.1-.4.4 0 .5-.2v-.2l.1.1c0 .1 0 .2.2.2v-.2l.4.2v-.2l.3-.1h.2l.6.1v.1l.5.1-.5-.1h-.6c.1.2 0 .3.2.4.2 0 .1-.2.3-.2h.4c.1.1.2 0 .4 0l.6.1c.2-.1 0-.2-.1-.3h.2c.1.3.4.4.5.5 0 0 .2-.1.4 0l.4-.1c0-.1.2 0 .2 0l1 .3h-1s-.2 0-.3.2h1.4l.4.1v-.2l-.3-.1h.5v.3l.1-.1c.2-.2.2-.3.4-.2h.7l.1.1h-.5v.2h1c-.1-.2-.2-.2-.4-.3l.2-.2.3.2.6-.1h.5c.2 0 .2 0 .2.2v.2-.1h-.6s-.3 0-.2.2h2l-.5-.2c-.2 0-.3 0-.3-.2h1.3c.1 0 .2.1.4 0 0 0 .3 0 .4-.2l.2.1.3.1h-.1 1.8l-.3.2h-.7c0 .2 0 .3.1.2.2 0 .3-.2.5 0l.1-.1h2.2l.2-.2.1.1h1.3v-.1l-.4-.3c.3-.1.8-.2 1.2 0v-.3c.1 0 .2.2.5.2h.8l.8.2h.1-.8c0 .2.1.2.2.2h1.8l.1-.1h.2l1 .1h.5c.1 0 .4-.2.7 0h1l-.1-.2c-.3.1-.5.2-.9 0l.2-.4h.7l.3.4h.5l-.5-.3c.2-.1.3-.1.4 0l.5.1h.6c0-.2.2 0 .3 0s.3 0 .3-.2v.2c-.3.1-.6 0-1 .2l.5.1h1l-.3-.2.1-.2c.1 0 .3 0 .4.2-.2 0-.2 0-.3.2h3.6c.3-.2.6-.1.9-.2v-.1h.3l.4.1h1.4c0-.1-.3 0-.2-.2-.1 0-.3 0-.4.2l-.3-.2c.2-.1.5-.2.7-.1h1.8l-.1-.2h.4l.1.2.5.1c-.2.2-.6.2-1 0-.2.1-.2.1 0 .2h2.9l.4-.1 1.8-.1c.2 0 .4 0 .7-.2.2 0 .5.1.8 0h.9s0-.2.2-.3h.1l-.2.3h.5l.4-.1h2.1l1-.1 1.7-.1h.7c.2 0 .4-.2.5-.3h.3s.2-.2.4 0c.2 0 0-.3.3-.3l-.1.2c.3 0 .4 0 .6-.2 0 0 0 .1.2 0h.4l.7.1v.1c0 .2.2.2.4.3.2-.2.3 0 .5 0 0-.3-.1-.3-.2-.3h-.5c.3-.3.5-.3.7-.2l.2-.2c0 .2.2.2.3 0h.4c.3 0 .6-.2 1-.1l.3-.1h.8c0-.2-.2-.2-.2-.2.1 0 .4 0 .4-.2h2.1l.4-.1c.2-.2.5-.2.8 0l.3-.4v.1c.4-.1.7-.1.9.2h.4c-.3-.1-.5-.1-.7-.4h.6c.3.1.6 0 .8 0h.2l.3.2h.2l-.1-.1-.1-.1v-.1h1l-.2-.5h.3l.8-.2c.3 0 .5-.2.7 0l.3-.1v-.1.2h.3c.1-.1.3-.1.4 0 .2 0 .2 0 .2-.2h-.2l.8-.3c.4.2.6-.1 1-.2l.5.1s.2.2.3.1h.5l.5-.2-.6-.1.4-.2h.6v-.2l.3.3h.4l.1-.4.7-.2c.3 0 .3.1.4.3.1-.2.4 0 .6-.3l.5-.1h.2c.1-.2.2-.3.5-.3l.2-.1.3-.1h.2c.1 0 .4 0 .4-.2h.2c.4 0 .7-.1 1.1-.3h.2l.8-.3c.3-.1.5-.1.7-.3l.4-.2.6-.1.3-.1c0-.2.4-.3.6-.3s.3 0 .4.2l-.4-.2.1.2-.2.1c.4 0 .7 0 .9-.3l-.2-.1h-.3l-.3-.2c.4-.2.8 0 1-.2h.2-.2l.5.3a8551.7 8551.7 0 0 1 .1-.2l.5-.1.4-.4-.2-.2c.2-.2.4-.2.7-.3l.3-.2h.4v-.3h.1c.3 0 .5-.2.7-.1v-.3h.3c.2 0 .3-.2.5-.3l.5-.1.3-.4h-.2l.2-.4.5-.1.2-.1.6-.2c0-.2.2-.3.3-.5l.4-.1c.1 0 .4 0 .4-.3l.3-.2.4-.3.6-.5.8-.6v-.2l.5-.3.2-.2.4-.4c.1-.1.1-.3.4-.4v-.5c.2 0 .2-.2.3-.2.2-.1.3-.2.3-.4l.5-.5c-.1-.1-.1-.3.1-.4l.2-.2v-.1l.5-1 .5-1.2.2-.8c.1-.2.2-.4.1-.7.3-.2.2-.5.2-.7l.1-.3.1-.2v-.1c0-.2.2-.3 0-.5 0 0-.2-.3 0-.3 0-.3.2-.6.1-.9v-.9c.2-.1 0-.3 0-.4-.2-.2 0-.6-.1-.8v-.4c-.3-.2-.2-.5-.2-.7l-.1-.2c-.2-.1-.2-.2 0-.3v-.3l-.2-.3-.3-.6c0-.2-.3-.5-.3-.8-.2 0-.2-.4-.2-.5l-.3-.8c-.1-.2-.1-.4-.4-.6v-.4c-.2 0-.3 0-.3-.3 0-.2-.2-.3-.3-.5l-.4-.5v-.1l-.4-.2c0-.1.1-.2 0-.2-.1-.2 0-.4-.3-.5l-.2-.1c0-.2-.2-.5-.5-.5l-.6-.5c-.1-.2-.4-.3-.7-.3l.2-.2c-.2-.1 0-.3-.3-.4 0-.2-.4-.2-.3-.4 0-.2-.4-.2-.4-.4h.3l-.4-.2-.7-.7c-.3 0-.3-.2-.3-.4l-.4-.1v-.2l-.7-.8h-.2c.1-.2-.3-.2 0-.4-.2 0-.3-.2-.4-.1h-.2l-.4-.4-.4-.3c0-.1-.3-.2-.3-.4h.2l-1-.6h-.4c.1-.2 0-.3-.2-.4l-.2-.2-.4-.2s-.1 0 0-.1l-.4-.6c-.4 0-.5-.2-.7-.2l-.1-.1a.6.6 0 0 0 -.8-.3c0-.3-.4-.6-.8-.5-.2-.2-.3-.2-.6-.1h-.2l-.7-.6.4-.1-.3-.2v.2c-.2 0-.3.1-.4 0-.3 0-.3-.2-.3-.4 0 0 0-.2-.2-.3-.2-.2-.3-.4-.7-.5l-.4-.3h-.5c-.1 0-.3 0-.3-.2l.2-.2-1-.7h-.5c0-.3-.3-.4-.5-.5-.2 0-.5 0-.6.2-.2-.1-.5-.2-.6-.4h-.2c-.3 0-.4-.2-.5-.3l.6.2-.2-.4c-.1-.2-.3 0-.5-.1.1-.2 0-.3 0-.4l-.6.2c0-.1-.3-.1-.3-.3l.2.1h.4c-.3-.2-.4-.4-.6-.3 0-.2-.2-.3-.4-.3h-.6c-.2.2-.2.2-.3 0l-.2-.2-.1-.4-.9-.3c-.2 0-.5-.2-1 0l-.1-.2c-.2 0-.4-.3-.6-.2h-.3c0-.2-.2-.3-.3-.3-.4 0-.5-.2-.7-.3v-.1c-.4 0-.5-.2-.7-.2l.1-.3c-.3-.1-.6-.2-1 0 0-.1-.3-.1-.2-.4h-.3c-.1 0-.4 0-.5-.2-.1 0-.2-.2-.5 0l-.2-.3c0-.2 0-.3-.2-.4v.3c0 .1-.3.1-.4 0l-1.2-.5-.2-.2-.2-.1c-.3.2-.5 0-.7-.1l-.7-.3h-.2l-.8-.2h.9l-.3-.2h-.7l-.1-.3-.4.1c0 .1-.2 0-.2-.2l-.2.1c-.3-.1.1-.2-.1-.3 0 .1-.2.1-.2.3l-.4-.2.3.1c0-.2-.3-.2-.5-.2h-.3l-.4-.1c-.2 0-.3 0-.4-.2l-.7-.2c-.3 0-.5-.2-.6-.3h-.1c-.4 0-.7-.2-1-.3-.2-.1-.4-.2-.7-.1l-.1-.1c-.2-.2-.5-.2-.7-.2s-.4 0-.5-.3h-.3l-.5-.2-.7-.1-.4-.1-.4-.1h-.5c-.2-.2-.5-.3-.7-.3-.3 0-.5 0-.6-.3l-.2.1h-.3c-.2-.2-.5-.1-.6-.1h-.2l-.7-.2c-.1.1-.4 0-.4 0 0-.2-.2-.3-.3-.3-.3 0-.6 0-.8-.2l-.9-.1a.9.9 0 0 0 -.8-.2v-.1l-.2-.1c-.1-.1-.3-.1-.4 0h-.2c-.1-.2-.4-.2-.5-.3-.2.2-.5.2-.7.1l-1-.2c-.3 0-.4 0-.7-.2h-.4c-.2 0-.4 0-.5-.2-.2-.2-.5-.1-.6-.1h-1.2l-1-.2h-1.7c-.3-.2-.5 0-.7-.2h-1l-.2-.1h-.5c-.2-.2-.3-.2-.6-.2l-.5.1c0-.2-.3-.1-.4-.1h-1.9a8052.3 8052.3 0 0 1 -1.2 0h-1.4l-1 .1h-.3c-.2.1-.6 0-.8.2h-1.2c0 .3-.4.3-.6.4l-.3.1c0 .2-.3.2-.4.3-.3.2-.5.2-.8.2a1 1 0 0 0 -.5.1l-.6.3c-.2 0-.2 0-.2.2h-.5l-.1.2c-.4.3-.9.4-1.2.7l-.5.4-.5.3c-.1.3-.5.4-.5.7l-.1.1c-.3.1-.2.3-.2.4l.2.3s0 .2-.2.2l-.1.4a1036.6 1036.6 0 0 1 -.3.3c-.1.2-.2 0-.3 0-.2 0-.3.2-.4.5l.3-.1.1.3.4-.1h.4c0 .1.3.2.4.1 0 .2-.1.2-.2.2h-1.6s.2 0 .2-.2h-.6c-.1-.2-.4 0-.5 0 .1-.1.1-.3.5-.3h.2c0-.2 0-.2-.2-.2h.7c.1-.1 0-.1 0-.2s-.1-.2-.3-.2c-.4-.2-.9 0-1.2-.2h-2a5 5 0 0 0 -1.2 0c0 .3-.2.4-.3.6h-.6l-.2.1.4.1c-.2.2-.2.2-.7 0-.1.2-.3.2-.6.2l-.1-.2h-.4v-.1l.2-.1h.4-.2v-.4c-.2 0-.5 0-.6.2h-.3c-.2 0-.4 0-.5-.2h-.6l-.4-.1-.4.2v-.3l-.7.2s-.2.1-.2 0l-.4.2h-.3c0-.1 0-.3-.3-.3v.3l-.1-.2-.9-.1h-.8l.1.2h-.1v-.2h-1.3l-.4.1c-.1-.2-.2 0-.5 0h-.5c-.3 0-.7 0-.8.2l-.1.1-.5-.1c-.2 0-.2 0-.2.3h-1.5 1c-.4-.3-1-.4-1.3-.1l.3.2h-.2l-.1-.3c-.2-.1-.4-.2-.5-.1h-.9l-.8.2h-.4s-.2.2-.4.1v.5h-.6l-.4-.1c-.1-.1-.1 0-.2 0 0 0 0 .2-.2.2l.2-.2-.4-.1h-.7c-.1.2-.4.2-.5.2h-.2l-.3-.1s-.2.2-.3 0h-.9c-.2 0-.3 0-.2.1l.1.1c-.1.2-.5 0-.7 0l-.1-.2h-1.2c-.2 0-.5.2-.6.4h-.1l-.3-.1-.3-.2-.6.1h-1.2c-.2 0-.2 0-.5.3-.1-.2-.3 0-.6-.3v.4l-.4.3-.2-.2h-.2l-.3.1h-.7v-.2c-.2.3-.6.2-1 .3l-.2-.1h-.7a1 1 0 0 0 -.5.2c-.2 0-.3.2-.5.3l.3.1c-.3.2-.5.2-.9.1h-1.3v.2l-1.2-.1h.5v-.2h-.8c-.2 0-.3 0-.3.2l-.2.1-.4.2-.2-.1h-.2l-1-.1v.3h-1v.1h-.1a1 1 0 0 0 -.7 0l-.3-.2-.2.2-.3.1h-1.1l-.5.1h-.1c-.3 0-.5.2-.8.3h-.3c-.3 0-.4 0-.4.2 0 0-.1-.2-.2 0-.3 0-.6 0-.9.2l-.2.1h-.6v.1c-.1.1-.3-.3-.5 0 0 0 .2 0 .2.2l-.2.3-.6-.2.2-.2c-.3 0-.3 0-.3.2l-1 .3c-.2-.2-.4-.1-.7-.2l.3.2c-.2 0-.2.1-.3.2h-.4v.1c-.3-.1-.3.3-.5.2h-.8l-.2.1-.2.1h-.3c-.2 0-.3.2-.6 0l-.6.3c-.2 0-.5 0-.6.2h.1l-.6.2.3.2.5.3-.1.1c-.3-.3-.3-.3-.9-.1l-.2-.2h-.1l.2.3c-.1 0-.2 0-.2.2l-.4-.5-.2.1-.1.1c-.3 0-.5.2-.7.1h-.2c-.2.3-.7.2-1 .2l-1.1.3-.3.1h-.2c-.3.1 0 .3-.2.4h-.5c-.1 0-.3 0-.5.2v.2l-.3-.2-.4.3c-.2 0-.4 0-.5.2h-.6c-.3.3-.6.3-1.1.4l-.6.1-.1.1c.2.1.2-.2.3 0-.1.2-.4.3-.7.2-.1-.1-.4 0-.4 0v.2l-.3-.2-.1.2c-.2 0-.3 0-.4.2h.2v.1h-.3v-.1c-.2 0-.3.2-.4.4l-.1-.1-.5.2-.1.1c-.4 0-.6.3-.9.4-.1.1-.2.1-.2.3l-.2.1c-.2 0-.2.2-.2.3-.4 0-.7.1-1 .3l-.1.1c0 .3-.3.5-.6.4l-.1.1c-.3.2-.6.3-.8.6-.1.1-.3.3-.6.3l-.1.1c-.1 0-.1.2-.3.2s-.3.2-.3.4c-.3 0-.4.2-.5.3l-.8.6-.2.2c0 .1 0 .2-.3 0v.2c-.2 0-.2.3-.4.2l-.2.2h-.3l-.2.3c-.3 0-.3.3-.6.5l.3-.2.2-.1c-.1 0-.1.2-.2.1v.2c-.3.1-.3.3-.5.4h-.2l-.7.9c-.1.2-.1.4-.4.5h-.1c-.2 0-.1.3-.4.3l-.1.3c-.1 0-.1.2.1.3h.1l-.1.2.1.1-.5.3c.1.2 0 .3-.2.4v.3c-.3 0-.3.1-.4.2l-.3.5h-.1v.4l-.1.3c-.2.1-.2.2-.2.3l-.1.6-.2.3v.2l-.2-.1v.7h-.3c0 .2 0 .2.2.3 0 .4-.3.9-.7 1.2l.2.2v2.9l.1.2v.3l-.1.1c.1.2.3.4.2.7v.5c.2 0 .2.3.2.4v1c0 .2 0 .5.3.7-.1.2.2.3.2.6l.2.6c.1.3.2.7.5 1 0 .3.2.4.4.5.1.1.2.1.2.3l-.1.3c.2.1.2.3.3.4h.2c0 .2 0 .6.4.6l-.1.2-.2-.1v.2c.3 0 .4 0 .5.2l-.1.2.4-.1v.3l.2.3c0 .2 0 .3.3.3l.4.3.3.3.2.2.2.2c-.2.2.2.3.3.5l.6.6.4.2.3.1-.2.2c.3 0 .5.2.7.3v-.3c.2.1.3.2.2.3 0 .1-.2.2 0 .2 0 .2.2.2.2.2l.7.4.8.6.6.3c.2 0 .2.1.2.2h.2l.5.2c.2.1.6.2.7.4l1 .5.7.5.4-.3h.4c0 .3-.4 0-.5.3.1.2.5 0 .7.3.1.2.5.2.7.3l.7.3c.1 0 .1-.3.4-.3-.2.1-.2.2-.3.4l.4.1v-.2h.6v.2l-.3.1.8.4 1 .4c.4 0 .7.3 1 .4h.7l.4.2.6.1-.1-.2h1l.5.4v.3l.2.2h.3c0 .2.3.2.3 0l.2.2h.3c.1-.1.3-.2.6 0l.7.1h.1c.2 0 .4 0 .5.2l.8.2v.2c.4-.2.4-.1.5 0 .2 0 .3 0 .4.2.2 0 .2-.2.3-.2l.6-.1h.3l.4-.1.6.5.2.2.5.1v.4h.2v-.4h.4l.6.2h.5c.2.3 0 .3.4.3h.3c-.1-.1-.1-.2-.3-.2h.2v.3c-.3 0-.3.2-.3.2l.5.2-.5.1.4.3.5.1.4-.2-.2-.1.2-.2c.4 1.1.4 1.2.7 1.3zm-19.6-39.6.3-.1-.3.1s-.2.2-.3 0zm72.9-10.9h-.3.3c0-.1-.1-.2.1-.2zm-30.7 1.5-.5.1v-.2l-.5.1c-.2 0-.2 0-.2-.2h.5v.1h.7s-.1-.1 0-.1l.7.1h-.7zm30.1-.2h-.1c.3-.3.4-.3.5-.2 0 0-.1.2-.3.2h.3-.3zm-42.5 1.9s-.3 0-.5.2v-.4l-.4-.1.5-.1.2.2.4-.3.5-.3.4.2.4-.2.1.1v.1c-.2 0-.5 0-.7.2 0 0 .2 0 .3.2h-.5c-.3.3-.4.3-.7 0zm50.6-2.3-.2.1c-.2 0-.2.1-.2.3-.3-.1-.4 0-.5.2-.1-.2.1-.3.2-.5l-.2-.2.4.1c.2 0 0-.2.2-.3h.4v.1h-.4l.4.2.3.1h-.3zm-14.8-.2h-.1c.3-.3.7-.2 1-.2v-.2c.3.1.6 0 .8.3h-1c-.2.1-.5.2-.7 0zm-24.7.9.2.1a.4.4 0 0 0 -.2-.1c0 .3 0 .3-.3.3v-.2h-.3c-.2.2-.4.1-.6.2h-.3c0-.2.3-.2.4-.3l.1.1.3-.1zm82.8 3.8c0 .2.2.2.3.2v-.2l.3.1v.4-.2.1c.4.4.6.5 1.1.4.3 0 .5.2.7.3h.6v.6c.1 0 0-.2.2-.2s0 .2 0 .3h.4v.2l.6.2c.2 0 .3 0 .4.3.3.3.4.3.6.1l.1.3.4.3c.2 0 .3.2.3.4l.3-.1.4.2c.4 0 .7.2 1 .4l.8.5c.2.1.7.2.7.5l.5.4c0 .1.3 0 .4 0l.8.4.1.3.4.3.4.2c.3 0 .3.2.3.3h.4c0 .2.2.3.3.4 0 0 .2 0 .3.2.5.3.8.6 1.4.8.1.3.4.5.6.6.2 0 .5.3.7.5l.3.3.3.2.5.4c.3 0 .4.2.6.4l-.1.1v.1h.3l.7.6c.1.1.3.2.1.3v.1c.3.1.4.3.6.2l.1.3c.3.1.6.2.6.5l.8.7c.2.1.6.3.2.7h.5l.1.2h-.2v.2h.3v.3c.1 0 .2 0 .2.2h.1c.2 0 .3 0 .3.2 0 0 0 .2.2.2l.4.3s.2.3 0 .4v.1l.2.1v.3c.3.1.4.3.4.5l.1.2c.2.2.2.5.6.7 0 .4.3.6.4.8l.2.4h.2v.5c0 .2 0 .3.3.3.2.1.2.1.2.3h.1c.1.2.1.3.3.3-.2 0-.3.3-.2.3l-.1.2c.3.2.3.5.3.7.1.4.4.7.2 1v.2l.1.5v.6h.2c-.2 0-.1.3-.1.4v1.8h-.3c.2.2.2.5 0 .7.2.2.2.4-.2.5.1.4 0 .7-.3 1 .1.3.1.5-.1.5-.3.1-.2.3-.2.5l-.1.6c-.1.1-.3.3-.3.6h-.2c.1.2.1.4-.1.4l-.2.4-.2.4c-.2 0-.2.2-.3.3h-.3v.1l-.3.3-.1.1c0 .2-.2.3-.4.4 0 .2-.3.3-.4.5-.1.1-.2 0-.3.2 0 0 0 .2-.3.3h-.1c0 .2-.1.2-.4.3l-.1.2c0 .2-.1.2-.3.2v.2l-.6.3s0 .1-.1 0c-.4.2-.4.5-.5.6v.1l-.5.3c-.1.2-.4.3-.6.3l-.2.1c-.4.1-.5.5-1 .5 0 .2-.4.2-.5.3l-.9.4-.6.4c-.1.2-.3.4-.7.3l-.1.2-.4.2h-.7c-.3.2-.5.3-1 .2 0 0 0 .1-.1 0-.1.3-.4.5-.7.4-.4 0-.5.1-.7.2h-.3c-.2 0-.4.2-.4.3h-.6c0 .3-.4.4-.8.5-.2 0-.4 0-.5.2h-.4a1 1 0 0 1 -.4.2c-.3 0-.4 0-.5.2-.4 0-.5 0-.7.2l-.2-.1-.3.2c-.3 0-.4 0-.4.2h-.3c-.2.2-.5 0-.8 0l-.1.3-.2.1h-.8v.2h-.6l-.7.2a.7.7 0 0 0 -.7 0l-.1.2-.7.1c-.2 0-.4 0-.4.2h-.4l-.2.3-2 .2c0 .1 0 .2-.2.3l-.2-.2c-.4.4-1 .5-1.5.2l-.7.3-.3-.1c-.2.2-.4.2-.5.2h-.4l-1 .2-1 .1c-.3.1-.6 0-1.1.2h-.2l-.9.1c-.3 0-.8.2-1.2.1h-.1c-.2-.2-.4 0-.5.1h-.5.2-.6l-.9.1c-.3.1-.8 0-1.2.2l-.6.1c-.2 0-.4 0-.7.2h-1.1c-.2 0-.6-.1-.8 0h-.3l-.3.1-.1.1-1.4.2h-1.6c-.3-.1-.4.2-.6 0-.2.2-.4.1-.5.3-.1 0-.1-.2-.4-.2h-.8c-.1-.1-.2 0-.4 0h-.3l-.5.1h-.5a5995179437795.6 5995179437795.6 0 0 0 -2.3 0c0 .2-.2.2-.4.2-.5-.2-1 0-1.5 0l-1 .1h-2.7c-.3.1-.6 0-1 .2a2747.2 2747.2 0 0 0 -1 0v.1h-1.5a1993 1993 0 0 1 -.8 0l-.2-.2c0 .2-.1.2-.4.2h-2a70662.4 70662.4 0 0 0 -1.4.1c-.3 0-.6.2-1 0h-4l-.3.2c-.2 0-.4-.2-.7 0h-1.7c0 .1-.3 0-.4 0-.2 0-.1-.2-.3-.2 0 0-.2 0 0-.3h-.4l.3.2h-.5c-.3 0-.7.2-1 0l-.2.1c-.3-.2-.7 0-1 0-.1 0-.4.2-.6 0v.4l-.5-.3-.6-.3-.7.1-.1-.2-.1.1s-.2.2-.3 0l-.2-.1-.3.2h-1l-1-.2h-1.5c-.3-.2-.4 0-.5-.1-.1.2-.4 0-.6 0h-1.3l-.1.2c-.4-.1-.7-.2-1 0-.1-.2-.2 0-.3 0l-.5-.3c-.1-.2-.2 0-.5 0h-.7l-.1-.1h-1c-.2 0-.4 0-.7-.2h-.6c-.3.2-.6.1-.8-.2l-.1-.1-.3.1.3.1c-.3.1-.5.2-.7 0h.2-.5c-.2 0-.6.2-1 0-.2 0-.4 0-.5-.2-.3-.2-.5 0-.7-.2h-.9s0 .2-.2.2l-.2-.2h-1.4v.2l-.2-.2-.8-.1h-.7a.7.7 0 0 0 -.7 0l-.3-.1c-.3 0-.7-.1-.9-.3l-.1-.1-.1.2h-.6c0-.2 0-.2.3-.2l.3-.1-.5-.1c0 .2-.5 0-.4.2l-.5.1c0-.2-.2-.1-.4-.1 0-.1-.1-.2-.3-.1h-.1c-.3 0-.5 0-.7-.2-.3 0-.5 0-.7.2h-.2l-.2-.2c-.2-.2-.5-.1-.7-.1h-1.6c0-.2-.3-.1-.4-.1h-.5l-.7-.2h-1.1l-.3-.1h-.5l-.2-.1-1-.3h-.2l-.8-.1h-1c-.3-.2-.6-.3-1-.2h-.8v-.2c-.4 0-.7 0-1-.2l-.4-.1h-.3l-.4-.2h-.4l-.4-.2c0 .1-.1 0-.1 0l-.3-.1h-1.8c0-.3-.3-.2-.4-.3h-.1c-.3-.3-.5-.2-.9-.1 0-.2-.4-.1-.7-.2h-.7c-.2-.2-.6-.2-.8-.3-.3-.1-.6-.1-.8-.4l-.3-.1h-1.3c-.2-.2-.3-.4-.6-.3h-.3c-.3-.1-.4-.1-.5-.3h-.3l-.2-.1h-.3l-.4-.1h-.3c-.3 0-.7-.2-.8-.4h-.2c-.3.1-.2.1-.6-.1h-.8l-.2-.3-.1.3-.2-.3-.8-.2-.2-.2h-.5c-.3 0-.6-.1-.6-.3l-.7-.2c-.3-.2-.7-.2-1-.2-.1-.2-.1-.2-.5-.2h-.1c-.2-.2-.5-.2-.7-.3l-1-.2a2 2 0 0 1 -.7-.2l-.5-.3v-.1c-.3-.1-.5-.1-.6-.4-.4.2-1.3-.3-1.5-.6h-.3c-.2 0-.5 0-.6-.2h-.2l-.2-.2a.5.5 0 0 1 -.2 0l-.2-.2c-.1-.2-.4-.1-.6-.2-.1-.1-.5-.1-.6-.3l-.1-.1c-.4-.2-.7-.2-1-.5l-.2-.2-.3-.1-.5-.3-.8-.4c0-.2-.1-.1-.2-.2l-.3-.2v-.1l-.3-.1-.1-.1-.6-.5a.6.6 0 0 0 -.6-.2c0-.1 0-.3-.3-.4h-.2v-.2c-.3 0-.4-.2-.5-.3-.1 0-.3 0-.4-.2 0-.1-.2-.2-.5 0 0-.3 0-.5-.2-.6v-.2c-.3-.1-.4-.3-.4-.5h-.4c-.2-.1-.2-.5-.7-.6v.3c-.4 0-.4-.2-.3-.3-.1-.1-.4-.3-.4-.5l-.3-.4h.4v-.2l-.4-.5v-.1s-.2 0-.2-.2l-.3-.4c0-.1-.3-.2-.2-.4l-.2-.2-.2-.3-.2-.4-.2-.6c.1-.3.1-.3-.1-.5h-.1c0-.3-.3-.5-.2-.7v-.3l-.1-.1c0-.1 0-.2-.2-.3 0-.3-.3-.5-.2-.8v-.2c0-.2-.2-.3 0-.5 0-.2-.3-.3 0-.5h-.3c.3-.2.2-.4.3-.5l.1-.7v-.7h.4l-.2-.5v-.3c.2-.2 0-.4.3-.5v-.7a.2.2 0 0 1 0-.4h.2c-.1-.4.1-.5.2-.8.2-.2.3-.4.2-.7l.3-.1v-.2l.2-.1c0-.4 0-.7.4-1-.1-.1 0-.2.1-.3v-.4c.1 0 .3-.3.2-.4v-.1c.3-.1.2-.2.3-.3 0-.1 0-.2.2-.2a1514.5 1514.5 0 0 0 .7-.7v-.1c.3 0 .4-.3.5-.4l.5-.3-.1-.5h.3v-.3c.4 0 .6 0 .8-.3l.3-.4.2-.2c.3 0 .3-.1.3-.2v-.1c.2-.2.3-.2.5-.2v-.2l.3-.1c.3-.4.3-.4.6-.4l.2-.2.7-.4c.1 0 .2 0 .2-.2.2-.2.3-.2.5-.1v-.4l.4-.2.7-.3.2-.1.6-.5.5-.1.4-.2c.3-.2.8-.2.9-.4h.2c-.2.1-.3.3-.7.4h.2l.6-.1c.2-.1.3-.1.3-.3l.2-.4h.3c-.1 0-.1-.2.1-.3l.4.2v-.3l1-.4h.3l.3-.1 1-.3v-.1l.4-.2h.3l.3-.2c.4.1.7-.1 1-.1h.2c.1 0 .3 0 .4-.2h.2c.1-.2.4-.2.5-.3v.2h-.1c0 .2.3.2.5 0v-.1c.3 0 .4 0 .7-.2h.1-1.2c.1-.1.5 0 .6-.2 0-.2.3-.4.5-.3l.6-.1h.1c.3 0 .5 0 .5-.4-.1 0-.1 0 0-.2.1 0 .3.2.5 0h.7l.3.1-.2.1.5.1h.6c.1 0 .2 0 .1-.2l-.7.1h-.1l.2-.2h.3l.2-.4h.6c0-.2 0-.2.3-.2l-.3.1c.3 0 .4.1.5.3 0 .1.1.1.2 0l-.2-.3h.1l.3-.3c.1-.1.3 0 .5-.2v.1c.2.2.3.1.4.1l-.4-.3h-.2l-.2.1-.3-.2h.4c.1 0 .3-.2.4-.1l.5-.1h.7c.2.1.6.1.7.3l.2.1c0-.3.3-.2.5-.2v-.1c0-.3 0-.3-.3-.2h-.3l-.1.1-.2-.2.1-.3h.6l-.2-.1c.2 0 .2.1.3.2.3 0 .4 0 .6-.2l.4.1h-.1l.7-.1h.2l-.1.3.3.2.6-.3h.8v.1c0-.4.7-.5 1-.7l.2.3h.7l.3-.2c.3 0 .5.1.8 0v-.3l.3.1c0-.2 0-.2-.2-.3l.1-.1h.6c.1.2.2.3.5.1h.6l.1.1c-.4 0-.6.1-.8 0v.2s.2 0 .3.2l.6-.3c.4.1.7 0 1-.1l-.6-.1c.1-.2.2-.3.5-.3h.2l.2.1v-.4h.7v-.3c.2 0 .2 0 .3.2.1-.1.3 0 .5-.2l.4.1-.3.1h-.1l-.2.1h-.3c-.2 0-.5.2-.7.1v.2c-.3.1-.1.3-.1.4l1.2-.2c0-.2.2-.1.4-.1v-.2h-.8c0-.1 0-.2.2-.1l.2-.1h.6v.2h.7v-.3l-.4-.1.1.1-.3.1v-.2h-.2v-.2h.2c.2.2.2.2.4 0v-.2c.3 0 .3.3.2.5l.7-.2h.1c.2-.3.3-.2.5-.2v-.6h.3l-.1.2h.3l-.1-.3.2.1c0 .1.1.2-.1.3h.2c.2-.3.3-.3.5-.3h.9c.2-.1-.1-.2 0-.2.2 0 .3 0 .5-.2h.2l-.2.2h.4v-.2l.3.1.2-.2.1.2c.2-.1.3-.3.4-.1l.1-.3h.3l.1-.2c.2.1.5.3.6 0l.2.2.9-.2h.9c.4-.1.6-.2 1 0h.1c.2-.2.4-.2.5 0h.7s.1.2 0 .4c.5-.1.8 0 1-.2l-.3-.1h-.2v-.1c.6 0 1-.2 1.4-.1l.5-.1c.2 0 .3-.2.6 0h1.1l.3-.4c.1.1.1.2.3.2.2-.2.2-.2.7 0l.1-.2h.2c.2 0 .2-.1 0-.2l-.3-.1h-.2v.1h-.8c-.2-.2-.3-.2-.2-.4v-.1l-.1.1h-1c.3.4.3.4.5.3l.4.1h-1.1v-.4h-.5a1 1 0 0 0 -.7 0h-.5c.3 0 .4-.3.6-.2l.4-.1c.3-.2.4-.1.5 0h1.1l.7-.2h.7c.1.1.3.3.6.2v-.3h.6c-.3 0-.3.2-.3.3l-.3-.3-.1.1.4.3c0 .1 0 .2-.2.3.2.3.6.1.8.3l.4-.1.5-.2h.3l.7.1h.7c.3 0 .4 0 .6.2l.2-.2h.3c.3 0 .6-.2.8 0h1l-.1.4h.8c-.1-.2-.4 0-.5-.1 0-.1 0-.3.3-.3 0 0 .3 0 .3.2v-.2l1 .2.3-.1v-.3s-.2.2-.3 0c-.1 0-.3.3-.4.2v-.4h.2v-.1h1c.3 0 0 .2 0 .4h1.5c0 .2.2.2.4.1h.7c.2-.2.2-.2.4 0h1v-.1h.6c-.2 0-.2 0-.3-.2 0 0 0-.2.1 0 .2 0 .3-.1.4 0l-.1.3.3-.2c.3.2.6 0 .9.2-.2-.1-.1-.2-.1-.4 0 .2.2.1.3.1.2.1.3 0 .4 0h.4l.2.2c-.1-.3 0-.4.3-.5h.7c.2 0 .2-.2.2-.2h.6c.2.2.3 0 .3 0h.6l-.1.2h.2c-.1.4-.5.3-.6.3-.2.1-.3 0-.6-.3-.1.1-.2.2-.1.4h.6l-.4.2.7.1h1.5l.7.1c.1-.2.2-.2.3-.2.3 0 .2.2.3.3l.4-.1c.4 0 .6 0 .9-.2l.1-.2.3.1c-.2.1-.3 0-.3.2l.8.3.2-.1c.2 0 .4.2.7 0 .2.3.3 0 .4 0h.4v-.1h.2c.3.2.5 0 .6 0 .3-.1.5 0 .6.1 0-.1.2 0 .2-.2v.1l.4.1h.3c0-.2.3 0 .4-.1h.8v.3l.4-.1v-.2h.3c.2 0 .1-.2.2-.2l.4.2.2-.3-.2-.2c.4 0 .4 0 .3.2v.3h-.2-.2c.4.2 1 0 1.3 0l.1.1 1 .1h.3l.4-.1h.3l-.1.4c.3 0 .1-.2.2-.3l.3.1h.4c0-.2.4 0 .4-.3h.5c0-.3-.4-.1-.6-.3v.3l-.7-.3h.2l.3-.1-.1-.4.2.1h.3l-.5-.5h-.5l-.5-.1-.4-.1c.1-.2.1-.2.3-.2h.9l.3.2c.1.1 0 .1 0 .2l.1.1h.3v.3c.2 0 .3-.2.4-.3.3.2.4 0 .6 0l-.2-.1c.1-.2.4 0 .5 0l.5.2.4.1c-.1.2-.3.2-.5.1h-.2l-.3.2c.3 0 .5 0 .7.3l-.3-.1.3.3c.3 0 .2-.2.2-.3l.4.1-.2.2v.3h.1c-.1-.2.3-.4.3-.7l.3.2c.3-.2.3-.2-.1-.2l-.1-.2h1l-.2-.1h.5l-.2.3h-.4l-.1.2-.5.1v.3h.8-.1l-.1-.3.2.1h.5l-.3-.3.4-.1.4.1.2.3h-.5c-.2 0-.4.2-.8.1l-.1.1v.1h.8l.2.1v.2h.6-.3l.1-.2.2-.1c.2 0 .2 0 .3.2l.2-.1c.5.2.6.1.7 0l.6-.1c.4-.2.5-.1.6 0l.1.2.2-.2c0 .2 0 .3.2.4l-.1.2c.4 0 .8 0 1.1.2v-.4l.4.2c.1 0 .1.1.2 0h.8c.2.2.3.2.6 0l.3.2-.2.2v.2h.2l.2-.4h.6l-.3-.2h.3l.3-.1h-.8l-.9-.4-.2-.2-.4.4h.2c-.2.2-.3 0-.4 0l.1-.2c-.4-.1-.4-.1-.2-.3l.1-.3-.5.1v-.4h-.2c0-.2.3 0 .3-.2-.3 0-.5 0-.6-.2v.3c.2 0 .2.1.2.2h-.6l.1.2c-.2.2 0 .2.1.3h-1.2v-.4l-.7.2c0-.2 0-.3-.2-.5l-.1.3.2.2c-.1.2-.3 0-.5 0 .1 0 .1.2.3.2a4260 4260 0 0 1 .7 0l-.4.2h-.9c-.3.1-.4 0-.5-.1l-.2-.3.3-.2c.4.2 0 .3 0 .5.1 0 .2 0 .2-.2s.2-.2.3-.3l-.2-.2c.2-.1.6-.1.7-.4h-1.5l-1-.2h-2l.1.1h-1.2l.4-.3-.5-.1h-.2s-.2 0-.2.2l-.3-.2-1.2-.2h-2.3l-2-.2h-1.1c0 .2-.2.2-.3 0a7570.2 7570.2 0 0 0 -1 0h-.4c.2.4.5.2 1 .2l-.4.4s0 .3-.2.4h-.7.5v.1l.2.1-.4.3-.6-.1c-.1 0-.2.3-.3.2l-.5-.4.1-.1-.6-.1.2-.2h-.3l.1.3-.6.2h-.8c-.1.2-.3 0-.4 0 0 0 .3-.1.2-.2h-.8v.2c-.2 0-.3 0-.4-.2h.2v-.2c.2 0 .4 0 .6.2.1-.2.4-.3.6-.2v.3h.3l-.2-.2h.9s.3-.2.7-.1c.2 0 0-.1.1-.2h-.5l-.6-.2h.2l-.2.1h-1l-.5-.1-.1-.1h.5c-.3 0-.4-.2-.5-.2l.2-.3.5-.2c.3 0 .4-.1.5-.3h.1l.2-.2s0-.2.3-.2.3-.3.4-.4l1-.4.3-.1c.3 0 .1 0 .3-.2h.2l.1.1.3-.2c.3 0 .6-.2.8-.3h.3s.3-.2.4-.1l.3-.1c.1-.2.2-.1.3 0 .2-.2.4 0 .4 0 .2-.3.6-.3 1-.3l.3-.2h.5v.3h.4l.2-.2h.6v-.2c.2-.1.1.2.2.2h.9l1.6-.1h1c.2 0 .6.2.8 0v-.2h.3c0 .2.3.1.5 0h.3c0 .3-.2.1-.4.2l.3.2.4.1h.9c0 .2.2 0 .5 0h.3c.3.1.4.2.7.1h.4c.1.1.3 0 .3-.1l-.2-.2h.5c0 .3.3.4.5.4h.4c.5.2.8.3 1.3.2l.2.1c.3 0 .5 0 .8.2h.7c0 .3.2.2.2.3l.2-.2.3.2h.6l.2-.1c0 .2.2.2.4.3l.7.2c0-.2-.4-.1-.4-.3h.5c0 .3 0 .3.3.4h.4c.1.2.3.2.5.2l.9.2.4.1h1.1c.3 0 .4 0 .4-.2.4.1.6.4 1 .2 0 0 .2 0 .2.2h-.3c0 .2.2.4.4.4l.1.2h.8l.1.3.5-.2v-.1l.6.1-.3.2c.3.2.7 0 1 .1.1.2.6 0 .8.3h1.5c.4 0 .5 0 .6.2h.3c0 .2 0 .2.3.2v-.1h.2c.1.4-.1.3-.2.3l.2.2-.5.1.4.1.2-.2.1.1c0 .2.1.2.3.3l.8.3.1-.1c.2.2.7.2.6.6.2 0 .3 0 .5-.2l.4.2.7.2.3.1.4.1.9.4.2.2c.2.2.8 0 1 .4l.2-.1 1 .3c.2-.3-.2 0-.2-.2.1-.2.4-.2.4 0h.2l.6.3c.2 0 .2 0 .2.2h-.2c.2.1.4.3.7.3l-.3-.2.7.2h-.4v.1l.4.2c.4.2.7.3 1 .6l.3.2h.1c.1.2.4 0 .6.3l.3-.3c4.6 1.2 4.6 1.3 4.7 1.4zm-68.2-4.3h.7c.2-.2.3 0 .3 0 .1-.2.2-.2.3-.1l.2.2.2-.2.1.2c.1-.3.5-.2.7-.3v.3c-.2 0-.6 0-.7.2-.1 0-.2 0-.3-.2-.2.3-.4.3-.7.3h-.1c-.1 0-.2.3-.5 0l.5-.2c-.5-.1-.8.2-1.3 0 .3-.1.4-.3.5-.4l-.1-.1h.5s0 .2-.2.3zm12.4-1.2 1.6.1-.3.4c-.3.2-.8.1-.9-.2h-.4zm-36.3 3.2c-.2.2-.1.3-.5.4l-.1-.2c-.3.2 0 .4-.1.5-.3 0-.5.3-.9.1 0-.2.4 0 .5-.2v-.3l.4-.4h.2l.2-.1s.2 0 .3.2zm14.9 51-.5-.2v.2c-.3 0-.5 0-.6-.2h.7l1-.1c.2 0 .2 0 .3.2h-.2v.3l-.3-.1.3-.2a2 2 0 0 1 -.6 0zm-46.1-12.7c.2 0 .5 0 .6.3l.2.2v.1l-.3-.2c-.5 0-.6-.3-1-.5v-.3zm98 13.7c.1-.1.1-.2.4-.2h1l.3.1-.2.1h-.3v.1h-.7l.2-.1h-.3c-.2 0-.3.1-.4 0zm-40-54.6.1-.1c.2 0 .3 0 .4.2h.6l-.3.3a.4.4 0 0 0 -.4 0h-.9v-.3zm-14.8.7h.2l.4-.2c.2-.3.6-.1 1 0v.1h-.2c-.2 0-.5 0-.7.2h.7-.9c-.3 0-.4 0-.5-.2zm39.2-.2c0 .2 0 .2-.3.2v-.2h-.1l-.3.2h-.5v-.2h.3l-.2-.2s.2-.2.3 0h.4c0 .2.3.1.4.2zm-28.2.3v-.1c-.1 0-.4-.2-.5 0 0-.4.4-.4.6-.6.1 0 .2.3.5.1-.3.3-.3.6-.6.6zm-4-1h.4c0 .1.2.1.1.2l.2.2.4.1h.5l-.7.2h-.1c-.3 0-.4-.1-.5-.4l-.1-.2-.4.1c.2 0 .2 0 .3-.2zm37.6 55.3.4-.1h.6l-.1-.2h.3l.3.1c0 .1 0 .2-.2.2-.5.2-.8 0-1.3 0zm-84-45.1.1-.2c.2 0 .2-.1.3-.2.1-.2.5-.2.7 0-.1.4-.6.4-1 .4zm103.6 44c-.7 0-1.5.2-2.2.1l2.1-.2zm-69.5-52.5c-.3 0-.6-.2-.8 0h-.8l.4-.2v-.2h.6c.3.1.4.2.6 0zm31.9-1-.6.1c-.1.1-.3 0-.2-.3 0 .2.2.2.4 0l.3.2s0-.1 0 0c.2 0 .3 0 .3.2.1-.1.1-.1.4 0h-.3c0 .2.3 0 .3.3-.3 0-.4-.2-.6-.4zm-48 3.4.9-.2v.4h-.5c-.1 0-.3 0-.5-.2zm51.4 51.3c0 .2 0 .2-.2.2h-.7c-.2 0-.2 0-.2-.2h.5c-.2 0-.2 0-.3-.2h.5l.1.3zm14 0h-1.4c.1-.1.1-.2.4-.1h.8c.1 0 .2 0 .1.1zm-7-54v-.2c.4 0 .4 0 .5-.2l.3.1v.2l-.2.1zm-42.2 0c.4-.2.8 0 1.1 0-.1 0-.4.2-.6 0zm62.1 53.3c0-.3.4-.1.5-.1v-.2h.3l.3.2h-1.1zm-44-54.2h-.4s-.2-.2 0-.4c0-.1.3.2.4 0h.1zm47 53.9v-.2c.3 0 .5-.2.8 0-.3.2-.5.2-.8.2zm-69.1-2.5c.1.1 0 .2.2.2l-.8-.1.1-.2c.4.3.4.3.5.1zm41.3 2.8c.3.1.6.3.5.4l-.2.1-.4-.2zm-24.7-53.6s0-.1 0 0l.7-.1.1.1h-.5v.3c-.3-.1-.3-.2-.3-.3zm-38 6c0-.2.2-.1.3-.1-.1.2.1.4-.1.5h-.3c.3 0 .4-.1.3-.3l-.3-.1zm50.2-7c-.1.3-.3.3-.4.3s-.2-.2 0-.3zm32-3.7h.3c0 .2.1.2.3.2h.2c-.1.2-.2.2-.4 0zm.7 58.7s0 .1 0 0c-.1 0-.4 0-.4-.2l-.3-.1h.5zm-13.7-54 .5.1v.2l-.2-.1c-.2 0-.2 0-.3-.2zm-7.4 0c.3-.3.3-.3.5-.2-.1 0-.1.4-.5.2zm8.5-.2c-.1 0-.4 0-.3-.2l.2-.2h.2zm-40.5-.5c0 .1 0 .1 0 0-.7.1-.8 0-.8 0h.7zm13.9 54.4s-.1 0 0 0c-.1-.1-.3-.3-.2-.4v-.2h.2zm8 0c.3-.2.6-.2 1 0l-.8.1h-.1zm-51.3-49 .2-.1h.2c0 .2.1.3.3.4h-.2l-.2-.2c-.1-.2-.1 0-.3 0zm-8.8 37.5v-.2c.2 0 .5.1.6.3zm12.6-38.2-.5.2h-.1l.1-.2zm22.5 47.6.4.1c0 .1 0 .2-.2.2 0 0-.2-.1-.2-.3zm42.3-51.5c-.2.2-.2.3-.4.3l.1-.3zm-67.3 4.3.4.1-.4.2zm64.4-4.4c0 .2-.1.3-.3.2h-.2l.2-.2zm-63.2 4.1h.5v.1s-.2.1-.2 0h-.3zm15.6-2.7.4-.2v.3c-.2.2-.3 0-.4-.1zm-13.5 1.7s.3-.1.4 0c-.2.3-.3.3-.4 0zm-18.4 6.2-.4.1h-.2l.6-.3zm119-7.4h-.6c0-.2 0-.2.2-.3 0 .1.3 0 .4.3zm-90.9 1h-.5c.4.2.3 0 .4-.2l.2.1zm-11.5 44.9c-.2 0-.2 0 0 0l-.4-.1v-.1h.1c.1 0 .1.2.3.2zm3.6.3c0-.2 0-.3.2-.4 0 .1 0 .2.2.3h-.2zm25 2.4-.5-.1.6.1zm53.6 3h-.6l-.1-.2c.4 0 .4 0 .7.2zm-49-.7h-.7l.4-.1h.2zm-41.8-45.2.2-.4v.3zm109-8.6h-.8zm-42 55.1.3.2c-.2.1-.4.2-.5.1zm-60.1-48.5c.1 0 .4.2.2.3h-.3zm115.7 43.7c.2 0 .2 0 0 .3l-.2-.1zm-92.6-48.3h-.2c-.2 0 0 .3-.2.3 0-.3 0-.4.4-.3zm33.2-1.1s0-.1 0 0l.2-.2h.1v.1h-.3zm27.4 53.7-.2.2v-.2zm-62-52.5c-.3 0-.3.3-.5 0zm86.6 2.4.5.1-.1.2zm-98.2-.8c.2 0 .2.2.2.2l-.4-.1zm51.3-2.9c.2 0 .4 0 .5.2h-.5zm-77.2 10.3c-.1.3-.4.3-.5.2.1 0 .3 0 .5-.2zm37.4-9.5c-.2.2-.3.2-.4.1zm27.7 53.3c.3 0 .4-.3.6 0zm-51.1-47.3c-.1 0-.3 0-.4-.2h.4zm22.3-5.7s.2 0 .3.2h-.3zm-34 42.2c.2 0 .3.2.3.4-.2-.1-.3-.1-.3-.4zm51.4-43.5c.1.2.3.2.4.3h-.4zm37.7.3.3.2-.3.1zm-35.3 0-.4.1.4-.2zm66.9 3.2c0-.1 0-.1 0 0h.3zm-49.5-3.5c-.1 0-.1 0 0 0l-.2.1v-.1l.2.2zm-2.7.1h.6c-.3 0-.5.2-.6 0zm-50.7 49.3s-.2 0-.3-.2h.2c.2 0 .2 0 .1.2zm53.9-51.8c0 .1-.1.2-.3.2 0-.2.2-.2.3-.2zm21 3.8c0 .1 0 .1 0 0-.2 0-.3 0-.2-.2zm-74 3.2c.1-.2.2-.1.4-.1-.2.2-.3 0-.4 0zm67.5-4c.1-.2.2-.3.4-.2l-.3.2zm-67.7 3.9v.3l-.3-.2zm60 50.2h.5zm-22.2-1.2c-.2 0-.2 0 0-.3zm-51.1-45.5c.1-.1.1-.1.4 0zm27.5-7.4.1.2h-.4c.2 0 .3-.1.3-.2zm45.3-1.2-.3-.1zm-65.6 5.5c-.2.2-.2.2-.4 0zm75.8-4.6s-.2 0 0 0c-.2 0-.2-.2 0-.2zm-73.8 5.5c0 .3 0 .3-.3.2zm-9.7 3.3.1.2h-.2v-.2zm134 1h-.4.3zm-124.5-4.5v.3c-.2-.2-.2-.2 0-.3zm61.7 48.8.3-.1zm-23.5-54.6c.1 0 .2 0 .2.2 0 0-.2 0-.2-.2zm-5.3 53.2.4.1h-.4c.1 0 .2 0 0 0zm-12.8-52-.3-.1h.3zm-7.1 1c.2 0 .2 0 0 0 .2 0 .2.1.3.2l-.3.1c.2 0 0-.2 0-.3zm36.2 52.2c-.1.2-.1.2-.4 0zm-18.8-54c.1 0 .1 0 0 0l-.4.1c.2-.3.4-.2.4-.2zm20.1-.2h-.5c.1-.1.1-.1.4 0zm37.5-3c.2 0 .3 0 .4.2zm-49.9 2h.4l-.3.2v-.2zm42.3 2.7c.2 0 .2 0 0 0 .1.1.1.2-.1.3zm-38.3-1.7c0-.1 0-.2.2-.2zm-45.6 6.8.4-.1c-.1.3-.2 0-.4 0zm34.7-7.1h-.3v-.2zm11.8-.6-.2.2c0-.1 0-.2.2-.2zm-56.5 42.3.3.1h-.3zm88-40.7v-.3zm-92.2 10.5h-.3c0-.2.2-.1.3 0zm92.3 43.4v-.2l.4.1zm-60.8-52.3-.3.1v-.3c.2.1.1.2.3.2zm1.1 48.7c.2 0 .4 0 .2.1h-.1zm1.9-48.6-.4-.1h.4zm-26 4.8h.4zm22.5-5.3-.1.3-.2-.2h.3zm5.7-1.3v-.1l.2.1zm-14.7 47.8c-.1 0-.1.2-.3.2 0-.2.2-.3.3-.2zm57.7-47.8v-.1zm1-.1h.2zm15 53.6c0 .2 0 .2-.3.1h.3zm-67.5-51.7h.3zm69.1-1v.3zm-15.9 53.5v-.2zm43.5-51.1h.3zm.5 47.7h-.3zm-109-47c-.2 0 0-.2 0-.2h.2zm136.1 21.8v-.3c.3 0 0 .2 0 .3zm-53-30h-.3c.1-.2.2-.2.4 0zm-56.8 4.9c.1-.3.1-.3.4-.2l-.4.1zm-3.7.5c-.1.1-.1.1 0 0-.1.1-.2 0-.4 0zm-16.7 2h.4zm52.8 50.4v.2c-.2-.2 0-.2 0-.2zm-20.3-53.8s0 .1 0 0c-.1.1-.1.1-.2 0zm-28.1 2.8h-.3zm-13.1 43.7h.3zm67-46.6h-.2c.2 0 .2-.2.3-.2v.2zm-64.7 4.4.2-.2v.1h-.2zm100.8-4-.3.1s.1-.2.4 0zm-26.4 54h.2zm-75.3-49.6h.3c-.2.2-.2.1-.3 0zm55.3-5.1s.1-.1 0 0h.3zm6.4 54.8h.2zm59-5.6c.2-.2.2-.2.3-.1h-.2zm-49.5-48.5c0 .2 0 .1-.2.1h.2zm5.3-5.4h.3v.1h-.3zm-50.5 5.3v-.2zm3.2.2s0 .1 0 0h-.3.2zm-.5.3c-.1 0-.1 0 0 0l-.2-.1h.2zm-34 5.7c-.1 0-.3 0-.2-.1h.2zm76.5-5.9h.2v.2zm-42.8 49.4.3-.1c-.2 0-.2.2-.3 0zm-33-41.8c-.2-.1 0-.1 0-.2zm14.2 41v.2s-.2 0 0-.2zm51.5 5.4.2-.2c0 .2 0 .3-.2.2zm-3.5-.6-.2.1c-.1-.2 0-.2.2-.1zm-23.5-54.5.1-.2v.2zm101 16.8s0 .1-.1 0h.2zm-97.4 36.8h-.2l-.1-.1h.1c.3 0 .3 0 .2.1zm-11.2-53.3-.3.2c.1-.2.3-.2.3-.2zm38.2 54.3c0-.1 0-.1 0 0 .1-.1.2 0 .2 0zm1.6-54.4h-.2zm-32.4.6c.2 0 .2 0 .2.2zm50.8 53.5-.2-.1zm-92-11.7h-.2zm92.5 11.8c0 .1 0 .1 0 0-.1.1-.1.2-.3 0zm-95.7-13v-.1.2zm82.8-41.3h.2zm56.6 46.4v.2h-.1zm-146.6-10.4c-.2 0-.2 0 0 0h-.3v-.1h.3zm155 4.7.2-.1-.1.1zm-160.2-13.5h.3zm1.1-3.7v-.3.2zm131.5 28.2.3.1zm-116.8-42.4-.1.2zm74-8.7-.2-.1h.2zm-16.1-.7c0-.1 0-.1 0 0l.2-.1h-.2zm-49.4 6.3h.1zm38.6-6.5v.2h-.2zm-36 6-.2-.1h.1v.2zm50 48.7c-.2-.1-.2-.1 0 0v-.2zm12.8.3-.2.1h.2zm-53.3-50.5v-.2h.2c0 .1 0 .2-.2.2zm52.4 50.4s-.2 0 0 0c-.2 0-.3 0-.2-.2zm-49.8-51.9c-.1 0-.1.1 0 0-.1.1-.1 0-.2 0zm1.3-.1c.1 0 .1 0 0 0h-.3zm9.7-1.2h.2zm-3.8.8c0-.1 0-.1 0 0l.1-.1h-.1zm-3.7 49.4c.1 0 .3 0 .2.1zm63.9 3-.1-.2h.2l-.1.1zm-4.3 0h.2s0 .1-.2 0zm-1.3.2v-.2c.2 0 .1 0 0 .2zm37.6-48.1c0-.1 0-.1 0 0zm-90.2-6.3c0-.1 0 0 0 0zm44.4 54h.1v.1zm-48.2-51.6h.2zm-4.4.6s.2 0 0 0v.2zm1.3.4c0-.1.2-.1 0 0l.2-.1h-.2c.2 0 .2 0 0 0zm17.7-3h.1zm30 53.6.1.2c-.2 0-.2 0-.1-.2zm-52.5-4h.2zm-6.6-46.2h.1v.1zm88.6 49.3-.1.1zm-40.7.8h.2zm-12.9-.4c0-.1 0-.1 0 0v-.1zm12.4.6c-.1-.1 0 0 0-.2h.1v.2zm-49.7-48.8h.2v.1zm-6.1-.2v.1c-.1 0-.1 0 0 0zm51.4 48.7s0 .1 0 0c-.1.1-.2 0-.2 0zm50.5-1.1c.1-.1.2 0 .2 0zm-30.2-52.1h.2zm-67.8 5.4v.1h-.2zm79.7-5c0-.2 0-.2.1 0zm-82 5.3c-.1 0 0 0 0 0 0-.2.1-.1 0 0zm41.7-7.5c.1 0 .1 0 0 0l.1.1h-.1zm-50.4 11h-.2zm52.8-11h-.3zm27.1 1.1h.1zm1.4-5.1h-.1zm-73 52.3v.1h-.2.2zm75.9-47v-.1h.1-.1zm39.6 50-.2.1h.2z" fill="#a8cef1"/></svg>