<svg fill="none" height="81" width="208" xmlns="http://www.w3.org/2000/svg"><path d="m164.172 4.37c-.001.24-.294.119-.44.238-.147-.24-.293-.24-.44 0-.146 0-.146-.12-.293-.12l-.001.479c-.293 0-.439-.001-.585-.241.146 0 .293.12.439.12.001-.36.001-.36-.439-.48-.146.12-.147.36-.44.36l-.731-.602c-.147.36-.147.36-.587.119-.146.12-.147.24-.293.36-.147-.12-.147.119-.293.119 0-.12-.147-.24-.146-.36v-.12h.439c.293.12.294-.119.294-.239-.293-.12-.439-.24-.732-.121-.147.12-.294 0-.44-.12 0 0-.146-.121-.293-.121 0 .12-.147.24-.147.24l-.292-.241c-.147.12-.001.48-.441.479.001-.12.148-.36.148-.48s-.146-.36-.292-.48l-.001.24c-.293 0-.439 0-.733.119l-.146-.12c0 .12-.147.12-.147.24-.439-.002-.879-.002-1.465-.123 0 0 0-.12-.146-.12-.293.119-.001.48-.294.598-.293-.12-.293-.36-.439-.6 0 .12-.146.12-.146.12-.293-.12-.293-.12-.293-.36-.146.12-.147.239-.001.48-.439-.242-.732-.122-1.171-.123-.147 0-.294.12-.44.24-.147-.121-.147-.24-.293-.241 0-.12.147-.24.293-.12h.147c.146 0 .146-.119.146-.119l-.146-.12c-.146 0-.44.119-.586.239-.147.12-.294.239-.44.119l-.44-.001-.146-.12c.147-.12.293-.12.44-.24-.146 0-.293-.12-.439-.12h-.44c0-.12.001-.24.147-.36.146.24.439.24.293.36.146 0 .293 0 .439.12 0 0 0 .12.146.12.147-.239.001-.359-.145-.48-.147-.12-.439-.24-.586-.36 0 0-.146.12-.293.12 0-.12-.146-.12-.146-.24l-.294.239c0 .12.293.24 0 .48-.147.12-.147 0-.293-.121 0 0 .146 0 .293-.12-.293-.24-.293-.24-.292-.6-.293 0-.439-.12-.732-.12.146.24.586.12.585.36h-.146c-.293 0-.44-.12-.733-.121-.146 0-.293-.12-.292-.24-.147-.001-.293-.001-.586-.122.146.12.146.24.292.36h-.293c-.146 0-.293-.12-.439 0l-.147-.001h-.293c-.293-.001-.439-.001-.585-.361 0 0 0-.12-.147-.12-.147.239-.293.359-.44.358-.146 0-.293.12-.44.24l-1.025-.002c-.147 0-.44-.121-.586-.121-.147 0-.293 0-.293-.12l-.44-.002s-.146 0-.146.12v-.12c0-.12.293-.12.147-.24 0-.12-.146-.12-.293 0h-.44l-.146-.121c.147 0 .293 0 .44-.12-.293-.12-.733-.12-1.172-.241v.24s-.147 0-.294.12l.001-.36c-.147.12-.147.239-.293.239-.146-.24-.44-.12-.586-.121 0-.12 0-.12.147-.24-.147.12-.294.24-.44.24l-.586-.002c-.001.12.292.24-.001.36 0-.24-.439-.12-.439-.24-.146-.24-.293-.001-.586-.122-.146-.12-.439-.12-.586-.12 0 .24.146.24.293.36.146 0 .293 0 .439.12-.147.12-.147.24-.294.36-.146 0-.293-.12-.293-.12-.146-.001-.146.119-.293.119-.439-.121-.732-.241-1.025-.362-.146 0-.293 0-.293-.12-.146-.12-.439-.001-.585-.241-.147.12-.293 0-.44-.001-.293 0-.732-.001-1.025-.122h-.586c-.147-.001-.293-.121-.293-.121l-.439-.001c-.146-.36-.439-.36-.732-.481 0 .12-.147.12-.147.24l-.293-.001c-.293-.12-.586-.001-.733-.121l-1.025-.003c-.147 0-.293-.12-.293-.12-.146 0-.146-.12-.293-.241 0 .12-.146.12-.146.12h-.147c-.146-.24-.439-.241-.732-.122h-.293v.12c-.293 0-.586-.121-.733.118 0 0-.147 0-.146-.12h-.147l-.001.36c-.146 0-.292-.12-.585-.121-.147.24-.294.239-.587.238-.146 0-.293-.12-.439 0h-.293l-.441.358s.147-.12.147-.24c-.293 0-.439 0-.439-.24h.44c-.147-.12-.146-.24-.293-.36-.146 0-.146 0-.293.12-.146-.24-.439-.24-.732-.121-.147 0-.147 0-.293-.12l-.294.238a3.45 3.45 0 0 1 -1.025-.121c.146.12.146.24.292.36 0 .12.147.12.147.24-.147 0-.44-.12-.147-.24h-.293c.001-.12.001-.12-.146-.24-.146 0-.146.119-.146.119-.001.12-.001.36-.148.48v.24c-.147-.001-.293-.001-.586-.122.293-.12.44-.359.441-.718-.147.12-.147.12-.293.119v-.24c-.147 0-.293-.12-.439-.12-.001.12.146.36.146.36-.147 0-.293-.001-.44.119-.44.119-.879-.002-1.172-.362 0 .12 0 .24.146.36l-.732-.002c-.147-.12-.293-.36-.293-.48-.293 0-.44.24-.732.119-.147.24.146.24.292.24-.147.48-.439 0-.586.239l-.001.24s-.146 0-.146-.12 0-.24-.293-.24v.24c-.146-.121-.293-.121-.439-.241l-.001.36c-.146-.001-.293-.001-.293.119 0-.12 0-.12-.146-.12h-.147c-.293.119-.44.118-.732-.002v-.12c-.147 0-.44.12-.586-.121.293-.12.293-.12.586.121l.732.001c-.146-.24-.145-.36-.292-.48-.293 0-.147.24-.293.24-.147 0-.293-.121-.586-.122-.147 0-.147.24-.44.24-.293-.001-.586-.002-.732-.242-.294.24-.001.24.146.36-.147.12-.293.12-.293 0-.146-.24-.439-.36-.585-.6-.147.119-.294.239-.587.118-.146 0-.293 0-.439.12-.001.12-.294.119-.294.119-.292-.24-.732-.242-1.171-.482l1.172.002c.147 0 .294-.12.44-.24-.732.12-1.318-.121-1.905.117-.146-.12-.292-.12-.439-.24v.36c.293 0 .293 0 .292.12-.146-.12-.146-.12-.292-.12-.147 0-.147.12-.294.119l.001-.36-.147.12c-.147.24-.147.36-.44.239l-.879-.002s-.146 0-.146-.12c.146 0 .293-.12.586-.119v-.12c-.146 0-.292-.12-.439 0-.293-.001-.44-.001-.733.118.146.12.293.12.439.24 0 .12-.147.24-.147.36-.146-.12-.293-.24-.439-.24-.147.12-.44.119-.733.118h-.586c-.293-.001-.293-.001-.292-.241v-.24c0 .12.146.12.146.12l.586.001c.001-.12.44.001.294-.24h-.586c-.44-.12-.733-.001-1.173.118-.292-.12-.439-.24-.732-.122.146.12.293.12.586.241l.146.12c.147-.12.293.001.293.121s-.147.12-.293.12c-.293-.001-.44-.121-.733-.122 0 0-.146 0-.147.12-.146.12-.439.119-.439 0-.146-.121-.293-.121-.44-.002-.146.12-.439 0-.586.24 0 0-.147-.001-.146-.121-.147-.12-.293-.12-.44-.12l.147.12c-.293-.001-.586-.002-.879-.122h-.293c-.294.119-.587.238-1.026.237.146-.12.147-.24.293-.359.293 0 .587-.119.88-.118 0-.12 0-.24-.147-.12-.146 0-.293.239-.586-.001 0 0-.146 0-.146.12-.147-.001-.147.119-.294.119-.293-.12-.44-.001-.732-.002-.147 0-.293-.12-.44 0l-1.172-.002c-.146 0-.147.12-.293.24l-.147-.12c-.44-.001-.879.118-1.465.117v.12c.146.12.292.24.585.36-.44.12-1.026.239-1.465.118v.36c-.147-.12-.293-.24-.586-.241l-.587-.001c-.146 0-.292-.12-.439-.12-.293-.001-.732-.122-1.025-.123h-.147c.147-.12.147-.12.44 0 .146.001.44-.118.586-.118 0-.12-.146-.12-.293-.12-.586-.002-1.025-.002-1.612.117l-.586-.001s0 .12-.146.12l-.147-.001a886759709165379.6 886759709165379.6 0 0 1 -1.904-.123c-.147.12-.44.359-.88.118l-.586-.001-.586-.001c-.146.12 0 .12.146.24.294-.12.587-.239 1.026.002 0 .12-.147.24-.147.48-.293-.121-.587-.002-.88-.002-.292-.12-.439-.24-.438-.48-.147-.001-.147.119-.293.119-.147 0-.147 0-.293-.12l.585.48c-.147.12-.293.12-.44 0-.146-.121-.439-.122-.585-.122-.294 0-.44 0-.733.119-.147.12-.293 0-.44-.001-.146 0-.293 0-.293.24-.147-.12-.146-.24-.146-.24.44-.24.879-.12 1.319-.358-.146-.12-.44-.12-.586-.121-.293.12-.733.118-1.026-.002h-.293l.44.36c0 .12-.147.12-.147.24-.147-.12-.293-.12-.44-.241l.294-.24h-.293c-.44 0-.88.119-1.32.118l-.585-.001c-.586-.001-1.026.118-1.612-.003h-.293c-.146.119-.293-.001-.44-.001-.293.239-.732.238-1.026.357l-.146.12c0-.12-.147-.12-.293-.12-.147.12-.293 0-.44-.001l-1.025-.002c-.147 0-.294.12-.44 0-.146-.001-.293-.001-.44.118.147.12.44-.119.293.24.147-.119.293-.119.44-.238.147 0 .293.12.44.12-.294.24-.587.36-.88.239l-.733-.002c-.146 0-.146.12-.293.12s-.146-.12-.293-.12c-.146 0-.293.119-.44.119 0 0 0-.24-.292-.12-.147.119 0 .239.145.36l-.585-.002c-.147 0-.147-.12-.147-.24-.146 0-.293 0-.585-.121.293-.24.733-.239 1.318-.118.147-.12.147-.12-.146-.24l-.879-.001c-.586.119-1.172.118-1.758.236h-.147c-.293 0-.44-.12-.732-.001-.147 0-.293 0-.44.119-.733.119-1.466.237-2.198.236-.293 0-.587.119-.88.238-.293 0-.586-.12-1.025-.002-.294.12-.587.12-.88.119h-.146c-.147.12-.147.24-.294.359h-.146c0-.12.146-.12.293-.36-.293 0-.44.12-.586.12-.147-.001-.44-.002-.586.118 0 0-.147.12-.293 0-.293-.12-.586-.002-1.026-.002-.44-.001-.733.118-1.172.118-.44-.001-.733.118-1.173.117-.732.119-1.465.238-2.198.236-.293 0-.586.12-.879.119-.146 0-.44.239-.587.358-.146 0-.146-.12-.293-.12-.146 0-.293.36-.586.119-.147.12 0 .36-.293.36 0-.12 0-.12.147-.24-.44-.001-.587-.002-.733.238-.147 0-.147-.12-.293 0-.147.12-.294-.001-.44-.001-.293.12-.586-.001-.88-.002 0 0-.146 0-.145-.12.146 0 .146-.12.146-.12-.146-.12-.293-.12-.585-.24-.147.239-.294.119-.587.118 0 .24.147.24.293.24l.293.001c.147 0 .146.12.293.12-.294.24-.587.36-.88.239 0 .12-.146.12-.147.24-.146-.24-.292-.24-.439-.121-.146 0-.293 0-.44.119h-.146c-.293.12-.587.239-1.026.238-.147 0-.294.12-.44.119h-.44c-.146-.001-.293.119-.586.118 0 .12.293.12.293.12v.12c-.147 0-.44 0-.44.12-.147.12-.293.119-.44.119h-.293c-.292-.121-.586-.002-.879-.002 0 0-.146.12-.293.119-.147 0-.293-.12-.586-.121h-.146c-.147 0-.294.12-.44.239-.294.24-.587.239-1.026.118-.147.12-.147.24-.294.36l-.146-.121c-.44.24-.733.239-1.026-.122-.146-.12-.292-.12-.44 0 .294.12.587.12.88.48h-.147c-.147 0-.147-.12-.293-.12-.147 0-.147.12-.293.12h-.147c-.293-.121-.586-.002-.879-.002-.147 0-.293.119-.293.119-.146-.12-.146-.24-.293-.36-.146 0-.146 0-.293.12l.146.12s.147 0 .147.12v.12l-1.173-.003c-.147.24.146.36.146.6-.147 0-.293.12-.293.12-.44-.121-.733.118-1.026.238-.294.12-.587.238-.88.118 0 0-.146 0-.293.12l-.147.12.001-.36c-.146 0-.147.119-.293.119-.147.12-.294.12-.44-.001-.293-.12-.293 0-.293.24h.293c-.294.12-.733.238-1.027.478-.439-.241-.733.118-1.172.237-.147-.12-.293-.12-.586-.12-.147 0-.293-.24-.44-.121-.292-.12-.439-.001-.586.119-.146.12-.293.12-.586.238.293.001.44.001.732.122-.146.12-.293.12-.44.239l-.44-.001c-.146.12-.146 0-.292 0-.147.12-.147.24-.147.24-.147-.121-.146-.241-.293-.361-.146.12-.293.12-.44.119 0 .12 0 .36-.147.48-.293.119-.586.238-.88.238-.292.119-.292-.12-.438-.36-.147.239-.587.118-.734.478-.293-.001-.44-.001-.586.118h-.293c-.147.24-.294.36-.587.359-.146 0-.293.119-.293.239-.147 0-.293-.12-.293.12l-.293-.001c-.147 0-.44-.001-.44.239 0 .12-.147.12-.294.12-.44-.002-.879.118-1.319.357 0 0-.147.12-.293.12-.293.118-.586.118-.88.357h-.146c-.293.12-.44.12-.733.359-.147.12-.294.239-.44.239-.294 0-.44.119-.733.238-.147 0-.294 0-.44.12 0 .24-.44.358-.733.358-.147.12-.293 0-.44-.12.147 0 .293.12.44.12 0-.12-.147-.12-.146-.24.146 0 .146-.12.293-.12-.44 0-.88.119-1.027.478l.147.12c.146 0 .293-.12.44-.119.146 0 .145.24.292.36-.44.24-.88.119-1.173.238-.146.12-.146.12-.293 0h.293c-.146-.12-.146-.12-.585-.36l-.001.48c0-.12-.146-.241-.146-.241-.147.12-.44.12-.587.239-.146.12-.293.24-.44.479 0 0 0 .12.146.24-.147.24-.44.359-.733.478-.147 0-.294.12-.44.24-.147.12-.294.119-.44-.001v.36l-.147.12c-.293-.002-.587.238-.88.117.147.12.146.24.146.36-.146 0-.293.12-.44.12-.292 0-.44.119-.586.238-.147.12-.44.24-.586.24-.147.119-.294.358-.44.478.146 0 .146.12.292.12 0 .12-.147.36-.294.36-.293 0-.44 0-.586.239l-.147.12c-.293-.121-.586.238-.733.238l-.44.719c-.147 0-.293-.12-.44.119-.147.12-.44.119-.44.359 0 .12-.294.24-.44.359l-.441.359c-.293.24-.44.479-.734.718l-.88.718s-.147.12-.147.24c0 .24-.147.36-.44.479-.147 0-.294.119-.294.239-.147.24-.294.36-.44.479-.147.24-.148.48-.441.599v.36s-.147.12-.148.24c-.146.119-.146.239-.293.358-.147.12-.294.24-.294.48-.147.24-.294.479-.587.598.146.24.145.48-.148.6 0 0 0 .12-.147.24v.12c-.294.358-.441.838-.588 1.317-.294.48-.442 1.079-.59 1.558-.146.36-.147.6-.147.96-.148.359-.295.599-.149.959-.293.239-.147.599-.148.959 0 .12-.147.24-.147.36s-.147.119-.147.239.146.12.146.12c0 .24-.293.36 0 .6-.147.12.145.36-.148.48.146.36-.148.718-.002 1.079v.24c-.147.239-.148.359-.002.6.147.12.147.24 0 .359-.147.12.146.36-.001.48.293.24.145.72.291.96v.6c.292.24.291.6.29.84 0 .12 0 .12.147.24.146.12.146.24 0 .36-.148.119-.001.239-.001.359.146.12.145.36.292.48.146.24.145.48.291.72.147.24.439.6.438.96v.12c.293 0 .292.36.292.48.146.36.145.72.438 1.08.146.24.146.48.438.721.146.12 0 .24 0 .48.292 0 .439.12.438.36.146.24.293.36.439.6s.292.361.438.601c0 0 0 .12.146.24.147.12.293.12.44.24 0 .12-.148.24-.001.24.146.24-.001.48.438.601.147 0 .147.12.147.12.146.24.292.6.731.601.146.24.439.48.732.601.146.24.439.36.878.362l-.293.239c.292.12.146.36.438.48 0 .24.44.241.439.481 0 .24.44.24.439.48-.147 0-.147 0-.294.12.147.24.44.12.44.12.292.36.585.601.877.842.44 0 .44.36.439.6.146 0 .293 0 .44.12.146.001.146.001.146.121.145.36.585.6.73.96l.293.001c-.147.24.44.24.146.48.146 0 .293.24.44.121h.146c.146.12.292.36.585.481l.439.36c.146.12.44.241.439.481h-.293l1.317.721.44.001c-.148.24-.001.36.292.48.146 0 .292.12.292.24.147.121.293.241.44.242 0 0 .146 0 .146.12l.438.72c.44-.12.586.24.879.241l.146.12c.146.24.439.481.878.362.146.36.585.72 1.025.602.292.24.439.24.732.12l.293.001c.293.24.585.481.878.601-.146.12-.44 0-.44.24l.293.24c0-.12 0-.12.147-.24.146-.12.293-.24.44-.119.292.12.292.24.292.48 0 .12.146.36.292.48.293.241.439.481.878.602.146 0 .293.24.585.36.293.121.44.121.586.002.147-.12.294-.12.293.12 0 .12-.147.24-.147.36.44.24.878.481 1.17.841l.733.002c0 .24.293.36.585.48.293.12.586.121.733-.238.293.12.586.24.732.48l.293.001c.293 0 .44.241.586.361-.293-.12-.44-.12-.733-.241.147.12.146.24.293.48.146.24.292.12.585.121-.147.24 0 .36.146.48.293.12.44-.119.587-.239.146.12.439.121.439.36-.147 0-.147-.12-.293-.12-.147 0-.294.12-.44.12.293.12.439.36.732.24 0 .24.292.361.439.361.293.12.44.001.733-.118.293-.12.293-.12.44.12-.001.12.145.12.292.24 0 .12.146.36.145.48.44.121.733.122 1.025.362.294-.119.732.242 1.173-.117l.292.24c.146.12.44.36.732.241 0 0 .147.12.293.12.146.12.293.24.44.241.439.001.585.241.878.362v.12c.44-.12.585.24.878.24 0 .12-.147.24-.147.36.44.121.732.242 1.172.002 0 .12.44.121.292.48.147.121.293.121.44.001s.44.001.586.121.292.24.585.121c.147 0 .293.12.293.24 0 .24 0 .48.292.601 0-.24-.146-.36-.146-.48.147-.12.44-.12.586.001.44.24 1.025.362 1.465.602.146 0 .292.12.292.24s.293.121.293.121c.293-.24.586.001.879.122l.878.361.147-.12c.293.12.586.121 1.025.242-.44.12-.732-.001-1.026-.002 0 .24.146.36.293.36l.879.002c0 .12 0 .12.146.24.147-.12.293.12.44-.119.147-.12.293 0 .292.24.147 0 .294-.119.294-.119.293.12-.147.24.145.36 0-.12.147-.12.148-.36.293.121.439.121.585.242-.146 0-.293-.001-.439-.121.146.24.44.24.586.24l.44.001c.146 0 .292.001.438.121.294 0 .44 0 .586.121.293.12.586.241.879.242.293 0 .586.24.732.36l.146.12c.44.002.88.122 1.172.243.293.12.586.24.879.121 0 0 .146 0 .146.12.293.24.586.241.879.242.293 0 .44 0 .585.24 0 .12.293.001.44.121.146 0 .439.121.586.122.293 0 .585.12.878.121.293 0 .293 0 .44.12.146 0 .439.121.586.122h.586c.292.121.585.242.878.242s.586.121.732.361c.147 0 .147 0 .293-.12.147-.119.294-.119.293.001.293.24.586.121.733.122h.293c.293.12.586.241.879.122.146-.12.44 0 .439.12.146.12.293.24.44.24.292.001.731.122 1.024.243.293.12.733.12 1.026.121.292.24.585.361 1.025.242v.24c.146 0 .146 0 .292.12.147.12.293.12.44.001 0-.12.146-.12.293 0 .146.12.44.121.585.242.294-.24.587-.24.88-.119.44.12.878.242 1.318.242.293.001.44.001.732.122.147.12.293.12.586.12.147 0 .44.001.586.122.293.24.586.12.732.12.44-.118 1.026.003 1.465.004.44 0 .733.12 1.172.122.147 0 .44-.12.733-.12v.12l.586.002h.147c.293-.12.44-.12.732.001.293.12.586.001.879.122h.293c.147 0 .147-.12.293 0 .147.001.293.121.586.002 0 0 .146.12.293.12.147-.24.44-.119.586.002.293.12.44.12.732.12.147.001.294-.119.587-.118.146.24.439.12.585.12.293.001.733-.118 1.026.003h.147l1.025.002c.44 0 .733.001 1.026-.118h.44c.292 0 .586.001.732-.118.293-.12.733-.119 1.026-.118.44 0 .879.121 1.319-.118h.293c.293-.119.732.002 1.026-.237.293.12.586-.12.88-.119l.585.001c0-.36.44-.359.734-.478.146 0 .293 0 .293-.24.147-.24.44-.239.587-.358.293-.24.586-.239.88-.238.146 0 .44-.12.586-.24.293-.119.44-.238.733-.358.293 0 .293-.12.294-.36l.586.002s0-.12.147-.24c.44-.359 1.026-.597 1.467-.956l.586-.48.587-.478c.147-.36.587-.478.588-.838 0-.12 0-.24.147-.24.293-.12.147-.36.147-.48s-.146-.12-.292-.36c.147-.12.147-.24.293-.239 0-.12.147-.36.148-.48l.44-.358s-.147 0-.146-.12c.146-.24.293 0 .439.12.147-.24.294-.36.441-.719-.147 0-.294.12-.44.12 0-.12 0-.24-.146-.36-.146 0-.293.119-.44.119l-.439-.001c-.147-.12-.439-.24-.586-.121 0-.24.147-.24.293-.24.293.001.44-.119.733-.118.147 0 .44 0 .439.12.293.001.44-.118.733-.118v.12s-.146 0-.147.12v.12c.293 0 .44 0 .733-.12.146.241.44-.118.586.002-.147.12-.147.36-.587.359 0 0-.147.12-.293.12l.293.24c-.147.12-.294.119-.586-.002h-.293c-.147.12-.001.12-.001.24s.146.24.439.24c.439.241 1.026.002 1.465.123h.147c.586-.119 1.025.002 1.611-.117l.733.001c.44.001 1.026.002 1.465-.117-.146-.24.148-.36.294-.599l.733.001c.147 0 .293-.12.294-.239-.147 0-.293-.12-.586-.121.293-.24.293-.24.879.002.147-.24.44-.24.733-.239 0 .12 0 .12.146.24h.439v.12s0 .12-.147.12c-.439-.12-.439-.12-.586 0h.293v.36c.293-.12.586-.12.733-.239.146-.12.293 0 .439.001.147 0 .44 0 .586.121l.146.12c.147 0 .44-.119.587-.119.146 0 .293.12.439.121.147 0 .293-.12.587-.239l-.001.36c.293-.12.44-.12.733-.239 0 0 .147-.12.146 0 .293.121.44-.118.587-.238v-.12c.147 0 .147 0 .293.12 0 .12-.001.36.439.361 0-.12-.146-.24-.146-.36.293 0 .293 0 .293.24.293 0 .585.121 1.025.122.293 0 .44-.12.733-.119l.293.001c0-.12 0-.12-.146-.24h.293c-.147.12-.147.12-.147.24.293.12.732.121 1.172.002.146 0 .439 0 .586-.119.147 0 .293-.12.44-.119.146.24.293.12.586.121.146 0 .293 0 .586-.119.44-.119.879.002 1.026-.358l.147-.12c.146 0 .293.12.586.121s.293-.119.293-.359l.733.002c.293-.12.733-.239 1.026-.119-.44.12-.733.119-1.173.118.439.36 1.172.362 1.612.003-.146-.12-.146-.12-.439-.24h.44c-.001.12-.001.24.145.36.147.12.44.24.586.121.294-.12.733.002 1.026-.118.293 0 .733-.118 1.026-.238.147 0 .293 0 .44-.119.146 0 .293-.12.586-.119-.146-.12-.146-.24-.146-.48.293 0 .44-.119.733.001h.147c.146-.119.293-.119.439.121.146.12.146 0 .293 0 0-.119-.146-.24.147-.239 0 .12-.147.12-.147.24.146 0 .293.12.439.12v-.12c.293.001.586.122.733.122 0 0 .146 0 .147-.12.146-.24.439-.239.586-.239s.147-.12.293-.119c.147 0 .147.12.293.24.146 0 .293-.239.439.001 0 0 .293 0 .44-.119.147 0 .439.12.586.121h.146c.147 0 .294-.12.147-.24l-.146-.12c.147-.24.586-.118.879-.118 0 .12.147.24.146.36.293 0 .44-.119.733-.118h.733c.293.001.586-.238.733-.478l.147-.12c.146.001.146.241.292.241l.001-.12.292.24c.147-.239.44-.118.733-.238.44-.119.879-.118 1.466-.117.293 0 .293 0 .586-.359.146.24.44.12.732.361l.001-.48.44-.359.293.24c.146.001.147-.119.293-.119.147-.12.147-.12.293-.119l.879.002v.24h.146c.148-.36.587-.24 1.027-.358h.146c0 .12.147.12.147.12l.439.001c.147 0 .293-.12.44-.12.146.001.44-.118.586-.238.294-.12.44-.359.587-.479 0 0-.146 0-.293-.12.294-.24.587-.239 1.026-.118.44.12.733.001 1.172.002.147 0 .293 0 .44-.12v-.24c.44.122 1.026.003 1.465.123-.146 0-.293.12-.586.12v.12c.146 0 .146.12.293.12.293 0 .586-.12.879-.119.147 0 .293 0 .293-.239.001-.12.147-.24.294-.24.146 0 .293-.119.44-.238 0 0 .146.12.293.12l.146-.12c.44.121.879.242 1.319.243l.001-.48c.439-.12.879-.118 1.172.002v-.24h.147c.292.12.585.121.879.002.146 0 .146 0 .292.12l.294-.239c.146 0 .147-.12.293-.12.293.121.44-.119.733-.118.293.12.439.24.732.001.147-.12.294-.12.587-.119h.146l.88-.358c.147-.12.293-.119.44-.119.293.12.439.121.44-.239-.001.12.146.24.293.12.293-.119.733-.238 1.026-.357.146 0 .146-.12.293-.24 0 0 0 .12.147.12.146 0 .146 0 .293-.119v-.12c.147-.12.439.36.586.001 0 0-.146-.12-.146-.24s.147-.24.147-.36c.293.001.439.241.732.122 0 .12 0 .24-.147.36.294-.12.294-.12.294-.36.44-.119.733-.238 1.173-.358.292.24.586.121.879.122-.147-.12-.147-.12-.293-.12.147-.12.147-.24.293-.36.147 0 .293 0 .586.121v-.12l.001-.12c.292.12.293-.359.586-.238h.293c.147 0 .44-.12.586-.119.147 0 .147 0 .294-.12.146.001.146.001.293-.119h.293c.293.001.44-.238.733-.118.146 0 .586-.239.733-.358.293 0 .586 0 .733-.239l.147-.12c.293.001.44-.239.733-.238-.147-.12-.293-.12-.439-.24-.147-.12-.293-.241-.586-.361l.147-.12c.292.36.292.36 1.025.122l.293.24c.146 0 .147-.12.147-.12l-.293-.24c.147-.12.293-.12.293-.24.147.24.293.36.439.601l.293-.24.147-.119c.293 0 .587-.239.879-.118h.147c.294-.36.879-.238 1.319-.358l1.319-.357c.147 0 .147-.12.294-.24l.293.001c.293-.12.001-.36.147-.48l.586.002c.147 0 .294-.12.587-.239v-.36l.293.24c.147-.119.44-.238.587-.358.146 0 .439 0 .586-.239 0-.12.293-.12.44-.119h.293c.294-.359.733-.358 1.32-.477.293 0 .439-.119.732-.238.147 0 .147-.12.147-.12-.293-.12-.293.24-.44.12.148-.36.441-.48.88-.36.146.121.44.002.44-.118s0-.12.147-.12c0 0 .146.12.292.12.001-.12.147-.12.147-.24.147.121.293.001.44-.238h-.293l.001-.12c.146 0 .293-.12.439-.12 0 .12-.146.12-.147.24.293 0 .44-.24.587-.479l.147.12c.146-.12.293-.239.586-.358 0 0 .001-.12.147-.12.44-.12.733-.359 1.027-.598.146-.12.293-.12.293-.36l.147-.119c.293 0 .294-.24.294-.36.439.002.879-.237 1.173-.477l.146-.12c.001-.36.295-.599.734-.598 0 0 .147 0 .147-.12.293-.239.733-.358.88-.717.147-.24.441-.48.734-.479.146 0 .146-.12.146-.12.147-.12.147-.24.294-.239.293-.12.44-.359.44-.599.293 0 .44-.239.587-.358.294-.24.587-.599.881-.838l.293-.24c0-.12.001-.24.293-.12l.147-.119c.147-.12.147-.36.44-.359 0 0 0-.12.147-.24l.44.001c.146 0 .147-.24.147-.36.44-.118.44-.478.734-.717l-.294.239c0 .12-.147.24-.293.24.147-.12.147-.24.293-.24l.001-.24c.293-.12.293-.36.587-.479 0 0 .146 0 .146-.12.294-.358.587-.598.881-1.077.147-.24.148-.48.441-.719 0 .12 0 .12.146.12.294-.119.148-.479.441-.479 0-.12.147-.24.147-.359.147-.12.147-.24-.146-.36l-.146-.12c0-.12.147-.12.147-.24l-.147-.12c.147-.12.294-.24.587-.359-.146-.24.001-.36.294-.479l.001-.36c.293 0 .293-.24.44-.359.147-.12.147-.36.294-.599h.147v-.48c.001-.24.001-.36.148-.479.146-.12.147-.24.147-.36 0-.24.147-.479.148-.719 0-.12.147-.36.147-.48 0 0 0-.119.147-.239 0 .12.146.24.146.36.147-.24.147-.48.001-.84l.293.001c.147-.24.001-.24-.145-.36.001-.6.295-1.198.735-1.677-.146-.12-.146-.12-.293-.12l.001-.36c.001-.48-.145-.84.002-1.32l.001-.48c.001-.36-.145-.72.002-1.199 0-.12.001-.24-.146-.36-.146-.12-.146-.24-.146-.24l.001-.48s.147 0 .147-.12c-.146-.24-.439-.48-.292-.84-.146-.24-.145-.48.001-.599l.001-.12c-.293 0-.293-.24-.293-.48.001-.36.002-.84-.144-1.2.001-.24.001-.6-.291-.84.147-.36-.293-.48-.292-.84 0-.24-.146-.48-.292-.72-.146-.36-.291-.84-.584-1.2l.001-.12c0-.36-.293-.48-.585-.6-.147-.121-.293-.121-.293-.361 0-.12.147-.24.147-.36-.292-.12-.292-.36-.438-.48 0 0-.147 0-.147.12.001-.36.001-.84-.585-.841.001-.12.147-.12.147-.24.147 0 .147.12.293.12 0-.12-.146-.24-.146-.24-.293-.12-.439-.12-.586-.24.001-.12.001-.24.148-.36-.147.12-.294.12-.44.24-.147-.12-.146-.24-.146-.36s-.146-.24-.146-.48c.001-.24-.146-.36-.439-.361-.146 0-.293-.12-.439-.36-.146-.121-.292-.361-.439-.361-.146 0-.146-.12-.292-.24h.146l-.292-.24c.147-.24-.293-.361-.439-.601-.292-.24-.438-.48-.731-.721-.146-.12-.293-.24-.586-.241-.146 0-.146 0-.292-.12 0-.12.146-.12.146-.24l-.878-.361-.001.36c-.146-.12-.292-.241-.146-.36.001-.12.147-.24-.146-.24l.001-.12c0-.12-.147-.121-.147-.121-.293 0-.585-.24-.878-.481-.439-.24-.732-.481-1.024-.722-.293-.12-.439-.24-.732-.36-.293-.001-.293-.121-.293-.241-.146 0-.146.12-.293.12a2.036 2.036 0 0 0 -.585-.362c-.293-.12-.733-.24-.879-.48-.439-.121-.731-.482-1.171-.603-.292-.12-.585-.24-1.024-.481l-.441.359c-.146 0-.292-.12-.439-.12.001-.24.44 0 .587-.24-.147-.24-.586-.12-.879-.361-.146-.24-.585-.24-.878-.361l-.879-.362c-.146.12-.147.36-.44.36.147-.12.147-.24.294-.48-.147 0-.293-.12-.439-.12-.147.12-.147.12-.147.239-.147 0-.44 0-.587.119.001-.12-.146-.24-.145-.36.146 0 .293-.12.439-.12-.292-.24-.732-.36-1.024-.48l-1.318-.363c-.44-.12-.732-.361-1.172-.482h-.439c-.293-.121-.293-.121-.44-.001-.146-.12-.292-.24-.439-.241-.293 0-.439-.12-.732-.121 0 .12.146.12.146.24h-.293c-.147 0-.147 0-.293.119-.147 0-.44.119-.733-.121-.146-.12-.439-.241-.585-.361s-.146-.24 0-.36c.001-.12-.146-.24-.292-.24-.147 0-.293-.001-.293-.12-.146-.121-.439-.122-.44.118-.146-.12-.146-.24-.292-.24-.147-.12-.147-.12-.293 0-.147.119-.44.238-.733.118s-.586-.001-.879-.241h-.146c-.293-.001-.44-.001-.586-.122-.293-.12-.586-.24-1.025-.241v-.24c-.44.239-.44.119-.586-.121-.293.12-.439.119-.585-.121-.147.12-.147.24-.294.24-.44-.002-.44-.002-.733.238-.146 0-.293-.12-.439-.121-.147.12-.294.12-.44.24-.293-.241-.586-.362-.732-.602 0-.12-.146-.12-.292-.24-.147 0-.44-.121-.586-.121 0-.12 0-.24-.146-.48h-.146l-.001.12c.147.12 0 .24 0 .36-.147.119-.293.119-.44-.002-.293-.12-.439-.12-.732-.24-.293-.121-.293-.121-.44.118 0 0-.146 0-.146-.12 0 0 0 .12-.147.12.001-.12-.146-.12-.146-.12-.146-.24 0-.24-.439-.24l-.293-.001c.146.12.146.24.292.24h-.146c0-.12-.146-.24-.146-.36l.147-.12c.293 0 .293-.12.293-.24-.146 0-.293 0-.586-.12.294-.12.44-.12.587-.24-.146-.12-.439-.24-.585-.36-.147 0-.44.12-.586-.12l-.441.358c.147 0 .147 0 .293.12 0 .12-.146.12-.293.24-.584-1.44-.583-1.56-.876-1.56zm25.991 49.336c0 .12 0 .24-.293.24.146-.12.147-.24.293-.24.147 0 .294-.239.44.001h-.44zm-88.966 17.951c0-.12 0-.12.293-.12-.146 0-.146.12-.293.12 0 .12.146.24-.147.24 0-.12.001-.24.147-.24zm37.514-3.651c.147 0 .44 0 .587-.239l-.001.24c.147 0 .293-.12.586-.119.293.12.293.12.293.24-.293-.12-.439-.12-.586.12 0-.12 0-.24-.146-.24-.293-.001-.587.118-.733-.002 0 .12.146.24 0 .24-.293 0-.44-.12-.879-.122.44-.119.586-.118.879-.118zm-37.071 1.733c.147 0 .293 0 .293.12-.294.36-.44.36-.587.24.001-.12.147-.24.294-.36h-.293zm52.167-4.584c.147-.12.44-.12.587-.24-.001.12.146.241.146.36.146.121.292.121.439.122-.147.12-.293.119-.586.118l-.293-.24-.44.36c-.147.119-.294.358-.587.478-.146-.12-.293-.12-.586-.241 0 .12-.147.24-.44.239 0 0 .001-.12-.146-.12v-.12c.293-.12.587-.119.88-.239-.147-.12-.293-.12-.439-.24h.439l.147-.119c.44-.359.587-.359.879-.118zm-61.985 5.525c.146 0 .293-.12.293-.12.293 0 .293-.119.294-.359.293.12.44-.119.586-.239.146.24-.147.36-.294.6l.293.24c-.147 0-.293-.12-.44-.12-.293-.001-.147.239-.293.358h-.44v-.12h.44c-.293-.12-.44-.24-.44-.24-.146.12-.292 0-.438-.12.293-.12.293-.12.439.12zm18.168-.447s.001-.12.147-.12v.12h-.147c-.293.359-.733.238-1.026.238 0 .12 0 .12-.147.24-.292-.121-.732-.002-.878-.242.439 0 .733-.119 1.172-.118.293-.12.587-.239.879-.118zm30.333-2.465c-.293.12-.293.12-.293-.12.147.12.293.12.293.12.001-.36.001-.36.294-.36l-.001.24c.147 0 .44.001.44-.118.147-.24.44-.12.733-.239h.293c0 .24-.293.24-.44.36l-.146-.12-.294.239c-.293.119-.586-.001-.879-.002zm-101.973-.54c-.146-.24-.292-.24-.439-.241v.24c-.147 0-.293 0-.293-.12-.146-.12-.146-.24-.146-.36v-.12.24l.147-.12c-.585-.481-.878-.602-1.465-.363l-.878-.361h-.147c-.146 0-.439-.121-.585-.121 0-.24.147-.36 0-.6-.146 0 0 .24-.293.24-.146-.121.147-.24 0-.36l-.439-.001v-.24c-.292-.12-.438-.24-.731-.241-.293-.12-.44-.121-.586-.361-.292-.36-.439-.36-.732-.121 0-.24 0-.24-.146-.36l-.44-.361-.145-.12c-.147 0-.293-.12-.293-.36-.146.12-.146.12-.293.119-.146-.12-.44-.24-.586-.241-.44 0-.878-.242-1.17-.482-.294-.24-.733-.361-1.025-.601-.293-.12-.879-.242-.878-.602-.293-.24-.586-.24-.732-.48 0-.12-.293-.001-.44-.001-.292-.24-.732-.361-1.025-.362 0-.24.001-.36-.145-.48-.147-.12-.44-.12-.44-.36-.292.119-.438-.121-.585-.121-.293-.001-.293-.24-.292-.48l-.586-.002c0-.12-.146-.24-.293-.36-.146-.12-.292-.12-.439-.24-.585-.362-1.024-.722-1.756-.963v-.12c-.146-.24-.439-.48-.731-.601-.293-.12-.586-.361-.878-.601-.147-.12-.44-.241-.44-.48.001-.12-.145-.121-.292-.241-.293-.12-.585-.241-.732-.361-.293-.12-.439-.36-.731-.601l.146-.12v-.12h-.439l-.878-.722c-.146-.12-.292-.24-.146-.36v-.12c-.292-.12-.438-.36-.731-.241 0-.12-.146-.24-.146-.36-.293-.12-.732-.241-.732-.601-.439-.24-.585-.6-1.024-.841-.293-.12-.732-.361-.291-.84l-.586-.001c0-.12-.147-.12-.146-.24.146 0 .146-.12.293-.12v-.12c-.147 0-.293-.12-.44-.12l.001-.24c-.146-.12-.293-.12-.293-.24l-.146-.001c-.147 0-.293-.12-.293-.24-.146-.12-.146-.24-.292-.24l-.44-.361c-.145-.12-.292-.36-.145-.6v-.12c-.146 0-.146-.12-.146-.12 0-.12 0-.24-.146-.36-.292-.12-.438-.361-.438-.6 0-.12-.146-.121-.146-.24-.293-.241-.292-.601-.731-.842v-.12c-.146-.36-.438-.72-.584-.96-.147-.12-.146-.24-.293-.48h-.146c0-.12-.146-.24-.146-.36v-.24c0-.24.001-.36-.292-.36-.293-.121-.293-.121-.292-.361v-.12h-.147c-.146-.12-.146-.24-.292-.24.147-.12.294-.36.147-.36-.146-.12 0-.24.147-.36-.439-.24-.438-.6-.438-.84-.146-.48-.438-.84-.29-1.32v-.12c-.146-.24-.146-.48-.146-.72l.002-.72h-.293c.293-.12.147-.36.147-.48v-.479l.002-.72.001-.599c-.146-.24.001-.48.001-.6h.293c-.292-.24-.292-.6.002-.839-.293-.24-.292-.48.148-.719-.146-.48.001-.84.295-1.319-.146-.24-.146-.48.148-.599.293-.12.147-.36.147-.6s.001-.48.148-.719c.147-.24.294-.479.295-.839.146 0 .146-.12.293-.12-.147-.12-.146-.36.147-.359v-.12c0-.12.147-.36.147-.479.147-.12.148-.36.294-.48.147-.119.147-.239.294-.359l.44.001c0-.12-.147-.12-.146-.24l.44-.359.146-.12c0-.24.148-.359.44-.478l.001-.12c0-.24.294-.36.44-.6.147-.119.294-.119.44-.238 0-.12.001-.24.294-.36l.147-.12c0-.24.147-.239.44-.358.147 0 .147-.12.147-.24 0-.24.147-.24.294-.24v-.239c.293-.12.587-.239.733-.478 0 0 0-.12.147-.12.44-.12.44-.479.588-.719v-.12c.293-.119.44-.239.586-.358.147-.24.44-.36.734-.479.146 0 .146-.12.293-.12.44-.118.587-.598 1.173-.717 0-.24.44-.239.587-.358.294-.24.733-.359 1.027-.598.293-.12.586-.239.733-.479s.44-.479.88-.478c.147 0 .147-.12.147-.24.147-.239.147-.239.44-.238l.733.001.146-.12c.294-.239.587-.358 1.173-.237 0 0 0-.12.147-.12.147-.24.44-.48.88-.478.44 0 .586-.12.88-.239.146 0 .146-.12.292-.119.293 0 .44-.12.44-.239.147-.12.294-.12.44-.12l.293.001c.147-.36.587-.478 1.027-.598.293.001.44-.119.586-.358.147.12.293.12.44 0s.44-.238.586-.238c.294 0 .44-.12.587-.359.44 0 .586.001.88-.238l.146.12c.147-.12.293-.24.44-.24.293.001.44-.118.44-.358.147 0 .293.12.44.12.147-.359.586-.238.879-.238 0-.12.147-.24.147-.24.293.001.293-.239.293-.239.293 0 .586.001.88.122 0-.12.146-.24.146-.36l.586.001.88-.358c.293.12.586.121.88-.118l.146-.12c.293-.12.586-.119.88-.238.146 0 .44 0 .44-.24l.146.001c.147 0 .147 0 .293-.12l.294-.239c.88-.118 1.612-.357 2.491-.475 0-.12-.146-.24.148-.36.146.12.146.24.292.24.44-.478 1.173-.597 1.759-.356l.88-.358c.146 0 .292.12.439.12.147-.239.44-.238.587-.238.146 0 .293 0 .44-.12.439-.118.732-.118 1.172-.237.44-.12.733-.119 1.172-.238.44-.119.88-.118 1.466-.237h.293c.293-.119.733-.238 1.026-.238.44-.119 1.026-.238 1.465-.237h.147c.293.24.44.001.586-.118h.586c0-.12-.146-.12-.146-.12.293.12.586.001.733.002.293-.12.732-.119 1.025-.118.44-.12 1.026-.118 1.466-.238.293 0 .44-.119.733-.238.293 0 .586.12.88-.238.146-.12.293-.12.44-.12l.585.001.44.001c.293 0 .732.121 1.026-.118h.293c.146 0 .293.001.44-.119 0 0 .146 0 .146-.12.586-.118 1.026-.237 1.612-.236l.733.001c.146 0 .293-.12.293-.12.293.121.586.002.88.002h.146c.292.121.44-.238.732-.118.147-.24.44-.12.587-.359.146.12.146.24.44.24.293-.119.585.002.878.002h.147c.146.12.293.001.44.001.146-.12.293-.119.44-.119.146 0 .292 0 .585-.119.147 0 .44-.119.587-.118.293 0 .586 0 .879-.119l.44.001c.292.12.732.121 1.025-.118.147.12.293.24.44.12.146-.12.293-.119.586-.118.586.12 1.172-.118 1.758-.117h.147c.293-.12.733-.118 1.026-.238h.293c.293.001.586-.118.879.002h.146c.294-.119.733-.118 1.026-.118h.293l.293.001.44.001h.146c.294-.119.587-.118 1.026-.238l.733.002h.586v-.239l.587.002h.439l.586.002h.293c.146.12.44.121.586.001l.44.001c.146 0 .146.12.146.12 0-.24.147-.24.44-.239h.293c.293-.119.586-.118.88-.118.146 0 .439.121.585.121.293 0 .44-.119.733-.118.293 0 .44-.12.586-.239l1.172.002c.293 0 .733-.238 1.173.002h.146c.293 0 .586-.118.733.002h.586c.293.001.44-.118.733-.118l1.465.003.732.001c.147 0 .44 0 .587-.239 0 0 .146-.12.293-.12.293.001.586.122.88-.118h.146c.586.002 1.172.123 1.611.004h.293c.147-.24.44-.119.587.001.146 0 .146.12.292.12.147.12.293.121 0 .36l.586.001c-.147-.12-.293-.24-.44-.24h.587c.44.002.879-.237 1.318-.117 0 0 .147 0 .147-.12.439.361.879.122 1.319.123a.583.583 0 0 1 .733-.239v-.36c.147.12.44.121.586.241s.439.241.732.362c.293.12.586 0 .879-.119 0 .12.146.12.146.24l.147-.12c0-.12.147-.239.293-.119.147 0 .146.12.293.24l.293-.239c.147-.12.293-.12.44-.119.293.12.439.12.732.121h.147c.439.001.879.122 1.172.123l1.758.003h.146c.293.12.44-.12.586.001.147-.24.44-.119.733-.119.293.001.44.121.733.002.44-.12.44-.12.879.001 0-.12.147-.12.147-.24.439.121.878.242 1.172-.117.146.24.293.12.439.12.293.121.44.121.586.242.146.24.293.12.586 0h.147c.292.121.439.002.586-.118.146 0 .146.12.146.12l.147.12h.293c.293-.119.439-.118.732.002h.147c.293-.119.586-.118.879.122h.146c.147-.12.44-.119.586-.119.44-.119.733-.118 1.025.362l.147.12.293-.24c-.147 0-.293-.12-.293-.12.293-.12.587-.239.879.002h-.293c.147 0 .44.12.586.12.294-.239.733-.358 1.172-.118h.147c.146.001.439.002.586.122.292.24.586.12.878.241l.733.001.293.001c.147 0 .147-.24.293-.24l.293.241c.586.001 1.026-.118 1.612-.117v-.24c0 .12.146.24.146.24.293 0 .733.002 1.026.122s.586.12.733-.119h.146c.293.241.586.242.879.122h.293c.44.001.879.122 1.171.363 0 0 .147 0 .147.12 0-.12.146-.12.147-.24l.732.001c-.147.24-.147.24-.44.24-.146 0-.293-.001-.293.119.147 0 .439.12.586.12 0-.239.586-.118.44-.358.147 0 .44-.12.586-.119.146.24.293.12.586.121 0 .12.146.24.293.12l.44.001c.293 0 .586.001.878.122.293.12.586 0 .88-.239h.146c.147.12.293.121.293.241.293.24.586.121.879.122.146 0 .146 0 .293-.12s.293-.12.293 0c0 0 0 .12.146.12.147.001.294-.119.294-.119.293.001.586.121.879.002h.146c0 .24.293.12.44.121h.439c.293.121.586.122.879.122l.44.001c.439 0 .732.121.879.002.293-.12.439 0 .439.12l.586.001c.147 0 .147 0 .293.12.439.122.879.122 1.318.243l.146.12c.44.001.733-.118 1.026.002h.44c.293-.119.439-.118.732.002.439.12.732.241 1.172.122l.586.001.44.001s-.001.12.146.12c.44-.119.732.001 1.025.242.293-.12.293-.12.586.12v-.12l.44.002c.146.12.292.24.439.24l.439.001c.147.12.293.12.586.241 0-.12.147-.12.147-.12l.292.24.293.001c.147-.12.44-.119.586.001h.147c.44-.119.732.002 1.172.003.146.24.439.12.586.24 0 0 .146 0 .146.12.292.241.586.122 1.025.003.147.24.586.12.879.241.294-.24.586.001.879.002.293.12.733.12 1.025.241.293.12.733.121 1.025.482 0 .12.146.12.293.12h.293c.146.12.293.121.586.002.147-.12.44-.12.733.001.292.12.438.36.732.241h.146c.147 0 .146.12.293.121.293 0 .44 0 .586.24.146.001.293-.119.439-.118 0 .12.147.12.146.24.147 0 .294-.12.44 0 .147 0 .44.001.439.121.147.12.293.12.44.001.293-.12.879.122 1.025.362l.146.12c.44-.24.294-.24.733.001l.146-.12c.293.001.586.121.879.122.147.12.146.24.293.36 0-.12 0-.24.147-.36 0 .12.146.241.146.36.293.001.732.122 1.025.123l.293.24c.146 0 .293.12.439.12l.147.001c.293 0 .586.001.585.24.293.121.586.122.879.242.439.241.878.242 1.318.242.146.24.146.24.586.241h.146c.293.121.586.122.879.242.439.12.732.241 1.171.242.294 0 .586.121.879.241s.439.241.732.362v.12c.293.12.586.12.732.48.44-.239 1.611.243 1.903.723.146 0 .147-.12.293-.119.293.12.586.121.732.241.147 0 .293.12.586.121 0 0 .147 0 .146.12.147 0 .293.12.293.12.147.001.293.001.293.121.146.24.439.121.732.242.147.12.586.12.732.36l.146.12c.44.241.879.242 1.172.602h.146s.146.121.146.24c.147-.119.293-.118.439.122.147.12.44.24.586.36.439.121.732.361 1.025.482-.001.24.146.12.292.12 0 .24.146.24.293.36l.146.12c0 .12.146.121.293.121 0 0 .146 0 .146.12.146.24.439.361.732.601.146.12.439.241.732.122 0 .24-.001.48.439.48 0 0 0 .12.146.12l.146.12c.293.001.439.241.586.481.146 0 .293 0 .439.121.146.24.292.24.586.121.146.24.145.48.291.72 0 .12 0 .24.147.24.292.12.438.36.438.6.146.001.293-.119.44-.119.292.24.292.72.877.842l.001-.24v-.24c.586.12.586.24.439.48.146.12.439.361.438.6 0 .12.293.361.439.481h-.44v.24c.146.24.292.36.439.6.146.12.146.12.146.24-.001.12.146.12.146.24.146.12.439.36.438.48 0 .24.293.36.292.6 0 .12.146.24.146.24.147.121.293.241.293.361.146.12.146.24.292.48s.146.48.292.72v.12c-.147.24-.147.24.145.48l.146.12c0 .36.292.6.292.84 0 .12-.147.24-.147.36.146 0 .293.12.293.12-.001.12-.001.24.146.36.145.36.438.601.291 1.08l-.001.24c.146.24.293.36.146.6s.292.36-.001.6c.146 0 .146 0 .292.12-.293.12-.147.36-.294.6 0 .24-.001.6-.148.839 0 .12.147.12.146.24 0 .24-.147.48-.147.72l-.44-.002c.146.24.292.36.292.6.146.12.146.24-.001.36-.147.24-.001.48-.294.6v.12l-.001.599v.24c.146.12.145.36-.001.48l-.147.12c.146.36-.148.599-.295.958-.147.24-.294.48-.148.84-.147.119-.293.119-.44.238 0 .12.147.12.146.24-.146 0-.293 0-.293.12-.001.48-.001.84-.442 1.199.147.24 0 .36-.147.479v.24l-.001.24c-.147.12-.293.359-.147.599 0 0-.001.12-.147.12-.293.12-.147.24-.294.359 0 .12 0 .24-.147.24l-.587.478c-.146.12-.293.24-.294.48v.12c-.293.119-.44.358-.587.598-.147.12-.293.24-.587.359 0 .24 0 .36.146.6-.147 0-.293.119-.44.119v.24c-.586-.002-.733.118-1.027.478-.146.12-.147.24-.294.479-.146.12-.293.239-.293.359-.293-.12-.294.12-.294.24l-.146.119c-.147.24-.294.24-.44.239-.001.12-.147.24-.148.36 0 .12 0 .12-.293.119-.294.48-.294.48-.733.478 0 .12 0 .12-.147.24-.294.24-.587.479-.88.598-.147.12-.294.12-.294.24-.147.239-.293.359-.586.238 0 .12-.001.24.146.36-.147.12-.44.12-.587.239-.293.12-.733.239-.88.478 0 0-.146 0-.147.12-.293.12-.44.359-.733.598-.147 0-.44 0-.587.239-.146.12-.44.239-.586.239-.294.24-.88.238-1.027.598-.146 0-.146-.12-.293-.12.294-.12.441-.36.88-.479h-.293c-.293.119-.439.119-.733.238-.146.12-.293.12-.293.36-.001.12-.148.359-.294.479l-.293-.001c.146.12.146.24-.147.36-.147.12-.293-.001-.44-.121l-.146-.12-.001.48c-.44.118-.733.358-1.026.477l-.001.36c-.146-.12-.293-.12-.44 0-.146.119-.293.119-.293.119-.44.119-.879.238-1.173.477l-.146.12c-.147.12-.294.24-.44.239-.147 0-.294.12-.294.12-.146 0-.293.119-.439.118-.44-.12-.88.239-1.319.238h-.147c-.147.12-.293.12-.44.239-.146 0-.146 0-.293.12-.147.119-.44.238-.587.358l.001-.24s0-.12.146-.12a.402.402 0 0 0 -.586.12l-.147.119c-.293.12-.44.12-.733.239l-.146.12c.293 0 .439-.12.732-.12.147-.12.44-.118.733-.118-.147.24-.586.119-.733.359-.001.24-.294.599-.587.478-.293 0-.586 0-.733.119h-.146c-.293-.001-.587.118-.587.478.146.12.146.12.146.36-.293-.12-.439-.24-.733-.121-.293.12-.586.119-.879.118-.147 0-.147 0-.293-.12l.147-.12c-.147 0-.44 0-.586-.12-.293-.001-.586.118-.733.118-.146 0-.293 0-.147.24.294-.12.587-.24.88-.239l.146.12-.293.24c-.147 0-.147-.12-.293-.12-.147.239-.294.358-.294.598-.293 0-.44 0-.733.119 0 .12 0 .12-.293.12.146 0 .146-.12.293-.12-.293 0-.439-.12-.585-.36 0-.12-.147-.121-.293-.001 0 0 .146 0 .146.12.146.12.292.36.146.36l-.147-.12c-.146.12-.147.36-.293.479-.147.12-.44.119-.587.239 0 0-.146 0-.146-.12-.146-.24-.293-.121-.44-.121.147.12.293.24.586.36h.146c.147.001.147-.119.294-.118.146.12.146.12.439.24h-.586c-.147-.001-.294.238-.44.238-.147 0-.44.12-.587.119-.292-.12-.439 0-.586-.001h-.293c-.292-.121-.732-.122-.878-.362-.146-.12-.146-.12-.293-.12-.001.36-.294.359-.587.358v.12c0 .36 0 .36.439.24l.293.002c.001-.12.001-.24.147-.24l.293.24c0 .12-.147.36-.147.48-.293-.12-.44-.121-.733-.121.147 0 .147 0 .293.24-.293.12-.293-.12-.439-.24-.294.119-.44.118-.733.238-.147-.12-.147-.12-.44-.121l.147.12c-.293 0-.587.12-.88.119 0 0-.146-.12-.292-.12.146-.12.146-.12.146-.24-.146-.12-.292-.24-.439-.241-.293.24-.293.24-.733.358-.146 0-.44.12-.586.12-.147-.001-.293.119-.293-.121 0-.12-.146-.12-.146-.12-.001.6-.734.718-1.174.957 0-.12-.146-.24-.146-.36l-.586-.001c-.147 0-.147 0-.293.12-.147-.001-.293.119-.44.238a1.119 1.119 0 0 0 -.879-.001l-.001.36c-.146 0-.293 0-.439-.121v.12l.292.24c0 .12-.147.24-.147.24-.293 0-.44.119-.732-.121-.146-.12-.293-.24-.586-.002-.147.12-.44.12-.733.12 0 0-.146-.121-.146-.241.439 0 .733-.119 1.026-.118v-.12c-.146-.12-.293-.12-.439-.24-.293.119-.44.238-.733.358-.44-.12-.88.118-1.319.237.292.12.586.001.878.122-.147.24-.293.36-.586.359-.147 0-.147.12-.293.119l-.293-.24-.001.48c-.293-.001-.586-.002-.733.118 0 .12 0 .24-.147.36l-.292-.24c-.147.119-.294.119-.587.238-.146 0-.293-.12-.439-.12.146-.12.146-.12.293-.12h.146c.147 0 .147-.12.294-.12l.293.001c.293-.12.586-.239.879-.238l.001-.24c.293-.12.147-.36.147-.48-.586 0-1.026.239-1.466.358-.147.24-.293.12-.586.119 0 .12.146.12.146.12h.44c.146 0 .293.001.44-.119-.001.24-.001.36-.294.24l-.147.12c-.146 0-.293.119-.293.119-.146-.12-.293 0-.439-.001 0-.12-.146-.24-.146-.36-.293 0-.44 0-.733.119l-.001.36c.147 0 .293 0 .44.12 0-.12-.146-.24-.146-.24.146 0 .293-.12.439-.12v.24c.146.12.293.121.293.121-.001.12-.147.12-.147.24-.147 0-.147 0-.147-.12-.292-.24-.292-.12-.439.119-.001.12-.001.12-.147.24-.293-.121-.293-.361-.146-.6-.293-.001-.586.238-.879.238 0 0-.147 0-.147.12-.147.239-.293.119-.586.118l-.002.84h-.293c.001-.12.147-.12.147-.24-.146 0-.293 0-.439-.121 0 .12.146.36.146.48 0 0-.147 0-.293-.12 0-.12-.146-.24.147-.36-.146-.12-.293-.12-.293 0-.147.359-.294.359-.587.358h-.146c-.293 0-.586-.001-.88.118-.293.12.146.24 0 .24-.293.12-.44.12-.587.239-.146.12-.146 0-.293 0 .147 0 .147-.12.294-.24l-.586-.001-.001.36c0-.12-.146-.12-.292-.24-.001.24-.001.24-.294.359 0-.12-.146-.12-.146-.24-.147.12-.294.359-.44.119-.147.12-.147.24-.293.239h-.293c-.001.12-.001.12-.147.24-.293-.121-.586-.242-.733-.002-.146 0-.146-.12-.293-.12-.439-.001-.733.118-1.026.237-.146.12-.293.12-.586.12-.147-.001-.439-.121-.586-.002-.44.12-.733.239-1.172.118h-.147c-.293.12-.44.119-.586-.001-.293-.24-.586-.241-.879-.002 0-.12-.146-.24-.146-.48-.439.12-.879-.001-1.172.238.146-.12.293 0 .439.12h.147l.146.001c0 .12-.147.12-.147.12-.586.119-1.172.238-1.612.237-.146 0-.439.119-.586.119-.293 0-.44.239-.733.118h-.146c-.44-.12-.88.118-1.172-.002-.147.12-.294.24-.441.479-.146-.12-.146-.24-.292-.24-.294.239-.294.239-.88.118 0 0-.146.12-.147.24-.146 0-.146-.12-.292-.12-.147.119-.147.239-.001.359s.293.12.439.12c0 0 .147-.12.294-.119l-.001.24h.293c.147-.24.44-.119.586.002.293.12.44.12.292.48v.12c.147-.12.147-.12.147-.24.439.12.733.001 1.172-.118-.292-.36-.292-.36-.585-.24-.147 0-.293-.001-.44-.121l1.319.002-.001.48c.147 0 .44-.12.586 0 .293.121.586.122.879.002.294-.119.44-.119.586.001-.293 0-.44.36-.733.239-.146.12-.293 0-.439.12-.294.239-.44.118-.586-.002h-.147c-.439-.001-.732-.001-1.172.118-.293 0-.586.119-.88.238-.293.12-.586.119-.879-.002-.146-.12-.439-.36-.732-.24v.24c-.294.118-.44.118-.733-.002.293 0 .293-.12.294-.24.146.12.292.24.439.241 0-.12.146-.12.146-.12-.146-.12-.439-.24-.585-.36.147-.12.147-.24.294-.36-.293-.36-.733-.12-1.025-.361-.147.12-.294.239-.44.239-.293 0-.44.119-.587.239-.146 0-.146-.12-.146-.12l-.294.239c-.293 0-.585-.121-.878-.242-.293 0-.586-.12-.879-.001-.294.12-.44.119-.733-.121 0 .12 0 .12-.147.24-.146-.121-.292-.121-.439-.002-.293.12-.733.239-1.026.118h-.439c-.294.119-.44-.001-.733-.122 0-.12.147-.24.147-.36-.293 0-.586-.12-1.025-.001.146.24.439 0 .586.121-.001.12-.001.36-.294.36-.147-.001-.44-.002-.439-.241l-.001.24c-.439-.001-.732-.122-1.172-.123-.146 0-.293 0-.439.12l-.001.36c.147 0 .294-.24.44-.12s.293-.24.44-.119c-.001.12-.001.24.145.48-.146 0-.293-.12-.293-.12 0 .12-.147.24-.147.24-.439-.002-.732-.002-1.172.117-.293-.12.001-.36.001-.6h-.293c-.293-.12-.586-.121-.732-.001-.293 0-.44.119-.733-.002-.146-.12-.293-.12-.586 0l-.879-.002c-.147.24-.147.24-.44.119l-.146-.12c-.147.24-.44-.001-.586.118h-.44l-.147.12c-.146 0-.439-.121-.586-.002l.293.24c.146.12-.001.24-.147.12s-.293.12-.439 0c0-.12 0-.24.147-.48l-.44.36c-.293-.361-.733-.122-1.025-.242.146.12.146.24.145.48-.146-.24-.293-.121-.439-.121-.293-.12-.293.12-.44.119-.146-.12-.439-.12-.586-.121.001-.12-.146-.12-.146-.24v.12c.146.36-.001.48-.441.599l-.439-.001c-.147 0-.147 0-.293.12-.147-.001-.147.119-.147.119l-.733-.001h-.146c-.146-.12-.293-.001-.293-.001-.147 0-.293 0-.293.12-.147.119-.44.118-.44-.002s0-.12.147-.24c-.147 0-.146-.12-.293-.12.147-.36.587-.238.733-.358.294-.12.44.12.732.361.147-.12.294-.24.148-.48-.147.12-.44.12-.733 0 .147-.12.293-.12.44-.24-.293 0-.732-.121-.879-.121-.146.12-.293.12-.293.12-.293-.002-.733.118-1.172-.003h-.293c-.293-.001-.586-.121-.879-.122v.12c-.147.12-.294.24-.44.239-.293 0-.146-.24-.293-.36-.293 0-.439.119-.586.118-.439 0-.732 0-1.026.239 0 .12-.147.12-.147.24-.147.119-.146-.001-.293-.121.147-.12.293 0 .294-.24-.293.12-.293.12-1.025-.361 0 .12-.147.12-.147.24-.293-.121-.586-.242-.879-.122-.293-.24-.44.119-.586.239-.147 0-.293-.12-.44-.121v.24c-.147 0-.293.12-.293 0-.293-.241-.586-.002-.733.118-.293.12-.586.119-.732-.121 0 .12-.147.12-.147.24v-.24c-.146 0-.44-.121-.586-.122 0 0-.146 0-.293.12s-.44-.12-.586.119h-.147l-.732-.002c0-.12 0-.24-.146-.36-.147.12-.293.12-.44.12 0 .12.146.12.146.24l-.44-.001c-.292 0-.146.24-.293.239-.146 0-.293-.12-.44-.12-.146.119-.146.239-.293.358l.293.24c-.44 0-.44 0-.44-.24 0-.12.148-.24.148-.48l.147.001.146.12v-.24a2.411 2.411 0 0 0 -1.612.237c-.146-.12-.146-.24-.146-.24-.44.12-.88.119-1.172-.122-.147.24-.147.24-.44 0-.146.12-.293.119-.44.239l-.439-.001c0-.12.147-.24.148-.48-.44-.12-.147.24-.294.36-.147 0-.293-.12-.293-.12-.147.119-.44-.002-.586-.002 0 .24-.44.12-.44.479h-.293s-.147-.12-.293-.121c-.001.48.439.24.731.481v-.24c.294.12.44.12.88.242-.147.12-.294.119-.294.119-.146 0-.146 0-.293.12 0 .12.146.24.146.48-.147 0-.147-.12-.293-.121h-.293v.12l.585.48h.146l.44.001c.146.12.44.12.586.121.146 0 .44 0 .586.121-.147.24-.147.24-.44.24l-.586-.002h-.44c-.146 0-.293-.121-.439-.241s0-.12 0-.24l-.146-.12h-.293c-.146-.121-.146-.241-.146-.36-.147.119-.293.238-.44.478-.293-.24-.44-.12-.733-.121 0 .12.147.24.293.24-.147.24-.44-.12-.586 0-.147-.001-.293-.121-.586-.242-.146-.12-.439-.12-.586-.12.147-.24.44-.24.587-.12.146 0 .293 0 .293-.12l.146.121.294-.24c-.293 0-.586 0-.879-.36.147 0 .293.12.44.12 0-.24-.146-.36-.44-.36-.292-.001-.146.24-.146.36-.147-.001-.293-.001-.586-.122l.293-.24.001-.479c-.146 0-.147.12-.147.12.146.24-.293.479-.294.839-.147-.12-.293-.12-.44-.24-.293.238-.293.238.147.24.146 0 .146.12.146.24l-1.172-.003c0 .12.146.12.146.24h-.586c.147-.12.147-.36.293-.36.147-.12.294 0 .44 0 0-.12 0-.239.147-.359.147 0 .293 0 .587-.119v-.36c-.146 0-.293.12-.44.12l-.146-.12c-.147.12-.147 0-.293 0l-.147-.001.147.12c0 .12.146.12.146.24-.147 0-.293-.12-.293-.12-.147.12-.293 0-.586-.001.146.24.292.36.439.48-.293 0-.44.12-.587.119-.146 0-.293 0-.439-.12s-.146-.24-.292-.361h.146l.44.001c.293-.12.587-.359 1.026-.238l.147-.12-.147-.12-.879-.001c-.146 0-.293-.001-.293-.12v-.24l-.439-.001-.293-.001v.12h.44c0 .12-.147.12-.147.24-.147-.12-.147.12-.294.12-.146 0-.146-.12-.292-.24-.147-.12-.147.119-.293.119-.586-.241-.733-.121-.88.118-.293 0-.44 0-.733.119-.44.239-.586.119-.732-.122 0 0 0-.12-.146-.12 0 .12-.147.12-.147.24-.146-.24-.146-.36-.292-.48 0 0 .146-.12.147-.24-.587-.001-1.026.118-1.465-.242l-.001.48c-.146-.12-.293-.121-.44-.241-.146 0-.145-.12-.292 0-.293.119-.586.118-.88-.002-.292-.12-.439-.121-.732.238 0-.24-.293-.24-.44-.36l.294-.24c0-.12-.146-.24-.146-.24h-.146c0 .24-.148.48-.294.479-.293.12-.44.12-.733.119.147 0 .293.12.44.12-.147.12-.148.24-.44.12a.172.172 0 0 0 -.294.119h.294c.293 0 .44-.119.732.002.293.12.732.24 1.025.361.147 0 .146.12.293.24.146-.239.293-.359.44-.478-.147 0-.146-.12-.146-.12.146-.12.293 0 .439.12 0 .12-.147.24-.147.24h.147c.439.12.439.12.145.36-.146.12-.147.24-.147.36.293 0 .44-.12.587-.12 0 .12.146.241.145.48l.147.001c0 .24-.293 0-.294.24.293.12.586.12.732.24.147-.239.001-.36-.145-.36-.147 0-.147-.12-.147-.24l.733.002c0-.12-.146-.24-.146-.24.293-.24 0-.24-.146-.36.147-.12.44-.24.586-.12.147.12.147.12.293.121l.586.001c0 .12 0 .24.146.36.293 0 .44-.239.733-.238.146.24.146.36.292.6.147-.12.147-.24.147-.36l-.292-.24c.147-.24.44 0 .586.001-.147-.12-.146-.24-.293-.24l-.44-.001-.439-.001v-.12c.147 0 .293-.12.44-.12.44-.238.44-.238.733.002 0 0 0-.12.146-.12.147 0 .147.12.147.12.146.001.146-.119.146-.119.293-.12.44-.119.586.121.146.12.146.24.292.36-.146.12-.293.24-.44.24-.439-.241.001-.36.002-.6-.147.12-.294.12-.294.24 0 .239-.147.359-.294.478l.293.24c-.293.12-.733.12-.88.479l.879.001.586.001.44.001c.44.001.878.122 1.171.122.147 0 .44.121.587.001.293-.12.44-.119.732.002.147 0 .293.12.44 0 .146-.12.44-.119.586.001h.146c-.146-.12-.146-.12-.146-.24.44-.118 1.172-.117 1.465.003l-.44.36c.293 0 .44 0 .586.12h.293s.147-.119.147-.239v-.12c.147 0 .146.12.146.12.147.12.147.24.293.24.44.121.879.122 1.465.123.586-.119 1.026.002 1.612-.117.293 0 .732.121 1.172.122l2.49.005.733.001c.147 0 .44 0 .586-.119.147-.12.293-.12.44 0 .146.121.44.122.586.002l.586.001c.146 0 .439.12.586.001-.292-.48-.732-.241-1.318-.242.147-.24.293-.36.44-.48.147-.119.147-.359.294-.478.293.12.586 0 .879.001-.292-.24-.439 0-.586 0 0-.12 0-.12-.146-.24 0 0-.146-.001-.146-.121l.44-.36c.293.001.586.122.732.122.147-.12.294-.36.44-.239l.585.48-.146.12c.292.121.586-.118.732.122 0 0 0 .12-.147.24h.293c0-.12-.146-.24-.146-.48.44.12.44.12.733-.239.147-.12.294-.12.44-.119.146.24.293.12.586.001.147-.12.293 0 .44.001 0 .12-.294.24-.147.36h.586l.293.001c0-.12.147-.24.147-.36.146.12.293.121.439.241h-.293v.24c-.294-.001-.44-.001-.733-.122a.584.584 0 0 1 -.733.239l.001-.36h-.44l.293.24c-.147 0-.147.12-.293.12-.293-.001-.44-.122-.733-.122-.146.12-.44.359-.879.238-.293 0-.147.12-.147.24.293.12.439.12.586-.12.293.121.586.242.732.362l-.146-.12c.146 0 .146-.12.146-.12.44 0 .879.122 1.319.122l.586.001.146.12h-.439s-.147 0-.147.12c.293 0 .439.12.586.12-.147.12-.147.24-.294.36s-.294.359-.587.359c-.293-.001-.439.119-.586.358l-.147.12c-.146-.12-.147 0-.147.12-.146.12-.147.36-.44.358-.293 0-.294.36-.44.48-.44.239-.88.358-1.32.597-.147 0-.293.12-.293.12-.293-.001-.147.119-.294.239l-.293-.001-.146-.12c-.147.12-.147.24-.293.24-.44.118-.734.358-1.027.477-.147.12-.293 0-.293 0-.147.12-.44.239-.586.238-.147 0-.147.12-.294.12-.147.24-.293.12-.44-.001-.146.24-.439.12-.439.12-.293.238-.733.238-1.173.357-.147.12-.44.119-.44.239l-.586-.001v-.36c-.146 0-.292 0-.439.12-.146-.001-.146-.001-.293.119s-.293.119-.44.119h-.293v.239c-.294.12-.146-.24-.293-.24-.293 0-.733.118-1.026.118-.732-.001-1.319.117-2.051.116-.147 0-.44-.12-.586-.001-.147.12-.44 0-.586-.001-.293 0-.733-.121-1.026.118v.24c-.147.12-.147 0-.293-.12-.147-.12-.44-.001-.587.118l-.146.12c-.147 0-.147-.12-.293-.12 0-.36.293-.12.44-.24 0-.12-.146-.12-.293-.24-.146 0-.293-.12-.586-.12-.293-.001-.585-.122-1.025-.003-.147-.12-.293 0-.586.12-.147-.001-.294.119-.44-.002-.293-.12-.44-.24-.879-.121-.146 0-.293.12-.44 0-.146-.121-.439-.002-.44.238.147 0 .293.12.44.12-.147 0-.44.12-.586-.12s-.439-.36-.732-.361c-.146 0-.293-.12-.44-.12-.585-.122-1.024-.243-1.61-.124-.147 0-.147-.12-.293-.12-.293 0-.586-.001-.88-.122h-.292c-.147 0-.586-.121-.586-.121 0-.24-.293-.12-.293-.24l-.293.239-.293-.24-.732-.002c0 .12-.147.12-.294.24 0-.36-.292-.24-.439-.361-.293-.12-.585-.241-.878-.242 0 .24.439.121.439.361-.147 0-.293-.12-.586-.12 0-.24 0-.24-.44-.362-.146 0-.292 0-.438-.12-.147-.12-.44-.12-.586-.121-.44 0-.733-.121-1.172-.242-.147 0-.293-.12-.44-.12-.146-.001-.292-.121-.439-.002-.147.12-.293.12-.293.12l-.733-.001c-.293-.001-.44.119-.44.239-.439-.121-.731-.481-1.171-.123-.147-.12-.293-.12-.293-.24.146 0 .147-.12.293-.12 0-.24-.146-.48-.439-.48-.146 0-.146-.24-.146-.24l-1.025-.002s0-.12-.146-.24c-.294.12-.44.12-.587.239v.12c-.147 0-.44-.12-.732-.121.146-.12.293-.24.44-.24-.44-.24-.88.119-1.172-.121-.293-.24-.88-.002-1.172-.362-.147.24-.44.239-.733.118-.146 0-.292-.12-.293 0-.293.12-.586-.001-.879.118-.44 0-.586-.12-.732-.36-.146-.001-.293.119-.44.118.148-.36.148-.36-.292-.36v.36c-.147-.12-.293-.12-.293-.12-.146-.36.147-.36.293-.36l-.292-.24c.44 0 .44 0 .586-.12-.147 0-.293-.12-.44-.12 0 .12-.146.12-.293.24l-.146-.12c0-.24-.146-.24-.293-.361-.292-.12-.732-.241-1.025-.242l-.147.12c-.292-.24-.878-.242-.73-.721-.294-.12-.44 0-.587.239-.147-.12-.293-.12-.586-.241-.293 0-.586-.121-.878-.242-.147 0-.293-.12-.293-.12-.293 0-.44 0-.586-.121-.293-.24-.586-.36-1.025-.482-.146 0-.146 0-.293-.12-.292-.36-1.025-.122-1.318-.482l-.146.12-1.318-.362c-.147.359.293.12.292.24-.146.24-.44.239-.44.12-.146-.121-.292-.121-.292-.121-.293 0-.586-.121-.732-.362-.293 0-.293 0-.293-.24h.293c-.293-.12-.585-.36-.878-.36.146.12.146.24.292.36-.293-.12-.585-.241-.878-.242.146-.12.293 0 .586-.119l-.146-.12c-.147-.12-.293-.12-.44-.12-.439-.241-.878-.362-1.17-.722-.147-.12-.293-.24-.44-.24l-.146-.001c-.146-.24-.44-.12-.732-.361-.147.12-.147.24-.294.359-5.711-1.33-5.711-1.45-5.858-1.57zm84.096 1.948h-.146c-.147 0-.44.12-.587.119h-.146c-.147.12-.293 0-.293 0-.147.119-.294.239-.44.118 0-.12 0-.12-.146-.24l-.294.24c.001-.12.001-.12-.146-.24-.147.359-.586.238-.879.358v-.36c.293 0 .733.001.88-.358.146.12.293.12.439.24.147-.36.44-.359.733-.358.147 0 .293 0 .294-.12.146 0 .293-.239.586.001-.147.12-.294.24-.587.36.586.12 1.026-.239 1.612.002-.294.12-.441.36-.587.479l.146.12c-.147.12-.44.12-.586-.001-.147 0 0-.24.147-.36zm-15.095 2.132-2.051-.004v-.12l.44-.358c.294-.36.88-.239 1.026.121.146 0 .439.121.586.121zm44.405-5.917c.293-.24.147-.48.587-.599-.001.12.146.12.146.24.293-.239.001-.48.147-.599.293 0 .587-.359 1.026-.238 0 .36-.439.12-.586.359l-.001.36c-.147.12-.294.359-.441.598-.146 0-.146 0-.292-.12-.001.12-.147.12-.147.24-.147-.12-.293-.12-.439-.241zm-20.837-64.2c.146.001.439.121.585.122l.001-.24c.293 0 .586 0 .732.241h-.44c-.146.119-.293.119-.439.118-.44 0-.733 0-1.173.118-.293 0-.293 0-.439-.24.147 0 .293-.12.44-.12 0-.12 0-.12-.146-.24.146.12.293.12.439.121l-.293.24c.44-.12.586-.12.733-.12zm57.262 13.655c-.293 0-.586-.001-.732-.241-.146-.12-.293-.24-.292-.36v-.12c.146.12.292.24.439.24.586.001.732.361 1.171.602.146.12.146.24-.001.36-.146-.12-.292-.36-.585-.481zm-121.145-12.329c-.147.24-.147.36-.44.359-.44 0-.88.118-1.319.118-.293 0-.293-.12-.293-.24s.147-.12.147-.12c.147.12.293.12.44.12v-.24l.879.002c-.147.12-.147.12-.293.12.146 0 .293 0 .44-.12.146 0 .293-.12.44.001zm51.892 67.612-.147.12c-.146 0-.293-.12-.439-.24-.293-.001-.44.119-.733.118.147-.24.148-.36.294-.479.147.12.44.12.586.001l.147-.12.879.002-.001.36c-.293.239-.439.239-.586.238zm18.171-1.766c-.147 0-.147.12-.293.12-.147 0-.147 0-.294.119-.293.359-.732.118-1.172.118l-.146-.12s0-.12.147-.12h.146c.293 0 .586-.119.88-.238l-.88-.002.001-.12.879.002s.146 0 .146.12c.293 0 .44 0 .586.121zm-48.208 2.552v-.24c.001-.24.001-.24.44-.239v.36h.147l.293-.239c.147-.12.44.001.586.001 0 0 .146.12.146.24-.293 0-.293 0-.44.12.147 0 .147.12.293.12-.146 0-.293.24-.44 0l-.146-.001h-.293c-.146-.24-.44-.121-.586-.122zm34.728-1.976-.001.24c.147-.12.439.12.586 0 0 .36-.44.48-.734.719-.146-.12-.292-.36-.586-.121.294-.36.295-.72.735-.838zm4.833 1.088-.44-.001c.147-.12-.146-.12-.146-.24s-.146-.24-.146-.24c-.293-.001-.44-.001-.586-.121l-.586-.001c.293-.12.586-.24.879-.239h.147c.293.12.439.121.585.481 0 .12.147.12.146.24.147 0 .293 0 .44-.119-.146 0-.147.12-.293.24zm-48.814-68.567c-.146 0-.293 0-.44.12l-.44-.001c-.146 0-.146.12-.292.119l.146.12c-.147 0-.293.12-.44.12-.146-.001-.293-.121-.292-.241 0-.12 0-.24.147-.24.586-.239 1.025-.118 1.611.003 0-.12 0-.12 0 0zm105.542 53.077c0 .12 0 .24-.147.24-.146 0-.147.12-.293.239-.147.24-.587.239-.88.118.148-.6.734-.598 1.32-.597zm-129.574-50.721c.879-.118 1.905-.357 2.784-.235l-2.638.355-.146-.12c.146.12 0 .12 0 0zm87.942 63.36c.439 0 .732.12 1.025.001.293-.12.586-.119.88-.238 0 0 .146 0 .146.12-.293.12-.44.119-.586.239l-.001.24c-.293.119-.44.119-.732-.002-.293-.12-.44-.12-.733.119.147-.24.147-.36.001-.48zm-38.978 2.928c.293-.24.586-.119.733-.239.146-.12.292.12.292.36-.146-.24-.293-.24-.586 0-.147 0-.147 0-.293-.12 0 0-.147.119-.146-.001-.147 0-.293-.12-.293-.24-.147.12-.147.12-.439-.001.146 0 .146-.12.293-.12 0-.12-.293 0-.293-.24.293 0 .439.24.732.361zm58.911-6.851c-.44.12-.733.119-1.173.238 0-.12-.146-.24-.146-.48h.147c.146.12.439 0 .586.001.146 0 .293 0 .586.241zm-65.82-62.72c0-.24 0-.24.147-.24l.879.002c.293 0 .293 0 .293.12-.146-.12-.44-.12-.586 0l.292.24-.586-.001c0-.12-.146-.24-.146-.24-.146 0-.146 0-.293.119zm-17.29.689h.293c.293 0 .586.001.88-.118.146 0 .293 0 .439.12-.147.12-.147.24-.44.12-.293 0-.586-.001-1.026.118-.146 0-.293 0-.146-.24zm11.306 68.5v.239c-.44 0-.44 0-.587.239-.146 0-.146-.12-.293-.12 0-.12-.146-.12-.146-.24 0 0 .147-.12.294-.12l.732.001zm51.87-2.187c-.44.239-.879.118-1.319.118.147-.12.44-.36.733-.239.147 0 .146.12.293 0 .147 0 .147 0 .293.12zm-79.149-64.783c0 .36-.44.12-.586.12v.239c-.147 0-.293 0-.293-.12-.147 0-.293-.121-.44-.121.294-.12.44-.12.587-.12zm56.875 66.782h.44c.146.001.293.121.146.36-.147.24-.44-.12-.587.12l-.146-.12c.147-.12.147-.24.147-.36zm-60.538-66.309v.24c-.294.12-.587.24-.88-.001.294-.24.587-.24.88-.239zm85.125-.448c-.146-.12-.146-.24-.292-.24.732-.119 1.025-.118 1.025.122 0 0-.147.12-.147.24-.439-.361-.439-.361-.586-.122zm-50.984-1.29c-.293-.12-.732-.36-.586-.48 0 0 .147-.12.294-.12.146.12.292.24.439.24-.147.24-.147.24-.147.36zm33.139 67.1s-.001.12 0 0c-.294.119-.586-.001-.88.118 0 0-.146 0-.146-.12.147-.12.147-.12.293-.12h.293l.001-.239c.439.12.439.24.439.36zm46.462-9.632c-.147.24-.294.12-.44.12.147-.24-.146-.48.148-.72h.293c-.293.12-.44.24-.294.48 0 .12.146.12.293.12zm-61.41 11.524c.147-.36.293-.36.44-.36.147.001.293.121.146.36zm-39.13 6.406c-.148.12-.44.12-.44-.12 0-.12-.147-.12-.293-.12-.146-.001-.293-.001-.293-.121.147-.12.293-.12.44 0 0 .12.292.24.585.361zm-3.824-74.842s0-.12 0 0c.146 0 .439.12.439.24s.146.12.146.12l.293.001v.12h-.586s-.147-.001-.146-.121c0-.12-.147-.24-.146-.36zm19.511 68.154c-.293 0-.44 0-.586-.12v-.24c0-.12.147 0 .293.12.147 0 .147 0 .293.24zm9.085-.463c-.294.479-.294.479-.587.358.147-.12.147-.479.587-.358zm-10.404.82c.146 0 .44-.118.44.121-.001.12-.148.24-.294.36-.147 0-.147-.12-.293-.12.146-.12.147-.24.147-.36zm49.817-1.59c.001-.12.001-.12 0 0 .88-.118 1.026-.118 1.026.002-.293 0-.586.12-.879.119 0-.12-.147-.12-.147-.12zm-19.802-68.514s.146 0 0 0c.146.12.292.36.292.48s-.147.12-.147.24l-.146-.12zm-9.964.342c-.293.24-.586.239-1.026-.002.294 0 .587-.119.88-.118zm65.678 59.722c-.146.12-.293.119-.293.239-.147 0-.293 0-.293-.12s-.146-.24-.292-.36c0 0 0-.12.146-.12h.147c0 .12.146.24.146.36.146.24.147-.12.439 0zm8.877-48.196v.24c-.293 0-.586-.121-.732-.361.293 0 .439.12.732.12zm-13.567 49.386c.293-.119.44-.239.587-.358l.146.12c0 .12-.147.12-.147.12-.146 0-.293-.001-.586.118zm-30.076-59.658c-.146 0-.293.12-.439-.12 0-.12 0-.24.147-.24.146 0 .293.12.292.36zm-49.35 68.032c.147-.36.148-.48.44-.48 0 .12-.146.24-.147.48-.146.12-.293 0-.293 0zm82.504-9.088c-.293 0-.44 0-.586-.12.147-.12.44-.12.587-.24zm-78.987 8.974c0-.24.147-.36.44-.239l.146.12-.147.12h-.44zm77.521-8.497-.147.12c-.146 0-.293 0-.439-.12v-.12s.147-.12.147 0c.146 0 .292.12.439.12zm-19.055 4.284c-.146.12-.293.12-.44.239.001-.12-.146-.24-.145-.36.293-.24.439-.12.585.12zm16.562-2.849c-.147 0-.44.12-.586-.12.293-.24.44-.24.586.12zm22.286-8.955c.146 0 .293.12.439-.119h.293c-.293.12-.439.24-.733.36l.001-.24zm-145.956 15.69c.293.001.44.121.732.122 0 .12 0 .12-.147.24-.146-.12-.44-.001-.585-.361zm111.654-5.917c.147-.24.44-.239.733-.238-.439-.121-.293.239-.44.359 0 0-.147 0-.293-.12zm11.971-58.024c.147-.12.147-.12 0 0 .147 0 .293 0 .439.12v.12h-.146c-.147-.12-.146-.24-.293-.24zm-4.541-.248c.146.24-.001.36-.148.48-.146-.12-.146-.24-.292-.36h.293zm-30.912-1.734c.293-.12.44-.12.733.121a1.908 1.908 0 0 0 -.733-.121zm-65.93-.957.733.001s.147 0 .147.12c-.44.12-.44.12-.88-.121zm60.367-1.691c.147-.12.44 0 .44-.12l.293.001c-.147.12-.293.12-.44.239 0 0-.146-.12-.293-.12zm53.379 55.502c0 .24-.147.36-.148.6.001-.12-.146-.24-.145-.48 0-.12.147-.12.293-.12zm-133.504 16.672h.293l.44.001h.293c-.44.12-.733.12-1.026-.001zm48.918-72.47c-.146-.12-.292-.12-.439-.24.294-.12.44-.24.587-.12 0 .12-.147.24-.148.36zm76.376 58.781c-.146-.12-.439-.24-.292-.48.146 0 .293.12.439.12 0 .12-.147.24-.147.36zm-144.228-49.667c-.293-.12-.293-.12-.146-.36.147 0 .147 0 .293.12 0 .12 0 .12-.147.24zm116.085 56.693c.146 0 .293-.12.293-.12.147 0 0-.24.147-.239-.001.36-.001.48-.44.36zm-40.737 3.166s0 .12 0 0c0 .12-.147.24-.293.239h-.147v-.12c.147-.12.294-.12.44-.12zm-36.508-67.226c0-.12.146-.12.146-.24l.147.001v.24c.146.12 0 .12-.293 0zm79.003 63.823c.293 0 .294-.359.587-.118-.44.239-.44.239-.587.118zm-106.665 1.49c-.293.119-.439-.002-.585-.122 0 0 0-.12.147-.24l.439.361zm120.735-4.103c-.146-.12-.146-.24-.146-.24.147-.12.294-.12.44.12 0 0-.147.12-.294.12zm-62.865 6.364c-.294 0-.44 0-.586-.24h.586zm94.385-17.221c.147-.36.44-.36.587-.24-.147.12-.294.12-.587.24zm-45.445 14.31c.148-.36.294-.36.44-.239-.146 0-.293.12-.44.24zm-36.803-66.506c-.293 0-.44.359-.732-.001.293.12.586.12.732 0zm65.243 57.442c.147 0 .293 0 .439.24h-.439zm-27.12 8.467c-.146-.12-.293-.12-.439-.24.147-.12.147-.12.439 0zm39.658-55.576c-.293-.12-.439-.241-.439-.481.293.12.44.12.439.48zm-61.053 57.936c-.146-.24-.293-.12-.439-.36h.439zm-46.301 1.597c-.147-.12-.293-.12-.44-.121.147-.12.293-.12.44-.24v.36zm43.371-1.722c.147-.24.293-.24.44-.239.146 0 .146 0 .146.12-.146 0-.293.12-.586.12zm-82.34-.626c0 .12 0 .12 0 0-.293.119-.293.119-.44-.121.147.12.294.12.44.12zm60.947 1.787c.146 0 .146 0 0 0 .146-.12.293-.12.293-.12l-.001.36c0-.12-.146-.12-.292-.24zm3.37-.234h-.733c.293 0 .587-.24.733 0zm59.748-65.374c.146.12.292.12.439.24-.147 0-.147.12-.294.12-.146-.12-.146-.12-.145-.36zm-63.564 68.846c.001-.12.147-.24.294-.24v.12c-.001.12-.147.12-.294.12zm-26.072-3.765c0-.12 0-.12 0 0 .293 0 .44.001.292.24zm90.852-7.873c-.147.24-.293.12-.439.12.146-.24.293-.12.439-.12zm-82.796 8.727c-.146.12-.147.24-.44.12l.294-.24s0 .12.146.12zm83.089-8.606c0-.12-.146-.24-.146-.36.147.12.293.12.439.24-.146 0-.146 0-.293.12zm-76.372-60.82c-.147.119-.293.119-.586-.002.293-.12.44.001.586.001zm27.398.288c.293.12.293.12-.001.36zm65.1 55.403c-.147.24-.147.24-.44.12.147 0 .293 0 .44-.12zm-33.425 10.974c0-.12-.146-.12-.146-.24.146 0 .293-.12.44-.12-.147.12-.294.24-.294.36zm-55.682 3.858c.146 0 .293.001.44.121-.294.12-.294 0-.44-.12zm80.455-10.41c.146-.24.146-.24.439-.119-.146.12-.293.12-.439.12zm-93.054 9.669s.146.12 0 0c.146.12.146.24 0 .24h-.147v-.12s.147 0 .147-.12zm90.418-10.873c.001-.36.001-.36.294-.24zm11.73-4.656c-.146-.12-.146-.12-.146-.24.146 0 .147-.12.293-.12 0 .12-.147.24-.147.36zm-164.692 5.703c0-.12 0-.12 0 0 .147-.12.293-.12.44 0zm153.255-.806c.147-.12.147-.24.147-.36.146.24.146.24-.147.36zm-78.28-59.025c0 .24 0 .24-.293.24.146 0 .147-.12.293-.24zm31.672 68.416c-.147 0-.293 0-.293-.24.147 0 .293.12.293.24zm3.784-68.113c-.293.12-.293.12-.439-.12.146 0 .146 0 .439.12-.146-.12-.146 0 0 0zm18.344 65.754c.147-.24.147-.24.439 0zm8.794-1.903c-.147 0-.147 0 0 0-.147 0-.146-.12-.293-.24.147 0 .147 0 .294-.12-.147.12-.001.24-.001.36zm-47.062-64.606c.147-.24.147-.24.439-.12 0 0-.146 0-.439.12zm25.811 67.926c-.146 0-.146 0 0 0 .147-.12.294-.12.44-.24-.147.36-.44.24-.44.24zm-24.763 1.275c.147-.12.294-.12.44-.12-.147.24-.147.24-.44.12zm-46.162 5.794c-.146-.12-.293-.12-.439-.24.146 0 .293.12.44.24zm61.398-5.047c-.146 0-.146 0-.439-.121.147-.12.293-.12.293-.12.147 0 .147 0 .146.24zm-52.156-1.293c-.147 0-.147 0 0 0-.147-.12-.146-.24.147-.36-.147.24-.147.24-.147.36zm47.177.324c-.001.12-.001.24-.147.24-.147-.12 0-.12.147-.24zm55.695-11.054c-.147 0-.294.12-.44.12.147-.36.293 0 .44-.12zm-42.216 10.838h.293v.24zm-14.507 1.294c0-.12.147-.24.294-.24-.001.12-.001.24-.294.24zm67.352-56.966c-.294.12-.294.12-.44-.121.147.12.293.12.44.12zm-106.177 56.536c0 .12 0 .24.146.36-.293-.12-.293-.12-.146-.36zm112.848-18.148c.146 0 .147-.12.293-.12v.12c0 .12-.147.12-.293 0zm-115.656-50.576v.24c-.147 0-.293-.12-.44-.12.147 0 .293-.12.44-.12zm77.393 63.46c.146.001.146-.119.293-.118l-.001.36c-.146-.12-.146-.24-.292-.241zm-3.846-61.89c-.293.12-.44.12-.293-.12.147 0 .147 0 .293.12zm.182 62.124c.294-.12.294-.12.44.12-.147-.12-.293-.12-.44-.12zm31.661-7.499c-.147.12-.293.12-.44.12v-.12zm-27.412 7.867c0-.12.147-.24.147-.36l.292.24c-.146 0-.293.12-.439.12zm-6.89 1.906c-.146 0-.147.12-.147.12s-.146 0-.146-.12l.147-.12c0 .12 0 .12.146.12zm15.641-61.734c.146 0 .147-.24.293-.24 0 .24-.147.36-.293.24zm-68.683 63.92c.147.12.147.12.146.24-.146 0-.146-.12-.146-.24zm-1.172.237s0 .12 0 0c-.147.12-.147.12-.294.12v-.12zm-21.124-67.559c0-.24 0-.24.293-.119-.147 0-.147.12-.293.12zm85.599 62.396c-.147.12-.147.12-.293.12v-.12zm-84.84 4.886c-.147-.12-.147-.12 0-.36zm16.824-69.05s.147.001 0 0c.147.121.147.121.146.241h-.146zm-50.813 67.43c-.146.12-.293.12-.44 0 .294-.12.294 0 .44 0zm-3.114-60.81c.146-.119.293-.119.439.001h-.44zm136.454 54.212c.146.12-.001.24-.147.24h-.147c.147-.12.294-.12.294-.24zm-168.455-20.568c.147.12 0 .24 0 .36-.293-.121 0-.24 0-.36zm66.601 35.496c.147-.12.293-.119.44.001-.147.12-.294.12-.44 0zm69.611-9.35c-.147.24-.147.24-.44.12.147 0 .293 0 .44-.12zm4.543-.951c.147-.12.147-.12 0 0 .147-.12.293 0 .44 0-.147.12-.293 0-.44 0zm20.372-3.442c-.147.12-.293.12-.439 0h.146c.147-.12.293 0 .293 0zm-67.433-61.403c0-.12 0-.24.146-.24.147.24 0 .24-.146.24zm27.717 67.57s0-.12 0 0c.146-.12.146-.12.293 0zm34.439-4.976c.001-.12.001-.12 0 0 .001-.12.147-.12.294-.12l.146.12c-.293-.12-.293 0-.44 0zm13.873-56.462c-.293.12-.293.12-.439 0zm-80.109 62.94c.147.12.293.12.293.12-.146 0-.146.12-.293.12zm79.427-8.973c0 .12-.147.24-.293.24v-.12s.147-.12.293-.12zm-9.424-55.423c.146 0 .146 0 0 0 .146 0 .146.12.146.12h-.147c.147 0 .147 0 .001-.12zm-114.399 65.756c.147 0 .294-.12.44-.12 0 .12-.147.24-.44.12zm29.868-70.225c0 .12-.147.12-.293.12v-.12zm94.982 59.414h-.293c.146-.24.146-.12.293 0zm-67.707 9.474s-.147.12 0 0c-.147.12-.147.12-.293 0v-.12c.147.12.147.12.293.12zm-10.424-69.697c-.147 0-.147.12-.294.119l-.146-.12h.44c-.147-.12 0 0 0 0zm-72.398 10.304c-.147.24-.147.24-.293.12.146 0 .293-.12.293-.12zm63.335 59.118c0-.24.147-.12.294-.12v.12zm-6.166 7.185c0 .12 0 .12 0 0-.147.12-.293 0-.44 0v-.12c.147.12.293.12.44.12zm61.699-9.364c0 .24 0 .24-.147.24.147 0 .147-.12.147-.24zm-3.956-.127s.001-.12 0 0c.147 0 .147 0 .293.12h-.146zm.44-.24c.147 0 .147 0 0 0 .147 0 .147.12.293.12-.146 0-.293 0-.293-.12zm41.773-9.16c.147-.12.293-.119.293.12-.147 0-.147 0-.293-.12zm-93.79 11.466h-.146l-.146-.12.147-.12c0 .12 0 .12.146.24zm50.078-65.152c-.146 0-.293 0-.44.12.294-.12.294-.24.44-.12zm42.69 51.526c.147.12 0 .12 0 .24h-.147c.001-.12.001-.24.147-.24zm-19.54-51.484c-.146-.12-.146-.12-.146-.24.147 0 .293 0 .146.24zm-63.58-4.191-.293.239c0-.24 0-.36.294-.24zm4.249.607.293-.24c.146.24 0 .24-.293.24zm31.672 68.176c-.001.12-.001.12-.147.24v-.12c0-.12 0-.12.147-.12zm-125.095-16.054c.147-.12.147-.24.293 0zm118.037-52.078c.147-.12.147-.12.293 0l.146.12h-.146c-.293 0-.293 0-.293-.12zm16.436 67.31s-.147-.001 0 0c0-.12.147-.12.293-.24v.12c-.147.12-.293.12-.293.12zm-49.842-67.131c0 .12 0 .12 0 0-.146.12-.293 0-.293 0v-.12c.147.12.293.12.293.12zm.756 69.44c.146-.12.146-.12.293 0zm39.856-2.567c-.293.12-.293 0-.293-.24zm-65.082-65.476c.146 0 .146.12.293.12-.147.12-.293.12-.293-.12zm113.677 10.036c.146 0 .146 0 .293.12-.147 0-.147 0-.293-.12zm-114.263-10.156c0-.12 0-.12 0 0 .147-.12.147-.24.293 0zm118.216 11.484c.147.12.147.12 0 .24zm-99.584 57.146s0 .12 0 0h-.293zm-71.985-56.134v-.24h.147c0 .12-.147.12-.147.24zm180.788 5.48c.147-.12.147-.12 0 0 .147-.12.147 0 .293 0v.12c-.146-.12-.146-.12-.293-.12zm-190.911 2.057v.12s-.147 0-.147.12c0-.12.147-.24.147-.24zm197.778 8.867c0 .12 0 .12-.293.12.146 0 .146-.12.293-.12zm-1.181 4.795c.147 0 .147 0 0 0 .147.12.147.12 0 .24zm-163.165-29.073c-.146-.12-.146-.12-.292-.12.146 0 .293-.12.292.12zm70.214 63.568c0-.12.147-.12.147-.12l-.001.12zm85.891-19.156v.12h-.146c.146 0 0 0 .146-.12-.146 0 0 0 0 0zm-10.408 3.46c0-.12.146-.12.147-.24l-.001.12s0 .12-.146.12zm-90.426 15.07c.146 0 .146.12.146.12h-.147v-.12zm89.394-11.954s0 .12 0 0v.12c-.146 0-.146 0 0-.12-.146.12-.146 0 0 0zm-69.615 11.99c0 .12 0 .12 0 0-.147.12-.147.12-.293.12v-.12c0 .12.146 0 .293 0zm60.383-10.806v.12h-.147s0-.12.147-.12c-.147 0-.147 0 0 0zm-47.049 10.35c-.147-.12-.147-.12-.147-.24h.293c-.146 0-.146.12-.146.24zm43.971-9.636c.146 0 .146.12.146.24h-.147zm-63.921-59.36c.146.12.146.12 0 0v.24h-.147c.147-.12.147-.12.147-.24zm-15.824.212c0-.12.147-.12.294-.12v.12zm68.019 61.765v.24h-.147c0-.12.001-.24.147-.24zm-66.847-61.524s.146 0 0 0c.146 0 .293 0 .146.24 0-.12 0-.12-.146-.24zm63.767 63.556c.146 0 .146-.12 0 0 .146-.12.146 0 .293 0v.12c0-.12-.147-.12-.293-.12zm-1.612.237c-.147 0-.147 0 0 0 0-.12.146-.12.293-.12l.146.12zm-11.872 2.017c-.146 0-.146.12-.146.12l-.147-.12zm4.691-1.19c0 .12 0 .12 0 0l-.147.12v-.12zm2.017-63.2c-.146.12-.293.12-.292-.12.146.12.292.12.292.12zm-78.677-.38c0 .12.146.12.146.12s0 .12-.146.12c0 0-.147 0-.147-.12 0 0 0-.12.147-.12zm5.275-.35s-.146 0-.147.12h-.146c.147-.12.147-.24.293-.12 0-.12 0 0 0 0zm1.612-.237v.24c-.293 0-.147-.12 0-.24zm-43.774 63.246c0 .12 0 .12 0 0h-.146v-.12c0 .12.146.12.146.12zm111.198 3.316c-.146.12-.146 0-.146 0 0-.12 0-.12.146 0 .001-.12.001-.12 0 0zm-57.314-66.543h-.147v-.12c0 .12 0 .12.147.12zm61.862 63.193s-.146.12 0 0c-.146.12-.146 0-.293 0h.293c-.146-.12-.146 0 0 0zm5.277-.95s-.147 0 0 0v-.24h.147c-.147.12-.147.24-.147.24zm-1.611-.363c-.001.12-.147.12 0 0l-.147.12s0-.12.147-.12c-.147 0-.147 0 0 0zm-21.546 4.64v.12l-.147-.001.147-.12zm-39.587-66.753c0-.12-.146-.12-.146-.24.293 0 .293 0 .146.24zm64.755 2.394h-.293zm-88.476 71.92h-.146c.146-.12.146 0 .146 0zm98.921-13.376c-.147 0-.147.12-.147.12l.001-.12v-.12c0 .12-.001.12.146.12zm-111.393-58.243c0-.12.146-.12.146-.12 0 .12 0 .12-.146.12zm49.967-3.149c-.001.12-.001.12-.294.12.147-.12.294-.12.294-.12zm15.823-.092c0 .12 0 .12 0 0 .147.12 0 .12 0 .12zm-15.237-.147c.146.12 0 .12 0 .24h-.147c.147-.12.147-.12.147-.24zm63.627 59.598c0 .12 0 .12 0 0h-.293l.001-.12zm7.473-.106v-.12c.146.12.146.12 0 .12zm-65.679-59.362s0-.12 0 0c.147-.12.293 0 .293 0zm-61.983 4.087a3909373629815507.5 3909373629815507.5 0 0 0 0 0zm39.736 64.832h-.146l-.146-.12c.146.12.146 0 .292.12 0-.12 0 0 0 0zm83.092-10.405.001-.24h.146c0 .12-.147.24-.147.24zm-97.743 10.499c0 .24 0 .24-.147.12.147 0 .147-.12.147-.12zm100.528-11.094c0 .12 0 .12 0 0 .146.12 0 .12 0 .12 0 .12-.147.12 0-.12-.147.12 0 .12 0 0zm-50.861 11.902c-.147 0-.147 0 0 0-.147 0-.147-.12-.147-.12h.147zm61.418-16.56c.001-.12.147-.12.147-.12v.12zm-64.349 16.555h.293v.12c-.146 0-.293 0-.293-.12zm-27.837.07v-.12zm-5.568-.01c-.146 0-.146-.12-.146-.12.146 0 .146 0 .146.12zm-1.477 6.594c0-.12.147-.12.147-.12 0 .12 0 .12-.147.12zm87.155-70.603.001-.12h.146zm-90.953 64v.12h-.146c.146 0 .146 0 .147-.12-.147 0 0 0 0 0zm-51.169-61.735c0-.12.147-.12.147-.12v.12h-.146z" fill="#ffbe18"/></svg>