<svg fill="none" viewBox="0 0 522 19" xmlns="http://www.w3.org/2000/svg"><path d="M96 17.7l.4-.4c-.7 0-1 .2-1.4.5l-.9.6c-.2.2 0 0-.2 0l.2-.5h-.4l-2.3.4a4 4 0 0 0-.7.3l-.2-.4H90l.4-.2-.4-.3s0-.2-.4-.2v.5H89a2 2 0 0 0-.7 0l-.6.3c-.2.1-.9 0-1.2.3l-.6.2H85l-1 .1h-.5l.8-.2.5-.1.2-.3V18l-.4-.2-1.5.4-1.5.4v-.1l-.3-.2-.5.3c-.5 0-1 0-1.6-.2-.2 0-.5-.1-.8 0-.5 0-1 0-1.6-.2-.4 0-.8-.3-1-.6a1 1 0 0 0-.4-.2 2 2 0 0 0-.7 0c-1 0-2.1-.3-2.9-.6l-.9-.4-.2-.3a3 3 0 0 1-.8 0l-.7-.1-.4-.1-.7-.1-.5-.3-.9-.3c-.5 0-1-.1-1.3-.3l-2.2-.6-1.8-.7-.4-.1c-.6-.1-.8-.3-.6-.5l-1.1-.4-.8-.2c-.3 0-.5-.3-.8-.4a8 8 0 0 0-1.3-.5c-.7-.2-1.4-.5-2-.9v-.3h-.5c-1.3-.7-2.5-1.4-3.4-2.2-.3-.2-.5-.4-.9-.5l-1.7-1c-.6-.4-1.4-.7-2.2-.8-.9-.2-1.8-.2-2.7-.1h-3.7l-.6.3h-.6l-.9.1-.4.3h-.6l-1 .2-.4-.2h-.4c0 .2-.5.4-.7.5a2 2 0 0 1-.5.2 3 3 0 0 1-.6 0l-1.5.3c-.2.1-.4.3-1 .3l-2.5.7-.8.2A7 7 0 0 0 25 9c-.6.2-1.2.4-2 .4a5 5 0 0 0-2 .7l-.8.3-.4.1c-.2 0-.3.1-.3.2l-.5.3c-.3 0-.7.2-.5.4l-.2.2-2.3.9c-.4.5-1.4.5-2.1.7-.3.5-.5.6-1.6.7-.2.3-1 .4-1.4.6l-.6.1c0 .1-.6.7-1.3.8l-.2.2-.5.3-.7.5c-.1.3-.7.5-1 .7h-1l-2-.5c-.4 0-.9-.2-1.3-.4l-1.7-1-.6-.7c.5-.1 1 .3 1.5.1l-.3-.3-.1-.3h1.4l1.3-.6c.4-.2.6-.5 1.3-.5.3-.4.8-.7 1.3-1l3-1.3 2-1L14 8l.2-.1c.8-.1 1.2-.5 2-.7 1-.5 2-.8 3.3-1.1l1.4-.5 3.5-1a50.3 50.3 0 0 1 7.7-2c.7-.3 1.5-.4 2.3-.5.5 0 1-.2 1.4-.3 1-.3 2.3-.4 3.5-.5L43 1a46.2 46.2 0 0 1 5.9.3l.7.1.4.1c.8-.4 1.7-.4 2.4.2h.6l.5.2h.7l1.4.5.7.6.5.3.7.1h.3c0 .3.5.4 1 .6l1.4.5h.2c0 .5 1 .7 1.2 1l.5.1.7.4c.5.4.6 1 1.6 1.2.6.1 1.1.4 1.5.7l.5.2.5.1A7 7 0 0 0 69 9l.9.3 1 .4 1.4.3 1 .3 1.5.4 2.4.5a74 74 0 0 0 4.6.6c.8-.1 1.6-.3 2.6-.3.9 0 1.8-.2 2.7-.4 1.5-.2 3-.6 4.4-1l2.7-.5 1.4-.3 2.9-.7L101 8l2-.4a44.2 44.2 0 0 1 6.5-1 57 57 0 0 0 4.5-.7l1-.3 3-.5 3.5-.4c.3 0 .6-.2.8-.3h.4c1 0 1.7-.3 2.6-.4h1a1.8 1.8 0 0 0 .8-.1 9.3 9.3 0 0 1 2.7-.3l.7-.2h1.8a7 7 0 0 1 3.5 0l.2-.2.6.1h1.4V3c.5.1.9 0 1-.2h1.1l.9.3.9.1c.3 0 .2-.4.7-.3.3 0 .5.2.8.3h1.1c.4 0 .7 0 1 .2l.2-.2c-.6-.2-1.6-.2-1.9-.6h.7c0 .1.4.3.8.3h3.4c.3 0 .6-.3.8-.3h.9l1 .1V3c1 .1 2 .4 3.1 0v-.3h.1l1 .5.3-.3h.7l.3.2h1c.5 0 .7.2.8.4l.2.2 1-.3 1 .3c.4 0 .8 0 1 .2a5 5 0 0 1 2.6.2l.7.2c-.2 0-.3.2-.4.3-.3.2 0 .3.3.3h1.2c.3 0 0-.3-.2-.5V4h.1a8.3 8.3 0 0 1 2.8.7c.7 0 1 .3 1.7.3v.3l.2.1h.2c0 .1.1.1.2 0 1 0 1.6.3 2.3.6l.7.1 2.2.2 1.3.2 1 .2 3-.1 2.5-.3 2.4-.3 1-.1h.2a15 15 0 0 1 2.6-.4l3.3-.5 4.6-.7L203 4c1.4 0 2.6-.3 4-.4l1 .1c.2-.2.4-.3 1-.2.9-.1 1.7-.2 2.6-.1h2.5l1.1-.2 1 .4h.4l1-.2 1.5-.2.4.2h2.6l.1-.2.3-.1a1.4 1.4 0 0 1 .7 0l.7-.1-.2.2c-.1.2 0 .3.4.2l.9-.1c0-.3-.6-.3-.8-.5.7-.2 1-.2 1.1.3l.4-.1.3-.2.6.2.4.3 1.4-.5s0 .3.2.3h1.4c.7 0 .7 0 1.2-.3l.5.3h.6l.8.2 1.3.1h2.3l.4.2c.2 0 .3 0 .4-.2.2 0 .3-.2.5-.3h1.1a2.3 2.3 0 0 0 1.3 0c.5.2 0 .4 0 .6l1.2.3h1l.9-.2-.6-.4h1.5l.2.4-.3.1c-.2.1-.3.2 0 .4.3 0 .4.1.8 0l.5-.2c.5 0 1 0 1.2-.3h.4l.2.5.5-.4c.2 0 .3 0 .4.2l.1.2.1.1.2.1c.5.1 1 .1 1.6 0l-.5-.4h-.3v.1l1.1.1c0 .2.6.3.4.6l1 .3 1.3.2.6.2 1.4-.2c0-.2-.3-.4-.6-.5l.2-.1a1.4 1.4 0 0 1 .7 0h.2l.8.3h.4l.6.3.8.2c.5.3 1.3.2 2 .2h.8v-.2h.5l1.9.4.2-.2c.3.1.6.2 1 0 .5-.2.4.1.5.3h15.1l.6.1c.3-.1.8-.4 1.3-.1 1-.2 2.2-.2 3.3-.2 1 0 2-.2 2.9 0h.3c1 0 1 0 1.7.2l.4-.4 1.3-.1c.5.4 1.3.1 2 .3l.6.5c.5-.2 1.2-.2 1.2-.7h1.3l1.2.1.7-.2v.3a11.9 11.9 0 0 1 2.4-.2l.6-.1 2 .1h.4c.6.2 1 0 1.2-.2a3.3 3.3 0 0 1 1.1.4h.4a1.9 1.9 0 0 0 .7 0c.7-.3 1.3-.2 2-.3h2.6a8959.2 8959.2 0 0 1 1.4 0 3 3 0 0 1 2.2.2h-.7l-.4.6c.7-.2 1.4-.2 2 0h1.3l.2-.1.2-.2-.4-.2-.8-.1 1.3-.3a9 9 0 0 1 2.6.3l.7-.2.8.1c0 .3-1 .4-.7.8a4.6 4.6 0 0 1 2 .1l1 .1h2.1c-.2-.3.2-.7-.7-.8l1.6-.3c.3 0 .8.3 1-.2.4.2.4.2 1 0l.7.3c.6-.3.6-.3 1.2 0 .6.2.4 0 .7 0l.5-.3.7.3c.8.3.9.3 1.6 0l.2.3h1.5l.6.4h.2c-.2-.3.1-.5.6-.5l.1.2c.6 0 .9 0 1-.4.2.3.5.5.2.7.7.2 1.4.2 2.1.1.6 0 1.1-.1 1.5.2.7 0 1.3.3 2 .1.6-.1.6.1.8.2l2.5-.6-.7-.1-.6-.1-.5-.2.3-.3.3.2c.5-.3 1.3.2 1.7-.2l.6.3h5.6a10.2 10.2 0 0 0 3 0l.4.1.6.2h1.1a2.8 2.8 0 0 0 1.5 0c.5 0 0 .3 0 .4l-1-.2c-.4 0-.8 0-1.2.2-.8-.2-1.7-.2-2.6-.2l-2.2-.1h-2.6c-.4 0-.6.1-.6.4h1.1l.4.2c.5.3 1 .2 1.6.2h4.8c.5.1 1 0 1.6.2h1.8V7l.5.1-.3.3.3.1c.5.1.5 0 .7-.2.3.3.5.3 1 .2h1.6a1.6 1.6 0 0 1 .9 0h.2c.6-.2 1.1 0 1.8.2.8-.4 1.7-.2 2.6 0l.8-.4c.2 0 .8-.2 1.2.2.4 0 1 0 1.2.2l.8-.2h1.5a4.2 4.2 0 0 1 1.7-.1h.8c.3-.2 1-.2.7-.7.1.3.8 0 .9.4 0 .4.4.4.7.6a4.5 4.5 0 0 0 2 0h1.4l1.5.1.5.2h-.9c.4.6 1 .8 1.7.6.4 0 .7.3 1.2 0h.3a3.9 3.9 0 0 0 1.7-.1l.7.2 1.9.1-.3-.6a2 2 0 0 1-.7.1c-.3 0-.6 0-.7-.2-1.4.3-3 0-4.3.3l-.3-.5c.3-.2.7-.3 1.1-.3h2.2a4 4 0 0 1 1.6.2h3.3l.5.1h.6l.4-.1.6-.1h1l.6-.4-4.9-.5.7-.2c.8.1 1.7-.1 2.4.1.8-.3 1.5 0 2.3 0h.7c.7.1 1.5.2 2.2.1h.7L402 7c.4.2.6.3.3.5.3 0 .3.2.3.4l.8-.1.4.2-1 .5c.3.2.7.3 1.2.3h1.4c.6.3 1.4.5 2.3.7.7 0 .8 0 1-.3l.3-.1h.3l.7.3h.4v-.2c.5-.2 1 .3 1.5 0l.6.1.5-.1 1.1.3c.3-.3 1.3 0 1.5-.4-.2-.2-.9-.2-.6-.5-1-.1-1.9 0-2.8.1a2.1 2.1 0 0 1-1.2 0c.4-.2 1.3 0 1.3-.5a8 8 0 0 0 2.1 0h3.5c.2 0 .2-.1.3-.2v-.2h-.2a.8.8 0 0 0-.3 0h-.3l-1.5-.3.8-.2.8.2h.9c1 0 2 .2 2.9.5h-1.4c-.2 0-.4 0-.5.2l.4.2a4.3 4.3 0 0 0 2.7-.3c0-.1-.4-.3.3-.4.3.4 1 .3 1.5.3h2.6c.6 0 1.2.3 1.8 0l.5.1 1.2.4-.2.1h-.4l-2.3-.3v.1l-1.3.3.1.3.5.2h1.5c.4 0 .8 0 .9-.4h.2c.1-.1.1 0 .1 0 .2.3.2.3 1.2.3s1-.2 1.7-.2c-.4-.3-1.1-.1-1.5-.3 1-.4 1.1-.4 2-.1.4.2 1 .3 1.5.2h.6l.5.3c.3.2.5.2.8 0l.5-.2 1.1-.2h.6l-.4.2c1.1 0 1.1 0 1.7.4a8.3 8.3 0 0 1 2.8-.2c.4-.2.8 0 1.3 0l1.2.2a2.1 2.1 0 0 0 1.1 0c.7-.1.8-.1 1.3.2.6.4.9.2 1.4-.1.3.3.8.3 1.3 0 .3.5 1 .3 1.6.4l-1-.3.3-.1 1.6.5.7-.2c.4.3 1 .3 1.5.2s1-.3 1.3.1h1.3l.5-.1-.5.4h1.1c1 0 2 0 3 .2a9.3 9.3 0 0 0 1.7.2l1-.1c.3.3.6.3 1.1 0 .7 0 1.4.4 2.3.1.2.2.5.3.9.4h1l.9.3.3-.4 1 .4c1-.2 1.8 0 2.6.2s.7.2 1.2-.1l1.5.4.3-.1.8-.2c.3 0 .5 0 .7.2h.4c.1.1 0 .1-.1.2h-.2l-.1.1v.2l.3.2h1.9l-.8-.3-.1-.3h-1l1.6-.2c1.2 0 2.2.3 3.3.3a3.5 3.5 0 0 0 2 0h1.2l-.6.5-1.5-.4c0 .1-.2.3 0 .4.2 0 .1.3 0 .5l1 .2 2-.5-.3-.5h1.4l-.4.3c0 .1-.4.4 0 .5l1.8.1.2-.2c-.6-.1-.9-.3-.4-.6.5 0 1-.1 1.4.2l.7-.3.6.2c0 .2-.2.4-.4.5l-.6.2c.6.4 1.2 0 1.8 0l.7.3.5-.5-1.5-.4a4.4 4.4 0 0 1 2.1-.1l-.3.2.6.2-.3.2c.2.2.4.4 1 .3h.2c.6.2 1 0 1.5-.2.3 0 .6-.2.7-.4l1-.1c.2.1 0 .2-.1.3l-.2.3.2.2.5.1h.6l.1-.2 1.6.1.5.1h.4c.3 0 .3.3.8.3s.6-.3.7-.5l.7.1c.4.2 1 .2 1.5.2.6 0 .8-.1.5-.4l-.2-.2c-.4.2-1 .2-1.5.1h-3c-.4 0-.6-.2-.5-.4l.3-.3.6.4 1.3.1h.5c.3-.1.8 0 1-.2.7-.2 1.3 0 1.9 0l.6.2s-.5.2-.4.3c0 .1.1.2.3.2h.8s.8 0 1.1.3l.6-.4.5.4 1.4-.3-.8-.3.4-.3.8.6 2.6.1h.7c.4.3 1.1.3 1.8.2.7 0 .9 0 1.2.3.3.4.2.3.6.3s.4.2.5.3l-1-.1-.3-.1a1.8 1.8 0 0 0-.8 0h-.3c-1-.3-1.2-.3-1.7.2l-.4-.1a1 1 0 0 0-.4-.1 1 1 0 0 0-.4 0l-.4.1h-.4l-1-.3c.3-.1.5-.3 1-.1h1.3v-.2l-.2-.1c-.9 0-1.8-.2-2.6.1l.3.4h-.8v.4h-.4l-3-.3h-.9v.3l-.8-.3h-1l-.7-.4c-.2.4.5.5.5.8l-1.6-.2.3-.2-1-.4c0 .4-.8.1-1.1.4l-.6-.3.5-.1-1.5-.4h-.3c-.6.2-1 0-1.7 0l.2.6c-.3 0-.4.3-1 .2l-.2.2H494a4 4 0 0 0-.7 0h-1l.3-.1.3-.1-1-.5c-.3.1-.9 0-1.1.4-.9 0-.9.3-1.2.6.6.2 1 .2 2.1 0v.4l1.8-.3.9-.1 1.3-.1.7.4c.2.2.4.2.8.2.3 0-.3-.4.2-.5a13 13 0 0 0 2.4.1v-.1c.9.2 1.8.4 2.8.4l-.8.3.2.3-.5-.2v.2c-.7.1-1.5 0-2.2.3 0 .2.4.2.7.2a28.1 28.1 0 0 1 3.8 0h.6c-.3-.5-1.2-.1-1.6-.3v-1h.7c-.1.6.8.5 1.4.6 0-.3.9-.3.7-.6.3 0 .6 0 .8.2.2 0 .4.2.4.4h1.6l-.4.2h-2l-.6.1-.2.3c.4.1.7 0 .8-.1h2.7c.6 0 .8 0 1.1-.3l-.7-.1-1-.1a1 1 0 0 1-.1-.2V15a46.1 46.1 0 0 1 5.1 0l.6.3.4.2h.4c.7-.4.8-.4 1.6-.2a5 5 0 0 1-1.9.3c-.4 0-.8 0-1.2.2-.4 0-.7.1-1-.1-.4-.3-.7-.2-1-.2-.9.4-.9.4-.7.7h1.5c-.7 0-1.3.4-2 .2h-.6c-.3.1-.5.2-.8 0h-.1c-.6.2-1.5 0-2 .4-.5-.3-1.2-.3-1.8-.4l-.3.4h-.2l-.3-.5c-.7 0-1.4-.1-2.1.2h-.7c-.3 0-1.1 0-1.4.3l-1-.4h-1.2v.4c-.7.2-.8-.4-1.4-.3 0 .1.3.4-.4.4 0-.1 0-.2-.2-.3a1 1 0 0 0-.4-.2l-.2-.4.2-.3.9.5c.2 0 .4-.1.3-.2a1 1 0 0 0-.5-.4l-.8-.1h-.5a.5.5 0 0 1-.2-.2l-.3-.2c-.8 0-1.6 0-2.3.2l1 .4.2-.4c.7.4.7.4.2.9 0 .4.9 0 1 .2a2 2 0 0 1-1.4 0v.2a9 9 0 0 1-1 .2h-.8a2.5 2.5 0 0 0-1.3.1l-.2.2v.2l.2.1c.2 0 .3.2.4.3l-1.5.2c-.2 0-.4 0-.6-.2-.2 0-.3-.3-.7-.2 0 0-.2-.1 0-.2l.3-.3c-.4-.2-1-.1-1.4-.2-.5 0-.8 0-1-.2-.4-.2-1 0-1.2.1l-.5.4c.3.2.2.4.3.5h-.1a5 5 0 0 0-1.2 0l-.9.3c.5.1 1.1.1 1.6 0 .3 0 .5 0 .5.2l-1.7.2c-.5-.4-1.1-.7-1.9-1-.1.2-.3.3-.6.3h-.7c-.4 0-.6.2-.9.3h-.6l-.3.4c-.5-.1-.4-.3 0-.5l-.5-.2.1-.2h-.5c-.5-.2 0-.5-.7-.7l-.2.4-.9-.2-.7.5h-.2l-.3.1h-2l-.2.3-.4-.3-.7-.3-2-.2c-.2.3-.4.6-.3 1h1.4l-.2.3-.6-.2c-.5-.1-.6-.2-1 0l-.3.1h-.2a1.2 1.2 0 0 1-.5 0h-1l-1.5-.2c.4-.2.9-.3 1.3-.3l1.5.1.3-.1v-.2l-.4-.1c-.7.2-1.4 0-2-.1l-1.9-.1h-1.4l.4-.4h-.8l-1.2.2h-.9l-.8.3.7.3h2.9c.3.2.8 0 1.1.2l.4.1s-.2.2-.4.1l-2.4-.1-1.3.1-.7-.2c-1-.3-1.4-.2-2.3.2-.5-.2-1 0-1.5-.3-.5-.2-.6 0-1 0-.3-.4-.8-.5-1.7-.1-.5-.2.2-.3.2-.4L450 17l-1.6.1c0-.2.5-.1.7-.2-.3-.2-.7-.2-1-.2h-.9l-.7-.2-1 .5-.3-.2-.4-.2-1.3.2-.7.4h4.5c.2.3.2.3-.2.6H446c-.7-.4-1.8-.2-2.6-.4l-.2.5-1.1-.1 1-.2c-.2-.4-.8 0-1.2-.2-.3-.2-.7 0-1.1 0v.3l-1.1-.2-.3.3h-1l.6-.3c.2 0 .2-.2.3-.3h.7c.6 0 1.3 0 1.6-.4l.5-.2c-.4-.3-.4-.3-1-.1h-.4c-.3-.3-.6-.3-1-.2l-.4.1h-.5l-.7.1v.4h-.5l-.3.6.3.3h-.5l-1-.5h-.8l-.6-.2h-.8l-1.2-.1-.2.2-1-.2c-.2.3-.2.3.6.6h-1.3l-.3-.4-3.5-.3h1.1l1.4-.1 1.3-.2c.1.1.2.3.4.3h.8c.3-.2.7-.2.9-.4l-.8-.2h-1l-2.3.2c.3-.3.5-.4 0-.6h-.8l-.1.2c-.5 0-1-.2-1.4.1l-.5.1h-.7l-.3.2h.1l.2.1h.5c.5 0 .7 0 .8.3l-1.2.3c0-.2-.2-.3-.4-.4h-1v.2l-1.7-.5-.1.1.4.5h-1c.2 0 .2-.2.3-.2v-.3a1.3 1.3 0 0 0-.6 0 8 8 0 0 0-1 .5h-.9l-.3-.6.8-.1.4-.6c-.4-.1-.8-.4-1.4 0h-.3a3 3 0 0 0-.4 0c-.9 0-.9 0-1.2-.3h-.2a9 9 0 0 0-.6 0v.4l-.8-.3c-.7.1 0 .4-.2.6a12 12 0 0 1-1.6-.2l.4-.3c0-.3-.6-.4-1-.4 0-.2.4-.2.6-.3-.5-.5-.8-.5-1.5-.1l.6.1.2.3v.2l-1.7-.3.2.3-.8.1c-.5-.1 0-.3 0-.4-.7-.2-.8-.2-1.2.2-.4-.1-.8-.1-.9-.4l-.6-.3h.8l-.7-.2h-.7v.4l-.7-.2c-.4-.1-.7 0-.7.2 0 .3.3.5.7.7.3.2.9.3 1.4.3l.7.1 1 .3h1.3c.3-.1.5 0 .6.2v.4l-1.7-.4-1.3.2h-2.3l-.4-.3h-.6c-.4 0-.5.1-.6.3 0 .2-.2.3-.3.4h-.2l.2-.3c0-.2 0-.3-.5-.3l-.9.2c-.5-.4-1.4 0-2.3-.2l.9.4-1.4.1c-.3 0-.7 0-.6-.2h.6v-.3h-.2l-.3.3-1.4-.2a2.9 2.9 0 0 0-1.9 0v-.2h-.7l-.1.6c-.4 0-.2-.3-.6-.3-.3 0-.3-.2-.4-.3l1-.4c.2 0 0-.1 0-.2l-.2-.2v-.3h.3l-.2-.2-.2-.1-.4-.1a1.7 1.7 0 0 0-.7 0 2 2 0 0 1-.4 0l-.6.1-.4.2-.5.2a3 3 0 0 0-.8-.2 4 4 0 0 0-1 0 2 2 0 0 0-.4 0l-.4.1-.3.1a1.5 1.5 0 0 1-.9 0l-.6-.2c-.8-.3-.9-.3-1 .3h1.7l2.4.2c.7 0 .8 0 .8.4l.2.4a3 3 0 0 1-.7-.2c-.2 0-.3-.2-.5-.3l-.4-.2c-.7 0-1.5-.1-2.2.1l-.6.2a4 4 0 0 1-1.1.3 5 5 0 0 1-1.3 0h-.5a5 5 0 0 1-1 .1l-2-.1a9 9 0 0 1-1.7-.1l-1-.2.4-.3c0-.3 0-.4-.8-.4-.9 0-1.2-.2-1.8 0a3.6 3.6 0 0 0-2 0 25.9 25.9 0 0 0-5.2 0l-.3.3h-.2c0-.3-.2-.4-.6-.4l-4.4-.2-.2.2h-1.3c-.3.2-.2 0-.4 0l-1.6-.1h-1l-2 .1c-.2 0 0-.2 0-.3.3-.4.2-.4-.5-.6l-.7-.1-.6.1-1-.2-.2.2-1.3-.1v-.4a1 1 0 0 0-.5.2l-.1.2c0 .3.6.3 1 .4h-2l.3.5-.5.1c-.4-.3-1.2-.3-1.8-.6-.6.2-.6.6-1.4.6l-.3-.3c-.4 0-.6-.4-1.3-.2-.2.4.7.1.7.4h-.2c-.5-.2-1 0-1.4-.2-.7.1-1.4-.1-1.9.3-.2-.5-1-.4-1.6-.5-.6 0-1 .3-1.3.5h-.2l-.8-.3h-1.6c-.5 0-1.1-.1-1.6.2h-.5l-1.5-.4h.8v-.2l-.7-.2c-.8 0-1.6 0-2.4.2h-.9c-.5 0-1-.1-1.6 0-.3 0-.5 0-.8.2l-.5-.4-.2-.1-.2-.1a1.2 1.2 0 0 0-.6 0l-.3.3s-.4.2-.5.1a1.4 1.4 0 0 0-.6 0h-.3l-.2.2c-.4.3-1 .3-1.5.3 0-.5 1.1-.3 1.4-.7H324l-.4.2-.5.2a2 2 0 0 1-.6 0l-1.4.1c-.4.3-.3 0-.5 0h-2l-.3-.4H317v.3h-1.3l-.1.4c-.8 0-.7-.4-1.3-.5l-.2.2h-2.4v.4a3.5 3.5 0 0 1-1.5 0 2.5 2.5 0 0 0-1.1 0h-1c-1-.2-1.3-.1-2 .3l-.4.1v-.4a7 7 0 0 1 2.6-.3h.4c.6-.2.6-.2 1 0l.6-.4h-1.8l-.7.1a9 9 0 0 1-.7.1l.3-.2a10 10 0 0 1-1.2-.1 1 1 0 0 0-.5.1h-.1a.9.9 0 0 1-.5 0h-.3c-.7.1-.7.1-.7-.2-.6-.3-1 0-1.7 0h-.2c-.5-.3-1.2-.2-1.4.1-.2.4-.3.3-.6.2h-.7l-.6.2c1.1.3 1.5.5 2.5 0 .4 0 1 .1 1.5-.1l.4.1-.3.2h-.8l-.8-.1v.4l-.9.1h-.5a3.4 3.4 0 0 1-1.8 0 4 4 0 0 0-1 .2l-1 .1c.4-.3 1.2-.2 1.7-.4-.6-.3-1-.2-2 .1v-.3c-1-.2-2-.2-3 0a2.4 2.4 0 0 1-1.2 0c.8-.2 1.6-.3 2-.8 0 .3-.2.4.3.5l.4-.3.6-.2-.8-.6c-.2-.3-.3 0-.4 0l-.1.2h-.3c-.8 0-1.1 0-1.3.3l-.5.4c-.2.2-.5.2-.8.3-1.2 0-2.2.4-3.4.5h-.4a2.2 2.2 0 0 0-1.2.1l-1.3-.1v.4h-.2c-.4-.3-.4-.3-1-.2h-.2c-.8 0-1.6.1-2.3.3-.6.1-1.2-.3-1.8 0h-2.3c.3-.2.5-.5 1.3-.4v-.8a2.7 2.7 0 0 1 1.3 0c.3 0 .6.1.8 0 .1-.2-.2-.4-.6-.4a13.8 13.8 0 0 0-2 0c-1 0-2 .1-2.9.4h-.3v-.2c0-.1 0-.2-.3-.2s-.3.1-.2.2v.2l-.8.1-.6-.3-.7.2c.2.3.6.2 1 .2.3 0 0 .3-.4.3h-1l-.9.3h-.1l-.4-.5h.6c0-.3-.4-.3-.7-.3-1.2.1-1.2.1-1.6.8l-1.8-.2.6-.2 1-.1.7-.4c-.5-.2-.5-.2-1.1 0v-.3c.8 0 1.5-.2 2-.5l-.7-.3-.6.1-.6-.1-.2.4h-.7a3 3 0 0 0-1 0l-.6.3-.6.1c0-.3.6-.4 1.2-.6h-.6l-2 .1c-.4 0-.6 0-.9.2l.8.6 1.5-.3-1.4.5-1.5-.3-.5.1-1.3-.1c.7-.3 1.7-.1 2.2-.6-.3-.2-.8-.3-1.3-.3h-.8l-.7-.2c-.7.5-.7.5-.5.8h.7l-.2.2h-.7a3 3 0 0 1-1.2-.2h-.2s-.2-.1-.2 0c-.4 0-.4-.2-.5-.3h.8l.6-.2c-.6 0-.8-.5-1.6-.3a.8.8 0 0 1-.4 0c-.2-.1-.6 0-.8 0l-1.5-.3-.1-.1c-.1 0-1-.2-1.2 0-.8-.1-1.5-.4-2.4-.2h-.2c-.4-.2-.8 0-1.2 0-.5-.2-1.2-.3-2-.3s-1.7-.2-2.4-.5l-2-.2-1.9-.2-2.6-.4h-.3c-.6.2-1 0-1.1-.3l-1 .2a1.8 1.8 0 0 1-.9 0h-.9l-3.1-.4c-.3.3-.7.3-1.3.3h-1.4c-.3-.4.5 0 .5-.2 0-.4-.7-.4-1-.6-.7 0-1.2.2-1.6.4l-.5.1c-.7 0-1.5 0-2.2.2h-1.5v-.4l1.2.1v-.4c-.1-.3-.7-.3-1-.1a1 1 0 0 1-.4.2h-1.4l-.5.1-.3-.1-.4-.1a2 2 0 0 0-.8 0c.2.4-.5.6-1 .7l.3.4a2 2 0 0 1-.4 0l-1.2.1a2 2 0 0 0-1 .4c-.5.4-.8.4-2 .3.4-.3 1 0 1.5-.2 0-.3 0-.6.7-.6.2 0 .3 0 .4-.2l.4-.4c-.6-.3-1 .2-1.5.1l-.6-.1-.9.2c-.2 0 .5.4-.3.4V11c-.5 0-.5 0-.5.6l-1-.1-.6.1v-.3c-.5-.2-1 0-1.6 0l.8.8-1.4.6-.7-.2.7-.3a8 8 0 0 0-2.6-.1l-.7.3.3.7-1-.2-.5.6c-.2.2-.4.3-.8.2l.4-.5-1-.3c.2-.2.5-.3.2-.5a3 3 0 0 0-1.2.2h-.5c-.3 0-.5.2-.4.4 0 .2-.2.3-.4.4l-1.3.5-1 .4c-.7.2-.7.2-1.4 0l-.4.3c-.3 0-.7 0-.8.3H193l-1.7.5-1.4.2h-.8c-.2 0-.5 0-.7-.2-.5-.3-1.2-.2-1.9-.1l-1 .1a2 2 0 0 1 1-.5h-1c.3-.3 1.1-.3 1.6-.6h-1.6c-.5 0-1 0-1 .3l-.3.1a11.6 11.6 0 0 0-2.5.1v.3s-.6.3-1 .1l-1.3-.2a8 8 0 0 1-2-.2l-1-.1c-.5 0-1-.2-1.3-.4l-1.1-.4-.6-.1c-.2-.1-.8-.4-1.4-.2a.7.7 0 0 1-.2 0c-.6-.3-1.4-.4-2.1-.4l-1-.2-.6-.2a2 2 0 0 0-.6 0c-.3 0-.6 0-.8-.3-.1-.1-.3-.3-1-.2h-.2c-1.2-.4-2.6-.4-3.8-.8l-1.5-.3-1.3-.4-1.4-.3c-.3 0-.5-.2-.8-.3l-2.4-.3h-.3c-.4-.2-1 0-1.6-.2h-.6c-.7 0-1.5 0-2.2-.2-.3-.2-.8-.2-1.3-.2-.4 0-.9 0-1.3.2l-.6-.3-1 .1-.4.2a2 2 0 0 1-.6 0l-1.4-.1c-.5-.2-.3 0-.5 0l-1.8-.5h-.5v.3a2.4 2.4 0 0 1-1.3 0 3 3 0 0 0-1 0c-.3 0-.6.1-.8.3V9c-.8 0-1.1.4-1.7.6l-.3-.2c-.5.5-1.4.4-2.2.5l.2-.4h-1l-.4.3a2 2 0 0 1-.6.2c-.5.1-.5.2 0 .4l-1 .3.3-.3c-1.1-.2-1.3-.2-2.2.2l-.5.1-.2.3-.6-.2h-.9c-.3.1-.1.3 0 .4l.2.2c-.6 0-1.3-.2-1.6.2-1-.2-1.2.3-1.6.5-.5 0-.8-.2-.5-.4l-.1-.2-1.3.4v.3h-.6c-.3.2.1.5-.6.6l.2-.5c0-.2.2-.3 0-.4h-.7a4 4 0 0 0-1.5.5h-.2c-.7 0-1 .4-1.6.5s-.5.2 0 .5l-.8-.1-.7.1-2.2.5c-.2-.2-.4-.3-.9-.2l-1.8 1.2h-1.1l1.2-.4c.2 0 .3-.1.5-.3-.5 0-.8 0-1 .2l-.8.2c-.4 0-.8.2-1 .3l-1.6.6-.3-.5-1.1.2v.6c-.3 0-.6 0-.8.2-.3 0-.5.2-.6.3l-1.3.4-1 .2.6-.4.9-.3c.6 0 .9-.4 1.2-.8a9 9 0 0 0-3 1l-.4-.4c-.7.1-.7.2-.3.6l-.2.1c-.6.2-1.1.6-1.3 1l-.5-.4-.5.2-1.2.1zm384.8-2l-.1-.2-.6.2h.7c.2.4.4.2.7.1-.2-.2-.4 0-.7 0zm-43-5c-.4.3-.4.3.4.4v.3l.4-.2v-.3c-.2-.3-.6-.2-1-.2l.3-.3-.6-.3v.6h.4zm-29.7-.2a.7.7 0 0 0 .3 0v-.1h.1l-.4.1a3 3 0 0 0-.9.1c-.2 0-.8.2-1.3.1a3 3 0 0 0-.5 0l.8.2c1 .2 1.5.2 1.9-.4zm20.5 1c.4.3.4.3.9.1h-.9l-2.6-.2h-.5l.2.3h.4l1.5.2 1-.1zM311.3 6l2 .3h.6l.8-.2v-.3h-1.4a1 1 0 0 1-.3.1h-.4a2.1 2.1 0 0 0-1.1.1c-.5 0-1 0-1.3-.3-.4-.2-.5 0-.9 0a3 3 0 0 1-1.5.3l-.5.5h.7c.2 0 .4 0 .6-.2h.9l.8.2 1.3-.3zm54.8 2.2l-1.4.1.4-.4-.4-.2-.6.1c.5.2.3.3 0 .4l.4.3c.3.1.6.3 1 .3l2.8-.2.3-.3h2.3c.3 0 .6-.2.8-.3-.7 0-1.4-.3-2.3-.1h-2.6l-1-.1c-.3.2.2.2.4.4zm-171.7 5l-1.9.1-.1.3h-.9c0 .2 0 .3-.3.4h-.6c0 .2 0 .3-.2.4a4.3 4.3 0 0 1-.8.6v.2h.1l.7-.2h.2c1 .2 1.4.1 1.7-.4l.2-.3.5-.1c.5-.2 1-.2 1-.5l.5-.2 1.1-.3c.4-.1.2-.2.2-.2l-.2-.1h-.9l-.3.4zm253.9-.3h1.5l.3-.2.2.1.2.1a1.2 1.2 0 0 0 .5 0 2.8 2.8 0 0 1 1.3 0c.8.3 1.3.3 2 0-.3-.7-1.5-.8-2.5-1l-.4.4c-.6-.2-1.3-.2-1.9-.2h-1.6v.3l1.4.2zm2.6-2a4.3 4.3 0 0 1 2.3-.1 2.1 2.1 0 0 0 1 0 9 9 0 0 1 2.2-.3l1.3-.1-.6-.1-3-.3a1.4 1.4 0 0 0-.5.1h-.6l-1.8-.2h-.8l-.6-.2a9 9 0 0 0-1 .4l-.1.2.4.1h.3a2 2 0 0 1 .9 0l.3.2.2.2zm-35.1 3.7a3.6 3.6 0 0 1 1.5 0l2 .2.3-.4.3.2.5.1a2.4 2.4 0 0 0 1.1-.1l-1.3-.5h-.6c-.8.2-1.5-.1-2.2-.2h-2.1v.4zm67 .2c.2 0 .5-.2.7-.1a33 33 0 0 1 3.6.2l.8-.1.2.1.2.1.2.1h.5l.2-.1.1-.2v-.2l-.2-.1c-.4-.4-.9-.5-1.6-.3l-1 .3-1-.1c-.6 0-1.1 0-1.6-.2-.5 0-1.2.2-1.2.6zm-.6-.7h-1.8l-.3-.1a3.8 3.8 0 0 0-2 0l-.4.4.1.4.3.1h1l.1-.2h1.7c.8 0 1.2 0 1.3-.6zm-133-.6h-1c-.8.1-1.5.2-2.3.1h-1.8l-.8.2c-.3 0-.4-.4-1-.1l.9.3 3.4.1h2.8l-1-.3.4-.2zm46.7 2.2l.7.4c.2 0 .2.3.6.3h.2a28.6 28.6 0 0 0 3 0c.3 0 .4-.1.3-.3l-.3-.2 1.9-.2c-.8 0-1.6-.3-2.3 0h-.4c-.8 0-1.5 0-2.2-.2a3 3 0 0 0-1.6.2zm93.4.8c.6.2 1.4.3 2.1.2h.2c.5.2.9 0 1.2 0 0-.2-.2-.4-.4-.6l-1-.3c-.7 0-1.7-.2-2.3.2zM395 10c0 .3.3.5.9.5s1.3 0 1.9-.2c.1.2.3.4.8.3h.6c.2-.2 0-.3-.3-.4h-.2l.5-.2-.7-.4c-.6.1-1.3 0-1.9.2h-1.2l-.5.2zm71.6 1c-.6-.2-.7 0-.9.2-.2.1-.2.5.4.5h.6l.6.3.7-.2c.1.3.7 0 1 .2l.3.3 1.3-.2c0-.1-.1-.3-.3-.3l-.5-.3a.9.9 0 0 0-.9-.2 1.1 1.1 0 0 1-.6 0h-.5c-.6.3-1 0-1.5 0zM373 11l.9.1h2c.6 0 1.6.2 2.3-.2h.4c.1-.2.3-.2.5-.3h-5.2l-1 .4zm49.3-1.3h.8a37.2 37.2 0 0 0 3.6.1l.8-.2-1-.5h-1.6a4.1 4.1 0 0 1-2.3 0c-.2.2-.7.3-.5.5h.2zm19.6.8v-.1l1.9.1h.5c0-.2 0-.2-.2-.2l-2.3-.4-.1.2c-1.6-.4-1.8-.4-2.6.2l1.2.5a1 1 0 0 0 .4 0zm25 3a12.8 12.8 0 0 1 2 1c.7-.4 1.5-.3 2.4-.4l-.3-.4a5 5 0 0 0-1.3-.2h-3zm-91 .6c-.7.1-.6.4-1 .6-.3.2-.1.3-.3.3-.6 0-1 .4-1.7.4l-.4.1.5.2h1.8c0-.3.1-.4.6-.4h.5l.2-.2-.4-.4.7-.3-.4-.3zm-31.2 1l-1-.3c-.1-.1-.7-.3-1.2-.3h-.8l-.3.2c0-.2-.2-.3-.5-.3-.4 0-.4.1-.4.3v.4h1.8c.5-.2 1 0 1.2.2l1.2-.3zM334 8c0-.3.2-.5.8-.6l.7-.2h.9c.5.2.7 0 1-.3-1.1-.1-2.3 0-3.2-.3l-.6.6.1.7h.3zm127.1 4c.4.3.8.4 1 .2l.6-.3.8-.1-.4-.3-.2-.1H461c-.5 0-.8 0-.9.5zm-100.6 2.1l-.5-.4a20.6 20.6 0 0 0-2.2-.3 1 1 0 0 0-.1 1l.5.2h.3v-.2l-.5-.3zm121-1c.3.5.3.5 1 .5l1.7-.1v-.3l.7-.1c-.5-.2-1.1-.2-1.7-.2l-2 .2h.4zM351.2 9.5l-1-.2c0 .1 0 .2.2.3l.6.1.9.1h2.3l-.6-.5h-.6c-1 0-1.7-.1-2.1.2zm66.3 5.8c.8.4 1.9.2 2.6.5l1-.4c-.4-.3-.9-.4-1.2-.3a4 4 0 0 1-1.7-.1zM341 8.4l-1.3.8-.1.1v.1l.2.1c.2.2 1.3.2 1.4 0l.3-.2h.3l.6-.3c-.9-.2-1.5-.1-1.7-.6zM497.9 14l.6-.5c-.7 0-1.3-.2-1.9 0-.5.1-1.1.2-1.7.1 0 .3 0 .4.4.4h2.7zm-91.2-2c.4 0 .8 0 1.2-.3.3-.3.3-.2.2-.3h-.2l-.3-.1H406c-.3 0-.5.1-.5.2s.1.4.7.5h.6zM373 14.2c1.2.3 1.7.2 1.6-.5l-1.5.1a5 5 0 0 0-1.2.5c.1.2.5 0 .9 0h.2zm86.3-2.8c0-.2.3-.4.8-.4l.4-.3-.2-.2h-.8l-.2.2-1-.3c0 .2-.3.3-.2.5l.7.2c.2 0-.2.3.3.4h.2zm-82.3 3c.6.2 1 .3 1.7 0h.4l.9-.3-2-.4-.4.6h-.6zm94.7-.7l.9.4.4-.2a7 7 0 0 0 3.3.2l-2-.2-.6-.1c-.8-.2-1.4-.5-2.2-.1zm-124.3-3.2v-.3c-.1 0-.3-.3-.5-.3a6.2 6.2 0 0 0-2 .4c.3.2.7.3 1 .3l1.3-.1zM478.8 13c-.9-.1-.8-.1-1.5.1l-.6.2c-.6 0-.2.2-.2.4h-.9c.6.3.6.3 1.3.2.2 0 .4 0 .5-.2.2 0 .2-.1.3-.2l.2-.4.7-.1zm-122-5.4l-.4.1a6.8 6.8 0 0 0 2.8-.1l.1-.2c-.6-.1-1.2-.2-1.8-.1-1-.1-1 0-.8.3h.2zm-42.6-.4h.9a2.3 2.3 0 0 1 1.1 0 2.2 2.2 0 0 0 1.2-.1l-1-.4c-.2 0 0 .2-.5.1a4 4 0 0 0-1.2 0c-.4 0-.5.2-.7.4zm126 5.4h1.5l.5-.1.7-.4c-.5-.2-.7.1-1.2.2l-.3-.4h-.4c-.2 0-.2 0 0 .2zM377 15.3c.2.2.6.3 1 .4h1.2l.3-.6c-1 .1-1.8 0-2.7.2zm55.6-5.2l1 .2.7-.1c.2-.1.2-.3 0-.3l-1-.3h-.8v.5zM349 7.9c0-.5-.2-.6-1-.6-1 0-1.1.3-1.6.5h2.4zm-7.4-.5h-2.5l-.2.2c0 .1.2.2.5.2h.4c.7 0 1 0 1.7-.4zm140.5 5c.2.2.5.1.9.1l.9.1h.9a1 1 0 0 0-.5-.3l-.8-.2h-.8l-.8.2h.2zm-6.8 4.2c.9 0 1 .2 1.1.5.2.3.3.2.5.3l.8-.5-.8-.2-.2-.5c-.5.4-1.1 0-1.5.4zm-32-5.3c-.5-.6-.7-.7-1.7-.4l.2.4-.4.3 1-.1zm-11.7-1l.2-.6c0-.2 0-.2-.4-.2h-1.2v.3c.4 0 .6 0 .7.3 0 .3.2.3.5.2zm-52.3-2.2h2.7l.4-.2-1.5-.2a1 1 0 0 0-.4 0h-.6c-.7.1-.7.3-.7.5zm85.6 8.6l.4.3.6.1a3.1 3.1 0 0 0 1.3-.1l-.5-.2c-.3-.1-.4-.3-.8-.2zm-82.8-.2c.6-.1 1-.2 1.4 0s.6.1 1-.1v-.3h-1.7c-.4 0-.7.2-.8.4zm94.6-4l.3-.4v-.4a1.9 1.9 0 0 0-1 .1l-.1.2v.1l.2.2.5.2zm-13.9.5c-1-.2-1.3-.2-1.7 0l.7.5c.5 0 .8-.2 1-.5zm-33-3.6c-.5.2-.8.1-.9-.1l-.1-.1h-.2l-.3.1s0 .3-.2.5c1 .3 1.2.3 1.6-.3h.2zm6.4 8l1-.2-.6-.2.7-.3-.3-.2-1 .1-.1.4.2.4zm-31.5-1v.1h.2a.9.9 0 0 0 .4 0c.3 0 .6 0 .8-.2.1 0 0-.4-.4-.4-.3 0-.6 0-.6.2l-.5.4zm62.2-1.1c-.3-.4-.9-.4-1.7-.3.7.6.7.6 1.7.3zM393.1 11l1 .2 1.5-.3a5.3 5.3 0 0 0-2.5 0zm60.5 6.2l1.2.6c.7-.2.7-.2.6-.6zm-43-6.7c0 .4 0 .4.6.5h.3s.3.2.6 0c.2 0 0-.1 0-.3l-.2-.1h-1.3zM330.2 6l-2.6-.2.5.4s.4.2.5.1a26 26 0 0 0 1.7-.4h-.1zm133.1 5c0 .3 1 .3 1.2.6-.3-.4.7-.4.7-.7h-1.9zM293.8 7l1.1.4c.4.1.8 0 1-.2-.5-.2-1-.6-2-.3V7zm93.9 1.2l-1.4-.5-.3.6c1.1 0 1.2 0 1.8-.2zm-86.8.4c.3-.4 0-.6-1-.5v.5h1.1zm166.2 4c.3.2.9.1 1.4.2l.1-.4a2 2 0 0 0-1.4 0l-.1.1zM301 6h-1.7c0 .4.6.1.8.2l.4.4c.8-.2.8-.2.8-.6zm183.7 9a10.3 10.3 0 0 0-1 .1l-.2.1h.1l.2.2h1.2l.3-.1v-.2a5 5 0 0 0-.4-.2h-.2zM96.4 17l.2-.3c-.4-.3-.9-.2-1.3 0-.5.1-.2.2-.2.3zm319-1.6h-1.2l-.2.2s.1.2.3.2c.1 0 1-.2 1.2-.5l-.2.1zm55.7-.8l-1.7-.2.5.4c.2.1.6.2.9.1.3 0 .6-.3.5-.5zm-90 2l-1-.6h-.2l-.1.1v.2c.4.3 1 .1 1.4.2l-.2.1zm4-7.7c.8.2 1.2.2 2-.2-.5-.2-1 0-1.5 0 .1-.2 0 0-.2.1h-.2zM519.7 14a4.2 4.2 0 0 0-2.6.1c1 0 1.9 0 2.8-.2zM374.8 9c-.2.4-1 0-1.4.3a4.2 4.2 0 0 0 2 0zM475 13c-.7 0-1-.4-1.9-.2.3.3 1 .3 1.5.4zm3.4 3c-.7-.4-1-.5-1.6-.2 1 .2 1.2.3 1.8 0zm-4.6 1l-.5-.1-.2-.1-.6.1v.3c.6 0 1.2 0 1.5-.3h-.2zm36.3-3.2h-1l.3.5c1.1-.1 1.2-.1 1-.5zm-165.5 1c0 .4.6.4 1 .5.5 0 .6 0 .7-.3l-1.7-.1zm-19-7.5a3 3 0 0 0 1.4 0v-.4c-.2.2-.9 0-1.2.3l-.3.1zM91.7 17.1c-.4-.1-.7-.2-1.1 0 .2 0 .3.3.6.3.2 0 .7-.2.8-.5zm71.5-12h.1l.2-.5h-.1l-.2-.1h-.4v.4h.6zM393.6 9c-.6-.4-.9-.4-1.5-.1.7.2 1.3-.1 1.8 0h-.3zm-60.2 5.7c.5.1 1.1.1 1.6 0 .1-.4-.2-.4-1.3-.1zm-50.6-8.2c-1.1 0-1.3.2-1 .5.7 0 .6-.4 1-.5zm102.7 2l.2-.4c-.9-.2-.9-.2-1.1 0l.9.3zm85.7 3.1l-.2.1.4.4h.5c.2 0 0-.2 0-.3zm-183.6 2.2l1 .1c0-.2 0-.3-.3-.4-.3 0-.6 0-.7.2zm169.4 3c0-.2.3-.4-.4-.5l-.5.4 1 .1zm-6.9-5.6c-.3-.2-.8-.2-1.2-.2 0 .3.3.4 1.2.2zM329 13.9c-.6-.3-.7-.3-1.2 0zm-41 1c0 .1 0 .2.5.3s.4 0 .5-.2l-1-.2zm62-7.2c.7 0 1 0 .8-.5-.7 0-.6.3-.9.5zM450.7 16c-.2.3-.2.3 0 .3s.5.3 1 0zm37.8-2.7c.2.4.2.4 1.2.3-.4-.2-.6-.4-1.3-.3zM306 6l.1-.1c-.1-.1-.3-.3-.5-.3a1 1 0 0 0-.4 0l-.2.1V6l1 .2zm92 2.4c.6 0 .8 0 .8-.2l-.1-.1-.2-.1h-.3l-.3.4zm18.6 3c.7.1.7.1 1.2-.2-.5-.2-.8 0-1.3.1zm-6.8 3.6l-.8-.3-.4.4h1.2zM94 17.3h-.7a1 1 0 0 0-.4.4c.6 0 .6 0 1.1-.4zM357.5 9c.7.3 1 0 1.5-.1l-.9-.1-.7.2zm117.6 4.6l-1.1-.2c.2.5.2.5 1.2.2zm-137 1.2c.4 0 .7.3 1 0l-.9-.2zm15.4-7.4c.3-.1.7-.1.4-.3-.2-.2-.4-.2-.5-.2 0 0-.2.3 0 .5zm65.7 2c.4-.1.6-.3.2-.4-.3 0-.5 0-.6.2zm-306.3 4h-1.1c-.1.1.3.2.4.2l.5-.2zm400.5.6h-.5a1 1 0 0 0-.4.2l-.1.2c.5 0 .3-.3.8-.5h.2zm-40.5-1.5c.5.1.8 0 1-.2-.8-.1-1 0-1.2.2zM303 6.1c.3.1.6.2.9 0 .2-.2 0-.2 0-.2s-.9 0-1.1.2zm71.5 1.2c-.3 0-.5-.3-1-.2.4.3.4.3.8.2zm11.8 7.9c-.3 0-.6.2-.5.3.5 0 .6 0 .3-.3zm76.6 1.6h1l-.5-.2-.7.2zm25.1-1l.4.3c.2 0 .4 0 .4-.2l-.8-.2zm-192-9l.6.2.4-.4zm148.5 8.9l.2-.4h-.5s-.2.3.2.4zm-351.1 1c-.7.3-.7.3-.2.4zm-3.2.3l.5.3c0-.4 0-.4-.6-.3zM251.7 6h1c-.6-.2-.6-.2-1 0zM377 14.2h.2c0-.1 0-.3-.6-.3zm-16.2-6.5l-.3.2.3.2s.3 0 .2-.1l-.3-.3zM307 6.3l-.4-.5c-.2.3-.2.3.4.5zm57.9 8.9c-.7-.2-.7-.2-1.2.1zm-97.2-1.6c.4.3.4.3 1 .1zm141.4-3.3c-.4.2-.3.3 0 .4 0 0 .1-.1 0-.2l-.1-.2zm77 5.7c-.2-.3-.2-.3-.8-.2zm-22-.7l-.4-.2-.4.2h.9zM319 15h.7l-.7.1zm27-3.4c.3.2.6.2 1 .1-.4 0-.6-.2-1 0zm89.6-1.7c-.6.2-.6.2 0 .4V10zm63 5.6v.1l.8.2v-.1l-.9-.2zm-137-8c-.1 0-.2.2 0 .3a.4.4 0 0 0 .2 0c.2-.2 0-.3-.2-.3zm138.4 8c0-.3 0-.4-.5-.3zm-13.9 1c.2-.3.2-.3-.3-.2l.3.3zm-189-10.1c.3-.3 0-.2-.5-.2zm95 2.6l-.8-.2c0 .3.3.2.8.2zm66.7 5.3l-.2.2h.5zm18.9-2h.6c-.3-.1-.6-.3-.6 0zM370 8.2h-.2l.1.3h.4l-.3-.2zM49.3 2.6h.1l.4-.1-.2-.1zm423 10.3c0 .2.3.2.7 0h-.8zm-.7 4l.3.2.3-.1-.3-.1-.3.1zM435 9.3c0 .3 0 .3.6.3zm64 7c0-.2-.2-.3-.5-.1h.5zM411.2 15h-.5l-.2.1c.3.2.5.2.7 0zM167.3 4.7l-.3.1.2.2.2-.1-.2-.1v-.1zM376.7 13l-.2.2h.3c.2.2.1 0 .1 0l-.3-.2zm-19.8.8l-.3-.1h-.3c0 .1 0 .2.2.2h.3v-.1zm-51-7.2h-.7c.2.2.4.3.7 0zm158.7 5v-.1h-.5.5zM90.7 17.5l-.2-.1h-.2l.1.2zM425 10.9h-.2v.2h.2V11zm-6.4.5h.2s0-.2-.6-.1zM156.4 3h-.1l.2.1.2-.1zm162.7 4.2L319 7c-.1 0-.2 0 0 0l.1.2.1-.1zM280.5 15v-.1h-.5v.1zm104.7 1h.3v-.3h-.2v.3zm20-5.7l-.2.1.2.2.2-.1-.3-.2zm68.2 5.2h.2v-.1h-.4l.1.1zM100 14.7h-.5zm401.2.8l-.4-.1zM85.9 18l-.2.1.2.1h.2z" fill="#82d7b9"/></svg>