<svg fill="none" height="22" width="250" xmlns="http://www.w3.org/2000/svg"><path d="m116.9 3.5h-3.2v.2h-.2l-.3-.1h-.1c0 .1-.2 0-.4 0h-.6l-.7.1h-.2v.3c.1 0 .3-.2.4-.1v.1h.2l.7-.2h.3l-.2.1h.7l-.4-.1c.2-.2.3 0 .5 0h.4-.3l.1.1h.1l.5-.1.4-.1h.4l-.1-.1h.3l.3-.1h.1l-.3.1h.5v.4h-1l-1 .1h-.1l-.5.1h-.3v.3c.2-.2.3-.1.4-.1h.3l.3.1h.3l-.1.2h-1.5c.1-.1.3 0 .2-.2a.4.4 0 0 0 -.4 0h-.3l.2.1h.2a.5.5 0 0 1 -.4 0 .7.7 0 0 0 -.5 0c-.4 0-.8.2-1.1.3l.1-.4h.4l-.2.1h.8l-.1-.1h-.2l.1-.1h-.3l-.2-.1a4.7 4.7 0 0 1 -.9-.1h-.6v-.2h.7c.2 0 .2 0 .2-.2h-.2.3l-1.2-.2h-.3l-.2.2v-.2h-.6l-.4.1a1 1 0 0 1 -.6 0 1 1 0 0 0 -.6 0 .6.6 0 0 1 -.5 0h-.2l-2 .2.5.1h.2a.8.8 0 0 1 .5 0l-.2.1v.2h-.1l-.9.1h.5c-.2.1-.4 0-.6.2l-.3-.2h-.7l-.4.2c0-.1 0-.2-.2-.2h-.3s.1-.1.2 0a.2.2 0 0 0 .2-.1h.4c0-.3.3-.2.3-.3l-.7-.1-.6.1h.6-.3l-.3.1-.2.1h.2l-.6.2.2.1h-.3l-.2.1h.2l.1.1.2.1h-.5l-.2.1-.3.1h-1.2.2c0-.1-.2-.1-.4 0l-.2-.1.5-.2-.2-.1h-2.4v.1-.1h-2.2l.1-.1h.1v-.2l.1-.1h1.4c-.1.2-.3 0-.3.2h1.6l-.2-.2h.7v.1h.9c.1 0 .3.1.4 0l-.2-.1.3-.1s0 .1.2 0h.3v-.1h-.9a1 1 0 0 0 -.4 0l.4.2h-.9.4v-.2h-1 .1-.4l-1.1.1h-1.2l-1.6.2h-2.6l-1.6.2c.1.1.3 0 .4.2h-.3l.2.1h.2l.7-.1.3-.2c0 .1.3 0 .4.2l.7-.2c-.1.2-.3 0-.4.2h.3l1-.1v-.1h.2c0 .1 0 0 .1 0l.2-.1h.4l-.3.1h.7c0 .2-.1.2-.2.2h-.3c0 .1-.1.2-.2 0h-.1l-.4.2h-.2l.1-.1h-1.4l-.3.1h-.1l-.6.3h.4l.2-.1h.3l.3.2h-1.1a1 1 0 0 1 -.8 0l.1.1-.7.2v-.2c.2-.1.3 0 .4 0l.1-.2h.2l.3.1.2-.1h.2v-.2h-.4.1-.3a1 1 0 0 1 -.5 0 2 2 0 0 0 -.5.1h-.3l-.2.1h.2c0 .2 0 .2.2.2h-.9c0-.1.2 0 .3-.2h-.3v-.2a2 2 0 0 0 -.4 0h-.4v.2h-.5l.9.2c-.4.2-.8.2-1.2.2v-.2l-.2.2-.6.1-.1-.1c.1 0 .2 0 .2-.2l-.6.1.1.2h-.4a.8.8 0 0 0 -.6 0h-.5c-.1.1-.2.1-.2 0h-.2l.2-.1h1l.2-.1-.5-.1v-.1a2 2 0 0 1 -.4.2h-.3l.1-.2a1 1 0 0 0 -.4.2h-.4c-.1.1-.2 0-.4 0l-.8.1h-1.1v.1a5 5 0 0 1 -.8.1 1 1 0 0 0 -.4.1v.1h-.8l.3.1-.1.2h-1.7l-.5.1-.1.2h-.2c0 .2-.1.1-.2.2h.4l1.2-.1a.5.5 0 0 1 .3.1l-.5.1.5.1h-.9-.4.4c0-.1 0-.2-.2-.2h-.9c.2 0 .3.1.2.2h-.1c-.1.2-.3.2-.5.1v.1h-.5l.4-.1a9 9 0 0 0 -.5-.2h-.1s.2 0 .2.2h-.6l.3-.1-.1-.1.6-.1c.2 0 .3-.1.3-.3l.2.1h.3l.2-.1-.1-.1h-1.1c.1.1.3 0 .4.2h-.5v-.4l1.6-.2h-.5l.5-.1h-.7l-.4.1h-1.3a1 1 0 0 0 -.6.2h-.8a2 2 0 0 1 -.4 0h-.2v-.1h-.7l-.1.2h-.4.2-.3c-.1 0 0 0 0-.1l-.7.1h.3l-.3.1h-.3v-.1l-.2.2.2.1c0 .2-.1.3-.3.3h-.8l-1 .1h-.2l.4-.1v-.1h.1l-.2-.1h-.2a.8.8 0 0 1 -.6 0h-.3a.4.4 0 0 1 -.3 0h-.1l-.3.1.2-.1h-.2l.2-.1-.1-.2.1-.1h.6l1-.2h.7l.3-.1-1.4.1-1.4.1h-.8c-.1 0-.3.1-.4 0l-.2.1h-.3l.1-.1a1 1 0 0 0 -.5 0l-.2.1-.5.2h-1.4l-.3.1h-.5c-.2.2-.5 0-.7 0h.1a1 1 0 0 0 -.7 0h-.2c-.3 0-.5-.1-.8 0h-.1l-.3.1h-.5c0-.1 0 0-.1 0h-.4l.5-.2h-.6l-.4.1h.3l-.4.2h-.4v.2l-.4.2a.6.6 0 0 1 -.5 0 .4.4 0 0 0 -.3-.1h-.8v-.1s.3 0 .3-.2l-1.1.2-.1.2-.4.1h-.2s0-.1 0 0h-.5l.3-.2h-.7v.2l-.3.3-.5.1c0-.1.2 0 .2 0 0-.2-.1 0-.3-.1l.2-.1a1.2 1.2 0 0 1 -.8-.3h.5-1.7l-.7.2h-1c0 .2-.3 0-.4.1h-.3c-.1 0-.2.2-.3 0v.1h-.4s-.1 0 0 0h.2l1-.2h-1 .3l.3-.1h-1.4c-.2.1-.2.1-.1.3l-.9.2v-.3h-.4l-.7.1h-.3c0-.1-.2 0-.2 0l-.7.2h-.2l-.1.2a.5.5 0 0 0 -.5 0h-.8c-.2.2-.4 0-.6 0-.2.2-.3.1-.5.2a.1.1 0 0 1 -.1 0h-.7v.2h-.4l.2-.1-.8.1h.4l-.1-.2a2.8 2.8 0 0 0 -.9.2v-.1l.5-.2c.1 0 0 0 0-.1h.2l.2-.1h-.5a.4.4 0 0 0 -.3 0l-.5.1-.3.1h.3l-.1.1c-.2 0-.3.2-.3.3h-.4l-.3.2h.5l.4-.1-.3.1c-.2 0-.3 0-.5.2 0 .2-.2 0-.3.1l-.1.1h-.2a1 1 0 0 0 -.3 0c0 .1 0 .1-.1 0 .2 0 .5 0 .7-.3a1.3 1.3 0 0 1 -.9 0h.3l-.2-.1.3-.1h-1 .5l.2-.1v-.1c-.5 0-1.2 0-1.8.2l.3-.1h-.1l.1-.2.6-.1.6-.1h.5v-.1h-.4v-.2c-.3 0-.4.2-.6.1h.1l-.2-.2v.3c-.2-.2-.4 0-.5 0h-.6c0 .1.1 0 .2 0l-.6.3.1-.2h-.5l.2-.1h.3-.7l.3-.2-.9.3h.2l-.2.1h-.5l-.5.2-.1-.1h-.6v.2h-.2l-.5.2c0-.1.1-.2 0-.2l-1 .2-.2-.1c0-.1.2 0 .2 0l.2-.1h.1v-.1l-.7.1h-.4l-.2.1h-.7.4l.3-.2c.1-.1.3 0 .4 0l.6-.1h-.2l.7-.3-2.5.4v-.2h-.3l-.5.1h-.4l-.6.1-.3.1-.5.1a2.3 2.3 0 0 1 -.9.1c.2-.1.5 0 .7-.2h.3a28.2 28.2 0 0 0 1.5-.3h-.5v-.2h-.2l-.3.1a1 1 0 0 0 -.3 0l-.7.1a8 8 0 0 0 -1 .3h-.8l-.6.1h-.1l-.2.1-.6.1.4-.1h.4l.4-.2h-.7l-1.3.5-.6.1-1.4.3c-.6 0-1.1.2-1.7.3l-.7.1c-.1 0-.3.1-.4 0a1 1 0 0 0 -.4.1h-.3l-1.5.4-.7.2h-.3l-.3.1-.6.1-.2.1-1.2.3-1.3.3-1.1.2-1 .3-1.6.4h1l-1 .4-.7.2h-.5v.2h.6l-.3.2c0 .2-.2.3-.5.4h-.1l-.1.1 1.1-.2-.2.3c-.3 0-.5.2-.7.3l-.3.1-.1.3h1.4-.3s-.2 0-.1.2h-.2l-.3.2h.3v.2h.6c0-.1.1-.1.2 0v.1l-.5.2a2 2 0 0 1 -.8.3l.1.1v.1c0 .1.2 0 .4 0l-.4.2h.2v.1h.5l.2.2h-.5.1-.3l-.2.1-.1.2h.6c-.2.2-.5.2-.7.2v.2h.6-.2l.1.2v.2h.1c.1.2.1.2.3 0v.2l-.2.1-.3.1c.1.1.2.2.3 0a.2.2 0 0 1 .2 0 .7.7 0 0 0 .5.2h.2l-.3.2-.2.1-.3.1h.3a.5.5 0 0 1 .4 0c0 .2-.3.1-.2.3h.4c0 .2-.3.2-.5.3h.4c0 .2-.3 0-.4.3.3 0 .6-.2.9 0h-.3v.1l-.3.1-.1.3h1.1l-.4.2-.3.1c.1.2.1.2.5.2h-.4c0 .2.1.2.2.2h.3c0 .1-.3 0-.4.2h.4-.3v.1h-.2l.2.2h.8l-.2.1v.1h-.1v.3l.6-.2-.2.2.1.1.2.1.2.1a5 5 0 0 1 1-.2c0 .2-.3.2-.5.3h.2l.8-.2 1.3-.4.9-.2a13.3 13.3 0 0 1 .7-.3l.2.1-.2.1.8-.1h-.2v-.2l.7-.2h.2l.2-.2.2-.2h1.2c0-.2 0-.2.2 0 0-.2.2-.2.4-.3h.4l-.2.1 1.5-.3v.1h.3-.1v-.1l.3-.1.9-.2.2.1s0-.1.1 0h.1c0-.2.2-.2.3-.2h.4l.5-.2.3-.1h.2c.2-.2.4-.1.5-.1h1.3l.2-.2h.3l.8-.2c0-.1.2-.2 0-.3l-.7.1-.6.1v.1h-.3.3c.2-.2.4-.3.7-.3h.7l.4-.2.5-.1h.2l.3-.1c-.1.2-.1.2-.3.2v.1h.2a.5.5 0 0 1 .4 0h1.2l-.1.1c.3 0 .6 0 1-.2l-.7.1v-.2l.3-.1.3-.2h1.1l.3-.1c0-.1.1 0 0-.2h1a.6.6 0 0 0 .5 0 3.4 3.4 0 0 1 1.2-.1c0-.2.2-.2.3-.3a.9.9 0 0 0 .7 0h.4l.3-.1c-.1-.2-.3 0-.4-.1v-.1h.4a.6.6 0 0 0 .4 0h1.1l.5-.2c.5.1.9-.1 1.3-.1h.5c.2-.2.3-.2.5-.2h.2l.6-.1.5-.1h.3l.4-.2h.7l.9-.1h.6-.2c0 .2-.1.2-.2 0h-.1c-.1.2-.2.2-.4.2l-.7.1-1.1.2a2 2 0 0 0 -.3 0l-.1.2h.3l.4-.1.8-.1.8-.2h.8l1-.2h.4l.4-.1a.4.4 0 0 1 .3 0l.4-.1h.5l1-.1.5-.1 1.2-.2c.4 0 .8 0 1.2-.2h.4c.2-.1.2-.2.3 0h.3l2-.3c.6 0 1.1-.2 1.7-.3h.3c.2 0 .5 0 .8-.2 0 .1.2.2.3 0a.2.2 0 0 1 .1 0c.3.1.6.1.8 0l1-.1h.2l.4-.1h.3c.2-.1.2-.1.4 0l1.3-.3h.4v.2l.5-.1h-.3l.3-.1h.2l1-.1.3-.1h.3l.2.1s0-.1.2 0l.6-.2h1.1l.4-.1h.2v-.3l.3.1h.7l.2-.1h.3s0 .1.1 0l.1-.1s0 .2-.1.1v.1h.8l.7-.1c.1-.1 0-.1 0-.2h.2s.2 0 .1.1h1v.1h.2c0-.2 0-.2.2-.2h.1l.2.2h.3c0-.2.1-.1.2-.2v.2l.6-.1h.4a.3.3 0 0 1 -.3-.1h.3l.1-.2h.3-.2c0 .2.2 0 .3.2l.2-.1h.4v-.1l.2-.1h.2-.2c0 .2.2 0 .2.1h.1s.2-.1.2 0h.2l-.3-.2h.4v.1h1.5v-.1h2.3l.5-.2.2.1h.7l.8-.1h.3l.2-.2h1.7-.2c0-.2 0-.2.4-.1l-.1.1h.5l-.2-.1.3-.1h.9-.1.7-.1 1.4l1-.1h.4l-.1-.1h.1l.4-.1h1.5v-.1h.3v-.4c.2.2.3.1.5.1h2.4-.1.5-.1v-.1a.2.2 0 0 1 .3 0c0 .1 0 0 .1 0h2l.3-.1h1l1-.1h.7l.1-.2h2.3c.4 0 .8 0 1.1-.2a.9.9 0 0 0 .7.1h1.6l.2-.2h.4l.6.1h.7c.1-.1.3-.1.4 0h1.5l1.1-.1h2.3l1.1-.2h4.7l1.3-.1h.6l1-.1h.5-.1.3l.2-.1h1.2a.6.6 0 0 1 .6 0h5l.4-.1h3.9a.4.4 0 0 1 .4 0h.6s.2-.2.4 0c.2-.2.2-.2.5 0h3a7.8 7.8 0 0 1 1.1 0h5.2a.4.4 0 0 0 .2 0 .3.3 0 0 1 .3-.1h4a.4.4 0 0 0 .3 0h1.1a.7.7 0 0 1 .6 0h4.4l.5.1h7.3l.5.1h1l.7.1h.5-.2.6-.2 3.8-.5.5a.4.4 0 0 0 .4 0h1.3v.1h.3-.2 2.5-.2c.7.1 1.4.2 2.1.1h-1.5v-.1h3c-.2.2-.3.1-.4.1h-.4l.1.1h2.4-.2 1.7l.2.1h2a.3.3 0 0 0 .3 0h.3v.1h3.7v.1h.8a.6.6 0 0 1 .5 0 2.4 2.4 0 0 1 .7 0h1.5l.8.2h3.3l1.8.2h1.3l1.6.1h2.6l.8.2h2.2l1.4.1 1.6.1 1.5.1h2.1c.1.1.2 0 .2 0h-1.4v-.1h2.8l2 .1h3.3s.1.1.1 0h1.9l1.1.1v.1h.1a.6.6 0 0 1 .5 0h4.2l1.3.1h.2-.2c.3 0 .4-.2.6 0l.1-.1h.3-.1.6-.3.6l.6.1h-.2v-.1h2.6a6.8 6.8 0 0 1 .7 0v.1h.1c0 .1 0 .1.1 0a1 1 0 0 1 .9 0h.2c.2 0 .5-.1.8 0h1.2v-.2h-1.3a9 9 0 0 1 -1.2 0l-1-.1h-3.2l-1.2-.2h-.7c4.8 0 9.5.3 14.2.3h-1.3l-.1-.3h1.7l.2.1h1l1.4.2h.6-.3c0-.2.1-.2.2-.2h.8v-.1h.5v.1l.9.2-.3-.2.4.1h.1l.3.2v.2l.3.3.4.2h.5v.5l.4.3c.1 0 .2.1.4 0v.2h.5v.4h.4l.1-.2h.4l.2-.2-.2-.4a.3.3 0 0 0 .3 0v-.4l.4-.7h.2v-.1a.3.3 0 0 1 -.2 0v-.2l-.2-.1c.1-.2.3 0 .3-.1l-.2-.1.1-.2.1-.2-.2-.1.4-.2v-.2l-.2-.2.1-.2h.4l-.1-.2v-.3h.2c.1-.1 0-.1-.1-.2v-.3l.2-.2c0-.2 0-.2.2-.3a.1.1 0 0 0 0-.1v-.4l.1-.2.2-.2v-.2c.2 0 .2-.1 0-.3l.3-.3c.2-.1 0-.2 0-.3 0 0 0-.2.2-.2v-.7l.3-.2c.2-.2.1-.4.2-.6v-.3l.2-.1-.2-.1v-.5c0-.2-.2-.2-.4-.2l-.5-.2a.9.9 0 0 0 -.4-.2l-1.6-.2-1.7-.1-.9-.2h-1.1l-1.7-.2a14.3 14.3 0 0 0 -2.1 0c-.2-.2-.3-.1-.4-.1h-2.8l-1.1-.1a9.7 9.7 0 0 1 -1.5 0h-1l-1.3-.1a12 12 0 0 0 -1.8 0h-2.5l-.8-.1h-1l-2.2-.2h-2.3l-.8-.1h-1.6l-1.2-.1h-.7a1 1 0 0 1 -.3 0l-.7-.1c-.3 0-.6-.1-.8 0h-.2l-.4-.1h-1.8c0-.2-.2-.1-.3-.2h-2.3a4.6 4.6 0 0 1 -.7 0l-1-.1h-.8l-.9-.1h-.3l-.3-.1a4 4 0 0 0 -.5 0h-1.7a4 4 0 0 1 -.7-.2l-.7.1h-.1l-.4-.1h-.5c-.2 0-.3-.1-.4 0h-.1a.8.8 0 0 0 -.7-.1h-.8a1 1 0 0 0 -.3 0h-.7a.9.9 0 0 0 -.7 0h-.6v-.1h-2.1v-.1h-.4a1 1 0 0 1 -.3 0c-.3-.2-.4 0-.6 0h-.4l.2-.1h-.3c-.2 0-.4.2-.6 0h-.4l-.1.1h-1l1.1.1h-2.8l-.3-.1h1.1l.1-.1-.1-.1h-1.1l.1-.1h-.8c-.2.2-.4 0-.6 0h.2-.7v.2h-.6a.5.5 0 0 1 -.3 0l-.2-.1.3-.1c-.2 0-.3-.2-.6 0h-.3.1l-.7.1c0-.2.2-.2.3-.3h-.5c0 .1-.2 0-.2 0h-.5v.1l.4.1-.2.1h-1.8l-1.5-.1a1 1 0 0 0 -.6 0h-.6c0 .2 0 .1-.2.1l.1-.1h-.3a.6.6 0 0 0 -.4 0l-.3-.1h-.3c0 .2.3 0 .4.1l.4.1c-.2.1-.4 0-.4.2h-.3.8l.4.2h-3.1l-.6-.1h-1.5l.4.1-.3.1h-1.4l.2.2h.3s.1-.1.2 0l.1.1h-.2l-1.4.2h1c.2 0 .5 0 .8.2h-1.5l-.6.1-.3.1h-.2c.1-.2.4-.1.6-.2a2 2 0 0 0 -.6 0c-.1 0-.3-.1-.4 0h-1.8.5l-.1.1h.1v.4h.2l-.1-.1h1.4c-.1-.2-.4 0-.5-.3h.6v.3l.5.1h.5a.5.5 0 0 0 .4 0h.8c0 .2-.3 0-.4.1l.2.1v.1h.9v.1h-1v.1h-.5v.2h-.2l-.3.1c0 .1-.1 0-.2 0h-.5l.1.2h-.4l.1-.2c-.1 0-.3-.1-.4 0v.2l-.2.1h-1.2l-1-.1h-.2.7s.1-.1.2 0l.7-.1h.1l-.6-.1.2-.1-.1-.1-.3.1c0-.2.3-.2.5-.2l.1.2h.3l.3-.2.2-.1h-.3l-.1-.1h-.2c-.2-.2-.3-.1-.4 0l-.1.1h-.4v.2l-.2-.2h-1.2.1c-.1-.1-.2-.1-.4 0h-.5l-.2.1-.1.1h1.1l.5.1h-.3c.1.2.4 0 .5.2h-.6a4 4 0 0 1 -.6 0h-.8l.2-.1-.3-.2-.3.1-.2.2c-.1-.3-.4-.2-.5-.2l.3-.2h-.2l.5-.1v-.4h-.3a2 2 0 0 0 -.3 0v.2l-.1-.2h-.1l-.8.3h.7v-.1h.3l-.2.1s-.2 0-.2.2h.2c.1-.1.1 0 .2 0l-.5.1v-.2h-.5v.1h-1l.4-.1h-1.6l.3.1c-.5.2-.6.2-.7-.1.1 0 .3 0 .2-.2l.3-.2h.4a.2.2 0 0 0 .1 0h.1-1.8c-.1 0-.2-.2-.3-.1l-.3.1c.1.2.2.2.3.2h.5-.5c-.1 0-.1.1 0 .2l-.5.1h-.4c.1-.3.3 0 .5-.2h-1.7l-.2-.1h1.2l-1-.1h1.2l.2-.2h.2l-.2-.1h-.8c.1 0 .2-.1.2 0h.2c0-.2-.2-.1-.3-.1a2 2 0 0 0 -.3 0h-1 .1v.3h-.2l1.4.1-.1.1a.2.2 0 0 1 -.2 0 .3.3 0 0 0 -.2 0h-.7l.3.1-.4.2-.2.1v-.1h-.4l-.2.1c0 .1-.2 0-.4 0h.1-.7c-.2 0-.3 0-.3-.2-.3-.1-.4 0-.6.1l.3.1h-1.4.4l.3-.1h.2-.1l-.7-.1h-.7l-.2.1h-.2l-.2-.1a3.3 3.3 0 0 1 -.7 0v.1h-3.7s-.1 0 0 0v-.2h-.3c-.1.2-.3 0-.4 0s-.4 0-.5.2h-.8.2c.1 0 .3 0 .3.2h.8l-.4.2a2 2 0 0 1 -.6 0h-.3.1c.3 0 .6 0 .8.2a1 1 0 0 1 1 .1h-.7c.2.2.3 0 .5.2h-.8v-.4h-.2v.2h-.2c-.1.2-.4.1-.4 0h-1.1l.6-.1h.3l.2-.1h-.8v-.4h-.4l-.6.1.8.1h-.8v.3h.2-.7c.1 0 .3 0 .4-.2h-.3c0-.2-.3-.1-.5-.1h.7l.2-.2h-.5a.5.5 0 0 1 -.4 0h.3a.5.5 0 0 0 -.4 0h-.9c0 .2.2 0 .3 0h.3v.4h-.9l.4.1h1.2l-.1.1h-.2c-.1.1-.3 0-.4 0h-.6a2 2 0 0 0 -.7.1v.1h-1.3s-.1.1-.2 0l-.7.1v-.1h-.5l-.5-.1h-1.5c.2.2.4 0 .6.2h-2 .2v-.1h-.8.2v.2c.2 0 .5 0 .6.2l-.3-.1-.3.1h-.5v-.1h.3v-.1h-.4c-.1-.2-.2 0-.3 0h-.2v-.1h.4v-.1h-.5v-.1h.5c.2 0 .2 0 .2-.2l.1-.2h-.5l-.1.2h-2.2c.1.2.2.1.3.1l.3.1-.3.1h-1.3v.2h-.7.2c.1.2.3.3.4.3h.5a2 2 0 0 1 -.8.2h-1.5v-.1h-.7v-.2a.3.3 0 0 1 .3 0h.4l-.1-.2h-.4.3l-.2-.2h-1.7c-.6.2-1.1 0-1.7.1 0 0 0 .2-.2.1h.2-1.1v-.2h.5l.2.1v.2h.2c.2-.2.3-.1.5-.1l.1-.1h-.3c.1-.1.1-.1.4 0h.2l.8-.1h.4v.2c-.1 0-.3-.2-.4 0h.7l.3.2a1 1 0 0 1 -.5 0h-1.4c-.1.2-.3.1-.5.1h-.1a2 2 0 0 1 -.7 0h-.4l.5-.3c-.2 0-.4.3-.7.3h.1-.1c-.2-.2-.5 0-.7 0l-.6.2c0-.2.2-.2.3-.2v-.3h.7l-.1-.1h.2a.4.4 0 0 0 -.2-.1h-.2c-.1.2-.1.2-.3.2l-.1-.2h-.3l-.3.1.2.2h.4l-.1.1h-.2c-.2 0-.3 0-.3.2-.1-.2-.3-.1-.4-.1h-.3l-.2.1h-.2.1a2.7 2.7 0 0 1 -.5 0h-.4l-.2-.2h-.3c-.1.2-.3.2-.4.2h-.4l.2-.5h.4c-.2-.2-.2-.2-.5 0h-.3l-.3-.2h.2l.2-.1h-1.2c.3 0 .3 0 .4.2h-.6c-.1 0 0 .2-.3.2v-.2c0 .2-.2.1-.3.1h-.7zm66.3-.5h-.2.4v.1h-.2zm-66.4 1c0-.1.1 0 .2 0h-.4zm-55.6 3.2h.2-.2l-.1.1v-.1s.1-.1.1 0zm-24.7 8h.3-.6zm14-6.6.2-.1h.2-.7.4zm143.2-6.6h-.2.5-.4zm-153.4 13-.3.2h-.2.2c.1-.2.1-.2.3-.2l.1-.1v.1zm100.8-10.6v-.2h.3v.1h-.5zm-16.5.9-.1-.1h.5c-.1 0-.3.1-.4 0v.3l-.3-.2zm-52.5 1.6h-.1v-.1h.2l.3.1-.5.1zm-67.3 14.1-.7.2.7-.2h.4zm149.6-16.5s0-.1.2 0h.6-.7l-.3.1v-.1h-.1zm7.3-.7h.1-.6c.4-.2.3-.3.6-.2zm-59.2 1.2.1-.3.5.1a.8.8 0 0 0 -.6.2h-.2zm47.4-.1c.3-.2.6 0 1-.1 0 .1-.1.2-.2.1h-.8.6-.8zm-54.7 1.3-.1.1h-1.2.2l1.1-.1h.7a1 1 0 0 1 -.7 0zm6.7 1.2a.5.5 0 0 1 .4 0h-1.1.5c0-.1.1-.1.2 0zm65.7-2a.9.9 0 0 1 -.8-.1h.2l.5.1h.1l.3-.1v.2zm-61.4-1.3v-.2h.5v.1h-.6v.3-.1c-.2.1-.2.1-.4 0l.2-.1zm70.3-1.5v.2l-.3.1h-.2v-.2l-.1-.1h.9zm-58.8 1.2a.9.9 0 0 1 .6 0c-.1 0-.4 0-.4.3h-.2l.2-.2h-.4zm-74 4.4.6-.2h.2l-.1.1-.1.1v.1a.3.3 0 0 1 -.3 0h-.1l-.1-.1zm119.3-5.3h.3l-.4.1a2 2 0 0 1 -.5 0c-.2 0-.3 0-.3-.2h.5a.2.2 0 0 1 .1 0h.1v.2zm-116 5.2h-.3l-.3.1c-.1 0-.3 0-.4.2h-.1v-.1h-.5.1l.8-.2h1zm26-.8h.8-1.8l-.2-.1h.4l.7-.1h.1zm-13.5.3v-.1h.2l.1-.2h-.1l.2-.1.3.2-.3.3-.3.1zm33.5-2.4h.2-.2l-.5.1h-.5l-.2-.1.3-.2h.1zm45.2-1.6h-.1a1 1 0 0 0 -.5.2h-.1v-.1l.7-.1h.4l-.4-.1c.2-.1.5-.1.8 0h-.3l.2.2h-.3c.1 0 .2 0 .2.2l-.2-.1-.2.1h-.3l.1-.1zm-65.6 4 1-.2h.2l-.4.1h.3v.2c-.3 0-.6.2-.8 0h.1-.4.2-.4.3zm49.4-.6h-.8l-.6.1h-.5.1c.2-.2.4 0 .5-.2h4.2-2.9zm2-2.7v.1l.1.1h1v-.2h.5a1 1 0 0 0 -.4.1h1.1v.2h-2.7v-.1s0-.1 0 0h.2v-.2l.2-.1h.2c-.1.1-.2.3-.3.1zm44.2-1.1h-.7v-.2h-.4a1 1 0 0 1 -.3 0l-.3.1h-.6a.6.6 0 0 1 -.5 0l.8-.2h1.8c.1 0 .2 0 .2.2.1-.2.1-.2.2 0h-.2zm-13 .5h-.2c0-.3-.1-.3-.3-.2a.2.2 0 0 1 -.2 0v-.2h-.5l.3-.1-.2-.1h.5v-.1l.4.2h.5a.2.2 0 0 0 .2 0 .4.4 0 0 1 .3 0c0 .1 0 .2-.1.1h-.6l-.2.2h-.3.3zm-58.2 1h-.3c.1 0 .2-.1.2 0h.2l-.1.3.5.1h-.4a.7.7 0 0 1 -.4 0 .2.2 0 0 0 -.2 0c-.1.2-.3.1-.5.1h-.7v-.2h.5l-.3-.1v-.2h.6l-.1.3h.9l.2-.2zm55.4-2h.2c.2-.2.4-.1.6 0-.2 0-.4.1-.8 0h-.6l-.6.1h-.7.1l-.2-.1h-.5.3-.6v-.1l-.5.2-.2-.2h-.6l-.4.1h-.3c0-.2 0-.2.2-.2h1.7s.1 0 0 0h3v.2zm5.2.5h.2l.2.1c.1 0 .2-.1.4 0l-.1.1h-1.8v.1h-.2l-.1-.1.7-.2h.1c.2.2.4 0 .5 0h.1-.5c0-.1-.1 0-.2 0h-.5c-.3 0-.5 0-.7-.2l.2-.2h-.3c0-.2 0-.2.2-.2h1.5c-.2.1-.3.2-.4.1l-1 .2.5.1h.7l.3.1zm-74.4 3h-.2s-.1 0 0 0h1.2a38.4 38.4 0 0 1 1.9 0h-.9l-.5.1-.1.1h-.5c0-.2-.1 0-.2-.1-.1.2-.4.3-.5.1 0 .2-.2.1-.2.2l-.1-.1h.2c0-.1-.1-.1-.2 0h-.7l-.1-.1h-.1c.1 0 .3-.2.4 0v-.4h.9c.2-.1.4 0 .6-.2h.2v.2h-1.2zm16.8-.9h3.8v-.3h-.1l.2-.3h.5l.4.1h-.6l.1.2h-.2v.2h-.2v.1h1-.3l-.5.1h-2.1l-1 .1-.7.1a1.1 1.1 0 0 1 -.8 0h-1.5l-.3.1h-2.7l-.7.1a.6.6 0 0 1 -.4 0h.2l.1-.1h1l1.3-.1 1.3-.1h1.8l.4-.1h.1a.7.7 0 0 1 .6-.1h-.6zm80-3.1h-.5c.2.2 0 .2 0 .2l1.5.2-.1.1h-.1c-.1-.2-.3 0-.4 0h-.3l-.4-.1h-.1l-.1.2a.4.4 0 0 1 -.3 0h-.9v-.1h.4c-.5-.2-1-.2-1.4-.2l-.1.2h-.2v-.2h-.3a2 2 0 0 1 .8-.1.4.4 0 0 0 .4 0h1.1-.2a.8.8 0 0 0 -.5 0v-.1l-.4-.1h-.5c-.1.2-.4.1-.5.1h-.7a.3.3 0 0 0 -.3 0l.7.1h-1l.2-.4h.8c-.1.2-.3 0-.5.1h3.9zm-71.6 2.4h-.3a.6.6 0 0 0 -.5 0 .7.7 0 0 1 -.4.1v.1h-.2s0-.2.3-.2v-.1h.3v.1c.2-.2.3 0 .5 0l-.1-.2c-.3 0-.5-.2-.8 0 0-.1-.1-.2-.2-.1h-.5l1.2-.3h1.4-.3.3l-.5.4h.6l-.2.2h.3l-.2.1h-.6zm39.7-.7h-.4c-.2.2-.5 0-.6.1h-.2s-.2-.2-.3 0h-1a.3.3 0 0 0 -.3 0 .2.2 0 0 1 -.3 0h.1l.5-.2s.3 0 .3.2l.2-.1c-.1-.2-.4 0-.5-.2h.3l-.1-.2h.7-.5v.1c0 .2.3.1.4.2h.4l.3-.1h.2l.2-.1h-.6v-.1h.5a.9.9 0 0 1 .6 0c0 .1-.3 0-.4.2h.4l.2.1h-.3zm34.8-1.3h.7l1 .1h.6l.6.1h-.4v.2h-.2-.5l-1.2-.1h-1c-.2 0-.6 0-.8-.2l-.1-.1.1-.2h.7-.2c.2.1.4.2.6.1h.5-.3l.2.1zm-91.6 3.3h-1.9c-.1.2-.2.2-.4 0a.3.3 0 0 0 -.2 0l-.2.2h-.5l-1.1.1h-.4v-.2h1.6l.8-.1 2-.1h.2zm17-.7v-.2h3.4c.1 0 .3-.1.4 0h.3c.3-.2.4 0 .6 0l-.6.1h-.5a1 1 0 0 0 -.4 0h-.5a2 2 0 0 1 -.3 0 4 4 0 0 0 -.7.1h-.1a1 1 0 0 0 -.7 0h-.8l-.2-.1zm15.6-.4h5.9a2.9 2.9 0 0 1 -.9 0h-1.5a11.5 11.5 0 0 0 -1.2 0c0 .2-.2.1-.3.1l-.5.1h-.1v-.2h-.8c-.4.2-.4.2-.6 0zm16.2-1h.2l.1-.1h.5a.5.5 0 0 1 .5 0 .2.2 0 0 0 .1 0h.7v.3h-.5l-.6.1h-.1v-.1l-.4-.1.1.2-.6-.1zm-20.9 1.3v-.1h.8l-.6-.1h.9l.6-.1v-.1h.4-.2c.2.1.3.2.5 0h-.1.3l.1.1h.5l-.1.1h-.2c-.2 0-.3 0-.5.2l-.1-.2v.1h-1.3c0 .2-.1.2-.2.1a.8.8 0 0 0 -.5 0zm57.8-3.8h-.3a.3.3 0 0 0 -.3 0 1 1 0 0 1 -.4 0h-.6l-.6-.1h-.2v-.2h-.2.8c.3-.1.5 0 .8 0h.4l.4.1zm-48 2.9.4.1h1.9l-.4.2h-.5a10.3 10.3 0 0 0 -1.8 0h-.1l.1-.2.2-.1h1.4-1.4zm-57 2.4.2-.1h1l.7-.2.2.1v.1h-.9l-.1.2h-.5c-.2.1-.5.1-.8 0v-.1h-.2.3zm105-5a2 2 0 0 1 .8-.1h1.8v.2h-1.2l-.3-.1zm-104.8 6.1h-.2a1.2 1.2 0 0 1 -1 0h.2s0-.2.2-.2h-.4l.9-.1h-.4.6c.2 0 .2.1.2.3zm72.5-3.7h-.2a.5.5 0 0 0 -.5 0h-.3l-.3-.2-.4-.2a.8.8 0 0 1 .6.1s.2.2.3.1a7.3 7.3 0 0 1 1.1-.2l.2.1-.5.2zm-61.8 2.9-.4-.2h1.1l-.2.2h1l-1 .1h-.9zm-13.8.6-2 .2h.2l.2-.1h-.5v-.2h1l-.1.1h1.1zm-42.9 2.7c-.4.2-1 .3-1.5.3.1 0 .3 0 .2-.2l.1-.2c-.1 0-.3.1-.4 0l1.4-.1-1 .3.3.1h.3l.5-.1zm113-5.3s.2-.2.3-.1h.4c0-.1.1-.1.2 0h1.7-.2l-.3.1zm38-3.7h3.1l.2.1h-3.3zm-23.9 1.5v-.1h2.2c0 .1 0 .2-.2.1a.4.4 0 0 0 -.4 0h-.7a6 6 0 0 0 -.8 0zm24.2-1.8.6-.2h1.3a.8.8 0 0 1 .6.2zm-.3-.1h-2.4c.2-.1.4-.2.5 0l.4-.1a10.3 10.3 0 0 1 1.5 0zm-11.2 3.2.4.1h-.8v-.1h-.2.3c0-.3-.1-.3-.3-.3h-.2.6l.1.2.6.2h-.5zm-101.9 2.8h.3l.3-.1h.5v.3a.3.3 0 0 0 -.2 0h-.1l-.2.1-1.4.1h-.1l1-.1v-.2zm121.5-4.3-.7.1h-.9l-.2-.2h1.8zm-32 .8h-3a.4.4 0 0 1 -.3 0h.7a2.6 2.6 0 0 1 .7 0h.2v-.1h.4l.6.1zm5-.2h-.5.2l-.2-.2.3-.3h.6l-.1.1.3.2-.9.1zm63.9 8.5-.1.2h.4-1.7l-.4-.1c.3-.2.6 0 .8 0h1zm-62.9-7.6h2.1l-.5.2.1-.1h-1.7zm-38.7.3c.4-.2.7 0 1 .2h-.4a.4.4 0 0 1 -.3 0 .3.3 0 0 0 -.3 0h-.2.5l.1-.1h-.4zm-68 9.6a3 3 0 0 0 -.4 0c0 .1 0 .1-.1 0h-.1.3-.2a4 4 0 0 1 1.2-.2l-.2.1v.1l-.7.2.1-.2zm62-9h2l-.1.1h-.2a.7.7 0 0 0 -.6 0l-.2.1h-.4c-.2 0-.3 0-.4-.2zm-.2.2h-1.7c.1-.2.2-.1.3-.1h.7a.8.8 0 0 1 .6.1zm35-2.1h.1a7.2 7.2 0 0 1 1.2 0h1-.4l-.3.1h-.1a1 1 0 0 0 -.8 0l-.6-.2zm18.5.6v-.1c.2-.1.4 0 .6-.2l.4.3-.4.1h-.4.3v-.1zm-36.7 1.7h-.4s-.2 0-.3.2h-.4.3-.1c-.2 0-.4 0-.4-.2h-.1l-.3-.1h1-.4zm48.6-3c.4-.2.9-.1 1.3 0a.6.6 0 0 0 -.5.1h-.4s-.1 0 0-.1zm-82.4 4.5c0-.1.2 0 .2-.2h-.9 1.5l-.5.2h-.4zm56.8-3v.2h-.6v-.1c-.2 0-.3.1-.4 0 0-.2.1-.2.2-.2l.8.2zm-88.5 3.2-.1.1-.1.1h-.5v-.1h.3l.3-.1h.7c-.2.2-.4.2-.7.2l.2-.2zm13.7-.5c.5-.1 1-.2 1.6-.1a1 1 0 0 1 -.7.1h-.8zm-58.7 2.3-1.8.4c0-.1.3 0 .4-.2h-.3l.4-.1v.1l.5-.2zm48.3-1.8s0-.1.1 0a2.9 2.9 0 0 0 .9-.2h.9l-1 .2h-.8zm-6 1h1.5l-.5.2h-.7l-.3-.1zm92-4 .3.1a.2.2 0 0 1 .2-.1.3.3 0 0 1 .1 0h.4l-.3.1h-.8v-.1zm-117.8 5.6 1-.2v-.1h.8c-.2.2-.3.2-.5.2h-.3zm9.3 5.1-1.8.3v-.1h.1v-.1h1.5a.5.5 0 0 1 .4 0zm127.2-12.7h1.2l.2.1h-.5l-.6.1h.5c-.2.2-.3.2-.7-.2zm-40.4 1.7h.5l.2.1-.2.1h.2v.1l-.6-.2-.1-.2zm-64.4 4c0-.2.2-.2.3-.2h1.2-.4l-1 .1zm42.7-2v.1h-.5l-.7.1v-.1h1.3zm-13.7-.7h-.2c-.2 0-.3.2-.4 0h.2-.2l.2-.2a2.6 2.6 0 0 0 -.5 0h-.1 1zm83.8-3.6-.2.1h-1.1v-.1h.9a.3.3 0 0 1 .4 0zm-130 8.1h.3c-.1.1-.3.2-.4.1h-.3l-.1-.2h.3l.3-.1.1.1-.1.1zm27.7-3.5h1l-.4.1h-.7zm50.3-1c.4-.2 1-.2 1.4-.1a2 2 0 0 0 -.5 0h-.9zm-28 1-.6.2h-.3l-.5-.1h1.3zm-70.4 3.3-1.8.3.9-.2h1zm73.4-4h.3l1.7-.1h.1-1.1l-.6.2-.2-.1zm14.7-.9h-.1.5c.2 0 .4-.2.5-.1-.3.2-.7.2-1 .2h.1zm-70.6 3.2v.1h-.4l-.6.1h-.1zm-15.8 1.4h-.1l-.8.2h-.4l1.3-.3h.1zm-25 12-1.7.4a5 5 0 0 1 1.8-.4zm152.4-17.8h.2a.5.5 0 0 0 .4 0h.8l-.4.1h-1zm-29 1.7c0-.2.2-.3.4-.2h.6l-.7.1c0 .2-.1.2-.3.1zm-55.8 3.1h.1l.2-.1c.2 0 .2.2.3.2l-.2.1h-.2v-.1h-.2zm104.7-6.3c-.2.1-.3.2-.4 0h-.6c.3-.1.5 0 .8 0 0-.1.1 0 .2 0zm-41.6 3.2h-.9c0-.2 0-.3.2-.2h.6v.2zm-96 9.8-.5.1h-.5.4l.3-.2.4.1zm78.5-9.4h1.1-.4l-.2.1h-.5zm12.6-2.2c0 .2-.2.2-.3.2h-.3v-.1h.6zm-39 2-.8.1h-.3c.3-.2.6 0 .9-.1zm-2.8.7h-1zm-32.4 2.2h.3a3.4 3.4 0 0 0 1-.2h.1l-1.3.2zm.3.5 1-.1c-.3.1-.7.2-1 .1zm117.6-5c-.1 0-.3.2-.4.1a.4.4 0 0 0 -.3 0h-.4l.2-.1zm-69.4 2.3h.8l.1.1h-.8zm73.8-2.6h-.4l-.3-.2h.6zm-20.2.4.5-.2.1.2-.5.2v-.2zm-35.6 1.9h1.2-.3v.2h-.3l.1-.1h.1c-.2-.2-.5 0-.8-.1zm56.9-2.5.4-.2c.1 0 .3 0 .4.2zm-61.4 2.7v-.1h.3c.1-.3.3-.2.5-.2l-.2.1-.1.1h-.5zm42-1.8h-.6l.2-.1v-.1h.4v.3zm-149.2 15.5c0 .2-.3.3-.4.2h-.3c.2-.3.4-.2.7-.2zm142.6-15.7h-.6a4 4 0 0 1 -.5 0h.3l.2-.1h.6zm-104.6 6c-.4.2-.9.3-1.3.3l1.3-.2zm39.7-3.9 1-.1zm44.5.3c0-.2-.1-.2-.3-.2h.6c0 .2 0 .2-.3.2zm17-3.1-.4.1h-.4c.3-.2.6-.2.8-.2zm-68.6 3.8h1zm19.7-2.5c.2-.1.4-.3.6-.1l.1-.1v.2c-.3-.1-.5 0-.8 0zm-92.5 15.6-1 .4c.1-.3.3-.2.5-.3h.5zm105.5-14.2v-.2l.7.1h-.7zm-67 8.4v-.1a12.8 12.8 0 0 1 1 0h-.5a3 3 0 0 0 -.5.2zm137.4-11.5-.3.1h-.2l-.3-.1c.3 0 .5-.1.8 0zm-19 .5h.2l.2-.1a.2.2 0 0 1 .1 0c.1.1.1.2 0 .2h-.5zm-50.4 1.2c0 .3 0 .3-.4.2v-.2zm-78.7 10.9c.2-.3.4-.2.7-.2zm9.3-1h.1l.6-.1a.3.3 0 0 1 .4 0 6 6 0 0 1 -1 .2zm143.1-11h1.2zm-171.4 14.6c-.1.3-.4 0-.6.2h-.2zm170.3-15.9a3 3 0 0 1 -1 0zm-149.2 13.3.5-.1c.2 0 .3-.2.5 0l-.6.1zm-18.4 2.6c-.2.2-.4 0-.7 0l.7-.1zm131-13.8h-.2l-.1-.1.2-.1h.3v.2h-.4.1zm-79.5 3.5a1.2 1.2 0 0 1 -.9 0h1zm118.7-4.6-1.2-.1h1.2zm-58.2 1.3h.3v.1h.4a.7.7 0 0 1 -.7 0zm-24.5 2.9v.1h-.6c.2-.2.4-.1.6-.1zm-62.9 7.2a1.2 1.2 0 0 1 -.9.1h.9zm70.2-10.3-.8.1c.3-.1.6-.2.8-.1zm26.6-.4h-.5c-.1 0-.3.2-.4 0zm-60.5 2.4a1 1 0 0 1 .7 0zm32.4-1.5h-.7zm-55.5 3.1h.7c-.3 0-.5.2-.7 0zm107.2-3.3a.8.8 0 0 1 .6 0zm-128.6 11.2.3-.2h.3v.1h-.6zm76-11.6c0 .2-.2 0-.3.1h-.3l.2-.1zm-18.3 2.2h-1zm77.6-3.4-.5-.1.2-.1.4.1v.1zm-121.3 6.4c-.2.1-.4.2-.6.1zm7.6-2 .2.1c.1-.1.1 0 .2 0h.1l-.4.2-.1-.2zm2.7 2.5-.4.1c-.1 0-.3 0-.3.2l-.2-.2h.9zm9.8.7-.1.1h-.4.5zm165 1.3v-.1l.8.1h-.9zm-171 .9c-.2 0-.4.2-.7.1zm106.1-11c0-.1.1-.1.2 0a.3.3 0 0 0 .2 0h.3zm-95.9 4.6.1-.2.1.1h.5-.7zm45-.6a.8.8 0 0 1 -.7 0zm12.3-1.3v.1h.1v.1h-.3v-.2h-.2zm-16.9.7h-.7.8zm-19.2.3a1 1 0 0 1 -.7 0zm-43.9 3-.2.1h-.4zm11.6-.4-.6.2c0-.2.2-.2.3-.2zm44.7-2.2.7.1a1 1 0 0 1 -.7 0zm63.4-2.5-.3-.2c.4 0 .5 0 .5.2zm-32.5 1.3v-.2a.7.7 0 0 1 .5 0zm-29.9 2h-.4s-.1 0 0 0zm9.2-1.4h.8a1 1 0 0 1 -.8 0zm13.5.4c.1-.2.3 0 .4-.1h.5-.9zm25-2.6h.8a.7.7 0 0 1 -.7 0zm.3.7c.2-.2.3-.2.4 0zm-48.9 3.6h.8zm-23.7-.5.2-.1h-.3c.1-.2.1-.2.5-.1zm-24.4.6h.4v.2h-.3v-.2zm66.8-3.5h.4c-.1.2-.2 0-.4 0zm7.2 3h-.7v-.1h.7zm37-2.4c.1-.2.2-.2.3-.2l.4.1h-.7zm-45.5 1h.2l.1.1-.1.1h-.2zm-39.7.3-.6.2v-.1h.6zm-50.8 3.4s-.1.1-.2 0h-.2c0 .1 0 .1-.2 0zm62.5-4.2c-.1.2-.3.3-.5 0zm90.2-2h1zm-76 4.2h.6zm65.9-3.3h.6zm-49 0c-.2.2-.3 0-.5-.1h.5zm0 .6h-.8a1 1 0 0 1 .7 0zm-57.5 4.1h.1l.1-.2h.2l-.1.1h.3c0 .1-.1 0-.2 0l-.2.1zm-47.4 1.6v-.1h.2l.5-.1h.1zm136.4-7.1h.4c-.2.2-.2.2-.4 0zm25.6-1-.6-.1h.6zm-45.6 2.8h.5l-.1.1a.4.4 0 0 1 -.3 0h-.1zm24.3-1.5.3-.1h.3-.6zm-91.7 4.2c.2 0 .4-.2.6 0zm116.2-6.8h-.5zm-45.3 4.3-.5-.1c.1 0 .4-.2.5 0zm36.5-4.5h.3c0 .1 0 .2-.2.2l-.1-.1zm-182.5 14.6.3-.2.1.1a.6.6 0 0 1 -.4 0zm190-12h-.5c-.1 0-.2.2-.2 0zm-167.5 7.5c-.2.1-.5.2-.7.1h.7zm59.5-3c.2-.1.4-.2.6-.1h-.6zm2.7-.8c.2-.2.4 0 .7 0zm20.1-2h-.5c.1-.1.2-.2.5 0zm64.4-1.2h-.4c.2-.1.2-.1.4 0zm18-1.8h-.7.6zm-115.1 7.3h-1l.9-.1zm37.7-3.4h.6zm81-3.5h.5zm-141.3 6.7-.2.1h-.2zm12.1-2v-.1h.8-.8zm69.5-2h.7zm43-.8h.7-.6zm-51 2.2h-.6a.6.6 0 0 1 .5 0zm-63.5 1.1.1-.2h.2c0 .2 0 .2-.3.2zm118-4.5h.7-.6zm-162 6.3.6-.2c-.2.2-.2.2-.6.2zm75.8-2.8h-.8.9zm-35 1.3-.5.1.4-.1zm-26.6 8.8h.4l-.2.2zm138.3-12.6-.3.1v-.3zm-41.6 3a1 1 0 0 1 -.5 0zm38.3-3.1a.6.6 0 0 1 -.5 0c.2-.2.3-.2.4 0zm-114.3 8.6.2-.2.2.2zm69.6-6.2a.7.7 0 0 1 -.6 0zm28.5 0h-.5c.2-.2.4 0 .5 0zm66.2 5.5h-.6zm-118.2-5.5h.5zm60-3.6h.5a.5.5 0 0 1 -.4 0zm-33.6 2.5h-.5zm-42.1 1c-.3.2-.4.1-.4 0zm32.1.4-.2-.1h-.2.2c.1-.1.2 0 .2 0zm-16.9 1.1c-.2.2-.3.1-.5.2v-.1h.5zm62-4.2c.2 0 .3-.2.5 0zm13.6.1h.7zm-10.7.8h.5a.6.6 0 0 1 -.5 0zm-49.2 1.3a1 1 0 0 1 -.5 0zm-50.7 2.1c0-.2 0-.1.2-.2.2 0 .1 0 .1.1h-.3zm34.7-1.6h-.5a.7.7 0 0 1 .5 0zm-65.2 2.8.2-.1h.2zm-27.8 3.2a1 1 0 0 1 -.5.2l.2-.2zm89-4.2h.5zm49-4.1h-.3c0-.1.1-.1.2 0zm-139.4 9.6.4-.1zm123.7-8.9c.3-.1.3-.1.4 0-.1 0-.3.1-.4 0zm56.3-1h-.7v-.1h.7zm-119.6 4h.4c-.1.1-.3 0-.4 0zm5 .3h.5c-.2 0-.3.2-.5 0zm-18.5 2h-.5a.6.6 0 0 1 .5 0zm77.4-2.9h-.6zm63.4-3.7c-.2 0-.3.1-.4 0zm-17 7.1h-.6zm-9.3-6-.2-.2h.2l.1.1zm-132 12h.3-.4zm51.1-9.5a.8.8 0 0 1 .7 0zm48.6-2.9-.1.1h-.2.3zm21.3-.2h-.5zm-82.8 3h.2-.4c.1 0 0-.2.2-.1zm37.8.6c0 .1-.1 0-.2 0h-.2zm-34.7-.4c-.2.2-.3.2-.3 0zm-48.1 10c-.2.1-.3.1-.4 0zm160.4-13.6a.6.6 0 0 1 .5 0zm-8.6-.3h.5l-.4.1zm-82.5 4a.6.6 0 0 1 -.5 0zm16.4-2h-.5zm29.4 1.7c-.2.2-.2.2-.4 0zm.3-1.3h-.5zm-11.6-.3h.4c-.2.2-.2.2-.4 0zm-49.5 2.8h-.6zm142.2 3.6h.6zm-139.7-3.1h-.4c.1 0 .2-.1.4 0zm-51.7.3c.2-.1.3.1.4.1h-.4zm-4.7 1.7c0-.2.2-.1.3-.2h.2zm101.7-4.1h-.5zm-10.5-1.7h.5zm-2.6 1.1h.5c-.3.2-.4.1-.5 0zm-7.4 1.6h.4c-.2 0-.3.2-.4 0zm88.7-6.4a.6.6 0 0 1 .5 0zm-74.1 3.2c.1-.1.2 0 .4 0a.4.4 0 0 1 -.4 0zm-46.6 8h.5zm46.5-7.7-.2.1zm-24.4 2.6h-.6.5zm46-3.4c.2-.1.2-.1.4 0zm-3.2 3.2h-.3zm3.2-3.3c-.1.1-.1.1-.4 0h.3zm-28.4 3h.3c0-.1 0-.1.1 0h-.5zm44.5-1.4.4-.1zm-86.4 3h-.5c.2-.1.3-.2.5 0zm86.4-1c.1-.1.3 0 .4 0zm-69-.6h.5zm74.5-3.2c.1-.2.3 0 .4 0zm-86.2 3.5c.2-.1.3-.1.4 0zm88-1.2v.1h-.3.3zm.2-2h.4c-.2.3-.3.1-.4.1zm-101.4 4.4h.4c-.1 0-.3.1-.4 0zm-12.5-.2v.1h-.3a.5.5 0 0 1 .4 0zm127.7-6.7h.4a.5.5 0 0 1 -.4 0zm-138.7 8c.2-.2.2-.2.4 0zm88.5-4.7h-.3zm57.3-4h.5zm-147.1 15h.4zm99.2-10c-.2.2-.2.2-.3 0zm-11.3.8c0 .1-.1.1-.2 0l.2-.1h-.1v.1zm-51.2.6h-.3zm35.3-1.3h-.4zm36.7 1.4c.2-.2.2-.2.3 0zm-46.7-1.6h-.3l.1-.1v-.1h.2zm-27.1 2.3c-.2 0-.3 0-.3-.2h.2c-.1.2 0 .1.1.2zm98.8-5c.2-.2.2-.2.4 0zm-115 4.5h.4zm148.5-3h.4zm-111.2.3a.4.4 0 0 1 -.5 0 .3.3 0 0 0 .3 0zm-.6 2c.1 0 .3-.2.5 0l-.5-.1zm64.3-2.5.2-.1zm-93.8 4.4c-.1 0-.2.1-.4 0zm52.8-1.2h-.4.1v-.1a.3.3 0 0 1 .3 0zm-116 13.6c.1-.2.1-.2.3-.1h-.3zm14.6-1.8h-.3c.1 0 .2-.1.4 0zm99-13.2h.3zm-40.7 2.7h-.4zm102.4-8.3.3.1-.3.2zm.5 3.6.3.1h-.3zm16.5-3h-.4zm-108 6v-.1h.5-.5zm-5 1 .2-.2.1.1h-.3zm-41 7.6c.2-.1.2-.1.4 0zm51.4-10 .2-.1h.1zm32.9-.2h.4zm-32.5-.5h-.3a.2.2 0 0 1 .2 0zm42.8.2h-.3zm2.8.7c.1-.1.3-.1.4 0zm35.6-2.1a.4.4 0 0 1 -.4 0zm-116 9.7c.2 0 .3-.2.4 0zm59.4-8.4h-.3zm-.3-.2h.3c-.1.2-.2 0-.3 0zm36.7.4h.4zm-41.9.3a.2.2 0 0 1 -.2 0zm-63.5 3.6.4-.1c-.2.2-.3 0-.4.1zm82.6-5.2c.2 0 .1.2.2.2h-.1v-.2zm-18.8 2.8h.3zm-79.2 9.7c0-.2.2-.1.3-.2 0 .2-.2.1-.3.2zm155.7-13h-.4zm-60 2.2h-.3zm-56.7 4h-.3l.2-.1v.1zm-2-1.9h.3-.4zm-.2.2c0 .1 0 .1-.2 0zm17.8-1.1h-.3zm-22.5 4c.1-.1.2 0 .2 0h.2zm.1-.8s-.1.1-.2 0zm29.8-2.7h.3zm-81 12.6h.3zm76.6-13v-.1h.6-.6zm30.4-.6h.3zm-73.9 2.1h.4c-.1 0-.2.1-.4 0zm77.9-3.3-.3-.1h.3zm-87 10.6h-.3zm-16.3-7-.5.1zm97.9-2.8h.3zm60.9-4.8a.2.2 0 0 1 .2 0c-.1.2-.2.1-.2 0zm-43.9 5.3-.2.1s0-.2.2-.1zm-109 3.5h-.1a.2.2 0 0 1 -.2 0h.2zm140.4-6.2h.3zm21.2.1v.2h-.1v-.2zm-102.4 4.2h.3zm-19.8.2c.1 0 .1-.2.2-.1 0 .1 0 .2-.2.1zm68.3-2.2v-.1h.2v.1zm-37 .5h.4-.3zm48.7-.1h-.4zm40-5.6h.3zm-15.7 2.5c0-.1.1-.1.2 0zm-72 3.1h-.3zm20-.5h-.2.3zm1.5-.1-.2.1c-.1 0 0 0 0-.1zm-84.4 10.2h-.4c.1 0 .2-.1.4 0zm135.8-11.2h.2zm9.2-.6.2.2c-.2 0-.2 0-.2-.2zm-82 2h-.2.3zm23.2 3.1h-.3zm-42.3-2.9h-.3v-.1h.2v.1zm-28.3 3.5h.3zm65-5.1c.1 0 .2-.2.3 0zm86.1 7h.3zm-117-5v.1h-.1.3zm-68 11.4c-.2.1-.2.1-.4 0zm161.9-16.5h.3zm-137 7.2h.3zm109-4.8v-.1c0-.1 0 0 0 0zm-47.8 1.9h.3c-.1 0-.2.2-.3 0zm75.1-2.6c.1-.2.1-.2.3 0zm-74.5.9h.3zm-29 2.7h.3-.2zm-35.6 8.4h.3s-.2.2-.3 0zm154.8-10.7a.3.3 0 0 1 -.3 0zm-182.1 15.2-.3.1h.3zm39.4-9h.3zm122.3-6.5h.3zm40 7.5h-.4.3zm-154.5 1.2h-.1c.1-.2.2 0 .3 0zm47.6-5.7c.1 0 .1.1 0 .2zm64.3-4.1h.4zm-7.5 0h.3zm-100.5 6.4h-.2zm-32.6-1.3h.3zm90.8-1.8h-.3zm68-5.4h.3zm-32.5 1h-.3zm9.5 1.8h-.3zm-5-.2h-.4a.5.5 0 0 1 .4 0zm-90.5 5.6h-.3zm-45.2 8h-.3zm108.9-13.2c0-.1.2-.2.2 0zm33.2.3h-.2zm-116.2 6.9h.3zm-1.8.5a.3.3 0 0 1 .3 0zm82.7-6.2h-.2s.2-.1.2 0zm-.5-2h.3zm27.4-1v-.1h.3-.3zm-115.8 9.3h.3zm107.2-6.9h-.3zm-19.4-1.7.1.2c-.1 0-.2 0-.1-.2zm33.8.5-.1.1c-.1 0 0 0 0 0zm-29.6 0c0 .2 0 .2-.2.1h.2zm-58 2.5h.3-.2zm-39.4 9.5h.2-.3zm69.5-10h.2zm-26.3 1.9h.3a.2.2 0 0 1 -.3 0zm0 3.8h.2zm62.3-6.4h.2zm-126.7 13.8h.2zm215.9-7.2h-.2zm-118.9-5.7-.2-.1h.2zm119.8 5.8h.3zm-119.5-4.7-.2.1c0-.1.1-.1.2 0zm47.6-3.3h-.2zm-109.7 10.2h.3zm37.2-8.6c0-.1 0-.1.2 0h-.4zm-31.6 1.7-.1.1h-.1zm64-2h-.4.3zm-62.9 8v.1h-.2.2zm103.4-8.6h.1zm70.8 7.3h.3zm-230.3 2.8h.2zm135.5-10.6c-.1.1-.2.1-.2 0zm13.5 2h-.2c0-.2.1-.2.2 0zm-147.4 15.8-.3.1zm56.7-10.1h-.3zm21.8-1.6h.3zm-78.4 1.8h.3zm159-8.2h-.2.3zm-102 3.2h.2zm.2 2.5a.2.2 0 0 1 .2 0zm.8.8.2-.1h-.2zm116.6-7.9h-.2zm-75 2.4h.2zm25.3-.3h-.2zm-38 3.1c0 .2 0 .1-.1 0-.1 0 0 0 0 0h.2zm29-2.8h.3-.2zm26.3-.7c-.1.1-.1.1-.2 0zm11.9-.8h.2zm8.5-.4-.2-.1h.1v.1zm-97 6h.3v.1h-.3zm115.6-6.5h-.2zm-156.2 14.5c.1-.1.1-.1.2 0zm157.2-14.5h-.3a.2.2 0 0 1 .3 0zm-76.8 5h.3zm77-6.7h-.1zm-161.7 9h-.3zm133.6-3h-.2zm-43.2-2.5-.2.2c0-.2.1-.2.2-.2zm-97.8 15s.1-.2.2 0zm94-13.1h.2-.3zm68.4-2.4h.1zm-129 9.7h-.2zm2.7.4h-.2zm-2.9-5v.2h-.1l.1-.1zm25.6-1.8h.2zm34.7-1 .2-.1zm-18.7.4h.2zm83.2-1.6c0-.1.2 0 .2 0zm-13.7-1s0 .1-.2 0zm.3.4h.1zm-144.2 5h-.2zm66.5 2.2h-.2zm-65.5-2.2h.2zm65.2-1.2h-.2zm35.8-2.9h-.3zm-97.4 3.7h.3zm140-3.1h.1-.2zm-1.8-2.7h-.3zm-70.6 4.4.2-.1zm20.2-.6h-.2l.1-.1v.1zm-84.5 10.6h-.3zm36.3-8.8h.2zm35.5 1.7h-.3zm22.9-5h.3zm10.3-1.5h-.2zm-50.2 4.3h-.3zm101-4.7h-.1zm-113.5 8.7h-.3zm0-1h.2-.3zm12.5-3h.1zm77.2-4.2h.3zm-89 7.6h-.4.3zm-38.8-2.7h.1zm153.7-6h.2zm-103.2 9h.3zm31.6-5h.3zm47.4 3.6h.2zm-34-5.2h.2-.1zm-30.5 3h.2zm-66.6 8h.2zm180.8-4.3h-.2zm-131.8-3.7h.3zm-5.8-.8h-.1zm-34.2 8.6h-.2zm-23.5 3.6h-.2zm66.4-13.2c0-.1.1-.1.2 0zm1.2 1.6h.2zm67-2.1-.1.1v-.1zm-45-.8h.1l-.1.2zm16.5 1.7h.1zm-18.3-.4h.2zm85.5-2.2v-.1zm-164.1 6h.2zm22.6.6v-.1h.2-.2zm-30.3 8.6-.2.1h.2zm31.7-4.7a.2.2 0 0 1 -.3 0zm26.7-7.7h.2v.1h-.1zm90.6-1h-.2zm12.5-3.8h-.2zm-102.4 10.1h-.3zm101.6-7.7c0 .1 0 .1-.2 0zm-101.5 2.3-.2.1h.2zm47.2-2.5h.2zm-28.6.8h.1zm6.9-.3h-.3zm-98.6 7.6h.2zm96.9-5.1v-.1h.2-.2zm18.7-3.1h.1zm55.8-1.3h-.1zm-80.5 2.9c0-.1.1 0 .2 0zm-75.2 13.3h.1zm118.2-13.3h-.2zm-82.9 2.3c0 .1 0 0-.2 0zm25.1.2h-.1zm61-.5h-.2.1zm-86.9 1.9h.1zm-.7-2.1h.1zm2.1.6h-.1zm-50.9 4.1h-.3.2zm54 1.2h.3-.2zm34.1-7.6h-.1zm-41 5.3h-.1zm9.4.8h-.2.1zm62.8-7.3h-.1zm-38.8 3.6h.1zm-.4.2h.1zm-35.8 0v-.2h.1-.1zm54.2-2.2c0-.1.1-.1.2 0zm12.2-1.5h-.1zm-52 2.7h-.1v-.2zm152 4.3h-.1.2zm-41.5-9.8h-.2zm-45.6 2.7h.2zm-81.7 3.6h.1zm120-5.3h-.2zm-122.4 12.3h-.2zm61.2-10.2h.1zm53.4-1v.2h-.1zm-31 .1h-.1.2zm-106.1 14.2h-.3.2zm102.1-13.7h-.2zm47.6-1.1h.2zm-95.3 4.7h.2zm74.5-3v.1zm42-1.8h.2zm-.4-1.3h.1zm-43.2 1h-.1zm-35.8 3.3s-.1.2-.2 0zm47.9-2.2h-.1zm-86.1 8h-.2zm114.4-11.3h.1zm-21.3 3h-.1zm-138.1 12.6h-.1zm66.6-8.7h.1zm22.4-4.3h.2zm-87.8 4.9c0-.1 0-.1.2 0zm40.9 4h-.2v-.2h.2zm116-10.6h-.1.2zm-156.7 7.2h-.1zm109-4.2h.1zm48.3-4.3h.1v.1zm-62.3 5h-.2zm-57.2 6.7h.2zm91.8-6.4h-.1zm-50.2.6h.2zm17 1.1h-.1zm63-4h-.1c-.1 0 0 0 0 0zm-100.9 1.4h.2zm-52 6.8h.2-.1zm144.8-10h-.1zm-31 1.3h.1zm-110.5 7.4.2-.1h-.2zm126.5-3.9h.1zm-23.4-1.5h.2zm-78.7 5h.2zm71.5-3.6.1-.1h-.1zm65.6-5h.2zm-137.9 10.4h.1zm15.3-5.2h.1zm1.3.2c0 .1 0 .1 0 0h-.1zm12.5.4h-.2zm10.8-.3v-.1h.1zm-39.9 0 .2-.1h-.2zm19.3 1v.1zm16.4-1h.2zm-36.7 1.9h.1zm99.1-5.3h-.1zm18-2.6v.1h-.1zm-132.8 13.4h-.1zm117.7-11.4h.1zm-103.4 4.3h.2zm55-1.5h-.2.1zm-1.8.8h.2zm-63.8 1.4h.1zm125.7-5.9h-.1zm-88.8 6v.2-.1zm-85.8 9.8h-.1zm70.4-9h-.1z" fill="#ffbe18"/></svg>