<svg fill="none" height="22" width="200" xmlns="http://www.w3.org/2000/svg" xmlns:xlink="http://www.w3.org/1999/xlink"><clipPath id="a"><path d="m0 0h200v22h-200z" transform="matrix(1 0 0 -1 0 22)"/></clipPath><g clip-path="url(#a)"><path d="m93 3.6-.1-.1h-2.4v.2h-.5c0-.1 0 0 0 0h-1.4l-.2.1v.2l.3-.2v.2h.1c.2 0 .4 0 .6-.2h.2l-.1.1h.5-.3c.2-.2.3-.1.4-.1h.4-.3l.1.1h.5c0-.2.2-.2.3-.2h.3c0-.2 0-.2.2 0l.2-.2.1.1h-.2l.4.1v.3h-.8l-.8.1h-.1l-.4.2v-.3l-.2.2v.2h1l-.1.2h-1.1s.2 0 .1-.2h-.5l.2.1h.1a.3.3 0 0 1 -.3 0 .5.5 0 0 0 -.4 0v.1c-.3 0-.6 0-.9.2l.1-.4h.4l-.2.2h.6v-.2h-.4l-.2-.2a3.1 3.1 0 0 1 -.7-.1h-.5v-.1h.6l.2-.2h-.2l.2-.2h-1.2l-.1.1v-.1h-1.3a.6.6 0 0 0 -.5.1.4.4 0 0 1 -.4 0h-.1l-1.6.1.3.1h.2a.5.5 0 0 1 .4 0l-.2.2v.1s0 .1 0 0l-.7.1h.3c-.1.1-.3 0-.4.2l-.3-.1h-.5a2 2 0 0 0 -.4.1l-.1-.1h-.3c0-.1.1-.2.2-.1h.1l.2-.1h.2c0-.2.2-.2.2-.3l-.5-.1c-.1.1-.4 0-.5.2h.4-.2l-.2.1-.2.1.2.1-.5.1.2.2h-.5l.2.1h.1l.2.1-.4.1h-.2l-.3.1h-.9.1-.5l.5-.3h-.4l-.2-.1h-1.5v.2-.2h-1.4a3 3 0 0 1 -.4 0h.1c0-.1 0-.1.1 0v-.4h1.2l-.3.1h1.3l-.1-.1h.5l.4.1h.7l-.2-.2h.6v-.1a2 2 0 0 0 -.6 0h-.4l.3.1h-.7.4l-.1-.1h-.5l.1-.1h-.5a6 6 0 0 1 -1 .1h-.4l-.5.1-1.3.1h-2.1v.1l-1.3.1c0 .2.3 0 .3.2h-.2l.1.2h.2l.5-.2h.1l.1-.1.4.1.5-.2c0 .2-.2.1-.3.2h1.2l-.2-.2h.2c0 .2 0 .1.2 0h.4-.3l.2.1h.5l-.3.2h-.4l-.3.1c-.1.1-.2 0-.2 0v-.1h-.3c0 .1-.2 0-.2 0l-.3.1h-.5l-.4.3h.9l-.3.1h-.4s-.1.1-.2 0a.7.7 0 0 1 -.7 0l.1.2-.6.1v-.2h.3l.1-.1h.5l.2-.1v-.1h-.5l-.5.1h-.5l-.3.2h.2l.1.2a1 1 0 0 1 -.5 0h-.2v-.1l.3-.1h-.3v-.3h-.6v.2h-.4l.7.3c-.3 0-.6.2-1 .1v-.2.2l-.6.2v-.2l.1-.2-.5.1.1.2-.1.1h-.2a.5.5 0 0 0 -.5-.1l-.4.1h-.2v-.2h1l.2-.1h-.4v-.2l-.3.2h-.4l.1-.1h-.3v.1h-.3l-.3.1h-1l-.2.1h-.2c-.1-.1-.2-.1-.2 0l-.7.1-.3.1v.1l-.6.1h.3l-.1.2h-.6l-.8.1a3 3 0 0 1 -.4 0v.2h-.2c0 .2-.1.2-.2.3h.3l1-.2h.1l.2.1-.5.2h.5c-.3 0-.5.2-.7 0v.1h-.4.3l-.1-.2h-.8l.2.2c-.2.2-.3.2-.5.2s-.3.2-.4 0l.3-.1-.4-.2v.2h-.1c0 .1-.1.1-.2 0h.2l-.1-.2h.5l.2-.3s.2-.1.2 0c0 0 .1.1.2 0h.2l-.1-.2h-.9c0 .2.3 0 .3.3h-.3l-.1-.5 1.4-.1h-.3l.4-.2-.5.1a1 1 0 0 1 -.4 0l-.8.1h-.2l-.5.1h-.2l-.5.1h-.5v-.2l-.6.1v.1h-.4.2c-.2.2-.2.2-.2 0 0 .1-.1 0-.1 0h-.5.2v.1h-.5l-.2.2h.3c0 .2-.2.3-.3.3h-.7l-.7.2-.3-.2.3-.1v-.2h-.3a.6.6 0 0 1 -.5 0h-.2a.3.3 0 0 1 -.3.1h-.2l.1-.1h-.1.1v-.3l.5-.1.8-.1h.6l.2-.2-1 .1-1.2.2v-.1h-.6l-.4.1h-.4.1v-.1h-.4v.1h-.2l-.3.2c-.2 0-.3.2-.5.1l-.2-.2-.5.2h-.6c-.2.2-.4.1-.6.1h.1a.6.6 0 0 0 -.5 0h-.2c-.2 0-.5-.2-.7 0h-.3c0 .2-.3.1-.4 0h-.4l.4-.1h-.8l.3.1h-.4v.3h-.3v.1l-.3.2a.4.4 0 0 1 -.5 0 .3.3 0 0 0 -.2 0h-.6v-.3l.2-.1c-.3 0-.6 0-.9.2v.1c-.2 0-.3 0-.4.2 0-.1 0-.2-.2-.1h-.3l.2-.2-.6.1v.2l-.2.2-.3.1h.1c0-.2-.1 0-.2-.1l.1-.1h-.3a.8.8 0 0 1 -.3-.2l.3-.1h-.6l-.6.1h-.5c-.2.1-.3 0-.4 0l-.4.1c-.1.2-.3.1-.4.1l-.3.1h-.2l-.3.1v-.1h.2l.7-.2h.1-.7l.3-.1-1 .1-.1.2-.7.2v-.3h-.3l-.6.2h-.2c0-.2-.2 0-.2 0a1 1 0 0 1 -.5.1h-.2v.2h-.1a.4.4 0 0 0 -.4 0h-.7c-.2.2-.3 0-.5.1-.1 0-.3 0-.4.2h-.1c-.1-.1-.3 0-.4 0h-.1l-.1.1h-.3.2-.6.2l-.1-.1a1.8 1.8 0 0 0 -.7.1l.4-.2c.1-.1 0-.1 0-.2h.2l.1-.1h-.3a.2.2 0 0 0 -.3 0l-.4.2h-.3.2v.1l-.3.3h-.3l-.2.2h.7-.2l-.4.2-.2.2h-.3l-.3.1c.1 0 .4 0 .5-.3a.9.9 0 0 1 -.7 0l.2-.1-.1-.1.2-.1-.8.1.4-.1.2-.1v-.1l-1.5.2.3-.1h-.1v-.2l.5-.1.6-.1h.3v-.1h-.3v-.2c-.2 0-.3.2-.5.1h.1l-.1-.1-.1.1c-.1-.1-.2 0-.3.1l-.3.1v-.1h-.2c0 .2 0 0 .1 0l-.4.3v-.3h-.4.3l.1-.1h-.5l.2-.1-.7.2h.2l-.2.1h-.2c-.1.2-.2 0-.3 0v.1l-.4.1h-.6a.2.2 0 0 1 0 .1h-.2l-.4.2v-.2l-.9.2-.1-.1c0-.1.2 0 .2 0l.1-.1h.1-.7l-.2.2h-.5l.3-.2.2-.1c.2-.1.3.1.4 0l.4-.1h-.1l.5-.3-2 .4v-.2h-.2l-.4.2h-.8l-.3.1-.3.1a1.5 1.5 0 0 1 -.8.2l.6-.3h.3a18.6 18.6 0 0 0 1.2-.3h-1.1l-.5.2h-.1c-.3 0-.6 0-.8.2 0 0 0 .1-.1 0h-.2a2 2 0 0 1 -.3 0l-.5.1-.2.2h-.5l.3-.1h.3l.3-.2h-.5l-1 .3-.5.1-1.1.3-1.5.4a1 1 0 0 1 -.5 0h-.3l-.3.1h-.3l-1.2.4-.5.2h-.2l-.2.1-.5.2h-.2l-1 .3-1 .3-.9.3-.8.2-1.2.4h-.1.4c0 .1.1 0 .2 0h.2l-.7.4a3 3 0 0 1 -.6.2c-.1 0-.2.2-.4.1v.1h.4l-.2.2c0 .2-.1.3-.4.4h-.1v.1l.9-.2-.2.3-.6.3-.2.1-.1.3h1-.1s-.2 0-.1.2h-.1l-.3.2h.3v.2h.3c0-.1.1 0 .2 0v.2h-.4v.1l-.7.3.2.1-.2.1h.5l-.4.2h.2v.1h.4l.1.2h-.3.1-.2l-.2.1v.4c.2 0 .2-.2.4 0l-.5.1v.2h.4-.1v.5h.2c0 .1 0 .1.2 0v.1h-.1l-.2.2h-.2c0 .1.1.2.2.1a.1.1 0 0 1 .2 0l.2.1h.3l-.1.2-.2.1-.2.1h.2a.3.3 0 0 1 .3 0c0 .2-.3.1-.2.4h.4c-.1.1-.3 0-.5.2h.4c-.1.2-.3 0-.3.3.2 0 .4-.2.6 0h-.2v.1l-.2.1-.1.3h.8l-.3.2-.3.1c.1.2.1.2.4.2h-.2l.1.2h.3c0 .1-.3 0-.3.2h.3l-.1.1h-.1l.1.2h.5l-.2.1v.1l-.1.3h.1l.4-.2-.1.2v.1l.2.1.2.1.8-.2c0 .2-.2.2-.4.3h.2l.6-.2 1-.4.7-.2.6-.2h.1l.2.1-.2.1.6-.1h-.1v-.2l.5-.2h.2l.2-.2.1-.2h.8c.1-.2.1-.2.2 0 .1-.2.3-.2.4-.3h.3l-.1.1a7 7 0 0 1 1.1-.3v.1h.3-.1v-.1l.3-.1.7-.2.1.1s0-.1.1 0h.1c0-.2.1-.2.2-.2h.3l.4-.2.3-.1h.2c.1-.2.3-.1.4-.1h1l.2-.2h.2l.6-.2c.1 0 .2-.2.1-.3l-.6.2h-.5v.1h-.2.2c.2-.2.3-.3.5-.3h.7l.3-.2h.4l.1-.2h.3c-.1.2-.1.2-.3.2v.1h.2a.3.3 0 0 1 .3 0h.9v.1c.2 0 .5 0 .7-.2l-.5.1v-.2l.3-.1.2-.2h.9l.3-.1h-.1c0-.1.1 0 0-.2h1a.4.4 0 0 0 .3 0 2.2 2.2 0 0 1 1-.1c0-.2.1-.2.2-.3a.6.6 0 0 0 .6 0h.3l.3-.1c-.1-.2-.3 0-.4-.1h.1v-.1h.3a.4.4 0 0 0 .3 0h.8l.4-.2h1l.3-.2h.1l.4-.1h.2l.5-.1h.3l.3-.1.3-.2h.6l.7-.1h.5-.1l-.1.1c0 .1-.1 0-.2 0h-.4a2 2 0 0 0 -.6.2l-.9.2h-.2v.2c0-.1 0 0 .2 0l.3-.1h.6c.2-.2.5-.2.7-.2l.6-.1.8-.2h.4l.3-.1a.3.3 0 0 1 .2 0l.3-.1h.5l.9-.1.3-.1 1-.2 1-.1.3-.2h.5a100 100 0 0 1 2.9-.5h.2c.2 0 .5 0 .7-.2 0 .1.1.2.2 0a.1.1 0 0 1 .1 0h.7l.7-.1h.5l.3-.1h.3l1-.2.2-.1h.1l.1.3.4-.2h-.4l.3-.1h.1l.8-.1.3-.1h.2l.2.2s0-.2.1-.1l.5-.2h1l.3-.1h.2v-.3l.2.2v-.1h.6l.2-.1h.2s0 .1 0 0h.2-.1v.1h.7l.6-.1v-.2h.1s.2 0 .1.1h.8v.1h.2l.1-.2h.1l.1.2h.2l.2-.1v.1h.6v-.2a.2.2 0 0 1 -.2 0h.2l.2-.2h.2-.2c.1.2.2 0 .3.2l.1-.1.2.1v-.2l.2.1v-.2h.3l-.2.1h.2s.2-.1.2 0h.1l-.1-.2h.2v.1h1.3v-.1h1.9l.4-.2.1.1h.6l.7-.1h.2l.2-.1.2-.1h1.1-.1l.3-.1v.1h.4l-.2-.1.2-.1h.7v.1h.5v-.1h1.7l.4-.1h-.1v-.1h1.7v-.2h.3v-.1h2.3-.1 1.2s0-.2.1-.1h1l.2-.1h1.6l.5-.2h1.9s.1-.1.2 0c.3-.1.6 0 .9-.2a.6.6 0 0 0 .5 0h1.4l.1-.2.2.1h2.6l1-.1h1.7l.9-.2h3.8l1-.1h1.2l.2-.1h.3-.1.5c.2 0 .4 0 .6-.2l.1.2h.2a.4.4 0 0 1 .4 0h2.8v-.1h4.7a.3.3 0 0 1 .3 0h.5s.2-.3.3-.1c.2-.2.2-.2.4 0h2.5a5 5 0 0 1 .9 0c.1 0 .3-.1.4 0h3.7a.3.3 0 0 0 .2 0h.6l.5-.1h.7c0 .1.1.1.2 0h1.5a.3.3 0 0 0 .3 0h.7a.5.5 0 0 1 .5 0h3.6l.4.1h2.6c.1.2.3 0 .4 0l.6.1h2.6l.5.1h1.3-.1.4-.1 3c0 .1-.2 0-.4 0l.1.1h.3a.3.3 0 0 0 .3 0l.1-.1h1v.2h.2l-.2-.1h2.1-.2l1.7.2-1.2-.1h2.3-.6l.2.1h1.8-.1 1.3l.2.2.2-.1h1s0 .2.2.1h3.6v.2l.3-.1h.4a.4.4 0 0 1 .4 0 1.6 1.6 0 0 1 .6 0h.6l.6.1h.9l.7.1 1.7.1 1.5.1h1l1.2.1h1.2l1 .1h.9c.3.1.6.2 1 .1l.4.1h1.2l1.3.1 1.1.1 1.8.1h.1c-.3-.1-.7 0-1.1-.2h2.2l1.6.2h5.2v.1h3.3c.2.1.3.1.4 0h.2c.3.1.7.2 1 .1h.2-.2.5c.1-.2.2-.2.3-.1h-.1.5-.3.6l.4.1h-.2v-.1h2.7l.1.1v.1h.2a.7.7 0 0 1 .7-.1h1.7v-.2h-2.1a5 5 0 0 0 -.7-.1h-2.6l-1-.1-.5-.1c3.8 0 7.6.3 11.4.4l-1-.1-.2-.2h2.3l1.2.2h.4-.2l.2-.2h.6v-.1c.1-.1.3 0 .4 0v.2h.7-.2.4l.3.2-.1.2.2.3.4.2h.4v.4c.2 0 .2.1.3.2h.3v.2h.4v.4h.4v-.2h.4l.1-.2-.1-.3a.2.2 0 0 0 .2 0v-.5l.4-.7v-.1a.2.2 0 0 1 -.1-.1v-.2c0-.2 0 0 .1-.1l-.1-.1v-.3l.1-.2-.1-.1.3-.1v-.3l-.2-.2.1-.1h.2v-.5h.2v-.5l.1-.3.1-.2v-.5c0-.1 0-.2.2-.3v-.1l.1-.2c.2-.2.2-.2 0-.3 0-.2.1-.3.3-.4v-.5l.1-.2v-.4l.2-.2c.2-.1.1-.4.2-.6v-.2l.1-.2-.1-.1v-.4h-.1c0-.3-.1-.3-.2-.3a1 1 0 0 1 -.4-.2.6.6 0 0 0 -.4-.2l-1.3-.1-1.3-.2-.7-.1-1-.1-1.3-.1a9.3 9.3 0 0 0 -1.7-.1h-.3l-.3-.1h-.1a3 3 0 0 1 -1 0h-.8l-1-.1h-3a7.7 7.7 0 0 0 -1.4 0l-.7-.1h-1.9l-.9-.2h-3.4l-.2-.1h-.6l-1.3-.1h-1.5l-.3-.1h-.6c-.2-.1-.4-.2-.6-.1h-1.8v-.1c-.1-.2-.2-.1-.3-.1h-1.9a3 3 0 0 1 -.5-.2c-.3.1-.6 0-.8 0h-1.7l-.2-.2h-1.8l-.5-.1a1 1 0 0 0 -.6 0h-.4l-.4-.1-.3.1h-.1l-.3-.2h-1.7a.6.6 0 0 0 -.6 0h-.5.1s0-.1 0 0h-1.8v-.2h-1.3.2-1.9l.8.2h-1.2l-.3-.1h-.9v-.2h1v-.2h-1.2.1-1.1.1c0-.1-.1-.1-.2 0h-.4v.2l-.1-.1h-.2a.3.3 0 0 1 -.3 0l.1-.2c-.1 0-.2-.2-.4 0h-.3l.1.1h-.6c0-.2.2-.1.2-.2h-.9l.3.2h-1.1a10 10 0 0 1 -1.7 0c-.2-.1-.3 0-.4 0h-.3c-.1-.2-.2-.2-.2 0s-.1 0-.2 0v-.1h-.2a.4.4 0 0 0 -.3 0h-.4c0 .1.1 0 .2 0l.3.2-.2.1h-.3l.7.1.2.1h-2.9a5 5 0 0 0 -1-.1h-.2l.3.2a.5.5 0 0 1 -.5 0h-.4l-.5.1.2.1h.4v.1h.1l-.2.1-1 .1.6.1.8.1h-1.3l-.4.2a1 1 0 0 0 -.3 0h-.1c0-.2.3 0 .5-.1l-.5-.1h-.4a1 1 0 0 1 -.3 0h-1.1.4v.6h.1v-.2h1.1c-.1-.1-.3 0-.4-.3h.5v.3l.4.2h1.3c0 .2-.2.1-.3.2h.2v.1h.7v.2a1 1 0 0 1 -.3 0h-.5c0 .1-.2 0-.4 0v.2h-.1c-.1 0-.2 0-.3.2h-.5v.2h-.3l.1-.3h-.4l.1.2h-2.1v-.1h1.2l.2-.1-.6-.1h.3c0-.2-.1-.2-.2-.2l-.2.2c0-.3.2-.2.4-.2l.1.1h.2l.3-.2h-.1l-.1-.2h-.5v.2h-.4v.1l-.2-.1h-.1l-.1-.1h-.2a1 1 0 0 1 -.5.1v-.1c0-.1 0-.1-.2 0l-.2.1h-.4l-.1.1h.9l.4.1h-.2c0 .3.3 0 .3.2l-.5.1h-1l.1-.2-.2-.1h-.3l-.1.2c-.1-.3-.3-.1-.5-.1 0-.2 0-.2.3-.2h-.2v-.1l.4-.1v-.3l-.2.1h-.3v.1c-.1-.1-.2 0-.2 0-.2 0-.4 0-.6.2h.8-.2l-.1.2c0 .1.1 0 .2 0l-.3.1v-.1s-.1-.1-.2 0h-1.1.4-1.3.3c-.5.2-.5.2-.6 0 0-.1.2-.1.2-.3l.2-.1h.4a.2.2 0 0 0 .1-.1h-1.5s-.1-.1-.2 0h-.2v.1c0 .1.1.2.2.1h.4v.1h-.4c-.1 0-.1 0 0 .1-.2 0-.3 0-.4.2l-.4-.1c.2-.2.3 0 .5-.2h-1.7 1v-.1h-.8c.3-.1.6-.2 1-.1l.1-.2h.2-.2c0-.2-.1 0-.3 0a1 1 0 0 0 -.3 0v-.1h.4c0-.2-.1 0-.2-.1h-1.1l.1.1h-.2l1.2.2h-.1a.1.1 0 0 1 -.1 0h-.8c0 .2.2 0 .2.1s-.1.2-.3.2l-.2.1v-.1h-.2c0 .1-.2 0-.2.2h-.3v-.1h-.5c-.2 0-.2 0-.3-.2l-.4.1.2.1-.4.1h-.5c0-.1 0 0 0 0h.2l.2-.2h.2-1c-.1 0-.2 0-.2-.2l-.2.3-.1-.2h-.7v.1l-.8.1h-2.3s-.1-.1 0-.1v-.2h-.3c0 .2-.2 0-.3 0-.1.1-.3 0-.4.3h-.6.4l.2.1h.4l-.3.2h-.7v.1l.7.1a.6.6 0 0 1 .7.1l-.5.1c.2.2.3 0 .4.1a1 1 0 0 1 -.6 0v-.2l-.2.1v.1l-.2.1h-.3v-.1h-.7.8v-.3h-.6l.1-.4-.2.1h-.6l.6.1h-.6v.3h.1-.5s.2 0 .3-.2h-.2c-.1-.1-.3 0-.4 0a.3.3 0 0 1 .2-.1h.2l.2-.2h-.4a.4.4 0 0 1 -.4 0h.3a.3.3 0 0 0 -.3 0l-.4.1h-.4.6v.3l-.4.1h-.4 1.1l.2.1h-.2l-.4.1h-1v.2h-.7v-.1h-.3c0 .1-.1.2-.2 0v.1h-.5l-.4-.1-.5-.1h-.8l-.4.1.5.1h-1.4v.1h-.2l.1-.2a4 4 0 0 0 -.6 0l.2.1v.1c.2 0 .4 0 .5.2h-1 .3v-.2h-.3c-.1-.1-.2 0-.2 0h-.2l.3-.1h-.4v-.2h.4c.2 0 .2 0 .2-.2v-.1h-.4v.1h-.8l-.4.1h-.6.3l.2.1c-.1.1-.2.2-.3.1h-1v.2h-.2l-.3.1h.1l.3.3h.4l-.6.1h-1.2v-.1h-.4l-.1.1-.1-.1a.2.2 0 0 1 0-.2.2.2 0 0 1 .2 0h.3v-.2h-.3.2l-.1-.2h-.2l-.3.1-.1-.1h-.8c-.5.2-.9 0-1.3.2 0 0-.1.1-.2 0h.1-.9v-.1h.6v.2h.2c0-.2.2 0 .3 0l.2-.2h-.3.3l.1.1v-.1h1c.1 0 .1 0 0 .1 0 0-.2-.2-.3 0l.6.1.2.1-.3.1v-.1h-1.2c0 .2-.2.2-.4.2h-1l.5-.3-.6.2h.1-.1c-.2-.2-.4 0-.6 0v.1h-.5.3v-.3h.5v-.2h.2-.1a.3.3 0 0 0 -.3 0l-.2.1-.1-.1h-.5c0 .2.2.1.2.3h.3-.3c-.1 0-.2 0-.2.3 0-.2-.2-.2-.4-.2h-.2l-.1.2v-.2h-.2l.1.2h-.3a.2.2 0 0 0 -.2 0h-.2v-.1l-.2-.1h-.2l-.4.1a2 2 0 0 1 -.3 0l.2-.5h.3c-.2-.2-.2-.2-.4 0h-.2s-.2 0-.3-.2h.2l.2-.1h-1c.2 0 .2 0 .3.2h-.5s0 .3-.2.2v-.1h-.6c0 .1-.2.1-.2 0zm53.3-.5h-.1.3zm-53.3.9h.1-.1s-.1.1-.2 0zm-44.7 3.3s.1-.1.2 0h-.2c0-.1 0-.2 0 0zm-19.8 8c0-.2.2-.2.3-.1h-.3s-.2.1-.2 0 .1 0 .2 0zm11.3-6.7h.1c0-.1.1-.1.2 0h-.6zm114.8-6.5a.1.1 0 0 1 -.1 0c0-.1.1-.1.1 0h.3-.2zm-123 13h-.3l-.2.1h.2c.1-.2.1-.2.3-.1l-.1-.1.2-.1zm80.9-10.7v-.1h.2l-.2.1h-.2zm-13.2 1-.1-.2h.3l-.2.1-.1.2-.2-.1zm-42.3 1.4h.4c-.3.2-.3.2-.4.1h.1zm-53.9 14.2-.6.2.5-.2h.4-.4zm120-16.5h.6c0 .2-.2 0-.3 0h-.3l-.2.2v-.2c.1-.1.1-.1.2 0zm5.8-.7h.1-.5c.3-.2.3-.2.5-.1v.1zm-47.4 1.2v-.3c.4 0 .5 0 .5.2h-.2l-.3.1h-.2zm38-.1c.3-.2.6 0 .8 0 0 0 0 .1-.1 0h-.6.4-.6.2zm-43.7 1.3v.1h-1.1 1.6a.6.6 0 0 1 -.5 0zm5.2 1.2a.3.3 0 0 1 .3 0h-.3v.1h-.6.2c0-.1 0-.1.2 0v-.1zm52.8-2h-.6l.1-.1.4.1.3-.1v.2h-.2zm-49.4-1.3v-.1h.5-.4l-.1.2v-.1l-.3.1.1-.2h.2zm56.6-1.4v.1l-.2.2-.2-.1v-.2h.4-.2zm-47.3 1.1a.6.6 0 0 1 .5 0c-.1.1-.4.1-.3.4h-.2l.1-.2h-.3zm-59.4 4.4.4-.2h.1l.1.1-.1.2h-.1a.2.2 0 0 1 -.2 0h-.2zm95.7-5.2c0-.2.1-.2.3 0h-.8c-.1 0-.2 0-.2-.2h.5a.1.1 0 0 1 .1.2zm-93.1 5c0 .2-.2.2-.3.2h-.2l-.4.2v-.1c-.1 0-.3.1-.4 0l.7-.1.6-.1h.2-.2zm20.8-.7h.7a1 1 0 0 1 -.7 0h-.8l-.1-.1h.9zm-10.8.3v-.1h.1c0-.1.2 0 .2-.2h-.2.4l-.2.4c0 .2 0 .2-.2.1h-.1zm27-2.4h.1s-.1.1-.2 0l-.3.1h-.6l.2-.3.2.1zm36.3-1.6-.1.1c-.2 0-.3 0-.4.2h-.1v-.2h.8l.1-.1h-.4c.3-.2.5-.2.7 0h-.3.2l-.2.2.1.1h-.5v-.3zm-52.7 4 .8-.2.2.1h-.5l.2.1v.2h-.6l.1-.2h-.3l.1.2h-.2v-.2h.1zm39.6-.6a2 2 0 0 1 -.3 0h-.3-.5-.3c.1-.2.3 0 .4-.1h1.2l.3-.1h1.9-1.5l-.4.1h-.5zm1.6-2.6v.1h1v-.2h.5l-.4.2h1-2.4.1l.1-.2h.2s0 .2-.2 0zm35.5-1.4h-1.8a.4.4 0 0 1 -.4 0l.7-.1h1.5v.1c.2-.1.2-.1.2 0h-.1zm-10.5.5c0-.2-.1-.2-.3-.2a.2.2 0 0 1 -.1 0v-.1h-.3l-.1-.1h.2v-.1h-.1.3l.4.2h.8c0 .2 0 .2-.2.2h-.4l-.2.1c0 .1 0 .1-.2 0zm-46.7 1.3s.1-.2.1 0h.2l-.3.2h.4l-.3.1a.4.4 0 0 1 -.4 0 .1.1 0 0 0 -.1 0h-.4c-.1 0-.3.1-.4 0h-.2v-.1h.4-.2v-.2h.5l-.2.1h.7zm44.6-2.1h.1c.2-.2.4 0 .5 0h-1.1c-.2 0-.4 0-.5.2h-.5v-.1l-.1-.1c-.2.2-.2.2-.4.1h.2v-.1h-.5l-.4.1-.2-.1h-.4s-.3-.1-.4 0h-.2c0-.1 0-.2.2-.2h1.4v.1h2.3zm4.1.6h.7v.1h-1.5v.2h-.2v-.2l.5-.1h.5-.3v-.1c-.1-.1-.2 0-.2 0h-.5l-.5-.1.2-.3h-.3l.2-.2h.8l.4.1h-.3c-.2.2-.5.2-.8.3h1l.2.2h.1zm-59.7 2.9c-.1 0-.2 0-.1.1h1.1a24.9 24.9 0 0 1 1.5-.2h-.5c-.1.2-.3.2-.4.2h-.4l-.1.1h-.4c0-.1-.1 0-.1 0-.2.2-.4.2-.5 0 0 .3 0 .2-.1.2l.2-.2h-.2l-.4.1h-.2l-.1-.1s.2-.2.3 0v-.4h.7l.5-.1h.2v.1h-1zm13.5-.9v.1h3.2v-.4l-.2-.1c.2 0 .2 0 .2-.2.1-.2.3-.2.4-.1l.3.2h-.4l-.1.2v.1l-.2.1h.8l-.2.1h-.4l-.6.1h-2l-.7.2a.7.7 0 0 1 -.6 0h-2v.1h-.4v-.1h-1.2l-.5.1a.4.4 0 0 1 -.4 0h.1l.2-.1h1.8l1-.2h1.8v-.1l.3-.1h.3-.5zm64.2-3.1v.1h-.4c.2.1 0 .1 0 .2l1.2.1v.1h-.1c-.1-.1-.3 0-.4 0h-.5a.3.3 0 0 1 -.2.1.3.3 0 0 1 -.2 0h-.7.3v-.1c-.4-.1-.8-.2-1.2-.1v.1h-.2v-.1h-.2a1.2 1.2 0 0 1 .6-.2h.4v.1h.9l-.2-.1h-.4l-.1-.1h-.7c0 .1-.2 0-.4 0h-.7c.2.1.4 0 .5.2h-.8l.2-.5h.6v.1c0 .1-.3 0-.4 0h2.6zm-57.4 2.5h-.3a.4.4 0 0 0 -.4 0 .4.4 0 0 1 -.3 0v.3h-.3c0-.2 0-.3.2-.3v-.1h.3v.1c.1-.1.3 0 .4 0v-.2c-.3 0-.5-.2-.7 0l-.2-.1h-.4l1-.2h.3l.3-.2h.5l-.3.2h.3l-.4.3.5.1-.2.1h.3l-.2.2h-.4l-.1-.1zm31.8-.8-.3.1h-1.3c-.1 0-.2.1-.4 0a.2.2 0 0 0 -.2 0h-.2l.4-.1s.3 0 .3.2l.1-.2c0-.1-.3 0-.4-.2h.3l-.2-.2h.7l-.5.1c0 .2.3.1.4.2h.7l.1-.2h-.4v-.1h.3a.6.6 0 0 1 .6.1c-.1 0-.3 0-.4.2h.3s.2-.1.2 0l-.2.1zm28-1.3.6.1h.7l.5.1h.5l-.3.1v.2h-.2v-.2h-.4l-1-.1h-.7l-.7-.1v-.2h-.1l.1-.1h.3c0-.2.2 0 .3 0h-.2.9-.2l.1.1h-.2zm-73.6 3.3a1 1 0 0 0 -.6.1h-1.2a.2.2 0 0 0 -.2 0l-.2.1h-.3l-.9.1h-.3v-.1h1.2v-.1h.6l1.5-.2h.2l.1.1zm13.6-.7h.9l.2-.1h2.3c.2-.2.3 0 .4 0l-.5.1h-.6l-.5.1h-.7a.2.2 0 0 1 -.2 0 .7.7 0 0 0 -.6 0h-.6zm12.6-.4h4.7a2 2 0 0 1 -.7 0h-.5a4 4 0 0 1 -.7 0 7.4 7.4 0 0 0 -1 .1c0 .1-.1 0-.2 0 0 0-.3 0-.4.2h-.1v-.2h-.7c-.2.1-.2.1-.4 0zm13-1h.2l.2-.1h.3a.4.4 0 0 1 .4 0h.4l.1.1a.2.2 0 0 1 -.2.2h-.6-.4l-.4-.1zm-16.8 1.4h.6v-.2h-.4l.7-.1.5-.1v-.1h.3l-.2.1h.5-.1c0-.2 0-.1.2-.1v.2h.5-.3c-.1 0-.2 0-.3.2l-.2-.2v.2h-.7v-.1s-.1.2-.2.1c0 .2 0 .1-.1 0a.5.5 0 0 0 -.5 0h-.2zm46.3-3.8h-.2a.2.2 0 0 0 -.2 0h-1.3l-.2-.1v-.3l-.1-.1h1.5l.4.2.1.1zm-38.6 3h2l-.4.2h-.4a6.7 6.7 0 0 0 -1.4 0h-.1l.1-.2h.1l.2-.1h1.1-.6c-.1.1-.3 0-.4 0h-.2zm-45.6 2.2.2-.2h.8l.6-.1.1.2h-.1v-.2l-.4.1v.1h-.2l-.1.1h-.4a1 1 0 0 1 -.6 0l-.2-.1h.3zm84.3-5.1h2.1-.6l-.1.2h-.2c0-.2 0-.2-.2-.2h-.3a2 2 0 0 1 -.6 0zm-84 6.2h-.3l-.3.1h-.4c0-.2 0-.2.2-.2l-.2-.1.7-.1-.3.1h.5c.1 0 .2 0 .2.2zm58.2-3.7h-.2a.3.3 0 0 0 -.3 0h-.4l-.3-.2-.3-.1a.5.5 0 0 1 .5 0l.2.2a4.9 4.9 0 0 1 1-.2h.1l-.4.2v.1zm-49.7 3-.4-.1h.9l-.1.1h.8-.1a3 3 0 0 0 -.7.1h-.8zm-11.1.6-1.6.2h.3c-.1-.2-.3 0-.4-.2h.9-.2zm-34.4 2.7-1.2.3s.2 0 .1-.2l.1-.1h-.4l1.2-.3-.7.3.2.1h.7zm90.7-5.3.2-.1h1.9l-.2.1zm30.5-3.6.4-.1h1.2l.9.1h.1c-.1.1-.3.1-.4 0zm-19.2 1.4h.7l.7-.1.4.1s-.1.1-.2 0a.3.3 0 0 0 -.3.1h-1.3zm19.4-1.9.5-.1h1a.6.6 0 0 1 .5.1zm-.2 0h-1.5l-.5-.1c.2 0 .4-.2.5 0l.3-.1a6.7 6.7 0 0 1 1.2 0v.1zm-9 3.2h.3-.6v-.1h-.2l.2-.1c0-.2 0-.2-.2-.2h-.2l.1-.1h.4v.1l.1.1.5.2h-.4zm-81.8 2.7h.8a.2.2 0 0 0 -.1 0l-.1.1-.1.1-1.1.2h-.2l.8-.2zm97.5-4.3a1 1 0 0 0 -.5.2h-.8l-.1-.3h1.3zm-25.6.8-.7.1h-1.7a.3.3 0 0 1 -.3 0h.5a1.7 1.7 0 0 1 .6 0 .1.1 0 0 0 .1-.1v-.1l.4.1zm4-.2h-.5.2l-.1-.2.2-.3.5.1h-.1v.1h.2c-.2.2-.5 0-.7.3h.2zm51.2 8.6v.1h.3-1.3l-.4-.1c.3-.2.5 0 .6 0h.1l.3.1h.3zm-50.4-7.7h1l.3-.1h.3l-.3.3v-.2l-.4.1a1 1 0 0 1 -.4 0zm-31.1.2c.3-.1.6 0 .8.2h-.3a.3.3 0 0 1 -.3 0 .2.2 0 0 0 -.2 0c-.1.1-.2 0-.2 0h.4l.1-.1h-.3zm-54.7 9.8h-.4.3l-.2-.1 1-.2-.2.1v.1l-.6.2zm50-9h1.4c0 .1-.1.1-.2 0a.5.5 0 0 0 -.4 0l-.2.1h-.3l-.4-.1zm-.3.2h-.4a4 4 0 0 1 -.8 0c-.1 0-.1 0 0-.1l.2-.1h.8zm28.1-2.2h.1a4.6 4.6 0 0 1 1 0h.7-.2a2 2 0 0 0 -.3.2h-.1a.8.8 0 0 0 -.7-.1l-.4-.1zm14.8.6v-.1l.6-.1.3.2-.4.2-.3-.1h.3zm-29.4 1.8h-.3l-.3.1h-.3.2c-.2 0-.3 0-.4-.2h-.3c.3-.1.6-.1.8 0h-.3.9zm39-3.1h1a.4.4 0 0 0 -.4.2h-.2c-.1 0-.2 0-.1-.2zm-66.2 4.7c0-.2.2 0 .2-.2h-.6l-.1-.1h1.2l-.3.2h-.4zm45.7-3c-.2.2-.4 0-.6 0l-.3-.1.2-.1.7.1zm-71 3.2h-.3v.1h-.5v-.1h.5l.3-.1h.3c-.2.2-.4.2-.6.2l.2-.1zm11-.6 1.2-.1c-.1.1-.3.2-.5.1zm-47.3 2.3-1.5.3c.1-.1.3 0 .4-.2h-.3l.3-.1v.1l.5-.2h.6zm38.8-2h.1l.6-.1h.1l.1-.1h.5l.1.1h-.8l-.5.2h-.2zm-4.8 1.1c.2 0 .3-.2.5 0h.7a1 1 0 0 1 -.3 0l-.5.1h-.1c-.3.1-.3-.1-.3-.1zm73.8-4h.4a.2.2 0 0 1 .2 0h.3l-.2.2h-.1l-.2-.1h-.4zm-94.4 5.5.8-.1v-.2h.2c0 .1.1 0 .2 0h.2c0 .2-.2.2-.4.2h-.2c-.2.1-.5.2-.8.1zm7.4 5.1-1.4.3a.2.2 0 0 1 0-.2h1.2a.4.4 0 0 1 .3 0zm102.2-12.6h1c-.1.1-.3.1-.4 0-.3 0-.3 0-.4.2h.4c-.2.1-.3.1-.6-.2zm-32.5 1.7.4-.1.2.1-.1.2v.1c-.1 0-.2-.2-.4-.1v-.2zm-51.5 3.9c0-.2.1-.2.2-.2h.8l-.2.1h-.8zm34-1.9s0 .1 0 0h-.4l-.5.1h-.1v-.1h1.1zm-11-.8a.2.2 0 0 1 0 .1l-.2.1h-.3.2l-.1-.1.1-.1a1.7 1.7 0 0 0 -.4 0h-.1c.3-.1.5-.1.8 0zm67.2-3.5-.1.1h-.9v-.1h.9a.2.2 0 0 1 .2 0zm-104.2 8.2h.2c-.1 0-.2.2-.4 0h-.2v-.2h.2l.2-.1.1.2h-.1zm22-3.7h.8l-.3.2h-.3v-.1h-.2zm40.4-1c.3-.2.7-.2 1.1 0zm-22.6 1v.1h-.5c-.2.2-.2.2-.4 0h1zm-56.1 3.5-1.5.3.7-.2h.8zm58.9-4h.2l1.4-.1h-1l-.5.2h-.1zm11.8-.9h-.1.4c.2 0 .3-.2.5-.1-.3.2-.6.2-.9.2zm-56.8 3.1v.1h-.3l-.5.1zm-12.6 1.5v.1a1 1 0 0 0 -.7.1 1 1 0 0 1 -.4 0l1-.2h.2zm-20 12-1.4.4c.4-.2.9-.4 1.4-.4zm122.3-17.8h.1a.3.3 0 0 0 .3-.1h.6v.1zm-23.4 1.7.3-.3h.5c-.1.2-.3.1-.5.1 0 .2-.1.2-.3.2zm-44.8 3h.3l.3.1-.2.1h-.2v-.1h-.3zm84-6.3c0 .1 0 .2-.2.1h-.5v-.1h.8zm-33.2 3.3h-.7c0-.2 0-.2.1-.1a.2.2 0 0 0 .3 0l.3-.1zm-77 9.8-.5.1s-.1.1-.2 0h-.2s0 .1-.2 0h.3c.1 0 .2 0 .3-.2l.3.1zm63-9.3c.3-.1.6-.1.8 0h-.4c0 .2-.2.1-.3 0zm10-2.2-.1.2h-.3v-.2h.5zm-31.2 2h-.7c0 .1 0 .1-.1 0h-.1l.7-.1h.2zm-2.3.7h-.8c.3-.2.6-.2.8 0zm-26 2h.2a2.2 2.2 0 0 0 .8-.2h.1zm.2.5h.9zm94.5-5c-.1.1-.3.2-.4.1h-.5.2l.1-.1zm-55.9 2.3h.7s-.1.1-.2 0zm59.3-2.8a1 1 0 0 1 -.3 0l-.3-.2h.5v.2zm-16.2.5.3-.2.2.2-.4.1v-.1zm-28.6 1.8h.9-.2v.2h-.2l.1-.1h-.6zm45.7-2.3.3-.1.4.1zm-49.4 2.7.2-.1h.1c.1-.2.3-.2.4-.1h-.1l-.1.1h-.5zm33.8-1.8h-.5l.2-.1a.2.2 0 0 1 .1-.1.2.2 0 0 1 .2 0v.3zm-119.8 15.5c0 .2-.2.3-.3.2h-.3c.2-.3.4-.2.6-.2zm114.5-15.7h-.1c0 .1-.1 0-.1 0h-.7.3l.1-.1h.2l.1.1zm-84 6.1-1 .2zm31.9-4h.8zm35.7.3c0-.1 0-.2-.2-.2h.4c0 .2 0 .2-.2.2zm13.7-3h-.6l.6-.1zm-55.1 3.6h.7zm15.8-2.5c.2-.1.3-.2.5 0v-.2h.1v.2zm-74.2 15.8-.8.4c0-.3.3-.2.4-.3h.4zm84.7-14.3v-.1h.6zm-53.8 8.5v-.2l.6-.1h.1l-.4.1a2 2 0 0 0 -.3.2zm110.3-11.6-.2.2-.2-.1h-.2v-.1zm-15.2.6h.1l.1-.1a.1.1 0 0 1 .2 0c.1 0 .1.1 0 .1zm-40.7 1.2c0 .2 0 .2-.2.2v-.3h.2zm-63 10.8c.1-.3.3-.2.5-.2l-.6.2zm7.5-1 .5-.1a.2.2 0 0 1 .3 0 4 4 0 0 1 -.8.2zm114.9-10.9h.6l.3.1h-1zm-137.7 14.6c-.1.3-.4 0-.5.2h-.1zm136.7-16a2 2 0 0 1 -.8 0zm-119.7 13.3.3-.1c.2 0 .3-.2.4 0l-.5.1zm-14.8 2.6c-.2.2-.4 0-.6 0l.6-.1zm105.1-13.8h-.1l-.1-.1.2-.1.2.1h-.3zm-63.6 3.5a.8.8 0 0 1 -.7 0zm95.3-4.6h-1zm-46.7 1.4.2-.1v.1h.4c-.1.1-.2.2-.3.1zm-19.8 2.7v.1h-.5c.2-.2.3 0 .5-.1zm-50.5 7.3a.9.9 0 0 1 -.7 0zm56.3-10.4c-.2.1-.4.2-.6.1h.6zm21.3-.4h-.3c-.2 0-.3.2-.4.1l.1-.1zm-48.6 2.6v-.1a.7.7 0 0 1 .6 0h-.6zm26.1-1.5h-.6zm-44.6 3h.5c-.1 0-.3.2-.5 0zm86-3.3a.6.6 0 0 1 .6 0h-.3c0 .1-.1 0-.2 0zm-103.1 11.2.2-.1h.3zm61-11.5c0 .1-.2 0-.2 0h-.3zm-14.7 2.2h-.8c.2-.1.5-.1.8 0zm62.3-3.4-.4-.2h.5v.2zm-97.3 6.2c-.2.1-.3.2-.5.1h.5zm6-1.9h.5l-.4.2v-.2zm2.2 2.4-.3.1s-.2 0-.2.3l-.2-.3h.7zm8 .8h-.4c0-.1.2 0 .4 0zm132.4 1.2h.7zm-137.3.9c-.2 0-.3.2-.5.1zm85.2-11h.1a.2.2 0 0 0 .2 0s.2-.1.2 0zm-77 4.6h.5c-.1 0-.3.2-.5 0zm36.1-.6a.6.6 0 0 1 -.5 0zm9.9-1.3v.2h-.1v-.1h-.2v-.1zm-13.6.9a1 1 0 0 1 -.7 0zm-15.4.2a.7.7 0 0 1 -.7 0zm-35.3 3c0 .2-.2 0-.2.1h-.3zm9.3-.3h-.5zm35.9-2.2h.5a.6.6 0 0 1 -.5 0zm50.9-2.5-.2-.3c.3 0 .3 0 .4.2h-.2zm-26.1 1.2v-.1a.5.5 0 0 1 .4 0zm-24 2-.3.1-.1-.1zm7.3-1.4h.1s.2.1.2 0h.4a.6.6 0 0 1 -.7 0zm11 .4c0-.2.1 0 .3 0h.3-.7zm20-2.6h.6a.5.5 0 0 1 -.6 0zm.2.8c.2-.2.3-.2.4 0zm-39.2 3.4h.6zm-19-.5v-.1h-.1l.4-.1c-.2 0-.2.3-.4.2zm-19.6.7h.2v.2h-.2zm53.6-3.5v-.1h.3c-.1.2-.2.1-.3 0zm5.8 2.9h-.6zm29.7-2.3c0-.2.2-.1.2-.1h.3-.5zm-36.6 1h.2v.1c.1 0 0 .1 0 .1h-.2v-.1zm-31.9.4-.4.1v-.1zm-40.8 3.2-.1.1h-.4.5zm50.3-4.2c0 .3-.2.3-.3.1h.3zm72.5-1.9h.7zm-61 4.3c.1-.2.3 0 .4 0h-.5zm52.8-3.4h.5zm-39.3 0c-.1.2-.2 0-.4 0zm0 .7h-.6a.7.7 0 0 1 .6 0zm-46 4 .1-.1s0-.1.1 0h.2l-.2.1h-.4zm-38.4 1.6.1-.1.4-.1h.2zm109.5-7.1h.4c-.2.2-.2.2-.4 0zm20.6-1h-.6zm-36.7 2.9h.5-.1a.3.3 0 0 1 -.4 0zm19.6-1.6h.4zm-73.6 4.2h.5zm93.3-6.8v.1h-.4.4zm-36.3 4.4-.3-.1s.2-.1.3.1zm29.2-4.5h.3l-.1.1zm-146.5 14.5.2-.2.2.1-.2.1zm152.6-11.9h-.2c-.1.1-.2.1-.2 0 0 0-.2.2-.2 0zm-134.5 7.4c-.2.2-.4.2-.6.2zm47.8-3 .4-.1c-.1 0-.3.1-.4 0zm2.1-.8h.6zm16.2-2h-.4s.2-.1.4 0zm51.7-1.2v.1h-.3c0-.2 0-.2.3-.1zm14.4-1.7-.5-.1h.5zm-92.4 7v.2l-.7.1.7-.1zm30.3-3.3h.5zm65-3.4c.2-.2.3-.1.5 0a.4.4 0 0 1 -.5 0zm-113.4 6.7-.2.1-.1.1c0-.2 0-.2.3-.2zm9.7-2 .6-.1h-.6zm55.8-2h.6zm34.6-.7v-.1h.5-.5zm-41 2.2h-.6a.4.4 0 0 1 .4 0zm-51 1 .1-.2h.2c0 .2 0 .3-.2.3zm94.9-4.5h.5zm-130.1 6.3.4-.1c-.2.2-.2.2-.4 0zm60.8-2.8-.2.1h-.5.7zm-28.2 1.3-.3.2c0-.2 0-.2.3-.2zm-21.3 8.9.3-.1-.1.2zm111-12.7-.2.2v-.3l.3.1zm-33.3 3h-.4c0-.1.2 0 .4 0zm30.7-3.1a.4.4 0 0 1 -.3 0zm-91.9 8.7v-.1h.1l.1-.1h.2zm56-6.3a.5.5 0 0 1 -.5 0zm23 0h-.5zm53.1 5.5h-.5zm-95-5.4c.1-.2.3 0 .4-.1-.1 0-.2.2-.4 0zm48.2-3.7h.4a.3.3 0 0 1 -.4 0zm-27 2.6h-.5.4zm-34 1.1-.2-.1.3.1zm26 .3h-.5l.2-.2c.1 0 .2 0 .2.2zm-13.7 1.1c-.1.2-.3 0-.4.1zm49.9-4.4h.3zm11 .2v-.1h.4-.5zm-8.7.6h.4a.4.4 0 0 1 -.4 0zm-39.4 1.5h-.5zm-40.9 2h.2zm28-1.5h-.5a.5.5 0 0 1 .4 0zm-52.5 3 .1-.2h.2zm-22.2 3h-.5zm71.4-4.2c.1-.2.2-.2.4 0zm39.3-4.2-.1.1h-.1v-.2zm-111.7 9.7.3-.1zm99.3-8.9h.4c-.1 0-.2.1-.4 0zm45.3-1h-.6zm-96 4.1h.3-.4zm4 .3.1-.1h.2s-.2.2-.3 0zm-15 2h-.3a.4.4 0 0 1 .4 0zm62.3-3h-.5zm50.7-3.7c-.2 0-.3.2-.4 0zm-13.7 7.1h-.5zm-7.5-6-.1-.2h.1l.2.2zm-106 12h.3zm41.1-9.5a.6.6 0 0 1 .6 0zm39-2.8-.2.1zm17.1-.2h-.3c.1-.2.2 0 .3 0zm-66.4 3h.1-.3s0-.3.2-.2v.1zm30.3.5c0 .1 0 0-.1 0h-.4.3zm-27.9-.3c-.1.1-.2 0-.2 0zm-38.6 10h-.3.2zm129-13.7v-.2a.4.4 0 0 1 .3 0h-.4zm-7-.4.4.1h-.4zm-66.3 4a.4.4 0 0 1 -.3 0zm13.2-2c0 .1-.2.1-.4 0zm23.5 1.9c-.1.1-.1.1-.2 0zm.3-1.3h-.4zm-9.2-.4h.3zm-39.9 2.8h-.6.5zm114.2 3.6h.5zm-112.2-3.1h-.3zm-41.5.4c.2-.2.2 0 .3 0 0 .1 0 .1-.2 0zm-3.8 1.6c0-.2.2-.1.3-.2zm81.6-4h-.4zm-8.4-1.7v-.1h.4-.4zm-2.1 1h.3c-.2.2-.3.2-.3 0zm-6 1.7h.3zm71.4-6.4a.4.4 0 0 1 .3 0zm-59.6 3.1h.3a.3.3 0 0 1 -.3 0zm-37.4 8h.4zm37.4-7.8c0 .2-.2.1-.2.1h.2zm-19.7 2.8h-.3zm37-3.4h.3zm-2.5 3.1h-.3.2zm2.5-3.3c-.1.2-.1.2-.3 0zm-22.8 3h.3-.4zm35.7-1.4h.4zm-69.4 3.1h-.4c.2 0 .3-.1.4 0zm69.5-1v-.1c0-.1.1 0 .2 0h-.2zm-55.5-.7h.5zm60-3c0-.3.2-.1.3-.1h-.3zm-69.4 3.3c.2-.1.2-.1.4 0zm70.7-1.1h-.3zm.1-2h.3c0 .2-.2 0-.3 0zm-81.4 4.2h.4c-.2 0-.3.1-.4 0zm-10-.1h-.3zm102.5-6.8h.3a.3.3 0 0 1 -.3 0zm-111.3 8.1c.1-.2.1-.2.2 0zm71-4.7h-.2.3zm46-4h.5zm-118 15.2v-.1h.3-.3zm79.6-10c0 .1-.1.1-.2 0zm-9 .8h-.2v-.1h.2-.1.1zm-41.1.5h-.3zm28.2-1.3h-.3zm29.5 1.4h.3zm-37.5-1.7h-.2v-.2h.2zm-21.9 2.4c-.1 0-.2 0-.2-.3h.1zm79.4-5c.1-.3.1-.3.3-.2l-.3.1zm-92.3 4.5c.1 0 .2-.2.4 0h-.5zm119.3-3h.3zm-89.4.3a.3.3 0 0 1 -.3 0 .2.2 0 0 0 .2 0zm-.4 1.8h.3zm51.7-2.2.2-.2c0 .2 0 .2-.2.1zm-75.4 4.2s-.2.2-.3.1h.3zm42.4-1.2h-.3.1a.2.2 0 0 1 .2 0zm-93.1 13.6c0-.2 0-.2.2-.1 0 0-.1.1-.2 0zm11.7-1.8h-.3zm79.5-13.1c0-.2.2-.2.3-.1h-.3zm-32.7 2.6h-.3zm82.3-8.1h.2l-.2.2zm.3 3.5.2.1c-.1.1-.1.1-.2 0zm13.3-2.9h-.3zm-86.7 5.9s.2-.2.3 0h-.2zm-4 1v-.1h.2c-.1.2-.2.1-.3 0zm-33 7.6h.3-.2zm41.3-10v-.1h.3-.3zm26.4-.3h.4zm-26.1-.5h-.2a.1.1 0 0 1 .1 0zm34.4.2h-.3zm2.2.7h.4zm28.6-2.1a.3.3 0 0 1 -.3 0zm-93.1 9.7h.3zm47.7-8.4h-.3zm-.3-.2h.3c-.1.2-.2 0-.3 0zm29.5.4h.3zm-33.5.4a.1.1 0 0 1 -.2 0zm-51 3.5h.3zm66.3-5.2c.1 0 0 .2.2.2h-.2zm-15.2 2.8h.2zm-63.6 9.8c0-.2.1-.1.2-.1 0 .1-.1 0-.2 0zm125-13h-.3zm-48.2 2.2v.1h-.2c0-.1 0-.1.2 0zm-45.5 4h-.3l.2-.2v.1zm-1.7-2h.3zm0 .2c0 .2-.1.2-.2 0zm14.2-1h-.2zm-18 4c0-.2.1-.1.2-.1h.1-.3zm0-.9c0 .1 0 .2-.1 0h.2zm24-2.6c.1-.1.1-.1.2 0zm-65 12.5c0-.1 0-.1.2 0h-.5zm61.5-13h.4zm24.3-.5.2-.1v.1h-.3zm-59.3 2 .3-.1h-.3zm62.5-3.3h-.2v-.1h.2zm-69.7 10.6h-.3zm-13.1-7-.4.1h.4zm78.5-2.8h.3zm48.9-4.7h.1zm-35.2 5.2s0 .2-.2.2c0 0 0-.2.2-.2zm-87.6 3.5a.1.1 0 0 1 -.2 0zm112.9-6.1h.3zm17 0v.2-.1zm-82.3 4.3h.2zm-15.9.2c.1 0 0-.1.2 0zm54.8-2.2h.2zm-29.6.3h.3zm39 0h-.3.4zm32-5.7h.3-.2zm-12.4 2.7c0-.2 0-.2.2-.1h-.2zm-57.9 3c-.1.1-.2.2-.3 0zm16-.5v.1h-.2l.3-.1zm1.2-.1c0 .1-.1.2-.2.1zm-67.7 10.2h-.2.3zm109-11.2h.3c-.1.1-.2 0-.2 0zm7.4-.5.2.1zm-65.6 1.9h-.3zm18.5 3.2h-.3v-.1h.3zm-34-3-.2-.1.2-.1zm-22.8 3.4h.3zm52.3-5.1s.1-.2.1 0zm69 7h.3-.2zm-93.8-5v.1h-.2.2zm-54.6 11.6h-.3zm130-16.5h.2-.3zm-110.3 7.1h.3zm87.7-4.8h-.1v-.1s.1 0 0 0zm-38.4 2h.2s-.2.1-.2 0zm60.4-2.7c0-.1 0-.1.2 0zm-59.8 1h.2zm-23.3 2.5h.2zm-28.7 8.5h.2s-.1.2-.2 0zm124.4-10.6a.2.2 0 0 1 -.3 0zm-146.3 15.1-.2.1h.2zm31.7-9h.2c0 .1-.1.1-.2 0zm98.2-6.5h.2zm32 7.5h-.2.3zm-123.8 1.2h-.2c0-.1.2 0 .2 0zm38.1-5.7v.2zm51.6-4h.2zm-6 0h.2-.3zm-80.8 6.4s-.1.1-.2 0zm-26.1-1.4h.3zm72.8-1.8h-.3zm54.8-5.3h.1zm-26.2 1h-.2c0-.2.1-.2.2-.1zm7.6 1.8h-.2c0-.1.1 0 .2 0zm-4-.3h-.3a.3.3 0 0 1 .3 0zm-72.6 5.6h-.3zm-36.3 8h-.3.2zm87.4-13.2s.1-.1.2 0zm26.7.3h-.2zm-93.3 7h.2zm-1.5.5h.2zm66.5-6.2h-.3zm-.4-2h.2zm22-1h.2-.3zm-93 9.3h.2zm86-6.8h-.2zm-15.6-1.9.2.2c-.2 0-.2 0-.2-.2zm27.2.5c0 .1 0 .2-.1.1zm-23.8 0-.1.2.1-.1zm-46.5 2.8c0-.2 0-.2.2-.1h-.2zm-31.8 9.3h.3zm55.8-10.1h.2c-.1.1-.1.1-.2 0zm-21 2h.2a.1.1 0 0 1 -.2 0zm0 3.7h.2zm50-6.2h.2zm-101.7 13.7c.1-.1.1-.1.2 0zm173.3-7.3v.1h-.1.1zm-95.4-5.7h-.2c0-.1.1 0 .2 0zm96.2 5.8h.2s-.1.1-.2 0zm-96-4.5h-.1c0-.1 0 0 .1 0zm38.3-3.4h-.2zm-88.2 10.1h.2zm29.8-8.6h.2zm-25.3 1.7v.2l-.1-.1h.1zm51.4-2h-.3zm-50.4 8v.1h-.2.2zm139.8-1.3h.2zm-184.8 2.8h.2zm108.7-10.5h-.2zm10.8 1.8h-.1zm-118.4 16h-.1.2zm45.6-10.1h-.2zm17.5-1.6h.2c0 .1 0 .1-.2 0zm-63 1.7h.3-.2zm127.8-8.2c-.1.1-.1.1-.2 0zm-82 5.6h.2zm.6.8.2-.1h-.2zm93.9-7.8a.1.1 0 0 1 -.2 0zm-60.3 2.4.2.1zm20.4-.2h-.2c0-.1 0 0 .2 0zm-30.6 3c0 .2-.1.1-.2.1h.2zm23.3-2.8h.1zm21-.6h-.1zm9.6-.9h.1zm6.8-.3-.1-.2v.2zm-77.9 6h.2zm92.9-6.5h-.2v-.1h.2zm-125.3 14.4c0-.1 0-.1.1 0zm126.1-14.4h-.2a.2.2 0 0 1 .2 0zm-61.5 5h.3zm61.8-6.6h-.2zm-130 8.8c0 .2 0 .1-.1 0h.2zm107.4-3h-.2zm-34.8-2.3v-.1zm-78.4 14.8s0-.2.1 0zm75.4-13c.1-.1.1-.1.2 0zm-48.7 7.3h-.2zm2.2.4h-.2zm-2.3-4.9-.1.1zm20.5-1.8h.2zm28-1v-.2.1zm-15.1.2h.1zm66.8-1.6h.2zm-11-1c0 .1 0 .1-.2 0zm.2.5c0-.1 0-.1.1 0zm-115.7 4.9-.2.1h.2zm53.3 2.2s0 .1-.1 0zm-52.4-2 .1-.1h-.1zm52.3-1.2h-.2c.1-.1.2-.1.2 0zm28.7-3v.1h-.2.2zm-78.2 3.7h.1zm112.3-3.1h.2zm-1.3-2.8h-.2zm-56.8 4.4h.2zm16.2-.6v-.1zm-67.8 10.6h-.2zm29.1-8.8h.2zm28.5 1.7h-.2zm18.4-5h.3zm8.3-1.4h-.2s.2-.1.2 0zm-40.3 4.2h-.2zm-10.1 4h-.2zm0-1h.2zm10.1-3h.1v.1h-.1zm62-4.2h.2zm-71.6 7.6h-.3zm92.4-8.6h.1zm-83 8.8h.3-.2zm25.4-5h.2zm38 3.6h.2zm-27.2-5.2h.1zm-24.6 3h.2zm-53.4 8h.1zm145.1-4.2h-.1zm-139.6 4.2h.1zm34-8h.2zm-4.7-.6h-.1v-.1zm-27.5 8.5h-.2zm-18.8 3.6h-.2zm53.3-13.2h.1zm13.6 1.2h.1zm41-1.8v.2zm-36-.7-.1.1v-.1zm13.1 1.6h.2zm-14.6-.3.2-.1h-.2zm-63.1 3.8h.2zm18.2.6h.1zm-24.4 8.6-.1.1h.1zm25.5-4.7a.1.1 0 0 1 -.2 0zm21.5-7.6h.1zm72.7-1h-.1v-.1zm10-3.9h-.1zm-82.2 10.2h-.2zm81.5-7.7v.1zm-81.4 2.3h-.2zm14.9-1.8h.1zm5.5-.3s0 .2-.2 0zm-79 7.7v-.2zm77.7-5.3c0-.1 0-.1.1 0zm15-3.1h.1zm12.8.1h-.1zm-32.7 1.7c0-.2.1-.1.2 0zm34.6-.1h-.2zm-66.6 2.4h-.2zm20.1.2h-.1zm49-.6h-.2.1zm-69.8 2v-.1h.2-.2zm-.3-2.3.1.1zm1.7.6h-.1zm.9 5.5h-.2zm1.4-.1h.1zm1.9-1.5h-.1zm50.5-7.3h-.1zm-31.1 3.6v.1zm-29.1.2v-.2h.1-.1zm43.5-2.2h.2zm9.8-1.5h-.1zm-41.8 2.7v-.1zm122.1 4.3h-.2zm-33.4-9.8h-.1zm-36.6 2.8h.2zm-51.3 4h-.1zm-14.3-.4h.1zm96.4-5.4h-.2.1zm-98.4 12.3h-.1zm92.2-11.1h-.1zm-110.2 14.3h-.1zm138.5-14.4h-.1zm-103 8.4h.1zm46.5-7.8h-.2zm38.3-1v-.1h.1zm-76.5 4.6h.1zm93.5-4.9h.2zm-.3-1.2h.1zm-34.7 1h-.1zm-28.7 3.4h-.2zm-30.7 5.8h-.2zm74.8-8.4h-.1zm-57.5 4.1h.1zm18-4.4h.2-.1zm-70.4 4.8h.2zm126-6.6h-.2zm-38.5 3.1h.1zm-10.8.4h.1zm-.2.1h-.2zm-46 6.9v-.1h.2-.1zm97.6-8.7c0-.1 0 0 0 0zm-6.4-2h-.1zm-24.9 1.3v.3zm-88.8 7.5h.1zm101.5-3.8h.1zm-18.7-1.5c0-.1 0-.1.1 0zm-63.9 6.9h.1zm-16.6-3.8h.1zm29.9-1.7h.1zm2.2 1.4v.1zm13.2-1h.1zm-29.5 2h.2zm79.6-5.4h-.1zm2.3-.5h.1zm-83 4.2h.1zm44-1.5h.1zm-1.4.8h.2zm-90.6 11.2h.1z" fill="#dcdffb"/></g></svg>