<svg fill="none" height="19" width="407" xmlns="http://www.w3.org/2000/svg"><path d="m210.7 3h-5.7l-.2.2h-.3l-.4-.1h-2.1a6.9 6.9 0 0 0 -1.6.1v.2c.3-.1.5-.2.8-.1v.1h.3c.4 0 .9 0 1.3-.2h.5l-.4.2h1.1l.3-.1h-.8c.3-.2.6 0 .9 0h.8-.6 1.2l.8-.1h.7l-.3-.2h1.1c.2-.1.1 0 .2 0h-.5 1v.3h-1.2a1 1 0 0 1 -.3 0h-2.5c-.3.2-.6.1-.9.2l.1-.1-.6.1v.2h.2l.6-.1h.6l.4.1h.6l-.2.1h-2.6s.5 0 .3-.1a1.5 1.5 0 0 0 -.8 0h-.5.3l.4.1a1.6 1.6 0 0 1 -.8 0h-1l-1.8.2.2-.3h.7l-.4.1h1.4l-.1-.1h-.3.1l-.5-.1-.5-.1a17.9 17.9 0 0 1 -1.5-.1h-1.2l.2-.1h1c.4 0 .4 0 .5-.2h-.4.6l-2.2-.2h-.7l-.2.2v-.1h-1.1l-.7.1h-1a3.4 3.4 0 0 0 -1.3 0 2.1 2.1 0 0 1 -.9 0h-.2l-3.6.2h-.2 1.4a2.9 2.9 0 0 1 1 0l-.5.2v.1h-.3l-1.4.1h.7c-.3.1-.7 0-1 .2a16.7 16.7 0 0 0 -.9-.2 13.1 13.1 0 0 0 -1.7.2c0-.1 0-.2-.3-.2h-.6.4a.9.9 0 0 0 .5 0l.3-.2h.3c0-.1.5 0 .6-.2h-1.3l-1 .1h.9-.5l-.4.1-.4.1h.4a8 8 0 0 1 -1.1.2h.4l-.6.1h-.4l.3.1a3 3 0 0 1 .6.1h-1c0 .2-.1.1-.2.2h-2.8.3-.7l-.4-.1c.4 0 .7 0 1-.2h-1.4c-.3-.1-.6-.1-.8 0h-2.5l-.1.1h-.1l.2-.2h-3a16.6 16.6 0 0 1 -.8 0h.2v-.2h2.6l-.5.1h2.9l-.4-.1h1.3a12 12 0 0 0 1.6 0h.7l-.3-.1h1.3-.1l.3-.1a12.2 12.2 0 0 0 -1.8 0h-.7l.8.1h-1.7 1l-.2-.1h-1l.2-.1h-.7.2l-.6.1h-.2a35 35 0 0 1 -4.2.1l-3 .1h-2.2a3 3 0 0 1 -.9 0h-1.6l-3 .2.8.1h-.5c0 .1.1.2.3.2h.3l1.3-.2h.2l.3-.1.8.1a4 4 0 0 1 1.2-.1l-.7.1h2.6l-.4-.1h.8l.4-.1h.6l-.6.1h1.4l-.5.2h-1.7v.1h-.4.2v-.2h-1.8l-.6.1h-.7l-1 .2h1.5l.7.1h-1.1l-.5.1h-.5c-.1-.1 0 0-.2 0a3.6 3.6 0 0 1 -1.4 0h.2l-1.3.2.1-.1v-.1h.6l.3-.1h1.5l-.1-.2h-.5.1-1.6a7 7 0 0 0 -.7.1h-.5l-.5.1h.3c0 .2.2.1.4.2h-1.6c.1-.2.4 0 .5-.2h-.6l.2-.2h-1.6v.1l-.8.1 1.6.2-2.1.1v-.2l-.4.2-1.2.1h-.1l.4-.2h-1.1l.2.2h-.8a2.8 2.8 0 0 0 -1 0h-1c-.2.1-.3 0-.4 0h-.3l.3-.1h2.4v-.1h-.9v-.1l-.7.1h-.8l.3-.1a3.5 3.5 0 0 0 -.8.1h-.7l-.7.1h-1.4a3 3 0 0 1 -.7 0h-1.5l-.1.1a18.6 18.6 0 0 1 -2 .2h-.1l-1.3.1h.5l-.2.2h-1.3a8 8 0 0 0 -1.8 0l-.8.1-.3.2h-.3c0 .1-.3 0-.3.2h.7l2.1-.1a1.8 1.8 0 0 1 .6 0l-1 .2h1c-.6 0-1 .2-1.6 0v.1h-.7.7l-.3-.1h-.4a9 9 0 0 0 -.7 0h-.6l.4.1h-.3c-.2.2-.5.2-1 .1v.1c-.2 0-.5.1-.8 0l.7-.1-1-.2c-.1.1.2 0 .3.2h-1 .5l-.3-.1h1.2c.4 0 .5-.2.5-.3h.5c.2 0 .3.1.4 0h.4l-.2-.1h-2.1c.3.1.7 0 .8.2h-.8l-.1-.4 3.2-.1h-1l1-.1h-2.1l-1.8.1h-.5l-1.2.1h-.3l-1.2.1h-1.2v-.2l-1.2.1h-.3l-.2.1h-.4.3c-.3.1-.3.1-.4 0h-.3.3-1.4.6l-.6.1h-.6l-.3.1h.5c-.1.3-.4.3-.7.3h-1.5a72 72 0 0 1 -2.2 0h.9-.2l.3-.1a3.3 3.3 0 0 0 -.7 0 3 3 0 0 1 -1.1 0h-.5a1.5 1.5 0 0 1 -.6 0h-.7.3-.3v-.1h.3c-.1 0-.2-.1-.1-.2h.2l1-.1 1.8-.1h1.3l.6-.1h-2.6l-2.6.1h-.9a.7.7 0 0 0 -.5 0h-.9l-.2.1h-.6.2v-.1h-1.1l-.2.1-.8.2h-3.6l-.4.1h-1.4.2a3.5 3.5 0 0 0 -1.2 0h-2.5c-.1.2-.7.1-.9 0h-1.1 1v-.1h-1.1l-.7.1h.6l-.7.1-.3.1h-.6.1a2 2 0 0 1 -.8.3 2.3 2.3 0 0 1 -1 0 1.4 1.4 0 0 0 -.5-.1h-1.3v-.1l.5-.1-2 .1-.3.2-.6.1h-.3s0-.1-.2 0h-.7l.5-.2h-1.3v.2h-.1l-.5.2-.8.1h.4-.6l.4-.2a4.4 4.4 0 0 1 -1.5-.2h.8-2.8l-1.3.1h-1.6a2 2 0 0 1 -.3 0c-.1.2-.5.1-.7.2h-1.2l-.6.1h-.2l.6-.1 1.6-.1c.1 0 .3 0 .2-.1h-1.8 1-2.3c-.3 0-.3 0-.3.2l-1.5.2v-.2h-3c-.4.2-.8.2-1.2.2h-.4l-.1.2a1.8 1.8 0 0 0 -.9 0h-.9l-.5.1h-1c-.4.1-.7 0-1 .2a.5.5 0 0 1 -.2 0h-1.2l-.2.1h-.6.3-1.3.5l-.2-.1a10.2 10.2 0 0 0 -1.6.1h-.2l1-.4h.1-.1.5l.3-.1h-.3a2 2 0 0 1 -.6 0 1.3 1.3 0 0 0 -.6 0l-1 .1h-.4v.1h.5-.2l-.5.3h-.7l-.5.1h1.5-.5c-.3.1-.6.1-.8.3h-.7l-.2.1h-.3l-.6.1h-.3c.5 0 1 0 1.4-.3a4.8 4.8 0 0 1 -1.7 0h.7l-.4-.2h.6-2 1l.4-.1.2-.1-3.4.2.5-.1h-.3c0-.2.1-.2.3-.2h1l1.1-.2h.8v-.1h-.7v-.2c-.4 0-.6.2-1 .1h.2l-.3-.1-.2.1c-.4-.1-.6 0-.8 0h-1.2c0 .2.3 0 .5.1l-1 .2h-.3l.3-.1h-1l.4-.1h.6-1.3l.5-.2c-.6 0-1 .2-1.6.3h.4-.4l-.5.1h-.6l-.9.1h-1.4v.1h-.2l-1 .2c0-.1.3-.2 0-.2l-1.8.2-.4-.1h.5l.2-.1h.3-1.8l-.4.1h-1.1.7l.4-.2h1.9l-.4-.1 1.3-.2-4.6.3v-.1h-2.1c-.4.2-.7.1-1 .2h-.7l-.8.1a8.3 8.3 0 0 1 -1.6.1h-.2c.5 0 1 0 1.4-.2h.6a105 105 0 0 0 2.7-.3h-2.4l-1.2.2h-.2l-1.8.2h.2-1.5l-1 .1h-.3l-.4.1h-1.1 1.5l.7-.2h-1.2l-2.5.3h-1l-2.5.3-3.2.3h-1.3c0 .1-.3.2-.6.1h-.6l-.5.1-2.9.3-1.1.2h-.9l-1.2.2h-.4l-2.3.3-2.3.2-2 .2-1.8.3c-1 0-1.9.2-2.8.3h-.2 1.9l-1.7.4-1.3.1-.9.1h-.2.8l.4.1-.6.1c0 .2-.3.4-.9.4h-.1l-.1.1 2-.2h.1l-.5.3a20.6 20.6 0 0 1 -1.7.4s-.2 0-.2.2h2.2-.3s-.3 0-.2.1l-.3.1-.6.1h.6v.2h1.4c.2 0 .1.1 0 .1l-.8.1h-.2c-.4.2-.9.3-1.3.3l.2.1-.2.1h1l-.8.2h.4-.2v.1a7.2 7.2 0 0 0 1 0l.4.1h-.9.2l-.5.1h-.4l-.2.2h1l-1.2.2v.1h1-.3l.3.2-.2.2h.3c.1.2.1.2.5 0v.2h-.7l-.4.2h.6a.7.7 0 0 1 .3 0h1.3l-.4.3h-.4c-.2.1-.4 0-.5.2a.9.9 0 0 0 .5 0 1.9 1.9 0 0 1 .7 0s-.6 0-.5.2h.9c-.2.2-.7.2-1 .2h.8c-.2.2-.6.1-.8.3.5 0 1-.2 1.6 0h-.5v.1l-.6.1-.2.2h1l1 .1-.6.1-.6.1.9.2h-.6c0 .2.3.1.4.1h.5c0 .2-.5.1-.6.3h.2c.1 0 .2-.1.4 0h-1l.3.2h1.5l-.4.1h.1-.3l-.1.3h.2l1-.1h-.5c0 .1 0 .2.2.2l.3.1h.5l1.8-.1c-.2.2-.5.1-.8.2h.3l1.5-.1c.7-.2 1.5-.2 2.2-.3l1.6-.2a47.5 47.5 0 0 1 1.9-.1h-.3v.1l1.4-.1-.3-.1 1.2-.3h.4l.3-.2h2.1l.2-.2h.4l.8-.2h.7l-.3.1 2.6-.2h-.1.7-.2l.6-.1 1.6-.2h1.2c.2-.1.4-.2.6-.1h.2l.8-.1.7-.1h.3c.3-.2.7-.2 1-.1h.9a10.5 10.5 0 0 0 1.7-.2h.7l1.3-.2c.2 0 .3-.1.2-.2l-1.4.1h-1.1l.1.1h-.5.5l1.2-.2h1.3l.7-.2h.9l.4-.1.5-.1-.6.2h.4a1.7 1.7 0 0 1 .7 0h.5a10.3 10.3 0 0 1 1.7 0l-.2.2c.6 0 1.2 0 1.7-.2h-1.2.2c.2 0 .4 0 .5-.2l.4-.1h1.2c.2 0 .5-.1.8 0 .2 0 .3-.2.6-.1h-.2v-.2c.1 0 .4 0 .3-.1h1.7a2 2 0 0 0 1 0 12.3 12.3 0 0 1 2-.1c0-.2.4-.2.6-.2a3.2 3.2 0 0 0 1.3 0h.8l.5-.2h-.8l.2-.1h.6a2.2 2.2 0 0 0 .8 0h1.9a7 7 0 0 1 1-.2h2.2l.8-.1h.2c.2-.2.6-.1.9-.2h1.4l.9-.1h.6l.6-.2h2.9l1.2-.1h.1-.3l-.3.1h-1.3l-1.3.2-2 .1h-.6l-.1.2h1.2l1.3-.1h.1l1.5-.2h1.5l1.6-.2h1.6a1.3 1.3 0 0 1 .5-.1h1.5c.3-.1.3 0 .4 0l1.9-.2h.8l2-.2 2.3-.1.8-.1h1.2l3.6-.2 3-.3h.5c.5 0 1 0 1.5-.2.1.1.3.2.5.1a.6.6 0 0 1 .3 0h1.5l1.6-.2h1.8c.3-.2.3-.2.6-.1h.2l2.2-.2h.7l.2.2.8-.2h-.6 1l1.6-.1h1.9l1.2-.1h2l.7-.2.1.1h.3v-.2l.4.1h1.4l.4-.1h.7l.2-.1-.3.1v.1h1l.5-.1h1.3c.1-.1-.2-.1 0-.2h.3l.2.1h1.8v-.1h.3c0-.2.1-.2.4-.2h.1l.3.2h.7l.3-.1-.1.1h1.9v0a1 1 0 0 1 -.4 0c.2 0 .3-.1.4 0l.3-.2h.6-.4l.5.1h.7l.1-.1h.4-.2l.4-.1h.5-.4l.4.1h.8l-.4-.2h.6l-.1.1h2.2a3.8 3.8 0 0 1 .7 0l.1-.1h3.9l1-.2.3.1h1.4l1.5-.1a2.3 2.3 0 0 0 .8-.1l.4-.1h2.7-.4.8-.2 1-.4l.5-.1h1.6-.2 1.3-.2 2.6l1.6-.1h1-.4a3.7 3.7 0 0 1 1-.2h2.8l.6-.1-.1-.1h5.3-.2 1-.3.1a.7.7 0 0 1 .4 0h3.9l.5-.1h1.2l.1-.1h3.5l.3-.2h1s.1.1.2 0h3l2-.1a2.9 2.9 0 0 0 1.2 0h3l.4-.1h8.5l1.8-.1h2.4l1.9-.1h8.5l2.4-.1h2.8l.4-.1h.6-.2 1.1l1.3-.1h.3c.1.1.3.1.4 0a2.3 2.3 0 0 1 1 0h16.9a1.6 1.6 0 0 1 .7 0h1.2c.1 0 .3-.2.7-.1.3-.1.5-.1.8 0h5.6a29.7 29.7 0 0 1 3 0h1.2a.4.4 0 0 1 .2 0h6.9a1.7 1.7 0 0 0 .5 0 .9.9 0 0 1 .4 0h7.6a1.6 1.6 0 0 0 .5 0h1.2c.1 0 .3-.1.4 0h.3a2.3 2.3 0 0 1 1 0h5.5a8.5 8.5 0 0 0 1 0h4.3a11.5 11.5 0 0 1 2 0h2c.3.2.6 0 1 0l1.3.1h6a16.7 16.7 0 0 1 1.8.1h2.2-.4 1-.3 6.9-1l.4.1h.7a1.7 1.7 0 0 0 .5 0l.4-.1h2v.1h.6-.4 4.6-.4l3.9.1h-2.7v-.1h5.2c-.2.2-.4 0-.7.1h-.7.4l2.1.1h2.1-.4a2.7 2.7 0 0 1 .7 0h1.9a2.7 2.7 0 0 1 1 0h2.6c.1 0 .2.2.4.1h.6a1.1 1.1 0 0 0 .5 0 1.4 1.4 0 0 1 .6 0h-.1 6.6v.2h1.7l.3-.1h.4a8.9 8.9 0 0 1 1.5 0h1.3l1.4.1h1.9l1.7.1h3.7l3.4.2h6.6l1.3.1h2l1.4.1h2.8l1.2.1h2.6l2.9.1h2.6l4 .2h.3c-.8-.1-1.7 0-2.5-.2h5l3.6.1h7.7a9.1 9.1 0 0 0 2 0h2l-.2.2h6.5a6.3 6.3 0 0 0 1.3 0h3.9-.4 1.8-.3 1.2-.6 2.2-.4 2a42.1 42.1 0 0 1 5.2 0h3.3l1.6.1c-.2 0-.2 0-.2-.2h-2.2a34.7 34.7 0 0 1 -4-.1h-5.8l-2.3-.1-1.2-.1c8.6 0 17.2.3 25.9.3h-2.4l-.3-.2h3a8.3 8.3 0 0 1 .7 0h1.5l2.7.2h1l-.5-.1.4-.1h1.4l-.1-.1h1v.1l1.6.1h-.5.9l.6.2-.2.1.6.3.8.1.9.1v.2h.2l.5.3h.7l.2.1s.2.1.4 0h.3v.4h.8l.2-.2h.7l.4-.1c0-.1 0-.2-.4-.4a1.3 1.3 0 0 0 .5 0h.1l.1-.1-.2-.3.8-.6h.3a1 1 0 0 1 -.3 0l-.1-.1v-.1l-.2-.1h.5l-.3-.2.2-.2v-.1l-.3-.1.7-.1c.1-.1 0-.2-.1-.2l-.3-.2.3-.1h.3l.3-.1-.1-.1c-.3 0-.3-.2-.2-.3h.6c.1-.1-.2-.1-.2-.2v-.2l.4-.2c-.1-.2-.1-.2.2-.2h.1v-.1c0-.2-.1-.3 0-.4l.3-.2.3-.1v-.2c.4 0 .4-.1 0-.2.2-.2.2-.3.6-.4.3 0 0 0 0-.1-.1-.1-.1-.2.2-.3l.1-.1v-.4l.4-.2c.4-.1.3-.3.4-.5l.1-.2.3-.1-.4-.1.1-.2c.1 0 .2-.2-.1-.2h-.1c0-.2-.3-.2-.5-.2l-1-.2-.7-.1-3-.2-3-.1-1.6-.1-2.1-.1-3-.1a54.6 54.6 0 0 0 -3.9 0c-.2-.2-.5-.2-.7-.2h-11.7a52 52 0 0 0 -5.5-.1h-4.3l-1.5-.1h-2l-3.8-.2h-5.7l-3-.1a42.8 42.8 0 0 1 -5.2-.1h-.2a6.4 6.4 0 0 0 -1.6 0l-.9-.1a20.2 20.2 0 0 0 -2.9 0h-.2c-.1-.2-.4-.1-.6-.1h-2.6c-.5 0-1-.1-1.6 0a17 17 0 0 1 -1.3-.2h-1.7a18.2 18.2 0 0 1 -1.4 0h-.2a13.3 13.3 0 0 0 -2.1 0l-.5-.1h-2.2l-2-.1h-1a6 6 0 0 0 -1.3 0h-.3l-.8-.1h-1.7l-.7-.1h-3.8a3.2 3.2 0 0 0 -1.3 0h-1.1.2s0-.1 0 0h-4l.2-.2h-3.2.4-4.4l2 .2h-2.3l-.6-.1h-2.1l-.6-.1h2.3l-.3-.1a2 2 0 0 0 -.4 0h-1.8l.3-.1h-2.5.2c-.1-.1-.2 0-.4 0h-.9l.1.2-.4-.1a3.2 3.2 0 0 0 -.7 0 1.8 1.8 0 0 1 -.6 0h-.2l.4-.2h-1.5l.1.1h-1.3c0-.1.4 0 .5-.2h-2.1v.1h.7v.1h-3.5a58.8 58.8 0 0 1 -4.8 0c0 .2-.2.1-.4 0h.2-.1a3 3 0 0 1 -.5 0 2.3 2.3 0 0 0 -.8 0 2.6 2.6 0 0 0 -1-.1c0 .2.4 0 .6 0l.7.2-.6.1h-.6l1.6.1h.5l-.3.1h-3.7c-.5-.1-1-.1-1.6 0a29 29 0 0 0 -3.8 0h.6l-.4.1a3 3 0 0 1 -.5 0h-2.1l.4.1h1l-.2.1h.3l-.5.1h-2.4v.1h1.6l1.7.2h-2.9l-1 .1h-.6l-.3.1c.3-.2.8-.1 1.1-.2h-4.4a5 5 0 0 0 -.5 0h.8l-.2.1h.3-.2v.3h.4l-.1-.2h2.5c-.2 0-.6 0-.8-.2h1v.3h1v.1h.8a2 2 0 0 0 .7 0h1.5c-.1.2-.4 0-.7.1l.4.1h1.6l.2.2h-2.1.2-1v.2h-.3l-.5.1h-1.3l.1.2h-.7l.2-.2h-.9l.3.1h-4.9 1.6l1.2-.1h.3l-1.2-.1h.5c0-.2-.2-.2-.3-.1h-.7l1-.1.3.1h.4l.6-.1.3-.1h-.5l-.2-.1h-.4c-.3-.2-.5-.1-.7 0h-.1l-.2.1h-.5l-.2.1h-.3c-.1-.1-.2-.1-.4 0 0 0-.2 0-.2-.2a9 9 0 0 0 -.5 0l-1 .2.2-.2h-.7l-.4.2h-1.2 2.1l.9.1h-.4c.1.2.5 0 .8.2h-1.2a15.1 15.1 0 0 1 -1.7 0h-.7l.3-.1a4 4 0 0 0 -.6-.1h-.5a4 4 0 0 0 -.4.2c-.2-.3-.6-.1-1-.1 0-.2 0-.2.7-.2h-.5l1-.2v-.2h-1.1v.3l-.3-.1h-.2l-1.5.3h1.2v-.2h.6-.3c-.1.1-.4.1-.3.2h.6l-.8.1h-.2l.2-.1h-2.9 1-3 .5c-1 .2-1.1.2-1.3 0 .3 0 .5-.1.5-.3h1.1a.8.8 0 0 0 .3 0h.1v-.1h-2a8 8 0 0 1 -1.2 0h-1.1.1c.1.2.2.2.5.2h.8-.9c-.2 0-.2.1 0 .2h-1.7c.3-.2.7 0 1-.1h-3.1l-.4-.1h2.2l-1.8-.1h2.1c.2 0 .3 0 .4-.2h.4-1a6 6 0 0 0 -.9 0l.2-.1h.7-3 .2-.4l2.6.2h-.2a.7.7 0 0 1 -.3 0 .9.9 0 0 0 -.5 0h-1.2.5a2 2 0 0 1 -.6.2h-.2l-.3.2v-.2l-.6.1h-1.1.1-1.3l-.5-.1h-1l.5.2h-2.1.6l.4-.1h.4l-.2-.1h-2-.6l-.3.2-.4-.1a12.7 12.7 0 0 1 -1.7 0h.2l-1.8.1h-5.3c.2-.1 0-.2 0-.2h-1.2c-.3 0-.7 0-.9.2h-1.4.4l.5.1h1.3l-.6.2h-1.2c-.1-.1-.1-.1-.4 0h.1c.5 0 1 0 1.5.2a3.6 3.6 0 0 1 1.6 0l-1.1.1c.3.2.6 0 1 .1h-1.6v-.1h-.3l.1.1h-.3l-.3.1h-1.7l-.6-.1a9.8 9.8 0 0 1 1.8 0l.2-.1h-1.4c0-.1 0-.3.2-.4h-.9a4 4 0 0 0 -1 .1l1.3.1h-1.4v.2h.4a5 5 0 0 1 -1.3 0l.7-.1h-.5c-.1-.2-.5-.1-.9-.1h1.1l.4-.2h-1a2 2 0 0 1 -.8 0h.7a1.8 1.8 0 0 0 -.8 0h-1.7c.2.2.4 0 .6.1h.6l.1.2h-1.8 2.6l.4.1h-.5l-1 .1h-2.3l.3.2a5 5 0 0 1 -.4 0h-1.3v-.1h-.8s-.1.2-.3 0l-.1.1h-1.1v-.1h-2.8s-.1-.1-.1 0h-1.9l1.2.1h-3.6.2v-.1h-1.4l.4.1c.4 0 .9 0 1.1.2h-.5l-.6.1h-1v-.1h.6v-.3h-.7c-.2-.2-.3 0-.5 0h-.4.8-1v-.1h.2-.2l.2-.1h.7c.4 0 .4 0 .5-.2h.2-2l-.9.1h-2.2.6l.5.2h-3l.1.2h-1.2.3c.2.2.4.3.7.3h.9l-1.5.1h-2.9c-.3 0-.6-.2-.8 0h-.2l-.3-.1h.1l.2-.1a1 1 0 0 1 .3 0h.8l-.2-.2h-.6c.1-.1.3 0 .4 0l-.3-.2h-.9c-.2.1-.4 0-.4 0h-.2a5 5 0 0 1 -1.6 0c-1 .2-2 0-3 .1 0 0-.1.2-.4.1h.3-2v-.2h1l.3.1v.2h.5c.2-.2.5-.1.7-.1h.3-.6c.2-.2.2-.2.7-.1h2.5c.2 0 .2 0 0 .1-.2 0-.4-.2-.7 0h1.3l.6.1-.9.1h-3.7a7.7 7.7 0 0 1 -2 0l1-.2-1.3.2h.2l-.2.1c-.4-.2-.9 0-1.4-.1l.2.1h-1.2.6l.1-.3h1.1-.2l.5-.1h-.2a1.5 1.5 0 0 0 -.5 0h-1.9c0 .1.4.1.3.2h.7-.1a4 4 0 0 1 -.4 0c-.3 0-.5.1-.6.3-.1-.2-.4-.2-.7-.2h-.5a1 1 0 0 0 -.3.2v-.1h-.4.2a10.3 10.3 0 0 1 -1.3 0h-.8c-.1-.1-.3 0-.4 0h-1.6c.2-.1.5-.2.5-.4h.7c-.4-.2-.5-.2-1 0h.1a2 2 0 0 1 -.5 0c-.1 0-.4 0-.7-.2a9.1 9.1 0 0 0 .9 0c-.8-.2-1.6-.1-2.3 0l.7.1h-1.1c-.2 0 0 .2-.4.2v-.1h-2zm120.5-.4h-.4.7zm-120.6.8h.3-.3c-.1 0-.2.1-.4 0zm-100.9 2.8h.4-.6s.2-.1.2 0zm-44.8 7c.1-.2.3-.2.6-.2l-.6.1h-.5.5zm25.5-5.8h.6-1.3zm259.6-5.7h-.4 1zm-278.2 11.3h-.6l-.4.1h.5c.1-.2.1-.2.5-.1l-.2-.1h.4-.2zm183-9.2-.2-.2h.6v.1h-.9.4zm-30 .8-.3-.1h1-.7l-.2.2h-.3v-.1zm-95.2 1.3h-.4.9c-.5.2-.5.2-.8.1h.3zm-122.3 12.2a8 8 0 0 1 -1.2.2l1.2-.2h.7zm271.7-14.1.2-.1h1l.3.1h-2.1zm13.1-.7h.3-.4.1-.9 1.1zm-107.4 1 .1-.2h1a3 3 0 0 0 -1 .2h-.5zm86-.1h1.7-1.7 1-1.5zm-99.3 1.1v.1h-2.4 3.7a3.4 3.4 0 0 1 -1.3 0zm12 1a1.8 1.8 0 0 1 .9 0c-.4.1-.6.1-.8 0v.2h-1.2l.2-.1h1zm119.4-1.6a3.3 3.3 0 0 1 -1.4-.1h2v.1zm-111.5-1.2v-.2h1v.2h-1.1s.1.1 0 .2l-.2-.1h-.5.8zm127.6-1.2h-.1l-.5.2h-.3l.2-.2h-.4 1.6zm-106.7 1a3.2 3.2 0 0 1 1.1 0c-.2 0-.8 0-.7.3h-.3l.2-.2h-.7l.4-.2zm-134.1 3.7h-.2.1a11 11 0 0 1 1.2 0h.2-.2l-.2.1a.9.9 0 0 1 -.5 0h-.4zm216-4.5h.8-1.8l-.5-.1a3 3 0 0 1 .8 0h.3a.7.7 0 0 1 .3 0zm-210.2 4.5-.6.1h-.5l-.8.2h-.2.1-1 .2l1.4-.2h2-.6zm47-.6h1.5-2.8a2 2 0 0 1 -.4 0l-.4-.1h.8l1.3-.1h.2zm-24.4.3v-.2h.3l.3-.1h-.2l.3-.1.6.1-.6.3c-.1.1 0 .2-.4.1h-.3zm61-2.1h.4-1.3c-.2.1-.4.2-.6 0h-.6l.4-.2h.3c.5 0 1 0 1.4.2zm82-1.4h-.2l-.8.2h-.3v-.1l1.4-.1h.7l-.8-.1h1.5-.6l.3.2h-.4c.2 0 .3 0 .3.2l-.3-.1h-1 .2v-.4zm-119 3.5v-.1l1.9-.1h.3l-.8.1h.5v.2h-1.4l.3-.1h-.8.3-.6.4zm89.6-.7h-1.5l-1 .1h-1 .2l1-.1h2.7l.5-.1h4.3v.1h-4a14.2 14.2 0 0 1 -1.3 0zm3.5-2.3v.1h2.1l.1-.1h1l-.8.1h2l-.2.1h-4.8.3c.2 0 .2-.1.2-.2h.7c-.3 0-.4.2-.6 0zm80.3-1h-2a4 4 0 0 1 -.5 0h-1.7a2.1 2.1 0 0 1 -.7 0h5.4c-.2.1-.2.1-.4 0zm-23.7.5h-.1c0-.2-.3-.2-.6-.2a1 1 0 0 1 -.3 0h-.1v-.1h-.5l-.4-.1h.5-.1l-.1-.1h.7l.8.2h.9a.6.6 0 0 0 .3 0 1.5 1.5 0 0 1 .5 0c0 .1 0 .2-.2.2h-1.5c0 .2-.1.2-.5.1h.5zm-105.6.8h-.4c.1 0 .4-.1.4 0h.3l-.3.1 1 .1a6.2 6.2 0 0 1 -1.7 0h-.2l-.8.1h-1.3v-.1h.8l-.4-.1v-.1h1.1l-.4.1h1.6zm100.6-1.8h1.4-2.5a.5.5 0 0 0 -.1 0l-1 .1h-1.2.1l-.3-.1h-.9.5-.2a8 8 0 0 0 -.8 0h-1.4a2 2 0 0 0 -.5 0h-.5c-.2 0-.6-.1-.8 0h-.6l.4-.2h3.1c.2 0 .2 0 .1.1a8.4 8.4 0 0 1 1.7 0h3.6-.1zm9.4.5h1.6l-.3.1h-.8a7 7 0 0 1 -.9 0h-1.5v.2h-.3-.4l1.3-.1h1.2-.8v-.1h-2.6l.4-.3h-.7l.5-.2h1.9l.8.1h-.7l-1.7.2.7.1h2l.2.2zm-135 2.5h-.3c-.2 0-.3 0-.2.1h2.5a146.3 146.3 0 0 1 3.4-.1h-.6l-1 .1h-.9l-.2.1h-.8c0-.1-.3 0-.4 0a1 1 0 0 1 -1 0c0 .2-.2.1-.4.1h-.2.5-1.8l-.3-.1h.9c0-.1-.2-.2 0-.3h3.2-2.2zm30.5-.7h6.9l.1-.3h-.4c.3 0 .3 0 .5-.2s.7-.2.9 0h.7l-1 .1h.2l-.5.1.1.2h-.4 1.7l-.5.1h-.8l-1.5.1h-4.3a15.4 15.4 0 0 0 -2 .2 4 4 0 0 1 -.7 0h-3.4.1-2.3.1-2.7l-1.2.1a2.3 2.3 0 0 1 -.8 0h.3l.2-.1h4.2l2.3-.2h4l.2-.1h1.1zm145.1-2.7h-.8c.3.1 0 .1-.2.2l2.8.1v.1h-2.6a1.4 1.4 0 0 1 -.6.1 18.4 18.4 0 0 0 -1.6 0h.8l-.1-.1-2.6-.1-.1.1h-.3l-.1-.1h-.4a7.2 7.2 0 0 1 1.8 0l.3-.1h2.1-.5a3.1 3.1 0 0 0 -.9 0l-.1-.2h-1.6c-.2.2-.6 0-1 0h-1.1a1.2 1.2 0 0 0 -.5 0c.5.2 1 0 1.3.2h-1.8l.3-.4h1.5c-.3.2-.7 0-1 .1h7zm-129.8 2.2a4.4 4.4 0 0 1 -1 0h-.4a2.3 2.3 0 0 1 -.9 0v.2h-.3c.1-.1.2-.3.5-.2l-.1-.1h1.5l-.1-.1c-.5 0-1-.2-1.4 0-.1-.1-.2-.2-.4-.1h-.8l2-.2h.9l.6-.1h1-.5l.5.1-.8.3h1l-.3.2h.6a5 5 0 0 0 -.4 0c-.2.1-.5.2-.6.1h-.4zm72-.6a5 5 0 0 0 -.8 0h-1.9a3 3 0 0 1 -.5 0h-1.2a1.1 1.1 0 0 0 -.5 0 .9.9 0 0 1 -.6 0h.2c.3 0 .5-.1.8 0h1c-.3-.2-.7 0-.9-.2h.5l-.2-.2h1.4-1v.1l.7.1v.1h.8c0-.2.3-.1.5-.1h.4l.2-.1h-1l.2-.1h.7a3.3 3.3 0 0 1 1.2 0c-.2.1-.6 0-.8.2h1.1l-.6.1h.4zm63.1-1.2 1.4.1h2.8l1 .1h-.5l-.2.1.2.1h-.5v-.1h-.8l-2-.1h-1.9l-1.7-.1.1-.1h-.3l.3-.2h1.3-.4l1.1.1-.2-.1h1.1-.5l.4.2zm-166.2 2.9h-3.4c-.2.2-.5.1-.7 0a1 1 0 0 0 -.4 0l-.4.1h-.9l-2 .1h-.7l1.3-.1h1.7a6.6 6.6 0 0 0 1.5-.1l3.3-.1h.7zm30.8-.6.2-.1h6c.3 0 .6-.1.8 0h.7c.3-.2.6 0 .9 0h-1.1c-.3.1-.6.1-.8 0h-.8l-1 .1h-.5a15.2 15.2 0 0 0 -1.5 0 3.3 3.3 0 0 0 -1.3 0h-.7a3 3 0 0 0 -.7 0zm28.4-.4h4.1a19.5 19.5 0 0 0 2.6 0h4a10.9 10.9 0 0 1 -1.6 0h-2.8a44 44 0 0 0 -2.2.1h-.4l-1 .1h-.2v-.1h-2.5zm29.3-.8h.4l.3-.1h.9a1.9 1.9 0 0 1 .9 0 .6.6 0 0 0 .2 0c.2-.1.5-.1.8 0h.3v.1h-.3c0 .1-.1.1-.2 0h-.3c-.4.2-.8.1-1.2.2h-.1v-.2h-.8c.1 0 .3 0 .3.2-.4 0-.8 0-1.2-.2zm-37.8 1h1.4-1.1l1.6-.1 1.1-.2h-.1.7-.4 1-.2l.5-.1c0 .2 0 .2.3.2h.9-.6c-.3 0-.6 0-.8.2l-.4-.2v.1h-2.3c0 .2-.2.2-.3.1a2.6 2.6 0 0 0 -1 0h-.5zm104.6-3.2h-3.9l-.3-.1v-.1l-.4-.1h3.5l.8.2h.3zm-87.2 2.5h.2l.7.1h3.5l-.9.1h-.8a39.4 39.4 0 0 0 -3.5 0h.3l.2-.2h2.9-1.2a.3.3 0 0 0 -.1 0zm-103.3 2.1.4-.1h.4c.2 0 .6-.1.8 0h.8a49 49 0 0 1 1.6 0h-1.5l-.3.2h-2.3v-.1h-.5.7zm190.4-4.4a7.2 7.2 0 0 1 2.1 0h2.7v.1h-1.3l-.3.1h-.5l-.5-.1a12 12 0 0 1 -2 0h-.2zm-189.6 5.4h-.8a4.8 4.8 0 0 1 -1.6.1c0-.1.1-.2.4-.2h.2l-.7-.1h1.6-.6 1c.3 0 .5 0 .5.2zm131.3-3.3h-.3a1.8 1.8 0 0 0 -.9 0h-.6l-.6-.1-.6-.2a2.9 2.9 0 0 1 1 .1l.5.1a26.4 26.4 0 0 1 2.5-.1l-1 .1zm-112 2.6-1-.1h2.1l-.3.1a7 7 0 0 1 1.8 0h-.2l-1.5.1h-1.7.7zm-25.1.5a42 42 0 0 1 -3.4.2h.4c-.2-.2-.6 0-.8-.1v-.1h1.9l-.4.1h2.3zm-77.8 2.3c-.9.2-1.8.2-2.8.2.2 0 .5 0 .4-.1l.2-.2h-.9l2.8-.2-1.7.3h1.9zm205-4.6.5-.1h4.2l-.4.1h-4.4zm69-3.1.8-.1h2.9l2 .1h.2-5.5a5 5 0 0 1 -.4 0zm-43.4 1.2c.5 0 1-.1 1.6 0l1.4-.1h1l-.4.2a1.6 1.6 0 0 0 -.8 0h-2.6zm43.9-1.5 1.1-.2h1.4a9 9 0 0 0 1.4 0l.5.2h-4.5zm-.5-.1h-4.5c.3-.1.7-.2 1 0l.7-.1a39.2 39.2 0 0 1 2.8 0zm-20.4 2.8h.8-1.6v-.1h-.3.5c-.1-.3-.2-.3-.5-.3h-.4 1.2l.2.2 1 .1h-.9zm-184.9 2.4h.6l.4-.1h1v.2a1 1 0 0 0 -.4 0h-.2l-.1.1h-.2l-2.5.2h-.3l1.7-.3zm220.5-3.9h-.1a5 5 0 0 0 -1.2.2h-1.7l-.3-.3h3zm-58 .7-1.6.1h-1.5a6.7 6.7 0 0 0 -1.6 0 3 3 0 0 0 -.8 0 1.6 1.6 0 0 1 -.6 0 18.1 18.1 0 0 1 2.6 0h.1l.1-.1h3.2zm9-.1h-1l.3-.1-.2-.1.5-.3h1v.1h-.2l.7.2-1.7.1h.5zm115.8 7.4-.2.2h.7-3l-.7-.1c.5-.2 1 0 1.4 0h1.9zm-114-6.5h2.1l.7-.1h.9l-.9.2.1-.1h-.9l-1 .1zm-70.4.2c.7-.1 1.3 0 2 .2h-.4a5 5 0 0 0 -.8 0h-.3a1 1 0 0 0 -.5 0h-.4 1l.2-.1h-.8zm-123.4 8.3a11.7 11.7 0 0 0 -.8 0h-.2.6-.4l2.2-.2-.3.1-1.3.3zm112.8-7.7h3.4-.5a2.7 2.7 0 0 0 -1 0l-.4.1h-.7zm-.6.1h-2.7.1l.5-.1h1.2a3 3 0 0 1 1 .1zm63.7-1.8h.1a27.4 27.4 0 0 1 2 0h1.9-.6l-.6.1h-.2a3.6 3.6 0 0 0 -1.5 0l-1-.2h-.1zm33.4.5.2-.1 1-.1c.2 0 .5 0 .7.2l-.7.1a3 3 0 0 1 -.8 0h.6v-.2h-1zm-66.5 1.5h-.7l-.6.1h-.7.5-.2c-.3 0-.6 0-.7-.2h-.7 1.8-.7 2zm88.1-2.7 2.4.1a2.5 2.5 0 0 0 -.9 0l-.7.1c-.2 0-.2 0-.1-.1h-.6zm-149.4 4.1.4-.1h-1.7 2.8a3 3 0 0 1 -.8.1h-.8zm103-2.6-.1.1c-.3.2-.7 0-1 0-.3-.1-.6 0-.8 0 0-.2.3-.2.5-.2zm-160.4 2.7h-.2l-.2.1h-.2l-.2.1h-.7.2l-.2-.1h1.1l.7-.1h.6c-.4.2-.8.1-1.2.2zm24.9-.4c1-.1 1.9-.2 2.8-.1h-1.6l-.9.1zm-106.9 2-3.3.2c.2 0 .6 0 .7-.2h-.5.7v.1l1-.1zm87.7-1.7.3-.1a10.8 10.8 0 0 0 1.8-.2h1l.3.1-1.8.1a14.7 14.7 0 0 0 -1.6 0zm-10.7.9c.3 0 .6-.2 1 0h1.6a5 5 0 0 1 -.8 0l-1 .1h-.4zm166.7-3.5h1a1 1 0 0 1 .3 0h.7-.1l-.5.2h-.1l-.4-.1h-.9zm-213.3 4.8 1.9-.1-.1-.2h1.4c-.2.2-.6.2-.9.2h-.4zm16.8 4.4-3.4.2.2-.1h1.4l.5-.1h.5a2 2 0 0 1 .7 0zm230.9-11h.5c.4 0 .7.2 1.1.1h.7a5 5 0 0 1 -1 0l-1 .1a6.4 6.4 0 0 1 1 0c-.5.2-.7.2-1.3-.1zm-73.4 1.5h1.4l-.4.2h.3l-.1.1c-.4 0-.6-.2-1-.1zm-116.8 3.4.5-.1 1.6-.1h.5l-.3.1h-2.3zm77.4-1.6h-.9l-1.2.1h-.3l.2-.1zm-25-.7v.1h-.3c-.2 0-.5.1-.8 0h.5-.3l.3-.1a10 10 0 0 0 -.9 0h-.2zm152-3h-.3c-.1.1-.2.1-.4 0h-1.6.2a7.3 7.3 0 0 0 1.8 0zm-235.9 7h.5c-.3.1-.5.2-.8 0h-.6l-.1-.2h.7l.4-.1.3.1-.3.1zm50-3.1 1.4-.1.4.1-.7.1h-.7zm91.2-1h2.6-.9c-.3.1-.5.1-.8 0zm-50.9 1-1 .1h-1.3 2.4zm-127.2 3-3.2.2 1.5-.2zm133.2-3.5.5-.1h3.4-2.5l-1 .1h-.3zm26.6-.8h-.2 1c.3 0 .6-.2 1-.1h-.1l-1.9.2zm-128.2 2.7h.1l-.1.1h-.7l-1.1.1h-.2zm-28.6 1.3h-.2l-.1.1-1.3.1h-1.1l2.5-.2zm-45.3 10.4-3.3.3c1-.2 2.2-.3 3.3-.3zm276.5-15.4a3.9 3.9 0 0 1 .8 0h1.6zm-52.7 1.4.7-.2h1.1c-.4.2-.8.1-1.2.1 0 .2-.2.2-.6.1zm-101.2 2.8h.2l.3-.1c.4 0 .4.2.6.2h-.4l-.4.1v-.2zm190-5.5c-.3.2-.5.2-.7.1h-1.1v-.1zm-75.6 2.8h-1.6c0-.2.1-.2.4-.1h1.2zm-174.2 8.4h-1.9zm142.6-8.1h2-1.2c0 .2-.4.1-.6 0h.3zm22.7-1.9-.4.2h-.7v-.1l1.2-.1zm-70.7 1.7-1.5.1a1.1 1.1 0 0 1 -.4 0c.5-.2 1 0 1.6-.1zm-5 .6h-1.5a3 3 0 0 1 -.4 0h1.8zm-58.9 1.8h.5a12.6 12.6 0 0 0 2-.2zm.5.4h2zm213.5-4.2c-.2.1-.6.2-.8.1a1.3 1.3 0 0 0 -.5 0h-.6.3l.3-.1zm-126 2h.8a13.9 13.9 0 0 1 .9.1 2 2 0 0 1 -.7 0h-.9zm134-2.3h-.8l-.5-.1h1.1l.1.1zm-36.6.4.7-.1.3.1-.8.2zm-64.7 1.5h2-.4l.1.2h-.7.2l.2-.1h-1.4zm103.1-2 .7-.2.9.1c-.5.1-1 .1-1.6 0zm-111.3 2.3.3-.1h.3c.2-.2.5-.2.8-.1h-.3l-.2.1h-1zm76.2-1.6h-1.1a3.7 3.7 0 0 0 .6-.1 1 1 0 0 1 .5 0zm-270.8 13.4c0 .1-.4.3-.6.2h-.6c.4-.3.8-.1 1.2-.2zm258.8-13.5h-2 .6l.5-.1h.9zm-117.7 1.8 2-.1zm80.8.2-.5-.1h1zm30.8-2.6a2 2 0 0 1 -.6.1l-.8-.1zm-124.4 3.2h1.6zm35.5-2.1c.4-.1.8-.2 1.1-.1h.3-.2c-.3 0-.7.2-1.2 0zm-167.5 13.5-1.8.3c.2-.2.6-.2.8-.3zm191.5-12.3h-.1l.2-.1h1.2l-1.3.2zm-121.8 7.3.1-.1 1.4-.1h.2-.9zm249.5-10-.5.2-.4-.2h-.5zm-34.4.5h.2a2.2 2.2 0 0 0 .4-.1.8.8 0 0 1 .3 0c.2 0 .2.2 0 .2a4 4 0 0 1 -1 0v-.1zm-92 1c0 .2 0 .2-.6.2v-.2h.7zm-142.5 9.4c.4-.3.9-.2 1.3-.2zm17-.8h.2a9.7 9.7 0 0 0 1.4-.2h.3zm259.7-9.5h2.2zm-311 12.5c-.4.3-1 0-1.3.2h-.4l1.5-.2zm308.7-13.7h-1.9zm-270.6 11.5.9-.1c.3 0 .5-.1.8 0h-1.7zm-33.4 2.3h-1.2l1.2-.2zm237.6-12h-.5l.5-.2.4.1h-.6zm-144 3a4.2 4.2 0 0 1 -1.5.1l1.2-.1zm215.5-4h-2.2zm-105.7 1.4.5-.1s-.1 0 0 .1h.8-.6a2 2 0 0 1 -.7 0zm-44.4 2.2-.1.1h-1c.4-.2.8 0 1.1-.1zm-114 6.3a4.3 4.3 0 0 1 -1.7 0h1.5zm127.2-9h-1.5zm48.2-.4h-.9c-.3 0-.5.2-.8 0h1.6zm-110 2.3a3.6 3.6 0 0 1 1.3 0zm59-1.3h-1.3zm-100.9 2.7h1.3zm194.6-3a3 3 0 0 1 1.1 0 2 2 0 0 1 -1.1 0zm-233.4 9.8h1.1zm138-10c-.1.2-.3.1-.5.1h-.6 1.2zm-33.3 2h-1.6 1.7zm141-3h-1l.4-.2zm-220.2 5.4c-.4.1-.8.2-1.2.1h1.2zm13.6-1.6h1l-.7.2-.2-.2zm4.9 2v.1h-.7c-.2 0-.5 0-.6.3l-.3-.2 1.6-.1zm18 .7h-1.1 1zm299.1 1.1c.6 0 1.1.1 1.6 0v.1h-1.6zm-310.3.8-1 .2a5 5 0 0 1 1-.2zm192.7-9.4h.3a1.1 1.1 0 0 0 .5 0s.3-.1.4 0h-1.1zm-174 4 .2-.2h1c-.3 0-.6.2-1 .1h-.1zm81.6-.6a3 3 0 0 1 -1.2 0h1.3zm22.3-1.1v.1h.2v.1h-.5v-.1h-.3v-.1zm-30.6.6h-1.4 1.5zm-34.8.3a3.8 3.8 0 0 1 -1.4 0zm-79.6 2.4c0 .2-.3.1-.5.2l-.7-.1h1.2zm21-.2h-1.2zm81.2-2 1.2.1a3.5 3.5 0 0 1 -1.2 0zm115-2.1-.5-.2 1 .1h-.5zm-59 1h.1a2.6 2.6 0 0 1 .9 0zm-54.2 1.8h-.9zm16.6-1.2h.6c.3-.1.6 0 .8 0a3.2 3.2 0 0 1 -1.4 0zm24.6.3c.2-.1.5 0 .8 0h.7zm45.4-2.2h1.3a2.4 2.4 0 0 1 -1.2 0zm.5.7c.3-.2.5-.2.7 0zm-88.8 3h1.5zm-43-.4.3-.1h-.4c.1-.2.1-.2.9-.1zm-44.2.5h.6l-.1.2h-.5zm121.1-3h.9zm13.2 2.5h-.6a3 3 0 0 1 -.8 0zm67-2c.3-.2.5-.1.7-.1h.7-1.3zm-82.5.9h.6l-.3.2h-.3zm-72.2.2-1 .2.1-.1h1zm-92 2.9h-1.1 1zm113.3-3.7c-.2.2-.5.3-.8.1h.8zm163.8-1.6h1.7zm-138 3.7c.4-.2.8 0 1.1 0zm119.6-3 1 .1h-1zm-88.8 0v.1c-.4.1-.6 0-1-.1zm-.3.6h-1.2a3.7 3.7 0 0 1 1.3 0zm-104 3.5h.5c0-.1.1-.2.3-.1h-.2.5l-.3.1h-.7zm-86.1 1.4.3-.1h1.2-1.6zm247.5-6.1h.8c-.4.1-.4.1-.8 0zm46.5-1h-1.2zm-82.9 2.6h1-.2a1.5 1.5 0 0 1 -.7 0zm44.2-1.4h1.1-1zm-166.4 3.7c.4 0 .7-.2 1 0zm210.8-5.9h-1zm-82.2 3.7-1-.2c.3 0 .7-.1.9.1zm66.2-3.8h.7l-.4.1zm-331.1 12.5.4-.1h.3l-.3.1h-.5zm344.8-10.2h-1c-.1 0-.2.1-.4 0zm-304 6.3h-1.3zm108-2.7h1zm4.9-.6c.4-.2.8 0 1.2 0zm36.5-1.7h-.9 1zm116.9-1h-.7zm32.5-1.5h-1.1zm-208.8 6.1-1.5.2zm68.4-2.9h1.1-1zm147-3h1a2.2 2.2 0 0 1 -1 0zm-256.3 5.9h-.3a2 2 0 0 1 -.4.1c0-.1.1-.2.7-.1zm22-1.8h1.3zm126-1.7h1.4zm78.2-.6h1.2zm-92.7 1.9h-1a2 2 0 0 1 1 0zm-114.9 1 .1-.3h.3c0 .2 0 .2-.4.2zm214.2-4h1.2zm-294 5.4h1zm137.2-2.4a10 10 0 0 1 -1 .1h-.5 1.5zm-63.6 1.1-.8.2c0-.2 0-.2.7-.2zm-48.2 7.7.7-.1-.3.2zm251-11-.5.2-.2-.3.7.2zm-75.4 2.6h-1zm69.3-2.6a2.2 2.2 0 0 1 -.7 0c.3-.2.5-.2.7 0zm-207.5 7.4h.2l.3-.1h.3zm126.6-5.3a2.7 2.7 0 0 1 -1.2 0zm51.8 0h-1c.4-.2.7 0 1 0zm120.1 4.7h-1.1 1.2zm-214.6-4.7c.2-.2.6 0 .9 0h-1zm109-3.2h.7a1.9 1.9 0 0 1 -.8 0zm-61.3 2.3h-1zm-76.6 1c-.5 0-.6 0-.6-.2l.6.1zm58.4.2h-.8l.4-.2c.2 0 .4 0 .4.2zm-30.6 1h-1zm112.8-3.8c.3-.1.6-.2.9 0h-1zm24.7 0h1.2zm-19.4.7h.9a2.4 2.4 0 0 1 -.9 0zm-89.3 1.2h-1zm-92.3 1.8h.3c.3-.1.2 0 .2 0zm63-1.3h-.9a2.3 2.3 0 0 1 1 0zm-118.4 2.4.4-.1h.5zm-50.4 2.8h-1zm161.6-3.6c.2-.2.4-.2.9 0h-1zm88.7-3.6h-.4s-.1 0 0 0c.1-.1.3-.1.4 0zm-252.4 8.3c0-.2.1-.2.5-.2zm224.4-7.7c.5-.1.5-.1.8 0zm102.2-.9h-1.4 1.3zm-217.2 3.6.4-.1h.4-.8zm9.1.2.5-.1h.4c-.3 0-.6.2-.8 0zm-33.5 1.7h-1a2.2 2.2 0 0 1 1 0zm140.6-2.5h-1.1 1zm114.4-3.2h-.8c.3-.1.3-.1.8 0zm-31 6v.1h-1 1zm-16.8-5-.4-.2h.7l-.2.1zm-239.5 10.3.6-.1zm92.9-8.2a3 3 0 0 1 1.2 0zm88-2.5v.1h-.6l.7-.1zm38.7-.2c-.2 0-.5.1-.8 0zm-150.1 2.6h.3-.7c.2 0 0-.2.4-.1zm68.5.5h-.7zm-63-.3h-.6.7zm-87.3 8.6h-.7a1.3 1.3 0 0 1 .7 0zm291.4-11.8a2.3 2.3 0 0 1 .8 0zm-15.8-.3h1l-.8.1h-.2zm-149.7 3.6a2.2 2.2 0 0 1 -.8 0c.3 0 .5-.1.8 0zm30-1.7h-1zm53 1.5h-.6zm.6-1.1h-1zm-20.8-.3h.6zm-90 2.4h-1.1zm258.2 3h1zm-253.6-2.6c-.3 0-.5.1-.8 0zm-93.7.2.7.1h-.7zm-8.6 1.6c0-.2.4-.1.5-.2h.3zm184.3-3.6h-1zm-19-1.4h.9zm-4.7 1h.8zm-13.5 1.3h.7zm161.2-5.6a2.1 2.1 0 0 1 .8 0zm-134.6 2.8c.3-.2.5 0 .8 0a1.6 1.6 0 0 1 -.8 0zm-84.5 6.9h1zm84.5-6.8-.5.1h.5zm-44.4 2.4h-.8zm83.6-3h.7zm-5.8 2.8h-.7.6zm5.7-2.9h-.6.5zm-51.6 2.6h.8zm80.9-1.1.7-.1zm-157 2.5h-.8.9zm157-.9h.6zm-125.3-.4h1zm135.3-2.7c.2-.2.4-.1.6-.1h-.6zm-156.5 2.9c.3-.1.5-.2.8 0zm159.7-1h-.6zm.3-1.8h.7c-.3.2-.5 0-.7 0zm-184 3.7h.8c-.3 0-.5.1-.8 0zm-22.6-.1h-.8zm231.6-5.8h.8a2 2 0 0 1 -.8 0zm-251.6 6.8h.6zm160.7-4h-.7zm103.9-3.4h1zm-266.8 13h.8-.4a2 2 0 0 1 -.4 0zm180-8.6h-.5zm-20.4.7h-.4l.3-.1h-.2.2zm-93 .5h-.6.7zm63.9-1.2h-.6zm66.6 1.2h.6zm-84.8-1.4h-.5.3v-.1h.2zm-49.2 2h-.4.5zm179.4-4.3h.7zm-208.7 4h.7zm269.4-2.5h.8zm-201.6.1a1.5 1.5 0 0 1 -.8 0 1.2 1.2 0 0 0 .5 0zm-1 1.7c.2 0 .5-.1.8 0h-.9zm116.6-2.1.5-.1h-.5zm-170.4 3.7h-.8.7zm95.9-1h-.7.3a1 1 0 0 1 .3 0zm-210.5 11.7h.4zm26.5-1.5h-.7zm179.7-11.3c0-.2.3-.2.5-.1h-.5zm-74 2.2h-.7zm186-7h.4l-.4.2v-.2zm.7 3c.2 0 .4 0 .5.2l-.5-.1zm30-2.4h-.7zm-196 5h.9-.8zm-9 .9.2-.1h.3c-.2.2-.3.1-.5 0zm-74.4 6.6h.6zm93.2-8.7.4-.1h.3-.7zm59.7-.2h.8zm-59-.4h-.5a.6.6 0 0 1 .3 0zm77.7.2h-.6zm5 .5h.9zm64.7-1.8a1.7 1.7 0 0 1 -.7 0zm-210.5 8.5c.3 0 .5-.1.8 0zm107.8-7.3h-.6zm-.5 0h.6zm66.6.3h.7zm-76 .3h-.1a.6.6 0 0 1 -.3 0h-.1zm-115.3 3h.6zm150-4.5c.2 0 0 .1.3.2h-.3v-.3zm-34.3 2.3h.5zm-143.6 8.4h.5zm282.5-11.2h-.8zm-109 2h-.4zm-102.9 3.3h-.5l.4-.1zm-3.7-1.6h.7zm-.1.1c-.1.2-.2.2-.5.1h.5zm32.2-.9h-.6zm-40.7 3.5h.7zm.1-.7h-.4zm53.8-2.3h.6zm-147 10.8h.5zm139.2-11.3h.9-1zm55-.4h.5zm-133.8 1.7h.7zm141-2.7-.4-.1h.5zm-157.4 8.9c-.4.2-.4.2-.6 0zm-29.7-6-.8.1h.8zm177.7-2.4h.6zm110.4-3.9a.7.7 0 0 1 .5 0zm-79.6 4.3c-.1.1-.1.2-.4.2.1 0 0-.2.4-.2zm-198 3v.1h-.1a.8.8 0 0 1 -.3 0h-.1.5zm255-5.2h.5zm38.4 0v.2h-.2.2zm-185.8 3.7h.6zm-35.8.2c.2 0 .1-.1.4 0zm123.9-2h.3v.1h-.3zm-67 .5h.6-.7zm160.4-4.9h.6zm-28.5 2.2h.4zm-130.5 2.7h-.6zm36.4-.5h-.2l-.2.1h-.1.5zm2.5 0h-.4zm-153 8.7h-.6.7zm246.6-9.6h.4zm16.6-.5.4.1zm-148.6 1.7h-.5zm42 2.7h-.5zm-77-2.7h-.2l.2-.1h.1v.1zm-51 3.2h.6-.7zm118-4.4c.1 0 .3-.2.4 0zm156.2 6h.5zm-212.2-4.2h-.4zm-123.6 9.8h-.6zm293.7-14.4h.6zm-248.9 6.3h.6zm198.2-4.1-.4-.2h.4zm-86.8 1.6h.5c-.2 0-.4.2-.5 0zm136.3-2.2c.1-.1.1-.1.4 0zm-135.2.7h.5zm-52.7 2.4h.5zm-65 7.2h.7zm281.2-9.2a1.3 1.3 0 0 1 -.5 0zm-330.4 13.1-.5.1h.5zm71.6-7.7h.4zm222-5.7h.4-.5zm72.3 6.5h-.6zm-280 1h-.5zm86.3-4.8c.1 0 .2.1 0 .2-.2 0-.2-.1 0-.2zm116.5-3.6h.6zm-13.7 0h.5zm-182.1 5.5h-.5zm-59.3-1h.6zm164.6-1.7h-.5zm123.7-4.6h.4zm-59 .8h-.7.6zm17.1 1.6h-.5zm-9-.2h-.8a1.7 1.7 0 0 1 .8 0zm-164.2 4.9h-.6zm-82 6.8h-.6.4zm197.5-11.4h.4zm60.3.3h-.4zm-211 6h.6zm-3.2.5h.6zm150.1-5.4h-.5zm-.9-1.6h.5zm49.7-1h.5zm-210.1 8a4.3 4.3 0 0 1 .5 0zm194.6-6h-.5zm-35.3-1.4.3.1c-.3 0-.4 0-.3-.1zm61.4.4h-.3zm-53.7 0c0 .2 0 .2-.4.1h.4zm-105.2 2.3c.1-.2.1-.2.4 0h-.3zm-71.8 8h.6zm126-8.4h.4zm-47.5 1.6h.5a.7.7 0 0 1 -.5 0zm0 3.3c.2-.1.2-.1.4 0zm113-5.5h.4-.2zm-229.8 11.7h.6-.5zm392-6.3h-.4.3zm-215.8-5h-.5zm217.4 5.3h.4-.5zm-217-4h-.4zm86.5-3h-.4zm-199.3 8.8h.5zm67.4-7.4c.2-.1.2-.1.4 0zm-57.2 1.5h-.3zm116.1-1.9h-.6zm-114 7h-.4zm187.6-7.5h.3zm128.6 6.5h.4zm-418 2.3h.4-.3zm245.8-9h-.4zm24.6 1.5h-.4.3zm-267.6 13.8-.5.1h.5zm103-8.7h-.5zm39.6-1.4h.4c-.1.1-.2.1-.4 0zm-142.4 1.5h.5zm288.6-7h-.5zm-185.4 2.6h.4zm.5 2.1h.4zm1.4.7h.4zm212-6.8h-.5.4zm-136.3 2c.3 0 .3 0 .3.2l-.3-.1zm46-.1h-.5zm-69 2.6h-.3c-.1 0 0 0 0 0h.4zm52.7-2.4h.4zm47.6-.6h-.4zm21.5-.7h.4zm15.5-.3c-.3 0-.3 0-.3-.2h.2v.2zm-176.1 5.3h.5zm209.8-5.7h-.4zm-283.3 12.5h.4zm285.2-12.4h-.6.2a.8.8 0 0 1 .4 0zm.5-1.4h-.3zm-293.6 7.6c-.1.1-.3 0-.4 0zm242.6-2.6h-.4zm-78.6-2h-.3zm-177.3 12.7s0-.2.3 0zm170.4-11.2h.5zm124.2-2 .1-.1h.1-.2zm-233.9 8.3h-.4zm4.8.3h-.3zm-5.1-4.2-.2.1zm46.3-1.5h.5zm63.1-.9h.3zm-34 .4h.4zm151-1.4h.5zm-24.8-.9c-.1 0-.2.1-.4 0zm.4.4h.3zm-261.7 4.2h-.3zm120.6 1.9h-.4zm-118.6-1.9h.4zm118.3-1h-.4c.2 0 .3-.1.4 0zm65-2.5h-.6.5zm-177 3.1h.4zm254-2.7h.2-.3zm-3.3-2.3h-.5zm-128 3.8h.2-.3zm36.5-.5h-.2l.2-.1zm-153.2 9.2h-.5zm65.7-7.7h.5zm64.4 1.5h-.4zm41.6-4.3h.5zm18.8-1.2h-.4c.1 0 .3-.1.4 0zm-91.2 3.6h-.4zm183.5-4h-.3zm-206.1 7.5h-.5zm-.1-.9h.4zm22.8-2.5h.3zm140-3.7h.6-.5zm-161.4 6.6h-.6zm-70.3-2.3h.3zm91.6 2.4h.5zm57.4-4.3h.5zm86 3.1h.4zm-61.7-4.5h.3zm-176.3 9.5h.3zm328-3.6h-.4zm-315.7 3.6h.2zm76.7-6.9h.5zm-10.7-.5h-.2zm-62 7.4h-.3c.2-.1.2-.1.4 0zm-42.5 3v.1h-.5.4zm120.4-11.3c.1-.1.2-.1.4 0zm2.2 1.4h.3zm28.8-.3h.3zm92.6-1.5h-.1zm-81.4-.8-.2.1zm29.8 1.4h.3zm-33.2-.3h.3zm-103.6 2.6h-.1zm.1 4.1h-.3zm258.6-8.7h.2zm-297.8 5.3h.3zm41 .5h.4-.3zm-55 7.5h-.3.4zm57.5-4a.6.6 0 0 1 -.3 0zm48.6-6.7h.3zm164.3-.9h-.2zm22.8-3.3h-.4zm-185.8 8.8h-.6zm184.2-6.7c0 .1 0 .1-.2 0zm-184.1 2-.4.1h.4zm85.7-2.1.3-.1h-.3zm-52 .6h.3zm12.5-.1h-.4zm-178.8 6.5.4-.1h-.4zm175.8-4.6h.3zm34-2.7h.2-.3zm101.2-1h-.2zm-72.4 1.1v.1h-.3.3zm-73.8 1.5c0-.1.2-.1.4 0zm-136.4 11.4h.3zm214.5-11.5h-.3zm-150.3 2c-.1.1-.2.1-.4 0zm45.5.2h-.2zm110.5-.5h-.3zm-157.4 1.7h.3zm-1.2-1.8h.2zm3.9.5h-.4zm1.8 4.7h-.3zm-94.7-1.2h-.3zm98.2 1h.3zm61.6-6.5h-.2zm87.3-1h-.2zm-161.7 5.5h-.2zm17.1.7h-.3zm114-6.3h-.1zm-70.2 3.3h.2zm163.1-4.5h.2zm-163.8 4.5h.2zm-65 0h.2zm98.4-1.8h.3zm22-1.4h-.3zm-94.5 2.4h-.1v-.2zm276 3.7h-.3.4zm-75.4-8.4h-.3zm-82.7 2.3h.3zm-116 3.6h-.3v-.1h.2zm-32.4-.5h.3zm66.6-.1h-.3zm151.2-4.5h-.2zm-222 10.7h-.3zm111.1-8.8h.3zm97-.8h-.3zm-56.2 0v.1h-.3.3zm-192.7 12.3h-.4zm290.8-15.4h.2zm22 3h-.3zm-232.7 7.2h.2zm105-6.7h-.4.3zm86.6-1h.3zm-172.9 4.2h.4-.3zm135.3-2.5h-.3zm76-1.7h.4-.3zm-.6-1h.2zm-78.4.8h-.3zm-65 2.9h-.3zm87-2h-.3.2zm-156.4 7h-.3zm207.8-9.9h.2zm-38.7 2.5h-.2zm-250.7 11v.1h-.3.2zm161.6-11.1h.3zm-159.4 4.1.3-.1h-.3zm74.2 3.4h-.3zm210.7-9h-.4zm-284.7 6-.2.1h.2zm197.9-3.5h.1zm81.6-3h.1zm-106 3.5h.1zm112.2-4.2h.1zm-216.8 10h.2zm166.4-5.4h-.1zm-91 .5h.3zm30.9 1h-.2zm114-3.5c-.1 0 0 0 0 0zm-182.5 1.1h.2zm-94.4 6h.2zm262.6-8.8h-.2zm-257.1 7.6h.3zm229.5-3.3h.3zm-42.4-1.3h.3zm-142.8 4.3h.3zm129.7-3.2h.2zm-131 4.8h.4-.2zm95.7-4.1h.2zm-133.2.9h.2zm65.1-1.4h.2zm2.4.2h-.2zm0-.3h.2-.3zm22.7.6h-.3zm19.6-.3h.2zm-72.3 0h.2zm35 1h-.2.1zm29.7-.9h.3zm-66.6 1.5h.4-.3zm212.6-6.7h-.3zm-241 11.4h-.2zm213.6-9.8h.2zm-187.8 3.8h.2zm96.5-.6h.4zm-115.5 1.2h.2zm.4 0h.1zm227.7-5h-.2zm-3.7 1.4h-.1zm-.1-.7h.1zm-157.5 4.5h.1-.2zm-155.7 8.3h-.1.2zm127.9-7.9h-.2z" fill="#ffbe18"/></svg>