<svg fill="none" height="29" width="263" xmlns="http://www.w3.org/2000/svg" xmlns:xlink="http://www.w3.org/1999/xlink"><clipPath id="a"><path d="m0 0h261v17.9h-261z" transform="matrix(.99932839 .03664371 .03664371 -.99932839 .829773 18.526497)"/></clipPath><g clip-path="url(#a)"><path d="m122.7 8h-6l.1.2c.1 0 .2-.2.4-.1v.1h.2l.7-.1h.3l-.2.1h.7-.4c.2-.2.4 0 .6 0h.4-.3 1.5v-.2h.5-.2c.2.2.3.2.5.2v.1h-2.2l-.6.1h.1-.4v.2h1.1l.3.1-.1.1h-1.5c0-.1.3 0 .2-.2h-.8.2l.2.1a.6.6 0 0 1 -.5 0 1 1 0 0 0 -.5 0 5 5 0 0 0 -1 .1v-.3h.5l-.3.1h.8-.2v-.1h-.2l-.3-.1a6.4 6.4 0 0 1 -.9-.2h-.7.8c.2 0 .2 0 .3-.2h-.3l.3-.1c-.4 0-.8 0-1.2-.2h-.3l-.1.1h-.2.1-1.6a1.2 1.2 0 0 0 -.7 0 .8.8 0 0 1 -.5 0h-2.3.7a1 1 0 0 1 .6.1l-.3.1.1.2h-1.1.5c-.2.1-.4 0-.6.2l-.4-.2h-1.3l-.2-.2h.4l.3-.1h.1c0-.1.3 0 .4-.2l-.7-.1-.7.1h.6-.3c0 .1-.1.2-.3.2h-.2.3a3 3 0 0 1 -.7.2h.2-.3l-.3.1h.2l.2.1.2.1h-.6c0 .1 0 0-.1 0l-.4.1h-1.3.1c0-.1-.1-.1-.4 0l-.2-.1c.2 0 .4 0 .6-.2h-.5a1 1 0 0 1 -.3-.1h-1.9l-.1.1v-.2h-1.7a6 6 0 0 1 -.6 0l.2-.1h.1v-.2h1.5c0 .1-.2 0-.3.2h1.7l-.2-.1h.7a4.3 4.3 0 0 0 1 .2l.4-.1-.2-.1h.8v-.1a4.3 4.3 0 0 0 -1 0h-.4l.4.1a5 5 0 0 1 -.9 0h.5l-.1-.1h-.6l.1-.1h-.4.1-.4a12.4 12.4 0 0 1 -1.8 0h-3.6a293.2 293.2 0 0 1 -1.3 0h-1.9c.1.2.4.1.4.2h-.3c0 .1 0 .2.2.2h.2l.7-.1h.1l.3.1.5.1.7-.1c-.1.1-.3 0-.4 0l.3.1h1.1-.1v-.1h.3c0 .1 0 0 .1 0h.5-.3l.1.1h.6l-.2.2h-1.3.2-1.4a1 1 0 0 1 -.4 0l-.6.2h1.2l-.4.1h-.9a1.3 1.3 0 0 1 -.8 0h.1l-.8.1h.1v-.1c.1-.1.3 0 .4 0l.1-.1h.9v-.1l-.1-.1h-.2a1 1 0 0 0 -.3 0h-.6l-.4.1h-.6.2c0 .2.1.2.2.2h-.8c0-.2.2 0 .3-.2h-.3v-.1h-1.3l.9.3h-1.3a32.3 32.3 0 0 1 0-.1l-.1.2h-.8l.2-.2h-.6l.1.2h-.4a1 1 0 0 0 -.7 0h-.8v-.1h1.2l.2-.1h-.6v-.2l-.4.2h-.4l.1-.2-.4.1h-.4c-.1.1-.3 0-.4 0l-.9.1a1 1 0 0 1 -.4 0h-.6c0-.1-.2-.1-.2 0h-1l-.4.1v.1h-.8.3l-.1.2h-1.7a6 6 0 0 1 -.5 0v.1h-.1l-.2.1-.2.2h2l-.6.1h.6c-.3 0-.6.2-1 0v.1h-.3.4l-.1-.1h-1 .2-.1c-.1.2-.3.2-.6.2h-.5.4l-.5-.2h-.2l.2.1h-.6.3l-.1-.2h.7c.2 0 .3 0 .3-.2h.7v-.1h-1.4c.2 0 .4 0 .5.2h-.5v-.4h1.9v-.1h-.6.6-2.2a4 4 0 0 1 -.4 0h-2.2v-.1h-.7l-.2.1h-.3.2-.4.1-.8.4-.7l-.2.2h.3c-.1.2-.2.2-.4.2h-1a25.6 25.6 0 0 1 -1.2 0h.5v-.1h.1-.4a1.1 1.1 0 0 1 -.6-.1h-1.1.2-.2v-.1h.2s-.1-.1 0-.2h.6l1-.1h.9l.3-.1h-3.8a1 1 0 0 1 -.5 0h-1.1l-.5.2h-.6l-.2-.1h-.6l-.4.1h-1.3.2a1.3 1.3 0 0 0 -.7 0h-.3c-.3-.1-.5-.2-.8-.1h-.4c0 .2-.4.1-.5 0h-.6.5v-.1h-1 .3l-.4.1-.2.1h-.3s.1 0 0 0c0 .2-.2.2-.4.3h-.2l-.2-.1a.5.5 0 0 0 -.3 0h-.8v-.2h.3-1.2l-.1.2h-1.1l.3-.1h-.9v.1l-.3.2-.5.1h.3c-.1-.2-.2 0-.4-.1l.3-.1h-.5l-.4-.2h.5v-.1h-1.8l-.7.1h-1.1c0 .1-.3 0-.4 0l-.3.1h-.8 1.3v-.2h-.8.5-1.4l-.1.2h-.9v-.1h-1.8a2 2 0 0 1 -.7.1h-.2l-.1.2h-.1l-.2-.1h-1.7c-.2.1-.4 0-.6.2h-.8l-.4.1.1-.1h-.7.3-.1a3.7 3.7 0 0 0 -1 0l.6-.2h-.1.3l.2-.2h-.6a.5.5 0 0 0 -.3 0l-.5.1h-.3l.3.1h-.1l-.4.3h-.6.8l-.2.1c-.2 0-.4 0-.5.2h-.3l-.2.1h-.7c.3 0 .6 0 .8-.2a1.7 1.7 0 0 1 -1 0h.4l-.2-.2h.3-1.1.6l.2-.1v-.1h-1.9.4l-.2-.1.1-.1.6-.1h1.2v-.2h-.4v-.2c-.3 0-.4.2-.6.1h.1l-.2-.1-.5.1h-.6c0 .1.1 0 .2 0l-.6.2.1-.1h-.6.5l.1-.1h-.7l.3-.1c-.4 0-.7 0-1 .2h.3-.6c0 .1-.1 0-.2 0h-.1l-.5.1h-.9v.1h-.2l-.6.1s.1-.1 0-.1h-1.3.7v-.1h-1.1l-.2.1h-.7.4c.2 0 .3-.1.3-.2h1-.2l.8-.2-2.7.2v-.2h-.2l-.6.1h-1.3l-.5.2a3 3 0 0 1 -1 0c.2 0 .5 0 .7-.2h.4a37.6 37.6 0 0 0 1.6-.1h-.6v-.1h-.8l-.7.1h-.1l-1.1.2h.1-1.5l-.3.1h-.7.9l.4-.1h-.7l-1.4.1-.6.1c-.5 0-1 0-1.5.2l-1.8.2h-1.8l-1.7.3-.6.2h-1.3l-.1.2-1.4.1-1.3.2-1.2.2-1 .1-1.7.3h.5l.2.1h.3l-1 .2h-.7c-.2 0-.3.2-.5.1l-.2.1h.7l-.3.2c0 .1-.2.3-.5.3h-.2 1.2l-.3.2a8 8 0 0 1 -.8.2l-.2.1-.1.2h1.3-.2c0 .1-.2 0-.1.2h-.2l-.4.1.4.1v.2h.3l.2-.1h.3v.2h-.7c-.2.2-.5.3-.8.3h.2l-.2.2h.8l-.4.1h.2l-.1.1h.6l.1.2h-.5.1-.4l-.2.2h.6c-.2.2-.5.2-.7.2v.1h.6l-.2.1.1.1c-.1.1-.1.1 0 .2h.1c.1.2.1.2.3 0v.2h-.4l-.2.1h.3a.3.3 0 0 1 .2 0l.2.2h.5l-.3.2h-.2l-.3.1h.2a.7.7 0 0 1 .4 0c0 .2-.3.1-.2.3h.4c0 .2-.3.1-.5.2h.4c-.1.1-.3 0-.4.2h.9l-.3.1-.3.1-.2.2h.6c.2.1.4 0 .6.2h-.4l-.3.2.5.1h-.4c0 .2 0 .1.2.1h.2c0 .2-.2.1-.3.2h.4-.2v.1h-.3l.2.2c.1 0 .3-.1.4 0h.4l-.3.1h.1-.2v.3h.1l.6-.1h-.3v.2l.3.1h1.2l-.4.1h1.1c.3-.2.8-.2 1.2-.3a24.7 24.7 0 0 1 1.9-.3l.1.1h-.1v.1l.8-.1h-.1v-.1l.7-.2h.2l.2-.2h1.2l.2-.1c0-.1 0-.1.2 0l.4-.2h.4l-.1.1 1.5-.1h.3l.3-.1.9-.1h.4l.3-.1h.5l.4-.1.4-.1h1.2a124.5 124.5 0 0 0 1.5-.2l.8-.1s.1-.1 0-.2h-.8l-.6.1h-.3.3l.7-.1h.8l.5-.2h.7l.3-.1-.4.2h.3a.6.6 0 0 1 .4 0h.3a3.6 3.6 0 0 1 1 0l-.2.2 1-.1h-.7l.1-.1.3-.1.3-.1h1.1l.4-.1h-.1s.2 0 .1-.2h.7l.3.1h.5a4.4 4.4 0 0 1 1.3 0c0-.2.2-.2.3-.2a1.2 1.2 0 0 0 .8 0h.4l.3-.1-.5-.1h.1v-.1h.4a.8.8 0 0 0 .5 0h.6c.2.1.3.1.4 0a2.6 2.6 0 0 1 .7 0h1.2l.5-.1h.1l.5-.1h.9l.4-.1h.4l.4-.1h1.6l.7-.1h.1-.2l-.2.1c0 .1-.1 0-.2 0h-.5l-.8.1-1.2.1h-.3v.2h.7a6 6 0 0 1 .8-.1h.9l.8-.1 1-.1h.9l.2-.1h2.1l.5-.1 1.3-.1 1.2-.1h.5c.2-.1.2-.2.3 0h.4l2.1-.2c.6 0 1.2 0 1.8-.2h3.7l.4-.1h.3c.2-.1.2-.1.4 0l1.4-.2h.4v.2l.5-.1h-.2.5l1-.1h2.8l.5-.1h.2v-.2l.2.2v-.1h1.6-.2v.1h1.7c0-.1-.1-.2 0-.2h.1l.2.1h1v-.1h.2l.2-.1h.1l.2.1h1.5a.4.4 0 0 1 -.2 0s.2-.1.2 0l.2-.2h.3-.2c0 .2.3 0 .3.1h.7l.1-.2h.3c0 .1-.3 0-.2.1l.2.1h.4l-.2-.2h.4v.1h6.5l.2-.1h1.9-.2c0-.1 0-.1.4 0h.5-.2v-.1h1.2-.1.7-.1 2.9-.1 2.2v-.1h.3v-.1h2.5l.5.1h-.1.5a.3.3 0 0 1 .1 0h5.5l.2-.2c.2 0 .3.2.6.1h11.4l.7.1h3.6l1 .1h5.7-.1c.1 0 .3.1.4 0h1.4a.8.8 0 0 1 .6 0h.1l1.1.1h3.7a983 983 0 0 1 5.4.3h.5c.1 0 .3-.2.5 0 .1-.2.2-.2.5 0h3.2a10.5 10.5 0 0 1 1.1.1h1.3c.2.1.3.1.4 0h.9l.7.1h.2l1 .1h.9a.6.6 0 0 0 .3 0 .3.3 0 0 1 .2 0h1.9l.2.1h2.3a.6.6 0 0 0 .3 0l.2.1h.7a125.8 125.8 0 0 0 1 0h.6l1.4.1h1.5l.9.1h.5c0 .1 0 .1 0 0h.7l.4.1h1.2l1 .1h.6l.8.1h2l.3.1h1.1a33.2 33.2 0 0 0 1.1.2h1.3-.3.6-.1.1l1 .1h2.8l-.5.1h.6a.6.6 0 0 0 .3 0h1.4v.2h.3-.2v-.1h1.3l1 .1h.3-.2c.7.2 1.5.2 2.2.2l-1.5-.1 3 .1c-.1.1-.3 0-.4 0h-.4l.2.1h1.2l1 .1h.2-.2 1.8l.3.2.2-.1h1.2l.3.2h1-.1 1.4l1.5.1 1 .1h.5v.1h.8a3.2 3.2 0 0 1 .8 0l.9.1h.7l.8.1h.4l.9.1 2.1.2 2 .1 1.3.1 1.6.1h1l.6.1 1.2.1h1.1l.2.1 1.1.1h.7l1.5.2h1.7l1.5.2 2.3.2h.2l-1.5-.2h2.1l.8.1 2.1.2h2.5c.3.1.5.2.8.1h2.3l1.1.2h.5l1.1.1 2 .1h1.4c.4.2.9.2 1.3.2h.3-.2c.2 0 .4-.2.6 0 .1-.2.3-.1.4-.1h-.2.7-.4.7v.1h.6-.2 1.2a14.9 14.9 0 0 1 2.5.2h2l.4.1h.8v-.2h-1.3a12.2 12.2 0 0 1 -2.3-.2h-2l-1.4-.2h-1.3l-.6-.2 14.8.9-1.3-.1-.2-.2h2l.2.1h1l1.5.3h.6-.3c.1-.2.2-.2.3-.2h1.4v.1l.9.1h-.4.5l.4.2v.1c0 .1 0 .2.2.3l.5.1.5.1v.2l.4.3h.4v.2h.5v.3h.4l.2-.1h.4l.2-.1c0-.1 0-.3-.2-.4a.5.5 0 0 0 .3 0l.1-.1v-.2l.4-.6h.2a.4.4 0 0 1 -.2-.1h-.1v-.2c0-.1.2 0 .2 0l-.2-.2.1-.1.1-.2h-.2l.4-.2v-.2c-.1 0-.2 0-.2-.2h.2l.2-.1v-.1c-.2 0-.2-.2-.1-.3h.3l-.1-.2v-.2l.2-.1c0-.2 0-.2.2-.3v-.4l.2-.2h.2v-.2c.2-.1.2-.2 0-.3l.3-.3c.2 0 0-.1 0-.2l.2-.2v-.2l.1-.2.2-.2c.3-.1.2-.3.3-.5v-.1l.2-.1-.2-.1v-.4l-.4-.2c-.2 0-.4 0-.5-.2l-.4-.1-1.7-.2-1.8-.2-1-.1-1.1-.2-1.7-.1a19.4 19.4 0 0 0 -2.3-.2h-.4l-.4-.1h-1.4l-1-.1-1.3-.1h-1.5l-1-.1a18.4 18.4 0 0 0 -2.7-.1h-.5l-1-.1-1-.1h-1.4l-1-.2-2.3-.1-1.3-.1h-1l-.2-.1h-.8l-1.7-.2a15.2 15.2 0 0 1 -2 0l-.3-.1h-.7l-.1-.1h-1l-.4-.1-1.2-.1h-.7c0-.2-.2-.1-.3-.1h-.4l-1.1-.1h-.9a6.1 6.1 0 0 1 -.8-.2h-1.9l-.8-.2h-.7l-.5-.1h-.7l-1.1-.1h-1.5l-.2-.1h-.4l-.5-.1h-.5a1 1 0 0 0 -.4-.1h-1.7l-.6-.2a1.1 1.1 0 0 0 -.7.1h-.6v-.1h-.3a1 1 0 0 1 -.2 0h-1.7v-.2h-1.4a1 1 0 0 1 -.4 0l.3-.1h-2.7l1.2.1h-1.6l-.3-.1h-.8l-.4-.1h1.3l-.2-.1h-1.2l.1-.2h-1.4.2-.8v.2l-.2-.1h-.4a.6.6 0 0 1 -.3 0h-.2l.3-.2h-.9.1-.8s.2 0 .3-.2h-.5c0 .1-.1 0-.2 0h-.5l.4.2h-2.2a20.8 20.8 0 0 1 -2.1-.2h-.7c0 .2 0 .1-.2 0h.1-.3a.8.8 0 0 0 -.5 0l-.2-.2a1 1 0 0 0 -.3 0c0 .2.2 0 .3.2h.4c-.1.1-.3 0-.3.2-.2 0-.3-.1-.4 0h1l.2.2h-.2l-2-.2h-1.6a10.2 10.2 0 0 0 -1.6 0h.4l-.3.1a1 1 0 0 1 -.3 0h-1.2.8v.2h.1-1.7v.1h1l1 .2a4 4 0 0 1 -.4 0h-1.9a2 2 0 0 0 -.4.1h-.1c.1-.2.4 0 .6-.1l-.6-.1h-.5a2 2 0 0 1 -.4 0l-1.1-.1h-.3.4v.2h.1v.2h.2l-.1-.1h1.4s-.3 0-.4-.2h.5v.3h.6v.2h.5a.7.7 0 0 0 .4 0h.8l-.4.1h.3v.1h.9v.2a2 2 0 0 1 -.4 0h-.7.1-.6v.1h-.2l-.3.1c0 .1-.2 0-.2 0h-.5v.2h-.3v-.3l-.4.1h.1l-.3.1h-1.3a10.6 10.6 0 0 1 -1.2-.2h2l-.7-.1h.3c0-.1-.1-.2-.2-.1h-.4 1.3l.2-.2h-.4l-.2-.1h-.5v.1h-.4l-.2.1h-.1l-.2-.1h-.4a2 2 0 0 1 -.6 0v-.1h-1.1l-.1.2h1.2l.5.1h-.3c.1.2.4 0 .5.2h-1.7l-.4-.1.2-.1-.3-.1h-.3l-.2.1c-.2-.2-.4-.1-.6-.1l.4-.1h-.3v-.1h.5v-.3h-.5v.1h-.3c-.2 0-.5 0-.8.2h1-.2s-.2 0-.1.1c0 .1.1 0 .2 0h.1l-.4.1h-.2l.2-.1h-1.8.5l-.8-.1h-.9.3c-.6.2-.7.2-.7 0 .1 0 .3 0 .2-.2l.3-.1h.4a.3.3 0 0 0 .2 0h-.1l-.5-.1a3 3 0 0 0 -.5 0h-.7c-.2 0-.3-.1-.4 0h-.3.1c0 .1.1.2.3.2h.5-.6s-.1 0 0 .1l-.5.1-.5-.1h.6l-1-.2a7269 7269 0 0 0 .3 0l-1-.1h1.2l.2-.1h.2l-.2-.1h-.9.2c0-.1 0-.1 0 0h.3c0-.2-.2-.1-.3-.1h-1.4.1-.2l1.5.2h-.1a.3.3 0 0 1 -.2 0h-.9c0 .1.1 0 .2 0 0 .2-.2.2-.4.2l-.2.1v-.1h-.4l-.2.1h-1.1c-.2 0-.3 0-.3-.2h-.6l.2.1a1 1 0 0 1 -.4 0h-.8.9v-.1h-1.3c-.2 0-.3 0-.3-.2l-.2.2-.2-.1h-.3a4.5 4.5 0 0 1 -.7 0h.1a6 6 0 0 1 -1 0h-3c-.1 0-.2-.2 0-.2v-.1h-.8l-.5.1h-.8.2l.3.1h.8a1 1 0 0 1 -.4.2h-.9l1 .2a1.3 1.3 0 0 1 .9.1h-.7c.2.2.4 0 .5.2a2 2 0 0 1 -.8 0v-.2h-.2v.1h-.2v.1h-.5l-.1-.1h-.8 1l.1-.1c-.3-.1-.5 0-.8 0l.1-.4h-1.1c.3.2.6 0 .8.2h-.8v.1l.2.1h-.8c.2 0 .4 0 .5-.2h-.3l-.5-.1h.6l.2-.1h-.5a.7.7 0 0 1 -.5 0l.4-.1a.6.6 0 0 0 -.4 0h-1.1c.2.2.3 0 .4 0l.4.1v.2h-1 1.4l.3.2h-2.3.1l-.2.1h-.8v-.1h-.4s-.1.1-.2 0h-.7l-.5-.1h-.6l-.2-.1h-.2a1 1 0 0 1 -.6 0h-.5c.2.1.5 0 .7.2h-.9l-.7-.1h-.5.1v-.1h-.8.2v.3l.7.1h-1.2.3v-.2h-.9l.4-.1h-.5v-.2h.8v-.2h-.7l-.3.1h-1.1c-.3-.1-.5 0-.8 0h.3l.3.1h-1.6v.2h-.7.2l.4.3h.5-2.4c-.2-.1-.4-.2-.5 0h-.2v-.2a.3.3 0 0 1 .3 0h.4v-.2h-.4c0-.1.1 0 .2 0l-.2-.1h-.5l-.3-.1a78.2 78.2 0 0 1 -1 0h-1.8s0 .2-.2.1h.1l-1.1-.1v-.1h.6l.2.1v.1a2.7 2.7 0 0 0 .2 0c.1-.1.3 0 .4 0h.2l-.3-.1h1.8c.1 0 .1 0 0 .2-.1 0-.2-.2-.4-.1l.7.1.4.1h-3.8l.6-.2c-.3 0-.5.2-.8.1h.1l-.1.1c-.2-.2-.5 0-.8-.1v.1h-.6.3l.1-.3h.7-.1l.2-.1a.5.5 0 0 0 -.4 0h-.4c-.1 0-.3-.1-.4 0h-.3s.3 0 .2.2h.4-.3c-.2 0-.3 0-.3.2l-.4-.1h-.7a3.6 3.6 0 0 1 -.5 0h-.3l-.3-.1h-.3a1 1 0 0 1 -.4 0h-.5c.2 0 .3-.2.3-.4h.4-.8l-.4-.2h.3l.2-.1h-1.3l.4.1h-.6c-.1 0 0 .2-.3.1h-1.1.1zm69.5 2.2h-.2.4zm-69.6-1.8h.2-.2s0 .1-.2 0zm-58.3.6h.2-.3zm-26 5.6h.3-.7c.1-.2.2 0 .3 0zm14.7-5h.4-.8zm150 .2h-.2.7-.4zm-160.8 4.7h-.6.6v-.1h.1zm105.9-4.8v-.1h.2l-.2.1h-.3zm-17.3.1h-.2v-.1h.5l-.3.1-.1.1h-.2c0-.1 0 0 0 0h.3zm-55-.7h-.2v-.1h.2l.3.1h-.5zm-71 8.9a3 3 0 0 1 -.7 0h.7c.2-.1.2-.1.4 0zm157.2-7.7h1c-.2.1-.3 0-.4 0h-.5l-.2.1v-.1h-.1.3zm7.6-.3h.2-.7c.4-.1.4-.2.6-.1zm-62-1.3.1-.2.6.1a1 1 0 0 0 -.3 0l-.3.1h-.3zm49.7 1.7h1c0 .1-.1.2-.2.1h-.8.5-.8.3zm-57.3-1h-1.5 2.2a1.2 1.2 0 0 1 -.7 0zm6.9 1.2a.6.6 0 0 1 .4 0c-.2 0-.3.1-.4 0v.1h-.7.4l.1-.1zm69 1h-.5a1 1 0 0 1 -.4-.2h.2c.2 0 .4 0 .5.2h.1v-.1h.3v.1h-.3zm-64.5-3.6h.6v.2h-.6v.2l-.2-.1h-.3.5zm73.7 1.5-.1.2h-.5l.2-.1-.2-.1h1-.3zm-61.6-1.3a1.2 1.2 0 0 1 .6 0c-.1.1-.4.1-.4.3h-.2l.1-.1h-.4zm-77.5.8a4 4 0 0 1 .7 0h.1-.1l-.1.1h-.1l-.1.1h-.2v-.2zm124.9.4c.1-.1.2-.1.4 0h-.5.1-.6c-.2 0-.3 0-.3-.2h.6a.3.3 0 0 1 .2 0v.1zm-121.6-.4h-.6a1 1 0 0 0 -.5.2v-.1h-.6.1l.9-.1h1.1zm27.2.3h.9-1.9l-.2-.1h1.2zm-14.1-.2v-.1h.2c0-.2.2 0 .2-.2h-.2.5c0 .2-.2.3-.3.3 0 .2 0 .2-.2.1h-.2zm35.2-.7h.3-.3a3 3 0 0 0 -.4 0c-.2.1-.3.2-.4 0h-.3l.2-.2h.2l.8.2zm47.5.5h-.2l-.5.1h-.1 1.2l-.5-.1h1-.5l.2.1-.2.1.2.1h-.7v-.2zm-68.8.7 1-.1h.2-.4l.3.1-.1.1c-.3 0-.5.1-.8 0l.2-.1h-.4l.1.1h-.3v-.1zm51.7 1.4h-2 2.2l.4-.1h.7a16 16 0 0 0 1.7.1h-2.3a5 5 0 0 1 -.6 0zm2.1-2h1.9-.5l1.2.1h-2.8c0-.1 0-.1.1 0h.1l.1-.2.2-.1h.2c-.2.1-.3.2-.4.1zm46.4.7h-.7v-.1h-1.8a.8.8 0 0 1 -.4 0h.8c.1-.1.2-.1.2 0h2.1c-.1.1-.1.1-.2 0zm-13.7-.1h-.1c0-.2-.2-.2-.3-.2a.3.3 0 0 1 -.2 0l-.1-.1h-.3l-.2-.1h.3l-.1-.1h.4c.2.2.3.2.5.2h.5l.1.1h.4l-.1.1h-.9c0 .2 0 .2-.2.1zm-61-1.3h-.2c.1 0 .2-.1.2 0h.2l-.2.1.6.1h-.4a.9.9 0 0 1 -.5 0 .3.3 0 0 0 -.2 0c-.1.1-.3 0-.4 0h-.8.5l-.3-.2h.7-.2l.2.1h.6l.3-.1zm58.1.4h.9c-.2.2-.4.2-.9 0h-.5a.2.2 0 0 0 -.2 0l-.6.1h-.6l-.1-.1h-.5.2-.5c-.1 0-.2 0-.1-.1h-2.1c0-.1 0-.2.2-.2h1.9c.1 0 .1.1 0 .2h2.1a9353.9 9353.9 0 0 1 1 0v.1zm5.5.7h.2l.1.1h.5-1.1a3 3 0 0 0 -.9 0v.1h-.1l-.2-.1.8-.1h.7-.5v-.1h-.4a6 6 0 0 1 -.5 0l-.7-.1.2-.2h-.3c0-.2 0-.2.2-.2h1.1l.5.1c-.2 0-.3.1-.4 0a5 5 0 0 1 -1 .2l.4.1a116 116 0 0 0 .8 0l.3.1.2.1zm-78-.5h-.3l.7.1h.7a51.9 51.9 0 0 1 2 0h-.9l-.6.1h-.8c-.1.2-.4.2-.5 0 0 .2-.2.1-.3.1h.2-.9l-.2-.1s.2-.2.4 0v-.3h1.9v.2h-1.5zm17.6 0h2.4l1.4.1h.2v-.2h-.2l.3-.2c.2-.2.4-.2.5 0h.4-.6l.2.1h-.3v.3h-.2 1l-.3.1a11 11 0 0 1 -1.3 0h-1.5a14.5 14.5 0 0 0 -2.2 0h-3.8l-.9-.1h-1.1a.8.8 0 0 1 -.5 0h6.4l.1-.1h.6zm83.8.5v.1h-.4l-.2.1 1.7.2h-.1v.1h-.1c-.1-.2-.3-.1-.4-.1h-1l-.1.1h-1l-.1-.1h.4c-.5-.2-1-.2-1.5-.2l-.1.1h-.2v-.1h-.3a2.6 2.6 0 0 1 .9-.1h.5l1 .1-.2-.1a1.1 1.1 0 0 0 -.5 0h-.1a2 2 0 0 0 -.3-.1h-2 .6-1l.2-.3h.9c-.2.2-.4 0-.6.1h2.6l.6.1h.8zm-75-.7h-.3a.8.8 0 0 0 -.5 0 .8.8 0 0 1 -.5 0h-.2c.1 0 .1-.2.3-.1v-.1h.4v.1c.2-.2.3 0 .5 0l-.1-.2c-.3 0-.6-.1-.8 0l-.3-.1h-.4l1.1-.3h1.4-.3l.3.1a2 2 0 0 1 -.5.2l.6.1-.2.1h.3l-.2.2h-.5l-.1-.1zm41.6.9h-1.2s-.2-.1-.4 0h-1a.4.4 0 0 0 -.3 0 .3.3 0 0 1 -.3 0l.1-.1h.5l.4.1.1-.1c-.1-.1-.4 0-.5-.2h.3l-.1-.3.8.1h-.6c0 .2.3.2.5.2h.9l.2-.1h-.6v-.1h.5a1.2 1.2 0 0 1 .7.1l-.5.1h.4l.2.1h-.3.2zm36.5.2.8.2a6.1 6.1 0 0 0 1 0h.6c.2 0 .4 0 .6.2h-.4v.1h-.2v-.1h-.5l-1.2-.2h-1c-.4 0-.7 0-1-.2v-.1h.4c.1-.2.3-.1.4 0h-.2 1.1-.3l.3.1zm-96-.8a2 2 0 0 0 -.8 0h-1.6a.4.4 0 0 0 -.2 0h-2.4zm17.8 0h2.6l1 .1h1.2l-.6.2h-.5c-.1 0-.3-.1-.4 0h-.8a5.4 5.4 0 0 0 -.9 0l-.3-.3h-.4c-.2 0-.3.1-.4 0a1 1 0 0 0 -.4 0h-.2zm16.4.4h.9a232.8 232.8 0 0 1 2.9.1h1.8l.5.1a3.9 3.9 0 0 1 -.9 0h-1.7a15.5 15.5 0 0 0 -1.2 0h-.9v-.1h-.9zm17-.2h.2l.2-.1h.3a.7.7 0 0 1 .5 0 .2.2 0 0 0 .1 0h.5v.1h.2v.1h-.5l-.7.1v-.1l-.5-.1.2.2c-.3 0-.5 0-.7-.2zm-22 .2h.8l-.6-.1h1.6v-.1h.4-.2c.2.1.4.2.6 0h-.2.3l.2.1h.5l-.2.1h-.2l-.4.1-.2-.1h-1c-.1 0-.2.1-.4 0 0 .2 0 .1-.1.1h-.3a1 1 0 0 0 -.3 0h-.3zm60.5-.8h-.3l-.1-.1h-1.2l-.6-.1h-.2v-.1l-.2-.1h1.6l.4.1.5.1zm-50.4.5h.1l.4.1h1.3l.7.1h-1a14 14 0 0 0 -2 0l.2-.1.2-.1h1.5zm-59.7-.2.2-.1h.3c.1 0 .3-.1.4 0h.5a17.4 17.4 0 0 1 .9 0v.2l-.2-.1h-.7l-.1.1h-.5a2 2 0 0 1 -.8 0l-.3-.1h.4zm110-.1h2.1l.7.1h-.7l-.2.1h-.3l-.3-.1h-.3l-.8-.1zm-109.5 1h-1.4.1l.2-.1h.1l-.4-.1h1-.4.6c.2 0 .2.1.2.2zm76-.3h-.3a.6.6 0 0 0 -.4 0h-.4l-.3-.2-.4-.1h.6l.3.2a9.6 9.6 0 0 1 1.2-.2l.2.1-.6.1v.1zm-65 0-.5-.1h1.1l-.1.1h1l-1 .1h-1zm-14.5 0a15 15 0 0 1 -2 0h.3l-.5-.1v-.1h1.1l-.2.1h1.3zm-45 .5-1.6.2c.1 0 .3 0 .2-.2l.2-.1h-.5l1.5-.2-1 .2.3.1h1zm118.5 0h2.8l-.2.1h-2.6zm40-1.5h1.5l.6.1h1.1l.2.2h-.6a7 7 0 0 0 -.5 0l-.4-.1h-1.7zm-25 .3h2.2c0 .1 0 .2-.2.1a.6.6 0 0 0 -.5 0h-.6a8 8 0 0 0 -.9 0zm25.3-.5.7-.1h1.3a1.1 1.1 0 0 1 .6.2l-2.4-.1zm-.3-.1h-2l-.6-.2h1a13.9 13.9 0 0 1 1.6.1zm-11.8 2.2h.4-.9v-.1h-.1.2c0-.3 0-.3-.3-.3h-.2.6l.2.2.6.1h-.5zm-106.8-1.7h1.1-.4v.3h-1.8 1v-.2zm127.3 1.2h-1.7l-.1-.2h.9l.8.1h.1zm-33.5-.6h-2.7a1 1 0 0 0 -.4 0 .6.6 0 0 1 -.4-.1h.7a3.5 3.5 0 0 1 .8 0h.6l.7.1zm5.2 0h-.5.2l-.2-.1.3-.3h.7v.1h-.2l.4.2h-1zm66.7 9.4-.1.2h.4-1.8l-.4-.2c.3-.1.6 0 .8 0h.1l.4.1h.6zm-65.6-8.6h1.7l.4.1-.4.2v-.2h-1.7zm-40.6-1.1c.4-.2.8 0 1.1.1h-.5a.6.6 0 0 1 -.3 0h-.5.7zm-71.5 5a4.1 4.1 0 0 0 -.5 0h-.2.4-.1 1.3-.2l-.8.2.2-.1zm65.3-5h1l1 .1h-.1l-.2.1a1 1 0 0 0 -.6 0h-.6c-.2 0-.4 0-.5-.2zm-.3.2h-1.6v-.2h1.3zm36.8-.4a9.7 9.7 0 0 1 1.2 0h1l-.3.1h-1.3zm19.2 1.2.1-.1h.6l.4.1a1.1 1.1 0 0 1 -.9 0h.4zm-38.4 0h-.4l-.4.1h-.4.3c-.3 0-.4 0-.5-.2h-.4 1-.4zm51-.7c.4 0 .9 0 1.3.2a.9.9 0 0 0 -.5 0h-.4c-.1 0-.1 0 0 0zm-86.5.7c0-.1.3 0 .3-.2h-.9 1.5l-.4.2zm59.6-.3v.1h-.7v-.1h-.4l.3-.1zm-92.6-.7h-.2l-.1.1h-.7.6l.4-.1h.4c-.2.2-.5.1-.8.2l.3-.2zm14.3.1h1.7zm-61.7-.4-2.1.3c.2-.1.4 0 .5-.2h-.3.4v.1h.6l.8-.1zm50.7.3s0-.1.1 0a3.8 3.8 0 0 0 1-.1s0-.1 0 0h.8-1a5.2 5.2 0 0 0 -1 .1zm-6.3.6h1.5l-.4.1h-1.1zm96.4.3h.5a.3.3 0 0 1 .2 0h.4l-.3.2h-.1c0-.1-.1 0-.2 0h-.5zm-123.3.1 1-.1v-.1h.8a1 1 0 0 1 -.5.1h-1.3zm9.5 4.5-2 .1.1-.1h1.5a.7.7 0 0 1 .4 0zm133.6-5.5h1.2l.1.1h-1 .3l.2.1c-.2 0-.3.1-.7-.2zm-42.4-.2h.8l-.2.2h.1v.1c-.2 0-.3-.2-.6-.1zm-67.5.7.3-.1h1.3-.2l-.3.1h-1zm44.8.1c-.1 0-.2.1-.2 0h-.4l-.7.1h-.1v-.1zm-14.4-1.1-.1.1h-.5.2l-.2-.1h.2a3.5 3.5 0 0 0 -.5-.1h-.1 1zm87.8.3-.2.1h-1.1v-.1a2.6 2.6 0 0 0 1 0zm-136.3 1.7h.3-.8l-.1-.2h.8zm29-2h.8l.2.1-.4.1h-.4v-.1h-.3zm52.6 1.1h1.5zm-29.4-.2-.6.1h-.8 1.4zm-73.5.1-1.9.2 1-.2zm77-.4.2-.1h1.9-1.4l-.6.1h-.2zm15.4-.2h-.2 1.2-1.2zm-74.2-.2v.1h-.4a5 5 0 0 1 -.6.1h-.2zm-16.6.7h-.1a2 2 0 0 0 -.8.1 2 2 0 0 1 -.5 0h-.1l1.4-.2h.2zm-26.5 8.8-1.8.2c.6-.2 1.2-.2 1.9-.2zm160.2-8.7h.2a.7.7 0 0 0 .4 0h.7v.1h-1.3zm-30.5.3c.1-.2.2-.2.4-.2h.6l-.7.1c0 .1-.1.2-.3 0zm-58.5.3h.3l.4.1-.3.1h-.1v-.1h-.2zm109.8-1h-.5l-.5-.1h1zm-43.7 1c-.1-.2-.3 0-.4-.1h-.5c0-.2 0-.2.2-.1h.7v.1zm-100.8 4.1h-.9c-.1.1-.1.1-.2 0zm82.5-4.6h1.2-.4l-.3.1h-.3.1-.3zm13.2-1.3c0 .2-.1.1-.2.2a1 1 0 0 1 -.4 0v-.1h.7zm-40.8.1-.9.1h-.3c.3-.2.7 0 1-.1zm-3 .5h-1zm-34 .4h.3a4.5 4.5 0 0 0 1-.1h.2zm.3.5 1.1-.1a3 3 0 0 1 -1 0h-.1zm123.3.4s-.3.1-.4 0h-.7zm-72.7-.8h.8l.1.1h-.9zm77.3.7h-.4s-.2 0-.3-.2h.7zm-21-.4.4-.1.1.1-.5.1zm-37.4.1h1.2l-.3.1v.1h-.3.2c-.3-.2-.6 0-.8-.2zm59.6.3.4-.1.5.1a3 3 0 0 1 -1 0zm-64.4-.2h.2l.2-.1c0-.1.3-.1.4 0h-.3zm44 .2h-.6a1.5 1.5 0 0 0 .3-.2.4.4 0 0 1 .3 0zm-156.7 6.9-.3.2-.4-.1c.2-.2.5 0 .7 0zm149.8-7.2h-1.2l.4-.1h.3c0-.1.1 0 .2 0h.3zm-68-.8h1.1-1zm46.6 2c0-.2-.1-.2-.2-.3h.5c0 .2 0 .2-.3.2zm18-2-.5.2-.4-.1c.3 0 .6-.1.8 0zm-72 .5h1zm20.6-1.3c.3 0 .5-.2.7 0l.1-.1v.2c-.3-.1-.5 0-.8 0zm-97.2 9.2-1 .2c0-.2.3-.1.5-.2zm111-7.5h-.1l.1-.1h.7-.8zm-70.6 4.3.1-.2a17.3 17.3 0 0 1 1 0h-.6zm144.3-4.2h-.7zm-19.7-.2h.2l.1-.1a.3.3 0 0 1 .2 0c.1.1 0 .2 0 .2zm-53.1-1c0 .2 0 .2-.4.1v-.2zm-82.9 5.8c.3-.2.6-.2.8-.1-.2 0-.5.1-.8 0zm9.9-.4h.1l.6-.1a.4.4 0 0 1 .4 0 8 8 0 0 1 -1.1.1zm150.2-3.5h.8l.4.1h-1.2zm-179.9 5.3c-.1.2-.5 0-.7.1h-.1zm178.8-6.4a4 4 0 0 1 -1 0zm-156.6 5h1-.6c0 .1-.3 0-.4 0zm-19.3 1.5c-.3.1-.5-.1-.8 0l.7-.1v.1zm137.5-6.2h-.2l-.1-.1h.5-.4zm-83.2-.2a1.6 1.6 0 0 1 -1 0zm124.5.8h-1.3zm-61-1.1h.7v.1a1 1 0 0 1 -.4 0zm-25.9 1.3-.1.2-.6-.1h.7zm-66 3.5a1.6 1.6 0 0 1 -1 0h.9zm73.7-5.8-.9.1h.9zm27.8.7h-.5c-.2 0-.3.2-.5 0zm-63.4-.1a1.3 1.3 0 0 1 .8 0h-.9zm34 0h-.7.8zm-58.1.3h.7zm112.4 1.4a1 1 0 0 1 .6 0zm-135 4.1h.6zm80-6.4c-.1.1-.3 0-.4 0h-.3zm-19.3 1h-1zm81.4.3-.6-.1.3-.1.3.1zm-127.5.5c-.2 0-.4.2-.6 0zm8-1.3h.7v.1h-.5zm3 2.1h-.4c-.2 0-.3 0-.4.2l-.1-.1zm10.3 1h-.5zm172.6 7.3h1v.1h-1zm-179-5.8h-.9.7zm111.5-4.8.1-.1a.4.4 0 0 0 .3 0h.2-.6zm-100.6 0 .1-.1h.6-.7zm47.1 1.2a1 1 0 0 1 -.7 0zm12.9-.6v.1l.1.1h-.3v-.1h-.2.4zm-17.6 0h-.9zm-20.2-.5a1.4 1.4 0 0 1 -.8 0zm-46 .7-.3.1h-.4zm12.1.2h-.7zm46.9 0h.7a1.2 1.2 0 0 1 -.7 0zm66.5.3-.3-.2c.4 0 .4 0 .5.2zm-34.1-.2v-.1a1 1 0 0 1 .5 0h-.5zm-31.4.5h-.5zm9.6-.8h.9zm14.2.8h.9zm26.2-1.1h.8a.9.9 0 0 1 -.8 0zm.3.6c.1-.1.3-.2.4 0zm-51.4 1h.9zm-24.8-1.3.2-.1h-.3.6-.5zm-25.5-.5h.4l-.1.1h-.3zm70-.3.1-.1h.4c-.2.2-.3.1-.5 0zm7.5 2.6h-.3a1 1 0 0 1 -.5 0zm38.9-.3c.1-.1.2 0 .4 0h.3zm-47.7-.9h.2l.1.1-.1.1h-.2v-.3zm-41.7-1.4-.6.3v-.1h.6zm-53.3.8h-.6zm65.6-1h-.5zm94.6 1.9h.9-1zm-79.8.5h.6zm69.1-.2h.6zm-51.3-1.9c-.2.2-.3 0-.5 0zm-.1.5a3 3 0 0 1 -.8 0 1.3 1.3 0 0 1 .8 0zm-60.1 1.1h.2c0-.1 0-.2.2-.1h-.2.4c0 .2-.2.1-.2.1zm-49.9-.4.2-.1h.8-1zm143.1-.5h.5zm26.9.1h-.7zm-48 .6h.7l-.2.1a.5.5 0 0 1 -.3 0h-.1zm25.6-.3h.6zm-96-.2h.6zm121.8-1-.5-.1h.5zm-47.6 1.7-.4-.1c.1 0 .3-.1.4 0zm38.4-2.2c.1 0 .2-.1.4 0l-.2.1zm-191.6 4.7h.3c0-.1.1 0 .1 0zm199.3-2.3h-.6s-.1.1-.2 0zm-175.6-.4c-.3 0-.5.1-.8 0zm62.3-.2h.6zm2.8-.5h.7zm21.2-1-.6.1h.6zm67.4 1.6v.1a2 2 0 0 1 -.4 0c.2-.2.2-.2.4 0zm18.8-.7h-.6.7zm-120.6 1.3v.1h-.8.8zm39.6-1.2h.7-.6zm85 .3h.5zm-148.2 0-.2.1h-.2c0-.1 0-.1.4 0zm12.7-1.2h.8zm72.8 1 .8.1a3 3 0 0 1 -.8 0zm45.2 1.2h.3c.2-.1.2-.1.4 0zm-53.6-.2h-.6a.8.8 0 0 1 .6 0zm-66.3-1.6v-.2h.2c0 .2 0 .2-.2.2zm123.7 1v-.1h.7-.7zm-169.9-1.4h.6zm79.4.7h-.3a3 3 0 0 1 -.3 0h-.3 1zm-36.7-.3-.5.1h.5zm-28 6.2h.3l-.2.1-.2-.1zm145.1-5-.3.1v-.2zm-43.6.9h-.5zm40.2-1a.8.8 0 0 1 -.5-.1c.2-.1.3-.1.4 0zm-120.1 2.5h.1l.2-.1.1.1h-.3zm73.2-2.3a1 1 0 0 1 -.7 0zm30 1h-.6.5zm69 7.1h-.6.7zm-123.7-9h.6zm63-.7h.5a.7.7 0 0 1 -.5 0zm-35.4.9h-.6l.3-.1h.3zm-44.2-.8-.3-.1zm33.7 1.5h-.5l.3-.2s.2 0 .2.2zm-17.7.2c-.1.2-.3 0-.5.1h.5zm65.2-1c.2 0 .3-.2.5 0zm14.3.6h.7zm-11.2.2h.5zm-51.6-.8h-.6zm-53.5-.2.2-.1h.1-.3zm36.5 0h-.6zm-68.4-.2h.5zm-29.1 1.6h-.6zm93.3 0h.5zm51.4-1.5h-.3zm-146 2.5c0-.2 0-.2.3-.2l-.4.2zm129.7-2.5c.3-.1.3-.1.4 0zm59 1.3h-.7zm-125.4-1.3h.5zm5.3.4h.5zm-19.5 1-.5-.1a.8.8 0 0 1 .5 0zm81.2.6h-.6zm66.3-.6h-.5zm-18 5.1h-.7.6zm-9.7-5.2-.2-.2h.2l.2.1h-.2zm-138.6 4.7.4-.1h-.4zm54-5.8a1 1 0 0 1 .6 0zm50.8-.5v.1h-.3zm22.3.7h-.4.5zm-86.7-.8h.2-.4c.1 0 0-.2.2-.1zm39.6 2h-.2l-.3-.1h.5zm-36.4-1.8h-.3zm-50.6 6.4h-.4zm168.6-5a.8.8 0 0 1 .5 0zm-9.1-.6.6.1h-.6zm-86.5.1a.8.8 0 0 1 -.5 0zm17.3-1a1 1 0 0 1 -.5 0zm30.6 2.6c-.2.1-.2.1-.4 0zm.4-1h-.6zm-12-.8h.3c-.2.1-.2.1-.4 0zm-52 .4h-.7zm148.7 8.4h.6zm-146.2-7.9h-.5zm-54.1-1.7.4.1h-.3l-.2-.1zm-5 1.2c0-.2.2-.1.3-.2h.2zm106.5.6h-.6zm-11-1.8h.6-.5zm-2.7.8h.5zm-7.8 1h.4c-.2 0-.3.1-.4 0zm93.2-1.7a.8.8 0 0 1 .5 0zm-77.8-.3h.5a.6.6 0 0 1 -.5 0zm-49 4.7h.6zm49-4.6h-.3zm-25.7 1.2h-.4zm48.3-1h.4zm-3.4 2.5h-.4zm3.4-2.5c-.1.1-.1.1-.4 0zm-29.9 1.3h.5zm46.7.7h.5zm-90.5-1h-.4zm90.6 2.6c.1-.1.2-.1.4 0zm-72.4-3.1h.6zm78.2.3c0-.2.2-.1.3 0zm-90.4-.6c.2-.1.3-.1.4 0zm92.2 2.4c-.2.1-.3 0-.4 0zm.2-1.5h.4c-.2.1-.3 0-.4 0zm-106.3-.6h.5c-.2 0-.4.2-.5 0zm-13.1-.5h-.5.4zm133.8-.6h.4a.7.7 0 0 1 -.4 0zm-145.3 1.1h.3zm92.8-.4h-.3zm60.1-1h.6zm-154.4 6.7.5-.1h-.5zm104.2-4.4c-.2.2-.2.2-.3 0zm-11.8.3h-.2v-.1h.1zm-53.6-1.7c-.2.1-.2.1-.4 0zm36.8.3c-.2.1-.2.1-.4 0zm38.4 2.7h.3zm-49-3.1h-.3.2v-.2h.1v.3zm-28.4.8-.3-.1h.1zm103.6-.2c.2-.2.2-.2.4 0zm-120.4-.7h.4zm155.5 3.3h.5zm-116.3-4.1a.5.5 0 0 1 -.5 0 .4.4 0 0 0 .3 0zm-.7 1.5h.5a1 1 0 0 1 -.5 0zm67.4.5h.3zm-98.4 0h-.5zm55.3 1h-.4zm-121.9 6.6c.1-.2.1-.2.3-.1h-.3zm15.4-1-.4.1s.2-.1.4 0zm104-6.8c.1-.1.2-.1.4 0h-.3zm-42.7.6h-.4zm107.5-2.7h.3l-.3.2zm.4 3h.3zm17.4-1.8h-.4.3zm-113.3.6h.5zm-5.3.6h.4c-.2.1-.3 0-.4 0zm-43 4.6h.3-.4zm54-6.2h.4zm34.4 1.1h.5zm-34-1.6h-.3l.1-.1h.2zm44.8 1.8h-.3zm3 .6h.4-.5zm37.3-.3a.6.6 0 0 1 -.4 0zm-121.7 3.5c.1 0 .2-.1.4 0zm62.4-4.6h-.4zm-.3-.2h.3zm38.4 1.8h.4zm-43.9-1.4a.2.2 0 0 1 -.2 0h.3zm-66.5.5h.4zm86.7-1 .2.1h-.2v-.2zm-19.8 1.5h.3zm-83.3 4.8.3-.1h-.3zm163.4-4.5h-.4zm-63-.5h-.2.3zm-59.4 1h-.3l.2-.1zm-2.1-1.6h.4zm0 .1c-.2.1-.2.1-.4 0h.3zm18.5-.2h-.3zm-23.6 2.4h.4zm.1-.6h-.3zm31.1-1c.2-.1.2-.1.4 0zm-85.2 7h.3zm80.7-7.6h.5zm31.8.7h.3zm-77.3-1.2h.4zm81.5.4-.3-.1h.3zm-91.2 5.2h-.3zm-16.9-6.3h-.4zm102.6 1.5h.4zm63.8-1.5h.2c0 .1 0 0-.2 0zm-46 2.6s0 .1-.2 0zm-114.4-1.4a.3.3 0 0 1 -.2 0zm147.4.4h.3c-.1 0-.2.1-.4 0zm22.1 1h-.1zm-107.4-.6c.2-.1.2-.1.4 0h-.5zm-20.6-.6s0-.2.2-.1c0 .1-.1.1-.2 0zm71.5.8h.2zm-38.7-1h.4zm51 1.9h-.5zm41.9-3.1h.3zm-16.5 1.4h.2zm-75.5-.2h-.3zm21 .3h-.2zm1.5 0h-.2c-.1 0 0 0 0 0zm-88.6 5h-.3zm142.6-3.9.2.1h-.2zm9.6 0h.2zm-85.8-1.6h-.3zm24.1 3.4h-.3zm-44.2-4-.2-.1h.2zm-29.7 1.8h.4zm68.3-1.7h.3zm90 9h.2-.3zm-122.5-8.5h-.2zm-71.5 6.6h-.4zm170-7.2h.3zm-144 .6h.3zm114.5.3h-.1v-.1h.1zm-50.1-.3h.3zm78.7.8c0-.1 0-.1.2 0zm-78-2.2h.2-.3zm-30.5 1.1h.3zm-37.6 5.4h.4c-.2 0-.3.1-.4 0zm162.6-2.6h-.4zm-191.2 5.2h-.4.3zm41.6-5.7h.2zm128.2-.6h.3zm41.6 7.7h-.4zm-161.6-5h-.3c0-.2.2 0 .3 0zm49.9-2.7s.1 0 0 .1zm67.4-1h.3zm-8-.2h.4-.3zm-105.1 1.3h-.4.3zm-34.4-2.4h.4c-.2 0-.3.1-.4 0zm95.1 2h-.3zm71.5-1.6v-.1h.2-.2zm-34.1-.5h-.4c.1-.1.2-.1.4 0zm9.8 1.9h-.3zm-5.2-.5h-.4a.6.6 0 0 1 .4 0zm-94.9 1.1h-.2.3zm-47.6 4.8h-.2zm114.6-6.6h.2zm34.8 1.6h-.3c.1 0 .2-.1.2 0zm-122 1.2h.3zm-1.9.3h.4zm86.9-1.8h-.3zm-.5-1.6h.2zm28.7.1h.3zm-121.6 3.2h.4-.3zm112.5-1.5h-.3zm-20.3-2.2.2.2c-.2 0-.2 0-.2-.2zm35.4 1.8h-.1c-.1 0 0 0 0 0zm-31-1.1h-.2zm-60.7-.2c0-.2 0-.2.2-.1h-.2zm-41.8 6h.4zm73.1-5.4h.2zm-27.5.5h.3a.3.3 0 0 1 -.2 0zm0 3.1h.1-.2zm65.4-2.8h.1zm-133.2 6.4h.3zm226.3 2.4h-.1zm-124.3-9.2-.2-.1h.2zm125.5 9.2h.2-.3zm-125-8.4h-.3.2zm49.9-.9v.1h-.2.2zm-115.4 4.3h.3zm39.2-5.6h.2zm-33.1.2-.1.1c-.1 0 0 0 0 0h.1zm67 .9h-.3.4zm-66 4.1h-.2zm108.5-3v-.1h.2-.2zm74 8.6h.3zm-241.1-6.7h-.2zm142-3.4h-.2zm14.1 2h-.2zm-154.9 7.5h-.2zm59.8-6h-.3zm22.9-.5h.2zm-82.2-1.7h.3zm166.8-.6h-.3zm-107.1-1.3h.2zm.2 2h.2zm.7.7h.3zm122.7-1.9h-.2zm-78.7-1 .2.1h-.2zm26.5.8h-.2zm-39.8 1c-.1.2-.2.1-.2 0-.1 0 0 0 0 0zm30.4-1.1h.2zm27.4.4c0 .1 0 .1-.2 0zm12.5-.2h.2zm8.9 0h-.1zm-101.7 1.3h.2zm121.2-.8h-.2zm-164 5.7h.3-.2zm165-5.6h-.3.1a.3.3 0 0 1 .2 0zm-80.5 1h.3zm80.8-2.4h-.2zm-169.7 1c0 .1-.1 0-.2 0zm140 2.7h-.2.3zm-45.2-3.6h-.1zm-102.7 8.2h.3zm98.8-7h.3zm71.7.7h.1zm-135.2 3h-.3zm2.7.4h-.2zm-2.8-4h-.1zm26.8-.6h.3zm36.5.5s0-.1 0 0h.1zm-19.7-.4h.2zm87.2 1.9h.2zm-14.4-1.3h-.2zm.2.3h.2zm-151-1.6h-.2zm69.5 4.4h-.3zm-68.4-4.3h.2zm68.3 1.5h-.2zm37.6-1h-.3zm-102.2-.6h.2zm146.6 2.8h.2zm-1.8-2.2h-.3zm-74 .8h.2zm21.1.3h-.1zm-88.7 5.4h-.3zm38.2-5.8h.3zm37.1 2.7h-.2zm24.2-3.1h.3zm10.8-.8h-.3zm-52.7 1.5h-.3zm106 .1h-.2zm-119.2 2.7h-.3zm0-.8h.2zm13.2-2h.2v.1h-.2zm81-.4h.2zm-93.5 2.7h-.3zm-40.4-3.7h.1zm161.1 1h.2zm-108.4 3.2h.3zm33.3-2.8h.2zm49.5 4.8h.2zm-35.4-5.6h.1zm-32.2 1.3h.3zm-69.8 3.9h.2zm189.4 3.5h-.2zm-182.4-3.1h.1zm44.5-5h.3zm-6.1-.7h-.1v-.1zm-36 5.6h-.4.2zm-24.7 2h-.3zm69.9-8.2c0-.1.1-.1.2 0zm1.2 1.3h.1zm16.6.4h.2zm6.5-1.9h.1l-.2.1h.2zm17.2 2h.2zm-19.2-1h.2zm-59.8.2-.1.1zm0 4h-.3v-.1h.2zm149.3-2.7h.1zm-172-1.4h.2zm23.8 1.4h.1zm-32 5.8-.2.1h.2zm33.3-2.6h-.1a.2.2 0 0 1 -.1 0zm28.3-5.2h.1zm94.8 2.7h-.1zm13.2-2.7h-.2zm-107.5 4.3h-.3zm106.6-2.3h-.2zm-106.4-2h-.2zm49.6-.3h.2zm-30-.4h.1zm7.2 0h-.3zm-103.4 2.4h.1-.2zm101.6-.6h.2zm19.5-1.8h.2zm58.5 1.2h-.1zm-41.8-.4h-.1zm-42.6-.3h.2zm-79.1 8v-.1h.1-.1zm124.1-6.4h-.1zm-86.7-1.2h-.2zm26.3 1.1h-.2zm63.8 1.9h-.2zm-91-1.8h.2-.1zm-.5-1.7h.2zm2.3.6h-.3.2zm.9 4.4h-.2zm-54.8-3.1h-.1zm56.7 3h.2zm35.8-4.8h-.1zm50.4.8h-.1zm-93.5 2h-.2zm9.8 1h-.2l.1-.1h.1zm25.4-2h.1zm-.4 0h.1zm19.2-1.1h.2zm12.8-.8h-.2zm-54.6.3v-.1zm159.2 9.4h-.2zm-43.2-9.6h-.1zm-47.8.4h.2zm-67 1-.2-.1h.2zm-18.8-1.2h.2zm-2.6 5.6h-.2zm64.4-6h.2zm56 1.4h-.1zm-32.4-1.2h-.2zm-111.8 7.4h.2zm168.5-8.2h.2zm12.6 3.2h-.1zm-134.5 2h.1zm60.8-4.2h-.2zm50 1h.2-.1zm-99.9.2h.2zm78.1.4h-.1zm44 .1h.2zm-.4-1h.2zm-45.2-.9h-.2zm-37.6 1.3s-.2.1-.2 0zm50.2 0h-.1zm-90.6 3.3h.1zm98-3.4h-.2zm-145 5v.1h-.2.1zm93.5-7h.1zm-92.1.6.1-.1h-.1zm42.6 4.7h.1zm121.9-4h-.2zm-50.1.6h.1zm-14.1-.1h.1zm65-1.6v.1zm-65.5 1.6h-.1zm-60 3.3h.1zm43.8-3.1h.1zm17.8 1.6h-.2zm66-.9h-.1zm-105.7-2.7h.1zm97.3 1h-.1zm-148.6 1.4h.1zm132.5 1.8h.2zm-24.3-2s0-.1.2 0zm-82.6 1h.2zm75-.2c0-.1 0-.1.1 0zm68.9-1.6h.1zm-144.7 3.3h.1zm55.2-1.8h.1zm-76.8-2h.2zm37.7 0h.1zm1.3 0h.2zm13.1 1v.1h-.1.1zm-30.4-1.3h.2zm20.3 1.6h-.1zm17.2-.1h.2zm-38.5 0h.2zm104-.6h-.2zm18.8-1.3h-.1zm-139.5 5.8h-.1zm15-5.2h.1zm57.5.9h-.1zm-1.8.5h.2zm-66.7-1.2h.2zm38.7 1.6v.1h-.1zm-90.3 4.4h-.1zm74-4.7h-.1z" fill="#f5663e"/></g></svg>