<svg fill="none" height="14" width="158" xmlns="http://www.w3.org/2000/svg"><path d="m29.1 11.5.1-.3c-.2 0-.3.1-.4.3a7 7 0 0 1 -.3.4v-.3h-.1l-.7.2-.2.2v-.3h-.3l.2-.1-.2-.2v-.1.3h-.5l-.1.2-.4.1-.2.1h-.2l-.3.1h-.2.3v-.2l.2-.2v-.2l-.2-.1-.4.3-.5.2v-.2l-.2.2-.5-.1-.2-.1h-.5a.7.7 0 0 1 -.3-.5l-.2-.1h-.2c-.3 0-.6-.2-.8-.5l-.3-.2v-.2h-.3l-.2-.1h-.2l-.2-.2-.1-.1-.3-.2-.4-.2-.6-.5-.6-.4-.1-.1c-.2 0-.3-.2-.2-.4l-.3-.2-.3-.2-.2-.2a2 2 0 0 0 -.5-.4l-.6-.6v-.3h-.2l-1-1.4-.2-.4-.6-.7-.6-.5c-.3-.2-.6-.2-.9-.1h-.9l-.1.2h-.5l-.1.2h-.3l-.3.2-.1-.2h-.2l-.2.3-.1.2h-.2l-.5.2s0 .2-.2.2l-.8.4-.4.3c-.2 0-.4.2-.5.3l-.6.3a1 1 0 0 0 -.6.4h-.3l-.1.2-.1.2c-.1 0-.2.1-.2.3v.1l-.8.6c0 .3-.4.3-.6.4 0 .4-.2.4-.5.5 0 .2-.3.2-.4.4h-.3c0 .1-.2.5-.4.6v.1l-.2.2-.2.4-.3.4h-.2l-.6-.3-.4-.3-.5-.7-.2-.4c.1-.2.3.1.4 0v-.4h.3l.4-.4c.2 0 .2-.3.4-.3l.5-.6 1-1 .6-.6.8-.9c.3-.1.4-.4.6-.5l1-.8.5-.2 1-.8.5-.2 1.3-.7.4-.2.7-.3.5-.2c.3-.2.7-.3 1-.3l1.2-.3h1.5l.1.1.2.2h.2l.1.1c.3-.2.5-.3.7.2h.2l.2.1h.2l.4.4.2.3.2.2.2.1c0 .2.2.3.3.4l.5.4c0 .3.3.4.4.6l.2.1.2.3c.1.3.2.6.5.8.2 0 .3.3.4.5l.2.1h.1l.6.6.3.2.3.2.4.2.3.2.5.3.7.4 1 .4h.4l.7-.2.9-.3c.4-.1.9-.3 1.3-.6.3 0 .6-.2.8-.3l.5-.2.8-.4.8-.4.6-.2 1.2-.5.7-.3.1.1 1.2-.4h.2l.3-.2.9-.3c.3-.2.7-.2 1-.3l.3-.1.1-.1.8-.2h.3a.3.3 0 0 0 .3 0c.1-.2.3-.3.4-.3h.4l.2-.1h.5a1 1 0 0 1 1 0l.2-.1h.1c.1.1.2.1.2 0h.3c.1 0 .2 0 .3-.2h.3l.3.3h.2c.1 0 .1-.2.3-.2l.2.2h.3c.2 0 .3.1.3.2v-.1c0-.2-.4-.2-.5-.5l.2.1.3.1.6.1h.4l.2-.2h.6v.2c.3 0 .6.3 1 0v-.2l.3.3v-.1h.3l.1.1h.4l.2.2v.2l.4-.2.3.2.3.1h.4l.4.2.2.1-.1.2v.3h.5l-.1-.4v-.1c.3 0 .6.2.8.4.3 0 .4.3.6.3v.2c.1.1.1.1.1 0 .4 0 .5.3.8.4l.2.1.6.2.4.1c.1 0 .2.2.3.1h1l.7-.2.7-.2h.3l.9-.3c.3-.1.6-.3 1-.3l1.4-.4c.4-.2 1-.3 1.4-.3l1.2-.3h.6c.3-.1.5-.2.8-.1h.7l.4-.1.3.2h.4l.5-.2v.1h.9v-.2a.2.2 0 0 1 .3 0h.2v.2l.3-.1-.3-.5c.2-.1.3 0 .4.3v-.1l.2-.1.1.1.2.2.4-.3v.2h.4c.3 0 .3 0 .4-.2l.2.2h.2l.2.1.4.1h.7l.1.2.1-.1.2-.2h.3a.4.4 0 0 0 .4 0c.2.1 0 .2 0 .3l.4.2h.5l-.1-.4h.4l.1.3-.1.1v.2c0 .1.1.1.2 0h.2c.1 0 .3 0 .4-.3l.1.4.2-.3.1.1v.2l.1.1h.5l-.1-.2h-.1l.3.1c0 .2.2.2.1.4l.3.2.4.2.2.1.4-.1c0-.2 0-.3-.2-.4h.1a.2.2 0 0 1 .2 0c.2 0 .2.1.3.2h.2l.1.2h.3c.1.3.4.3.6.3h.2v-.2h.2l.5.3.1-.1h.3c.2-.2.1 0 .2.2h4.5l.2.1c.1 0 .3-.2.4 0 .3-.1.7-.2 1-.1h.9l.6.1.1-.2.4-.1c.2.2.4 0 .6.2l.2.3c.2-.1.4-.1.4-.4h.9v.1h.8l.1-.2.7.1c.2.2.4 0 .5-.1l.2.2.2.1a.3.3 0 0 0 .2 0c.2-.2.4-.2.6-.2h1.2c.3-.2.5 0 .7.1h-.2l-.1.4h1v-.2h-.3c.2-.1.3-.3.4-.2.3 0 .6 0 .8.2l.2-.2.3.1c0 .3-.3.3-.3.6a.7.7 0 0 1 .7 0l.3.1h.6c0-.2 0-.5-.2-.5l.5-.2s.2.2.2-.1c.2.1.2.1.4 0l.2.1h.3c.2.2.2 0 .3.1l.1-.2.2.2c.3.2.3.2.5 0v.2h.5l.2.2.2-.3v.2c.3 0 .3 0 .4-.3v.5h.7c.2 0 .3 0 .4.2.2 0 .4.2.6 0 .2 0 .2.2.3.2l.7-.3-.2-.2h-.2l-.1-.2v-.1l.2.1c.1-.2.4.2.5-.1l.2.2h2.6l.1.1.2.1h.3a.4.4 0 0 0 .5 0v.3l-.3-.1-.4.1-.8-.2h-1.4c-.2 0-.2 0-.2.2h.2l.1.2c.2.2.4 0 .5 0h1.4c.2.2.4.2.6.2l.4.1h.1v-.3h.2l-.1.3c.2.1.2 0 .3-.1 0 .2.1.2.3.2h.5a.2.2 0 0 1 .2 0c.3-.2.4 0 .6 0 .3-.1.5 0 .8 0l.3-.1s.2-.1.3.1c.2 0 .3 0 .4.2l.2-.2h.5a.6.6 0 0 1 .5 0h.3c0-.1.3-.2.2-.5 0 .2.2 0 .2.3l.2.4a.7.7 0 0 0 .6 0h.5l.4.1.2.1h-.3c.1.4.3.6.5.4.1 0 .2.2.4 0a.5.5 0 0 0 .6 0l.2.1.6.1-.1-.4h-.4c-.5 0-1-.1-1.4.1v-.3c0-.2.2-.2.3-.3l.4.1h.3a.6.6 0 0 1 .5.1h.9l.2.1h.4l.2-.2.2.1.2-.3-1.4-.4h.9c.2-.2.5 0 .7 0h.2c.2.1.5.2.7.1h.2l-.8.1c.1.1.2.2.1.3v.3h.3l.2.1-.4.3.4.2h.4l.7.5.4-.1v-.2h.1l.2.2.2.1v-.2s.3.2.4 0l.2.1h.1l.4.2c0-.2.4 0 .4-.3 0-.1-.2-.1-.2-.3-.2-.1-.5 0-.8 0h-.4c.2-.2.4 0 .4-.3h1.7l.1-.1v-.2a.1.1 0 0 0 -.1 0h-.1l-.5-.1.3-.2.2.1h.3l.8.4h-.5l.1.2.4.1c.2 0 .3 0 .4-.2 0-.1-.1-.3.1-.3 0 .3.3.2.5.2h.8c.1 0 .3.2.5 0l.2.1.3.3h-.2l-.7-.2v.1l-.4.2v.2h.7l.2-.1h.1c0-.1 0 0 0 0 .1.2.1.2.4.2l.5-.1c-.1-.2-.3-.1-.4-.3.2-.2.3-.2.6 0l.4.2h.2l.2.1c0 .2.1.1.2 0h.1l.4-.2h.2l-.2.1c.4 0 .4 0 .6.3a1.2 1.2 0 0 1 .8 0v-.1c.1-.1.3 0 .4 0l.4.1a.3.3 0 0 0 .3 0l.4.2c.2.2.3 0 .4-.1.1.2.3.2.4 0 .1.4.3.3.5.3l-.3-.2.1-.1.5.4.2-.2c.1.3.3.2.4.2.2-.1.3-.2.4 0 0 .1.3.2.4 0h.2l-.2.3h.4l.9.1.2.1a.6.6 0 0 0 .6 0c0 .2.2.2.3 0 .2 0 .4.3.7.1l.3.2.3.1.3.1v-.1l.4.3c.3-.2.5 0 .8.1.2.2.2.1.3 0l.5.2.3-.1h.2l.1.1a.2.2 0 0 0 0 .2c-.1 0-.1 0 0 0v.2h.6l-.3-.1v-.2h-.3l.5-.2 1 .2a.5.5 0 0 0 .6 0h.4l-.2.4-.5-.3v.6l.3.1.7-.3-.2-.3h.5l-.1.2s-.2.2 0 .3l.5.1v-.1c-.1 0-.2-.2 0-.4 0 0 .2-.1.4.1l.2-.2.2.2-.2.3-.2.1c.2.3.4 0 .6 0l.2.2.2-.3-.5-.3a.7.7 0 0 1 .7 0l-.2.1.2.1v.2s0 .2.2.1h.1c.2.2.3 0 .5 0l.2-.3h.3v.1l-.1.2v.2h1.2s0 .3.2.2c.2 0 .2-.1.2-.3h.2c.2.2.3.3.5.2.2 0 .2 0 .1-.2v-.2c-.1.2-.3.1-.5.1h-.9c-.1 0-.2-.2-.1-.3v-.3l.2.3h.9c.2-.2.4 0 .6 0h.2v.1s-.2 0-.2.2l.1.1h.2s.3 0 .4.2l.2-.2.1.2.5-.2-.3-.2.1-.2.3.5h1c0 .2.3.2.5.2s.3 0 .4.2c0 .2 0 .2.2.2l.1.1h-.3a.3.3 0 0 0 -.2-.1h-.2c-.3-.2-.4-.2-.5.1h-.2v-.1h-.2a.2.2 0 0 1 -.2 0l-.3-.1c0-.1.1-.2.3-.1h.3v-.2c-.3 0-.6-.1-.8 0v.3h-.2v.3c-.4-.2-.7-.2-1-.2h-.3v.1l-.2-.1h-.3l-.2-.3c-.1.2.1.3.1.5l-.5-.1.1-.2-.3-.2c0 .2-.2 0-.3.2l-.2-.1.2-.1-.5-.3h-.6v.4s0 .2-.2.1l-.1.2h-.5a1 1 0 0 0 -.6 0h-.3c-.1-.1-.2-.1-.2 0h-.3v-.2h.1l-.3-.3s-.3 0-.3.2c-.3 0-.3.2-.4.4h.7v.3l.5-.2h.3l.4-.1.2.3.2.1v-.3h.8l.9.3-.3.1v.2-.1.1c-.3.1-.5 0-.7.2 0 .2 0 .2.2.2h1.3c0-.3-.3-.1-.5-.2v-.5h.2c0 .3.3.3.5.4 0-.2.2-.2.2-.5l.2.2.1.2h.5l-.1.2h-.7v.2c0 .1.1 0 .2 0h.8c.2 0 .2 0 .3-.2h-.2l-.3-.1v-.4a6.4 6.4 0 0 1 1.5 0l.2.2.1.1h.1c.2-.2.3-.3.5 0l-.6.1-.3.1h-.3c-.1-.2-.2-.2-.3-.2-.3.3-.3.3-.2.5h.4c-.2 0-.4.2-.6.1h-.2s-.1.1-.2 0c-.2.1-.5 0-.7.3-.1-.3-.3-.3-.5-.3l-.1.2-.1-.3c-.3 0-.5 0-.7.2h-.2l-.4.1-.3-.2h-.4v.2c-.2.1-.2-.3-.4-.2l-.1.3v-.2l-.2-.2v-.4l.3.3v-.2l-.1-.2h-.2l-.2-.1v-.2l-.1-.2a1 1 0 0 0 -.7.1l.3.3v-.2c.2.2.2.2 0 .6 0 .2.3 0 .4.1a.3.3 0 0 1 -.4 0v.2h-.9v.1l-.1.1v.2l.1.2-.4.2-.2-.1s0-.2-.2-.2v-.2c0-.2-.2-.1-.4-.2h-.3c0-.2-.3 0-.3 0l-.2.3.1.3h-.4l-.2.2h.4l.2.1-.5.1-.6-.6-.2.2h-.2l-.3.1h-.1l-.2.3v-.3l-.1-.2v-.1h-.1c-.2-.1 0-.4-.2-.5v.3l-.4-.2c0 .2 0 .3-.2.4h-.7v.2l-.2-.2-.2-.2h-.6l-.1.5h.4v.2h-.2c-.2-.2-.2-.2-.4 0a.2.2 0 0 1 -.2 0c-.1 0-.3-.1-.4 0l-.4-.2a.9.9 0 0 1 .8 0l.1-.2v-.1l-.7-.1-.6-.1h-.4l.1-.3h-.2l-.4.2h-.2l-.3.1.2.2h.3l.6.1h.3l.2.2h-.2a4 4 0 0 0 -.7 0 1 1 0 0 0 -.4 0l-.2-.1c-.3-.2-.4-.2-.7 0l-.5-.1c-.1-.2-.1 0-.2 0-.1-.3-.3-.3-.6-.1v-.4l-.3-.2-.5.1c0-.2.1-.1.2-.2h-.6l-.2-.2-.3.3v-.1l-.2-.2-.4.2-.2.2h1.4l-.1.4h-.4c-.2-.3-.5-.1-.8-.2v.3h-.4l.3-.3c0-.2-.2 0-.3 0-.1-.2-.2 0-.4 0v.1l-.3-.1v.2h-.4l.2-.2v-.1h.3c.2 0 .4 0 .5-.3l.2-.1c-.2-.2-.2-.2-.3 0h-.1v-.1c-.2-.1-.2-.1-.4 0h-.5v.3h-.1l-.1.4v.2l-.4-.4h-.4l-.3-.1h-.6c-.1.1-.1.1.1.3h-.4v-.2l-1.1-.3h.7l.4-.2.1.2h.3s.2 0 .2-.2l-.2-.2h-.3c-.2.1-.4.2-.7.1.1-.1.2-.2 0-.3h-.2c-.2 0-.4 0-.5.2h-.4v.2h.2c.1 0 .2 0 .2.2l-.3.2-.1-.2a1 1 0 0 0 -.4 0v.1l-.4-.3h-.1l.1.3h-.3l.1-.1v-.2h-.2a3 3 0 0 0 -.2.3h-.3l-.1-.4h.2l.1-.4c0-.1-.2-.3-.4-.1h-.2c-.3 0-.3 0-.4-.2h-.2v.3l-.3-.2c-.2 0 0 .3 0 .4h-.3l-.2-.2.1-.2c0-.1-.1-.2-.3-.2 0-.2.1-.1.2-.2-.1-.3-.3-.4-.4 0h.1l.1.2v.1l-.5-.2v.2h-.2c-.2 0 0-.1 0-.2-.2-.2-.2-.2-.4.1 0 0-.2 0-.2-.3 0 0-.2 0-.2-.2h.2-.2l-.2-.1v.3l-.2-.2c-.1 0-.2 0-.2.2s0 .3.2.5l.4.2h.2l.3.2h.4l.2.1v.3l-.5-.2-.4.1h-.7l-.1-.2h-.2c-.1 0-.2 0-.2.2v.2h-.1v-.2c0-.1 0-.2-.1-.1h-.3c-.2-.2-.4 0-.7 0l.3.2h-.5l-.2-.1h.2v-.2l-.1.2c-.1 0-.3 0-.4-.2a.4.4 0 0 0 -.6.1v-.1l-.1-.1h-.1v.4c-.2 0-.1-.2-.2-.2l-.2-.2.3-.2c.1 0 0-.1 0-.2a.3.3 0 0 1 0-.3v-.2h-.2v-.1h-.5l-.1.2-.2.1-.2-.1h-.5l-.1.1a.2.2 0 0 1 -.3 0l-.2-.1c-.2-.2-.3-.2-.3.1l.5.1.7.1c.3 0 .3 0 .3.3v.3l-.2-.2-.1-.2h-.1c-.2 0-.5-.2-.7 0h-.2c0 .2-.2.2-.3.3h-1.5l-.5-.1-.3-.2.1-.2c0-.2 0-.2-.2-.2-.3 0-.4-.2-.5 0a.6.6 0 0 0 -.6 0c-.5-.2-1-.2-1.4-.1h-.2l-.1.2c0-.2-.1-.2-.3-.2l-1.3-.2v.1h-.4c-.1.2-.1 0-.2 0h-.8a3 3 0 0 1 -.6 0v-.2c.1-.3 0-.3-.1-.4l-.2-.1h-1v-.3l-.1.1v.2c0 .2.1.2.2.3h-.6l.1.3h-.1c-.1-.2-.4-.2-.6-.3-.1 0-.1.4-.4.4v-.3c-.2 0-.3-.3-.5-.2 0 .2.2 0 .2.2h-.5c-.2 0-.4-.2-.5.1-.1-.3-.3-.3-.5-.3s-.3.2-.4.3l-.3-.2h-1.1l-.5-.2h.2l-.1-.2h-.8c0 .1-.2.1-.2 0h-.6l-.2.2a1 1 0 0 1 -.2-.4.2.2 0 0 0 -.2 0l-.1.2h-.3a.2.2 0 0 0 -.2 0l-.1.2c-.1.2-.3.2-.5.2 0-.4.4-.2.4-.5h-.5v.1l-.2.2h-.2c-.1 0-.3-.1-.4 0-.2.2-.1 0-.2 0h-.6v-.3h-.5v.2h-.4v.3c-.3 0-.3-.3-.4-.4v.2h-.8v.2a.5.5 0 0 1 -.5 0 .4.4 0 0 0 -.3 0h-.3c-.3-.1-.4 0-.6.2h-.2v-.1c.3-.2.6-.3.8-.2h.5l.1-.3h-.5l-.2.1-.2.1v-.2h-.4a.1.1 0 0 1 -.2 0h-.1c-.2.1-.2.1-.2 0v-.1c-.2-.2-.4 0-.5 0-.3-.2-.5-.2-.5 0-.1.3-.1.2-.2.2h-.2l-.2.1c.3.2.4.3.7 0h.6v.1h-.5v.3h-.5l-.2.1h-.8c.1-.1.4 0 .5-.2-.2-.2-.3-.1-.6 0v-.1h-1a.3.3 0 0 1 -.3 0c.2-.2.5-.2.6-.6l.1.4.1-.2.2-.1-.2-.5c-.1-.1-.1 0-.1 0v.2h-.2c-.2 0-.3 0-.4.2l-.1.3h-.4l-1 .5a.3.3 0 0 0 -.4 0l-.4-.1v.3c-.1-.2-.1-.2-.3-.1h-.1l-.7.1c-.2.1-.4-.2-.5 0h-.8c.2-.1.2-.3.5-.3v-.5a.4.4 0 0 1 .4 0h.2c0-.1 0-.2-.2-.3a2 2 0 0 0 -.3 0h-.4l-.9.3v-.1l-.1-.2-.1.2-.2.2-.2-.3-.3.2c.1.2.2 0 .3.1.1 0 0 .2 0 .2h-.4l-.2.2-.2-.4h.2l-.2-.1c-.4 0-.4 0-.5.5l-.6-.1.2-.2h.3l.2-.3h-.3v-.2c.2 0 .5-.1.6-.3l-.2-.2h-.4v.2h-.5l-.2.2-.2.1c0-.2.2-.3.4-.4h-.8c-.1 0-.2 0-.3.2l.2.3h.5l-.4.2-.5-.2h-.5c.2-.2.5-.1.6-.4a.6.6 0 0 0 -.3-.2h-.3l-.2-.2-.2.6h.2v.1h-.2l-.4-.1-.1-.1-.1-.2s.1.1.2 0h.2c-.2 0-.3-.4-.5-.3a.1.1 0 0 1 -.1 0h-.3l-.4-.2c-.1 0-.4-.2-.4 0-.3-.2-.5-.3-.8-.2-.1-.1-.3 0-.4 0a1 1 0 0 0 -.6-.3 1 1 0 0 1 -.7-.3l-.6-.1-.6-.2-.7-.2c-.3 0-.4 0-.4-.3l-.3.1a.3.3 0 0 1 -.3 0h-.3l-.9-.2c0 .2-.2.2-.4.2h-.4c0-.3.1 0 .1-.2s-.2-.2-.3-.4a1 1 0 0 0 -.5.3h-.1l-.7.2h-.4v-.3h.3v-.2c0-.2-.2-.2-.3 0h-.5l-.2.1-.2-.1a.3.3 0 0 0 -.2 0c0 .3-.2.4-.3.5v.2h-.4l-.3.3c-.2.3-.3.3-.6.2l.4-.1c0-.2 0-.4.2-.4l.2-.1v-.3c-.1-.2-.2.1-.4 0h-.1l-.3.1s.1.3-.1.3v-.3c-.2 0-.2 0-.2.4h-.4v-.2h-.5l.2.5-.4.4-.2-.1.2-.2c-.3-.1-.5-.2-.8 0l-.2.1v.5l-.2-.2-.2.4c0 .2-.1.2-.2.1v-.2l-.2-.3v-.3l-.3.1h-.2v.4l-.2.2-.4.4-.3.2c-.2.2-.2.2-.4 0l-.1.2c-.2 0-.3 0-.3.2h-.5l-.5.3-.4.2h-.3l-.2-.2c-.2-.2-.4-.1-.6 0h-.3l.3-.3h-.3l.5-.4h-.5l-.3.1v.2h-.2a1.6 1.6 0 0 0 -.7 0v.2s-.1.2-.2 0a.6.6 0 0 0 -.4 0c-.2 0-.5-.1-.6-.3h-.3a.8.8 0 0 1 -.4-.3 1 1 0 0 0 -.4-.3h-.2c0-.1-.2-.3-.4-.2a.8.8 0 0 0 -.7-.3l-.3-.1-.2-.1h-.1c-.1 0-.2 0-.3-.2 0-.1 0-.2-.3-.2-.4-.2-.8-.2-1.2-.5l-.4-.2-.4-.3-.5-.2-.2-.2-.7-.2h-.1c-.2-.2-.4 0-.5-.2h-.2a1 1 0 0 1 -.7-.1.6.6 0 0 0 -.3-.2c-.2 0-.3 0-.4.2l-.2-.3-.3.1-.2.1h-.6c-.1-.1 0 0-.1 0l-.6-.4h-.1v.3a.4.4 0 0 1 -.4 0h-.6v-.2c-.2 0-.3.3-.5.4-.2.2-.5.1-.7.2v-.2h-.3l-.1.2h-.2c-.1.2-.1.2 0 .4l-.3.1.1-.1c-.3-.2-.4-.2-.6 0 0 0-.2 0-.2.2v.1l-.3-.1h-.2v.3c-.2 0-.4 0-.5.2-.2-.1-.3.2-.4.3-.2 0-.3 0-.2-.3l-.4.2v.1h-.2c0 .1 0 .3-.2.4v-.4c.1 0 .2-.1 0-.2h-.1c-.2 0-.3.1-.4.3h-.1c-.3 0-.4.3-.5.3-.2.1-.2.2 0 .4l-.3-.1h-.2l-.7.4c0-.1 0-.2-.2-.2l-.6.9h-.2l.4-.3.1-.2h-.3c0 .2-.2.2-.2.2l-.4.2-.4.4-.1-.3h-.4v.5l-.2.1-.2.3-.4.2h-.3l.2-.2.3-.1c.2 0 .2-.3.3-.5a2 2 0 0 0 -.9.6v-.3c-.3.1-.3.2-.2.4a1 1 0 0 0 -.4.7l-.2-.2-.1.1h-.6zm116.7.8v-.3h-.2v.2h.2c0 .2.1 0 .2 0 0-.2-.1 0-.2 0zm-13-3.7c-.2.2-.2.2 0 .3v.2l.2-.1v-.2c0-.2-.2-.2-.3-.2l.1-.1-.2-.2v.3h.1zm-9-.2v-.1l-.3.1s-.3.1-.4 0h-.2c.1.2.2.2.3.2.3.1.4.1.5-.2zm6.2.7c0 .2 0 .2.2.1h-.2l-.8-.2h-.2v.2h.2l.5.2h.3v-.4zm-35.6-4.3.6.2h.2l.2-.2v-.1l-.2-.1h-.2v.1h-.5l-.4-.1c-.1-.2-.2-.1-.3 0 0 0-.3.2-.5.1l-.1.4h.2l.2-.1.1-.1h.2l.2.2.4-.2v-.1zm16.6 1.7-.4.1.1-.3-.1-.1h-.2c.2.2 0 .3 0 .3l.1.2.3.2.9-.1v-.2h.8s.2 0 .2-.2c-.2 0-.4-.2-.7 0h-.2a1 1 0 0 1 -.6 0 2 2 0 0 0 -.3-.2c0 .2 0 .2.2.3zm-52 2.5h-.6v.2h-.4l-.1.2h-.2v.3l-.3.3a.2.2 0 0 0 0 .2h.2c.4 0 .5 0 .6-.4v-.1l.2-.1c.2-.1.3-.2.3-.4h.2l.3-.3c.1 0 0 0 0-.1v-.1h-.2zm77 1.1h.6a.2.2 0 0 0 .1 0 .4.4 0 0 1 .5 0c.2.3.3.2.6 0-.1-.4-.5-.5-.8-.6l-.1.2a.9.9 0 0 0 -.6 0l-.4-.1v.1l.3.2-.3.2zm.7-1.4a.7.7 0 0 1 .7 0 .3.3 0 0 0 .4 0l.6-.2h.4l-.2-.1-.9-.2h-.1c-.1.2-.2.1-.2 0h-.6l-.2-.1-.2-.1-.3.2a.2.2 0 0 0 0 .2h.1a.3.3 0 0 1 .3 0 .4.4 0 0 1 .2.3zm-10.6 2.4a.5.5 0 0 1 .4 0l.6.1.1-.3.1.2h.5l-.4-.3c-.1-.1-.1-.1-.2 0l-.7-.2h-.6v.2c0 .1 0 .2.2.3zm20.3.5.2-.1c.3 0 .7 0 1 .2h.1l.2-.1h.1v.2h.1a.2.2 0 0 0 .2 0v-.1a.2.2 0 0 0 0-.2v-.1c-.1-.3-.3-.3-.5-.2l-.3.2-.3-.1-.5-.1c-.1 0-.3.1-.3.4zm-.2-.5h-.6a.6.6 0 0 0 -.6 0l-.1.2v.3h.4v-.1h.5c.3 0 .4 0 .4-.4zm-40.2-1.1h-1a2 2 0 0 0 -.6 0l-.2.1c-.1 0-.1-.2-.3 0l.3.2h1.4l.4.1-.3-.2.2-.1v-.1zm14.1 1.7.3.2.1.3h1s.1-.1 0-.2v-.1l.6-.2c-.3 0-.5-.2-.7 0h-.2l-.6-.1h-.5zm28.4 1c.1.2.4.2.6.2.2.1.3 0 .4 0l-.1-.4-.3-.2c-.2 0-.5-.2-.7.1v.3zm-28.7-4.7c0 .1.1.3.3.3l.6-.1s0 .2.2.2h.2l-.1-.4-.1-.3-.6.1h-.4zm21.7 1c-.2-.1-.2 0-.3.1 0 .1 0 .3.2.4h.2l.1.2.2-.2c0 .3.2 0 .4.2v.2l.4-.1v-.2l-.2-.3s-.2-.2-.3 0h-.2c0-.1 0-.1-.1 0l-.5-.1zm-28.4-.5h.8c.2 0 .5.2.8 0v-.1l.2-.1h-.1l-.8-.1h-.2s-.1.1-.2 0h-.3zm15-.6h.2a5.3 5.3 0 0 0 1 .1l.3-.1c0-.2-.2-.3-.3-.4h-.5a.6.6 0 0 1 -.7 0c0 .2-.2.2-.1.3zm5.9.6h.6v-.1l-.7-.3v.2c-.5-.3-.5-.3-.8.1l.4.3zm7.6 2.2a3.6 3.6 0 0 1 .6.7c.1-.3.4-.2.7-.3l-.1-.2a.8.8 0 0 0 -.4-.2h-.9zm-27.6 0c-.3 0-.3.2-.3.3l-.1.2c-.2 0-.3.3-.6.2v.1c-.1 0 0 .1 0 .1h.6c0-.1 0-.2.2-.2h.1l.1-.2-.1-.2.2-.2-.1-.2zm-9.5.3-.3-.1-.4-.2h-.2l-.1.1c0-.2 0-.2-.2-.2v.5h.4c.2-.2.3 0 .4 0h.4zm-3.2-4.7c0-.2 0-.3.2-.4h.3l.1-.1h.1c.2.1.2 0 .3-.1-.3-.2-.6 0-1-.3zm38.7 3.4c0 .2.2.3.2.1l.2-.2h.3l-.1-.2-.2-.1h-.5c-.1 0-.2 0-.2.4zm-30.6.9-.1-.3a3.5 3.5 0 0 0 -.6-.2c-.2.2-.2.5-.1.7h.1c.1.1.1 0 .1 0l-.1-.2v-.1h.7zm36.7 0c.1.3.1.3.3.3h.5v-.2l.3-.1a1 1 0 0 0 -.6-.2c-.2 0-.3 0-.5.2zm-39.5-3.2c-.2 0-.2-.2-.4-.1l.1.2h1.2a2 2 0 0 0 -.2-.2l-.2-.1c-.3 0-.5 0-.6.2zm20 4.2c.3.3.6.1.8.3l.3-.2c0-.2-.2-.3-.3-.2l-.5-.1zm-23-5-.4.5a.2.2 0 0 0 0 .2c0 .1.4.1.4 0v-.1h.2l.2-.2c-.3-.1-.5-.1-.6-.4h.1zm47.5 4.6.2-.3c-.3 0-.4-.2-.6-.1l-.5.1v.2h.8zm-27.7-1.9c.1 0 .3 0 .4-.2v-.1l-.1-.1h-.5l-.2.1c0 .1 0 .3.3.3zm-10.2 1.4c.4.2.5.1.5-.3a1 1 0 0 0 -.5 0l-.3.3c0 .2.1 0 .2 0zm26.2-1.4c0-.1 0-.2.2-.3l.1-.2v-.1h-.3v.1l-.3-.2v.4l.1.2.1.2zm-25 1.5c.2.2.3.3.5 0h.2l.2-.1-.6-.3-.1.4zm28.7.1.3.3.1-.1a1.1 1.1 0 0 0 1 0h-.6l-.2-.1c-.2-.1-.4-.4-.6-.1zm-37.7-2.8v-.2l-.1-.2a1 1 0 0 0 -.4.1l-.2.2.3.2zm39.9 2.3h-.5c0 .1 0 .2-.2.2-.1 0 0 .1 0 .2h-.3c.2.3.2.3.4.2l.2-.1v-.2l.1-.2.2-.1zm-37-4.2h-.1.7v-.2h-.5c-.3-.1-.3-.1-.2.1zm-13-.6.2.1h.2a.4.4 0 0 1 .3 0h.2l.2-.1-.3-.2h-.7l-.2.2zm38.3 4.3h.4l.2-.3c-.2-.1-.2.1-.4.1v-.2h-.1c-.2 0-.2 0 0 0 0 .1 0 .1 0 0l-.3.4zm-19.2 1.5.3.3h.4v-.4h-.7zm16.9-3.2.3.2.2-.1v-.3l-.3-.2h-.3v.3zm-25.4-1.9c0-.4 0-.4-.3-.4s-.3.2-.5.3c.1 0 .2.1.2 0h.5v.1zm-2.2-.4h-.8v.2s0 .1.1 0h.1c.3.1.3.1.6-.2zm42.6 4.1c0 .2.1.1.3.1h.5l-.1-.2-.3-.1h-.2l-.3.2zm-2.1 2.8c.3 0 .3.1.4.3v.3l.3-.4-.2-.1v-.3c-.2.2-.4 0-.5.2zm-9.8-3.8c-.1-.4-.2-.5-.5-.3v.5l.2-.1zm-3.5-.7v-.5h-.4v.2l.2.2.1.2zm-15.9-1.7h.8l.2-.1-.5-.1h-.3c-.2 0-.2.1-.2.3zm26 6.2v.2h.3a.4.4 0 0 0 .4 0l-.2-.1-.2-.2zm-25.2-.6h.8a.2.2 0 0 0 0-.2h-.5c-.2 0-.3 0-.3.2zm28.7-2.1.1-.3v-.3h-.2v.1a.2.2 0 0 0 -.1.2v.1zm-4.2.2h-.5l.2.4c.2 0 .3-.2.3-.4zm-10-2.5-.2-.1v-.1h-.2v.4c.2.2.3.2.4-.2zm2 5.2h.3l-.2-.2.2-.1-.1-.2-.3.1a.6.6 0 0 0 0 .5zm-9.6-.7.1.1c.2 0 .3 0 .3-.2v-.2c-.2 0-.3 0-.3.2l-.1.2zm18.9-.4c-.1-.3-.3-.3-.5-.2.2.4.2.4.5.2zm-22.4-3.3.3.2.5-.2a.8.8 0 0 0 -.8 0zm18.3 4.5.4.4c.2-.1.2-.1.2-.4zm-13-4.6c0 .2 0 .2.2.2l.2.1c.1 0 0-.1 0-.2v-.1zm-24.4-3.5-.8-.1.2.2.2.1.5-.3zm40.4 4c0 .2.3.2.4.4-.2-.3.1-.2.2-.4zm-51.5-3.5.3.2c.2.1.3 0 .4 0-.2-.2-.4-.5-.7-.3zm28.5 1.3-.4-.4-.2.4zm-26.4-.2c.1-.3 0-.4-.2-.4v.4h.3zm50.4 3.5.5.2v-.3a.3.3 0 0 0 -.4 0zm-50.2-5.2h-.5c0 .2.2 0 .2.1l.2.3c.2-.2.2-.2.2-.5zm55.7 7h-.3v.1l.4.1c.1-.2 0-.2 0-.2v-.1h-.1zm-117.8-1v-.1c0-.2-.2-.1-.3 0-.2 0 0 .1 0 .2h.3zm96.7.8h-.3l-.1.1.1.1s.3 0 .4-.3zm17-.3-.6-.1.2.3h.2l.2-.3zm-27.4.9-.2-.5a.2.2 0 0 0 -.2.2.2.2 0 0 0 0 .1c.2.2.4 0 .5.1zm1.3-5.1c.2.1.3 0 .6-.1-.2-.2-.3 0-.5-.1v.1h-.1zm40.7 4.2a.6.6 0 0 0 -.8 0l.9-.1zm-43.9-4.2c0 .3-.3 0-.4.3a.6.6 0 0 0 .6 0zm30.4 3.2c-.2 0-.3-.3-.5-.2 0 .3.3.3.4.3zm1 2c-.2-.3-.2-.3-.4-.1h.5zm-1.3.6h-.2v-.1l-.2.1a.2.2 0 0 0 0 .2c.2 0 .3 0 .4-.2zm11-1.9h-.4l.2.3c.3 0 .3 0 .3-.3zm-50.2-.2c0 .3.2.3.3.3s.2 0 .2-.2h-.5zm-5.8-5.1a.4.4 0 0 0 .5 0v-.3c0 .2-.3 0-.4.2zm-70.9 5.2h-.3s0 .2.2.2c0 0 .2-.1.2-.3v.1zm21.7-7.6.1-.3v-.1h-.2v.3h.2v.1zm69.8 3.9c-.1-.3-.2-.3-.4-.1h.5zm-18.2 3.5h.5c0-.3 0-.3-.4-.1h-.1zm-15.3-5.8c-.4 0-.4.1-.3.3.2 0 .1-.2.3-.3zm31 1.8.1-.2h-.3l.3.2zm26 2.7.1.3h.2v-.2l-.2-.2zm-55.6.4.3.1v-.3l-.3.1zm51.4 3-.1-.4-.2.3h.3zm-2.1-3.9c-.1-.1-.2 0-.4 0 0 .1.1.2.4 0zm-36.8 1.2c-.2-.2-.2-.2-.3 0zm-12.4.4.1.2c.2.1.2 0 .2 0zm18.7-4.4c.3 0 .3 0 .3-.3-.2 0-.2.2-.3.3zm30.5 6.1v.2c.1 0 .2.2.3 0zm11.5-1.6c0 .3 0 .3.4.2zm-55.2-5.9-.1-.2a.1.1 0 0 0 -.1 0l-.1.1zm27.9 2.2c.2 0 .2 0 .2-.2v-.1h-.1zm5.6 2c.2.2.2.2.4 0-.2-.2-.3 0-.4 0zm-2 2.5v-.1l-.3-.2-.1.2h.4zm-95.8-.3h-.2l-.2.2zm80-4.1c.1.2.2 0 .4-.1h-.5zm35.6 3.7-.4-.1c0 .3 0 .3.4 0zm-41.6 0c.1 0 .2.3.3 0zm4.7-4.8c.1 0 .2-.1.1-.2 0-.2-.1-.1-.1-.1zm20 1.7v-.3c-.1 0-.2 0-.2.2l.1.1zm-93 1h-.2l.1.1.2-.1zm121.5 2.5h-.2v.2l-.1.1c.1 0 0-.2.2-.3zm-12.3-1.1c.1 0 .2 0 .3-.2l-.4.1zm-51.5-5.3c.1.1.2.2.3 0zm21.7 1.2s-.1-.2-.3-.1c.1.2.1.2.2.1zm3.5 5.3-.1.3c.2 0 .2 0 0-.2h.1zm23.3 1.5.2.1v-.2l-.3.1zm7.6-.5.1.2s.2 0 .1-.1zm-58.2-7 .2.1.1-.2h-.3zm45 6.7v-.3c-.1 0-.2.3 0 .3zm-106.5-1.2c-.2.1-.2.2 0 .2zm-1 .1.2.2c0-.2 0-.2-.2-.1zm49-6.4h.4c-.2-.2-.2-.2-.4 0zm38 6.2c0-.1 0-.3-.1-.2v.2zm-5-4.5v.3h.2l-.2-.2zm-16.1-1.2-.1-.3zm17.5 6.2-.3.1h.3zm-29.5-1.5c0 .2 0 .2.3 0zm42.8-1.5v.3a.2.2 0 0 0 0-.3zm23.4 4.2c0-.2 0-.2-.3 0zm-6.7-.5v-.1s0-.1 0 0h-.2v.1zm-44-1h.2v-.1h-.2zm8.2-2.1h.3zm27.2-.7c-.2.2-.2.2 0 .3v-.4zm19 4v.2h.3l-.3-.1zm-41.5-6v.2h.1v-.3zm42 6c0-.1 0-.2-.2-.1l.2.2zm-4.2.7-.1-.2v.2zm-57.4-7.8c.1-.2 0-.2-.1-.2zm29 2.2-.2-.2c0 .2 0 .2.2.2zm20.2 3.9v.1h.1v-.1zm5.7-1.2h.2c0-.1-.1-.2-.1 0zm-32.6-3.2v.1zm-97.3-5.7v.1l.1-.1zm128.2 9.2c0 .2 0 .2.2 0zm-.2 2.8h.2l-.1-.1h-.1zm-11.1-5.3.2.2zm19.4 5c0-.2 0-.2-.2-.1h.2zm-26.7-1.4h-.1c0 .2.1.2.1 0zm-73.9-8.1v.1zm63.5 6.7v.2zm-6 .4h-.2.1c0 .1 0 0 .1 0zm-15.4-5h-.3zm48 4.2v-.1zm-113.2 1.8h-.1zm101.4-2.6v.3-.2zm-2 .3s0-.1 0 0zm-79.5-7h-.1zm49.3 3.6h-.1zm-11.8 5h.1zm31.8 1.2v-.1zm6-3.6v.1h.1v-.1zm20.7 3.8h.1v-.1h-.1zm-113.2-2.5h-.3.2zm121.6 2.7v-.2.1zm-125.9-.7v.1z" fill="#dcdffb"/></svg>