<svg fill="none" height="19" width="181" xmlns="http://www.w3.org/2000/svg"><path d="m84.7 3.4h-2.2l-.1.2h-.1l-.2-.1h-1.4l-.2.1v.2c.1-.1.2-.2.4-.1v.1c.2 0 .4 0 .6-.2h.2l-.2.2h.5v-.1c0-.2.2 0 .3 0h.3-.2a.2.2 0 0 0 .2 0h.3l.3-.1h.3l-.1-.1h.4c.1-.1 0 0 .1 0h-.2.4v.2h-.5a.2.2 0 0 1 -.2 0l-.7.1h-.2l-.5.2v.2h.5a.5.5 0 0 0 .4 0v.2h-1.1s.2 0 .1-.2a.3.3 0 0 0 -.3 0h-.2l.1.1h.2a.3.3 0 0 1 -.3 0h-.4v.1c-.3 0-.5 0-.8.2l.1-.4h.3l-.1.2h.5v-.4h-.4l-.2-.1a3 3 0 0 1 -.6-.1h-.5v-.1h.5c.2 0 .2 0 .2-.2h-.2.3l-.9-.2s-.1.1-.2 0l-.2.2v-.2h-.4l-.3.1h-.4a.6.6 0 0 0 -.5 0 .4.4 0 0 1 -.3 0h-.1l-1.5.2h.5a.5.5 0 0 1 .4 0l-.2.4h-.6l.3.1-.4.1-.2-.1h-.5a2 2 0 0 0 -.3.1l-.1-.1h-.3s.1-.1.2 0a.2.2 0 0 0 .2-.1.2.2 0 0 1 .2 0c0-.2.2-.2.3-.3h-1l.2.1h.2-.2l-.2.1-.1.1h.1l-.4.2h.1-.2l-.2.1h.2v.1h.2l-.4.1v.1h-1.2.1-.4l.4-.2-.2-.1h-1.8v.1-.1h-1.6a.2.2 0 0 1 .2 0v-.3a.1.1 0 0 1 .1-.1h.3a.4.4 0 0 0 .4 0h.2l-.2.2h1.2l-.2-.2h.5l.4.1h.6l-.2-.1.2-.1c.1 0 .1.1.2 0h.2a2 2 0 0 0 -.6 0h-.3.3l-.1.1h-.6.3v-.1h-.4v-.1h-.4l-.9.1h-.9l-1.1.2h-1.9l-1.2.1c.1.1.3 0 .3.2h-.2l.1.1h.2l.5-.1.2-.1h.8-.3 1-.1v-.1h.2c0 .1 0 .1 0 0h.5-.2v.1h.5l-.2.1h-.2c0 .1 0 .1-.1 0h-.1l-.3.1c0 .1 0 0-.1 0h-.9s-.1.1-.2 0l-.1.1-.4.2h.3a.2.2 0 0 1 .1 0h.5l-.3.3h-.1c-.2-.1-.2 0-.2 0h-.3a.7.7 0 0 1 -.6 0h.1l-.5.2v-.2h.3a.3.3 0 0 1 .2 0h.2l.1-.1h.2v-.1l-.1-.1h-.4l-.3.1h-.6l-.2.1h.2l.1.2h-.6c0-.1.2 0 .2-.2h-.2v-.1h-.5l-.3.1.6.2c-.3.1-.5.2-.8.1v-.2l-.2.1-.5.1.2-.2h-.5l.1.2a.3.3 0 0 1 -.3 0 .5.5 0 0 0 -.4 0h-.4a.2.2 0 0 1 -.3 0 .3.3 0 0 1 .3-.1h.8v-.1h-.4v-.1l-.2.1h-.4.1-.2a.1.1 0 0 1 -.1 0h-.2l-.3.1h-1l-.2.1h-.2c0-.1-.1-.1-.2 0l-.5.1h-.3v.2h-.5.2a.2.2 0 0 1 -.3.2h-1.1a3 3 0 0 1 -.3.1l-.1.1h-.1c0 .2-.1.2-.2.2h1.2a.3.3 0 0 1 .2 0l-.4.1.4.1h-.9.3a.3.3 0 0 0 -.3-.1h-.5c.1 0 .2.1.1.2h-.5v.2h-.3c.1 0 .2 0 .3-.2a6 6 0 0 0 -.4-.1v.1h-.3.2l-.1-.2h.5c.1 0 .2 0 .2-.2h.5l-.1-.2h-.4l-.4.1s.2 0 .3.2h-.3v-.4l1.2-.1h-.3l.4-.1h-.5a1 1 0 0 1 -.3 0l-.8.1h-.2l-.4.1h-1.7a.2.2 0 0 1 -.2.1h-.3.1-.5.2-.2l-.2.1v-.1l-.2.2h.2c0 .2-.1.2-.3.3h-1.4.3v-.3h-.2a.5.5 0 0 1 -.5 0h-.2a.3.3 0 0 1 -.2 0h-.1l-.2.1.1-.1h-.1.1v-.2a.1.1 0 0 1 0-.1h.5l.7-.1h.5l.2-.2-1 .1-1 .1h-.2a.2.2 0 0 0 -.1 0h-.6l-.1.1h-.2v-.1h-.3l-.2.1-.3.1c-.1 0-.2.2-.4.1l-.2-.1-.4.1h-.6c-.2.2-.4.1-.5 0a.6.6 0 0 0 -.4 0h-.8l-.2.1c0 .1-.3.1-.4 0h-.4l.3-.1h-.6.2l-.3.2h-.3v.1l-.3.2a.4.4 0 0 1 -.4 0 .3.3 0 0 0 -.2 0h-.5v-.2h.2-.8l-.1.2-.3.1h-.5l.2-.1h-.5v.1l-.2.2-.3.1h.1c0-.1-.1 0-.2 0l.1-.2a.7.7 0 0 1 -.5-.1l.3-.1h-1.2l-.5.2h-.7c-.1.1-.3 0-.4 0l-.2.1h-.2l-.3.1h.2l.6-.2h.1-.5a.1.1 0 0 1 -.2 0h.2l.2-.1h-1v.2l-.6.2v-.2a3 3 0 0 0 -.4 0h-.5s-.1.1-.2 0h-.1a1 1 0 0 1 -.5.2h-.2v.2a.4.4 0 0 0 -.4 0h-.6c0 .1-.2 0-.4 0-.1.1-.3 0-.4.2-.2-.1-.3 0-.4 0h-.1l-.1.1h-.6.2l-.1-.1a1.8 1.8 0 0 0 -.6 0h-.1l.4-.1v-.1h.2v-.1h-.3a.2.2 0 0 0 -.2 0l-.4.1h-.2v.1h.2l-.3.3a.2.2 0 0 1 -.2 0l-.2.1h.6-.2l-.4.2c0 .2-.1 0-.2.1a.3.3 0 0 1 -.2.1h-.3c.1 0 .3 0 .5-.2a.8.8 0 0 1 -.7 0h.1l.2-.1h-.2l.3-.2-.8.1h.4a.3.3 0 0 0 .2-.2c-.5 0-1 0-1.4.2l.3-.1h-.2l.1-.2h.5l.4-.2h.3v-.1h-.3c-.1 0-.2.2-.4.1h.1l-.1-.1c-.2-.1-.3 0-.4 0h-.4c0 .2 0 0 .1.1l-.4.2v-.1h-.2v-.2a.2.2 0 0 0 .3 0h-.5l.1-.1c-.2 0-.4 0-.6.2h.2-.2l-.2.1h-.1l-.4.1h-.6a.1.1 0 0 1 -.1.1l-.4.1v-.1l-.7.1h-.2c0-.1.2 0 .2 0a.3.3 0 0 1 .2-.1h-.7l-.2.1h-.4.2l.2-.2h.7l-.1-.1.5-.2-1.8.3v-.1h-.8l-.5.1-.2.1h-.3a1.5 1.5 0 0 1 -.7.2l.5-.2h.2a18.2 18.2 0 0 0 1.1-.3h-.9l-.5.2h-.1c-.3 0-.5 0-.7.2h-1l-.2.2h-.5.3l.4-.1.2-.1h-.5l-1 .2-.4.1-1 .2-1.2.3a1 1 0 0 1 -.5 0v.1h-.6l-.2.1-1.1.3-.5.2h-.3l-.5.1-.1.1-1 .3-.9.2-.7.2-.8.2-1 .3h-.2.5.3l-.7.4-.5.1h-.3l-.1.2h.3s.1-.1.2 0l-.3.1c0 .2-.1.3-.3.4h-.1l.8-.1-.2.2-.6.3h-.1l-.1.3h.9-.1l-.1.1-.1.1-.3.1h.3v.2h.2a.3.3 0 0 1 .4 0l-.2.2-.3.1-.6.3h.1v.2h.3l-.3.1h.1v.1h.4l.1.1c-.1.1-.1.1-.2 0h-.1l-.1.1a.3.3 0 0 0 -.3.2h.4l-.4.2v.1h.3v.4h.1c0 .1 0 .1.2 0a.2.2 0 0 1 -.1.2h-.2l-.1.1s0 .1.2 0a.5.5 0 0 0 .5.1h.1l-.2.2-.1.1h-.2a.2.2 0 0 0 .2 0 .3.3 0 0 1 .3 0c0 .2-.3.2-.2.4h.3-.2.4c-.1.2-.3.1-.3.3.2 0 .3-.2.6 0h-.2v.1h-.5v.3h.8l-.3.2h-.2c0 .2 0 .2.3.2h-.2c0 .2.1.2.2.2h.1s-.2 0-.2.2c.1 0 .2-.1.2 0h-.2l.1.2h.6l-.2.3-.1.3.4-.2v.2a.3.3 0 0 0 .2.2h.1l.7-.1-.3.2c.2 0 .4 0 .6-.2l.9-.2a12.6 12.6 0 0 1 1.3-.4v.2l.5-.1h-.1v-.2l.5-.2a.4.4 0 0 0 .3-.1.3.3 0 0 1 .3-.1h.5v-.3c.1-.1.1-.1.2 0l.3-.2h.3l1-.2v.1h.2l.2-.1.6-.2h.2l.3-.1h.2l.4-.1.3-.1h.1c.1-.2.3-.1.4-.1h1a.3.3 0 0 1 .3-.1l.1-.1.5-.2c.1 0 .2-.1.1-.2l-.6.1h-.4v.1h-.2.2l.5-.2h.5l.3-.2h.5l.3-.1-.3.2a.1.1 0 0 0 .2 0 .3.3 0 0 1 .3 0h.8v.1l.6-.1h-.5l.1-.1.2-.1.2-.2h.8s.1-.1.2 0v-.2h.8a.4.4 0 0 0 .3 0 2.2 2.2 0 0 1 .8-.1c0-.2.2-.2.3-.2a.6.6 0 0 0 .5 0h.3l.2-.2h-.3v-.1h.3a.4.4 0 0 0 .3 0h.8l.4-.1c.3 0 .5-.2.8-.1l.4-.1.4-.1h.2l.4-.1h.3l.2-.1.3-.1h.6l.6-.1h.5-.2c0 .1-.2.1-.2 0h-.2l-.3.1-.5.1-.8.2h-.2v.1h.5l.5-.1.6-.1.6-.1.6-.1h.4l.3-.1a.3.3 0 0 1 .2 0l.3-.1h.4l.8-.1h.3l.8-.2c.3 0 .6 0 1-.2h.2c.1 0 .2-.1.2 0h.4l1.4-.2 1.2-.3h.2l.6-.1s.1.1.2 0h.7l.7-.1h.1l.3-.1h.3c0-.1 0-.1.2 0l1-.2h.1a.3.3 0 0 1 .2.1l.3-.1h-.2.3l.7-.2h.5l.2.1s0-.1 0 0h.1l.5-.2h1l.2-.1v-.1h1.1l.1-.1s0 .1 0 0l-.1.2h.4l.2-.1h.5c.1-.1 0-.2 0-.2h.2v.1h.8v-.1h.1c0-.2 0-.2.2-.2a.3.3 0 0 0 .3.2h.1l.1-.1v.1h.7v0a.2.2 0 0 1 -.2 0c.1 0 .2-.1.2 0l.1-.2h.2-.1l.2.1h.2l.1-.1h.2a.4.4 0 0 1 .2-.2l-.1.2s.1-.1.1 0h.1c0-.1.1-.1.1 0h.2l-.2-.2h.2v.1h.3a.2.2 0 0 1 .2 0h.6a.1.1 0 0 0 .1-.1h1.6l.4-.2v.1h1.2a.4.4 0 0 0 .3-.2h.2c.3-.1.6 0 .8 0h.3-.2c0-.2 0-.2.3-.1h.3l.1-.1h1.1-.1 1.7l.3-.1.3-.1h1.1v-.1h.3v-.1h2.3a.1.1 0 0 1 .1 0h.6l.1-.1h1.4c0-.1.1-.1.2 0v-.1h1l.4-.1.1-.1c.1 0 .3.1.4 0h1.3l.8-.1a.6.6 0 0 0 .5 0h1a.3.3 0 0 0 .3-.2.3.3 0 0 0 .3 0h3.1l.7-.1h2.4c.1-.1.3-.1.4 0h1l.5-.1h.8l1-.1h1.1a.4.4 0 0 1 .4-.1h-.1.2a.2.2 0 0 1 .3 0l.5-.1a.2.2 0 0 0 .3 0 .4.4 0 0 1 .3 0h.1c.3 0 .5.1.8 0h5.9a.3.3 0 0 1 .3 0h.4s.2-.2.3 0c.1-.2.2-.2.3 0h1l.1-.1h1.2a5 5 0 0 1 .7 0h3.8a.3.3 0 0 0 .2 0 .2.2 0 0 1 .1 0h1.3a.3.3 0 0 0 .3 0h1.4a.3.3 0 0 0 .2 0h.7a.5.5 0 0 1 .5 0h5.9c.1.2.2.1.4.1h2.9l.4.1h1.2-.2.4-.1 2.7-.3l.1.1h.3a.3.3 0 0 0 .2 0h1.2-.2 1.9-.2l1.5.1h-1 2-.5 1.7l.1.1h-.1.1a.1.1 0 0 0 .2 0h.7a.5.5 0 0 1 .4 0 .3.3 0 0 1 .3 0h.7s.1.2.2.1h.2a.2.2 0 0 0 .2 0 .3.3 0 0 1 .3 0h2.6v.2l.2-.1h.4a.4.4 0 0 1 .3 0 1.5 1.5 0 0 1 .6 0h1.1l.5.1h.3l.6.1h1.5l1.3.1h1l1 .1h1.2l.8.1h.8l.9.1h.4l1 .1h1.2l1 .1 1.7.1-1-.1.2-.1h1.9l1.4.2h4.7l-.1.1h.1a.4.4 0 0 1 .4 0h3l1 .1h.1-.1c.2 0 .3-.2.4 0v-.1h.3-.1.5-.3.9-.2 2.4a.1.1 0 0 0 .1.2.1.1 0 0 0 .1 0 .7.7 0 0 1 .6-.2h.8l.2.1h.6v-.2h-1.8a5 5 0 0 0 -.7 0h-.8l-.5-.1h-2l-.4-.2 10.3.3h-1v-.2h2c.4.2.7.2 1 .2h.5-.2a.3.3 0 0 1 .4-.2h.3c.1-.1.2 0 .4 0l.6.2-.2-.1h.3l.3.2v.1c0 .1 0 .2.2.3l.3.1.3.1v.1l.1.1.2.2c.1.1.2.2.3 0v.2h.4v.3h.3v-.1h.4l.2-.2s0-.2-.2-.3a.2.2 0 0 0 .2 0 .2.2 0 0 0 .1-.2v-.2l.3-.5v-.1a.2.2 0 0 1 -.1-.2c0-.2 0 0 .1-.1l-.1-.1v-.2l.1-.1-.1-.1.3-.1-.1-.2-.1-.2v-.1h.4l-.1-.2c-.1 0-.1-.1 0-.2h.2l-.1-.2a.5.5 0 0 1 .1-.4l.1-.3h.1v-.6a.2.2 0 0 0 .2-.3c.1 0 .1 0 0-.2l.2-.3c.1 0 0-.1 0-.2l.1-.2v-.2a.4.4 0 0 1 .2-.4c.2-.2.2-.4.2-.6a.4.4 0 0 1 .1-.3h-.1v-.4c0-.2-.2-.2-.3-.2a1 1 0 0 1 -.3-.2l-.3-.1-1.2-.2h-1.2l-.7-.2h-.8l-1.2-.2a9.2 9.2 0 0 0 -1.5 0l-.3-.1h-.4a3 3 0 0 1 -.9 0h-.7l-.9-.1h-2.7a7.6 7.6 0 0 0 -1.3 0h-.6l-.7-.1h-1l-.8-.1h-1.5l-1-.1h-1.3l-1.3 0h-1.3l-.3-.1h-.5a1 1 0 0 0 -.6 0l-.4-.1h-1.2c0-.2-.2-.1-.3-.1h-1.6a3 3 0 0 1 -.6-.1h-.6l-.4-.1h-1.1l-.2-.1h-.9c-.2 0-.5-.1-.8 0l-.4-.1a1 1 0 0 0 -.5 0h-.4l-.4-.1h-.3a.5.5 0 0 0 -.6 0h-.5c0-.1-.1-.1-.2 0h-.2l-.4-.1a.6.6 0 0 0 -.5 0h-.4a.5.5 0 0 1 -.4 0h-1v-.1h-.5c-.2-.2-.3 0-.4 0h-.3l.1-.1h-.2c-.1 0-.3.1-.4 0h-1.3l.8.2h-1.1l-.3-.1h-.8l.1-.1h.9a.3.3 0 0 0 -.3-.1h-.6v-.2h-.5c-.2.2-.3 0-.5.1h.1c0-.1 0-.1-.1 0h-.4v.1h-.3a.3.3 0 0 1 -.2 0 .3.3 0 0 1 -.2 0l.2-.2c-.2 0-.3-.1-.4 0h-.3.1l-.5.1.2-.2h-.9l.3.1-.1.1h-1a9.9 9.9 0 0 1 -1.5 0h-.3a.3.3 0 0 1 -.3-.1h-.1c0 .2-.1.1-.2.1h-.2a.4.4 0 0 0 -.3 0 .4.4 0 0 0 -.4 0h.3l.3.1-.3.1-.2.1h.6l.2.1h-3.7.2a.5.5 0 0 1 -.3.1h-.9a.3.3 0 0 0 .4.2s.1-.1.2 0v.1h-1.1v.1h.6l.7.2h-1.1l-.4.1h-.4c0-.1.3 0 .4 0l-.4-.2h-.3a1 1 0 0 1 -.3 0h-1a.3.3 0 0 0 .3 0v.3h.1v.2h1c0-.2-.2-.1-.3-.3h.4v.1l.4.1v.1h.3a.4.4 0 0 0 .3 0h.6l-.3.1h.2v.1h.6v.2a1 1 0 0 1 -.2 0h-.8v.2h-.4c0 .1-.1 0-.2 0h-.2l-.1.1v.1h-.2v-.2h-.3l.1.1a.4.4 0 0 1 -.4 0h-.7a5 5 0 0 1 -.7 0h-.2 1.3l.1-.1h-.5v-.1h.2c0-.1 0-.1-.1 0h-.2c0-.2.2-.2.3-.2l.2.2h.1l.3-.2c-.2 0-.2 0-.2-.2h-.4v.2h-.4a.2.2 0 0 0 -.3 0h-.3a1 1 0 0 1 -.3 0v-.1h-.3a.4.4 0 0 1 -.3.1.2.2 0 0 0 -.3.1h1.1l-.2.1c0 .2.2 0 .3.1l-.4.1h-1l.1-.2h-.4l-.2.1c0-.2-.2-.1-.3-.1l.2-.1h-.2v-.1h.4v-.3h-.4v.1h-.2c-.2.1-.4 0-.6.2h.5s.1-.1.2 0h-.1s-.2 0-.1.2h.1-.2v-.1h-.3v.1h-.8l.4-.1h-1.2l.2.1c-.4.1-.4.1-.5-.1.1 0 .2 0 .2-.2 0 0 .1-.1.2 0h.3a.1.1 0 0 0 .1-.2h-1.8v.1c0 .1.1.2.2.1h.4v.1h-.4s-.1 0 0 .1l-.4.1h-.3c.1-.2.3 0 .4-.2h-1.4.9v-.1h-.7c.3-.1.5-.1.8 0l.2-.2h.1-.1c0-.2-.2 0-.3 0a1 1 0 0 0 -.3 0v-.2h.4c0-.2-.1 0-.2-.1h-1v.1h-.1l1 .1v.1a.1.1 0 0 1 -.2 0 .2.2 0 0 0 -.2 0h-.5.2l-.2.2h-.1l-.1.1v-.1h-.3l-.1.1h-.8c-.1 0-.2 0-.2-.2l-.4.1.2.1h-.8.5v-.1h-.9l-.2-.1-.1.1a.3.3 0 0 0 -.3 0 2.1 2.1 0 0 1 -.5 0h-2.7c-.1 0-.1 0 0 0v-.2h-.3c0 .2-.2 0-.3.1l-.3.1h-.6.2l.2.1h.5l-.2.2h-.7v.1l.7.1a.6.6 0 0 1 .6.1h-.5c.2.2.3 0 .4.1a1 1 0 0 1 -.6 0v-.1.1h-.2v.1h-.8l-.2-.1h.7v-.1h-.5l.1-.3s-.2-.1-.2 0h-.6l.6.1h-.6v.2l.2.1h-.6c.2 0 .3 0 .3-.2h-.5a.3.3 0 0 1 .2-.1.3.3 0 0 0 .4-.1c-.2 0-.3-.1-.4 0a.4.4 0 0 1 -.3 0h.2a.3.3 0 0 0 -.3 0h-.7.5v.3h-.6l.3.1h.7v.1h-1.5l.1.2h-1.5l-.4-.1h-1.5l.5.1h-1.5a4 4 0 0 0 -.5 0h.2v.1l.4.1c-.1.1-.1.1-.2 0l-.2.1h-.4v-.1h.2v-.1h-.3c0-.1-.1 0-.2 0h-.1l.3-.1h-.4v-.2h.4l.1-.1.1-.1h-.5l-.3.1h-1.1l.2.1h.2l-.2.1h-1v.2h-.5.2a.6.6 0 0 0 .6.3h-.5l-1 .2h-.1v-.1h-.3l-.1.1-.1-.1a.2.2 0 0 1 .1-.1.2.2 0 0 1 .1 0h.3v-.2h-.3c0-.1.2 0 .2 0l-.1-.2h-.2l-.2.1-.2-.1h-.7c-.4.2-.8 0-1.2.1 0 0 0 .2-.1.1h-.7v-.1h.5v.2h.2c0-.2.2-.1.3-.1h.1-.2c0-.2 0-.2.3-.1h1v.1c-.1 0-.2-.2-.3 0h.5l.2.1-.3.1h-1c-.1.1-.3 0-.4 0h-.1l-.5.1h-.3l.4-.3-.5.2v.1c-.2-.2-.4 0-.6-.1v.1h-.4.2l.1-.3h.5-.1l.2-.1a.2.2 0 0 0 -.4 0h-.8l.2.2h.2-.2l-.2.2h-.3a.3.3 0 0 0 -.3 0h-.2.1a1.7 1.7 0 0 1 -.4 0 .1.1 0 0 1 -.3 0 .3.3 0 0 0 -.3 0h-.3a2 2 0 0 1 -.3 0l.2-.4h.2-.5s-.2 0-.3-.2h.4-1l.3.1h-.4s0 .2-.2.2v-.1c0 .1-.2 0-.2 0h-.5zm48-.4h-.1.2v.1h-.1zm-48 .8h.1-.3zm-40.2 2.7h.2-.3s.1-.2.1 0zm-17.8 6.5c0-.1.1 0 .2 0h-.5zm10.1-5.4a.3.3 0 0 1 .3-.1h-.6.3zm103.4-5.4a.1.1 0 0 1 -.2 0h.5zm-110.8 10.6s-.1.2-.2.1h-.2.4zm72.9-8.6v-.2h.1l-.1.1h-.2.2zm-12 .7v-.1h.3-.3v.2h-.3v-.1h.2zm-37.9 1.3h-.1.3-.3zm-48.7 11.5-.5.2.5-.2h.3a.3.3 0 0 1 -.3 0zm108.3-13.5h.5c0 .1-.1 0-.2 0h-.3l-.2.1c0-.2 0-.2.2 0zm5.2-.6h.1-.4c.2-.1.2-.1.4 0zm-42.7 1v-.2l.4.1a.5.5 0 0 0 -.4.1h-.2a.2.2 0 0 1 .2 0zm34.2 0c.2-.2.5-.1.7-.1 0 0 0 .1-.1 0a.1.1 0 0 0 -.1 0h-.5.4-.6.2zm-39.5 1a.1.1 0 0 1 -.1.1h-1.1 1.5a.6.6 0 0 1 -.5 0zm4.8 1a.3.3 0 0 1 .3 0h-.8zm47.4-1.6a.6.6 0 0 1 -.6-.1h.8v.1zm-44.4-1v-.3h.4v.1l-.4.2h-.3zm50.8-1.3v.1l-.2.2-.1-.1v-.2h-.1.6zm-42.5 1a.6.6 0 0 1 .5 0c-.1 0-.3 0-.3.2h-.1v-.1h-.2l.1-.2zm-53.3 3.4h.4a.2.2 0 0 1 .1 0 .2.2 0 0 0 -.1.1.2.2 0 0 1 -.2.1.2.2 0 0 1 -.1-.1zm86-4.1h.3l-.3.1h-.3c-.2 0-.2 0-.3-.2h.2a.3.3 0 0 0 .3 0zm-83.7 4.1-.3.1h-.1l-.4.2c-.1-.1-.2 0-.4 0v-.1l.7-.1h.7-.2zm18.7-.6h.6a1 1 0 0 1 -.6 0h-.5a.3.3 0 0 1 -.3 0l.3-.1h.5zm-9.7.3v-.1h.1l.1-.2h.3l-.2.3c0 .2 0 .2-.2.1h-.1zm24.3-2h.1-.1l-.6.2h-.5l.2-.2h.1l.6.1zm32.7-1.3h-.1l-.4.2-.1-.1.6-.1h.2l-.3-.1h.6-.2l.1.2h-.1v.2-.1h-.4v-.2zm-47.5 3.3v-.1h.8-.3.2v.3h-.6l.2-.1h-.3c-.1.1-.1.1-.2 0a.1.1 0 0 1 .2 0zm35.6-.6h-1l-.2.1h-.2c.2-.2.3 0 .4-.1h1.1l.2-.1h1.9-2zm1.4-2.2a.1.1 0 0 0 .2.2h.6l.1-.2h.4l-.3.1h.8l-.1.1h-1.8c0-.1 0-.1 0 0l.1-.2.2-.1c0 .1 0 .2-.1.1zm32-1-.4.1-.1-.1h-.7l-.3.1h-.2a.4.4 0 0 1 -.3 0l.6-.1h1.6c-.1.1-.1.1-.2 0zm-9.4.5c-.1-.2-.2-.2-.3-.2a.2.2 0 0 1 -.2 0 .3.3 0 0 1 -.3-.2h.2l-.1-.1h.3v.1a.7.7 0 0 0 .6.1.1.1 0 0 0 .1 0 .3.3 0 0 1 .3.1h-.5l-.1.2h-.2zm-42 1-.2-.1h.3l-.1.2h.4a1 1 0 0 1 -.3.1.4.4 0 0 1 -.4 0 .1.1 0 0 0 -.1 0h-.8.3l-.2-.2h.5-.2zm40-1.8h.6c-.1.1-.3.2-.6 0h-.4c-.2.1-.4 0-.5.2h-.5l.1-.1h-.5.2-.4v-.1l-.4.1a.3.3 0 0 0 -.3 0h-.8c0-.2 0-.2.2-.2h3.3zm3.8.5a.2.2 0 0 1 .2 0h.4l-.1.1h-1.3v.1a.3.3 0 0 1 -.2 0v-.1h.9v-.1h-.3c0-.1 0 0-.1 0h-.4c-.2 0-.4 0-.5-.2l.1-.2h-.2l.2-.1h1s-.2.1-.2 0c-.2.2-.5.2-.7.3h.8l.3.1v.1zm-53.8 2.4h-.2 1a24.6 24.6 0 0 1 1.3 0h-.2c-.1.1-.2 0-.4 0l-.4.1a.1.1 0 0 1 -.1 0h-.4c-.1.2-.3.2-.4.1 0 .2 0 .1-.2.1l.2-.1h-.6a.2.2 0 0 1 -.2 0s.1-.2.3 0v-.3h1.1c0-.1 0-.1 0 0h.1-.9zm12.1-.7h2.7l.1-.2h-.1l.2-.3h.3l.3.1h-.4v.3h-.2v.2h.7-.6-.5-1.7l-.5.2a.7.7 0 0 1 -.6 0h-3.2l-.5.1a.4.4 0 0 1 -.3 0l.2-.1h1.6l.9-.1 1.3-.1h.3a.5.5 0 0 1 .5-.1zm57.8-2.6v.1h-.3c.1.1 0 0 0 .2h1v.2h-.1c0-.2-.2 0-.3-.1h-.5a.3.3 0 0 1 -.3.2h-.5l-.2-.1h.3v-.1h-1.2l-.2-.1a1.2 1.2 0 0 1 .6 0h.3c0-.1 0 0 0 0h.8l-.2-.1a.5.5 0 0 0 -.4 0l-.2-.1h-.4c-.1.1-.3 0-.4 0h-.5a.2.2 0 0 0 -.2 0c.2.1.4 0 .5.2h-.7l.1-.4h.6c0 .1-.2 0-.4 0l.4.1c0-.1.2 0 .2 0l.3-.1h1.5zm-51.7 2h-.2a.4.4 0 0 0 -.3 0 .4.4 0 0 1 -.4.1v.1h-.1s0-.2.2-.2v-.1h.2l.1.1h.3v-.3h-1.2l.8-.2h.3l.3-.1h.4-.2.2c-.1.2-.2.3-.4.3l.5.1-.2.1h.3l-.2.1s-.2.1-.2 0zm28.7-.5h-1.4c-.1 0-.2.1-.4 0a.2.2 0 0 0 -.2 0 .2.2 0 0 1 -.2 0l.4-.1s.2 0 .2.2l.2-.2-.4-.1h.2v-.2h.5-.4v.1l.3.1v.1h.2c.1-.2.2-.1.3-.1a.2.2 0 0 0 .2-.1h-.3v-.1h.3a.6.6 0 0 1 .5 0l-.4.2h.5l-.2.1zm25.1-1.1h1.3l.4.1h.4l-.2.1v.1h-.2-1.9l-.6-.2-.1-.1a.3.3 0 0 1 .3-.1h.3-.1.8-.3l.2.1zm-66.1 2.7a1 1 0 0 0 -.6 0h-1.2a.2.2 0 0 0 -.1 0 .4.4 0 0 1 -.4.1l-.9.1h-.1v-.1h1s0-.1.1 0l.6-.1 1.4-.1h.2zm12.2-.6h.8l.2-.1h2c.2-.1.3 0 .4 0l-.4.1h-1.2a2.6 2.6 0 0 0 -.5 0h-.1a.6.6 0 0 0 -.5 0zm11.3-.3h3.2s.1-.1.2 0h.9a1.9 1.9 0 0 1 -.7 0h-.4a4 4 0 0 1 -.7 0 7.4 7.4 0 0 0 -.8 0l-.2.1h-1.1zm11.7-.8a.3.3 0 0 0 .3-.1h.2a.3.3 0 0 1 .4 0c.2-.1.3-.1.4 0h.1a.2.2 0 0 1 0 .2.2.2 0 0 1 -.2 0h-.6l-.3-.2v.2h-.4zm-15 1h.5l-.5-.1h.7c.1 0 .3 0 .5-.2h.2-.1c.1.1.2.2.4 0h-.2.2v.1h.4a.2.2 0 0 1 -.2 0c-.1 0-.2 0-.3.2l-.2-.1-.6.1h-.3c0 .1 0 0-.1 0a.5.5 0 0 0 -.4 0h-.2zm41.5-3.1h-.2a.2.2 0 0 0 -.2 0h-.3a2 2 0 0 0 -.4 0h-.4l-.2-.1-.1-.2h1.1l.3.1h.3v.2zm-34.6 2.4h.7c0 .1.1.1.2 0h.3l.5.1-.3.1h-.4a6.6 6.6 0 0 0 -1.2 0h-.2l.2-.1a.3.3 0 0 1 .2-.1h.9zm-41.2 2a.3.3 0 0 1 .3-.2h1.2a.1.1 0 0 1 .1.1l-.1-.1h-.4v.2h-.3-.3a1 1 0 0 1 -.6 0h-.1l.3-.1zm75.9-4.2h1.9v.2h-.6-.3-.1-.2a2 2 0 0 1 -.6 0zm-75.6 5.2h-.3a.8.8 0 0 1 -.6.1c0-.1 0-.2.2-.2h-.2l.6-.1h-.2.3c.2 0 .2.1.2.2zm52.3-3-.1-.1a.3.3 0 0 0 -.3 0h-.2l-.3-.1-.3-.2a.5.5 0 0 1 .4.1l.2.1a4.7 4.7 0 0 1 .9-.2h.1l-.4.2v.1zm-44.6 2.1-.3-.1h.8l-.2.1c.3 0 .5-.1.8 0a3 3 0 0 0 -.7.1h-.7zm-10 .5-1.4.2h.1l.2-.1-.4-.1c.3-.1.5-.1.8 0h-.2 1zm-31 2.2-1 .2.1-.1v-.2h-.3l1.1-.2-.7.3a.4.4 0 0 0 .4 0zm81.8-4.3h1.9a.4.4 0 0 1 -.4 0h-1.6zm27.4-3h1.5l.8.1h-2.3zm-17.2 1.2h1.6l-.2.1a.3.3 0 0 0 -.3 0h-1.1zm17.5-1.4.4-.1h.9a.5.5 0 0 1 .4 0v.1h-1.8zm-.2-.1h-1.9c.1 0 .3-.2.4 0l.3-.1a6.6 6.6 0 0 1 1 0v.1zm-8.1 2.6.3.1h-.7v-.1l.1-.1c0-.2 0-.2-.2-.2h-.2.5l.1.2.4.1zm-73.8 2.3h.2a.3.3 0 0 1 .4 0h.2a.2.2 0 0 0 -.3.1l-1 .2h-.2l.7-.1v-.3zm87.8-3.5a1 1 0 0 0 -.5.1h-.7v-.2h1.1zm-23.1.7h-2.2a.3.3 0 0 1 -.2 0h.5a1.7 1.7 0 0 1 .5 0 .1.1 0 0 0 .1-.1h1.3zm3.6-.2h-.4.1v-.2l.2-.2h.4-.1v.1h.2c-.2.2-.4 0-.6.2h.2zm46.2 7h-.1l.3.1h-1.3l-.3-.1h.5a.4.4 0 0 0 .6 0h.2zm-45.5-6.2h.9l.3-.1h.3l-.3.2v-.1h-.3a1 1 0 0 1 -.4 0zm-28 .2c.3-.2.6 0 .8.1h-.3a.3.3 0 0 1 -.3 0 .2.2 0 0 0 -.2 0c0 .1 0 0-.1 0h.4zm-49.1 7.9h-.3a.2.2 0 0 1 -.2 0 .2.2 0 0 0 .3 0l-.2-.1 1-.1h-.2v.1l-.5.2v-.1zm44.9-7.4h1.3c0 .1 0 .1-.2 0a.5.5 0 0 0 -.4 0 .3.3 0 0 1 -.3 0l-.1.2v-.1zm-.3.2h-.3a4 4 0 0 1 -.7 0c-.1 0-.1 0 0-.1h.6a.5.5 0 0 1 .5 0zm25.4-1.8a4.6 4.6 0 0 1 .9 0h.7-.2l-.3.1a.7.7 0 0 0 -.6 0zm13.3.5v-.1l.5-.1.3.2a.5.5 0 0 1 -.6 0h.2zm-26.5 1.4h-.3l-.2.1h-.3.2l-.4-.1-.2-.1h.7-.3zm35.1-2.5h1a.4.4 0 0 0 -.4.1h-.3zm-59.4 3.8.1-.1h-.6 1a.8.8 0 0 1 -.5.1zm41-2.5v.1c-.1.2-.3 0-.4 0l-.3-.1zm-63.9 2.7a.1.1 0 0 0 -.2 0 .2.2 0 0 1 -.2.1h-.2c0-.1.1 0 .2 0l.2-.1h.5l-.5.1zm9.9-.5h1zm-42.6 1.9-1.3.3c0-.1.2 0 .3-.2h-.2l.2-.1v.2l.4-.2zm35-1.6.6-.2h.2.3a.2.2 0 0 1 .3 0l-.8.2h-.7zm-4.4.9c.2 0 .3-.2.4 0h.7a1 1 0 0 1 -.3 0l-.4.1h-.2zm66.5-3.3h.2a.2.2 0 0 1 .3 0h.2l-.2.1h-.5zm-85 4.5.7-.1v-.2h.5l-.3.1h-.2c-.2.1-.5.2-.7.1zm6.7 4.2-1.4.2a.2.2 0 0 1 .2-.2h.9a.4.4 0 0 1 .3 0zm91.8-10.3h.9-.4l-.3.1h.4c-.2.1-.2.1-.5-.2zm-29.1 1.3h.5l-.1.2v.1s-.2-.2-.3-.1zm-46.5 3.2.2-.1h.8a.4.4 0 0 1 -.3 0h-.7zm30.8-1.5h-.3l-.5.1h-.1v-.1zm-10-.7a.1.1 0 0 1 0 .2h-.4.2v-.1a1.7 1.7 0 0 0 -.3 0l-.1-.1h.7zm60.6-2.8h-.1c0 .1-.1.1-.2 0h-.5zm-94 6.7h.3-.4a.2.2 0 0 1 -.2-.2h.5l-.1.2zm20-3h.7-.2l-.3.1zm36.3-.9h1zm-20.1 1h-1zm-50.8 2.6-1.3.2.6-.2zm53-3.3c0-.1.2 0 .2 0l1.3-.1h-.9l-.4.1zm10.8-.6h-.1c.1-.1.2-.1.4 0l.3-.2v.1l-.7.1zm-51.2 2.6-.3.1h-.5zm-11.5 1.2a1 1 0 0 0 -.6.2 1 1 0 0 1 -.3 0h-.1l1-.3zm-18 9.8-1.3.2c.4-.2.9-.3 1.3-.3zm110.1-14.6h.2a.3.3 0 0 0 .3 0h.5zm-21 1.4c.1-.2.2-.2.3-.2h.4c-.1.1-.3 0-.4 0 0 .2-.1.3-.2.2zm-40.3 2.4a.3.3 0 0 1 .3 0h.2a.4.4 0 0 1 -.3.2v-.2h-.3zm75.7-5c-.1.1-.2.2-.3.1h-.4v-.1zm-30 2.6h-.7c0-.1 0-.1.1 0a.2.2 0 0 0 .2 0l.3-.1v.1zm-69.5 8-.3.2h-.5l.3-.1h.5zm56.8-7.6h.8-.5c0 .2-.1.2-.2 0zm9-1.8-.1.2h-.3v-.4h.5zm-28.1 1.6h-.6a.2.2 0 0 1 -.2 0l.7-.1h.1zm-2 .5h-.8zm-23.5 1.7h.3a2.2 2.2 0 0 0 .7-.2.1.1 0 0 1 0 .1zm.3.4h.7zm85-4h-.3a.3.3 0 0 0 -.2 0h-.3.1s.1-.1.2 0zm-50.2 1.7h.6v.1h-.5zm53.4-2h-.2l-.3-.2h.5zm-14.5.4.3-.2v.1l-.3.2zm-25.9 1.5h.5s.2-.1.4 0h-.2v.1h-.2.1c-.2-.2-.4 0-.6-.1zm41.1-2 .3-.1h.3zm-44.4 2.2.2-.1h.1c0-.2.2-.1.3-.1h-.1v.1h-.5zm30.4-1.5h-.4.1a.2.2 0 0 1 .2-.1.2.2 0 0 1 .1 0zm-107.8 12.7-.3.2-.2-.1c.1-.2.3 0 .5 0zm103-12.8h-.8.3l.1-.1h.4zm-75.5 5-1 .1 1-.2zm28.6-3.3h.8zm32.2.2-.2-.1h.4zm12.3-2.5a.4.4 0 0 1 -.6 0zm-49.6 3.1h.7zm14.2-2c.2-.1.3-.2.5-.1v-.1.2zm-66.7 12.7-.7.3c0-.2.2-.1.3-.2h.4zm76.2-11.6v-.2h.6l-.6.1zm-48.5 7v-.2l.1-.1.5-.1h.1-.3a2 2 0 0 0 -.4.2zm99.4-9.5-.2.1-.2-.1h-.2zm-13.7.4h.2a.1.1 0 0 1 .2 0c-.2.1-.3 0-.4 0zm-36.6 1c0 .2 0 .2-.3.2v-.3h.3zm-56.8 8.8c.1-.2.3-.1.5 0zm6.7-.7h.1l.4-.1a.2.2 0 0 1 .3 0zm103.5-9h.8zm-124 11.8c0 .2-.3 0-.4.2h-.2zm123.2-13a2 2 0 0 1 -.7 0zm-107.8 11h.4s.2-.2.3 0zm-13.3 2.2h-.5l.5-.1zm94.7-11.3h-.2l.1-.2.2.1h-.2v.1zm-57.5 2.8a.8.8 0 0 1 -.6 0zm85.8-3.8h-.8zm-42 1.1h.5v.1a.5.5 0 0 1 -.6 0zm-17.9 2.3v.1h-.4c.1-.1.3 0 .4 0zm-45.4 6a.8.8 0 0 1 -.7 0h.6zm50.7-8.6c-.2.1-.4.2-.6.1h.6zm19.2-.3h-.4c-.1 0-.2.2-.3 0a.2.2 0 0 1 .2 0zm-43.8 2a.6.6 0 0 1 .5 0zm23.5-1.1h-.5zm-40.1 2.5h.5zm77.5-2.8a.5.5 0 0 1 .4 0 .4.4 0 0 1 -.4 0zm-93 9.2a.5.5 0 0 1 .5-.1l-.4.1zm55-9.4c0 .1-.1 0-.2 0 0 0-.1.1-.2 0zm-13.2 1.8h-.7zm56-2.8-.3-.1.1-.1.3.1zm-87.5 5.2c-.2.1-.3.2-.5 0zm5.3-1.6h.4l-.3.2v-.2zm1.9 2h-.2c-.1 0-.3 0-.3.3l-.1-.2h.6zm7.1.6h-.3.4zm119.2 1h.6zm-123.6.7-.4.2zm76.8-8.9c0-.1 0-.1 0 0a.2.2 0 0 0 .3 0s0-.1.1 0zm-69.2 3.7h.1l.3-.1c-.1 0-.2.2-.4.1zm32.5-.4a.5.5 0 0 1 -.5 0zm8.8-1.1.1.1h-.2l-.1-.1zm-12.1.6a1 1 0 0 1 -.6 0zm-13.9.2a.7.7 0 0 1 -.6 0zm-31.7 2.4c0 .2-.2.1-.2.1h-.3.5zm8.2-.2h-.4zm32.4-1.8h.5a.6.6 0 0 1 -.6 0zm45.8-2-.2-.3c.3 0 .3 0 .3.2h-.1zm-23.5 1v-.2a.4.4 0 0 1 .4 0l-.4.1zm-21.5 1.5h-.3s-.1 0 0 0zm6.6-1.1h.2c.1-.2.3 0 .4 0a.6.6 0 0 1 -.6 0zm9.8.2h.6zm18-2h.6a.4.4 0 0 1 -.5 0zm.3.6c0-.2.2-.2.3 0zm-35.5 2.9h.6zm-17-.3c0-.2 0-.2.3-.1-.2 0-.2.2-.3.1zm-17.6.6h.2v.1h-.2zm48.2-3h.3zm5.3 2.4h-.6zm26.7-2h.5zm-33 1h.2zm-28.7.2-.4.1v-.1zm-36.6 2.6s-.1.1-.2 0h-.3zm45.1-3.4c0 .2-.2.2-.3 0zm65.3-1.5h.6zm-55.1 3.4c.2-.1.3 0 .4 0zm47.6-2.7c.2-.1.3-.1.4 0zm-35.4 0c-.1.1-.2 0-.3-.1h.4zm0 .5h-.6a.7.7 0 0 1 .6 0zm-41.4 3.3a.2.2 0 0 0 .2-.1h.3l-.2.1h-.1zm-34.3 1.3h.1l.4-.2h.1zm98.5-5.8h.3c-.1.2-.1.2-.3 0zm18.5-.8h-.5zm-33 2.3h.4a.3.3 0 0 1 -.3.1zm17.6-1.3a.3.3 0 0 1 .4 0zm-66.1 3.5h.5zm84-5.5h-.4zm-33 3.4h-.3zm26.5-3.5h.3c0 .1 0 .2-.2.1zm-131.9 11.8.2-.1h.2a.4.4 0 0 1 -.3.1zm137.4-9.7h-.4s-.1.1-.2 0zm-121.1 6-.5.2.5-.1zm43-2.5h.4c-.1 0-.2.1-.4 0zm2-.6h.4zm14.5-1.7-.4.1c.1-.1.2-.1.4 0zm46.5-1v.2h-.2c0-.2 0-.2.2-.1zm13.1-1.3h-.5zm-83.3 5.8-.6.1zm27.3-2.8h.4zm58.5-2.9c.2-.1.3 0 .4 0a.4.4 0 0 1 -.4 0zm-102 5.5a.4.4 0 0 1 -.3.2c0-.2 0-.2.2-.2zm8.7-1.6.5-.1h-.5zm50.2-1.7h.5zm31.1-.5v-.1h.5-.5zm-37 1.8h-.3a.4.4 0 0 1 .4 0zm-45.7.9v-.3h.2c0 .2 0 .3-.2.3zm85.3-3.7h.5zm-117 5h.3c-.1.1-.1.1-.4 0zm54.6-2.2h-.6zm-25.3 1v.1h-.3.3zm-19.2 7.4h.3l-.1.1zm100-10.4-.2.2v-.3zm-30 2.5h-.4.3zm27.6-2.5a.4.4 0 0 1 -.3 0c.1-.2.2-.2.3 0zm-82.7 7 .2-.1h.1zm50.4-5a.5.5 0 0 1 -.4 0zm20.6 0h-.3c0-.2.2-.1.3-.1zm47.9 4.4h-.5zm-85.5-4.4c.1-.2.2 0 .4 0zm43.4-3h.3a.3.3 0 0 1 -.3 0zm-24.4 2.1h-.5a.3.3 0 0 1 .4 0zm-30.5 1c-.2 0-.2 0-.2-.2l.2.1zm23.3.1h-.4zm-12.3 1h-.4zm45-3.7s.2-.2.3 0zm9.8 0h.5zm-7.7.7h.3a.4.4 0 0 1 -.3 0zm-35.6 1c0 .1-.2.2-.4.1h.4zm-36.7 2h.2zm25-1.3h-.3a.4.4 0 0 1 .4 0zm-47 2.4a.3.3 0 0 1 .3-.1h-.4zm-20.2 2.5-.4.1a.4.4 0 0 1 .4-.1zm64.4-3.4c0-.1.2-.1.4 0zm35.3-3.4h-.2c.1-.1.2-.1.2 0zm-100.5 7.8s0-.1.2 0zm89.2-7.2h.3zm40.7-.9h-.5zm-86.3 3.4a.2.2 0 0 1 .3 0zm3.6.2a.3.3 0 0 1 .4 0zm-13.4 1.6h-.3a.4.4 0 0 1 .3 0zm56-2.4h-.4zm45.6-3h-.3zm-12.2 5.8h-.4zm-6.8-4.9-.1-.2a.3.3 0 0 1 .2.1zm-95.4 10 .3-.2c0 .2 0 .2-.3.2zm37-7.8a.5.5 0 0 1 .5 0zm35-2.4a.2.2 0 0 1 -.2 0h.3zm15.5-.2c-.1 0-.3.1-.4 0zm-59.8 2.4h-.2s0-.1.2 0zm27.3.5c0 .1-.1 0-.2 0h-.1zm-25.1-.3c-.2.2-.2.1-.3 0zm-34.8 8.2h-.3a.3.3 0 0 1 .3 0zm116-11.2a.4.4 0 0 1 .4 0zm-6.2-.2c.1 0 .3-.1.4 0zm-59.7 3a.4.4 0 0 1 -.3 0zm12-1.6h-.4zm21 1.6c0 .1 0 .1-.2 0a.2.2 0 0 1 .3 0zm.3-1h-.4zm-8.3-.5h.3zm-35.8 2.4c-.4.1-.4.1-.4 0zm102.8 3.1c.1-.1.3-.1.4 0zm-101-2.8h-.3zm-37.3.3c.1-.1.2.1.3.1h-.3zm-3.4 1.5c0-.2.2-.1.2-.2h.1zm73.4-3.4c-.1.1-.3 0-.4 0zm-7.7-1.3h.4zm-1.9.8h.4c-.2.2-.3.1-.4 0zm-5.1 1.4h.3zm64-5.3a.4.4 0 0 1 .3 0zm-53.5 2.6h.3a.3.3 0 0 1 -.3 0zm-33.7 6.6h.4zm33.7-6.4c0 .1-.2 0-.2 0zm-17.7 2.2h-.3zm33.2-2.8h.2zm-2.2 2.6h-.3.2zm2.2-2.7c0 .1 0 .1-.2 0zm-20.5 2.4h.3a.3.3 0 0 1 -.3 0zm32.2-1h.3zm-62.5 2.5h-.1a.2.2 0 0 1 -.2-.1h.3zm62.5-.9h.3zm-49.9-.4c.1-.1.3-.1.4 0zm53.9-2.6c0-.2.2-.1.2-.1 0 .1-.1 0-.2 0zm-62.3 2.7h.3zm63.6-1v.1h-.3.3zm0-1.5h.4c-.2.2-.2 0-.3 0zm-73.1 3.4h.3zm-9 0h-.3a.4.4 0 0 1 .3 0zm92.1-5.7h.3a.3.3 0 0 1 -.3 0zm-100.2 6.6h.3zm64-3.8h-.2c.1-.1.1-.1.2 0zm41.4-3.2h.4zm-106.2 12.2h.3a.4.4 0 0 1 -.3 0zm71.7-8.2c-.2.2-.2.2-.2 0zm-8.2.7h-.1v-.1h.1zm-37 .4c0 .1 0 .1-.2 0zm25.5-.9h-.2zm26.5 1c0-.1 0-.1.2 0zm-33.8-1.2h-.2.1v-.2.2zm-19.7 2c-.1 0-.2-.1-.2-.3h.1l.1.2zm71.5-4.2c0-.2 0-.2.2 0zm-83.1 3.8h.3zm107.3-2.5h.3zm-80.3.2a.3.3 0 0 1 -.3 0 .2.2 0 0 0 .2 0zm-.4 1.5h.3zm46.5-2h.2c0 .1 0 .1-.2 0zm-67.9 3.8h-.3zm38.2-1h-.3a.2.2 0 0 1 .3 0zm-83.8 10.8s0 .1-.1 0zm10.5-1.2h-.3zm71.6-10.8c0-.2 0-.2.2-.1h-.2zm-29.5 2.1h-.3zm74-6.6h.2l-.1.2v-.2zm.4 2.9h.2c-.2.1-.2.1-.2 0zm12-2.4h-.3.2zm-78.2 4.8h.3zm-3.6.8h.2zm-29.5 6.2h.2zm37-8.2a.2.2 0 0 1 .3 0h-.2zm23.8-.2h.4zm-23.5-.4a.1.1 0 0 1 .1 0zm31 .2h-.2zm2 .5h.3zm25.7-1.7a.3.3 0 0 1 -.2 0zm-83.8 8h.3zm43-6.8h-.3.2zm-.3-.2h.3c-.1.2-.2 0-.3 0zm26.6.4h.2zm-30.3.2a.1.1 0 0 1 -.1 0 .1.1 0 0 1 -.1 0zm-46 2.9.3-.1c0 .1-.2 0-.2 0zm59.8-4.3.1.2zm-13.7 2.3h.2zm-57.2 8 .2-.1c0 .1-.2 0-.2 0zm112.6-10.7h-.3zm-43.4 2a.1.1 0 0 1 -.2 0zm-41 3h-.2zm-1.5-1.6h.3zm0 .2c0 .1-.1.1-.2 0zm12.8-1v.1h-.3.2zm-16.3 3.4h.4zm0-.6s0 .1-.1 0zm21.5-2.2h.2-.3zm-58.5 10.3c0-.1 0-.1.2 0zm55.4-10.7h.4zm22-.4h.2zm-53.4 1.6h.2s-.1.1-.2 0zm56.1-2.6h-.1v-.1h.2v.1zm-62.6 8.6c-.1.1-.1.1-.2 0zm-11.8-5.7-.3.1h.3zm70.8-2.3h.2zm12.1.4-.1.2zm-78.6 2.9a.1.1 0 0 1 -.2 0zm101.5-5h.2zm15.3 0v.1zm-74 3.5c.1-.1.1-.1.2 0zm-14.3.1h.2zm49.4-1.8h.1zm-26.9.4h.2zm35.2 0h-.3zm28.8-4.5h.2zm-11.4 2h.2zm-52 2.6h-.2zm14.6-.6-.2.1h.2zm1 0h-.1c-.1 0 0 0 0 0zm-61 8.3h-.2.3zm98.4-9.3.1.1h-.1zm6.6-.4.1.1zm-59.3 1.7h-.2zm16.7 2.6a.2.2 0 0 1 -.2 0zm-30.6-2.5h-.1v-.1h.1zm-20.4 3v-.1h.3-.3zm47-4.3c.1 0 .2-.1.2 0zm62.2 5.7h.3zm-84.5-4h-.1zm-49.2 9.3c0 .1 0 .1-.2 0zm117-13.5h.2zm-99.1 6c.1-.1.1-.1.2 0zm78.9-4-.1-.1s.1 0 0 0zm-34.6 1.4h.2c0 .1-.1.2-.2 0zm54.3-2c0-.1 0-.1.2 0zm-53.8.7h.1c0 .1 0 .1-.1 0zm-21 2.3s.1-.1.2 0zm-25.8 6.8h.3zm112-8.8a.2.2 0 0 1 -.2 0zm-131.7 12.5h-.3.2zm28.5-7.3h.2zm88.4-5.4h.2zm28.8 6.2c0 .1-.1 0-.2 0zm-111.5 1h-.2zm34.5-4.6v.1zm46.4-3.5h.2zm-5.5 0h.2zm-72.6 5.4h-.3.2zm-23.6-1.3h.2zm65.6-1.5h-.3.2zm49.2-4.4h.2zm-23.5.9h-.3zm6.8 1.5h-.2zm-3.6-.2h-.3a.3.3 0 0 1 .3 0zm-65.4 4.7h-.2zm-32.7 6.5s0 .1-.1 0zm78.7-10.9h.2zm24 .3h-.1.2zm-84 5.7h.3-.2zm-1.2.4a.2.2 0 0 1 .2 0zm59.8-5h-.2s.1-.1.2 0zm-.4-1.6h.2zm19.8-1h.2zm-83.8 7.8h.2zm77.5-5.6h-.2zm-14-1.4v.1s-.1 0 0-.1zm24.4.4s0 .1-.1 0zm-21.4 0-.2.1h.2zm-41.9 2h.1zm-28.6 7.7a.2.2 0 0 1 .2 0zm50.2-8.1h.2zm-19 1.5h.3a.1.1 0 0 1 -.1 0h-.1zm0 3.1h.2-.1zm45.1-5.2h.1zm-91.5 11.2h.2zm156-6v.1zm-85.8-4.5h-.2c0-.1.1 0 .2 0zm86.6 4.7h.1c0 .1 0 .1-.1 0zm-86.4-3.9-.2.1c0-.1.1 0 .2 0zm34.4-2.7h-.1zm-79.4 8.4c.1-.1.1-.1.2 0zm26.9-7c0-.2 0-.2.1 0zm-22.8 1.2v.1h-.1.1zm46.3-1.6h-.3zm-45.4 6.6h-.2zm74.6-7h.2zm51.3 6c0-.1 0-.1.1 0zm-166.5 2.1h.2zm98-8.6h-.3.2zm9.7 1.5h-.2zm-106.6 13.1v.1h-.2.2zm41-8.2h-.2zm15.8-1.2h.2zm-56.6 1.3h.1zm114.9-6.8c-.1.1-.1.1-.2 0zm-73.9 2.8h.2zm.2 2a.1.1 0 0 1 .2 0h-.3zm.5.6h.2zm84.4-6.4h-.1zm-54.2 2h.1zm18.3-.2h-.2c0-.1.1 0 .2 0zm-27.4 2.5h-.2zm39.9-2.9h-.2zm8.6-.7h.1zm6.1-.3s-.1 0 0-.1zm-70 5h.1-.2zm83.5-5.4h-.2zm-112.9 11.8h.2zm113.6-11.7h-.2a.1.1 0 0 1 .1 0zm-55.5 4h.2zm55.7-5.3h-.1zm-117 7.3h-.1.2zm96.7-2.5h-.2zm-31.4-2.1-.1.1v-.1zm-70.5 12.2s0-.1.1 0zm67.8-10.7h.2zm-43.7 6h-.1zm2 .3-.2.1h.2zm-2-4v.1h-.2.1zm18.4-1.3h.2zm25-1h.1zm-13.5.3h.1zm60-1.3h.3-.2zm-9.8-.8s0 .1-.1 0zm.2.4h.1zm-104.2 4h-.2zm48 1.7c0 .1-.1.1-.2 0zm-47.2-1.7h.2zm47.2-1h-.2zm25.8-2.4h-.2zm-70.4 3h.1zm100.9-2.4h.2-.1zm-1-2.3h-.2zm-51 3.6.1-.1h-.1zm14.6-.5h-.1v-.1zm-61 8.7h-.3.2zm26.1-7.3h.3-.2zm25.7 1.4h-.2zm16.6-4h.2zm7.4-1.2h-.2c.1 0 .2-.1.2 0zm-36.4 3.4c0 .1-.1 0-.2 0zm-9 3.2-.2.1h.2zm0-.7h.1zm9-2.3h.1zm55.8-3.5h.2zm-64.3 6.1h-.3zm-28-2.1h.1zm111.1-5h.2zm-74.6 7.4s0-.1.2 0zm22.8-4.1h.2zm34.3 3h.1zm-24.6-4.5h.1zm-22 2.4h.1-.2zm-48.2 6.6h.1zm130.7-3.4h-.2zm-95.2-3.1h.1zm-29 6.5h-.1zm-17 3h-.1.2zm48-11h.2-.1zm.9 1.4h.1zm11.5-.3h.1zm4.5-2h-.1zm11.8 1.3h.1zm-13.2-.3h.1zm-41.3 2.4v.2zm103-4.3h.1zm-102.2 5.5h.1zm-21.8 7.1h-.1zm22.9-3.9a.1.1 0 0 1 -.2 0zm84.7-7.1h-.1zm9-3h-.1zm-74 8.2h-.2zm.1-4.4h-.2zm34.1-2 .1-.1zm-20.7.6h.1zm5-.3s0 .1-.2 0zm-71.2 6.3h.1zm70-4.3c0-.1 0-.1.1 0zm13.5-2.6h.1zm40.4-1h-.1zm-58.2 2.5c0-.1 0-.1.2 0zm-54.4 10.8h.1zm85.4-10.9h-.1zm-59.8 2h-.2zm18.1.1h-.1zm44-.5h-.1zm-62.7 1.6h.1zm-.5-1.7h.1zm1.6.5h-.3.2zm.7 4.5h.1zm-37.7-1.2-.1.1zm39 1h.2-.1zm24.7-6.2h-.1zm-22.9 5h-.1zm17.4-3 .1.1zm65-4.1h.1zm-91.2 4.2h.2-.1zm39.3-1.7c0-.1 0-.1.1 0zm81.1 4.5h-.2.1zm-30.1-8h-.1zm-33 2.2h.2zm27.6-1.4h-.1zm-88.4 10h-.2zm44.2-8.3h.1zm16.3-.8h-.1zm-76.7 11.7h-.1zm73.8-11.2h-.2zm-34.4 3 .1-.1h-.1zm84.2-4h.1zm-31.5-.3h-.1zm-53.5 7.5h-.2zm67.3-6.9h-.1zm-35.5-.2h.1zm-63.5 4 .1-.1zm29.6 3.2h-.1zm83.9-8.6h-.2zm.4-1.1v.2zm-45 4h-.2.1zm-41.4 5.6h.1zm42.4-3.9h-.1zm-27.3-2.3v.1zm44.6-1.4v.2zm-80 6h.1zm74.5-4.3h.1zm-56.9 4.1h.1zm99.1-7.1h.1zm-99.6 8.7h.1zm38-4h.2-.1zm-38-.2h.1zm25.8.1h.2zm-26.5 1.4h.1zm-1.1-1.2h.1zm38.5-.7h.1zm-46 1.2.1-.1zm90.9-4.8h-.1zm-64.4 5v.1zm-11 .4h-.1z" fill="#82d7b9"/></svg>