<svg fill="none" height="14" width="340" xmlns="http://www.w3.org/2000/svg"><path d="m207.7 5.6h-.5c0-.1 0-.2-.2-.2l-1.5-.1-.6-.3c-.6.1-1.1.2-1.2.5a5 5 0 0 0 -.9 0l-.6-.3c-.5 0-.5 0-.6.2h-1.2l-.2.2c-.6-.2-1.2 0-1.8 0-.5.4-1.4 0-2 .2-.2 0-.2-.1-.2-.2h-.8c-.4.2-.6.2-.8 0h-1c0-.2 0-.2-.6-.1l-.3-.2-1.2.1h-1.2c-.3 0-.6 0-.6.2h-1.5c-.3.3-1 .2-1.4.3-.6 0-.6 0-.8-.2s-.5-.3-.9-.2h-.1v.2h.5l.5.1h-1l-.7-.6c-.3.4-.8.5-1.5.6v-.3l-.3.2c0 .2-.3.2-.6 0h-.7c-1 0-2 .3-3 .2l-1.2.1h-2.5c.1-.3.6-.3.8-.5h-1.6c-.1.3-.4.4-.8.4h-2c-.4.2-1.1.2-1.8.2l-2-.2h-.1c-.7.2-1.2 0-1.8-.1l-.7.1-.1-.3a2 2 0 0 0 -.5.2l-.2-.1-.5.1c-.3-.2-.9-.3-1.5-.1v.1l-.2-.2-2.2-.2c-.1.3-.2.5-1 .5l.2-.1h.4l-.8-.4-.1.3h-.4l-.5.2-2.8.1h-1v-.3c-.3-.1-.6-.2-1-.1v.1c-.5-.1-.9-.2-1.4 0l-.1.3c-.3-.2-.3-.2-.7-.2l.3.2-.6.2h-1.3l-.2-.3c-.2.2-.6.3-1 .4-.5 0-.7-.2-1.2-.3v.3c-.7-.1-1.3-.2-2 0h-2.1a3 3 0 0 0 -.7 0h-.5l.8-.1-.1-.1h-3.3c-.4.1-.6.2-.6.5h-1.8l-.8-.1c-.6.2-1.5.3-2.3.3h-3.7a2 2 0 0 1 -1 .1h-1.6c-.8.1-1.5.2-2.2-.1l-.2.2h-.1l-1.1.1h-4.2l-1 .2.1-.3h-.6l.2.2h-.9l-.5.1a6221.6 6221.6 0 0 0 -3.4 0c-.3.2-.7.2-1 .3h-6.5l-.5.2c-.3 0-.5-.2-.8 0h-1.4l.3-.3h-.2c-.2.1-.5.2-.9.1l-.3.1h-.6c-.1-.2-.5 0-.7 0l-1.2.2-.8.1-1 .1h-3.5l-.5-.2-.5.3-.4-.1c-.2 0 0 .3-.6.1l.1-.3h-.9l-.2.2c0 .2-.3.1-.6 0-.1.2-.4.3-.8.3h-3a66.3 66.3 0 0 1 -3.2.3c-.3.2-.5.1-.7.2h-.9l-1 .1-1.4.1h-1l-.9.2h-1.4l-1.5.1-1.5.1-2.4.2h-1.2c-.3.2-.7.1-1.2.2l-.4.2a2 2 0 0 0 -.4-.1h-4.4l-1.2.1c-.4 0-.7.3-1.1.1l-1 .3h-.2c-.2-.3-.6-.3-1-.1h-.3c-.4-.2-1-.1-1.4-.2l-.9.1h-.7c-.4 0-1 .4-1.6.2-.4-.1-.9-.1-.7-.5l-1.7.3c-.7-.3-1.4 0-2.2 0 0 0-.2-.3-1-.2 0 0-.4 0-.6-.2h-1.7l-.3-.1h-2.5c-.4-.2-.8-.1-1.3-.1l-.2-.2-1-.1h-.1c-.8-.1-1-.2-1.4-.4-.4 0-.7-.2-1-.3-.3 0-.3-.2-.9-.1l-1-.2-.6-.2c-.1 0 0-.1 0-.2-.9 0-1.7 0-2.5.2-.3-.1 0-.3-.4-.3l-.4.4c-.5-.3-1.1-.2-1.6-.2l-.6.3c-.4-.2-.4-.2-1.4 0l.3.1c-.7.1-1.5 0-2.2.2l-.8-.2-.8.3c-.5-.1-1-.1-1.6 0h-1c-.2 0-.6-.2-.8 0h-.7a2 2 0 0 1 -.4.2c-.6-.2-1.4-.4-2.2-.4-.4-.2-1 0-1.5-.3-.4-.1-1-.2-1.7 0l-.7-.4c-.2-.1-.5 0-.7-.2l-.9-.2v-.2h-1.6c-.3 0-.8.1-.7.3h-.2c-1 .3-1.5.8-2.3 1.1-.1.3-1 .5-.8.9l-.4.4c-.3-.1-.4-.1-.8 0-.2 0-.6.2-1 0l-.5-.1c-.3.2-.8.3-1.4.3-.4-.2-1 0-1.5-.1 0-.2-.2-.4-.7-.4 0-.3.2-.6.3-.8v-.2c-.7-.3-.6-.6-.5-1v-.3c.1-.4.5-.6 1.1-.9l1-.4c.3 0 .4-.2.5-.3l.8-.9c.5-.1.5-.3.7-.5l1.5-1c.3-.1.7-.3 1.2-.3.3 0 .4-.2.4-.3h1.3l.1.2 1-.4.2.3h.3l.1.2h.4l.8.1h.4c.5 0 .5 0 .8.2.6-.2.9-.1 1.3 0 .2.2.5.2.7.3.8.2 1.6.5 2.5.6l1 .2c.4.3 1 .4 1.9.3v.2h.3l.3-.1c.8 0 1.4 0 2-.2l.5.3 1.4-.3.9.3c.8-.1 1.5-.1 2.1-.3h.6a7 7 0 0 0 1.8-.4c.3 0 .8 0 1.2-.2l.4-.2h1.1l.1-.1a9 9 0 0 1 3.3 0h.8c.3.2.9.3 1.3.3l1.8.4c.2 0 .5 0 .3.3l.2.2 1 .5c.4 0 1 0 1.4.2l1 .1.8.1 1-.1h2l1.9-.1h1.3l.5-.1c.2 0 .4 0 .4-.2h.3s.2.1.2 0c.3-.2.7 0 1 0h1.1l1.3-.1c.4 0 .4.1.8 0l.9.1h1.5l1.3-.2h1.9l1-.1.4.1 1.5-.2h1.5l3.2-.3c.5 0 1 0 1.3.3l3.2-.4c.8.2 1.3-.2 2-.3.4.2.8.2 1.2 0l1.8-.1 1-.2c.4 0 .7-.2 1.1 0l.8-.2c.2.1.5.1.8 0a6.6 6.6 0 0 1 2 0h.8l1.1-.1h2v-.1h1.2c0 .1-.2.4.4.3-.1-.2.2-.4.7-.4.6.1 1.4 0 1.9-.1.2-.1 1-.2 1.3-.1h1l3-.1h.5c.2-.1.4 0 .8 0h1l-.5.2c.4.1.8.2 1.2 0l1.5-.3c.5 0 1.2 0 1.6-.3l.1.4h1.6c.4-.3 1.1-.1 1.6-.3h.7l.7-.1c.2.2.5.2 1 0v.4l.9-.5c.7.3 1.3 0 1.8 0h.6l1.2-.1h.6l1-.2h.4c1 0 2 .2 3.1 0h1.7c.3 0 .6 0 1 .2h.8l-.1.2h.2c.3 0 .1-.2.2-.3l.7-.4.2.1.5-.1.5.2h2.3l.1-.2h3.6c.2-.3.7-.3 1-.3h.6c-.2.3-.2.3.5.4h.5c.3 0 .8 0 .9-.2 0-.2.3-.1.6-.1l-1 .5 1.2-.2v-.2l.1-.1.9-.2.9.1h.4c.3-.2.6-.2 1-.2h2.9c.3-.1.5 0 .8 0h2.7c.5 0 .8 0 .9-.2l1.3.2c.4 0 .6-.1.8-.4 0 .1 0 .2.2.3l2.9-.2h1.3c.2-.2.4-.1.6-.1l2.3.1h.9l.7-.1h1.9l1.2-.1c.5 0 1.1 0 1.5.3l.4-.1.3-.1.7.2h.5l.1.2h.5l-.2-.4h.6c.3-.1.6-.3.7 0l.5-.3.2.3c.2 0 .4 0 .6-.2l.3.2h.5v.2c.2 0 .5 0 .8-.2h.2v.1l1-.2-.3.3c.5.2 1.2 0 1.7 0v-.3c.4-.2.6 0 .8 0l.6.2-.2-.1.5-.1h.2c0 .1.4 0 .5.2h.9l.6.3h.7s-.1-.3.5-.2c.2-.2.4-.1.8-.1l.4-.3c.5 0 1-.1 1.6 0-.3.2-.7 0-1 .2l.8.1.9-.1c.2-.2.6-.2 1-.1l1.2-.1h1.4l1.4-.1 4-.1c.4 0 .7.2 1.1.3l.1-.4h.1l.7.4.2-.2c0-.2.3-.2.6-.2h.9l.8.1c.3 0 .5.2.5.4l.2.2c.3-.1.5-.2.1-.4h1v0l1-.3c.3 0 .5-.2.8 0h.6l.3-.2.6.2c1-.1 1.4 0 2 .2h-.7c.4.2.5.4 1.1.3v-.3l.3-.1h2l.7-.4.5.2h5.4l1.5-.1h1.3l.8-.1h1.8c.6.2 1.3 0 2 0h.8c.5.1 1.2.3 1.7 0h.2c.6.2 1.2.2 2 .2l-.4.2h1l-.3-.2h.7a20.3 20.3 0 0 0 2.2 0h.3c.3.2.6 0 .9.1h1.3l1 .1.4-.1h1.5c.3.1.6.3.9.2.8-.2 1.8-.1 2.8-.1h.4c.2.1.4.2.6.1h1.5l1 .1c.4 0 .7.2 1.1 0h.1c.3.4.3.4.9.3l.1.2 2.4-.2c-.3 0-.6-.2-1 0-.3 0-.6 0-1-.2.4 0 .5-.2.9 0h4.6c.4.3.8.2 1.3.2h2.9c.3 0 .4 0 .5.2.6-.3 1.4-.1 2-.1h.7l1.4.1 1.5.1h1.3l2.4.2a8 8 0 0 1 2 .2l.4-.1 1.6.2.3.3c-.2 0-.3-.2-.6 0h.6l.2-.3 1.6.4c.4 0 .5-.1.6-.2h.5c.5 0 .7 0 1 .2h2.5c0 .2.2.2.2.3l.9-.2h.8c.1.2.2.4.5.5l.2-.2v-.1l1.7.1.9.1h1.6l.6.1c.6.1 1.2 0 1.8.2l1 .1h.4s0 .2.4.2l.7-.3c0 .2.2.3.3.4h.5c.5-.1 1-.2 1.4 0h1.3c.3.1.7.1.7.3h2.1c.7.2 1.5 0 2 .2h.2c.7-.1 1.4 0 2 .2h.5l.7.1 1.3.1 1.1.2c.2-.1.3-.1.8 0 .6 0 1.5 0 2.1.2l1.1.1h1.2l1.4.2h.2c.8-.1 1.3.2 2 .1.4.3 1 0 1.6.3h.7c.5 0 .8 0 1.1.2.8-.1 1.3.1 1.9.2.8.2 1.8 0 2.6.3h1.5c.6.3 1.5 0 2.1.2h.8c.4.1.9.3 1.4.2h.1c.7.2 1.5.1 2.2.4l.6.1h.1c.5-.1.8 0 1.1.1h.7l.7.2c.8 0 1.5 0 2.2.2h.7l.8-.2.8.2 1.2.2c.5.1.9.2 1.3 0l.6-.1.6.3c.2.1.6.2.9 0h.4c.3 0 .2.2.3.3h.5c0 .2-.6.1-.4.3.7-.1 1.1.1 1.7.3.2 0 .3 0 .5.2-.2 0-.4.2-.5.3.5.3 1 0 1.5 0l.2.2-.3.3h.4v.2l.8-.1c.2.2-.2.3-.4.4.3.2 1.1 0 1.1.5l-.5.3h-.5l.4.2-.4.3-.2.3c-.1 0-.5 0-.7.2l-.2.1.3.3c-.3 0-.5 0-.7.2l-.8.5h-1l-1.1.2-1.7.2-1.1-.1c-.3-.1-.6-.3-1 0h-.6c-.3-.3-.7-.3-1.4-.1h-.3l-.4-.1.2-.4c-.3 0-1 0-1-.3h.2l-.5-.4-.4-.5h-1.4a1 1 0 0 0 -.7 0h-1c-.5-.2-1.2 0-1.7-.3h-.4v-.2l-.7.2s-.2 0-.2-.2-.2-.3-.6-.3h-1.6s-.2 0-.3.2c-.7 0-1.5 0-2.1-.3-.5 0-.8.2-1.3.1h-.5l-.3-.1c-.3 0-.5 0-.9-.2h1.2c.2 0 .1-.1 0-.1-.4 0-.5-.2-.8-.3l-1.1.2.2.2-2-.3.2-.2h-.6l-.8-.1-.2-.2c-.3 0-.7-.1-.8.2h-.9v-.3c-.7.3-.8 0-1.3-.2v.2c-.2.1-.3.2-.6 0l-.8-.1-.3-.2c-.3.2-.4.4-1.2.3l.4-.3-.5-.1.1.3-1-.4c-.2 0-.2.2-.3.2h-2.5l-.3-.1c-.4.1-1 0-1.6-.1a1 1 0 0 1 -1-.1c-.8 0-1 0-1-.3l-.8-.2c-.9.4-.9.4-1.3.3l.4-.2-.3-.4-1.3.4c-.5-.2-.9-.4-1.6-.2l-.5-.3h-.5c-.4 0-.9-.1-1.3-.3l-.1.2c-.8-.2-.8-.1-1.4.1l-.5.1v-.2h-1.5c0-.3.5-.2.6-.2v-.2h-2v-.2c-.4 0-1 .2-1.4-.1l-.3.2-1 .1c-.4.1-.7 0-1-.1-.4 0-.7.2-1.2 0-.5 0-.6-.1-.5-.4h-1.8l-.6-.2h-.2c-.2.2-.6.2-1 .2-.7-.1-1.4-.2-2 0l-1.5-.2c-.3 0-.8.1-.9-.1.3 0 .9 0 .9-.3-.6.1-1-.2-1.4 0l-.6-.4-.4.3h.4l.3.3c-1 0-1.4-.2-2.2-.3-.2.2-.4.2-.8.1h-.9c-.6-.2-1.3-.1-2-.3h-1c-.5 0-1-.1-1.6 0-.2 0-.4-.1-.4-.3l-.6.2h-1.3c-.6-.1-1-.2-1.6-.1a4 4 0 0 1 -1 0l-.3-.2h-.5c-.5-.2-1 0-1.7 0h-2.5l-1.3-.1-2.2-.2-.5-.1-.9.1c-.5-.1-1 0-1.5-.2h-6.5c-.4 0-1 0-1.4-.2l-2.6.2c-.4 0-.5 0-.5-.2l-.5.1c-.3 0-.5 0-.7-.2-.5.1-1 .2-1.6 0l.6-.1c0-.2-.3-.2-.6-.1h-.9l-.3-.1h-.7l-.6-.1h-4.3c-.3 0-.6 0-.7-.2l-.3-.2-.4.1c-.6.2-.6.2-1.1.1l-1 .6h-1l1-.4-1 .1c-.3.2-.6.2-1 .2h-1.5c-.6 0 0-.2 0-.4h-.7c-.2 0-.4-.2-1 0v.4l-1.9.1h-.5c-.7-.2-1.4 0-2 0h-1.7c0-.3-.3-.4-1.2-.4.9.3 1 .5 1 .6zm17.1-1.6c-.3.2-.3.2.3.3 0-.2-.2-.3-.3-.3l-.7-.2c.2.2.2.2.7.2zm16.6-.1v-.6c-.2 0-.3 0-.4-.2l-.3.1c.2.2.2.5.7.7-.2 0 0 0 0 0l-.2.2.3.2h.4l.5-.4c-.2 0-.3 0-.4.2-.3-.2-.3-.3-.6-.2zm-54-.6c.5-.2.2-.3-.3-.5l-.7-.2-.5.4h-.7l.1.2c-.4 0-.2.2-.3.4h-.6c.1 0 .3.1.4 0l.7-.1.1.1c.5 0 .9 0 1.2-.2h.7zm50.8.9-.5.2-.2.4.2.2.5-.2.6.2c.2-.1.4-.2 0-.3l.2-.1h.2l.3.2.6-.2h.7l.3-.2c-1 0-2 .1-2.9-.2zm-45.4-2.6c-.6.2-.7.2-.2.5l.5-.1v-.3l.8.5h.8l-.1-.4h-.9c.1-.4 0-.5-.3-.5s-.5 0-.6.3zm-62.8 1.7.5-.5-.7.2v.3l-.5.1.6.1-.9.8c1 0 1.1 0 1.3-.3l.1-.3c.3-.2 0-.3-.4-.4zm-4.4.7h-1c-.2 0-.5.1-.5.3l.8.2c.6-.1 1 .1 1.7.1v-.1c-.4-.2-1.2-.1-1-.5zm13 .2v-.5l-.5.2-1-.5-.3.3.1.1c.6 0 .3.3.6.4h1zm39.2-2 .3-.2s.2-.1 0-.2h-.9c-.4.1-.4.1-.3.4l-.1.3-.1.1 1.1-.6zm-21.8 1.8h1l-.1-.7-.4.4a19 19 0 0 0 -1.2-.3l-.5.3h1zm-2 0c-.2.2-.7.3-.8.5h.5c.4-.1.5-.1.6.1l.3.2c.4 0 .6-.2.8-.3l-1-.3c-.2 0-.3-.1-.3-.2zm73.3 0h-.5v-.3h-.8c.6.2.3.3.6.5l.7.3h.7v-.3l-.8.1zm-112.7.7-1.5-.4c-.2 0-.3.2-.5.3l.8.2.4-.1c.2.2.4.2.8 0zm76.7-.8h1l.2-.2-.4-.2-.7.1h-.2zm-40.9 1.3c.7 0 1-.3 1-.5l-.8-.1.3.2h-.7zm61.5-2.4c-.4-.2-.6-.3-1-.2-.2 0-.6.2-.6.4zm46.1 1.7h-1l.2.2-.4.1.7.1c.2 0 .4-.2.5-.4zm-117.8-.1c-.2 0-.5 0-.6.2v.1l.3.1h.7c.1-.2-.1-.3-.4-.4zm33-1 .7-.3h-.8c-.1 0-.2 0-.3.2zm1.4-.8c-.1-.3-.5 0-.7-.1h-1.1c.3.1 1.3.2 1.8 0zm54.8 1 1.2-.5c-.8-.1-1.3 0-1.2.5zm-76.8.8h-1.4l.4.3zm71 0v.4l.6-.2h.6l.2-.1h-1.3zm-67.9-1.6.1.4c.3 0 .8 0 .9-.2-.4 0-.6-.3-1-.2zm67.7.8h-1.2l.4.3zm-52.9.4 1.2-.4c-.5 0-.6.1-.9.2l-.5-.2zm138.6 4.8.2.3.6-.3c.3 0 .2-.2-.1-.2zm-104.1-5-.8.3h1.2l-.4-.2zm-53.7 1.2.1.1.7-.1c.2-.1 0-.2-.3-.3zm-30.7.1c0 .3 0 .3.5.7.2-.1.2-.1-.5-.7zm124.3-3 .6-.1c-.2-.2-.6 0-1-.1v.1l.4.2zm-91.9 2.7v.1l.8.2c0-.1.3-.2 0-.3zm46-.7c.2.3.2.3.9.2l-.1-.2zm-86.6-.5h.7c0-.2 0-.3-.3-.3h-.3v.3zm163.4.7c.1-.3-.1-.5-.6-.5zm-9.3 2c-.8-.2-1-.2-1.1 0zm-138.2-1.2c-.2-.4-.4-.4-1.3-.2zm32.6-.7h-1.4l.5.1zm51.2-2.8c.5-.2.5-.2.2-.4-.6.1-.6.1-.2.4zm74.5 6.8-1.1.1h1.1zm-144.5-3.4c.3-.2 0-.2-.2-.3-.2 0-.3.2-.4.3zm80.5-2.3-1 .1h.2l-.1.2zm-26 0h.8l-.2-.1c-.2-.1-.4-.1-.7.1zm42.4.8h-1c.1.2.2.2.3.2l.6-.2zm-34-1.5c.2-.3.2-.3-.4-.3-.2.2 0 .3.3.3zm93.4 7.5c-.4-.3-.6-.3-1 0zm-89.3-6.9h.8v-.1c-.4-.2-.6 0-.8.1zm-36.5 3.3h.6l.1-.2h-.3zm-60.3 1.5c.4-.1.9.1 1.1-.1-.7-.2-.7-.2-1 .1zm167.7-.2c.3.2.3.2.7.2-.3-.3-.3-.3-.7-.2zm-156.4-2.7c-.3-.4-.5-.4-1.1-.2zm132.9 2c-.5 0-.4-.3-1-.2.1.3.1.3 1 .3zm-124.8-4c-.5-.2-1 0-1.5 0zm129.8 3.8c.2.4.2.4 1 .3zm-11.5-1.9c-.1-.3-.1-.3-.9-.3l1 .3zm2 .1c0-.2-.2-.3-.4-.4-.2.2-.2.3.4.4zm9.3 0h1l-.3-.2zm50 4.6 1.4.3c-.4-.3-.7-.3-1.3-.3zm-172.6-5.5.4.2c.2 0 .4 0 .6-.2zm-31.4 2.1c-.3-.2-.4-.2-.8 0 .3 0 .5.2.8 0zm56.5-2 .7-.1-1-.2.3.4zm-3.1-1.6 1 .2c0-.1 0-.2-.2-.2s-.5-.1-.8 0zm131.3 5.2.1-.3c-.3-.2-.4 0-.6 0zm-58-3.3h.8v-.3zm-31-.6-1 .1c.5.2.6.2 1 0zm-24 .1c-.3 0-.6 0-1 .2.4 0 .7 0 1-.2zm-13.9-.5-1 .3c.7 0 .8 0 1-.3zm-26.2 1c0 .3 0 .4.2.4h.3zm122.7 1.4-.4.2.3.2.3-.2zm-138.3-1.7c0 .2.1.3.5.2 0 0 .2 0 .3-.2zm50.7-1.7c-.4 0-.6 0-.6.2h.5zm25 1h.7c0-.2-.1-.2-.2-.3-.2 0-.3.2-.5.3zm28.8-.7c-.6 0-.6 0-.7.2.2 0 .5 0 .7-.2zm-74.2 3.7c.5.2.7 0 1 0-.5-.2-.7 0-1 0zm42.3-2.8c.3-.4.3-.4 0-.4v.2zm39.5-.4h.7v-.4zm46.7 3.8c-.4.2-.4.3 0 .5zm-31.4-2.7h-.7c.2 0 .2.2.4.3zm-49.2-.5h-.5l-.5.1c.9.1.9.1 1-.1zm2.5 1.2h-1c.3.2.6.2 1 0zm-9.8-.8v.2c.3 0 .4 0 .4-.2zm-34 1h.7v-.2h-.3c-.2 0-.2.2-.3.2zm34.3-2c-.3 0-.5.1-.5.2l.5.2v-.3zm-93.2 2.4-.5.2h.7zm6-1.2c.4.2.6.2.9 0zm152.9.8c.2 0 .3.2.7.1.1 0 0 0 0-.2h-.7zm-111.2.2c-.5.1-.5.1 0 .3zm78.4-1.5c-.2.3-.2.3.3.2a.9.9 0 0 1 -.3-.2zm-40.6-2c.5.2.5.2.9 0h-1zm-14.5 4.2h-1l.3.2zm-48.3-2.4h.6l-.1-.2c-.2 0-.3 0-.5.2zm73.3 2.2h-.7l.3.2zm91 1.2c0-.3 0-.3-.7-.2l.6.2zm-99.2-4-.6-.1h-.2c.1.1.2.2.5.2zm16.3.9c.4 0 .5 0 .6-.2-.3 0-.5 0-.6.2zm18.9-.7-.4.1-.3.2h.5c.2 0 .2-.2.2-.3zm33 2.3c-.2.2 0 .3.3.3h.2c0-.3-.3-.3-.6-.3zm-134.3-.2h-.2l-.7.3c.7 0 .7-.2.9-.3zm89.7-1.8c-.4.3-.4.3 0 .3zm34.8 0-.2-.3h-.1l-.2.3zm-9 .8h-.7c.2.2.2.2.7 0zm-77.5-2c0-.2 0-.3-.4-.2zm-52 1.6c-.4-.1-.6-.1-.8 0zm99.2.2c.5 0 .5 0 .2-.3zm-12.9-.6.1-.3h-.5c.2 0 0 .2.4.3zm70.5 1.6-.4.3c.5-.2.5-.2.4-.3zm-179 1.1h-1c.4.1.6.2 1 0zm18.3-.7h-.7c0 .2 0 .2.7 0zm12.7.7c.7 0 .7 0 .7-.2zm150.7-.6-.6-.2zm-65.1 0-.2-.1h-.5l.1.1zm-1.1-.5c.6 0 .6 0 .6-.2zm41.3-1.1h.1c.2 0 .6 0 .3-.3a2 2 0 0 1 -.4.3zm-130.9 0 .4.2.6-.2zm113.7-1.7c.4.3.4.3.7 0zm-51.2 2.3c.4 0 .5 0 .4-.2l-.3-.2zm-46.7 1-.6.2c.5 0 .5 0 .6-.2zm80.1-2.4c-.3 0-.4 0-.5.2zm17.4-.6h-.1l.4.1.3-.2a2 2 0 0 1 -.6 0zm-51.3 1.1c-.3 0-.7 0-.8.2zm-10.6 1 .2-.1h-1zm59.3-1.2h-.2s-.4.1.1.2zm16.7.4.4-.1-.2-.1c-.4 0-.2 0-.2.2zm-46.7-.2h.1l.2-.2h-.5c0 .1 0 .2.2.2zm33.2-.2h-.8c.2.2.4.1.8 0zm-106.6 2.5c.3 0 .4-.1.4-.3-.2.1-.6.2-.4.3zm51.7-2.4-.3-.1h-.2c0 .1 0 .2.2.2zm53.6-.8h-.3l.3.4zm-48.1.4h-.7c.4.2.4.2.7 0zm-49.6 0h.6zm29.1 2c.5 0 .6-.1.5-.2l-.5.1zm-39.4-.1c-.5 0-.6 0-.3.2zm63.1-.8c-.4.1-.4.1-.2.2zm99.1 3c.1.2.1.2.4.2zm-62.9-2.4c.5 0 .5 0 .6-.2zm-55.2-1.9c-.4 0-.5.1-.5.3zm56.6.3c.2 0 .4 0 .7-.2l-.7.1zm-6.8 1 .2-.1-.2-.1h-.2zm7.4 0h.5a1 1 0 0 0 -.5 0zm64 2.5c.1-.3-.2-.2-.5-.2l.4.2zm-123.2-2-.8.1h.8zm-2-.1c.1-.1.3-.2 0-.3zm23.8 0 .2-.3h-.1zm18.7.4c.2-.1.3-.2-.1-.3h-.1v.1c0 .1 0 .2.2.2zm79.5 1.5.3-.2h-.4c-.1 0 0 0 0 .2zm-2.5 0c.3-.1.3-.1.1-.3zm-130.2-3h.3l-.4-.2.1.3zm120.7 2.7h-.6l.3.1zm9.7 0 .2-.1-.3-.1h-.2zm-26.8-1.1c-.3.2 0 .2.1.3h.3zm-49.7-2 .5.3c0-.2 0-.2-.5-.2zm-46 .5c-.5 0-.5 0-.4.2zm-5.9.7h-.5l.2.1zm162.4 4.9h-.3.2v-.2zm-193.2-4.6c0-.2-.3-.2-.7-.1h.7zm142.7-.9-.7.1.7.1zm-131 3.2c.3.1.5.1.8-.1h-.8zm115.8-3.7h.6zm21.7 2-.6.2c.5 0 .6 0 .6-.2zm-48.9-3.5c.3.2.5.1.6 0zm-49 4.4h-.6.5zm37.3-1.9v-.2l-.5.1zm46.4.8c.2.2.2.2.7.2a3 3 0 0 1 -.7-.2zm-36.3-1.1v.3l.4-.1-.4-.1zm-41.5-.7h-.3.2zm-56.6 4 .1.1.2-.1zm84.7-3c-.2-.2-.2-.2-.6 0zm-22.2-.8c.3.1.5 0 .7-.1h-.7zm29-.3h-.7c.3.2.4.2.6 0zm1.5 0c.3.1.5.2.6 0zm-50 0 .8-.1h-.8zm127 3c0 .1-.3.2 0 .3h.2l-.1-.2zm-130.6-2.9-.7-.2c.1.2.2.2.7.1zm-5.9 1.1c-.2-.2-.3-.2-.6 0zm60.7.2h.6zm84.7 2.1v.1h.5zm-105.6-4.7-.3.2h.3c.2 0 .2-.1 0-.2zm-8.3 1.7c.2 0 .3.2.5 0zm-80 1.9-.3-.1h-.2l.1.1zm59.7-.5h-.2l-.1.1.2.1h.2zm64.8-1.6h.2v-.2h-.1zm-86.5.7h.2l-.1-.3zm-17.7 1 .2-.1-.2-.1h-.1v.3zm83.8-1.3h-.7c.3.2.6.2.7 0zm-42.6 1.4v.2h.2c0-.1 0-.2-.2-.2zm133.6 1.5c.2.2.4.2.7 0zm-9.6 0h-.3l-.1.1h.4zm-102.3-1.7-.4-.1h-.2.6zm-21.2-.8h.5zm-42 1.4-.2-.2.1.2zm115.7-2.5-.3-.2h-.2c0 .1.2.2.5.2zm-148.5 1.4-.1.1h.5-.4zm4.8.7h-.3l.2.1h.2zm10.1.5-.4-.2h-.2zm141.7-.5h.2c0-.1 0-.2-.2-.2h-.1zm-94.8-.7c.3 0 .4 0 .3-.3zm-14 .6-.5-.1.6.1zm94.8-1h.5zm37.1 2c.2.2.3.2.6.1h-.6zm-110.3-2h-.5s0 .1.1 0zm91.7-.8-.3.1h.3zm-94.4.3h-.3l.1.1h.2zm131.2 2.3-.3-.1h-.2v.1zm-52.1-2.4h.4zm-18 2h-.1c-.1 0-.5 0-.3.2l.4-.1zm39-2.3h-.5l.1.1h.3zm-115.5 1 .3.3c0-.2 0-.2-.3-.2zm98.3 0 .5.1-.5-.2zm-62.8-.3h-.2v.2h.1zm2.4.8h-.1l-.2.1h.3zm15-.1v-.1h-.5c.2.1.3 0 .4 0zm-93-.7v.1h.4-.5zm71 .3.2-.1h-.3l.2.1zm52.5-.7h-.3l.2.1h.2zm28.6 2.2h-.5zm-74-2.5h-.2l.3.1h.1-.3zm56.3-.8h-.1l.2.1zm-39.5.9v-.2h-.2zm45.9 0-.7.1h.7zm-3 .9-.2-.1.1.1zm-13.7-1.4h-.1l-.1.2zm-62 2.2h.3l-.2-.1h-.2zm-36-1.1c-.2-.1-.3-.1-.4 0zm152 2.5c.1 0 .1 0 0 0 .1 0 .1 0 0-.1l-.2-.1h-.1zm-63-1 .3-.1h-.2zm3.4-1.3h-.4.3zm70.6 2v.1l.2.2c0-.1 0-.2-.2-.2zm-30.2-1.5h-.2l.2.2h.1zm-76.8-2-.2.2h.3zm-92.3 3.6h-.1l-.2.2h.2v-.2zm66.2-1.4h-.3zm76.9-1.4v-.2l-.1.1v.1zm-78.5 1.4h.2l-.1-.2h-.1zm50.8.1.1.2h.1zm8-1.3-.1-.4h-.3l.4.2zm83.9 3.6h.2l-.4-.2zm-108-3.3h-.3l.1.2h.1v-.2zm-5.7-1.4h-.5zm93 5.7.1-.2h-.2zm-153.7-5.4v.1h.5a2 2 0 0 0 -.5 0zm36.5.9h-.1.4zm54.9 0h-.4l.2.1h.2zm21.7 0-.1-.2h-.1zm-105.8.9s0-.1-.2 0h-.4l.1.1zm56.1-2.7h-.1l-.1.2h.2zm-38.4 3.5h-.2v.1h.3z" fill="#82d7b9"/></svg>