<svg fill="none" height="22" width="322" xmlns="http://www.w3.org/2000/svg" xmlns:xlink="http://www.w3.org/1999/xlink"><clipPath id="a"><path d="m0 0h321v22h-321z" transform="matrix(1 0 0 -1 0 22)"/></clipPath><g clip-path="url(#a)"><path d="m149.3 3.6-.2-.1h-3.8l-.2.2h-.5c0-.1-.1 0-.1 0h-1.5a3 3 0 0 0 -.8 0 3 3 0 0 0 -.3.1v.2l.6-.2v.2h.2c.3 0 .6 0 .9-.2h.3l-.2.1h1-.6c.2-.2.4-.1.6-.1h.6-.4l.1.1h.7c.2-.2.4-.2.6-.2h.5-.1c.2-.2.2-.2.3 0l.4-.2.2.1h-.3l.6.1v.3h-1.3l-1.2.1h-.3c-.2.2-.4.1-.6.2v-.3l-.4.2v.2h1.9c0 .2 0 .2-.2.2h-1.8s.3 0 .2-.2h-1l.2.1h.3a.7.7 0 0 1 -.6 0h-.6v.1c-.5 0-1 0-1.4.2l.2-.4h.5l-.3.2h1v-.2h-.6l-.3-.2a7.8 7.8 0 0 1 -1-.1h-1l.2-.1h.8c.2 0 .2 0 .3-.2h-.3l.4-.2h-2l-.2.1v-.1h-.1a4 4 0 0 1 -.6 0h-1.3a1.5 1.5 0 0 0 -.9.1 1 1 0 0 1 -.6 0h-.2l-2.6.1.6.1h.3a1.3 1.3 0 0 1 .7 0l-.4.2.1.1s-.2.1-.2 0a3 3 0 0 0 -1 .1h.5c-.2.1-.5 0-.7.2l-.5-.1h-.8l-.6.1-.2-.1h-.4c0-.1.2-.2.3-.1h.3l.2-.1h.2c0-.2.4-.2.5-.3l-1-.1c-.1.1-.5 0-.7.2h.7-.4l-.3.1-.3.1.3.1-.8.1.3.2h-.4a1 1 0 0 0 -.3 0l.2.1h.2l.2.1-.6.1h-.2l-.5.1h-1.5.2-.8l.7-.3h-.5l-.4-.1a2 2 0 0 0 -.6 0h-1.9v.2h-.1v-.2h-2.8.2c0-.1.1-.1.2 0l-.1-.2v-.1h1.9l-.4.1h2l-.2-.1h1a5.4 5.4 0 0 0 1 .1h.6l-.3-.2h1l.1-.1a5.3 5.3 0 0 0 -1.3 0h-.4l.5.1h-.9.1c.2 0 .2.1.4 0v-.1h-.8l.1-.1h-.5.2-.8a15.3 15.3 0 0 1 -2.1.2 7 7 0 0 0 -.9 0l-2 .1a6.9 6.9 0 0 0 -1.3 0h-2.2v.1l-2 .1c.2.2.4 0 .5.2h-.3c0 .1 0 .2.2.2h.2l.9-.2h.1l.3-.1.5.1.9-.2c-.1.2-.3.1-.5.2h1.9l-.2-.2h.3c.1.2 0 .1.2 0h.7-.4l.2.1h.8l-.4.2h-.2c-.2 0-.3.1-.4 0h-.1l-.5.1h-.3.2v-.1h-.8c-.1.1-.3 0-.4 0l-.4.1h-.6l-.7.3h1.5l-.5.1h-1.1a1.6 1.6 0 0 1 -1 0l.2.2-1 .1.1-.1v-.1c.1-.1.4 0 .4 0l.2-.1h.8l.3-.1v-.1l-.2-.1h-.6l-.6.1h-1l-.3.2h.2l.3.2h-1.2v-.1l.4-.1h-.4l.1-.3h-1.1v.2h-.5l1 .3c-.4 0-1 .2-1.5.1v-.2l-.2.2-.9.2v-.2s.2 0 .2-.2l-.7.1.1.2-.3.1h-.2a1.3 1.3 0 0 0 -.8-.1l-.7.1h-.3l-.1-.1.1-.1h1.5l.2-.1h-.6v-.2a3 3 0 0 1 -.5.2 4 4 0 0 1 -.6 0l.2-.1h-.5a.3.3 0 0 1 -.1.1h-.4l-.5.1h-1.5l-.4.1h-.7l-1 .1-.5.1v.1l-1 .1h.4c0 .1 0 .2-.2.2h-.9l-1.3.1h-.5v.1l-.2.1h-.2c0 .2-.2.2-.3.3h.5l1.6-.2h.2l.2.1-.7.2h.7c-.4 0-.8.2-1.2 0v.1h-.5.5l-.2-.2h-.3a4 4 0 0 0 -.5 0h-.3l.3.2h-.3c-.1.2-.4.2-.7.2-.2 0-.4.2-.6 0l.5-.1-.7-.2v.1l.2.1h-.3c-.1.1-.2.1-.4 0h.3l-.1-.2h.8l.4-.3h.9c0-.1 0-.2-.2-.2h-1.4c.1.2.4 0 .5.3h-.6v-.5l2.2-.1h-.6l.6-.2-.9.1h-.6l-1.2.1h-.4l-.8.1h-.2l-1 .1h-.7v-.2l-1 .1-.1.1h-.4.2c-.3.2-.3.2-.3 0-.1.1-.2 0-.2 0h.2-1 .4v.1h-.8l-.3.2h.4c0 .2-.3.3-.5.3h-1a31.5 31.5 0 0 1 -1.6 0h.6-.1l.2-.2h-.5a1.4 1.4 0 0 1 -.8 0h-.3l-.2.1h-.9l.3-.1h-.3.2v-.1s-.1 0 0-.2h.1l.7-.1 1.3-.1h1l.3-.2-1.8.1-1.8.2v-.1h-1l-.6.1h-.2c-.2.1-.2.1-.4 0h.2v-.1h-.7v.1h-.3l-.5.2c-.3 0-.5.2-.8.1l-.3-.2a2 2 0 0 1 -.8.2h-1c-.3.2-.7.1-1 .1h.2a1.5 1.5 0 0 0 -.8 0h-.3c-.4 0-.7-.2-1 0h-.2c-.2 0-.3-.1-.4 0 0 .2-.5.1-.6 0h-.5l.6-.1c-.3 0-.5-.1-.8 0h-.4l.4.1h-.5l-.3.2h-.4v.1a1 1 0 0 1 -.5.2 1 1 0 0 1 -.4 0h-.3a.6.6 0 0 0 -.4 0 3 3 0 0 1 -1 0v-.3l.4-.1c-.4 0-1 0-1.4.2l-.2.1a1 1 0 0 0 -.4.2h-.2c0-.1 0-.2-.2-.1h-.5l.3-.2-.9.1v.2a1 1 0 0 0 -.4.2l-.5.1h.2c0-.2-.2 0-.4-.1l.3-.1a2 2 0 0 1 -.6 0l-.5-.2.6-.1h-1.1l-1 .1h-1.5l-.5.1h-.2c-.1.2-.4.1-.6.1l-.4.1h-.3l-.4.1s-.2 0-.1-.1h.4l1.1-.2h.2-1.3.3l.4-.1h-.1l-1.6.1c-.2 0-.2 0-.1.2l-1.1.2v-.3a8 8 0 0 0 -.6 0l-1 .2h-.3c0-.2-.2 0-.3 0l-.8.1h-.3l-.1.2h-1.8c-.2.2-.5 0-.7.1-.3 0-.5 0-.7.2a.2.2 0 0 1 -.2 0h-.8l-.1.1h-.5.3-1 .4l-.2-.1a4.5 4.5 0 0 0 -1 .1h-.2l.8-.2c.1-.1 0-.1-.1-.2h.3.2-.6a.6.6 0 0 0 -.4 0l-.7.2h-.3.3v.1h-.1l-.4.3h-.4l-.4.2h1-.4l-.6.2c-.1.2-.2.1-.4.2h-.4l-.4.1h-.2c.3 0 .7 0 1-.3a2.1 2.1 0 0 1 -1.2 0h.2l.2-.1-.2-.1.4-.1-1.4.1.7-.1.2-.1.2-.1-2.4.2.4-.1h-.3c0-.2.1-.2.2-.2l.8-.1.8-.1h.6v-.2h-.5v-.2c-.3 0-.5.2-.8.1h.2l-.2-.1-.2.1c-.2-.1-.4 0-.5.1l-.5.1v-.1h-.3c0 .2.2 0 .4 0l-.8.3.1-.2h-.7.5l.2-.1h-.9l.3-.1-1 .2h.2l-.3.1h-.3c-.2.2-.3 0-.4 0v.1l-.7.1h-1v.1h-.1l-.7.2c0-.1.1-.2 0-.2a6 6 0 0 1 -1.3.2l-.3-.1c.1-.1.3 0 .4 0l.1-.1h.2-1.3l-.3.2h-.8.1l.4-.2.3-.1h.6l.7-.1h-.2l.8-.3-3.2.4v-.2h-.3l-.7.2h-1.2l-.5.1-.6.1a3.7 3.7 0 0 1 -1.1.2h-.1c.3-.2.7-.2 1-.3h.4a46.3 46.3 0 0 0 2-.3c-.4-.1-.6 0-.8 0h-1l-.8.2h-.3c-.4 0-.9 0-1.3.2h.1-1l-.8.1-.3.2h-.8l.5-.1h.6l.5-.2h-.9l-1.6.4h-1l-1.7.3-2.3.4h-1.4l-.5.1h-.4l-2 .4-.8.2h-.2l-.3.1-.8.2h-.2l-1.7.3-1.7.3-1.3.3-1.3.2-2 .4h-.2 1.4l-1.2.4a7 7 0 0 1 -1 .2c-.2 0-.3.2-.6.1l-.1.1h.8l-.4.2c0 .2-.2.3-.6.4h-.2v.1l1.4-.2-.3.3-1 .3-.2.1-.2.3h1.6-.2s-.2 0-.1.2h-.3l-.5.2h.5v.2h.7c.1-.1.3 0 .4 0l-.1.2h-.5l-.2.1c-.3.2-.6.2-1 .3l.3.1-.2.1h.6l-.5.2h.2v.1h.6l.2.2h-.5.2-.4l-.2.1-.2.2.1.1c.2 0 .4-.2.6 0l-.8.1v.2h.7-.3l.2.2v.3h.1c0 .1 0 .1.4 0l-.1.1h-.1l-.2.3h-.3c0 .1.2.2.3.1a.3.3 0 0 1 .2 0l.4.1h.4l-.3.2-.2.1-.4.1h.4a.8.8 0 0 1 .5 0c0 .2-.4.1-.3.4h.6c-.2.1-.5 0-.7.2h.5c-.1.2-.4 0-.5.3.4 0 .7-.2 1 0h-.3v.1a2 2 0 0 0 -.4.1l.1.3h1.4l-.4.2-.5.1c.2.2.2.2.7.2h-.4c0 .2.2.2.2.2h.4c0 .1-.4 0-.4.2h.4-.4l-.1.1h-.2l.2.2h1l-.3.1v.1h-.2v.3h.2l.6-.2-.2.2.1.1.3.1.3.1 1.2-.2c0 .2-.4.2-.6.3h.2l1.1-.2 1.6-.4 1.2-.2a21.2 21.2 0 0 1 1.1-.2l.2.1-.2.1 1-.1h-.3l.1-.2.8-.2h.3l.2-.2.3-.2h1.3c.1-.2.2-.2.3 0l.6-.3h.5l-.2.1 1.8-.3v.1h.4-.1v-.1l.4-.1 1.1-.2.3.1s0-.1.2 0h.1c0-.2.2-.2.3-.2.2 0 .3-.1.4 0h.2l.6-.2.4-.1h.3c.2-.2.4-.1.7-.1h1.5c0-.1.1-.2.3-.2h.3l1-.2c.2 0 .3-.2.2-.3l-1 .2h-.8v.1h-.4.4c.2-.2.5-.3.8-.3h1l.6-.2h.6l.3-.2h.4c-.2.2-.2.2-.5.2l.1.1h.2a.7.7 0 0 1 .5 0h.4a4.5 4.5 0 0 1 1.2 0l-.2.1c.4 0 .8 0 1.2-.2l-.9.1.2-.2.3-.1.3-.2h1.5l.4-.1h-.1c0-.1.2 0 .2-.2h2a5.5 5.5 0 0 1 1.5-.1c0-.2.3-.2.4-.3a1.4 1.4 0 0 0 1 0h.5l.4-.1c-.2-.2-.5 0-.6-.1h.1v-.1h.5a1 1 0 0 0 .5 0h1.4l.7-.2h1.5l.6-.2h.2l.6-.1h.3l.7-.1h.6l.4-.1.5-.2h1l1-.1h1-.2l-.3.1c0 .1-.1 0-.2 0h-.7l-1 .2-1.4.2h-.5l-.1.2c0-.1.2 0 .4 0l.5-.1h1c.4-.2.7-.2 1-.2l1.2-.2 1.2-.2h.6l.5-.1h.4l.5-.1h.8l1.3-.1.6-.1 1.5-.2 1.6-.1.5-.2h.8l2.6-.2 2.1-.3h.4c.3 0 .7 0 1-.2.1.1.3.2.4 0a.2.2 0 0 1 .2 0h1l1.2-.1h.9l.4-.1c.2-.1.2-.1.4 0h.1l1.7-.2.2-.1h.2l.2.3.5-.2h-.4l.5-.1h.2l1.2-.1.4-.1h.5l.2.2s0-.2.2-.1l.9-.2h1.3l.6-.1h.2l.1-.2.2.2v-.1h1l.3-.1h.3c.1 0 0 .1.2 0h.1-.1l-.1.1h1.2l.8-.1h.1c0-.1-.2-.1 0-.2h.2s.2 0 .1.1h1.3v0h.2c0-.2.1-.2.3-.2h.1l.2.2h.5l.2-.1v.1h1.2v-.2a.4.4 0 0 1 -.4 0h.4l.2-.2h.3-.2c0 .2.3 0 .4.2l.2-.1.2.1.1-.2.3.1h-.1l.2-.2h.4l-.3.1h.4s.2-.1.2 0h.2l-.2-.2h.4v.1h2v-.1h3.1l.7-.2.2.1h1l1-.1h.3l.3-.1.3-.1h1.9-.3l.5-.1v.1h.6l-.2-.1.3-.1h1.1-.1v.1h1l-.2-.1h3l.6-.1h-.2l.2-.1h2.5v-.2h.4v-.1h3.6-.1.6-.1a.3.3 0 0 1 .2 0h1.2s0-.2.2-.1h1.5l.4-.1h2.6l.8-.2h2.8c.2 0 .3-.1.4 0 .4-.1 1 0 1.4-.2h3l.2-.2.2.1h4.4l1.5-.1h3l1.3-.2h6.1l1.6-.1h2l.3-.1h.4-.1c.1 0 .3.1.4 0h.4c.3 0 .6 0 .9-.2l.2.2h.3a1 1 0 0 1 .7 0h4.6v-.1h7.4a.7.7 0 0 1 .5 0h.8c.2 0 .3-.3.6-.1.2-.2.3-.2.6 0h3.9a13 13 0 0 1 1.4 0c.3 0 .5-.1.8 0h.8a.2.2 0 0 1 .1 0h4.9a.7.7 0 0 0 .4 0h1l.7-.1h3.9a.7.7 0 0 0 .4 0h7.7l.7.1h4.3c.2.2.4 0 .7 0l1 .1h4l.7.1h2.2-.3.8-.3 5-.7l.2.1h.5a.7.7 0 0 0 .4 0l.2-.1h1.5v.2h.4l-.3-.1h3.3-.3l2.7.2-1.8-.1h3.7-1l.2.1h3-.3 2.2l.4.2.2-.1h1.6c.1 0 .2.2.3.1h5.9v.2l.4-.1h1.3a4 4 0 0 1 1 0h1l1 .1h1.3l1.2.1 2.6.1 2.4.1h1.7l2 .1h2l1.4.1h1.5c.5.1 1 .2 1.4.1l.9.1h1.8l2.1.1 1.9.1 2.8.1h.2c-.6-.1-1.2 0-1.8-.2h3.6l2.5.2h8.3v.1h4.5c.3.1.5.1.8 0h.9c.6.1 1.2.2 1.7.1h.3-.3.8c.2-.2.4-.2.5-.1h-.2.8-.4.9l.6.1h-.2v-.1h1.4a18.4 18.4 0 0 1 3.2.2l.5-.2h.8l1 .1h1.6v-.2h-1.5a15.1 15.1 0 0 1 -3-.1h-4.1l-1.6-.1a6 6 0 0 1 -.8-.1c6 0 12.2.3 18.3.4l-1.7-.1-.2-.2h3.7l1.9.2h.7-.3c0-.1.1-.2.3-.2h1l-.1-.1h.7v.2h1.2-.4.6l.4.2v.2l.3.3.6.2h.6v.2l.2.2.4.2c.1 0 .3.1.4 0l.2.2h.5v.4h.5l.2-.2h.5l.2-.2c.1 0 0-.2-.2-.3a.6.6 0 0 0 .3 0l.1-.2v-.3l.5-.7h.2v-.1h-.2l-.1-.1v-.1l-.1-.1c0-.2.3 0 .4-.1l-.3-.1.1-.2.1-.2-.2-.1.5-.1-.1-.3-.2-.2.2-.1h.2l.2-.1v-.1c-.3-.1-.3-.2-.2-.3h.5c0-.2-.2-.2-.3-.3l.1-.2.3-.3c-.1-.2-.1-.2.1-.2h.1v-.6c0-.1 0-.2.2-.3l.2-.1v-.2c.3-.2.3-.2 0-.3l.4-.4c.2-.1 0-.2 0-.2 0-.1 0-.3.2-.3v-.3l.1-.3.2-.2c.3-.1.3-.4.3-.6v-.2l.3-.2-.3-.1.1-.2s.1-.2-.1-.2c0-.3-.3-.3-.4-.3l-.7-.2-.5-.2-2.1-.1-2.2-.2-1.1-.1-1.5-.1-2.1-.1a23.8 23.8 0 0 0 -2.8-.1h-.5l-.5-.1h-3l-1.6-.1h-3.2a22.6 22.6 0 0 0 -3.3 0h-.6l-1.2-.1h-2.9l-1.4-.2h-2.8c-.5 0-1-.1-1.6 0h-1.1l-.3-.1h-1l-2.1-.1a18.7 18.7 0 0 1 -2.4 0l-.5-.1c-.3 0-.6-.1-.8 0h-.2c-.3-.1-.6-.2-1-.1h-2.2a4 4 0 0 1 -.6 0l-.2-.1c0-.2-.2-.1-.4-.1h-2.8a7.5 7.5 0 0 1 -1-.2h-1.2a5.6 5.6 0 0 0 -1 0h-1.8l-.3-.2h-2.9l-.8-.1h-1.6l-.7-.1-.5.1h-.1l-.4-.2h-2.9a1.4 1.4 0 0 0 -.9 0h-.7.1s0-.1 0 0a1.2 1.2 0 0 1 -.7.1h-.5l-1.1-.2h-.5v-.1h-.9c-.3-.1-.6 0-.8 0h-.5.3c-.1-.1-.3 0-.4 0-.3 0-.5.1-.8 0h-1.9l1.4.2h-2l-.5-.1h-1.4l.2-.1h1.4l-.2-.2h-1.5.1-1.7.1c0-.1-.1-.1-.2 0h-.7l.1.2-.3-.1h-.5a.8.8 0 0 1 -.4 0h-.2l.3-.2c-.2 0-.4-.2-.7 0h-.4l.1.1h-.9c0-.2.3-.1.4-.2h-1.5l.4.2h-2.5a25.6 25.6 0 0 1 -2.7 0h-.4c-.2-.2-.3-.2-.3 0s-.2 0-.3 0h.1v-.2h-.4a1 1 0 0 0 -.6 0h-.6c0 .1.2 0 .4 0l.5.2-.5.1h-.4l1.1.1.4.1h-2.7a7 7 0 0 0 -1.2 0 12.6 12.6 0 0 0 -2.7 0h.4a1.3 1.3 0 0 1 -.7.1h-.7l-.7.1.3.1h.7l-.1.1h.2l-.4.1-1.7.1 1.2.1 1.1.1h-2l-.7.2h-.7c.2-.2.6 0 .8-.1l-.8-.1h-2.8.6v.2h.1-.1v.4h.3l-.2-.2h1.9c-.2-.1-.5 0-.6-.3h.7v.3l.7.2h.6a1 1 0 0 0 .5 0h1c0 .2-.3.1-.5.2h.3v.1h1.2v.2h-1.4.2-.7v.2h-.3c-.1 0-.3 0-.4.2h-.9l.2.2h-.6l.2-.3h-.7l.2.2h-.3a1 1 0 0 1 -.4 0h-2.8l.2-.1h1.9l.2-.1-.9-.1h.4c0-.2-.1-.2-.3-.2l-.2.2h-.2c.2-.3.5-.2.7-.2l.2.1h.3l.5-.2h.2-.4c-.1 0-.2 0-.1-.2h-.8l-.1.2h-.5l-.1.1-.2-.1h-.3l-.1-.1a4 4 0 0 0 -.4 0l-.7.1.1-.1h-.5l-.3.1a1 1 0 0 1 -.3 0h-.3l-.2.1h1.5l.6.1h-.3c.1.3.4 0 .6.2l-.8.1h-1.7l.2-.2-.4-.1a2.2 2.2 0 0 0 -.6.2c-.2-.3-.5-.1-.8-.1 0-.2 0-.2.5-.2h-.3v-.1l.6-.1v-.3l-.3.1h-.5l.1.1h-.2c-.1-.1-.2 0-.2 0-.3 0-.7 0-1 .2h.8c.2 0 .3-.1.4 0h-.2c0 .1-.3 0-.2.2h.4l-.5.1h-.2l.2-.1c-.2 0-.3-.1-.4 0h-.4a3 3 0 0 1 -1.3 0h.7-2.2.4c-.7.2-.8.2-.9 0 .2-.1.4-.1.3-.3l.4-.1h.5a.3.3 0 0 0 .2 0v-.2h-2.3c-.1 0-.3-.1-.4 0h-.3v.1c.1.1.2.2.4.1h.6v.1h-.7c-.1 0-.1 0 0 .1-.2 0-.5 0-.6.2l-.6-.1c.2-.2.5 0 .7-.2h-2.5c.5-.1 1-.1 1.6 0v-.1h-1.2c.4-.1 1-.2 1.4-.1.2 0 .2 0 .3-.2h.3-.3c-.1-.2-.2 0-.5 0h-.6l.2-.1h.4c0-.2-.2 0-.4-.1h-1.6v.3h-.2l1.8.2h-.1a.3.3 0 0 1 -.2 0h-1.2c.1.2.3 0 .4.1a1 1 0 0 1 -.5.2h-.1l-.2.1v-.1h-.5c0 .1-.2 0-.3.2h-.5l.1-.1h-.9c-.2 0-.3 0-.4-.2l-.7.1.3.1-.6.1h-.9c0-.1.1 0 .2 0h.3l.2-.2h.3-1.6c-.1 0-.2 0-.3-.2l-.2.3-.3-.2h-.3a5.5 5.5 0 0 1 -.9 0l.1.1-1.3.1h-3.5l-.1-.1c.1 0 0-.2 0-.2h-.3c-.2.2-.4 0-.6 0-.2.1-.4 0-.6.3h-1 .6l.3.1h.7l-.5.2h-1.1l.1.1 1 .1a1.6 1.6 0 0 1 1.2.1l-.8.1c.2.2.4 0 .7.1h-1.1v-.2l-.2.1v.1h-.2l-.2.1h-.5l-.1-.1h-1 1.1l.2-.2h-1l.1-.4-.4.1h-1l1 .1h-1v.3h.3-1c.3 0 .5 0 .6-.2h-1l.2-.1h.6l.2-.2h-.6a.9.9 0 0 1 -.6 0c.2 0 .3.1.4 0a.8.8 0 0 0 -.5 0l-.5.1h-.7c.1.1.3 0 .4 0h.5v.1l-.7.1h-.6 1.9l.3.1h-.4l-.6.1h-1.8l.3.2h-1.4v-.1h-.4c0 .1 0 .2-.2 0v.1h-.9l-.6-.1-.7-.1h-1.4a8 8 0 0 0 -.7.1l.9.1h-2.3v.1h-.3l.2-.2h-1l.2.1v.1c.4 0 .7 0 .9.2h-1.5.4v-.2h-.5c-.2-.1-.2 0-.4 0h-.3l.6-.1h-.7v-.1h.1l-.1-.1h.7c.2 0 .2 0 .3-.2l.1-.1h-.7l-.2.1h-1.3l-.6.1h-1 .5l.4.1c-.2.1-.4.2-.5.1h-1.6v.2a2 2 0 0 1 -.3 0l-.5.1h.2l.5.3h.6l-1 .1h-2v-.1h-.5l-.2.1-.2-.1v-.1h.2a.4.4 0 0 1 .2 0h.6l-.1-.3h-.5.3l-.2-.2h-.3l-.4.1-.3-.1h-1.2c-.7.2-1.4 0-2.2.2 0 0 0 .1-.2 0h.2-1.4v-.1h.9v.2h.3c.2-.2.4 0 .6 0l.1-.2h-.4.5l.2.1.1-.1h1.5c.2 0 .2 0 0 .1-.1 0-.3-.2-.5 0l1 .1.3.1-.6.1v-.1a9 9 0 0 1 -1.6 0h-.2c-.2.2-.4.2-.6.2h-1.1a4 4 0 0 1 -.5 0l.7-.3-1 .2h.2-.2c-.2-.2-.6 0-1 0l.2.1h-.9.4l.1-.3h.8l-.1-.2h.3-.1a.6.6 0 0 0 -.4 0h-.1l-.3.1-.2-.1s-.2-.1-.4 0h-.3c0 .2.3.1.2.3h.5-.4c-.2 0-.3 0-.4.3 0-.2-.3-.2-.5-.2h-.3l-.3.2v-.2h-.2l.1.2a4.5 4.5 0 0 1 -.7 0h-.4l-.1-.1-.3-.1h-.3l-.5.1h-.6c.2-.1.4-.3.4-.5h.4c-.2-.2-.3-.2-.7 0h.1-.4s-.3 0-.4-.2h.3l.3-.1h-1.6c.3 0 .3 0 .5.2h-.8c-.1 0 0 .3-.3.2v-.1h-.1c0 .1-.3 0-.4 0h-.9.1zm85.7-.6h-.3.5zm-85.7.9h.3-.6zm-71.7 3.4h.3-.5c0-.1.2-.2.2 0zm-31.8 8c0-.2.2-.2.4-.1h-.4c-.1 0-.3.1-.4 0 .1-.1.3 0 .4 0zm18-6.7h.3c0-.1.2-.1.2 0h-.9.5zm184.4-6.5h-.2c0-.1.1-.1.2 0h.5zm-197.5 12.9c-.2 0-.2.1-.4 0l-.3.1h.3c.1-.2.1-.2.4-.1l-.2-.1.3-.1zm129.9-10.6v-.1h.3l-.3.1h-.3zm-21.3 1-.2-.2h.7a1 1 0 0 1 -.5.1l-.1.2-.3-.1zm-67.6 1.4h-.2.5c-.4.2-.4.2-.6.1h.2zm-86.8 14.2-.9.2.9-.2h.5zm192.8-16.5h1.1c-.2.2-.4 0-.5 0h-.5l-.3.2v-.2h-.2c.3-.1.3-.1.4 0zm9.4-.7h.2-.9c.5-.2.5-.2.8-.1zm-76.2 1.2v-.3c.5 0 .7 0 .7.2h-.4a1 1 0 0 0 -.3.1h-.4zm61-.1c.4-.2.8 0 1.3 0h-1.3.7-1zm-70.5 1.3v.1h-1.7 2.7a1.5 1.5 0 0 1 -1 0zm8.6 1.2a.8.8 0 0 1 .5 0h-.5v.1a4 4 0 0 1 -.9 0h.5l.2-.1zm84.7-2h-1l.2-.1.7.1h.1l.4-.1.1.2h-.5zm-79.2-1.3v-.1h.7-.7v.2l-.2-.1-.3.1.2-.2h.3zm90.7-1.4-.1.1a2 2 0 0 0 -.3.2l-.3-.1.2-.2h-.3 1.1zm-75.8 1.1a1.4 1.4 0 0 1 .8 0c-.2.1-.6.1-.6.4h-.2l.2-.2h-.5zm-95.4 4.4a4.9 4.9 0 0 1 1-.2v.1l-.1.2h-.7zm153.6-5.2c.2-.2.2-.2.5 0h-.6.1-.7c-.3 0-.4 0-.4-.2h.8a.3.3 0 0 1 .2 0v.2zm-149.4 5c-.1.2-.3.2-.4.2h-.4l-.6.2v-.1h-.7.1l1-.1 1-.1h.4a1 1 0 0 1 -.4 0zm33.3-.7h1.2-2.3l-.3-.1h1.6zm-17.3.3v-.1h.3-.1c0-.1.3 0 .3-.2h-.2.3-.1.5a2 2 0 0 0 -.5.4c0 .2 0 .2-.3.1h-.1v-.2zm43.3-2.4h.3-.3l-.6.1c-.1.1-.3.1-.4 0h-.4l.2-.3.3.1 1 .1zm58.5-1.6-.3.1c-.2 0-.4 0-.5.2h-.2v-.2h1.2l.3-.1h-.6a2 2 0 0 1 1 0h-.4.3l-.3.2.2.1h-1l.2-.1v-.2zm-84.6 4 1.3-.2.2.1h-.5l.3.1v.2h-1l.2-.2h-.5l.2.2h-.6l.1-.2h.2zm63.6-.6h-1.1l-.7.1h-.7.1c.2-.2.5 0 .7-.1h2l.4-.1h3.1-2.3l-.6.1zm2.5-2.6.1.1h1.3l.2-.2h.6l-.5.2h1.4-2.4a2 2 0 0 0 -.6 0c-.2.1-.3.1-.4 0h-.1.2l.1-.2h.5c-.2 0-.3.2-.4 0zm57-1.2h-1.9a1 1 0 0 0 -.4 0 1 1 0 0 1 -.4 0h-.3a1 1 0 0 1 -.6 0l1-.1h2.4l.2.1h.3zm-16.8.5c-.1-.2-.3-.2-.5-.2a.4.4 0 0 1 -.2 0l-.1-.1h-.3l-.3-.1h.4l-.2-.1h.5l.6.2h.6a.3.3 0 0 0 .3 0h.4c0 .2-.1.2-.2.2h-.7l-.3.1h-.3zm-75 1.2h-.2c.1 0 .2-.2.3 0h.2l-.2.2h.7l-.5.1a1 1 0 0 1 -.6 0 .3.3 0 0 0 -.2 0h-1.7v-.2h.6-.3v-.2h.8l-.3.1h1.1-.1.2l.2-.1zm71.5-2.1h.3c.3-.2.5 0 .8 0h-1.8a.2.2 0 0 0 -.2 0c-.2 0-.5 0-.7.2h-.8l.1-.1-.2-.1c-.3.2-.3.2-.7.1h.4v-.1h-1l-.7.1-.2-.1h-1.6c0-.1 0-.2.3-.2h2.2c.1 0 .1 0 0 .1h3.9zm6.7.6h1.1l-.2.1h-.6a3 3 0 0 1 -.6 0h-1v.2h-.3l-.2-.2 1-.1c.3.1.5 0 .8 0h-.5l-.1-.1c-.1-.1-.2 0-.2 0h-1l-.8-.1.2-.3h-.4l.3-.2h1.4l.5.1h-.5c-.3.2-.8.2-1.2.3h1.5l.4.2h.2zm-95.9 2.8h-.3c-.1 0-.2 0-.1.1h1.7a63.9 63.9 0 0 1 2.5-.2h-.5c-.2.2-.4.2-.7.2h-.6l-.2.1h-.8c-.2.2-.5.2-.7 0 0 .3-.2.2-.3.2h-.1c0-.1.2 0 .3-.2h-.2l-.8.1h-.2l-.1-.1c.1 0 .3-.2.5 0l.1-.3h1l.9-.1h.2v.1h-1.6zm21.6-.9.1.1h4.8v-.4l-.2-.1c.2 0 .2 0 .3-.2.2-.2.5-.2.7-.1l.4.2h-.7.2l-.3.2v.1l-.2.1h1.2a2 2 0 0 1 -.4.1h-.6l-1 .1h-3.1l-1 .2a1.8 1.8 0 0 1 -1 0h-3.3v.1h-.6v-.1h-1.7l-1 .1a1 1 0 0 1 -.5 0h.2l.2-.1h3l1.6-.2h2.9v-.1l.5-.1h.4c-.3 0-.6.1-.8 0zm103-3.1v.1h-.5c.1.1 0 .1-.2.2l2 .1v.1h-.7a4 4 0 0 0 -.3 0h-.7l-.2.1a.6.6 0 0 1 -.3 0 8 8 0 0 0 -1 0h-.2.5v-.1c-.6-.1-1.2-.2-1.8-.1l-.1.1h-.3v-.1h-.3a3.1 3.1 0 0 1 1-.2h.5l.2.1h1.3l-.4-.1a1.4 1.4 0 0 0 -.6 0l-.1-.1h-2.9c.3.1.6 0 .9.2h-1.4l.2-.5h1v.1h-.6 4.2l.7.1zm-92.1 2.5a2 2 0 0 1 -.4 0 1 1 0 0 0 -.7 0 1 1 0 0 1 -.6 0v.3h-.2c0-.2.1-.3.4-.3h-.1l.1-.1h.4l.1.1h.5l-.1-.2c-.4 0-.7-.2-1 0l-.3-.1h-.6l1.5-.2h.6l.4-.2h.8l-.4.2h.4l-.7.3.8.1-.2.1h.4l-.3.2h-.7l-.1-.1zm51-.8-.5.1h-3a.4.4 0 0 1 -.4 0h.2l.5-.1c.2 0 .5 0 .5.2l.2-.2c-.2-.1-.5 0-.6-.2h.4l-.2-.2h1l-.7.1c0 .2.3.1.5.2h.5c.1-.1.2-.1.4 0h.3l.2-.2h-.7v-.1h.5a1.5 1.5 0 0 1 1 .1c-.3 0-.5 0-.7.2h.8l-.4.1h.3zm45-1.3.9.1h1.2l.8.1h.7l-.4.1c-.1 0 0 0 0 0v.2h-.3v-.2h-.7l-1.4-.1h-1.3l-1.2-.1.1-.2h-.2l.2-.1h.5c.1-.2.3 0 .4 0h-.2.7-.1.8-.4l.3.1h-.5zm-118.2 3.3-1 .1h-2a.4.4 0 0 0 -.2 0l-.3.1a1 1 0 0 1 -.3 0h-.3l-1.5.1h-.5v-.1h1.9l.2-.1h1.1l2.4-.2h.3zm21.8-.7h1.4l.3-.1h3.7c.3-.2.5 0 .7 0h.1l-.9.1h-1l-.7.1h-.5a6.6 6.6 0 0 0 -1 0h-2.1zm20.2-.4h2.9a8.5 8.5 0 0 0 1.8 0h2.9a4.8 4.8 0 0 1 -1.1 0h-2a19.2 19.2 0 0 0 -1.6.1h-.3c-.1 0-.4 0-.6.2h-.2v-.2h-1.8zm20.8-1h.5l.3-.1h.3a.9.9 0 0 1 .7 0 .3.3 0 0 0 .1 0h.6l.2.1v.2h-.5c-.3.2-.6.1-.9.2v-.2h-.6l.2.1-.9-.1zm-26.8 1.3h1v-.1h-.7l1.1-.1.8-.1v-.1h.5l-.3.1c.3 0 .5.1.8 0h-.2c0-.2.2-.1.3-.1 0 .2 0 .2.2.2h.7-.5c-.2 0-.4 0-.5.2l-.3-.2v.2h-1.2v-.1c-.1 0-.2.2-.4.1 0 .2-.1.1-.2 0h-.7a2 2 0 0 1 -.4 0zm74.3-3.8h-2.8l-.3-.1v-.2l-.2-.1h2.5l.6.2.1.1zm-62 3h3.2l-.6.2h-.6a17.2 17.2 0 0 0 -2.4 0l.2-.2h.1l.3-.1h1.7c-.2 0-.5.1-.8 0h-1zm-73.2 2.3.2-.2h1.4a21.5 21.5 0 0 1 1.2 0l-.2.1v-.2l-.7.1v.1h-.2l-.2.1h-1.6l-.4-.1h.5zm135.2-5.1h3.4-1l-.1.2h-.4c0-.2 0-.2-.3-.2zm-134.7 6.3h-.6l-.5.1h-.6c0-.2.1-.2.3-.2h.2l-.5-.1 1.1-.1-.4.1h.7c.2 0 .3 0 .3.2zm93.2-3.8h-.2a.8.8 0 0 0 -.6 0h-.4l-.4-.2-.4-.1h.6l.4.2a11.8 11.8 0 0 1 1.5-.2h.3l-.7.2v.1zm-79.5 3-.6-.1h1.4l-.2.1a3 3 0 0 1 1.3 0h-.1l-1.1.1h-1.3zm-17.8.6a18.4 18.4 0 0 1 -2.4.2h.3c-.2-.2-.4 0-.6-.2h1.4-.3zm-55.3 2.7c-.6.2-1.2.3-1.9.3 0 0 .3 0 .3-.2-.1 0 0 0 0-.1h-.5c.6-.2 1.3-.3 2-.3l-1.3.3.3.1h1.1zm145.6-5.3.4-.1h3l-.3.1a1 1 0 0 1 -.4 0zm49-3.6.6-.1h2l1.4.1h.2-4.3zm-30.8 1.4h1.2l1-.1.6.1s0 .1-.2 0a.7.7 0 0 0 -.6.1h-2zm31.2-1.9.8-.1h1.6a1.4 1.4 0 0 1 .7.1zm-.4 0h-2.5a2 2 0 0 1 -.7-.1c.3 0 .6-.2.8 0l.5-.1a17 17 0 0 1 2 .1zm-14.4 3.1h.5-1-.3l.3-.1c0-.2 0-.2-.3-.2h-.3l.1-.1h.6l.1.1.2.1.7.2zm-131.3 2.8h1.4-.3l-.2.1-.2.1-1.8.2h-.2l1.3-.2zm156.5-4.3c-.3 0-.6 0-.9.2h-1l-.3-.3h2.2l.1.1zm-41.2.8-1.1.1h-1a3 3 0 0 0 -1 0h-.7a.7.7 0 0 1 -.5 0h.9a4.3 4.3 0 0 1 1 0l.1-.1v-.1l.6.1zm6.4-.2h-.7.3l-.2-.2.4-.3.7.1h-.2v.1h.5c-.4.2-.8 0-1.2.3zm82.3 8.6v.1h.4-2.1l-.5-.1c.3-.2.7 0 1 0l.5.1h.4zm-81-7.6h1.6l.5-.1h.6l-.6.3v-.3l-.6.1h-.7l-.8-.1zm-50 .2c.6-.1 1 0 1.5.2h-.6a.7.7 0 0 1 -.4 0 .5.5 0 0 0 -.4 0h-.3.7l.2-.1h-.6zm-87.5 9.7a5.1 5.1 0 0 0 -.6 0h-.1.4l-.3-.1 1.6-.2-.3.1v.1l-.9.2zm80-9h2.5c-.2.1-.2.1-.4 0a1.2 1.2 0 0 0 -.6 0l-.3.1h-.5l-.6-.1zm-.3.2h-1.9l-.1-.1.4-.1h1.3zm45.1-2.2h.1a12 12 0 0 1 1.5 0h1.2-.4l-.4.2h-.2l-.5-.2h-.5l-.8-.1zm23.7.6.1-.1.8-.1.5.2-.5.2-.6-.1h.5zm-47.2 1.8h-.5l-.4.1h-.5.3-.1c-.2 0-.4 0-.5-.2h-.5 1.3-.5 1.4zm62.6-3.1c.6-.1 1.1 0 1.6 0a1 1 0 0 0 -.6.2h-.4c-.2 0-.2 0-.1-.2a1 1 0 0 1 -.5 0zm-106.2 4.7c0-.2.3 0 .3-.2h-1c-.1 0-.2 0-.1-.1h2l-.6.2a2 2 0 0 1 -.6 0zm73.2-3c-.3.2-.5 0-.8 0l-.5-.1.3-.1 1 .1zm-113.8 3.1h-.2l-.2.1h-.7v-.1h.3c.3.1.2 0 .4 0l.5-.1h.5c-.3.2-.6.2-1 .2l.3-.1zm17.7-.6 2-.1c-.3.1-.6.2-.9.1h-1.2zm-76 2.3c-.7.1-1.5.3-2.3.3.1-.1.4 0 .5-.2h-.3l.5-.1v.2l.7-.2h1zm62.4-2h.2a4.7 4.7 0 0 0 1-.2h1l.2.1h-1.5a6.4 6.4 0 0 0 -1 .3zm-7.8 1.2c.3 0 .5-.2.7 0h1.2-.6a3 3 0 0 0 -.7.1h-.2c-.2.1-.2-.1-.4-.1zm118.5-4h.6a.4.4 0 0 1 .3 0h.5-.1l-.3.2h-.2l-.2-.1h-.6zm-151.6 5.5 1.3-.1v-.2h.2c.1.1.3 0 .4 0h.4c-.2.2-.4.2-.7.2h-.3c-.4.1-.8.2-1.3.1zm12 5.1-2.5.3v-.1h.1l.1-.1h1.7a.9.9 0 0 1 .5 0zm163.8-12.6h1.6-.6c-.5 0-.6 0-.7.2h.6c-.3.1-.5.1-1-.2zm-52 1.7.6-.1.4.1-.3.2h.2v.1c-.3 0-.5-.2-.8-.1zm-83 3.9c0-.2.3-.2.4-.2h1.6-.2a1 1 0 0 1 -.3.1h-1.3zm55-1.9s0 .1-.1 0h-.5l-.8.1h-.2v-.1h1.7zm-17.6-.7-.2.1h-.5.3l-.2-.1.2-.1a4.4 4.4 0 0 0 -.7 0h-.1 1.2zm108-3.5-.3.1h-1.5v-.1h.2a3.2 3.2 0 0 0 1.2 0h.2zm-167.7 8.1h.4c-.2 0-.4.2-.6 0h-.4l-.2-.2h.5l.3-.1.2.2h-.2zm35.5-3.7h1.3l-.5.2h-.5v-.1h-.3zm64.8-1a4 4 0 0 1 1.8 0h-1.7zm-36.2 1v.1h-1c-.3.2-.3.2-.6 0h1.6zm-90.2 3.5-2.3.3 1.1-.2h1.2zm94.6-4h.3l2.3-.1h-1.7l-.7.2h-.2zm19-.9h-.2.6c.3 0 .5-.2.7-.1-.4.2-.9.2-1.3.2h.1zm-91.2 3.1v.1h-.5l-.8.1h-.2zm-20.4 1.5-.2.1-.9.1h-.8l1.8-.2h.2zm-32.1 12-2.4.4a8 8 0 0 1 2.4-.4zm196.4-17.8h.2a.8.8 0 0 0 .5-.1h1v.1zm-37.5 1.7c.2-.2.3-.3.5-.3h.8c-.3.2-.6.1-.9.1 0 .2-.1.2-.4.2zm-71.9 3h.4l.5.1-.3.1a1 1 0 0 1 -.3 0v-.1h-.3zm135-6.3c-.2.1-.4.2-.5.1h-.8v-.1zm-53.8 3.3h-1.1c0-.2 0-.2.2-.1h.4l.5-.1zm-123.6 9.7-.6.1c-.2 0-.3.1-.4 0h-.4.5c.1 0 .3 0 .4-.2zm101.2-9.3h1.4-.8c0 .2-.3.1-.4 0h.2zm16.2-2.2-.3.2h-.5v-.2zm-50.2 2h-1.4l1.1-.1h.3zm-3.6.7h-1.3c.4-.2.9-.2 1.3 0zm-41.8 2h.3a5.6 5.6 0 0 0 1.3-.2h.2l-1.7.3zm.4.5h1.3zm151.5-5c0 .1-.3.2-.5.1h-.8.2l.3-.1h.9zm-89.4 2.4h1.1s-.2.1-.4 0zm95.1-2.8h-.5l-.4-.2h.8zm-26 .5.6-.2.2.2-.6.1zm-45.9 1.8h1.5-.3v.2h-.4.1l.2-.1h-1zm73.4-2.3.5-.1.6.1h-1zm-79.1 2.7.2-.1h.2c.2-.2.4-.2.6-.1h-.2l-.2.1h-.6zm54-1.8h-.7a1.9 1.9 0 0 0 .4-.2.4.4 0 0 1 .3 0h.1v.3zm-192.2 15.5c0 .2-.3.3-.4.2h-.5c.3-.3.6-.2.9-.2zm183.7-15.7h-.2c0 .1 0 0-.1 0h-1.1.4l.3-.1h.3l.2.1zm-83.6 2.1h1.4zm57.3.3c0-.1-.1-.2-.3-.2h.7c0 .2 0 .2-.4.2zm22-3a1 1 0 0 1 -.5 0 1 1 0 0 1 -.5 0l1-.1zm-88.4 3.7h1.1zm25.3-2.5c.3-.1.5-.2.8 0l.2-.2-.1.2h-1zm-119 15.7-1.3.4c0-.3.4-.2.6-.3h.6zm136-14.3h-.1l.1-.1h.9l-1 .1zm-86.5 8.5-.1-.1.2-.1 1-.1-.6.1zm177.1-11.6-.3.2-.3-.1h-.3v-.1h1zm-24.4.6h.2l.1-.1h.1a.4.4 0 0 1 .2 0h.1v.1zm-65.3 1.2c0 .2 0 .2-.5.2v-.3h.5zm-101.3 10.8c.3-.3.6-.2 1-.2a2 2 0 0 1 -1 .2zm12-1h.2l.8-.1a.5.5 0 0 1 .4 0l-1.3.2zm184.5-11h1.1l.4.1h-1.5zm-220.9 14.7c-.2.3-.6 0-.9.2h-.2zm219.4-16h-1.3zm-192.2 13.3.6-.1c.2 0 .4-.2.6 0l-.8.1zm-23.7 2.6c-.4.2-.6 0-1 0l1-.1zm168.7-13.8h-.2-.2l.4-.1.3.1h-.5l.2.1zm-102.3 3.5a2 2 0 0 1 -1 0zm153-4.6h-1.5 1.6zm-75 1.4.4-.1s-.1.1 0 .1h.5c-.2.1-.4.2-.5.1a1 1 0 0 1 -.5-.1zm-31.6 2.7v.1a3 3 0 0 1 -.8 0c.3-.2.6 0 .8-.1zm-81 7.3a2 2 0 0 1 -1.2 0zm90.4-10.5a3 3 0 0 1 -1 .1 2 2 0 0 1 1 0zm34.2-.4h-.6c-.2 0-.4.2-.6.1l.2-.1zm-78 2.6a1.6 1.6 0 0 1 1 0zm41.8-1.5a2 2 0 0 1 -.9 0h1zm-71.6 3h.9c-.3 0-.6.2-.9 0zm138.2-3.3a1.3 1.3 0 0 1 .8 0h-.4a1 1 0 0 1 -.4 0zm-165.8 11.3.4-.1h.4zm98-11.5h-.3c-.1 0-.3.1-.4 0h.8zm-23.6 2.2h-1.1 1.2zm100.1-3.4-.7-.2h.8v.2zm-156.4 6.2c-.2.1-.5.2-.8.1.2 0 .5-.1.8 0zm9.8-1.9h.7l-.6.2zm3.4 2.5-.4.1c-.2 0-.4 0-.5.3l-.1-.3h1zm12.8.8h-.2a2 2 0 0 1 -.4 0h-.2.7zm212.5 1.2h1.1zm-220.4.9c-.2 0-.4.2-.8.1zm136.9-11h.2a.5.5 0 0 0 .3 0h.3zm-123.6 4.7v-.2h.8c-.3 0-.5.2-.8 0zm58-.6a1.3 1.3 0 0 1 -1 0zm15.7-1.3v.1l.2.1h-.3v-.1h-.3v-.1zm-21.6.8h-1zm-24.8.2a1.7 1.7 0 0 1 -1 0zm-56.5 2.9c0 .2-.2 0-.3.1h-.7l.8-.1zm15-.3h-1 .9zm57.6-2.2h.9a1.5 1.5 0 0 1 -1 0zm81.7-2.5-.4-.3c.5 0 .6 0 .7.2h-.3zm-42 1.2.1-.1a1.1 1.1 0 0 1 .7 0l-.7.1zm-38.4 2-.6.1s-.1 0 0-.1zm11.6-1.4h1.1l-.5.1h-.6zm17.5.4c.2-.2.4 0 .6 0h.5zm32.3-2.6h.9a1 1 0 0 1 -.9 0zm.3.8c.2-.2.4-.2.5 0zm-63 3.5h1a2 2 0 0 1 -1 0zm-30.6-.5h.2v-.1h-.3l.7-.1c-.3 0-.3.3-.6.2zm-31.4.7h.5l-.1.2h-.3v-.2zm86-3.5.2-.1h.4c-.2.2-.3.1-.5 0zm9.4 2.9a2 2 0 0 0 -.4 0h-.6zm47.6-2.4c.2-.2.4-.1.5-.1h.5-1zm-58.6 1h.3l.1.1-.2.1h-.2v-.1zm-51.2.4-.7.1v-.1zm-65.5 3.2-.2.1h-.6c.3-.1.6-.1.8 0zm80.7-4.2c-.2.3-.4.3-.6.1h.6zm116.3-1.9h1.2zm-98 4.3c.3-.2.5 0 .8 0zm85-3.4h.7-.8zm-63.2 0c-.2.2-.4 0-.6 0zm-.1.7h-1a1.7 1.7 0 0 1 1 0zm-74 4h.2l.1-.1s.1-.1.2 0h-.1.4l-.3.1zm-61.2 1.6.2-.1.7-.1h.2zm175.8-7.1h.6c-.3.2-.3.2-.6 0zm33-1h-.8c.2-.1.6 0 .8 0zm-58.8 2.9h.7-.2a.7.7 0 0 1 -.3 0zm31.4-1.6h.7zm-118.2 4.2h.7-.8zm149.7-6.8v.1h-.7.7zm-58.4 4.4-.6-.1c.2 0 .4-.1.6.1zm47-4.4h.5l-.3.1zm-235.2 14.4.4-.2.2.1-.3.1zm245-11.9h-.4c-.1.1-.2.1-.4 0 0 0-.1.2-.2 0zm-216.1 7.4c-.2.2-.6.2-.9.2l1-.2zm76.8-3 .7-.1h-.7zm3.4-.8h.9a2 2 0 0 1 -.9 0zm26-2h-.7zm83-1.2-.2.1h-.3c.1-.2.1-.2.5-.1zm23-1.7-.8-.1h.8zm-148.2 7v.2h-1l1-.1zm48.7-3.3h.7zm104.3-3.4c.2-.2.4-.1.7 0a1 1 0 0 1 -.7 0zm-182.1 6.7-.2.1-.2.1c0-.2 0-.2.5-.2zm15.7-2 1-.1h-1zm89.5-2h1zm55.5-.7v-.1h.8-.8zm-65.9 2.2h-.7a1 1 0 0 1 .7 0zm-81.5 1v-.2h.3c0 .2-.1.3-.3.3zm152.1-4.5h.8zm-208.8 6.3.5-.1c-.2.2-.2.2-.6 0zm97.5-2.8-.3.1h-.7 1zm-45 1.3-.6.2c0-.2 0-.2.5-.2zm-34.2 8.9.5-.1-.3.2zm178.1-12.7-.4.2v-.3zm-53.5 3h-.7.6zm49.2-3.1a1 1 0 0 1 -.5 0zm-147.4 8.7v-.1h.1l.2-.1h.2zm89.8-6.4a1.2 1.2 0 0 1 -.9 0zm36.8 0h-.7zm85.3 5.5h-.9zm-152.4-5.3c.2-.2.4 0 .7-.1-.3 0-.4.2-.7 0zm77.4-3.7h.6a.8.8 0 0 1 -.6 0zm-43.5 2.6h-.7zm-54.4 1.1-.4-.1zm41.5.3a2 2 0 0 0 -.3 0h-.3l.3-.2c.1 0 .3 0 .3.2zm-21.7 1.1c-.2.2-.4 0-.6.1h-.1zm80-4.4h.7-.6zm17.6.2v-.1h.9-.9zm-13.8.7h.7a1 1 0 0 1 -.7 0zm-63.4 1.4h-.7zm-65.6 2h.4zm44.8-1.5h-.6zm-84 3 .2-.2h.4l-.7.2zm-36 3h-.6zm114.8-4.2c.2-.2.3-.2.6 0zm63-4.2-.2.1h-.1v-.2zm-179.3 9.7.4-.1zm159.4-8.9h.6zm72.6-1h-.9zm-154.2 4.1h.6zm6.5.3.3-.1h.3c-.2 0-.4.2-.6 0zm-23.8 2h-.7a1 1 0 0 1 .7 0zm99.7-3h-.7zm81.4-3.7c-.2 0-.4.2-.5 0zm-21.9 7.1h-.8zm-12-6-.3-.2h.3l.2.2zm-170.1 12h.4zm66-9.5a1.3 1.3 0 0 1 .8 0h-.9zm62.4-2.7h-.1l-.2.1h-.2zm27.4-.2h-.5c.2-.2.4 0 .5 0zm-106.5 2.9h.2-.5c.2 0 0-.3.3-.2v.1zm48.7.5h-.5zm-44.7-.3h-.5zm-62 10h-.6.5zm206.8-13.7v-.2a1 1 0 0 1 .6 0h-.6zm-11.2-.4.7.1h-.7zm-106.3 4a1 1 0 0 1 -.6 0zm21.2-2h-.6zm37.7 1.9h-.5zm.4-1.3h-.7zm-14.6-.4h.5zm-64 2.8c-.6.1-.6.1-.8 0zm183.4 3.6h.7zm-180.1-3.1h-.6zm-66.6.4c.3-.2.3 0 .5 0zm-6 1.6c0-.2.2-.1.3-.2h.2l-.6.2zm130.8-4h-.7zm-13.5-1.8v-.1h.7-.7zm-3.3 1h.5c-.3.2-.5.2-.5 0zm-9.7 1.8h.5zm114.6-6.4a1 1 0 0 1 .6 0zm-95.6 3.1h.5a.7.7 0 0 1 -.5 0zm-60 8h.7zm60-7.8c-.1.2-.2.1-.4.1h.4zm-31.5 2.8h-.6zm59.3-3.4h.5zm-4.1 3.2h-.5zm4-3.3c0 .2 0 .2-.4 0zm-36.6 3h.6zm57.4-1.5h.6zm-111.4 3h-.6zm111.5-1c.1-.1.3 0 .4 0zm-89-.6h.7zm96-3.1c.2-.3.4-.1.5-.1 0 .1-.3 0-.4 0zm-111 3.3h.5-.6zm113.3-1.1c-.1.1-.3 0-.4 0zm.3-2h.5c-.3.2-.4 0-.5 0zm-130.7 4.3h.6zm-16-.1h-.6.5zm164.3-6.8h.5a.9.9 0 0 1 -.5 0zm-178.6 8.1c.2-.2.2-.2.5 0zm114.1-4.7h-.4c.3-.1.3-.1.4 0zm73.8-4h.7zm-189.4 15.2v-.1h.5-.5zm127.8-10h-.3zm-14.5.8h-.3v-.1h.3zm-66 .5h-.5zm45.3-1.3c-.2.1-.2.1-.4 0zm47.3 1.4h.5zm-60.2-1.6h-.3.2v-.3h.1v.2zm-34.9 2.3c-.2 0-.3 0-.3-.3h.1c0 .2.2.2.2.3zm127.4-5c.2-.3.2-.3.5-.2l-.5.1zm-148.2 4.5c.1 0 .3-.2.5 0zm191.3-3h.6zm-143.2.2a.7.7 0 0 1 -.6 0 .5.5 0 0 0 .4 0zm-.7 1.8h.6zm82.8-2.1.4-.2c0 .2 0 .2-.4.1zm-121 4.3c-.1 0-.3.2-.5.1h.5zm68.1-1.3h-.4zm-149.4 13.6c.1-.2.1-.2.3-.1h-.3zm18.9-1.8h-.6zm127.4-13.1c.1-.2.3-.2.4-.1h-.4zm-52.5 2.6h-.4.5zm132-8.1h.4l-.3.2v-.2zm.6 3.5.4.1c-.3.1-.3.1-.4 0zm21.3-2.9h-.5zm-139.1 5.9c.1 0 .3-.2.5 0zm-6.5 1 .2-.1h.2c-.2.2-.3.1-.4 0zm-52.7 7.6c.2-.1.2-.1.4 0zm66.2-10v-.1h.4-.4zm42.4-.3h.5zm-42-.5h-.3.1a.3.3 0 0 1 .2 0zm55.2.2h-.4zm3.6.7h.6zm46-2.1a.7.7 0 0 1 -.6 0h.5zm-149.7 9.7h.5zm76.5-8.4c-.3.1-.3.1-.4 0zm-.4-.2h.4c-.1.2-.3 0-.4 0zm47.3.4h.5zm-54 .3a.3.3 0 0 1 -.2 0h-.1.4zm-81.6 3.6h.4c-.1.1-.3 0-.4 0zm106.5-5.2c.2 0 0 .2.2.2h-.2zm-24.3 2.8h.4zm-102 9.8c0-.2.2-.1.3-.1 0 .1-.2 0-.4 0zm200.4-13.1h-.6zm-77.4 2.2-.1.1h-.2.3zm-73 4h-.4l.3-.2v.1zm-2.7-2h.5zm0 .2c-.2.2-.2.2-.4 0h.3zm22.8-1h-.4zm-29 4c.1-.2.2-.1.3-.1h.3-.6zm.2-.9c-.1.1-.2.2-.4 0zm38.3-2.5c.2-.1.2-.1.4 0h-.5zm-104.4 12.5h.3zm98.8-13h.6zm39.1-.5.3-.1v.1zm-95 2 .4-.1h-.5zm100.1-3.3h-.3v-.1h.3zm-111.8 10.6c-.3.1-.3.1-.4 0zm-21-7-.6.1h.5zm126.1-2.8h.5zm78.4-4.7a.3.3 0 0 1 .3 0zm-56.6 5.2s-.1.2-.3.2c.1 0 0-.2.3-.2zm-140.5 3.5h-.1a.4.4 0 0 1 -.2 0h-.2.4zm181-6.1h.4zm27.4 0v.1l-.1.1h-.1v-.1h.1zm-132 4.2h.3-.4zm-25.5.2h.3zm88-2.2h.2zm-47.7.5h.5zm62.8 0h-.5zm51.4-5.7h.4zm-20.3 2.6c0-.2.2-.2.3-.1h-.3zm-92.6 3c-.2.1-.3.2-.5 0zm25.8-.5h-.1l-.2.1zm1.8-.1c0 .1-.1.2-.2.1h-.1zm-108.6 10.2h-.5zm175-11.2h.3zm11.8-.5.3.1zm-105.6 1.9h-.4zm29.8 3.2h-.3v-.1h.3zm-54.6-3-.2-.1h.1l.2-.1v.2zm-36.3 3.4h.5zm83.9-5s.2-.2.3 0zm110.9 7h.3zm-150.7-5v.1h-.3.3zm-87.8 11.5c-.1.1-.1.1-.4 0zm208.6-16.6h.4zm-176.8 7.2h.4zm140.8-4.8h-.2v-.1h.2zm-61.7 2h.4c-.2 0-.3.1-.4 0zm96.8-2.7h.3zm-96 1h.3zm-37.3 2.5h.3zm-46.2 8.5h.5c-.2 0-.3.2-.5 0zm199.7-10.6a.6.6 0 0 1 -.4 0zm-234.7 15.1-.4.1h.4zm50.8-9h.3zm157.6-6.5h.4zm51.5 7.5a1 1 0 0 1 -.5 0zm-198.9 1.2h-.4c.1-.1.3 0 .4 0zm61.3-5.7v.2c-.1 0-.1-.1 0-.2zm82.7-4h.4zm-9.7 0h.4zm-129.4 6.4h-.3zm-42-1.4h.4-.5zm117-1.8h-.5.4zm87.6-5.3h.3zm-42 1h-.4c.2-.2.3-.2.4-.1zm12.2 1.8h-.3zm-6.4-.3h-.5a.8.8 0 0 1 .5 0zm-116.4 5.6h-.5zm-58.3 8h-.4zm140.3-13.2h.3zm42.8.3h-.3zm-149.8 7h.4zm-2.3.5h.4zm106.6-6.2h-.3zm-.6-2h.3zm35.3-1h.3zm-149.3 9.3h.4zm138.2-6.7h-.4zm-25-1.8.1.2c-.2 0-.2 0-.2-.2zm43.5.5c0 .1 0 .2-.1.1-.1 0 0 0 0 0h.1zm-38.1 0c0 .2 0 .2-.3.2l.3-.1zm-74.8 2.6c0-.2 0-.2.3-.1h-.3zm-51 9.3h.4zm89.6-10h.2c-.1.1-.1.1-.2 0zm-33.8 2h.4a.3.3 0 0 1 -.4 0zm0 3.7h.3zm80.4-6.3h.2zm-163.2 13.7h.3zm278.3-7.3v.1h-.3.3zm-153.3-5.7h-.4.3zm154.4 5.8h.3zm-154-4.5h-.3c0-.1.1 0 .2 0zm61.3-3.4h-.2zm-141.5 10.1h.3zm47.8-8.6h.3zm-40.5 1.7c0 .1 0 .2-.2.2v-.1h.2zm82.4-2h-.4zm-81 8v.1h-.2.3zm133.2-8.6h.3zm91.4 7.3h.3zm-296.8 2.8h.3zm174.5-10.5h-.2zm17.5 1.8h-.3.2zm-190 16h-.4.3zm73-10.1h-.3.4zm28.3-1.6h.3zm-101 1.7h.3zm205-8.2c-.2.1-.2.1-.4 0h.3zm-132 3.3h.3zm.4 2.4h.2zm1 .8.2-.1h-.3zm150.4-7.9-.2.1h-.1.3zm-96.7 2.4.2.1zm32.6-.2h-.3zm-48.9 3c-.1.2-.2.1-.3.1h.3zm37.4-2.8h.3zm33.8-.6h-.3.4zm15.3-.9h.2zm11-.3c-.2 0-.3-.1-.2-.2l.1.2zm-125 6h.3zm149-6.5h-.3v-.1h.3zm-201.3 14.4h.3zm202.6-14.4h-.4.1a.4.4 0 0 1 .2 0zm-99 5h.5-.4zm99.4-6.6h-.3zm-208.5 8.8c-.1.2-.2.1-.3 0zm172.3-3h-.3zm-55.8-2.3-.2.1zm-126 14.8s.1-.2.3 0zm121-13c.3-.1.3-.1.4 0zm88.3-2.5h.1zm-166.3 9.8h-.3zm3.5.4h-.3zm-3.7-4.9-.1.1h.1zm33-1.8h.2-.3zm44.8-1 .1-.2-.1.1zm-24.2.3h.3zm107.2-1.6h.3zm-17.6-1h-.3zm.3.5c.1-.1.1-.1.2 0zm-185.7 4.8-.3.1h.3zm85.6 2.2h-.3zm-84.3-2 .3-.1h-.2zm84-1.2h-.2c.1-.1.2-.1.2 0zm46.2-3v.1h-.4.4zm-125.7 3.7h.3zm180.4-3.1h.2zm-2.3-2.7h-.4zm-91 4.4h.2zm26-.6h-.1v-.1zm-108.8 10.5h-.4zm46.7-8.8h.4zm45.8 1.7h-.4zm29.5-5h.4zm13.3-1.4h-.3zm-64.8 4.2h-.3zm130.3-4.6h-.2zm-146.4 8.6h-.3.4zm0-1h.3zm16.2-3h.2v.1h-.2zm99.5-4.2h.3zm-114.8 7.6h-.4zm-49.8-2.6h.2zm198.1-6h.2zm-133 8.8s0-.1.2 0h-.3zm40.6-5h.3zm61 3.6h.4-.3zm-43.7-5.2h.2zm-39.4 3h.3zm-85.8 8h.2zm233-4.2h-.3zm-224.3 4.2h.2zm54.5-8h.4zm-7.5-.6h-.2v-.1h.2zm-44 8.5h-.4.3zm-30.3 3.6h-.4.3zm85.6-13.2h.2zm1.5 1.6h.2zm20.5-.3h.2zm65.7-1.8v.2zm-57.8-.7-.2.1zm21.2 1.6h.2zm-23.6-.4.2-.1h-.2zm-73.5 7.7h-.2zm183.6-10h.2zm-211.5 6.1h.3zm29.2.6h.2zm-39 8.6-.3.1h.3zm40.7-4.7h-.3zm34.5-7.6h.2zm116.7-1h-.2v-.1h.2zm16-3.9h-.1.2zm-131.7 10.2h-.3zm131-7.7c0 .1 0 .2-.3.1h.2zm-131.1 2.3h-.2zm61-2.6h.1-.2zm-37 .8h.2zm8.9-.3c-.1 0-.2.2-.4 0zm-127 7.7.2-.1h-.2zm124.8-5.3h.3zm24.1-3.1h.2zm72-1.2h-.2zm-51.5 1.3h-.2zm-52.4 1.7c0-.2.1-.1.3 0zm-96.7 13.2h.1zm152.3-13.3h-.2zm-106.9 2.4h-.3zm32.4.2h-.2zm78.4-.6h-.1zm-111.8 2v-.1h.4-.3zm-.8-2.2.2.1h-.2zm2.8.7h-.2zm1.4 5.5h-.4.3zm-67.4-1.5h-.2zm69.7 1.2h.3zm43.9-7.6h-.2zm62-1.2h-.2.1zm-115 6.6h-.1zm12.2.7h-.2zm81-7.3h-.2zm-50 3.7c.2 0 .3 0 .2.1h-.1zm-.4.1h.1zm-46.2 0v-.2h.2-.2zm70-2.2h.3zm15.6-1.5h-.2zm-67 2.7h-.2v-.1l.1.1zm196 4.3h-.3zm-53.6-9.8h-.2zm-58.8 2.8h.2zm-82.4 4h-.2zm-23-.4h.3-.2zm47.3-.2h-.1zm107.4-5.2h-.1zm-157.6 12.3h-.3zm78.9-10.2h.2zm68.8-.9h-.1zm-39.8.1h-.2zm-137 14.2h-.2.3zm206.8-17.8h.1zm15.6 3.4h-.2zm-165.3 8.4h.1zm74.5-7.8h-.2zm61.6-1v-.1h.1-.1zm-122.9 4.6h.2zm96-3h-.1zm54-1.9h.3-.2zm-.3-1.1h.2zm-55.7 1h-.2zm-46.1 3.3h-.2zm61.7-2.4h-.2zm-111 8.2h-.2zm147.4-11.3h.2zm-27.5 2.9h-.1zm-178 12.7h-.1zm85.9-8.6h.1zm-84.4.4h.2zm52.7 4h-.2zm149.7-10.6h-.3zm-202.2 7.2h-.1zm140.5-4.1h.2zm58-3.7h.1zm-75.3 4.1h.1zm79.7-4.7h.1zm-80.3 4.8h-.2zm-73.7 6.9v-.1h.2-.2zm53.6-5.9h.2zm22 1.2h-.2.1zm81-4h-.1c0-.1 0 0 0 0zm-129.8 1.2h.2zm-67 6.8h.2-.1zm186.6-10h-.2zm-39.9 1.3v.3zm-142.7 7.5h.2zm163-3.8h.1zm-30.2-1.5h.3zm-101.4 5h.2zm92.1-3.7h.2zm84.7-5h.1zm-177.6 10.6h.1zm67.8-4.8h.1zm-94.6 1h.2zm46.3-1.6h.1zm1.6-.1h.2zm16.2.7h-.2zm-37.4-.3h.1zm24.8 1v.1h-.1zm21.2-1h.2zm-47.2 2h.2zm127.7-5.4h-.2zm23.1-2.6h-.2zm-171.1 13.3h-.2zm151.7-11.2h.1zm-133.4 4.2h.2zm70.8-1.5h-.2zm-2.2.8h.2zm-82.2 1.4h.2zm162-5.7h-.1zm-2.6 1.7h.1zm0-.8h.1zm-222.4 14.6h-.1zm90.8-9h-.2z" fill="#f5663e"/></g></svg>