<svg fill="none" height="18" width="148" xmlns="http://www.w3.org/2000/svg"><path d="m29.5 13h.2-.9.3l-.7.2v-.1h-.2c0 .1-.1.1-.2 0h-.6l-.6.1h-.8l-.4.1h-.6l-1.6.1h-.3l-.8.1h-.7l-1 .2h-1.1l-1 .1h-.7l-.4.1-.8.1h-1.3l-.4.1a10.5 10.5 0 0 1 -1.5.1l-1.4.1-.7.1h-.2a1 1 0 0 0 -.3 0 3 3 0 0 1 -.6.1h-.6l-.6.1h-.3l-.9.1h-.4l-.4.1h-1.2l-.7.1h-.1l-1.2.1-.5.1h-1v-.1h-1.5l-.1-.1-.2-.1-.2-.1-.1-.1.2-.2-.2-.2-.1-.3v-1.1l.1-.2v-.4l.2-.3-.2-.1h.1v-.5l.1-.2.1-.2v-.3h.1l.2-.1v-.1c0-.2.2-.1.3-.2 0-.2.2-.1.3-.2a.1.1 0 0 1 0-.2h.1l.1-.1-.3-.1h1.3l.5-.1h-1.8.8l.4-.1h.7l.4-.1h.4l-.1-.1h-.5.1l1.7-.2h1.3s0-.1-.1 0h-.2l-.5-.1h-1.1l.7-.1h-.5l1.2-.1 1-.2h2a1103.2 1103.2 0 0 0 1.4-.2h.7l1.5-.2h1.2l.5-.1h.6l.4-.1h.7l.1-.2h-.1l.2-.1a1 1 0 0 0 -.3 0h-1.4l-1 .2h-2c-.1.1-.2 0-.4 0l-.3.1h-.2l.2-.1h.7l.6-.1 1-.1h1c.1-.1.3 0 .4 0h.1a10 10 0 0 1 1.4-.3h-.7l-.8.1.4-.1c0-.1 0 0 0 0h.7l.4-.1h.1l.1-.1h.6v-.1h.8l.4-.1h.4l.7-.1.3-.1h.8l.7-.1a.3.3 0 0 0 -.3 0h-.3l-.1-.1h.5l.4-.1h.8l.3-.1h1.6l.6-.1h.7l.6-.1h1.1-.1.5a3.9 3.9 0 0 1 .8-.1h.3l1-.1c.1-.1.1 0 .2 0h.3 1l.3-.1h1.2l.3-.1h.7v-.1h-.1.5a.1.1 0 0 0 .1 0h.2l-.3-.1a1 1 0 0 0 .2 0v-.1h.5-.1l.1-.1h-.4a1 1 0 0 1 -.4 0 1 1 0 0 0 -.5 0 3 3 0 0 1 -.6.1h-1.5l-.2.1h-.2l-.2.1h-.4.2-.7l-.3.1a.8.8 0 0 0 -.5 0h-.1a.4.4 0 0 0 -.3 0h-.6.3l-.1.1h-1.2l.1-.2h1.8l.2-.1h2.2l.8-.2h1.7l1-.1h.7l.8-.2h.8l.7-.1h-.2a1 1 0 0 0 -.3 0h-.4c0-.1 0 0 0 0v-.1s0-.1.2 0h.2l.1-.1a.5.5 0 0 0 .4 0l.2-.2.1.1h2.4v.1h.4l-.2-.2h.2l.2.1h.6c.1.2.3.1.4 0h-.1a5.5 5.5 0 0 0 -.8 0 4.2 4.2 0 0 1 .8-.2h.1l.1.2h1.2-.6v-.2h1.3l.1-.1h2v.1h-.7v.1h.8a1 1 0 0 1 .4 0h.3l-.2-.2h.3l.4-.1h.5l.8-.1h-1.8l.5-.1h1.3l1.3-.1h.6v-.2l.1.1h1.5l.2-.1h.6v-.1h3.2v.1a.3.3 0 0 0 -.3 0 .1.1 0 0 1 -.2 0h-.5l.1.1h1.4v-.1c-.1-.1 0 0 0 0h.5l.3-.2h4.1l.2-.1h.3l.4-.1h.3l1 .1h1a.2.2 0 0 1 .2 0 826.8 826.8 0 0 0 .2 0h-.1 1.1a.4.4 0 0 0 .2 0 .4.4 0 0 1 .3 0h1.5v-.2h.4l-.1-.1h-.3a.3.3 0 0 1 0-.1h-.7.9a.5.5 0 0 0 -.4 0h-.3c-.1-.2-.2-.1-.3-.1h-.3c-.2 0 0-.1 0-.2h.2l.4-.2-.1.2h.3l.3.1a.3.3 0 0 0 .3 0h-.3l.5-.1-.1-.2v.1h-1.1 1.1l.3-.1h.2-.9l-.3-.1h-2.3a.3.3 0 0 0 -.3 0 .4.4 0 0 1 -.3 0 .6.6 0 0 0 -.5 0 .3.3 0 0 1 -.2 0h-.1a.2.2 0 0 0 -.2-.1h-.6.1l.2-.1a228.8 228.8 0 0 0 1 0h1.5a490.3 490.3 0 0 0 .5 0v-.1h.1l.4-.1h1.5l.2-.1h-.4a4.8 4.8 0 0 1 1.2 0l.1-.1h.2v-.1h2.2l.1.1h1.6-.1a2 2 0 0 0 -.4 0h-.4v-.2a2.6 2.6 0 0 0 .8 0h.2v-.1h-.9c-.3-.1-.5-.1-.8 0l-.4-.1-.4-.1h-.4a1 1 0 0 0 -.5 0 3 3 0 0 1 -.4 0h-.6v-.1a7.8 7.8 0 0 1 1 0h3.8-.4v-.1h.4l.1-.1h-.3.3l.2-.1h-1v-.1h3.1a10 10 0 0 0 1.4 0h.2a7.3 7.3 0 0 1 .8 0h.8a7508 7508 0 0 0 4.5.2h2v.1h.3c0-.1.1 0 .2 0v-.4h.6-.3 4v.1h1.3l.3.1h1.6l.3.1h1.1l.5.2h-.3.8-.3l.3-.1h.7l.1.1h1l-.2.1h.4l.3-.1a.2.2 0 0 1 .1 0h1l.4.1h1v.1h1.1l.7.1h.2l.7.1h1.3l.5.1h1l.9.1h-.1l-.4-.1a1 1 0 0 0 -.6 0h-.5l-.2-.1h-2.8a4 4 0 0 1 -.9-.1h-1.1l-.6-.2h-2.3l-.4-.3a3 3 0 0 1 -.6 0h-.7a1 1 0 0 1 -.4 0h-.5.6a89563.1 89563.1 0 0 0 1.9 0h1.9l.3.1h.5c.3 0 .6 0 1 .2h1.6c.2.1.3 0 .4 0h.3l.6.2h.7l1 .1h.9l.6.1h.6l.7.1h.9l.9.2h.3l1.4.1.8.1 1.5.2a11.7 11.7 0 0 1 1.5.1h1.5-.5l-.3-.1-.5-.1h-.5l-.5-.2h.8v-.5l.1.5h.6c0 .1.2.1.2 0a.3.3 0 0 1 .3 0h.2l.8.1.3.1h1l1 .2h1l.1.1h1.9c.1.2.2.1.2.1h.9l.4.1h.5l.4.1h.4l.4.1h1.1l.5.2h.5l1.2.2h.7a7 7 0 0 1 1.3.2h.5a129.7 129.7 0 0 0 1.3.2h.5l.4.1a132.1 132.1 0 0 0 1.8.2l1 .1c.2.2.4.1.6.1h.2a.3.3 0 0 0 .3 0h.1l1 .2.5.1h.6l.2.2h.5l.1.1a59.5 59.5 0 0 0 1.6.2h.4l.3.1h.2v.2h.2a.4.4 0 0 1 .3.2l.2.1c.1 0 .2 0 .2.2h.1c.2 0 .3.2.4.3l.2.1v.2l.4.2.1.3.1.2.1.3h-.2v.1h-.3l.1.1v.3h.1l.2.2h.2l-.4.1v.1c.2 0 .2 0 .2.2v.2h-.3c0 .2.3.2.3.4l-.8-.2.2.2a.6.6 0 0 1 .3.2l.1.2h-.3s0-.1-.1 0h.3l-.2.2.2.1c.1 0 .1.1 0 .2h-.1l.1.2.1.1h-.3a9.8 9.8 0 0 1 0 .3l.2.2h.1v.1h-.4c0 .1-.1 0-.2 0 0 .2 0 .2.3.2v.4h-.1c-.1 0 0 .1 0 .2h-.2l.3.4h-.2l.2.3-.2.1h-.4.1l.2.1c0 .2-.2.1-.2.2s.1 0 .2 0v.5h-.2l-.1.1h-.3.1l.2.1v.1l.2.1v.1h-.2s-.1.1 0 .2l.3.3.3.3h-.7v.4h-.1l.2.1h-.2l.1.1h-.4l.3.2h.2l-.3.1h-.1l.2.1-.1.1.1.2h-.3l.1.2v.1c0 .1 0 0-.1 0l.5.2v.2l-.4-.2v.1s0 .1 0 0h-.3l-.2.1.1.2h-.2l.1.1v.1h-.5l.3.2h-1.1l-.3-.2-.2-.1-.4-.1a1 1 0 0 1 -.4-.2h-.1l-.3-.2h-.1.5l-.6-.3h-.9v-.2h-.5a1 1 0 0 0 -.3 0l-.2-.1-.5-.2h-.4l-.4-.1h.2-.6v-.1h-.2l-.3-.1h-.4.2-.7l.1-.2-.4.1h.1c-.1-.1-.1 0-.1 0h-.3c-.1-.1-.1 0-.2 0v-.3l-.6-.2-.2.1h-.2.2-.9.2-.3a1 1 0 0 0 -.4 0h-.4l-.1-.1h-.9a1 1 0 0 0 -.5 0c-.1-.2-.2-.1-.3-.1h-.4v-.2h-.5a4.4 4.4 0 0 0 -1 0l-.4-.2h-.4v-.1h-1.7a1 1 0 0 0 -.4-.1h-.7a2 2 0 0 0 -.9-.2h-.2l-.6-.1-.3-.1h-.5l-1-.1a6 6 0 0 1 -1-.1h-.5a491.8 491.8 0 0 1 -1-.2h-.8l-1-.1h-.2l-.6-.1h-.5a5 5 0 0 0 -.7 0c-.2-.2-.4-.1-.6-.2h-.7l-.2-.1h-.7l-.1-.1h-.2a145.8 145.8 0 0 1 -1.7-.1h-.4l-.3-.1h-.5a2 2 0 0 0 -.4-.1h-.5a2 2 0 0 0 -.4 0 .5.5 0 0 0 -.4-.1h-1l-.3-.1s-.1 0 0-.2h1-.7l-.1-.1-.4-.1h-.9v.1h.1v.1l-.1.1h-.1a.1.1 0 0 0 -.2 0h-1.2c-.2 0-.5 0-.7-.2h-.8l-.3-.1h.2l-.2-.2h-.5v.1h.4l-.1.1h-2.4c0-.1 0-.1-.1 0l-.2-.1h-1.3l.5.1h-.3.3l.3.1h.2-1.9a.6.6 0 0 0 -.5 0h-.4l-.1-.1h.2l.3-.1h.6l.3.1a.3.3 0 0 1 .3 0h-.1a.3.3 0 0 0 .2 0v-.1l-.5-.1h-.1l-.3-.1h-1l-.5-.1h-1a40.7 40.7 0 0 0 -.3 0l-.2-.1h-1.3a.6.6 0 0 0 -.4 0l-.2-.1h-.8c0-.2.1-.1.2-.1v-.2a.2.2 0 0 0 0-.1h-.2v.2h-.2v.2l-.1-.2-.1.1h-.2a1 1 0 0 0 -.4 0h-1.3l.1-.1h.1-.2v.2l-.1-.1h-.4v-.1h-.7v.1l-.7-.1h-.4v.2h-.1v.2h-.2a.2.2 0 0 1 0-.2h-.5l-.3.1h-.7.2c0-.1 0-.1 0 0h-1v-.3h.5-.8v-.1a.2.2 0 0 0 .2 0h-.2v-.1h-.1v.2h-.2l-.1-.2h-.2v-.1h.3-.5c.1-.2.2-.2.3-.2a.7.7 0 0 0 -.4 0 .4.4 0 0 0 -.5 0h-.3l-.2.1h.2a1254.2 1254.2 0 0 1 .6 0h.3c0 .2-.1.1-.2.1h-.1c-.1.1-.1 0-.2 0 0 0-.2 0-.2.2l-.1-.1h-.2.3c-.2.1-.3.1-.4 0h-1.9a5.4 5.4 0 0 0 -.9 0l-.1-.1h.1-1.4l.2.1h.2-.2.4l-.1.1a1 1 0 0 1 -.7 0 3 3 0 0 0 -.3 0h-.3a.7.7 0 0 1 -.6 0h-.1v.1h.3a5 5 0 0 1 -1.3 0h.9-.4l-.3-.1h-.3a.4.4 0 0 1 -.3 0h-.1l.9-.1h.8-.3 1.3a.4.4 0 0 0 -.4 0v-.1a2 2 0 0 0 -.4 0h-1.6l-.2-.2h-.4l.5-.1h.2v-.2h-.2l-.2.1h-.2l.2-.2.2.2v-.3h-1.5l.3.1h-.4v.2h-.2 1.2-.3v.2h-.5s0 .1.2 0c-.1.1-.2 0-.2 0h-1.5l.2.1h-1.6v.1h.1-.7.5a1 1 0 0 0 -.4 0l-.5-.1h-.1c.1 0 .2 0 .1.1h-.5.2v-.1h-1.1.4v.1h-3.7.6l-.6-.1h-.7v.1h-2.1.7-1.3.5-.7v-.1.1l-3.2.1h.3-2.2l-.4.1h-2l-1.2.1h-.7a4 4 0 0 0 -1 .1h-1.2l-.9.1h-2.3l-.4.1a3 3 0 0 1 -.6 0 2 2 0 0 0 -.4 0l-.2.1-1.4.1h-.4a7 7 0 0 1 -1 0h-1.1l-.5.1h-1.3l-1.7.2h-1.3l-1 .2h-1.8l-.7.1h-.7l-.8.1h-1l-.3.1h-.9l-.2.1h-.5v.5zm45.5-3.2h.1l-.1.1zm-10.6-1.4h.2v-.1a.3.3 0 0 0 .3 0h-.2a.3.3 0 0 1 -.2 0h-.1zm3.3-6.5h.1-.4a.2.2 0 0 0 .2 0zm6 8.6h-.1.3zm-37-5.2a.3.3 0 0 0 .2 0h-.4zm40.8 5.2a.3.3 0 0 0 .3 0h-.8zm-38-5.8h.2a.4.4 0 0 0 -.4 0h.4-.3zm31.5 6.1h.3-.8a.5.5 0 0 1 .4-.1h.4-.8v.1h-.5 1.1zm-3.9-.1h.3s.1 0 0 0h-.2zm63.2 3.9h-.1l-.3-.1h-.2.9zm-49.8-4.2.2.2.2-.1zm-14.5-6.8c-.2-.1-.2-.1-.4 0zm1.3 4.6h.8-.7zm3.4-5.4h.3-1 .5zm11.3 5.6h-.3.5c-.1 0 0-.1 0-.2l-.7.1h.5zm4.4 2.6-.2-.1v.2h.1a1.2 1.2 0 0 0 .4 0zm-41.1-6.3.2.1h.3a.1.1 0 0 0 .1 0 .2.2 0 0 1 .2 0 .2.2 0 0 0 .1 0h.5a286.7 286.7 0 0 0 -1.2 0l.1-.1h-.4zm-3.3.3h-.4c-.2-.2-.3-.3-.5-.2h-.1v.2l.3.1h.7c0-.1 0 0 0 0h1.4l.2-.1h-.6v-.1c-.1 0-.3-.1-.4 0h-.3l-.2.2zm24.5 5.6h-1.5l.1.1h1.7-.1.3-.4v-.1zm6.4 0v.2h.2v-.1h1.5-.1a1.4 1.4 0 0 1 -.6-.1h-1.7l.1.1h-.3 1-.2.2zm49.8-7.5h.2c-.1-.1-.1-.1-.2 0l-.2-.1h-1l-.7-.1h-.8.7l1 .2h1.3l.5.1 1.4.2-1-.2h-.7zm-34.4.2a1 1 0 0 0 -.6-.1h-1.3l-.2-.1a2 2 0 0 1 -.7 0h-.1l.5.2h.2c0 .1.2.1.2 0v-.1h.7l.1.1zm-27.2 7.5h.9-.2 1-1.4l-.3-.1h-.5a4.3 4.3 0 0 1 -.6 0h.8l-.3.1h-.3c0 .1.1.1.2 0h1.3-.5zm24.3-9.1h-.4v-.1h.9a3 3 0 0 0 -.4-.1h-1.5l-.1.1h-.4.6c.1 0 .2.1.2 0l.9.1zm-31.4 2.7h2.4c0-.1-.2 0-.2-.2a.1.1 0 0 1 -.2 0h-.1l-.9.1h-1zm-18 .8v-.2h-.5a.4.4 0 0 0 -.3 0 2 2 0 0 1 -.3 0l-.2.2h.7-.2.2a.2.2 0 0 0 .1 0h.2c.1 0 0 0 0-.1h.3zm38.2-3.2h-1.9zm24.6 1.7h-.5l-.4-.1h-.3l.1.1.3.1a3.5 3.5 0 0 0 .7 0c.1 0 .1 0 0-.1zm7.8 8.2h-.4l-.1-.1h-.6c0-.1 0 0-.1 0h-.1l.2.1h.9l.2.1h.1v-.2zm-8.4-8.7h.2l.3.1h.7l-.6-.1zm7 8.6c-.1 0-.1-.1-.2 0a1 1 0 0 1 -.5-.1h-.6.2l.3.1h.7zm-45.2-7.7h-.1a3 3 0 0 0 -.3 0h-1.2v.1h1.6zm19.4 6.4h.2a5 5 0 0 0 .8 0s.1 0 0 0v-.1h-.8a.2.2 0 0 0 -.1 0h-.1zm-12.1.4v.1h1.2l-.3-.1h-.8zm52.9.3.2.1h.5a2 2 0 0 0 -.7-.2zm-29.2-1.2h-1.1zm-6.6-8.2.7.1a.3.3 0 0 0 .2 0 1 1 0 0 0 -.5 0l-.2-.1zm-19.3 7.2h.8-.2a2.5 2.5 0 0 0 -.5-.1zm57.2 4.5h-.8.7zm-25.7-11.3c.2.1.3 0 .4 0l.4.1-.6-.1zm-8 1.1h.5-.6zm43.6 1h-.2l-.2-.2-.3.1h.7zm-67 6 .6.1h.3v-.1h-.8zm-19.9-5.3h-.6v.1h.7zm57.7 6.7-.1-.1-.6.1zm-56.6-7.2a1 1 0 0 0 -.5 0v.1h.2zm30-1.5c.1 0 .1-.1.2 0v-.1h-.6.4zm-40 2.2.2-.1h-.6v.2l.2-.1zm30.5 5-.3.1h-.4.7zm17.1-9.1-.4-.1h-.3.8zm7 8.4h-.8a.6.6 0 0 0 .5 0zm-9.8-1.3a1 1 0 0 0 -.5 0zm24.8-5.3c.1 0 .2.1.4 0zm26.2 1.4h.5-.4zm-67.6-1h-.4zm-24 3.7a.6.6 0 0 0 .4 0v-.1a.1.1 0 0 0 -.1 0h-.4v.1zm36.4 3.1a.6.6 0 0 0 -.5 0h.2a.3.3 0 0 1 .2 0zm22.6-6.1h-.6s0-.1-.1 0h.5zm-34 5.4h.3-.4zm-4.5.9h.3l.2-.2h-.4l-.1.1zm7.4-7.3h-.5a.6.6 0 0 0 .5 0zm-3.1 1h-.5zm-4 7h.6zm-.1 0a5 5 0 0 0 -.6 0zm29.4-.8h.5zm37-6.5a1 1 0 0 0 -.4 0h.5zm-53.1 6.3h.5zm-2.9.6h.5zm47.3-7.8h.4c0-.1 0-.2-.2-.2v.1h-.3zm-37 5.8h.5zm11.3 2.4h-.3v.1h.2zm-8-.4h.4c-.1 0-.2-.1-.4 0zm44.5-6.6h.6zm-49.4 3.6h-.4c-.1 0 0 0 0 0h.2c0 .1.1 0 .2 0zm63.7-2h-.5zm-109.5-.2c.1.1.3 0 .4 0zm24.7-.9h.4zm10.7 6.1h.5zm-12.8-6.3v-.1h-.4l.2.1zm-2 4.8h.3-.4zm11.8-5.7-.2.1h.2zm10-2h.3zm42.5 11.9h.4zm-63.5-8.7h-.5.4zm-17.7.1a.5.5 0 0 0 .4 0zm31-1.8h-.3.4zm9.7 8a.6.6 0 0 0 -.4 0 .6.6 0 0 0 .4 0zm-21.7-7.3-.5-.1h.5zm13.8 6.8h.3s-.3-.2-.3 0zm.8 0h-.3.2zm74.3.4.3.2v-.1h-.3zm-76-.4h.4-.2s-.1-.1-.2 0zm-21.3-6.6a.3.3 0 0 0 -.2 0l.1.2zm18.6 6.2h-.3a.4.4 0 0 0 .3 0zm28.5-8a.2.2 0 0 0 -.2 0v.1h.2zm-40.3 3h.2zm33.8 5.7h.4zm-22.5-.7h-.3a.4.4 0 0 0 .3 0zm-10.8-.8h.4zm28.6-8.1h.3zm1.1 9.4h.3-.4zm-19.8-1.8a.3.3 0 0 0 -.3 0zm-25.1-3.4a.4.4 0 0 0 -.3 0zm-1-.7s-.1-.1-.2 0zm16.1 0 .1-.1h-.2zm34 6.2h.4zm-25.6-.1h.3-.4zm4.3.2c.1.1.1.1.2 0h-.3zm-34.4-5.5s.1.1.2 0zm26-1.3h-.3zm25.9.5h-.3zm1.7-3.4h-.4zm-22.6 9.6a.4.4 0 0 0 .3 0zm8.9-9.5h.2zm24.3 1h.3zm-17 6.3h.2zm15.2-7.3h.3zm-54.9 3.5a.2.2 0 0 0 -.2 0zm62.5 6.8h.3zm-38.6-6.1h.2zm68.2 9.5h.2zm9.5-9.5-.1-.1h-.2.3zm-87.3-1.7s-.1-.1-.2 0zm37.3 6.9h-.1.2zm-35.2-7.3h-.3zm10.9-1.2h-.3zm39.8 9.3h.3zm-17.6-1.7h.3zm-35-5.6.2.1h.1v-.1h-.2zm7.4-1h.2zm12.7-2.5a.4.4 0 0 0 -.3 0zm.1 0h.3zm52.8 13.8c0 .1.1.1.2 0zm-39-3.7h-.5.4zm-1.7-9h-.2v.1h.2zm-2.3 0h-.4.3zm44.6 12.8h-.2zm-73.2-10.4h.3zm23.6 4.3h-.2zm-7.2 1.9-.2-.1h.2zm40.3 2.3h-.2zm-42.5-2.4h.1zm9.6.1c0 .2 0 .2.2 0zm-5 0a.3.3 0 0 0 .2 0h-.3zm49.8 3.6h-.2zm-70-5h.2-.3zm38-7.8c0-.1 0 0-.1 0zm.4.8.1.1v-.1zm-20-1.4h.2zm.8 0h-.1zm22.7 1.7h.1v-.1h-.1zm-17 8.2h-.1zm-13.6-8.8h-.2zm3.2 8.6h-.1zm-4.6-.2h-.3zm5.2.6h.1zm74.7.8h-.2zm-126.2-4.8h.1-.2zm125.8 6.3s0 .1 0 0h.1zm-85.6-2h.1zm6-7.5h-.2zm5.9 1 .1.1h-.1zm14.3 0v.1h.2-.2zm-49.6.5h-.2.1zm27.7 6h-.1zm3.8-.4h-.3.2zm55.3 3s0 .1 0 0zm-44.4-3.2h-.2zm-15.4.4h-.1zm29.5.2h.1s.1 0 0 0zm27.8 2.4h-.1zm-30.6-4.1s-.1-.1-.2 0zm-28 1.5h-.1zm19.6-.3h.2zm-6.4-.7h.1zm-2.3-7.6h-.1v.1zm30.4 9.4h-.1zm-31.2-1.3a.2.2 0 0 0 .2 0zm-5.6-8.6h.1zm4.1 8.3h.2zm-13.3.2h.1zm-13-5.4h-.1zm-18.4 1.7s-.1 0 0 0zm79-3.6h.1zm-9.3-.9h.1zm-32.8 8.7h-.1zm2.6-6.7h.1zm11.6 6.3h-.1zm-21 .7h-.1zm52.2.9c0-.1 0 0 0 0zm-37.3-9c0-.2 0-.1-.1 0zm11.2 7.6h-.1zm-3.6-2.4h.1zm14.1-7h.2zm-25 .6h-.1zm-61.3 7.3h-.1zm91.3-6.6h-.1zm-17.4 5.2h.1zm-1 2.8h-.1zm-9.4-8.8h.1zm37.8 8.4h.1zm-64.9-4.9h.2zm19.2 5.9h-.1zm12.8-10.4h-.2zm.5 9.2v.1zm57.6 5.1h-.1z" fill="#ffbe18"/></svg>