<svg fill="none" height="15" width="211" xmlns="http://www.w3.org/2000/svg"><path d="m209.7 14.3.2-.3v-.3h-1.3c0-.1-.1-.3-.3-.3l-.4-.1h-.3c-.1-.3-.4-.3-.5-.4l-.1-.2-.2.1h-.7v.2l.8.1c0 .2 0 .4-.2.6h-1.2a4 4 0 0 1 -.6-.1c-.3-.1-.6-.2-.9 0v.1c-.3-.1-.5 0-.7.2l-.1-.2a8 8 0 0 0 -1.3.2l-.2-.1v.1h.3c-.1.1-.2.2-.3.1h-1l-.5-.1h-.4l-.1-.2v-.3a1 1 0 0 1 .7.2h.5l.5.2c0-.3.3-.4.3-.6h-1.1a.6.6 0 0 1 -.5 0h-.4v.3h-.2v-.5l-.9-.3v-.3h-.2c-.2 0-.5 0-.8.2h-1.4s-.2-.1 0-.3h.5c0-.1-.4-.2 0-.4a1.8 1.8 0 0 0 1.2.1l.5.2h.7c.4.2.7.2 1.1.2l.2-.1h-.1l-.5-.1-.5-.2a2 2 0 0 1 -.8-.1h-.3l-.3.1h-.4c-.2 0-.2-.2-.4-.1h-.5v-.2s-.1-.2 0-.2c.3-.1.3 0 .4.1h.9l-.2-.1-.8-.2-.6-.2c-.2 0-.2.1-.1.2v.2l-.2.2v-.1c-.2-.4-.2-.4-.4-.4h-.7l-.1-.1c0-.3.4-.4.3-.8l-1 .1s-.1-.2-.3-.2h-.4c.1-.2.4 0 .6-.2l-.2-.1h-.4v-.3h-.4v.2c-.5 0-1-.3-1.5.1h.2l-.1.2c.5.4 1 .3 1.7.3l.5.4.3-.2h.3l.1.2v.1h-.2l-.6.2.1.1-.3.1c-.2 0-.2-.1-.4 0h-.4l-.2-.4-.5.3-.5-.2h-1l-.2.2c0-.4 0-.4-.3-.4h-.5l-.3.1v-.7c-.3 0-.5 0-.7.3l-.8-.2h-1.1l-.4-.1h-.3c0 .1-.1 0-.2 0h-1.2l1.2.2c.4 0 .7 0 1 .2h1.2l-.2.3-.2-.1-.5.3h.3c.3 0 .3 0 .4-.3l.2.2 1.3-.1c.1.1.3.1.3.3l.1.3.1.1h.1v-.2h.1v.1c.1.6.2.7.8.8l.6.1h-1.4l-.5.1.2-.2c-.2-.2-.5 0-.7-.2 0-.2.3-.1.3-.3l-.3-.2h-.6c-.2.2-.4.1-.6 0v.1h-.2c-.2.4-.6.2-1 .3-.3-.2-.8 0-1.2-.1h-.3l-1.3-.3-.2-.1a3 3 0 0 1 -1 0l.2-.3c.1 0 .4 0 .6-.2.2.3.5.2.7.2h.7c.2 0 .2 0 .3-.2l.6.3.1-.2v-.1a2 2 0 0 0 -.2-.3h-.8l-.4.4-.4-.1h-.2c-.3-.2-.8-.4-.6-1 0 .2.2.2.3.3h.2c0-.2 0-.2.2-.2h.5v-.2l-.7-.1-.1-.1-.5-.1h-.3l-.2.1-.3.2-.1.2h.5v.2h-.4l-.5.3.3.4h.2l-.1.1c-.3 0-.5 0-.6.2h-.2a.8.8 0 0 1 -.6-.1l-.3-.2a.9.9 0 0 0 -.8 0c-.1.1-.1-.2-.3 0h-.7l-.2-.2-.8.2.4.3a.3.3 0 0 0 .3 0h.3c0 .3.3.4.4.6h-1.6c-.1 0-.2-.3-.4 0-.2-.2-.4 0-.7 0h-.7l-.8-.2s-.1 0 0-.1c0 0 .2.1.4 0h-.5v-.2h-.1c-.2.3-.3.1-.4 0l-.7-.1h-.5c-.2 0-.3-.1-.4 0-.3 0-.4-.2-.7 0h-.6c0-.3.3-.3.4-.4h.5v-.4a2 2 0 0 0 -.4 0c.2-.2.4-.2.7-.2l1 .1c.2 0 .2 0 .2-.3l-.5.1h-.2l-.2-.1v-.4c.1 0 .3 0 .2-.2h-1a13.1 13.1 0 0 0 -2.5-.2c-.2-.2-.3 0-.5 0h-.3v-.3a.8.8 0 0 0 -.3-.1h-.4c0 .2.2.3.3.3l.5.2s.2 0 .2-.2h.5c-.1.3-.2.5-.5.4-.3.2-.7.1-1.1 0h-.2c-.3.2-.6 0-1 0h-.1l.8.2c.3 0 .6 0 .8.2-.3 0-.5.2-.8 0h-.5c0 .2-.4 0-.4.3 0 .2.4 0 .5.2h-.9a1 1 0 0 1 -.4 0 .8.8 0 0 1 -.4-.2l.6-.3c-.4 0-.6-.3-1-.3-.1 0-.1.3-.4.2l-.5.2c0-.2-.2-.3-.4-.3h-.9a.6.6 0 0 1 -.2-.3l-.7.2.1.5-.4-.2c-.1 0-.3-.1-.4 0h-1.4l-.4-.1-1-.1-.2-.3h-.5l.1-.5h1.4l-.2-.5-.1.1c-.1.1-.2.2-.3.1v-.2l-.7.1.1-.3c.2 0 .4.1.4-.1-.3-.2-.7-.1-1-.2l-1 .1c0 .2.2 0 .3 0h.4c-.3.3-.6.2-.8.4h-1.8c-.2 0-.3.3-.6.2v-.1l-.2-.2h-.6c0 .2.3.1.3.4l-.5-.1-.4-.1a.3.3 0 0 0 -.2 0 2 2 0 0 0 -.3.2l-.4-.1c-.1.2-.5.2-.8.3 0 0 .1.2 0 .2a.4.4 0 0 1 -.3 0c-.1-.1-.1-.2-.3-.2l-.4-.2v.3a.6.6 0 0 1 -.6 0l-.4-.3a.2.2 0 0 0 -.1 0h-.3v-.2c-.3 0-.3-.4-.6-.3h-.1l.1.3h-.7l-.7.2.5-.3.6-.1c0-.2-.2-.2-.3-.2h-1l-.4.1.3.2h-1.6l-.7-.1a6 6 0 0 0 -1.3 0h-.2c-.1.2-.3.2-.4.3a.3.3 0 0 1 -.3 0l-.4-.2a1 1 0 0 0 -.4 0 1 1 0 0 1 -.6-.3l-.5-.1c-.1 0-.2.1-.4 0h-1.9l-.3-.1h-.3c-.2.2-.3.2-.5.1h-2.1c0-.2.2-.2.2-.2h.1l-.3-.1h-.4l-.7.1h-1s0 .2-.2.3h-1l-.2-.2h.6l-.1-.1h-.4v.1c-.3-.1-.2-.3-.2-.4l-.5.1-.6-.2a.7.7 0 0 0 -.8 0h-.7a.4.4 0 0 0 -.3 0h-1v.3h-.3l-.7-.3h-.6l-.1-.2h-.3l-.3.2a1 1 0 0 1 -.3 0l-.7-.1-.5.3a1 1 0 0 1 -.5 0h-1.3l-.3-.3c-.3 0-.4-.3-.5-.5.2-.1.5 0 .8 0h.8c.1-.2 0-.2-.1-.2h-.3c0-.2.1-.2.2-.2h.2c-.3-.3-.6-.4-1-.3a1 1 0 0 1 -.5-.2c-.2-.2-.4-.1-.7 0l-.1.2.2.1h.2a8.4 8.4 0 0 1 .8 0h.1v.2h-2.2l-.2.1v.1h.2c.5 0 1 0 1.3.2v.2l-.2.2h-.2l-.2-.1-.4-.2h-.4a1.3 1.3 0 0 1 -1.1 0h-.1l.1.2h-.7c-.2 0-.5-.2-.7 0l-.3-.4h-.6l-.1.1v.2a2 2 0 0 0 -.5 0 2 2 0 0 0 -.4 0v-.1h-.3l-.5.2h-1.3v.3h-.3v-.5h-1.6v-.2c-.3 0-.5-.1-.8 0-.2.1-.4.3-.3.4h.3v-.4l.4.2h-.1c-.3.2-.6.3-1 .3h-1c-.3 0-.6 0-.8-.2h-.3v-.3c-.2.2-.3 0-.4 0a.5.5 0 0 0 -.5 0c-.2.2-.3 0-.4 0h-1.6c-.6 0-1 .1-1.6 0l-.7.1a3.3 3.3 0 0 1 -.8 0c-.4 0-.9 0-1.3-.2l-.1.3-.3-.2h-1l.5.2h-3.3c-.4.2-.8 0-1.1 0h-.3c-.2-.3-.6-.3-1-.3 0 0-.2 0-.2-.2h-.7l.2.4h1c-.2.2-.5 0-.6.2h-2.1l-.2-.1c.2-.2.4 0 .5-.2l-1.9-.1h-2c-.3 0-.4 0-.5-.2h.2-.7l-.2.2h-.1.1-.2s-.1.1-.2 0h-.5l-.3-.1c-.2-.2-.3-.1-.5 0 0 .2-.2.3-.4.2h-1.1l-.2.2h.4c-.3.3-.3.3-1 .2v-.2a.6.6 0 0 0 -.6 0h-.5a1 1 0 0 0 -.4 0l-.4.2-.2.2h-.2a1 1 0 0 1 -.4-.1c.2-.1.5 0 .5-.4-.4 0-.7 0-1 .2.2.2.4 0 .5.1 0 0-.2 0-.3.2h-.8l-.3-.3h-1.8l.1.2s.3-.1.4 0v.1c-.6 0-1 .2-1.6 0l-.8.2-.2-.1-.2-.1h-.2l-1-.1-.6.3-.5-.2-.4-.2v.3h-.6l-.2.1h-1.7l-.5-.1.2-.2h-1.5l.3.2c-.2.1-.4.2-.6.1h-.2c-.4 0-.6.4-1 .1-.3-.2-.7 0-1 0a2 2 0 0 0 -.8 0h-3c-.2 0-.5.1-.8 0h-.9c-.1 0-.3.2-.4.1h-1.1c-.4.1-.8.2-1.1 0-.4 0-.7 0-1 .2h-1l.1-.2h-.8c.3.1.4.3.7.2h-1.3a.4.4 0 0 0 -.4 0l-.2.2h-.2c-.3 0-.6 0-.8-.2h-.5c-.4.2-.8.4-1.3.4a1 1 0 0 0 -.7.1h-1.2l-1 .1c-.1 0-.3 0-.3.2v-.3l-.6-.1c-.1 0-.3 0-.5.2h.1l.1.1-.7.2a1 1 0 0 1 -.7 0h-.4l-1 .1c-.4 0-1 0-1.4.2a6 6 0 0 1 -.9 0c-.3 0-.5.2-.8.3h-.9c-.4.2-.8 0-1.2.2h-.2c-.7 0-1.4.4-2.1.4h-2.2c-.1.3-.5.3-.8.4-.3 0-.7 0-1 .2l-1.5.1-1 .2h-.9l-.7.2h-.5l-.3.1-.3.1h-.2a.5.5 0 0 0 -.4.1h-.2c-.6 0-1.3 0-1.9.2-.3.2-.7.2-1 .2-.4 0-.9 0-1.1.3h-1a1.7 1.7 0 0 0 -1.1.2h-.4l-.7.1-.5.1c-.3-.3-.5 0-.7.1l-.2.1-.2.3a119.5 119.5 0 0 1 -1.7.4h-.6c-.1.2.1.4-.1.5h-.6l.1.2-.4.2-.8.1h-.3l-1-.2h-1a2 2 0 0 1 -1.3-.2h-.2c-.6 0-1.1-.3-1.6-.4l-.1-.3c.2-.3 0-.4-.3-.5h-.2c-.3.4-.8.4-1.3.4l-.5-.2-.4.2-.4-.3c-.5-.2-.8-.5-1.3-.6l-.2-.2h-.5a.3.3 0 0 1 -.3-.2h.1v-.1a2 2 0 0 1 -.4 0h-.1v-.4l.5-.3.2-.1c0-.3-.3-.3-.5-.4l.1-.3.3-.2.7-.4c.4 0 .8 0 1.1-.2v-.4l.2.1a.3.3 0 0 0 .3.1l1.8-.6 2-.7a17.4 17.4 0 0 0 2.7-1h.3c1-.5 2-.4 3.1-.6h1l.6-.1h1.3a25.5 25.5 0 0 1 3.2-.7l3.2-.5 1-.1.9-.1c.3 0 .7 0 1-.2l1.4-.2a39 39 0 0 1 2.3-.4l3.4-.3 2.3-.2c.7 0 1.4-.2 2-.4h1.5c.8.3 1.5 0 2.1-.4h.9c.2 0 .5 0 .7-.2h2.7c.3-.2.7-.2 1.1-.2h1c.6 0 1.2 0 1.7-.2h1.4c.7 0 1.4 0 2.1-.2l1-.1c.5 0 1 0 1.7-.2h3.1l2-.1 1-.1.9-.1h2l1-.1h1.1l.5-.1h2.8l.2-.2h.3v.3l-.1-.1h5.1v-.4h2.2a7 7 0 0 0 -1 .1h-1c0 .2.1.2.2.2h3.7l3.3-.2h6.2c.5.2 1 .2 1.3.2.4 0 .7-.1 1-.3.1 0 .3-.1.5.1 0 .2.3.1.4 0 .4-.2.8-.1 1.2 0h.9a8.4 8.4 0 0 1 1.4-.1l.4.2.3-.1c.3.1.6 0 .8 0h8.3c.3.2.7.1 1 0h2l1.4.1h5.2l1.3.2h2.6l1.3.1 1.8.1 1.3.2h1.2l2.1.1c.5.2 1 .2 1.6.1h1l1.7.1h2.3l2 .2h2.3l1 .1h.3l.6.1 1 .2a10.9 10.9 0 0 1 2.2.2h1l.8.1h1l1.4.2h.5l2.8.2 1.3.1h1c.4.2 1 .3 1.4.3h.3a1 1 0 0 0 .9 0l.6.3h.9c.3-.1.6-.1.8 0h.5l.8.1c.1.4.5.4.9.5l.1.2.4.1.8.2.4-.3-.5.1c-.2 0-.3-.2-.4-.4a.5.5 0 0 1 .6 0 .7.7 0 0 0 .5.2c.6-.2 1.2-.1 1.8 0 .3 0 .5 0 .7.2h.4c.5 0 1 0 1.5.2h.6a2.2 2.2 0 0 1 1 .1c.6-.1 1.2.2 1.8.2l.7.1h.1l1.8.2 1 .1c.3.1.6.1.8 0h.4c.4.2.9.3 1.3.3.3 0 .6 0 .9.2h.3c.4 0 .7.3 1.1.1 0 .2-.2.1-.4.2h-.5.2a471.3 471.3 0 0 1 .9.2l.2-.2s.1.2.3.2c.3 0 .5.1.8 0h.3c.5.2 1 .3 1.6.3.2 0 .2 0 .1-.2h.4c.2.2.6 0 .7.3h.2s0-.1 0 0h1.4l1.3.2h.1l-.3.2.8.1h.5c.2 0 .3 0 .5.2l.2-.2a1.3 1.3 0 0 1 1 0l.1.1h1.1l.5.2h.8c.5 0 1 .1 1.5.4-.3 0-.6-.1-.7.2l-.4.1h-.4c0 .3.3.4.4.3.2-.1.6 0 .6-.4l.5-.2.2-.1c.2.2-.1.1-.1.3.6.2 1 .2 1.6.2h.5l1.4.3h.4c.4 0 .7.2 1 .3v.1h-.4.3l.1.2h.2l1-.1h.5c.5 0 1 0 1.4.2l.2.2h.8l.9.2h.3l1 .3h.9l.8.1h.7c.6.3 1.4.3 2 .6.2 0 0 .3.3.4.2 0 .3.3.5.2h.1l.1.1.4.4.6.2v.3c-.3-.1-.3-.1-.4 0a.6.6 0 0 0 .5.1l-.2-.1c.4 0 .4 0 .6-.3l.2.2c0-.2.2-.2.4 0v.1h-.2s0 .1-.1 0h-.3l-.1.2c.4.1.8.1 1-.2.2.1.2.4.4.4l-.2.3c0 .2-.3.2-.4.3v.7l-.4-.2v-.2l.1.2zm-81.5-7.2h.3-.4zm-18-.7v.1-.1h-.1zm88.4 4.5c.1 0 .2 0 .1-.2-.1 0 0 .2 0 .2h-.4v-.1.2l.2.2h.1a.1.1 0 0 0 0-.2zm-23.2-.5.3.1v.2h.2l.2.2h.2l.3-.1-.3-.2v-.3h-.2c0 .3-.3.2-.4.2s0 0 0 0l-.3-.1h-.6l.3.1h.2v-.1zm14.5-1v.3h.6c-.1-.3-.4-.3-.6-.3h-.1zm-71.4-3.4c.1 0 .3.1.4 0-.1-.1-.2 0-.4 0h-.5c-.2 0-.3 0-.4.2h.6c.2 0 .3 0 .3-.2zm44.3.4c.4.2.4.2.5-.1.1 0 .3 0 .2-.1l-.7-.2c0 .2.3.3 0 .4-.2.1-.3.2-.4 0l-.1-.4-.4.2s.2 0 0 .2h-.2c.3.2.7.3 1 .2zm-4.6-.6-.1.3-.3.1c.3.2.3.2 1.7 0h-.5a.5.5 0 0 1 -.5-.1v-.1l-.3-.2c-.2 0-.2-.2-.4-.1 0 .2.2.1.3.1zm38 5 .4.2a1 1 0 0 1 .7 0l.3-.2.4.1v-.5h-.4v.2c-.2.1-.5.2-.8.1h-.7l.2-.1c0-.1 0 0 0 0l-.4.2h.2zm-8.2-1.7-.1-.1c-.4 0-.8-.3-1.2 0l-.2-.1h-.5l-2-.2.3-.2-1-.2c-.1 0-.3.1-.4 0h-.6c0-.1-.2.1 0 .2l.3.2.5.1h.2l.3-.4.4.5c.3 0 .6.2 1 0h.1c.5 0 1 0 1.5.2a1.3 1.3 0 0 0 1 0 .6.6 0 0 1 .5 0s0-.1 0 0zm-37.7-1.7a1 1 0 0 0 .9-.1 1 1 0 0 0 -.9 0c0 .3-.4.2-.4.5h-.1l-.3-.4-.4.2h-.4l-.4-.2-.5.4 2.2.3v.1c.3 0 .5.2.6 0 .1-.1.2 0 .4 0l.3.1v-.3c.3 0 .6.4 1 .2l-.2-.2s.2 0 .2-.2l-1-.2a3 3 0 0 0 -1 .2zm53 4.5.2.3.5.1a97.9 97.9 0 0 1 .3.3h-1c.3.4.8.5 1.2.7.3-.2.5-.2.8-.2.2 0 .4 0 .6.2.2.1.4.2.7.1 0 0 .2-.1 0-.2l-.4.1-.3-.3c0-.2-.4-.1-.4-.3.1-.1.3-.2.1-.4s-.3 0-.5 0h-.1c0-.1-.2-.3.1-.5l.2.3a.5.5 0 0 0 .5 0s-.3 0-.2-.2c.1 0 0-.1 0-.2v-.3l-1-.2h-.7a2 2 0 0 0 -.3 0l-.3.1-.3-.2h-.5a4 4 0 0 1 -1 0l.2-.3h-.4v.2h-.4v-.3c-.3 0-.5 0-.7-.2h-.4a1 1 0 0 1 -.6-.2.3.3 0 0 0 -.2 0v.7l.9.2s-.3-.1-.3.1c.2 0 .5 0 .7.2-.3.3-.3.4 0 .4.4.1.8.2 1.2.1l.1-.1a4 4 0 0 1 -1.1-.4c.5-.2 1.1-.2 1.7-.1 0 .2-.2.3-.3.4l.2.3a1.7 1.7 0 0 0 1.2-.2zm-28-4.4.5.2h1.5l.7.3.5.1.7.1c.1.1.4 0 .8 0l-.4-.2h-.3c0-.2-.2-.2-.3-.2v-.2l-.3-.1a2 2 0 0 1 -.3-.3c-.4.2-.7 0-1 0-.1-.1-.2-.2-.3-.1h-1.2c-.1 0-.2 0-.3.2zm-3 .9.2.1c.4.2 1 .1 1.4.3h1.2l.4.1a4.8 4.8 0 0 0 1.5.2h.1v-.1c0-.1-.2 0-.2-.2h.3l.3-.2-.4-.1v-.1s.1-.1 0-.2l-.1-.2h-.2l-.2.1-.1.3-.2.3h-.7c-.1 0-.3-.3-.6-.2-.3.2-.6 0-1 0-.1-.2-.2 0-.4 0l-.4-.2h-1zm4.5 1.5a2.4 2.4 0 0 0 1.1.3c.5 0 1 .1 1.4.3l.6.1.2-.2h.9l-.1-.3-1.2-.1c-.2.2-.2.2-.4 0h-.6a3 3 0 0 1 -1-.1 1 1 0 0 0 -.9 0zm-2.6-2.6-1-.4h-.7c-.1.1-.4.2-.5 0h-.1v.3l.8.2h1.2l.4-.1zm-3.5-.3v-.3a1.1 1.1 0 0 0 -.9 0l.1.3h-.4l-.2.1-.1.2v.2h.5v-.3h1.2c.3.2.6.3 1 .3zm-8.3 1.7-.8-.2c-.1.1 0 .3-.3.4-.2 0-.5-.2-.8 0 .5.3 1.1.2 1.6.3a1 1 0 0 1 .8 0s.1 0 0-.1l-.4-.1v-.3zm-20-1.5h-.5c.4.3 1 .3 1.4.3h.6l-.4-.3h-.2v.1c-.3 0-.4 0-.5-.2v-.1h-.4zm-10.8-.6-.5-.2h-1.5s-.2 0-.2.2zm69 5.6.1.6h.3l.2.1s0-.2.2-.2l.4-.1v-.2a.9.9 0 0 0 -.4-.1h-.8zm-106.6-6.5-.5-.2a2 2 0 0 1 -.5 0h-1.4l-.2.2c1 0 1.7.2 2.6 0zm84.2 4.9-.2-.2h-.5l-.6.3.4.3.4-.3zm-44.2-3.7-.3-.2a1.3 1.3 0 0 1 -.9-.2l-.3-.1c-.2 0-.3 0-.4.2l.3.2.2-.1.3.1h1zm29.1 2c0 .2.3.2.3.3l.2.1h1c-.4-.2-.9-.1-1-.5zm-6.8-1.2 1.2.1.3-.1c.1 0 0-.2 0-.2h-.2a4 4 0 0 1 -1 0zm-43.3-2 .4.3h.4v-.2h.5l-.1-.2zm69.7 2.3a1.4 1.4 0 0 1 1 .1v-.2l-.2-.2h-.8zm-2 1.4h-1v.1l.1.2h.4c.1.2.3.1.4 0v-.3zm-19.8-1c0 .3 0 .3.4.4l.1-.5h-.5zm-9.4-2.9c-.1-.2-.3-.2-.5-.1l-.4-.2c0 .2-.3.1-.2.4h1.1zm-29.1.9c.3 0 .6.2.9 0l-.4-.2c-.1-.1 0 0-.1 0zm52.8 1.2-.6-.2-.2.2.7.2v-.2zm-5.7 1 .6-.2c-.3 0-.6-.3-.9 0l.3.3zm7.1 1-.1-.2c-.3 0-.5.2-.8.3h1zm-62.3-3.6h1a.8.8 0 0 0 -.5 0zm87.6 6.7c.3 0 .5 0 .6.2l.2-.2v-.1a1 1 0 0 0 -.4 0zm-20.7-2.6.2.1h.4v-.2l-.6.2zm-21.5-4.4h-.5c0 .3 0 .3.5 0zm1 1.6.2.2c.1 0 .3 0 .4-.2-.1-.1-.3-.1-.4 0zm-22.9.3.5.2.4-.1a2 2 0 0 0 -.9 0zm3.8-3.2.4.2.1-.2zm40.4 3.8h-.5c0 .2 0 .2.5 0zm-36.4-.6.2.1c.1 0 .3.2.4 0 0-.2-.2-.1-.3-.1zm-1.7-.8a1.1 1.1 0 0 0 -.8-.2 1.2 1.2 0 0 0 .8.2zm30 3.5.3.2h.3v-.2zm-31.7-3.8.2.2s.2 0 .3-.2zm4.8 0a.6.6 0 0 0 -.5.1c.2 0 .3.2.5 0zm32.1 2.5.3.1h.4l-.8-.1zm-88.1-2.2h.4c-.2-.3-.3-.3-.4 0zm88 2.6h-.6.5zm8 1.8h-.8c.2 0 .4.2.7 0zm-3.6-2v.1h.3l.1-.1zm-6.8 2v.2h.2l-.1-.1h-.2zm-27.6-2.8c.5.2.5.2.6 0zm22 0h-.6c.3.2.3.2.6 0zm-74.7-5.2h.6c-.2-.2-.2-.2-.6 0zm99 6.8-.6.1h.6zm-33.6-1.7v.1h.3zm-6.2-.8v.1l.2.1.2-.1c0-.1 0 0 0 0h-.4zm-6.9-2.5c-.2-.2-.2-.2-.5 0zm-61.3-2.3c-.2-.2-.3-.1-.5 0zm48 4.2a.7.7 0 0 0 .5 0 1 1 0 0 0 -.6 0zm-12.7.5h.3zm50.7 3.5c-.2-.1-.4-.2-.5 0zm-13-1.3h-.4zm-53.1-3.2h.1v-.1h-.2v.1zm46-1h-.4c0 .1.2 0 .2 0h.1zm33.3 6.2h.2l.3-.1h-.5zm-40.1-5.7.4-.1h-.5zm-50.9.8a185.7 185.7 0 0 1 .3 0v-.1h-.2zm45.6-2.4-.3-.2v.1h.2zm62 9-.1-.2-.1.1h.1c0 .1 0 0 .2 0zm-78-6.3h.1l-.1-.2-.1.1v.1zm65.7 3.6-.3-.1h-.3zm-35.5-3.3-.1-.1h-.2zm22.7 2.6h.2c0 .1.1.1.1 0h-.2zm-63.8-3.5.1.2h.2l-.1-.1h-.2zm-43.5-3.2h.1c0-.1 0 0-.1 0zm126.3 7.4h-.2zm-10.7.4.2-.1v-.1h-.2zm-49-3.3-.1-.1h-.1l.1.2zm24.5-1.7h-.2zm-45.8 0h-.2v.1h.2zm18.4.9h.1zm27.8.6h-.5zm2.7-.9h.1l-.1-.1zm10.8 3.3h-.3zm-104.3-2.7h-.1v.1h.1zm102.2 2.6v-.1zm-79-4.2h-.1zm23.1-2.5h-.1zm56.8 6.6.2.1h-.2zm-15.7-3.7h.1v-.1h-.2zm-28.6 1.3h.1s0-.1 0 0zm8.8.5h.2zm5.8-.1-.2-.1h.2zm2.6.1h.1c0-.1 0 0-.1 0zm29.3 2.9v-.1h-.1zm-.5-.8h-.1zm-36.4-2.2h-.1zm42.5.3h.1zm-6.9-1v.1zm-15.3 1.1h.1zm29.5 1.9h-.1zm-21.3-3.2h.1v-.1s-.1 0 0 0v.1zm2.3 1.8v.1z" fill="#ffbe18"/></svg>