<svg fill="none" height="13" width="305" xmlns="http://www.w3.org/2000/svg"><path d="m186.8 4.8s-.4.1-.4 0l-.2-.1-1.3-.2-.6-.2c-.5 0-1 .2-1 .4h-.8l-.6-.3c-.4 0-.4 0-.5.3h-1l-.3.1c-.5-.2-1 0-1.6 0-.5.4-1.3 0-1.8.2l-.1-.2h-.8c-.3.2-.5.2-.7 0h-.9c0-.2 0-.2-.5-.1l-.3-.2-1.1.2h-1c-.4 0-.6 0-.5.1h-1.4c-.3.3-.9.2-1.3.2-.5.1-.5 0-.7-.1-.2-.2-.4-.2-.8-.2h-.1v.3h.5l.4.1h-1l-.5-.5c-.3.3-.8.4-1.3.5v-.3l-.3.2c-.1.2-.3.2-.6 0h-.6c-.9 0-1.7.3-2.7.2h-3.4c.1-.2.5-.2.7-.4a4 4 0 0 0 -1.4 0v.1c-.2.2-.4.3-.7.3h-1.8c-.4.1-1 .2-1.6.1l-1.8-.1h-.2c-.6.1-1 0-1.5-.1l-.7.1-.1-.3-.4.2-.2-.1-.5.1c-.3-.2-.7-.2-1.3-.1l-.2-.2-2-.1c0 .2-.1.4-1 .4l.4-.1h.3l-.7-.4-.1.3h-.4l-.4.2h-3.4v-.1c-.3-.1-.6-.2-.8-.1l-.1.1h-1.3l-.1.2-.6-.1.3.1-.6.3h-1.1l-.2-.3c-.2.2-.5.3-.9.3l-1-.2-.2.3c-.5-.2-1-.2-1.7-.1l-1 .1c-.2-.2-.5 0-1 0h-.9l.7-.2h-3c-.4 0-.6.2-.6.4h-2.3l-2 .2h-1.8a16 16 0 0 1 -1.7 0h-1.8l-.6.1a4 4 0 0 1 -1.7-.1l-.2.2h-1.8l-.5.1h-2.8l-.8.1v-.2h-.5l.2.1-.8.1h-1.8c-.3.2-.6.2-.9 0l-.7.1-1 .2h-5.4l-.5.2c-.2 0-.4-.2-.7 0h-1.3l.3-.3h-.2c-.2.1-.4.2-.7.1h-.3c-.2.2-.6.1-.6.1-.1-.2-.4 0-.6 0l-1 .2h-.8l-.9.2h-.8l-.4-.1h-2l-.5-.1c-.2 0-.3.2-.5.3l-.2-.2c-.2 0-.1.3-.6.2v-.3h-.7l-.2.1c0 .3-.3.2-.6.1 0 .1-.3.2-.7.2h-1.5l-1.3.1h-.7c-.8 0-1.6.2-2.3.3h-1.3l-.9.2h-2.3l-.7.2h-1.2l-1.4.1-1.4.1-2 .2h-1.1c-.3.2-.7.1-1.1.2l-.4.2-.4-.2h-.8c-.4 0-1 .2-1.5 0h-.5c-.4.2-.7.2-1.2.1h-1c-.3 0-.6.3-1 .1l-.9.3h-.2c-.1-.3-.5-.3-1-.1h-.1c-.4-.2-.9 0-1.3-.1h-1.4c-.4 0-.9.3-1.5.2-.3-.1-.8-.1-.6-.4l-1.5.1c-.6-.3-1.3 0-2 0 0 0-.1-.3-.8-.1l-.6-.2h-1.5l-.3-.1h-2.3c-.3-.2-.6-.1-1.1-.1l-.2-.2-.8-.1h-.2c-.7-.1-.9-.1-1.3-.3l-.8-.3c-.3 0-.3-.2-.8-.1l-.9-.2-.6-.2v-.1l-2.2.1c-.3 0 0-.2-.4-.2l-.4.3c-.4-.2-1-.2-1.3-.2l-.6.3c-.4-.2-.4-.2-1.3 0l.3.1c-.6.1-1.3 0-2 .2-.2 0-.4 0-.7-.2l-.6.3h-2.4c-.2 0-.6-.2-.7 0h-.6l-.4.1c-.6-.2-1.3-.3-2-.3-.3-.1-1 0-1.3-.2-.4-.2-1-.2-1.6-.1l-.5-.3c-.2-.1-.5 0-.7-.2l-.8-.1v-.3h-1.5c-.2.1-.6.1-.6.3h-.1c-.9.3-1.4.7-2.1 1-.1.3-1 .5-.7.8l-.4.4c-.3-.2-.4-.2-.7 0h-1l-.3-.1c-.3.2-.8.2-1.3.2-.4-.2-.9 0-1.3 0-.1-.2-.2-.4-.7-.4 0-.3.2-.5.3-.7v-.2c-.6-.3-.5-.6-.4-.9v-.3c0-.3.3-.5 1-.8l.9-.3c.2 0 .3-.2.4-.3l.6-.8h.1c.4-.1.4-.3.6-.4l1.4-.9c.2-.2.5-.3 1-.4.3 0 .4-.1.4-.2h1.2v.2l1-.3.1.2h.3l.1.2h1.4c.5 0 .5 0 .7.2.5-.2.8 0 1.2.1l.6.2 2.2.6 1 .1c.3.3.9.4 1.6.3l.1.2h.5c.7 0 1.3 0 1.9-.2l.4.2 1.2-.2.8.3v-.4c.8 0 1.3 0 2-.2h.4c.6 0 1.2-.1 1.6-.3l1.1-.2.4-.2h1v-.1a8 8 0 0 1 3.4 0h.3c.3.2.8.2 1.2.3l1.6.4c.1 0 .4 0 .2.2l.2.2c.3 0 .6.3 1 .4.3 0 .8 0 1.2.2l.9.1.7.1 1-.1h1.7l1.7-.1h1.2l.5-.1.4-.1h.4c.3-.2.7 0 1 0h.8l.1-.1h2.9l.3.1h.8l1.2-.3h2.7l.3.1 1.3-.2h1.4l2.8-.2c.5-.1.9 0 1.1.2l3-.3c.6.1 1.1-.2 1.8-.3.3.2.7.1 1 0 .5-.1 1.1 0 1.6-.2l1-.1h1l.6-.2c.2.1.5.1.8 0a6 6 0 0 1 1.8 0h1.7l1.7-.1h1.1s-.1.3.4.2c-.1-.2.2-.4.6-.4.5.2 1.3.1 1.7 0 .2-.2.9-.2 1.1-.2.3 0 .7.2 1 .1l2.7-.1h2.1l-.5.1c.4.2.6.2 1 0l1.4-.2c.5 0 1 0 1.4-.3l.1.4h1.6c.3-.3 1-.2 1.3-.3h2.1v.3l.8-.5c.6.3 1.2 0 1.7 0h1.5l.6-.1 1-.1h4.5l1 .1h.7l-.1.2h.2c.3 0 0-.2.2-.3.2 0 .4-.2.5-.3h.7l.4.2h2.1l.1-.2h3.2c.2-.3.6-.3 1-.3h.5c-.2.3-.2.3.4.3h.5c.3.1.6 0 .7-.1.1-.2.3-.1.6-.1l-.9.4h1.1v-.3h.1l.8-.1h1.1l1-.2h5.7c.4 0 .7 0 .8-.2l1.2.2c.3 0 .5 0 .6-.3l.2.2 2.6-.1h1.2c.2-.2.4-.1.6-.1h2.4l.2.1h.2c.2-.2.4-.2.7-.2l.7.1h.9l1.2-.1c.4 0 1 0 1.2.2h.4l.3-.2.6.3.5-.1v.2h.6l-.2-.3h.4c.3-.1.6-.3.7 0l.4-.3.2.3.6-.2s.2 0 .3.2h.4v.2c.2 0 .4 0 .7-.2l.1.1h.1l.9-.1-.3.2c.5.3 1 0 1.6.1v-.3c.3-.2.4 0 .6 0l.6.2-.2-.2h.6l.5.1c0 .1.3.2.6.1h.2l.6.3h.5c.1-.1 0-.4.5-.3h.7l.4-.3h1.4c-.3.2-.6 0-1 .1l.8.2.8-.1c.2-.2.6-.2.9-.1l1.1-.1h1.3l1.3-.1 3.5-.1 1 .3.1-.4h.1l.6.4.2-.2c0-.1.3-.2.6-.1l.7-.1.7.1c.3 0 .5.2.5.3s0 .2.2.3c.3-.2.4-.3 0-.4h1v-.1l.8-.2c.3 0 .5-.2.8 0h.5l.3-.2.6.2c.7-.2 1.2-.1 1.7.1h-.6c.3.1.4.4 1 .3l-.1-.2h1.7l.4-.2.7-.2.4.1h6.2l1.1-.1h5c.5 0 1 .2 1.5 0h2l-.3.3h.9l-.3-.2h.6l1.6.1h1.4c.4 0 .8.2 1.2 0l.9.1.4-.1h1.3c.3.1.5.3.8.2.8-.2 1.6-.1 2.5-.1h.4c.2.1.4.2.5.1h2.3c.3.1.6.3 1 .2.3.2.3.2.8.2l.1.2 2.2-.2c-.3 0-.5-.2-.9-.1l-.9-.1c.3-.1.4-.2.8-.1h1l3 .1h.2c.3.2.6.2 1.1.2h2.5c.3 0 .4 0 .5.2.6-.3 1.3-.1 1.9-.2h.6c.3 0 .8 0 1.2.2h2.5l2.2.2 1.7.1h.4l1.4.2.3.2h-.5.5l.2-.2 1.5.3c.3 0 .4-.1.5-.2l.5.1.8.1h2.3l.1.3.8-.1h.8l.4.4.2-.2v-.1l1.5.1h.8l.9.1h.6l.5.1 1.6.1.9.1h.3c.1 0 0 .3.4.2l.6-.2.3.3h.5c.4-.1.9-.2 1.3 0h1.1c.3 0 .6.1.6.3h1.9c.6.2 1.4 0 1.9.2.7-.1 1.3 0 2 .1h.3l.7.1 1.1.2h1.7c.6.2 1.3.1 2 .3l.9.1h1c.4 0 1 0 1.3.2h2c.3.3 1 .1 1.4.3h.7l1 .1c.6 0 1.1.2 1.6.3.8.1 1.7 0 2.3.2h1.5c.5.3 1.2 0 1.8.2h.7c.4.1.8.3 1.3.2.6.2 1.4.1 2 .3l.6.1c.5-.1.8 0 1 .2h1.3c.7.1 1.4.1 2 .3h.6l.7-.2.8.2c.4 0 .7 0 1 .2h1.2l.5-.1.6.2c.2.2.5.2.7.1h.4c.3 0 .2.1.3.2h.4c.1.2-.5.1-.4.2.7 0 1.1.2 1.6.3l.5.2-.5.3c.5.2.9 0 1.3 0l.2.2-.3.2h.4v.2h.7c.2.2-.2.2-.4.3.3.2 1.1 0 1.1.4l-.5.3h-.4l.3.2-.4.2c0 .1 0 .3-.2.3l-.5.2-.2.1.3.2c-.3 0-.5.1-.7.3l-.7.4h-.9l-1 .2-1.5.2c-.4 0-.6 0-1-.2-.2 0-.5-.2-.8 0l-.6.1c-.3-.3-.7-.3-1.2-.2h-.7l.2-.4c-.3 0-1 0-1-.2l.3-.1a2 2 0 0 1 -.5-.3l-.4-.4h-1.3c0-.1-.3-.2-.5 0-.2 0-.6-.2-1 0-.4-.2-1 0-1.5-.3h-.3v-.2l-.6.2-.2-.2c0-.2-.2-.3-.6-.3h-1.4l-.2.2c-.7 0-1.4 0-2-.2h-1.8l-.8-.2h1c.3 0 .2-.1 0-.1-.3 0-.4-.2-.7-.3l-1 .2.2.2-1.8-.3.2-.2h-1.3v-.2c-.4 0-.8-.1-.9.1h-.7v-.2c-.7.2-.8-.1-1.2-.2l-.1.1c-.1.2-.2.2-.5.1l-.7-.1-.3-.2c-.2.2-.3.4-1 .3l.4-.3-.5-.1v.3l-.9-.4s0 .2-.2.2h-.9c0-.1-.2 0-.4 0h-1l-.2-.1-1.5-.1a1 1 0 0 1 -.8-.1c-.7 0-.9 0-1-.3h-.7c-.8.2-.8.2-1.1.1l.3-.1-.2-.4-1.2.3c-.4-.1-.8-.3-1.5-.1l-.3-.3h-.5l-1.2-.2v.1c-.8-.1-.8 0-1.3.1l-.4.1h-.1v-.1l-1.3-.1c0-.2.4-.1.5-.2l-1-.2h-.8v-.1c-.3 0-.8.1-1.2-.1l-.3.2-.9.1-.8-.1h-1.2c-.4-.1-.5-.1-.4-.4h-1.6l-.5-.2h-.2c-.2.2-.6.2-1 .2h-1.7l-1.4-.1c-.3 0-.7 0-.8-.2.3 0 .8 0 .8-.3-.5.2-.9 0-1.3 0l-.4-.3-.4.3h.4c0 .1 0 .2.2.2-.8 0-1.3 0-2-.2-.2.2-.4.2-.7 0h-.3c-.2.2-.4.1-.5 0-.5 0-1.2 0-1.8-.2h-2.3c-.2 0-.4-.1-.4-.3l-.6.2h-2.5l-1-.1-.1-.1h-.5c-.5-.2-1-.1-1.6-.1h-3.5l-2-.2-.4-.1h-2.1l-.6-.1h-3.7c0 .1-.4.1-.4 0h-1.1l-1.3-.1h-3.3l-.6-.1-1.4-.1h.6c-.1-.2-.3-.2-.6-.2h-1.1l-.6-.1h-4.4c-.3 0-.5 0-.6-.2l-.3-.2-.4.1c-.5.2-.5.2-1 .1l-.8.5h-.9c.3 0 .6-.2.8-.3h-.9c-.2.2-.5.2-.9.2h-1.3c-.5 0 0-.1 0-.3h-.6c-.2 0-.4-.2-1 0l.1.3c-.5 0-1.1 0-1.7.2h-.5c-.6-.2-1.3-.1-1.8 0h-1.5c0-.4-.3-.4-1-.4.7.3.8.4.8.5zm15.4-1.4c-.3.3-.3.3.2.3l-.2-.3h-.7zm14.8 0v-.5a1 1 0 0 1 -.3-.2h-.3c.2.3.2.5.6.6v.3c-.2 0 0 .1.1.1h.4c.2-.1.5-.2.5-.4h-.1l-.3.2-.6-.2zm-48.3-.5c.4-.3 0-.3-.3-.5-.2 0-.5 0-.7-.2l-.4.4h-.6v.2c-.3 0-.1.1-.2.3h-.5 1c.4 0 .8 0 1.1-.2zm45.5.7-.5.3-.2.3.2.2.5-.2.5.1c.2 0 .4 0 .1-.2v-.1h.3l.3.2.5-.2h.6l.3-.2c-1 0-1.8.1-2.6-.2zm-40.7-2.3c-.6.2-.6.2-.2.4h.4v-.3h.1l.7.5.7-.1-.1-.3h-.8c.1-.4 0-.5-.3-.5s-.4 0-.5.3zm-56.3 1.4.5-.4-.7.2v.2c-.2 0-.3 0-.5.2h.6l-.8.7c.9.1 1 0 1.2-.2v-.4c.3-.1 0-.2-.3-.4zm-4 .6h-.8l-.5.3.8.2c.4-.1.8.1 1.4.2v-.2c-.3-.2-1-.1-.9-.5zm11.6.2v-.3h-.3l-1-.3s-.2 0-.2.2v.1c.6 0 .4.2.6.3h1zm35.3-1.7.2-.2s.2-.1 0-.2h-.8c-.4.1-.4.1-.3.3v.3l-.2.1c.5-.1.8-.3 1-.5v.2zm-19.7 1.6h1l-.2-.6-.4.3-1-.2-.4.2h.8zm-1.7 0c-.3.2-.7.2-.8.4a5308.4 5308.4 0 0 0 1 .1l.3.2.7-.2-1-.3zm65.6 0h-.5l.1-.3h-.7c.5.2.3.3.5.4l.6.4.6-.1v-.2h-.7zm-101 .6c-.4-.2-.8-.3-1.4-.3l-.4.2.7.2.4-.1c.2.2.4.2.7 0zm68.8-.7h.8l.3-.2s-.2-.2-.4-.1h-.8v.3zm-36.7 1.1c.6 0 .9-.2.9-.4l-.7-.1.2.2h-.6zm55-2.1a1 1 0 0 0 -.7-.2c-.3 0-.6.2-.6.4l1.4-.2zm41.6 1.6-.7-.2h-.1c0 .2.2.2.2.3l-.4.1.5.1c.2 0 .4-.2.5-.3zm-105.6-.2-.5.2v.1l.2.1h.7c0-.2-.1-.3-.4-.4zm29.6-.7.6-.4h-.7l-.3.2c.1 0 .3 0 .4.2zm1.3-.8c-.1-.3-.5 0-.7 0-.3-.1-.6-.2-1 0a4 4 0 0 0 1.7 0zm49 1 1.1-.5c-.7-.1-1.1 0-1 .4zm-68.8.6h-1.2l.4.3zm63.7 0v.4l.5-.2h.6l.1-.1h-1.2zm-60.9-1.4.1.4c.3 0 .7 0 .8-.2zm60.7.6h-1c0 .2.2.2.3.3zm-47.4.4c.4-.1.8-.2 1-.4-.4 0-.5.1-.7.2l-.5-.1zm124.3 4.3c0 .1 0 .2.2.2l.4-.2c.3 0 .2-.2 0-.2zm-93.6-4.4c-.2 0-.4 0-.7.2h1c-.1-.2-.2-.2-.3-.2zm-48 1h.7c.2-.1 0-.2-.2-.3zm-27.5.1c-.1.2-.1.2.4.6.2-.1.2-.1-.4-.6zm111.4-2.7.6-.2h-.9v.1zm-82.4 2.3.7.3c0-.1.3-.2 0-.3zm41.3-.6c.2.3.2.3.7.2v-.3h-.7zm-77.7-.5h.6c0-.1 0-.2-.2-.2h-.3v.2zm146.5.7c.1-.3-.1-.5-.6-.4zm-8.3 1.8c-.8-.3-.9-.3-1 0zm-124-1c-.1-.4-.3-.4-1.1-.2l1.2.1zm29.3-.7a3 3 0 0 0 -1.3 0l.5.2zm45.9-2.5c.4-.1.4-.1.1-.3-.4 0-.4 0-.1.3zm66.8 6.1-1 .1h1zm-129.6-3c.3-.2 0-.2-.1-.3l-.4.2.6.1zm72.2-2c-.4-.2-.4-.2-1 0h.3l-.1.2c.3 0 .6-.2.8-.3zm-23.4 0h.8l-.2-.2c-.2-.1-.3-.1-.6.1zm38 .7c-.1-.2-.2-.2-.4 0h-.3l.3.2.5-.2zm-30.4-1.5c.2-.2.2-.2-.3-.3-.2.2-.1.3.3.3zm83.8 6.8c-.4-.3-.6-.3-1-.1h1zm-80.2-6.3h.7c-.4-.1-.6 0-.7.2zm-32.7 3 .5-.1.1-.2h-.3l-.3.2zm-54 1.2c.2 0 .7.2 1 0-.8-.2-.8-.2-1 0zm150.4-.1c.1.3.1.3.5.3-.3-.3-.3-.3-.6-.3zm-140.3-2.3c-.3-.3-.5-.3-1-.1zm119 1.9c-.4 0-.3-.3-.8-.3.1.3.1.3.9.3zm-111.6-3.7c-.5-.3-.8 0-1.3-.1h1.3zm116.2 3.5c.2.3.2.3 1 .2zm-10-1.7c-.1-.3-.1-.3-.8-.3zm1.7 0h.1l-.4-.4c-.2.3-.2.3.3.4zm8.4 0h.9l-.3-.2zm44.9 4.2 1.2.2c-.4-.2-.6-.3-1.2-.2zm-155-5 .3.2.6-.1zm-28.2 2c-.3-.3-.4-.3-.8 0zm50.6-1.8.6-.2-.8-.1zm-2.8-1.5.9.1-.1-.2h-.8zm117.9 4.6v-.2c-.2-.2-.3 0-.5 0zm-52-3v.1h.6v-.4a3 3 0 0 1 -.7.3zm-28-.3h-.8c.4.2.5.2.8 0zm-21.5 0c-.2 0-.5 0-.8.2.3 0 .6 0 .8-.2zm-12.4-.5-1 .2c.7 0 .8 0 1-.2zm-23.6 1c0 .1 0 .2.2.3h.3l-.5-.4zm110 1.1-.3.2.2.2.3-.2zm-124-1.4c0 .2.2.3.5.2 0 0 .2 0 .3-.2h-.7zm45.5-1.5c-.4 0-.6 0-.6.2h.5v-.2zm22.5 1 .5-.2v-.2h-.2l-.3.3zm25.8-.7-.7.1zm-66.5 3c.5.2.7 0 1-.1-.5-.1-.7.1-1 .1zm38-2.6c.2-.3.2-.3 0-.3zm35.4-.3h.6v-.1l-.6.3zm41.8 3.5c-.3.1-.3.2 0 .4zm-28-2.5h-.7c.2 0 .2.2.3.2l.3-.2zm-44.2-.5-.5.1h-.4.9zm2.2 1.1h-.8c.2.2.4.2.8 0zm-8.8-.7.1.3c.2 0 .3 0 .3-.2h-.4zm-30.4 1h.1l.5-.1v-.2h-.3l-.3.2zm30.7-1.8-.4.1.4.1zm-83.5 2-.5.2h.6zm5.4-1c.3.2.5.2.7 0h-.6zm137 .7c.2 0 .3.2.6.1.1 0 0 0 0-.2h-.6zm-99.7.3c-.4 0-.4 0 0 .3zm70.3-1.4c-.2.3-.2.3.3.3a.8.8 0 0 1 -.3-.3zm-36.4-1.7.8-.1h-.8zm-13 3.7h-.9l.3.1zm-43.3-2.1h.6l-.1-.2c-.2 0-.3 0-.5.2zm65.7 2v-.1h-.6l.2.2.4-.2zm81.6 1c0-.3 0-.3-.6-.2zm-89-3.6h-.6.4c0 .1.2 0 .2 0zm14.7.8c.4 0 .5 0 .6-.2-.3 0-.5 0-.6.2zm17-.6-.5.1-.2.2h.4c.2 0 .2-.2.2-.3zm29.5 2.1c-.1.1 0 .2.3.2h.1c0-.2-.2-.2-.4-.2zm-120.4-.3h-.2l-.6.2c.6 0 .6-.1.8-.2zm80.5-1.6h-.1c-.3.2-.3.2 0 .3v-.3zm31.1 0c0-.1 0-.2-.2-.3l-.3.3zm-8 .7h-.7c.2.2.2.2.7 0zm-69.5-1.7c0-.2 0-.3-.4-.2zm-46.7 1.5v-.1l-.7.1zm89 .1c.5 0 .5 0 .2-.3zm-11.5-.6v-.2h-.4c.2 0 0 .2.4.2zm63.1 1.5-.3.2c.4 0 .4 0 .3-.2zm-160.5 1a2 2 0 0 0 -.9 0zm16.4-.6-.5-.1c0 .2 0 .2.5.1zm11.5.6c.6 0 .6 0 .6-.2zm135-.6-.5-.1zm-58.4 0h-.5zm-1-.4c.7 0 .7 0 .7-.2l-.6.2zm37.1-1h.1c.2 0 .5 0 .3-.2zm-117.3 0 .3.2.6-.1h-.9zm102-1.5c.2.2.2.2.5 0h-.6zm-46 2c.4 0 .5 0 .4-.1l-.3-.2-.1.4zm-41.8 1-.6.1c.5.1.5.1.6-.1zm71.8-2.2c-.3 0-.4 0-.5.2zm15.6-.5h-.1.3l.3-.1h-.5zm-46 1-.1-.1c-.2.1-.6 0-.7.2zm-9.5.8h-.7zm53.1-1h-.2s-.3 0 .1.2l.1-.3zm15 .3h.3s0-.2-.2-.2-.2.1-.1.2zm-41.9-.1h.1l.2-.2h-.5zm29.7-.3h-.6c.2.2.4.2.6 0zm-95.5 2.5c.3 0 .4 0 .4-.2-.2 0-.6 0-.4.2zm46.4-2.2h-.5l.2.1h.3zm48-.6h-.2c0 .1 0 .2.2.3zm-43.1.3h-.6c.3.2.3.2.6 0zm-44.4 0h.4zm26 1.7c.5 0 .6 0 .5-.1zm-35.3 0c-.4 0-.5 0-.3.2zm56.6-.7c-.4 0-.4 0-.2.2zm88.8 2.5c.1.2.1.2.4.3zm-56.2-2c.3 0 .3 0 .4-.3l-.5.3zm-49.5-1.7c-.4 0-.5 0-.5.2zm50.6.2h.6zm-6 .9.1-.1-.2-.1h-.2l.2.2zm6.5 0h.5zm57.3 2.3c.2-.3 0-.3-.4-.3zm-110.5-1.9h-.6zm-1.8-.2c.2 0 .3-.2 0-.3zm21.4 0 .2-.2h-.1zm16.7.4c.2-.1.3-.2 0-.3h-.1v.1zm71.3 1.3.3-.1v-.2h-.3v.2zm-2.2 0c.3 0 .3 0 0-.2zm-116.8-2.6h.2l-.3-.2zm108.3 2.4h-.6l.3.1zm8.7 0 .2-.1-.3-.1h-.2zm-24-1c-.3.1-.1.2 0 .2h.3l-.3-.3zm-44.6-1.7c.2 0 .3 0 .4.2 0-.2 0-.2-.4-.2zm-41.2.3c-.5 0-.5 0-.4.2zm-5.4.7h-.4l.2.1zm145.6 4.4h-.2v.1h.1zm-173.1-4c-.1-.2-.3-.3-.7-.2l.7.1zm127.9-.8h-.5l.5.1c.1 0 0 0 0-.1zm-117.4 2.8c.3.1.5.1.7-.1h-.7zm103.9-3.3h.5zm19.3 1.8-.5.1c.4.1.5 0 .5-.1zm-43.8-3.1h.5v-.2h-.5zm-44 3.9h-.5zm33.5-1.7v-.2h-.3c0 .1.1.2.3.2zm41.7.7c.2.2.2.2.6.2zm-32.6-1v.2l.3-.1zm-37.2-.7h-.4l.2.1h.2zm-50.8 3.7h.3-.2zm76-2.8c-.3-.2-.3-.2-.6 0h.5zm-20-.7h.7zm26-.2h-.6c.2.2.3.2.5 0zm1.4 0h.5zm-44.8 0 .6-.1a3 3 0 0 0 -.6 0zm113.8 2.8s-.2 0 0 .2h.1c.1-.1.1-.2 0-.2zm-117.1-2.9h-.6zm-5.2 1.2h-.5zm54.5.3h.4zm75.9 1.8-.1.1h.5-.4zm-94.7-4.3-.2.2h.2c.2 0 .2-.1 0-.2zm-7.6 1.5c.2 0 .3.2.5 0zm-71.6 1.7h-.4zm53.5-.4h-.2v.1l.1.1h.2c.1 0 0-.1 0-.2zm58.2-1.5h.2v-.2h-.1zm-77.5.7h.2l-.1-.3zm-16 .9.3-.1-.2-.1h-.1zm75.3-1.2h-.6zm-38.2 1.2h-.1v.1h.3zm119.8 1.3c.1.2.3.2.5 0zm-8.7 0h-.3v.1h.3zm-91.8-1.5-.4-.1h-.1.5zm-19-.7h.4-.3zm-37.7 1.3h.1l-.2-.2zm103.8-2.3-.3-.2h-.1c0 .1 0 .2.4.2zm-133.1 1.4h-.1s.2.2.4 0zm4.2.6h-.2l.1.1h.2v-.1zm9.1.5-.4-.2h-.2c.2 0 .4 0 .6.2zm127-.6h.2c0-.1 0-.2-.2-.2zm-85-.6c.3 0 .4-.1.3-.3zm-12.3.4-.5-.1zm84.9-.9h.4zm33.1 1.9h.5zm-98.9-1.8h-.5zm82.2-.7h-.1l-.2.1h.4zm-84.6.3h-.4zm117.5 2h-.2.3zm-46.6-2.2h.3zm-16.2 2v-.1a80 80 0 0 0 .1 0zm35-2.2h-.5l.1.1h.3zm-103.6 1 .3.1c0-.2 0-.2-.3-.2zm88.1-.2c.1.2.1.2.5.2zm-56.1-.2h-.2v.2h.1c.1 0 0-.1 0-.2zm2.1.8h-.3.4zm13.4-.2h-.4zm-83.4-.5h.4zm63.8.2.1-.1h-.3zm47-.7h-.2v.2h.3zm25.8 2.1h-.5zm-66.5-2.2h.2-.3zm50.5-.7h.2zm-35.4.7v-.1c-.2 0 0 0 0 .1zm41.2 0c-.2 0-.4 0-.6.2l.6-.1zm-2.6.9-.2-.1h-.1l.2.1c-.1 0 0 0 0 0zm-12.5-1.2h-.2zm-55.5 2 .2-.2h-.3l.1.1zm-32.4-1.2h-.4zm136.3 2.3c.1 0 .1 0 0 0 .1 0 .1-.1 0-.2h-.2zm-56.5-1v.1l.2-.2h-.2v.2zm3-1.1h-.2zm63.4 1.8h-.1c0 .1 0 .2.2.2zm-27.1-1.4h-.2l.2.2zm-68.9-1.6-.2.1.1.1h.2zm-82.7 3-.2.2h.1l.1-.1zm59.4-1.2h-.3zm68.8-1.2h.1l-.1-.2zm-70.4 1.2h.2v-.1h-.2zm45.6.1.1.2h.1zm7.2-1.2-.1-.1h-.3zm75.2 3.3h.1-.3zm-96.9-2.9h-.2l.1.2h.1v-.3zm-5-1.2-.2-.1h-.2v.2h.4zm83.5 5v-.2h-.1v.1zm-137.9-4.8h.5zm32.8.7h-.1l.4.1h-.3zm49.2 0h-.4l.2.1h.2zm19.4 0v-.1h-.2.2zm-94.9.8h-.4v.1zm50.5-2.4h-.1l-.1.2h.2zm-34.5 3.2h-.2z" fill="#f5663e"/></svg>