<svg fill="none" height="23" width="551" xmlns="http://www.w3.org/2000/svg"><path d="m256.3 4h-6.9l-.3.2h-.9c-.1-.1-.2 0-.2 0h-2.3a8.8 8.8 0 0 0 -2 .1l.2.2.9-.2-.1.2h.3c.6 0 1.1 0 1.6-.2h.6l-.4.1h1.7-1c.4-.2.8-.1 1-.1h1.1-.7l.2.1h1.3c.2-.2.6-.2 1-.2h.7-.2c.4-.2.4-.2.6 0l.7-.2.3.1h-.6l1.1.1v.2h-1.8a1 1 0 0 1 -.3 0h-.2l-2 .1h-.6c-.2.2-.6.1-1 .2l.2-.2-.7.2v.3h.1c.2-.1.5-.1.8 0h1.9c0 .2-.1.2-.3.2h-3s.5 0 .3-.2a2 2 0 0 0 -1 0h-.6c-.1.1-.1.1.4.1h.4a2 2 0 0 1 -1 0h-1v.1c-.8 0-1.6 0-2.4.2l.4-.4h.8l-.5.2h1.7l-.2-.2h-.3.1-.6l-.5-.2a23 23 0 0 1 -2-.1h-1.4l.2-.1h1.4c.4 0 .4 0 .5-.2h-.5l.7-.2h-3.5l-.3.1.1-.1h-2.3a5 5 0 0 1 -1.2 0 4.4 4.4 0 0 0 -1.5.1 2.7 2.7 0 0 1 -1 0h-.4l-4.4.1h-.2l1.2.1h.4a3.7 3.7 0 0 1 1.2 0l-.5.2.1.1c-.1 0-.3.1-.4 0l-1.8.1h1c-.4.1-1 0-1.2.2a21.6 21.6 0 0 0 -1.2-.2 16.9 16.9 0 0 0 -2 .2l-.5-.1h-.7c.2-.1.4-.2.5-.1a1 1 0 0 0 .6 0l.3-.1h.4c0-.2.6-.2.8-.3l-1.6-.1c-.3.1-.9 0-1.3.2h1.2-.7l-.5.1-.5.1.6.1-1.4.1.5.2h-1.3l.4.1a4 4 0 0 1 .7.1l-1 .1h-.5l-.8.1a6 6 0 0 1 -.4 0h-2.1.3c0-.1-.3 0-.8 0h-.5l1.2-.3h-.5a8 8 0 0 0 -.4 0l-.8-.1h-4l.1.2h-.3l.2-.2h-3.7a21.2 21.2 0 0 1 -1 0h.3v-.5h3.2l-.7.1h3.6l-.4-.1h1.5a15.5 15.5 0 0 0 2 .1h.9l-.5-.2h1.6l.2-.1a15.7 15.7 0 0 0 -2.1 0h-.8l.9.1h-2 1l-.2-.1h-1.2l.2-.1h-.8.2-.9a45 45 0 0 1 -5.2.2l-3.6.1h-5.8v.1l-3.5.1c.3.2.7 0 .9.2h-.6c0 .1 0 .2.3.2h.4l1.5-.2h.3l.4-.1 1 .1 1.3-.1c-.2.2-.5.1-.8.2h3.2l-.4-.2h.6c.1.2 0 .1.3 0h1.3-.8l.4.1h1.3l-.6.2h-1.3l-.8.1h-.5.3l-.1-.1h-1.9l-.8.1h-1.1l-1.1.3h2.6l-.9.1h-1.8a4.6 4.6 0 0 1 -1.8 0l.3.2-1.6.1.2-.1-.1-.1c.3-.1.6 0 .8 0l.3-.1h1.4l.5-.1-.2-.1-.2-.1h-.4.2-.7l-1.2.1a9 9 0 0 0 -1 0h-.6l-.6.2h.4l.5.2h-2l.6-.1h-.6l.1-.3h-1.9v.2h-1l2 .3c-.9 0-1.8.2-2.6.1v-.2l-.5.2-1.5.2v-.4c.1 0 .4 0 .4-.2l-1.3.2.3.2a1.7 1.7 0 0 1 -1 0 3.6 3.6 0 0 0 -1.3 0l-1.3.1h-.4l-.3-.1.3-.1h2.5l.4-.1h-1v-.2l-.9.2h-1l.4-.1a4.5 4.5 0 0 0 -1 .1h-.2a1 1 0 0 0 -.6 0l-.9.1h-1.7a4 4 0 0 1 -.9 0l-.6.1h-1.3a23.9 23.9 0 0 1 -2.5.2l-.1.1-1.5.1h.6l-.3.2h-1.7l-2 .2h-1l.1.1-.4.1h-.3c0 .2-.4.2-.5.3h1l2.5-.2a2.4 2.4 0 0 1 .8.1l-1.2.2h1.2c-.8 0-1.4.2-2 0v.1h-1 1l-.4-.2a11.7 11.7 0 0 0 -1.3 0h-.8l.5.2h-.3c-.2.2-.7.2-1.2.2-.4 0-.7.2-1.1 0l.9-.1-1.1-.2-.2.1.4.1h-1.2.6l-.3-.2h1.5l.6-.3h1.6c0-.1 0-.2-.3-.2h-2.5c.3.2.8 0 1 .3h-1l-.2-.5 4-.1h-1.4l1.1-.2-1.5.1a8 8 0 0 1 -1 0l-2.3.1h-.6l-1.4.1h-.3l-1.6.1h-1.3v-.2l-1.6.1h-.1l-.2.1h-.7.3c-.4.2-.4.2-.5 0h-.3.3-1.7.7v0h-1.3l-.4.2h.6c-.1.2-.4.3-.8.3h-1.9a92.6 92.6 0 0 1 -2.6 0h1-.1l.3-.2a4.3 4.3 0 0 0 -1 0 4 4 0 0 1 -1.2 0h-.6a1.9 1.9 0 0 1 -.8.1h-.8l.4-.1h-.5.4v-.1c-.1 0-.2 0-.1-.2h.3l1.2-.1 2.1-.1h1.7l.7-.2-3 .1-3.2.2v-.1h-1.1a1 1 0 0 0 -.6 0l-1 .1h-1.1.3v-.1h-1.2l-.2.1h-.3l-1 .2c-.4 0-.8.2-1.3.1l-.5-.2a6 6 0 0 1 -1.3.2h-1.7c-.6.2-1.2.1-1.7.1h.3a4.4 4.4 0 0 0 -1.5 0h-.5c-.6 0-1.2-.2-1.8 0h-.8c0 .2-.8.1-1 0h-1.4l1.1-.1h-2.1l.7.1h-.8l-.4.2h-.6s.1 0 0 .1l-.9.2a2.9 2.9 0 0 1 -1.2 0 1.8 1.8 0 0 0 -.6 0h-1.7v-.2l.7-.1c-.9 0-1.7 0-2.5.2l-.3.1c-.3 0-.6 0-.8.2h-.3c0-.1 0-.2-.3-.1h-.8l.5-.2-1.6.1.1.2h-.2l-.5.2-1 .1h.5c-.2-.2-.5 0-.8-.1l.5-.1a5.6 5.6 0 0 1 -1.8-.2l1-.1h-2l-1.6.1h-2.6l-1 .1h-.3c0 .2-.6.1-.9.1l-.7.1h-.7l-.7.1c-.1 0-.3 0-.2-.1h.6l2-.2h.3-2.2.5l.7-.1h-.2l-2.7.1c-.3 0-.3 0-.3.2l-1.8.2v-.4h-1l-1.6.2h-.6c-.2-.2-.4 0-.5 0l-1.4.1h-.5l-.2.2h-.2a2.3 2.3 0 0 0 -1 0 4 4 0 0 1 -.9 0h-.7c-.4.2-1 0-1.4.1-.4 0-.8 0-1.1.2a.6.6 0 0 1 -.3 0h-1.5l-.2.1h-.7.4-1.6.6l-.3-.1a13.1 13.1 0 0 0 -1.9.1h-.2l1.3-.2h.2l-.4-.2h.7l.3-.1a7 7 0 0 0 -.3 0h-.8a1.7 1.7 0 0 0 -.7 0 5 5 0 0 1 -1 .2 6 6 0 0 0 -.7 0h.6v.1h-.2l-.7.3h-.7c-.3 0-.4 0-.7.2h1.8-.5l-1 .2c-.3.2-.5.1-.7.2h-.7l-.7.1h-.3c.5 0 1.1 0 1.6-.3a6.2 6.2 0 0 1 -2 0h.3l.4-.1-.5-.1.8-.1-2.5.1 1.3-.1.4-.1.2-.1-4.1.2.7-.1h-.4c0-.2.1-.2.3-.2l1.3-.1 1.4-.1h1v-.2h-.9v-.2c-.5 0-.8.2-1.3.1h.4l-.5-.1-.2.1c-.4-.1-.7 0-1 .1v-.1l-.7.1-.1-.1h-.5l-.2.1c.2.2.5 0 .7 0l-1.3.3h-.2l.3-.2h-1.1.5a1.8 1.8 0 0 0 .7-.1c-.6-.1-1 0-1.6 0l.6-.1-1.9.2h.4l-.4.1h-.7c-.2.2-.3 0-.6 0l-.1.1-1 .1h-1.7l-.2.2h-.2l-1.1.2c0-.1.3-.2 0-.2l-2.3.2-.4-.2h.6l.3-.1h.3-2.2l-.5.2h-1.4.2l.6-.2.5-.1h1.1l1.2-.1h-.5l1.6-.3-5.6.4v-.2h-.5l-1.2.2h-2.1l-.8.1-1 .1a10.6 10.6 0 0 1 -2 .2h-.2l1.7-.3h.8a134.5 134.5 0 0 0 3.3-.3h-1.3.1-1.7l-1.5.2h-.3c-.7 0-1.5 0-2.2.2h.2-1.8l-1.3.1h-.3l-.4.2h-1.4l.9-.1h1l.8-.2h-1.5l-3 .3-1.3.1-3 .3-3.9.4h-2.3l-1 .1h-.5l-3.5.4h.1l-1.4.2h-.7l-.6.1-1.4.2h-.3l-2.9.3-2.8.3-2.4.3-2.2.2-3.5.4h-.2 1.3c0 .1.2 0 .4 0h.6l-2 .4-1.6.2c-.4 0-.7.2-1 .1l-.4.1h1.5l-.7.2c0 .2-.4.3-1 .4h-.3l-.2.1 2.7-.1-.6.3a26.3 26.3 0 0 1 -2 .4 3 3 0 0 0 -.4.3h2.8-.4s-.4 0-.3.2h-.3l-.8.2h.8v.2h1.7c.2 0 .1.1-.1.2h-.9l-.3.1c-.5.2-1 .2-1.6.3l.4.1-.3.1h1.2l-1 .2h.5l-.2.1a9.2 9.2 0 0 0 1.3 0l.3.2h-1 .2-.6a2 2 0 0 0 -.4.1 1 1 0 0 0 -.4.2l.3.1c.4 0 .6-.2 1 0l-1.4.1v.2h1.2-.4l.3.2c-.3.1-.3.1-.1.3h1l-.1.1h-.3l-.4.2h-.5c.1.1.3.2.5.1a.9.9 0 0 1 .4 0 3.1 3.1 0 0 0 1.3 0h.3l-.5.3-.5.1-.6.1a1.1 1.1 0 0 0 .6 0 2.4 2.4 0 0 1 .9 0c-.1.2-.7.1-.6.4h1c-.2.1-.7 0-1.1.2h1c-.3.2-.8 0-1 .3.6 0 1.2-.2 1.9 0h-.6v.1l-.7.1-.3.3h2.5l-.8.2-.7.1c.3.2.3.2 1 .2h-.6c0 .2.3.2.5.2h.6c-.1.1-.7 0-.8.2h.7-.4l-.2.1h-.4l.4.2c.2 0 .6-.1.8 0h.8l-.5.1.2.1h-.3l-.1.3h.1l1.1-.2-.3.2.2.1.4.1.5.1 2.2-.2c-.2.2-.7.2-1 .3h.3l1.9-.2 2.7-.4a85 85 0 0 1 4.2-.3l-.3.1 1.7-.1h-.4l.1-.2 1.4-.2h.5l.4-.2.4-.2h2.4c.1-.2.1-.2.4 0 .3-.2.6-.2 1-.3h.8l-.3.1 3.1-.3v.1h.8-.3v-.1l.8-.1 1.9-.2.4.1c.1 0 .1-.1.4 0h.1c.1-.2.4-.2.6-.2h1l1-.2.8-.1h.4c.4-.2.8-.1 1.2-.1h1.1a13.4 13.4 0 0 0 2.1-.2h.8l1.6-.2c.2 0 .4-.2.2-.3l-1.7.2h-1.3l.1.1h-.7.6c.4-.2.9-.3 1.4-.3h1.7l1-.2h1l.5-.2h.6c-.3.2-.3.2-.8.2l.3.1h.3a2.1 2.1 0 0 1 .8 0h.7a13.2 13.2 0 0 1 2 0l-.3.1c.8 0 1.5 0 2.1-.2l-1.5.1.2-.2.7-.1.5-.2h2.5l.7-.1h-.2c0-.1.4 0 .3-.2h2.2a2.6 2.6 0 0 0 1 0 15.7 15.7 0 0 1 2.7-.1c0-.2.4-.2.6-.3a4.1 4.1 0 0 0 1.7 0h.9l.6-.1c-.3-.2-.7 0-1-.1h.2l.1-.1h.7a2.8 2.8 0 0 0 1 0h2.3a9 9 0 0 1 1.2-.2h2.7l1-.2h.3l1-.1h.5l1.3-.1h1l.7-.1.8-.2h1.8l1.8-.1h1.6-.5l-.3.1h-1.5l-1.7.2-2.5.2h-.6l-.2.2h.7l1-.1h1.7c.5-.2 1.1-.2 1.7-.2l1.8-.1a21.8 21.8 0 0 0 3.1-.2l1-.1a1.6 1.6 0 0 1 .5 0l1-.1h1.3l2.3-.1 1-.1 2.5-.2 2.7-.1 1-.2h1.3l4.4-.2 3.7-.3h.6a9 9 0 0 0 1.8-.2c.2.1.4.2.7 0a.7.7 0 0 1 .2 0h2l2-.1h1.4l.6-.1h1l2.8-.2.4-.1h.4l.2.3 1-.2h-.7l.8-.1h.3l2-.1.9-.1h.7c.2.1.3 0 .4.2.1 0 0-.2.4-.1l1.5-.2h2.4l.8-.1h.5l.1-.2.4.2v-.1a6 6 0 0 0 1.7 0l.5-.1h1-.2l-.2.1h2l1.5-.1h.2c0-.1-.3-.1 0-.2h.3s.3 0 .2.1h2.3v-.1h.3c0-.2.2-.2.5-.2h.2l.3.2h.8l.4-.1-.1.1h2.2v-.2a1.3 1.3 0 0 1 -.5 0h.5l.4-.2h.6-.4c.2.2.5 0 .6.2l.5-.1.3.1.2-.2.4.1h-.1l.4-.2h.6c-.1 0-.5 0-.4.1h.5s.4-.1.4 0h.4l-.5-.2h.7l-.1.1h2.8a4.8 4.8 0 0 1 .8 0l.1-.1h4.8l1.2-.2.3.1h1.7l1.8-.1a2.9 2.9 0 0 0 1-.1l.6-.1h3.2-.5l1-.1-.3.1h1.2l-.4-.1.6-.1h2-.3v.1h1.6l-.3-.1h5.2l1-.1h-.3a4.9 4.9 0 0 1 1.3-.2h3.5l.6-.1-.1-.1h6.5-.3 1.2-.3.1a.9.9 0 0 1 .5 0h1.9s0-.2.3-.1h2.7l.5-.1h4.5l1.4-.2h5.4c.8-.1 1.7 0 2.5-.2a3.7 3.7 0 0 0 1.4 0h3.7l.4-.2.4.1h7.5l2.5-.1h3.5c.4 0 1-.1 1.6 0l2.4-.2h10.4l2.8-.1h3.4l.6-.1h.6-.2c.2 0 .5.1.8 0h.6c.5 0 1 0 1.6-.2l.3.2h.6a3 3 0 0 1 1.1 0h7.8v-.1h12.9a2 2 0 0 1 .8 0h1.4c.2 0 .4-.3.9-.1.4-.2.6-.2 1 0h6.8a38.2 38.2 0 0 1 3.8 0h1.3a.5.5 0 0 1 .2 0h8.5a2.2 2.2 0 0 0 .6 0 1.1 1.1 0 0 1 .5 0h1.3l1.2-.1h6.7a2 2 0 0 0 .6 0h2.3a3 3 0 0 1 1.2 0h6.8a10.9 10.9 0 0 0 1.2 0h1.9l1 .1h2.4a14.7 14.7 0 0 1 2.4 0h2.4c.4.2.8 0 1.2 0l1.7.1h7.3a21.3 21.3 0 0 1 2.1.1h2.7-.5 1.3-.4 8.4-1.3l.4.1h.9a2.2 2.2 0 0 0 .7 0l.4-.1h2.6l-.2.2h.8l-.5-.1h5.6-.4l4.6.2-3.2-.1h6.4-1.6l.4.1h5.1-.4a3.4 3.4 0 0 1 .7 0h2.4a3.4 3.4 0 0 1 1.2.2l.4-.1h2.7c.3 0 .3.2.6.1h.7a1.4 1.4 0 0 0 .6 0 1.8 1.8 0 0 1 .8 0h-.2 8.1v.2l.8-.1h2.1a11.4 11.4 0 0 1 1.8 0h1.7l1.6.1h2.4l2 .1 4.5.1 4.1.1h2.9l3.4.1h3.4l2.5.1h2.6c.8.1 1.6.2 2.5.1l1.4.1h3.2l3.5.1 3.2.1 4.9.1h.4c-1-.1-2.2 0-3.2-.2h6.2l4.4.2h9.3a11.7 11.7 0 0 0 2.5 0h2.4l-.2.1h7.9a8.1 8.1 0 0 0 1.6 0h1.4c1 .1 2 .2 2.9.1h.4-.4 1.5c.1-.2.4-.2.7-.1h-.4 1.5-.8 1.5l1.1.1h-.4l.1-.1h2.4a54 54 0 0 1 6.3 0h1.4l1.8.1h2.7l-.1-.2h-2.8a44.4 44.4 0 0 1 -4.8-.1h-7.2l-2.7-.1-1.4-.1c10.5 0 21 .3 31.4.4l-2.9-.1-.2-.2c.2-.1.5 0 .8 0h2.8a10.5 10.5 0 0 1 .9 0h1.8l3.2.2h1.3-.7l.6-.2h1.7l-.2-.1h1.3v.2h2-.7 1.1l.7.2-.2.2.7.3 1 .2h1v.2l.3.2.7.2c.2 0 .5.1.8 0 0 .1 0 .2.2.2h.9v.4h1c0-.1 0-.2.2-.2h.8l.5-.2c.1 0 0-.2-.4-.3a1.7 1.7 0 0 0 .5 0l.2-.2h.1l-.2-.3 1-.7h.3v-.1a1.4 1.4 0 0 1 -.4 0l-.1-.1-.1-.1-.1-.1c0-.2.5 0 .6-.1l-.4-.1.2-.2.1-.2-.4-.1.9-.1c.1-.2 0-.2-.2-.3l-.3-.2.3-.1h.4l.4-.1-.2-.1c-.3-.1-.3-.2-.2-.3h.8c0-.2-.3-.2-.4-.3l.1-.2.4-.3c0-.2 0-.2.3-.2h.2v-.2c-.2-.1-.2-.2-.2-.3l.5-.3.3-.1c0-.1.1-.2 0-.2.5-.2.5-.2.1-.3l.6-.4c.4-.1.1-.2 0-.2 0-.1 0-.3.3-.3l.2-.2v-.4l.4-.2c.6-.1.5-.4.5-.6 0 0 0-.2.2-.2l.3-.2-.4-.1v-.2c.2 0 .3-.2-.1-.2h-.1c0-.3-.3-.3-.6-.3l-1.2-.2-1-.2-3.5-.1-3.7-.2-2-.1-2.5-.1-3.6-.1a70.1 70.1 0 0 0 -4.8-.1h-.9l-.9-.1h-5l-2.7-.1h-5.6a66.7 66.7 0 0 0 -6.7 0l-2-.1h-5.2l-2.3-.2h-9.5l-.5-.1h-1.6l-3.7-.1a55 55 0 0 1 -6.3-.2h-.3a8.2 8.2 0 0 0 -2 0h-1a25.9 25.9 0 0 0 -3.5 0l-.3-.1c-.2-.2-.4-.1-.7-.1h-5.2a21.9 21.9 0 0 1 -1.6-.2h-2a23.5 23.5 0 0 1 -1.7 0h-.3a17 17 0 0 0 -2.6 0l-.5-.2h-5.1l-1.3-.1h-2.8l-1.1-.1-.8.1h-.3a4 4 0 0 0 -1.6-.1h-2.8l-1.2-.1a4.1 4.1 0 0 0 -1.5 0h-1.4.3s-.1-.1-.1 0h-4.8l.2-.2h-3c-.3.1-.6.1-.8 0h.4c-.2-.1-.5 0-.8 0h-4.4l2.3.2h-3.5l-.6-.2h-2.5l.3-.1h2.5l-.4-.2h-2.7.2-3 .3-1.5v.3l-.5-.1a4 4 0 0 0 -.8 0 2.3 2.3 0 0 1 -.7 0h-.3l.5-.2c-.3 0-.7-.2-1.2 0h-.7.2v.1h-1.6c0-.2.5-.1.6-.2h-2.5l.8.2h-4.3a75.5 75.5 0 0 1 -6 0c0 .2-.2 0-.4 0h.2l-.1-.1h-.6a3 3 0 0 0 -1 0h-1.2c.1.1.5 0 .8 0l.9.2-.8.1h-.8l2 .1.6.1h-8a37.2 37.2 0 0 0 -3.4 0h.8l-.5.2h-3.2l.5.1h1.2l-.1.1h.3l-.6.1-3 .1 2 .1 2 .1h-3.3a5 5 0 0 1 -1.2.2h-1.3c.3-.2 1 0 1.4-.1l-1.4-.1h-.9a7 7 0 0 1 -1 0h-2.9 1l-.2.2h.3-.2v.3h.5l-.2-.2h3.2c-.3-.1-.8 0-1-.3h1.1v.3l1.3.2h.9a2.6 2.6 0 0 0 1 0h1.6c-.1.2-.5.1-.9.2h.6l-.1.1h2.1l.1.2h-2.5.3-1.2v.2h-.5c-.2 0-.4 0-.6.2h-1.6l.2.2h-.8l.2-.3h-1l.2.2h-6l.2-.1h3.3l.4-.1-1.5-.1h.6c0-.2-.2-.2-.4-.2l-.4.2h-.3c.2-.3.7-.2 1.2-.2l.3.1h.6l.7-.2h.3-.5c-.3 0-.3 0-.3-.2h-1.4l-.1.2h-.8l-.3.1-.3-.1h-.4l-.3-.1h-.6a7 7 0 0 1 -1.2.1l.2-.1h-.9l-.5.1a3 3 0 0 1 -.5 0h-.6l-.3.1h2.5l1.1.1h-.5c.2.3.7 0 1 .2l-1.4.1a19.5 19.5 0 0 1 -2.1 0h-.9l.4-.2a5 5 0 0 0 -.7-.1 5.2 5.2 0 0 0 -1 .2c-.4-.3-.9-.1-1.3-.1 0-.2 0-.2.8-.2h-.6v-.1l1.1-.1v-.3l-.5.1h-.8l.2.1h-.8c-.5 0-1.1 0-1.8.2h2.2-.4c-.1.1-.4 0-.3.2h.7l-1 .1h-.2l.3-.1h-3.6 1.2-3.7.7c-1.2.2-1.4.2-1.6 0 .3-.1.6-.1.6-.3l.6-.1h.8a1 1 0 0 0 .3 0h.2v-.1h-5.2l.1.1c.1.1.3.2.6.1h1v.2h-1.1c-.2 0-.3 0 0 .1-.4 0-.8 0-1 .2l-1-.1c.3-.2.7 0 1.1-.2h-4.2 2.6v-.1h-2c.8-.1 1.6-.2 2.5-.1.2 0 .3 0 .4-.2h.5-.4c-.3-.2-.5 0-.9 0h-1l.2-.1h.8c-.2-.2-.4 0-.7-.1h-2.8l.2.1h-.5l3.1.2h-.2a1 1 0 0 1 -.3 0 1.1 1.1 0 0 0 -.6 0h-1.5c.2.2.4 0 .6.1l-.8.2h-.2l-.3.1h-.1v-.1h-.7c-.2.1-.4 0-.5.2h-.9l.2-.1h-1.5c-.5 0-.6 0-.8-.2l-1.2.1.5.1-1 .1h-1.5.7l.5-.2h.5-2.6c-.4 0-.6 0-.7-.2l-.4.3-.4-.2h-.6a16.3 16.3 0 0 1 -1.5 0l.2.1-2.2.1h-6.2l-.2-.1c.3 0 0-.2.2-.2h-.7c-.2.2-.6 0-1 0-.2.1-.7 0-1 .3h-1.7 1.1l.4.1h1.2a3 3 0 0 1 -.8.2h-1.9l.2.1 1.7.1a4.6 4.6 0 0 1 2 .1l-1.4.1c.4.2.8 0 1.2.1h-1.9l.1-.2-.4.1.1.1h-.4l-.3.1c-.2.1-.8 0-.8 0h-.1l-.2-.1h-1.7a12.6 12.6 0 0 1 2.1 0l.3-.2h-1.7l.2-.4-.8.1h-1.6l1.8.1h-2v.3h.5c-.6.1-1.1.1-1.6 0 .3 0 .7 0 .9-.2h-1.6l.3-.1h1l.5-.2h-1.2a2.6 2.6 0 0 1 -1 0c.3 0 .6.1.8 0a2.3 2.3 0 0 0 -.9 0l-1 .1h-1.1 1.5v.2l-1.1.1h-1 3.1l.6.1h-.7l-1 .1h-3l.3.2h-2.1v-.1h-1c0 .1-.2.2-.4 0h-1.5l-1-.1-1.2-.1h-2.2l-1.2.1 1.4.1h-3.8l-.2.1h-.4l.3-.2h-1.7l.4.1v.1c.6 0 1 0 1.4.2h-2.6.8l-.1-.2h-1.9l1-.1h-1.3v-.1h.2l-.3-.1h1.2c.4 0 .4 0 .5-.2l.3-.1h-1.3l-.2.1h-2.1l-1 .1c-.5-.1-1 0-1.6 0h.7l.7.1c-.4.1-.6.2-.8.1h-2.9l.1.2h-.6l-1 .1h.5l.9.3h1l-1.8.1h-3.4v-.1h-1l-.3.1-.3-.1.2-.1h.1a1.2 1.2 0 0 1 .5 0h.9l-.2-.4h-.7.5l-.4-.2h-.6l-.6.1-.5-.1h-2.1c-1.2.2-2.4 0-3.7.2h-.5.4-2.4 1.6v.2h.6c.2-.2.5 0 .8 0l.4-.2h-.7.8l.3.1.2-.1h2.6c.2 0 .2 0 0 .1-.3 0-.5-.2-1 0l1.7.1.7.1-1 .1v-.1h-3.1c-.4.2-.8.2-1.2.2h-.4a9.9 9.9 0 0 1 -2.3 0l1.2-.3-1.6.2h.3-.4c-.4-.2-1 0-1.6 0l.2.1h-1.4.7l.1-.3h1.4l-.3-.2h.6-.2a1.9 1.9 0 0 0 -.6 0h-.3l-.5.1-.2-.1h-1.4c.2.2.6.1.5.3h.8-.2a5 5 0 0 1 -.4 0c-.4 0-.6 0-.7.3-.2-.2-.6-.2-1-.2h-.5l-.4.2v-.2h-.4l.2.2a13.1 13.1 0 0 1 -1.6 0h-.3l-.2-.1-.5-.1h-.5l-1 .1h-.9c.3-.1.6-.3.6-.5h.8c-.5-.2-.5-.2-1.2 0h.2-.7c-.1 0-.5 0-.8-.2a11.7 11.7 0 0 0 1-.1h-2.7c.6 0 .6 0 .8.2h-1.3c-.2 0-.1.3-.5.2v-.1h-2.4zm146.9-.4h-.5.8zm-147 .9h.4-.9zm-123 3.3h.5-.8c0-.1.3-.2.3 0zm-54.6 8c.1-.2.4-.2.7-.1h-1.4.7zm31-6.7h.4c.1-.1.3-.1.4 0h-1.6zm316.5-6.5h-.5c.2-.1.3-.1.4 0h.9zm-339.1 13h-.7l-.5.1h.5c.2-.2.2-.2.7-.1l-.2-.1.4-.1zm223-10.7-.1-.1h.6l-.6.1h-.5zm-36.5 1-.3-.2h1l-.8.1-.2.2-.4-.1zm-116.1 1.4h-.4.5-.2.8c-.6.2-.6.2-1 .1h.3zm-149 14.2-1.5.2 1.5-.2h.8a2 2 0 0 1 -.8 0zm331-16.5h1.8c-.3.2-.6 0-.8 0h-1l-.4.2v-.2h-.3zm16-.7h.4-.5.1-1.1c1-.2.9-.2 1.4-.1zm-130.8 1.2s-.1-.2.2-.3c.8 0 1 0 1.2.2a3.8 3.8 0 0 0 -1.4.1h-.5zm104.8-.1c.7-.2 1.4 0 2.1 0 0 0-.2.1-.4 0h-1.7 1.2-1.8zm-121 1.3v.1h-3 4.6a4.4 4.4 0 0 1 -1.6 0zm14.7 1.3a2.3 2.3 0 0 1 1 0h-1-1.5.9l.3-.1h.3zm145.5-2a4.2 4.2 0 0 1 -1.8 0l.4-.1 1.2.1h.2l.7-.1.1.2h-.8zm-136-1.3v-.2h1.2v.2h-1.2c-.1 0 .1.1-.1.2l-.2-.1-.6.1.3-.2zm155.6-1.4-.1.1-.6.2-.4-.1.2-.2h-.4 1.9zm-130 1.1a4.1 4.1 0 0 1 1.3 0c-.3.1-1 .1-1 .4h-.3l.3-.2h-.8l.4-.2zm-163.7 4.3h-.2.2a14 14 0 0 1 1.4-.2l.2.1h-.1l-.1.2h-.2a1.1 1.1 0 0 1 -.6 0h-.4zm263.5-5.2c.3-.2.3-.2.8 0h-1 .2-1.3c-.4 0-.6 0-.7-.2a3.9 3.9 0 0 1 1 0h.4a1 1 0 0 1 .3 0l.1.1h.1zm-256.5 5c-.2.2-.5.2-.7.2h-.6l-1 .2h-.2l.1-.1h-1.1.2l1.8-.1 1.6-.1h.7a3 3 0 0 1 -.7 0zm57.2-.7h2a8 8 0 0 1 -1.9 0h-2.1l-.4-.1h2.7zm-29.7.3v-.1h.4c0-.1.4 0 .4-.2h-.3 1.1a4 4 0 0 0 -.7.4c-.2.2-.1.2-.5.1h-.3v-.2zm74.4-2.4h.5-.5l-1 .1h-1.6l.5-.3.5.1a7 7 0 0 1 1.6.1zm100-1.6-.3.1c-.4 0-.7 0-1 .2h-.3v-.2h2.1l.4-.1h-1a6 6 0 0 1 2 0h-.9.5l-.6.2.4.1h-1.1a6 6 0 0 0 -.4 0l.3-.1v-.2zm-145 4 2.2-.2.3.1h-.9l.6.1v.2h-1.6l.3-.2h-.8l.2.2h-.6l.2-.2h.2zm109.1-.7h-1.8l-1.3.1h-1.1.3c.4-.2.8 0 1.2-.1h3.4a5.4 5.4 0 0 0 .8-.1h5-3.8l-1 .1a18.2 18.2 0 0 1 -1.5 0h-.1zm4.4-2.6.1.1h2.4v-.2h1.2l-1 .2h2.6-6 .5l.2-.2h.7c-.3 0-.4.2-.7 0zm97.8-1.2h-5a2.7 2.7 0 0 1 -1 0l1.8-.1h4l.3.1h.6-.5zm-28.9.5h-.2c0-.2-.3-.2-.6-.2a1.2 1.2 0 0 1 -.4 0h-.1l-.1-.1h-.5l-.5-.1h.6l-.2-.1h-.1 1l1 .2h1.1a.8.8 0 0 0 .3 0 1.9 1.9 0 0 1 .7 0c0 .2-.1.2-.3.2h-1.2l-.5.1h-.6zm-128.5 1.2h-.5c.2 0 .4-.2.4 0h.4l-.3.2h1.3a8 8 0 0 1 -2.4 0c-.2.2-.6.2-1 .2l-1.2-.1h-.4v-.1h1-.5v-.2h1.4l-.5.1h1.8-.2.4l.4-.1zm122.6-2.1h.5c.4-.2.9 0 1.3 0h-1.9.1-1.2a.6.6 0 0 0 -.3 0c-.4 0-1 0-1.2.2h-1.2a3 3 0 0 1 -.3 0l.2-.1-.5-.1c-.5.2-.5.2-1 .1h.5v-.1h-1.3l-1.1.1-.5-.1h-2.8c0-.1 0-.2.5-.2h3.9c.1 0 .1 0 0 .1a10.8 10.8 0 0 1 2 0h4.5zm11.5.6h.2a1.4 1.4 0 0 1 .5 0h.1a2 2 0 0 1 1 0l-.2.1h-4v.2h-.3a1 1 0 0 1 -.4-.2l1.7-.1h1.5-1.1l-.1-.1h-1.6l-1.5-.1.5-.3h-.8l.6-.2h2.2l1 .1c-.3 0-.6.1-.8 0-.6.2-1.3.2-2 .3h2.5l.7.2h.3zm-164.5 2.9h-.5c-.1 0-.3 0-.2.1h3.1a187.4 187.4 0 0 1 4-.2h-.7c-.3.2-.7.2-1.1.2h-1.2l-.2.1a1 1 0 0 1 -.3 0h-1.2c-.3.2-.8.2-1.2 0 0 .3-.2.2-.4.2h-.2c0-.1.4 0 .5-.2a6 6 0 0 0 -.4 0l-1.2.1h-.4a1 1 0 0 1 -.2 0l-.3-.1c.3 0 .6-.2 1 0 0-.1-.2-.2.1-.3h1.8l1.5-.1h.4l-.2.1h-2.4zm37-.9.4.1h8.1l.1-.3-.4-.1.6-.2c.2-.2.8-.2 1-.1l.9.2h-1.2.2l-.5.2v.1l-.4.1h2l-.6.1h-1l-1.8.1h-5.2a19.7 19.7 0 0 0 -2.5.2h-6.6v.1h-1v-.1h-3.2l-1.5.1a3 3 0 0 1 -1 0h.4l.3-.1h5.1l2.8-.2h4.9l.2-.1.7-.1h.7zm177-3.1v.1h-1c.3.1 0 .1-.2.2l3.4.1-.1.1h-3l-.2.1a1.8 1.8 0 0 1 -.7 0h-2 1l-.2-.1c-1-.1-2-.2-3-.1l-.3.1h-.3l-.1-.1h-.6a9.2 9.2 0 0 1 2.4-.1h.4a12.7 12.7 0 0 1 2.5 0l-.6-.1a4 4 0 0 0 -1 0h-.2v-.1h-4.5a1.6 1.6 0 0 0 -.6 0c.5.1 1.1 0 1.5.2h-2.1l.4-.5h1.7v.1h-1.1 7.2zm-158.2 2.5a5.7 5.7 0 0 1 -1.2 0h-.6a2.9 2.9 0 0 1 -1 0h-.1v.2h-.4c.2-.2.3-.3.7-.3h-.1l.2-.1h.6l.2.1c.2-.1.6 0 .8 0l-.1-.2c-.6 0-1.2-.2-1.8 0l-.4-.1h-1l2.5-.2h1l.7-.2h1.3l-.6.2h.6l-1 .3 1.3.1-.4.1h.7l-.5.2h-1.1l-.2-.1zm87.7-.8-1 .1h-1.4c-.1 0-.5-.1-.8 0h-2.2a1.4 1.4 0 0 0 -.7 0 1.1 1.1 0 0 1 -.7 0h.3l1-.1c.2 0 .7 0 .7.2l.4-.2c-.3-.1-.9 0-1-.2h.6l-.3-.2h1.7l-1.2.1h-.1c.2.2.7.1 1 .2h2l.3-.2h-1.2l.1-.1h1a4.2 4.2 0 0 1 1.4.1c-.3 0-.7 0-1 .2h1.4l-.7.1zm77-1.3 1.6.1h2.2l1.3.1h1.3l-.8.1h-.1l.2.2h-.6v-.2h-1.1l-2.6-.1h-2.1l-2-.1v-.2h-.2l.3-.1h.8c.2-.2.5 0 .8 0h-.5 1.3-.2 1.3-.6l.5.1h-.8zm-202.6 3.3a7 7 0 0 0 -1.7.1h-3.5a1.3 1.3 0 0 0 -.3 0l-.5.1a12.3 12.3 0 0 0 -1 0l-2.6.1h-.9v-.1h1.6c.6-.1 1.1-.1 1.6 0l.5-.1a8.4 8.4 0 0 0 1.9 0l4-.2h.6l.2.1zm37.5-.7h2.3l.6-.1h6.4c.4-.2.8 0 1.1 0h.2l-1.5.1h-1.9l-1.2.1h-.7a19.5 19.5 0 0 0 -1.7 0 4.3 4.3 0 0 0 -1.7 0h-.8a4 4 0 0 0 -.9 0h-.3zm34.6-.4h5a25 25 0 0 0 3.1 0h4.9a13.8 13.8 0 0 1 -1.9 0h-3.5a56.5 56.5 0 0 0 -2.5.1h-.6c-.2 0-.8 0-1.1.2h-.4l.1-.2h-3.1zm35.8-1h.7l.5-.1h.6a2.4 2.4 0 0 1 1.1 0 .7.7 0 0 0 .3 0h1-.1l.5.1h-.1l-.1.1a1 1 0 0 1 -.4 0h-.4c-.5.2-1 .1-1.5.2h-.1v-.2h-1l.4.1-1.5-.1zm-46.2 1.3h1.7v-.1h-1.2l2-.1 1.4-.1-.1-.1h.9l-.5.1h1.3-.3c.1-.2.3-.1.5-.1 0 .2 0 .2.4.2h1-.6c-.4 0-.8 0-1 .2l-.4-.2v.2h-2.2l.1-.1c-.3 0-.5.2-.8.1 0 .2-.2.1-.3 0a3.3 3.3 0 0 0 -1.2 0 6 6 0 0 1 -.6 0zm127.6-3.8h-.7a1.3 1.3 0 0 0 -.6 0h-3.5l-.4-.1v-.1l-.4-.1h4.2l1 .2.3.1zm-106.3 3h5.3l-1 .2h-1.1a50.5 50.5 0 0 0 -4.2 0l.3-.2h.3l.4-.1h3.2-1.4a.4.4 0 0 0 -.2 0h-1.5zm-126 2.4.5-.2h2.4a63 63 0 0 1 2 0l-.3.1-.2-.2-1 .1v.1h-.4l-.3.1h-1a7 7 0 0 1 -1.8 0l-.7-.2h.8zm232.2-5.2a9.3 9.3 0 0 1 2.6 0h3.3-1.6c-.3 0-.3.2-.4.2h-.6c-.1-.2-.1-.2-.5-.2zm-231.2 6.3h-1a5 5 0 0 1 -1.8 0l.4-.1h.2l-.8-.1 2-.1-.8.1h1.2c.4 0 .5 0 .6.2zm160-3.8h-.4a2.3 2.3 0 0 0 -1 0h-.8l-.6-.2-.8-.1a3.7 3.7 0 0 1 1.2 0l.6.2a33.8 33.8 0 0 1 3-.2l-1.1.2zm-136.6 2.9-1-.1h2.4l-.3.1a9 9 0 0 1 2.2 0h-.2l-1.9.1h-2.1l1-.1zm-30.5.6a53.8 53.8 0 0 1 -4 .2h.4c-.3-.2-.7 0-1-.2h2.3-.5zm-94.9 2.7c-1 .2-2.1.3-3.3.3.2 0 .5 0 .5-.2l.2-.1h-1c1-.2 2.1-.3 3.3-.3l-2 .3.5.1h1.8zm249.9-5.3.7-.1h5.2l-.6.1zm84.1-3.6 1.1-.1h3.4l2.4.1h.3zm-52.8 1.4h2.1l1.7-.1 1 .1h-.3a2.1 2.1 0 0 0 -1 .1h-3.5zm53.6-1.8 1.4-.1h1.6a11.6 11.6 0 0 0 1.8 0l.6.1h-5.5zm-.6 0h-4.3l-1.2-.1c.4 0 .9-.2 1.2 0l.9-.1a50.3 50.3 0 0 1 3.4.1zm-25 3.1h.9-2v-.1h-.3l.6-.1c-.1-.2-.2-.2-.6-.2h-.5l.3-.1h1l.1.1.3.1 1.2.2h-1zm-225.3 2.8h2.3a1.3 1.3 0 0 0 -.4 0l-.3.1h-.1l-.3.1-3 .2h-.4l2.2-.2zm268.7-4.3h-.1c-.5 0-1 0-1.5.2h-2l-.4-.3h3.6zm-70.8.8-1.9.1h-1.7a8.6 8.6 0 0 0 -2 0h-1a2.1 2.1 0 0 1 -.7 0 23.3 23.3 0 0 1 3.1 0h.2l.1-.1v-.1l1 .1zm11-.2h-1.2.5l-.3-.2.6-.3 1.3.1h-.3v.1h.8c-.7.2-1.4 0-2 .3zm141.4 8.6-.1.1h.8-3.7l-.8-.1c.6-.2 1.2 0 1.7 0h.1l.8.1h.8zm-139-7.6h2.7a13.7 13.7 0 0 1 1.9 0l-1 .2.1-.2-1.1.1a8 8 0 0 1 -1.3 0zm-85.7.2c.9-.1 1.6 0 2.4.2h-.5a6.5 6.5 0 0 0 -1 .1 2 2 0 0 1 -.3 0 1.3 1.3 0 0 0 -.6 0h-.5l.4-.1h.8l.3-.1h-1zm-150.5 9.7a15 15 0 0 0 -1 0h-.3.8l-.5-.1a19 19 0 0 1 2.7-.2l-.5.1.1.1-1.6.2zm137.4-9h4.2-.6a3.4 3.4 0 0 0 -1.2 0l-.5.1h-.9zm-.6.2a4 4 0 0 1 -.6 0h-2.6l-.3-.1h.2l.5-.1h1.5a3.8 3.8 0 0 1 1.3.2zm77.4-2.2h.1a35.2 35.2 0 0 1 4.7 0h-.7l-.8.2h-.2a4.6 4.6 0 0 0 -1.7-.1zm40.7.6.2-.1 1.2-.1.9.2-.9.2a4 4 0 0 1 -1-.1h.8zm-81.1 1.8h-.8l-.8.1c-.2.1-.5 0-.8 0h.5-.2c-.3 0-.7 0-.9-.2h-.8 2.3-1 2.5zm107.5-3.1h2.8a3.1 3.1 0 0 0 -1 .2h-.9c-.2 0-.2 0-.1-.2a3 3 0 0 1 -.8 0zm-182.3 4.7c0-.2.6 0 .5-.2h-1.7l-.2-.1h3.4a5.8 5.8 0 0 1 -2 .3zm125.8-3h-.2c-.4.2-.8 0-1.3 0l-.8-.1.5-.1 1.8.1zm-195.6 3.1h-.5l-.2.1h-1.1.2l-.2-.1h1.3l.9-.1h.8c-.5.2-1 .2-1.6.2l.5-.1zm30.4-.6 3.4-.1a5 5 0 0 1 -1.5.1zm-130.4 2.4-4 .3c.1-.1.6 0 .8-.2h-.6l.9-.1v.2l1.1-.2zm107-2h.2a13.9 13.9 0 0 0 2.2-.2c.2.1.5 0 .8 0a1.8 1.8 0 0 1 .9.1h-2.3a18.9 18.9 0 0 0 -1.9.2zm-13.2 1.1c.4 0 .8-.2 1.2 0h2-1l-1.3.1h-.4c-.3.1-.2-.1-.5-.1zm203.3-4h1.2a1.2 1.2 0 0 1 .4 0h.8-.2.1l-.6.2h-.2l-.4-.1h-1.1zm-260.1 5.5 2.2-.1-.1-.2h1.8c-.3.2-.7.2-1 .2h-.6c-.8.1-1.5.2-2.2.1zm20.4 5.1-4.1.3v-.1h.2l.1-.1h2.9a2.6 2.6 0 0 1 1 0zm281.6-12.6h2.9-1.2c-.8 0-.9 0-1.2.2a8.1 8.1 0 0 1 1.1 0c-.5.1-.8.1-1.6-.2zm-89.4 1.7 1.1-.1.6.1-.5.2h.3v.1c-.5 0-.7-.2-1.3-.1zm-142.4 3.8c0-.2.3-.2.6-.2h2.6-.4l-.5.1h-2.3zm94.3-1.9h-1l-1.5.1h-.3l.2-.1h2.7zm-30.4-.8v.1h-.2l-.2.1h-.9.5l-.3-.1.4-.1a12.9 12.9 0 0 0 -1.1 0h-.3a8 8 0 0 1 2 0zm185.2-3.3-.3.1h-2.5l.1-.1h.2a9.3 9.3 0 0 0 2.2 0zm-287.3 8.1h.7c-.4 0-.7.2-1 0h-.7l-.3-.2h.9l.5-.1.3.2h-.4zm61-3.7h2.2l-.8.2h-1v-.1h-.4zm111.2-1c1-.2 2-.2 3 0h-1a19.8 19.8 0 0 0 -2 0zm-62 1v.1h-1.8c-.6.2-.6.2-1 0h2.7zm-155.2 3.5-4 .3 1.8-.2h2.2zm162.2-4h.6l3.8-.1h.3a3 3 0 0 1 -.4 0h-2.5l-1.3.2h-.4zm32.5-.9h-.3 1.2c.4 0 .8-.2 1.2-.1-.8.2-1.6.2-2.3.2h.2zm-156.3 3.1h.1l-.2.1h-.8l-1.3.1h-.3zm-35 1.5-.3.1-1.5.1h-1.4l3-.2h.3zm-55.2 12-4 .4c1.3-.2 2.7-.4 4-.4zm337.2-17.8a5 5 0 0 1 .9 0l.4-.1h1.6v.1zm-64.4 1.7c.2-.2.5-.3.8-.3h1.4c-.5.2-1 .1-1.5.1 0 .2-.3.2-.7.2zm-123.4 3h.7l.7.1a3 3 0 0 1 -1 .1v-.1h-.4zm231.5-6.3c-.2.1-.5.2-.8.1h-1.2v-.1h2.1zm-92 3.2h-2c.1-.2.2-.2.5-.1h.6l.8-.1zm-212.1 9.8-1 .1c-.3 0-.5.1-.8 0h-.2c-.2 0-.2.1-.4 0h.7c.3 0 .6 0 .8-.2h.1zm173.6-9.2h2.4-1.3c-.1.2-.5.1-.8 0h.3zm27.8-2.2-.5.2h-.9v-.2zm-86.2 2h-1.8a1.5 1.5 0 0 1 -.6 0l2-.1h.4zm-6.2.7h-2.3c.8-.2 1.6-.2 2.3 0zm-71.8 2h.7a16.1 16.1 0 0 0 2.3-.2h.2zm.7.5a17 17 0 0 1 2.3 0h-2.2zm260.1-5c-.2.1-.7.2-.9.1a1.7 1.7 0 0 0 -.6 0h-.8.3l.5-.1zm-153.4 2.3h1a17.8 17.8 0 0 1 1 0c-.3 0-.5.1-.8 0zm163.2-2.7h-.9l-.6-.2h1.3zm-44.6.5 1-.2.3.2-1 .1zm-78.7 1.8h2.5-.5l.1.2h-.8.2l.2-.1h-1.7zm125.7-2.4.9-.1 1 .1zm-135.8 2.7.4-.1h.4c.2-.2.6-.2 1-.1h-.4l-.3.1h-1.1zm92.9-1.8h-1.3a4.8 4.8 0 0 0 .7-.2 1.2 1.2 0 0 1 .6 0zm-330.1 15.6c-.1.2-.5.3-.7.2h-.8c.4-.3 1-.2 1.5-.2zm315.5-15.8h-2.5.8l.5-.1h.5l.3.1zm-143.5 2.1h2.3zm98.4.3-.5-.2h1.2c0 .2-.1.2-.7.2zm37.7-3h-1.7l1.7-.1zm-151.8 3.6h2zm43.5-2.4c.5-.1 1-.2 1.4 0l.3-.2-.2.2zm-204.4 15.6-2 .4c0-.3.6-.2.9-.3h1.1zm233.4-14.2.2-.1h1.5zm-148.3 8.5-.2-.1.3-.1 1.7-.1h.2l-1 .1zm304-11.7-.6.2-.4-.1h-.6v-.1zm-41.9.6h.3a2.8 2.8 0 0 0 .4-.2 1 1 0 0 1 .4 0l.1.1c.2 0 .1.1-.1.1h-1zm-112 1.2c-.1.2-.2.2-.8.2v-.3h.8zm-174 10.8c.5-.3 1.1-.2 1.7-.2zm20.8-1h.2a12.4 12.4 0 0 0 1.7-.2l.4.1-2.3.2zm316.5-11h1.9l.8.1h-2.8zm-379.1 14.8c-.4.3-1 0-1.5.2h-.5l1.9-.2zm376.6-16h-2.3zm-330 13.3 1-.1c.4 0 .7-.2 1.1 0l-1.3.1h-.7zm-40.6 2.6c-.6.2-1 0-1.5 0l1.4-.1zm289.6-13.8h-.5l-.2-.1.6-.1.6.1h-.8zm-175.6 3.5a5.4 5.4 0 0 1 -1.9 0zm262.7-4.6h-2.7 2.6zm-128.8 1.4.6-.1c-.1 0-.2.1 0 .1h1a3.4 3.4 0 0 1 -1.6 0zm-54.3 2.8-.1.1h-1.2c.4-.2.9 0 1.3-.1zm-139 7.3a5.5 5.5 0 0 1 -2 0h1.8zm155-10.5c-.5.1-1 .2-1.7.1h1.8zm58.8-.4h-1c-.4 0-.6.2-1 .1l.3-.1zm-133.9 2.6v-.1a4.7 4.7 0 0 1 1.6 0h-1.6zm71.8-1.6h-1.5zm-122.9 3h1.5c-.5 0-1 .2-1.5 0zm237.2-3.3a3.9 3.9 0 0 1 1.4 0zm-284.5 11.3.6-.1h.7-.1l-1.3.1zm168.3-11.5h-1.4 1.3zm-40.6 2.2h-2.1 2zm171.8-3.4-1.2-.2h1.3zm-268.6 6.3a3 3 0 0 1 -1.4.1 5 5 0 0 1 1.4 0zm17-1.9h1l-.9.2-.2-.2zm6 2.4-.8.1c-.4 0-.7 0-.8.3l-.3-.3h1.8zm21.8.8h-1.1zm364.7 1.1h2zm-378.3.9c-.4 0-.8.2-1.4.1zm235-11h.2a1.4 1.4 0 0 0 .6 0h.5-1.4zm-212.4 4.8.2-.1h1.3c-.5 0-.8.2-1.4 0zm99.5-.6a3.8 3.8 0 0 1 -1.5 0h1.6zm27.2-1.3v.1l.3.1h-.7l.1-.1h-.5v-.1zm-37.2.8h-1.8zm-42.5.2a4.8 4.8 0 0 1 -1.8 0zm-97.1 3c-.2.2-.5 0-.7.1h-.8zm25.6-.3h-1.5zm98.9-2.2h1.5a4.5 4.5 0 0 1 -1.5 0zm140.2-2.5-.6-.3c.9 0 1 0 1 .2h-.4zm-72 1.2.2-.1a3.4 3.4 0 0 1 1 0l-1.1.1zm-66 2-1 .1c-.1 0-.2 0-.1-.1zm20.2-1.4h1.8a4.1 4.1 0 0 1 -1.8 0zm30 .4c.3-.2.6 0 1 0h.9-2zm55.4-2.7h1.6a3.1 3.1 0 0 1 -1.6 0zm.5.8c.4-.2.7-.2 1 0a3 3 0 0 1 -1 0zm-108.1 3.5h1.9a6 6 0 0 1 -1.9 0zm-52.4-.5h.3v-.1h-.5l1.2-.1c-.5 0-.5.3-1 .2zm-53.9.7h.8l-.2.2h-.5v-.2zm147.7-3.5.2-.1h.8c-.3.2-.6.1-1 0zm16 2.9h-1.7zm81.8-2.4c.2-.2.5-.1.8-.1h.8-1.6zm-100.6 1h.4l.2.1-.2.1h-.5l.1-.1zm-88 .4-1.2.1v-.1zm-112.3 3.2-.5.1h-.9 1.4zm138.2-4.2c-.2.3-.6.3-1 .1h1zm199.7-1.9h2zm-168.3 4.3c.6-.2 1 0 1.4 0zm145.9-3.4h1.3zm-108.4 0c-.4.2-.7 0-1 0zm-.2.7h-1.6a4.8 4.8 0 0 1 1.6 0zm-126.8 4h.3l.2-.1s.2-.1.4 0h-.3.7l-.4.1zm-105.1 1.6.4-.1 1.1-.1h.4zm301.8-7.1h1c-.5.2-.5.2-1 0zm56.7-1h-1.5zm-101 2.9h1.2-.3a1.9 1.9 0 0 1 -.9 0zm53.8-1.6h1.2zm-203 4.2h1.4zm257-6.8v.1h-1 1.2zm-100 4.3-1-.1c.3 0 .8-.1 1 .1zm80.7-4.4h.7l-.4.1zm-403.7 14.5.5-.2.4.1a2.4 2.4 0 0 1 -1 .1zm420.3-11.9h-.6a8 8 0 0 1 -.6 0c-.1 0-.3.2-.4 0zm-370.6 7.4c-.5.2-1 .2-1.6.2zm131.8-3 1.1-.1h-1.1zm5.8-.8h1.5-1.4zm44.6-2h-1.1zm142.4-1.2-.2.1a7 7 0 0 1 -.6 0c.2-.2.2-.2.9-.1zm39.7-1.7-1.4-.1h1.4zm-254.6 7v.1l-1.8.1 1.8-.1zm83.6-3.3h1.3zm179-3.4c.4-.2.7-.1 1.2 0a2.5 2.5 0 0 1 -1.2 0zm-312.5 6.7-.4.1-.4.1c0-.2 0-.2.8-.2zm26.8-2 1.6-.1c-.6 0-1 .1-1.6 0zm153.6-2h1.7zm95.4-.7v-.1h1.4-1.4zm-113.1 2.2h-1.3a2.6 2.6 0 0 1 1.3 0zm-140 1v-.2h.5c-.1.2-.1.3-.5.3zm261.1-4.5h1.4zm-358.5 6.3 1.2-.1c-.4.2-.4.2-1.2 0zm167.5-2.8a12.7 12.7 0 0 1 -1.2.1h-.6 1.8zm-77.5 1.3-1 .2c.1-.2.2-.2 1-.2zm-58.7 8.9.9-.1-.5.2zm305.9-12.7-.6.2-.2-.3zm-91.9 3h-1.1 1.2zm84.6-3.1a2.9 2.9 0 0 1 -1 0zm-253.1 8.7v-.1h.2l.3-.1h.4l-1 .2zm154.3-6.3a3.4 3.4 0 0 1 -1.4 0zm63.1 0h-1 1.1zm146.5 5.4h-1.5zm-261.7-5.3c.3-.2.7 0 1-.1-.3 0-.6.2-1 0zm132.8-3.7h1a2.4 2.4 0 0 1 -1 0zm-74.6 2.6h-1.1zm-93.2 1.1-.8-.1zm71.1.3h-1l.5-.2c.2 0 .5 0 .5.2zm-37.4 1c-.3.2-.7 0-1 .1h-.2.1l1-.1zm137.5-4.3h1zm30 .3v-.1h1.5-1.5zm-23.6.7h1a3 3 0 0 1 -1 0zm-108.9 1.3h-1.2 1.3zm-112.5 2h.7zm77-1.5h-1.3a3 3 0 0 1 1.2 0zm-144.5 2.9.5-.2h.5zm-61.5 3.2h-1zm197-4.2c.3-.2.5-.2 1 0zm108.2-4.2-.4.1h-.2v-.3l.6.1zm-308 9.6.8-.1-.7.1zm273.8-8.8h1zm124.6-1h-1.6 1.5zm-264.6 4h1zm11.1.3.6-.1h.5c-.4 0-.7.2-1 0zm-41 2h-1a2.8 2.8 0 0 1 1 0zm171.4-3h-1.5 1.4zm139.5-3.6c-.4 0-.7.2-1 0zm-37.6 7.1h-1.4zm-20.7-6-.4-.2h.4l.4.2zm-292 12h.8zm113.3-9.5a3.8 3.8 0 0 1 1.5 0zm107.4-2.8h-.2l-.3.1h-.3zm47-.2h-.8c.4-.2.6 0 1 0h-.1zm-183 3h.5-.9c.3 0 0-.3.5-.2v-.1zm83.7.5h-1zm-76.8-.3c-.5.1-.6 0-.8 0zm-106.5 10h-.9a1.7 1.7 0 0 1 .9 0zm355.2-13.8v-.1a3 3 0 0 1 1 0h-1zm-19.2-.4 1.3.1h-1.3zm-182.5 4a2.9 2.9 0 0 1 -1 0zm36.5-2h-1.1 1zm64.6 1.9h-.7zm.8-1.3h-1.2zm-25.4-.4h.8c-.5.1-.5.1-.8 0zm-109.6 2.8h-1.4zm314.6 3.7h1.3zm-309-3.1h-1zm-114.4.4c.5-.2.5 0 .9 0h-.5a4 4 0 0 0 -.4 0zm-10.4 1.5c0-.2.5-.1.7-.2h.3zm224.7-4h-1.2zm-23.2-1.8h1.1-1zm-5.7 1h1c-.6.2-1 .2-1 0zm-16.5 1.7h.9zm196.7-6.3a2.7 2.7 0 0 1 1 0zm-164 3.1h.8a2 2 0 0 1 -.9 0zm-103.1 8h1.1zm103-7.8c-.2.2-.4.1-.7.1h.6zm-54.2 2.7h-1zm102-3.4h.7-.8zm-7.2 3.2h-.8zm7-3.3c-.2.2-.2.2-.7 0h.6zm-62.9 3h1zm98.6-1.3h1zm-191.3 3h-.8a1 1 0 0 1 -.2 0zm191.4-1v-.1h.7-.7zm-152.9-.6h1.2zm165-3.1c.2-.3.4-.1.7-.1-.2.1-.5 0-.8 0zm-190.9 3.3h.9zm194.6-1.1h-.7zm.4-2h.9c-.4.2-.7 0-.9 0zm-224.2 4.2h1zm-27.6-.1h-.9zm282.4-6.8h.9a2.5 2.5 0 0 1 -1 0zm-306.7 8c.3-.2.3-.2.7 0zm195.8-4.7h-.8.9zm126.7-4h1.2zm-325.2 15.3v-.1h1a2.7 2.7 0 0 1 -1 .1zm219.4-10h-.6zm-24.9.8h-.4c-.1 0-.1-.1 0-.1h.3-.2.4zm-113.2.4c-.3.1-.3.1-.8 0zm77.7-1.2h-.7zm81.3 1.3c.4-.1.4-.1.8 0zm-103.4-1.6h-.6.3v-.2h.3zm-60 2.4c-.3 0-.5 0-.5-.3h.3c-.2.2.2.2.3.3zm218.7-5c.3-.3.4-.3.9-.2l-.9.1zm-254.3 4.5c.2 0 .5-.2.9 0h-1zm328.4-3h1zm-245.8.2a2 2 0 0 1 -1 0 1.5 1.5 0 0 0 .7 0zm-1.3 1.8h1zm142.2-2.3.7-.2c0 .2 0 .2-.7.1zm-207.7 4.4c-.3 0-.5.2-.9.1h.9zm116.8-1.2h-.8.2a1.3 1.3 0 0 1 .4 0h.1zm-256.6 13.5c.2-.2.2-.2.6-.1h-.6zm32.4-1.8h-1zm219-13.1c.1-.2.3-.2.6-.1h-.6zm-90.2 2.6h-.9zm226.6-8h.6l-.5.2v-.2zm1 3.5.6.1h-.6zm36.6-2.9h-.8.7zm-238.9 5.9c.3 0 .6-.2 1 0zm-11 1 .2-.1h.4c-.3.2-.5.1-.7 0zm-90.7 7.6h.7zm113.6-10v-.1h.8-.8zm72.7-.3h1zm-71.8-.5h-.7a.8.8 0 0 1 .4 0h.2zm94.6.2h-.7zm6.2.7h1zm78.8-2.1a2.1 2.1 0 0 1 -.9 0zm-256.5 9.8h.9-1zm131.3-8.4h-.7zm-.7-.2h.8c-.3.2-.6 0-.8 0zm81.3.4h.8c-.3 0-.6.1-.8 0zm-92.7.3h-.1a.8.8 0 0 1 -.4 0zm-140.5 3.5h.8c-.3.1-.6 0-.8 0zm182.8-5.2c.3 0 .1.2.4.2h-.4zm-41.7 2.8h.7zm-175.2 9.8c.2-.2.4-.1.7-.1h-.7zm344.5-13h-1zm-132.9 2.2-.2.1h-.3.5zm-125.4 4h-.7l.6-.2v.1zm-4.5-2h.8zm-.2.2c-.1.2-.2.2-.6 0zm39.2-1h-.6zm-49.6 4c.2-.2.3-.1.5-.1h.4-.9zm.2-.9c-.1.1-.3.2-.6 0zm65.7-2.6h.7-.8zm-179.4 12.5h.7zm169.7-13h1.1zm67.1-.5.6-.1v.1zm-163.1 2 .8-.1c-.3 0-.5.1-.8 0zm172-3.3h-.6v-.2h.6v.1zm-192 10.6c-.5.1-.5.1-.8 0h.7zm-36.3-7-1 .1h1zm216.7-2.8h.8zm134.5-4.7a1 1 0 0 1 .5 0zm-97 5.2s-.1.2-.4.2c.1 0 0-.2.4-.2zm-241.2 3.5h-.2a1 1 0 0 1 -.3 0h-.2zm310.8-6.1h.7zm46.9 0v.1l-.2.1h-.1v-.1h.3zm-226.7 4.3h.7zm-43.7.2c.2 0 .2-.1.4 0h.1zm151-2.2h.4zm-81.7.5h.8zm107.7 0h-1zm88.2-5.7h.6zm-34.8 2.6c0-.2.3-.2.5-.1h-.5zm-159.2 3c-.2.1-.4.2-.7 0zm44.3-.5h-.2l-.2.1h-.2zm3.1-.1c0 .1-.2.2-.4.1h-.1zm-186.4 10.1h-.8c.2 0 .4-.1.8 0zm300.5-11.2h.4c-.2.1-.3 0-.4 0zm20.2-.5.5.1zm-181.1 1.9h-.7zm51.2 3.2h-.3a1 1 0 0 1 -.4 0v-.1h.7zm-93.8-3-.4-.1h.3l.2-.1v.2zm-62.3 3.5h.8zm144-5.1s.3-.2.4 0h-.5zm190.3 7h.6zm-258.7-5v.1h-.5.5zm-150.6 11.5h-.7zm358-16.5h.7zm-303.4 7.1h.7zm241.6-4.8h-.3v-.2h.3zm-105.8 2h.6zm166.1-2.7h.5zm-164.8 1h.6zm-64 2.6h.5-.6zm-79.3 8.3h.8c-.2 0-.5.2-.8 0zm342.8-10.4a1.7 1.7 0 0 1 -.7 0zm-403 15-.6.1h.7zm87.3-9h.6zm270.6-6.5h.5zm88.3 7.5h-.8zm-341.4 1.2h-.6zm105.2-5.6c.1.1.2.2 0 .2s-.2-.1 0-.2zm142-4.2h.7zm-16.7 0h.7zm-222 6.4h-.6zm-72.3-1.3h.7zm200.8-1.8h-.6zm150.6-5.3h.6zm-72 1h-.7c.3-.2.5-.2.8-.1zm21 1.8h-.6zm-11-.3h-1a2.2 2.2 0 0 1 1 0zm-200 5.6h-.9.8zm-100.2 8h-.6.6zm241-13.2s.3-.1.4 0h-.5zm73.4.3h-.5zm-257.1 7h.7zm-4 .5h.7-.6zm183-6.2h-.5.6zm-1-2h.5zm60.5-1h.6zm-256.2 9.3a5.7 5.7 0 0 1 .6 0zm237.2-6.8h-.6zm-43-1.8.3.2c-.3 0-.4 0-.3-.2zm74.8.5c0 .1-.1.2-.3.1-.1 0 0 0 0 0h.3zm-65.5 0c0 .2 0 .2-.4.2l.4-.1zm-128.1 2.7c0-.2 0-.2.4-.1h-.4zm-87.6 9.2h.7zm153.7-10h.5zm-57.9 2h.7-.2a1 1 0 0 1 -.5 0zm0 3.7h.5zm137.9-6.3h.4zm-280.4 13.8h.6zm477.6-7.3v.1h-.4.4zm-262.9-5.7h-.5zm265.2 5.8h.5-.6zm-264.6-4.6h-.4c0-.1.2 0 .4 0zm105.4-3.4h-.4zm-243 10.2h.7zm82.3-8.6h.4zm-69.8 1.7c.1.1 0 .2-.2.2s0 0-.1-.1h.3zm141.6-2h-.8zm-139 8v.1h-.5.5zm228.6-8.6h.4zm156.8 7.3h.5zm-509.5 2.8h.5zm299.7-10.5h-.5zm29.9 1.7h-.5.4zm-326.2 16h-.6zm125.6-10h-.6zm48.3-1.6h.5zm-173.5 1.7h.6zm351.8-8.1h-.6zm-226.1 3.2h.5zm.6 2.4h.5zm1.6.8.5-.1h-.5zm258.4-7.9-.3.1h-.3.6zm-166.1 2.5.4.1-.5-.1zm56-.2h-.6zm-84 3c-.2.2-.3.1-.5.1h.5zm64.3-2.8h.5zm58-.6h-.5zm26.2-.9h.5zm18.8-.3c-.2 0-.3-.1-.2-.2h.1zm-214.5 5.8h.6zm255.8-6.5h-.5v-.1h.5zm-345.6 14.5c.2-.1.2-.1.4 0zm347.7-14.4h-.6.1a1 1 0 0 1 .5 0zm-169.7 5h.7zm170.3-6.6h-.3zm-357.8 8.8c-.2.2-.4.1-.5 0zm295.7-3h-.5zm-95.8-2.4-.3.1zm-216.2 14.9c.1 0 .2-.2.5 0zm207.8-13h.7zm151.5-2.5h.2zm-285.1 9.8h-.6zm5.9.4h-.5zm-6.4-5-.3.1h.3zm56.5-1.8h.5zm76.9-1c0-.2 0-.2.2-.2h.1l-.3.1zm-41.5.3h.5zm184-1.6h.6zm-30.1-1h-.5zm.5.5h.3zm-319 4.8-.5.1h.5zm147 2.2h-.6.5zm-144.8-2 .5-.1h-.5zm144.2-1.2h-.4c.2-.1.3-.1.4 0zm79.2-3v.1h-.6.6zm-215.5 3.8h.5zm309.5-3.1h.4zm-4-2.7h-.6.7zm-156 4.4h.3-.4zm44.6-.6h-.4l.2-.1v.1zm-186.9 10.5h-.5.6zm80.2-8.8h.7-.6zm78.6 1.7h-.6zm50.7-5h.6zm22.8-1.4h-.6zm-111.2 4.2h-.5zm223.7-4.6h-.4zm-251.3 8.6h-.6zm0-1h.5-.6zm27.7-3h.4l-.1.1h-.3zm170.8-4.2h.6zm-197 7.6h-.7zm-85.5-2.6h.3zm340-6h.5zm-228.4 8.8h.6zm69.9-5h.5zm104.8 3.6h.5zm-75.1-5.2h.3zm-67.7 3h.5zm-147.3 8h.4zm400-4.2h-.5.4zm-385 4.2h.3zm93.6-8h.5zm-13-.6h-.3v-.1h.3zm-75.6 8.4h-.5zm-52 3.6h-.4.5zm147-13.3h.3zm2.6 1.6h.3zm35.1-.3h.4zm112.9-1.6-.1.2v-.2zm-99.2-.7-.3.1zm36.3 1.6h.3zm-40.5-.3.3-.1h-.3zm-126.4 2.9h-.2zm.2 4.7h-.4zm315.2-10h.2zm-363 6.1h.4zm50 .6h.4zm-67 8.6-.5.1h.5zm70-4.7a.8.8 0 0 1 -.3 0h-.2zm59.3-7.6h.3zm200.3-1h-.3v-.2h.3zm27.6-3.9h-.3.4zm-226.3 10.1h-.7zm224.6-7.7c0 .1 0 .2-.3.1h.3zm-224.5 2.4h-.5zm104.5-2.6h.4zm-63.4.8h.4zm15.3-.3c-.2 0-.3.2-.6 0zm-218 7.7.4-.1h-.4zm214.3-5.3c0-.1.2-.1.4 0zm41.3-3.1h.4zm123.6-1.3h-.3zm-88.4 1.3h-.3zm-90 1.7c.2-.2.3-.1.5 0h-.4zm-166.1 13.3h.3zm261.5-13.3h-.4zm-183.3 2.4h-.5zm55.5.2h-.4zm134.7-.6h-.4zm-192 2v-.1h.5-.5zm-1.4-2.2.3.1h-.3zm4.7.6h-.4zm2.3 5.5h-.4zm-115.5-1.4h-.3zm119.7 1.2h.4zm75.3-7.7h-.3zm106.3-1.2h-.2zm-197.2 6.6h-.3zm20.9.7h-.4zm139-7.3h-.3zm-85.6 3.7c.2 0 .3 0 .2.1h-.2zm198.8-5.1h.3zm-199.7 5.3h.3zm-79.3 0v-.1h.3-.3zm120-2.2h.4zm26.8-1.5h-.3zm-115.2 2.7h-.1v-.1zm336.6 4.3h-.5zm-92-9.8h-.4.3zm-101 2.8h.4zm-141.4 4h-.2zm-39.3-.4h.3zm81.1-.2h-.3zm184.3-5.2h-.2zm-270.5 12.3h-.6.5zm135.4-10.2h.3zm118.2-.9h-.3zm-68.5 0h-.3zm-235 14.2h-.4zm354.7-17.7h.3zm26.8 3.4h-.3zm-283.6 8.4h.2zm127.9-7.7h-.4zm105.7-1v-.1h.3-.3zm-210.9 4.5h.4zm164.8-3h-.2zm92.9-1.8h.5zm-.8-1.2h.3zm-95.6 1h-.3zm-79.2 3.3h-.3zm106-2.4h-.3zm-190.6 8.2h-.4zm253.2-11.3h.2zm-47.2 2.9h-.3zm-305.6 12.7h-.3zm147.3-8.6h.4zm49.7-4.4h.3zm-194.2 4.8h.4zm90.4 4h-.3zm256.7-10.6h-.4zm-347 7.1h-.1.2zm241.2-4.1h.2zm99.7-3.5h.1-.2zm-129.4 4.1h.2zm136.8-4.7h.2-.1zm-137.9 4.7h-.3zm-126.4 6.9v-.1h.3-.3zm202.9-6.6h-.2.1zm-111 .6h.4-.3zm37.8 1.4h-.3zm139-4c-.2-.1 0 0 0 0zm-222.6 1.1h.3zm-115.2 6.9h.3zm320.3-10h-.2zm-68.4 1.3v.1h-.1zm-245 7.4h.3zm279.7-3.8h.3zm-51.6-1.5c.1-.1.2-.1.4 0zm-174 5h.2zm158-3.7h.3zm145.3-5h.3zm-305 10.6h.3zm116.4-4.8h.3zm-162 1h.2-.3zm79.3-1.6h.2zm2.8.3h-.2zm0-.4h.3zm27.7.7h-.4zm24-.3h.2-.3zm-88.3 0h.3zm42.7 1v.1h-.2.2zm36.3-1h.4zm-81.2 2h.4zm219.3-5.4h-.4zm39.7-2.6h-.3zm-293.7 13.4h-.2zm260.4-11.3h.2zm-229 4.2h.4zm121.5-1.5h-.2zm-3.8.8h.5zm-141 1.4h.4-.3zm.6 0h.1zm277.6-5.8h-.3zm-4.6 1.6h.1zm-.1-.8h.2zm-191.9 5.2h.2l-.1.1h-.1zm-189.6 9.6h-.4.3zm155.6-9h-.3z" fill="#a8cef1"/></svg>