<svg fill="none" height="21" width="259" xmlns="http://www.w3.org/2000/svg" xmlns:xlink="http://www.w3.org/1999/xlink"><clipPath id="a"><path d="m0 0h259v20.9h-259z" transform="matrix(1 0 0 -1 0 20.9)"/></clipPath><g clip-path="url(#a)"><path d="m120.5 3.4-.2-.1h-3.1l-.1.2h-1.6a2 2 0 0 0 -.7 0l-.3.1.1.2.5-.2-.1.2h.2c.2 0 .5 0 .7-.2h.3l-.2.1h.7-.3c.1-.2.3-.1.4-.1h.5-.3l.1.1h.6c.1-.2.3-.2.4-.2h.4c.1-.1.1-.1.2 0l.3-.1h.2-.3c.1.1.3.2.5.1v.2h-1l-1 .1h-.2c-.2.2-.4.1-.6.2l.1-.2-.3.2v.2c.1-.1.3-.1.4 0h.9l-.1.2h-.5a4 4 0 0 1 -1 0c0-.1.3 0 .2-.2h-.8l.2.1h.2a.5.5 0 0 1 -.4 0 .8.8 0 0 0 -.5 0c-.4 0-.8.2-1.1.3l.1-.4h.4l-.2.1h.8l-.1-.1h-.2.1l-.3-.1-.2-.1a5.4 5.4 0 0 1 -1-.1h-.6v-.1h.7c.2 0 .2 0 .3-.2h-.3l.4-.1-1.3-.2s-.2.2-.3 0v.1l-.2.1v-.1h-1.7a1 1 0 0 0 -.6.1.7.7 0 0 1 -.5 0h-.2l-2 .2h-.1.7a.9.9 0 0 1 .6 0l-.3.2v.1h-.1a2 2 0 0 0 -.9.1h.5c-.2.1-.4 0-.6.2a6 6 0 0 0 -.4-.2h-.1a4 4 0 0 0 -.6 0l-.4.2-.2-.2h-.3.4l.2-.2h.2c0-.1.3 0 .4-.2l-.8-.1c0 .1-.4 0-.6.2h.6-.3l-.3.1-.2.1h.3c-.2.2-.5.2-.7.2l.2.1h-.3l-.2.1h.1l.2.1.2.1h-.6v.1h-1.8.2-.5l.5-.2-.2-.1h-2.5v.1-.1h-1.7a5 5 0 0 1 -.6 0l.1-.1h.2v-.3h1.5l-.4.1h1.7l-.1-.1h.7a3.7 3.7 0 0 0 1 0c.1 0 .3.1.4 0l-.2-.1h.7l.1-.1h-1a1 1 0 0 0 -.4 0l.5.1h-.2c-.2.1-.5.1-.8 0h.5v.1h-.6v-.1h-.4.1-.3a10.5 10.5 0 0 1 -1.8.2h-.7l-1.7.1a2 2 0 0 1 -.5 0h-.8a1 1 0 0 1 -.6 0h-.8l-1.7.2c.1.1.4 0 .4.2h-.2l.1.1h.2l.7-.1h.1l.2-.2c.2.1.4 0 .5.2l.7-.2c-.1.2-.3 0-.4.2h.3l1.1-.1-.2-.1h.3c0 .1 0 0 .2 0h.2c.1-.1.2-.1.4 0h-.4.8c0 .2-.2.2-.3.2h-.2c-.1.1-.2.2-.3 0l-.5.2h-.2l.1-.1h-1.4l-.4.1-.6.2h.8l.4.1h-.6l-.3.1h-.2c-.1-.1-.1 0-.1 0a1.1 1.1 0 0 1 -.9 0h.2l-.8.2v-.4h.4l.1-.1h.9v-.2l-.1-.1-.2.1v-.1h-.3a1 1 0 0 1 -.5.1l-.5.3h-.3l-.3.1h.2c0 .2.1.1.2.2h-.8c.1-.2.3 0 .3-.2h-.3v-.2h-.4a1 1 0 0 1 -.4 0v.1l-.5.1.9.2c-.4.1-.8.2-1.2.1v-.4l-.2.2-.7.2v-.2l.2-.1h-.7l.2.2-.2.1h-.3a.9.9 0 0 0 -.6 0h-.9l.1-.2h1.3v-.1h-.6v-.1l-.4.1h-.5l.2-.1-.4.1h-.4l-.5.1h-.8a1 1 0 0 1 -.4 0l-.3.1h-.3c0-.1-.2-.1-.2 0l-.9.1-.4.1v.1l-.7.1h.3l-.2.2h-1.6l-.5.1-.2.2h-.1l-.2.2h.4l1.2-.1h.4l-.6.2h.6c-.4 0-.7.2-1 0v.2h-.4.4c0-.1 0-.2-.2-.2h-.9c.2 0 .2.1.2.2h-.7v.3h-.5c.2 0 .3 0 .4-.2l-.5-.1h-.1s.2 0 .2.2h-.6l.3-.1-.1-.2h.6c.3 0 .3-.1.3-.3h.3c.1 0 .2.2.3 0h.2l-.1-.1h-1.2c.1.1.3 0 .4.2h-.1a2 2 0 0 1 -.3 0l-.1-.4 1.8-.2h-.5.5a2 2 0 0 0 -.7 0h-1.8l-.7.2h-.1a3 3 0 0 0 -.8.1h-.6v-.2l-.7.1h-.2l-.1.1h-.2.2-.3c0 .1-.1 0-.1 0h.1c-.3-.1-.5 0-.8 0h.4l-.4.1h-.3l-.2.1.3.1c0 .2-.2.2-.4.2l-.9.1a21.6 21.6 0 0 1 -1.2 0h.5l-.1-.1.1-.1h-.4a1 1 0 0 1 -.6 0h-1 .2-.3l.2-.1v-.2h.1l.7-.2 1-.1.8-.1h.3-1.5l-1.4.1h-1.3l-.2.1h-.3l.1-.1a1 1 0 0 0 -.5 0h-.1l-.1.1a3 3 0 0 0 -.5.2h-2.3l-.2.1c-.3.1-.6 0-.8 0h.1a1 1 0 0 0 -.6 0h-.3c-.3 0-.5-.1-.8 0h-.4c0 .2-.4.2-.5 0h-.2c-.2.1-.3 0-.4 0h.5v-.1h-.6l-.4.1h.3l-.4.1-.1.2h-.4.1c-.1.2-.3.2-.5.3h-.2l-.3-.1a.4.4 0 0 0 -.3 0 2 2 0 0 1 -.8 0v-.2h.3-1.1l-.2.2-.4.2h-.1l-.2-.1h-.1l.2-.1h-.7v.2c-.2 0-.3.1-.3.2l-.5.1h.2-.3l.2-.2h-.4l-.4-.2h.4v-.1h-.9l-.8.1-.7.1h-1.1c0 .2-.3.1-.4.2h-.6l-.4.1h-.1l.3-.1 1-.1v-.1h-1 .6l-1.4.1c-.1 0-.1 0 0 .2l-1 .2v-.2h-1.2s-.2.1-.2 0h-.5c-.2.2-.4.2-.7.2h-.2v.2h-.6a1 1 0 0 1 -.5 0h-.3c-.2.2-.4 0-.6.1l-.6.1a.1.1 0 0 1 -.1 0h-.7l-.1.2h-.4l.2-.1-.7.1h.3l-.2-.2a3.1 3.1 0 0 0 -.8.2h-.2v-.1l.7-.2h-.1.3l.2-.2h-.5a.4.4 0 0 0 -.3 0l-.5.2h-.3.3v.2h-.1c-.2 0-.3.2-.3.3h-.4l-.3.1h.9-.3c-.2.1-.4.1-.5.3l-.3.1h-.3l-.4.1h-.1c.2 0 .5 0 .7-.3a1.5 1.5 0 0 1 -.9 0h.3l-.2-.2h.4-1.2.6l.2-.1.1-.1c-.6 0-1.3 0-2 .2l.4-.1h-.2c0-.2 0-.2.2-.2l.6-.1.6-.1h.5v-.2h-.4v-.2c-.3 0-.4.2-.6.1h.1l-.2-.1v.1c-.3-.1-.4 0-.5.1v-.1l-.4.1v-.1h-.2l-.1.1c0 .2.2 0 .3 0l-.7.3.1-.2h-.5.4l.1-.1h-.7l.3-.1c-.3 0-.6 0-.9.2h.2l-.2.1h-.7v.1h-.5c-.2.1-.1 0-.2 0h-.6l-.1.1h-.1l-.5.1s.1-.1 0-.1l-1.1.1h-.2.3l.1-.1h.2v-.1h-.7c-.1.1-.2.2-.3 0l-.1.1-.2.1h-.7.4l.3-.2h.6l.5-.1h-.1l.7-.3-2.7.4v-.2h-.2l-.6.1h-.4l-.6.1h-.2l-.5.2a2.6 2.6 0 0 1 -1 .1c.2-.1.5 0 .7-.2h.4a32 32 0 0 0 1.6-.3h-.7l.1-.1h-.3l-.2.1a1 1 0 0 0 -.3 0l-.8.2h-.1a9 9 0 0 0 -1 .3h-.8l-.6.1h-.2l-.2.1h-.6.9l.3-.2h-.7l-1.5.3h-.5c-.4.2-1 .2-1.4.3l-1.8.4h-.8l-.4.1h-.4a2 2 0 0 0 -.3 0l-1.7.4-.6.2h-.2l-.3.1-.7.1h-.2l-1.3.4-1.3.2-1.1.3-1 .2-1.7.4h-.1 1.1l-1 .4a5 5 0 0 1 -.7.2h-.4l-.2.1h.7l-.3.2c0 .2-.2.4-.5.5h-.2l1.2-.2-.3.3-.7.3-.3.1-.1.2v.1h1.3-.2s-.2 0 0 .1l-.2.1-.4.1.3.1v.2h.4l.2-.1h.3l-.1.2h-.4l-.2.1c-.2.2-.4.3-.7.3l.2.1-.2.1h.7l-.5.2h.2v.1h.6l.1.2-.3-.1h-.3.2l-.2.2h-.3l-.2.1.1.2c.2 0 .3-.2.5-.1l-.7.2v.1h.6l-.2.1.1.1v.3h.5v.1h-.2l-.2.2h-.3c.1.1.2.2.3 0a.2.2 0 0 1 .2 0l.3.2h.4l-.2.2h-.2c-.1.1-.2 0-.3.2h.3a.6.6 0 0 1 .4 0c0 .1-.4 0-.3.3h.6c-.1.2-.4.1-.6.2h.5c-.1.2-.4.1-.4.3.3 0 .5-.2.8 0h-.3v.1l-.3.1-.2.3h1.2l-.4.2-.3.1.5.2h-.3c0 .2.1.1.2.1h.3c0 .2-.3.1-.4.3h.1s.2-.1.2 0h-.4l.1.2h.7l.2.1h-.2v.2h-.1v.2l.6-.2c0 .2-.1.1-.2.2l.1.1.2.1.3.1 1-.2c-.1.2-.3.2-.5.3h.2l.8-.2 1.3-.3a21.4 21.4 0 0 1 1.9-.4h.1l-.2.1h.8v-.2h-.1v-.2l.7-.2h.2l.2-.2h.5l.7-.1v-.1h.3l.5-.2h.4-.2l1.5-.2v.1h.3v-.1h.3l.9-.3.2.1s0-.1.1 0h.1c0-.2.2-.2.3-.2h.4l.5-.1.4-.2h.7l.4-.1h.8l.2-.1h.4l.8-.3s.2-.1 0-.2l-.7.1h-.7l.1.2h-.3.3c.1-.2.4-.3.6-.3h.8l.5-.2.4-.1h.3l.3-.1-.4.2h.3a.5.5 0 0 1 .4 0h1.2l-.1.2c.3 0 .7 0 1-.2h-.8c.2 0 .3 0 .4-.2l.2-.1.5-.1h1v-.1c0-.1.1 0 0-.2h1.1a.7.7 0 0 0 .5 0 3.8 3.8 0 0 1 1.2-.1l.3-.2a1 1 0 0 0 .8 0h.4c0-.2.2-.1.3-.2h-.5l.1-.1.4-.1a.7.7 0 0 0 .4 0h1.9l1.3-.2h.4l.2-.1.4-.1h.3l.6-.1h.5l.3-.1.4-.2h1.6l.6-.2h.1l-.2.1-.2.1c0 .1-.1 0-.2 0h-.5l-.7.2-1.2.2h-.3l-.1.2h.3l.5-.1.7-.1.9-.2h.8l1-.2h.5l.4-.1h.7l.5-.1h.2l1-.1h.5l1.2-.2 1.3-.2.4-.1h.7a172.7 172.7 0 0 1 3.8-.5h.2c.3 0 .6 0 .9-.2 0 .1.2.2.3 0a.2.2 0 0 1 .1 0h1l.8-.1h.7l.3-.1h.5l1.3-.2.2-.1.2.1.1.1.4-.1h-.3l.4-.1h.2l1-.1h1l.7-.1h.3c.1 0 .3-.1.4 0h.4l.4-.2v.1h.3v-.3l.2.2v-.1h1l.3-.1s0 .2 0 0h.2s0 .1-.1 0v.2h.6l.3-.1h.7c0-.2-.1-.2 0-.2.2-.1.1-.1.2 0 0 0 .1 0 0 0h1.3c0-.2 0-.3.2-.3l.1.1.2.1h1.5-.1l-.1-.2h.2l.2-.2h.3-.2c0 .2.2 0 .3.1h.7l-.1-.1.2-.1h.3-.2l.2.1c0-.1.2-.1.2 0h.2l-.2-.2h.3v.1h1.6l.1-.1h2.3l.5-.2.2.1h.8l.8-.1h.3l.2-.1.3-.1h1.5-.2l.4-.1-.1.1h.6l-.2-.1h1.2-.2.8l-.3-.1h2.5l.5-.1h-.2l.2-.1h2v-.2h.3v-.1h3-.1.5a.2.2 0 0 1 .1 0h1.2l.1-.1h2.2v-.1h1.4l.7-.1.1-.1h2.5c.3 0 .8 0 1.1-.2a1 1 0 0 0 .7.1h1.7l.2-.2h6.5c.2 0 .5-.1.8 0l1-.2h5l1.3-.1h1.6l.3-.1h.3-.1.6c.3 0 .5 0 .8-.2l.2.2h.2a.7.7 0 0 1 .6 0h3.6v-.1h5.9a.5.5 0 0 1 .4 0h.7c.1 0 .2-.3.4-.1h.5c.3 0 .5.1.8 0h2.4a8.9 8.9 0 0 1 1.1 0h1.3a.1.1 0 0 1 .1 0h6.8l.6-.1h1.4a.5.5 0 0 0 .3 0h6.3l.5.1h3.5c.1.2.3 0 .5 0l.8.1h4c.2.1.3.1.4 0l.7.1h.6-.2.6-.2 3.9-.5l.2.1h.4a.5.5 0 0 0 .3 0l.2-.1h1.2v.1h.3-.2 2.6-.2c.7.1 1.5.2 2.2.1h-1.5 3-.8l.2.1h2.3-.2 1.7l.3.1h1.4c.2 0 .2.1.4 0h.3a.3.3 0 0 0 .2 0h.8l.1.1h3.3v.1h1.3a2.7 2.7 0 0 1 .8 0h1.6l.8.1h.3l1 .1h2l2 .2h3.8l.8.1h1.1l.8.1h1.6l.7.1h1.5l1.7.1 1.5.1 2.2.1h.2c-.5-.1-1 0-1.4-.2h2.9l2 .2h6.7v.1h5c.5.1 1 .2 1.4.1h.2-.2.6c.2-.2.3-.1.4-.1h-.2.7-.3.7l.5.1h-.2v-.1h2.7a7.7 7.7 0 0 1 .8.1v.1h.2l.4-.1h2.8v-.2h-4.9l-.8-.1h-1.2l-1.3-.1-.6-.1c4.9 0 9.8.3 14.8.4l-1.4-.1-.1-.2h2.8c.5.2 1 .2 1.6.2h.5-.3l.3-.2h.8c.1-.2.3 0 .5 0l1 .2-.4-.1h.6l.3.2v.2c0 .1 0 .2.2.3l.5.2h.5v.2l.1.1.3.2c.1.1.3.2.4 0l.1.2h.4v.4h.5l.1-.2h.4l.2-.1c0-.2 0-.3-.2-.4a.4.4 0 0 0 .3 0v-.4l.5-.7h.1a.3.3 0 0 1 -.2-.1l-.1-.2h.3l-.2-.2v-.2l.1-.1-.2-.2h.4v-.3l-.2-.2.1-.1h.2l.2-.1v-.1c-.2-.1-.2-.2-.1-.3h.3c0-.2-.1-.2-.2-.3l.1-.2.2-.2.1-.3h.1v-.4l.1-.3.2-.1v-.2c.2-.1.2-.2 0-.3l.3-.4c.2 0 0 0 0-.2 0 0 0-.2.2-.2v-.6l.3-.2c.2-.1.1-.3.2-.6v-.2l.2-.1-.2-.1v-.2c.1 0 .1-.2 0-.2 0-.2-.2-.3-.4-.3s-.4 0-.5-.2a1 1 0 0 0 -.5-.1l-1.6-.2-1.8-.1-1-.2h-1l-1.8-.2a16.3 16.3 0 0 0 -2.2 0l-.5-.1h-2.8l-1.2-.1h-3.9a13.6 13.6 0 0 0 -2 0l-.8-.1h-1.7l-.8-.1h-1.2l-2.2-.1h-2.2l-.2-.1h-.8l-1.7-.1h-1.3a3 3 0 0 0 -.7 0l-.3-.1h-.7a2 2 0 0 0 -.8-.1h-.6a6 6 0 0 0 -1.2 0h-.6c-.1-.2-.2-.2-.4-.2h-2.3a5.2 5.2 0 0 1 -.8-.1h-1.8a4 4 0 0 0 -.9-.1h-.4l-.2-.1h-2.3l-.7-.2-.8.1h-.1l-.5-.1h-1a.8.8 0 0 0 -.3-.1 1 1 0 0 0 -.4 0h-.8a1 1 0 0 0 -.3 0h-.8a1 1 0 0 0 -.7 0h-.7v-.1l-.3.1h-1.9v-.3h-1.7l.2-.1h-.4c-.2.1-.4.2-.6 0h-.4l-.1.1h-1l1.1.1h-1.6a3 3 0 0 0 -.4 0h-.8l-.3-.1h1.1l.2-.1h-.2s-.2-.1-.2 0h-1v-.2h-.8c-.1.2-.3 0-.5.1h.1c0-.1-.2-.1-.2 0h-.5v.2l-.3-.2-.2.1h-.1a.5.5 0 0 1 -.4 0l.2-.2c-.2 0-.4-.2-.6 0h-.3v.1h-.7c0-.2.2-.1.3-.3l-.5.1h-.7l.3.1-.1.1h-4.2l-.2-.1h-.2c0 .3-.2.2-.3.1l.1-.1h-.3a.7.7 0 0 0 -.5 0h-.5.3l.4.1c-.1.1-.3 0-.3.2h-.4l1 .1h.3l-.2.1h-3l-.6-.1h-1.6l.4.1-.3.1h-1.5l.2.2h.6v.1h-.2l-1.4.1 1 .1 1 .1h-1.8l-.6.2h-.3l-.2.1c.1-.3.4-.1.6-.2h-.6c-.2 0-.3-.1-.4 0h-.5l-1-.1h-.4.5l-.1.2h.2-.2v.5h.3l-.1-.2h1.5c-.2-.1-.4 0-.5-.2h.5v.3h.6v.1h.5a.6.6 0 0 0 .4-.1h.8c0 .2-.2.1-.4.2h.3v.1h.9v.2h-1.1.1-.5v.2h-.2l-.3.1h-.8l.1.2h-.4l.1-.2h-.5l.2.1h-1.5a9 9 0 0 1 -1 0h-.3.8s.1-.1.2 0l.7-.1h.2l-.7-.1.3-.1c0-.1-.1-.1-.2 0h-.3c0-.2.3-.2.5-.2 0 .1 0 .2.2.2h.2l.4-.2h.1-.3s-.1 0 0-.2h-.3c-.2-.1-.3-.1-.4 0l-.1.1h-.4l-.1.2-.2-.1h-.2l-.1-.1h-.3l-.5.1v-.1h-.3l-.3.1h-.5l-.2.1h1.2l.5.1h-.2c0 .2.3 0 .5.2h-1.3a1 1 0 0 0 -.4 0h-.4l.2-.1-.3-.1h-.3l-.3.2c0-.3-.3-.2-.5-.2l.4-.2h-.3l.5-.1v-.3l-.3.1h-.3v.1h-.2c0-.1 0 0 0 0-.3 0-.6 0-1 .2h.8v-.1h.3l-.2.1s-.2 0-.1.2h.3l-.4.1h-.2l.2-.2h-.6v.1a2 2 0 0 1 -1.1 0l.5-.1h-1.7l.3.1c-.5.2-.6.2-.7 0 .1-.1.3-.2.2-.3l.3-.1h.4a.2.2 0 0 0 .2 0v-.1h-1.8c-.2 0-.3-.1-.4 0h-.3l.1.1.3.1h.5v.1h-.6v.1l-.5.1h-.4c.1-.2.3 0 .5-.2h-1.8l-.2-.1h1.3-1c.4-.2.8-.2 1.2-.1l.2-.2h.2-.2c0-.1-.2 0-.4 0h-.5l.2-.1h.3c0-.2-.2 0-.3 0h-1.5l1.5.2h-.1a.2.2 0 0 1 -.2 0 .3.3 0 0 0 -.2 0h-.7l.3.1-.4.2h-.1l-.2.1v-.1h-.3l-.3.1c0 .1-.2 0-.4 0h.1-.7c-.2 0-.3 0-.4-.2l-.5.1.2.1h-1.2.8v-.1a4 4 0 0 1 -.8 0h-.5c-.1 0-.2 0-.3-.2l-.1.2h-.5a3.8 3.8 0 0 1 -.7 0h.1-4c-.1 0-.2 0 0 0v-.3h-.3c-.2.2-.3 0-.5 0-.1.1-.3 0-.4.2h-.9.2c.1 0 .3 0 .3.2h.8l-.4.2h-.9.1c.3 0 .6 0 .8.2a1.1 1.1 0 0 1 1 0l-.7.2h.6-1l.1-.1h-.2v.1h-.1l-.1.1c-.1.1-.4.1-.4 0h-.7l-.3-.1h1l.2-.1h-.9c0-.2 0-.3.2-.4-.2 0-.3-.1-.4 0h-.2l-.6.1h.8l-.8.1v.3h.2c-.2.2-.5.2-.7 0l.4-.1h-.3c0-.2-.3-.1-.5-.1h.6l.3-.2h-.6a.6.6 0 0 1 -.4 0h.3a.5.5 0 0 0 -.4 0h-1c.1.2.2 0 .3 0h.4v.4h-1 1.5l.3.2h-.9a4 4 0 0 1 -.6 0l-.7.1.1.1h-1.4s-.1.1-.2 0h-.7l-.5-.1h-2.2l.7.1h-1.8l-.1.1h-.2l.2-.1h-.9.2v.1c.3 0 .5 0 .7.2h-1.2.3v-.2h-.9l.5-.1h-.6l.1-.1h-.1v-.3h.5l.3-.1v-.2h-.5l-.1.2-.1-.1h-.3l-.5.1h-1.3l.3.1h.3l-.4.2a8.5 8.5 0 0 0 -1.3 0v.1h-.3a4 4 0 0 0 -.4.1h.2l.4.3h.5l-.9.1h-1.5v-.1h-.5l-.2.1-.1-.1v-.1h.1a.3.3 0 0 1 .3 0h.4v-.2h-.5c.1-.2.2 0 .3-.1l-.2-.1h-3.5c0 .1 0 .3-.2.2l.1-.1h-1.1v-.1h.8v.2h.2c.1-.1.3 0 .4 0l.2-.1h-.3l.4-.1v.1l.2-.1h1.2c.1 0 .1 0 0 .2-.1 0-.2-.2-.4-.1l.7.1.4.1-.5.1v-.1h-1.5c-.1.2-.3.2-.5.2h-1.3l.6-.3-.8.2h.2-.2c-.2-.1-.5 0-.8 0l.1.1h-.7.4v-.3h.7l-.1-.1.3-.1h-.2a.4.4 0 0 0 -.3 0l-.3.1-.1-.1h-.4l-.3.1c.1 0 .3 0 .3.2h.3-.2c-.2 0-.3 0-.4.3 0-.2-.3-.2-.4-.2h-.3l-.2.2v-.2h-.2l.1.2a3 3 0 0 1 -.5 0h-.3l-.1-.1-.3-.1h-.2a1 1 0 0 1 -.5.1h-.4c.1-.1.3-.3.3-.5h.3-.5l-.2.1-.4-.3h.5c-.5-.2-1-.1-1.3 0 .3 0 .3 0 .4.2h-.7s0 .2-.2.1v-.1c-.1.1-.3 0-.4 0h-.4l-.3.1zm69-.5h-.2.4zm-69 .9h.1-.2s0 .1-.2 0h.2zm-58 3.1h.2-.2s.1-.1.1 0zm-25.7 7.6c0-.2.2-.1.4-.1h-.7.3zm14.6-6.3.2-.1h.2-.8.4zm148.8-6.3h-.2.7c-.2 0-.3.1-.4 0zm-159.3 12.4-.3.1h-.3.3c0-.2 0-.2.3-.1l-.1-.1h.2-.1zm104.8-10v-.3h.3v.1l-.3.1h-.3.3zm-17.1.8-.2-.1h.5-.4v.2h-.3v-.2h.4zm-54.6 1.5h-.2v-.1h.2l.3.1h-.5zm-70 13.4-.8.1.7-.1c.2-.1.3-.1.4 0zm155.4-15.7s0-.1.2 0h.7c-.2.1-.3 0-.4 0h-.4l-.3.1v-.1h-.1zm7.6-.7h.1-.5c.4-.1.3-.2.6-.1l-.1.1zm-61.5 1.2v-.3l.6.1h-.3l-.3.2h-.3l.2-.1zm49.3-.2h1c0 .1-.2.2-.3.1h-.7.6-.8.3zm-56.9 1.4h-1.3 2.1a1 1 0 0 1 -.7 0zm7 1.1a.5.5 0 0 1 .4 0c-.2.1-.3.1-.4 0v.1h-.7.5c0-.1.1-.1.2 0zm68.4-1.8a1 1 0 0 1 -.5 0 1 1 0 0 1 -.4-.2h.2c.2 0 .5 0 .6.2v-.3h.4v.1h-.3zm-64-1.3v-.2h.6v.2h-.6v.2l-.1-.1h-.3.5zm73.2-1.4-.1.2-.2.1h-.2v-.2l-.1-.1h.9zm-61.2 1.1a1 1 0 0 1 .7 0c-.2.1-.5.1-.5.4h-.1l.1-.2h-.4zm-76.8 4.1h-.1a3.4 3.4 0 0 1 .7-.2l.1.1h-.1v.3h-.2a.3.3 0 0 1 -.2 0h-.1l-.1-.1zm123.8-5c.2-.1.2-.1.4 0h-.5.1-.6l-.3-.1h.6a.2.2 0 0 1 .2 0v.1zm-120.6 4.9h-.3l-.3.1a1 1 0 0 0 -.4.2h-.1v-.1h-.5l.9-.2h1-.4zm27-.8h.9-2.1l.4-.1h.8zm-14 .4v-.3h.2c0-.1.2 0 .2-.2h-.2.2l.3.1-.3.3c0 .2 0 .2-.2.1h-.2v-.1zm35-2.3h.2-.7c-.2.1-.3.2-.4 0h-.3l.2-.2h.2c.2 0 .5 0 .8.2zm47-1.5h-.2c-.1 0-.3 0-.5.2h-.1v-.2h1l.2-.1h-.5c.3-.2.6-.2 1 0h-.4l.1.1-.2.1.2.1h-.7v-.2zm-68.2 3.8v-.1l1-.1h.2-.4l.3.1v.2h-.9l.2-.1h-.4.1-.3zm51.3-.7h-1.5l-.3.1h-.2l.1-.1h2.2l.3-.2h2.4v.1h-.7a1 1 0 0 1 -.3 0h-2zm2-2.5h.1l.1.1h1v-.2h.6l-.4.1h1.1v.2h-1.4a3 3 0 0 1 -.5 0h-.8v-.1h.1l.1-.2h.4c-.1 0-.2.2-.3 0zm46-1.1h-.7v-.1h-1l-.4.1h-.3a.6.6 0 0 1 -.4 0l.8-.2h1.9l.1.1h.3c-.1.1-.1.1-.2 0zm-13.6.4c0-.2-.2-.2-.3-.2a.3.3 0 0 1 -.2 0h-.4l-.2-.2h.3l-.2-.1h.5c.2.2.3.2.5.2h.5a.2.2 0 0 0 .1 0 .4.4 0 0 1 .4.1s0 .1-.2 0h-.6l-.2.2c0 .1 0 .1-.2 0zm-60.4 1.1h-.2s.2-.1.2 0h.1l-.1.2h.6a2 2 0 0 1 -.5.2.7.7 0 0 1 -.4-.1.2.2 0 0 0 -.2 0l-.5.1h-.7v-.2h.4-.2v-.2h.6l-.2.2h.9-.1c0-.1 0 0 .1 0zm57.6-2s.2.1.2 0h.7c-.2.2-.4.2-1 .1h.1-.6l-.7.1h-.6l-.1-.1h-.5.2-.5c-.1 0-.2 0-.1-.1l-.5.2-.2-.2h-.6l-.5.1h-.3c0-.2 0-.2.2-.2h1.8c.1 0 .1 0 0 0h3.1v.2zm5.4.6h.3l.1.1h.5-.1l-.5.1a2 2 0 0 1 -.5 0h-1.2l.8-.2h.6-.4v-.1h-.3a5 5 0 0 1 -.6 0h-.6l.2-.4h-.4.8l.6-.1h.4c-.1.1-.3.2-.4.1l-1 .2.5.1h.8l.3.1zm-77.3 2.7h-.2c-.1 0-.2.1-.1.2h1.4a43.8 43.8 0 0 1 2-.2h-.4c-.2.2-.3.2-.6.2h-.5v.1h-.5l-.3-.1c-.1.2-.4.3-.5.1 0 .2-.2.1-.3.2v-.1h.2-1.1v-.2s.2-.2.4 0v-.3h.9l.7-.1h.2l-.1.1h-1.2zm17.4-.7h4v-.3h-.2l.3-.3h.5l.4.1h-.6l.2.1-.3.1v.2h-.2 1l-.3.1h-.5l-.8.1h-1.5a12.2 12.2 0 0 0 -2.2.2h-3v.1h-.7a6 6 0 0 0 -.9 0h-1.1a.7.7 0 0 1 -.5 0h.3l1-.1h1.4l1.4-.1 1.8-.1h.4l.1-.1.4-.1h.3-.7zm83.2-3v.1h-.5c.2 0 0 0 0 .1l1.5.2v.1h-.2c0-.1-.2 0-.4 0h-.2l-.5-.1-.2.2a.5.5 0 0 1 -.3 0 5.5 5.5 0 0 0 -1 0v-.1h.5c-.5-.2-1-.2-1.5-.2l-.1.2h-.2v-.2h-.3a2.2 2.2 0 0 1 .9 0h.4c0-.1 0 0 0 0h1.1l-.2-.1a1 1 0 0 0 -.5 0l-.1-.1h-2.1a.4.4 0 0 0 -.3 0l.7.1h-1l.2-.4h.8c-.1.2-.3 0-.5.1h3.9zm-74.4 2.3h-.3a.7.7 0 0 0 -.5 0 .7.7 0 0 1 -.5.1v.1h-.2c0-.1.1-.2.3-.2v-.1h.4v.1c.1-.2.3 0 .4 0v-.2c-.3 0-.6-.2-.9 0l-.2-.1a1 1 0 0 1 -.5 0l1.2-.2h.5l.3-.2h.7l-.3.2h.3l-.5.3h.6l-.2.2h.3l-.2.1h-.6zm41.2-.7-.4.1h-.7s-.2-.1-.4 0h-1.6l.5-.1c.2 0 .4 0 .4.2l.2-.2c-.2-.1-.4 0-.5-.2h.3l-.2-.2h.8v.1h-.5c0 .2.3.2.4.2h.9l.2-.2h-.6.5a1 1 0 0 1 .7 0c-.1 0-.3 0-.5.2h.7l-.3.1zm36.2-1.2c.3 0 .6.1.8 0l1 .1h.6l.6.1h-.3c-.1 0 0 .1 0 .1v.2h-.3v-.2h-2.7c-.3 0-.6 0-1-.2h.1l-.1-.1.1-.1h.3c.2-.2.3 0 .5 0h-.3.7-.1.6-.3l.2.1zm-95.1 3.1-.8.1h-1.2c-.1.1-.2 0-.4 0a.3.3 0 0 0 -.2 0h-.2c0 .1-.2.1-.2 0h-.3l-1.2.2h-.5v-.1h.7c.3-.1.6-.1.8 0l.2-.1h.9l2-.2h.2v.1h.1zm17.6-.7h3.6c.1 0 .3-.2.5 0l.2-.1h.7l-.7.2h-1.9a4.5 4.5 0 0 0 -.8 0 1 1 0 0 0 -.7 0h-.5a1 1 0 0 0 -.4 0zm16.3-.3h6.1a3.3 3.3 0 0 1 -.9 0 3 3 0 0 0 -.7 0h-1a13.1 13.1 0 0 0 -1.1 0l-.3.1-.5.1h-.2v-.2h-.8c-.3.2-.4.2-.6 0zm16.8-1h.4l.2-.1h.3a.6.6 0 0 1 .5 0 .2.2 0 0 0 .1 0h.5v.1h.2l-.1.1a.3.3 0 0 1 -.2 0h-.2c-.2.2-.4.1-.7.1v-.1h-.5l.2.1-.7-.1zm-21.7 1.3h.8l-.6-.1h1c.1 0 .4 0 .6-.2h.4-.3c.3.1.4.2.6 0h-.1.3l.1.1h.5l-.1.1h-.2l-.4.1-.2-.1v.1h-1c-.1 0-.2.1-.4 0 0 .2 0 .1-.2.1a.8.8 0 0 0 -.5 0h-.3zm60-3.6h-2.5v-.3h-.2.8c.2-.1.5 0 .8 0h.4l.4.1.2.1zm-50 2.8h.1c.1.2.3.1.4.1h2l-.5.2h-.5a11.8 11.8 0 0 0 -1.8 0h-.2l.2-.2h.2l.1-.1h1.4zm-59.3 2.2.2-.1h.3c.1 0 .3-.1.4 0h.5a14.8 14.8 0 0 1 .9 0h-.9l-.1.2h-1.4v-.1h-.2.4zm109.1-4.8h2.8v.1h-.8l-.1.1h-.3l-.3-.1h-1.2v-.1zm-108.6 6-.5-.1-.4.1h-.5c0-.1 0-.2.2-.2h.2l-.4-.1h.9-.4.6c.2 0 .2 0 .3.2zm75.2-3.7h-.2a.6.6 0 0 0 -.5 0h-.3l-.4-.1-.3-.2a.9.9 0 0 1 .5 0l.3.2a8.2 8.2 0 0 1 1.3-.2h.2l-.6.2zm-64.2 2.7h-.5l.6-.1h.6l-.2.2h1-1.5l-.4.1zm-14.4.6a12.7 12.7 0 0 1 -1.9.2h.3c-.2-.2-.4 0-.5-.1v-.2h1-.2 1.3zm-44.6 2.6c-.4.2-1 .3-1.5.3 0 0 .2 0 .2-.2v-.2s-.2.1-.4 0l1.6-.2-1 .3.3.1h.3zm117.5-5c.1-.1.2-.2.3-.1h.4c0-.1.2-.1.2 0h1.9-.3l-.3.1zm39.5-3.5.6-.1h1l.6.1h1l.2.1a2 2 0 0 1 -.5 0 6 6 0 0 0 -.6 0h-2.3zm-24.8 1.4v-.1h2.3c0 .1-.1.2-.2.1a.5.5 0 0 0 -.5 0zm25.1-1.7h.1l.6-.1h1.3a1 1 0 0 1 .6 0v.2h-2.6zm-.2-.1h-2.6c.2-.1.4-.2.6 0l.4-.1a11.7 11.7 0 0 1 1.6 0zm-11.7 3c.1.1.3 0 .4.2h-.9v-.2h-.1l.2-.1c0-.2 0-.2-.2-.2h-.3l.1-.1h.5l.1.1.1.1.6.2zm-106 2.7h.4l.2-.1h.5v.1a.3.3 0 0 0 -.2 0l-.1.1h-.2l-1.4.2h-.2l1-.1zm126.4-4.1-.8.1h-1v-.2h1.8zm-33.3.8h-1.7a2 2 0 0 0 -.8 0h-.2a1 1 0 0 0 -.4 0h-.4.8a3 3 0 0 1 .7 0h.1v-.2h1.9zm5.3-.2h-.6l.2-.1-.1-.1.3-.3h.6l-.2.1.4.1c-.3.2-.6 0-1 .2h.4zm66.4 8v.2h.3-1.7l-.4-.1c.3-.1.6 0 .8 0l.4.1h.4l.2-.1zm-65.4-7h1.2l.4-.1h.5l-.5.3v-.2h-.4l-.6.1-.7-.1zm-40.3.2c.4-.2.7 0 1.1.2h-.5a.5.5 0 0 1 -.4 0 .3.3 0 0 0 -.2 0h-.3.6l.1-.1h-.4zm-70.8 9.2a3.5 3.5 0 0 0 -.5 0h-.1.4l-.3-.1 1.3-.2-.2.1v.1l-.7.2zm64.6-8.6h2c-.2.2-.2.2-.3.1a.8.8 0 0 0 -.6 0h-.5l-.1.1v-.1h-.5zm-.3.2h-.5a7 7 0 0 1 -1 0l-.1-.1h1.3zm36.5-2a8.2 8.2 0 0 1 1.2 0h1-.3l-.3.1h-.2l-.3-.1zm19.1.5h.1c.2-.2.4 0 .6-.2l.4.2-.4.2a1 1 0 0 1 -.5 0l.4-.1h-.6zm-38.1 1.7h-.4l-.4.1h-.3.2c-.2 0-.4 0-.5-.2h-.4 1-.3 1.1zm50.5-3 1.4.1a.7.7 0 0 0 -.5.1h-.5zm-85.7 4.5c0-.1.3 0 .3-.2h-.9 1.5l-.4.2zm59.1-2.9v.1c-.2.2-.4 0-.7 0l-.4-.1.3-.1zm-91.9 3-.1.1h-.1l-.1.2h-.5v-.1c.1-.1.2 0 .2 0l.3-.1h.8c-.2.2-.4.1-.7.1l.2-.1zm14.3-.4c.5-.1 1-.2 1.6-.1l-.7.1zm-61.3 2-1.9.4c.1-.2.4 0 .4-.3h-.2.3v.1l.6-.1zm50.3-1.8.1-.1a3.3 3.3 0 0 0 1-.1h.8l-1 .1h-.7zm-6.2 1c.2 0 .4-.2.6 0h.9-.3a2 2 0 0 0 -.6.1h-.4l-.3-.1zm95.6-3.8h.5a.3.3 0 0 1 .2 0h.4l-.3.2h-.1l-.2-.1h-.5zm-122.4 5.3 1-.2v-.2h.2c.1.2.2.1.3.1h.3c-.1.1-.3.2-.5.1h-.3zm9.6 4.8-2 .2h.1v-.1h1.1l.3-.1h.3a.6.6 0 0 1 .4 0zm132.4-12h1.3-.5c-.4 0-.4 0-.6.2h.5c-.2 0-.3.1-.7-.2zm-42 1.6.5-.1.2.1-.2.2h.2v.1c-.3 0-.4-.2-.6-.1l-.2-.2zm-67 3.7c0-.2.2-.2.4-.2h1.2l-.2.1h-1.4zm44.4-1.8-.1.1h-1.3l.7-.1zm-14.3-.7v.1h-.2s-.2.1-.4 0h.2l-.1-.1h.2a3 3 0 0 0 -.6 0l-.1-.1h1zm87-3.4v.2h-.6l-.6-.1v-.1h.9a.4.4 0 0 1 .4 0zm-135 7.8h.3c-.2 0-.3.2-.5 0h-.3l-.1-.2.4.1.2-.2.2.2h-.3zm28.7-3.5h1l-.4.2h-.4v-.1h-.2zm52.2-1h1.5-.5a1 1 0 0 1 -.5 0zm-29.2 1v.1h-.8c-.3.2-.3.2-.5 0h1.3zm-72.8 3.4-2 .3 1-.3zm76.2-4 .3-.1h2-.8a3 3 0 0 0 -.7 0l-.6.1zm15.3-.9h.5c.1 0 .3-.2.5-.1a3 3 0 0 1 -1 .2zm-73.5 3.1v.1l-.4.1h-.8zm-16.4 1.4v.1h-.2l-.7.1-.5.1h-.2l1.4-.3h.1zm-26 11.4-1.8.4c.6-.2 1.2-.4 1.9-.4zm158.5-16.9h.2a.6.6 0 0 0 .4 0h.8-1.5zm-30.2 1.6c.1-.2.2-.3.4-.2h.6-.7c0 .3-.1.3-.3.2zm-58 3 .1-.1h.2l.4.1-.3.1h-.2v-.1zm108.8-6c-.1 0-.2.1-.4 0h-.5v-.1h.9zm-43.2 3h-1c0-.2.1-.3.2-.2h.7v.2zm-99.8 9.3h-.5c-.2.1-.3.2-.4 0h-.3zm81.6-9h1.1-.6c0 .2-.2.2-.3 0h.1zm13-2h-.2c-.1.1-.2.1-.4 0h.7zm-40.4 1.8-.9.2h-.3c.3-.2.6-.1 1-.2l.2.1zm-2.9.7h-1zm-33.7 2v-.1h.3a3.8 3.8 0 0 0 1-.2h.1l.1.1-1.5.1zm.3.4a4 4 0 0 1 1.1-.1c-.3.1-.7.2-1 .1zm122.3-4.7s-.3.1-.4 0a.4.4 0 0 0 -.3 0h-.4 1.2zm-72.1 2.2h.9c-.1.1-.2.1-.4 0zm76.7-2.6h-.4l-.3-.1h.6zm-21 .5.5-.2.2.2-.5.1-.1-.1zm-37 1.7h1.2l-.2.1v.1h-.4.1l.1-.1c-.2-.1-.5 0-.8 0zm59-2 .4-.2.5.1h-.9zm-63.8 2.5.2-.1h.1c.2-.2.3-.2.5-.1h-.2l-.1.2a6 6 0 0 1 -.5 0zm43.6-1.7h-.6l.3-.1a.3.3 0 0 1 .3 0zm-155.1 14.6c0 .2-.3.3-.3.2h-.4c.2-.2.5-.1.7-.2zm148.3-14.9h-.1c0 .1-.1.1-.2 0h-.9zm-108.7 5.8-1.4.2zm41.2-3.7v-.1h1.1-1zm46.3.2c0-.1-.1-.2-.3-.2h.6c0 .2 0 .2-.3.2zm17.7-3c-.1.2-.2.2-.4.2l-.4-.1h.8zm-71.3 3.8h1zm20.3-2.6c.2-.1.4-.2.7-.1h.1l-.1.1zm-96 14.9-1 .3c0-.2.3-.1.4-.2h.5zm109.7-13.5v-.1h.7v.1zm-69.8 8v-.1a14.7 14.7 0 0 1 1 0h-.5c-.2 0-.3 0-.5.2zm143-11-.3.2h-.3l-.2-.1h.7zm-19.8.6h.4v-.1a.3.3 0 0 1 .3 0v.2h-.6zm-52.6 1.1c0 .3 0 .3-.4.2v-.2zm-81.7 10.3c.2-.2.5-.2.8-.1zm9.8-.8v-.1l.7-.1a.4.4 0 0 1 .3 0zm148.8-10.6h1.2zm-178.4 13.9c-.1.2-.5 0-.7.2h-.1zm177-15-1-.1h1zm-155 12.5h.5c.1 0 .3-.2.5-.1l-.7.1zm-19.2 2.5c-.2.2-.4 0-.7 0l.7-.1zm136.3-12.9h-.2l-.1-.2h.5-.4l.2.1zm-82.5 3a1.4 1.4 0 0 1 -1 0zm123.4-4.2a3 3 0 0 1 -1.2-.1h1.2zm-60.5 1.2.3-.1s-.1.1 0 .1h.4l-.4.1zm-25.5 2.7v.3a2 2 0 0 1 -.6-.1h.6zm-65.4 7a1.4 1.4 0 0 1 -1 0zm73-10a2 2 0 0 1 -.9.1c.2 0 .5-.1.8 0zm27.6-.3h-1 .2l.2-.1h.6zm-63 2.4v-.1a1.1 1.1 0 0 1 .8 0h-.8zm33.8-1.5h-.8zm-57.8 3h.7zm111.5-3.3a1 1 0 0 1 .6 0zm-133.8 10.7.3-.1h.4-.1zm79.1-11c0 .2-.2.1-.3.1h-.3.6zm-19 2.1h-1zm80.7-3.2-.5-.1.2-.1.4.1v.1zm-126.2 6c-.2.2-.4.3-.6.2.2-.1.4-.2.6-.1zm8-1.8h.4v.2l-.4.1v-.2zm2.7 2.3v.1h-.4c-.1 0-.3 0-.3.3l-.2-.2zm10.3.7-.2.1h-.3.5zm171.4 1.2h1zm-177.8.8c-.2.1-.3.3-.6.2zm110.5-10.3.1-.1a.3.3 0 0 0 .3 0h.2-.6zm-99.8 4.3.1-.1h.6c-.2 0-.4.2-.7 0zm46.8-.5a1 1 0 0 1 -.7 0l.1-.1h.6zm12.7-1.3h.2v.1h-.3v-.1h-.2zm-17.5.7h-.8.9zm-20 .3a1.2 1.2 0 0 1 -.7 0h.8zm-45.5 2.8-.3.1h-.4zm12-.3h-.6.7zm46.6-2.1h.7a1 1 0 0 1 -.7 0zm65.8-2.4-.3-.2c.4 0 .4 0 .5.2zm-33.8 1.2v-.2a.8.8 0 0 1 .5 0l-.5.1zm-31 1.9h-.6.5zm9.4-1.3h.4c.1-.1.3 0 .4 0a1 1 0 0 1 -.8 0zm14 .3h1zm26.2-2.4h.7a.8.8 0 0 1 -.7 0zm.2.7c.2-.2.3-.2.4 0zm-50.9 3.4h.9zm-24.6-.5.1-.1h-.2c.1-.2.1-.2.5-.1zm-25.3.6h.3v.1h-.3v-.2zm69.4-3.3v-.1h.4c-.1.2-.3.1-.4 0zm7.5 2.7h-.8zm38.5-2.2c0-.2.2-.1.3-.1h.4-.7zm-47.3.9h.3l-.2.2h-.2v-.2zm-41.4.3-.6.1v-.1zm-52.8 3c0 .1-.1.2-.2.1h-.4.6zm65-4c-.1.3-.3.3-.5.2l.5-.1zm93.8-1.7h1zm-79 4c.2-.2.4 0 .6 0h-.7zm68.4-3.1h.6zm-51 0c-.1.2-.3 0-.4 0h.5zm0 .6h-.8a1.1 1.1 0 0 1 .8 0zm-59.6 4 .1-.1.1-.1s0-.1.2 0h-.1.3c0 .1-.1 0-.2 0l-.2.1h-.2zm-49.4 1.3.1-.1.6-.1h.1zm141.8-6.7h.5zm26.7-1h-.7zm-47.5 2.8h.6l-.2.1a.5.5 0 0 1 -.3 0h-.1zm25.4-1.5h.6zm-95.4 4h.7zm120.8-6.3h-.5zm-47 4h-.6c.2 0 .4-.2.5 0zm37.8-4.2h.3l-.2.1zm-189.7 13.7.3-.1h.2l-.3.2h-.1zm197.6-11.2h-.8zm-174.2 7c-.2.1-.5.2-.7.1h.7zm62-3h.5c-.2 0-.4.2-.6 0zm2.7-.6c.2-.2.5 0 .7 0zm21-2-.6.1c.1-.1.2-.2.6 0zm66.9-1h-.4c.1-.2.1-.2.4 0zm18.6-1.7h-.6zm-119.5 6.7-.9.2zm39-3.2h.6a3 3 0 0 1 -.5.1h-.1zm84.3-3.2h.6zm-146.9 6.4h-.2l-.2.1c0-.1 0-.2.4-.1zm12.6-2h.8zm72.2-1.9h.8zm44.8-.5v-.1h.7-.7zm-53.1 2h-.6a.7.7 0 0 1 .6 0zm-65.9 1v-.3h.2c0 .3 0 .3-.2.3zm122.7-4.3h.7zm-168.5 6 .6-.2c-.2.2-.2.2-.6.1zm78.8-2.7h-.2c-.1.1-.2.1-.4 0h-.2zm-36.4 1.2-.4.2c0-.2 0-.2.4-.2zm-27.6 8.4h.4l-.2.2zm143.8-12-.3.2v-.3zm-43.2 2.9a1 1 0 0 1 -.5 0zm39.8-3a.7.7 0 0 1 -.5 0c.2-.1.3-.1.4 0zm-119 8.2h.1l.1-.2.2.2zm72.5-5.9a.8.8 0 0 1 -.6 0zm29.7 0h-.5zm68.8 5.3h-.7zm-123-5.2c.2-.2.4 0 .6-.1h-.6zm62.6-3.5h.4a.6.6 0 0 1 -.4 0zm-35.1 2.5h-.6l.3-.1h.3zm-43.9 1-.3-.1zm33.5.3-.5-.2h-.2.5zm-17.6 1c-.1.2-.3 0-.4.1h-.1.5zm64.6-4.1c.2 0 .4-.2.6 0zm14.2 0h.7zm-11.1.8h.5a.7.7 0 0 1 -.5 0zm-51.2 1.3h-.6zm-52.9 2 .2-.1c.2 0 .1 0 .1.1zm36.2-1.5h-.6zm-68 2.7.2-.1h.3zm-28.9 3-.5.2.2-.2zm92.6-4h.5zm50.8-3.9-.1.1h-.1v-.1zm-144.7 9.2c0-.2.1-.2.4-.2zm128.6-8.5h.5zm58.6-1h-.7zm-124.4 4 .2-.2h.3c-.2.2-.3.1-.5.1zm5.2.2.3-.1h.2c-.2 0-.3.2-.5 0zm-19.2 1.9h-.5a.7.7 0 0 1 .5 0zm80.5-2.8h-.6zm65.7-3.5h-.5zm-17.7 6.7h-.7zm-9.8-5.6-.2-.3h.2l.1.2h-.1zm-137.2 11.4.4-.2c0 .2 0 .2-.4.2zm53.2-9a1 1 0 0 1 .7 0h-.3l-.4-.1zm50.5-2.8c-.1.1-.2.1-.2 0h-.2zm22.1-.2h-.4.5zm-86 2.8h.2-.4c.1 0 0-.2.2-.1zm39.3.5c0 .2-.1.1-.2.1h-.2.4zm-36-.3c-.3.1-.4.1-.4 0h.3zm-50.3 9.5h-.4zm167-13a.7.7 0 0 1 .5 0zm-9-.3h.6l-.5.1zm-85.7 3.8a.7.7 0 0 1 -.4 0c.1 0 .2-.1.4 0zm17.1-1.9h-.5zm30.4 1.7c-.1.2-.1.2-.3 0zm.4-1.2h-.5zm-12-.4h.4-.3zm-51.4 2.7h-.6zm148 3.4h.5-.6zm-145.4-3c-.2.1-.3.2-.5 0zm-53.8.4c.2-.1.3.1.4.1h-.4zm-4.9 1.6c0-.2.3-.1.3-.2h.2zm105.7-3.9h-.5zm-11-1.6h.6zm-2.7 1h.5c-.3.2-.4.2-.5 0zm-7.7 1.7h.4c-.1 0-.2.1-.4 0zm92.4-6v-.3a.6.6 0 0 1 .5 0h-.5zm-77.1 3c.1-.2.3 0 .4 0a.5.5 0 0 1 -.4 0zm-48.4 7.6.2-.1h.3-.5zm48.3-7.6c0 .2-.1.1-.2.1 0-.1 0-.1.2 0zm-25.4 2.5v.1h-.4c.1-.1.3 0 .4 0zm48-3.1c0-.2.1-.2.3 0h-.4zm-3.4 3h-.4c.1 0 .2-.1.4 0zm3.2-3.1h-.3zm-29.5 2.7h.4l-.2.1h-.2zm46.3-1 .5-.1h-.5zm-89.9 2.7h-.5zm90-1h.3zm-71.8-.5h.5zm77.5-3c0-.2.2-.1.3-.1 0 .2-.2 0-.3 0zm-89.8 3.2c.2-.1.3-.1.4 0zm91.5-1.1h-.3zm.2-1.9h.4c-.2.2-.3 0-.4 0zm-105.5 4h.5zm-12.9-.1h-.3.4zm132.8-6.4h.4a.6.6 0 0 1 -.4 0zm-144.1 7.5h.3zm92-4.4h-.4c.3-.1.3-.1.4 0zm59.5-3.7h.6zm-152.8 14.3.4-.1h-.4zm103.1-9.6c-.1.1-.2.1-.2 0zm-11.7.8h-.2v-.1h.2-.1.1zm-53.1.6h-.4zm36.4-1.4h-.3zm38.2 1.4c.2-.2.2-.2.4 0zm-48.6-1.5h-.2.1v-.1h.1zm-28 2.3c-.2 0-.3 0-.3-.2h.1c0 .1.2 0 .2.2zm102.8-4.8c.1-.2.1-.2.4 0zm-119.8 4.4h.5zm154.4-2.8h.5zm-115.4 0a.5.5 0 0 1 -.5 0 .4.4 0 0 0 .3 0zm-.7 2h.5zm66.7-2.3.3-.2c0 .2 0 .2-.3.1zm-97.5 4.1s-.2.1-.4 0zm55-1.2h-.4a.3.3 0 0 1 .2 0h.1zm-120.8 13c.1-.2.1-.2.3-.1h-.3zm15.3-1.9-.4.1c.1 0 .2-.2.4 0zm103-12.3c0-.2.1-.2.3 0zm-42.4 2.5h-.4zm106.4-7.7h.3l-.3.2zm.5 3.4h.3zm17.3-2.8h-.4.3zm-112.3 5.6v-.1c.1 0 .3-.1.4 0h-.4zm-5.2.9.1-.1h.2c-.1.2-.2.1-.3 0zm-42.6 7.2h.3zm53.3-9.5.2-.1h.1-.3zm34.2-.3h.4zm-33.8-.4h-.3.2zm44.5.2h-.3zm2.9.6h.5zm37-2a.5.5 0 0 1 -.4 0zm-120.5 9.3h.5zm61.8-8c-.2.2-.2.2-.4 0zm-.3-.1h.3c-.1.2-.2 0-.3 0zm38.1.4h.5zm-43.5.3a.2.2 0 0 1 -.2 0zm-66 3.3.3-.1c-.1.2-.3 0-.4.1zm85.8-5c.2 0 .1.2.3.2h-.2v-.1zm-19.5 2.7h.3zm-82.4 9.3c0-.2.2-.1.3-.1h-.3zm162-12.4h-.5.4zm-62.5 2.2h-.3zm-59 3.7h-.3l.3-.2zm-2-1.8v-.1h.3-.4zm-.2.1c0 .2 0 .2-.2 0zm18.5-1h-.3zm-23.4 3.9c.1-.1.2 0 .2 0h.2zm.1-.8c0 .1-.1.2-.2 0zm30.9-2.5h.3c-.2 0-.3.1-.4 0zm-84.3 12c.1-.2.1-.2.3-.1h-.3zm79.7-12.7h.6zm31.6-.4.3-.1v.1zm-76.7 1.9h.4c-.1 0-.2.1-.4 0zm80.8-3-.2-.1h.3v.1zm-90.2 10h-.3zm-17-6.5-.4.1zm101.8-2.7h.4zm63.3-4.5a.2.2 0 0 1 .2 0zm-45.6 5h-.2s0-.1.2 0zm-113.5 3.2v.1a.3.3 0 0 1 -.2 0h.2zm146.1-5.8h.3zm22 0v.2-.1zm-106.5 4h.4zm-20.5.2c.1 0 0-.1.2 0zm71-2v-.2h.2v.2zm-38.4.4h.3zm50.6 0h-.4zm41.4-5.4h.4zm-16.3 2.4h.3-.2zm-74.8 3h-.4zm20.8-.6-.2.1h.2zm1.5 0h-.3zm-87.7 9.6h-.3zm141.3-10.6h.2c-.1.1-.2 0-.2 0zm9.5-.5.2.1zm-85.2 1.8h-.3zm24.1 3h-.3zm-44-2.9h-.2l.2-.1v.2zm-29.5 3.5.4-.1h-.4zm67.7-5 .2.1h-.2zm89.5 6.7h.3zm-121.5-4.7v.1h-.2.2zm-70.7 10.9h-.3zm168.2-15.7c0-.2.2-.2.3 0zm-142.6 6.7h.3zm113.4-4.5h-.1v-.1s.2 0 .1.1zm-49.7 1.8h.3c-.1.1-.2.2-.3 0zm78-2.4c.2-.2.2-.2.3 0h-.2zm-77.4.8h.3zm-30 2.6s.2-.1.2 0h-.1zm-37.2 7.9h.3zm161-10a.4.4 0 0 1 -.2 0h.3zm-189.2 14.2-.3.1h.3zm41-8.5h.3zm127.2-6.2h.2zm41.3 7.3h-.4zm-160.4 1.1h-.3c.1-.2.2 0 .3 0zm49.4-5.3c.1 0 .1.1 0 .2zm66.8-4h.3zm-7.8 0h.3zm-104.4 6h-.3zm-34-1.2h.4c-.1 0-.2.1-.4 0zm94.4-1.6h-.3zm70.8-5v-.3h.3-.3zm-33.8.8h-.4zm9.8 1.8h-.3zm-5.1-.3h-.5a.5.5 0 0 1 .5 0zm-94.1 5.3h-.4zm-47 7.5h-.3zm113.2-12.5s.1-.1.2 0zm34.6.3h-.3.2zm-121 6.7.4-.1h-.3zm-1.8.4h.4-.3zm86-5.9h-.2zm-.5-1.8h.3zm28.5-1v-.1h.3-.3zm-120.4 8.7h.2zm111.5-6.5h-.3zm-20.3-1.5.2.1zm35.2.5h-.1c-.1 0 0 0 0 0zm-30.8 0c0 .1 0 .1-.2 0zm-60.2 2.4c0-.2 0-.2.2-.1h-.2zm-41.2 8.9h.3zm72.3-9.5h.2zm-27.2 1.7h.3-.1a.2.2 0 0 1 -.2 0zm0 3.6c0-.1 0-.1.2 0zm64.8-6v-.1h.1-.1zm-131.8 13h.3zm224.5-6.6h-.2zm-123.6-5.6h-.3zm124.6 5.5h.2s-.1.1-.2 0zm-124.3-4.4h-.2zm49.5-3.2v.1h-.2.2zm-114.2 9.7h.3zm38.7-8.2h.2zm-32.8 1.7-.1.1c-.1 0 0 0 0 0v-.1zm66.5-1.9h-.3zm-65.3 7.6-.2.1h.2zm107.5-8.2h.1zm73.7 7v-.1h.2-.2zm-239.5 2.5h.2zm140.8-10h-.2zm14 1.8h-.2.3zm-153.1 15.2-.3.1zm59-9.6h-.5.3zm22.5-1.5h.2c0 .1-.1.1-.2 0zm-81.5 1.7.3-.1h-.3zm165.5-7.8h-.3zm-106.3 3h.3zm.3 2.4.1-.1h.1-.2zm.8.7.2-.1h-.2zm121.2-7.5c0 .1 0 .1-.1 0h-.1zm-78 2.3h.2zm26.3-.2h-.3zm-39.4 2.9c0 .1-.1 0-.2 0zm30.2-2.7h.2zm27.3-.6h-.2zm12.3-.8h.2zm8.8-.4s-.1 0 0-.1zm-100.8 5.8h.3zm120.3-6.3h-.2zm-162.4 13.8c0-.1 0-.1.1 0zm163.4-13.7h-.4.1a.3.3 0 0 1 .2 0zm-80 4.8h.4zm80.2-6.4h-.1zm-168.2 8.6h-.2zm139-3h-.2zm-45-2.3-.2.1zm-101.6 14.1s0-.1.2 0zm97.6-12.4h.3zm71.2-2.2v-.2h.1zm-134 9.2h-.3zm2.7.4h-.2zm-3-4.6h.1zm26.7-1.8h.2zm36.1-1h.1zm-19.5.4h.2zm86.5-1.5h.3zm-14.2-1c0 .1-.1.2-.2 0zm.3.5c0-.1 0-.1.1 0zm-150 4.6h-.2zm69 2c0 .1 0 .1-.1 0h.2zm-67.8-1.9h.2zm67.8-1.1h-.2c0-.1.2-.1.2 0zm37.2-2.9h-.3zm-101.4 3.5h.2zm145.4-3h.1zm-1.9-2.5h-.3zm-73.3 4.2.2-.1h-.2zm21-.6h-.1v-.1zm-87.8 10v.1h-.3.3zm37.7-8.3h.3zm36.9 1.6h-.3zm23.8-4.8h.3zm10.8-1.3h-.3zm-52.3 4h-.3zm105.1-4.3h-.1zm-118 8.1h-.3.2zm-.1-.9h.2zm13-2.8h.2-.1zm80.3-4c.1-.1.2-.2.3 0zm-92.6 7.2h-.3zm-40.2-2.6h.2zm159.9-5.6h.2zm-107.4 8.3h.3zm32.8-4.7h.3zm49.3 3.4h.2zm-35.3-5h.2zm-31.8 3h.2zm-69.2 7.5h.2zm188-4h-.3.2zm-181 4h.1zm44-7.6h.2zm-6.1-.6h-.1zm-35.6 8.1h-.2zm-24.4 3.5h-.2zm69-12.7h.3-.2zm1.4 1.5h.2zm16.5-.2h.2zm53-1.7h.1zm-46.5-.8-.2.2zm17 1.6h.2zm-19-.3.2-.1h-.2zm-59.5 2.8v.1zm.1 4.5h-.2zm-22.6-3.7h.2zm23.6.6v-.1h.1-.1zm-31.4 8.1h-.3zm32.8-4.4a.2.2 0 0 1 -.2 0zm27.8-7.3h.2zm94.2-1h-.2zm13-3.6h-.2zm-106.4 9.6h-.3zm105.6-7.3-.1.1h.1zm-105.5 2.2-.2.1h.2zm49.1-2.4h.2zm-29.8.8h.2zm7.2-.3h-.3zm-102.5 7.2h.3-.2zm100.7-5h.2zm19.6-2.9h.2zm16.5.1h-.1zm-42.3 1.6c0-.1 0-.1.2 0zm-78.2 12.6h.1zm122.9-12.7h-.2zm-86.1 2.3h-.3zm89.4-.4h-.2zm-90.2 1.8h.1zm-.7-2 .1.1h-.1zm2.2.6h-.2zm1 5.2h-.1.2zm-54.1-1.3h-.4.2zm56.2 1.1h.3zm85.4-8.4v.1h-.1.1zm-92.7 6.3h-.3.1zm9.8.7h-.1zm65.4-7v.1h-.1zm-40.5 3.7h.2zm93.5-4.9h.1zm-93.9 5h.1zm-37.2 0v-.1zm56.4-2c0-.2 0-.2.2-.1h-.2zm12.6-1.5h-.2zm104.1 6.6h-.2zm-43.3-9.3h-.1zm-47.2 2.5h.1zm-66.5 4h-.2v-.2l.2.1zm-18.6-.5h.2zm38.1-.2h-.1zm86.6-5v.1zm-127.1 11.9h-.2zm63.5-9.8h.1zm55.6-.9h-.2zm-32.2 0h-.2zm-110.4 13.6h-.2zm166.7-17h.2zm12.6 3.3h-.1zm-133.3 8h.1zm60.1-7.4h-.1zm49.7-1v-.2h.2-.2zm-99.1 4.4h.2zm77.5-2.9h-.1zm43.6-1.7h.2zm-.4-1.2h.1zm-82.2 4c0 .1 0 .2-.1 0zm-39.7 5.7h-.2zm119-10.8h.1zm-165.8 14.9h-.1zm69.3-8.2h.1zm23.3-4.2h.2zm-91.3 4.6h.1zm42.5 3.7h-.2zm120.7-9.9h-.2zm-64.2 3.4h-.2zm-59.5 6.4h.2zm43.3-5.5h.1zm17.7 1v.1h-.2.2zm-39.3-2.4h.1zm-50.9 5.2h.2zm131.5-3.7h.1zm-24.3-1.4h.2zm-81.8 4.8h.1zm74.3-3.5.1-.1h-.1zm-75 5.2h.1zm54.7-4.5h.1zm-38.9-.6h.1zm1.3.2s0 .1 0 0zm0-.3h.2zm24.3.4v-.1h.1zm-41.4.1.1-.1h-.1zm37 0h.3-.2zm65-3.3h-.2zm18.6-2.5h-.1zm-138 12.7h-.2zm14.7-6.7h.2zm55.4-.6h.2zm-66.3 1.4v-.1h.1-.1zm.3 0v-.1zm130.3-5.6h-.1zm-2 1.6h-.1zm-90.3 4.1h.1v.1zm-15.9.5h-.2z" fill="#ffbe18"/></g></svg>