<svg fill="none" height="25" width="377" xmlns="http://www.w3.org/2000/svg" xmlns:xlink="http://www.w3.org/1999/xlink"><clipPath id="a"><path d="m0 0h377v25h-377z" transform="matrix(1 0 0 -1 0 25)"/></clipPath><g clip-path="url(#a)"><path d="m175.4 4h-4.8l-.2.2h-.2l-.4-.1h-.1c-.2.2-.4 0-.6 0l-.8.1h-1.2l-.4.1.1.2c.2-.1.4-.2.7-.1l-.1.1h.2c.4 0 .8 0 1.1-.2h.5l-.3.2h.9l.2-.1h-.6c.2-.2.5-.1.7-.1h.7l-.5.1h.2c0 .1 0 .1.2 0h.6c.2-.2.4-.2.7-.2h.5-.1c.2-.2.2-.2.4 0l.5-.2.2.1h-.4c.2.1.4.2.7.1v.3h-2.9a3 3 0 0 1 -.3 0h-.1c-.2.2-.5.2-.7.2v-.1l-.4.2v.2h1.5c.1.1.3.1.4 0l-.1.2h-2.2s.4 0 .3-.2h-1.1c-.1.2-.1.2.2.2h.3a.9.9 0 0 1 -.6 0c-.2 0-.5-.1-.8 0l-1.6.3.3-.5h.6l-.4.2h1.2l-.2-.2h-.2.1l-.5-.1-.3-.1a9.5 9.5 0 0 1 -1.3-.1h-1l.2-.2h.9c.3 0 .3 0 .4-.2h-.4l.5-.2h-2.3l-.3.1v-.2h-.1a5 5 0 0 1 -.8.1h-.6a2 2 0 0 1 -.9 0 1.8 1.8 0 0 0 -1 .1 1.2 1.2 0 0 1 -.7 0h-.2l-3 .2h-.2 1.1a1.5 1.5 0 0 1 .8.1l-.3.1v.2h-.2l-1.3.1h.7c-.2.1-.6 0-.8.3a10 10 0 0 0 -.8-.3 5.5 5.5 0 0 0 -1.4.2l-.3-.1h-.5l.4-.2h.9c0-.3.4-.2.5-.4h-1.1l-.9.1h.8a1 1 0 0 1 -.4 0c-.1.2-.2.2-.4.2l-.3.1h.3c-.3.2-.6.2-.9.2l.3.2h-.4l-.4.1h.3l.2.1.3.1h-.9l-.1.2h-2.4.3-.6l-.3-.1c.3 0 .6-.1.8-.3h-.7l-.5-.1h-2.8l.1.2h-.2l.2-.2h-3.4.4v-.4h2.2c-.2.1-.4 0-.5.2l2.4-.1-.3-.1h1a6.5 6.5 0 0 0 1.4.1l.7-.1-.4-.1.5-.1h.8v-.1a6.5 6.5 0 0 0 -1.5 0h-.6l.7.2h-1.4.7l-.1-.2h-.8c0-.1-.2 0-.2 0h-.3.2-.6a18.5 18.5 0 0 1 -2.6.2h-1l-2.4.1h-4v.2c-.8 0-1.6 0-2.5.2l.7.1h-.4c0 .2 0 .2.2.2h.3l1-.1h.2l.2-.2c.3.1.6 0 .7.2.3-.2.7-.2 1-.2l-.6.1h2.2l-.3-.2.4.1c.1.1 0 0 .2 0l.3-.2h.6c-.1.2-.3.2-.5.2h1.1c0 .2-.2.2-.4.2h-.3c-.2.1-.3.2-.4 0h-.2l-.5.2h-.3l.1-.1h-1.4a5 5 0 0 0 -.5 0c-.1.1-.3.2-.5.1h-.2l-.8.3h1.3l.5.1h-.8l-.5.1h-.4c0-.1 0 0-.1 0a2 2 0 0 1 -1.3 0l.3.1-1.2.2.1-.2c.2-.2.4 0 .5-.1l.2-.1h1.3v-.2l-.2-.2-.3.2.1-.2h-.5c-.2.2-.5.2-.8.2h-1l-.5.2h.4c0 .2.2.2.3.2h-1.3c.1-.2.4 0 .4-.2h-.4v-.3a4 4 0 0 0 -.6 0h-.6v.3l-.7.1 1.3.2c-.6.2-1.2.2-1.8.2v-.5l-.2.3-1 .1-.2-.1c.2 0 .4 0 .4-.2l-1 .1.3.2h-.7a1.5 1.5 0 0 0 -.9 0l-.9.1h-.2l-.2-.1.2-.1h1.6c.2 0 .2-.1.3-.2h-.7v-.1l-.5.1h-.7.2a2 2 0 0 0 -.6 0h-.2l-.4.1h-.6l-1.2.1h-1c-.2.1-.3.2-.5 0h-.3l-.1.1-1.2.1a2 2 0 0 0 -.5.2l-1.1.2h.4l-.2.1h-1.2c-.5 0-1 0-1.5.2a9 9 0 0 1 -.7 0v.1l-.2.1h-.2c0 .2-.3.2-.3.3h.6l1.8-.2h.2l.3.2-.8.1.8.1c-.5 0-1 .2-1.4 0v.1h-.6.6l-.3-.2h-1.4c.3 0 .4.1.4.2h-.2c-.2.2-.5.2-.9.1v.2h-.7c.2 0 .5 0 .6-.2l-.8-.1h-.1s.3 0 .3.2h-.4c-.1.1-.2.1-.4 0l.4-.1-.2-.2h1c.3 0 .4-.2.4-.3.1 0 .3-.1.4 0h.7c0-.2 0-.2-.2-.2h-1.8c.3.2.6 0 .7.3h-.7v-.5l2.6-.2h-.8l.8-.1h-1.7l-1.5.2h-.5a2 2 0 0 0 -1 .1h-.2l-1 .1h-1v-.3h-1.1l-.1.2h-.5.2-.6l.3-.1-1.2.1h.5l-.5.1h-.5l-.3.2h.4c0 .3-.2.3-.5.4h-1.3a38.2 38.2 0 0 1 -1.8 0h.7v-.1l.1-.1h-.6a1.6 1.6 0 0 1 -.9 0h-1.5.3-.3v-.1h.3v-.1c-.1 0-.2 0-.1-.2h.2l.8-.1 1.5-.2h1.1l.4-.1-2 .1-2.2.1h-1.1c-.3 0-.5.1-.8 0l-.2.1c-.3.1-.3.1-.4 0l.1-.1h-.9l-.2.1-.7.2c-.2 0-.5.2-.8.1l-.4-.2-.9.2h-1.2c-.4.2-.8.1-1.2.1h.3a1.9 1.9 0 0 0 -1 0h-.4c-.4 0-.8-.2-1.2 0h-.2c-.2 0-.3-.1-.4 0 0 .2-.6.2-.7 0h-.9l.7-.1h-1.4l.5.1-.6.1c-.2 0-.2.1-.3.2h-.3s.1 0 0 0c-.1.2-.3.3-.6.3h-.4a1 1 0 0 1 -.4 0 .8.8 0 0 0 -.4-.1h-1.2v-.1c.2 0 .4 0 .5-.2l-1.7.2-.2.2c-.2 0-.4 0-.6.2h-.2c0-.1 0-.2-.2-.1h-.6l.3-.2-1 .1v.2h-.1l-.4.3-.7.1h.3c0-.2-.2 0-.5-.2h.4l-.7-.1-.6-.2.7-.1h-1.3l-1.2.1-1 .1h-1.6c0 .2-.4.2-.6.2h-1l-.5.2s-.2 0-.1-.2h.4l1.4-.1.2-.1h-1.5.3l.5-.1h-.1l-1.9.1c-.2 0-.2 0-.2.2l-1.2.3v-.3h-.7l-1.1.1h-.4c-.1-.1-.3 0-.4 0a3 3 0 0 1 -1 .2 2 2 0 0 0 -.3 0l-.1.2h-.1a1 1 0 0 0 -.6 0h-1a2 2 0 0 0 -.3 0c-.3.2-.6 0-1 .1-.2.1-.5 0-.7.2a.3.3 0 0 1 -.2 0h-1l-.2.2h-.5l.3-.1h-1 .4s-.1-.1-.2 0a5.5 5.5 0 0 0 -1.3 0h-.1l.9-.2c.2-.1 0-.1-.1-.2h.4l.2-.1h-.2a1 1 0 0 1 -.5 0 .7.7 0 0 0 -.5 0l-.8.2h-.4v.1h.4-.1a1 1 0 0 0 -.5.4h-.5c-.1 0-.3 0-.4.2h.6l.6-.1-.4.1c-.2 0-.5.1-.7.3-.1.2-.3 0-.4.1l-.3.1h-.1a2 2 0 0 0 -.5 0h-.2c.3 0 .8 0 1.1-.3a2.6 2.6 0 0 1 -1.4 0h.2l.3-.1-.3-.1.5-.1-1.7.1 1-.2h.2l.1-.1c-1 0-1.9 0-2.8.2l.5-.1h-.3c0-.2.1-.3.3-.3h.8a6 6 0 0 1 1-.2h.6v-.2h-.6c-.3 0-.5.2-.8.1h.2l-.3-.2-.2.2c-.2-.2-.4 0-.6.1v-.2l-.5.1v-.1c-.3 0-.4 0-.4.2h-.2c0 .2.2 0 .4 0l-.9.3.1-.2h-.8.6l.2-.2h-1 .4c-.5 0-1 0-1.3.2h.3l-.3.1-.5.1h-.5l-.7.2c-.1 0 0-.2-.2-.2l-1 .2-.1.1h-.1l-.8.2c0-.1.2-.2 0-.3l-1.5.3-.3-.1c.2-.2.3 0 .4 0l.2-.1h.2v-.1h-1c-.1.1-.2.2-.3 0l-.3.1-.3.1h-.9.6c.2 0 .3-.1.3-.3.3 0 .5.2.8 0h.8l-.3-.1 1-.3-3.8.4v-.1h-1.8c-.2.2-.6.1-.8.2h-.5l-.7.2a4.5 4.5 0 0 1 -1.4.2h-.2l1.1-.4h.6a56.2 56.2 0 0 0 2.2-.3h-.9.1-.7a2 2 0 0 0 -.5 0l-1 .2h-.2l-1.5.3h.2-1.2l-.8.1h-.2l-.4.2h-1l.7-.1h.7l.5-.2h-1l-2 .3-1 .2-2 .3-2.6.4h-1l-.2.1h-.4a2 2 0 0 0 -.6 0l-.5.1-2.3.4v.1l-1 .2h-.7l-1 .2-.2.1-2 .3-2 .4-1.6.2-1.5.3-2.3.5h-.2 1.6l-1.4.5-1.1.2h-.7l-.2.2h1l-.5.2c0 .2-.3.4-.7.5h-.2l-.1.1 1.7-.3c0 .2-.2.3-.4.3l-1 .4-.4.2-.2.2v.2l1-.1h.9-.3s-.2 0-.1.2h-.3l-.5.2h.5v.3h.5l.3-.1h.4c.1.1 0 .2-.1.2l-.6.2h-.2c-.3.2-.7.3-1 .3l.2.2-.2.1c.2.1.4-.1.8 0l-.7.2h.4v.1h.8l.2.2c-.3.1-.3.1-.4 0h-.3.2l-.4.1h-.4l-.3.2.2.2c.3 0 .4-.2.7-.1-.3.2-.7.2-1 .3v.1h.8l-.2.1.2.2c-.2 0-.2 0-.1.2h.2c.2.2.2.2.5 0v.2l-.2.1h-.5l-.3.2c.1 0 .2.1.4 0a.4.4 0 0 1 .2 0l.5.2h.7l-.3.2-.3.1-.5.1h.4a1 1 0 0 1 .6 0c0 .2-.4.2-.3.4h.7c-.2.2-.6.2-.8.3h.6c-.2.2-.5 0-.6.3.4 0 .8-.2 1.3 0h-.4v.2l-.5.1-.2.3h1l.7.1-.5.1-.5.2.7.2h-.4c0 .2.1.2.3.2h.4c-.1.1-.5.1-.5.3h.1c.1 0 .2-.1.4 0h-.5l-.3.1.3.2c.1 0 .4-.2.6 0h.5l-.3.1.1.1h-.3v.3l.8-.2c0 .2-.1.1-.2.2l.1.2.3.1h.4l1.5-.1c-.2.2-.5.1-.7.3h.2l1.3-.3 1.8-.3a36.4 36.4 0 0 1 3-.4l-.3.1 1.2-.2h-.3v-.1c.3-.2.7-.3 1-.3h.4l.2-.2.3-.2h1.4l.2-.1c.1-.1.2-.2.3 0l.7-.3h.6l-.2.1 2.1-.3v.2l.5-.1h-.2v-.1l.6-.1 1.3-.2h.6c0-.2.3-.2.4-.2h.7l.7-.2.5-.1h.3c.2-.2.5-.1.8-.1h.8l1-.1.4-.1h.5l1.1-.3c.2 0 .3-.2.2-.3l-1.2.2h-.9l.1.1h-.3.4a2 2 0 0 1 1-.3h1.2l.6-.3h.7l.3-.1h.5l-.6.2h.4a.9.9 0 0 1 .6 0h.4a5.4 5.4 0 0 1 1.4 0l-.2.2c.5 0 1 0 1.5-.2h-1 .1c.2-.1.4-.1.4-.3l.4-.1.7-.1.3.1c.2 0 .4-.2.7 0 .1 0 .2-.2.5-.2h-.3c0-.1.3 0 .2-.2l.2-.1h.9l.4.1h.7a6.6 6.6 0 0 1 1.8-.2l.5-.2a1.8 1.8 0 0 0 1 0h.7c0-.2.2-.2.4-.2-.2-.2-.5 0-.7-.1l.2-.1.5-.1a1.2 1.2 0 0 0 .7 0h1.5l.8-.1 1.8-.2h1c.2-.2.5-.2.7-.2h.4l.8-.1.7-.1h.5l.6-.2h1.2l1.2-.2h1.1-.3c-.1 0-.2 0-.3.2h-.2c-.1-.1-.2 0-.2 0h-.5l-1.1.2-1.7.2a4 4 0 0 0 -.4 0l-.2.2h.5l.6-.1h1.1l1.2-.3h1.3l1.3-.2h.8l.6-.2h1l.6-.1h.4l1.5-.1.7-.1 1.7-.2 1.9-.2.6-.1h1l3-.3 2.5-.3h.4l1.2-.2h.5a.3.3 0 0 1 .2 0h1.3l1.2-.3h1l.5-.1h.7l1.9-.3h.5l.2.3.6-.3h-.4.7l1.4-.2h1.1l.2.1c.1 0 0-.2.3 0l1-.2h1.6l.6-.2.1.1.3-.1v-.2l.3.2v-.2c.4.2.8.2 1.2.1l.3-.1h.4s0 .1.1 0l.2-.1s0 .2-.2.1v.2h1c0-.2.2-.2.3-.2h1.1c.1-.1-.2-.2 0-.2.2-.1.2-.1.2 0 .1 0 .3 0 .2.1h1.6v-.2h.3c0-.1.1-.2.3-.2h.1c0 .2.2.2.3.3h.3l.2-.1.3-.1-.1.2 1-.1h.5v-.1h-.4c.2 0 .4-.1.4 0l.3-.3h.4l-.3.1c.1.1.4-.1.5.1l.3-.1.2.1.1-.2.3.1.2-.2h.4s-.4 0-.3.1h.5s.2-.1.2 0h.3l-.3-.2h.4v.1h2.4l.1-.1h1.3l.2-.1h.8l.1.1h.9l.8-.2.2.1h1.2l1.2-.2h.4l.3-.1.4-.1h2.2-.4l.7-.1-.2.1h.9l-.3-.1.4-.1h1.3-.2v.1h1.1l-.2-.1h2.2l1.4-.1h.7l-.2-.1h.2l.7-.1h2.3v-.1l.4-.1v-.1c.2.2.4.1.7 0h3.6-.1.8-.2a.4.4 0 0 1 .4 0h1.3s0-.2.2-.1h1.8l.4-.1h.6l.4.1.1-.2.4.1h.1l1.5-.1h1l.1-.2c.3 0 .5.1.8 0h2.7c.6 0 1.2 0 1.7-.2l.5.1h1.8c.3 0 .6-.1.8 0h.4l.3-.2h7.2l1.5-.2h5c.2 0 .5-.1.8 0h2l1-.1h1.7l2-.1h1l1.4-.1h.9-.2.5l.2-.1h.2l1.1-.1.3.1h.3a1.3 1.3 0 0 1 .8 0h7.6l.6-.1h5.9a.9.9 0 0 1 .6 0h1c.1 0 .3-.3.6-.1h.7c.4 0 .7.2 1.1 0h3.6a15.8 15.8 0 0 1 1.6 0h1.8a.2.2 0 0 1 .2 0h5.8a.9.9 0 0 0 .4 0h4.7c0-.1 0-.1 0 0h1.5c.2-.1.3 0 .4 0a.8.8 0 0 0 .5 0h.9c.2 0 .3-.2.4 0h.2l.4-.1h3.7l1.4.1h7.7c.3.2.5.1.8.1h5.4l.7.1h3.4-.3.8-.2l-.1.1h5.7-.8l.3.1h.5a.9.9 0 0 0 .5 0l.3-.1h1.8l-.2.1h.6-.3 3.9-.3l3.2.2c-.8-.1-1.5 0-2.2-.2h4.3c-.2.2-.3.1-.5.1h-.6l.2.1h3.6-.3 2.5l.4.2.3-.1h1.9c.1 0 .2.2.4.1h1.4-.2 4.1l1.5.1v.1h2a4.8 4.8 0 0 1 1.2 0h2.3l1.1.1h.5l1.4.1h3l2.9.2h2l2.3.2h4l1.1.1h2.4l1 .2h2.1l2.5.1 2.2.1 3.3.1h.2c-.7-.1-1.4 0-2.1-.2h4.2l3 .1h1.4l1.5.1h2.4a5 5 0 0 1 1.1 0h3.4l-.2.2h.3l.3-.1h2l2.8.1h4.3-.3.1c.3 0 .5-.1.8 0h.1c.2-.2.4-.2.5-.1h-.2 1-.6 1v.1h.9-.4l.1-.1h1.8a22.3 22.3 0 0 1 3.1 0l.2.1v.1h.4l.6-.1h2.7l1.2.1v-.3h-1.9a18.3 18.3 0 0 1 -3.4-.1h-2.8l-2-.1h-2l-.9-.2 21.5.5-2-.1-.1-.3h2.5l.3.1h1.5l2.2.2h.8-.4c0-.2.2-.2.4-.3h.4c.3.1.5.1.8 0h-.2c.4-.2.6 0 1 0v.1l1.2.2-.4-.2.6.1h.1l.5.2v.2c0 .2.2.3.4.4l.7.2h.7v.3l.1.1c.2 0 .4.2.5.3h.6l.1.2h.6v.5l.7-.1.2-.2h.5l.3-.1c.1-.2 0-.3-.3-.5a.7.7 0 0 0 .4 0l.2-.1v-.1l-.1-.3.6-.8h.3v-.1h-.4v-.1l-.1-.1-.1-.2c0-.1.3 0 .4 0l-.3-.2.2-.2v-.2l-.2-.2.6-.1c0-.1 0-.2-.2-.3l-.2-.2.2-.2h.6l-.2-.2c-.2 0-.2-.2 0-.3h.4c.1-.2-.1-.2-.2-.3v-.3l.4-.3c-.1-.2-.1-.2.2-.3.1 0 .1-.1 0-.1v-.5l.2-.4.3-.1v-.2c.3-.2.3-.2 0-.4.2-.1.2-.3.5-.4.2-.1 0-.2 0-.2 0-.1-.1-.3.2-.4l.1-.2v-.4l.3-.3c.4-.1.3-.4.3-.7l.1-.2.3-.2-.3-.1v-.2c.1-.1.2-.3-.1-.3 0-.3-.3-.3-.5-.3l-.8-.2-.6-.2-2.4-.2-2.6-.2-1.3-.1-1.8-.2-2.4.1a29 29 0 0 0 -3.2 0c-.2-.2-.4-.2-.6-.2h-4.2l-1.8-.1a19.6 19.6 0 0 1 -2.3 0h-1.6a27.5 27.5 0 0 0 -3.8 0 4 4 0 0 1 -.8 0l-1.3-.1h-2.2l-1.3-.1h-1.6l-3.3-.2h-3.5l-1.2-.1h-2.5a22.7 22.7 0 0 1 -2.8-.1 2 2 0 0 1 -.5-.1h-1.2l-1.1-.1h-3.3l-.2-.1c0-.2-.3-.1-.4-.1h-3.5a9.1 9.1 0 0 1 -1.2-.2h-2a7 7 0 0 0 -.5 0h-.2a7 7 0 0 0 -1.3-.1h-.5l-.4-.1a8 8 0 0 0 -.8 0h-1l-1.6-.1a8 8 0 0 1 -1-.1l-1 .1-.3-.1h-.6l-.7-.1-.6.1h-.2l-.5-.2h-3.3a1.7 1.7 0 0 0 -1 0h-1 .2s0-.1 0 0h-3.3l.1-.2h-.6a2 2 0 0 1 -.6 0c-.3-.2-.6 0-.8 0h-.6l.3-.1h-.5c-.3.1-.6.2-.9 0h-.6l-.2.1h-1.4l1.6.2h-2.4l-.5-.1h-1.2l-.5-.1h1.8l.2-.1-.3-.1a1 1 0 0 0 -.3 0h-1.4l.1-.1h-1.3c-.2.2-.5 0-.8 0h.2-1.1v.2h-.8a1 1 0 0 1 -.4 0l-.2-.1.3-.2c-.2 0-.4-.2-.8 0h-.5.1v.2h-1c0-.2.3-.2.4-.3h-1.8l.6.2h-3a31.1 31.1 0 0 1 -3.1 0h-.5c-.3-.2-.4-.2-.4 0s-.2.1-.3 0h.1-.5a1.2 1.2 0 0 0 -.6 0l-.4-.2h-.4c0 .3.3.1.5.2l.6.1c-.3.1-.5 0-.6.2h-.5l1.3.1.5.1h-5.5a15.3 15.3 0 0 0 -2.3 0h.5l-.3.2h-2.3l.3.2h.9-.1l.2.1h-.4l-2 .2h1.3l1.4.2a6 6 0 0 1 -.4 0h-2l-.8.2-.5.1h-.3c.2-.3.6-.1 1-.2l-1-.1h-3.3.7l-.1.2h.2-.2v.3h.4l-.2-.1h2.2c-.2-.2-.6-.1-.7-.3h.8v.3l.9.1v.1h.6a1.1 1.1 0 0 0 .7 0c.2-.1.5 0 .8 0h.4c-.1.2-.4.1-.7.2h.4v.2h1.4v.1h-1.6l.2.1h-.9v.2h-.3c-.1 0-.3 0-.4.2h-.4s-.2-.1-.4 0h-.3l.2.2h-.6l.1-.3h-.7l.2.2a1.2 1.2 0 0 1 -.8 0h-3.3l.1-.1h2.3l.2-.2h-1l.5-.1c-.1-.1-.2-.2-.3-.1l-.3.1h-.2c.1-.2.5-.2.8-.2l.2.2.4-.1.5-.1.2-.1h-.3c-.2 0-.3 0-.2-.2h-1v.2h-.2a5 5 0 0 1 -.4 0l-.2.2-.2-.2h-.9a3 3 0 0 1 -.8 0v-.1h-.5a1 1 0 0 1 -.3.2h-1 1.7l.7.2h-.3c.1.3.5 0 .7.2l-1 .1a8 8 0 0 1 -.8 0h-1.2l.2-.2-.4-.2-.5.1-.3.2c-.2-.3-.5-.2-.8-.2 0-.2 0-.2.5-.2h-.3l.7-.2v-.3l-.4.1a4 4 0 0 0 -.5 0l.1.1-.3-.1-.2.1c-.4.1-.8 0-1.2.3h1v-.2l.5.1-.3.1s-.3 0-.2.1c0 .2.2.1.3 0h.2l-.7.1h-.1l.1-.2h-.8l-.1.1h-1.5l.8-.1h-2.5l.4.1c-.8.2-1 .2-1-.1.2 0 .4 0 .3-.3l.5-.1h.5a.4.4 0 0 0 .3 0v-.1h-.8c-.3-.1-.5-.1-.8 0h-1c-.2 0-.4-.2-.6 0h-.4l.1.1c.1.2.2.2.4.2h.7-.8c-.1 0-.1.1 0 .2l-.7.1h-.7c.3-.3.6 0 .8-.2h-2.5l-.4-.2h1.9-1.5c.6-.2 1.2-.2 1.8-.1.1 0 .2 0 .2-.2h.4l-.3-.1h-1.2.2l.2-.1h.3c-.1-.1-.3 0-.4 0h-2 .1v.1h-.3l2.2.2h-.2a.4.4 0 0 1 -.2 0h-1.5c0 .2.3 0 .4.1l-.6.2-.1.1h-.8l-.3.1h-.6l.1-.1h-1.1c-.3 0-.4 0-.5-.2l-.8.2h.4c-.2.2-.5.2-.7.2h-1.1c0-.2.2-.1.3-.1h.2l.4-.1h.3l-.1-.1h-1.8l-.5-.1-.2.2-.3-.1a1 1 0 0 0 -.4 0 6.7 6.7 0 0 1 -1 0h.1c-.5.1-1 .2-1.5.1h-4.2c-.2 0-.2 0-.1-.1.2 0 0-.2 0-.2h-.4c-.2.2-.4 0-.6.1-.2 0-.6 0-.7.2h-1.2.3l.4.1h1.1c-.1.2-.3.3-.5.3a4 4 0 0 1 -.9 0c-.2-.1-.2-.1-.4 0l.1.1c.4 0 .8 0 1.2.2a2 2 0 0 1 1.4 0l-1 .2c.3.1.6 0 .8 0a3 3 0 0 1 -1.3 0v-.1h-.2v.2h-.4c-.1.2-.5.2-.6 0h-1.3c.3-.1.6-.2 1-.1h.4l.2-.1h-1.2c0-.2 0-.4.2-.5h-.8c-.3 0-.6 0-.8.2h1.1-1.1l-.1.3.4.1h-1.1c.2 0 .5 0 .6-.2h-.4c-.1-.2-.4-.2-.8-.2h.9l.4-.2h-.8a1 1 0 0 1 -.7 0h.5a1 1 0 0 0 -.6 0h-.6c-.3.1-.6 0-.8 0 .1.2.3 0 .5.1h.5v.3h-1.4 2.1l.4.2h-1.2a7 7 0 0 1 -1 0l-1 .1.2.2h-1.5v-.1h-.6s-.2.2-.3 0v.1h-1-.8l-.8-.1h-2.3c.3.2.7 0 1 .2h-2.6l-.2.1-.2-.1h.2v-.1h-1.2l.3.1v.1c.4 0 .7 0 1 .2h-.5l-.5.1-.8-.1h.5v-.4h-.6c-.2-.2-.3 0-.4 0h-.4.7v-.1h-.8.2l-.2-.1.1-.1h.7c.2 0 .2 0 .3-.2l.2-.1h-.9l-.1.1h-.6l-.8.1h-1.8c0 .2.2 0 .4.1l.4.1-.5.1a15 15 0 0 0 -2 0l.1.2h-.4a7 7 0 0 0 -.7.1h.3l.6.3h.7l-1.2.2h-2.3v-.2l-.7.1h-.2l-.2-.1.2-.1a.5.5 0 0 1 .3 0h.6v-.4h-.6c0-.1.3 0 .4 0l-.3-.2h-2.6c-.8.2-1.7 0-2.5.1 0 .1-.1.3-.4.2l.3-.2h-1.7 1.2l-.1.2h.5c0-.2.3 0 .5-.1h.3-.5c.2-.2.2-.2.6-.1l.1.1.2-.1h1.7c.2 0 .2 0 .1.1-.2 0-.4-.2-.7 0l1.1.1.5.1a2 2 0 0 1 -.7.1v-.1l-2 .1c-.3.2-.6 0-.9 0h-.2c-.4.2-.7.2-1 .1h-.6l.8-.3-1.1.2.2.1h-.3c-.3-.2-.7 0-1-.1v.1l-1 .1.6-.1v-.3h1l-.2-.2h.4l-.1-.1a.8.8 0 0 0 -.5 0l-.1.1-.4.1-.1-.2h-.5l-.5.2c.1 0 .4 0 .3.2h.6a2 2 0 0 1 -.4 0c-.3 0-.4.1-.5.3-.1-.2-.4-.1-.6-.2a1 1 0 0 0 -.4 0l-.3.2v-.1h-.3l.2.1a5.4 5.4 0 0 1 -.9 0h-.5l-.4-.2h-.3l-.7.2h-.6c.1-.2.4-.4.4-.6h.5c-.3-.2-.3-.2-.8 0h.1a1 1 0 0 1 -.4 0l-.6-.2h.4l.3-.2h-1.9c.5.1.5.1.6.3h-1s0 .3-.3.2v0h-1.3c-.1.1-.2 0-.4 0h.2zm100.4-.5h-.3.6zm-100.5 1h.3-.3c-.1 0-.2.2-.4 0zm-84.3 3.8c.1 0 .2-.1.4 0h-.5c0-.1.2-.2.2 0zm-37.3 9c0-.2.2-.1.4 0h-.9c.2-.2.3 0 .5 0zm21.3-7.5.3-.1h.3-1.2.6zm216.5-7.5h-.3.9zm-232 14.8c-.1 0-.2.2-.5.1l-.3.1h.4c0-.2 0-.2.4-.2l-.1-.1h.3zm152.6-12v-.3l.4.1-.4.1h-.4.4zm-25 1-.2-.2h.7l-.5.2-.2.1h-.2v-.2h.4zm-79.4 1.8-.3-.1h.3l.5.1h-.7zm-102 16-1 .2 1-.2h.6-.3a1 1 0 0 1 -.3 0zm226.5-18.7c0-.1.1-.2.2-.1h.8l.3.1h-1.8c.3-.2.3-.2.5 0zm11-.9h.2-.9c.5-.2.5-.2.8-.1zm-89.5 1.4v-.3l.9.1h-.5l-.4.2h-.4zm71.7-.1c.5-.2 1 0 1.4-.1 0 .1-.1.2-.2.1h-1.3 1-1.3zm-82.8 1.4-.2.1h-1.9.4l1.7-.1h1a1.8 1.8 0 0 1 -1 0zm10 1.3a1 1 0 0 1 .7 0h-.7v.1h-1 .6l.2-.1zm99.6-2.2h-.6c-.2 0-.4 0-.6-.2h.3c.3 0 .6 0 .8.2v-.1h.6v.1zm-93-1.5v-.3h.8v.2h-.9v.5l-.2-.1-.4.1.2-.2h.5zm106.4-1.6v.2l-.5.2-.2-.1.1-.2-.3-.1h1.3c-.2.1-.3 0-.4 0zm-89 1.3a1.7 1.7 0 0 1 1 0c-.3.2-.7.2-.7.4h-.2l.2-.2h-.6zm-111.9 5h-.1a6 6 0 0 1 1-.2l.2.1h-.2v.2l-.2.1h-.4l-.1-.1h-.2zm180.3-6h.6l-.7.2v-.1a4 4 0 0 1 -.8 0c-.3 0-.4 0-.4-.2h.9a.4.4 0 0 1 .2 0l.1.1zm-175.5 6-.5.1h-.4c-.3 0-.5.2-.7.3h-.1v-.2c-.2 0-.5.2-.8 0h.2l1.2-.1 1-.1h.6zm39.2-.9h1.3-2.3a1 1 0 0 1 -.4 0l-.3-.1h.6l1.1-.1h.2zm-20.3.4v-.2h.2c0-.1.3 0 .3-.2h-.2l.3-.1-.1.1h.5l-.4.5c-.2.1-.1.1-.4 0h-.2zm50.8-2.8h.3-1c-.2.1-.3.2-.5 0h-.5l.3-.3.3.1c.4 0 .8 0 1.1.2zm68.5-2-.2.1a2 2 0 0 0 -.7.2h-.3v-.2h1.5l.3-.1-.7-.1h1.3-.5l.3.2-.4.2h.2-.2l-.3.1h-.2l-.3-.1h.2zm-99.3 4.6v-.1l1.6-.2.2.1-.6.1h.4v.2c-.5 0-.8.2-1.2 0l.2-.1h-.6l.2.1h-.5l.2-.1h.2zm74.7-.8h-2.2l-.4.1h-.3l.2-.1c.3-.1.6 0 .8 0h.6l1-.1h.7l.5-.1h3.5v.1h-4.4zm3-3 .1.1h1.6v-.2h.8a2 2 0 0 0 -.6.2h1.7l-.2.1h-3.8.2l.2-.2.3-.1h.2c-.2.1-.3.3-.5.1zm67-1.4h-2.7l-.5.1a1 1 0 0 0 -.4 0 1.1 1.1 0 0 1 -.6 0l1.2-.2h.9a7 7 0 0 1 1.8 0l.2.1c.3-.1.3-.1.4 0zm-19.8.6h-.2c0-.3-.2-.3-.4-.2a.5.5 0 0 1 -.3 0v-.1h-.1a1 1 0 0 1 -.4 0l-.3-.2h.4-.1l-.1-.2h.6c.2.1 0 .2.1.2l.6.1h.7l.1.1a.3.3 0 0 0 .2 0 .8.8 0 0 1 .5 0c0 .1 0 .2-.2.1h-.9l-.3.2h-.3zm-88 1.3h-.4.6l-.2.2.8.1-.6.1a1.3 1.3 0 0 1 -.7 0 .4.4 0 0 0 -.3 0h-1.5v.1h-.3v-.2h.7l-.3-.1v-.2h.9l-.3.2h1.3-.2c.1-.1.2 0 .2 0zm83.7-2.2h.4c.3-.2.6-.1.9 0h-2.1a.3.3 0 0 0 -.2 0c-.2 0-.6 0-.8.2h-1l.1-.2h-.2c-.4.2-.4.2-.8.1h.4v-.2h-.7c-.2 0-.2 0-.1-.1l-.8.2-.3-.2a1 1 0 0 0 -.4 0h-.4l-.7.1h-.5c0-.2 0-.2.4-.2h2.6c.1 0 .1 0 0 0h4.4v.2zm7.9.6h.5v.1c.3 0 .5-.1.8 0l-.2.1h-2.7v.1h-.3l1.1-.2h.1c.3.2.6 0 .8 0h.2-.7l-.1-.1h-1.4l-1-.1.4-.3h-.6c.1-.2.2-.3.4-.2h2.3c-.3.1-.5.2-.6.1l-1.4.3.6.1h.7c.1-.1.3-.1.4 0h.5l.2.2zm-112.4 3.3h-.4s-.2 0-.1.2h1l1-.1a77.6 77.6 0 0 1 3-.1h-.5c-.2.2-.5.1-.8.2h-.8l-.1.1h-.7c0-.2-.3 0-.4-.1-.2.3-.5.3-.8.1 0 .3-.2.2-.3.2h-.1c0-.2.2 0 .3-.2h-1.1c0 .1-.1.1-.2 0h-.4c.2 0 .5-.2.7 0 0-.2-.1-.3 0-.4h1.2l1-.1h.3l-.1.2zm25.3-1 .2.1h5.6v-.3l-.2-.1c.2 0 .2 0 .4-.3.2-.2.6-.2.7 0l.6.1h-.8l.1.2h-.3v.3l-.3.1h1.4l-.4.1h-.7l-1.2.2h-3.6l-1.2.1a2.2 2.2 0 0 1 -1.1 0h-2.4c0 .2-.2.1-.4.1h-1v.1h-.8v-.1h-2.2l-1 .1a1.2 1.2 0 0 1 -.7 0h.2l.2-.1h1.5l2-.1 2-.1h2.7l.6-.1.1-.1.5-.1h.5c-.4 0-.7.2-1 0zm121-3.5v.1h-.6c.2.1 0 .1-.1.2l2.3.2h-.4c-.2-.2-.4 0-.6 0-.1-.1-.2-.1-.4 0l-.7-.1v.1l-.2.1a.8.8 0 0 1 -.5 0 9.7 9.7 0 0 0 -1.3 0v-.1h.6a15 15 0 0 0 -2.2-.2l-.1.2h-.3v-.2h-.4a3.8 3.8 0 0 1 1.2-.1h.6c.1-.1.1 0 .2 0h1.5a2 2 0 0 0 -.4-.1 1.6 1.6 0 0 0 -.7 0h-.1l-.5-.2h-.8c-.2.3-.5.2-.8.2h-1s-.2-.1-.2 0h-.2l1 .1h-1.4l.2-.5h1.2c-.2.2-.5 0-.8.2h1.1c0-.2.2-.1.4-.1h.5c.2-.1.5-.1.8 0h2.4l.8.1zm-108.1 2.8h-.4a1.3 1.3 0 0 0 -.8 0 1.2 1.2 0 0 1 -.7 0v.2h-.3c.1-.1.2-.3.5-.2l-.1-.2h.6v.2c.2-.2.5 0 .6 0v-.3c-.5 0-.9-.2-1.3 0l-.3-.1h-.7l1.8-.3h.7l.5-.1h.8l-.4.1h.4l-.7.4 1 .1-.3.2c.1 0 .3-.2.4 0l-.3.1h-1zm60-.8h-.6l-1 .1c-.1 0-.4-.2-.6-.1h-.7c-.3.1-.5.2-.8 0h-.4a.5.5 0 0 1 -.5 0h.2l.6-.1c.2 0 .5 0 .6.2l.2-.2c-.2-.1-.6.1-.7-.2h.4l-.2-.2h1.2l-.8.1c0 .2.4.2.6.2v.1h.5c.1-.2.3-.2.5-.2h.5-.8v-.2h.7a1.8 1.8 0 0 1 1 0c-.2.2-.5.1-.7.3h.5c.2 0 .4-.1.4 0l-.4.1h.2zm52.7-1.6v.1h1.1c.5.1 1 .2 1.4.1h1.1c.2 0 .5 0 .8.2h-.6l.1.2h-.4v-.2a4 4 0 0 0 -.3 0h-.5l-1.7-.1h-1.5c-.4 0-1 0-1.4-.2l.1-.1h-.2l.3-.2h1-.3c.3.1.6.2.9.1l-.2-.1h1l-.5.1h.3v.2h-.5zm-138.7 3.8-1.2.1h-1.7c-.2.2-.4.1-.6 0a.5.5 0 0 0 -.3 0l-.3.1h-.4a5 5 0 0 0 -.3 0l-1.8.2h-.6v-.2h2.2l.3-.1h1.3l2.8-.2h.4zm25.7-.8h1.5c.2 0 .3-.2.5-.1h4.4c.2-.2.5 0 .7 0l-1 .2h-.6a2 2 0 0 0 -.6 0h-1.3a8 8 0 0 0 -1.2 0h-.5a2 2 0 0 0 -.6 0h-1.4zm23.7-.4h3.3a10.3 10.3 0 0 0 2.2 0h1l.6-.1h1l.7.1a5.8 5.8 0 0 1 -1.3 0h-2.3a23.2 23.2 0 0 0 -1.8 0c-.1.2-.2.2-.4.2h-1v-.2h-1.1c-.5.2-.5.2-.9 0zm24.4-1 .3-.1.2-.2h.8a1 1 0 0 1 .7 0 .3.3 0 0 0 .2 0h.7v.1h.3v.1h-.2l-.1.1h-.4l-1 .1h-.1v-.2h-.6s.2 0 .2.2c-.4 0-.7 0-1-.2zm-31.5 1.2h1.1l.1-.1h-1l1.4-.1c.3 0 .7 0 1-.2h.6-.4c.3.1.6.2.9 0h-.2c0-.1.2-.1.4 0l.2.1h.7l-.2.1h-.2c-.3 0-.5 0-.7.2l-.3-.2v.2h-1.4v-.1c-.2 0-.3.2-.5.1 0 .2-.2.1-.3 0zm87.3-4.3h-.8a2 2 0 0 1 -.6 0h-1l-.8-.1h-.4v-.2l-.2-.1h.8c.1 0 .3.1.4 0h1.1l.6.1.7.1zm-72.7 3.3h.2c.1.2.3.2.5.1h2.9l-.7.2h-.7a20.8 20.8 0 0 0 -3 0l.3-.2.2-.1h2.3-2.1zm-86.2 2.8.3-.2h1.7a26 26 0 0 1 1.3 0l-.2.1-.1-.2h-.7v.2h-.3l-.2.1h-.7c-.4.2-.8.2-1.2 0l-.4-.1h.6zm158.8-5.8h4v.3h-1c-.3 0-.3.1-.3.2h-.5c0-.2 0-.2-.3-.2h-1.7l-.2-.1zm-158.2 7.2h-.7l-.7.1h-.7.1c0-.2 0-.3.3-.3h.2l-.6-.1h1.4-.6.8c.3 0 .4.1.5.3zm109.4-4.3h-.2a1 1 0 0 0 -.7 0 1 1 0 0 1 -.3 0h-.2c-.1-.2-.3-.2-.5-.2l-.5-.2a1.5 1.5 0 0 1 .8 0c.1.2.3.2.4.2a14.3 14.3 0 0 1 1.8-.2h.3l-.8.2v.2zm-93.4 3.2-.7-.1h1.7l-.3.2c.5-.1 1-.2 1.6 0h-.2l-1.3.1h-1.4zm-20.9.7a22.4 22.4 0 0 1 -2.8.2h.4c-.3-.2-.5 0-.8-.1v-.1c.6-.1 1.1-.1 1.6 0l-.3.1h1.9zm-64.9 3.1c-.7.2-1.5.3-2.3.3.1 0 .4 0 .3-.1 0-.2 0-.2.2-.3h-.7l2.2-.2-1.4.3.4.1h.5zm171-6 .4-.2h2.2l.4.1h1-.4l-.4.1zm57.5-4.1.8-.2 1.4.1h2.5l.2.2h-4.5zm-36.2 1.5h3.5c-.1.2-.2.2-.3.2a.9.9 0 0 0 -.7 0h-2.2l-.2-.1zm36.7-2 1-.1h1.8a1.7 1.7 0 0 1 .9.2h-3.7zm-.4-.2h-3.8c.3 0 .6-.2.8 0l.6-.1a20.7 20.7 0 0 1 2.4.2zm-17 3.7.6.1h-1.3v-.2h-.2.3c0-.3 0-.3-.4-.3h-.3l.2-.1h.7v.1l.3.2.8.1zm-154.2 3.3h.4l.4-.2.3.1h.5v.1h-.5l-.1.1-.2.1-2 .2h-.4l1.5-.2v-.2zm183.8-5-1 .2h-1.4l-.3-.3h2.4zm-48.4 1h-4.5a.9.9 0 0 1 -.5 0h1a5.2 5.2 0 0 1 1.1 0h.2v-.2l.7.2zm7.5-.2h-.8l.3-.1-.2-.2.5-.3h.9v.1h-.3l.6.2c-.5.1-1 0-1.4.2h.4zm96.7 9.7-.1.1h.6v.1h-2.5a1 1 0 0 1 -.6-.2c.4-.2.8 0 1.1 0h.1l.5.1h.6zm-95-8.7h3l-.7.3.1-.2h-2.5zm-58.8.3c.7-.2 1.2 0 1.7.2h-.4l-.3.1a.9.9 0 0 1 -.5 0 .6.6 0 0 0 -.4 0h-.4l.3-.1h.5l.2-.1h-.7zm-103 11a6.2 6.2 0 0 0 -.6 0h-.2.5l-.3-.1 1.8-.2-.3.1v.1l-1 .3.2-.2zm94.1-10.2h1.4c.5 0 1-.2 1.4 0-.2.1-.2.1-.4 0a1.5 1.5 0 0 0 -.8 0l-.3.1h-.4l-.2.1v-.2zm-.4.2h-2.2c-.2 0-.2 0-.2-.2h2zm53-2.5h.2a14.5 14.5 0 0 1 1.7 0h1.5l-.5.1-.5.1h-.2a2.3 2.3 0 0 0 -1.2-.1zm28 .7v-.1c.3-.1.6 0 1-.2l.5.3-.6.2-.7-.1h.6l-.9-.2zm-55.6 2h-.5c-.2 0-.4 0-.6.2h-.5.4-.1v-.1c-.3 0-.6 0-.7-.2h-.6c.5-.1 1-.1 1.6 0h-.6a8 8 0 0 0 1.6 0zm73.6-3.5h1.9v.1a1.3 1.3 0 0 0 -.7.1h-.6c-.1 0-.2 0 0-.2zm-124.8 5.3c0-.2.4 0 .4-.2h-1.4c.8 0 1.6-.2 2.3 0l-.6.2zm86-3.4c-.3.3-.6.1-1 0h-.5c0-.2.2-.2.3-.2.4 0 .8 0 1.2.2zm-133.7 3.5h-.3l-.1.1-.1.1h-.8.1l-.1-.1c.2-.1.3 0 .4 0 .3.1.2-.1.5-.1h1.1c-.3.2-.7.2-1 .2zm20.7-.6c.8-.1 1.6-.2 2.3-.1-.2.1-.6.2-1 .1zm-89.1 2.6-2.8.4c.1-.2.5 0 .6-.3h-.4l.6-.1v.2l.8-.1zm73.1-2.2.2-.1a5.7 5.7 0 0 0 1.4-.2h1l.3.1-1.6.1h-1a2 2 0 0 0 -.3.1zm-9 1.2c.3 0 .6-.2.8 0h1.4l-.6.1h-1.2c-.2.1-.2-.1-.4-.1zm139.1-4.5h.7l.1-.1a.5.5 0 0 1 .3 0h.6-.1l-.4.2h-1.2zm-178 6.2 1.6-.2v-.1h1c-.2.2-.5.2-.7.2h-.3c-.5.1-1 .2-1.5.1zm14 5.8-2.8.3.2-.2h2a1 1 0 0 1 .7 0zm192.6-14.2h1.9-.8c-.5 0-.6 0-.8.2h.8c-.4.1-.6.2-1.1-.3zm-61.2 1.9.8-.1.4.1-.4.2h.3l-.1.2c-.3 0-.5-.3-.8-.2zm-97.4 4.4c0-.2.3-.2.5-.2h1.7-.3l-.3.1h-1.6zm64.6-2.1h-.7l-1 .1h-.2v-.1h2zm-20.8-1v.2h-.2v.1h-.7.3l-.2-.2h.3a5.3 5.3 0 0 0 -.8 0l-.2-.1h1.4zm126.7-3.9-.2.1h-1.7v-.2h.2a3.8 3.8 0 0 0 1.5 0h.2zm-196.6 9.4h.4c-.2 0-.5.2-.7 0h-.5l-.1-.2h.6l.3-.1.2.1zm41.7-4.3h1.2l.3.1-.6.1h-.6v-.1h-.3zm76-1.2a5 5 0 0 1 2.2 0zm-42.4 1.3-.8.1h-1.1c.6-.1 1.2-.2 1.9-.1zm-106 3.8-2.8.4c.4-.2.9-.3 1.3-.3h1.4zm111-4.5c0-.2.2-.1.4-.1l2.6-.1h.2l-.3.1h-1.8l-.8.1zm22.2-1-.2-.1h.8c.3 0 .6-.2.8-.1-.5.2-1 .3-1.5.2zm-107 3.5v.2h-.6l-1 .1h-.1v-.1zm-24 1.8h-.1a3 3 0 0 0 -1.1.2 3 3 0 0 1 -.8 0h-.1l2-.3h.2zm-37.6 13.6-2.7.4c.8-.2 1.8-.4 2.7-.4zm230.6-20.3h.3a1 1 0 0 0 .6 0h1.1l-.6.1h-1.4zm-44 2c.2-.3.4-.4.6-.3h.9l-1 .1c0 .2-.2.2-.5.1zm-84.4 3.3h.2l.2-.1c.3 0 .3.2.5.2l-.3.2h-.4v-.2h-.2zm158.4-7c-.2.1-.3.2-.6 0h-.8v-.1h1.4zm-63 3.6h-1.3c0-.3 0-.3.3-.2h1zm-145.2 11.1-.8.2h-.6l-.3-.1h.5c.2 0 .4 0 .5-.2h.1zm118.8-10.6h1.7-1c0 .2-.3.2-.5 0h.2zm19-2.5c0 .2-.2.2-.3.2h-.6v-.2h1zm-59 2.3-1.2.1h-.4c.4-.2.9-.1 1.3-.2h.3zm-4.2.8h-1.5a3 3 0 0 1 1.5 0zm-49 2.3.3-.1a6.7 6.7 0 0 0 1.5-.2h.2v.3l-2 .1zm.4.6a7 7 0 0 1 1.6-.2c-.5.2-1 .2-1.6.2zm178-5.7c-.1.1-.5.2-.6.1h-1l.3-.1zm-105 2.7h1.3a1 1 0 0 1 -.5 0zm111.6-3h-.6l-.4-.3h1v.2zm-30.5.5.7-.3.2.2-.7.2zm-53.9 2h1.8l-.4.1.1.2-.6-.1h.3c-.3-.2-.8 0-1.2-.1zm86-2.7.7-.2.7.2h-1.3zm-92.9 3h.3l.3-.1c.2-.2.4-.1.7-.1h-.3c0 .2-.1.2-.2.2zm63.6-2h-.9a2.3 2.3 0 0 0 .5-.2.5.5 0 0 1 .3 0h.1v.3zm-225.8 17.8c-.1.1-.4.3-.5.2l-.5-.1c.2-.2.6-.1 1-.1zm215.8-18-.2.1h-.7a8 8 0 0 1 -.8 0l.6-.1.3-.1h.3l.2.1zm-98.2 2.4 1.6-.1c-.5.1-1 .2-1.6.1zm67.4.4c0-.2-.2-.2-.4-.3h.8c0 .2 0 .2-.4.2zm25.7-3.6-.5.2-.6-.1a4 4 0 0 1 1.1-.1zm-103.8 4.3h1.4zm29.7-2.7c.4-.1.7-.3 1-.1l.2-.1-.1.2h-1zm-139.8 17.6v.1l-1.4.3c0-.2.5-.1.7-.3h.7zm159.7-16.1.2-.2 1 .1zm-101.5 9.6.1-.2a25.7 25.7 0 0 1 1.3 0h-.7zm208-13.1-.3.2-.4-.2h-.4 1.2zm-28.6.6h.2l.2-.1a.4.4 0 0 1 .3 0h.1c.1 0 0 .2 0 .2h-.8zm-76.7 1.3c0 .3 0 .3-.5.3v-.3zm-119 12.3c.4-.3.8-.2 1.1-.1-.3.1-.7.2-1.1.1zm14.2-1h.2l.8-.2a.6.6 0 0 1 .6 0zm216.6-12.5h1.8zm-259.4 16.5c-.3.3-.8.1-1 .3h-.3v-.1zm257.6-18h-1.4 1.5zm-225.7 15h.7c.2 0 .5-.2.7-.1-.2.2-.6 0-.9.2h-.5zm-27.9 3c-.4.2-.7 0-1 0l1-.1v.2zm198.2-15.5h-.3l-.1-.2h.8-.6zm-120 3.8a2.3 2.3 0 0 1 -1.3.1l1-.1zm179.7-5.2h-1.8zm-88 1.6.3-.1s-.1.1 0 .1h.7c-.2.1-.4.2-.6.1l-.5-.1zm-37.4 3.1-.1.1h-.8c.3-.2.6-.1.9-.1zm-95.2 8.2a2.4 2.4 0 0 1 -1.4.1l1.3-.1zm106.3-11.7-1.3.1c.4-.1.8-.2 1.3-.1zm40.2-.5h-.8c-.2 0-.4.2-.6.1l.2-.1zm-91.7 3a2 2 0 0 1 1.1 0h-1zm49.2-1.7h-1.1 1zm-84.1 3.4h1c-.3 0-.7.2-1 0zm162.2-3.7a1.6 1.6 0 0 1 1 0 1.1 1.1 0 0 1 -1 0zm-194.6 12.6.4-.1h.5-.1zm115.1-13c-.1.1-.3 0-.4 0h-.5l.2-.1h.7zm-27.7 2.4h-1.4a3 3 0 0 1 1.4 0zm117.5-4-.8-.1.3-.1.6.1zm-183.7 7.4c-.3.1-.6.2-1 .1.3-.1.7-.2 1-.1zm11.5-2.2h.5c0-.1 0 0 0 0h.3l-.7.2zm4 2.7v.1h-.5c-.2 0-.4 0-.5.3l-.2-.2zm15 .9h-.8c.3-.1.6 0 .8 0zm249.7 1.4v-.2l1.3.1h-1.3zm-258.8 1-1 .2c.3-.2.7-.2 1-.2zm160.6-12.4c0-.2.2-.2.2-.2a.6.6 0 0 0 .4 0l.3.1a5 5 0 0 1 -.9 0zm-145.2 5.1.2-.1h.8c-.3 0-.5.2-1 .1zm68.1-.6a1.6 1.6 0 0 1 -1 0zm18.6-1.5v.1l.2.1h-.4l-.3-.1h.5zm-25.5.8h-1.2zm-29 .4a2 2 0 0 1 -1.2 0zm-66.5 3.3c0 .2-.3.1-.4.2l-.6-.1h1zm17.5-.4-1 .2c.1-.2.4-.2.5-.2zm67.7-2.5 1 .1a1.9 1.9 0 0 1 -1 0zm96-2.8-.5-.3c.7 0 .7 0 .8.2h-.3zm-49.3 1.4.1-.2a1.4 1.4 0 0 1 .8.1zm-45.2 2.3-.6.1c-.1 0-.2 0-.2-.2h.8zm13.8-1.6h1.3l-.6.1h-.7zm20.5.4c.2-.2.5 0 .7 0h.7-1.3zm38-2.9h1.1a1.3 1.3 0 0 1 -1 0zm.3.9c.3-.3.5-.3.7 0zm-74 4h1.3zm-35.9-.6.3-.1h-.4c.2-.2.2-.2.8-.1-.3 0-.3.3-.7.2zm-36.7.7h.5l-.1.3h-.4zm101-4h.7c-.2.3-.4.1-.7 0zm11 3.4h-1.2zm56-2.7c0-.2.3-.2.4-.1h.6-1zm-69 1.1h.4c0 .1 0 .2-.2.2h-.2zm-60.2.3-.8.2v-.1h.8zm-76.9 3.8h-.9 1zm94.6-4.8c-.1.2-.4.3-.7 0zm136.6-2.2h1.4zm-115.1 4.9c.4-.2.7 0 1 0zm99.8-3.8h.9-1zm-74.1 0c-.3.2-.5 0-.7 0zm-.2.8h-1a2 2 0 0 1 1 0zm-86.7 4.6h.2l.1-.2h.3-.2.5c-.1.2-.2.2-.3.2zm-72 1.7h.3l.8-.2h.2c-.4.2-.8.2-1.2.2zm206.5-8h.7c-.3.2-.3.2-.7 0zm38.8-1.3h-1zm-69 3.3h.7l-.1.1a.8.8 0 0 1 -.7 0zm36.8-1.8h.8zm-138.9 5c.4 0 .6-.2 1-.1h-1zm176-7.8c-.6.2-.6.2-.8 0zm-68.6 4.9c-.5 0-.5 0-.7-.2.2.1.5 0 .7.2zm55.3-5c.1 0 .3-.2.5 0l-.3.1zm-276.4 16.4.4-.1h.3l-.3.2h-.4zm287.7-13.4h-1.1zm-253.6 8.4c-.3.1-.7.2-1.1.1l1-.1zm90.1-3.5.8-.1c-.2 0-.5.2-.8 0zm4-.9h1zm30.5-2.3-.7.1c.1-.2.3-.2.7-.1zm97.5-1.3-.2.1a3 3 0 0 1 -.4 0c.2-.2.2-.2.6-.1zm27.1-2h-1zm-174.2 8v.2h-1.2l1.2-.1zm57.1-3.7h1-.9zm122.7-4c.2-.1.5 0 .8 0zm-214 7.7-.2.2h-.3c0-.2.1-.2.6-.2zm18.4-2.3 1.1-.1zm105.1-2.3h1.2zm65.3-.8h.5c.2-.1.2-.1.4 0h-1zm-77.4 2.5h-.9zm-95.8 1.3v-.4h.3c0 .2 0 .3-.3.3zm178.7-5.2h1zm-245.3 7.1.8-.1c-.3.2-.3.2-.8.1zm114.6-3.1h-1.3zm-53 1.5-.7.1c0-.2 0-.2.6-.1zm-40.2 10h.6l-.3.2zm209.3-14.4-.4.2-.1-.3zm-62.9 3.4c-.2.1-.5.1-.8 0zm58-3.5a1.2 1.2 0 0 1 -.7 0c.3-.2.5-.1.6 0zm-173.3 9.8h.2l.2-.2s.2 0 .3.2zm105.6-7a1.5 1.5 0 0 1 -1 0zm43.2 0h-.8c.3-.2.5-.1.8 0zm100.2 6.2h-1zm-179-6.2c.2-.2.4 0 .7 0-.3 0-.4.1-.8 0zm90.7-4h.7a1 1 0 0 1 -.7 0zm-51 3h-.9l.4-.2.4.1zm-63.9 1c-.4 0-.5 0-.5-.2.1.1.4 0 .5.2zm48.7.3-.3-.1h-.4.7zm-25.5 1.2c-.2.2-.5.1-.7.2h-.1v-.1h.8zm94-5c.3 0 .5-.1.8 0zm20.7.2h1zm-16.2.8.7.1a1.3 1.3 0 0 1 -.7 0zm-74.5 1.6a2 2 0 0 1 -.9 0zm-77 2.4.2-.1c.3 0 .2 0 .2.1h-.5zm52.6-1.8h-.8zm-98.8 3.3.3-.2h.4zm-42 3.6a2 2 0 0 1 -.8.1l.3-.1zm134.7-4.8c.2-.1.4-.1.8 0zm74-4.7c0 .1 0 .2-.2.1h-.2v-.2zm-210.5 11.1c0-.2.1-.2.5-.2zm187.1-10.2c.5-.2.5-.2.7 0zm85.3-1.2h-1v-.1h1zm-181.1 4.7h.2c.2-.1.3 0 .4 0zm7.6.3h.7c-.3 0-.5.2-.7 0zm-28 2.3h-.8a1.2 1.2 0 0 1 .7 0zm117.1-3.3h-.9 1zm95.6-4.2h-.6zm-25.7 8h-1zm-14-6.6-.3-.3h.3l.2.1zm-199.9 13.5.6-.2c0 .2 0 .2-.6.2zm77.5-10.8a1.6 1.6 0 0 1 1 0zm73.5-3.3-.1.1h-.5zm32.2-.2h-.6c.3-.2.4 0 .6 0zm-125.2 3.3h.3-.6c.1 0 0-.2.3-.1zm57.2.7h-.6zm-52.6-.4c-.3.2-.3.1-.5 0zm-72.8 11.4h-.6l.3-.1h.3zm243-15.6a1.2 1.2 0 0 1 .7 0zm-13.1-.4.8.1h-.8zm-124.9 4.6a1.2 1.2 0 0 1 -.6 0c.2 0 .4-.2.6 0zm25-2.3h-.8zm44.2 2c-.3.2-.3.2-.5.1h.5zm.5-1.4h-.8zm-17.4-.4h.6zm-75 3.2h-1zm215.3 4h1zm-211.4-3.5c-.3 0-.5.2-.7 0zm-78.3.4c.4-.1.4.2.6.2h-.3zm-7.1 2c0-.3.4-.2.5-.3h.2l-.7.2zm153.7-4.8h-.8zm-15.8-1.9h.7zm-4 1.2h.7c-.4.2-.6.2-.7 0zm-11.2 2h.6zm134.5-7.3a1.1 1.1 0 0 1 .7 0zm-112.3 3.6c.3-.2.4 0 .6 0a.9.9 0 0 1 -.6 0zm-70.5 9.1h.8zm70.5-8.9c-.1.2-.3.1-.4.1 0-.1 0-.1.4 0zm-37 3v.2h-.7.7zm69.7-3.8h.5zm-4.9 3.6h-.5zm4.8-3.7h-.5zm-43 3.3h.7l-.4.1h-.3zm67.4-1.4h.7zm-130.8 3.4h-.8c.3 0 .5-.1.8 0zm130.9-1.2c.1-.2.3 0 .5 0zm-104.5-.6h.8zm112.8-3.6c.2-.2.3 0 .5 0zm-130.5 3.9v-.1h.6-.6zm133.2-1.4v.1h-.6.6zm.2-2.2h.6c-.2.2-.4 0-.6 0zm-153.5 4.9h.7zm-18.8-.2h-.6zm193.2-7.6h.6a1 1 0 0 1 -.6 0zm-209.9 8.8c.3-.2.3-.2.5 0zm134-5.3h-.5c.3-.2.3-.2.5 0zm86.7-4.4h.8zm-222.5 17.2v-.1h.6-.6zm150.1-11.5c-.2.2-.3.2-.4 0zm-17 1h-.3v-.2h.2-.1l.2.1zm-77.5.5h-.6zm53.2-1.5c-.3.2-.3.2-.5 0zm55.6 1.6h.5zm-70.8-1.6h-.3.1v-.2h.2zm-41 2.7c-.2 0-.4 0-.3-.3h.1c0 .2.2.2.3.3zm149.7-5.8c.2-.2.2-.2.5-.1h-.5zm-174.1 5.1h.6zm224.7-3.4h.6zm-168.2.4a.8.8 0 0 1 -.7 0 .6.6 0 0 0 .5-.1h.2zm-.9 2h.7zm97.3-2.6.4-.2c0 .2 0 .2-.4.2zm-142 5h-.6.5zm79.9-1.5h-.6.2a.5.5 0 0 1 .3 0zm-175.7 15.5c.2-.2.2-.2.4-.1-.1 0-.2.1-.4 0zm22.1-2h-.6c.2 0 .3-.2.6 0zm149.9-15c0-.1.2-.2.5 0zm-61.7 3h-.6zm155-9.2h.4l-.3.3v-.3zm.7 4c.2 0 .4 0 .5.2l-.5-.1zm25-3.3h-.5zm-163.2 6.7c.2 0 .4-.2.7 0zm-7.6 1.1h.5zm-62 8.7h.5zm77.8-11.5h.5zm49.7-.2h.7zm-49.2-.5-.5-.2h.1a.4.4 0 0 1 .2 0h.1zm64.8.2h-.5zm4.2.7h.7zm54-2.4a.9.9 0 0 1 -.6 0h.5zm-175.8 11.3c.2 0 .4-.2.6 0zm89.9-9.6c-.3.2-.3.2-.5 0zm-.5-.2h.5c-.2.2-.3.1-.5 0zm55.6.5h.6zm-63.4.3a.3.3 0 0 1 -.3 0zm-96.1 4 .5-.1c-.2.2-.4 0-.5.1zm125-5.9c.3 0 .1.2.3.2h-.2v-.3zm-28.5 3.2h.5zm-119.7 10.9h.4c0 .1-.3 0-.4 0zm235.6-14.6h-.6zm-90.9 2.4h-.3zm-85.7 4.5h-.4l.3-.2zm-3-2.2h.5-.6zm-.2.2c0 .2-.1.2-.4.1h.4zm26.8-1.2c-.1 0-.3.1-.4 0zm-34 4.5h.7-.6zm.2-.9c0 .1-.2.2-.4 0zm44.9-3h.5zm-122.7 14.3c.1-.2.1-.2.4-.1h-.4zm116-14.9h.8zm46-.5.4-.1v.1zm-111.7 2.2h.6zm117.7-3.6-.4-.1h.4zm-131.4 12h-.5zm-24.6-8v.1h-.6.6zm148.2-3.1v-.1h.5-.5zm92-5.4a.4.4 0 0 1 .4 0h-.3zm-66.3 6-.3.1s0-.2.3-.2zm-165.2 3.8h-.1a.4.4 0 0 1 -.3 0zm212.6-7h.5zm32.1.1v.2l-.1.1h-.1v-.2h.2zm-155 4.8c.2-.1.2-.1.4 0h-.5zm-30 .2c.2 0 .2-.2.4-.1 0 .1-.1.2-.3 0zm103.4-2.5v-.1h.3v.1zm-56 .5h.6-.5zm73.7 0h-.6zm60.5-6.2h.5zm-24 2.8c0-.2.2-.2.4-.2l-.2.1h-.2zm-109 3.5s-.2.1-.4 0h.5zm30.4-.7v.1h-.4.4zm2.1 0h-.3zm-127.4 11.4h-.6zm205.6-12.6h.3zm13.8-.6.4.1zm-124 2.2h-.4.5zm35.1 3.6h-.4zm-64.1-3.5h-.3l.2-.1h.1v.2zm-42.7 4.1h.5zm98.5-5.8s.3-.2.3 0zm130.3 8c.2-.2.2-.2.4 0zm-177-5.6h-.4zm-103 12.9h-.6.5zm244.8-18.8c.1-.1.2-.1.4 0zm-207.5 8.2h.4zm165.1-5.5h-.2c0-.2 0-.1.1-.1 0 0 .2 0 .1.1zm-72.3 2.2h.4c-.2 0-.3.2-.4 0zm113.6-3c.2-.1.2-.1.4 0zm-112.7 1 .4.1h-.4zm-43.9 3.1h.4zm-54.1 9.5h.6zm234.5-12h-.4zm-275.6 17.2-.5.1zm59.7-10.2h.4zm185.1-7.4h.4zm60.4 8.5h-.5zm-233.7 1.3h-.4c.1-.1.3 0 .4 0zm72-6.3c.1 0 .1.2 0 .2s-.1-.1 0-.2zm97.2-4.8h.5zm-11.4 0h.4zm-152 7.3h-.4zm-49.3-1.5h.5zm137.4-2h-.5zm103-6.1h.4zm-49.2 1-.5.1c.2-.2.3-.1.5 0zm14.3 2.3h-.4c.1-.1.3 0 .4 0zm-7.5-.3h-.7a1 1 0 0 1 .7 0zm-137 6.4h-.5.6zm-68.4 9c-.1 0-.2.1-.4 0zm164.8-15c.2 0 .3-.1.4 0zm50.3.4h-.3zm-176 8 .6-.2v.1h-.5zm-2.6.5h.5zm125.2-7h-.4c.2-.1.3-.1.4 0zm-.7-2.2v-.1h.3-.3zm41.4-1.3h.4zm-175.3 10.5h.4zm162.3-7.8c-.2.1-.2.1-.4 0zm-29.4-2 .2.3c-.2 0-.3 0-.2-.3zm51.1.6c0 .2 0 .2-.1.1-.2 0 0 0 0 0h.1zm-44.8 0c0 .2 0 .2-.3.2l.3-.1zm-87.6 3c0-.3 0-.3.3-.2l-.3.1zm-60 10.6.3-.1h.2-.5zm105.2-11.4h.3zm-39.6 2.1h.4v.1a.4.4 0 0 1 -.4 0zm0 4.4c.1-.2.1-.2.3 0zm94.3-7.3h.3zm-191.7 15.7c.3-.1.3-.1.4 0zm326.7-8.2h-.3zm-180-6.5-.3-.1h.4zm181.5 6.5h.4c-.1 0-.2.1-.4 0zm-181-5.2h-.3zm72.1-3.8h-.3zm-166.2 11.6h.4zm56.2-9.8c.2-.1.2-.1.4 0zm-47.7 2-.1.1h-.1zm96.9-2.3h-.5zm-95.1 9.1-.3.1h.3zm156.4-9.8h.3zm107.3 8.3h.3zm-348.6 3.2.3-.1h-.3zm205-12h-.3zm20.5 2.1h-.4.3zm-223.2 18.1-.4.2v-.1h.4zm85.9-11.5-.4.1h.4zm33-1.7h.4zm-118.6 2v-.1h.4-.5zm240.7-9.4c-.2.1-.2.1-.4 0zm-154.8 3.7h.3zm.4 2.8.2-.1h.1-.3zm1.1.8h.4zm176.8-8.9s-.2.1-.2 0h-.2zm-113.5 2.7.2.1zm38.3-.2h-.4c.2-.2.3 0 .4 0zm-57.5 3.5h-.3zm44-3.3h.3zm39.6-.7h-.3zm18-1h.3zm12.9-.4c-.2 0-.3 0-.2-.2zm-146.8 6.9h.4zm175-7.5h-.3zm-236.4 16.5c.1-.2.1-.2.3 0h-.2zm237.9-16.4h-.5.1a.4.4 0 0 1 .4 0zm-116.3 5.6h.6zm116.7-7.5h-.3zm-244.9 10.1h-.3zm202.3-3.4h-.3zm-65.5-2.8-.2.1c0-.1.1 0 .2 0zm-148 17c.2-.1.2-.2.4-.1h-.3zm142.3-14.9h.5zm103.6-2.7.2-.1v.1zm-195 11v.1h-.4.4zm4 .5h-.3zm-4.3-5.5-.2.1zm38.7-2.1h.3zm52.6-1.2.2-.1zm-28.4.5v-.1h.3-.3zm126-1.9h.3-.4zm-20.7-1h-.4zm.3.4h.3zm-218.2 5.5-.4.1h.4zm100.5 2.5h-.3zm-99-2.4.4-.1h-.3zm98.7-1.4h-.3zm54.2-3.3h-.4zm-147.6 4.2.3-.1h-.3zm211.7-3.6h.3zm-2.7-3h-.4zm-106.8 5 .3-.1h-.3zm30.6-.7h-.2l.1-.1v.1zm-127.9 12v.1h-.4.4zm54.9-10h.4zm53.7 2h-.3zm34.8-5.7h.4zm15.5-1.6h-.3c.1-.1.2-.2.3 0zm-76 4.7c-.2.2-.2 0-.4 0zm153-5.2h-.2zm-172 9.8h-.3.4zm0-1v-.1h.4-.4zm19-3.5h.4-.2zm117-4.8c.1-.1.2-.1.4 0zm-134.8 8.6h-.5zm-58.5-3h.2zm232.6-6.6h.3zm-156.3 10v-.1s.1-.1.4 0h-.4zm47.8-5.7c0-.1.2-.1.4 0zm71.7 4h.3v.1h-.3zm-51.4-5.9h.2zm-46.3 3.5h.4zm-100.8 9h.3zm273.7-4.9h-.4zm-263.4 4.8h.2zm64-9h.4zm-8.9-.8h-.2zm-51.7 9.8h-.4c.2-.1.2-.1.4 0zm-35.5 4v.1h-.4.4zm100.5-15c0-.2.1-.2.2-.1h-.2zm1.7 1.7h.3zm24.1-.3h.3zm77.2-2v.1zm-67.8-.9-.2.1h.2zm24.8 1.9h.2zm-27.7-.4h.2zm-86.4 3.4h-.2zm.1 5.4h-.3zm215.6-11.4h.2zm-248.3 7 .3-.1h-.3zm34.2.6h.3zm-45.8 9.8-.4.1h.4zm47.9-5.3a.3.3 0 0 1 -.3 0zm40.5-8.7h.3zm137-1.2h-.1.2zm19-4.3h-.3zm-155 11.5h-.4zm153.7-8.8-.2.1zm-153.6 2.7h-.3zm71.6-3h.2zm-43.4 1h.2zm10.4-.3c-.1 0-.2.1-.4 0zm-149.1 8.6h.3zm146.6-6h.3zm28.3-3.5h.2zm84.5-1.4v.1h-.2.2zm-60.5 1.6h-.1v-.1h.1zm-61.5 1.8h.3zm-113.7 15h.2zm178.9-15h-.3zm-125.4 2.5c-.1.1-.2.1-.4 0zm38 .3h-.3zm92.1-.7h-.2zm-131.3 2.3h.3zm-1-2.4.2.1h-.2zm3.3.7h-.3zm1.5 6.2h-.2zm-79-1.6-.2.1h.2zm81.9 1.4h.3zm51.5-8.6h-.2zm72.7-1.4h-.1zm-134.9 7.4h-.2zm14.3.9h-.3.2zm95.1-8.3h-.2zm-58.6 4.2.2.1h-.2zm136-5.8h.3-.2zm-136.6 6v-.2h.2v.1h-.2zm-54.2-.3h.2zm82-2.1c.1-.2.2-.2.4 0h-.3zm18.5-2h-.2zm151.5 8h-.3zm-63.1-11h-.2zm-69 3h.3zm-96.8 4.8h-.1.2zm-27-.5h.3-.2zm55.6-.3h-.2zm126.1-5.8h-.1zm-185 14h-.4.3zm92.5-11.6h.3zm81-1h-.3.2zm-47 0h-.1.2zm-160.7 16h-.3zm242.7-20.1v-.2h.2-.2zm18.3 3.8h-.2zm-194 9.7h.1zm87.4-9v.1h-.3.3zm72.3-1.2h.2zm-144.3 5.4h.2zm112.8-3.4h-.2zm63.5-2.1h.3zm-.6-1.4.2-.1h-.2zm-65.4 1h-.2zm-54.2 3.8s-.2.2-.2 0zm72.5-2.6h-.2zm-130.4 9.3h-.3zm173.4-13h.2zm-32.3 3.4h-.1zm-209 14.5h-.3.1zm100.7-9.9h.3zm34-5h.3-.2zm-132.8 5.7c0-.2 0-.2.2-.1h-.2zm61.9 4.4h-.3zm175.6-11.9h-.3zm-237.5 8h-.1zm165-4.7h.2-.1zm-20.3.7h.2zm93.7-5.6v.1zm-94.4 5.6h-.2zm-86.5 7.7h.2zm138.8-7.3h-.1zm-75.9.7h.2zm25.8 1.3h-.2zm95.1-4.6c-.1 0 0 0 0 0zm-152.3 1.6v-.1h.1-.1zm-78.7 7.6h.2zm219-11.4h-.1.2zm-46.8 1.5h.1zm-167.6 8.5h.3zm191.4-4.4h.2zm-35.3-1.7h.2-.3zm-119.2 5.7h.2zm108.2-4.2h.2zm99.4-5.7h.2zm-208.6 12h.2zm79.7-5.3h.1zm-111 1h.2zm54.4-1.7h.2zm2 .3h-.2.1zm0-.4h.1-.2zm19 .8h-.4.3zm16.3-.4h.1zm-60.4 0h.2zm29.2 1.4h-.1zm24.8-1.3h.3zm-55.5 2h.2zm150-6h-.2zm27.2-3v.1h-.2.2zm-201 15.3h-.2zm178.2-12.9h.1zm-156.7 4.9h.2zm83.1-1.7h-.2zm-2.6.9v-.2h.3-.3zm-96.4 1.6h.2zm.3 0v-.1h.1v.1zm190-6.7h-.2.1zm-3.2 1.1h.2zm-131.3 5.8v.1zm-129.9 10.9h-.1zm106.6-10.3h-.2z" fill="#dcdffb"/></g></svg>