<svg fill="none" height="13" width="399" xmlns="http://www.w3.org/2000/svg"><g fill="#f5663e"><path d="m186 2-.3-.1h-4.7l-.2.1h-2.5a8.4 8.4 0 0 0 -1.4 0l.1.1h.7-.1 1.9-.3 1.2-.7 1.5-.5 2.3l-.1-.1h.9c.2-.1.1 0 .2 0h-.4.8v.1h-1a1.2 1.2 0 0 1 -.6 0h-1.5a7 7 0 0 1 -.4 0c-.2.2-.5.1-.8.2l.1-.1h-.5v.2h2.1-.2l-.8.1h-1.5s.4 0 .3-.1a1.8 1.8 0 0 0 -.8 0h-.4.6a2 2 0 0 1 -.7 0h-.8v.1l-1.7.1.3-.2h.6-.4 1.3-.8l-.4-.1a21.8 21.8 0 0 1 -1.3 0l-1-.1h1c.4 0 .4 0 .5-.2h-.5.6-2.8.1-1a6 6 0 0 0 -.6 0h-1a4.2 4.2 0 0 0 -1 0 2.6 2.6 0 0 1 -.8 0h-3.4l-.1.1h1.1a3.6 3.6 0 0 1 .9 0l-.4.1h.1l-.3.1h-1.3.7c-.3.1-.6 0-.9.2a19.9 19.9 0 0 0 -.8-.1 16 16 0 0 0 -1.5 0h-.8.3a1 1 0 0 0 .4-.1h.6l.5-.2h-2 .8-.5l-.3.1-.4.1h.4l-1 .1h.4-.5l-.4.1h.3a3.8 3.8 0 0 1 .5.1h-.9l-.2.1h-2.4.2-.9c.3 0 .6 0 .8-.2h-4.1l-.1.1v-.1h-2.7a20.3 20.3 0 0 1 -.4 0v-.1a.7.7 0 0 1 .3-.1h.7a2.3 2.3 0 0 0 .8 0h.5l-.4.1h2.5-.3v-.1h1.1a14.7 14.7 0 0 0 1.4 0h.7-.3 1.1l.2-.1a15 15 0 0 0 -2.2 0h.7l-.2.1h-1.2.7l-.2-.1h-1.2.2-.7a42.8 42.8 0 0 1 -3.8 0l-2.5.1h-4.2l-2.6.2h.7-.4l.2.1h1.6l.2-.1h.8a5 5 0 0 1 1 0h-.6 2.2-.2.5l.3-.1h.6-.5l.3.1h.9-.4a5 5 0 0 0 -.4.1h-1.1v.1h-.4.2v-.1h-1.5a11.4 11.4 0 0 0 -1.1 0l-.2.1-.8.1h1.9l-.7.1h-1.3a4.4 4.4 0 0 1 -1.3 0h.3l-1.2.1h.6l.2-.1h1.4l-.1-.1-.1-.1h-1.6l-.6.1h-1 .4c0 .2.1.1.3.2h-1.5l.5-.1h-.5l.1-.2h-.6a4 4 0 0 1 -.7 0v.1h-.7l1.3.2h-2.1l-1.1.1h-.1l.3-.1h-1l.3.1a1.6 1.6 0 0 1 -.7 0 3.4 3.4 0 0 0 -1 0h-1.4 2l.3-.1h-.7v-.1h-.6c-.3.1-.5.1-.8 0h.3a4.3 4.3 0 0 0 -.7.1h-3.1l-.5.1h-.9a22.7 22.7 0 0 1 -1.8.1l-1.2.1h.5l-.3.1h-2.7l-.7.1a5 5 0 0 0 -.2.1h-.3l-.3.1h2.5a2.3 2.3 0 0 1 .6 0h-.9l.9.1h-2.1.6-.3a11.1 11.1 0 0 0 -1 0h-.5.4-.2c-.2.2-.5.2-.9.2h-.8.7l-.8-.2h-.2l.3.1h-.8.4l-.2-.1h1c.4 0 .5 0 .5-.2h.4c.1 0 .3.1.4 0h.4-2 .6l-.2.1h-.5l-.1-.3h2.8-.8l.8-.1a8 8 0 0 0 -1.1 0h-2.8l-1 .1h-3.6l-.3.1a3 3 0 0 0 -.3 0h.2-.6.3-1.2.5-1.1l-.3.1h.5c-.1.2-.3.2-.6.2h-1.3a88.4 88.4 0 0 1 -2 0h.8-.1.2a4 4 0 0 0 -.7 0 3.7 3.7 0 0 1 -.9 0h-.4a1.8 1.8 0 0 1 -.6 0h-.5l.3-.1h-.3.3l-.1-.1.2-.1h2.4l1.2-.1h.5-5.8c-.2 0-.5.1-.8 0l-.2.1h-.5.2c-.3-.1-.6 0-.8 0h-1.1l-1 .2-.3-.1h-1.9a4 4 0 0 0 -.3 0l-1.3.1h.3a4.2 4.2 0 0 0 -1 0h-2.4c-.1.1-.7 0-.8 0h-1 .8v-.1h-1.5l.5.1h-.6l-.3.1h-.4l-.7.2a2.7 2.7 0 0 1 -.8 0 1.7 1.7 0 0 0 -.5 0h-1.2v-.1l.5-.1h-1.6l-.2.2h-1.6.4-1.2.1l-.2.1a2 2 0 0 0 -.3.1h-.7.3-.5.3a5.3 5.3 0 0 1 -1.4-.2h.7-4.4l-.7.1h-.9l-.5.1h-1.2 1.9l.2-.1h-1.6.9-2.4l-1.3.2v-.1h-2.7a6.4 6.4 0 0 1 -1.4.1l-.1.1h-.2a2.2 2.2 0 0 0 -.6 0h-.8a4 4 0 0 0 -.4 0h-1c-.3.1-.5 0-.8.2a.6.6 0 0 1 -.2 0h-1.7.3-1.2.5-.2a12.5 12.5 0 0 0 -1.6 0l1-.1h-.2.5l.3-.1h-.9a1.6 1.6 0 0 0 -.5 0h-1.2v.1h.5-.2l-.5.2h-1 1.3l-.4.1-.7.1-.5.1h-1.3 1.2a5.8 5.8 0 0 1 -1.4 0h.5l-.4-.1h.6-1.8 1l.2-.1h.2-3 .5-.3l.3-.1h.9l1-.1h.7v-.1h-.6v-.2c-.4 0-.6.2-1 .1h.3-2.3l.5.1-1 .1h.2-.9l.4-.1a1.7 1.7 0 0 0 .5 0h-1.2l.5-.1-1.4.1h.3-.3l-.5.1h-1.2c-.2.1-.1 0-.2 0h-1v.1h-.4l-.8.1s.3 0 0 0h-1.9.4a1.4 1.4 0 0 1 .5 0v-.1h-1.7l-.3.1h-.5a6 6 0 0 1 -.5 0h.6l.4-.1h1.6l-.3-.1 1-.1-4 .2v-.1h-1.7l-.9.1h-.6l-.8.1a10.1 10.1 0 0 1 -1.4 0h-.2 1.4a13.6 13.6 0 0 0 2.3-.2h.6-1 .2-2.7l-1.6.2h.2-2.4l-.4.1h-1 1.4l.6-.1h-1.2l-2 .2h-1l-2.2.2-2.8.2h-2.8l-2.5.3h.1l-1 .1h-.9l-1 .1h-.2l-2 .2-2.1.2-1.8.1-1.6.1-2.5.3h-.1 1.7l-1.6.2h-1c-.3.1-.6.2-.8.1l-.2.1h1-.5c0 .2-.3.3-.8.3h-.2v.1l1.7-.1-.4.1a24.5 24.5 0 0 1 -1.4.3l-.3.1h2-.2c-.1 0-.3 0-.2.1h-.4l-.6.1h.6v.2h1c.1-.1.3-.1.4 0h-.1l-.7.1h-.2l-1.1.2h.2l-.2.1h.9l-.7.1h.3-.1a8.7 8.7 0 0 0 1 0l.2.2h-.9.2-.8l-.2.1h1l-1 .2h.8-.3l.3.2h-.1.2c.2.2.2.2.5.1l-.2.1h-.4l-.3.1h.3a.8.8 0 0 1 .3 0 3 3 0 0 0 .9 0h.2a5 5 0 0 1 -.4.2 3 3 0 0 1 -.3 0l-.5.1a1 1 0 0 0 .5 0 2.3 2.3 0 0 1 .6 0c0 .1-.5 0-.4.2h.7l-.8.1h.7c-.2.1-.6 0-.7.2h1.4-.4l-.5.1-.2.2h1.9-.6l-.5.2h.7-.2l-.2.1h.7l-.5.2h.5-.8l.3.1h1.2l-.4.1h.2-.4v.2h1-.2.1l.4.1h1.9l-.8.1h1.6l2-.3 1.4-.1a56.9 56.9 0 0 1 1.7 0h-.3 1.2v-.1h-.3.2a5 5 0 0 1 1-.2 2.7 2.7 0 0 0 .6-.1h.7a5.2 5.2 0 0 0 1.3-.1h.3l.7-.2h.6-.2 2.3-.1.6-.2l.6-.1 1.3-.1h.7l.5-.1h1.4l.5-.2h2a12.8 12.8 0 0 0 2-.1l1.3-.1s.2-.1.1-.2h-1.2l-1 .1h.1-.5 1.4l1.3-.2.6-.1h1.2l.4-.1-.5.1h.4a2 2 0 0 1 .6 0h.4a12.5 12.5 0 0 1 1.5 0l-.2.1a13.2 13.2 0 0 0 .4 0l.2-.1.4-.1.4-.1h2.4l-.2-.1s.3 0 .2-.1h1.5a2.5 2.5 0 0 0 .8 0 15 15 0 0 1 1.9 0l.5-.2a4 4 0 0 0 1.1 0h1.2c-.3-.2-.6 0-.8-.1h.2v-.2h.6a2.6 2.6 0 0 0 .6 0h2.6l2-.1h.8c.2-.2.5-.1.7-.2h2a15.6 15.6 0 0 1 1.1-.1h1.4l1.3-.1h1.2-1.7l-1.2.1-1.8.1a9 9 0 0 0 -.5 0l-.1.2h.5l.7-.1h1.2l1.3-.1h1.3a20.8 20.8 0 0 0 2.9-.2 1.5 1.5 0 0 1 .4 0h1.3c.3-.1.3 0 .4 0l1.6-.2h2.6l2-.2h1.6a697.2 697.2 0 0 1 5.8-.3h.5l1.3-.1h.5a.7.7 0 0 1 .2 0h1.3l1.4-.1h2.3l2-.2h.6l.1.1h.7-.4v-.1h2.2l.6-.1h3.9l.6-.1h.4v-.1h2.6l.2-.1c-.1 0 0 .1-.2 0l-.1.1h2.6c0-.1-.2-.1 0-.2h.2s.3 0 .2.1h1.8c0-.2 0-.2.3-.2h.2l.2.1h.9-.1 1.6a1.2 1.2 0 0 1 -.4 0c.2 0 .3-.1.4 0l.3-.2h.4-.3l.5.1h1-.1l.3-.1h.4-.3 1-.3.5-.1a6 6 0 0 0 .6 0h1.4a4.6 4.6 0 0 1 .6 0h.4l.7-.1h4.8l1.3-.1a2.8 2.8 0 0 0 .7 0l.4-.1h2.3-.3.7-.2.8-.3l.5-.1h1.3-.1 1.1-.2 4.6l-.3-.1a4.4 4.4 0 0 1 1 0h2.4v-.1h.5l-.1-.1h4.6-.1.8-.2a.9.9 0 0 1 .4 0h3.5l.5-.1h4.2l.2-.2h.9l.2.1h1.5a4.6 4.6 0 0 1 .7 0h.4l1.8-.1a3.5 3.5 0 0 0 1 0h2.7l.3-.1a1.8 1.8 0 0 0 .6 0h10.6l1.7-.1h2.6a11.6 11.6 0 0 1 2 0h4.9a7.7 7.7 0 0 1 1 0l1.5-.1h.9-.2 1l1.2-.1h.6a2.8 2.8 0 0 1 .9 0h13a14.6 14.6 0 0 1 1.8 0 2 2 0 0 1 .7 0h1c.1 0 .3-.2.6 0 .3-.1.4-.1.8 0h4.9a36.4 36.4 0 0 1 3.3 0h.4a.5.5 0 0 1 .1 0h6.1a2 2 0 0 0 .5 0 1 1 0 0 1 .3-.1h6.7a2 2 0 0 0 .4 0h1.7a2.8 2.8 0 0 1 .9 0h4.9a10.4 10.4 0 0 0 .8 0h3.8a14 14 0 0 1 1.8 0h2.6l1.2.1h5.2a20.4 20.4 0 0 1 1.6 0h2-.4 1-.4l.3.1h5.8-.8.9a2 2 0 0 0 .5 0h2.1-.1.6-.4 4.1-.3l3.3.1h-2.3 4.6-1.2 4-.3a3.3 3.3 0 0 1 .5 0h1.7a3.2 3.2 0 0 1 .9.1h3.2a1.4 1.4 0 0 0 .4 0 1.7 1.7 0 0 1 .5 0h5.7v.1h1.4a2.2 2.2 0 0 1 .7 0 10.8 10.8 0 0 1 1.3 0h4.1l1.4.1h3.3l3 .1h5.8l1.1.1h5.5l1 .1h4.9l2.4.1h3.7-2 11.5a6.2 6.2 0 0 0 1.3 0s.2.1.2 0h1.2a11.2 11.2 0 0 0 1.8 0l1.8.1h-.2.4a2.2 2.2 0 0 1 .7 0h4.7a7.7 7.7 0 0 0 1 0 5.3 5.3 0 0 0 1 0l2.2.1h.3-.3 1.6-.3 1-.5 1.9-.3a11.2 11.2 0 0 1 1.8 0 51.5 51.5 0 0 1 3.3 0h.4a.8.8 0 0 0 .2 0 4.4 4.4 0 0 1 1.3 0h3.6l-.1-.1h-1.9a42.3 42.3 0 0 1 -3.6 0h-3l-2.1-.1h-2l-1-.1 22.7.2h-2.1l-.2-.1h2.6a9.8 9.8 0 0 1 .6 0h3.7l.8.1h.1-.5l.4-.1h1.3-.1 2.3-.5.8l.5.2h-.1l.5.2.7.1a20.8 20.8 0 0 1 .7.2h.2l.5.1h.6l.2.2a1.5 1.5 0 0 0 .6 0v.2h.7l.2-.1h.6l.3-.1c.1 0 0-.2-.3-.2a1.6 1.6 0 0 0 .4 0h.1l.1-.2h-.1l.7-.5h.2a1.3 1.3 0 0 1 -.3 0l-.1-.1h-.1c0-.2.3 0 .4-.1l-.3-.1.2-.1v-.1h-.2l.6-.1c.1-.1 0-.1-.1-.2h-.3l.3-.2a6.1 6.1 0 0 0 .5 0h-.1c-.2-.1-.2-.2-.1-.2h.5c.1-.1-.2-.1-.2-.2v.1l.3-.1.3-.2h.1c-.1-.1-.2-.2-.1-.3l.3-.1h.2v-.3c.4 0 .4 0 .1-.2l.4-.2c.3 0 .1 0 0 0 0-.1 0-.2.2-.2l.2-.1v-.3l.3-.2c.4 0 .3-.2.4-.3v-.1l.3-.1h-.3v-.2c.2 0 .2 0 0-.1h-.1l-.5-.1-.8-.2h-.7l-2.6-.1-2.7-.1-1.4-.1h-1.8l-2.7-.1a66.8 66.8 0 0 0 -3.4 0l-.6-.1h-10.3a63.5 63.5 0 0 0 -4.9-.1h-5l-1.7-.1h-6.9l-.4 0h-3.8a52.3 52.3 0 0 1 -6-.2h-1a24.6 24.6 0 0 0 -2.5 0h-4.4a20.8 20.8 0 0 1 -1.2-.1h-1.5a22.3 22.3 0 0 1 -1.2 0h-.2a16.2 16.2 0 0 0 -1.9-.1h-2.3l-1.7-.1h-4.6l-.6-.1h-.6a6 6 0 0 1 -1.1 0h-1.8a4 4 0 0 0 -1 0 2 2 0 0 1 -.4 0h-.6.2-.2a2.5 2.5 0 0 1 -.8 0h-2.6l.1-.1h-2.7.3a3 3 0 0 0 -.6 0h-3.2 1.7-4.3a3 3 0 0 1 -.5 0h2l-.3-.1h-1.9.2v-.2h-2.2.2-1.1v.1h-.3a3.8 3.8 0 0 0 -.6 0 2.2 2.2 0 0 1 -.5 0h-.2l.3-.1c-.2 0-.4-.1-.8 0h-.5.1-1.1l.4-.1h-1.9l.6.1h-3.1a71.8 71.8 0 0 1 -4.3 0h-.3.1-.4a2.8 2.8 0 0 0 -.8 0h-.8 1.2c-.3.1-.6 0-.6.2h-.6 1.9-3.4a19.5 19.5 0 0 0 -2.4 0 35.4 35.4 0 0 0 -2.4 0l.6.1a2.7 2.7 0 0 1 -.9 0h-1a25.6 25.6 0 0 0 0 .1h.4l.1.1h-2.5v.1h1.4a14.6 14.6 0 0 1 1 .1h-2.9l-.6.1h-.3 1l-1-.1h-3.4.7-.1l.2.1h-.2v.2h.4l-.1-.1h2.2c-.2-.1-.5 0-.7-.2h.8v.3h1v.1h.6a2.5 2.5 0 0 0 .7 0h1.3-.7l.5.1h-.1 1.5v.1h-1.7.2-1c0 .1.1.2 0 .2a2 2 0 0 1 -.2 0h-1.7l.1.1h-.6.2c-.3-.1-.6-.1-.8 0h.2-4.3 2.5l.3-.1h-1 .4c-.1-.1-.2-.2-.3-.1h-.5 2.1l.2-.1h-.4l-.2-.1a4 4 0 0 1 -.3 0h-1.4l-.2.2-.2-.1h-.5a10.9 10.9 0 0 0 -1.3 0h.1a1 1 0 0 0 -.6 0 2.8 2.8 0 0 1 -.8 0h-.7 1.9l.7.1h-.3c.1.2.5 0 .7.1h-1a18.6 18.6 0 0 1 -1.6 0h-.6.3l-.5-.1h-.5l-.3.1h-.9c0-.2 0-.2.6-.2h-.4.8v-.3h-1.4l-1.3.2h1.6-.3s-.3 0-.2.1h.5-.8.2-2.6.9-2.7.5-1.1c.2 0 .4 0 .4-.2h1a1 1 0 0 0 .3 0h.1-.3l-.7-.1h-2.9.2c0 .2.2.2.4.2h.7-.8c-.2 0-.2 0 0 0l-.8.1h-.7.9l-1.6-.1h-1.5 2l-1.6-.1h1.8l.3-.1h.4-.8a7.4 7.4 0 0 0 -.6-.1h.6-.5a9 9 0 0 0 -.5 0h-1.6.2-.4l2.3.1h-.2a1 1 0 0 1 -.2 0 1 1 0 0 0 -.5 0h-1l.4.1h-.6l-.1.1h-1.9.1-2.5.4l-.7.1h-1.2 1.3v-.1h-.2a16.6 16.6 0 0 1 -1.8 0h-1.4a15.5 15.5 0 0 1 -1.1 0h.2-2.3a27.2 27.2 0 0 1 -3 0h-1s-.1 0 0 0c.2 0 0-.1 0-.1h-1.1l-.7.1h-1.4.8l.3.1h.9l-.6.1h-1.4.2l1.2.1a4.4 4.4 0 0 1 1.5.1h-1c.2.1.5 0 .8 0a7 7 0 0 1 -1.3 0h-.3v.1h-2.4a12 12 0 0 1 1.5 0l.2-.1h-1.3s0-.2.2-.2h-.8a5 5 0 0 0 -1 0h1.3l-1.2.1v.1h.3a6 6 0 0 1 -1.2 0h.7-.4l-.8-.1a1.5 1.5 0 0 1 .5 0h.4l.4-.1h-.9a2.5 2.5 0 0 1 -.7 0h.6a2.2 2.2 0 0 0 -.7 0h-1.5 1.1v.1a5 5 0 0 1 -.8 0h-.7l.6.1h2-2.2l-1.1.1h.2l-.3.1h-1.3.1-2.8l-.9-.1h-2.4l1 .1h-3.2.3-1.3.3c.4 0 .8 0 1 .2h-1.8.5v-.2h-1.4.7-.9.2l-.2-.1h.8l.4-.1h.2-1.2a5 5 0 0 1 -.5 0h-2.7.5l.5.1h-.6a16.1 16.1 0 0 0 -2 0v.3a15.9 15.9 0 0 0 -1.1 0h.3c.1.2.4.2.6.3h.8-4.9v-.3h.2a1.2 1.2 0 0 1 .3 0h.6-.6c0-.1.3 0 .4 0l-.3-.1h-5.4s-.1.1-.4 0h.3-1.8a13.5 13.5 0 0 0 1.2 0v.1h1.3-.5l.6-.1h2.2c.2 0 .2 0 0 0h-.6l1.1.1h.5l-.7.1h-3.5a9.4 9.4 0 0 1 -1.7 0l.8-.1-1.1.1h.2-1.3l-1 .1h.6v-.2h1-.1l.4-.1h-.2a1.8 1.8 0 0 0 -.4 0h-1.7s.4 0 .3.1h.6-.4c-.3 0-.4.1-.5.2h-1.1a1 1 0 0 0 -.3 0h-.3.1a12.5 12.5 0 0 1 -1.8-.1h-1.8c.2 0 .5 0 .5-.2h.5c-.3-.1-.3-.1-.8 0h.1-.5l-.6-.1a11.2 11.2 0 0 0 .8 0h-2 .6-1c-.1 0 0 .2-.3.1h-1.6.1zm106.1-.3h-.3.6zm-106.1.5h.3-.6zm-88.9 1.8h.3-.6zm-39.5 4.3h.5-1zm22.4-3.6h.6-1.2zm228.7-3.7a.7.7 0 0 1 -.4 0h1zm-245 7.1h-.5l-.4.1h.9l-.2-.1h.3zm161-5.8v-.1h.5l-.4.1h-.4.4zm-26.3.5h-.2.8-1zm-83.9.9h-.3.4-.1.6-.8zm-107.5 7.8h.6a1.8 1.8 0 0 1 -.6 0zm239.2-9s0-.1.2 0a8.6 8.6 0 0 0 1 0h-1.8zm11.5-.4h.3-1c.6-.1.5-.2.9-.1h-.2zm-94.5.6.1-.1h.9a3.6 3.6 0 0 0 -1 .1h-.4zm75.8 0h1.5-1.6.8-1.3.4zm-87.5.7h-2.2 3.2a4.1 4.1 0 0 1 -1 0zm10.5.6a2.2 2.2 0 0 1 .7 0h-1.7zm105.1-1a4 4 0 0 1 -1.2-.1h1.8-.6zm-98.1-.8.9-.1v.1a3 3 0 0 0 -.7 0h-.2c-.1 0 0 .1 0 .1h-.7.3c.1-.1.3 0 .4 0zm112.4-.8-.1.1a4 4 0 0 0 -.4.1h-.3l.2-.1h-.3 1.2-.4zm-94 .7a4 4 0 0 1 1 0c-.2 0-.7 0-.7.2h-.2l.2-.1h-.6zm-118.2 2.4h-.2.1a13.3 13.3 0 0 1 1.3 0h-.5a1 1 0 0 1 -.4 0zm190.3-2.9h.6-.7.1a9 9 0 0 1 -.9 0h-.5a3.7 3.7 0 0 1 .7 0h.3a.9.9 0 0 1 .3 0zm-185.3 2.8h-.9a3 3 0 0 0 -.7.2h-.2.1-.9.2l1.2-.2h1.7zm41.4-.4h1.4-2.4a2.4 2.4 0 0 1 -.8 0l.7-.1h1.2-.1zm-21.6.2v-.2h.3l.3-.1h-.2.3-.1.6l-.5.2h-.5zm53.7-1.4h.4-.4l-.7.1h-1l.4-.2h.3l1.2.1zm72.4-.8h-1.3 2l-.7-.1h1.3-.5l.3.1h-.4l.3.1h-.7a1.7 1.7 0 0 0 -.4 0h.2v-.1zm-104.8 2.2 1.7-.2h.3l-.7.1h.5l-.1.1h-1.2.3-.7.2-.5.4zm78.9-.4h-3 3.4a5 5 0 0 0 .6-.1h3.6-3.5a17.3 17.3 0 0 1 -1 0h-.1zm3.1-1.5h.2a.8.8 0 0 0 .2.1h1.4l.1-.1h.8-.6 1.8l-.2.1h-2a12.5 12.5 0 0 1 -1.5 0h-.6.2l.2-.1h.6-.5zm70.7-.6h-.8a.8.8 0 0 1 -.2 0h-.7a5 5 0 0 1 -.5 0h-1.5a2.6 2.6 0 0 1 -.6 0h1.2c.1-.1.2-.1.4 0h.6a16 16 0 0 1 2.1 0h.4-.3zm-20.9.3c-.1-.2-.3-.2-.6-.2a1.1 1.1 0 0 1 -.2 0h-.2a2.3 2.3 0 0 1 -.7 0l.5-.1h-.2.6a4 4 0 0 0 1.4 0l.2.1a.7.7 0 0 0 .2 0 1.8 1.8 0 0 1 .5 0h-1.2l-.3.1c0 .1 0 .1-.4 0h.4zm-92.9.6h-.3.5-.2l1 .1a7.6 7.6 0 0 1 -1.8 0l-.7.1h-1.1.7l-.4-.1v-.1h1-.3 1.3-.2zm88.6-1.1h1.3-2.2a.6.6 0 0 0 -.2 0h-1.9.1-1 .4-4.3l.3-.1h2.9a10.2 10.2 0 0 1 1.7 0h2.9-.1zm8.3.3a1 1 0 0 1 .3 0h1-3v.2h-.5l1.2-.1h1-.7v-.1h-.3a.4.4 0 0 1 -.2 0h-1.8l.3-.2h-.5s.2-.1.4 0h.8a10.2 10.2 0 0 1 1.5 0h-.6l-1.5.1h1.9l.5.1zm-118.8 1.5h-.4l-.2.1h2.2a178.7 178.7 0 0 1 3 0h-2.2l-.1.1h-2.3c-.1.1-.1 0-.2 0h.4-1.2a1.5 1.5 0 0 1 -.4 0h-.2c.3 0 .5-.1.8 0 0-.1-.2-.2 0-.2h2.7zm26.7-.3h6.1l.1-.1h-.3l.4-.2c.2-.1.6-.1.8 0h.6-.9l.2.1h-.4v.1h-.3v.1h1.5-1.1l-1.3.1h-3.8a18.7 18.7 0 0 0 -1.9.1h-8.7a2.8 2.8 0 0 1 -.7 0h6.1l3-.1h.8a3 3 0 0 1 1-.1h-1zm128-1.8h-.7l-.2.1 2.5.1h-.1l-.1.1a.5.5 0 0 1 -.2 0h-2a1.7 1.7 0 0 1 -.4 0h-1.5.7l-2.3-.1h-.9a8.7 8.7 0 0 1 1.6 0h.3a12.1 12.1 0 0 1 .5 0v-.2h-3.2a1.5 1.5 0 0 0 -.4 0l1 .1h-1.6l.3-.2h1.3-.9 4a5.8 5.8 0 0 0 1.2 0h1zm-114.5 1.3a5.4 5.4 0 0 1 -.8 0h-.4a2.8 2.8 0 0 1 -.8 0v.1h-.3.5l-.1-.1h1.3v-.1h-1.8a4 4 0 0 1 -.7 0l1.8-.2h2.3-.5.4l-.7.2h1l-.4.1h.5-.3l-.5.1h-.5zm63.4-.4h-3.1c-.3.1-.5.1-.8 0a1.3 1.3 0 0 0 -.5 0 1 1 0 0 1 -.5 0h1l.6.1h.3c-.3-.2-.7 0-.8-.2h.4l-.2-.1h1.2-.8c.1.2.4.1.7.2h1.3l.2-.1h-.8v-.1h.7a4 4 0 0 1 1 0l-.7.1h1l-.5.1zm55.7-.7h2.7l1 .1h.9-.6c-.1 0 0 .1 0 .1h-4.6l-1.4-.2h-.2l.3-.1h1.1-.3 1-.2 1-.5.3zm-146.4 1.8h-3.7a1.2 1.2 0 0 0 -.3 0 2.1 2.1 0 0 1 -.7.1h-2.9 2.7a8 8 0 0 0 1.3 0l3-.1a9.6 9.6 0 0 1 .5 0zm27-.4h2.2a22.5 22.5 0 0 1 1.9 0h2.7c.3-.1.6 0 .8 0h.1-3.3a18.6 18.6 0 0 0 -1.8 0 4 4 0 0 0 -1.1 0zm25.1-.2h3.6a23.8 23.8 0 0 0 2.3 0h3.5a13.3 13.3 0 0 1 -1.4 0h-1a29 29 0 0 1 -3.4 0l-.4.1h-3.2zm25.8-.5h.6l.3-.1h.5a2.3 2.3 0 0 1 .8 0 .7.7 0 0 0 .2 0h.7-.1.3v.1h-.1a1 1 0 0 1 -.3 0h-2 .2-1zm-33.3.7h1.3l-1-.1h1.3l1-.1h.7-.4 1-.3 1.5-.3c0 .1-.2.1-.2 0-.3 0-.6 0-.7.2l-.3-.1h-2.1c0 .2-.1.1-.3.1a3.1 3.1 0 0 0 -.8 0h-.5zm92.2-2.1h-.6a1.2 1.2 0 0 0 -.4 0h-2.8v-.2l-.3-.1h3.1l.7.1h.2zm-77 1.6h3.8l-.7.1h-.7a48.1 48.1 0 0 0 -3 0h.2l.2-.1h2.6-1a.4.4 0 0 0 -.1 0zm-91 1.3h1.8l.5-.1a60 60 0 0 1 1.5 0l-.2.1-.2-.1h-1l-.2.2h-2.2v-.1h-.4.6zm167.9-2.8a8.8 8.8 0 0 1 1.9 0h2.4l-.1.1h-4.2zm-167 3.5h-.7a4.7 4.7 0 0 1 -1.3 0l.3-.1h.2-.6l1.2-.2h-.6.9c.3 0 .4 0 .4.2zm115.6-2.1a4.5 4.5 0 0 1 -.6 0h-.9l-.5-.1-.6-.1a3.6 3.6 0 0 1 .9 0l.5.1a32 32 0 0 1 2.1 0h-.8zm-98.6 1.6-.8-.1h1.8-.3a8.5 8.5 0 0 1 1.5 0l-1.4.1h-1.5zm-22.1.3a51.2 51.2 0 0 1 -3 0h.4-.7 1.7-.4zm-68.6 1.5-2.4.1h.3l.1-.2h-.7 2.4-1.5l.4.1zm180.5-3h4.2-.3a3 3 0 0 1 -.5 0zm60.8-2h.8a14.5 14.5 0 0 0 2.4 0l1.7.1h.3a24.3 24.3 0 0 0 -1.7 0h-3.5zm-38.2.9h1.4a25.2 25.2 0 0 0 2 0h-.2a2 2 0 0 0 -.7 0zm38.7-1h2.2a11 11 0 0 0 1.2 0h.5zm-.5 0h-3.1l-.9-.1h1.6a48 48 0 0 1 2.4 0zm-17.9 1.7h.6-1.6l.4-.1-.4-.1h-.4 1.3l.8.2zm-162.8 1.5h.4a1.8 1.8 0 0 1 .8 0h.5a1.2 1.2 0 0 0 -.6 0v.1h-.3l-2.1.1h-.3 1.6zm194.1-2.4a6 6 0 0 0 -1.1.1h-1.5l-.3-.1zm-51.1.5h-2.8a8.2 8.2 0 0 0 -1.4 0h-.7a2 2 0 0 1 -.5 0 22.2 22.2 0 0 1 2.3 0h2.9zm8-.1a5 5 0 0 1 -1 0h.4l-.2-.1.4-.2h1-.3v.1h.6c-.5.1-1 0-1.5.2h.5zm102 4.7h-.1.6-3.3zm-100.4-4.2h1.9a13 13 0 0 1 1.4 0l-.7.1h-2.7zm-62 .2a5 5 0 0 1 1.8 0h-.4a6 6 0 0 0 -.6.1 2 2 0 0 1 -.3 0 1.3 1.3 0 0 0 -.5 0h-.3.9l.1-.1zm-108.7 5.2a14.2 14.2 0 0 0 -.7 0h-.3.6-.3l2-.1h-.4v.1l-1.1.1h.2zm99.3-4.9h3-.5a3.3 3.3 0 0 0 -.8 0 1.6 1.6 0 0 1 -.7 0l-.3.1zm-.5.1h-2.5 1.6a3.6 3.6 0 0 1 1 0zm56-1.2h.2a33.5 33.5 0 0 1 3.4 0h-.5l-.6.1h-.2a4.3 4.3 0 0 0 -1.2 0h-1zm29.5.4h1.7a3.7 3.7 0 0 1 -1.3 0h.5zm-58.6 1h-.6l-.5.1h-.6.4-.2l-.6-.1h-.6 1.6-.6zm77.7-1.7h2a3 3 0 0 0 -.7.1 3 3 0 0 1 -.6 0h-.2a3 3 0 0 1 -.5 0zm-131.8 2.5.4-.1h-1.4 2.4-.6c-.3 0-.5.1-.8 0zm90.9-1.8h-.1c-.3.2-.6.1-1 0h-.6zm-141.3 2h-.5l-.2.1h-.6.1-.1c.2-.1.3 0 .4 0l.5-.1h1.2-1.1zm22-.3a26.1 26.1 0 0 1 1.3 0h-1.4zm-94.3 1.1-3 .2.7-.1h-.3 2.7zm77.3-1h.2a13.2 13.2 0 0 0 1.5-.2h.6a1.7 1.7 0 0 1 .6.1h-2.6zm-9.6.6h2.3-.6a8.3 8.3 0 0 0 -1.2 0zm147-2.2h.8a1.2 1.2 0 0 1 .3 0h.6-1.8zm-188 3h1.7v-.2h1.1l-.8.1h-.3l-1.6.1zm14.9 2.8-3 .1h1.5l.3-.1h.4a2.4 2.4 0 0 1 .7 0zm203.3-7h1.8l.3.1a6 6 0 0 1 -.9 0h-.8a7.8 7.8 0 0 1 .7 0c-.3.1-.5.2-1.1 0zm-64.6 1h1.1-.4l.3.1h-.9l-.2-.1zm-102.9 2h.4 1.6.5-.7l-1.6.1zm68.1-1h-.2a3 3 0 0 0 -.5 0h-1.3 2.1zm-22-.4h-.9.4-.3.3a12.3 12.3 0 0 0 .5 0zm133.9-2-.3.1h-1.7.2a8.9 8.9 0 0 0 1.5 0h.3zm-207.6 4.7h.5c-.3 0-.5.1-.8 0h-.6.6l.4-.1h.2zm44-2h1.6l-.5.1h-1zm80.4-.6h2.3zm-44.8.6-.9.1h-1.1 2zm-112 1.8-3 .2 1.5-.2zm117.2-2.2h3.4zm23.5-.5h-.2.9c.3 0 .5-.1.8 0h-1.7zm-113 1.7v.1h-1.8 1.8zm-25.2.9h-.3a7 7 0 0 0 -1.1 0 7 7 0 0 1 -.8.1h-.3l2.2-.2h.2zm-40 6.5-2.8.3c.9-.2 1.9-.3 2.9-.3zm243.6-9.7a4.8 4.8 0 0 1 .7 0h1.4zm-46.4.9c.2-.1.4-.2.6-.1h1-1.6zm-89.2 1.7h1.1-.4l-.4.1zm167.3-3.5a1 1 0 0 1 -.5 0h-.9 1.5zm-66.4 1.8h-1.5c.1-.2.1-.2.3-.1a1 1 0 0 0 .5 0h.6zm-153.5 5.3-.7.1h-1 .6l.5-.1zm125.6-5 1.7-.1h-1.5.2-.4zm20-1.3-.3.1h-.7 1zm-62.3 1.1h-1.2a1.4 1.4 0 0 1 -.4 0h1.7zm-4.4.4h-1.8a7 7 0 0 1 1.7 0zm-51.9 1.1h.5a15.3 15.3 0 0 0 1.8 0h-2.2zm188.5-2.4h-.6a1.6 1.6 0 0 0 -.5 0h-.6zm-110.9 1.1h.7a17 17 0 0 1 .2.1h-.9zm118-1.4h-.7l-.5-.1h1.1zm-32.3.2h.9l-.7.1h-.2zm-56.9 1h1.8-.3v.2h-.6.4-1.3zm90.9-1.3h1.3zm-98.2 1.6h.6c.2-.2.4-.2.7-.1h-1.3zm67.1-1h-.9a4.3 4.3 0 0 0 .5 0 1.2 1.2 0 0 1 .5 0zm-238.5 8.5s-.3.2-.5.1h-.5 1zm228-8.6h-.4a18.5 18.5 0 0 1 -1.4 0zm-103.7 1.2h1.7zm71.1.1h-.4l.9-.1zm27.2-1.7-.6.1h-.6 1.2zm-109.6 2.1h1.4zm31.4-1.4h1.2zm-147.7 8.7-1.5.2c.1-.2.5-.1.7-.2zm168.7-8h1.1zm-107.2 4.7h-.1.2a58.4 58.4 0 0 1 1.3 0zm219.7-6.3-.4.1a3.2 3.2 0 0 0 -.8 0v-.1zm-30.3.3h.2a2.6 2.6 0 0 0 .3 0 1 1 0 0 1 .3 0c.2 0 .1 0 0 0a5 5 0 0 1 -.8 0zm-81 .7h-.5zm-125.6 5.9c.3-.2.8-.1 1.1-.1h-1.1zm15-.5h.1a11.8 11.8 0 0 0 1.2-.1h.3zm228.7-6h1.9-2zm-274 8h-1.3 1.3zm33.8-1.5h.7c.2 0 .5-.1.8 0h-1.6zm-29.5 1.4h-1zm209.3-7.5h-.3l-.2-.1h.8-.5.2zm-126.9 1.8a5.1 5.1 0 0 1 -1.4 0zm189.7-2.5h-1.7 2zm-93 .7h.4s-.1 0 0 0h.7a3.2 3.2 0 0 1 -1.1 0zm-39.1 1.8h-.1a8 8 0 0 1 -.9 0zm-100.6 3.9a5.2 5.2 0 0 1 -1.5 0zm112-5.9a8 8 0 0 1 -1.2 0h1.3zm42.5-.2h-1.4zm-96.5 1.5a4.4 4.4 0 0 1 1.1 0zm51.9-.8h-1.2zm-89 1.7h1.1-1zm171.4-1.9a3.6 3.6 0 0 1 1 0 2.3 2.3 0 0 1 -1 0zm-205.5 6.2.4-.1h.5-1zm121.5-6.3h-1zm94.7-.7h-.8l.3-.1h.6zm-193.9 3.5h-1zm12.2-1h.3l.2-.1h.2l-.7.1h-.1zm4.3 1.3h-.6l-.5.1h-.3zm15.8.4h-.8zm263.5.6h1.4zm-273.3.5-1 .1h1zm169.8-6h.2a1.3 1.3 0 0 0 .4 0h.3-1zm-153.4 2.5h1zm71.8-.3a3.6 3.6 0 0 1 -1 0h1.1zm19.7-.7h.2v.1h-.5l-.3-.1zm-27 .4h-1.2 1.3zm-30.6.2a4.5 4.5 0 0 1 -1.3 0zm-70.1 1.6h-.5a2 2 0 0 1 -.6 0zm18.5-.2h-1zm71.5-1.3h1a4.2 4.2 0 0 1 -1 0zm101.2-1.3-.5-.1h.8zm-52 .7h.1a3.2 3.2 0 0 1 .8 0zm-47.7 1v.1h-.7.8zm14.6-.7h1.3a3.9 3.9 0 0 1 -1.3 0zm21.6.2h1.4zm40-1.4h1.2a3 3 0 0 1 -1 0h-.1zm.5.4h.6zm-116 1.7h.2-.3l.8-.1zm-39 .4h.6-.5zm106.8-2h.7zm11.5 1.6h-1.2zm59.1-1.3h1.2zm-72.7.6h.5l-.2.1h-.3zm-63.5.2h-.9zm-81.2 1.8h-1zm99.9-2.3h-.7zm144.3-1v-.1h1.4-1.4zm-121.6 2.1h1zm105.3-1.7h1zm-78.2 0c-.3.1-.5 0-.8 0zm-91.8 2.6h.4l.2-.1h-.2.6-.3l-.4.1zm-76 .8h1.4-1.3zm218-3.8h.8-.7zm41-.6h-1zm-72.9 1.6h.9-.2a1.8 1.8 0 0 1 -.7 0zm39-.9a2 2 0 0 1 .8 0h-.9zm-146.8 2.4h1a5 5 0 0 1 -1 0zm185.8-3.8h-.8zm-72.4 2.4-.8-.1h.8zm58.3-2.5h.6l-.3.1h-.3zm-291.7 8h.5c.1-.1.2 0 .2 0a2.3 2.3 0 0 1 -.7 0zm303.8-6.5h-1.1zm-267.7 4a5 5 0 0 1 -1.2.1h1.2zm95.2-1.6h.8zm4.2-.4h1zm32.2-1.2h-.8zm103-.6h-.7zm28.6-1h-1zm-184 4h-1.3 1.4zm60.3-1.9h1zm129.5-1.9h.9a2.4 2.4 0 0 1 -.9 0zm-225.9 3.7h-.4l-.3.1.6-.1zm19.3-1.1h1.2zm111-1.1h1.3zm69-.4h1zm-81.8 1.2h-.9a2.5 2.5 0 0 1 1 0zm-101.1.6h.3l-.3.1zm188.6-2.5h1zm-259 3.5h.9zm121-1.5a12 12 0 0 1 -.9 0h-.4 1.4zm-56 .8h-.6zm-42.4 4.7h.6zm221-7-.4.1v-.1h.5zm-66.3 1.7h-.9.8zm61-1.7a2.7 2.7 0 0 1 -.6 0zm-182.7 4.7h.7zm111.5-3.4a3.2 3.2 0 0 1 -1 0zm45.6 0a5 5 0 0 1 -.8 0zm105.8 3h-1zm-189-3h.7c-.2 0-.4.1-.8 0zm96-2h.6a2.2 2.2 0 0 1 -.7 0zm-54 1.5h-1a1.8 1.8 0 0 1 1 0zm-67.4.6h-.6zm51.4.1h-.4a5 5 0 0 0 -.4 0zm-27 .6-.7.1h-.1.8zm99.3-2.3c.3 0 .5-.1.8 0zm21.8 0h1.1-1zm-17 .4h.7a3 3 0 0 1 -.8 0zm-78.7.8h-1zm-81.5 1h.5zm55.6-.8h-.9a2.8 2.8 0 0 1 .9 0zm-104.4 1.6h.8zm-44.3 1.8h-.7.8zm142.3-2.3h.8zm78.2-2.3h-.4s-.1 0 0 0zm-222.5 5.3.5-.1h-.5zm197.7-4.9h.7zm90-.5h-1.1v-.1h1zm-191.2 2.1h.7zm8 .1h.8-.7zm-29.6 1.2h-.8a2.7 2.7 0 0 1 .8 0zm123.8-1.6h-1zm101-2h-.8zm-27.2 3.9h-1zm-15-3.3-.3-.1a2 2 0 0 1 .6 0l-.2.1zm-210.9 6.7h.6zm81.9-5.2a3.6 3.6 0 0 1 1 0zm77.4-1.8h-.5zm34-.1h-.6.7zm-132.1 1.7h.3-.6c.2 0 0-.1.4 0zm60.4.3h-.6zm-55.4-.2h-.6zm-77 5.5h-.6a1.6 1.6 0 0 1 .6 0zm256.7-7.5a2.8 2.8 0 0 1 .7 0zm-13.9-.2h.9zm-132 2.2a2.7 2.7 0 0 1 -.7 0zm26.4-1h-.8zm46.7 1h-.5zm.5-.8h-.8zm-18.3-.2h.6zm-79.2 1.6h-1zm227.3 2h1zm-223.3-1.9h-.7zm-82.6.2h.6zm-7.5 1c0-.2.3-.1.5-.2h.2l-.7.1zm162.3-2.3h-.8zm-16.7-1h.8zm-4.2.7h.7zm-11.7 1h.6zm142-3.5a2.6 2.6 0 0 1 .7 0zm-118.7 1.7h.7a2 2 0 0 1 -.7 0zm-74.3 4.4h.8zm74.4-4.3h-.5zm-39.1 1.5h-.7zm73.6-1.9h.6zm-5.1 1.8h-.6zm5-1.8h-.5zm-45.4 1.6h.7-.4a2 2 0 0 1 -.3 0zm71.2-.7h.7zm-138.3 1.6h-.3a1.3 1.3 0 0 1 -.5 0zm138.2-.6h.6zm-110.3-.2h.9zm119.1-1.8h.6zm-137.8 1.9h.7zm140.6-.7h-.5zm.3-1h.7zm-162 2.2h.7c-.3 0-.5.1-.8 0zm-20 0h-.6a2 2 0 0 1 .6 0zm204-3.7h.7a2.4 2.4 0 0 1 -.6 0zm-221.5 4.4h.6zm141.5-2.6h-.5.6zm91.6-2.3h.8zm-235 8.3h.7zm158.6-5.5h-.5zm-18 .5h-.4l.3-.1h-.2.2zm-81.9.3h-.6zm56.2-.8h-.5zm58.7.8h.5zm-74.7-.9h-.4zm-43.3 1.3-.4-.1h.2zm158-2.7h.6zm-183.9 2.6h.6zm237.3-1.6h.7zm-177.6 0a1.8 1.8 0 0 1 -.8 0 1.4 1.4 0 0 0 .5 0zm-1 1.1h.8zm102.8-1.3h.4zm-150 2.4h-.7zm84.4-.7h-.6a1 1 0 0 1 .4 0h.1zm-185.4 7.4h.4zm23.3-1-.6.1h.6zm158.3-7.1h.5zm-65.2 1.4h-.6zm163.8-4.4h.4l-.4.1zm.7 2h.4zm26.4-1.8h-.6zm-172.5 3.3h.7zm-8 .6h.5zm-65.6 4.2h.6zm82.1-5.6a1.1 1.1 0 0 1 .6 0zm52.6 0v-.1h.7-.7zm-52-.3h-.4a.7.7 0 0 1 .2 0zm68.4 0h-.5zm4.5.4h.7zm57-1.1a2 2 0 0 1 -.7 0h.6zm-185.5 5.2h.6zm94.9-4.6h-.6zm-.5 0h.5zm58.7.2h.6zm-67 .1a.8.8 0 0 1 -.3 0h-.1zm-101.5 2 .6-.1h-.6zm132-2.9.4.1h-.3zm-30 1.5h.4zm-126.5 5.5h.4zm248.9-7.2h-.7zm-96 1.3h-.4zm-90.7 2.1h-.4zm-3.2-1h.6zm-.1 0c-.1.2-.2.2-.5.1h.5zm28.3-.5h-.5zm-35.9 2.2h.7zm.2-.5c-.1.1-.2.1-.4 0zm47.4-1.4h.5-.6zm-129.5 6.9c.1-.1.1-.1.4 0zm122.5-7.2h.9zm48.6-.3h.4zm-118.1 1.1h.7-.6zm124.3-1.7h-.4v-.1h.4zm-138.6 5.7h-.5zm-26.1-3.8-.7.1h.7zm156.5-1.5h.5zm97.2-2.6a.9.9 0 0 1 .3 0zm-70.1 2.9h-.3zm-174.4 1.9a1 1 0 0 1 -.4 0zm224.6-3.4h.5zm33.9 0v.2h-.2.1zm-163.8 2.5h.5zm-31.5 0h.3zm109-1.3h.4-.3zm-59 .3h.6zm77.8 0h-.6zm63.8-3h.5zm-25.1 1.3h.3zm-115.1 1.7h-.5zm32-.3h-.4.5zm2.3 0h-.4zm-134.7 5.4h-.6zm217-6.1h.4-.3zm14.7-.3h.4zm-130.9 1c-.2.1-.2.1-.4 0zm37 1.8h-.4zm-67.7-1.7h-.3zm-45 2h.5zm104-2.8h.3-.4zm137.5 3.8h.5zm-186.9-2.6h-.4zm-108.7 6.2h-.6zm258.7-9h.4zm-219.3 4h.5zm174.6-2.7h-.3zm-76.5 1h.5c-.2.1-.4.2-.5 0zm120-1.4h.4zm-119 .5h.4zm-46.5 1.5h.4zm-57.1 4.6h.5zm247.6-5.8a1.6 1.6 0 0 1 -.5 0zm-291.1 8.3h-.5zm63-5h.4c0 .1-.2.1-.4 0zm195.6-3.4h.4zm63.8 4v.1a3 3 0 0 1 -.5 0h.5zm-246.7.7h-.5zm76-3c-.2 0-.2 0 0 0zm102.6-2.3h.5zm-12 0h.4-.5zm-160.6 3.4h-.5zm-52.1-.7h.5zm145-1h-.4.5zm109-3h.4zm-52 .6h-.5zm15 1h-.4zm-8-.2h-.6a2 2 0 0 1 .7 0zm-144.4 3.2h-.6zm-72.4 4.3h-.4zm174-7.2c.2 0 .3-.1.4 0zm53.2.1h-.4.3zm-185.8 3.9h.5zm-2.9.2a1.2 1.2 0 0 1 .5 0zm132.3-3.3h-.4zm-.8-1h.4zm43.8-.6h.4zm-185.2 5a5.3 5.3 0 0 1 .4 0zm171.4-3.8h-.5zm-31.1-1 .2.2c-.2 0-.3 0-.2-.1zm54 .4h-.2zm-47.3 0h-.3zm-92.6 1.4c.1-.1.1-.1.4 0zm-63.2 5a1 1 0 0 1 .6 0zm111-5.4h.4zm-41.8 1h.5-.1a.9.9 0 0 1 -.4 0zm0 2.1h.3zm99.6-3.5h.3zm-202.6 7.6h.5zm345.1-4h-.3zm-190-3.1h-.4zm191.7 3.2h.3-.4zm-191-2.6h-.4.3zm76-1.8h-.3zm-175.6 5.6h.4zm59.4-4.7h.3zm-50.4 1h-.3zm102.3-1.2h-.6zm-100.4 4.4h-.4zm165.2-4.7h.2zm113.2 4h.4zm-368 1.5h.3-.4zm216.3-5.8h-.3zm21.6 1h-.3zm-235.5 8.9h-.4zm90.7-5.5h-.5zm34.8-.9h.4zm-125.3.9h.5zm254.2-4.5h-.4zm-163.3 1.7h.3zm.4 1.4a.6.6 0 0 1 .3 0zm1.2.4h.4zm186.6-4.4h-.3zm-120 1.3h.4-.3zm40.5-.1h-.3.4zm-60.6 1.8h-.3c-.1 0 0 0 0 0zm46.4-1.6h.3zm41.8-.4h-.3zm19-.4h.4zm13.6-.2-.2-.1h.2zm-155 3.3h.4zm184.9-3.7h-.3zm-249.6 8h.3zm251.2-8h-.5.1a1 1 0 0 1 .4 0zm-122.8 3h.5zm123.1-3.8h-.3zm-258.5 4.9h-.4zm213.6-1.7h-.4zm-69.2-1.3h-.2zm-156.2 8.2h.3zm150-7.2h.6-.5zm109.5-1.3h.2zm-206 5.2h-.4zm4.3.3h-.4zm-4.6-2.7h-.2zm40.8-1h.4zm55.6-.6h.2zm-30 .2h.4-.3zm133-.8c.2-.1.3 0 .4 0zm-21.8-.6h-.3zm.4.2h.3zm-230.5 2.8h-.3zm106.2 1.2h-.4zm-104.5-1.2h.3zm104.2-.6h-.3zm57.2-1.6h-.4zm-155.8 2h.3zm223.6-1.7h.3zm-2.8-1.5h-.5zm-112.8 2.4h.2zm32.2-.3h-.2zm-135 5.8h-.4zm58-4.8h.4zm56.7.9h-.4zm36.7-2.7h.4zm16.5-.8h-.4zm-80.4 2.3h-.4zm161.7-2.5h-.2zm-181.6 4.7h-.4zm0-.5h.3-.4zm20-1.7h.2zm123.4-2.2h.4zm-142.4 4h-.4zm-61.7-1.4h.2zm245.7-3.2h.3zm-165 4.8h.3-.4zm50.4-2.8h.4zm75.7 2h.4zm-54.2-2.8h.2zm-49 1.6h.5-.4zm-106.3 4.4h.3zm288.9-2.3h-.3zm-278.1 2.3h.2zm67.6-4.4h.4zm-9.4-.4h-.2zm-54.6 4.7h-.4zm-37.5 2h-.4zm106-7.3h.4-.3zm2 .9h.2zm25.4-.2h.3zm81.5-1v.1zm-71.6-.4-.3.1h.3zm26.2 1h.2zm-29.4-.4h.3zm-91.1 1.9h-.1zm.1 2.6h-.3zm227.7-5.6h.2zm-262.3 3.4h.3zm36.2.3h.3zm-48.4 4.7h-.3zm50.6-2.6a.7.7 0 0 1 -.4 0zm42.8-4.2h.3zm144.7-.5h-.2zm20-2.1h-.3zm-163.6 5.5h-.5zm162.3-4.2h-.2zm-162.2 1.3h-.4zm75.5-1.4h.2zm-45.8.4h.3zm11-.1h-.4zm-157.5 4.1h.3zm154.8-2.9h.3zm30-1.6h.2-.3zm89.2-.7h-.2zm-63.9.7h-.2zm-65 1 .4-.1h-.3zm-120 7.2h.2-.3zm188.7-7.3h-.2zm-132.2 1.3h-.4zm40 0v.1h-.2.3zm97.4-.2h-.3zm-138.7.9h.4zm-1-1.1h.2zm3.4.3h-.3zm1.6 3h-.2zm-83.3-.6h-.2zm86.5.6h.3zm54.3-4.2h-.2zm76.8-.6h-.2zm-142.6 3.6h-.2zm15 .4h.2zm100.5-4h-.2zm-61.8 2h.1zm143.6-2.8h.2zm-144.2 2.9h.2zm-57.1 0v-.1h.2-.2zm86.6-1.2h.4zm19.4-.9h-.2zm-83.3 1.6h-.1zm243.1 2.4h-.3zm-66.4-5.5h-.3zm-72.9 1.5h.3zm-102.2 2.3h-.2zm-28.5-.3h.3zm58.7-.1h-.2zm133.1-2.8h-.1zm-195.4 6.7a3 3 0 0 1 -.4 0zm97.8-5.6h.2zm85.4-.5h-.2zm-49.5 0h-.2zm-169.7 7.9h-.3zm256.2-9.8h.2zm19.4 1.8h-.3zm-205 4.6h.2zm92.5-4.3h-.3zm76.3-.6h.2zm-152.3 2.7h.2zm119-1.6h-.1.2zm67-1h.4-.3zm-.5-.7h.2zm-69 .5h-.3.2zm-57.3 1.8h-.2zm76.6-1.3h-.2zm-137.7 4.5h-.3zm183-6.2h.2zm-34.1 1.6h-.2zm-220.8 7h-.2zm106.4-4.8h.3zm36-2.4h.2zm-140.4 2.7h.2zm65.3 2.1h-.3zm185.5-5.6h-.3zm-250.7 4h-.1zm174.4-2.6h.1zm72-2v.1h-.1zm-93.5 2.3h.2zm-.9.2h-.2zm-91.3 3.7h.2zm146.6-3.6h-.1zm-80.2.4h.2zm27.3.6h-.2zm100.5-2.2h-.1zm-161 .8h.3-.2zm-83 3.7h.2-.1zm231.4-5.5h-.2zm-49.5.7h.1zm-177 4h.3zm202.2-2h.2zm-37.6-.9h.3zm-125.7 2.8h.2zm114.2-2h.2zm105-2.8h.2zm-220.3 5.8h.2zm84.1-2.6h.2zm-117.1.5h.2zm57.4-.8h.2zm2 .1h-.1zm0-.2h.2zm20 .4h-.2.3zm17.3-.2h.2zm-63.7 0h.2zm30.8.6h-.1zm26.3-.5h.2zm-58.7 1h.3zm158.4-3h-.2zm28.7-1.3h-.2zm-212.2 7.3h-.2zm188.1-6.2h.2zm-165.4 2.3h.2zm87.8-.8h-.2zm-2.8.4h.3zm-101.8.8h.2zm.4 0h-.1zm200.5-3.2h-.2zm-3.4.5h.1zm-138.6 2.8h.1zm-137.1 5.3h-.2zm112.5-5h-.2z"/><path d="m186 2-.3-.1h-4.7l-.2.1h-2.5a8.4 8.4 0 0 0 -1.4 0l.1.1h.7-.1 1.9-.3 1.2-.7 1.5-.5 2.3l-.1-.1h.9c.2-.1.1 0 .2 0h-.4.8v.1h-1a1.2 1.2 0 0 1 -.6 0h-1.5a7 7 0 0 1 -.4 0c-.2.2-.5.1-.8.2l.1-.1h-.5v.2h2.1-.2l-.8.1h-1.5s.4 0 .3-.1a1.8 1.8 0 0 0 -.8 0h-.4.6a2 2 0 0 1 -.7 0h-.8v.1l-1.7.1.3-.2h.6-.4 1.3-.8l-.4-.1a21.8 21.8 0 0 1 -1.3 0l-1-.1h1c.4 0 .4 0 .5-.2h-.5.6-2.8.1-1a6 6 0 0 0 -.6 0h-1a4.2 4.2 0 0 0 -1 0 2.6 2.6 0 0 1 -.8 0h-3.4l-.1.1h1.1a3.6 3.6 0 0 1 .9 0l-.4.1h.1l-.3.1h-1.3.7c-.3.1-.6 0-.9.2a19.9 19.9 0 0 0 -.8-.1 16 16 0 0 0 -1.5 0h-.8.3a1 1 0 0 0 .4-.1h.6l.5-.2h-2 .8-.5l-.3.1-.4.1h.4l-1 .1h.4-.5l-.4.1h.3a3.8 3.8 0 0 1 .5.1h-.9l-.2.1h-2.4.2-.9c.3 0 .6 0 .8-.2h-4.1l-.1.1v-.1h-2.7a20.3 20.3 0 0 1 -.4 0v-.1a.7.7 0 0 1 .3-.1h.7a2.3 2.3 0 0 0 .8 0h.5l-.4.1h2.5-.3v-.1h1.1a14.7 14.7 0 0 0 1.4 0h.7-.3 1.1l.2-.1a15 15 0 0 0 -2.2 0h.7l-.2.1h-1.2.7l-.2-.1h-1.2.2-.7a42.8 42.8 0 0 1 -3.8 0l-2.5.1h-4.2l-2.6.2h.7-.4l.2.1h1.6l.2-.1h.8a5 5 0 0 1 1 0h-.6 2.2-.2.5l.3-.1h.6-.5l.3.1h.9-.4a5 5 0 0 0 -.4.1h-1.1v.1h-.4.2v-.1h-1.5a11.4 11.4 0 0 0 -1.1 0l-.2.1-.8.1h1.9l-.7.1h-1.3a4.4 4.4 0 0 1 -1.3 0h.3l-1.2.1h.6l.2-.1h1.4l-.1-.1-.1-.1h-1.6l-.6.1h-1 .4c0 .2.1.1.3.2h-1.5l.5-.1h-.5l.1-.2h-.6a4 4 0 0 1 -.7 0v.1h-.7l1.3.2h-2.1l-1.1.1h-.1l.3-.1h-1l.3.1a1.6 1.6 0 0 1 -.7 0 3.4 3.4 0 0 0 -1 0h-1.4 2l.3-.1h-.7v-.1h-.6c-.3.1-.5.1-.8 0h.3a4.3 4.3 0 0 0 -.7.1h-3.1l-.5.1h-.9a22.7 22.7 0 0 1 -1.8.1l-1.2.1h.5l-.3.1h-2.7l-.7.1a5 5 0 0 0 -.2.1h-.3l-.3.1h2.5a2.3 2.3 0 0 1 .6 0h-.9l.9.1h-2.1.6-.3a11.1 11.1 0 0 0 -1 0h-.5.4-.2c-.2.2-.5.2-.9.2h-.8.7l-.8-.2h-.2l.3.1h-.8.4l-.2-.1h1c.4 0 .5 0 .5-.2h.4c.1 0 .3.1.4 0h.4-2 .6l-.2.1h-.5l-.1-.3h2.8-.8l.8-.1a8 8 0 0 0 -1.1 0h-2.8l-1 .1h-3.6l-.3.1a3 3 0 0 0 -.3 0h.2-.6.3-1.2.5-1.1l-.3.1h.5c-.1.2-.3.2-.6.2h-1.3a88.4 88.4 0 0 1 -2 0h.8-.1.2a4 4 0 0 0 -.7 0 3.7 3.7 0 0 1 -.9 0h-.4a1.8 1.8 0 0 1 -.6 0h-.5l.3-.1h-.3.3l-.1-.1.2-.1h2.4l1.2-.1h.5-5.8c-.2 0-.5.1-.8 0l-.2.1h-.5.2c-.3-.1-.6 0-.8 0h-1.1l-1 .2-.3-.1h-1.9a4 4 0 0 0 -.3 0l-1.3.1h.3a4.2 4.2 0 0 0 -1 0h-2.4c-.1.1-.7 0-.8 0h-1 .8v-.1h-1.5l.5.1h-.6l-.3.1h-.4l-.7.2a2.7 2.7 0 0 1 -.8 0 1.7 1.7 0 0 0 -.5 0h-1.2v-.1l.5-.1h-1.6l-.2.2h-1.6.4-1.2.1l-.2.1a2 2 0 0 0 -.3.1h-.7.3-.5.3a5.3 5.3 0 0 1 -1.4-.2h.7-4.4l-.7.1h-.9l-.5.1h-1.2 1.9l.2-.1h-1.6.9-2.4l-1.3.2v-.1h-2.7a6.4 6.4 0 0 1 -1.4.1l-.1.1h-.2a2.2 2.2 0 0 0 -.6 0h-.8a4 4 0 0 0 -.4 0h-1c-.3.1-.5 0-.8.2a.6.6 0 0 1 -.2 0h-1.7.3-1.2.5-.2a12.5 12.5 0 0 0 -1.6 0l1-.1h-.2.5l.3-.1h-.9a1.6 1.6 0 0 0 -.5 0h-1.2v.1h.5-.2l-.5.2h-1 1.3l-.4.1-.7.1-.5.1h-1.3 1.2a5.8 5.8 0 0 1 -1.4 0h.5l-.4-.1h.6-1.8 1l.2-.1h.2-3 .5-.3l.3-.1h.9l1-.1h.7v-.1h-.6v-.2c-.4 0-.6.2-1 .1h.3-2.3l.5.1-1 .1h.2-.9l.4-.1a1.7 1.7 0 0 0 .5 0h-1.2l.5-.1-1.4.1h.3-.3l-.5.1h-1.2c-.2.1-.1 0-.2 0h-1v.1h-.4l-.8.1s.3 0 0 0h-1.9.4a1.4 1.4 0 0 1 .5 0v-.1h-1.7l-.3.1h-.5a6 6 0 0 1 -.5 0h.6l.4-.1h1.6l-.3-.1 1-.1-4 .2v-.1h-1.7l-.9.1h-.6l-.8.1a10.1 10.1 0 0 1 -1.4 0h-.2 1.4a13.6 13.6 0 0 0 2.3-.2h.6-1 .2-2.7l-1.6.2h.2-2.4l-.4.1h-1 1.4l.6-.1h-1.2l-2 .2h-1l-2.2.2-2.8.2h-2.8l-2.5.3h.1l-1 .1h-.9l-1 .1h-.2l-2 .2-2.1.2-1.8.1-1.6.1-2.5.3h-.1 1.7l-1.6.2h-1c-.3.1-.6.2-.8.1l-.2.1h1-.5c0 .2-.3.3-.8.3h-.2v.1l1.7-.1-.4.1a24.5 24.5 0 0 1 -1.4.3l-.3.1h2-.2c-.1 0-.3 0-.2.1h-.4l-.6.1h.6v.2h1c.1-.1.3-.1.4 0h-.1l-.7.1h-.2l-1.1.2h.2l-.2.1h.9l-.7.1h.3-.1a8.7 8.7 0 0 0 1 0l.2.2h-.9.2-.8l-.2.1h1l-1 .2h.8-.3l.3.2h-.1.2c.2.2.2.2.5.1l-.2.1h-.4l-.3.1h.3a.8.8 0 0 1 .3 0 3 3 0 0 0 .9 0h.2a5 5 0 0 1 -.4.2 3 3 0 0 1 -.3 0l-.5.1a1 1 0 0 0 .5 0 2.3 2.3 0 0 1 .6 0c0 .1-.5 0-.4.2h.7l-.8.1h.7c-.2.1-.6 0-.7.2h1.4-.4l-.5.1-.2.2h1.9-.6l-.5.2h.7-.2l-.2.1h.7l-.5.2h.5-.8l.3.1h1.2l-.4.1h.2-.4v.2h1-.2.1l.4.1h1.9l-.8.1h1.6l2-.3 1.4-.1a56.9 56.9 0 0 1 1.7 0h-.3 1.2v-.1h-.3.2a5 5 0 0 1 1-.2 2.7 2.7 0 0 0 .6-.1h.7a5.2 5.2 0 0 0 1.3-.1h.3l.7-.2h.6-.2 2.3-.1.6-.2l.6-.1 1.3-.1h.7l.5-.1h1.4l.5-.2h2a12.8 12.8 0 0 0 2-.1l1.3-.1s.2-.1.1-.2h-1.2l-1 .1h.1-.5 1.4l1.3-.2.6-.1h1.2l.4-.1-.5.1h.4a2 2 0 0 1 .6 0h.4a12.5 12.5 0 0 1 1.5 0l-.2.1a13.2 13.2 0 0 0 .4 0l.2-.1.4-.1.4-.1h2.4l-.2-.1s.3 0 .2-.1h1.5a2.5 2.5 0 0 0 .8 0 15 15 0 0 1 1.9 0l.5-.2a4 4 0 0 0 1.1 0h1.2c-.3-.2-.6 0-.8-.1h.2v-.2h.6a2.6 2.6 0 0 0 .6 0h2.6l2-.1h.8c.2-.2.5-.1.7-.2h2a15.6 15.6 0 0 1 1.1-.1h1.4l1.3-.1h1.2-1.7l-1.2.1-1.8.1a9 9 0 0 0 -.5 0l-.1.2h.5l.7-.1h1.2l1.3-.1h1.3a20.8 20.8 0 0 0 2.9-.2 1.5 1.5 0 0 1 .4 0h1.3c.3-.1.3 0 .4 0l1.6-.2h2.6l2-.2h1.6a697.2 697.2 0 0 1 5.8-.3h.5l1.3-.1h.5a.7.7 0 0 1 .2 0h1.3l1.4-.1h2.3l2-.2h.6l.1.1h.7-.4v-.1h2.2l.6-.1h3.9l.6-.1h.4v-.1h2.6l.2-.1c-.1 0 0 .1-.2 0l-.1.1h2.6c0-.1-.2-.1 0-.2h.2s.3 0 .2.1h1.8c0-.2 0-.2.3-.2h.2l.2.1h.9-.1 1.6a1.2 1.2 0 0 1 -.4 0c.2 0 .3-.1.4 0l.3-.2h.4-.3l.5.1h1-.1l.3-.1h.4-.3 1-.3.5-.1a6 6 0 0 0 .6 0h1.4a4.6 4.6 0 0 1 .6 0h.4l.7-.1h4.8l1.3-.1a2.8 2.8 0 0 0 .7 0l.4-.1h2.3-.3.7-.2.8-.3l.5-.1h1.3-.1 1.1-.2 4.6l-.3-.1a4.4 4.4 0 0 1 1 0h2.4v-.1h.5l-.1-.1h4.6-.1.8-.2a.9.9 0 0 1 .4 0h3.5l.5-.1h4.2l.2-.2h.9l.2.1h1.5a4.6 4.6 0 0 1 .7 0h.4l1.8-.1a3.5 3.5 0 0 0 1 0h2.7l.3-.1a1.8 1.8 0 0 0 .6 0h10.6l1.7-.1h2.6a11.6 11.6 0 0 1 2 0h4.9a7.7 7.7 0 0 1 1 0l1.5-.1h.9-.2 1l1.2-.1h.6a2.8 2.8 0 0 1 .9 0h13a14.6 14.6 0 0 1 1.8 0 2 2 0 0 1 .7 0h1c.1 0 .3-.2.6 0 .3-.1.4-.1.8 0h4.9a36.4 36.4 0 0 1 3.3 0h.4a.5.5 0 0 1 .1 0h6.1a2 2 0 0 0 .5 0 1 1 0 0 1 .3-.1h6.7a2 2 0 0 0 .4 0h1.7a2.8 2.8 0 0 1 .9 0h4.9a10.4 10.4 0 0 0 .8 0h3.8a14 14 0 0 1 1.8 0h2.6l1.2.1h5.2a20.4 20.4 0 0 1 1.6 0h2-.4 1-.4l.3.1h5.8-.8.9a2 2 0 0 0 .5 0h2.1-.1.6-.4 4.1-.3l3.3.1h-2.3 4.6-1.2 4-.3a3.3 3.3 0 0 1 .5 0h1.7a3.2 3.2 0 0 1 .9.1h3.2a1.4 1.4 0 0 0 .4 0 1.7 1.7 0 0 1 .5 0h5.7v.1h1.4a2.2 2.2 0 0 1 .7 0 10.8 10.8 0 0 1 1.3 0h4.1l1.4.1h3.3l3 .1h5.8l1.1.1h5.5l1 .1h4.9l2.4.1h3.7-2 11.5a6.2 6.2 0 0 0 1.3 0s.2.1.2 0h1.2a11.2 11.2 0 0 0 1.8 0l1.8.1h-.2.4a2.2 2.2 0 0 1 .7 0h4.7a7.7 7.7 0 0 0 1 0 5.3 5.3 0 0 0 1 0l2.2.1h.3-.3 1.6-.3 1-.5 1.9-.3a11.2 11.2 0 0 1 1.8 0 51.5 51.5 0 0 1 3.3 0h.4a.8.8 0 0 0 .2 0 4.4 4.4 0 0 1 1.3 0h3.6l-.1-.1h-1.9a42.3 42.3 0 0 1 -3.6 0h-3l-2.1-.1h-2l-1-.1 22.7.2h-2.1l-.2-.1h2.6a9.8 9.8 0 0 1 .6 0h3.7l.8.1h.1-.5l.4-.1h1.3-.1 2.3-.5.8l.5.2h-.1l.5.2.7.1a20.8 20.8 0 0 1 .7.2h.2l.5.1h.6l.2.2a1.5 1.5 0 0 0 .6 0v.2h.7l.2-.1h.6l.3-.1c.1 0 0-.2-.3-.2a1.6 1.6 0 0 0 .4 0h.1l.1-.2h-.1l.7-.5h.2a1.3 1.3 0 0 1 -.3 0l-.1-.1h-.1c0-.2.3 0 .4-.1l-.3-.1.2-.1v-.1h-.2l.6-.1c.1-.1 0-.1-.1-.2h-.3l.3-.2a6.1 6.1 0 0 0 .5 0h-.1c-.2-.1-.2-.2-.1-.2h.5c.1-.1-.2-.1-.2-.2v.1l.3-.1.3-.2h.1c-.1-.1-.2-.2-.1-.3l.3-.1h.2v-.3c.4 0 .4 0 .1-.2l.4-.2c.3 0 .1 0 0 0 0-.1 0-.2.2-.2l.2-.1v-.3l.3-.2c.4 0 .3-.2.4-.3v-.1l.3-.1h-.3v-.2c.2 0 .2 0 0-.1h-.1l-.5-.1-.8-.2h-.7l-2.6-.1-2.7-.1-1.4-.1h-1.8l-2.7-.1a66.8 66.8 0 0 0 -3.4 0l-.6-.1h-10.3a63.5 63.5 0 0 0 -4.9-.1h-5l-1.7-.1h-6.9l-.4 0h-3.8a52.3 52.3 0 0 1 -6-.2h-1a24.6 24.6 0 0 0 -2.5 0h-4.4a20.8 20.8 0 0 1 -1.2-.1h-1.5a22.3 22.3 0 0 1 -1.2 0h-.2a16.2 16.2 0 0 0 -1.9-.1h-2.3l-1.7-.1h-4.6l-.6-.1h-.6a6 6 0 0 1 -1.1 0h-1.8a4 4 0 0 0 -1 0 2 2 0 0 1 -.4 0h-.6.2-.2a2.5 2.5 0 0 1 -.8 0h-2.6l.1-.1h-2.7.3a3 3 0 0 0 -.6 0h-3.2 1.7-4.3a3 3 0 0 1 -.5 0h2l-.3-.1h-1.9.2v-.2h-2.2.2-1.1v.1h-.3a3.8 3.8 0 0 0 -.6 0 2.2 2.2 0 0 1 -.5 0h-.2l.3-.1c-.2 0-.4-.1-.8 0h-.5.1-1.1l.4-.1h-1.9l.6.1h-3.1a71.8 71.8 0 0 1 -4.3 0h-.3.1-.4a2.8 2.8 0 0 0 -.8 0h-.8 1.2c-.3.1-.6 0-.6.2h-.6 1.9-3.4a19.5 19.5 0 0 0 -2.4 0 35.4 35.4 0 0 0 -2.4 0l.6.1a2.7 2.7 0 0 1 -.9 0h-1a25.6 25.6 0 0 0 0 .1h.4l.1.1h-2.5v.1h1.4a14.6 14.6 0 0 1 1 .1h-2.9l-.6.1h-.3 1l-1-.1h-3.4.7-.1l.2.1h-.2v.2h.4l-.1-.1h2.2c-.2-.1-.5 0-.7-.2h.8v.3h1v.1h.6a2.5 2.5 0 0 0 .7 0h1.3-.7l.5.1h-.1 1.5v.1h-1.7.2-1c0 .1.1.2 0 .2a2 2 0 0 1 -.2 0h-1.7l.1.1h-.6.2c-.3-.1-.6-.1-.8 0h.2-4.3 2.5l.3-.1h-1 .4c-.1-.1-.2-.2-.3-.1h-.5 2.1l.2-.1h-.4l-.2-.1a4 4 0 0 1 -.3 0h-1.4l-.2.2-.2-.1h-.5a10.9 10.9 0 0 0 -1.3 0h.1a1 1 0 0 0 -.6 0 2.8 2.8 0 0 1 -.8 0h-.7 1.9l.7.1h-.3c.1.2.5 0 .7.1h-1a18.6 18.6 0 0 1 -1.6 0h-.6.3l-.5-.1h-.5l-.3.1h-.9c0-.2 0-.2.6-.2h-.4.8v-.3h-1.4l-1.3.2h1.6-.3s-.3 0-.2.1h.5-.8.2-2.6.9-2.7.5-1.1c.2 0 .4 0 .4-.2h1a1 1 0 0 0 .3 0h.1-.3l-.7-.1h-2.9.2c0 .2.2.2.4.2h.7-.8c-.2 0-.2 0 0 0l-.8.1h-.7.9l-1.6-.1h-1.5 2l-1.6-.1h1.8l.3-.1h.4-.8a7.4 7.4 0 0 0 -.6-.1h.6-.5a9 9 0 0 0 -.5 0h-1.6.2-.4l2.3.1h-.2a1 1 0 0 1 -.2 0 1 1 0 0 0 -.5 0h-1l.4.1h-.6l-.1.1h-1.9.1-2.5.4l-.7.1h-1.2 1.3v-.1h-.2a16.6 16.6 0 0 1 -1.8 0h-1.4a15.5 15.5 0 0 1 -1.1 0h.2-2.3a27.2 27.2 0 0 1 -3 0h-1s-.1 0 0 0c.2 0 0-.1 0-.1h-1.1l-.7.1h-1.4.8l.3.1h.9l-.6.1h-1.4.2l1.2.1a4.4 4.4 0 0 1 1.5.1h-1c.2.1.5 0 .8 0a7 7 0 0 1 -1.3 0h-.3v.1h-2.4a12 12 0 0 1 1.5 0l.2-.1h-1.3s0-.2.2-.2h-.8a5 5 0 0 0 -1 0h1.3l-1.2.1v.1h.3a6 6 0 0 1 -1.2 0h.7-.4l-.8-.1a1.5 1.5 0 0 1 .5 0h.4l.4-.1h-.9a2.5 2.5 0 0 1 -.7 0h.6a2.2 2.2 0 0 0 -.7 0h-1.5 1.1v.1a5 5 0 0 1 -.8 0h-.7l.6.1h2-2.2l-1.1.1h.2l-.3.1h-1.3.1-2.8l-.9-.1h-2.4l1 .1h-3.2.3-1.3.3c.4 0 .8 0 1 .2h-1.8.5v-.2h-1.4.7-.9.2l-.2-.1h.8l.4-.1h.2-1.2a5 5 0 0 1 -.5 0h-2.7.5l.5.1h-.6a16.1 16.1 0 0 0 -2 0v.3a15.9 15.9 0 0 0 -1.1 0h.3c.1.2.4.2.6.3h.8-4.9v-.3h.2a1.2 1.2 0 0 1 .3 0h.6-.6c0-.1.3 0 .4 0l-.3-.1h-5.4s-.1.1-.4 0h.3-1.8a13.5 13.5 0 0 0 1.2 0v.1h1.3-.5l.6-.1h2.2c.2 0 .2 0 0 0h-.6l1.1.1h.5l-.7.1h-3.5a9.4 9.4 0 0 1 -1.7 0l.8-.1-1.1.1h.2-1.3l-1 .1h.6v-.2h1-.1l.4-.1h-.2a1.8 1.8 0 0 0 -.4 0h-1.7s.4 0 .3.1h.6-.4c-.3 0-.4.1-.5.2h-1.1a1 1 0 0 0 -.3 0h-.3.1a12.5 12.5 0 0 1 -1.8-.1h-1.8c.2 0 .5 0 .5-.2h.5c-.3-.1-.3-.1-.8 0h.1-.5l-.6-.1a11.2 11.2 0 0 0 .8 0h-2 .6-1c-.1 0 0 .2-.3.1h-1.6.1zm106.1-.3h-.3.6zm-106.1.5h.3-.6zm-88.9 1.8h.3-.6zm-39.5 4.3h.5-1zm22.4-3.6h.6-1.2zm228.7-3.7a.7.7 0 0 1 -.4 0h1zm-245 7.1h-.5l-.4.1h.9l-.2-.1h.3zm161-5.8v-.1h.5l-.4.1h-.4.4zm-26.3.5h-.2.8-1zm-83.9.9h-.3.4-.1.6-.8zm-107.5 7.8h.6a1.8 1.8 0 0 1 -.6 0zm239.2-9s0-.1.2 0a8.6 8.6 0 0 0 1 0h-1.8zm11.5-.4h.3-1c.6-.1.5-.2.9-.1h-.2zm-94.5.6.1-.1h.9a3.6 3.6 0 0 0 -1 .1h-.4zm75.8 0h1.5-1.6.8-1.3.4zm-87.5.7h-2.2 3.2a4.1 4.1 0 0 1 -1 0zm10.5.6a2.2 2.2 0 0 1 .7 0h-1.7zm105.1-1a4 4 0 0 1 -1.2-.1h1.8-.6zm-98.1-.8.9-.1v.1a3 3 0 0 0 -.7 0h-.2c-.1 0 0 .1 0 .1h-.7.3c.1-.1.3 0 .4 0zm112.4-.8-.1.1a4 4 0 0 0 -.4.1h-.3l.2-.1h-.3 1.2-.4zm-94 .7a4 4 0 0 1 1 0c-.2 0-.7 0-.7.2h-.2l.2-.1h-.6zm-118.2 2.4h-.2.1a13.3 13.3 0 0 1 1.3 0h-.5a1 1 0 0 1 -.4 0zm190.3-2.9h.6-.7.1a9 9 0 0 1 -.9 0h-.5a3.7 3.7 0 0 1 .7 0h.3a.9.9 0 0 1 .3 0zm-185.3 2.8h-.9a3 3 0 0 0 -.7.2h-.2.1-.9.2l1.2-.2h1.7zm41.4-.4h1.4-2.4a2.4 2.4 0 0 1 -.8 0l.7-.1h1.2-.1zm-21.6.2v-.2h.3l.3-.1h-.2.3-.1.6l-.5.2h-.5zm53.7-1.4h.4-.4l-.7.1h-1l.4-.2h.3l1.2.1zm72.4-.8h-1.3 2l-.7-.1h1.3-.5l.3.1h-.4l.3.1h-.7a1.7 1.7 0 0 0 -.4 0h.2v-.1zm-104.8 2.2 1.7-.2h.3l-.7.1h.5l-.1.1h-1.2.3-.7.2-.5.4zm78.9-.4h-3 3.4a5 5 0 0 0 .6-.1h3.6-3.5a17.3 17.3 0 0 1 -1 0h-.1zm3.1-1.5h.2a.8.8 0 0 0 .2.1h1.4l.1-.1h.8-.6 1.8l-.2.1h-2a12.5 12.5 0 0 1 -1.5 0h-.6.2l.2-.1h.6-.5zm70.7-.6h-.8a.8.8 0 0 1 -.2 0h-.7a5 5 0 0 1 -.5 0h-1.5a2.6 2.6 0 0 1 -.6 0h1.2c.1-.1.2-.1.4 0h.6a16 16 0 0 1 2.1 0h.4-.3zm-20.9.3c-.1-.2-.3-.2-.6-.2a1.1 1.1 0 0 1 -.2 0h-.2a2.3 2.3 0 0 1 -.7 0l.5-.1h-.2.6a4 4 0 0 0 1.4 0l.2.1a.7.7 0 0 0 .2 0 1.8 1.8 0 0 1 .5 0h-1.2l-.3.1c0 .1 0 .1-.4 0h.4zm-92.9.6h-.3.5-.2l1 .1a7.6 7.6 0 0 1 -1.8 0l-.7.1h-1.1.7l-.4-.1v-.1h1-.3 1.3-.2zm88.6-1.1h1.3-2.2a.6.6 0 0 0 -.2 0h-1.9.1-1 .4-4.3l.3-.1h2.9a10.2 10.2 0 0 1 1.7 0h2.9-.1zm8.3.3a1 1 0 0 1 .3 0h1-3v.2h-.5l1.2-.1h1-.7v-.1h-.3a.4.4 0 0 1 -.2 0h-1.8l.3-.2h-.5s.2-.1.4 0h.8a10.2 10.2 0 0 1 1.5 0h-.6l-1.5.1h1.9l.5.1zm-118.8 1.5h-.4l-.2.1h2.2a178.7 178.7 0 0 1 3 0h-2.2l-.1.1h-2.3c-.1.1-.1 0-.2 0h.4-1.2a1.5 1.5 0 0 1 -.4 0h-.2c.3 0 .5-.1.8 0 0-.1-.2-.2 0-.2h2.7zm26.7-.3h6.1l.1-.1h-.3l.4-.2c.2-.1.6-.1.8 0h.6-.9l.2.1h-.4v.1h-.3v.1h1.5-1.1l-1.3.1h-3.8a18.7 18.7 0 0 0 -1.9.1h-8.7a2.8 2.8 0 0 1 -.7 0h6.1l3-.1h.8a3 3 0 0 1 1-.1h-1zm128-1.8h-.7l-.2.1 2.5.1h-.1l-.1.1a.5.5 0 0 1 -.2 0h-2a1.7 1.7 0 0 1 -.4 0h-1.5.7l-2.3-.1h-.9a8.7 8.7 0 0 1 1.6 0h.3a12.1 12.1 0 0 1 .5 0v-.2h-3.2a1.5 1.5 0 0 0 -.4 0l1 .1h-1.6l.3-.2h1.3-.9 4a5.8 5.8 0 0 0 1.2 0h1zm-114.5 1.3a5.4 5.4 0 0 1 -.8 0h-.4a2.8 2.8 0 0 1 -.8 0v.1h-.3.5l-.1-.1h1.3v-.1h-1.8a4 4 0 0 1 -.7 0l1.8-.2h2.3-.5.4l-.7.2h1l-.4.1h.5-.3l-.5.1h-.5zm63.4-.4h-3.1c-.3.1-.5.1-.8 0a1.3 1.3 0 0 0 -.5 0 1 1 0 0 1 -.5 0h1l.6.1h.3c-.3-.2-.7 0-.8-.2h.4l-.2-.1h1.2-.8c.1.2.4.1.7.2h1.3l.2-.1h-.8v-.1h.7a4 4 0 0 1 1 0l-.7.1h1l-.5.1zm55.7-.7h2.7l1 .1h.9-.6c-.1 0 0 .1 0 .1h-4.6l-1.4-.2h-.2l.3-.1h1.1-.3 1-.2 1-.5.3zm-146.4 1.8h-3.7a1.2 1.2 0 0 0 -.3 0 2.1 2.1 0 0 1 -.7.1h-2.9 2.7a8 8 0 0 0 1.3 0l3-.1a9.6 9.6 0 0 1 .5 0zm27-.4h2.2a22.5 22.5 0 0 1 1.9 0h2.7c.3-.1.6 0 .8 0h.1-3.3a18.6 18.6 0 0 0 -1.8 0 4 4 0 0 0 -1.1 0zm25.1-.2h3.6a23.8 23.8 0 0 0 2.3 0h3.5a13.3 13.3 0 0 1 -1.4 0h-1a29 29 0 0 1 -3.4 0l-.4.1h-3.2zm25.8-.5h.6l.3-.1h.5a2.3 2.3 0 0 1 .8 0 .7.7 0 0 0 .2 0h.7-.1.3v.1h-.1a1 1 0 0 1 -.3 0h-2 .2-1zm-33.3.7h1.3l-1-.1h1.3l1-.1h.7-.4 1-.3 1.5-.3c0 .1-.2.1-.2 0-.3 0-.6 0-.7.2l-.3-.1h-2.1c0 .2-.1.1-.3.1a3.1 3.1 0 0 0 -.8 0h-.5zm92.2-2.1h-.6a1.2 1.2 0 0 0 -.4 0h-2.8v-.2l-.3-.1h3.1l.7.1h.2zm-77 1.6h3.8l-.7.1h-.7a48.1 48.1 0 0 0 -3 0h.2l.2-.1h2.6-1a.4.4 0 0 0 -.1 0zm-91 1.3h1.8l.5-.1a60 60 0 0 1 1.5 0l-.2.1-.2-.1h-1l-.2.2h-2.2v-.1h-.4.6zm167.9-2.8a8.8 8.8 0 0 1 1.9 0h2.4l-.1.1h-4.2zm-167 3.5h-.7a4.7 4.7 0 0 1 -1.3 0l.3-.1h.2-.6l1.2-.2h-.6.9c.3 0 .4 0 .4.2zm115.6-2.1a4.5 4.5 0 0 1 -.6 0h-.9l-.5-.1-.6-.1a3.6 3.6 0 0 1 .9 0l.5.1a32 32 0 0 1 2.1 0h-.8zm-98.6 1.6-.8-.1h1.8-.3a8.5 8.5 0 0 1 1.5 0l-1.4.1h-1.5zm-22.1.3a51.2 51.2 0 0 1 -3 0h.4-.7 1.7-.4zm-68.6 1.5-2.4.1h.3l.1-.2h-.7 2.4-1.5l.4.1zm180.5-3h4.2-.3a3 3 0 0 1 -.5 0zm60.8-2h.8a14.5 14.5 0 0 0 2.4 0l1.7.1h.3a24.3 24.3 0 0 0 -1.7 0h-3.5zm-38.2.9h1.4a25.2 25.2 0 0 0 2 0h-.2a2 2 0 0 0 -.7 0zm38.7-1h2.2a11 11 0 0 0 1.2 0h.5zm-.5 0h-3.1l-.9-.1h1.6a48 48 0 0 1 2.4 0zm-17.9 1.7h.6-1.6l.4-.1-.4-.1h-.4 1.3l.8.2zm-162.8 1.5h.4a1.8 1.8 0 0 1 .8 0h.5a1.2 1.2 0 0 0 -.6 0v.1h-.3l-2.1.1h-.3 1.6zm194.1-2.4a6 6 0 0 0 -1.1.1h-1.5l-.3-.1zm-51.1.5h-2.8a8.2 8.2 0 0 0 -1.4 0h-.7a2 2 0 0 1 -.5 0 22.2 22.2 0 0 1 2.3 0h2.9zm8-.1a5 5 0 0 1 -1 0h.4l-.2-.1.4-.2h1-.3v.1h.6c-.5.1-1 0-1.5.2h.5zm102 4.7h-.1.6-3.3zm-100.4-4.2h1.9a13 13 0 0 1 1.4 0l-.7.1h-2.7zm-62 .2a5 5 0 0 1 1.8 0h-.4a6 6 0 0 0 -.6.1 2 2 0 0 1 -.3 0 1.3 1.3 0 0 0 -.5 0h-.3.9l.1-.1zm-108.7 5.2a14.2 14.2 0 0 0 -.7 0h-.3.6-.3l2-.1h-.4v.1l-1.1.1h.2zm99.3-4.9h3-.5a3.3 3.3 0 0 0 -.8 0 1.6 1.6 0 0 1 -.7 0l-.3.1zm-.5.1h-2.5 1.6a3.6 3.6 0 0 1 1 0zm56-1.2h.2a33.5 33.5 0 0 1 3.4 0h-.5l-.6.1h-.2a4.3 4.3 0 0 0 -1.2 0h-1zm29.5.4h1.7a3.7 3.7 0 0 1 -1.3 0h.5zm-58.6 1h-.6l-.5.1h-.6.4-.2l-.6-.1h-.6 1.6-.6zm77.7-1.7h2a3 3 0 0 0 -.7.1 3 3 0 0 1 -.6 0h-.2a3 3 0 0 1 -.5 0zm-131.8 2.5.4-.1h-1.4 2.4-.6c-.3 0-.5.1-.8 0zm90.9-1.8h-.1c-.3.2-.6.1-1 0h-.6zm-141.3 2h-.5l-.2.1h-.6.1-.1c.2-.1.3 0 .4 0l.5-.1h1.2-1.1zm22-.3a26.1 26.1 0 0 1 1.3 0h-1.4zm-94.3 1.1-3 .2.7-.1h-.3 2.7zm77.3-1h.2a13.2 13.2 0 0 0 1.5-.2h.6a1.7 1.7 0 0 1 .6.1h-2.6zm-9.6.6h2.3-.6a8.3 8.3 0 0 0 -1.2 0zm147-2.2h.8a1.2 1.2 0 0 1 .3 0h.6-1.8zm-188 3h1.7v-.2h1.1l-.8.1h-.3l-1.6.1zm14.9 2.8-3 .1h1.5l.3-.1h.4a2.4 2.4 0 0 1 .7 0zm203.3-7h1.8l.3.1a6 6 0 0 1 -.9 0h-.8a7.8 7.8 0 0 1 .7 0c-.3.1-.5.2-1.1 0zm-64.6 1h1.1-.4l.3.1h-.9l-.2-.1zm-102.9 2h.4 1.6.5-.7l-1.6.1zm68.1-1h-.2a3 3 0 0 0 -.5 0h-1.3 2.1zm-22-.4h-.9.4-.3.3a12.3 12.3 0 0 0 .5 0zm133.9-2-.3.1h-1.7.2a8.9 8.9 0 0 0 1.5 0h.3zm-207.6 4.7h.5c-.3 0-.5.1-.8 0h-.6.6l.4-.1h.2zm44-2h1.6l-.5.1h-1zm80.4-.6h2.3zm-44.8.6-.9.1h-1.1 2zm-112 1.8-3 .2 1.5-.2zm117.2-2.2h3.4zm23.5-.5h-.2.9c.3 0 .5-.1.8 0h-1.7zm-113 1.7v.1h-1.8 1.8zm-25.2.9h-.3a7 7 0 0 0 -1.1 0 7 7 0 0 1 -.8.1h-.3l2.2-.2h.2zm-40 6.5-2.8.3c.9-.2 1.9-.3 2.9-.3zm243.6-9.7a4.8 4.8 0 0 1 .7 0h1.4zm-46.4.9c.2-.1.4-.2.6-.1h1-1.6zm-89.2 1.7h1.1-.4l-.4.1zm167.3-3.5a1 1 0 0 1 -.5 0h-.9 1.5zm-66.4 1.8h-1.5c.1-.2.1-.2.3-.1a1 1 0 0 0 .5 0h.6zm-153.5 5.3-.7.1h-1 .6l.5-.1zm125.6-5 1.7-.1h-1.5.2-.4zm20-1.3-.3.1h-.7 1zm-62.3 1.1h-1.2a1.4 1.4 0 0 1 -.4 0h1.7zm-4.4.4h-1.8a7 7 0 0 1 1.7 0zm-51.9 1.1h.5a15.3 15.3 0 0 0 1.8 0h-2.2zm188.5-2.4h-.6a1.6 1.6 0 0 0 -.5 0h-.6zm-110.9 1.1h.7a17 17 0 0 1 .2.1h-.9zm118-1.4h-.7l-.5-.1h1.1zm-32.3.2h.9l-.7.1h-.2zm-56.9 1h1.8-.3v.2h-.6.4-1.3zm90.9-1.3h1.3zm-98.2 1.6h.6c.2-.2.4-.2.7-.1h-1.3zm67.1-1h-.9a4.3 4.3 0 0 0 .5 0 1.2 1.2 0 0 1 .5 0zm-238.5 8.5s-.3.2-.5.1h-.5 1zm228-8.6h-.4a18.5 18.5 0 0 1 -1.4 0zm-103.7 1.2h1.7zm71.1.1h-.4l.9-.1zm27.2-1.7-.6.1h-.6 1.2zm-109.6 2.1h1.4zm31.4-1.4h1.2zm-147.7 8.7-1.5.2c.1-.2.5-.1.7-.2zm168.7-8h1.1zm-107.2 4.7h-.1.2a58.4 58.4 0 0 1 1.3 0zm219.7-6.3-.4.1a3.2 3.2 0 0 0 -.8 0v-.1zm-30.3.3h.2a2.6 2.6 0 0 0 .3 0 1 1 0 0 1 .3 0c.2 0 .1 0 0 0a5 5 0 0 1 -.8 0zm-81 .7h-.5zm-125.6 5.9c.3-.2.8-.1 1.1-.1h-1.1zm15-.5h.1a11.8 11.8 0 0 0 1.2-.1h.3zm228.7-6h1.9-2zm-274 8h-1.3 1.3zm33.8-1.5h.7c.2 0 .5-.1.8 0h-1.6zm-29.5 1.4h-1zm209.3-7.5h-.3l-.2-.1h.8-.5.2zm-126.9 1.8a5.1 5.1 0 0 1 -1.4 0zm189.7-2.5h-1.7 2zm-93 .7h.4s-.1 0 0 0h.7a3.2 3.2 0 0 1 -1.1 0zm-39.1 1.8h-.1a8 8 0 0 1 -.9 0zm-100.6 3.9a5.2 5.2 0 0 1 -1.5 0zm112-5.9a8 8 0 0 1 -1.2 0h1.3zm42.5-.2h-1.4zm-96.5 1.5a4.4 4.4 0 0 1 1.1 0zm51.9-.8h-1.2zm-89 1.7h1.1-1zm171.4-1.9a3.6 3.6 0 0 1 1 0 2.3 2.3 0 0 1 -1 0zm-205.5 6.2.4-.1h.5-1zm121.5-6.3h-1zm94.7-.7h-.8l.3-.1h.6zm-193.9 3.5h-1zm12.2-1h.3l.2-.1h.2l-.7.1h-.1zm4.3 1.3h-.6l-.5.1h-.3zm15.8.4h-.8zm263.5.6h1.4zm-273.3.5-1 .1h1zm169.8-6h.2a1.3 1.3 0 0 0 .4 0h.3-1zm-153.4 2.5h1zm71.8-.3a3.6 3.6 0 0 1 -1 0h1.1zm19.7-.7h.2v.1h-.5l-.3-.1zm-27 .4h-1.2 1.3zm-30.6.2a4.5 4.5 0 0 1 -1.3 0zm-70.1 1.6h-.5a2 2 0 0 1 -.6 0zm18.5-.2h-1zm71.5-1.3h1a4.2 4.2 0 0 1 -1 0zm101.2-1.3-.5-.1h.8zm-52 .7h.1a3.2 3.2 0 0 1 .8 0zm-47.7 1v.1h-.7.8zm14.6-.7h1.3a3.9 3.9 0 0 1 -1.3 0zm21.6.2h1.4zm40-1.4h1.2a3 3 0 0 1 -1 0h-.1zm.5.4h.6zm-116 1.7h.2-.3l.8-.1zm-39 .4h.6-.5zm106.8-2h.7zm11.5 1.6h-1.2zm59.1-1.3h1.2zm-72.7.6h.5l-.2.1h-.3zm-63.5.2h-.9zm-81.2 1.8h-1zm99.9-2.3h-.7zm144.3-1v-.1h1.4-1.4zm-121.6 2.1h1zm105.3-1.7h1zm-78.2 0c-.3.1-.5 0-.8 0zm-91.8 2.6h.4l.2-.1h-.2.6-.3l-.4.1zm-76 .8h1.4-1.3zm218-3.8h.8-.7zm41-.6h-1zm-72.9 1.6h.9-.2a1.8 1.8 0 0 1 -.7 0zm39-.9a2 2 0 0 1 .8 0h-.9zm-146.8 2.4h1a5 5 0 0 1 -1 0zm185.8-3.8h-.8zm-72.4 2.4-.8-.1h.8zm58.3-2.5h.6l-.3.1h-.3zm-291.7 8h.5c.1-.1.2 0 .2 0a2.3 2.3 0 0 1 -.7 0zm303.8-6.5h-1.1zm-267.7 4a5 5 0 0 1 -1.2.1h1.2zm95.2-1.6h.8zm4.2-.4h1zm32.2-1.2h-.8zm103-.6h-.7zm28.6-1h-1zm-184 4h-1.3 1.4zm60.3-1.9h1zm129.5-1.9h.9a2.4 2.4 0 0 1 -.9 0zm-225.9 3.7h-.4l-.3.1.6-.1zm19.3-1.1h1.2zm111-1.1h1.3zm69-.4h1zm-81.8 1.2h-.9a2.5 2.5 0 0 1 1 0zm-101.1.6h.3l-.3.1zm188.6-2.5h1zm-259 3.5h.9zm121-1.5a12 12 0 0 1 -.9 0h-.4 1.4zm-56 .8h-.6zm-42.4 4.7h.6zm221-7-.4.1v-.1h.5zm-66.3 1.7h-.9.8zm61-1.7a2.7 2.7 0 0 1 -.6 0zm-182.7 4.7h.7zm111.5-3.4a3.2 3.2 0 0 1 -1 0zm45.6 0a5 5 0 0 1 -.8 0zm105.8 3h-1zm-189-3h.7c-.2 0-.4.1-.8 0zm96-2h.6a2.2 2.2 0 0 1 -.7 0zm-54 1.5h-1a1.8 1.8 0 0 1 1 0zm-67.4.6h-.6zm51.4.1h-.4a5 5 0 0 0 -.4 0zm-27 .6-.7.1h-.1.8zm99.3-2.3c.3 0 .5-.1.8 0zm21.8 0h1.1-1zm-17 .4h.7a3 3 0 0 1 -.8 0zm-78.7.8h-1zm-81.5 1h.5zm55.6-.8h-.9a2.8 2.8 0 0 1 .9 0zm-104.4 1.6h.8zm-44.3 1.8h-.7.8zm142.3-2.3h.8zm78.2-2.3h-.4s-.1 0 0 0zm-222.5 5.3.5-.1h-.5zm197.7-4.9h.7zm90-.5h-1.1v-.1h1zm-191.2 2.1h.7zm8 .1h.8-.7zm-29.6 1.2h-.8a2.7 2.7 0 0 1 .8 0zm123.8-1.6h-1zm101-2h-.8zm-27.2 3.9h-1zm-15-3.3-.3-.1a2 2 0 0 1 .6 0l-.2.1zm-210.9 6.7h.6zm81.9-5.2a3.6 3.6 0 0 1 1 0zm77.4-1.8h-.5zm34-.1h-.6.7zm-132.1 1.7h.3-.6c.2 0 0-.1.4 0zm60.4.3h-.6zm-55.4-.2h-.6zm-77 5.5h-.6a1.6 1.6 0 0 1 .6 0zm256.7-7.5a2.8 2.8 0 0 1 .7 0zm-13.9-.2h.9zm-132 2.2a2.7 2.7 0 0 1 -.7 0zm26.4-1h-.8zm46.7 1h-.5zm.5-.8h-.8zm-18.3-.2h.6zm-79.2 1.6h-1zm227.3 2h1zm-223.3-1.9h-.7zm-82.6.2h.6zm-7.5 1c0-.2.3-.1.5-.2h.2l-.7.1zm162.3-2.3h-.8zm-16.7-1h.8zm-4.2.7h.7zm-11.7 1h.6zm142-3.5a2.6 2.6 0 0 1 .7 0zm-118.7 1.7h.7a2 2 0 0 1 -.7 0zm-74.3 4.4h.8zm74.4-4.3h-.5zm-39.1 1.5h-.7zm73.6-1.9h.6zm-5.1 1.8h-.6zm5-1.8h-.5zm-45.4 1.6h.7-.4a2 2 0 0 1 -.3 0zm71.2-.7h.7zm-138.3 1.6h-.3a1.3 1.3 0 0 1 -.5 0zm138.2-.6h.6zm-110.3-.2h.9zm119.1-1.8h.6zm-137.8 1.9h.7zm140.6-.7h-.5zm.3-1h.7zm-162 2.2h.7c-.3 0-.5.1-.8 0zm-20 0h-.6a2 2 0 0 1 .6 0zm204-3.7h.7a2.4 2.4 0 0 1 -.6 0zm-221.5 4.4h.6zm141.5-2.6h-.5.6zm91.6-2.3h.8zm-235 8.3h.7zm158.6-5.5h-.5zm-18 .5h-.4l.3-.1h-.2.2zm-81.9.3h-.6zm56.2-.8h-.5zm58.7.8h.5zm-74.7-.9h-.4zm-43.3 1.3-.4-.1h.2zm158-2.7h.6zm-183.9 2.6h.6zm237.3-1.6h.7zm-177.6 0a1.8 1.8 0 0 1 -.8 0 1.4 1.4 0 0 0 .5 0zm-1 1.1h.8zm102.8-1.3h.4zm-150 2.4h-.7zm84.4-.7h-.6a1 1 0 0 1 .4 0h.1zm-185.4 7.4h.4zm23.3-1-.6.1h.6zm158.3-7.1h.5zm-65.2 1.4h-.6zm163.8-4.4h.4l-.4.1zm.7 2h.4zm26.4-1.8h-.6zm-172.5 3.3h.7zm-8 .6h.5zm-65.6 4.2h.6zm82.1-5.6a1.1 1.1 0 0 1 .6 0zm52.6 0v-.1h.7-.7zm-52-.3h-.4a.7.7 0 0 1 .2 0zm68.4 0h-.5zm4.5.4h.7zm57-1.1a2 2 0 0 1 -.7 0h.6zm-185.5 5.2h.6zm94.9-4.6h-.6zm-.5 0h.5zm58.7.2h.6zm-67 .1a.8.8 0 0 1 -.3 0h-.1zm-101.5 2 .6-.1h-.6zm132-2.9.4.1h-.3zm-30 1.5h.4zm-126.5 5.5h.4zm248.9-7.2h-.7zm-96 1.3h-.4zm-90.7 2.1h-.4zm-3.2-1h.6zm-.1 0c-.1.2-.2.2-.5.1h.5zm28.3-.5h-.5zm-35.9 2.2h.7zm.2-.5c-.1.1-.2.1-.4 0zm47.4-1.4h.5-.6zm-129.5 6.9c.1-.1.1-.1.4 0zm122.5-7.2h.9zm48.6-.3h.4zm-118.1 1.1h.7-.6zm124.3-1.7h-.4v-.1h.4zm-138.6 5.7h-.5zm-26.1-3.8-.7.1h.7zm156.5-1.5h.5zm97.2-2.6a.9.9 0 0 1 .3 0zm-70.1 2.9h-.3zm-174.4 1.9a1 1 0 0 1 -.4 0zm224.6-3.4h.5zm33.9 0v.2h-.2.1zm-163.8 2.5h.5zm-31.5 0h.3zm109-1.3h.4-.3zm-59 .3h.6zm77.8 0h-.6zm63.8-3h.5zm-25.1 1.3h.3zm-115.1 1.7h-.5zm32-.3h-.4.5zm2.3 0h-.4zm-134.7 5.4h-.6zm217-6.1h.4-.3zm14.7-.3h.4zm-130.9 1c-.2.1-.2.1-.4 0zm37 1.8h-.4zm-67.7-1.7h-.3zm-45 2h.5zm104-2.8h.3-.4zm137.5 3.8h.5zm-186.9-2.6h-.4zm-108.7 6.2h-.6zm258.7-9h.4zm-219.3 4h.5zm174.6-2.7h-.3zm-76.5 1h.5c-.2.1-.4.2-.5 0zm120-1.4h.4zm-119 .5h.4zm-46.5 1.5h.4zm-57.1 4.6h.5zm247.6-5.8a1.6 1.6 0 0 1 -.5 0zm-291.1 8.3h-.5zm63-5h.4c0 .1-.2.1-.4 0zm195.6-3.4h.4zm63.8 4v.1a3 3 0 0 1 -.5 0h.5zm-246.7.7h-.5zm76-3c-.2 0-.2 0 0 0zm102.6-2.3h.5zm-12 0h.4-.5zm-160.6 3.4h-.5zm-52.1-.7h.5zm145-1h-.4.5zm109-3h.4zm-52 .6h-.5zm15 1h-.4zm-8-.2h-.6a2 2 0 0 1 .7 0zm-144.4 3.2h-.6zm-72.4 4.3h-.4zm174-7.2c.2 0 .3-.1.4 0zm53.2.1h-.4.3zm-185.8 3.9h.5zm-2.9.2a1.2 1.2 0 0 1 .5 0zm132.3-3.3h-.4zm-.8-1h.4zm43.8-.6h.4zm-185.2 5a5.3 5.3 0 0 1 .4 0zm171.4-3.8h-.5zm-31.1-1 .2.2c-.2 0-.3 0-.2-.1zm54 .4h-.2zm-47.3 0h-.3zm-92.6 1.4c.1-.1.1-.1.4 0zm-63.2 5a1 1 0 0 1 .6 0zm111-5.4h.4zm-41.8 1h.5-.1a.9.9 0 0 1 -.4 0zm0 2.1h.3zm99.6-3.5h.3zm-202.6 7.6h.5zm345.1-4h-.3zm-190-3.1h-.4zm191.7 3.2h.3-.4zm-191-2.6h-.4.3zm76-1.8h-.3zm-175.6 5.6h.4zm59.4-4.7h.3zm-50.4 1h-.3zm102.3-1.2h-.6zm-100.4 4.4h-.4zm165.2-4.7h.2zm113.2 4h.4zm-368 1.5h.3-.4zm216.3-5.8h-.3zm21.6 1h-.3zm-235.5 8.9h-.4zm90.7-5.5h-.5zm34.8-.9h.4zm-125.3.9h.5zm254.2-4.5h-.4zm-163.3 1.7h.3zm.4 1.4a.6.6 0 0 1 .3 0zm1.2.4h.4zm186.6-4.4h-.3zm-120 1.3h.4-.3zm40.5-.1h-.3.4zm-60.6 1.8h-.3c-.1 0 0 0 0 0zm46.4-1.6h.3zm41.8-.4h-.3zm19-.4h.4zm13.6-.2-.2-.1h.2zm-155 3.3h.4zm184.9-3.7h-.3zm-249.6 8h.3zm251.2-8h-.5.1a1 1 0 0 1 .4 0zm-122.8 3h.5zm123.1-3.8h-.3zm-258.5 4.9h-.4zm213.6-1.7h-.4zm-69.2-1.3h-.2zm-156.2 8.2h.3zm150-7.2h.6-.5zm109.5-1.3h.2zm-206 5.2h-.4zm4.3.3h-.4zm-4.6-2.7h-.2zm40.8-1h.4zm55.6-.6h.2zm-30 .2h.4-.3zm133-.8c.2-.1.3 0 .4 0zm-21.8-.6h-.3zm.4.2h.3zm-230.5 2.8h-.3zm106.2 1.2h-.4zm-104.5-1.2h.3zm104.2-.6h-.3zm57.2-1.6h-.4zm-155.8 2h.3zm223.6-1.7h.3zm-2.8-1.5h-.5zm-112.8 2.4h.2zm32.2-.3h-.2zm-135 5.8h-.4zm58-4.8h.4zm56.7.9h-.4zm36.7-2.7h.4zm16.5-.8h-.4zm-80.4 2.3h-.4zm161.7-2.5h-.2zm-181.6 4.7h-.4zm0-.5h.3-.4zm20-1.7h.2zm123.4-2.2h.4zm-142.4 4h-.4zm-61.7-1.4h.2zm245.7-3.2h.3zm-165 4.8h.3-.4zm50.4-2.8h.4zm75.7 2h.4zm-54.2-2.8h.2zm-49 1.6h.5-.4zm-106.3 4.4h.3zm288.9-2.3h-.3zm-278.1 2.3h.2zm67.6-4.4h.4zm-9.4-.4h-.2zm-54.6 4.7h-.4zm-37.5 2h-.4zm106-7.3h.4-.3zm2 .9h.2zm25.4-.2h.3zm81.5-1v.1zm-71.6-.4-.3.1h.3zm26.2 1h.2zm-29.4-.4h.3zm-91.1 1.9h-.1zm.1 2.6h-.3zm227.7-5.6h.2zm-262.3 3.4h.3zm36.2.3h.3zm-48.4 4.7h-.3zm50.6-2.6a.7.7 0 0 1 -.4 0zm42.8-4.2h.3zm144.7-.5h-.2zm20-2.1h-.3zm-163.6 5.5h-.5zm162.3-4.2h-.2zm-162.2 1.3h-.4zm75.5-1.4h.2zm-45.8.4h.3zm11-.1h-.4zm-157.5 4.1h.3zm154.8-2.9h.3zm30-1.6h.2-.3zm89.2-.7h-.2zm-63.9.7h-.2zm-65 1 .4-.1h-.3zm-120 7.2h.2-.3zm188.7-7.3h-.2zm-132.2 1.3h-.4zm40 0v.1h-.2.3zm97.4-.2h-.3zm-138.7.9h.4zm-1-1.1h.2zm3.4.3h-.3zm1.6 3h-.2zm-83.3-.6h-.2zm86.5.6h.3zm54.3-4.2h-.2zm76.8-.6h-.2zm-142.6 3.6h-.2zm15 .4h.2zm100.5-4h-.2zm-61.8 2h.1zm143.6-2.8h.2zm-144.2 2.9h.2zm-57.1 0v-.1h.2-.2zm86.6-1.2h.4zm19.4-.9h-.2zm-83.3 1.6h-.1zm243.1 2.4h-.3zm-66.4-5.5h-.3zm-72.9 1.5h.3zm-102.2 2.3h-.2zm-28.5-.3h.3zm58.7-.1h-.2zm133.1-2.8h-.1zm-195.4 6.7a3 3 0 0 1 -.4 0zm97.8-5.6h.2zm85.4-.5h-.2zm-49.5 0h-.2zm-169.7 7.9h-.3zm256.2-9.8h.2zm19.4 1.8h-.3zm-205 4.6h.2zm92.5-4.3h-.3zm76.3-.6h.2zm-152.3 2.7h.2zm119-1.6h-.1.2zm67-1h.4-.3zm-.5-.7h.2zm-69 .5h-.3.2zm-57.3 1.8h-.2zm76.6-1.3h-.2zm-137.7 4.5h-.3zm183-6.2h.2zm-34.1 1.6h-.2zm-220.8 7h-.2zm106.4-4.8h.3zm36-2.4h.2zm-140.4 2.7h.2zm65.3 2.1h-.3zm185.5-5.6h-.3zm-250.7 4h-.1zm174.4-2.6h.1zm72-2v.1h-.1zm-93.5 2.3h.2zm-.9.2h-.2zm-91.3 3.7h.2zm146.6-3.6h-.1zm-80.2.4h.2zm27.3.6h-.2zm100.5-2.2h-.1zm-161 .8h.3-.2zm-83 3.7h.2-.1zm231.4-5.5h-.2zm-49.5.7h.1zm-177 4h.3zm202.2-2h.2zm-37.6-.9h.3zm-125.7 2.8h.2zm114.2-2h.2zm105-2.8h.2zm-220.3 5.8h.2zm84.1-2.6h.2zm-117.1.5h.2zm57.4-.8h.2zm2 .1h-.1zm0-.2h.2zm20 .4h-.2.3zm17.3-.2h.2zm-63.7 0h.2zm30.8.6h-.1zm26.3-.5h.2zm-58.7 1h.3zm158.4-3h-.2zm28.7-1.3h-.2zm-212.2 7.3h-.2zm188.1-6.2h.2zm-165.4 2.3h.2zm87.8-.8h-.2zm-2.8.4h.3zm-101.8.8h.2zm.4 0h-.1zm200.5-3.2h-.2zm-3.4.5h.1zm-138.6 2.8h.1zm-137.1 5.3h-.2zm112.5-5h-.2z"/></g></svg>