<svg fill="none" height="22" width="295" xmlns="http://www.w3.org/2000/svg"><path d="m137.2 3.6-.2-.1h-3.5l-.1.2h-.5c0-.1-.1 0-.1 0h-2l-.3.1v.2l.5-.2v.2h.2c.3 0 .6 0 .8-.2h.4l-.2.1h.8-.5c.2-.2.4-.1.6-.1h.5-.3v.2h.7c.2-.2.4-.2.6-.2h.4-.1c.2-.2.2-.2.3 0l.4-.2.1.1h-.3l.6.1v.2h-1.2l-1 .1h-.4c-.1.2-.3.1-.5.2v-.3l-.4.2v.2h.1c.1-.1.3-.1.4 0h1.1c0 .2-.1.2-.2.2h-1.6s.3 0 .2-.2h-.9l.2.1h.2a.6.6 0 0 1 -.5 0 1 1 0 0 0 -.6 0v.1c-.4 0-.8 0-1.2.2l.2-.4h.4l-.2.2h.9l-.1-.2h-.5l-.3-.2a6.6 6.6 0 0 1 -1-.1h-.8l.2-.1h.7c.2 0 .2 0 .3-.2h-.3l.4-.2h-1.8l-.3.1.1-.1h-1.9a1.3 1.3 0 0 0 -.8.1.8.8 0 0 1 -.6 0h-.1l-2.4.1.5.1h.3a1 1 0 0 1 .6 0l-.3.2v.1s0 .1-.1 0l-1 .1h.5c-.2.1-.5 0-.6.2l-.5-.1h-.8l-.5.1-.2-.1h-.4c.2-.1.2-.2.3-.1h.4l.2-.1h.2c0-.2.3-.2.4-.3l-.8-.1c-.2.1-.5 0-.7.2h.6-.3l-.3.1-.3.1.3.1a3 3 0 0 1 -.7.1l.2.2h-.6l.2.1h.2l.2.1-.6.1h-.2l-.5.1h-1.3.2-.7l.6-.3h-.5a1 1 0 0 1 -.4-.1h-2.4v.2h-.1l.1-.2h-2.6.1c0-.1.1-.1.2 0v-.4h1.9l-.4.1h2l-.3-.1h.8a4.5 4.5 0 0 0 1 .1h.6l-.3-.2h.8v-.1h-1.5l.5.1h-1.1.2c.1 0 .2.1.4 0l-.1-.1h-.7l.1-.1h-.7a12.9 12.9 0 0 1 -2 .2 6 6 0 0 0 -.9 0l-1.9.1h-3.1v.1l-1.9.1c.2.2.4 0 .5.2h-.3c0 .1 0 .2.2.2h.2l.8-.2h.1l.2-.1.6.1.7-.2c0 .2-.3.1-.4.2h1.6l-.2-.2h.4c0 .2 0 .1.1 0h.7-.4l.2.1h.7l-.3.2h-.7l-.4.1h-.3.1v-.1h-1l-.4.1a1 1 0 0 1 -.5 0h-.1l-.6.3h1.4l-.5.1h-1a1.4 1.4 0 0 1 -1 0l.2.2-.8.1v-.2c.2-.1.4 0 .4 0l.2-.1h.8l.2-.1v-.1l-.2-.1h-.2a1 1 0 0 0 -.3 0l-.6.1h-.9l-.3.2h.2l.3.2a2 2 0 0 1 -.8 0h-.3v-.1l.4-.1h-.4v-.2h-.9v.2h-.5l1 .3c-.5 0-1 .2-1.4.1v-.2l-.2.2-.9.2v-.2c.1 0 .2 0 .2-.2l-.7.1.2.2-.3.1h-.2a1 1 0 0 0 -.7-.1l-.7.1h-.3l-.2-.1.2-.1h1.3l.2-.1h-.5v-.2l-.5.2h-.5l.2-.1h-.5v.1h-.5l-.5.1h-1.4l-.3.1h-.6a7 7 0 0 1 -1 .1l-.4.1v.1l-.9.1h.3l-.1.2h-.7a3 3 0 0 0 -1.3.1h-.5v.1l-.1.1h-.2c0 .2-.2.2-.2.3h.4l1.4-.2h.2l.2.1-.6.2h.6c-.4 0-.7.2-1 0v.1h-.5.4l-.2-.2h-1.1l.3.2h-.2c-.1.2-.3.2-.6.2-.2 0-.4.2-.6 0l.5-.1-.6-.2-.1.1.2.1h-.6.3l-.2-.2h.8l.3-.3h.9c0-.1 0-.2-.2-.2h-1.3c.2.2.4 0 .5.3h-.5l-.1-.5 2.1-.1h-.6l.6-.2-.8.1h-.6l-1.2.1a4 4 0 0 1 -.3 0l-.8.1h-.1l-.9.1h-.7v-.2l-.8.1-.2.1h-.4.2c-.2.2-.2.2-.3 0 0 .1-.1 0-.1 0h.1a3 3 0 0 0 -.9 0h.4v.1h-.6l-.3.2h.3c0 .2-.2.3-.4.3h-1a26.6 26.6 0 0 1 -1.4 0h.6-.1l.2-.2h-.5a1.2 1.2 0 0 1 -.7 0h-.3l-.4.2h-.7l.2-.1h-.2.2v-.1l-.1-.2h.2l.6-.1 1.1-.1h1l.3-.2-1.6.1-1.7.2v-.1h-.8a1 1 0 0 1 -.6.1h-.5.1v-.1h-.6v.1h-.2l-.6.2c-.2 0-.4.2-.7.1l-.3-.2-.6.2h-1c-.3.2-.6.1-1 .1h.3a1.3 1.3 0 0 0 -.8 0h-.3c-.3 0-.6-.2-1 0h-.4c0 .2-.5.1-.6 0h-.7l.6-.1h-1.1l.4.1h-.5l-.2.2h-.2v.1a1 1 0 0 1 -.5.2h-.6a.5.5 0 0 0 -.4 0h-.9v-.4h.4c-.5 0-.9 0-1.3.2l-.2.1c-.1 0-.3 0-.4.2h-.2c0-.1 0-.2-.1-.1h-.5l.3-.2-.8.1v.2h-.1a1 1 0 0 0 -.3.2l-.5.1h.2c0-.2-.2 0-.4-.1l.3-.1h-.5l-.5-.2.6-.1h-1l-1 .1h-1.3l-.6.1h-.1c-.1.2-.4.1-.5.1l-.4.1h-.3l-.5.1s-.1 0 0-.1h.3l1-.2h.2-1.4.3l.3-.1-1.5.1c-.2 0-.2 0-.1.2l-1 .2v-.3h-.5l-1 .2h-.2c-.1-.2-.2 0-.3 0a2 2 0 0 1 -.8.1h-.2l-.1.2h-1.5c-.3.2-.5 0-.8.1-.2 0-.4 0-.6.2a.2.2 0 0 1 -.1 0h-.8l-.1.1h-.4.2-.9.4l-.2-.1a3.8 3.8 0 0 0 -1 .1h-.1l.7-.2c.1-.1 0-.1-.1-.2h.3l.2-.1h-.5a.5.5 0 0 0 -.4 0l-.5.2h-.4.4v.1h-.2l-.3.3h-.4l-.4.2h1-.3l-.5.2-.4.2h-.4l-.4.1h-.1c.3 0 .6 0 .8-.3a1.8 1.8 0 0 1 -1 0h.1l.2-.1-.2-.1.4-.1-1.3.1.7-.1.2-.1.1-.1-2.2.2.4-.1h-.2l.1-.2.7-.1.8-.1h.5v-.2h-.5v-.2c-.3 0-.4.2-.7.1h.2l-.2-.1-.1.1c-.3-.1-.4 0-.6.1l-.3.1-.2-.1h-.2l-.2.1c.1.2.3 0 .4 0l-.7.3v-.4h-.3.4l.2-.1c-.3-.1-.6 0-.8 0l.3-.1-1 .2h.2l-.2.1h-.4c-.1.2-.2 0-.3 0l-.1.1-.5.1h-1v.1h-.2l-.5.2c0-.1.1-.2 0-.2a5 5 0 0 1 -1.3.2l-.2-.1h.3l.2-.1h.2a3 3 0 0 0 -.8 0h-.5l-.2.2h-.8.1l.4-.2.3-.1h.6l.6-.1h-.2l.8-.3-3 .4v-.2h-.3l-.6.2h-1.2l-.4.1-.5.1a3.1 3.1 0 0 1 -1 .2h-.2c.3-.2.7-.2 1-.3h.3a39.3 39.3 0 0 0 1.8-.3h-1.6l-.8.2h-.1c-.4 0-.8 0-1.2.2h.1s-.2.1-.2 0h-.7l-.7.1h-.3l-.2.2h-.8l.5-.1h.5l.5-.2h-.8l-1.6.3-.7.1-1.6.3-2 .4h-.9c-.1 0-.3.1-.4 0l-.5.1h-.4l-1.8.4-.7.2h-.3l-.3.1-.8.2h-.2l-1.5.4-1.5.3-1.3.3-1.2.2-1.8.4h-.2.7c0 .1.2 0 .2 0h.4l-1.1.4a6 6 0 0 1 -.9.2c-.2 0-.3.2-.5.1l-.2.1h.8l-.4.2c0 .2-.2.3-.6.4h-.1v.1l1.3-.2a2 2 0 0 1 -.3.3l-.9.3-.2.1-.2.3h1.5-.2s-.2 0-.2.2h-.1l-.5.2h.5v.2h.9l-.1.2h-.5l-.1.1-.9.3.2.1-.1.1h.6l-.5.2h.2v.1h.6l.2.2h-.7l-.3.1-.2.2.2.1c.2 0 .3-.2.5 0l-.7.1v.2h.6-.2l.2.2c-.2.1-.2.1-.1.3h.5v.1h-.3v.3h-.4c.1.1.2.2.3.1a.3.3 0 0 1 .2 0l.4.1h.5l-.3.2-.2.1-.4.1h.3a.7.7 0 0 1 .5 0c0 .2-.4.1-.3.4h.6c-.2.1-.5 0-.7.2h.6c-.2.2-.5 0-.5.3.3 0 .6-.2 1 0h-.4v.1l-.3.1-.2.3h1.4l-.5.2-.4.1c.2.2.2.2.6.2h-.3c0 .2.1.2.2.2h.3c0 .1-.3 0-.4.2h.4-.2l-.1.1h-.2l.2.2s.3-.1.4 0h.4l-.2.1v.1h-.1l-.1.3h.1l.7-.2-.2.2v.1l.3.1.3.1a7 7 0 0 1 1.1-.2c0 .2-.3.2-.5.3h.1l1-.2 1.4-.4 1.1-.2a18.1 18.1 0 0 1 1-.2l.2.1-.2.1 1-.1h-.3l.1-.2.7-.2h.3l.2-.2.2-.2h.3c.3.1.6 0 .8 0h.2c0-.2 0-.2.2 0l.5-.3h.5l-.2.1 1.7-.3v.1h.4-.1v-.1l.4-.1a8 8 0 0 1 1-.2l.2.1s0-.1.2 0h.1c0-.2.2-.2.3-.2.2 0 .2-.1.4 0h.1l.6-.2.4-.1h.2c.2-.2.4-.1.7-.1h1.4l.3-.2h.3l1-.2s.2-.2 0-.3l-.8.2a4 4 0 0 1 -.8 0l.1.1h-.4.4c.2-.2.4-.3.7-.3h1l.4-.2h.6l.2-.2h.4l-.4.2.1.1h.2a.6.6 0 0 1 .4 0h1.4v.1c.3 0 .7 0 1-.2a4 4 0 0 0 -.8.1l.1-.2.4-.1.3-.2h1.4l.4-.1h-.2c.1-.1.3 0 .2-.2h1.7a4.6 4.6 0 0 1 1.4-.1c0-.2.2-.2.4-.3a1.2 1.2 0 0 0 .8 0h.5l.4-.1c-.2-.2-.4 0-.6-.1h.2v-.1c.1 0 .3-.1.4 0a.8.8 0 0 0 .5 0c.2-.1.5-.1.8 0h.4l.7-.2h1.5l.5-.2h.2l.5-.1h.3l.7-.1h.6l.3-.1.5-.2h.9l1-.1h.7-.2l-.2.1h-.8a4 4 0 0 0 -.9.2l-1.3.2h-.4v.2h.3l.5-.1h.9c.3-.2.6-.2 1-.2l1-.1 1-.2h.6l.5-.1h.3l.5-.1h.7l1.2-.1.6-.1 1.3-.2 1.5-.1.5-.2h.7l2.3-.2c.7 0 1.4-.2 2-.3h.4c.3 0 .6 0 1-.2 0 .1.1.2.3 0a.2.2 0 0 1 .1 0h1l1.1-.1h.8l.3-.1h.1c.2-.1.2-.1.4 0l1.5-.2.3-.1h.2l.1.3.5-.2h-.3l.4-.1h.2l1-.1.5-.1h.4l.2.2s0-.2.2-.1l.8-.2h1.2l.5-.1h.3v-.4l.2.2v-.1h1l.2-.1h.3s0 .1.1 0h.2-.2v.1h1l.8-.1h.1c0-.1-.1-.1 0-.2h.2s.2 0 0 .1h1.4v.1h.2c0-.2 0-.2.2-.2h.1l.2.2h.5l.2-.1-.1.1h1.1v-.2a.4.4 0 0 1 -.3 0h.3l.2-.2h.3-.2c0 .2.3 0 .4.2l.2-.1.2.1v-.2l.3.1c0-.1 0-.2.2-.2h.2l-.2.1h.4s.2-.1.2 0h.2l-.3-.2h.4v.1h1.7l.1-.1h2.7l.6-.2.2.1h1l.9-.1h.3l.2-.1.3-.1h1.7-.2l.5-.1-.1.1h.6l-.2-.1.3-.1h1-.1v.1h.8v-.1h2.7l.6-.1h-.2l.2-.1h.5c.2-.1.5-.1.8 0h1v-.2h.3v-.1h3.4-.1.6-.1a.3.3 0 0 1 .2 0h1.1s0-.2.1-.1h1.5l.3-.1h2.5l.7-.2h2.9c.5-.1 1 0 1.3-.2h2.8l.2-.2.2.1h4.1l1.3-.1h2.7l1.3-.2h5.3l1.6-.1h1.8l.3-.1h.3-.1c.1 0 .3.1.4 0h.4c.2 0 .5 0 .8-.2l.2.2h.3a.9.9 0 0 1 .6 0h4.2v-.1h6.9a.6.6 0 0 1 .5 0h.8s.2-.3.4-.1c.2-.2.3-.2.6 0h3.6a11 11 0 0 1 1.3 0h6.1a.6.6 0 0 0 .3 0h1l.6-.1h1.1c0 .1.1.1.2 0h2.3a.6.6 0 0 0 .4 0h2.8c.5.1 1 0 1.6 0h2.7l.5.1h3.9c.2.2.4 0 .6 0l1 .1h3.7l.7.1h1.9-.2.7-.2 4.5-.6l.2.1h.5a.6.6 0 0 0 .3 0l.3-.1h1.3v.2h.4l-.3-.1h3-.2l2.5.2-1.8-.1h3.5-1l.3.1h2.7-.2 2l.3.2.2-.1h1.5c.1 0 .1.2.3.1h1.1-.1 4.3v.2l.5-.1h1.1a3.3 3.3 0 0 1 1 0h.8l1 .1h1.1l1 .1 2.5.1 2.2.1h1.5l1.8.1h1.9l1.3.1h1.5c.4.1.9.2 1.3.1l.8.1h1.7l1.9.1 1.7.1 2.6.1h.2c-.5-.1-1.1 0-1.7-.2h3.4l2.3.2h7.6l-.1.1h5.8c.5.1 1 .2 1.6.1h.2-.2.7c.2-.2.3-.2.4-.1h-.2.8-.4.8l.6.1h-.2v-.1h3.1a9.4 9.4 0 0 1 .8.1l.2.1h.2l.4-.2h.7l1 .1h1.5l-.1-.2h-1.4a12.7 12.7 0 0 1 -2.7-.1h-3.8l-1.5-.1a5 5 0 0 1 -.7-.1c5.6 0 11.2.3 16.8.4l-1.5-.1-.2-.2h3.4l1.7.2h.7-.4l.4-.2h.9l-.1-.1h.7v.2h1-.4.6l.4.2v.2l.3.3.5.2h.6v.2l.1.2.4.2c.1 0 .3.1.4 0l.1.2h.5v.4h.5l.2-.2h.4l.3-.2s0-.2-.3-.3a.5.5 0 0 0 .3 0l.1-.2v-.3l.5-.7h.2v-.1a.4.4 0 0 1 -.2 0l-.1-.1v-.1l-.1-.1c0-.2.2 0 .3-.1l-.2-.1.1-.2v-.2l-.2-.1.5-.1v-.3c-.2 0-.2-.1-.3-.2l.2-.1h.2l.2-.1v-.1c-.2-.1-.2-.2-.2-.3h.4c.1-.2 0-.2-.2-.3l.1-.2.2-.3c0-.2 0-.2.2-.2v-.1h.1v-.1l-.2-.4.2-.3.2-.1v-.2c.3-.2.3-.2 0-.3l.4-.4c.2-.1 0-.2 0-.2l.1-.3.1-.2v-.4l.3-.2c.3-.1.2-.4.2-.6l.1-.2.2-.2-.2-.1v-.3c.1 0 .1-.2 0-.2h-.1c0-.3-.2-.3-.4-.3l-.6-.2-.5-.2-1.9-.1-2-.2-1-.1-1.4-.1-2-.1a20.1 20.1 0 0 0 -2.5-.1h-.5l-.4-.1h-2.7l-1.5-.1h-3a19.1 19.1 0 0 0 -3 0h-.6l-1-.1h-2.8l-1.3-.2h-5l-.3-.1h-.9l-2-.1h-1.2c-.3-.1-.6-.1-.8 0l-.4-.1a2 2 0 0 0 -.8 0h-.2c-.2-.1-.6-.2-.9-.1h-2.6l-.1-.1c0-.2-.2-.1-.4-.1h-2.7a6.4 6.4 0 0 1 -1-.2h-2.1a5 5 0 0 0 -1 0h-.3c-.2 0-.2-.1-.3-.2h-2.7l-.8-.1h-1a4 4 0 0 0 -.5 0l-.5-.1-.5.1h-.1a1 1 0 0 0 -.4-.2h-2.6a1.2 1.2 0 0 0 -.9 0h-.7.2s0-.1-.1 0h-.3a1 1 0 0 1 -.3 0h-1.9v-.1h-1.5a1 1 0 0 1 -.5 0h.2a1 1 0 0 0 -.4 0h-2.3l1.2.2h-2l-.4-.1h-1a1 1 0 0 1 -.3 0l.2-.1h1.3l-.1-.2h-1.4.1-1.6.2-1v.2l-.2-.1h-.5a.7.7 0 0 1 -.3 0h-.2l.3-.2c-.2 0-.4-.2-.6 0h-.4l.1.1h-.9c0-.2.3-.1.4-.2h-1.4l.4.2h-2.3a21.7 21.7 0 0 1 -2.4 0h-.5c-.1-.2-.2-.2-.3 0 0 .2 0 0-.2 0h.1v-.2a1 1 0 0 1 -.4 0 .8.8 0 0 0 -.5 0h-.3a1 1 0 0 0 -.3 0c0 .1.2 0 .4 0l.4.2-.4.1h-.4l1 .1.4.1h-4.3l-1.6-.1h-.2l.4.2h-.3a1 1 0 0 1 -.3 0h-.7l-.7.1.3.1h.7l-.1.1h.1l-.3.1-1.6.1 1.1.1 1.1.1h-1.9l-.6.2a2 2 0 0 0 -.4 0h-.2c.1-.2.5 0 .7-.1a3 3 0 0 0 -.7-.1h-.5a2 2 0 0 1 -.5 0h-1.5.5v.2h.1-.1v.4h.3l-.2-.2h1.7c-.1-.1-.4 0-.5-.3h.6v.3l.7.2h.5a.8.8 0 0 0 .5 0h.9c0 .2-.2.1-.4.2h.3v.1h1l.1.2h-.5c-.3-.1-.6 0-.8 0h.1-.6v.2h-.3c-.1 0-.2 0-.3.2h-.9l.2.2h-.5l.1-.3h-.6l.2.2h-3.2l.1-.1h1c.3 0 .5-.1.8 0l.2-.1-.8-.1h.3c0-.2-.1-.2-.2-.2l-.3.2h-.1c.1-.3.4-.2.6-.2l.2.1h.3l.4-.2h.2-.3c-.2 0-.2 0-.2-.2h-.7v.2h-.5l-.2.1-.1-.1h-.3l-.1-.1h-.3a2 2 0 0 1 -.7.1l.1-.1c-.1-.1-.2-.1-.4 0l-.3.1h-.6l-.2.1h1.4l.6.1h-.3c.1.3.4 0 .5.2l-.7.1h-1.6l.2-.2-.4-.1a1.8 1.8 0 0 0 -.6.2c-.1-.3-.4-.1-.6-.1 0-.2 0-.2.4-.2h-.3v-.1l.6-.1v-.3l-.3.1h-.4v.1h-.2c0-.1-.1 0-.1 0-.3 0-.6 0-1 .2h.8c.2 0 .3-.1.4 0h-.2c0 .1-.2 0-.2.2h.4l-.5.1h-.1v-.1s-.1-.1-.2 0h-1.6.6-2 .4c-.6.2-.7.2-.8 0 .1-.1.3-.1.3-.3l.3-.1h.4a.3.3 0 0 0 .2 0l.1-.1h-.7a3 3 0 0 0 -.6 0 3 3 0 0 1 -.9 0h-.7l.1.1c0 .1.2.2.3.1h.6v.1h-.6c-.2 0-.2 0 0 .1-.2 0-.5 0-.6.2l-.5-.1c.1-.2.4 0 .6-.2h-2.3 1.5v-.1h-1.2c.5-.1 1-.2 1.4-.1.1 0 .2 0 .2-.2h.3-.2c-.2-.2-.3 0-.5 0h-.5v-.1h.5c-.1-.2-.2 0-.4-.1h-1.5l.1.1h-.2l1.6.2a.3.3 0 0 1 -.3 0h-1.1c.1.2.3 0 .4.1l-.5.2h-.1l-.2.1v-.1h-.4c0 .1-.2 0-.3.2h-.4l.1-.1h-.8c-.3 0-.4 0-.4-.2l-.7.1.3.1a1 1 0 0 1 -.5.1h-.9c0-.1.1 0 .2 0h.2l.3-.2h.3-.1a5 5 0 0 1 -.8 0h-.6c-.2 0-.3 0-.3-.2l-.2.3-.3-.2h-.3a4.7 4.7 0 0 1 -.8 0l.1.1-1.1.1h-3.4l-.1-.1c.2 0 0-.2 0-.2h-.3c-.1.2-.3 0-.5 0-.1.1-.4 0-.5.3h-1 .6l.2.1h.7a1 1 0 0 1 -.4.2h-1.2l.1.1 1 .1a1.4 1.4 0 0 1 1 .1l-.7.1c.2.2.4 0 .6.1h-1v-.2l-.2.1v.1h-.1l-.2.1c0 .1-.4 0-.4 0l-.2-.1h-.9 1.3v-.3c-.2 0-.5.1-.8 0l.1-.4-.4.1h-.9l1 .1h-1v.3h.3-.9c.2 0 .4 0 .5-.2h-.9l.2-.1h.5l.2-.2h-.6a.8.8 0 0 1 -.5 0c.2 0 .3.1.4 0a.7.7 0 0 0 -.5 0l-.5.1h-.6c.1.1.3 0 .4 0h.4v.3l-.6.1h-.5 1.7l.2.1h-.3l-.6.1h-1.5l.1.2h-1.1v-.1h-.5c0 .1-.2.2-.3 0v.1h-.8l-.5-.1-.7-.1h-.5a1 1 0 0 1 -.7 0l-.6.1.8.1h-2.1v.1h-.3l.2-.2h-1l.3.1v.1c.3 0 .6 0 .8.2h-1.4.4l-.1-.2h-1l.5-.1h-.6v-.1h.1l-.1-.1h.6c.2 0 .2 0 .3-.2v-.1h-.6l-.1.1h-1.2l-.5.1c-.3-.1-.5 0-.8 0h.3l.4.1c-.2.1-.3.2-.5.1h-1.5v.2h-.2l-.6.1h.3l.4.3h.6l-1 .1h-1.8v-.1h-.5l-.2.1-.1-.1v-.1h.1a.4.4 0 0 1 .3 0h.4v-.3h-.4.2l-.2-.2a1 1 0 0 0 -.3 0l-.3.1-.3-.1h-1.1c-.7.2-1.3 0-2 .2 0 0 0 .1-.2 0h.1-1.3v-.1h1v.2h.2c.1-.2.3 0 .5 0l.2-.2h-.4.5v.1l.2-.1h1.4c.1 0 .1 0 0 .1-.1 0-.3-.2-.5 0l.9.1.3.1-.5.1v-.1h-1.6c-.2.2-.5.2-.7.2h-1.4l.6-.3-.8.2h.1-.2c-.2-.2-.5 0-.8 0v.1h-.7.4v-.3h.8l-.2-.2h.4-.2a.5.5 0 0 0 -.3 0h-.1l-.3.1-.1-.1c-.1 0-.3-.1-.4 0h-.4c.1.2.3.1.3.3h.4-.3c-.2 0-.3 0-.4.3 0-.2-.3-.2-.5-.2h-.3l-.2.2v-.2h-.2v.2a3.8 3.8 0 0 1 -.6 0h-.3l-.1-.1-.3-.1h-.3l-.5.1h-.5c.2-.1.4-.3.3-.5h.5c-.3-.2-.3-.2-.7 0h.1-.3s-.3 0-.5-.2h.3l.3-.1h-1.5c.4 0 .4 0 .5.2h-.8s0 .3-.2.2v-.1h-1.3.1zm78.6-.5h-.2.4zm-78.6.9h.2-.3s0 .1-.2 0zm-65.9 3.3h.3-.4c0-.1.1-.2.1 0zm-29.2 8c0-.2.2-.2.3-.1h-.3c-.1 0-.3.1-.4 0 .2-.1.3 0 .4 0zm16.6-6.7h.2c0-.1.2-.1.2 0h-.9zm169.3-6.5h-.2c0-.1.1-.1.2 0h.5zm-181.4 12.9c-.1 0-.2.1-.4 0l-.3.1h.3c.1-.2.1-.2.4-.1l-.1-.1.2-.1zm119.3-10.6v-.1h.3l-.3.1h-.2.3zm-19.5 1-.2-.2h.6l-.4.1-.1.2-.2-.1zm-62.1 1.4h-.3.6c-.3.2-.3.2-.5.1h.2zm-79.8 14.2-.8.2.8-.2h.5zm177.2-16.5h1c-.2.2-.3 0-.5 0h-.4l-.3.2v-.2h-.2c.3-.1.3-.1.4 0zm8.6-.7h.2-.8c.5-.2.4-.2.7-.1zm-70 1.2v-.3c.5 0 .6 0 .7.2h-.4a1 1 0 0 0 -.3.1h-.3zm56-.1c.4-.2.8 0 1.2 0 0 0-.1.1-.2 0h-.9.6-1 .4zm-64.7 1.3v.1h-1.6 2.4a1.3 1.3 0 0 1 -.8 0zm7.8 1.2a.7.7 0 0 1 .6 0h-.6v.1h-.7.4l.2-.1zm78-2h-.5a1 1 0 0 1 -.5 0l.2-.1.6.1h.1l.4-.1v.2h-.4zm-72.8-1.3-.1-.2h.7v.1a1 1 0 0 0 -.5 0h-.2v.2l-.1-.1-.3.1.1-.2h.4zm83.2-1.4v.1l-.3.2-.3-.1.2-.2h-.3 1.1-.3zm-69.6 1.1a1.2 1.2 0 0 1 .7 0c-.1.1-.5.1-.5.4h-.1l.1-.2h-.4zm-87.5 4.4h-.2.1a4.2 4.2 0 0 1 .8-.2l.1.1h-.1l-.1.2h-.6zm141-5.2c.2-.2.2-.2.5 0h-.6.1-.7c-.2 0-.3 0-.3-.2h.7a.3.3 0 0 1 .2 0v.2zm-137.3 5c-.1.2-.3.2-.4.2h-.3l-.5.2h-.2l.1-.1h-.6l1-.1.9-.1h.4-.4zm30.6-.6h1-2l-.3-.1h1.4v.1zm-15.9.3v-.1h.2c0-.1.2 0 .3-.2h-.2.6a2 2 0 0 0 -.4.4c0 .2 0 .2-.3.1h-.1v-.2zm39.9-2.5h.3-.3l-.5.1c-.2.1-.3.1-.4 0h-.4l.2-.3.3.1.9.1zm53.6-1.6-.2.1c-.2 0-.3 0-.5.2h-.2v-.2h1.2l.2-.1h-.5c.3-.2.6-.2 1 0h-.5.3l-.3.2.2.1h-.8l.1-.1zm-77.7 4 1.2-.2.2.1h-.5l.4.1-.1.2h-.9l.2-.2h-.5l.2.2h-.4l.1-.2h.2zm58.5-.7h-1l-.7.1h-.7.2c.2-.2.4 0 .6-.1h1.9l.3-.1h2.7-.2a2 2 0 0 0 -.6 0h-1.2l-.6.1h-.8zm2.3-2.6.1.1h1.2l.1-.2h.6l-.5.2h1.3-2.7c-.1.1-.2.1-.4 0h.2l.1-.2h.4c-.1 0-.2.2-.4 0zm52.3-1.3h-2.7a.8.8 0 0 1 -.5 0l.9-.1h2.1l.2.1h.3zm-15.5.5c-.1-.2-.3-.2-.4-.2a.3.3 0 0 1 -.2 0h-.1v-.1h-.3l-.3-.1h.4l-.1-.1h-.1.5l.5.2h.7a.2.2 0 0 0 .1 0 .5.5 0 0 1 .4 0c0 .2 0 .2-.2.2h-.7l-.2.1h-.3zm-68.9 1.2h-.2s.2-.2.2 0h.2l-.1.2h.6l-.5.1a1 1 0 0 1 -.5 0 .3.3 0 0 0 -.2 0h-1.4.5-.3v-.2h.8l-.3.1h1-.1.2l.2-.1zm65.7-2.1h.3c.2-.2.4 0 .7 0h-1.7a.2.2 0 0 0 -.1 0c-.2 0-.5 0-.7.2h-.7v-.1l-.1-.1c-.3.2-.3.2-.6.1h.3v-.1h-.1a3 3 0 0 0 -.6 0l-.6.1-.3-.1h-1.5c0-.1 0-.2.3-.2h2s.1 0 0 .1h3.5zm6.1.6h1l-.1.1h-1.1a3 3 0 0 0 -1 0v.2h-.2l-.2-.2.9-.1h.7-.4l-.1-.1c-.1-.1-.2 0-.2 0h-.7l-.8-.1.3-.3h-.4c0-.1.1-.2.3-.2h1.2l.5.1c-.2 0-.3.1-.4 0l-1.1.3h1.3l.4.2h.2zm-88 2.9h-.3l-.1.1h1.7a54 54 0 0 1 1.8-.1h-.7c-.2.1-.4 0-.6.2h-1c-.2.2-.4.2-.6 0 0 .3-.2.2-.3.2-.1-.1.1 0 .2-.2h-.2l-.7.1h-.2l-.1-.1c.1 0 .3-.2.5 0v-.3h1l.8-.1h.2v.1h-1.4zm19.8-.9.2.1h4.4v-.3l-.2-.1c.2 0 .2 0 .3-.2s.4-.2.6-.1l.4.2h-.6l-.2.2v.1l-.2.1h1.1l-.3.1h-.5l-1 .1h-.6a4 4 0 0 1 -1 0h-1.3l-1 .2a1.5 1.5 0 0 1 -.8 0h-.2a2 2 0 0 1 -.6 0h-2.2v.1h-.5v-.1h-1.8l-.8.1a.8.8 0 0 1 -.5 0h.2l.2-.1h2.7l1.5-.2h2.6l.2-.1.3-.1h.4c-.3 0-.5.1-.8 0zm94.8-3v.1h-.6c.2.1 0 .1 0 .2l1.8.1-.1.1h-.2c-.1-.1-.3 0-.4 0h-.9l-.2.1a.6.6 0 0 1 -.3 0h-1.1.5v-.1c-.6-.1-1.2-.2-1.7-.1l-.1.1h-.2l-.1-.1h-.3a2.7 2.7 0 0 1 1-.2h.5v.1h1.3l-.3-.1a1.1 1.1 0 0 0 -.6 0l-.1-.1a2 2 0 0 0 -.3 0h-2.4c.3.1.6 0 .8.2h-1l.2-.5h1v.1h-.7 3.9zm-84.8 2.5h-.3a.9.9 0 0 0 -.6 0 .9.9 0 0 1 -.5 0h-.1v.3h-.2c.1-.2.1-.3.4-.3h-.1l.1-.1h.4v.1h.5v-.2c-.4 0-.7-.2-1 0l-.3-.1h-.5l1.3-.2h.6l.4-.2h.7l-.4.2h.4l-.6.3.7.1-.2.1h.4l-.3.2h-.6l-.2-.1zm47-.8-.5.1h-2.7a.3.3 0 0 1 -.3 0h.1l.5-.1c.2 0 .4 0 .5.2l.2-.2c-.2-.1-.5 0-.6-.2h.3l-.1-.2h.9l-.7.1c.1.2.4.1.5.2h.5c0-.1.2-.1.4 0h.2l.2-.2h-.7l.1-.1h.5a1.2 1.2 0 0 1 .8.1c-.2 0-.4 0-.6.2h.8l-.4.1h.2zm41.2-1.3 1 .1h1l.8.1h.6l-.3.1h-.1v.2h-.3v-.2h-.5l-1.4-.1h-1.1a3 3 0 0 1 -1.1-.1v-.2h-.1l.2-.1h.4c0-.2.2 0 .4 0h-.3 1.4-.3l.2.1h-.4zm-108.4 3.3a2 2 0 0 0 -1 .1h-1.8a.4.4 0 0 0 -.2 0l-.2.1h-.6l-1.4.1h-.4v-.1h1.6l.2-.1h1l2.2-.2h.3l.1.1zm20-.7h1.2l.4-.1h3.5c.1-.2.3 0 .5 0h.1l-.8.1h-1l-.6.1h-.4a5.6 5.6 0 0 0 -1 0 1.3 1.3 0 0 0 -.8 0h-1.1zm18.6-.4h6.9a4 4 0 0 1 -1 0h-1.8a16.2 16.2 0 0 0 -1.4.1h-.3c-.1 0-.4 0-.6.2h-.2v-.2h-1.6zm19.1-1h.4l.3-.1h.3a.7.7 0 0 1 .6 0 .2.2 0 0 0 .1 0h.6l.2.1-.1.1h-.4c-.3.2-.6.1-.8.2h-.1v-.2h-.5l.2.1-.8-.1zm-24.7 1.4h.9v-.2h-.7l1-.1.8-.1v-.1h.5l-.3.1h.7-.2c0-.2.2-.1.3-.1 0 .2 0 .2.2.2h.6-.4c-.2 0-.4 0-.5.2l-.2-.2v.2h-1.2v-.1s-.2.2-.4.1c0 .2 0 .1-.2 0a1 1 0 0 0 -.6 0h-.3zm68.3-3.8h-2.5l-.3-.1v-.3l-.2-.1h2.3l.5.2.2.1zm-57 3h3a5 5 0 0 1 -.5.2h-.6a14.5 14.5 0 0 0 -2.2 0l.1-.2h.2l.2-.1h1.7c-.3 0-.5.1-.8 0h-1.1zm-67.3 2.2.2-.2h1.3a18.2 18.2 0 0 1 1 0v.1l-.2-.2-.5.1v.1h-.2l-.2.1h-.6a2 2 0 0 1 -1 0l-.2-.1h.4zm124.2-5.1h3.2-.9l-.2.2h-.3c0-.2 0-.2-.3-.2h-1.4zm-123.7 6.3h-.6l-.5.1h-.4c0-.2.1-.2.3-.2h.1l-.4-.1 1-.1-.4.1h.7c.2 0 .3 0 .3.2zm85.5-3.8h-.1a.7.7 0 0 0 -.6 0h-.4l-.4-.2-.4-.1a1 1 0 0 1 .7 0l.3.2a10 10 0 0 1 1.4-.2h.2l-.6.2v.1zm-72.9 3-.6-.1h1.3l-.2.1h1.2-.1l-1 .1h-1.2l.5-.1zm-16.4.6a15.6 15.6 0 0 1 -2.2.2h.3c-.2-.2-.4 0-.6-.2h1.3-.3zm-50.8 2.7c-.5.2-1.2.3-1.8.3.1 0 .3 0 .3-.2v-.1h-.4l1.8-.3-1.1.3.3.1h1zm133.8-5.3.3-.1h2.8l-.3.1a1 1 0 0 1 -.3 0zm45-3.6.6-.1h1.8l1.3.1h.2zm-28.3 1.4h1l1-.1.6.1s-.1.1-.2 0a.6.6 0 0 0 -.5.1h-1.9zm28.7-1.9.7-.1h1.5a1.2 1.2 0 0 1 .6.1zm-.4 0h-2.2l-.7-.1c.2 0 .5-.2.7 0l.4-.1a14.4 14.4 0 0 1 1.8.1zm-13.2 3.1h.4-1-.2l.3-.1c0-.2 0-.2-.3-.2h-.3l.2-.1h.5l.1.1.2.1.6.2zm-120.7 2.8h1.2-.2l-.1.1h-.1l-.2.1-1.6.2h-.2l1.2-.2zm143.9-4.3h-.1a2 2 0 0 0 -.8.2h-1.1l-.2-.3h2zm-38 .8-1 .1h-2.5a.6.6 0 0 1 -.4 0h.8a3.7 3.7 0 0 1 1 0v-.2l.6.1h1.6zm6-.2h-.7.2l-.1-.2.3-.3.7.1h-.1v.1h.4c-.4.2-.8 0-1.1.3h.3zm75.6 8.6v.1h.3-1.8l-.4-.1c.3-.2.6 0 .8 0h.1l.4.1h.4l.3-.1zm-74.3-7.7h1.4l.5-.1h.5l-.5.3v-.2l-.5.1h-.7zm-46 .2c.6-.1 1 0 1.4.2h-.6a.6.6 0 0 1 -.4 0 .4.4 0 0 0 -.3 0h-.3.7l.1-.1h-.5zm-80.5 9.8a4.3 4.3 0 0 0 -.5 0h-.2.4l-.2-.1 1.4-.2-.2.1v.1l-.9.2zm73.5-9h2.2-.3a1 1 0 0 0 -.7 0l-.2.1h-.5zm-.4.2h-1.6l-.2-.1.3-.1h1.2l.4.2zm41.6-2.2a10 10 0 0 1 1.4 0h1.2-.4l-.4.2h-.1l-.5-.1h-.5zm21.8.6v-.1l.8-.1.4.2a1.1 1.1 0 0 1 -1 0h.4zm-43.4 1.8h-.5l-.4.1c-.1.1-.3 0-.4 0h.3-.1c-.2 0-.4 0-.5-.2h-.5 1.2-.4 1.3zm57.4-3.1h1.5a1 1 0 0 0 -.5.2 1 1 0 0 1 -.5 0c-.1 0-.1 0 0-.2a1 1 0 0 1 -.5 0zm-97.5 4.7c0-.2.3 0 .3-.2h-1v-.1h1.7l-.5.2h-.5zm67.3-3c-.3.2-.5 0-.8 0l-.4-.1.3-.1.9.1zm-104.8 3.1h-.2v.1h-.7v-.1h.6l.5-.1h.4c-.2.2-.5.2-.8.2zm16.3-.6a8 8 0 0 1 1.8-.1c-.2.1-.5.2-.8.1zm-69.7 2.4c-.7.1-1.4.3-2.2.3.1-.1.4 0 .5-.2h-.3l.4-.1v.1l.7-.2h.9zm57.3-2h.1a4 4 0 0 0 1-.2h.2c.1.1.2 0 .4 0h.2l.3.1h-1.2a5.4 5.4 0 0 0 -1 .2zm-7 1.1c.1 0 .3-.2.6 0h1a2 2 0 0 1 -.5 0l-.7.1h-.2c-.2.1-.1-.1-.3-.1zm108.8-4h.5a.4.4 0 0 1 .3 0h.5-.1l-.3.2h-.1l-.3-.1h-.5zm-139.3 5.5 1.2-.1v-.2h.2c0 .1.2 0 .4 0h.3a1 1 0 0 1 -.6.2h-.3c-.4.1-.8.2-1.2.1zm11 5.1-2.4.4v-.1h.1l.1-.1h1.8a.8.8 0 0 1 .4 0zm150.6-12.6h1.5-.6c-.4 0-.5 0-.6.2h.6c-.3.1-.5.1-.9-.2zm-47.9 1.7.6-.1.3.1-.2.2h.2l-.1.1c-.2 0-.4-.2-.6-.1zm-76.1 3.9c0-.2.2-.2.4-.2h1.4-.3l-.2.1h-1.3zm50.6-1.9s-.2.1-.2 0a1 1 0 0 0 -.4 0l-.8.1h-.2l.1-.1h1.4zm-16.4-.7h-.1l-.1.1h-.5.2l-.1-.1.2-.1a3.7 3.7 0 0 0 -.6 0h-.2 1.1zm99.1-3.5-.1.1h-1.3v-.1h1a.4.4 0 0 1 .4 0zm-153.8 8.1h.3c-.2 0-.4.2-.6 0h-.2l-.1-.2h.4l.3-.1.2.2h-.2zm32.5-3.7h1.2l-.5.2h-.4v-.1h-.3zm59.5-1c.6-.2 1.2-.2 1.7 0h-1.6zm-33.2 1v.1h-.8c-.3.2-.3.2-.6 0h1.5zm-83 3.4-2.1.3 1-.2h1.1zm86.9-4h.3l2-.1h.2-1.6l-.7.2h-.2zm17.4-.9h-.1.6c.2 0 .4-.2.6-.1-.4.2-.8.2-1.2.2h.1zm-83.6 3.2v.1h-.5l-.7.1h-.2zm-18.7 1.5h-.1l-.1.1-.9.1h-.6l1.5-.2zm-29.6 12-2.1.4c.6-.2 1.4-.4 2.1-.4zm180.5-17.8h.2a.7.7 0 0 0 .5-.1h.8v.1zm-34.4 1.7c.1-.2.3-.3.4-.3h.7c-.2.2-.5.1-.7.1 0 .2-.2.2-.4.2zm-66 3h.3l.4.1-.3.1h-.2v-.1h-.2zm123.9-6.3c-.2.1-.3.2-.5.1h-.6v-.1zm-49.3 3.3h-1c0-.2 0-.2.2-.1h.3l.5-.1zm-113.7 9.7-.5.1c-.2 0-.3.1-.4 0h-.4.5l.4-.2zm93-9.3h1.3-.7c0 .2-.3.1-.4 0h.2-.3zm15-2.2-.4.2a1 1 0 0 1 -.4 0v-.2h.7zm-46.3 2h-1c0 .1 0 .1 0 0h-.2l1-.1h.3zm-3.3.7h-1.1c.4-.2.9-.2 1.2 0zm-38.4 2h.4a4.7 4.7 0 0 0 1.1-.2h.2zm.4.5a5 5 0 0 1 1.2 0zm139.3-5c-.1.1-.4.2-.5.1h-.7.1l.3-.1zm-82.2 2.4h1s-.2.1-.4 0zm87.4-2.8h-.5l-.3-.2h.7v.2zm-23.9.5.5-.2.2.2-.6.1v-.1zm-42.1 1.8h1.3-.3l.1.2h-.5.2v-.1c-.2-.1-.6 0-.8 0zm67.3-2.3.4-.1.6.1zm-72.9 2.7.3-.1h.2c.1-.2.3-.2.5-.1h-.2l-.2.1h-.6zm50-1.8h-.7a1.7 1.7 0 0 0 .4-.2h.3v.3zm-176.8 15.5c0 .2-.3.3-.4.2h-.4c.2-.3.5-.2.8-.2zm168.8-15.7h-.2c0 .1 0 0-.1 0a1 1 0 0 0 -.4 0h-.6.4l.2-.1h.3l.2.1zm-123.8 6.1-1.5.2zm47-4h1.3zm52.8.3-.3-.2h.6c0 .2 0 .2-.3.2zm20.1-3h-.9l1-.1zm-81.1 3.6a2 2 0 0 1 1 0zm23-2.4c.3-.1.5-.2.8 0l.1-.2v.2zm-109.3 15.7-1.1.4c0-.3.4-.2.5-.3h.6zm125-14.2v-.1h.9l-1 .1zm-79.5 8.5v-.3l.1-.1 1-.1-.5.1-.6.2zm162.8-11.7-.3.2-.2-.1h-.3v-.1zm-22.4.6h.2l.1-.1a.3.3 0 0 1 .3 0c.1 0 .1.1 0 .1zm-60 1.2c0 .2 0 .2-.4.2v-.3h.4zm-93.1 10.8c.3-.3.6-.2.9-.2l-1 .2zm11.1-1h.1l.7-.1a.5.5 0 0 1 .4 0l-1.2.2zm169.5-11h1l.4.1h-1.5zm-203.1 14.7c-.2.3-.6 0-.8.2h-.2zm201.7-16h-1.2zm-176.6 13.3.5-.1c.2 0 .4-.2.6 0l-.7.1h-.5zm-21.8 2.6c-.3.2-.6 0-.8 0l.7-.1v.1zm155-13.8h-.2-.1l.3-.1.3.1h-.4l.1.1zm-94 3.5a1.7 1.7 0 0 1 -1 0zm140.7-4.6h-1.4zm-69 1.4.3-.1v.1h.7a1 1 0 0 1 -.5.1l-.4-.1zm-29 2.7-.1.1h-.6c.2-.2.4 0 .7-.1zm-74.5 7.3a1.7 1.7 0 0 1 -1 0zm83-10.5c-.2.1-.6.2-.9.1h1zm31.5-.4h-.5c-.2 0-.4.2-.6.1l.2-.1zm-71.7 2.7v-.1a1.4 1.4 0 0 1 .9 0h-.9zm38.5-1.5h-.9zm-65.8 3h.8c-.3 0-.6.2-.8 0zm127-3.3a1.1 1.1 0 0 1 .7 0h-.4c-.1.1-.2 0-.4 0zm-152.5 11.2.4-.1h.3zm90.2-11.5h-.3c-.1 0-.3.1-.4 0zm-21.7 2.2h-1.1 1zm92-3.4-.7-.2h.7zm-143.8 6.2c-.2.1-.4.2-.7.1h.7zm9-1.9h.6l-.5.2v-.2zm3.2 2.4-.4.1c-.2 0-.4 0-.4.3l-.2-.3h1zm11.7.8h-.6zm195.3 1.2h1zm-202.5.9c-.2 0-.4.2-.7.1zm125.7-11h.2a.4.4 0 0 0 .3 0h.3-.7zm-113.5 4.8v-.2h.7c-.2 0-.4.2-.7 0zm53.2-.6a1.1 1.1 0 0 1 -.8 0zm14.7-1.4v.1l.1.1h-.3v-.1h-.3v-.1zm-20 .8a2 2 0 0 1 -.9 0h1zm-22.7.2a1.4 1.4 0 0 1 -1 0zm-52 3c0 .2-.2 0-.4.1h-.4zm13.7-.3h-.8zm53-2.2h.8a1.3 1.3 0 0 1 -.9 0zm75-2.5-.3-.3c.5 0 .5 0 .6.2h-.3zm-38.5 1.2v-.1a1 1 0 0 1 .7 0zm-35.4 2-.4.1-.2-.1zm10.9-1.4h.9l-.5.1h-.5zm16 .4c.2-.2.4 0 .5 0h.5zm29.7-2.6h.8a1 1 0 0 1 -.8 0zm.3.8c.2-.2.3-.2.5 0zm-58 3.5h1zm-28-.5h.1v-.1h-.2l.6-.1c-.3 0-.3.3-.5.2zm-29 .7h.4v.2h-.4zm79-3.5.2-.1h.4c-.2.2-.3.1-.5 0zm8.7 2.9h-1zm43.7-2.4c.2-.2.3-.1.4-.1h.5-.9zm-53.8 1h.2l.1.1-.1.1h-.2v-.1zm-47.1.4-.7.1v-.1zm-60.2 3.2-.2.1h-.5.7zm74-4.2c0 .3-.3.3-.5.1h.5zm107-1.9h1zm-90.1 4.3c.2-.2.5 0 .7 0zm78-3.4h.7zm-58 0c-.2.2-.3 0-.5 0zm0 .7h-1a1.4 1.4 0 0 1 1 0zm-68 4h.2l.1-.1s.1-.1.2 0h-.1.3l-.2.1h-.4zm-56.2 1.6.2-.1.6-.1h.2zm161.5-7.1h.6c-.3.2-.3.2-.6 0zm30.4-1h-.8c.3-.1.5 0 .8 0zm-54 2.9h.6-.2a.5.5 0 0 1 -.5 0zm28.8-1.6h.6zm-108.7 4.2h.7zm137.6-6.8v.1h-.6.6zm-53.6 4.4-.5-.1c.2 0 .4-.1.5.1zm43.2-4.5c.1 0 .3-.1.4 0l-.2.1zm-216.2 14.5.4-.2.2.1-.3.1zm225-11.9h-.5c-.1 0-.2.2-.3 0h.9zm-198.2 7.4c-.3.2-.6.2-.9.2zm70.5-3 .6-.1h-.6zm3.2-.8c.2-.1.5 0 .8 0zm23.8-2h-.6zm76.3-1.2-.1.1h-.4c.2-.2.2-.2.5-.1zm21.2-1.7-.7-.1h.7zm-136.3 7v.2l-1 .1 1-.1zm44.7-3.3h.7zm96-3.4c.2-.2.4-.1.6 0zm-167.5 6.7-.2.1-.2.1c0-.2 0-.2.4-.2zm14.3-2 1-.1h-1zm82.3-2h.9a3 3 0 0 1 -1 0zm51-.7v-.1h.8-.8zm-60.5 2.2h-.7a.8.8 0 0 1 .7 0zm-75 1v-.2h.3c0 .2 0 .3-.3.3zm139.8-4.5h.8zm-191.9 6.3.6-.1c-.2.2-.2.2-.6 0zm89.7-2.8-.3.1h-.7 1zm-41.5 1.3-.5.2c0-.2 0-.2.5-.2zm-31.4 8.9.4-.1-.2.2zm163.7-12.7-.3.2v-.3zm-49.2 3h-.6zm45.3-3.1a.8.8 0 0 1 -.5 0zm-135.5 8.7v-.1h.1l.2-.1h.2zm82.6-6.4a1 1 0 0 1 -.7 0zm33.8 0h-.6zm78.4 5.5c-.2 0-.5.1-.8 0zm-140-5.4c.1-.2.3 0 .5-.1-.2 0-.3.2-.6 0zm71-3.7h.6a.7.7 0 0 1 -.6 0zm-40 2.6h-.6.7zm-49.8 1.2-.4-.1zm38.1.3h-.5l.3-.2s.2 0 .2.2zm-20 1.1c-.1.2-.3 0-.5.1zm73.6-4.4h.6zm16.2.2v-.1h.8-.8zm-12.7.7h.6a.9.9 0 0 1 -.6 0zm-58.3 1.4h-.6zm-60.2 2h.2-.3zm41-1.5h-.6zm-77.2 3 .2-.2h.3zm-33 3h-.6.7zm105.5-4.2c.2-.2.3-.2.6 0zm58-4.2-.3.1-.1-.2.3.1zm-165 9.6.5-.1-.4.1zm146.5-8.9h.5zm66.7-1h-.8c.3-.1.6 0 .8 0zm-141.6 4.2h.5zm6 .3.2-.1h.3c-.2 0-.4.2-.6 0zm-22 2h-.6a.8.8 0 0 1 .6 0zm91.7-3h-.7zm74.9-3.6c-.2 0-.4.2-.5 0zm-20.1 7.1h-.8zm-11-6-.3-.2h.2l.2.2h-.2zm-156.4 12h.4zm60.5-9.5a1.1 1.1 0 0 1 .8 0zm57.5-2.8h-.1l-.2.1h-.2zm25.2-.2h-.5c.2-.2.4 0 .5 0zm-98 3h.2-.4s0-.3.2-.2v.1zm44.8.5h-.5zm-41.2-.3c-.2.1-.3 0-.4 0zm-57 10h-.3.4zm190.2-13.8v-.2a.8.8 0 0 1 .6 0h-.6zm-10.3-.4.7.1h-.6zm-97.7 4a.8.8 0 0 1 -.5 0zm19.5-2a1 1 0 0 1 -.5 0zm34.7 1.9c-.3.1-.3.1-.4 0zm.4-1.3h-.7zm-13.6-.4h.4c-.3.1-.3.1-.4 0zm-58.7 2.8c-.7.1-.7.1-.8 0zm168.4 3.6h.7a2 2 0 0 1 -.7 0zm-165.4-3.1h-.5zm-61.3.4c.3-.2.3 0 .5 0-.1.1-.1.1-.2 0zm-5.5 1.6c0-.2.2-.1.3-.2h.2zm120.3-4h-.7zm-12.4-1.7v-.1h.5-.5zm-3.1 1h.5c-.3.2-.4.2-.5 0zm-8.8 1.7c.3-.1.3-.1.4 0zm105.2-6.4a.8.8 0 0 1 .5 0zm-87.8 3.1h.4a.6.6 0 0 1 -.4 0zm-55.2 8h.6zm55.1-7.8c0 .2-.2.1-.3.1h.3zm-29 2.7h-.4.5zm54.7-3.4h.5zm-3.8 3.2h-.4zm3.7-3.3c0 .2 0 .2-.3 0zm-33.6 3h.5zm52.7-1.4h.5zm-102.4 3h-.6zm102.4-1c.1-.1.3 0 .4 0zm-81.8-.6h.7zm88.3-3.1c.1-.3.3-.1.4-.1 0 .1-.2 0-.4 0zm-102.1 3.4h.5zm104.2-1.1c-.1.1-.3 0-.4 0zm.2-2h.5c-.2.2-.4 0-.5 0zm-120 4.2h.4-.5zm-14.8-.1h-.5zm151-6.8h.5a.7.7 0 0 1 -.5 0zm-164 8.1c.2-.2.2-.2.4 0zm104.9-4.7h-.4c.2-.1.2-.1.4 0zm67.8-4h.6zm-174.2 15.2v-.1h.5-.5zm117.5-10.1h-.3zm-13.4.8h-.2v-.1h.2-.1.1zm-60.6.5c-.1.1-.1.1-.4 0zm41.6-1.3c-.2.1-.2.1-.4 0zm43.5 1.4c.2-.1.2-.1.4 0zm-55.3-1.6h-.3.1v-.2h.2zm-32.1 2.4c-.2 0-.3 0-.3-.3h.1c0 .2.2.2.2.3zm117-5c.2-.3.3-.3.5-.2l-.4.1zm-136.1 4.5c.2 0 .3-.2.5 0zm175.9-3h.5zm-131.6.2a.6.6 0 0 1 -.6 0 .4.4 0 0 0 .4 0zm-.7 1.8h.5a1 1 0 0 1 -.5 0zm76-2.1.4-.2c0 .2 0 .2-.4.1zm-111.1 4.2c-.2 0-.3.2-.5.1h.5zm62.5-1.2h-.4.3zm-137.4 13.6c.1-.2.1-.2.3-.1h-.3zm17.3-1.8h-.4s.2-.1.4 0zm117.3-13.1c0-.2.2-.2.4-.1h-.4zm-48.3 2.6c-.3.1-.3.1-.4 0zm121.5-8.1h.3l-.3.2zm.5 3.5.3.1h-.3zm19.5-2.9h-.5.4zm-128 5.9c.2 0 .4-.2.6 0h-.5zm-5.9 1 .2-.1h.2c-.2.2-.2.1-.4 0zm-48.5 7.6c.2-.1.2-.1.4 0zm60.8-10v-.1h.4-.4zm39-.3h.5zm-38.5-.5h-.3.2zm50.7.2h-.4zm3.3.7h.5zm42.1-2.1a.6.6 0 0 1 -.5 0zm-137.3 9.7h.5zm70.3-8.3h-.3zm-.3-.2h.4c-.2.2-.3 0-.4 0zm43.5.4h.4c-.2 0-.3.1-.4 0zm-49.6.3a.2.2 0 0 1 -.3 0zm-75.3 3.5h.5zm97.9-5.2c.2 0 0 .2.2.2h-.2zm-22.3 2.8h.3zm-93.8 9.8c0-.2.2-.1.3-.1h-.3zm184.4-13.1h-.5zm-71.1 2.2-.1.1h-.2.3zm-67.2 4h-.2l.3-.2v.1zm-2.4-2h.4zm0 .2c-.2.2-.2.2-.4 0h.3zm21-1h-.4.3zm-26.7 4c.1-.2.2-.1.3-.1h.2-.5zm.2-.9c-.1.1-.2.2-.3 0zm35-2.6c.3-.1.3-.1.4 0zm-95.8 12.6c.1-.1.1-.1.4 0zm90.8-13h.6zm36-.5.3-.1v.1zm-87.5 2 .5-.1h-.5zm92-3.3h-.2v-.1h.3v.1zm-102.6 10.6c-.2.1-.2.1-.4 0zm-19.3-7-.6.1h.6zm116-2.8h.3-.4zm72-4.7a.3.3 0 0 1 .2 0h-.3zm-52 5.2s0 .2-.2.2c0 0 0-.2.2-.2zm-129.3 3.5a.3.3 0 0 1 -.3 0zm166.4-6.1h.4zm25.1 0v.2h-.2v-.1h.2zm-121.3 4.3h.3zm-23.4.2c.1 0 0-.1.2 0zm80.8-2.2h.3zm-43.7.5h.4zm57.6 0h-.4zm47.3-5.8h.3zm-18.6 2.6c0-.2.1-.2.2-.1h-.2zm-85.3 3c-.1.1-.2.2-.4 0zm23.8-.5h-.1l-.2.1zm1.6-.1c0 .1-.1.2-.2.1-.1 0 0 0 0 0zm-99.8 10.2h-.4s.2-.1.4 0zm160.9-11.2h.2c-.1.1-.2 0-.2 0zm10.8-.5.3.1zm-97 1.9h-.3zm27.4 3.2h-.2v-.1h.3zm-50.1-3-.3-.1h.2v-.1.2zm-33.4 3.4h.4zm77-5.1c.1 0 .2-.2.3 0zm102 7h.3zm-138.5-5v.1h-.3.3zm-80.7 11.6c-.1.1-.1.1-.4 0zm191.7-16.6h.4zm-162.4 7.2h.3zm129.2-4.8h-.2v-.1h.2zm-56.7 2h.4c-.2 0-.3.1-.4 0zm89-2.7h.3zm-88.2 1h.3zm-34.2 2.5h.2zm-42.5 8.5h.5c-.2 0-.3.2-.5 0zm183.6-10.6h-.4zm-215.8 15.1-.3.1h.3zm46.8-9h.3zm144.8-6.5h.3zm47.3 7.5a1 1 0 0 1 -.4 0zm-182.8 1.2h-.3zm56.3-5.7c.1.1.1.2 0 .2zm76-4.2h.4-.3zm-8.9 0h.4zm-118.7 6.6c-.2 0-.3.1-.4 0zm-39-1.4h.5zm107.6-1.8c-.1 0-.2.1-.4 0zm80.7-5.3h.3zm-38.5 1h-.4c.1-.2.2-.2.4-.1zm11.2 1.7h-.3zm-5.9-.3h-.5a.7.7 0 0 1 .5 0zm-107.1 5.7h-.5zm-53.6 8h-.4.3zm129-13.2s.1-.1.2 0zm39.3.3h-.2zm-137.7 7h.4zm-2 .5h.2zm98-6.2h-.4.3zm-.7-2h.3zm32.5-1h.3zm-137.2 9.3h.3zm127-6.8h-.4zm-23-1.8.1.2c-.2 0-.2 0-.1-.2zm40 .5c0 .1 0 .2-.2.1h.2zm-35 0c0 .2 0 .2-.3.2l.2-.1zm-68.8 2.7c0-.2 0-.2.3-.1h-.3zm-46.8 9.2h.4zm82.3-10h.3zm-31 2h.4a.3.3 0 0 1 -.3 0zm0 3.7h.3zm73.8-6.2h.2zm-150 13.8h.3-.4zm255.7-7.3v.1h-.3.3zm-140.8-5.8h-.3zm141.9 5.8h.3zm-141.6-4.5h-.2c0-.1.1 0 .2 0zm56.4-3.4h-.2zm-130 10.2h.3zm44-8.6h.2zm-37.4 1.6c.1.1 0 .2 0 .2l-.2-.1h.2zm75.8-2h-.4zm-74.4 8v.1h-.2.2zm122.4-8.6h.2zm84 7.3h.2zm-272.8 2.8h.3zm160.4-10.5h-.2zm16 1.8h-.2zm-174.6 16h-.3zm67.2-10.1h-.3zm25.9-1.6h.2c0 .1-.1.1-.2 0zm-92.9 1.7h.3zm188.4-8.2h-.3zm-121 3.3h.2-.3zm.2 2.4h.4-.3zm1 .8.2-.1h-.3zm138.1-7.9-.1.1h-.2.3zm-88.9 2.4.3.1zm30-.2h-.3zm-45 3c0 .2-.1.1-.2.1h.3zm34.4-2.8h.3zm31-.6h-.2.4zm14.1-.9h.3zm10.1-.3c-.1 0-.2-.1-.1-.2zm-114.7 6h.3zm136.9-6.5h-.3v-.1h.3zm-185 14.4h.3zm186.2-14.4h-.4a.3.3 0 0 1 .4 0zm-91 5h.4zm91.3-6.6h-.2zm-191.6 8.8c-.1.2-.2.1-.3 0zm158.3-3h-.3zm-51.3-2.3-.2.1zm-115.7 14.8s0-.2.2 0zm111.2-13h.3zm81-2.5h.2-.1zm-152.5 9.8h-.3zm3.2.4h-.3zm-3.4-4.9-.1.1zm30.2-1.8h.3zm41.2-1c0-.2 0-.2.2-.2l-.2.1zm-22.2.3h.3zm98.6-1.6h.3zm-16.2-1h-.3zm.3.5c0-.1 0-.1.2 0zm-170.9 4.8-.3.1h.3zm78.6 2.2s-.1.1-.2 0zm-77.4-2 .3-.1h-.3zm77.2-1.3h-.2c.1-.1.2-.1.2 0zm42.4-3v.1h-.3.3zm-115.4 3.8h.2zm165.7-3.1h.2zm-2.1-2.7h-.4zm-83.6 4.3h.2zm23.9-.6h-.1v-.1zm-100 10.6h-.4zm43-8.8h.2-.3zm42 1.7h-.3zm27.1-5h.4zm12.2-1.4h-.3zm-59.5 4.2h-.3zm119.7-4.6h-.1zm-134.4 8.6h-.3zm0-1h.3zm14.9-3h.1v.1h-.1zm91.4-4.2h.3zm-105.6 7.6h-.4zm-45.7-2.6h.2zm182-6h.3-.2zm-122.2 8.8h.3zm37.4-5h.3zm56.1 3.6h.3zm-40.3-5.2h.2zm-36.2 3h.3zm-78.9 8h.2zm214.1-4.2h-.2zm-156-3.8h.3zm-7-.6v-.1zm-40.4 8.5h-.3zm-27.8 3.6h-.3zm78.7-13.2h.2zm1.4 1.6h.1zm18.8-.3h.2zm60.3-1.9v.2zm-53-.7-.2.1zm19.4 1.6h.2zm-21.7-.3.2-.1h-.2zm-67.6 3c.1 0 .1 0 0 0zm.1 4.7h-.2zm168.8-10h.1zm-194.4 6.1h.2zm26.8.6h.2zm-35.9 8.6-.2.1h.2zm37.5-4.7h-.2zm31.7-7.6h.3zm107.3-1h-.2v-.1h.2zm14.8-3.9h-.2zm-121.3 10.2h-.3zm120.3-7.7c0 .1 0 .2-.1.1h.1zm-120.2 2.3h-.2zm56-2.6h.2zm-34 .8h.2zm8.2-.3s-.1.2-.3 0zm-116.7 7.7.2-.1h-.2zm114.7-5.3h.3zm22.2-3.1h.2zm66-1.2h-.2zm-47.3 1.3h-.1zm-48.1 1.7c0-.2 0-.1.2 0zm-89 13.2h.1-.2zm140-13.3h-.3.2zm-98.2 2.4h-.2zm29.8.2h-.2zm72-.6h-.1.2zm-102.7 2v-.1h.5-.3zm-.8-2.2.2.1h-.2zm2.6.6h-.3zm1.2 5.5h-.2zm-61.8-1.4h-.1zm64.1 1.2h.3zm40.3-7.6h-.1zm57-1.2h-.2zm-105.6 6.6h-.2zm11.1.7h-.1zm74.5-7.3h-.1zm-45.9 3.6.2.1h-.2zm106.5-5h.1zm-107 5.2h.2-.1zm-42.4 0v-.2h.2-.2zm64.3-2.2h.2zm14.3-1.5h-.1zm-61.6 2.7h-.1v-.1.1zm180.1 4.3h-.2zm-49.2-9.8h-.2zm-54 2.8h.2zm-75.8 4h-.1zm-21-.4h.2zm43.4-.2h-.1zm98.7-5.2h-.1zm-144.9 12.3h-.2zm72.5-10.2h.2zm63.3-.9h-.1zm-36.6 0h-.2zm-125.8 14.3h-.3zm189.8-17.8h.2zm14.4 3.4h-.2zm-151.9 8.4h.2zm68.5-7.8h-.2zm56.6-1v-.1h.2-.2zm-112.9 4.6h.2zm88.3-3h-.2zm49.6-1.9h.3zm-.4-1.1h.1zm-51.2 1h-.2zm-42.4 3.3h-.2zm56.7-2.4h-.1zm-102 8.2h-.1.2zm135.6-11.3h.1zm-188.9 15.6h-.1zm105.5-13h.2zm-104 4.8h.2zm48.4 4h-.2zm137.5-10.6h-.2zm-185.8 7.2h-.1zm129.1-4.1h.2zm53.3-3.7h.1zm-69.2 4.1h.1zm-.6.1h-.1zm-67.7 6.9v-.1h.2-.2zm108.7-6.5h-.1zm-59.4.6h.2zm20.1 1.2h-.1zm74.5-4c-.1-.1 0 0 0 0zm-119.2 1.2h.1zm-61.6 6.8h.2zm134.8-8.7v.3zm-131.1 7.5h.1zm149.7-3.8h.2zm-27.7-1.5c.1-.1.2-.1.2 0zm-93.1 5h.1zm84.6-3.7h.1zm-85.6 5.6h.2zm18.2-5.4h.1zm1.5.3h-.1zm0-.4h.2zm14.9.7h-.2zm-34.6-.3h.2zm22.9 1v.1h-.1zm19.4-1h.2zm-43.4 2h.2zm117.4-5.4h-.2zm21.3-2.6h-.2zm-157.3 13.3h-.1zm139.4-11.2h.1zm-122.6 4.2h.2zm63-.7h.3-.2zm-75.3 1.4h.1zm148.8-5.7h-.2zm-123.5 6.5h-.1z" fill="#82d7b9"/></svg>