<svg width="312" height="19" fill="none" xmlns="http://www.w3.org/2000/svg"><path d="M57.478 15.567l.186-.38c-.403 0-.62.202-.838.439-.217.237-.326.343-.497.509-.17.166 0 0-.14 0l.14-.414h-.264c-.433.17-.9.286-1.382.343a1.889 1.889 0 0 0-.419.213l-.093-.343h-.373l.233-.201a1.403 1.403 0 0 1-.264-.214c0-.082 0-.225-.201-.2v.484a.731.731 0 0 0-.382-.155.828.828 0 0 0-.426.06c-.108 0-.186.143-.326.25-.14.106-.543.059-.714.2a1.188 1.188 0 0 1-.402.187c-.15.038-.31.052-.468.039a4.652 4.652 0 0 0-.543.07.725.725 0 0 1-.341 0l.496-.153a.64.64 0 0 0 .268-.15.424.424 0 0 0 .128-.233.374.374 0 0 0-.047-.25.527.527 0 0 0-.209-.196l-.854.355-.9.344a.313.313 0 0 0 0-.095l-.202-.225-.28.284a2.402 2.402 0 0 1-.962-.178.937.937 0 0 0-.482-.083c-.315.071-.653.045-.944-.072-.29-.117-.508-.316-.608-.555a.592.592 0 0 0-.279-.233.845.845 0 0 0-.404-.063c-.643-.004-1.259-.195-1.724-.533-.186-.106-.341-.248-.512-.367-.171-.118-.155-.19-.155-.19-.152.031-.311.032-.463.003a1.047 1.047 0 0 1-.407-.168.574.574 0 0 0-.28-.083 1.01 1.01 0 0 1-.394-.111.724.724 0 0 1-.273-.244.994.994 0 0 0-.543-.237 2.54 2.54 0 0 1-.808-.32c-.404-.212-.854-.402-1.288-.603-.435-.201-.715-.379-1.072-.568-.093 0-.155-.119-.248-.142-.357-.083-.482-.26-.373-.486l-.668-.355c-.155-.071-.341-.107-.48-.178-.14-.07-.296-.248-.467-.355a4.006 4.006 0 0 0-.76-.438 4.168 4.168 0 0 1-1.15-.805s0-.213-.092-.343h-.264a11.279 11.279 0 0 1-2.019-1.954 3.653 3.653 0 0 0-.512-.532c-.342-.308-.73-.592-1.056-.912a3.049 3.049 0 0 0-1.301-.741 3.86 3.86 0 0 0-1.618-.111 7.881 7.881 0 0 1-.745 0c-.482 0-.978 0-1.46.07-.108 0-.217.119-.341.19l-.373-.07c-.217-.001-.42-.001-.512.165a.53.53 0 0 1-.241.221.774.774 0 0 1-.365.075 4.543 4.543 0 0 0-.652.177l-.186-.236c-.093 0-.233 0-.264.082-.031.083-.295.25-.42.356-.085.075-.19.137-.307.182a1.242 1.242 0 0 1-.375.078l-.901.166c-.093.13-.217.32-.543.308a8.883 8.883 0 0 1-1.553.603c-.155.071-.31.107-.466.166-.396.066-.768.2-1.087.39a3.61 3.61 0 0 1-1.149.344 2.356 2.356 0 0 0-1.195.545 1.113 1.113 0 0 1-.544.308.759.759 0 0 0-.245.096.565.565 0 0 0-.174.164.932.932 0 0 1-.28.237c-.186.106-.403.177-.31.414 0 0-.077.119-.14.154-.45.26-.916.51-1.381.758-.202.45-.792.485-1.242.663-.156.45-.311.544-.948.592-.124.32-.559.355-.869.52-.31.166-.264.083-.326.166s-.404.545-.807.675c0 0-.094.142-.14.201-.08.096-.168.187-.264.273a1.22 1.22 0 0 0-.404.461c-.093.214-.419.391-.667.557a.587.587 0 0 1-.288.072.587.587 0 0 1-.287-.072l-1.133-.426a3.981 3.981 0 0 1-.823-.38 6.398 6.398 0 0 1-.994-.923A2.885 2.885 0 0 1 0 11.897c.295-.166.528.225.854.082a2.26 2.26 0 0 1-.14-.272c0-.095 0-.19-.093-.308h.838l.777-.485c.264-.166.388-.474.807-.474v-.082c.174-.307.453-.573.807-.77.575-.39 1.196-.758 1.755-1.184.559-.426.823-.663 1.242-.982L8.4 6.237l.108-.071c.513-.095.746-.474 1.165-.663a11.681 11.681 0 0 1 2.018-.96c.295-.12.58-.255.854-.402l2.065-.97c.405-.194.83-.36 1.273-.498.775-.327 1.58-.612 2.407-.852.326-.099.638-.222.931-.367a7.517 7.517 0 0 1 1.413-.403c.292-.05.574-.13.839-.237a9.279 9.279 0 0 1 2.08-.461c.761-.095 1.553-.26 2.283-.332.6-.03 1.201-.03 1.8 0 .253.023.509.023.762 0a.787.787 0 0 1 .337.002c.11.026.208.074.284.14a.894.894 0 0 0 .346.226c.138.051.291.076.445.07 0 0 .14 0 .218.095.497-.332 1.009-.355 1.444.201a.94.94 0 0 1 .36.037.75.75 0 0 1 .292.164h.419c.304.13.586.29.838.474.188.158.34.338.45.533a.68.68 0 0 0 .279.266.98.98 0 0 0 .42.113.771.771 0 0 1 .202 0c0 .26.264.39.513.52l.916.486s.093 0 .093.07c0 .38.543.546.745.842a.683.683 0 0 0 .264.106.892.892 0 0 1 .45.379c.264.367.357.829.947 1.03.367.165.664.408.854.698.085.075.184.14.295.19.109 0 .264 0 .326.106.306.272.681.494 1.103.652l.559.272.636.308.792.343c.204.059.401.13.59.213.28.178.652.225.932.379.446.225.932.4 1.444.52.652.198 1.32.376 2.002.534.231.035.469.035.7 0 .496-.071.993-.202 1.552-.237.561-.069 1.113-.18 1.646-.332.9-.213 1.754-.532 2.623-.805.544-.177 1.103-.331 1.662-.497l.838-.284c.575-.19 1.134-.39 1.708-.568l1.553-.427c.404-.118.823-.236 1.21-.378A18.74 18.74 0 0 1 64 5.788c.444-.11.875-.25 1.289-.415.11.058.208.125.295.202.77-.158 1.528-.352 2.267-.58h.434c.14 0 .435-.225.652-.25.59-.105 1.163-.26 1.708-.46.684-.178 1.429-.167 2.112-.332.182-.058.358-.125.528-.202 0 0 .155-.094.217-.082.575.082 1.04-.202 1.553-.308a1.29 1.29 0 0 1 .636 0 .73.73 0 0 0 .244.004.657.657 0 0 0 .222-.075c.266-.159.582-.261.916-.296a3.68 3.68 0 0 1 .715 0 1.03 1.03 0 0 1 .391-.138c.144-.021.292-.014.431.02.215.065.454.065.668 0a2.825 2.825 0 0 1 1.044-.16c.36.013.71.092 1.021.23l.155-.26c.083.076.196.13.322.153a.783.783 0 0 0 .377-.023c.15-.039.307-.059.466-.06v-.236c.31.166.528.083.652-.166.209-.01.418.015.614.072.196.057.373.146.52.26.124.095.387.07.558.106.171.036.109-.39.435-.284.16.077.306.168.435.273a1.32 1.32 0 0 1 .684-.053c.229.043.431.146.573.29l.125-.226c-.342-.213-.916-.153-1.087-.556.186-.118.31 0 .372.071s.28.178.513.178c.233 0 .87.07 1.304.094.246 0 .491-.024.73-.07.17 0 .357-.226.45-.202.173.036.355.036.528 0 .212.009.42.04.62.095v.19c.606.106 1.212.354 1.864 0v-.25h.078l.574.427c.05-.079.106-.154.17-.225.156-.083.342-.107.42 0a.393.393 0 0 0 .211.183c.097.039.21.05.317.03.088.006.176.006.264 0 .28 0 .404.095.466.272.062.178 0 .142.108.26l.575-.283c.2.103.42.182.652.236.233 0 .497 0 .59.213.261-.071.543-.089.817-.049.273.04.527.134.736.274.127.06.262.107.403.142a1.928 1.928 0 0 0-.248.26c-.14.179 0 .309.186.344.187.036.606 0 .761 0 .155 0 0-.343-.14-.497a.166.166 0 0 1 0-.142s0-.06.078-.06c.582.1 1.118.317 1.552.628 0 0 0 .083.094.071.419 0 .652.26 1.04.284v.249a.18.18 0 0 0 .034.083.243.243 0 0 0 .075.066.363.363 0 0 0 .217.04c.621-.094.978.237 1.397.462a.77.77 0 0 0 .404.13c.497-.094.885.142 1.32.202a5.4 5.4 0 0 1 .761.2c.201 0 .403.178.59.167a17.704 17.704 0 0 0 1.769-.095c.528 0 1.056-.154 1.553-.237.497-.083.947-.201 1.429-.284.194-.032.391-.052.59-.06h.139a6.266 6.266 0 0 1 1.553-.378c.652-.118 1.289-.32 1.956-.403.963-.118 1.863-.414 2.81-.568a26.54 26.54 0 0 1 2.733-.39c.823 0 1.553-.308 2.376-.391.232 0 .419 0 .59.154.155-.178.295-.332.59-.213a.116.116 0 0 0 .093 0 5.123 5.123 0 0 1 1.475-.107 13.8 13.8 0 0 1 1.211 0c.124 0 .233.095.31.13l.683-.272c.164.136.341.263.528.379h.28c.031 0 .372-.095.574-.13.317-.059.629-.134.932-.225l.233.2h1.552a.336.336 0 0 1 .084-.147.47.47 0 0 1 .158-.106.6.6 0 0 1 .41-.018c.109 0 .249 0 .466-.083-.053.068-.099.14-.139.213-.078.154 0 .26.217.225l.543-.13c0-.26-.372-.296-.481-.474.45-.19.575-.13.699.308l.217-.095.186-.13.357.166s.14.142.249.236l.838-.461c0 .106 0 .26.125.32.124.059.279 0 .434 0h.357c.435 0 .435 0 .761-.273.062.097.157.18.274.24.117.06.253.096.394.103.167.032.329.08.481.142.223.093.481.122.73.083a2.38 2.38 0 0 1 .497 0c.18.012.362.012.543 0a.736.736 0 0 1 .354.043c.109.043.197.11.252.194a1.77 1.77 0 0 0 .248-.177c.109-.083.186-.237.311-.26.205-.06.431-.06.636 0a.952.952 0 0 0 .373.073c.13 0 .259-.025.372-.074.326.19 0 .343 0 .497.264.095.497.213.761.284.189.036.386.036.575 0 .183-.025.36-.068.528-.13l-.342-.414h.916l.124.379-.202.13c-.108.095-.17.201 0 .308.171.106.264.154.451 0a.814.814 0 0 1 .341-.13c.295 0 .575 0 .714-.261.073-.004.145-.004.218 0l.108.485.311-.378a.474.474 0 0 1 .247.14c.06.066.087.146.079.227a.226.226 0 0 0 .06.118.339.339 0 0 0 .126.083c.3.065.617.065.916 0l-.263-.343h-.202v.059l.683.083c0 .213.357.32.217.568.168.105.35.197.544.272.248.083.543.119.807.19.142.057.278.124.404.2l.807-.2c0-.19-.171-.32-.357-.462a.459.459 0 0 1 .154-.088.565.565 0 0 1 .375 0c.059.02.112.05.154.088.148.083.31.15.481.201 0 0 .187 0 .233.06.09.105.209.194.348.262.139.067.296.11.46.128.341.32.822.213 1.257.249a2.9 2.9 0 0 0 .451 0v-.178c.1-.03.21-.03.31 0 .357.083.699.201 1.087.308l.14-.13c.201.082.372.2.652 0 .279-.202.217.118.248.272 1.009 0 2.019 0 3.105.083.466.018.932.018 1.398 0h4.502c.136.02.264.065.373.13.233-.13.481-.331.807-.107a6.78 6.78 0 0 1 1.957-.106c.574 0 1.18-.166 1.754 0a.463.463 0 0 0 .186 0c.606 0 .606 0 1.01.166l.233-.296.807-.142c.264.355.776.142 1.164.26l.373.462c.295-.154.699-.166.73-.545h.776c.062 0 .466 0 .683.083l.435-.201v.248c.349-.071.71-.103 1.071-.094.126.027.26.029.387.006a.875.875 0 0 0 .343-.136l1.258.118h.155c.357.225.59.07.776-.201.174.06.332.144.466.248a.519.519 0 0 0 .164.132.747.747 0 0 0 .459.065.657.657 0 0 0 .215-.078c.389-.225.777-.142 1.165-.178.388-.035 1.025 0 1.553-.083h.326a.497.497 0 0 0 .279.082.503.503 0 0 0 .28-.082c.496-.201.884-.059 1.319.26h-.466l-.201.51c.377-.1.787-.1 1.164 0 .264.054.543.054.807 0a.36.36 0 0 0 .126-.066.253.253 0 0 0 .076-.1.432.432 0 0 0-.217-.225c-.124 0-.295 0-.45-.107.248-.094.512-.284.76-.26a3.72 3.72 0 0 1 1.553.272l.388-.19.513.167c0 .284-.606.331-.435.686a1.85 1.85 0 0 1 .629-.053c.212.019.416.073.597.16.187.074.396.107.606.095h1.242c-.14-.285.078-.616-.45-.734l.978-.225c.202 0 .481.236.559-.154.295.165.295.165.683 0l.388.213c.326-.201.326-.201.683 0 .357.201.28.07.435.118l.295-.32.45.273c.451.296.497.296.963 0l.093.26h.87l.372.355h.124c-.093-.26.094-.367.358-.45l.077.261c.357 0 .513-.095.59-.355.14.213.326.39.109.64a3.15 3.15 0 0 0 1.273.106c.342 0 .668-.154.916.13.388 0 .745.26 1.149.142.404-.118.357.118.528.178l1.444-.498c-.171-.07-.264-.154-.373-.165a1.173 1.173 0 0 1-.389-.078.935.935 0 0 1-.31-.195l.187-.236.217.213c.264-.308.745.19.994-.225l.373.32a5.036 5.036 0 0 1 1.63.07c.193.04.397.04.59 0a3.484 3.484 0 0 1 1.102 0c.509.1 1.044.1 1.553 0a.622.622 0 0 1 .272-.016.54.54 0 0 1 .24.1.906.906 0 0 0 .378.155c.142.025.291.02.429-.014a.344.344 0 0 1 .187 0c.141.064.302.097.466.097.163 0 .324-.033.465-.097.295.119 0 .296 0 .45-.217-.07-.419-.154-.636-.213-.218-.06-.45-.095-.683.166a4.391 4.391 0 0 0-1.553-.213c-.45 0-.901-.083-1.351-.107h-1.552c-.233 0-.342.095-.357.296.104.047.22.076.341.083a.707.707 0 0 1 .327.006c.105.028.197.08.263.148.248.26.621.154.947.154H215.582c.279.177.652.142.947.237.295.094.621 0 .916.083h.186v-.367l.28.07-.186.261c.068.04.141.075.217.107.248.082.295-.095.388-.214.171.25.28.308.637.225.206-.053.43-.053.636 0 .095.03.201.03.295 0a.664.664 0 0 1 .528 0h.093c.404-.177.699.095 1.087.154.482-.308 1.025-.094 1.553 0 .171-.094.31-.201.481-.284.171-.083.528-.142.73.213.279-.07.559-.094.745.178.124-.09.276-.154.443-.185a1.27 1.27 0 0 1 .504.007.826.826 0 0 0 .388-.083 1.726 1.726 0 0 1 1.072 0c.151.038.307.061.465.071.14-.2.59-.284.389-.65.077.212.497 0 .528.343.031.343.248.331.45.556a1.83 1.83 0 0 0 1.164 0c.249-.083.59 0 .885 0l.885.13c.108.047.212.098.311.154l-.544.06c.238.52.58.674 1.025.461.217.095.419.296.699.083a.32.32 0 0 1 .186 0c.172.036.351.042.526.017.175-.025.34-.079.483-.16.121.097.263.177.42.238.341 0 .683 0 1.117.106l-.139-.544a.824.824 0 0 1-.465.07.708.708 0 0 1-.405-.189c-.854.225-1.77-.094-2.593.26l-.139-.473a1.12 1.12 0 0 1 .663-.316c.267-.035.541.01.765.127.173.035.355.035.528 0 .162-.033.33-.04.495-.022.166.018.325.062.468.128.165.07.355.1.543.083.357 0 .699 0 1.056-.07a.929.929 0 0 1 .366.001c.12.025.229.073.317.14h.357a1.23 1.23 0 0 0 .248-.13c.1-.07.23-.107.365-.107.135 0 .265.038.365.107h.171l.341-.403a20.513 20.513 0 0 0-2.903-.52c.202-.072.342-.154.419-.143.482.119.994-.106 1.444.107.435-.237.885 0 1.335 0a.887.887 0 0 1 .435 0c.416.15.88.204 1.335.154.135-.01.27-.01.404 0v.035l-1.552.107c.217.142.341.26.17.414.202 0 .171.213.187.356l.496-.072.218.225-.621.438c.205.145.458.244.731.287.274.044.557.03.821-.038.386.31.874.535 1.413.651.373.071.435 0 .637-.19l.14-.153h.155l.435.26c.08.032.163.06.248.083v-.26c.264-.095.59.32.854 0l.388.165.311-.142.667.32c.171-.26.73 0 .901-.39-.171-.119-.543-.13-.388-.403a3.483 3.483 0 0 0-1.646.06.855.855 0 0 1-.389.045.771.771 0 0 1-.356-.129c.264-.154.76 0 .807-.367.412.084.846.084 1.258 0a4.4 4.4 0 0 1 1.117 0h.761a.419.419 0 0 0 .22-.02.296.296 0 0 0 .153-.122.256.256 0 0 0 0-.213.271.271 0 0 0-.091-.053.327.327 0 0 0-.313.053h-.077l-.916-.225.512-.237c.133.095.289.168.46.215.171.046.352.066.534.058a4.804 4.804 0 0 1 1.723.378h-.326a3.357 3.357 0 0 0-.497 0 1.433 1.433 0 0 0-.295.178c.078 0 .14.142.233.178.262.112.565.156.862.124.298-.032.573-.139.784-.302 0-.142-.28-.343.186-.39.14.355.559.283.87.26a7.132 7.132 0 0 1 1.552.106c.373 0 .73.202 1.118 0 0 0 .202 0 .28.071.077.071.465.225.729.356 0 0-.077.106-.124.106a.95.95 0 0 1-.248 0l-1.398-.308v.095l-.792.201a.77.77 0 0 0 .109.296.506.506 0 0 0 .295.154h.854c.28 0 .481 0 .544-.272 0 0 0-.071.108-.107.109-.035.109 0 .109 0 .124.391.124.344.699.356.574.011.621-.143.993-.154-.233-.285-.652-.119-.885-.296.559-.344.683-.332 1.196-.071.247.157.562.242.885.236a.836.836 0 0 1 .39.036.622.622 0 0 1 .293.201c.155.166.295.142.481 0a.96.96 0 0 1 .28-.154l.698-.213a1.49 1.49 0 0 1 .358 0l-.28.19c.683.106.683.106 1.025.378a3.323 3.323 0 0 1 1.552-.118.218.218 0 0 0 .156 0c.232-.201.481.06.745 0s.481.095.714.201a.877.877 0 0 0 .683 0c.419-.13.451-.106.777.19s.512.13.823-.119c.186.296.465.296.807.095.171.414.574.249.916.272l-.528-.237.155-.13.963.486.419-.19c.186.32.512.296.854.19.342-.107.59-.202.807.13 0 .118.59.13.777 0l.264-.095-.249.379c.2.067.419.096.637.083a3.023 3.023 0 0 1 1.77.154c.136.05.276.094.419.13.191.064.4.089.607.072.207-.016.404-.074.573-.167.202.332.404.344.699 0 .434.095.807.45 1.366.178.148.131.331.237.538.308.206.072.431.108.658.106.168.038.325.098.465.178l.202-.284.606.379c.574-.249 1.055 0 1.552.177.497.178.404.154.715-.13l.885.379a1.56 1.56 0 0 0 .217-.071.797.797 0 0 1 .442-.128c.164 0 .321.045.443.128 0 0 .155 0 .233.07.077.072 0 .072-.093.084a.327.327 0 0 0-.105.065.229.229 0 0 0-.06.091.189.189 0 0 0-.007.103.22.22 0 0 0 .047.096c.043.051.1.095.167.127a.658.658 0 0 0 .222.062c.303-.023.604-.063.9-.118l-.481-.166-.078-.272h-.528c.29-.111.608-.176.932-.19.683 0 1.273.26 1.941.237.184.087.396.133.613.133.217 0 .429-.046.613-.133.226-.028.457-.028.683 0l-.341.497-.916-.331c0 .107-.109.248 0 .308.108.059.093.308 0 .473l.636.178 1.211-.403-.232-.509.838.095c-.109.118-.14.201-.202.26-.062.06-.248.285 0 .427.324.101.678.134 1.025.094 0 0 0-.07.139-.142-.357-.13-.512-.308-.248-.592.295 0 .637-.118.885.178l.388-.201.388.165a2.275 2.275 0 0 1-.263.438c0 .083-.233.107-.358.154.373.344.715 0 1.041 0l.465.273.295-.38-.9-.425a1.775 1.775 0 0 1 1.273-.083l-.202.213.342.154-.171.19c.124.165.248.33.574.248a.366.366 0 0 1 .156 0c.341.213.636 0 .916-.095a.917.917 0 0 0 .419-.355l.606-.13c.108.142 0 .2-.094.272a.313.313 0 0 0-.118.237c0 .087.042.171.118.236.085.065.199.101.319.101a.528.528 0 0 0 .318-.1s0-.083.093-.083c.311.082.668-.071.932.118.077.056.18.087.287.087a.496.496 0 0 0 .287-.087c.171.118.155.367.466.332.31-.036.357-.214.404-.45.139.028.275.068.403.118.276.147.612.214.947.19.357 0 .451-.13.295-.38l-.124-.189c-.248.225-.59.154-.9.142a9.374 9.374 0 0 0-1.833-.142c-.217 0-.341-.095-.279-.26a1.86 1.86 0 0 1 .217-.249l.311.32.807.106c.096.025.2.025.295 0 .187-.118.451-.059.606-.142.403-.177.745 0 1.118 0 .124 0 .264.095.388.154.124.06 0 .071 0 .083 0 .012-.326.071-.264.237.025.07.083.132.163.174.08.04.176.059.272.05h.202c.062 0 .496 0 .698.202l.357-.308.28.308.869-.284-.481-.26.217-.226.497.569 1.553.083c.129-.018.255-.05.372-.095.264.367.699.32 1.103.296.403-.024.543 0 .714.296.171.296.109.272.357.284.248.012.217.107.295.19-.202 0-.373.07-.59-.084a.6.6 0 0 0-.193-.106.73.73 0 0 0-.468 0 .6.6 0 0 0-.193.107c-.543-.332-.714-.32-.994.07l-.248-.106a.407.407 0 0 0-.233-.07.409.409 0 0 0-.233.07.473.473 0 0 1-.233.06.476.476 0 0 1-.233-.06c-.186-.083-.403-.142-.605-.213.14-.166.279-.296.621-.13.089.052.198.08.31.08a.622.622 0 0 0 .311-.08.252.252 0 0 0 .075-.069.2.2 0 0 0 .034-.085s-.125-.13-.171-.13c-.528.082-1.087-.13-1.553.118l.171.331h-.466a.843.843 0 0 1 0 .143.382.382 0 0 1 0 .2h-.233a5.23 5.23 0 0 0-1.832-.26 2.216 2.216 0 0 1-.512-.094v.32a2.15 2.15 0 0 0-.497-.237 3.266 3.266 0 0 0-.59 0l-.388-.367c-.171.331.248.426.264.662l-.963-.165.218-.202-.575-.331c-.093.32-.528.118-.714.343l-.326-.225.295-.154-.947-.307h-.14c-.342.142-.652 0-1.04-.13l.124.58c-.186 0-.264.296-.574.26 0 0-.109.107-.156.166h-.885a2.71 2.71 0 0 0-1.226-.083h-.699a1.564 1.564 0 0 0-.388 0c-.186 0-.373.13-.59 0l.155-.095.202-.106-.668-.391c-.124.083-.497 0-.621.308-.528-.071-.528.284-.714.497.357.201.606.213 1.273.083v.331l1.072-.26c.17 0 .388-.119.527-.071.14.047.482 0 .761-.083.166.12.312.255.435.402.093.178.248.19.466.19.217 0-.14-.379.14-.474.237.06.481.104.729.13.228.012.456.012.683 0v-.142a5.745 5.745 0 0 0 1.708.415l-.481.248.124.25-.341-.155v.178c-.42.106-.901 0-1.289.248 0 .19.202.214.388.19.665-.028 1.332.004 1.987.095.109.005.218.005.326 0l.358-.06c-.171-.45-.715-.118-.948-.296v-.686h.42c-.093.509.45.414.807.544 0-.26.528-.284.435-.592.179.03.343.097.473.196a.697.697 0 0 1 .257.36h.947a.514.514 0 0 1-.255.186.702.702 0 0 1-.351.028 5.416 5.416 0 0 0-.745 0 .542.542 0 0 0-.314.104.318.318 0 0 0-.136.24c.232.106.388.058.481-.095.18.053.367.089.559.106h1.071c.357 0 .45-.106.668-.32l-.419-.118c-.187 0-.389-.071-.575-.107a.7.7 0 0 1-.14-.177 1.134 1.134 0 0 1 0-.308 18.317 18.317 0 0 1 2.671 0c.153 0 .303.027.44.079a1 1 0 0 1 .352.217.471.471 0 0 0 .193.136.63.63 0 0 0 .257.042c.419-.38.512-.403.994-.178a2.123 2.123 0 0 1-1.165.26 2.178 2.178 0 0 0-.714.143c-.248.059-.45.118-.637-.107-.186-.225-.372-.13-.559-.19-.527.427-.527.427-.403.687l.854.071v-.023c-.404 0-.761.272-1.211.142a.748.748 0 0 0-.342 0c-.155.059-.295.13-.45 0-.155-.13 0 0-.093 0-.373.153-.885 0-1.18.307-.311-.307-.746-.307-1.103-.402l-.171.343h-.108l-.155-.39c-.435 0-.885-.154-1.289.177h-.435c-.14 0-.636-.07-.823.201-.217-.13-.372-.284-.574-.32a2.292 2.292 0 0 0-.73 0v.332c-.419.119-.45-.426-.869-.26 0 .095.217.343-.233.308a.43.43 0 0 0-.08-.27.621.621 0 0 0-.246-.204c-.093 0-.109-.19-.109-.296.02-.11.056-.217.109-.32l.528.45c.139 0 .232-.07.155-.19a.638.638 0 0 0-.288-.308.967.967 0 0 0-.473-.117.507.507 0 0 1-.259-.05.332.332 0 0 1-.16-.163c0-.06-.093-.154-.171-.166a2.77 2.77 0 0 0-1.366.13l.605.379.125-.308c.419.308.419.332.093.793 0 .332.528 0 .636.225a.856.856 0 0 1-.854-.07v.236a3.812 3.812 0 0 1-.605.166 1.095 1.095 0 0 1-.482 0 1 1 0 0 0-.59 0 .444.444 0 0 0-.188.073.292.292 0 0 0-.11.138.224.224 0 0 0 .001.16c.019.053.058.1.111.138.074.075.142.154.202.237a7.137 7.137 0 0 1-.885.165.614.614 0 0 1-.342-.118c-.155-.071-.171-.296-.45-.19 0-.059-.109-.13 0-.189.049-.098.117-.19.202-.272-.249-.201-.574-.154-.854-.201-.279-.048-.466 0-.637-.178-.17-.178-.59 0-.652.071-.062.071-.202.249-.31.39.202.107.108.297.202.45h-.109a2.001 2.001 0 0 0-.683-.07c-.187 0-.326.189-.528.331.301.082.63.082.931 0 .202-.071.28 0 .295.166l-1.04.13a2.868 2.868 0 0 0-1.087-.817.869.869 0 0 1-.359.209 1.1 1.1 0 0 1-.448.04c-.233 0-.373.094-.512.213h-.373l-.217.355c-.28-.13-.187-.284 0-.45l-.295-.166.108-.213h-.341c-.28-.142 0-.462-.388-.615l-.14.378-.528-.224c-.14.142-.264.296-.404.414a.427.427 0 0 1-.139.084.542.542 0 0 1-.171.034c-.373 0-.745 0-1.149-.059l-.186.284a2.586 2.586 0 0 0-.249-.248c-.124-.095-.233-.213-.388-.249-.4-.075-.804-.134-1.211-.178-.14.26-.209.537-.202.817h.854l-.124.296a2.917 2.917 0 0 1-.357-.142c-.295-.154-.373-.166-.637 0a.345.345 0 0 1-.106.08.449.449 0 0 1-.287.038.444.444 0 0 1-.135-.047 1.249 1.249 0 0 0-.667-.07 2.263 2.263 0 0 1-.854-.178c.243-.12.522-.194.811-.215.29-.02.581.012.85.096 0 0 .14-.083.171-.13a.186.186 0 0 0 0-.178s-.171-.082-.218-.059c-.434.154-.823 0-1.226-.106l-1.087-.13c-.109 0-.217 0-.326.059h-.528l.248-.391c-.217 0-.419 0-.481.06-.062.058-.45.141-.699.13a1.331 1.331 0 0 0-.561.018c-.181.046-.341.13-.463.242.09.103.224.18.378.219a.95.95 0 0 0 .476-.006 2.769 2.769 0 0 1 1.288.13c.202.071.451 0 .668.119.217.118.248.094.233.13-.016.035-.14.106-.28.083a11.15 11.15 0 0 0-1.412-.19c-.272.014-.536.07-.777.166l-.419-.201c-.543-.284-.838-.26-1.366.094-.28-.118-.637 0-.932-.224-.295-.225-.342 0-.528 0-.202-.367-.528-.439-1.071-.154-.28-.19.14-.237.124-.38l-.807-.271-.994.153c0-.236.295-.165.45-.248-.171-.19-.419-.13-.605-.119a1.41 1.41 0 0 1-.53-.03 1.164 1.164 0 0 1-.448-.218l-.622.497a1.248 1.248 0 0 0-.139-.225s-.186-.166-.264-.154a4.099 4.099 0 0 0-.761.166c-.14 0-.217.166-.419.331.449.097.916.133 1.382.107.439-.03.88-.03 1.32 0 .124.225.124.225-.125.438h-.73c-.403-.355-1.071-.142-1.552-.32l-.14.415-.652-.095.559-.213c-.093-.332-.45 0-.652-.178-.202-.177-.435 0-.699 0v.308l-.652-.225-.14.249h-.636c.143-.056.279-.124.404-.201.069-.093.121-.193.155-.296.138.023.281.023.419 0 .357 0 .792 0 .963-.356 0-.07.201-.118.31-.19-.248-.224-.248-.212-.574-.082a.39.39 0 0 1-.153-.007.311.311 0 0 1-.127-.064c-.155-.178-.326-.178-.559-.083a.79.79 0 0 1-.276.086.868.868 0 0 1-.298-.015 1.058 1.058 0 0 0-.404.071v.332l-.326.07-.202.474.218.249c-.14 0-.28.071-.326 0-.047-.071-.42-.308-.637-.462l-.404.095a.732.732 0 0 0-.377-.24.967.967 0 0 0-.492-.009c-.202 0-.451-.07-.683-.118l-.125.177-.574-.177c-.171.26-.171.26.342.509h-.777l-.202-.308-2.08-.296V17.2h.636c.285.018.57.018.854 0 .261-.038.516-.098.761-.177.093.095.14.248.233.272.166.01.332-.014.481-.07.202-.06.451-.06.528-.285a1.075 1.075 0 0 0-.48-.198 1.242 1.242 0 0 0-.544.032 6.064 6.064 0 0 1-1.382.119c.17-.213.248-.367 0-.474a.507.507 0 0 0-.328-.038.434.434 0 0 0-.148.063.318.318 0 0 0-.099.105c-.31-.082-.59-.213-.807.095 0 .06-.202.083-.311.095-.15-.006-.3-.006-.45 0 0 0-.14.083-.14.13a.211.211 0 0 0 .061.072c.027.02.059.036.095.046.102.012.207.012.31 0 .264 0 .419 0 .481.285l-.729.225c0-.107-.109-.261-.218-.296a2.708 2.708 0 0 0-.636-.072v.237a5.908 5.908 0 0 0-.978-.462l-.094.072.264.45h-.574a1.22 1.22 0 0 0 .124-.237v-.237a.532.532 0 0 0-.357 0 4.74 4.74 0 0 0-.543.462l-.575-.06-.171-.532.466-.071.264-.51c-.248-.153-.497-.367-.854-.094h-.171a1.173 1.173 0 0 0-.279 0c-.497.106-.512.106-.699-.26h-.14a3.544 3.544 0 0 0-.326 0v.354l-.512-.2c-.388.094 0 .319-.124.473a4.792 4.792 0 0 1-.559-.06 2.67 2.67 0 0 1-.342-.106l.187-.272c0-.237-.311-.32-.621-.332 0-.213.279-.19.434-.248-.326-.486-.528-.521-.9-.142.123.014.237.06.324.128a.407.407 0 0 1 .157.25v.154l-1.056-.307.109.331-.481.083c-.264-.142 0-.26 0-.379-.404-.213-.451-.213-.683.13-.233-.083-.513-.083-.544-.367 0-.094-.217-.166-.357-.26h.45a1.082 1.082 0 0 0-.368-.162 1.273 1.273 0 0 0-.424-.028v.344a4.81 4.81 0 0 0-.45-.178c-.248-.07-.388 0-.388.213.008.246.14.48.368.655.228.174.536.274.859.28a.972.972 0 0 1 .419.083c.174.131.393.223.631.265.239.042.488.032.72-.028.217-.059.357 0 .403.19.016.13.016.26 0 .39l-1.04-.379c-.22.125-.477.206-.748.235a2.114 2.114 0 0 1-.805-.069.672.672 0 0 0-.328-.037.592.592 0 0 0-.293.12l-.202-.308a2.028 2.028 0 0 1-.388 0c-.248 0-.31.083-.341.26a1.076 1.076 0 0 1-.187.308h-.108c.043-.088.079-.18.108-.272 0-.19 0-.272-.295-.225-.295.048-.341.107-.543.166-.311-.426-.838-.107-1.382-.225l.544.332a9.341 9.341 0 0 1-.854.118c-.171 0-.404 0-.357-.225.124 0 .279.107.357 0 .077-.107 0-.166 0-.249h-.109l-.155.296a9.444 9.444 0 0 1-.839-.236 1.186 1.186 0 0 0-1.149.082v-.2a.29.29 0 0 0-.17-.107c-.094 0-.218.059-.233.106-.05.164-.081.33-.094.497-.248 0-.108-.236-.326-.272-.217-.035-.201-.213-.279-.296l.574-.32c.187-.07.094-.142 0-.213a.302.302 0 0 1-.083-.124.248.248 0 0 1-.005-.14.288.288 0 0 1 .074-.13.406.406 0 0 1 .139-.091l-.14-.118a.438.438 0 0 0-.14-.136.605.605 0 0 0-.202-.078.688.688 0 0 0-.226-.006.618.618 0 0 0-.208.066.77.77 0 0 1-.249 0 .694.694 0 0 0-.339.045.483.483 0 0 0-.235.191c0 .06-.187.095-.311.154a1.382 1.382 0 0 0-.502-.204 1.597 1.597 0 0 0-.569-.009.82.82 0 0 0-.269.03.685.685 0 0 0-.228.112.484.484 0 0 1-.155.084.592.592 0 0 1-.373 0 .484.484 0 0 1-.155-.084l-.388-.177c-.482-.237-.528-.225-.606.26.342 0 .683.095 1.025.119.341.023.947.07 1.413.082.466.012.512.083.481.439 0 .094.078.189.155.331a1.364 1.364 0 0 1-.418-.176 1.023 1.023 0 0 1-.296-.286c0-.059-.155-.154-.233-.154-.434 0-.9-.142-1.335.06l-.388.153a1.77 1.77 0 0 1-.666.258c-.246.044-.503.04-.747-.009h-.326a2.089 2.089 0 0 1-.528.107c-.419 0-.823-.095-1.242-.119a3.599 3.599 0 0 1-1.009-.118l-.652-.166.279-.248c0-.332 0-.367-.497-.403-.497-.035-.683-.213-1.024 0a1.477 1.477 0 0 0-.59-.12 1.47 1.47 0 0 0-.59.12 10.286 10.286 0 0 0-2.764-.071 2.244 2.244 0 0 1-.388 0l-.187.308s-.108 0-.108-.083c0-.213-.109-.272-.357-.284l-2.624-.237-.171.225h-.186c-.187-.06-.358-.142-.544 0-.186.142-.155 0-.233 0l-.978-.19a1.291 1.291 0 0 0-.637 0 8.563 8.563 0 0 1-1.133.119c-.14-.107 0-.201 0-.32.171-.32.093-.32-.31-.52a.79.79 0 0 0-.412-.112c-.15 0-.295.04-.411.111l-.528-.19-.187.214-.776-.166v-.307a.46.46 0 0 0-.265.132.275.275 0 0 0-.076.234c0 .261.372.202.574.344l-1.149-.083.124.533-.295.094c-.217-.343-.714-.331-1.04-.544-.342.118-.357.533-.869.52l-.14-.272c-.28 0-.404-.402-.823-.224-.109.32.419.094.435.343 0 0-.109.059-.124 0-.264-.142-.622.059-.854-.154-.373.095-.823-.142-1.103.272-.14-.497-.621-.438-.978-.497-.357-.06-.543.272-.776.462h-.125a.84.84 0 0 0-.478-.271 1.057 1.057 0 0 0-.593.046.91.91 0 0 1-.341 0c-.326-.06-.668-.201-.979.07h-.279l-.901-.366h.451v-.13a1.062 1.062 0 0 0-.373-.178 3.722 3.722 0 0 0-1.444.106.984.984 0 0 1-.528 0 4.043 4.043 0 0 0-1.009-.07c-.14 0-.264.118-.45.2-.13-.092-.24-.2-.326-.319a.295.295 0 0 0-.084-.12.414.414 0 0 0-.145-.078.502.502 0 0 0-.346.02 1.32 1.32 0 0 1-.17.273s-.233.118-.295.095a.65.65 0 0 0-.394-.039.573.573 0 0 0-.179.072.426.426 0 0 0-.126.12c-.233.26-.528.237-.854.26 0-.449.667-.295.807-.627a3.221 3.221 0 0 0-1.009 0c-.093 0-.186.095-.248.166a.598.598 0 0 1-.271.173.779.779 0 0 1-.35.028c-.28 0-.59-.106-.854.083-.264.19-.202 0-.295 0h-1.211l-.171-.45h-.854v.296h-.745l-.109.344c-.435 0-.404-.403-.761-.498l-.109.202h-1.444v.355a1.416 1.416 0 0 1-.9 0 1.025 1.025 0 0 0-.683 0 1.7 1.7 0 0 1-.59 0c-.621-.166-.777-.13-1.196.272 0 0-.139 0-.248.083v-.402a2.914 2.914 0 0 1 1.553-.285c.082.011.166.011.248 0 .373-.13.373-.13.668.13l.295-.45h-1.072c-.326 0-.248.095-.388.131a3.67 3.67 0 0 1-.435.083l.171-.249a4.003 4.003 0 0 1-.404-.059.568.568 0 0 0-.315-.044.49.49 0 0 0-.275.127.288.288 0 0 1-.092.048.351.351 0 0 1-.311-.048.49.49 0 0 0-.187 0c-.372.106-.372.106-.419-.178a.123.123 0 0 0 0-.07c-.357-.226-.621 0-.962.082l-.125-.095c-.341-.236-.714-.177-.854.154-.139.332-.186.225-.388.19a.928.928 0 0 0-.396.002.762.762 0 0 0-.333.164c.652.272.869.426 1.443-.095.295 0 .59.213.901 0 0 0 .155.059.233.095.077.035-.093.154-.155.165-.15.018-.301.018-.451 0l-.496-.094v.378c-.175.03-.351.055-.528.072h-.342a1.366 1.366 0 0 1-1.056.06 1.631 1.631 0 0 0-.574.07c-.186 0-.373.094-.575.118.202-.308.699-.166.963-.379-.342-.236-.637-.213-1.196.107v-.296a3.85 3.85 0 0 0-1.801 0 .966.966 0 0 1-.363.026.875.875 0 0 1-.335-.11c.45-.153.931-.189 1.195-.627 0 .214-.108.38.187.427a.928.928 0 0 1 .217-.273c.12-.055.251-.095.388-.118-.14-.201-.295-.426-.466-.627-.17-.202-.202 0-.248 0-.047 0 0 .142-.109.213h-.171c-.45-.071-.636 0-.776.296a.747.747 0 0 1-.282.364 1.128 1.128 0 0 1-.494.192c-.699.107-1.32.332-2.003.485a.602.602 0 0 1-.248 0 .897.897 0 0 0-.715.06l-.807-.142v.402s-.109 0-.124-.06c-.202-.26-.202-.26-.59-.106h-.125a4.608 4.608 0 0 0-1.35.225c-.373.119-.761-.248-1.103 0h-1.397c.217-.237.326-.497.807-.426v-.663a1.119 1.119 0 0 1 .808 0c.155 0 .326.083.434-.07.109-.155-.093-.285-.341-.309a5.503 5.503 0 0 0-.637 0 2.313 2.313 0 0 1-.559 0 3.137 3.137 0 0 0-1.723.355h-.186v-.177c0-.119 0-.19-.171-.178-.171.012-.187.095-.124.19v.094l-.466.142-.373-.331-.435.213c.109.272.389.154.59.213.202.06 0 .225-.217.237-.208-.018-.419 0-.618.05-.198.051-.38.135-.531.246h-.077l-.202-.521h.326c0-.225-.218-.225-.404-.213-.699.06-.699.06-.978.698l-1.056-.189c.171-.095.248-.19.326-.19.207.016.416-.017.598-.093a.946.946 0 0 0 .427-.333c-.295-.165-.295-.165-.652 0a.273.273 0 0 1 0-.106v-.154c.477-.032.917-.207 1.226-.486l-.45-.272a.63.63 0 0 1-.349.101.634.634 0 0 1-.35-.1l-.093.319h-.434a1.224 1.224 0 0 0-.566.046.919.919 0 0 0-.428.285c0 .06-.233.06-.342.083 0-.308.388-.426.714-.556a.643.643 0 0 0-.326 0c-.388.095-.823 0-1.211.106-.217-.118-.357 0-.543.142l.481.498.901-.178-.839.367-.931-.296s-.171.142-.28.13a3.306 3.306 0 0 1-.745-.142c.404-.225 1.009-.07 1.304-.485a1.357 1.357 0 0 0-.776-.237 1.362 1.362 0 0 1-.494-.053 1.108 1.108 0 0 1-.407-.22c-.403.45-.403.45-.31.758l.404.083s-.078.083-.094.083c-.15.006-.3.006-.45 0a1.294 1.294 0 0 1-.699-.19.331.331 0 0 0-.12-.059.402.402 0 0 0-.143-.011c-.233 0-.233-.095-.249-.213a.798.798 0 0 0 .455.041.635.635 0 0 0 .368-.207c-.342 0-.512-.414-.978-.26a.314.314 0 0 1-.233 0c-.14-.13-.342-.072-.497-.095a6.793 6.793 0 0 1-.854-.225s-.077-.06-.108-.071c-.032-.012-.544-.19-.715 0-.481-.13-.869-.39-1.397-.201a.284.284 0 0 1-.14 0c-.233-.19-.466-.072-.698 0a2.68 2.68 0 0 0-1.165-.344c-.545-.009-1.066-.174-1.459-.462a6.337 6.337 0 0 1-1.196-.165c-.388 0-.761-.119-1.133-.19a24.567 24.567 0 0 1-1.553-.39h-.202c-.388.142-.559 0-.667-.296l-.544.153a.739.739 0 0 1-.574 0c-.14-.07-.373 0-.544 0l-1.863-.32c-.155.261-.435.273-.807.202a3.917 3.917 0 0 0-.823 0c-.14-.32.295 0 .326-.166 0-.378-.419-.39-.668-.58-.35.072-.671.21-.931.403a.679.679 0 0 1-.28.106 6.824 6.824 0 0 0-1.304.107c-.309.03-.622.03-.932 0v-.32l.746.083a1.077 1.077 0 0 0 0-.367c-.078-.248-.388-.32-.59-.118a.57.57 0 0 1-.264.167.745.745 0 0 1-.342.022 1.907 1.907 0 0 0-.45 0l-.342.071A.586.586 0 0 0 131 9.81a.83.83 0 0 0-.489-.064.743.743 0 0 0-.23.08c.124.331-.264.426-.559.568l.124.39a.789.789 0 0 1-.217 0 1.467 1.467 0 0 0-.723.033c-.23.07-.423.196-.55.358-.373.32-.544.356-1.227.26.248-.236.606-.07.885-.188 0-.237 0-.486.435-.486.077 0 .186-.107.233-.178.095-.137.178-.28.248-.426-.373-.236-.59.166-.932.13l-.31-.141-.543.224c-.156 0 .248.296-.187.296v-.307c-.341 0-.341 0-.31.52-.249.072-.404-.094-.606-.13l-.341.166v-.332c-.295-.177-.606 0-.994 0l.512.734-.885.51-.403-.154.45-.284a3.23 3.23 0 0 0-1.553-.107c-.171 0-.31.19-.466.296l.171.651-.528-.237c-.108.178-.217.367-.341.533-.124.166-.233.26-.482.154l.249-.379-.621-.32c.155-.153.326-.272.108-.45a1.281 1.281 0 0 0-.683.155c-.087.035-.181.06-.279.07-.202 0-.342.143-.28.296.063.154-.093.273-.217.356-.124.083-.528.284-.792.438l-.605.343c-.404.249-.404.249-.854 0l-.202.308c-.218 0-.466 0-.497.237 0 0-.186.083-.295.083h-.73c-.248 0-.683.236-1.04.331-.357.095-.528.19-.792.225a1.25 1.25 0 0 1-.484-.011 1.053 1.053 0 0 1-.416-.19c-.342-.32-.73-.237-1.149-.142a3.486 3.486 0 0 1-.668.142c.125-.22.344-.399.621-.51h-.605c.248-.272.714-.236 1.009-.485a2.895 2.895 0 0 0-.342-.095h-.652c-.279 0-.543 0-.621.285a.26.26 0 0 1-.142.14.398.398 0 0 1-.231.025 4.62 4.62 0 0 0-.698 0c-.2.01-.398.039-.59.083v.202c0 .059-.326.296-.528.13a1.47 1.47 0 0 0-.792-.225 3.24 3.24 0 0 1-1.211-.225c-.155-.083-.388 0-.574-.095a1.683 1.683 0 0 1-.808-.379 2.223 2.223 0 0 0-.667-.343c-.109 0-.28 0-.373-.107a.817.817 0 0 0-.792-.189.276.276 0 0 1-.171 0c-.332-.246-.778-.383-1.242-.379a1.244 1.244 0 0 1-.621-.201.626.626 0 0 0-.306-.168.784.784 0 0 0-.377.002.496.496 0 0 1-.45-.237c-.093-.153-.187-.284-.59-.236h-.156c-.698-.32-1.552-.344-2.266-.71a10.4 10.4 0 0 0-.87-.32c-.28-.119-.528-.273-.807-.38-.28-.106-.56-.165-.839-.272a4.105 4.105 0 0 1-.45-.236 9.722 9.722 0 0 0-1.46-.308h-.155c-.264-.225-.667-.095-.978-.225a.684.684 0 0 0-.341 0 2.694 2.694 0 0 1-1.32-.201 1.568 1.568 0 0 0-.776-.199c-.28 0-.553.07-.777.199l-.357-.308c-.17 0-.45 0-.605.13a.67.67 0 0 1-.274.12.788.788 0 0 1-.316-.002c-.295 0-.606.072-.885-.082-.28-.154-.171 0-.249.07l-1.118-.568s-.233 0-.264.095a.518.518 0 0 0 0 .26.984.984 0 0 1-.411.088.984.984 0 0 1-.411-.087 1.178 1.178 0 0 0-.572-.053c-.193.03-.368.107-.5.218v-.32c-.45 0-.667.332-.994.51l-.201-.154c-.28.426-.823.296-1.32.414l.109-.331h-.621a.598.598 0 0 1-.204.275.883.883 0 0 1-.355.163c-.295.094-.295.177 0 .367l-.575.201.171-.201c-.683-.249-.76-.225-1.304.165-.078 0-.233 0-.31.095-.078.095-.094.13-.156.225l-.342-.177a.55.55 0 0 0-.264-.066.55.55 0 0 0-.264.066c-.17.106-.077.236 0 .355a.645.645 0 0 0 .11.154c-.389 0-.808-.178-.979.236-.559-.2-.699.19-.947.403-.28-.083-.466-.166-.295-.403 0 0 0-.094-.078-.142l-.73.308v.32l-.403.07c-.155.12.078.38-.357.415 0-.154.093-.296.124-.438.031-.142.14-.237 0-.308-.14-.07-.248 0-.388 0-.328.06-.625.192-.854.38a.226.226 0 0 1-.075.049.29.29 0 0 1-.096.021c-.45 0-.652.308-1.01.415-.356.106-.248.189 0 .426a.817.817 0 0 0-.45-.13.817.817 0 0 0-.45.13c-.42.18-.862.33-1.32.45-.108-.166-.232-.308-.496-.225l-1.072 1.124h-.326l-.372-.059.745-.308c.109 0 .17-.142.31-.248-.294 0-.48-.083-.651.106a.983.983 0 0 1-.466.213 1.152 1.152 0 0 0-.606.26 4.464 4.464 0 0 1-.947.486l-.14-.402-.683.118v.557a1.193 1.193 0 0 0-.503.16.82.82 0 0 0-.32.337c-.25.126-.509.24-.776.343a2.082 2.082 0 0 1-.621.107 1.21 1.21 0 0 1 .361-.34c.15-.094.323-.164.508-.205.404-.07.56-.379.746-.71-.684.176-1.294.486-1.77.9l-.264-.45c-.404.154-.435.236-.202.568a.444.444 0 0 1-.109.118c-.38.179-.653.463-.76.793l-.311-.295-.295.189-.699.095zm230.41 1.089l-.093-.225-.357.107v.106h.434c.093.26.264.107.435.06-.109-.25-.264-.084-.419-.048zm-25.774-4.937c-.233.249-.233.249.249.414v.285a.49.49 0 0 0 .259-.223.333.333 0 0 0 .005-.298c-.109-.249-.373-.178-.606-.166l.217-.237-.403-.296v.51l.279.011zm-17.762-.379a.285.285 0 0 0 .098 0 .244.244 0 0 0 .087-.034.177.177 0 0 0 .059-.059.129.129 0 0 0 .02-.072c-.233 0-.233 0-.248.177-.187 0-.435 0-.544.071-.108.071-.497.142-.776.095a1.181 1.181 0 0 0-.28 0c.129.1.29.173.466.213.559.142.901.118 1.118-.39zm12.297 1.078c.233.236.233.236.497.106l-.497-.106c-.543.094-1.04-.13-1.553-.154h-.31c.025.09.067.178.124.26 0 0 .14 0 .233.071.299.07.606.121.916.154.198-.003.393-.036.575-.095 0 0 0-.165.015-.236zm-70.194-5.92l1.164.272a.887.887 0 0 0 .388 0c.164-.057.312-.137.435-.236v-.202a.745.745 0 0 0-.404-.113.742.742 0 0 0-.403.113.438.438 0 0 1-.213.086.493.493 0 0 1-.237-.026.847.847 0 0 0-.35-.03.76.76 0 0 0-.318.112c-.295 0-.59 0-.776-.248-.187-.249-.295-.13-.497 0s-.559.296-.916.213l-.295.426a.855.855 0 0 0 .402.04.753.753 0 0 0 .359-.146.448.448 0 0 1 .251-.12.532.532 0 0 1 .292.037l.497.19.745-.19-.124-.178zm32.776 2.368l-.839.106.233-.355-.248-.248-.357.13c.31.154.17.26 0 .331.062.112.146.215.248.308.155.095.357.225.543.213.575 0 1.149-.07 1.708-.118.094-.119.14-.272.233-.296.261-.047.532-.047.792 0 .183.04.376.042.559.004.184-.038.35-.113.481-.217-.45 0-.838-.308-1.35-.119h-.528c-.343.06-.698.06-1.041 0-.207-.055-.42-.099-.636-.13-.171.154.124.237.264.39h-.062zm-102.862 3.327h-1.102l-.093.307h-.497a.394.394 0 0 1-.186.28.659.659 0 0 1-.389.1.647.647 0 0 1-.108.319 2.697 2.697 0 0 1-.42.39.237.237 0 0 0-.076.075.172.172 0 0 0 0 .183.237.237 0 0 0 .076.074l.435-.19h.093c.637.166.839.095 1.01-.366a.54.54 0 0 1 .154-.241.785.785 0 0 1 .28-.162c.28-.095.559-.166.652-.426 0-.071.187-.107.28-.154.093-.047.45-.178.652-.284.202-.107.124-.142.093-.19a.23.23 0 0 0-.086-.087.328.328 0 0 0-.131-.043 2.677 2.677 0 0 0-.435 0l-.202.415zm152.049 1.515l.885.083.217-.201a.294.294 0 0 0 .09.091.4.4 0 0 0 .131.056.467.467 0 0 0 .292-.029c.134-.037.278-.048.419-.031.141.017.274.06.388.126.481.248.745.225 1.227-.083-.249-.592-.917-.722-1.553-.817l-.249.26a2.511 2.511 0 0 0-1.117-.118 3.671 3.671 0 0 1-.854-.071h-.093v.249l.838.2-.621.285zm1.553-1.859a1.78 1.78 0 0 1 .698-.139c.245 0 .486.048.699.14.1.04.212.06.326.06a.879.879 0 0 0 .326-.06c.39-.153.819-.238 1.258-.25.256-.004.51-.028.76-.07a1.91 1.91 0 0 0-.31-.13l-1.786-.237a.54.54 0 0 0-.31.07c-.14.107-.249.072-.404 0-.155-.07-.714-.141-1.056-.2l-.497-.083-.357-.095a4.445 4.445 0 0 0-.543.296.286.286 0 0 0-.087.103.225.225 0 0 0-.022.122s.187.083.28.118c.093.036.093 0 .139 0a.844.844 0 0 1 .542.026c.082.034.154.08.211.137a.457.457 0 0 1 .117.192h.016zm-21.039 3.197a1.45 1.45 0 0 1 .901 0c.388.07.792.106 1.195.154l.202-.38a.61.61 0 0 0 .204.207.847.847 0 0 0 .302.116c.111.021.227.022.338.003a.858.858 0 0 0 .305-.112 12.58 12.58 0 0 0-.776-.426c-.264-.13-.264-.095-.342-.06-.497.226-.916-.07-1.366-.118l-1.242-.118a.556.556 0 0 0 .002.397c.049.13.145.247.277.337zm40.089.663c.187 0 .357-.166.481-.142.662.034 1.317.118 1.957.248.066.01.135.01.202 0l.481-.094.109.13a.29.29 0 0 0 .1.1.412.412 0 0 0 .148.054.47.47 0 0 0 .165-.002.412.412 0 0 0 .146-.058.315.315 0 0 0 .118-.066.215.215 0 0 0 .065-.101.18.18 0 0 0-.003-.113.229.229 0 0 0-.072-.098l-.093-.142c-.197-.356-.507-.427-.931-.214l-.59.273a6.289 6.289 0 0 0-.637-.154c-.311 0-.637-.071-.947-.13-.311-.06-.714.142-.699.52v-.011zm-.279-.699h-1.071a1.066 1.066 0 0 1-.218-.07 1.56 1.56 0 0 0-.582-.111 1.56 1.56 0 0 0-.582.11.624.624 0 0 0-.251.35.515.515 0 0 0 .064.396c.043.04.104.065.171.071.186.018.373.018.559 0 0 0 0-.118.093-.154.093-.035.342.083.419 0 .078-.083.358 0 .544 0 .528.071.776-.083.854-.556v-.036zm-79.634-1.491c-.218 0-.482-.107-.668 0-.42.105-.865.142-1.304.106a5.53 5.53 0 0 0-1.087 0c-.155 0-.28.071-.481.118-.202.048-.249-.307-.621-.106.201.118.357.272.543.296.683.071 1.366.095 2.049.13h.808l.838.095v-.083l-.59-.284.249-.13.264-.142zm27.947 2.367c.155.13.279.308.404.308.124 0 .093.308.341.32h.14c.289.011.58.011.869 0 .29-.012.58-.012.87 0 .233 0 .31-.107.202-.284l-.156-.13 1.134-.202c-.482-.07-.947-.26-1.382 0h-.248a6.696 6.696 0 0 1-1.32-.177 1.21 1.21 0 0 0-.481-.029 1.073 1.073 0 0 0-.435.159l.062.035zm55.894 1.374a2.17 2.17 0 0 0 1.274.236h.139c.28.202.482 0 .699 0a1.657 1.657 0 0 0-.248-.52 2.902 2.902 0 0 0-.606-.344c-.419.107-1.009-.166-1.382.237l.124.39zm-56.375-6.429c0 .225.186.45.527.438.386-.032.77-.08 1.149-.142.094.107.187.296.482.26a.837.837 0 0 0 .388-.094c.109-.118 0-.213-.186-.272l-.14-.107.279-.095-.388-.379c-.373.13-.807 0-1.133.213h-.295a.693.693 0 0 0-.411-.046.56.56 0 0 0-.335.189l.063.035zm42.899 1.373c-.358-.142-.451.095-.559.202-.109.106-.125.402.263.438.121.015.237.047.342.095.124 0 .233.153.357.165.124.012.249-.095.404-.154.093.284.419.071.621.154l.186.344.761-.19c0-.106-.093-.284-.155-.296-.062-.012-.264-.154-.342-.284-.077-.13-.295-.26-.497-.166a.463.463 0 0 1-.357 0 .662.662 0 0 0-.341 0c-.342.237-.59.071-.901-.07l.218-.238zm-56.159-.722c.109.166.311.178.512.178h1.165c.388 0 .994.142 1.413-.19 0 0 .155 0 .233-.07.077-.072.17-.095.31-.166h-.264a6.336 6.336 0 0 1-1.552-.119c-.093 0-.249 0-.373.071a.506.506 0 0 1-.357.071 1.539 1.539 0 0 0-.617 0 1.304 1.304 0 0 0-.532.237l.062-.012zm29.5-.793c.165-.018.332-.018.497 0a14.85 14.85 0 0 0 1.925.19.423.423 0 0 0 .202 0l.512-.202a1.176 1.176 0 0 0-.67-.439 1.562 1.562 0 0 0-.882.025c-.21.094-.448.143-.691.143a1.7 1.7 0 0 1-.691-.143c-.171.13-.419.19-.311.39l.109.036zm11.722.9v-.095l1.134.142c.05.012.104.012.155 0 0 0 .14 0 .14-.095 0-.094 0-.13-.109-.142l-1.366-.367-.093.202c-.916-.344-1.025-.391-1.553.165.233.143.466.308.73.45a.37.37 0 0 0 .233 0l.729-.26zm14.983 2.936c.229.127.447.266.652.414.196.148.378.306.544.474.372-.39.885-.26 1.397-.332 0-.13-.078-.307-.186-.343-.23-.112-.49-.18-.761-.201-.621-.06-1.118-.048-1.755-.048l.109.036zm-54.466-.13c-.45.059-.435.355-.621.532-.186.178-.109.202-.186.213-.388 0-.59.415-1.041.356 0 0-.139.082-.217.118-.078.036.171.13.264.13h1.071c0-.201.093-.331.388-.296a.459.459 0 0 0 .269-.027.297.297 0 0 0 .166-.162l-.279-.379.419-.213-.233-.272zm-18.756.556c-.233-.083-.481-.118-.559-.225-.077-.106-.434-.237-.714-.237h-.497l-.202.19a.19.19 0 0 1 0-.095c0-.142-.093-.213-.295-.201-.201.012-.232.118-.217.248.016.13 0 .273 0 .403.342 0 .699 0 1.04-.095.342-.095.59 0 .73.237l.714-.225zm-6.21-6.393c0-.225.124-.426.435-.509.149-.028.291-.076.419-.142a.52.52 0 0 1 .279-.078c.102 0 .201.028.28.078.31.154.403 0 .59-.213-.668-.166-1.351-.071-1.879-.355-.184.159-.308.353-.36.56a.921.921 0 0 0 .065.624l.171.035zm76.078 4.63c.233.248.435.33.559.165.095-.11.225-.2.376-.261.152-.062.322-.095.494-.094a2.657 2.657 0 0 0-.217-.284.375.375 0 0 0-.118-.075.46.46 0 0 0-.146-.032h-.994c-.342 0-.497.107-.544.497l.59.083zm-60.288 1.183v-.107c-.093-.082-.171-.213-.295-.26a8.738 8.738 0 0 0-.963-.296.528.528 0 0 0-.341 0c-.142.3-.169.624-.078.935 0 .06.202.119.326.142.124.024.155 0 .187-.082.031-.083 0-.107 0-.13l-.295-.226v-.094l.652.07.807.048zm72.523 0c.14.39.155.402.559.402s.668 0 1.009-.07v-.226l.435-.142a2.529 2.529 0 0 0-1.025-.2 6.39 6.39 0 0 0-1.149.212l.171.024zm-78.175-4.321c-.295 0-.372-.249-.636-.19a.381.381 0 0 0 .175.255.63.63 0 0 0 .353.1c.171 0 .357 0 .528.083H212.027c-.1-.154-.22-.301-.358-.438a.474.474 0 0 0-.166-.072.566.566 0 0 0-.191-.01c-.559 0-1.024-.072-1.257.248l.17.024zm39.67 5.73c.497.331 1.149.154 1.553.438l.59-.344c-.218-.272-.482-.402-.699-.296-.217.107-.683 0-1.009-.118l-.435.32zm-45.663-6.808l-.729.652a.23.23 0 0 0-.065.073.18.18 0 0 0-.023.086c0 .03.008.06.023.087a.23.23 0 0 0 .065.073c.17.166.807.166.885 0a.309.309 0 0 1 .134-.166.481.481 0 0 1 .238-.07c.127-.05.242-.113.342-.19-.544-.178-.932-.166-1.04-.568l.17.023zm93.903 6.216l.342-.462c-.404 0-.792-.213-1.118-.07-.317.145-.691.2-1.056.153 0 .284 0 .296.28.308.341.012.869.023 1.381.047l.171.024zm-54.637-2.57c.264.072.497 0 .714-.224.218-.225.187-.119.125-.201a.368.368 0 0 0-.114-.087.473.473 0 0 0-.15-.044h-1.056c-.171 0-.249.071-.28.178-.031.107.094.39.451.402l.31-.023zm-20.184 1.942c.761.284 1.04.143.994-.497a2.88 2.88 0 0 0-.902.129 2.39 2.39 0 0 0-.76.392c.109.201.327-.035.544-.047l.124.023zm51.718-1.918c0-.189.155-.355.481-.378 0 0 .187-.19.202-.308a.257.257 0 0 0-.082-.124.367.367 0 0 0-.151-.077c-.093 0-.202.082-.31.142l-.124.106-.621-.296c0 .154-.156.296-.109.426.046.13.248.119.388.178.14.06-.109.284.202.367l.124-.036zm-49.28 2.049c.31.189.621.343.978.082 0 0 .186 0 .279-.082l.497-.214-1.211-.367-.217.498-.326.083zm56.655.13l.559.355.264-.154c.29.125.612.201.944.224.332.022.667-.01.981-.094-.419-.07-.776-.142-1.164-.177a1.913 1.913 0 0 1-.388-.095c-.466-.154-.823-.438-1.32-.083l.124.024zm-74.386-3.836c0-.106.077-.213 0-.284-.078-.071-.202-.249-.311-.249-.246.01-.488.054-.714.13-.174.07-.34.148-.497.237.183.134.417.22.668.245.252.026.507-.01.729-.103l.125.024zm78.656 3.15c-.513-.107-.497-.107-.885.106a.974.974 0 0 1-.388.154c-.342 0-.094.19-.125.32h-.512c.357.33.342.307.792.2a.676.676 0 0 0 .298-.138.44.44 0 0 0 .152-.24c0-.107.093-.202.124-.308.264.06.264.06.419-.118l.125.023zm-72.974-5.766l-.264.082c.466.13.978.13 1.444 0a.377.377 0 0 0 .223-.096.22.22 0 0 0 .072-.188 3.671 3.671 0 0 0-1.086-.13c-.559-.095-.575-.035-.482.308l.093.024zm-25.556-.71a.526.526 0 0 0 .272.072.528.528 0 0 0 .272-.073.959.959 0 0 1 .683 0 .899.899 0 0 0 .372.035.816.816 0 0 0 .342-.118l-.575-.307c-.186 0 0 .165-.31.082a1.592 1.592 0 0 0-.745 0c-.218-.023-.311.166-.404.285l.093.023zm75.411 5.777v.083h.932a.529.529 0 0 0 .295-.13 4.3 4.3 0 0 0 .388-.308c-.295-.202-.404.094-.668.118a2.607 2.607 0 0 0-.186-.343.368.368 0 0 0-.12-.064.441.441 0 0 0-.144-.02c-.14 0-.14.13 0 .214 0 .07.14.083 0 0l-.497.45zm-37.837 2.024c.14.163.346.288.587.354s.503.07.748.013l.155-.52c-.605.07-1.087-.048-1.583.13l.093.023zm33.288-4.321c.233.071.45.154.683.213.233.06.28 0 .388-.095.109-.094.125-.225 0-.272a3.027 3.027 0 0 0-.652-.284 1.882 1.882 0 0 0-.45 0l.031.438zm-50.041-2.581c0-.485-.093-.52-.621-.533-.528-.012-.621.26-.916.426.139 0 .326.095.388 0 .062-.094.466-.07.699 0 .115.036.235.064.357.083l.093.024zm-4.394-.509c-.171 0-.326-.118-.404-.083-.077.036-.388 0-.59 0-.179-.01-.36.01-.528.06 0 0-.108.153-.093.212.016.06.093.178.264.119a.503.503 0 0 1 .264 0c.419.106.59.07.994-.332l.093.024zm84.09 5.517c.109.225.326.166.528.177.179.017.355.044.528.083.202 0 .388.083.543 0a.758.758 0 0 0-.276-.336 1.123 1.123 0 0 0-.461-.183 1.29 1.29 0 0 0-.519.019 1.06 1.06 0 0 0-.436.216l.093.024zm-4.114 3.788c.543 0 .621.202.698.462.078.26.14.178.264.308l.513-.45-.497-.201-.109-.426c-.326.272-.683-.048-.916.284l.047.023zm-19.129-5.02c-.279-.58-.388-.627-1.009-.425l.14.414-.233.237.543-.095.559-.13zm-6.987-.97c0-.201.094-.379.125-.557.031-.177 0-.2-.218-.213h-.76v.32c.232 0 .388 0 .419.249.031.248.108.236.341.177l.093.024zm-31.331-2.368c.067.004.134.004.201 0 .35-.046.707-.046 1.056 0a.864.864 0 0 0 .361-.024.683.683 0 0 0 .291-.165l-.9-.178a.401.401 0 0 0-.233 0 .373.373 0 0 1-.202.057.373.373 0 0 1-.202-.057c-.419.071-.419.201-.419.403l.047-.036zm51.236 8.406a.817.817 0 0 0 .259.236c.108.063.232.109.365.132.133.024.271.025.404.005.134-.021.26-.063.37-.125a2.64 2.64 0 0 1-.327-.177c-.139-.095-.201-.284-.465-.213l-.606.142zm-49.575-.817c.357-.095.605-.142.854 0 .248.142.372.142.543-.083a.216.216 0 0 0 0-.237s-.171-.07-.248-.07h-.746c-.248 0-.403.177-.465.425l.062-.035zm56.655-2.924c.093-.127.166-.262.217-.403v-.308a.76.76 0 0 0-.434 0 .41.41 0 0 0-.171.076.276.276 0 0 0-.096.132.223.223 0 0 0 .005.15c.02.05.057.093.106.128.095.093.199.18.311.26l.062-.035zm-8.291.331c-.668-.178-.823-.166-1.056.06l.435.425c.311.012.45-.177.559-.45l.062-.035zm-19.734-3.457c-.31.107-.497.095-.543-.142a.244.244 0 0 0-.091-.075.32.32 0 0 0-.126-.031s-.171.13-.156.153c.016.024 0 .26-.155.38.574.319.761.283 1.009-.25l.062-.035zm3.742 7.175l.652-.06-.388-.213.404-.248-.187-.249-.527.166a.585.585 0 0 0-.108.318.572.572 0 0 0 .092.321l.062-.035zm-18.849-1.019a.214.214 0 0 0 .057.076.29.29 0 0 0 .092.052.352.352 0 0 0 .224.003c.174-.042.33-.12.45-.225.109-.095 0-.38-.202-.415-.202-.035-.341 0-.388.19-.071.13-.171.25-.295.355l.062-.036zm37.263-.58c-.186-.32-.512-.402-1.009-.296.388.592.404.604 1.025.332l-.016-.036zm-44.172-4.38l.59.213.916-.26a2.134 2.134 0 0 0-1.49.082l-.016-.035zm36.176 6.109l.73.497c.419-.154.419-.154.373-.497h-1.103zm-25.696-6.346c0 .32 0 .32.357.379h.171c.016 0 .186.225.342.118.155-.106 0-.213 0-.32 0-.106 0-.106-.093-.153l-.777-.024zM197.727 6.76l-1.553-.13c.092.126.202.245.326.354 0 0 .218.107.295.083.346-.115.683-.246 1.009-.39l-.077.083zm79.696 5.398c0 .355.575.296.714.592-.201-.355.389-.32.42-.592h-1.134zM175.944 7.421c.232.13.45.25.683.356.233.106.419.07.605-.13-.357-.214-.667-.604-1.211-.32l-.077.095zm56.205 1.8l-.808-.474-.217.545c.698 0 .73 0 1.102-.166l-.077.095zm-51.982-.26c.17-.438 0-.557-.544-.521v.45c0 .118.435-.048.621-.024l-.077.095zm99.507 4.735c.202.213.528.178.839.296l.093-.426a.81.81 0 0 0-.854.06l-.078.07zm-99.368-7.103h-.978c0 .284.326.094.419.19.101.105.185.22.249.343.481-.166.481-.166.481-.58l-.171.047zm109.957 9.47v.06a4.066 4.066 0 0 0-.543 0 .223.223 0 0 0-.092.044.148.148 0 0 0-.048.074c.004.03.017.059.038.084a.231.231 0 0 0 .086.059c.245.041.495.065.746.07 0 0 .17 0 .201-.118s0-.13 0-.154a2.681 2.681 0 0 0-.279-.2l-.109.082zM57.696 14.88l.14-.249c-.265-.225-.544-.13-.808 0s-.093.178-.14.308l.808-.059zm190.973.983c-.404-.119-.513-.13-.699 0a.317.317 0 0 0-.101.095.237.237 0 0 0-.039.118s.124.106.202.13c.078.024.59-.154.761-.473l-.124.13zm33.397-.367l-1.01-.19c.14.178.233.273.311.38.077.106.326.165.512.13.187-.036.357-.32.311-.45l-.124.13zm-53.954 1.184l.108-.083-.621-.521a.376.376 0 0 0-.133.052.272.272 0 0 0-.088.093.197.197 0 0 0 .019.222c.249.201.606.07.839.154l-.124.083zm2.53-6.962c.466.202.668.166 1.103-.118-.249-.201-.559 0-.839-.107.078-.094-.031.048-.139.142l-.125.083zm80.442 5.707a1.722 1.722 0 0 0-.796-.138 1.628 1.628 0 0 0-.757.232 5.67 5.67 0 0 0 1.677-.177l-.124.083zM224.385 9.8c-.155.39-.667 0-.854.332.186.07.391.106.598.106.208 0 .412-.036.598-.106l-.342-.332zm60.04 4.262c-.403 0-.652-.379-1.149-.154.202.296.591.284.886.39l.263-.236zm1.988 2.747c-.419-.355-.559-.39-.963-.166.606.201.73.237 1.087.083l-.124.083zm-2.733.888l-.279-.13s-.124-.072-.171-.06c-.047.012-.28.071-.311.13a.232.232 0 0 0-.045.137c0 .047.015.094.045.136.357.023.684-.071.885-.296l-.124.083zm21.737-2.605l-.637.06.233.378c.668-.118.683-.13.575-.485l-.171.047zm-99.089-.26c0 .32.342.331.606.343.264.012.357 0 .404-.201l-1.01-.142zm-11.396-6.997a1.197 1.197 0 0 0 .87 0V7.48c-.094.213-.513-.071-.699.272l-.171.083zm-139.97 7.103c-.248-.07-.45-.177-.682 0 .108.107.202.284.341.308.14.024.45-.201.513-.426l-.171.118zm42.822-10.3h.109c.041-.136.067-.274.078-.414a.193.193 0 0 0-.054-.091.28.28 0 0 0-.102-.063h-.217a.909.909 0 0 0 0 .414s.28-.023.357.036l-.17.118zM235.673 9.86c-.326-.32-.497-.343-.854-.106.388.177.745-.083 1.025-.012l-.171.118zm-36.036 4.736c.301.105.638.134.962.083.062-.426-.14-.45-.792-.202l-.17.119zm-30.308-7.837c-.652 0-.776.189-.543.45.404-.036.326-.332.543-.45zm61.484 2.521l.124-.296c-.496-.154-.496-.154-.652.071l.528.225zm51.346 3.552l-.125.083c.056.115.134.223.233.32h.295c.109 0 0-.19 0-.226a2.705 2.705 0 0 0-.403-.213v.036zm-109.942.568l.59.166c0-.19 0-.332-.186-.367-.186-.036-.373-.071-.404.166v.035zm101.418 4.014c0-.202.17-.403-.233-.474l-.311.379.544.095zm-4.099-5.15c-.218-.19-.482-.166-.761-.166.015.308.202.343.714.166h.047zm-72.617 1.598v-.083c-.341-.249-.419-.249-.714 0l.714.083zm-24.578.485c0 .213 0 .26.311.356.311.094.279 0 .341-.143l-.652-.213zm37.263-5.92c.42 0 .528 0 .451-.378-.404.012-.342.272-.497.426l.046-.047zm60.227 8.288c-.109.249-.109.272 0 .308.109.035.326.201.559 0l-.559-.308zm22.653-2.166c.155.331.155.331.698.248-.233-.154-.357-.343-.745-.248h.047zM183.241 6.58l.093-.083c-.109-.083-.186-.225-.311-.249a.378.378 0 0 0-.253.024.26.26 0 0 0-.092.071.19.19 0 0 0-.043.095l.606.142zm55.056 2.877c.404 0 .497 0 .497-.213a.184.184 0 0 0-.043-.096.27.27 0 0 0-.097-.07.372.372 0 0 0-.129.021.3.3 0 0 0-.104.062 1.143 1.143 0 0 0-.171.296h.047zm11.132 2.794c.466.19.466.19.746-.095-.327-.213-.497-.012-.792.095h.046zm-4.068 3.291v-.118l-.481-.249-.233.296.714.071zm-189.094-.367a.86.86 0 0 0-.419.072.592.592 0 0 0-.28.248c.389.023.389.023.7-.32zm157.809-5.552c.388.248.543 0 .869-.119a.88.88 0 0 0-.487-.074.766.766 0 0 0-.429.193h.047zm70.412 5.007l-.684-.165c.109.402.14.414.699.165h-.015zm-82.088.119c.249 0 .466.272.683 0l-.574-.201-.109.2zm9.316-6.654c.171-.07.388-.094.233-.272-.155-.178-.264-.13-.311-.107-.046.024-.108.225-.031.38h.109zm39.328 2.368c.186-.142.311-.272.109-.379-.202-.106-.295 0-.373.166l.264.213zm-183.443 1.35a1.897 1.897 0 0 0-.403-.107c-.094 0-.171.083-.249.119-.077.035.17.142.249.13.077-.012.108-.107.295-.178l.108.036zm239.772 3.445c-.14 0-.233-.071-.279 0a.57.57 0 0 0-.213.167.391.391 0 0 0-.082.224c.295-.012.202-.32.466-.427l.108.036zm-24.236-1.587c.31.071.481 0 .574-.213-.403-.106-.574-.059-.683.178l.109.035zM181.502 6.57c.186.118.357.178.528 0 .171-.177 0-.154 0-.154s-.513-.059-.637.178l.109-.024zm42.821 1.587c-.186 0-.295-.225-.559-.154.187.32.187.32.451.177l.108-.023zm7.003 7.233c-.171.107-.311.178-.295.344.341 0 .388-.048.186-.32l.109-.024zm45.895 2.048c.139.046.285.078.435.095 0 0 .109-.071.155-.118a1.266 1.266 0 0 0-.295-.143s-.248.143-.403.143l.108.023zm15.045-.757c.109.165.124.307.218.331.093.024.264 0 .248-.213l-.466-.118zM177.372 7.15v.094l.31.142.233-.39-.543.153zm88.826 9.139l.093-.344h-.249c-.046 0-.17.285.094.368l.062-.024zM55.957 14.643c-.42.213-.42.225-.125.344l.125-.344zm-1.941.201l.341.285c.032-.332.016-.344-.403-.26l.062-.024zm96.728-8.772c.218 0 .404.118.621 0-.388-.178-.388-.178-.683.024l.062-.024zm74.93 8.417h.14c0-.142 0-.307-.373-.272l.233.272zm-9.704-6.014c-.093.083-.186.142-.171.166.016.024.125.118.187.19.062.07.17-.095.155-.119a1.09 1.09 0 0 0-.233-.213l.062-.024zM183.846 6.76l-.233-.415c-.139.308-.139.308.233.415zm34.608 8.488c-.403-.166-.403-.166-.683.107l.683-.107zm-58.161-2.143c.217.308.217.308.575.107l-.575-.107zm84.649-1.93c-.202.154-.14.26 0 .391a.25.25 0 0 0 .074-.202.277.277 0 0 0-.12-.188h.046zm46.129 5.683c-.125-.248-.124-.248-.528-.154l.528.154zm-13.167-.734v-.106c-.093 0-.201-.143-.248-.13-.047.011-.155.118-.233.189v.083l.481-.036zm-86.947-1.361l.404.059v-.166c0-.035-.248-.047-.435.107h.031zm16.21-2.865c.124.165.279.177.512.106-.186-.118-.31-.201-.543-.106h.031zm53.612-.877c-.357.178-.357.178 0 .356v-.355zm37.636 5.506v.13l.543.142v-.095l-.543-.177zm-81.917-8.288c-.109.119-.14.213 0 .273a.154.154 0 0 0 .124 0c.109-.142-.015-.19-.155-.249l.031-.024zm82.833 8.288c0-.26 0-.355-.342-.273l.342.273zm-8.323.876c.094-.284.094-.284-.232-.26l.232.26zM177.946 6.747c.171-.26 0-.237-.295-.213l.295.213zm56.889 3.019l-.497-.213c.015.272.155.26.481.2l.016.013zm39.886 5.28c0 .083-.124.13-.108.177a.212.212 0 0 0 .074.051c.03.013.063.02.097.02 0 0 .108-.07.093-.094-.016-.024-.109-.095-.186-.154h.03zm11.288-1.61l.388-.083c-.171-.047-.341-.225-.341.07l-.047.013zM221.56 9.032h-.14a1.8 1.8 0 0 0 .093.26h.202l-.155-.26zM29.546 1.419l.078.071.248-.13-.124-.107-.202.166zM282.75 13.862v.083c.093.118.202.142.45 0l-.45-.083zm-.373 3.73s.14.094.186.094c.047 0 .093 0 .124-.083s0-.083-.139-.107c-.14-.023-.093.083-.171.119v-.024zm-21.939-7.199c0 .225 0 .225.342.284l-.342-.284zm38.288 6.736c0-.177-.14-.225-.326-.082l.326.082zm-52.587-1.775h-.311a.282.282 0 0 0-.093.106c.186.107.311.118.404-.083v-.023zM100.191 4.308s-.14.095-.14.13c0 .036 0 .071.109.107.109.035.124 0 .124-.083a.66.66 0 0 0-.109-.071l.016-.083zm125.359 9.128a.702.702 0 0 0-.093.201l.124.071c.124.071.093-.083.093-.118 0-.036-.078-.048-.171-.13l.047-.024zm-11.878.604c-.093 0-.139-.107-.186-.119-.047-.012-.093 0-.14.071-.046.071 0 .095.109.107.109.011.093-.012.202-.036l.015-.024zm-30.447-6.903h-.481c.155.178.248.249.466.024l.015-.024zm94.974 5.695v-.095h-.31v.071l.31.024zM54.295 15.294s-.108-.083-.14-.083l-.14.083s.078.095.11.095c.03 0 .077-.035.155-.07l.015-.025zm200.165-3.433h-.093v.178h.124l-.031-.178zm-3.789.39h.094c0-.094 0-.189-.326-.13l.232.13zM93.716 2.616h-.108a.252.252 0 0 0 0 .106c.013.02.033.038.057.05.025.012.053.02.082.021 0 0 .094 0 .11-.094a.533.533 0 0 0-.14-.083zm97.397 4.949c-.078 0-.125-.071-.171-.071-.047 0-.093 0 0 .07.093.072 0 .072.093.119l.078-.118zm-23.197 6.807v-.095h-.279v.095h.279zm62.726 1.646h.14v-.202h-.093a.749.749 0 0 0-.047.202zm11.971-4.925s-.108.07-.108.082c.037.05.079.097.124.143 0 0 .124 0 .108-.083-.015-.083-.077-.083-.155-.142h.031zm40.85 5.197l.109-.095a.112.112 0 0 0-.042-.047.16.16 0 0 0-.067-.024h-.093c.012.06.044.118.093.166zm-223.687-3.41v-.083h-.264l.264.083zm240.253 3.706v-.083l-.217-.083v.06l.217.106zm-248.653-.912a.635.635 0 0 0-.093.095c.01.018.024.033.043.046a.176.176 0 0 0 .066.025h.109l-.125-.166z" fill="#DCDFFB"/></svg>