<svg fill="none" height="19" width="232" xmlns="http://www.w3.org/2000/svg"><path d="m230.4 16a1 1 0 0 0 .2-.8h-1.4c-.1-.1-.1-.3-.4-.3l-.3-.2h-.4c-.2-.3-.4-.3-.6-.5v-.3a.5.5 0 0 1 -.6.3h-.4v.1c.6 0 .6 0 .9.2 0 .3 0 .6-.3.8h-.6a4 4 0 0 1 -.7 0c-.2 0-.4 0-.7-.2-.3 0-.6-.2-1 .2-.3-.1-.5 0-.7.3l-.2-.3-1.3.3-.3-.2h-.1v.1l.4.1-.3.2c-.4-.1-.7 0-1.1-.2h-1a.7.7 0 0 1 0-.6 1 1 0 0 1 .7.2h.5l.6.3c0-.4.3-.5.3-.8l-.1-.1-1 .1h-.1a.6.6 0 0 1 -.6 0 1 1 0 0 0 -.3 0v.3h-.3v-.4c-.4 0-.7-.2-1-.4v-.3h-.2c-.3 0-.6-.2-.9.1l-1.5.2c-.1-.1-.2-.2 0-.4h.5c0-.2-.4-.4 0-.6a1.7 1.7 0 0 0 1.3.2l.6.2h.8c.4.2.8.3 1.2.2 0 0 .2 0 .1-.2h-.5c-.3 0-.4-.3-.6-.3a2 2 0 0 1 -.9-.1.6.6 0 0 0 -.6.2l-.1-.3c-.1-.1-.3 0-.4 0-.2 0-.2-.3-.4-.2h-.5v-.2s-.2-.2 0-.3.2.1.3.2h1l-.1-.2-1-.2-.6-.3c-.2.1-.2.2-.1.3v.2c0 .2-.1.2-.2.3l-.1-.2c-.1-.4-.1-.4-.4-.4l-.7-.1-.1-.1c0-.3.4-.5.3-1-.4 0-.7 0-1 .2l-.4-.3h-.5c.2-.3.5-.1.7-.2l-.2-.2h-.5v-.4h-.4v.3c-.6.1-1.1-.3-1.7.2h.3l-.1.3c.5.5 1.1.3 1.8.2l.6.5.3-.2h.2a.2.2 0 0 1 .2.2v.2h-.2l-.6.3v.1l-.3.2c-.1 0-.2-.3-.4-.1h-.5l-.2-.4-.5.4-.5-.3-.6-.1h-.6l-.2.4v-.2c0-.3 0-.4-.3-.4h-.5l-.4.2v-.9c-.3 0-.6 0-.8.4-.2-.2-.6-.3-.9-.3h-1.2a.5.5 0 0 0 -.7 0h-.2l-.4-.1c-.2-.1-.6-.2-.9.1l1.3.2 1.1.1c.4.2.8 0 1.2.2l-.2.2h-.2l-.5.3h.3c.3.1.3 0 .4-.3l.3.3a5 5 0 0 1 1.4-.3v.2c.1 0 .3 0 .4.2v.5l.2.1.1-.2c0-.1 0 0 .1 0 .1.8.2.9.9 1 .2 0 .4 0 .5.2h-.9a.5.5 0 0 0 -.5 0l-.6.1.3-.3c-.3-.2-.6 0-.9-.2 0-.2.4-.2.4-.4l-.3-.2h-.7c-.2.3-.4 0-.6 0a.2.2 0 0 0 -.2.2c-.3.4-.7.2-1 .2-.5-.2-1 0-1.5 0h-.3c-.4-.2-1-.3-1.4-.3l-.3-.3a3 3 0 0 1 -1.1.2l.3-.5c.1 0 .4 0 .6-.2.3.3.6.2.8.3h.8c.2 0 .2-.2.2-.3.3 0 .5.1.8.3a.3.3 0 0 0 0-.4l-.2-.4h-.9l-.3.6-.6-.2-.1.1c-.4-.3-.9-.6-.7-1.2l.3.2h.2c0-.2.1-.2.3-.2h.5v-.2c-.2-.2-.5 0-.7-.2l-.2-.2h-.4a.8.8 0 0 0 -.7.1.9.9 0 0 0 -.4.6c.2.1.4-.2.6-.2v.3l-.5.1-.5.3.3.6h.3l-.2.1c-.4-.1-.5 0-.6.3h-.3a.7.7 0 0 1 -.7-.2.8.8 0 0 0 -.5-.3.8.8 0 0 0 -.6.1c-.2.1-.2-.2-.4 0-.1.2-.2 0-.3 0h-.4l-.2-.2-.9.2.4.4a.3.3 0 0 0 .3 0c.2-.1.4 0 .4 0 0 .4.3.4.4.8-.5 0-1 0-1.4-.2l-.4.2c-.1 0-.2-.3-.4-.1-.3-.2-.5.1-.8 0h-.8l-.8-.1c-.1 0-.1-.1 0-.2 0 0 .2.2.4 0h-.5v-.2h-.2c-.1.3-.3.2-.4 0-.2-.2-.5 0-.8-.2l-.5.2c-.2 0-.3-.3-.5 0v-.1c-.3 0-.4-.2-.7-.1a3 3 0 0 1 -.7 0c0-.3.4-.3.5-.5l.3.1a.3.3 0 0 0 .3 0 .4.4 0 0 0 -.2-.4 2 2 0 0 0 -.3-.1l.7-.2 1.2.1c.2 0 .2 0 .1-.3l-.5.1a.3.3 0 0 1 -.4-.2.4.4 0 0 1 0-.4c.1 0 .3-.1.2-.3l-.5.1-.6-.2h-2.5l-.3-.1c-.1-.2-.3-.1-.5 0l-.3-.1.1-.3a.8.8 0 0 0 -.9 0 1.2 1.2 0 0 0 .9.5s.2 0 .2-.2h.6c-.2.3-.2.6-.6.5-.3.3-.8.1-1.2 0l-.2-.1c-.3.4-.7 0-1 0h-.2c.2.3.6.4.9.4s.6 0 .8.2c-.3 0-.5.2-.8 0h-.6c0 .3-.5 0-.5.3s.6 0 .6.3l-1 .1a.9.9 0 0 1 -.8-.3l.6-.4c-.4 0-.7-.4-1.1-.4-.1.1-.1.4-.4.4-.2 0-.3 0-.5.2 0-.3-.3-.5-.5-.4a2 2 0 0 1 -.6 0 .7.7 0 0 1 -.6-.4l-.8.3.2.6a1.2 1.2 0 0 0 -1-.3s0 .2-.2.2l-1.3-.2h-.4l-1.1-.2-.2-.4h-.6l.2-.6c.4-.1 1 .1 1.4-.1l-.2-.5-.1.1c0 .2-.2.3-.3.2v-.3l-.7.1v-.3c.2-.2.5 0 .5-.2-.4-.3-.8-.1-1.2-.2-.3.1-.7-.1-1 .1 0 .2.2 0 .3 0l.4.1-.8.4h-2c-.3 0-.3.4-.6.3v-.2l-.3-.2h-.7c0 .3.4.2.3.5l-.5-.1-.4-.1a.3.3 0 0 0 -.3 0l-.3.3-.4-.2c-.1.3-.5.2-.8.4v.2a.4.4 0 0 1 -.4 0c-.1 0-.1-.3-.4-.2l-.4-.2v.4a.6.6 0 0 1 -.6 0l-.5-.4h-.1c-.2.1-.3 0-.3-.1v-.2c-.4 0-.3-.5-.6-.4l-.2.1.1.3-.8.1-.7.2.6-.4.6-.2c0-.2-.2-.1-.3-.1-.4 0-.7.1-1-.1l-.5.2.3.2h-.6a5 5 0 0 0 -1.2 0h-.8c-.5-.2-1-.2-1.4-.2l-.2.2-.4.3a.3.3 0 0 1 -.4 0 1 1 0 0 0 -.8-.3.9.9 0 0 1 -.7-.3l-.5-.1c-.2 0-.3.2-.5 0h-2l-.3-.2h-.3c-.1.2-.3.2-.5.1a2 2 0 0 0 -1 0h-1.4c0-.2.2-.2.3-.3v.1l-.3-.2-.5.1a5 5 0 0 1 -.7.1h-1l-.3.3h-1.1l-.2-.1c.1 0 .3 0 .4-.2h.2-.5v.2c-.4 0-.2-.3-.2-.4h-.6c-.3 0-.5 0-.7-.2a.7.7 0 0 0 -.9 0 .6.6 0 0 1 -.7 0 .4.4 0 0 0 -.3 0c-.4.2-.7.2-1.1 0v.5h-.4l-.7-.4-.5-.1a.3.3 0 0 1 -.3-.1c-.1-.2-.2 0-.3 0a1 1 0 0 1 -.7.1h-.8a1 1 0 0 1 -1.1.3h-1.3l-.3-.3c-.3 0-.4-.3-.6-.6.3-.2.7 0 1 0 .2-.1.5-.1.8 0 .1-.3 0-.3-.1-.3s-.3.2-.4 0c0-.2.2-.2.3-.3h.3c-.4-.3-.7-.4-1.1-.4a1 1 0 0 1 -.7-.2c-.2-.2-.4-.1-.7 0 .1.1 0 .2-.1.3a.5.5 0 0 0 .5.1 8 8 0 0 1 .8 0 .3.3 0 0 1 .2.1v.2h-2.7l-.2.1v.1l.2.1c.5 0 1 0 1.4.2v.3a.4.4 0 0 1 -.5.2l-.1-.2a.7.7 0 0 0 -1-.2 1.3 1.3 0 0 1 -1.2 0v.3h-.7c-.3 0-.5-.3-.8 0l-.3-.4h-.6a.3.3 0 0 0 -.2 0v.4h-.5a2 2 0 0 0 -.5 0v-.3h-.3c-.2 0-.3.3-.5.3h-.7l-.6.1-.1.4-.3-.1v-.5h-1.1l-.6.1-.1-.3c-.3 0-.5-.2-.8 0-.3.1-.4.4-.3.5h.3v-.6l.4.3-.1.1-1 .4h-1.3c-.3 0-.6 0-.8-.3l-.3-.1v-.3c-.2.2-.3 0-.4 0a.5.5 0 0 0 -.5 0c-.3.3-.5.1-.6 0-.3 0-.6.2-1 0a.2.2 0 0 0 -.1 0c-.2.2-.4.1-.6.1h-1.7l-.8.1a3 3 0 0 1 -.5 0l-.4-.1-1.4-.1-.2.3-.2-.2h-1.2l.6.3h-3.8c-.4.2-.8 0-1.2 0h-.3c-.2-.4-.6-.3-1-.4-.1 0-.3 0-.3-.2h-.7l.2.5h1.1c-.2.2-.5 0-.6.3h-2.3l-.3-.3c.1-.2.4 0 .5-.2v-.1h-4.3c-.3.1-.4 0-.5-.3v.1h.2-.5a.5.5 0 0 0 -.5.2h-.1.2a.6.6 0 0 1 -.5.1h-.6l-.3-.2c-.3-.2-.4-.2-.5 0s-.3.4-.5.3h-.2l-1-.1-.3.3.5.1c-.3.3-.3.3-1 .2l-.1-.3a.6.6 0 0 0 -.6 0h-.6a1 1 0 0 0 -.9.4.6.6 0 0 1 -.5.2 1 1 0 0 1 -.3-.2c.1-.1.5 0 .5-.4-.4 0-.8 0-1 .2.1.2.4 0 .5.2l-.3.1-.4.2c-.1 0-.3-.3-.6-.2l-.3-.3h-2c0 .3 0 .3.2.3 0 0 .3-.2.4 0l-.1.2c-.6 0-1.1.2-1.7 0l-1 .2-.1-.2a.5.5 0 0 0 -.5 0c-.3 0-.7 0-1-.2l-.7.4-.5-.2c-.2 0-.2-.2-.5-.2v.2l-.6.2h-2.9l.2-.4-.3.1h-1.2l.3.2c-.2.2-.4.3-.6.2h-.3c-.4-.1-.6.5-1 .1-.4-.2-.8 0-1.1 0a2 2 0 0 0 -1 0s-.2.1-.2 0h-1.5l-1.5.1c-.3 0-.6.2-.9 0h-1l-.5.2h-1.1c-.4.1-.9.2-1.3 0-.4 0-.7 0-1 .2h-1.2s0-.2.2-.3h-.8c.3.3.4.5.7.4h-1.3a.4.4 0 0 0 -.6 0 .3.3 0 0 1 -.3.2c-.3 0-.7.1-1-.2h-.5c-.4.3-.9.5-1.4.5a1 1 0 0 0 -.8.1.2.2 0 0 1 -.2 0l-1 .2h-1.1c-.1 0-.3 0-.4.2v-.4a1.1 1.1 0 0 0 -1 .2l.1.1v.1l-.8.2a1 1 0 0 1 -.7.2l-.7-.2-1 .3c-.6 0-1.2 0-1.7.2h-1c-.3.1-.5.4-.9.4h-.8c-.4.3-.9.1-1.3.4h-.2c-.8-.1-1.6.4-2.4.4l-.6.2-1.5-.1c0-.2-.1-.1-.3 0-.1.3-.5.4-.9.5-.3.1-.7 0-1 .2-.6.2-1.2 0-1.8.3l-1 .2h-1l-.8.2-.6.1-.3.1a.7.7 0 0 1 -.5.2.5.5 0 0 0 -.4 0l-.3.1c-.7-.1-1.4 0-2 .3l-1.2.2c-.4 0-.9 0-1.2.4h-1.1a1.6 1.6 0 0 0 -1.2.3h-.4c-.2 0-.5 0-.8.2h-.6c-.3-.3-.4.2-.7.2a.5.5 0 0 0 -.4.5 119.8 119.8 0 0 1 -2 .5h-.6c-.1.2.1.5-.1.6-.3.2-.4 0-.6 0v.4l-.4.2-.8.1c-.1.1-.2 0-.4 0l-1-.2h-1.4c-.5.1-1 0-1.4-.2l-.3-.1c-.6.1-1.2-.2-1.7-.5l-.1-.2c.2-.4-.1-.6-.3-.8l-.2.1c-.4.5-1 .4-1.4.5h-.2l-.4-.2-.5.2-.2-.4-.1-.1-1.4-.8-.2-.2h-.5c-.2 0-.4-.1-.4-.3h.3a2 2 0 0 1 -.5 0 .3.3 0 0 1 -.1-.3.3.3 0 0 1 .1-.2l.5-.3.3-.2c-.1-.4-.4-.4-.6-.5a.6.6 0 0 1 .4-.7l.8-.5c.4.1.8 0 1.2-.2v-.5l.2.1a.3.3 0 0 0 .4.1l2-.9 2.3-.9a18 18 0 0 0 2.3-1l.7-.4h.2c1.1-.6 2.3-.6 3.5-.8l1.1-.1h.6l1.2-.1h.1a25.2 25.2 0 0 1 3.5-1l3.6-.6 1-.2h1c.5 0 .9-.2 1.2-.3l1.5-.3 2.6-.5c1.2-.1 2.5-.4 3.7-.4l2.5-.4c.8 0 1.5-.2 2.3-.5h1.4c.9.4 1.6 0 2.3-.5a1.8 1.8 0 0 0 1.8-.4c.5.2 1 .2 1.5.1a5 5 0 0 1 1.1 0l.3-.1c.4-.2.8-.2 1.3-.2h1.1l1.9-.2h1.4l2.4-.4 1-.2 1.9-.1c.6-.1 1.2-.2 1.8-.1h1.6l2.3-.2 1-.2h1a7 7 0 0 1 2.2-.2h2.4l.7-.1.7.1c.5 0 .9-.2 1.3 0l1-.1h.2l.3-.2v.4l-.2-.1h3.7l2-.1v-.5c.9 0 1.7-.3 2.5 0h-1c-.4.2-.7.2-1 .1v.4l1.1-.1 1.9-.1h1.1l3.6-.3h6.8c.6.2 1 .2 1.5.2.4 0 .8-.1 1-.3s.5-.2.6.1c.1.2.4.1.4 0 .5-.3 1-.2 1.4-.1h1a8 8 0 0 1 1.5-.1l.5.2.3-.1c.3.2.6 0 1 0 .2.2.5 0 .9 0h18.6l1.5.1 1.4.1h2.9l2 .2 1.3.2h1.3c.8-.1 1.6 0 2.4.1.5.2 1.1.2 1.7.2h5.5c.7 0 1.5.3 2.2.2h2.6l1 .1h.4l.7.1 1 .2a10.3 10.3 0 0 1 2.4.3h1l1 .1h1.1l1.5.3h.6l3.1.1 1.4.2h1.1c.5.3 1 .3 1.6.3h.3a1 1 0 0 0 1 0l.6.4 1-.1h1l.5.1.8.1c.1.5.6.5 1 .5v.4h.5l.9.4.4-.4h-.5c-.2 0-.4-.2-.5-.4a.5.5 0 0 1 .7 0 .7.7 0 0 0 .6.1 5 5 0 0 1 2 0c.2 0 .5 0 .7.3h.4c.6 0 1.1 0 1.7.2h.6a2 2 0 0 1 1.1.2c.7-.2 1.3.2 2 .2.3 0 .5 0 .7.2h.2c.7 0 1.3.2 2 .1l1.2.2c.2.1.5.1.8 0h.4l1.5.3.9.2.3.1c.5-.1.8.3 1.3.1-.2.2-.3.2-.5.2h-.5l.2.1.5.2a.5.5 0 0 0 .7-.3c0 .1.1.3.3.3h.9l.3-.1a3 3 0 0 0 1.8.5c.2 0 .2-.1.1-.4l.5.1c.2.2.6 0 .7.3h.2c.5.2 1 0 1.5 0l1.4.3h.1l-.3.2c.2.2.5.2.8.2l.6-.1c.2 0 .3.2.5.3l.2-.3a1.2 1.2 0 0 1 1.2.1.2.2 0 0 0 .2 0c.4 0 .7.2 1 .1.3 0 .5 0 .6.2h1c.5 0 1 .2 1.5.5-.3-.1-.6-.2-.8.2 0 .2-.2.2-.4.2h-.5c.1.4.4.5.5.3.2-.1.6 0 .6-.4.3 0 .4-.2.6-.3l.3-.2c.1.3-.2.2-.2.4.6.2 1.2.3 1.8.2l.6.1c.4.3 1 .4 1.5.3h.4l1.2.4c0 .1 0 .2-.2.2h-.3.3l.1.1.2.1c.4 0 .8 0 1.1-.2h.6l1.5.3.2.2h.8l1 .3h.4c.4 0 .7.2 1 .3h1l1 .2a.8.8 0 0 0 .8-.2c.7.5 1.4.5 2.2.9.1 0 0 .4.3.5.2 0 .3.3.6.3h.1a1.6 1.6 0 0 0 1.1.8v.4c-.3-.2-.3-.2-.4.1a.6.6 0 0 0 .5 0l-.1-.2c.3 0 .3 0 .5-.3l.3.2c0-.2.2-.3.5 0a.4.4 0 0 1 -.3.3h-.5v.2c.4 0 .8 0 1-.4.2.2.2.6.5.6 0 .2-.3.3-.3.4 0 .3-.3.2-.4.4 0 .2.2.5 0 .8l-.4-.2v-.2.2zm-89.5-8.3h.4c-.2-.1-.3 0-.4 0h-.1zm-19.8-.7v.2h.1v-.2h-.2zm97.2 4.8s.2-.1 0-.2c-.1 0 0 .1 0 .2h-.4v-.2.4l.2.2a.2.2 0 0 0 .2-.2zm-25.6-.4.4.1a.5.5 0 0 0 .6.5l.4-.1-.3-.3v-.3h-.3c0 .3-.3.2-.4.3l-.1-.2h-1a.6.6 0 0 0 .6.2v-.2zm16-1.4-.1.3h.7c0-.4-.3-.3-.6-.3h-.1zm-78.4-3.5c.1 0 .3.1.4 0 0-.2-.2 0-.4 0h-.5c-.2-.1-.4 0-.5.2h.7c.1 0 .3 0 .3-.2zm48.7 0c.3.1.3.2.6-.2l.2-.1-.8-.3c0 .2.3.4 0 .5-.2.2-.4.3-.5 0l-.1-.4-.5.1c0 .1.2.2 0 .3l-.1.2c.3.2.7.2 1 .1l.2-.3zm-5-.8-.2.4c-.2 0-.3 0-.3.2h1.8a.5.5 0 0 0 -.5-.1.4.4 0 0 1 -.6-.2l-.3-.3c-.2 0-.2-.3-.4-.1 0 .2.2.2.3.1h.1zm41.5 5.9c.1.2.3.2.5.3a1 1 0 0 1 .8 0l.3-.3.5.2v-.6h-.5v.2c-.2.2-.5.3-.9.2h-.7l.2-.2c0-.1 0 0 0 0-.3 0-.3 0-.4.2zm-8.9-2h-.1c-.4 0-.9-.3-1.3 0l-.3-.1-.5-.1-2.1-.1.2-.2c-.2-.2-.6-.3-1-.3-.2 0-.4.2-.5-.1h-.6c-.1 0-.2.2 0 .3l.3.3c.2 0 .4 0 .6.2h.1l.4-.6.4.6c.4 0 .7.3 1 0h.3c.5 0 1 0 1.5.2a1.2 1.2 0 0 0 1.2 0 .5.5 0 0 1 .5 0s0-.1 0 0h-.1zm-41.4-1.6a.9.9 0 0 0 1-.1 1 1 0 0 0 -1 0c0 .3-.5.3-.5.6l-.4-.5-.4.2-.5.2-.3-.3-.6.5 2.4.3v.1h.6c.2-.3.3-.2.4-.1l.4.1v-.3c.3 0 .6.4 1 .2l-.1-.3s.2 0 .2-.3c-.3 0-.6-.2-1-.1a3 3 0 0 0 -1.1.2v-.4zm58.2 5.2.2.3.5.1a154 154 0 0 0 .4.4h-1.1c.3.6.9.6 1.2.9h.2a1.2 1.2 0 0 1 1.4 0c.2.1.5.2.7.1.2 0 .3-.1.1-.3l-.4.2-.4-.4c0-.2-.4-.1-.4-.3.1-.2.3-.4.1-.6s-.3 0-.5 0l-.2.1c0-.2-.1-.5.2-.7l.2.4a.5.5 0 0 0 .5 0c0-.1-.3-.1-.1-.3 0-.1-.2-.1-.1-.3v-.3l-1.1-.3h-.7a2 2 0 0 0 -.4 0l-.4.2c0-.2 0-.3-.3-.3h-.5l-1 .1.1-.5h-.4v.3h-.4v-.4c-.3 0-.6 0-.8-.2a.6.6 0 0 0 -.4 0 1 1 0 0 1 -.7-.2.3.3 0 0 0 -.2 0c-.2 0-.1.2 0 .3v.5l1 .2c-.1.2-.4 0-.4.2.3.1.6 0 .8.2l-.1.1c-.2.3-.2.4.1.5.4.2.9.2 1.3.1l.2-.2a4 4 0 0 1 -1.3-.4c.6-.3 1.2-.3 1.8-.2.2.3-.2.3-.2.5l.2.4a1.6 1.6 0 0 0 1.3-.2zm-30.8-5.3a1.2 1.2 0 0 0 1.2.2h1l.8.3.6.2.8.1c0 .1.4 0 .8 0 0-.2-.2-.2-.4-.2-.1 0-.2 0-.3-.2l-.4-.2.1-.2-.4-.1-.4-.4c-.3.2-.7 0-1 0a.5.5 0 0 0 -.4-.1h-1.2l-.4.2-.3.4zm-3.3 1.1.3.2c.5.1 1 0 1.5.3h1.3l.5.1a4.5 4.5 0 0 0 1.7.2.2.2 0 0 0 0-.1c.1 0 0-.2 0-.2s-.2 0-.2-.2h.3l.4-.2-.5-.2s.2-.2.1-.3a.3.3 0 0 0 -.4-.1.7.7 0 0 0 -.4.4l-.1.5-.4-.1c-.2 0-.3 0-.4.2-.2-.2-.3-.5-.7-.3h-1c-.2-.3-.3 0-.5 0s-.3-.4-.5-.3a9 9 0 0 1 -1 .1zm5 1.9.4.2.8.1c.6 0 1 .2 1.6.4.2.1.4.2.6.1l.2-.2h1l-.1-.4-1.3-.2c-.3.3-.2.3-.5 0h-.3a.3.3 0 0 1 -.3.1 3 3 0 0 1 -1.2-.2.9.9 0 0 0 -.9.1zm-2.8-3.4-1.2-.5h-.4l-.3.2c-.1 0-.4.1-.6-.1l-.1.4c.3.2.6.3 1 .3h.7a.9.9 0 0 0 1-.3zm-3.9-.2c0-.2.2-.3 0-.4a1 1 0 0 0 -1 0l.2.4h-.5a.3.3 0 0 0 -.3.4v.2h.5v-.4h1.4c.3.3.7.4 1 .4l-1.1-.7zm-9 2.2c-.3-.2-.7-.3-1-.2-.1.1 0 .4-.3.5-.3 0-.6-.2-1 0 .6.4 1.3.2 1.9.4a1 1 0 0 1 .8 0l.1-.2-.5-.2zm-22-1.6h-.7c.5.3 1 .4 1.6.3l.5.1.1-.1-.4-.3h-.2c-.3.1-.4 0-.5-.2a.2.2 0 0 0 -.4 0zm-12-.7c-.1-.1-.3-.3-.5-.3l-1.6.1c-.1 0-.3 0-.3.2.2.2.5-.1.8 0 .2.1.5.2.8.1h.8zm75.8 6.4.1.7h.3l.3.2c0-.2 0-.3.2-.3l.4-.2v-.2a.9.9 0 0 0 -.4-.2h-1zm-117-7.3-.4-.3-.5.1h-1.6l-.2.2c1 0 2 .2 2.9-.1zm92.6 5.3-.3-.2h-.5l-.7.3v.2l.4.2c.2 0 .4-.2.5-.3zm-48.8-4.2c-.1-.1-.2-.3-.3-.2a1.2 1.2 0 0 1 -1-.3.5.5 0 0 0 -.7 0c0 .4 0 .5.2.4l.2-.2.4.3zm32 2.2c0 .3.3.2.2.5h.2l1 .1c-.2-.4-.7-.3-1-.6zm-7.5-1.5 1.3.2.4-.2v-.1h-.3-1.1zm-47.5-2a.9.9 0 0 0 .8.5v-.3h.5v-.3zm76.7 2a1.3 1.3 0 0 1 1 .2l.1-.3a.8.8 0 0 0 -.8-.3l-.4.1v.3zm-2.3 1.9h-1v.1h-.1l.1.2.4.1h.5v-.4zm-21.8-1.2c0 .5 0 .5.5.5l.1-.5zm-10.2-3.4c-.2-.3-.4-.3-.6-.3-.1.1-.2 0-.4-.1 0 .2-.4 0-.3.4zm-32 1.4c.3 0 .6.2 1 0l-.4-.3c-.2-.1-.2 0-.2 0l-.5.3zm58 .9-.7-.2-.2.2v.1l.7.2.1-.3zm-6.3 1.5.7-.4c-.4 0-.7-.4-1 0zm7.8 1.1c0-.2 0-.3-.2-.3l-.8.3c.4.2.7 0 1 0zm-68.4-3.8h1a.8.8 0 0 0 -1 0zm96.2 7.6.6.1.3-.1v-.1h-.2a.9.9 0 0 0 -.7.1zm-22.9-3.1a.6.6 0 0 0 .6 0c.2 0 .2 0 0-.3zm-23.6-5.3c-.2-.2-.4-.2-.5-.1 0 .4.1.4.5 0zm1 1.9v.1l.4.1.4-.1c-.1-.3-.3-.2-.5-.2h-.2zm-25 .7.6.3.3-.3zm4.2-4.2v.1l.4.1.2-.1h-.6zm44.4 4.4h-.5c0 .3 0 .3.5 0zm-40-.3.3.1c.1.1.2.2.4 0 0-.3-.2-.1-.3-.2l-.3.1zm-1.8-1a1 1 0 0 0 -.9-.3 1.2 1.2 0 0 0 1 .3zm33 4.1a.7.7 0 0 0 .6.3l-.1-.3h-.6zm-34.9-4.5.2.2c.1 0 .3 0 .4-.2zm5.3 0a.6.6 0 0 0 -.6.1c.2 0 .4.2.6 0zm35.2 2.8a.6.6 0 0 0 .8 0zm-96.8-1.9.4.1h.1c-.3-.5-.3-.4-.5 0zm96.6 2.4h-.6a.5.5 0 0 0 .6 0zm8.8 2.2h-.8c.3 0 .4.3.8 0zm-3.9-2.5v.1h.4v-.2a2 2 0 0 0 -.4.1zm-7.5 2.7v.1a.3.3 0 0 0 .4.1c0-.1 0-.2-.2-.2zm-30.2-3.5c.5.2.5.2.6 0zm24.2 0c-.2-.2-.4 0-.7 0 .3.2.3.2.7 0zm-82-6h.3l.3-.1c-.3-.1-.3-.1-.6.1zm108.6 7.5c-.3 0-.5 0-.6.2.2.1.4.1.6-.1zm-37-1.7.1.1a.2.2 0 0 0 .3 0c0-.2-.1-.2-.2-.2l-.1.1zm-6.7-1v.2h.3l.1-.1c0-.1 0 0 0 0h-.3zm-7.5-3c-.3-.2-.3-.2-.6 0zm-67.4-2.3c-.2-.1-.4 0-.6.2a.4.4 0 0 0 .6-.2zm52.6 4.9a.7.7 0 0 0 .6 0 .9.9 0 0 0 -.6 0zm-13.9.7v.2h.3v-.3h-.3zm55.7 4c-.3-.2-.5-.2-.7 0zm-14.3-1.5-.5-.1h.5zm-58.3-3.6h.2v-.2l-.3.1zm50.5-1.9h-.3v.1c0 .1.2 0 .2 0h.1zm36.6 7.6a.6.6 0 0 0 .5-.2c-.1 0-.3 0-.5.2zm-43.9-6.7.4-.1c-.2-.2-.3-.1-.4 0zm-56 1.6h.4v-.2h-.3zm50.1-3.6v-.1l-.2-.1h-.1l.2.2zm68.1 10.7-.2-.1-.1.1zm-85.7-7 .2-.1-.2-.2-.1.1v.2zm72.2 3.8a.5.5 0 0 0 -.7 0zm-39-3.8-.1-.2h-.3l.1.1h.3zm25 3 .2.1h.2l-.2-.1zm-70-3.6v.1h.3l-.1-.1h-.3zm-48-3.6h.1v-.2c-.1 0 0 .1 0 .2zm138.7 8v-.1h-.2c-.1 0 0 0 0 0h.2zm-11.7.5c.1 0 0 0 0-.1h-.1v.2zm-53.9-3.6v-.1h-.2l.1.2zm57 1.4h.1v-.2h-.1zm-30-3.9h-.3zm-50.4.7-.2-.1h-.1v.1zm50.7 1.3c-.2-.2-.3-.2-.5 0zm3-1.2v-.2h-.1v.2zm20.6 4.6h-.1zm-8.8-.6h-.3zm-114.4-2.2c-.1 0-.1.1 0 .2zm17-1.2h-.1zm95.3 3.3v-.1zm-86.8-4.4h-.1v.1zm18 .8h.1zm7.4-4.2h-.1zm62.3 7.9h.3zm-17.1-4.8v-.1h-.1v.1zm-31.5 2h.1zm6.8.4h-.1v.1zm3 .2h.1-.2zm6.3-.2-.2-.3h.2zm2.8.1h.1v-.1c-.1 0 0 0 0 .1zm32.1 3.4v-.1zm-40.3-3.4h-.1zm46.7-.1h.1l-.1-.1zm-26.4 1.7v-.1zm18.7-2.7v.1zm9.3 3.8h.1zm6.2-.3v-.1zm-17.3.2h.1zm-6-4v-.1s-.1 0 0 0zm-122.7 2.2v-.2.1zm125.2 0v.1zm.5-2.2v-.1z" fill="#f5663e"/></svg>