<svg fill="none" height="22" width="474" xmlns="http://www.w3.org/2000/svg" xmlns:xlink="http://www.w3.org/1999/xlink"><clipPath id="a"><path d="m0 0h474v22h-474z" transform="matrix(1 0 0 -1 0 22)"/></clipPath><g clip-path="url(#a)"><path d="m220.5 3.6-.4-.1h-5.5l-.3.2h-.8c-.1-.1-.1 0-.2 0h-2a6.5 6.5 0 0 0 -1.7.1l.2.2.8-.2-.1.2h.3c.5 0 1 0 1.4-.2h.5l-.4.1h1.4-.8c.4-.2.7-.1 1-.1h.8-.6l.2.1h1.1c.2-.2.5-.2.8-.2h.7-.2c.3-.2.3-.2.6 0l.5-.2.3.1h-.5l1 .1v.3h-1.4a1 1 0 0 1 -.3 0h-.5l-1.7.1h-.4c-.3.2-.6.1-1 .2l.2-.2-.6.2v.2h2.4c0 .2-.1.2-.2.2h-2.7c.1 0 .5 0 .3-.2h-1.3c-.2.1-.2.1.3.1h.3a1.5 1.5 0 0 1 -.8 0h-.9v.1c-.7 0-1.4 0-2 .2l.3-.4h.7l-.4.2h1.4l-.1-.2h-.4.2-.6l-.4-.2a17 17 0 0 1 -1.6-.1h-1.3l.2-.1h1.1c.4 0 .4 0 .5-.2h-.5l.7-.2h-3l-.3.1.1-.1h-2.9a3.3 3.3 0 0 0 -1.2.1 2 2 0 0 1 -1 0h-.2l-3.8.1h-.1l1 .1h.3a2.8 2.8 0 0 1 1 0l-.4.2.1.1c-.1 0-.3.1-.4 0l-1.5.1h.8c-.3.1-.7 0-1 .2a16 16 0 0 0 -1-.2 12.5 12.5 0 0 0 -1.8.2l-.3-.1h-.6c.1-.1.3-.2.4-.1a.8.8 0 0 0 .5 0l.3-.1h.3c0-.2.5-.2.7-.3l-1.4-.1c-.2.1-.8 0-1.1.2h1-.6l-.4.1-.4.1.4.1-1.1.1.4.2h-1.1l.4.1h.3l.3.1-1 .1h-.4l-.7.1h-2.2.3-1.1l1-.3h-.8l-.6-.1h-3.6l.2.2h-.3l.2-.2h-4.3.3c0-.1.1-.1.2 0v-.5h2.7l-.5.1h3l-.4-.1h1.4a11.5 11.5 0 0 0 1.7.1h.8l-.4-.2h1.3l.2-.1a11.6 11.6 0 0 0 -1.9 0h-.6l.8.1h-1.8 1l-.2-.1h-1l.1-.1h-.7.1-.7a33.2 33.2 0 0 1 -3.2.2h-1.3l-3 .1h-5.1v.1l-3 .1c.2.2.6 0 .8.2h-.5c0 .1 0 .2.2.2h.4l1.3-.2h.2l.3-.1.9.1 1.3-.2c-.2.2-.5.1-.8.2h2.7l-.3-.2h.5c0 .2 0 .1.3 0h1-.6l.3.1h1.2l-.6.2a4 4 0 0 0 -.4 0h-.7l-.7.1c-.2.1-.3 0-.4 0h.2v-.1h-1.7a9 9 0 0 0 -.6.1h-1l-1 .3h2.3l-.8.1h-1.5a3.4 3.4 0 0 1 -1.6 0l.3.2-1.4.1.1-.1v-.1h.6l.3-.1h1.2l.4-.1-.1-.1-.2-.1h-.3.1-.6a3 3 0 0 1 -1 .1h-1.4l-.5.2h.4l.3.2a5 5 0 0 1 -1.2 0h-.4v-.1l.5-.1h-.6l.2-.3h-1.7v.2h-.8l1.6.3c-.7 0-1.4.2-2.2.1v-.2l-.3.2-1.3.2-.1-.2c.1 0 .4 0 .4-.2l-1.2.1.3.2-.4.1h-.5a2.7 2.7 0 0 0 -1-.1l-1.2.1a1 1 0 0 1 -.3 0l-.3-.1.3-.1h2.1l.4-.1h-1v-.2l-.7.2h-.8l.3-.1a3.4 3.4 0 0 0 -.9.1h-.7l-.7.1h-2.3l-.5.1h-1.1l-1.4.1-.8.1v.2l-1.4.1h.6l-.3.2h-1.3l-2 .1h-.8l.1.1-.3.1h-.3c0 .2-.3.2-.4.3h.7l2.3-.2a1.8 1.8 0 0 1 .6.1l-1 .2h1c-.6 0-1.1.2-1.7 0v.1h-.7.7l-.3-.2h-1.8l.4.2h-.2c-.2.2-.6.2-1 .2s-.7.2-1 0l.7-.1-1-.2v.1l.3.1h-1 .5l-.3-.2h1.3c.4-.1.5-.2.5-.3h.5c.2 0 .3.1.4 0h.5c0-.1 0-.2-.2-.2h-2.2c.3.2.6 0 .8.3h-.9l-.1-.5 3.4-.1h-1l1-.2-1.3.1a6 6 0 0 1 -1 0l-1.8.1h-.6l-1.2.1h-.3l-1.3.1h-1.2v-.2l-1.3.1h-.1l-.2.1h-.6.3c-.3.2-.3.2-.4 0h-.3.3-1.5.6v.1h-1.1l-.4.2h.6c-.1.2-.4.3-.7.3h-1.6a68.6 68.6 0 0 1 -2.3 0h.9-.2l.3-.2a3.2 3.2 0 0 0 -.8 0 2.9 2.9 0 0 1 -1 0h-.6a1.4 1.4 0 0 1 -.6.1h-.8l.4-.1h-.4.4v-.1c-.2 0-.3 0-.2-.2h.2l1-.1 1.8-.1h1.5l.5-.2-2.6.1-2.7.2v-.1h-.9a.7.7 0 0 0 -.5 0l-1 .1h-.8.2v-.1h-1l-.1.1h-.3a9 9 0 0 0 -.8.2c-.4 0-.7.2-1.1.1l-.5-.2-1.1.2h-1.1a3 3 0 0 0 -.4 0c-.5.2-1 .1-1.5.1h.3a3.3 3.3 0 0 0 -1.3 0h-.4c-.5 0-1-.2-1.6 0h-.2c-.2 0-.4-.1-.4 0-.1.2-.8.1-1 0h-1.1l1-.1h-1.9l.6.1h-.7l-.3.2h-.6.1v.1a2 2 0 0 1 -.8.2 2.1 2.1 0 0 1 -1 0 1.3 1.3 0 0 0 -.6 0h-1.4v-.3l.6-.1c-.8 0-1.5 0-2.2.2l-.2.1a2 2 0 0 0 -.7.2h-.3c0-.1 0-.2-.2-.1h-.7l.4-.2-1.3.1v.2h-.2l-.4.2-.8.1h.4c-.2-.2-.4 0-.7-.1l.5-.1a4.2 4.2 0 0 1 -1.6-.2l.8-.1h-1.7l-1.4.1h-1.3c-.4.1-.6 0-.8 0l-.9.1a2 2 0 0 1 -.3 0c-.1.2-.5.1-.8.1l-.6.1h-.6l-.6.1-.2-.1h.6l1.7-.2h.2-1.9.5l.5-.1-2.4.1c-.3 0-.3 0-.3.2l-1.5.2v-.3h-.9l-1.4.2h-.5c-.1-.2-.3 0-.4 0a5 5 0 0 1 -1.2.1h-.4l-.2.2h-.2a1.7 1.7 0 0 0 -.8 0 3 3 0 0 1 -.8 0h-.7c-.3.2-.7 0-1.1.1-.4 0-.7 0-1 .2a.4.4 0 0 1 -.2 0h-.9a5 5 0 0 1 -.4 0l-.2.1h-.6.3-1.3.5l-.3-.1a9.7 9.7 0 0 0 -1.6.1h-.2l1.2-.2c.2-.1 0-.1-.2-.2h.5l.4-.1h-.5a2 2 0 0 1 -.6 0 1.3 1.3 0 0 0 -.6 0l-1 .2h-.5.5v.1h-.2l-.5.3h-.7c-.2 0-.3 0-.5.2.2-.1.5 0 .8 0h.7-.4l-1 .3c-.2.2-.3.1-.5.2h-.5l-.6.1h-.4c.5 0 1 0 1.4-.3a4.6 4.6 0 0 1 -1.7 0h.2l.4-.1-.4-.1.6-.1-2 .1 1-.1.3-.1.3-.1-3.6.2.6-.1h-.3c0-.2 0-.2.3-.2l1-.1 1.3-.1h.8v-.2h-.8v-.2c-.4 0-.6.2-1 .1h.2l-.3-.1-.3.1c-.3-.1-.5 0-.8.1l-.6.1v-.1h-.5-.1c.2.2.4 0 .6 0l-1.1.3h-.1l.2-.2h-1 .8l.2-.1h-1.3l.5-.1-1.6.2h.3l-.3.1h-.6c-.2.2-.3 0-.5 0l-.1.1-.9.1h-1.5v.1h-.4l-1 .2c0-.1.3-.2 0-.2l-1.9.2-.4-.1h.6l.2-.1h.3-2l-.4.2h-1.2.2l.5-.2.5-.1h1l1-.1h-.5l1.4-.3-4.8.4v-.2h-.5l-1 .2h-1.7l-.7.1-.8.1a7.9 7.9 0 0 1 -1.8.2h-.1l1.4-.3h.7a99.8 99.8 0 0 0 2.8-.3h-2.5l-1.3.2h-.2c-.6 0-1.3 0-1.9.2h.2c-.2 0-.3.1-.4 0h-1.1l-1.2.1h-.2l-.4.3h-1.2l.7-.1h1l.6-.2h-1.1l-2.6.3-1.1.1-2.6.3-3.4.4h-2l-.8.1h-.5l-3 .4h.1l-1.2.2h-.5l-.5.1-1.2.2h-.3l-2.4.3-2.5.3-2 .3-2 .2-3 .4h-.1 2l-1.8.4-1.4.2c-.3 0-.5.2-.9.1h-.3 1.3l-.7.2c0 .2-.3.3-.9.4h-.2l-.1.1 2.1-.2-.5.3a19.9 19.9 0 0 1 -1.7.4l-.3.3h2.4-.4c-.1 0-.4 0-.3.2h-.2l-.7.2h.6v.2h1.1c.1-.1.3 0 .4 0 .2 0 .1.1-.1.2h-.7l-.3.1c-.4.2-.9.2-1.4.3l.3.1-.2.1h1l-.8.2h.4l-.2.1a6.8 6.8 0 0 0 1.1 0l.3.2h-.9.2-.5l-.4.1-.2.2.2.1c.3 0 .5-.2.8 0l-1.2.1v.2h1-.3l.3.2c-.2.1-.2.1-.2.3h.9v.1h-.3l-.4.2h-.3c.1.1.3.2.5.1a.7.7 0 0 1 .3 0l.5.1h.9l-.5.2-.4.1-.5.1h.5a1.8 1.8 0 0 1 .8 0c-.1.2-.6.1-.5.4h.9c-.2.1-.7 0-1 .2h.8c-.2.2-.7 0-.8.3.5 0 1-.2 1.6 0h-.5v.1l-.6.1-.2.3h2.1l-.7.2-.6.1c.3.2.3.2 1 .2h-.6c0 .2.2.2.4.2h.5c-.1.1-.6 0-.7.2h.6-.4l-.1.1h-.4l.4.2h1.4l-.5.1.2.1h-.3l-.1.3h.2l1-.2-.3.2.2.1.4.1.4.1 1.8-.2c-.1.2-.5.2-.8.3h.3l1.6-.2 2.3-.4a63.4 63.4 0 0 1 3.7-.3l-.3.1 1.4-.1h-.3l.1-.2a4 4 0 0 1 1.1-.2h.5l.4-.2.3-.2h2c.2-.2.2-.2.4 0l.8-.3h.8l-.3.1 2.7-.3v.1h.6-.2v-.1l.7-.1 1.6-.2.4.1h.4c.1-.2.3-.2.5-.2h.9l.8-.2.7-.1h.4c.3-.2.6-.1 1-.1h.8a10 10 0 0 0 1.9-.2h.7l1.4-.2c.2 0 .3-.2.2-.3l-1.5.2h-1.1l.1.1h-.6.5c.3-.2.8-.3 1.2-.3h1.5l.8-.2h.9l.4-.2h.6c-.3.2-.3.2-.7.2l.2.1h.3a1.6 1.6 0 0 1 .7 0h.5a9.7 9.7 0 0 1 1.8 0l-.2.1c.6 0 1.2 0 1.8-.2l-1.3.1.2-.2.5-.1.4-.2h2.2l.6-.1h-.2c0-.1.3 0 .3-.2h1.8a2 2 0 0 0 1 0 11.7 11.7 0 0 1 2.1-.1c0-.2.4-.2.6-.3a3 3 0 0 0 1.4 0h.8l.6-.1c-.3-.2-.7 0-.9-.1h.2v-.1h.7a2 2 0 0 0 .8 0h2l1-.2h2.3l.9-.2h.2l1-.1h.3l1.2-.1h.8l.6-.1.7-.2h1.5l1.6-.1h1.4-.4l-.3.1c0 .1-.3 0-.4 0h-.9l-1.4.2-2.2.2a7 7 0 0 0 -.5 0l-.2.2h.6l.8-.1h1.5c.5-.2 1-.2 1.5-.2l1.6-.1 1.7-.2h1l.7-.1h.5l.8-.1h1.2l2-.1.8-.1 2.2-.2 2.3-.1.8-.2h1.2l3.7-.2c1.1 0 2.2-.2 3.2-.3h.6c.5 0 1 0 1.5-.2.2.1.4.2.6 0a.5.5 0 0 1 .2 0c.6.1 1.1.1 1.6 0l1.7-.1h1.3l.6-.1h.8l2.4-.2.4-.1h.3l.2.3.8-.2h-.5l.6-.1h.3l1.7-.1.7-.1h.7c.1.1.3 0 .3.2.1 0 0-.2.3-.1h.1l1.2-.2h2l.8-.1h.4l.1-.2.4.2v-.1h1.5l.3-.1h.5c.1 0 0 .1.2 0h.3-.3v.1h1.6l1.3-.1h.1c.1-.1-.2-.1 0-.2h.3s.3 0 .2.1h1.9v0h.3c.1-.2.2-.2.4-.2h.2l.3.2h.7l.3-.1v.1h1.9v-.2a1 1 0 0 1 -.6 0h.5l.4-.2h.5-.4c.2.2.5 0 .6.2l.4-.1.3.1.1-.2.4.1h-.1l.3-.2h.5s-.4 0-.3.1h1.2l-.4-.2h.6l-.1.1h2.3a3.6 3.6 0 0 1 .8 0v-.1h4.2l1-.2.3.1h1.4l1.6-.1h.5l.4-.1.4-.1h2.8-.4l.8-.1-.2.1h1l-.3-.1.5-.1h1.6-.2v.1h1.4l-.2-.1h4.5l.9-.1h-.3a3.6 3.6 0 0 1 1-.2h3l.5-.1v-.1h5.5-.2 1-.3.2a.7.7 0 0 1 .3 0h1.7s0-.2.2-.1h2.3l.5-.1h3.8l1.3-.2h4.2c.1 0 .3-.1.4 0 .7-.1 1.5 0 2.1-.2h4.4l.4-.2.4.1h6.4l2.2-.1h4.3l2-.2h3.3a9 9 0 0 1 1.7 0h4.1l2.5-.1h2.9l.5-.1h.5-.2 1.2c.5 0 1 0 1.4-.2l.3.2h.4a2.2 2.2 0 0 1 1 0h6.8v-.1h3.8a9 9 0 0 0 2 0h5.2a1.5 1.5 0 0 1 .7 0h1.2c.1 0 .3-.3.7-.1.3-.2.5-.2.9 0h5.8a28.2 28.2 0 0 1 2.1 0h2.3a.4.4 0 0 1 .2 0h7.3a1.6 1.6 0 0 0 .5 0 .9.9 0 0 1 .4 0h1.1l1.1-.1h1.7c.1.1.2.1.4 0h3.6a1.5 1.5 0 0 0 .6 0h2a2.3 2.3 0 0 1 1 0h5.8a8 8 0 0 0 1 0h1.7l.8.1h2.1a11 11 0 0 1 2.1 0h2c.4.2.7 0 1 0l1.5.1h6.3l1 .1h3.1-.3 1-.2 7.3-1l.3.1h.7a1.6 1.6 0 0 0 .6 0l.4-.1h2.2l-.2.2h.7l-.4-.1h4.7-.4l4 .2-2.8-.1h5.5-1.4l.3.1h4.4-.3a2.5 2.5 0 0 1 .6 0h2.1a2.5 2.5 0 0 1 1 .2l.4-.1h2.3c.2 0 .2.2.5.1h.6a1 1 0 0 0 .5 0h.6-.1 7v.2l.7-.1h1.8a8.4 8.4 0 0 1 1.5 0h1.4l1.5.1h2l1.7.1 4 .1 3.5.1h2.4l3 .1h2.8l2.2.1h2.3c.7.1 1.4.2 2 .1l1.4.1h2.7l3 .1 2.8.1 4.1.1h.4c-1-.1-1.9 0-2.7-.2h5.3l3.8.2h12.2l-.2.1h9.5c.8.1 1.6.2 2.5.1h.3-.3 1.2c.2-.2.4-.2.7-.1h-.4 1.3-.7 1.2l1 .1h-.4l.1-.1h2.1a40 40 0 0 1 4.7.2 3.5 3.5 0 0 1 1.5-.1h.4c.5 0 1-.1 1.6 0h2.3l-.1-.2h-2.3a33 33 0 0 1 -4.3-.1h-6.1l-2.4-.1-1.2-.1c9 0 18 .3 27 .4l-2.4-.1-.3-.2c.2-.1.5 0 .8 0h4.7l2.7.2h1.2-.6l.4-.2h1.6l-.2-.1h1v.2h1.7-.5.9l.6.2-.1.2.6.3.9.2h.8v.2l.2.2.6.2h.7l.2.2h.8v.4h.8l.2-.2h.7l.4-.2c.1 0 0-.2-.3-.3a1.2 1.2 0 0 0 .5 0l.1-.2h.1l-.2-.3.9-.7h.3v-.1a1 1 0 0 1 -.4 0l-.1-.1v-.1l-.2-.1c.1-.2.4 0 .6-.1l-.4-.1.2-.2.1-.2-.4-.1.8-.1c.1-.2 0-.2-.2-.3l-.3-.2.3-.1h.4l.3-.1-.2-.1c-.2-.1-.2-.2-.1-.3h.6c.1-.2-.2-.2-.3-.3l.1-.2.4-.3c-.1-.2-.1-.2.2-.2h.1v-.1h.1v-.1c-.2-.1-.2-.2-.2-.3l.4-.3.3-.1v-.2c.4-.2.4-.2.1-.3.1-.2.2-.3.5-.4s.1-.2 0-.2c0-.1 0-.3.3-.3l.1-.2v-.4l.4-.2c.5-.1.4-.4.4-.6l.1-.2.4-.2-.4-.1v-.4c.2 0 .2-.2-.1-.2h-.1c0-.3-.3-.3-.5-.3l-1-.2-.8-.2-3-.1-3.3-.2-1.7-.1-2.2-.1-3.1-.1a51.9 51.9 0 0 0 -4-.1h-.9l-.7-.1h-4.4l-2.3-.1h-4.9a49.3 49.3 0 0 0 -5.7 0l-1.7-.1h-4.4l-2-.2h-8.1l-.5-.1h-1.4l-3.2-.1a40.6 40.6 0 0 1 -4.2-.1 5 5 0 0 0 -1.2 0h-.2a6 6 0 0 0 -1.7-.1h-.9a19.2 19.2 0 0 0 -3 0l-.3-.1c-.1-.2-.4-.1-.6-.1h-4.4a16.3 16.3 0 0 1 -1.4-.2h-1.8a17.4 17.4 0 0 1 -1.4 0h-.3a12.6 12.6 0 0 0 -2.2 0l-.5-.2h-4.3l-1.2-.1h-2.4l-1-.1-.7.1h-.2l-.6-.2a3 3 0 0 0 -.8 0h-3.4a3 3 0 0 0 -1.3 0h-1.2.3s-.1-.1-.2 0a2.6 2.6 0 0 1 -1 .1h-.6l-1.8-.1h-.7l.1-.2h-2.4c-.3.1-.5.1-.8 0h.4-4.5l2 .2h-3l-.6-.1h-2.2l.3-.1h2.1l-.3-.2h-2.4.3-2.6.3-1.4v.2l-.4-.1a3 3 0 0 0 -.7 0 1.7 1.7 0 0 1 -.6 0h-.2l.4-.2c-.3 0-.6-.2-1 0h-.6l.2.1h-1.4c0-.2.4-.1.5-.2h-2.3l.8.2h-3.6a55.9 55.9 0 0 1 -5.1 0c0 .2-.2 0-.4 0h.2l-.1-.1h-.5a2.2 2.2 0 0 0 -.9 0h-1 .6l.8.2-.7.1h-.6l1.6.1.6.1h-6.8a27.5 27.5 0 0 0 -3 0h.7l-.5.2h-2.6l.4.1h1.1l-.2.1h.3l-.5.1-2.6.1 1.8.1 1.7.1h-3l-1 .2a5 5 0 0 0 -.7 0h-.3c.3-.2.8 0 1.2-.1l-1.2-.1h-4.1.8l-.1.2h.2-.2v.4h.5l-.2-.2h2.7c-.2-.1-.7 0-.9-.3h1v.3l1.1.2h.8a2 2 0 0 0 .8 0h1.6c-.2.2-.5.1-.8.2h.5l-.1.1h1.8v.2h-.8a4 4 0 0 0 -1.3 0h.3-1v.2h-.5c-.2 0-.3 0-.5.2h-.4a1 1 0 0 0 -.6 0h-.3l.1.2h-.7l.2-.3h-1l.3.2h-5.2l.2-.1h2.8l.3-.1-1.2-.1h.5c-.1-.2-.2-.2-.4-.2l-.4.2h-.2c.2-.3.6-.2 1-.2l.3.1h.5l.6-.2h.3a8 8 0 0 1 -.5 0c-.2 0-.3 0-.2-.2h-.4c-.4-.1-.6-.1-.8 0l-.1.2h-.2a9 9 0 0 1 -.5 0l-.3.1-.2-.1h-.4l-.3-.1h-.4l-1 .1v-.1h-.6l-.5.1h-1l-.2.1h2.2l.9.1h-.5c.2.3.6 0 .9.2l-1.2.2a14.4 14.4 0 0 1 -1.8 0h-.8l.3-.2-.5-.1h-.6a4 4 0 0 0 -.4.2c-.2-.3-.6-.1-1-.1 0-.2 0-.2.7-.2h-.5v-.1l1-.1v-.4l-.6.1a7 7 0 0 0 -.6 0l.1.1h-.4c0-.1-.2 0-.2 0-.5 0-1 0-1.6.2h1.9-.3c-.1.1-.4 0-.3.2.1.1.3 0 .4 0h.2l-.8.1h-.2l.2-.1c-.2 0-.3-.1-.4 0h-2.8 1-3.1.6c-1 .2-1.2.2-1.4 0 .3-.1.6-.1.5-.3l.5-.1h.7a.8.8 0 0 0 .3 0h.1v-.2h-1.1a8 8 0 0 0 -1 0h-2.4l.1.1c.1.1.3.2.5.1h.9v.1h-.5a6 6 0 0 0 -.5 0c-.2 0-.2 0 0 .1-.3 0-.7 0-.9.2l-.8-.1c.2-.2.6 0 1-.2h-3.6 2.3v-.1h-1.8c.7-.1 1.5-.2 2.2-.1.2 0 .3 0 .3-.2h.5-.4c-.2-.2-.4 0-.7 0h-.9l.2-.1h.7c-.2-.2-.4 0-.6-.1a7 7 0 0 0 -.6 0h-1.9l.2.1h-.4l2.7.2h-.2a.7.7 0 0 1 -.3 0 .9.9 0 0 0 -.5 0h-1.2c0 .2.3 0 .5.1a2 2 0 0 1 -.7.2h-.2l-.3.1v-.1h-.6c-.2.1-.4 0-.5.2h-.8l.2-.1h-1.3c-.4 0-.5 0-.7-.2l-1 .1.5.1-.9.1h-1.3.6l.4-.2h.5-1.5a4 4 0 0 0 -.9 0c-.3 0-.4 0-.5-.2l-.4.3-.3-.2h-.5a12 12 0 0 1 -1.3 0l.2.1-2 .1h-5.2l-.2-.1c.3 0 0-.2.1-.2h-.6c-.2.2-.5 0-.7 0-.3.1-.7 0-1 .3h-1.4.9l.4.1h1l-.7.2h-1.6l.1.1 1.5.1a3.4 3.4 0 0 1 1.8.1l-1.3.1c.4.2.7 0 1 .1h-1.5v-.2l-.3.1v.1h-.3l-.2.1c-.2.1-.7 0-.8 0l-.2-.1h-1.5a9.4 9.4 0 0 1 1.9 0l.2-.2h-1.5l.2-.4-.6.1h-1.5l1.5.1h-1.5l-.1.3h.4-1.3c.3 0 .6 0 .8-.2h-1.5l.3-.1h.8l.4-.2h-1a2 2 0 0 1 -.8 0h.6a1.7 1.7 0 0 0 -.7 0l-.8.1h-1 1.2v.3a4 4 0 0 1 -1 .1h-.8 2.7l.4.1h-.6l-.9.1h-2.5l.3.2h-1.9l.1-.1h-.8c0 .1-.2.2-.3 0l-.1.1h-1.3l-.8-.1-1-.1h-2l-1 .1 1.3.1h-3.4l-.1.1h-.3l.2-.2h-1.4l.3.1v.1c.5 0 1 0 1.2.2h-2.2.6v-.2h-1.7l.9-.1h-1v-.1h.1l-.2-.1h1c.4 0 .4 0 .5-.2l.2-.1h-1.1l-.2.1h-.2a4 4 0 0 1 -.5 0h-1.2l-.8.1h-1.5.6l.6.1c-.3.1-.6.2-.7.1h-2.5l.1.2a4 4 0 0 1 -.5 0l-.8.1h.3l.8.3h.9l-1.6.1h-2.8v-.1h-.8l-.3.1-.3-.1.2-.1h.1a1 1 0 0 1 .4 0h.8l-.2-.3h-.6.4l-.3-.2h-.5l-.5.1-.5-.1h-1.8c-1 .2-2 0-3.1.2h-.5.3-2v-.1h1.4l-.1.2h.5c.1-.2.5 0 .7 0l.3-.2h-.6.7l.2.1.2-.1h2.2c.3 0 .3 0 .1.1-.3 0-.5-.2-.8 0l1.3.1.7.1-1 .1v-.1h-2.6c-.3.2-.6.2-1 .2h-.3a7.3 7.3 0 0 1 -2 0l1-.3-1.4.2h.3-.3c-.4-.2-.9 0-1.4 0l.2.1h-1.3.6l.2-.3h1.1l-.2-.2h.5-.2a1.4 1.4 0 0 0 -.5 0h-.2l-.4.1-.3-.1h-1.1c0 .2.4.1.4.3h.7-.5c-.3 0-.5 0-.5.3-.2-.2-.6-.2-.9-.2h-.4a1 1 0 0 0 -.4.2v-.2h-.4l.2.2a9.7 9.7 0 0 1 -1 0h-.6l-.2-.1a1 1 0 0 0 -.4-.1h-.4l-.9.1h-.8c.3-.1.6-.3.6-.5h.6c-.4-.2-.4-.2-1 0h.1-.5c-.1 0-.5 0-.7-.2h.4l.5-.1h-2.4c.6 0 .6 0 .7.2h-1.1c-.2 0 0 .3-.5.2l.1-.1h-1.7c0 .1-.2.1-.4 0h.2zm126.3-.6h-.4.7zm-126.4 1h.3-.8zm-105.8 3.3s.2-.1.4 0h-.7c0-.1.3-.2.3 0zm-47 8c.1-.2.4-.2.6-.1h-1.2.6zm26.7-6.7h.3c.1-.1.3-.1.4 0h-1.4zm272.2-6.5h-.4c.2-.1.3-.1.4 0h.7-.6zm-291.7 12.9h-.6l-.4.1h.5c.1-.2.1-.2.6-.1l-.3-.1.4-.1zm191.8-10.6v-.1h.5l-.5.1h-.4.5zm-31.3 1-.3-.2h1a2 2 0 0 1 -.8.1l-.2.2-.3-.1zm-100 1.5h-.3 1c-.6.2-.6.2-.9.1h.3zm-127.9 14.1-1.4.2 1.3-.2h.7-.8zm284.6-16.5h1.5c-.3.2-.5 0-.7 0h-.8l-.4.2v-.2h-.3zm13.8-.7h.3-1.3c.8-.2.7-.2 1.2-.1zm-112.6 1.2s0-.2.2-.3c.7 0 .9 0 1 .2h-.6a2 2 0 0 0 -.6.1h-.4zm90.2-.1c.6-.2 1.2 0 1.8 0h-1.8 1-1.5zm-104.1 1.3v.1h-2.7 4a3.2 3.2 0 0 1 -1.3 0zm12.6 1.2a1.7 1.7 0 0 1 .9 0h-.9v.1h-1.2.3c0-.1.2-.1.4 0l.3-.1zm125.2-2a3.1 3.1 0 0 1 -1.5 0l.3-.1 1 .1h.2l.6-.1v.2h-.6zm-117.1-1.3v-.1h1-1c-.1 0 0 .1 0 .2l-.3-.1-.5.1.3-.2h.5zm134-1.4-.2.1-.4.2-.4-.1.2-.2h-.4 1.7zm-112 1.1a3 3 0 0 1 1.2 0c-.2.1-.8.1-.8.4h-.2l.2-.2h-.7l.4-.2zm-140.5 4.4h-.2.1a10.5 10.5 0 0 1 1.3-.2l.2.1h-.3l-.1.2h-.2a.8.8 0 0 1 -.5 0h-.4zm226.5-5.2c.3-.2.4-.2.8 0h-.9.1a7 7 0 0 1 -1 0c-.4 0-.5 0-.6-.2a2.9 2.9 0 0 1 .8 0h.3a.7.7 0 0 1 .3 0l.1.1h.1zm-220.6 5c-.2.2-.4.2-.6.2h-.6l-.8.2h-.2l.2-.1h-1.1.2l1.5-.1 1.4-.1h.6-.6zm49.2-.7h1.7c-.5.1-1 .1-1.6 0h-1.8l-.4-.1h2.4zm-25.5.3v-.1h.3c0-.1.3 0 .4-.2h-.3.4-.1.7l-.6.4c-.2.2-.2.2-.5.1h-.3zm64-2.4h.3c-.1 0-.3.1-.4 0a8 8 0 0 0 -.8.1h-1.3l.4-.3.3.1zm86-1.6-.3.1c-.3 0-.6 0-.8.2h-.3v-.2h1.7l.4-.1h-.9c.6-.2 1.1-.2 1.7 0h-.7.3l-.4.2.3.1h-1.1l.2-.1v-.2zm-124.8 4 2-.2.2.1h-.8l.6.1-.1.2h-1.4l.3-.2h-.8l.3.2h-.6l.1-.2h.3zm93.9-.7h-1.6l-1 .1h-1 .2c.4-.2.8 0 1-.1h2.9l.6-.1h4.5a4 4 0 0 1 -.3 0 5 5 0 0 0 -1 0h-1.9l-1 .1a13.5 13.5 0 0 1 -1.3 0zm3.8-2.6.1.1h2l.1-.2h1l-.8.2h2.1-5s-.1 0 0 0h.2l.2-.2h.6c-.2 0-.4.2-.6 0zm84-1.3h-4.4a2 2 0 0 1 -.8 0l1.5-.1h3.5c.1 0 .3 0 .2.1h.5-.4zm-24.8.5h-.2c0-.2-.3-.2-.6-.2a.9.9 0 0 1 -.3 0h-.1v-.1h-.5l-.4-.1h.5l-.1-.1h-.2c.4-.1.7-.1.8 0h.1l.8.2h1a.6.6 0 0 0 .3 0 1.4 1.4 0 0 1 .6 0c0 .2-.1.2-.3.2h-1.1l-.4.1c0 .1 0 .1-.4 0zm-110.6 1.3h-.4c.2 0 .4-.2.4 0h.3l-.3.2h1.1a6 6 0 0 1 -1.8 0h-.2c-.2.2-.5.2-.8.2l-1.1-.1h-.3v-.1h.8-.4v-.2h1.2l-.4.1h1.5-.2.3l.4-.1zm105.5-2.1h.4c.4-.2.8 0 1.2 0h-2.7a.5.5 0 0 0 -.2 0c-.3 0-.8 0-1 .2h-1.3l.2-.1-.4-.1c-.4.2-.4.2-.9.1h.5v-.1h-1.2l-1 .1-.3-.1a2 2 0 0 0 -.5 0h-2c0-.1 0-.2.4-.2h3.3c.2 0 .2 0 .1.1a8 8 0 0 1 1.8 0h3.7zm9.9.6h1.6l-.3.1h-1.8a8 8 0 0 0 -1.6 0l.1.2h-.4l-.3-.2 1.5-.1h1.2-.8l-.2-.1c-.1-.1-.2 0-.2 0h-1.2l-1.2-.1.4-.3h-.7l.5-.2h2l.8.1h-.7l-1.7.3h2.2l.6.2h.3zm-141.5 2.9h-.4c-.2 0-.3 0-.2.1h2.6a139.1 139.1 0 0 1 3-.1h-1c-.5.1-.8 0-1 .2h-1.1c0-.1-.4 0-.4 0a1 1 0 0 1 -1 0c0 .3-.3.2-.5.2h-.1c0-.1.3 0 .4-.2h-.3l-1 .1h-.7l-.2-.1c.3 0 .5-.2.8 0 0-.1-.1-.2.1-.3h1.5l1.3-.1h.4l-.1.1a5 5 0 0 1 -.5 0h-1.7zm31.8-.9.3.1h7l.1-.3-.3-.1.5-.2c.2-.2.7-.2.9-.1l.7.2h-1 .2l-.5.2v.1l-.3.1h1.7l-.5.1h-.8l-1.6.1h-2.7a39 39 0 0 0 -5 .2 5 5 0 0 1 -1 0h-2.2.1-1.5v.1h-.9v-.1h-2.7l-1.3.1a2.2 2.2 0 0 1 -.8 0h.3l.3-.1h4.4l2.4-.2h4.2l.2-.1.6-.1h.6-1.3zm152.3-3.1v.1h-.9c.3.1 0 .1-.2.2l3 .1-.1.1h-2.5l-.2.1a1.4 1.4 0 0 1 -.6 0h-1.7.8v-.1c-1-.1-1.9-.2-2.8-.1l-.1.1h-.3l-.1-.1h-.5a6.8 6.8 0 0 1 2-.1h.3c.2-.1.2 0 .2 0h2l-.6-.1a3 3 0 0 0 -.9 0l-.1-.1a5 5 0 0 0 -.6 0h-3.3a1.2 1.2 0 0 0 -.5 0c.5.1 1 0 1.3.2h-1.8l.3-.5h1.5v.1h-1 6.2l1.1.1zm-136.1 2.5h-.6a2.3 2.3 0 0 0 -1 0 2.2 2.2 0 0 1 -.8 0h-.1v.3h-.3c.1-.2.2-.3.6-.3h-.2l.2-.1h.6l.1.1h.7l-.1-.2c-.5 0-1-.2-1.5 0l-.4-.1h-.8l2.1-.4h.9l.6-.2h1.1l-.5.2h.5l-.9.3 1.2.1-.4.1h.6a5 5 0 0 0 -.4.2h-1l-.2-.1zm75.4-.8-.8.1h-3.9a1 1 0 0 0 -.5 0 .8.8 0 0 1 -.6 0h.2l.8-.1c.3 0 .7 0 .7.2l.3-.2c-.2-.1-.7 0-.9-.2h.6l-.3-.2h1.5l-1 .1h-.1c.2.2.6.1.8.2h1.7c.2 0 .3-.1.3-.2h-1l.1-.1h.8a3.1 3.1 0 0 1 1.2.1c-.2 0-.5 0-.8.2h.7c.1 0 .4-.1.4 0l-.5.1zm66.3-1.3 1.4.1h1.8l1.2.1h1l-.6.1h-.1l.1.2h-.5v-.2h-.8l-2.2-.1h-1.9l-1.7-.1.1-.2h-.3l.4-.1h.6c.2-.2.4 0 .7 0h-.4 1.1-.2 1.2-.6l.4.1h-.6zm-174.3 3.3-1.5.1h-2.1c-.3.1-.5 0-.8 0a1 1 0 0 0 -.4 0l-.4.1h-.9l-2.2.1h-.7v-.1h2.7l.4-.1h1.6l3.5-.2h.5l.2.1zm32.2-.7h2l.5-.1h5.6c.3-.2.6 0 1 0l-1.2.1h-1.7l-1 .1a14.4 14.4 0 0 0 -2.1 0 3.2 3.2 0 0 0 -1.4 0h-1.7zm29.8-.4h4.3a18.5 18.5 0 0 0 2.7 0h4.2a10.3 10.3 0 0 1 -1.6 0h-3a41.8 41.8 0 0 0 -2.3.1c0 .1-.2 0-.4 0s-.7 0-1 .2h-.3v-.2h-2.5zm30.8-1h.6l.5-.1h.5a1.8 1.8 0 0 1 1 0 .5.5 0 0 0 .1 0h.9-.1l.4.1-.1.1h-.7c-.4.2-.9.1-1.3.2v-.2h-.9l.3.1-1.3-.1zm-39.7 1.4h1.5v-.2h-1.2l1.7-.1 1.2-.1v-.1h.7l-.4.1h1-.2c.1-.2.3-.1.5-.1 0 .2 0 .2.3.2h1-.7c-.3 0-.6 0-.8.2l-.4-.2v.2h-1.8v-.1c-.2 0-.4.2-.6.1 0 .2-.2.1-.3 0a2.5 2.5 0 0 0 -1 0h-.6zm109.7-3.8h-4.1l-.4-.1v-.3h-.2 3.7l.8.2.3.1zm-91.5 3h4.6l-.9.2h-.9a37.4 37.4 0 0 0 -3.6 0l.3-.2h.2l.4-.1h2.6-1.2a.3.3 0 0 0 -.1 0h-1.4zm-108.2 2.2.4-.2h2.1a46.8 46.8 0 0 1 1.7 0l-.2.1-.2-.2-.9.1v.1h-.3l-.3.1h-2.4l-.5-.1h.7zm199.7-5.1h5-1.4c-.2 0-.2.2-.3.2h-.5c-.1-.2-.1-.2-.5-.2h-2.4zm-199 6.3c-.3 0-.6.1-.8 0l-.8.1h-1 .2c0-.2 0-.2.4-.2h.2l-.8-.1 1.7-.1-.6.1h1c.4 0 .5 0 .5.2zm137.7-3.8h-.3a1.7 1.7 0 0 0 -.9 0h-.7l-.6-.2-.6-.1a2.8 2.8 0 0 1 1 0l.6.2a25.2 25.2 0 0 1 2.5-.2l-1 .2zm-117.5 3-.9-.1h2.1l-.3.1h2-.3-1.5-1.8l.8-.1zm-26.3.6a40 40 0 0 1 -3.5.2h.5c-.3-.2-.7 0-1-.2h2-.4zm-81.6 2.6c-.8.2-1.8.3-2.8.3.1 0 .4 0 .4-.2l.1-.1h-.9l3-.3-1.9.3.5.1h1.6zm215-5.2.6-.1h4.4l-.4.1zm72.3-3.6 1-.1h2.9l2 .1h.3zm-45.3 1.3h1.7l1.5-.1 1 .1c-.2 0-.2.1-.4 0a1.6 1.6 0 0 0 -.9.1h-2.9zm46-1.8h.1l1.1-.1h2.4a3 3 0 0 1 1 .1zm-.5 0h-3.7l-1-.1c.4 0 .7-.2 1 0l.8-.1a37.2 37.2 0 0 1 2.9.1zm-21.5 3.1h.7-1.6-.3l.5-.1c-.1-.2-.2-.2-.5-.2h-.5l.3-.1h.8l.2.1.2.1 1 .2zm-194 2.8h2.1a1 1 0 0 0 -.4 0l-.2.1h-.1l-.3.1-2.6.2h-.3l1.9-.2v-.2zm231.2-4.3c-.5 0-1 0-1.3.2h-1.8l-.3-.3h3.2l.3.1zm-60.9.8-1.6.1h-4a1.6 1.6 0 0 1 -.7 0h1.3a9.4 9.4 0 0 1 1.6 0v-.1l.1-.1.9.1h2.5zm9.5-.2a4 4 0 0 1 -1 0h.4l-.3-.2.6-.3 1.1.1h-.3v.1h.7c-.6.2-1.2 0-1.8.3zm121.6 8.6-.2.1h.7-3.1l-.7-.1c.5-.2 1 0 1.4 0h.1l.7.1h.7zm-119.5-7.7h2.3l.8-.1h.8l-.9.3.2-.2-1 .1a6 6 0 0 1 -1 0zm-73.8.2a4 4 0 0 1 2.1.2h-.4a4.8 4.8 0 0 0 -.8.1h-.3a1 1 0 0 0 -.6 0h-.4l.3-.1h.7l.3-.1h-.9zm-129.5 9.8a11 11 0 0 0 -.8 0h-.3.7l-.4-.1a14 14 0 0 1 2.3-.2l-.4.1.1.1-1.4.2zm118.4-9h3.5-.5a2.6 2.6 0 0 0 -1 0l-.4.1h-.8zm-.6.2a3 3 0 0 1 -.5 0h-2.2l-.3-.1h.2l.4-.1h2l.5.2zm66.7-2.2h.1a26 26 0 0 1 2.2 0h1.9-.6l-.7.2h-.2a3.5 3.5 0 0 0 -1.5-.1l-1.3-.1zm35 .6.2-.1 1-.1.8.2-.8.2a3 3 0 0 1 -.8-.1h.7l-1-.1zm-69.8 1.8h-.6l-.7.1h-.7.5-.2c-.3 0-.7 0-.8-.2h-.7 2-.8 2zm92.5-3.1h2.4a2.3 2.3 0 0 0 -.9.2h-.7c-.2 0-.2 0-.1-.2h-.6zm-156.8 4.7c0-.2.5 0 .5-.2h-1.5l-.2-.1h3a3 3 0 0 1 -.8.2h-1zm108.2-3h-.1c-.4.2-.7 0-1.1 0l-.8-.1.5-.1 1.5.1zm-168.3 3.1h-.4l-.2.1h-1 .2l-.2-.1h1.1l.8-.1h.7c-.4.2-.9.2-1.4.2zm26.1-.6 3-.1c-.4.1-.9.2-1.3.1zm-112 2.4-3.6.3c.2-.1.6 0 .8-.2h-.5l.7-.1v.1l1-.2h1.6zm92-2h.2a10.3 10.3 0 0 0 1.8-.2h1.1l.4.1h-2a14 14 0 0 0 -1.6.2zm-11.5 1.1c.4 0 .7-.2 1 0h1.8-.8l-1 .1h-.4c-.3.1-.2-.1-.5-.1zm174.9-4h1a.9.9 0 0 1 .4 0h.7-.1l-.5.2h-.2l-.4-.1h-.9zm-223.7 5.5 2-.1-.1-.2h1.4c-.2.2-.6.2-.9.2h-.5c-.6.1-1.2.2-1.9.1zm17.6 5.1-3.5.3v-.1h.1l.2-.1h2.4a1.9 1.9 0 0 1 .8 0zm242.1-12.6h2.5-1c-.7 0-.8 0-1 .2a6 6 0 0 1 .9 0c-.5.1-.7.1-1.4-.2zm-77 1.7 1-.1.5.1-.4.2h.3l-.1.1c-.4 0-.6-.2-1-.1l-.2-.2zm-122.4 3.9c0-.2.4-.2.6-.2h2.2-.3a2 2 0 0 1 -.5.1h-2zm81.2-1.9s-.2.1-.2 0h-.7l-1.3.1h-.2l.1-.1h2.4zm-26.1-.7-.1.1h-.1l-.2.1h-.8.5l-.4-.2.3-.1a9.5 9.5 0 0 0 -1 0 1 1 0 0 1 -.2 0h1.8zm159.3-3.5-.3.1h-2.1v-.1h.2a6.9 6.9 0 0 0 1.9 0zm-247.4 8.1h.6c-.3 0-.6.2-.9 0h-.2a1 1 0 0 1 -.4 0l-.2-.2h.8l.4-.1.3.2h-.4zm52.5-3.7h1.9l-.7.2h-.8v-.1h-.4zm95.7-1c.8-.2 1.7-.2 2.6 0h-.9a14.7 14.7 0 0 0 -1.8 0zm-53.5 1v.1h-1.5c-.5.2-.5.2-.9 0h2.4zm-133.2 3.5-3.4.3 1.6-.2h1.8zm139.6-4h.5l3.3-.1h.2-2.5l-1.1.2h-.4zm28-.9h-.2 1c.3 0 .6-.2 1-.1-.7.2-1.4.2-2 .2h.2zm-134.6 3.1h.1l-.1.1h-.7l-1.2.1h-.2zm-30 1.5h-.2l-.1.1-1.4.1h-1.1l2.6-.2zm-47.5 12-3.4.4c1-.2 2.2-.4 3.4-.4zm290-17.8h.4a1.8 1.8 0 0 0 .7-.1h1.4v.1zm-55.3 1.7c.2-.2.4-.3.7-.3h1.2c-.4.2-.9.1-1.3.1 0 .2-.2.2-.6.2zm-106.2 3h.6l.7.1-.5.1h-.4v-.1h-.4zm199.2-6.3c-.2.1-.4.2-.7.1h-1v-.1h1.8zm-79.1 3.3h-1.7c0-.2 0-.2.3-.1h.6l.7-.1v.2zm-182.7 9.7-.9.1h-.8c-.2 0-.2.1-.4 0h.7c.2 0 .5 0 .6-.2h.1zm149.5-9.3h2-1.1c-.1.2-.5.1-.7 0h.3zm23.8-2.2-.4.2h-.7v-.1l-.1-.1h1.3zm-74.1 2h-1.6c0 .1-.1.1-.2 0h-.3l1.7-.1h.4zm-5.4.7h-1.9c.6-.2 1.3-.2 2 0zm-61.7 2h.6a12 12 0 0 0 2-.2h.1l-2.7.3zm.6.5h2zm223.8-5c-.1.1-.5.2-.7.1a1.2 1.2 0 0 0 -.5 0h-.7.3l.4-.1h1.3zm-132 2.4h.8a13.2 13.2 0 0 1 .9 0zm140.4-2.8h-.7l-.6-.2h1.1zm-38.3.5.8-.2.3.2-1 .1zm-67.8 1.8h2.2-.5l.1.2h-.7.2l.2-.1h-1.5zm108.2-2.3.7-.1 1 .1zm-116.9 2.7.4-.1h.3c.2-.2.5-.2.8-.1h-.3l-.2.1h-1zm80-1.8h-1.3a3.6 3.6 0 0 0 .6-.2.9.9 0 0 1 .6 0v.3zm-284 15.5c-.1.2-.5.3-.6.2h-.7c.4-.3.9-.2 1.3-.2zm271.4-15.7h-2.1.6l.5-.1h.4l.2.1zm-123.5 2.1h2zm84.7.3c0-.1-.2-.2-.5-.2h1c0 .2 0 .2-.5.2zm32.4-3h-.7a2 2 0 0 1 -.8 0l1.5-.1zm-130.5 3.6h1.7zm37.3-2.5c.5-.1.8-.2 1.2 0l.3-.2-.2.2zm-175.8 15.8-1.8.4c.2-.3.6-.2.9-.3h1zm200.8-14.3.2-.1h1.2zm-127.6 8.5-.2-.2.2-.1 1.4-.1h.2l-.9.1-.8.2zm261.6-11.6-.5.2-.4-.1a4 4 0 0 0 -.5 0v-.1zm-36 .6h.2a2 2 0 0 0 .3-.2.8.8 0 0 1 .4 0v.1c.2 0 .1.1 0 .1h-1zm-96.5 1.2c0 .2-.1.2-.7.2v-.3h.7zm-149.6 10.8c.4-.3 1-.2 1.4-.2zm17.9-1h.2a9.3 9.3 0 0 0 1.4-.2l.3.1-2 .2zm272.3-11h1.5l.7.1h-2.1zm-326.2 14.7c-.3.3-1 0-1.3.2h-.4zm324-15.9h-2zm-283.9 13.2 1-.1c.2 0 .5-.2.8 0l-1.1.1zm-35 2.6c-.5.2-.9 0-1.3 0l1.2-.1v.1zm249.2-13.8h-.4l-.2-.1.5-.1.5.1h-.7zm-151 3.5a4 4 0 0 1 -1.7 0zm226-4.6h-2.3 2.2zm-111 1.4.5-.1s-.1.1 0 .1h1.1c-.2.1-.5.2-.7.1a2 2 0 0 1 -.7-.1zm-46.5 2.7-.2.1h-1c.4-.2.8 0 1.1-.1zm-119.7 7.4a4.1 4.1 0 0 1 -1.7 0zm133.5-10.5c-.5.1-1 .2-1.6.1.5 0 1-.1 1.6 0zm50.5-.4h-.9c-.3 0-.5.2-.8.1l.2-.1zm-115.2 2.6v-.1a3.5 3.5 0 0 1 1.4 0h-1.4zm61.8-1.5h-1.4zm-105.8 3h1.3c-.4 0-.8.2-1.3 0zm204-3.3a2.9 2.9 0 0 1 1.3 0h-.6a2 2 0 0 1 -.6 0zm-244.6 11.2.6-.1h.6-.2zm144.7-11.5h-1.2zm-35 2.2h-1.7zm147.8-3.4-1-.2h1.1v.2zm-230.9 6.2c-.4.1-.7.2-1.2.1h1.2zm14.5-1.9h.9l-.8.2zm5 2.4-.6.1c-.3 0-.6 0-.7.3l-.3-.3h1.6zm18.9.8h-1.1 1zm313.7 1.2h1.7zm-325.4.9c-.3 0-.6.2-1.1.1l1.2-.1zm202.1-11h.3a1 1 0 0 0 .5 0c.1 0 .3-.1.4 0a9 9 0 0 1 -1.1 0zm-182.4 4.8.2-.1h.2c.2-.1.5 0 .8 0-.3 0-.6.2-1.2 0zm85.6-.6a2.8 2.8 0 0 1 -1.3 0zm23.3-1.3.1.1.2.1h-.5v-.1h-.4v-.1zm-32 .8h-1.4 1.5zm-36.5.2a3.6 3.6 0 0 1 -1.5 0zm-83.6 3c0 .2-.3 0-.5.1h-.7zm22-.3h-1.2zm85.2-2.3h1.3a3.3 3.3 0 0 1 -1.3 0zm120.6-2.5-.5-.3c.7 0 .8 0 1 .2h-.5zm-61.9 1.2.1-.1a2.5 2.5 0 0 1 1 0zm-56.8 2-.8.1c-.2 0-.3 0-.2-.1zm17.1-1.4h.3c.1 0 .4.1.4 0h.9a3 3 0 0 1 -1.6 0zm25.8.4c.3-.2.6 0 .9 0 .2-.1.5 0 .8 0zm47.7-2.6h1.4a2.3 2.3 0 0 1 -1.3 0zm.5.8c.3-.2.5-.2.8 0zm-93 3.4h1.6c-.5.1-1 .1-1.6 0zm-45.1-.5h.3l-.1-.1h-.4l1-.1c-.4 0-.4.3-.8.2zm-46.4.7h.7l-.1.2h-.5v-.2zm127-3.5.3-.1h.6c-.3.2-.5.1-.8 0zm13.9 2.9h-1.6 1.7zm70.3-2.4c.2-.2.5-.1.7-.1h.7-1.4zm-86.5 1h.3l.2.1-.2.1h-.4v-.1zm-75.7.4-1 .1v-.1zm-96.7 3.3-.4.1h-.7 1.1zm119-4.2c-.2.3-.6.3-.9.1h.9zm171.7-1.9h1.8zm-144.7 4.3c.4-.2.8 0 1.2 0zm125.4-3.4h1.2zm-93.1 0c-.4.2-.7 0-1 0zm-.3.7h-1.3a3.5 3.5 0 0 1 1.4 0zm-109 4h.2l.2-.1h.3-.2.6l-.4.1zm-90.5 1.6.4-.1 1-.1h.3l-1.6.2zm259.7-7.1h.9c-.4.2-.4.2-.8 0zm48.8-1a4 4 0 0 1 -1.2 0h1.3zm-86.8 2.9h1-.2a1.4 1.4 0 0 1 -.8 0zm46.3-1.6h1.1zm-174.6 4.2h1.1-1.2zm221-6.8v.1h-1 1zm-86.2 4.4-.9-.1c.3 0 .7-.1.9.1zm69.5-4.5h.6l-.3.1zm-347.3 14.5.5-.2.3.1-.4.1zm361.6-11.9h-.5a6 6 0 0 1 -.5 0c-.1 0-.3.2-.4 0zm-318.8 7.4a4 4 0 0 1 -1.4.2zm113.3-3 1-.1h-1zm5-.8h1.3-1.2zm38.4-2h-1zm122.5-1.2-.1.1h-.6c.2-.2.2-.2.8-.1zm34.3-1.7-1.2-.1h1.2zm-219 7v.2l-1.6.1 1.6-.1zm71.7-3.3h1.2zm154.2-3.4c.4-.2.7-.1 1 0h-.5a2 2 0 0 1 -.5 0zm-268.9 6.7-.3.1a2 2 0 0 1 -.4.1c0-.2.1-.2.7-.2zm23-2 1.5-.1h-1.5zm132.2-2h1.5zm82-.7v-.1h1.3-1.2zm-97.2 2.2h-1.1a2 2 0 0 1 1 0zm-120.5 1 .1-.2h.3c0 .2 0 .3-.4.3zm224.7-4.5h1.2zm-308.5 6.3 1-.1c-.3.2-.4.2-1 0zm144-2.8a9.3 9.3 0 0 1 -1 .1h-.5 1.6zm-66.6 1.3-.8.2c0-.2 0-.2.7-.2zm-50.5 8.9.7-.1-.3.2zm263.1-12.7-.5.2-.1-.3zm-79 3h-1zm72.7-3.1a2.1 2.1 0 0 1 -.8 0c.4-.1.6-.1.8 0zm-217.7 8.7v-.1h.2l.3-.1h.3zm132.7-6.4a2.6 2.6 0 0 1 -1.2 0zm54.4 0a4 4 0 0 1 -1 0zm126 5.5h-1.3 1.2zm-225.3-5.3c.3-.2.7 0 1-.1-.3 0-.6.2-1 0zm114.5-3.7h.8a1.8 1.8 0 0 1 -.8 0zm-64.3 2.6h-1zm-80.2 1.1-.7-.1zm61.3.3h-.5a4 4 0 0 0 -.4 0l.4-.2c.2 0 .4 0 .5.2zm-32.2 1.1c-.2.2-.6 0-.8.1h-.2zm118.3-4.4h1zm26 .2v-.1h1.2-1.3zm-20.4.7h.9a2.3 2.3 0 0 1 -1 0zm-93.7 1.4h-1zm-96.8 2h.5zm66-1.5h-1a2.2 2.2 0 0 1 1 0zm-124 3 .4-.2h.5l-1 .2zm-53 3h-1zm169.4-4.2c.3-.2.5-.2 1 0zm93-4.2-.2.1h-.2v-.2l.5.1zm-264.7 9.7.6-.1zm235.3-8.9h.8c-.3 0-.5.1-.8 0zm107.1-1h-1.3zm-227.6 4.1h.4c.1-.1.3 0 .4 0zm9.6.3.4-.1h.5c-.3 0-.6.2-1 0zm-35.3 2h-1a2.1 2.1 0 0 1 1 0zm147.4-3h-1.2zm120.2-3.7c-.4 0-.6.2-.9 0zm-32.4 7.1h-1 1.1zm-17.7-6-.4-.2h.3c.2 0 .3.1.3.2zm-251.3 12.1h.7zm97.4-9.5a2.9 2.9 0 0 1 1.3 0zm92.4-2.8h-.1l-.3.1h-.3zm40.5-.2h-.8c.4-.2.6 0 .9 0zm-157.3 2.9h.3-.7c.2 0 0-.3.4-.2v.1zm71.9.5c0 .1-.2 0-.4 0h-.4zm-66-.3h-.7.6zm-91.9 10h-.7zm305.7-13.7v-.2a2.2 2.2 0 0 1 .9 0h-.9zm-16.5-.4 1 .1h-1zm-157 4a2.1 2.1 0 0 1 -.8 0zm31.4-2h-1zm55.6 1.9h-.6zm.6-1.3h-1zm-21.8-.4h.7zm-94.3 2.8h-1.2zm270.7 3.6h1a5 5 0 0 1 -1 0zm-266-3.1h-.7c.2 0 .4-.1.8 0zm-98.3.4c.4-.2.5 0 .8 0h-.5a3 3 0 0 0 -.3 0zm-9 1.6c.2-.2.5-.1.6-.2h.3l-.8.2zm193.4-4h-1zm-20-1.7v-.1h1-1zm-5 1h1c-.6.2-.8.2-1 0zm-14 1.7h.7-.8zm169-6.4a2 2 0 0 1 .9 0zm-141.1 3.1h.7a1.5 1.5 0 0 1 -.7 0zm-88.6 8h.9-1zm88.5-7.8c0 .2-.3.1-.5.1h.5zm-46.5 2.8h-.9zm87.6-3.4h.7zm-6 3.2h-.7.6zm5.9-3.3c-.2.2-.2.2-.6 0zm-54 3h.8-.9zm84.7-1.5h.9zm-164.5 3h-.9zm164.6-1h.6zm-131.4-.6h1zm141.9-3.1c.2-.3.4-.1.6-.1h-.6zm-164.1 3.4h.7zm167.4-1.1h-.6zm.3-2h.8c-.3.2-.6 0-.8 0zm-193 4.2h1zm-23.6-.1h-.8zm242.9-6.8h.7a1.9 1.9 0 0 1 -.7 0zm-263.9 8.1c.3-.2.3-.2.7 0zm168.5-4.7h-.7zm109-4h1zm-279.9 15.2v-.1h.8-.4a2 2 0 0 1 -.4 0zm188.8-10h-.5zm-21.5.8h-.3c-.1 0-.1-.1 0-.1h.2-.1.4zm-97.4.5h-.7zm67-1.3h-.7.6zm69.9 1.3h.6zm-89-1.6h-.4.2v-.2h.2zm-51.5 2.4c-.3 0-.5 0-.5-.3h.3c-.2.2.2.2.2.3zm188.1-5c.3-.3.3-.3.7-.2l-.7.1zm-218.9 4.5c.3 0 .5-.2.8 0zm282.6-3h.8zm-211.5.2a1.4 1.4 0 0 1 -.8 0 1.1 1.1 0 0 0 .5 0zm-1.1 1.8h.9zm122.3-2.1.6-.2c0 .2 0 .2-.6.1zm-178.6 4.2c-.2 0-.4.2-.7.1h.7zm100.6-1.2h-.7.2a1 1 0 0 1 .3 0h.1zm-220.8 13.6c.1-.2.1-.2.4-.1 0 0-.2.1-.4 0zm27.8-1.8h-.8c.2 0 .4-.1.8 0zm188.4-13.1c.1-.2.3-.2.6-.1h-.6zm-77.6 2.6h-.7zm195-8.1h.5l-.5.2v-.2zm.8 3.5.6.1h-.6zm31.5-2.9h-.7zm-205.5 5.9c.3 0 .5-.2.8 0zm-9.5 1 .2-.1h.4c-.3.2-.4.1-.6 0zm-78 7.6h.6zm97.8-10v-.1h.6-.6zm62.5-.3h.9zm-61.8-.5h-.6.2a.7.7 0 0 1 .2 0h.1zm81.4.2h-.6zm5.3.7h.9zm67.8-2.1a1.6 1.6 0 0 1 -.7 0zm-220.7 9.7c.3 0 .5-.1.8 0zm113-8.4h-.6zm-.6-.2h.7c-.3.2-.5 0-.7 0zm70 .4h.7c-.4 0-.6.1-.8 0zm-79.8.3a.6.6 0 0 1 -.4 0h-.1zm-120.9 3.6h.7zm157.2-5.2c.4 0 .2.2.4.2h-.3v-.2zm-35.8 2.8h.6zm-150.7 9.8c.1-.2.4-.1.6-.1h-.6zm296.3-13.1h-.8zm-114.3 2.3-.2.1h-.2c.1-.1.1-.1.4 0zm-107.8 4h-.5l.4-.2.1.1zm-3.8-2h.7zm-.2.2c-.1.2-.2.2-.5 0zm33.7-1h-.5zm-42.6 4c.1-.2.2-.1.4-.1h.3-.7zm.2-.9c-.2.1-.3.2-.5 0zm56.3-2.6h.5-.6zm-154.2 12.5h.5zm145.9-13h1zm57.8-.5.5-.1v.1zm-140.4 2 .7-.1h-.7zm148-3.3h-.6v-.1h.5v.1zm-165.3 10.6h-.7zm-31.1-7-.8.1h.8zm186.3-2.8h.7zm115.8-4.7a.7.7 0 0 1 .5 0zm-83.4 5.2c-.1 0-.1.2-.4.2.1 0 0-.2.4-.2zm-207.6 3.5h-.1a.8.8 0 0 1 -.4 0zm267.4-6.1h.5zm40.3 0v.1l-.2.1v-.1h.2zm-195 4.2h.6zm-37.5.2c.2 0 .1-.1.4 0zm129.9-2.2h.3zm-70.3.5h.7zm92.6 0h-.8zm75.9-5.7h.6zm-29.9 2.6c0-.2.2-.2.4-.1h-.4zm-137 3c-.2.1-.4.2-.6 0zm38.2-.5h-.2l-.2.1h-.2zm2.6-.1c0 .1-.2.2-.3.1h-.2zm-160.4 10.2h-.6zm258.5-11.2h.4c-.2.1-.3 0-.4 0zm17.4-.5.5.1zm-155.8 1.9h-.5zm44 3.2h-.5v-.1h.6zm-80.6-3-.3-.1h.2l.2-.1v.2zm-53.6 3.4h.7zm123.8-5.1c.1 0 .4-.2.4 0zm163.8 7h.5zm-222.5-5v.1h-.5.5zm-129.6 11.6h-.6zm308-16.5h.5zm-261 7.2h.5-.6zm207.8-4.8h-.3c0-.2 0-.1.1-.1h.2zm-91 2h.5-.6zm142.8-2.8c.1-.1.1-.1.4 0zm-141.7 1h.5zm-55.1 2.6h.4zm-68.2 8.4h.7c-.2 0-.4.2-.7 0zm294.9-10.6a1.3 1.3 0 0 1 -.6 0zm-346.6 15.1-.6.1h.6zm75-9h.5c0 .1-.3.1-.4 0zm232.9-6.5h.5zm76 7.5h-.7.6zm-293.7 1.2h-.6zm90.3-5.7c.2.1.2.2 0 .2-.1 0-.1-.1 0-.2zm122.2-4h.7zm-14.2 0h.5zm-191 6.4h-.6zm-62.3-1.4h.6zm172.8-1.8h-.6zm129.5-5.3h.5zm-61.9 1h-.6c.2-.2.4-.2.6-.1zm18 1.8h-.5zm-9.4-.3h-.9a1.6 1.6 0 0 1 .9 0zm-172.2 5.6h-.6zm-86 8h-.6.5zm207.1-13.2c.1 0 .3-.1.4 0zm63.2.3h-.4zm-221.2 7h.6zm-3.4.5h.6zm157.4-6.2h-.5zm-1-2h.6-.5zm52.2-1h.5zm-220.3 9.3a4.2 4.2 0 0 1 .5 0zm204-6.8h-.5zm-37-1.8.3.2c-.3 0-.3 0-.3-.2zm64.4.5c0 .1-.1.2-.3.1h.3zm-56.3 0c0 .2 0 .2-.4.2l.4-.1zm-110.3 2.7c.1-.2.1-.2.4-.1h-.4zm-75.3 9.2h.7zm132.3-10h.4c-.2.1-.2.1-.4 0zm-49.8 2h.6-.2a.7.7 0 0 1 -.4 0zm0 3.7h.4zm118.5-6.2h.3zm-241.2 13.7h.5zm410.9-7.3v.1h-.4.4zm-226.2-5.7h-.5zm228 5.8h.5zm-227.4-4.5h-.5c0-.1.3 0 .4 0zm90.6-3.4h-.4zm-209 10.2h.5zm70.7-8.6h.4zm-60 1.7c.1.1 0 .2-.2.2l-.1-.1h.3zm121.8-2h-.6zm-119.6 8v.1h-.4.4zm196.7-8.6h.3zm134.9 7.3h.4zm-438.3 2.7h.4-.3zm257.8-10.5h-.4zm25.7 1.8h-.4zm-280.6 16h-.5zm108-10.1h-.5zm41.5-1.6h.5zm-149.2 1.7h.6zm302.7-8.2h-.5zm-194.5 3.3h.4zm.5 2.4h.4zm1.4.8.4-.1h-.4zm222.2-7.9-.2.1h-.2.4zm-142.8 2.4.4.1zm48.2-.2h-.5zm-72.2 3c-.2.2-.3.1-.4.1s0 0 0 0h.4zm55.2-2.8h.4zm49.9-.6h-.4zm22.6-.9h.4zm16.1-.3c-.2 0-.3-.1-.2-.2h.1zm-184.4 6h.5zm220-6.5h-.4v-.1h.4zm-297.3 14.4c.2-.1.2-.1.4 0zm299-14.4h-.5.1a.8.8 0 0 1 .4 0zm-146 5h.6zm146.6-6.6h-.3zm-307.8 8.8c-.2.2-.4.1-.5 0zm254.3-3h-.4zm-82.4-2.3-.3.1zm-186 14.9c.1 0 .2-.2.5 0zm178.7-13h.6zm130.3-2.5h.2zm-245.3 9.7h-.4zm5.1.4h-.4zm-5.4-4.9-.2.1h.2zm48.6-1.8h.5zm66.2-1c0-.2 0-.2.2-.2l-.2.1zm-35.7.3h.4zm158.3-1.6h.5zm-26-1c0 .1-.2.1-.4 0h.5zm.5.5h.3zm-274.4 4.8-.4.1h.4zm126.4 2.2c-.2 0-.3.1-.4 0zm-124.4-2 .4-.1h-.4zm124-1.2h-.3zm68.2-3v.1h-.6.6zm-185.5 3.7h.4zm266.2-3.1h.3zm-3.4-2.7h-.5zm-134.3 4.3h.4zm38.4-.6h-.2l.2-.1zm-160.7 10.6h-.5zm69-8.8h.5zm67.6 1.7h-.5zm43.6-5h.5zm19.6-1.4h-.5zm-95.6 4.2h-.5zm192.4-4.6h-.3zm-216.2 8.6h-.5zm0-1h.4-.5zm23.9-3h.3l-.1.1h-.2zm146.9-4.2h.5zm-169.5 7.6h-.6zm-73.6-2.6h.3zm292.6-6h.3zm-196.5 8.8s.2-.1.4 0zm60-5h.6-.5zm90.2 3.6h.5zm-64.6-5.2h.3zm-58.2 3h.5zm-126.7 8h.4zm344-4.2h-.4zm-331 4.2h-.1.2-.2zm80.4-8h.5zm-11.2-.6h-.2v-.1h.2zm-65 8.5h-.5zm-44.7 3.6h-.4zm126.4-13.2h.3zm2.2 1.6h.3zm30.3-.3h.3zm97-1.8h.1l-.1.2zm-85.3-.7-.2.1zm31.3 1.6h.2zm-35-.3.4-.1h-.3zm-108.5 2.9h-.2zm.1 4.7h-.3zm271.2-10h.2zm-312.3 6.1h.3zm43 .6h.4zm-57.6 8.6-.4.1h.4zm60.2-4.7a.6.6 0 0 1 -.3 0zm51-7.6h.3zm172.3-1h-.2v-.1h.2zm23.8-3.9h-.3zm-194.7 10.2h-.6zm193-7.8c0 .1 0 .2-.2.1h.2zm-193 2.4h-.4zm90-2.6h.2-.3zm-54.6.8h.3zm13.1-.3c-.1 0-.2.2-.5 0zm-187.5 7.7.4-.1h-.4zm184.3-5.3c.1-.1.2-.1.4 0zm35.7-3.1h.3zm106.3-1.2h-.3zm-76 1.3h-.3.2zm-77.4 1.7c0-.2.2-.1.4 0zm-143 13.2h.2zm224.8-13.3h-.3zm-157.6 2.4h-.4zm47.7.2h-.2zm116-.6h-.4.3zm-165.2 2v-.1h.4-.4zm-1.2-2.2.2.1h-.2zm4 .6h-.3zm2 5.5h-.3zm-99.4-1.4h-.2zm103 1.2h.4zm64.7-7.6h-.2zm91.5-1.2h-.2zm-169.6 6.6h-.2zm18 .7h-.4.3zm119.4-7.3h-.2zm-73.5 3.6.2.1h-.2zm171-5.1h.2zm-171.8 5.3h.2zm-68.2 0v-.2h.3-.3zm103.2-2.2h.4zm23-1.5h-.2.3zm-99 2.7h-.1v-.1zm289.5 4.3h-.4zm-79.2-9.8h-.3zm-86.7 2.8h.3zm-121.7 4h-.2zm-33.9-.4h.3zm69.8-.2h-.2zm158.6-5.2h-.2zm-232.7 12.3h-.4zm116.4-10.2h.3zm101.7-.8h-.2zm-58.9 0h-.3zm-202.1 14.2h-.5.4zm305-17.8h.3-.2zm23.2 3.4h-.3zm-244 8.4h.2zm110-7.8h-.3zm90.9-1v-.1h.3-.3zm-181.4 4.6h.3zm141.8-3h-.2zm79.8-1.9h.4zm-.7-1.2h.3zm-82.2 1h-.3zm-68.2 3.3h-.3zm91.3-2.3h-.3zm-164 8.2h-.3.4zm218-11.3h.2-.3zm-40.6 2.9h-.3zm-263 12.7h-.2.3zm126.8-8.6h.3zm42.8-4.4h.2zm-167.3 4.8h.3zm77.8 4h-.3zm220.9-10.6h-.4zm-298.5 7.2h-.2zm207.5-4.1h.2zm85.6-3.7h.1zm-111.2 4.2h.2zm117.7-4.8h.1zm-118.5 4.8h-.3zm-109 6.9v-.1h.2-.2zm174.5-6.5h-.1zm-95.4.6h.3zm32.4 1.2h-.2zm119.7-4h-.1c-.2-.1 0 0 0 0zm-191.5 1.2h.2zm-98.9 6.8h.2zm275.4-10h-.2zm-58.9 1.3h.1v.3h-.1zm-210.7 7.5h.3zm240.7-3.8h.2zm-44.5-1.5h.3zm-149.8 5h.3zm136-3.7h.2zm125-5h.2zm-262.3 10.6h.2zm100.3-4.8h.2zm-139.6 1h.2zm68.3-1.6h.2zm2.5.3h-.2zm0-.4h.2zm23.8.7h-.3zm20.6-.3h.1zm-75.9 0h.3zm36.7 1v.1h-.2.2zm31.2-1h.4zm-69.8 1.9h.2-.3zm188.6-5.4h-.3zm34.2-2.5h-.3zm-252.7 13.3h-.2zm224-11.3h.2zm-197 4.3h.3zm104.5-1.5h-.2zm-3.2.8h.3zm-121.3 1.4h.3zm.5 0h-.1.2zm238.6-5.7h-.2zm-3.9.9h.2zm-165.1 5.1h-.1zm-163.2 9.5h-.2zm134-9h-.2z" fill="#82d7b9"/></g></svg>