<svg fill="none" height="22" width="257" xmlns="http://www.w3.org/2000/svg" xmlns:xlink="http://www.w3.org/1999/xlink"><clipPath id="a"><path d="m0 0h257v22h-257z" transform="matrix(1 0 0 -1 0 22)"/></clipPath><g clip-path="url(#a)"><path d="m119.6 3.6-.2-.1h-3.1l-.1.2h-.4c-.1-.1-.1 0-.1 0h-1.1a2 2 0 0 0 -.7 0l-.2.1v.2l.5-.2v.2c.4 0 .6 0 .8-.2h.3l-.2.1h.7-.3c.1-.2.3-.1.5-.1h.4-.3l.1.1h.6c.1-.2.3-.2.4-.2h.4c0-.2 0-.2.2 0l.3-.2.1.1h-.2l.5.1v.3h-1l-1 .1h-.2c-.2.2-.4.1-.6.2l.1-.2-.3.2v.2c.1-.1.3-.1.4 0h.9l-.1.2h-1.5s.3 0 .2-.2h-.7c-.1.1-.1.1.1.1h.2a.5.5 0 0 1 -.4 0 .8.8 0 0 0 -.5 0v.1a4 4 0 0 0 -1.1.2l.1-.4h.4l-.2.2h.8v-.2h-.3.1-.3l-.2-.2a5 5 0 0 1 -.9-.1h-.7l.1-.1h.6c.2 0 .2 0 .3-.2h-.3l.4-.2h-1.6l-.2.1v-.1h-1a1 1 0 0 1 -.6 0 1 1 0 0 0 -.7.1.6.6 0 0 1 -.5 0h-.1l-2 .1h-.2l.6.1h.2a.8.8 0 0 1 .5 0l-.2.2v.1s-.1.1-.2 0a2 2 0 0 0 -.8.1h.5c-.2.1-.4 0-.6.2l-.4-.1h-.7a3 3 0 0 0 -.4.1l-.2-.1h-.3c0-.1.1-.2.2-.1h.3l.1-.1h.2c0-.2.3-.2.4-.3l-.8-.1c0 .1-.4 0-.6.2h.6-.3l-.3.1-.2.1.3.1-.7.1.2.2h-.5l.1.1h.2l.2.1-.5.1h-.2l-.4.1h-1.2.2c0-.1-.2 0-.4 0h-.2l.5-.3h-.4l-.4-.1h-1.9l.1.2h-.1v-.2h-2.2c.1-.1.2-.1.2 0v-.5h1.5l-.3.1h1.6l-.2-.1h.8l.4.1h.9l-.2-.2h.7l.1-.1h-1a1 1 0 0 0 -.3 0l.4.1h-.1a4 4 0 0 1 -.8 0h.4v-.1h-.6-.6c-.4.1-.8.2-1.2.1h-.6l-.7.1-1.6.1a2 2 0 0 1 -.5 0h-2.2v.1l-1.7.1c.1.2.3 0 .4.2h-.3c0 .1 0 .2.2.2h.2l.7-.2h.1l.2-.1.5.1.6-.2c0 .2-.2.1-.3.2h1.3v-.2h.2c0 .2 0 .1.2 0h.5-.3l.2.1h.6l-.3.2h-.6l-.4.1c0 .1-.2 0-.2 0h.1v-.1h-.9l-.4.2h-.4l-.6.3h1.2l-.4.1h-.5s-.2.1-.2 0h-.2a1 1 0 0 1 -.8 0l.2.2-.8.1v-.2c.2-.1.3 0 .4 0l.1-.1h.7l.2-.1v-.1l-.1-.1h-.5a1 1 0 0 1 -.5.1 2 2 0 0 0 -.5 0h-.3l-.3.2h.2l.2.2h-.9v-.1l.3-.1h-.3v-.4h-.2a1 1 0 0 1 -.5 0v.2h-.5l.8.3a3 3 0 0 1 -1.2.1v-.2l-.2.2-.7.2v-.2s.2 0 .2-.2l-.6.1.1.2-.2.1h-.2a.8.8 0 0 0 -.6-.1l-.6.1h-.2l-.2-.1.2-.1h1.1l.2-.1h-.5v-.2l-.4.2h-.4l.1-.1a1 1 0 0 0 -.4 0v.1h-.4l-.4.1h-1.2l-.3.1h-.3c-.1-.1-.2-.1-.2 0h-.1l-.8.1a1 1 0 0 0 -.4.1v.1l-.7.1h.2v.2h-.9l-1 .1h-.5v.1l-.2.1h-.1c0 .2-.2.2-.2.3h.4l1.2-.2h.2l.2.1-.6.2h.6c-.4 0-.7.2-1 0v.1h-.4.4l-.2-.2h-.8l.2.2h-.1c-.1.2-.3.2-.6.2-.2 0-.3.2-.5 0l.4-.1-.5-.2-.1.1.2.1h-.2c-.1.1-.2.1-.4 0h.3l-.1-.2h.7l.3-.3s.2-.1.2 0h.5l-.1-.2h-1.2c.1.2.4 0 .4.3h-.4l-.1-.5 1.8-.1h-.5l.5-.2-.7.1h-.5l-1 .1a3 3 0 0 1 -.3 0l-.7.1h-.1l-.7.1h-.7v-.2l-.7.1-.1.1h-.4.2c-.2.2-.2.2-.2 0-.1.1-.2 0-.2 0h.1-.7.3v.1h-.6l-.3.2h.3c0 .2-.2.3-.4.3h-.8a20.3 20.3 0 0 1 -1.3 0h.5l.1-.2h-.4a.9.9 0 0 1 -.6 0h-.3a.5.5 0 0 1 -.3.1h-.5l.2-.1h-.2.2v-.4h.1l.5-.1 1-.1h.8l.3-.2-1.4.1-1.4.2v-.1h-.8l-.5.1h-.5.1v-.1a1 1 0 0 0 -.5 0l-.1.1h-.1l-.5.2c-.2 0-.4.2-.6.1l-.2-.2-.7.2h-.8c-.2.2-.5.1-.8.1h.2a1 1 0 0 0 -.7 0h-.3c-.2 0-.5-.2-.8 0h-.4c0 .2-.4.1-.5 0h-.6l.5-.1h-.9l.3.1h-.4l-.2.2h-.3v.1l-.4.2a.6.6 0 0 1 -.5 0 .4.4 0 0 0 -.3 0 2 2 0 0 1 -.8 0v-.2l.3-.1a6 6 0 0 0 -1.2.2l-.1.1c-.1 0-.3 0-.4.2h-.1c0-.1 0-.2-.2-.1h-.3l.2-.2-.7.1v.2c-.2 0-.3.1-.3.2l-.5.1h.2c0-.2-.2 0-.3-.1l.2-.1h-.3l-.4-.2.4-.1h-1l-.8.1h-.7c-.2.1-.3 0-.4 0l-.5.1h-.2c0 .2-.2.1-.4.1l-.3.1h-.3l-.4.1s-.1 0 0-.1h.2l1-.2s.1 0 0 0h-.8.2l.3-.1-1.3.1c-.2 0-.2 0-.1.2l-.9.2v-.3h-.6l-.7.2h-.3c0-.2-.2 0-.2 0l-.7.1h-.1l-.1.2a.6.6 0 0 0 -.5 0h-.8c-.2.2-.4 0-.6.1-.3 0-.4 0-.6.2a.1.1 0 0 1 -.1 0h-.7l-.1.1h-.3.1-.7.2l-.1-.1a3 3 0 0 0 -1 .1l.6-.2c.1-.1 0-.1-.1-.2h.3l.2-.1h-.7a.4.4 0 0 0 -.3 0l-.5.2h-.2.3v.1h-.1l-.3.3h-.4s-.2 0-.3.2h.9-.3l-.5.2c0 .2-.2.1-.3.2h-.3a1 1 0 0 0 -.3.1h-.2c.3 0 .6 0 .8-.3a1.4 1.4 0 0 1 -1 0h.2l.2-.1-.2-.1.3-.1-1.2.1.7-.1.1-.1.1-.1-1.9.2.3-.1h-.1l.1-.2.6-.1.7-.1h.4v-.1h-.3v-.2c-.2 0-.4.2-.6.1h.2l-.2-.1-.1.1c-.2-.1-.4 0-.5.1l-.3.1v-.1h-.5c0 .2.1 0 .2 0l-.6.3v-.3h-.5.4l.2-.1h-.7l.2-.1-.8.2h.2l-.2.1h-.3c-.1.2-.2 0-.3 0l-.1.1-.5.1h-.7v.1h-.1l-.6.2c0-.1.2-.2 0-.2l-1 .2-.2-.1h.3l.1-.1h.2-1.2l-.2.2h-.7.1l.3-.2.2-.1h.6l.5-.1h-.2l.7-.3-2.6.4v-.2h-.2l-.6.2h-1l-.3.1-.5.1a2.4 2.4 0 0 1 -1 .2l.8-.3h.3a30 30 0 0 0 1.6-.3h-1a1 1 0 0 0 -.4 0l-.7.2h-.1c-.4 0-.7 0-1 .2 0 0-.1.1-.2 0h-.4l-.6.1h-.1l-.3.4h-.7l.4-.1h.5l.4-.2h-.7l-1.4.3-.6.1-1.4.3-1.8.4h-.7c-.1 0-.3.1-.4 0a1 1 0 0 0 -.4.1h-.3l-1.6.4-.7.2h-.2l-.3.1-.7.2h-.1l-1.3.2-1.4.3-1 .3-1.1.2-1.6.4h-.1.6c0 .1 0 0 .1 0h.5l-1 .4-.7.2c-.2 0-.3.2-.5.1l-.2.1h.7l-.3.2c0 .2-.2.3-.5.4h-.2l-.1.1 1.2-.2-.3.3-.7.3-.3.1-.1.3h1.3-.3s-.2 0-.1.2h-.1l-.3.2h.3v.2h.6c0-.1.2 0 .2 0 .1 0 .1.1 0 .2h-.4l-.2.1c-.2.2-.4.2-.7.3l.2.1-.2.1h.7l-.5.2h.2v.1h.6l.1.2h-.6.2-.3l-.2.1-.2.2.1.1c.2 0 .3-.2.5 0l-.7.1v.2h.6-.2l.1.2v.3h.5v.1h-.2l-.2.2h-.3c.1.1.2.2.3.1a.2.2 0 0 1 .2 0l.3.1h.4l-.2.2-.2.1-.3.1h.3a.5.5 0 0 1 .4 0c0 .2-.4.1-.3.4h.6c-.1.1-.4 0-.6.2h.5c-.1.2-.4 0-.4.3.2 0 .5-.2.8 0h-.3v.1l-.4.1v.3h1.1l-.4.2-.3.1c.1.2.1.2.4.2h-.2c0 .2 0 .2.2.2h.2c0 .1-.2 0-.3.2h.3-.2v.1h-.4l.2.2c.1 0 .3-.1.4 0h.4l-.3.1.1.1h-.2v.3h.1l.6-.2-.2.2.1.1.2.1.2.1 1-.2c0 .2-.3.2-.4.3h.1l.9-.2 1.3-.4.9-.2a14 14 0 0 1 1-.2v.1l-.1.1.8-.1h-.1v-.2l.7-.2h.2l.2-.2.2-.2h1.1c0-.2 0-.2.2 0 .1-.2.3-.2.5-.3h.4l-.2.1 1.5-.3v.1h.3-.1v-.1l.4-.1.8-.2.2.1c.1 0 0-.1.2 0 .1-.2.3-.2.4-.2h.4l.5-.2.3-.1h.2c.2-.2.4-.1.6-.1h1.2l.3-.2h.3l.8-.2c.1 0 .2-.2.1-.3l-.8.2a3 3 0 0 1 -.6 0v.1h-.3.3c.2-.2.4-.3.7-.3h.8l.4-.2h.5l.2-.2h.3c-.1.2-.1.2-.3.2v.1h.2a.5.5 0 0 1 .4 0h1.2v.1c.3 0 .6 0 .9-.2a3 3 0 0 0 -.7.1l.1-.2.3-.1.2-.2h1.2l.3-.1c0-.1.1 0 0-.2h1.1a.6.6 0 0 0 .5 0 3.6 3.6 0 0 1 1.2-.1c0-.2.1-.2.3-.3a1 1 0 0 0 .7 0h.5l.3-.1c-.2-.2-.4 0-.5-.1h.1v-.1c.2 0 .3-.1.4 0a.6.6 0 0 0 .4 0h1.1l.5-.2h1.4l.5-.2.6-.1h.2l.6-.1h.5l.3-.1.4-.2h.8l.9-.1h.7-.2l-.2.1c0 .1-.1 0-.2 0h-.5a3 3 0 0 0 -.7.2l-1.2.2h-.3l-.1.2h.3l.5-.1h.7c.3-.2.6-.2.9-.2l.8-.1 1-.2h.5l.4-.1a.4.4 0 0 1 .3 0l.4-.1h.7l1-.1.5-.1 1.2-.2 1.2-.1.5-.2h.6l2-.2 1.8-.3h.2c.3 0 .6 0 .9-.2 0 .1.2.2.3 0a.2.2 0 0 1 .1 0h.9l1-.1h.4l.3-.1c.2-.1.2-.1.4 0l1.4-.2.2-.1h.2v.3l.5-.2h-.2l.3-.1h.2l1-.1.3-.1h.4l.2.2s0-.2.1-.1l.7-.2h1.1l.4-.1h.3v-.3l.2.2v-.1h.8l.2-.1h.3s0 .1 0 0h.2-.1v.1h.8l.6-.1h.1c0-.1-.1-.1 0-.2h.2s.1 0 0 .1h1.1v.1h.2c0-.2 0-.2.2-.2l.3.2h.4l.2-.1v.1h1v-.2a.3.3 0 0 1 -.3 0h.3l.2-.2h.3-.2c0 .2.2 0 .3.2l.2-.1.1.1.1-.2.2.1c0-.1 0-.2.2-.2h.2l-.2.1h.3s.2-.1.2 0h.2l-.2-.2h.3v.1h1.6v-.1h2.3l.6-.2.1.1h.8l.8-.1h.3l.2-.1.3-.1h1.5-.3l.5-.1-.1.1h.5l-.2-.1.3-.1h.9-.1v.1h.7v-.1h2.4l.4-.1h-.1l.1-.1h2v-.2h.4l-.1-.1h3-.1.5a.2.2 0 0 1 .2 0h.8s0-.2.2-.1h1.2l.3-.1h2.2l.6-.2h2.5c.4-.1.8 0 1.1-.2a1 1 0 0 0 .7 0h1.7l.2-.2.2.1h3.5l1.2-.1h2.3l1.1-.2h4.9l1.3-.1h1.6l.3-.1h.3-.1.6c.3 0 .5 0 .7-.2l.2.2h.3a.7.7 0 0 1 .5 0h3.6v-.1h6a.5.5 0 0 1 .4 0h.7s.2-.3.4-.1c.2-.2.3-.2.5 0h3.2a8.3 8.3 0 0 1 1 0h1.3a.1.1 0 0 1 .1 0h4a.5.5 0 0 0 .3 0h.8l.6-.1h.9c0 .1.1.1.2 0h2a.5.5 0 0 0 .3 0h6.2l.5.1h3.3c.2.2.4 0 .6 0l.8.1h3.3l.6.1h1.7-.2.6-.2 3.9-.5l.2.1h.4a.5.5 0 0 0 .3 0l.2-.1h1.2l-.1.2h.4l-.2-.1h2.7-.2l2.1.2-1.5-.1h3c-.1.1-.3 0-.4 0h-.4l.2.1h2.3-.2 1.7l.3.2.2-.1h1.2c.2 0 .2.2.3.1h1-.1 3.8v.2l.4-.1h1a2.6 2.6 0 0 1 .7 0h.9l.7.1h1.1l1 .1 2 .1 2 .1h1.3l1.6.1h1.6l1.2.1h1.1c.5.1.9.2 1.2.1l.7.1h1.5l1.6.1 1.5.1 2.3.1h.2c-.5-.1-1 0-1.5-.2h2.9l2 .2h6.7l-.1.1h5.1c.4.1.9.2 1.3.1h.2-.2.6c.2-.2.3-.2.4-.1h-.1.6-.3.7l.5.1h-.2v-.1h2.7a7.1 7.1 0 0 1 .8.1v.1h.2a1.1 1.1 0 0 1 .8-.1h.3c.2 0 .5-.1.8 0h1.3l-.1-.2h-2.5l-1-.1h-3.3l-1.4-.1-.6-.1c4.9 0 9.8.3 14.7.4l-1.4-.1-.1-.2c0-.1.2 0 .4 0h2.5l1.5.2h.6-.3l.3-.2h.8l-.1-.1h.6v.2h.9-.3c.1 0 .3-.1.4 0h.1l.3.2v.2l.3.3.5.2h.4v.2l.1.2.4.2h.3l.1.2h.5v.4h.4l.1-.2h.4l.2-.2s0-.2-.2-.3a.4.4 0 0 0 .3 0v-.2h.1v-.3l.4-.7h.1v-.1a.3.3 0 0 1 -.2 0v-.2l-.1-.1c0-.2.2 0 .3-.1l-.2-.1v-.3l.2-.2-.3-.1.5-.1-.1-.3-.2-.2.2-.1h.2l.1-.1v-.1c-.2-.1-.2-.2-.1-.3h.3l-.1-.3v-.2l.2-.3.1-.2h.1v-.5l.1-.3.2-.1v-.2c.2-.2.2-.2 0-.3l.3-.4c.2-.1 0-.2 0-.2 0-.1 0-.3.2-.3v-.6l.3-.2c.2-.1.2-.4.2-.6v-.2l.2-.2-.2-.1v-.3c.1 0 .1-.2 0-.2 0-.3-.2-.3-.4-.3l-.5-.2a1 1 0 0 0 -.4-.2l-1.7-.1-1.7-.2-1-.1-1.1-.1-1.7-.1a15.3 15.3 0 0 0 -2.2-.1h-.5l-.4-.1h-.1a5 5 0 0 1 -1.3 0h-1l-1.2-.1h-3.9a12.7 12.7 0 0 0 -1.8 0l-1-.1h-2.4l-1-.2h-4.5l-.2-.1h-.8l-1.7-.1h-1.9a1 1 0 0 1 -.4-.1h-.8c-.2-.1-.5-.2-.7-.1h-2.4l-.1-.1c-.1-.2-.2-.1-.4-.1h-2.4a4.9 4.9 0 0 1 -.7-.2h-2.7a3 3 0 0 0 -.4 0l-.3-.2h-2.3l-.6-.1h-.9a3 3 0 0 0 -.5 0l-.5-.1-.3.1h-.2a.8.8 0 0 0 -.3-.2h-1.1a1 1 0 0 0 -.3 0h-.8a1 1 0 0 0 -.7 0h-.5.1s0-.1 0 0h-2.3l.1-.2h-.4a1 1 0 0 1 -.4 0h-.6c-.1.1-.2.1-.4 0h.2-2.5l1.2.2h-1.6l-.4-.1h-1.1l.1-.1h1.1l-.1-.2h-2.5.1c0-.1-.1-.1-.2 0h-.5v.2l-.2-.1h-.4a.5.5 0 0 1 -.3 0h-.2l.3-.2c-.2 0-.4-.2-.6 0h-.3v.1h-.7c0-.2.2-.1.3-.2h-1.2l.4.2h-4.5c-.2-.2-.2-.2-.3 0 0 .2 0 0-.2 0h.1v-.1h-.3a.6.6 0 0 0 -.5 0h-.5.3l.4.2-.3.1h-.4l1 .1.2.1h-3.7l-1.4-.1h-.2l.4.2h-1.2a6 6 0 0 0 -.6.1l.3.1h.5v.1h.1l-.3.1-1.4.1 1 .1 1 .1h-1.7l-.5.2h-.7c.2-.2.4 0 .7-.1l-.7-.1h-2.2.4v.2h.1-.1v.4h.2v-.2h1.4c-.1-.1-.4 0-.5-.3h.6v.3l.6.2h.4a.6.6 0 0 0 .4 0h.9c-.1.2-.3.1-.5.2h.3v.1h.9v.2h-1.1.2-.6v.2h-.2c-.1 0-.2 0-.3.2h-.7v.2h-.3v-.3h-.4v.2h-2.7l.1-.1h1.5l.2-.1-.7-.1h.3c0-.2-.1-.2-.2-.2l-.2.2h-.1c0-.3.3-.2.5-.2l.2.1h.2l.4-.2h.1-.2c-.1 0-.2 0-.1-.2h-.3c-.2-.1-.3-.1-.4 0v.2h-.4l-.2.1-.1-.1h-.2l-.1-.1h-.3l-.6.1.1-.1c-.1-.1-.2-.1-.4 0l-.2.1h-.5l-.2.1h1.2l.5.1h-.2c0 .3.3 0 .4.2l-.6.1h-.6a1 1 0 0 0 -.4 0h-.4l.2-.2-.4-.1h-.3l-.2.2c0-.3-.3-.1-.5-.1 0-.2 0-.2.3-.2h-.2v-.1l.5-.1v-.3l-.3.1a2 2 0 0 0 -.3 0v.1h-.2c0-.1 0 0 0 0-.3 0-.6 0-1 .2h1.1-.2c0 .1-.2 0-.1.2 0 .1 0 0 .2 0l-.4.1v-.1s-.1-.1-.2 0h-.3a2 2 0 0 1 -1.1 0h.5-1.6.3c-.5.2-.6.2-.7 0 .1-.1.3-.1.2-.3l.3-.1h.4a.2.2 0 0 0 .2 0v-.2h-1.8c-.1 0-.2-.1-.4 0h-.2v.1c0 .1.2.2.3.1h.5v.1h-.6v.1c-.1 0-.3 0-.4.2l-.5-.1c.1-.2.4 0 .6-.2h-2 1.2v-.1h-1c.4-.1.8-.2 1.2-.1.1 0 .2 0 .2-.2h.3-.2c-.2-.2-.3 0-.4 0h-.5v-.1h.5c-.1-.2-.3 0-.4-.1a2 2 0 0 0 -.3 0h-1v.3h-.1l1.4.2a.2.2 0 0 1 -.2 0 .3.3 0 0 0 -.3 0h-.7c0 .2.2 0 .3.1l-.4.2-.2.1v-.1h-.4c0 .1-.2 0-.2.2h-.4v-.1h-.7c-.2 0-.3 0-.3-.2l-.6.1.3.1-.5.1h-.7c0-.1 0 0 .1 0h.2l.3-.2h.2-1.4c-.1 0-.2 0-.3-.2l-.2.3-.2-.2h-.2a3.5 3.5 0 0 1 -.7 0v.1l-1 .1h-1a9 9 0 0 0 -1.3 0h-.6s-.1-.1 0-.1v-.2h-.3c-.1.2-.3 0-.5 0 0 .1-.3 0-.4.3h-.8.5l.2.1h.5l-.3.2h-.9v.1l.9.1a1 1 0 0 1 1 .1l-.8.1c.2.2.4 0 .6.1h-.9v-.2l-.1.1v.1h-.2l-.1.1c-.1.1-.4 0-.4 0l-.1-.1h-.8 1v-.4h-.7l.1-.4-.4.1h-.7l.8.1h-.8v.3h.2c-.3.1-.5.1-.8 0 .2 0 .4 0 .5-.2h-.8l.1-.1h.5l.2-.2h-.5a.6.6 0 0 1 -.5 0c.1 0 .3.1.4 0a.5.5 0 0 0 -.4 0l-.5.1h-.5.7v.3l-.5.1h-.5 1.4l.3.1h-.3l-.5.1h-1.4l.2.2h-1v-.1h-.4c-.1.1-.2.2-.3 0v.1h-.7l-.5-.1-.5-.1h-1.1l-.5.1.7.1h-1.8l-.1.1h-.2l.2-.2h-.8l.2.1v.1c.2 0 .5 0 .6.2h-1.2.4v-.2h-1l.5-.1h-.6v-.1h.1v-.1h.5c.2 0 .1 0 .2-.2l.1-.1h-.6v.1h-1.1l-.4.1c-.3-.1-.5 0-.8 0h.3l.3.1c-.1.1-.2.2-.3.1h-.6a8 8 0 0 0 -.8 0v.2h-.2l-.5.1h.3l.4.3h.4a2 2 0 0 1 -.8.1h-1.6v-.1h-.4l-.2.1-.1-.1v-.1h.1a.3.3 0 0 1 .2 0h.4v-.3h-.4.3l-.2-.2h-.3l-.3.1-.2-.1h-1c-.6.2-1.1 0-1.7.2 0 0 0 .1-.2 0h.1-1.1v-.1h.8v.2h.2c.1-.2.3 0 .4 0l.2-.2h-.3.4v.1l.2-.1h1.2c.1 0 .1 0 0 .1-.1 0-.2-.2-.4 0l.7.1.3.1-.4.1v-.1h-1.4c-.2.2-.4.2-.6.2h-1.3l.6-.3-.8.2h.2-.2c-.2-.2-.5 0-.7 0v.1h-.6.3v-.3h.7l-.1-.2h.3-.2a.4.4 0 0 0 -.2 0h-.1l-.3.1-.1-.1h-.6c0 .2.2.1.2.3h.4-.3c-.2 0-.3 0-.3.3-.1-.2-.3-.2-.5-.2h-.2l-.2.2v-.2h-.2v.2a2.9 2.9 0 0 1 -.5 0h-.3l-.1-.1-.2-.1h-.3l-.4.1h-.5c.2-.1.3-.3.3-.5h.4c-.2-.2-.2-.2-.6 0h.1-.3l-.4-.2h.3l.2-.1a3 3 0 0 0 -1.3 0c.3 0 .3 0 .4.2h-.6c-.1 0 0 .3-.2.2v-.1h-1.2.2zm68.4-.6h-.2.4zm-68.5.9h.2-.2s-.1.1-.2 0zm-57.5 3.4s.2-.1.2 0h-.2c0-.1.1-.2.1 0zm-25.5 8c.1-.2.2-.2.4-.1h-.7.3zm14.5-6.7h.2c0-.1.1-.1.2 0h-.8zm147.6-6.5h-.2c.1-.1.2-.1.2 0h.4zm-158 12.9c-.1 0-.2.1-.4 0l-.2.1h.3c0-.2 0-.2.3-.1l-.1-.1.2-.1zm104-10.7v-.1h.2l-.2.1h-.3zm-17 1-.2-.2h.5l-.4.1v.2l-.2-.1zm-54.2 1.5h-.2.5c-.3.2-.3.2-.4.1h.1zm-69.4 14.2-.7.2.7-.2h.4zm154.3-16.5h.8c-.1.2-.2 0-.3 0h-.5l-.2.2v-.2h-.1zm7.5-.7h.1-.3a3 3 0 0 1 -.3 0c.4-.2.4-.2.6-.1zm-61 1.2v-.3c.4 0 .5 0 .6.2h-.3l-.3.1h-.3.2zm48.9-.1c.3-.2.6 0 1 0h-1 .5-.8zm-56.5 1.3v.1h-1.4 2.2a1 1 0 0 1 -.7 0zm6.9 1.2a.5.5 0 0 1 .4 0h-.4v.1h-.7.4l.1-.1zm67.8-2a1 1 0 0 1 -.8 0l.2-.1.5.1h.1l.3-.1.1.2h-.4zm-63.4-1.3v-.1h.6-.6v.2l-.2-.1-.2.1.1-.2h.3zm72.6-1.4-.1.1-.3.2-.1-.1v-.2h-.1.8zm-60.7 1.1a1 1 0 0 1 .6 0c-.1.1-.4.1-.4.4h-.1v-.2h-.3zm-76.3 4.4.6-.2.2.1h-.1l-.1.2h-.1a.3.3 0 0 1 -.3 0h-.3zm123-5.2c0-.2 0-.2.3 0h-.5.1-.6c-.2 0-.2 0-.3-.2h.7a.2.2 0 0 1 .1 0v.2h.1zm-119.8 5c-.1.2-.2.2-.4.2h-.2l-.5.2v-.1h-.6.1l.8-.1.8-.1h.3-.3zm26.7-.6h.9-1.8l-.3-.1h1.3zm-13.9.3v-.1h.2c0-.1.2 0 .2-.2h-.1.2-.1.4l-.4.4c0 .2 0 .2-.2.1h-.1v-.2zm34.9-2.5h.2s-.1.1-.2 0l-.5.1h-.7l.2-.3.2.1zm46.7-1.6-.2.1c-.1 0-.3 0-.4.2h-.2v-.2h1l.2-.1h-.5c.3-.2.6-.2 1 0h-.5.2l-.2.2.2.1h-.7v-.3zm-67.7 4 1-.2.2.1h-.4l.3.1v.2h-.8l.1-.2h-.4l.1.2h-.3l.1-.2zm51-.7h-.9l-.6.1h-.5c.3-.2.5 0 .6-.1h1.6l.3-.1h2.4-.7a1 1 0 0 1 -.3 0h-.8l-.4.1a4 4 0 0 1 -.6 0h-.2zm2-2.6v.1h1.1v-.2h.6a1 1 0 0 0 -.4.2h1.1-2.9.2v-.2h.4c-.1 0-.2.2-.3 0zm45.4-1.3h-2.4a.6.6 0 0 1 -.4 0l.8-.1h2l.1.1h.3-.3zm-13.5.5c-.1-.2-.2-.2-.4-.2a.3.3 0 0 1 -.2 0 .2.2 0 0 1 0-.1h-.3l-.2-.1h.3l-.1-.1c.1-.1.3-.1.4 0l.4.2h.7a.4.4 0 0 1 .3 0l-.1.2h-.6l-.2.1h-.3zm-59.9 1.3h-.2s.2-.2.2 0h.2l-.2.2h.6l-.4.1a.7.7 0 0 1 -.5 0 .2.2 0 0 0 -.2 0h-1.2v-.1h.5-.3v-.2h.7l-.2.1h.8zm57.2-2.1h.2c.2-.2.4 0 .7 0h-1 .1-.6c-.3 0-.5 0-.7.2h-.6v-.1l-.1-.1c-.3.2-.3.2-.5.1h.2v-.1h-.6l-.5.1-.2-.1h-.6s-.3-.1-.4 0h-.4c0-.1 0-.2.3-.2h1.7c.1 0 .1 0 0 .1h3.1zm5.4.6a.3.3 0 0 1 .3 0h.5v.1h-.6a2 2 0 0 1 -.5 0h-.8v.2h-.2l-.2-.2.8-.1h.7-.5v-.1c-.1-.1-.2 0-.2 0h-.6l-.7-.1.2-.3h-.3l.2-.2h1.1l.5.1c-.2 0-.3.1-.4 0a4 4 0 0 1 -1 .3h1.2c.2 0 .2.1.3.2h.2zm-76.7 2.9h-.3s-.1 0 0 .1h1.2a41 41 0 0 1 2-.2h-.4c-.1.2-.3.2-.5.2h-.5l-.2.1h-.7c-.1.2-.3.2-.5 0 0 .3-.1.2-.2.2h-.1c0-.1.2 0 .2-.2h-.2l-.5.1h-.2l-.1-.1c.1 0 .3-.2.4 0v-.4h.9l.7-.1h.2v.1h-1.2zm17.2-.9.2.1h3.7v-.4c.2 0 .2 0 .3-.2s.4-.2.5-.1l.4.2h-.6.1l-.2.2v.1l-.2.1h1l-.3.1h-.5l-.8.1h-.5a3 3 0 0 1 -1 0h-1l-.8.2a1.2 1.2 0 0 1 -.7 0h-2.7v.1h-.5v-.1h-1.5l-.7.1a.6.6 0 0 1 -.4 0h.1l.2-.1h2.3l1.4-.2h2.2l.2-.1.3-.1h.3-.7zm82.6-3.1v.1h-.5c.1.1 0 .1-.1.2l1.6.1v.1h-.2c-.1-.1-.3 0-.4 0h-.8l-.1.1h-1.3.5v-.1a8 8 0 0 0 -1.5-.1l-.1.1h-.2v-.1h-.3a2 2 0 0 1 .8-.2h.5v.1h1.1l-.3-.1a.9.9 0 0 0 -.4 0h-.1v-.1h-2.3c.2.1.4 0 .6.2h-1l.2-.5h.8v.1h-.5 3.3l.6.1zm-73.8 2.5h-.3a.7.7 0 0 0 -.6 0 .7.7 0 0 1 -.4 0v.3h-.3c.1-.2.2-.3.4-.3h-.1v-.1h.4v.1h.5l-.1-.2c-.3 0-.6-.2-.8 0l-.2-.1a1 1 0 0 1 -.5 0l1.2-.2h.5l.3-.2h.6l-.3.2h.3l-.5.3.6.1-.2.1h.3l-.2.2h-.5l-.1-.1zm40.9-.8-.5.1h-.7s-.2-.1-.4 0h-.5c-.1 0-.3.1-.4 0a.3.3 0 0 0 -.4 0 .3.3 0 0 1 -.3 0h.1l.5-.1c.1 0 .3 0 .4.2l.1-.2c-.1-.1-.4 0-.5-.2h.3l-.1-.2h.8l-.6.1c0 .2.3.1.4.2h.4c.1-.1.2-.1.4 0h.2l.1-.2h-.5v-.1h.4a1 1 0 0 1 .7.1c-.1 0-.3 0-.4.2h.6l-.3.1zm35.9-1.3.8.1h.9l.7.1h.6l-.4.1v.2h-.3v-.2h-.5l-1.1-.1h-1l-1-.1v-.3h.4c.1-.2.3 0 .4 0h-.2.6-.1.6-.3l.2.1h-.3zm-94.5 3.3-.8.1h-1.2c-.1.1-.2 0-.4 0a.3.3 0 0 0 -.2 0l-.2.1h-.5l-1.2.1h-.4v-.1h1.5l.2-.1h.8l2-.2h.2zm17.5-.7h1l.3-.1h3c.2-.2.4 0 .5 0h.1l-.7.1h-.4a1 1 0 0 0 -.4 0l-.6.1a2 2 0 0 1 -.3 0 4.2 4.2 0 0 0 -.9 0 1 1 0 0 0 -.7 0h-.9zm16.1-.4h6.1a3.1 3.1 0 0 1 -.9 0h-1.7a12.3 12.3 0 0 0 -1.1.1h-.3s-.3 0-.5.2h-.2v-.2h-1.4zm16.7-1h.4l.2-.1h.3a.6.6 0 0 1 .5 0 .2.2 0 0 0 .1 0h.5l.2.1a.2.2 0 0 1 -.2.2h-1-.5l.2.1-.7-.1zm-21.5 1.4h.8v-.2h-.7l1-.1.6-.1v-.1h.4l-.2.1h.6-.2c.1-.2.2-.1.3-.1 0 .2 0 .2.2.2h.5-.4c-.1 0-.3 0-.4.2l-.2-.2v.2h-1v-.1c-.1 0-.2.2-.4.1 0 .2 0 .1-.1 0a.8.8 0 0 0 -.6 0h-.2zm59.5-3.8h-.3a.3.3 0 0 0 -.3 0 1 1 0 0 1 -.4 0h-1.2l-.3-.1v-.3h2l.4.2.2.1zm-49.6 3h2.5l-.5.2h-.5a11 11 0 0 0 -1.8 0h-.2l.2-.2h.1l.2-.1h1.4-1.3zm-58.7 2.2.1-.2h1.2a13.8 13.8 0 0 1 .9 0l-.1.1-.1-.2-.5.1v.1h-.2l-.1.1h-.5c-.3.1-.5.1-.8 0l-.3-.1h.4zm108.2-5.1a2 2 0 0 1 1 0h1.7-.7l-.2.2h-.3c0-.2 0-.2-.2-.2h-1.2zm-107.8 6.3h-.5l-.4.1h-.5c0-.2.1-.2.3-.2h.1l-.4-.1 1-.1-.4.1h.5c.2 0 .3 0 .3.2zm74.6-3.8h-.1a.5.5 0 0 0 -.5 0h-.4l-.3-.2-.3-.1a.8.8 0 0 1 .5 0l.3.2a7.7 7.7 0 0 1 1.2-.2h.2l-.5.2v.1zm-63.7 3-.4-.1h1.1l-.2.1a2 2 0 0 1 1 0 5 5 0 0 0 -1 .1h-1l.4-.1zm-14.2.6-2 .2h.3c-.1-.2-.3 0-.5-.2h1.1-.2zm-44.3 2.6c-.4.2-1 .3-1.5.3 0 0 .2 0 .2-.2l.1-.1h-.5c.5-.2 1-.3 1.6-.3l-1 .3.3.1h.8zm116.6-5.2.3-.1h2.4l-.2.1zm39.2-3.6.5-.1h1.6l1.1.1h.2zm-24.6 1.4h1l.7-.1.5.1s0 .1-.2 0a.5.5 0 0 0 -.4.1h-1.6zm25-1.8.6-.1h1.3a.9.9 0 0 1 .5.1h-2.5zm-.4 0h-1.8l-.6-.1c.2 0 .4-.2.6 0l.4-.1a11 11 0 0 1 1.5.1zm-11.5 3h.4-.9-.1l.2-.1c0-.2 0-.2-.3-.2h-.2l.1-.1h.5v.1l.2.1.5.2zm-105.1 2.8h1.1a.3.3 0 0 0 -.3 0v.2h-.1l-.2.1-1.4.2h-.1l1-.2v-.2zm125.3-4.3c-.3 0-.5 0-.7.2h-1l-.2-.3h1.7zm-33 .8-.9.1h-2.2a.5.5 0 0 1 -.4 0h.8a2.8 2.8 0 0 1 .7 0l.2-.1v-.1l.4.1zm5.1-.2h-.5.2l-.2-.2.3-.3.6.1h-.1v.1h.3c-.3.2-.6 0-.9.3zm66 8.6-.2.1h.4-1.7l-.4-.1c.3-.2.6 0 .8 0l.4.1h.4l.2-.1zm-65-7.6h1.3l.4-.1h.5l-.5.3.1-.2-.5.1h-.6l-.6-.1zm-40 .2c.5-.1.9 0 1.2.2h-.5a.5.5 0 0 1 -.3 0 .3.3 0 0 0 -.3 0c0 .1-.2 0-.2 0h.5l.2-.1h-.5zm-70 9.7h-.6.4l-.3-.1 1.3-.2-.2.1v.1l-.8.2zm64.1-9h2-.4a.8.8 0 0 0 -.5 0l-.2.1h-.4zm-.3.2h-1.5l-.1-.1.3-.1h1zm36.1-2.2a7.7 7.7 0 0 1 1.2 0h1-.3a3 3 0 0 0 -.3.2h-.2a1.1 1.1 0 0 0 -.8-.1zm19 .6v-.1l.7-.1.4.2-.5.2-.4-.1h.4zm-37.9 1.8h-.3l-.4.1c0 .1-.2 0-.4 0h.3a.1.1 0 0 0 -.1 0c-.2 0-.3 0-.4-.2h-.4 1-.4 1.2zm50.2-3.1h1.3a.7.7 0 0 0 -.5.2h-.4s-.1 0 0-.2zm-85 4.7c0-.2.2 0 .2-.2h-.8l-.1-.1h1.6l-.5.2h-.5zm58.6-3c-.3.2-.5 0-.7 0l-.4-.1.3-.1.8.1zm-91.2 3.1h-.2l-.2.1h-.4v-.1h.5l.4-.1h.4c-.2.2-.5.2-.7.2zm14.1-.6a6 6 0 0 1 1.6-.1c-.2.1-.4.2-.7.1zm-60.7 2.4c-.7.1-1.3.3-2 .3.2-.1.4 0 .5-.2h-.3l.4-.1v.1l.5-.2h.9zm49.8-2h.2a3 3 0 0 0 .9-.2h.7l.2.1h-1l-.7.1zm-6 1.1c.1 0 .3-.2.5 0h.9-.4a2 2 0 0 0 -.6.1h-.2c-.2.1-.2-.1-.3-.1zm94.6-4h.5a.3.3 0 0 1 .3 0h.4-.1l-.3.2-.3-.1h-.5zm-121.2 5.5 1-.1v-.2h.8c-.1.2-.3.2-.5.2h-.3c-.3.1-.6.2-1 .1zm9.5 5.1-1.9.3v-.1h.1v-.1h1.5a.6.6 0 0 1 .4 0zm131.3-12.6h1.3-.5c-.4 0-.4 0-.6.2h.5c-.2.1-.3.1-.7-.2zm-41.6 1.7.5-.1.3.1-.3.2h.2v.1c-.2 0-.4-.2-.6-.1zm-66.5 3.9c0-.2.2-.2.3-.2h1.2-.2l-.2.1h-1zm44-1.9s0 .1-.1 0h-.4l-.7.1h-.1v-.1h1.4zm-14.2-.7-.1.1h-.5.3l-.2-.1.2-.1a2.8 2.8 0 0 0 -.5 0h-.2 1zm86.4-3.5-.1.1h-1.2v-.1h1a.3.3 0 0 1 .3 0zm-134 8.2h.3c-.2 0-.3.2-.5 0h-.3l-.1-.2h.4l.2-.1.2.2h-.2zm28.3-3.8h1l-.3.2h-.5v-.1h-.2zm52-.9c.4-.2 1-.2 1.4 0zm-29 1h-.8c-.3.2-.3.2-.5 0zm-72.3 3.4-1.8.3.8-.2h1zm75.7-4h.3l1.8-.1h.1-1.4l-.6.2h-.2zm15.2-.9h-.1.5c.2 0 .4-.2.6-.1-.4.2-.8.2-1.1.2zm-73 3.2v.1h-.4a4 4 0 0 1 -.6.1h-.1zm-16.3 1.4-.1.1-.8.1h-.4l1.3-.2h.1zm-25.7 12-1.9.4c.6-.2 1.2-.4 1.9-.4zm157.2-17.8h.2a.5.5 0 0 0 .4-.1h.8v.1zm-30 1.7c.1-.2.3-.3.4-.3h.7c-.3.2-.5.1-.7.1 0 .2-.1.2-.3.2zm-57.5 3h.3l.3.1-.2.1h-.2v-.1h-.2zm108-6.3c-.1.1-.2.2-.4.1h-.6v-.1zm-43 3.2h-.9c0-.2.1-.2.2-.1h.4l.4-.1v.2zm-99 9.8-.5.1h-.6.4s.2 0 .3-.2zm81-9.3h1.2-.6c-.1.2-.3.1-.4 0h.1-.2zm13-2.2-.2.2h-.4v-.2zm-40.2 2h-.8c0 .1-.1.1-.2 0h-.1l.9-.1h.2zm-2.9.7h-1c.3-.2.7-.2 1 0zm-33.4 2h.2a3.6 3.6 0 0 0 1-.2h.2zm.2.5h1.1-1zm121.4-5c0 .1-.3.2-.4.1a.4.4 0 0 0 -.3 0h-.4.2l.2-.1zm-71.6 2.4h.9zm76.2-2.8h-.4l-.3-.2h.7zm-20.7.5.4-.2.2.2-.5.1zm-36.8 1.8h1.2-.2v.2h-.4.1l.1-.1c-.2-.1-.5 0-.8 0zm58.6-2.3.4-.1.5.1h-1zm-63.4 2.7.2-.1h.2c.1-.2.3-.2.4-.1h-.1l-.2.1h-.5zm43.3-1.8h-.6l.3-.1a.3.3 0 0 1 .4 0v.1zm-154 15.5c0 .2-.2.3-.2.2h-.4c.2-.3.5-.2.7-.2zm147.3-15.7c-.1.1-.2 0-.2 0h-.9.3l.3-.1h.2l.2.1zm-108 6.1-1.3.2zm41-4h1.1a3 3 0 0 1 -1.1 0zm46 .3-.3-.1h.5c0 .2 0 .2-.3.2zm17.5-3h-.8l.8-.1zm-70.8 3.6h1zm20.3-2.5c.2-.1.4-.2.6 0l.1-.2v.2zm-95.4 15.8-1 .4c.1-.3.4-.2.5-.3h.5zm109.1-14.3h-.1l.1-.1h.7l-.8.1zm-69.3 8.5v-.2l.9-.1-.4.1a3 3 0 0 0 -.5.2zm141.7-11.6-.2.2-.3-.1h-.2v-.1zm-19.5.6h.1l.2-.1a.2.2 0 0 1 .1 0h.1c.1 0 .1.1 0 .1zm-52.3 1.2c0 .2 0 .2-.3.2v-.3h.3zm-81.1 10.8c.2-.3.5-.2.8-.2zm9.7-1 .7-.1a.4.4 0 0 1 .3 0l-1 .2zm147.6-11h.9l.4.1h-1.3zm-176.8 14.7c-.2.3-.5 0-.7.2h-.3l.9-.2zm175.6-16h-1zm-153.8 13.3.4-.1c.2 0 .3-.2.5 0l-.6.1zm-19 2.6c-.3.2-.5 0-.8 0l.7-.1v.1zm134.9-13.8h-.1l-.1-.1.2-.1.3.1h-.4zm-81.7 3.5a1.3 1.3 0 0 1 -1 0zm122.5-4.6h-1.2zm-60 1.4.2-.1v.1h.4c0 .1-.2.2-.3.1l-.4-.1zm-25.5 2.7v.1h-.6c.2-.2.4 0 .6-.1zm-64.9 7.3a1.3 1.3 0 0 1 -1 0zm72.4-10.5a2 2 0 0 1 -.8.1c.2 0 .5-.1.8 0zm27.4-.4h-.5c-.2 0-.3.2-.4.1l.1-.1zm-62.4 2.7v-.1a1 1 0 0 1 .8 0h-.8zm33.5-1.5h-.7zm-57.3 3h.7c-.2 0-.5.2-.7 0zm110.6-3.3a.9.9 0 0 1 .7 0h-.3c-.2.1-.3 0-.4 0zm-132.7 11.2.3-.1h.3zm78.5-11.5h-.6zm-19 2.2h-.9 1zm80.2-3.4-.5-.2h.6zm-125.2 6.2c-.2.1-.4.2-.7.1h.7zm7.8-1.9h.6l-.5.2v-.2zm2.8 2.4-.4.1c-.1 0-.3 0-.3.3l-.2-.3h.9zm10.2.8h-.5zm170.1 1.3h1zm-176.4.9c-.2 0-.4.2-.6.1zm109.6-11h.1a.3.3 0 0 0 .3 0s.1-.1.2 0zm-99 4.6v-.1h.2c.1-.1.3 0 .4 0-.1 0-.3.2-.6 0zm46.4-.6a.9.9 0 0 1 -.7 0zm12.7-1.3v.1l.1.1h-.3v-.1h-.2v-.1zm-17.4.8h-.8c.3-.1.6-.1.8 0zm-19.8.2a1.1 1.1 0 0 1 -.8 0zm-45.3 3c0 .2-.2 0-.3.1h-.5l.7-.1zm12-.3h-.8.6zm46-2.2h.8a1 1 0 0 1 -.7 0zm65.5-2.5-.3-.3c.4 0 .4 0 .5.2h-.2zm-33.6 1.2v-.1a.7.7 0 0 1 .6 0zm-30.8 2-.4.1c-.1 0-.2 0-.1-.1zm9.4-1.4h.2s.2.1.2 0h.5a1 1 0 0 1 -.9 0zm14 .4c.1-.2.3 0 .5 0 .1-.1.3 0 .4 0zm25.9-2.6h.7a.7.7 0 0 1 -.7 0zm.2.8c.2-.2.3-.2.4 0zm-50.4 3.4h.9zm-24.4-.5h.1v-.1h-.2l.5-.1c-.2 0-.2.3-.4.2zm-25.1.7h.3v.2h-.3zm68.8-3.5.1-.1h.4c-.2.2-.3.1-.5 0zm7.5 2.9h-.8zm38.2-2.3c0-.2.2-.1.3-.1h.4-.7zm-47 1h.2l.1.1-.1.1h-.2v-.1zm-41 .4-.6.1v-.1zm-52.5 3.2-.2.1h-.4.6zm64.5-4.2c-.1.3-.3.3-.5.1h.5zm93-1.9h1zm-78.5 4.3c.3-.2.5 0 .7 0zm68-3.4h.6zm-50.5 0c-.2.2-.3 0-.5 0zm-.1.7h-.7a1 1 0 0 1 .7 0zm-59.1 4h.1l.1-.1s0-.1.2 0h-.1.3l-.2.1zm-49 1.6.1-.1.6-.1h.1a3 3 0 0 1 -.8.2zm140.7-7.1h.5c-.3.2-.3.2-.5 0zm26.4-1h-.6.7zm-47 2.9h.5-.1a.4.4 0 0 1 -.4 0zm25-1.6h.7-.6zm-94.4 4.2h.7zm120-6.8v.1h-.6.5zm-47.1 4.4-.4-.1c.1 0 .3-.1.4.1zm37.8-4.5c.1 0 .2-.1.4 0l-.2.1zm-188.2 14.5.3-.2.2.1-.3.1zm196-11.9h-.5s-.1.2-.2 0h.8zm-172.8 7.4c-.2.2-.5.2-.7.2zm61.5-3 .5-.1h-.5zm2.7-.8h.7zm20.8-2h-.5zm66.4-1.2v.1h-.4c.2-.2.2-.2.4-.1zm18.4-1.7-.6-.1h.6zm-118.7 7v.2l-.9.1.9-.1zm39-3.3h.5zm83.5-3.4c.2-.2.4-.1.6 0zm-145.8 6.7-.2.1-.2.1c0-.2 0-.2.4-.2zm12.5-2 .8-.1c-.3 0-.6.1-.8 0zm71.7-2h.8zm44.4-.7v-.1h.7-.7zm-52.6 2.2h-.6l.3-.1h.3zm-65.3 1v-.2h.2c0 .2 0 .3-.2.3zm121.8-4.5h.6zm-167.3 6.3.5-.1c-.2.2-.2.2-.5 0zm78.1-2.8-.3.1h-.6 1zm-36.1 1.3-.5.2c0-.2 0-.2.4-.2zm-27.4 8.9.4-.1-.2.2zm142.6-12.7-.2.2-.1-.3zm-42.8 3a1 1 0 0 1 -.6 0zm39.4-3.1a.6.6 0 0 1 -.4 0c.2-.1.3-.1.4 0zm-118 8.7v-.1h.1l.1-.1h.2zm72-6.4a.8.8 0 0 1 -.7 0h.6zm29.4 0h-.5zm68.3 5.5h-.7zm-122-5.4c.1-.2.3 0 .5-.1-.2 0-.3.2-.6 0zm61.9-3.7h.4a.5.5 0 0 1 -.4 0zm-34.8 2.6h-.6zm-43.5 1.2-.4-.1zm33.2.3h-.5l.2-.2c.1 0 .2 0 .3.2zm-17.5 1.1c0 .2-.3 0-.4.1h-.1zm64.2-4.4h.5zm14 .2v-.1h.7-.7zm-11 .7h.5a.7.7 0 0 1 -.5 0zm-50.8 1.4a1 1 0 0 1 -.6 0zm-52.4 2h.2zm35.8-1.5h-.5a.7.7 0 0 1 .5 0zm-67.3 3 .2-.2h.2zm-28.7 3h-.6zm91.9-4.2c.1-.2.2-.2.5 0zm50.3-4.1-.2.1v-.2zm-143.5 9.6.3-.1zm127.6-8.9h.4c-.1 0-.2.1-.4 0zm58.1-1h-.7zm-123.4 4.1h.2c0-.1.2 0 .2 0zm5.2.3.2-.1h.3c-.2 0-.3.2-.5 0zm-19.1 2h-.5a.6.6 0 0 1 .5 0zm79.9-3h-.6zm65.1-3.7c-.1 0-.3.2-.4 0zm-17.5 7.1h-.6zm-9.6-6-.2-.2h.2l.1.2zm-136.3 12h.4zm52.9-9.5a.9.9 0 0 1 .7 0zm50-2.8-.2.1h-.1zm22-.2h-.4c.2-.2.3 0 .4 0zm-85.3 3h.1-.4c.1 0 0-.3.3-.2v.1zm39 .5h-.5.4zm-35.9-.3h-.2.3zm-49.7 10h-.3zm165.7-13.7v-.2a.6.6 0 0 1 .5 0h-.5zm-9-.4.7.1h-.6zm-85 4a.6.6 0 0 1 -.5 0zm17-2h-.5zm30.1 1.9h-.3zm.4-1.3h-.6zm-11.9-.4h.4c-.2.1-.2.1-.4 0zm-51.1 2.8h-.7zm146.8 3.6h.6zm-144.2-3.1c-.2 0-.3.1-.4 0 0 0 .2-.1.4 0zm-53.3.4c.2-.2.2 0 .4 0zm-5 1.6c0-.2.3-.1.3-.2h.2zm104.8-4h-.5zm-10.8-1.7v-.1h.5-.5zm-2.7 1h.5c-.3.2-.4.2-.5 0zm-7.6 1.7c.2-.1.2-.1.4 0zm91.7-6.4a.6.6 0 0 1 .5 0zm-76.4 3.1h.4a.5.5 0 0 1 -.4 0zm-48 8h.5zm48-7.8c0 .2-.2.1-.3.1h.3zm-25.4 2.8h-.4zm47.6-3.4h.3zm-3.3 3.2h-.4.3zm3.2-3.3c0 .2 0 .2-.3 0zm-29.3 3h.5zm46-1.3h.4zm-89.2 3h-.6.5zm89.2-1v-.2h.3-.3zm-71.2-.6h.5zm76.9-3.1c0-.3.2-.1.3-.1h-.3zm-89 3.3c.2-.1.3-.1.4 0zm90.8-1.1c-.1.1-.3 0-.4 0zm.2-2h.4c-.2.2-.3 0-.4 0zm-104.7 4.1h.5zm-12.8-.1h-.4zm131.7-6.8h.4a.6.6 0 0 1 -.4 0zm-143 8c0-.2 0-.2.3 0h-.4zm91.3-4.7h-.4c.2-.1.2-.1.4 0zm59-4h.6zm-151.6 15.3v-.1h.4-.4zm102.3-10h-.3zm-11.6.8h-.2v-.1h.2-.1.1zm-52.8.5c-.1.1-.1.1-.4 0zm36.2-1.3h-.3zm38 1.4h.3-.4zm-48.3-1.6h-.2v-.3h.2v.2zm-28 2.4c-.1 0-.2 0-.2-.3h.1c0 .2.2.2.2.3zm102-5c.2-.3.2-.3.5-.2l-.4.1zm-118.5 4.4c.1 0 .2-.2.4 0zm153.2-3h.4zm-114.9.3a.4.4 0 0 1 -.4 0 .3.3 0 0 0 .3 0zm-.6 1.8h.5zm66.4-2.2.3-.2c0 .2 0 .2-.3.1zm-96.8 4.2c-.1 0-.2.2-.4.1.1-.1.3 0 .4 0zm54.5-1.2h-.4a.3.3 0 0 1 .3 0zm-119.7 13.6c.1-.2.1-.2.3-.1h-.3zm15-1.8h-.3s.2-.1.4 0zm102.2-13.1c.1-.2.2-.2.4-.1h-.4zm-42 2.6c-.3.1-.3.1-.4 0zm105.7-8.1h.3l-.3.2zm.5 3.5.2.1c-.2.1-.2.1-.2 0zm17-2.9h-.4zm-111.4 5.9c.1 0 .3-.2.4 0zm-5.2 1 .2-.1h.1c0 .2-.2.1-.3 0zm-42.3 7.6c.2-.1.2-.1.4 0zm53-10v-.1h.4-.4zm34-.3h.4zm-33.6-.5h-.2a.2.2 0 0 1 .2 0zm44.2.2h-.3zm2.9.7h.4zm36.7-2.1a.5.5 0 0 1 -.4 0zm-119.5 9.7c.1 0 .2-.1.4 0zm61-8.3h-.3zm-.3-.2h.4c-.2.2-.3 0-.4 0zm38 .4h.3c-.2 0-.3.1-.4 0zm-43.3.3-.1.1h-.1.2zm-65.4 3.5h.3zm85.2-5.2c.2 0 0 .2.2.2h-.2zm-19.4 2.8h.3zm-81.8 9.8c0-.2.1-.1.3-.1h-.3zm160.7-13.1h-.4zm-62 2.2v.1h-.2c0-.1 0-.1.2 0zm-58.5 4h-.2l.3-.2v.1zm-2-2h.3-.4zm-.1.2c-.1.2-.1.2-.3 0zm18.3-1h-.4.3zm-23.2 4c0-.2.2-.1.2-.1h.2-.4zm.1-.9c0 .1-.1.2-.3 0zm30.7-2.5h.3zm-83.7 12.5h.3zm79.1-13h.5zm31.3-.5.3-.1v.1zm-76 2 .3-.1c-.1 0-.2.1-.4 0zm80.1-3.3h-.2v-.1h.3v.1zm-89.5 10.6h-.3zm-16.9-7-.4.1h.4zm101-2.8h.4-.3zm62.9-4.7a.2.2 0 0 1 .2 0c0 .1-.1 0-.2 0zm-45.3 5.2s0 .2-.2.2c0 0 0-.2.2-.2zm-112.6 3.5a.2.2 0 0 1 -.2 0h-.2.3zm145-6.1h.3zm21.8 0v.2h-.1v-.1h.1zm-105.7 4.3h.4zm-20.3.2s0-.1.2 0zm70.4-2.2h.2zm-38.1.5h.4zm50.2 0h-.4zm41.3-5.8h.3zm-16.3 2.6c0-.2 0-.2.2-.1h-.2zm-74.3 3c-.1.1-.2.2-.4 0zm20.7-.5h-.1l-.1.1h-.1zm1.4-.1c0 .1-.1.2-.2.1zm-87 10.2h-.3zm140.2-11.2h.2c-.1.1-.1 0-.2 0zm9.4-.5.3.1zm-84.5 1.9h-.3zm24 3.2h-.4v-.1h.3zm-43.9-3-.2-.1h.1l.1-.1zm-29 3.5h.3-.4zm67-5.1c.1 0 .3-.2.3 0h-.2zm88.9 7h.3zm-120.6-5v.1h-.2.2zm-70.2 11.5c-.2.1-.2.1-.4 0zm167-16.5h.2-.3zm-141.7 7.1h.3zm112.9-4.8h-.1v-.1s.1 0 0 0zm-49.4 2h.4c-.2 0-.3.1-.4 0zm77.4-2.7h.3zm-76.8 1h.2zm-30 2.6h.3-.2zm-36.8 8.4h.4c-.1 0-.2.2-.4 0zm159.8-10.6a.4.4 0 0 1 -.3 0zm-188 15.1-.2.1h.3zm40.8-9h.2c0 .1-.1.1-.2 0zm126.2-6.5h.2zm41.1 7.5h-.3zm-159.2 1.2h-.3zm49-5.6c.2.1.2.2 0 .2zm66.4-4.1h.4zm-7.7 0h.2zm-103.8 6.4h-.3zm-33.6-1.4h.3zm93.6-1.8h-.3zm70.3-5.3h.2zm-33.6 1h-.3c0-.2.2-.2.3-.1zm9.8 1.8h-.3zm-5.1-.3h-.5a.5.5 0 0 1 .5 0zm-93.4 5.6h-.3zm-46.7 8h-.2zm112.4-13.2h.3zm34.3.3h-.2zm-120 7h.4zm-1.8.5h.3zm85.4-6.2h-.3zm-.5-2h.2zm28.2-1h.3zm-119.5 9.3h.2zm110.6-6.7h-.2zm-20-1.8.1.2c-.1 0-.2 0-.1-.2zm34.9.5c0 .1 0 .2-.2.1h.2zm-30.6 0c0 .2 0 .2-.2.2l.2-.1zm-59.7 2.6c0-.2 0-.2.2-.1h-.2zm-41 9.2h.4-.3zm71.7-10h.2c0 .1 0 .1-.2 0zm-27 2h.3a.2.2 0 0 1 -.3 0zm0 3.7h.2zm64.4-6.2h.2zm-130.8 13.7h.3zm222.8-7.3v.1h-.2.2zm-122.6-5.7h-.3c.1-.1.2 0 .2 0zm123.5 5.8h.2s-.1.1-.2 0zm-123.2-4.5h-.3zm49.1-3.4h-.2zm-113.3 10.1h.3zm38.3-8.6h.3zm-32.5 1.7v.2l-.2-.1h.2zm66-2h-.3zm-64.8 8v.1h-.2.2zm106.6-8.6h.2zm73.2 7.3h.2zm-237.6 2.8h.2zm139.7-10.5h-.2zm14 1.8h-.3.2zm-152.2 16h-.2zm58.7-10.1h-.3zm22.5-1.6h.2c0 .1-.1.1-.2 0zm-81 1.7h.3zm164-8.2c0 .1 0 .1-.2 0h.3zm-105.3 3.3h.3zm.3 2.4h.2zm.8.8.2-.1h-.2zm120.4-7.9-.2.1h.2zm-77.5 2.4.2.1zm26.1-.2h-.2.3zm-39.1 3c0 .2-.2.1-.2.1h.2zm30-2.8h.2-.3zm27-.6h-.2zm12.2-.9h.2zm8.8-.3c-.1 0-.2-.1-.1-.2zm-100 6h.2-.3zm119.2-6.5h-.2v-.1h.2zm-161 14.4c0-.1 0-.1.1 0h-.2zm162-14.4h-.3.1a.2.2 0 0 1 .2 0zm-79.2 5h.4zm79.5-6.6h-.2zm-166.9 8.8c0 .2-.2.1-.2 0zm138-3h-.3.2zm-44.8-2.3-.2.1zm-100.8 14.8s.1-.2.2 0zm97-13c.1-.1.1-.1.2 0h-.3zm-62.4 7.3h-.3zm2.7.4h-.2zm-3-4.9h.1l-.1.1zm26.5-1.8h.3zm36-1v-.2.1zm-19.6.2h.2zm85.8-1.6h.3zm-14-1h-.3.2zm.2.5c0-.1 0-.1.1 0zm-148.7 4.9-.2.1h.2zm68.5 2.2s-.1.1-.2 0zm-67.4-2 .2-.1h-.2zm67.2-1.3h-.2c.1-.1.2-.1.2 0zm37-3v.1h-.3.3zm-100.6 3.8h.2zm144.3-3.1h.2zm-1.7-2.8h-.3zm-72.9 4.4h.2zm20.8-.6h-.1v-.1zm-87.1 10.6h-.3zm37.4-8.8h.3zm36.6 1.7h-.3zm23.7-5h.3zm10.5-1.4h-.3zm-51.7 4.2h-.3zm104.3-4.6h-.2zm-117.2 8.6h-.4.3zm0-1h.2-.3zm12.9-3h.1v.1h-.1zm79.6-4.2h.3zm-91.8 7.6h-.4zm-40.1-2.6h.2-.1zm158.7-6h.2zm-106.5 8.8h.3zm32.6-5h.3zm48.9 3.6h.2zm-35-5.2h.1zm-31.7 3h.3zm-68.7 8h.2zm186.7-4.2h-.3zm-179.6 4.2h.1zm43.6-8h.3zm-6-.6h-.1v-.1zm-35.3 8.5h-.2zm-24.2 3.6h-.2zm68.5-13.2h.2zm1.2 1.6h.2zm16.5-.3h.1zm52.6-1.8v.2zm-46.3-.8-.1.1zm17 1.6h.1zm-19-.3.2-.1h-.2zm-58.9 3c.1 0 .1 0 0 0zm.1 4.7h-.1zm147-10h.2zm-169.2 6.1h.2zm23.4.6h.1zm-31.4 8.6-.2.1h.2zm32.7-4.7a.2.2 0 0 1 -.2 0zm27.6-7.6h.2zm93.4-1h-.1v-.1h.1zm13-3.9h-.2zm-105.7 10.2h-.3zm104.8-7.7c0 .1 0 .2-.1.1zm-104.8 2.3h-.2zm48.8-2.6h.2zm-29.5.8h.1zm7-.3s0 .2-.2 0h.3zm-101.5 7.7.2-.2h-.2zm100-5.3c0-.1 0-.1.1 0zm19.2-3.1h.2zm57.7-1.2h-.2zm-83.3 3c0-.2.1-.1.2 0zm-77.4 13.2h.1zm122-13.3h-.3.2zm-85.7 2.4h-.3zm25.8.2h-.1zm62.9-.6h-.2zm-89.6 2v-.1h.2-.2zm-.4-2.3.1.1h-.1zm2 .8h-.2zm1 5.5h.1zm-53.7-1.5h-.3.2zm55.7 1.2h.2zm35.1-7.6h-.1zm49.6-1.2h-.1zm-92 6.6h-.1zm9.7.7h-.1zm64.9-7.3h-.1zm-39.9 3.6.2.1h-.1zm92.9-5h.1zm-93.3 5.2h.2zm-37 0v-.2h.2-.1zm56-2.2h.2zm-41.2 1.2v-.1zm157 4.3h-.2zm-43-9.8h-.1.2zm-47 2.8h.2zm-84.3 3.6h.2zm123.8-5.4h-.1zm-126.2 12.3h-.1.2zm63.2-10.2h.1zm23.2-.9h-.2zm-109.6 14.3h-.2zm165.4-17.8h.1zm12.5 3.4h-.2zm-132.3 8.4h.1zm59.7-7.8h-.2zm49.3-1v-.1zm-98.5 4.6h.2zm77-3h-.1zm43.3-1.9h.2zm-.4-1.2h.1zm-44.6 1h-.2zm-37 3.3h-.1zm49.5-2.4h-.2zm-89 8.2h-.1.2zm118.2-11.2h.1zm-22 2.9h-.1zm-142.5 12.7h-.1zm68.7-8.6h.2zm23.2-4.4h.1zm-90.6 4.8h.1zm42.1 4h-.1zm119.8-10.6h-.2zm-49.4 3.1h.1zm-14.3.5h-.2zm-59 6.9v-.1h.1-.1zm42.9-5.9h.1zm82.5-2.8h-.1c0-.1 0 0 0 0zm-104 1.3h.2-.1zm95.9-3.2h-.1zm-32 1.3h.1v.2zm-114.3 7.4h.1zm130.5-3.8h.1zm-24.1-1.5c0-.1 0-.1.1 0zm-81.2 5h.1zm73.7-3.7h.1zm-74.4 5.6h.1zm-21.5-3.8h.1zm37-1.6h.2-.1zm1.4-.1h.1zm13 .7h-.2.1zm11.1-.3h.1zm-21.3 1v.1zm17-1h.2zm-37.8 2h.1zm102.3-5.4h-.2zm18.5-2.6h-.1zm-137 13.3h-.2zm14.6-7h.2zm56.7-1.5h-.1zm-1.8.8h.2zm-65.7 1.4h.1zm129.7-5.7h-.1zm-2 1.7h-.1zm-105.5 4.8h-.2z" fill="#f5663e"/></g></svg>