<svg fill="none" height="21" width="583" xmlns="http://www.w3.org/2000/svg"><path d="m271.2 3.4-.5-.1h-6.9l-.2.2h-1c-.2-.1-.2 0-.2 0h-2.5a10.3 10.3 0 0 0 -2 0v.2h1.3a9 9 0 0 0 1.7-.1h.7l-.5.1h1.8l-1-.1h2.2-.8l.3.1h.3l1-.1h1.8l-.2-.2h1.7-.6l1.1.1v.2h-1.9a1 1 0 0 1 -.3 0h-.2l-2.1.1h-.6l-1 .1h-.7v.3h.2l.8-.1h.7l.6.1h.7l-.3.1h-3.3c.2 0 .6 0 .4-.1a2.3 2.3 0 0 0 -1 0h-.6c-.2.1-.2 0 .3.1h.5a2.4 2.4 0 0 1 -1 0 20.3 20.3 0 0 0 -3.6.2l.3-.3h1l-.6.1h1.8l-.2-.1h-.4.2l-.7-.1-.5-.1a26.9 26.9 0 0 1 -2-.1h-1.6l.2-.1h1.4c.5 0 .5 0 .6-.2h-.6l.8-.2h-3.6l-.4.1.1-.1h-3.7a5.1 5.1 0 0 0 -1.6.1 3.2 3.2 0 0 1 -1.1 0h-.4l-4.6.1h-.2l1.2.1h.5a4.4 4.4 0 0 1 1.2 0l-.5.2.1.1h-.4l-2 .1h1c-.3.1-.8 0-1.2.2a24.2 24.2 0 0 0 -1.2-.2 19.8 19.8 0 0 0 -2.2.2c0-.1-.1-.2-.4-.2h-.8.6a1.3 1.3 0 0 0 .5 0l.4-.2h.4c0-.1.7 0 .8-.2l-1.6-.1c-.3.1-1 0-1.4.2h1.2-.7l-.5.1-.5.1h.6l-1.5.2.5.1h-.7l-.6.1h.4a4.6 4.6 0 0 1 .8.2h-1.3l-.2.1h-1a7 7 0 0 1 -.4 0h-2.3.4-1.4c.5 0 1-.1 1.3-.3h-1a4 4 0 0 1 -.8 0h-4.3l.2.1h-.4l.2-.1h-3.9a24.8 24.8 0 0 1 -.7-.1v-.3h2.6c.4-.1.4-.1.8 0l-.7.1h3.7l-.3-.1h1.6v.1a18.1 18.1 0 0 0 2.1 0h1l-.7-.1.7-.1c.1 0 .1.1.4 0h.8a18.3 18.3 0 0 0 -3.2 0l1 .1h-2.1 1.1l-.2-.2h-1.3.2-.9.2-.8a52.5 52.5 0 0 1 -5.5.2l-3.8.1h-6.1l-3.8.2c.3.1.8 0 1 .2h-.6l.3.1h.5l1.5-.1h.3l.4-.2c.3.1.8 0 1 .2a6 6 0 0 1 1.6-.2l-.9.1h3.3l-.4-.1h.6c.2.1.1 0 .4 0l.4-.1h.9l-.8.1h1.8c-.1.2-.4.2-.6.2h-.6c-.2.1-.4.2-.6 0h-.2l-.9.1v.1h-.5l.3-.1h-2.1a14.1 14.1 0 0 0 -1.7.1h-.3l-1.2.2h1.9l.9.1h-1.4l-.7.1h-.8a5.4 5.4 0 0 1 -1.9 0h.4l-1.8.2h.2v-.3h.8l.3-.1h2l-.2-.2-.2-.1-.4.1.1-.1a4 4 0 0 0 -.7 0c-.4.1-.8.2-1.3.1l-1 .1h-.6l-.7.1h.5c0 .2.2.1.5.2h-2.1c.2-.2.6 0 .6-.2h-.7l.2-.2h-1a5 5 0 0 1 -1 0v.1l-1 .1c.7 0 1.3 0 2 .2-1 .1-1.8.2-2.8.1v-.2l-.4.2-1.6.2-.1-.2.5-.1h-1.4l.3.2a2 2 0 0 1 -1 0 4.2 4.2 0 0 0 -1.4 0l-1.3.1h-.8l.4-.2h3v-.1h-1.1v-.1l-.9.1h-1l.3-.1a5.3 5.3 0 0 0 -1 .1h-.2a1 1 0 0 0 -.7 0l-1 .1h-2.7l-.6.1h-1.4a28 28 0 0 1 -2.6.2l-.1.1-1.7.1h.7l-.3.2a2 2 0 0 1 -.5 0h-3.5l-1 .1-.4.2h-.3l-.5.2h1l2.7-.1a2.8 2.8 0 0 1 .8 0l-1.3.2 1.3.1h-3.1.9-.4l-.5-.1h-1.7c.5 0 .7.1.6.2h-.3l-1.3.1v.2h-1.2c.4 0 .8 0 1-.2l-1.2-.1h-.2s.4 0 .4.2h-1.2l.6-.1-.3-.2h1.5c.5 0 .7-.1.7-.3l.5.1h.6l.6-.1-.3-.1h-2.7c.3.1.8 0 1 .2h-1l-.2-.4 4.2-.2h-1.3 1.3-5.8l-1.5.2h-.3l-1.6.1h-1.5v-.2l-1.6.1h-.3l-.4.1h-.4.4-.9.3-1.8.8l-.7.1h-.9l-.4.1.6.1c0 .2-.4.2-.8.3h-2a108.3 108.3 0 0 1 -2.8 0h1.1l-.1-.1.3-.1a5 5 0 0 0 -1 0 4.6 4.6 0 0 1 -1.3 0h-.6a2.2 2.2 0 0 1 -.8 0h-.3l-.7.1.5-.1h-.5l.4-.1c-.1 0-.2-.1-.1-.2h.3l1.3-.1 2.2-.1 1.8-.1h.7-3.2l-3.3.1h-3l-.3.1h-.7l.3-.1h-1.5l-.3.1-1 .2h-3.3l-.7.1h-3 .4a5.2 5.2 0 0 0 -1.6 0h-3.3c0 .2-.9.2-1.1 0h-1.5 1.2v-.1h-1.3l-.9.1h.8l-1 .1c-.2 0-.2.1-.3.2h-.7s.2 0 0 0a3 3 0 0 1 -1 .3 3.4 3.4 0 0 1 -1.2-.1 2 2 0 0 0 -.7 0h-1.7v-.2h.7l-2.6.1c-.2 0-.2.1-.3.2l-.9.1h-.3l-.3-.1h-1l.7-.1h-1.7l.1.2h-.2l-.6.2c-.3.2-.6.2-1 .2l.5-.1c-.2-.1-.5 0-.8 0l.5-.2a6.6 6.6 0 0 1 -1.9-.2h1v-.1h-2l-1.8.1-1.6.1h-2.1a3 3 0 0 1 -.4 0c-.1.2-.6.1-1 .2h-1.4l-.8.1h-.2l.7-.1 2.1-.1.3-.1h-2.3 1.2l-.2-.1-2.8.1c-.3 0-.4 0-.3.2l-2 .2v-.2h-3.9c-.4.2-1 .2-1.5.3h-.5l-.2.1h-.2a2.7 2.7 0 0 0 -1 0h-1.2a5 5 0 0 0 -.6 0c-.4.2-1 0-1.4.1-.5 0-.8 0-1.2.2a.7.7 0 0 1 -.3 0h-1a8 8 0 0 1 -.6 0l-.2.1h-.8.4-1.6.6l-.3-.1a15.3 15.3 0 0 0 -2.3 0h.1l1.4-.1h.1c.1-.1-.2-.1-.3-.2h1c-.1-.1-.2-.1-.4 0a3 3 0 0 1 -.8 0 2 2 0 0 0 -.7 0h-1.2a7 7 0 0 0 -.6.1h.6v.2h-.2l-.7.3h-.8c-.2 0-.4 0-.7.2h1l1-.1-.7.1c-.4 0-.8 0-1 .2-.3.2-.5 0-.8.1l-.3.1h-1.5c.6 0 1.3 0 1.7-.3a7.2 7.2 0 0 1 -2 0h.5l-.4-.1.8-.1h-2.6 1.4l.4-.1.3-.1-4.4.2.7-.1h-.4c0-.2.2-.2.4-.2l1.3-.1 1.5-.1h1v-.2h-.8v-.2l-1.3.2.3-.1-.4-.1-.3.1c-.4-.1-.7 0-1 .1v-.1l-.7.1-.2-.1-.5.1h-.2c.2.2.5 0 .7 0l-1.4.3h-.1l.3-.2h-1.2.5a2 2 0 0 0 .7-.1c-.5-.1-1 0-1.6 0l.6-.1-2 .2h.4l-.4.1h-.7c-.2.2-.4 0-.6 0l-.2.1-1 .1h-1.9v.1h-.4l-1.2.2c0-.1.4-.2 0-.2l-2.3.2-.5-.1h.7l.3-.1h.3v-.2l-1.6.1h-.9a2 2 0 0 1 -.4.1h-1.5.8c.3 0 .5-.1.5-.2h1.2 1.2-.4l1.6-.3-5.9.4v-.2h-.6l-1.2.2h-2.2l-.8.1-1.1.1a12.4 12.4 0 0 1 -2.2.1h-.1c.6 0 1.3 0 1.7-.2h.9a157.1 157.1 0 0 0 3.5-.3h-1.4.1-1.8l-1.6.2h-.3c-.8 0-1.6 0-2.3.2h.2-1.9l-1.3.1h-.4l-.5.1h-1.4 1.9l1-.2h-1.6l-3.2.3-1.3.1c-1.1 0-2.2.2-3.2.3-1.4 0-2.8.2-4.1.3h-1.6l-.2.1h-1.7l-.6.1-3.7.3.1.1-1.5.2h-1.2l-1.5.2h-.4l-3 .3-3 .3-2.5.2-2.4.3-3.6.3-.3.1h2.5l-2.2.4-1.7.1c-.3 0-.7.2-1 .1l-.4.1h1.6l-.8.2c0 .2-.4.3-1.1.4h-.4l2.5-.1-.6.2a30.6 30.6 0 0 1 -2.1.5l-.4.2v.1h1.5c.4-.2 1-.2 1.4-.1h-.3c-.1.1-.5 0-.3.2h-.4l-.8.2h.8v.2h1.8c.2 0 .2.1-.1.2h-1l-.2.1-1.7.3h.4l-.3.2h1.3l-1 .2h.5-.2v.1a10.7 10.7 0 0 0 1.3 0l.4.1h-1.1.2l-.6.1h-.5a1 1 0 0 0 -.3.2l.3.1h1l-1.5.2v.1h1.3-.5l.4.2c-.3.1-.3.1-.2.3h1.1v.1h-.3l-.5.1-.5.1c.1.1.3.2.5 0a1 1 0 0 1 .4 0 3.6 3.6 0 0 0 1.4.2h.3l-.5.2h-.5c-.2.1-.5 0-.7.2a1.3 1.3 0 0 0 .7 0 2.8 2.8 0 0 1 .9 0c0 .1-.8 0-.6.3h1.1c-.3.2-.8.1-1.3.2h1c-.2.2-.8.1-.9.3.6 0 1.2-.2 2 0h-.6v.1l-.8.1-.3.3h2.7l-.9.2-.8.1 1.2.2h-.7c0 .2.3.1.5.1h.6c-.1.2-.7.1-.8.3h.8-.7l-.4.1.4.1h1.2l.5.1h-.5l.2.2h-.5v.2h.2l1.2-.2c0 .2-.2.1-.3.2l.2.2h.5l.5.1 2.3-.2c-.2.2-.7.2-1.1.3h.4l2-.2 2.8-.3 2.1-.3a71.4 71.4 0 0 1 2.4 0h-.4 1.8v-.3h-.4l.2-.1c.4-.2.8-.2 1.4-.3h.5l.5-.2h1l1.6-.1.3-.1c.2-.1.2-.1.4 0l1-.2h1-.3l3.3-.2-.1.1h.8-.2v-.1h.8c.6-.2 1.3-.2 2-.3l.4.1c.2 0 .1-.1.4 0h.2c0-.2.4-.2.6-.2h1l1.1-.2h1.3c.4-.2.8-.2 1.2-.2h1.2a15.7 15.7 0 0 0 2.2-.1h.8l1.8-.3c.2 0 .4-.1.2-.2l-1.8.1h-1.4l.1.2h-.8.7c.4-.2 1-.3 1.5-.3h1.7l1-.2 1-.1h.6l.7-.1-.8.2h.5a2.5 2.5 0 0 1 1 0h.6a15.4 15.4 0 0 1 2.2 0l-.3.2 2.2-.2h-1.6.2l.7-.2.5-.2h2.6l.9-.1h-.3c.1-.1.4 0 .3-.2h2.3a3 3 0 0 0 1.1 0 18.4 18.4 0 0 1 2.7-.1c0-.2.5-.2.8-.3a4.8 4.8 0 0 0 1.7 0h1.6c-.3-.2-.7 0-1-.2h.2v-.1h.8a3.3 3.3 0 0 0 1 0h2.5l1.2-.1h.1c1 0 1.9-.2 2.8-.1l1-.1h.3c.3-.2.8-.1 1.1-.1h.6c.4-.2.9-.2 1.3-.2h1.1a19.2 19.2 0 0 1 1.8-.2h1.9l1.9-.1 1.4-.1h.3-.5c-.1.1-.3 0-.4.2h-1.6l-1.7.2-2.6.1-.7.1-.2.1h1.7l1.7-.1h.1l1.9-.2h1.8a25.5 25.5 0 0 0 3.3-.3h1a1.9 1.9 0 0 1 .6 0l1-.1h1.4l2.4-.2h1l2.7-.2 2.9-.1 1-.2h1.4l4.6-.2c1.4 0 2.7-.1 4-.3h.6l2-.1h.7a.8.8 0 0 1 .2 0h2l2.1-.2h2.4c.3-.2.3-.2.7-.1h.2l3-.2h.8l.2.2 1-.2h-.7 1.2l2.2-.2h1.6l.4.1c.1 0 0-.1.4 0l1.6-.2h2.5l1-.1h.4l.1-.2.5.1a7 7 0 0 0 1.8 0l.5-.1h.8l.3-.1c-.1 0 0 .2-.3.1l-.1.1h2.1l1.5-.1h.2c.1-.1-.3-.1 0-.2h.3c.1 0 .4 0 .3.1h2.3v-.1h.4c.1-.2.2-.2.5-.2h.2l.4.2h.8l.5-.1-.2.1h2.4v-.1a1.5 1.5 0 0 1 -.6 0h.6l.4-.3h.7l-.5.1h1.1l.4.1.2-.1h.4-.1l.5-.2h.5s-.5 0-.4.1h1.5l-.5-.1h.7l.4.1h1.1l1-.1h.3a5.7 5.7 0 0 1 1 0h.5l1-.1h3.7l1.3-.2.4.2 1.7-.1h2a3.4 3.4 0 0 0 1-.2l.6-.1h3.3-.5 1-.3 1.3-.5v-.1h2.7-.2 1.6-.3l.9-.1h5.7l-.3-.1a5.5 5.5 0 0 1 1.4-.1h3.6v-.1h.6l-.1-.2h.1c.3.2.7.1 1 .1h5.7-.2 1.2-.3l.2-.1a1.1 1.1 0 0 1 .4 0c.1.1.3 0 .4 0h4.8l.6-.1h2.4l2.3-.1h1.5l.3-.2h5.4l2.6-.1a4.3 4.3 0 0 0 1.6 0h3.8l.5-.2a2.3 2.3 0 0 0 .9.1h7.5l2.6-.1h5.4l2.5-.1h3.8a14.2 14.2 0 0 1 2.8 0h1.5l1.9-.1h5.4l2.1-.2.1.1.6-.1h.7-.3c.3 0 .6.1.8 0h.7a9 9 0 0 0 1.6-.1l.5.1h.5a3.5 3.5 0 0 1 1.2 0h8.3v-.1h13.6a2.4 2.4 0 0 1 .9 0h1.5c.2 0 .4-.3.9-.1h8.3a44.7 44.7 0 0 1 4.8 0h.6a.6.6 0 0 1 .2 0c.2.1.5 0 .8 0h8.2a2.5 2.5 0 0 0 .6 0 1.3 1.3 0 0 1 .5 0h9.7a2.4 2.4 0 0 0 .7 0h2.4a3.5 3.5 0 0 1 1.3 0h7.1a12.8 12.8 0 0 0 1.3 0h5.6a17.2 17.2 0 0 1 2.6 0h2.5c.4.2.9.1 1.3.1h9.5a25 25 0 0 1 2.3.1h2.8-.5 1.3-.4l.3.1h4.6l.6-.1h3.5-1.3l.4.1h.9a2.5 2.5 0 0 0 .7 0h3.2-.2.8-.5 5.9-.4c1.6.2 3.3.2 5 .2l-3.5-.1h6.7c-.2.1-.5 0-.8 0h-1l.5.1h5.4-.5a4 4 0 0 1 .9 0h2.5a4 4 0 0 1 1.2.2l.5-.1h2.8c.3 0 .4.2.7.1h.7a1.7 1.7 0 0 0 .6 0 2.1 2.1 0 0 1 .8 0h-.2 8.6v.2l.9-.1h2.2a13.3 13.3 0 0 1 1.9 0h1.7l1.8.1h2.5l2.1.1h4.8l4.4.2h3l3.6.1h6.2l1.7.1h1.1l2.6.1h1.5l3.4.1h3.7l3.4.2h5.6l-3.4-.1h6.6l4.6.1h9.9a13.7 13.7 0 0 0 2.6 0h2.6l-.3.2h8.4a9.5 9.5 0 0 0 1.7 0h5-.5 1.6c.2-.2.5-.1.7 0h-.4 1.6-.9 3-.5.1a13.8 13.8 0 0 1 2.5 0 63.1 63.1 0 0 1 6.7 0h4.3l2 .1c-.2 0-.2 0-.2-.2h-2.9a51.8 51.8 0 0 1 -5.2-.1h-4.4l-3.1-.1h-3l-1.5-.2 33.3.4h-3l-.4-.3h3.9a12 12 0 0 1 1 0l1.9.1 3.3.1h1.4-.7l.6-.2h3v.1l2 .1-.7-.1h1l.2.1.7.2-.1.1c.1.2.3.3.7.4l1 .1h1.1v.2l.3.2c.2 0 .5 0 .7.2h.9s0 .2.2.2h1v.4l1-.1.3-.1h.8l.5-.2c.1-.1 0-.2-.5-.3a2 2 0 0 0 .6 0l.2-.2h.1l-.2-.3 1-.7h.4a1.6 1.6 0 0 1 -.4 0l-.2-.2-.2-.1c.1-.2.5 0 .7-.1l-.5-.2.3-.1.1-.2-.5-.1 1-.1c.1-.2 0-.2-.2-.3l-.3-.2.3-.1h.8c0-.1 0-.2-.2-.2-.3 0-.3-.2-.1-.3h.7c.1-.1-.2-.2-.3-.2l.1-.3.4-.2c0-.2 0-.2.3-.3h.2v-.1c-.2-.1-.2-.2-.2-.3l.5-.3.4-.1v-.1c.5-.1.5-.2 0-.3.3-.1.3-.3.7-.3.4-.1.1-.2 0-.3-.1 0-.1-.2.3-.2l.2-.2v-.4l.5-.2c.5-.1.4-.4.5-.6l.1-.2.4-.1-.5-.1.2-.2c.1-.1.1-.2-.3-.2 0-.3-.4-.3-.7-.3l-1.2-.2-1-.1-3.8-.2-4-.2h-2l-2.7-.2-3.8-.1a82 82 0 0 0 -5 0c-.3-.2-.7-.1-1-.1h-6.3l-2.8-.2h-6a78 78 0 0 0 -7 0h-5.7l-2-.1h-2.5l-5-.2h-7.3l-3.9-.1a64.2 64.2 0 0 1 -7-.2 9.5 9.5 0 0 0 -2 0h-1a30.3 30.3 0 0 0 -3.8-.1h-.4c-.1-.2-.4-.1-.7-.1h-5.4a25.6 25.6 0 0 1 -1.7-.1h-2.2a27.4 27.4 0 0 1 -1.8-.1h-.3a20 20 0 0 0 -2.7 0l-.6-.2h-5.3l-1.5-.1h-5l-.8-.2h-5.2a4.8 4.8 0 0 0 -1.7 0h-1.5.4-.8a4 4 0 0 1 -.6 0h-3.8l.2-.1h-1.9c-.5-.2-.9 0-1.3 0h-.9l.5-.1h-5.6c.9.2 1.7.2 2.5.2h-6.3l-.8-.2h3l-.4-.1a3 3 0 0 0 -.5 0h-2.3l.3-.1h-3.2.3-1.6v.2l-.5-.1a4.7 4.7 0 0 0 -.9.1 2.7 2.7 0 0 1 -.7 0l-.3-.1.5-.1c-.4-.1-.7-.2-1.2 0h-.8.2l-1.7.1c0-.2.5-.2.7-.3h-1.2c0 .1-.2 0-.4 0h-1.1v.1l.8.1h-4.4a88.2 88.2 0 0 1 -6.3 0c0 .2-.2.1-.5 0h.2-.7a3.4 3.4 0 0 0 -1 0l-.7-.2a4 4 0 0 0 -.7 0c0 .2.5 0 .8.1l1 .1-.9.1-.8.1h2l.8.1h-8.5a43.5 43.5 0 0 0 -3.6 0h.8l-.6.2h-2a31.4 31.4 0 0 0 -.8.1h1.3l-.2.1h.4l-.6.1-3.2.1 2.1.1 2.2.1h-3.7l-1.2.2h-1.3c.3-.2 1 0 1.5-.1l-1.5-.1h-5.1 1l-.1.2h.3-.2v.2h.5l-.2-.1h3.3c-.2-.1-.8 0-1-.3h1.2v.3l1.3.1v.3h1a3.1 3.1 0 0 0 1 0h1.9c-.2.2-.6 0-1 .1l.6.1h2.1l.2.2h-2.7l.3.1h-1.3v.2h-1.1c-.2.2-.4.1-.6 0h-.6l-.5.2h.3-1l.3-.2-1.2.1h.4l-.6.2h-2.9l-2.3-.1h-.6 1.7l.5-.1h1.5l.4-.1h-1.5v-.1h.6c0-.1-.2-.2-.4-.1l-.5.1h-.3c.3-.2.8-.2 1.3-.2l.3.2.6-.1.8-.1.3-.1h-.5l-.4-.1a5 5 0 0 1 -.4 0c-.5-.2-.8-.1-1 0l-.1.1h-.9l-.3.2-.3-.2h-.8a13.4 13.4 0 0 0 -1.8 0c-.2-.1-.3-.1-.8 0h-1.7l-.3.2h3.7l-.5.1c.3.2.8 0 1 .2h-1.4a22.8 22.8 0 0 1 -2.2 0h-.9l.4-.2a6 6 0 0 0 -.8 0h-.6l-.5.1c-.3-.2-.8-.1-1.3-.1 0-.2 0-.2.9-.2h-.6l1.1-.1v-.3h-1.3l.1.2-.5-.1h-.3l-1.9.3h1.6v-.1h.7a5 5 0 0 0 -.4.1c-.1 0-.4 0-.3.1s.3 0 .4 0h.3v.1h-1.2.2c-.2-.1-.4-.2-.5-.1h-.9c-.8.2-1.6.2-2.4 0h1.3-3.9l.7.1c-1.2.1-1.5.1-1.6-.1.3 0 .6 0 .5-.2l.7-.2h.8a1.2 1.2 0 0 0 .4 0h.2-4.3c-.2 0-.4-.2-.7-.1l-.6.1h.1c.1.2.3.2.6.2h1.1-1.2c-.2 0-.3.1 0 .2l-1.1.1h-1c.3-.3.8 0 1.2-.2h-4l-.5-.1h2.8l-2.2-.1h2.7c.2 0 .3 0 .4-.2h.6-.5c-.2-.2-.5 0-.9 0h-1l.2-.2h.8-3.7.2v.1h-.6l3.4.1h-.1l-.2.1a1.1 1.1 0 0 1 -.3 0 1.3 1.3 0 0 0 -.6 0h-1.6l.6.1a3 3 0 0 1 -.8.2h-1.4l-.6.1h-.9.3-1.7c-.5 0-.6 0-.8-.2-.5-.1-.8 0-1.2.1h.5a4 4 0 0 1 -1 .2h-1.7c.1-.2.2-.1.4-.1h.4l.5-.1h.5-.2l-1.5-.1h-1.8l-.4.1a2 2 0 0 0 -.5-.1 19 19 0 0 1 -2.2 0l.3.1h-9.2c.3-.1 0-.2.1-.2h-1.7c-.3 0-.8 0-1 .2h-2 .5l.7.1h1.8c-.2.2-.5.2-.9.2l-1.3.1h-.1c-.2-.2-.2-.2-.5-.1l.1.1c.7 0 1.3 0 1.9.2a5.4 5.4 0 0 1 2.1 0l-1.5.1c.4.2.9 0 1.2.1h-2l.1-.1h-.4l.1.1h-.4l-.3.1h-2.3l-.7-.1a14.8 14.8 0 0 1 2.3 0l.2-.1h-1.8c0-.2 0-.3.3-.4-.3 0-.6-.1-.8 0h-.4l-1.3.1h1.8l-1.8.1-.1.2h.5-1.7l1-.1h-.6c-.2-.2-.7-.1-1.2-.2h1.4l.5-.1h-1.3a3 3 0 0 1 -1 0h.8a2.7 2.7 0 0 0 -.9 0h-2.3c.3.2.6 0 .8 0h.8l.1.3h-2.2 3.1l.6.1h-.7c-.4.2-.8.1-1.1.1h-3.1l.3.2h-2.3.1-3.1l-1.1-.1h-2.3s-.1-.1-.2 0h-2.3l1.6.1h-4.1l-.2.1h-.4l.3-.1h-1.8.5v.1c.6 0 1 0 1.5.2h-2.8.8l-.1-.2h-2l1-.1h-1.2l.2-.1h-.3l.3-.1h1c.4 0 .4 0 .5-.2h.3-3.9l-1 .1h-1.7.7l.7.2h-4l.1.2h-.6l-1 .1h.5l.9.3h1-1.8l-3.4.1h-.3v-.1h-1l-.3.1-.3-.2h.4a1.5 1.5 0 0 1 .5 0h1l-.2-.3h-.8.5l-.4-.1a4 4 0 0 0 -.6 0h-.6l-.6-.1h-.1c-.6.1-1.4.2-2 0h-.2c-1.2.2-2.5 0-3.8.2h-.5.3-2.5v-.1h1.7v.2h.5c.2-.2.6 0 1 0l.3-.2h-.7.9l.2.1.3-.1h2.7c.2 0 .3 0 0 .1h-1l1.7.1.8.1h-4.3c-.3.2-.8.1-1.2.1h-.4a11.6 11.6 0 0 1 -2.5 0l1.3-.2-1.7.2h.3-.4c-.4-.2-1 0-1.6 0h.1l-1.5.2c.1-.2.4-.2.7-.2l.2-.2h1.5l-.3-.2h.6-.3a2.2 2.2 0 0 0 -.6 0h-.2l-.6.1-.2-.1c-.2 0-.5-.1-.8 0h-.7c.2.2.6.1.5.3h.9-.7c-.4 0-.6 0-.7.2l-1-.1h-.6l-.4.2v-.2h-.5l.2.2a15.4 15.4 0 0 1 -1.6 0h-.3l-.2-.1-.5-.1h-.6l-1 .1h-1c.3-.2.6-.3.6-.5h.9c-.5-.1-.6-.2-1.3 0h.2a3 3 0 0 1 -.7 0c-.1 0-.6 0-.9-.2a13.7 13.7 0 0 0 1.1 0c-1-.2-2-.2-2.9 0l.9.1h-1.4c-.2.1-.1.3-.6.2l.1-.1h-2.5.3zm155.3-.5h-.5.9zm-155.5.9h.4-.9zm-130 3.1h.4-.8.3zm-58 7.6c.2-.1.5 0 .8 0h-1.5zm33-6.3h.4c.1-.1.3-.1.4 0h-1.8zm334.7-6.3a1 1 0 0 1 -.4 0h1.4zm-358.7 12.5h-.7l-.5.1h.5c.2-.2.2-.2.8-.1l-.3-.1h.5-.3zm236-10.2v-.2h.6v.1h-1.2.3zm-38.6.9-.4-.1h1.1-.8l-.3.2h-.4v-.2h.7zm-122.9 1.5h-.4v-.1h.5-.1l.8.1h-1.1zm-157.6 13.4-1.6.1 1.6-.1h.9a2.3 2.3 0 0 1 -1 0zm350.1-15.7h1.9-1.9l-.5.1v-.1h-.3c.5-.1.5-.1.8 0zm17-.7h.3-.5.1-1.1c.9-.2.8-.2 1.4-.1h-.3zm-138.5 1.2c0-.1-.1-.2.2-.3l1.2.1a4.5 4.5 0 0 0 -1.4.2l-.6-.1h.7zm111-.2h2.1c0 .1-.2.2-.4.1h-1.7 1.3-2 .7zm-128.1 1.4h-.1l-.2.1h-2.9 4.9a5.1 5.1 0 0 1 -1.6 0zm15.6 1a2.6 2.6 0 0 1 1 0h-1v.1h-1.5 1.5zm154-1.8a5 5 0 0 1 -2-.2h.5c.5 0 1 0 1.3.2h.1v-.2h.8v.1h-.8zm-144-1.3v-.2h1.3v.1l-1 .1h-.3c-.2 0 0 .1-.1.2l-.3-.1h-.6 1zm164.6-1.4-.2.1a5 5 0 0 0 -.5.2l-.5-.1.3-.2h-.5 2zm-137.5 1.1a4.8 4.8 0 0 1 1.4 0c-.3.1-1 .1-1 .4l-.3-.1.3-.1h-.9zm-173.1 4.2h-.3.2a16.4 16.4 0 0 1 1.6-.1h.2-.3l-.2.2h-.2a1.3 1.3 0 0 1 -.6 0h-.4zm278.7-5h.9-1 .1-1.4c-.4 0-.5 0-.6-.2a4.5 4.5 0 0 1 1 .1h.4a1 1 0 0 1 .3 0h.2zm-271.2 4.9c-.2.1-.5 0-.8 0l-.6.1-1 .2h-.3l.2-.1h-1.3.2l1.9-.1 1.7-.1h.7zm60.5-.7a9 9 0 0 1 2.1 0h-2l-.3-.1h-1.3a3 3 0 0 1 -.6 0 2 2 0 0 1 -.5 0h1l1.7-.1h.2zm-31.4.3v-.3h.4l.5-.1h-.4l.5-.1h-.1l.8.1-.7.3c-.2.2-.2.2-.6.1h-.3v-.1zm78.6-2.3h.6-1.6c-.4.1-.6.2-.9 0h-.7l.5-.2h.4c.7 0 1.3 0 1.8.2zm106-1.6-.4.1c-.4 0-.8 0-1.1.2h-.4v-.2h2.3l.5-.1h-1a7 7 0 0 1 1.9 0h-.8.4l-.5.2.4.1h-.9a2.2 2.2 0 0 0 -.7 0l.2-.1v-.2zm-153.6 3.9v-.1l2.4-.2h.4l-1 .1h.7l-.2.2h-1.7l.4-.1h-1l.3.1h-.7l.2-.1h.3zm115.4-.7h-3.2l-.8.1h-.4l.3-.1h4.8a6.3 6.3 0 0 0 .8-.2h5.4v.1h-5.1a21.3 21.3 0 0 1 -1.6 0h-.1zm4.6-2.6v.1h.2l.2.1h2.2l.2-.2h1.2l-1 .1h2.6l-.2.2h-5.9l-.2-.1h.5l.2-.2.5-.1h.3c-.3.1-.5.3-.7.1zm103.5-1h-1.1a1 1 0 0 1 -.3 0l-.1-.1h-1a6 6 0 0 1 -.7 0h-.7c-.2.1-.5.1-.8 0h-.6a3.2 3.2 0 0 1 -1 0h3.4a19.7 19.7 0 0 1 3 0h.6-.5zm-30.5.4h-.2c-.1-.2-.4-.2-.7-.2a1.4 1.4 0 0 1 -.4 0h-.2v-.2a2.8 2.8 0 0 1 -1-.1h.6-.3v-.1h1a5 5 0 0 0 2 .2h.2a.9.9 0 0 0 .3 0 2.2 2.2 0 0 1 .7.1h-1.5l-.6.2h-.6.7zm-136 1.1h-.5c.2 0 .4-.1.4 0h.4l-.3.2h1.3a9.3 9.3 0 0 1 -2.4 0c-.3.2-.7.2-1 .2h-1.9v-.2h1-.5v-.2h1.5l-.5.2h1.9-.2l.1-.1h.7zm129.7-2h1.9c-.4.2-1 .2-2 0h-1.2a.7.7 0 0 0 -.3 0c-.4.1-1 0-1.3.2h-1.4.2l-.4-.2c-.6.2-.6.2-1.1.1h.5-1.2c-.3 0-.3 0-.2-.1l-1.2.1a2 2 0 0 0 -.5 0 3 3 0 0 0 -.5 0h-.7c-.2 0-.8-.2-1 0h-.8c0-.2 0-.2.5-.2h4.1c.1 0 .2 0 0 0a12.6 12.6 0 0 1 2.6 0h4.2zm12.1.6h.3a1.6 1.6 0 0 1 .5 0h1.2l-.3.1h-4.1l.1.2h-.4a1 1 0 0 1 -.4-.2l1.7-.2h1.6-1l-.2-.1h-1.8l-1.6.1.5-.3h-.8c.1 0 .3-.2.6-.1h3.4c-.3 0-.6.2-.8 0-.7.2-1.5.3-2.2.3l1 .1h2.4l.4.2zm-174 2.7h-.5c-.1 0-.3.1-.2.2h3.2a219.5 219.5 0 0 1 4.4-.2h-.8c-.3.2-.8.2-1.2.2h-1.3l-.3.1h-1l-.5-.1c-.4.3-1 .3-1.3.1 0 .2-.3.1-.5.2l-.2-.1h.6a7 7 0 0 0 -.5 0h-1.3a1.8 1.8 0 0 1 -.6 0l-.3-.1c.4 0 .7-.2 1.1 0 0-.2-.2-.3.1-.3h1.9l1.5-.1h.5l-.2.1h-2.5zm39.2-.7h9c-.1-.2-.1-.2.1-.3h-.5l.7-.3h1l1 .1h-1.3l.3.1h-.6v.3l-.4.1h2.2l-.7.1h-1l-2 .1h-5.4a23 23 0 0 0 -2.7.2 6 6 0 0 1 -.9 0h-4.4.2-1.8v.1h-1.2.1-5.1a3.4 3.4 0 0 1 -1 0h.7l2.3-.1h3l3.1-.1 4.2-.1h1l.2-.1a3.6 3.6 0 0 1 1.4 0h-1.5zm187.2-3h-1c.3.2-.1.2-.3.2l3.7.2h-.2v.1h-.3c-.2-.2-.6 0-.9-.1h-1.8l-.3.2a2.1 2.1 0 0 1 -.6 0 27.6 27.6 0 0 0 -2.2 0v-.1h1l-.1-.1h-3.9l-.1-.1h-.5a10.7 10.7 0 0 1 2.3 0l.5-.1h2.6-.6a4.7 4.7 0 0 0 -1.1 0h-.2v-.1l-.8-.2h-1.3c-.3.2-.8.1-1.2.1h-1.5a1.8 1.8 0 0 0 -.6 0l1.6.1h-2.3l.5-.4h1.8c-.3.2-.8 0-1.2.1h9zm-167.4 2.3a6.7 6.7 0 0 1 -1.2 0h-.6a3.4 3.4 0 0 1 -1.1.1h-.1v.1h-.4c.2-.1.3-.2.7-.2l-.1-.1h.9l.2.1c.2-.2.6 0 .8 0l-.1-.2c-.6 0-1.3-.2-1.9 0 0-.1-.2-.2-.5-.1a5 5 0 0 1 -1 0l2.7-.2h1l.8-.2h1.4l-.7.2h.7l-1.1.3h1.4l-.4.2h.6l-.4.1c-.3 0-.7.1-.8 0h-.8zm92.8-.7h-1c-.4.2-1 0-1.4.1h-.2c-.1 0-.5-.2-.9 0h-2.1a1.6 1.6 0 0 0 -.8 0 1.3 1.3 0 0 1 -.7 0h.2l1-.1 1 .1.3-.1c-.3-.1-1 0-1.1-.2h.6l-.3-.2h1.8l-1.2.1h-.1c.2.2.7.1 1 .2h2.1l.4-.2h-1.3l.1-.1h1a5 5 0 0 1 1.5.1c-.3 0-.7 0-1 .2h1.4l-.7.1zm81.5-1.3 1.7.2h3.7l1.3.1h-.7c-.3 0-.2 0-.2.1h.2l-.6.1v-.2h-6.1c-.7 0-1.4 0-2.1-.2l.1-.1h-.3l.4-.2h1.6-.5c.4.1 1 .2 1.4.1l-.2-.1h1.4l-.7.1h.5v.1h-.8zm-214.3 3.2h-.1a8 8 0 0 0 -1.8.1h-3.5a1.5 1.5 0 0 0 -.4 0h-.5l-.5.1h-.6l-2.7.1h-.9v-.1h3.4l.5-.1a9.9 9.9 0 0 0 2 0l4.3-.2a11.8 11.8 0 0 1 .8.1zm39.6-.7h2.5l.6-.1h8.1l-1.5.2h-4a22.8 22.8 0 0 0 -1.9 0 5 5 0 0 0 -1.7 0h-2.1zm36.7-.3h5.2a29.3 29.3 0 0 0 3.4 0h1.6l.8-.1h2.6a16.3 16.3 0 0 1 -2 .1h-1.5a35.7 35.7 0 0 1 -4.6 0 .8.8 0 0 0 -.2 0l-.6.1-1.2.1h-.4l.1-.2h-2.1c-.6.2-.6.2-1.1 0zm37.8-1h.8l.5-.1h.7a2.8 2.8 0 0 1 1.1 0 .9.9 0 0 0 .3 0h1l.5.1h-.1l-.2.1a1.1 1.1 0 0 1 -.4 0h-.3c-.6.2-1.1 0-1.6.1h-.2l.1-.1-1-.1.3.2-1.5-.1zm-48.8 1.2h1.8l-1.5-.1h2.1c.5 0 1 0 1.5-.2h.9-.5c.5.1.9.2 1.3 0h-.3.6l.4.1h1.1-.3l-.4.1-1 .1-.5-.1v.1h-3c0 .2-.2.1-.4.1a3.8 3.8 0 0 0 -1.2 0 7 7 0 0 1 -.7 0zm135-3.6h-.8a1.5 1.5 0 0 0 -.6 0h-3.7l-.5-.1v-.1l-.4-.1h4.5l1 .2.4.1zm-112.7 2.8h.3l.9.1h4.5l-1.1.2h-1.1a59.1 59.1 0 0 0 -4.5 0l.4-.2.3-.1h3.7-1.4a.5.5 0 0 0 -.2 0zm-133 2.3.4-.1h2.6a73.7 73.7 0 0 1 2 0h-1.9c0 .1-.1.2-.4.2h-3v-.1h-.5zm245.4-4.8a10.8 10.8 0 0 1 2.8 0h3.4-1.6c-.3 0-.3.1-.4.2h-.7c-.1-.2-.1-.2-.6-.2zm-244.4 6-1-.1a5.8 5.8 0 0 1 -2 .1c0-.1.1-.2.5-.2h.3l-1-.1h2.1-.7 1.2c.5 0 .6.1.6.3zm169.3-3.7h-.4a2.6 2.6 0 0 0 -1 0h-.9l-.7-.2-.8-.1a4.4 4.4 0 0 1 1.3 0l.6.2a39.5 39.5 0 0 1 3.2-.2l-1.2.2zm-144.6 2.8-1-.2h2.5l-.4.2h2.4-.2l-2 .1h-2.3zm-32.3.5a63 63 0 0 1 -4.3.2h.5c-.3-.2-.7 0-1-.1v-.2h2.4l-.5.1h3zm-100.3 2.6c-1 .2-2.3.3-3.5.3.1 0 .5 0 .4-.1 0-.2 0-.2.3-.2h-1.1c1.1-.2 2.3-.2 3.5-.3l-2.2.3.6.1h2zm264.3-5 .7-.2h5.6a2 2 0 0 1 -.6.2zm89-3.5 1.2-.1h3.6l2.5.1h.3zm-56 1.3h5.2c-.1.1-.2.2-.4.1a2.5 2.5 0 0 0 -1 0h-3.7zm56.8-1.7h3.2a13.5 13.5 0 0 0 1.9 0h.6zm-.7 0h-4.5l-1.3-.1c.5 0 1-.2 1.4 0h.9a58.8 58.8 0 0 1 3.5 0zm-26.2 3 1 .1h-2v-.1h-.4l.6-.1c-.2-.2-.2-.2-.6-.2h-.6l.3-.1h1l.3.1.2.1 1.3.2h-1zm-238.5 2.7h.6a2.2 2.2 0 0 1 1.2 0h.7a1.5 1.5 0 0 0 -.8 0l-.1.1-.3.1-3.2.1h-.4l2.3-.1zm284.2-4.2h-.2l-1.5.2h-2.1l-.3-.3h1l1 .1h2.2zm-75 .8-2 .1h-1.8a10 10 0 0 0 -2 0h-1a2.5 2.5 0 0 1 -.9 0 27.3 27.3 0 0 1 3.3 0h.2l.1-.1h4.2zm11.7-.1h-1.2l.4-.1-.3-.1.7-.3h1.4l-.4.1.9.1c-.7.2-1.5 0-2.2.2h.7zm149.6 8-.2.2h.9-4c-.3 0-.6 0-.8-.2h1.9l.8.1h1.3zm-147-7h2.8a16 16 0 0 1 2 0l-1 .1v-.1h-3.9zm-90.7.2c.9-.2 1.7 0 2.5.2h-.5a7.5 7.5 0 0 0 -1 0h-.4a1.6 1.6 0 0 0 -.6 0 1 1 0 0 1 -.6 0h1.4l.2-.1h-1zm-159.3 9.2a17.4 17.4 0 0 0 -1 0h-.3.8-.5c1-.2 1.9-.2 2.8-.2h-.4v.2l-1.7.2zm145.4-8.6h4.4-.1c-.2.2-.2.2-.5.1a4 4 0 0 0 -1.3 0 2 2 0 0 1 -.5 0 2 2 0 0 1 -.6 0l-.3.1-.1-.1h-.9zm-.7.2h-.6a35.2 35.2 0 0 1 -2.8 0c-.3 0-.3 0-.2-.1h2.3a4.5 4.5 0 0 1 1.4.1zm82.1-2 .2-.1a41 41 0 0 1 5 0l-.8.1-.8.1h-.3a5.3 5.3 0 0 0 -1.8-.1h-1.4zm43.1.5.2-.1 1.3-.1 1 .2-1 .2-1-.1h.8zm-85.8 1.5h-.8l-.9.1c-.2.1-.5 0-.8 0h.6-.2c-.4 0-.8 0-1-.2h-.9 2.4-1 2.6zm113.7-3 3 .1a3.7 3.7 0 0 0 -1 .1h-1c-.2 0-.3 0-.1-.1h-.8zm-192.9 4.6c0-.1.6 0 .6-.2h-2.1 3.6l-1 .2h-1zm133-2.9-.1.1c-.4.2-.9 0-1.4 0l-1-.1.7-.1zm-206.8 3.1h-.6l-.2.2h-1.2l.3-.1h-.3.7l.7-.1h1.8c-.5.2-1 .1-1.7.1zm32-.5a32 32 0 0 1 2.2 0h-2.1zm-137.7 2.1-4.3.4c.3-.2.8 0 1-.2h-.6l.9-.1v.1h1.2zm113.2-1.8.3-.1a16.2 16.2 0 0 0 2.3-.1h.8a2 2 0 0 1 1 0l-2.4.1h-1.5zm-14 1c.5 0 1-.2 1.3 0h2l-1 .1h-2.2zm215.1-3.8h1.3a1.4 1.4 0 0 1 .4 0h.9-.2.1l-.6.1h-1.9zm-275.2 5.3 2.3-.2v-.1h1.6a4 4 0 0 1 -1.1.2h-2.9zm21.6 4.9-4.4.2h.1l.1-.2h3.2a3 3 0 0 1 1 0zm297.7-12.1h3-1.1l-1.3.1a9.5 9.5 0 0 1 1.2 0c-.6.2-.9.2-1.7-.2zm-94.6 1.6 1.2-.1.6.1-.6.1.4.1-.1.1-1.3-.2zm-150.6 3.7c0-.2.4-.2.7-.2h2.7l-.4.1h-3zm99.9-1.8-.4.1h-2.6.1l1.4-.1zm-32.2-.7-.2.1h-1.2.5l-.3-.1h.4a15 15 0 0 0 -1.2 0l-.3-.1h2.2zm196-3.4-.4.1h-2.6v-.1h.3a10.9 10.9 0 0 0 2.3 0h.3zm-304.2 7.8h.7c-.4.1-.8.2-1.1 0h-.7l-.3-.1h.9l.5-.2.4.2zm64.6-3.5h2.3l-.9.2h-1v-.1h-.4zm117.6-1h3.3zm-65.7 1v.1h-1.8c-.6.2-.6.2-1.1 0h3zm-163.9 3.4-4.2.3 2-.2 2.3-.1zm171.7-3.8.7-.1h4.3-3.2l-1.3.1zm34.4-.9h-.2 1.2c.4 0 .8-.2 1.3-.1h-.1c-.8.2-1.6.2-2.4.2h.2zm-165.4 3c0 .1 0 .2-.1.1l-.9.1h-1.7zm-37 1.5h-.4c-.6 0-1.2 0-1.7.2h-1.4l3.2-.3h.3-.1zm-58.5 11.2-4.2.4zm356.6-17a5.8 5.8 0 0 1 1 0h.4c0-.1.2-.1.2 0h1.5zm-68 1.6c.3-.2.6-.3 1-.2h1.3-1.5c0 .3-.3.3-.7.2zm-130.5 3 .3-.1h.4l.8.1-.5.1h-.6v-.1zm245-6.1c-.4.1-.6.2-.9.1h-.3l-1-.1zm-97.4 3h-2c0-.2 0-.2.4 0h.6c.3-.2.6-.1 1-.2zm-224.6 9.6h-1.1c-.3 0-.5.1-.8 0h-.7.8l.8-.1h1zm183.7-9.1h2.5-1.4c-.1.2-.6.2-.8 0h.3zm29.4-2c0 .2-.3.2-.5.2h-1v-.2h1.6zm-91.2 1.9-1.9.1a1.7 1.7 0 0 1 -.6 0c.7-.2 1.4-.1 2-.2h.6v.2zm-6.5.7h-2.4zm-75.9 2 .7-.1a18.8 18.8 0 0 0 2.6-.1zm275.9-4.4a2 2 0 0 1 -1 .1 1.9 1.9 0 0 0 -.5 0h-.9 2.5zm-162.3 2.3h1a20.8 20.8 0 0 1 1 0 3 3 0 0 1 -.8 0zm172.6-2.6h-.9c-.2 0-.4 0-.7-.2h1.4zm-47.1.5 1-.2.3.2-1.1.1zm-83.4 1.6h2.7-.5l.1.2h-.9.3l.2-.1h-1.9zm133-2.3 1-.1 1 .1zm-143.6 2.7.5-.1h.4c.3-.2.6-.2 1-.1h-.4l-.3.2zm98.3-1.7h-1.3a5.5 5.5 0 0 0 .7-.2 1.4 1.4 0 0 1 .7 0v.2zm-349.2 14.8c-.2.2-.6.3-.8.2h-.8c.5-.3 1-.1 1.6-.2zm333.7-15h-2.6.8l.6-.1h.5l.3.1zm-151.8 2.1v-.1h2.5-2.5zm104.2.2-.6-.2h1.2c0 .2 0 .2-.6.2zm39.8-3-1 .2-.8-.1h1.8zm-160.6 3.8h2.1-2zm46-2.4c.5-.1 1-.3 1.5-.1l.3-.1-.2.2c-.5-.1-1 0-1.6 0zm-216.3 14.8-2.2.2c.1-.2.7-.1 1-.2zm247-13.7h-.1l.2-.1h1.6v.1zm-157 8.1h-.1l.2-.2h2-1.1zm321.7-11-.7.1a4 4 0 0 0 -.5-.1h-.6zm-44.4.5h.3a3.2 3.2 0 0 0 .5-.1 1.3 1.3 0 0 1 .4 0h.1l-.2.2-1-.1zm-118.3 1.1c-.1.2-.2.3-.9.2v-.2zm-184 10.4c.5-.3 1.1-.2 1.7-.2zm22-.9h.2a14.5 14.5 0 0 0 1.7-.2h.4l-2.4.2zm334.6-10.4h2c.3 0 .6-.1.8 0zm-401 13.9c-.4.2-1.1 0-1.6.2h-.4zm398.4-15.2h-2.4zm-349 12.7 1-.1c.4 0 .8-.2 1.2 0l-1.4.1zm-43.1 2.5c-.6.1-1.1 0-1.6 0l1.5-.1v.1zm306.4-13.2h-.5l-.2-.1.6-.1.6.1h-.8zm-185.7 3.3a6.3 6.3 0 0 1 -2 .1l1.5-.1zm277.9-4.3-2.8-.1h2.8zm-136.3 1.2h.6s-.1 0 0 .1h1.1a4 4 0 0 1 -1.7 0zm-57.4 2.7c.1.1 0 .2-.2.2h-1.2c.5-.2 1-.1 1.4-.2zm-147.1 7a6.4 6.4 0 0 1 -2.2 0zm164-10-1.8.1h1.9zm62.2-.4h-1c-.4 0-.7.2-1.1.1l.3-.1zm-141.6 2.5v-.1a5.4 5.4 0 0 1 1.7 0h-1.7zm76-1.5h-1.7zm-130.1 3h1.6c-.5 0-1 .1-1.6 0zm251-3.2a4.5 4.5 0 0 1 1.4 0h-.7a3 3 0 0 1 -.8 0zm-301 10.7.6-.1h.8-1.4zm178-11h-.7c-.2 0-.5.1-.8 0h1.4zm-43 2h-2.2zm181.8-3.2-1.3-.1.5-.1.9.1h-.1zm-284 6c-.5.2-1 .3-1.5.2l1.5-.1zm17.7-1.8h1.2v.2l-1 .1-.2-.2zm6.3 2.4h-.8c-.4 0-.7 0-.8.3l-.4-.2zm23.1.7h-.4a7 7 0 0 1 -.7 0h-.1 1.3zm385.9 1.1h2v.1h-2zm-400.2.9c-.4 0-.8.2-1.4.1l1.5-.1zm248.6-10.5h.3a1.6 1.6 0 0 0 .6 0h.5zm-224.5 4.4.2-.1h1.3c-.5 0-.8.2-1.5 0zm105.3-.5a4.4 4.4 0 0 1 -1.6 0l.3-.1h1.3zm28.7-1.3h.3v.1h-.7v-.1h-.4zm-39.4.7a8 8 0 0 1 -1.8 0zm-45 .3a5.6 5.6 0 0 1 -1.8 0h1.9zm-102.6 2.8c-.1.2-.4 0-.7.1h-.8zm27.1-.3h-1.5zm104.6-2.1h1.7a5.2 5.2 0 0 1 -1.7 0zm148.4-2.4-.7-.2 1.2.1h-.5zm-76.1 1.2h-.1l.2-.2a4 4 0 0 1 1.2 0zm-70 1.9h-1.1 1.2zm21.5-1.3h1.8a4.8 4.8 0 0 1 -1.9 0zm31.6.2c.3-.2.7 0 1 0h1zm58.6-2.4h1.7a3.6 3.6 0 0 1 -1.6 0zm.6.7c.4-.2.7-.2 1 0zm-114.5 3.5h2zm-55.4-.5.3-.1h-.5c.2-.2.2-.2 1.1-.1-.4 0-.4.2-1 .2zm-57 .6h.8l-.2.2h-.6zm156.1-3.3.3-.1h.8c-.3.2-.7.1-1 0zm17 2.7-.7.1h-1v-.1zm86.6-2.2c.3-.2.6-.2.8-.1h.9-1.7zm-106.5.9h.7l-.3.2h-.4zm-93 .3-1.3.1v-.1h1.2zm-119 3.1h-1.2 1.4zm146.3-4c-.2.2-.6.2-1 0zm211.3-1.8h2zm-178 4c.5-.2 1 0 1.5 0h-1.6zm154.2-3.2h1.4zm-114.6 0c-.4.2-.7 0-1 0zm-.2.6h-1.7a5.6 5.6 0 0 1 1.7 0zm-134.1 4 .3-.1.2-.1s.2-.1.4 0h-.3.8l-.5.1h-.9zm-111.4 1.4.4-.1h1.8l-2 .1zm319.3-6.8 1 .1h-1zm60-1c-.5.1-1 0-1.6 0zm-106.7 2.9h1.2l-.3.1a2.2 2.2 0 0 1 -.9 0zm57-1.5a2.6 2.6 0 0 1 1.3 0h-1.4zm-214.8 4h1.4zm272-6.3h-1.3zm-106 4h-1.2c.3 0 .9-.2 1.1 0zm85.3-4.3h.8c-.1.1-.2.2-.5.2s-.3 0-.3-.2zm-427.1 14 .6-.2h.4a2.8 2.8 0 0 1 -1 .1zm444.7-11.4h-1.7zm-392 7c-.5.2-1 .2-1.7.2zm139.4-3h1.2c-.3 0-.7.2-1.2 0zm6.2-.6c.5-.1 1 0 1.6 0h-1.5zm47.1-2-1.1.1c.2-.1.4-.2 1.2-.1zm150.7-1.1-.2.1h-.7c.3-.2.3-.2 1-.1zm42-1.6-1.5-.1h1.5zm-269.3 6.8-2 .1zm88.2-3.3h1.5l-1.3.1h-.2zm189.6-3.2h1.3a3 3 0 0 1 -1.3 0zm-330.6 6.4-.3.1a3 3 0 0 1 -.5 0l.9-.1zm28.4-2h1.7zm162.6-1.9a9 9 0 0 1 1.7 0h-1.8zm100.8-.7h1.5zm-119.7 2.2h-1.4a3 3 0 0 1 1.4 0zm-148.2 1 .2-.3h.4c-.1.3-.1.3-.6.3zm276.3-4.3h1.5zm-379.2 6 1.2-.2c-.4.2-.4.2-1.2.1zm177.2-2.7a14.8 14.8 0 0 1 -1.4.1h-.6 2zm-82 1.3h-1zm-62.2 8.4h.9l-.5.1zm323.7-12.1-.7.2-.1-.3zm-97.2 2.9h-1.3 1.2zm89.4-3a3.4 3.4 0 0 1 -1 0zm-267.7 8.3h-.1l.3-.1.4-.1.4.1h-1zm163.2-6a4 4 0 0 1 -1.5 0zm66.8 0h-1.2zm155 5.3h-1.6 1.5zm-277-5.2c.4-.2.9 0 1.3-.1-.4 0-.7.2-1.2 0zm140.6-3.5h1a2.8 2.8 0 0 1 -1 0zm-79 2.5h-1.3l.7-.1h.6zm-98.7 1-.8-.1zm75.3.3-.4-.2h-.6 1.1zm-39.5 1c-.3.2-.7 0-1 .1h-.2 1.2zm145.5-4.1c.3-.1.7-.2 1.1 0zm31.9 0h1.5zm-25 .8h1a3.6 3.6 0 0 1 -1 0zm-115.3 1.3h-1.4zm-119 2 .4-.1c.4 0 .2 0 .2.1zm81.3-1.5h-1.3a3.5 3.5 0 0 1 1.3 0zm-152.7 2.7.6-.1h.5l-1 .1zm-65 3c-.3.2-.8.2-1.2.2l.6-.1h.6zm208.4-4h1.1zm114.4-3.9-.4.1h-.2v-.2zm-325.7 9.2.7-.1zm289.3-8.5h1zm131.8-1h-1.6zm-280 4 .5-.2h.6c-.3.2-.7.1-1 .1zm11.8.2h1.1-1zm-43.3 1.9h-1.1a3.3 3.3 0 0 1 1.1 0zm181.2-2.8h-1.4zm147.9-3.5h-1zm-39.8 6.7v.1h-1.4 1.4zm-21.8-5.7-.5-.2h.5l.3.1zm-309 11.5.9-.1zm119.8-9a4.5 4.5 0 0 1 1.6 0h-.8l-.8-.1zm113.6-2.9c0 .1 0 .2-.2.2h-.3l-.3-.1h.8zm49.8-.1h-1c.5-.2.8 0 1 0zm-193.6 2.8h.4-.8c.2 0 0-.2.5-.1zm88.5.5c-.1.2-.3.1-.5.1h-.5 1zm-81.3-.3c-.5.2-.6.1-.8 0zm-112.6 9.6h-1a2 2 0 0 1 1 0zm375.7-13.1a3.4 3.4 0 0 1 1.1 0h-1zm-20.3-.3h1.4zm-193 3.8a3.4 3.4 0 0 1 -1 0zm38.5-1.9h-1.1zm68.4 1.7c-.4.2-.4.2-.7 0zm.9-1.2h-1.3zm-27-.4h1zm-115.8 2.7-1.5.1h1.5zm332.9 3.4h1.3zm-327-3c-.4.1-.7.2-1 0zm-121 .4 1 .1h-1zm-11 1.6c.2-.2.6 0 .8-.2h.3l-1 .2zm237.7-3.8h-1.2zm-24.5-1.6h1.2zm-6 1h1c-.6.2-1 .2-1 0zm-17.5 1.6h.9-1zm207.9-6.2a3.2 3.2 0 0 1 1 0zm-173.6 3h1a2.3 2.3 0 0 1 -1 0zm-109 7.7h1.2zm109-7.5-.7.1h.6zm-57.3 2.6h-1zm107.8-3.2c.3-.2.4-.2.9 0h-1zm-7.5 3h-.8c.2 0 .5-.1.8 0zm7.3-3.2c-.2.2-.2.2-.7 0zm-66.5 2.9h1.1zm104.3-1.2 1-.1h-1zm-202.3 2.8h-.8a1 1 0 0 1 -.3 0zm202.4-1c.3-.1.5 0 .8 0zm-161.6-.5h1.3zm174.5-3c.2-.2.5-.1.8-.1-.2.1-.6 0-.8 0zm-201.8 3.2h1zm205.9-1.1c-.3.1-.6 0-.8 0zm.4-1.9h1c-.5.2-.8 0-1 0zm-237.3 4h1zm-29.1-.1h-1a2.6 2.6 0 0 1 1 0zm298.5-6.4h1a3 3 0 0 1 -1 0zm-324.3 7.6c.4-.2.4-.2.8 0zm207.1-4.5h-.8.9zm134-3.8h1.3-1.2zm-344 14.4h1-.9zm232.2-9.5h-.6zm-26.4.8h-.4c-.2 0-.1-.1 0-.1h.3-.2.4zm-119.8.5h-.8zm82.3-1.4c-.5.1-.5.1-.8 0zm85.9 1.5c.4-.2.4-.2.8 0zm-109.4-1.6h-.6.3v-.1h.3zm-63.3 2.3c-.4 0-.7 0-.6-.2h.3c-.2.1.2 0 .3.2zm231.3-4.8c.3-.2.4-.2.9-.1h-1zm-269.2 4.4h1zm347.5-2.8h1zm-260 .2a2.2 2.2 0 0 1 -1.1 0 1.7 1.7 0 0 0 .6 0h.4zm-1.5 1.8h1zm150.4-2.3h.7zm-219.5 4.1c-.3 0-.6.2-1 .1h1zm123.5-1.2h-.8.1a1.2 1.2 0 0 1 .4 0zm-271.4 13h.6zm34.2-1.6-1 .1c.3 0 .5-.2 1 0zm231.7-12.6c.1-.2.4-.2.7 0zm-95.4 2.5h-1zm239.7-7.9.6.1-.5.1v-.1zm1 3.4.7.1h-.6zm38.9-2.7h-1 .9zm-252.8 5.7v-.1h1-1zm-11.7 1 .3-.2.4.1h-.8zm-96 7.2h.9-.8zm120.4-9.6.4-.1h.4-.8zm76.9-.3h1zm-76-.4h-.7a1 1 0 0 1 .3 0h.2zm100.1.2h-.7zm6.5.6h1.1zm83.4-2a2.5 2.5 0 0 1 -1 0zm-271.4 9.4h1zm139-8h-.8.7zm-.8-.2h.8c-.3.1-.5 0-.8 0zm86 .4h.9-1zm-98.1.3h-.2a1 1 0 0 1 -.3 0h-.2zm-148.7 3.3h.8zm193.3-5c.4 0 .2.2.5.2h-.4v-.2zm-44 2.7h.7zm-185.3 9.3h.6zm364.4-12.3h-1zm-140.7 2h-.5zm-132.6 3.8h-.7l.6-.2zm-4.8-1.8h.9zm-.1.1c-.2.2-.3.2-.6.1h.6zm41.4-1h-.6zm-52.5 3.9h1zm.3-.7h-.6zm69.3-2.7h.8c-.4 0-.6.1-.8 0zm-189.6 12h.7zm179.6-12.5h1.2zm71-.4.6-.1v.1zm-172.7 1.9h.9zm182-3.1-.7-.1h.7zm-203.3 10c-.4.2-.4.2-.7 0zm-38-6.5h-1zm229.2-2.7h.8zm142.1-4.6a1 1 0 0 1 .6 0zm-102.6 5s-.1.2-.4.2c.1 0 0-.2.4-.2zm-255.3 3.3-.1.1a1.2 1.2 0 0 1 -.4 0h-.2.7zm328.9-5.8h.6-.7zm49.5 0 .1.1-.3.1h-.1v-.1h.3zm-239.7 4h.7zm-46.2.2h.5zm159.7-2 .1-.2h.4l-.1.2zm-86.4.4h.8zm207.2-5.4h.7zm-36.7 2.4.5-.1h-.3zm-168.5 3a1 1 0 0 1 -.8 0zm47-.6h-.3l-.2.1h-.2.6zm3.2 0h-.6zm-197.3 9.6h-.7zm318-10.7h.4-.5zm21.3-.5h.6zm-191.6 1.9h-.7zm54.2 3h-.3a1 1 0 0 1 -.4 0zm-99.2-2.9h-.4.3l.2-.1v.2zm-66 3.5h.9-.8zm152.3-5h.6zm201.4 6.7h.7zm-273.5-4.7v.1h-.5.5zm-159.3 11h-.8zm378.6-16h.7zm-321 7h.7zm255.5-4.7h-.3c0-.2.1-.1.2-.1h.1zm-111.8 1.9h.7c-.3.1-.5.2-.7 0zm175.8-2.5h.5zm-174.4 1h.7zm-67.7 2.5h.5zm-83.8 8h.8zm362.4-10.3a2 2 0 0 1 -.6 0zm-426.2 14.6-.6.1h.6zm92.4-8.5h.5zm286.2-6.3h.5zm93.3 7.2h-.8zm-361 1h-.7.6zm111.2-5.3c.1 0 .2.1 0 .2-.2-.1-.2-.2 0-.2zm150.2-4c.4-.1.4-.1.8 0zm-17.6 0h.7zm-235 6v.3h-.6.7zm-76.3-1h.8c-.2 0-.4.1-.8 0zm212.5-1.7a1 1 0 0 1 -.7 0zm159.2-5.2h.6zm-76.1.9h-.8c.2-.1.5-.1.8 0zm22.1 1.8h-.6zm-11.6-.3h-1a2.5 2.5 0 0 1 1 0zm-211.7 5.4h-.8zm-105.9 7.6h-.6zm255-12.6h.5zm77.7.3h-.5zm-272 6.7h.7zm-4.1.5a1.4 1.4 0 0 1 .7 0zm193.4-6.1h-.6zm-1-1.7h.5zm64-1v-.1h.7-.6zm-271 8.9a6.5 6.5 0 0 1 .6 0zm251-6.6h-.7.6zm-45.8-1.6.4.2c-.4 0-.5 0-.4-.2zm79.2.5c0 .1-.2.2-.3.1-.2 0 0 0 0 0h.3zm-69.3 0c0 .2 0 .2-.5.2l.5-.1zm-135.5 2.5c.1-.2.1-.2.5-.1h-.5zm-92.6 9 .3-.1h.4-.7zm162.6-9.6h.5zm-61.3 1.6h.7-.1a1 1 0 0 1 -.5 0zm0 3.6h.5zm145.9-6v-.1h.4-.4zm-296.6 13.1h.6zm505.3-6.9h-.5zm-278.2-5.4h-.6zm280.3 5.6h.6zm-279.6-4.5h-.5zm111.4-3.2h-.4zm-257 9.8h.7zm87-8.3h.5zm-73.8 1.7-.2.1h-.2zm149.8-2v.1h-.8.8zm-147 7.8h-.5zm241.8-8.3h.4zm165.9 7h.5zm-539 2.7.5-.1h-.5zm317-10.1h-.5zm31.6 1.8h-.5zm-345 15.2-.6.1h.6zm132.8-9.6-.7.1h.7zm51-1.4h.6zm-183.4 1.4h.6zm372.1-7.9h-.6zm-239.1 3.2h.5zm.6 2.4h.1a.8.8 0 0 1 .3 0h.2zm1.7.7h.6zm273.3-7.5h-.5zm-175.6 2.3h.4zm59.2-.2h-.5.6zm-88.7 3h-.5c-.1-.1 0 0 0-.1h.5zm68-2.8h.4-.5zm61.2-.6h-.4zm27.8-.9h.5zm20-.3c-.3 0-.4 0-.3-.1h.1l.1.1zm-227 5.8h.6zm270.6-6.3h-.5zm-365.6 13.8h.5zm367.8-13.7h-.7.1a1.2 1.2 0 0 1 .6 0zm.6-1.6h-.4zm-378.5 8.5h-.6zm312.7-2.9h-.5zm-101.3-2.3h-.3zm-228.7 14.2h.5zm219.8-12.5h.7zm160.2-2.3h.2zm-301.7 9.4h-.5zm6.3.3-.5.1h.5zm-6.7-4.6h.1l-.3.1h-.1zm59.8-1.8h.6zm81.4-1h.3zm-43.9.4h.5zm194.7-1.5h.6zm-32-1h-.5.6zm.6.4h.4zm-337.5 4.7h-.5zm155.5 2c-.2.2-.4.2-.5.1h.5zm-153-2h.5zm152.6-1.1h-.5zm83.7-2.8h-.6zm-228.1 3.5h.5zm327.4-3h.4zm-4.1-2.5h-.7zm-165.2 4.2.4-.1h-.4zm47.2-.6h-.2l.1-.1zm-197.6 10.2h-.7zm84.8-8.5h.7-.6zm83.2 1.6h-.6zm53.7-4.8h.6zm24-1.3h-.5.6zm-117.5 4h-.6zm236.5-4.3h-.4zm-265.8 8h-.6zm-.1-.9h.5zm29.4-2.8h.4zm180.6-4c.3-.2.4-.2.7 0zm-208.4 7.2h-.7zm-90.4-2.5h.3zm118 2.7h.7-.6zm74-4.7h.6zm110.8 3.4h.6zm-79.4-5h.4zm-227.4 10.6h.5zm423-4h-.4.5zm-407 4h.2zm99-7.7h.5-.6zm-14-.6h-.3zm-80 8.2h-.5zm-54.9 3.5h-.5zm155.5-12.8h.4zm2.8 1.6v-.2h.3-.3zm37.2-.3h.4zm119.3-1.7h.1-.2zm-104.9-.8-.3.1h.3zm38.4 1.6h.3zm-42.9-.3.4-.1h-.4zm-133.5 2.8c.2.1.2.1-.1.1h.2zm.3 4.6h-.4zm333.4-9.6h.3zm-384 5.9.4-.1h-.4zm53 .5h.3-.4zm-71 8.3h-.5zm74.1-4.6a.9.9 0 0 1 -.4 0h-.1zm62.7-7.3h.4v.1h-.4zm211.8-1h-.3zm29.4-3.6h-.5zm-239.7 9.7h-.6zm237.6-7.4h-.3zm-237.6 2.2-.5.1h.5zm110.6-2.4h.3zm-67 .8h.3-.4zm16-.3h-.5zm-230.4 7.3h.4zm226.6-5v-.1h.5-.5zm43.8-3h.4zm130.7-1.2h-.4zm-93.5 1.3h-.3zm-95.1 1.6c0-.1.2-.1.4 0zm-176 12.7h.4-.3zm276.8-12.8h-.4zm-193.9 2.3h-.6zm58.7.2h-.4zm142.5-.7h-.4zm-203 2h.4-.5zm-1.6-2h.3zm5 .6h-.4zm2.4 5.2h-.4zm-122.2-1.4-.3.1h.3zm126.6 1.2h.5zm79.7-7.3h-.3zm112.3-1.2h-.2.3zm-208.5 6.3h-.2.3zm22 .7h-.3.4zm147-7v.1h-.2.3zm-90.5 3.6.3.1h-.3zm210.3-4.9h.3zm-211.2 5h.3zm-83.9 0v-.1h.3-.3zm127-2c0-.2.2-.2.4-.1h-.4zm28.3-1.6-.3.1h.3zm234.2 6.8h-.4.5zm-97.3-9.4h-.4zm-106.6 2.6h.3zm-149.8 4h-.3l.1-.2zm-41.6-.5h.3zm85.8-.2h-.3zm195-5v.1h-.3.3zm-286.2 11.9h-.5zm143.2-9.7h.3zm125-.9h-.3zm-72.4 0h-.3zm-248.5 13.5-.4-.1h.4zm375.2-17h.3zm28.5 3.3h-.3zm-300 8h.2v.1h-.2zm135.3-7.4h-.4zm111.8-1v-.2h.3-.3zm-223.2 4.4h.4zm174.4-2.9h-.3zm98-1.8h.6-.5zm-.8-1.1h.3zm-101 .9h-.4.3zm-84 3.3h-.3zm112.1-2.3h-.3zm-201.6 7.9h-.4zm268-11h.2zm-50 2.9h-.2zm-323 12.2h-.3zm208.3-12.5h.3zm-205.5 4.6h.3zm95.6 3.8h-.4zm271.6-10h-.5zm-367 6.8h-.3zm255.1-4h.3zm105.4-3.4h-.1zm-136.8 4h.2zm144.7-4.7h.2v.1h-.2zm-279.6 11.2h.3zm214.6-6.2h-.1zm-117.3.7h.3zm39.8 1h-.3zm147.1-3.7h-.1c-.1-.1 0 0 0 0zm-235.6 1.2h.3zm-121.4 6.5h.2zm338.6-9.6h-.2zm-72.4 1.3h.1-.2zm-259.2 7h.3zm296-3.7h.2-.3zm-54.8-1.4h.4zm-184.1 4.8h.3zm167.2-3.4.3-.1h-.3zm-168.8 5.3h.3zm123.1-4.5h.3zm-171.5.9h.3zm84-1.5h.3zm3 .2s0 .1 0 0h-.2zm0-.3h.3zm29.4.7h-.4zm25.3-.3.1-.1h.1-.2zm-93.3 0 .3-.1h-.3zm45 1h-.1.2zm38.5-1h.4zm-86 1.6h.4zm274-7.5h-.4zm-310.7 12.8h-.3zm275.5-10.8h.2zm-242.3 4h.4zm124.6-.6h.4zm-149.2 1.4v-.1h.4-.4zm.6 0v-.1h.1zm293.6-5.6h-.3zm-4.7 1.6h.1zm-.1-.7h.2zm-203 4.8v.1h-.1zm-200.8 9.2h-.3zm164.8-8.7h-.4z" fill="#f5663e"/></svg>