<svg fill="none" viewBox="0 0 402 16" xmlns="http://www.w3.org/2000/svg"><path d="m208.3.8h.9l.7-.1h1.3l-.2-.1h-1.6v-.1h.5c0-.1-.3 0-.3-.2h2-.3l-.2-.1h.5l1.2.1h3.2-.4l.1-.1h.9v-.2h.9l.4.1h-.9l.1.2h2.4v.1h-2.6l-.6.2h-.7l.3-.2h-1.8.3l.2.1h-.6l.2.1h5l-.3-.1.1-.1h1.2-.6l.2.2h2.8l-.6-.1c-.1-.1 0-.1 0-.1h-1.8v-.2h-1.9l.2-.1h1l.2-.1h1.3l.3.1.2.2h1.4l-.2.1.3.1c0 .1.1.2.3.2h.9l.1.2h1l-.7-.1h4-.3v-.2h.8-.2l1 .2h2.4-.7s-.1-.1 0-.2h-2.7l-.1-.1h-1.9.5l.6.1-.1.1h-2.3s.1-.2 0-.2c-.2 0-.2 0-.1-.1h.2l.4-.1h1.5-.3c.2-.1.2-.2.4 0h1.9-.1l-.1-.1h1.4-1v.1h-.8l.1.1h.9c.2 0 .5.1.8 0l.1.1h.5l.7.1c0 .2-.3 0-.5.1.3.1.6 0 1 .2h-.4.6c.1 0 .2.1.4 0l.3.1h.1-3.5c.6.2 1 .2 1.6.2h3.5l1.4.1h1l.2-.1.4.1h5.9-1.3l-.4-.1h.2c.2 0 .5-.1.8 0 .3-.2.7 0 1-.1h2.6v-.1a4 4 0 0 0 -1 0h-2.3l-.8-.1.3-.1h2.5-.4l.1-.1h.9c.2 0 .2-.1.2-.2l.1.1h.3v-.3h-.2l.4-.1h4.1l.5.1v.1a2 2 0 0 0 -.5.1l.2.1h1.3l1.7.1-.5.1h2.6-.2v-.1h.2s.1 0 0 0c0 .1 0 .2-.2.2h-3.3c0 .1.3 0 .3.2h2.3l1.2.1h1.9l.8.1h3.5l-.8-.1h-1.5l-.1-.1s.2 0 .2-.2l.6.1h.5c-.1-.1-.2 0-.2 0h-.2l.3-.2h.5l-.3.1h3.3-.2 1s.1.1.2 0h1l.3.1h.3l-.1-.1h.3v-.1h-1.1l-.1-.1h6.4l.4.1h-.3l-.3.1h-.5a2 2 0 0 1 -.5-.1h-3.5 2l-.5.1h-1.1.3l1.4.1h2.1l1.2.1h.5v.1h-4.9.5-4.2c.1.1.4 0 .5.2v.1c.5.1.6.1.9-.1h4.1l.7.2h1.7-.4l-.8.1h-1.4l.4.1h3.1c0-.2.1-.2.4-.2h1.7v-.1l-.3-.2h.5l-.3-.1h-.5l.7-.1h2c.2 0 0-.1 0-.2h.2l.5-.1h.3-.1l-.5-.1h3.1l-.2.1h2.5l.4.1h1.7-.5l-.6-.1a7.3 7.3 0 0 1 1.6 0l.1.1v-.1h1.1v.2l.4.1h.8-.3l-.3-.1c.3-.1.6 0 .8 0h4.7v.1l.3.1h.8c.2 0 .3 0 .5-.2h.2l1.3.1h.9l1.2.1h.2l2.3.1h.7l.6.1h.2v-.1h.5-.1c.1.1.2.2.4.1h-.2c.1-.2.4-.1.6-.2l.5.1h2.3l.4.1h.6v.1h.6-.2c.1-.1.3-.1.4 0h2.6c0 .2-.3.1-.2.2h.9-.4l.4-.1 1.4.1c-.1 0-.1 0 0 .1h.5l.1-.1h5.1c0 .1.2 0 .2 0h2.5l1 .1.2-.1h-1.9l-1.2-.2h1l.5.1h1.3l-.2-.2h1c-.5 0-.5 0-.5.2h1.5l.4.1h.6v.1h-2v.2h.3c.3.2.7.1 1 .1h.4l.5.1.6.1h.2-.2l.5-.2h1.6l.4.1h.7l.3.1h2.6l-.2.2h.3v-.1h.3l.3.1h2.8c.2.1.1 0 .1 0h.6l.7.1.6.1h1.3l.5.1h1.1l.6.1h1.1l.8.1h2.3l2 .1h2.2-1.3c-.5 0-.8 0-1.2-.2h-.2c-.1 0-.3.1-.4 0h-1.5v-.1h.1l.1-.1h.8l.9.1h1.1-.2l-1-.1h-.5l-.6-.2h-.8c0-.2.1-.3.2-.3h-2.7l.1-.1h-.3v-.1l-.2-.1h-1.9l-.9-.1h5.5-.1l-1.2-.1h-1.6l-.3-.1h-.9l-.5-.1a1 1 0 0 0 -.5 0h-.3l-.2-.1h.8l.1-.1h.7l.3.1 1.5.1h.2-.5c0-.2-.2-.2-.3-.2h1.9v.2h1.6s.2.1.4 0h1-1.7l-1.5-.2h-.6v-.1h.5l2.2.1h.7l1 .1h.7l.8.1h1l.4.1h4-1.4l-1.6-.1h-.2l.1-.1h2.4-.2l-2-.1h-.4l-.3-.1h-1.2l.1-.1h2.1l.8.1h2.3-.8c.2-.2.4 0 .6-.1l-2.4-.2h2.7l1.3.2h1.5l1.6.1 1.6.1 3.6.3c1 0 2.2 0 3.2.2l2 .1.7.1h1.8l2.6.3 1.3.1 1.9.1h1.1l.2.1 1.1.1h1l.8.2h1.9l1.7.2 1.2.1h.9l1.2.2h1.5-.7l-.4-.1-1.5-.1-1.3-.1-1.6-.2h1.7l.3.1h.8l.1.1.6.1h1.3-.4 1.4l1.1.1 2.5.2h.1l-.4-.1h-.4l-.5-.1h-1.4v-.2h1.8v.2h1.6c.6 0 1.3 0 2 .2l1.3.1h.5l-.3.2.5.2.1-.2c.2 0 .2 0 .2.2.3 0 .4.2.3.4h.7l-.2.2-.1-.1-.4.2c.3.2.5 0 .7 0l.3.2h-.3l-.3.2.2.2.3-.2c0 .2-.2.3-.2.3h-.7s-.1 0 0 0l.1-.1-.2-.2-.2-.1h-.8l-.3-.1c-.1 0-.2 0-.2.2.5 0 1 0 1.6.2h-.7l-.1.2h.9l.1.1-.4.3h-.3c-.2 0-.3 0-.3.2l-.1.1c0 .1-.1.2 0 .4h.3l.6.1h-.3c-.2-.1-.3 0-.4 0l-.1.2h.1c.2.1.2.1.1.2l-.1.1-.2.2h.4v.1h-.3c-.1.1-.2.2-.1.3 0 0 0 .2-.2.2v.1h.6l-.2.1h.1v.2l-.6.2-.2.1h.7l-.1.2h-.5l-.2.2h.2l-.6.2-.1.1v.2c-.3 0-.4.2-.3.3l-.3.2s0 .1 0 0h.2l.4-.1h.2v.1h-.3v.1l-.5.1h-.4v.1h.6l.2.3h.4-.5v.4h-.2l-.2.1.4.3h-.3v.4h-.4l-.3.1h.4l.4.1c0 .1 0 .2-.3.2l-.4.2-.3.1h-.7l.6.1v.1l.2.1h.2c0 .1.1.2 0 .2l.1.1h-1.5c.1.2.3.1.5.1l.1.2h.7l-.2.2c-.1 0-.2 0-.1.1h.5c.1.1 0 .2 0 .2h-.4l-.3.1h.3l-.1.1h.5l-.2.1h-.7l-.4.1.7.1-.2.2h-1.1c0 .2-.2.1-.4 0h-.3l-.2.1c.1.1.1.1 0 .2v0h-.9.2-.5l.2-.2h-1.2a25 25 0 0 0 -2-.3l-1-.1h-.2l-.5-.1h-.4l-1-.1h-1.1l-.5-.1h-.5l-1-.1c-.4 0-.8-.2-1.1-.1-.4-.1-.8 0-1.2-.2h-2l-.8-.1h-1.9c-.3-.2-.6-.2-1-.2l-1-.1h-.9c-.2-.1-.6-.1-.8 0-.2 0-.2-.1-.2-.2h-.1s-.1.1-.2 0h-1c-.3-.1-.6 0-.8 0h-.5l-1.2-.2h-1l-.6-.2h-3.1c-.2-.2-.4-.1-.6-.2h-2.2l-.6-.1-1-.1h-1.4a1 1 0 0 1 -.4-.1h-.8c-.3 0-.5-.1-.8 0h-1l-.2-.1h-.6l-.4-.1h-2.1v-.2h-.9l-.3-.1h-4.4l-.2-.1h-.2c-.1 0-.3-.1-.4 0h-.7v-.2l-1-.1h-4.4l-.2-.1h-.7l-1-.1h-2.9l-.6-.1h-2.3l-.2-.1h-.2l-.3-.1h-3.5l-1-.2h-1.3c-.1.2-.3.2-.4.1h-2c-.1 0-.3-.1-.4 0h-.4a1 1 0 0 1 -.5-.2h-1.6l-.6-.1h-3.4c-.2-.2-.5-.1-.8-.2h-1 .3c-.1 0-.3.2-.5 0h-.4c-.1-.2-.3-.1-.5-.1h-1.2l-1.9-.1h-4.9l-.5-.1h-2.4l-.2.1-.9-.1h-2.1l-.5-.1h-2.1.1-.1c-.5-.2-.9-.2-1.4 0h-.7v-.2h-.8c-.3.2-.6 0-1 0h-.4a2 2 0 0 1 -.5 0h-8.4c-.2-.2-.6-.2-1-.2v.1h-.2c0-.1-.1-.2-.2-.1h-.1l-.3.1h-.8l-.7-.1h-2.3l-.3.2-.3-.2h-.6.2-.8l-.8-.1h-1.2a2 2 0 0 1 -.5 0h-1.8a1 1 0 0 0 -.5 0h-.4l-.1-.1h-.9l-.2.1h-.1v-.1h-6.1l-.1-.2h-1.4l-.8-.1-.8.1h-1.9l.1-.1h-3.3.2-11.7l-.1-.1h-16.3c-.5 0-1 0-1.5-.2h.7c-.3-.2-.7-.2-1-.1l-.2.1h-12.1l.3-.2h-1 .3c0 .1-.2.2-.3.1h-9.7c-.2 0-.2 0-.3-.2l-.1.1h-.8.2-.9l-.9.1h-1.5c-.1 0-.2.1-.4 0h-1.1l-.2.1h-.4a1 1 0 0 1 -.5 0h-3.9c-.1 0-.2-.1-.2 0h-.4l-.4-.1v.1h-.4c-.2-.2-.3-.1-.6-.1l-.1-.2h-.1l-.8.1h-.2.2c-.2 0-.3.1-.4 0h-4l-.6.1h-.4v-.2h-1.6v.1h-1.6l-.4.1h-8l-1.7-.1h-3.9l-.2.1h-6.7l-.1.1h-1.9c-.1 0 0 0 0 0h-8.2l-1.2.1h-2.8l-1.1.1h-6.4l-.2-.1h-1.9.3-1.6l-.5.1h-.3.2-3.2l-.1-.1h-1l-.5.1h-1.3l-.9.1h-.8c-.2-.1-.5-.1-.8 0l-.7-.1h-3.4l-.3.2h-1.8c-.2-.1-.3-.1-.4 0h-5.1l-.3.1h-2.2v.1h-5l-.7.1h-3.8.1-.8l-1 .1h-1.1l-.7.1h-1l-1.1.1h-13.5l-1.4.1h-7.8l-2.3.1h-5.3l-2.6.2h-2.2l-1.5.1h-4l-1.7.1h-1.4l-1.4.1h-2.6l-.8.1-1.1.1h-6.8a4 4 0 0 1 -1 0h-2.6c-.3 0-.6.2-1 0-.3.2-.5.2-.7.2h-6.7l-2.6.1h-1.9l-2.3.1h-3.9l-1.3.1-3 .1h-8.6l-2.6-.1-.3-.1h-.6l-1.4-.3h.4c.2 0 .4 0 .5-.2h-.6l.2-.1h.5c-.3-.1-.3-.1-.4 0l-.5-.1.3-.1v-.1h.1l.2-.2h-.5l.1-.2h.1c.3 0 .4 0 .5-.2l.1-.1v-.1c.3 0 .3 0 .2-.2.1-.2.4-.2.5-.2-.3-.1-.6 0-.8 0l.7-.2h.7-.5l-.3-.1v-.2h.3c.1 0 .1 0 0 0l-.1-.3h-.5.8v-.2h1.9-.2c0-.1.1-.2.2-.1h.5c.2 0 .5.1.8 0h-1.5l-.4-.1h-1c0-.1.1 0 .2 0h5.5-1.4l.5-.2h1.6l.1-.1h.2l2.4-.2h1.1l.5-.1h1c0-.2-.3-.1-.3-.2h.6v-.1h-1.9 3.1c.3-.2.7-.1 1-.2h2.5v-.2h1l.1.1h.8l.1-.1h2.6l.5-.1h6.3l.2-.1h.3v-.1h.7l-.4-.1h-1l.2-.1h2.4l-.4.1h.6v-.1h3.7-.6.3l-.5-.2h2.8l.2-.1h6.8-1.2c.8 0 1.5-.2 2.2-.1h1.2c.1-.1.4 0 .6-.2h4.7l1-.1h2.2l-.1.1h.5l.1-.1h1.2-.1.7l1-.1h1l-.1-.1c-.3 0-.6-.2-.9 0-.3-.2-.6 0-.9 0h-.1l-.7-.1h-1l1.9-.1h2.8l2.3-.1h8.4l.4-.1h2.3c0-.2-.1-.2-.2-.3h-.7.4-4.5c-.2 0-.3-.1-.3-.2h-.1c-.2.2-.5.1-.7 0-.2.2-.4.2-.6.2h-9.4c-.1 0-.1 0 0 0h.5-.2 3.5v-.2h2.5.5-.2 1.6a2 2 0 0 0 -.6 0l.3-.1h2.1-.4.7-.2.8-.3 1.3l.2.2.7-.1h.7l-.2-.1h-2.3.5l2.8-.1h6l2.7-.1h5.6c-.2-.2-.5-.2-.7-.2h-.7.2l.1-.1h.1l.5-.1h5.2l.7-.1h.1c-.1 0-.4 0-.5.2h.5-.5l.2.1h1.8l-.6-.1-.2-.2h2.4l.5-.1h3.5l.2-.1.2.1h.7l.4-.1h3.8l-.3-.2h-1.1 2.6l.2.1h.4-.3l.1-.2h2.9c0 .1-.4 0-.3.2h-1.3.2-1v.1h6.6l.8-.1h3l.7-.2.3.1h.4l.3-.1-.8-.1.7-.1h7.5l.5-.1c0-.2-.3 0-.5-.2h.4-.2c-.2 0-.3 0-.2-.1l-.1-.1h-.6.4l-.3-.1h.1l.3-.1h2l.3-.1h3.6-.5.7l.3-.1h2.9c.1.2.1.2.3.1l-.1-.1.4.1h2.5l-.1.1h-1a2 2 0 0 0 -.5 0v.2h-.4l.3-.1h-3.5.5v.1h.7v.1h4.7l-1.2.1h-2.2c0 .2.2.2.2.2h1.6l.3.1h5l-.2-.1h1v-.1h.8-.6l-.3-.1h.6l.3-.1h3l-.3-.1h.3-2.2l.1-.1h.2l.2-.2h3.1-.9c0-.2.2-.1.2-.1l.3-.1h.2c.1 0 .1-.2.3-.1h.3v.2h2.2l.4.1h1v-.2h-.5.8s-.1-.1 0-.2l.1.1h2.6v-.1h1.6-.7l1.1.1h2.8l.2-.1h.5-.2c.4.2.8.2 1.2.1.1-.1.1 0 .1 0h.2l-.3.1h-1.5 3.2c-.2-.1-.2 0-.4 0-.3 0-.3 0-.4-.2h-.8 6.5-.1v.1h.2l-.1-.1h1.7-.3l-.2-.3h-1 .2c-.2 0-.3.1-.4 0h1.8-.1l-.2.1h.7c.2 0 .2-.1.2-.2h1c0 .2-.1.1-.2.2h-.1.5c.2-.1.3 0 .4 0h.6s.8.1.8 0h1.4l.2.1.5.1h2.1c-.2-.2-.3-.2-1-.2v.1h-.9.4c-.2-.1-.5 0-.8 0l.2-.1.4-.1c.3.1.4 0 .7-.1h.3l-.4.1h.2l1 .1h.3-.3l.7-.1h-.2l.3.1-.3.1h.9-.4.8c.1-.2 0-.2 0-.2h1.2-.1v.1h2.5c0 .1.2.1.2 0h2.5l.4.1h-1.7c.1.1.3 0 .4 0l.2.1h1.2l.8.1h1.7c.1 0 .2-.2.3-.1h1.3l-.7-.1h-1.6l.5-.1-.2-.1h.3l.3-.1h-.7l-.3-.1h.6-.3 1.7-.8v.2h1.1v.1h1.5c.2 0 .4.2.7.1h.9l-.2-.2h-.1l.1-.1h.7l-.7-.1h-.8.4c.8-.1 1-.2 1.8-.1h.5l-.1-.1h-.4l-.5-.1h-.6l.1-.1h-.2l.7-.1h3.1l1 .1v.2s.3 0 .2.2h.3-.2l.1-.1-.2-.2v-.1h.7-.3 2.7-.5c-.4 0-.7 0-1 .2h-.3c.2.2.3 0 .6.2h-.4 3.3-1.9 2.5l-1.3.1h.3l.4.2h-.7l.3.1h1.2l.1.1h-.5a2 2 0 0 0 -.5.1h-2.2.5l.9.1h4.7l.3-.1h-.8c0-.2.1-.2.2-.2h1.4c-2-.4-1.8-.5-1.6-.5l-.4.1h-.3l.5.1h2.2l.7.1h1.3l-1-.1h-2.5l-.5-.2zm93.6 3.5s.1 0 0 0h.1s-.2 0 0 0zm-99.6-2.8h.2zm76.2 2.1h-.2.2c.1 0 .1 0 0 0h.1zm12.1-1.6h-.2.6zm82.6.7v.1h.4-.4s-.1 0 0 0h-.1zm-53.8 7.3h-.5zm-63.2-6.7h-.4.8c0 .1 0 .1.1 0h-.3c-.1 0-.1 0 0 0zm49.5 1.2v-.1h-.4.3l.1.1h.4zm-47.4 1c.3.1.5.2.9 0zm-61-4.8h.2l.2-.1h-.8.3l.1.1h.2-.1zm91.8 1.2h.7-1.7.9zm-136.1-.9h-.3zm-21.1.7h-1.4 1.4-1.2l.1.1h2v-.1zm63.1-1.3v.1h1.4-2.1.7zm116.4 2.2h1.4-1.5l-.5-.1h-.5l.3.1zm-108 .2-.2-.1h-.7 2-1.1zm-26-1.4h-.4c-.1 0 0 .1 0 .1h.6l-.2-.1h.1s0 .1.2 0h.2l.2.1v-.1zm24.6 0-.3-.1h-.4s-.2 0 0 0h.8s.1.1.2 0h.6s.1 0 0 0a2 2 0 0 1 -.6 0h-.4zm-87.2 1.2c.2 0 .5.1.8 0h1-3.6l.9.1h.9zm149.1-1.3-.1-.1h-1.2c.2.1.5.2.8.1h.9zm-81.1 1.7h-.2l-.1-.1h-1l.4.1h2.7l.2-.1h-1.4a2 2 0 0 1 -.4 0h-.2zm37.5-1.6h.2-.4l-.5.1.3.1h1.4l-.3-.1zm-63.6-.1h.2c0-.1-.2 0-.2 0 0-.1-.1 0-.2 0h-.7l-.1.1c.3.1.5.2.7 0h.8-.2zm192.4.4h2.3l-.6-.1h-1.7l-.9-.1.7.1h.4-.2zm-312.3 3.8h-1.5l-.1.1h2.4l1.1-.1h-1.9l.1-.1h-.8.7zm332.4-2.9h.2l.5.1h.2l-.2-.3h-1.4l-.6-.1h1l.6.2c-.2.1-.3 0-.4 0l-.5.1zm-113.7.6h-1.9l-.7.1h.4l1.4.1h.3l-.2-.1h.8v-.1zm-114.5-.8h-.2l.2-.1h-2.3.2-.9.1s.1.1 0 .1l.1.1h2.8zm214.5.5-.2.2h-.1l-.2-.1-.2.2h1.5l.2.1h.6-.6l-.6-.1h.7c0-.2-.1-.2-.3-.2h-1 .2zm-196.9-1.4h-.6.4c.2.1.2 0 .2 0l.6.1h.6c-.1 0-.2 0-.2-.2h.2l.1.1h.3l.3.1h.3v-.2h.5v-.1h.6-.3c.5.3.6.3 1.2.3l.2-.1h.9-.2c-.3 0-.4 0-.6-.2h-2.4c-.2 0-.5-.1-.8 0h-1 .6-.2zm161.2 3.3h.4-.6l-.6-.1h-3.5 2.1l.7.1h2.7-.7c-.3.1-.4.1-.4 0zm38.8-3.3-.2-.1v-.1h-1.8l-1-.2h.2c-.2.2-.5 0-.7.1l.8.1h.3c.2.1.4.2.6.1h.3c0 .1.2 0 .2 0h1.5l1 .2h1.5-.1l-.9-.1zm-97.6.7h.2l-.2-.2h-4.5 1.8s0 .1.2 0h.3l1.2.1h1zm-56.5-.8h-1.8l.9.3h.2l.1-.1h.2c0 .1 0 .1.2 0h-.1 2.3-.2v.1h1.3l.7-.1h1.1l1.3.1h.8c-.1-.2-.5-.1-.6-.2-.1 0 0-.1 0-.1h-.6.4l-.1.1c-.3 0-.4 0-.5-.2h-.5l-.2.1h-.3v.1h-.9l-.3-.1h-.3c-.4.1-.3 0-.5-.1l-.1.1h-2.2.2zm-53.2.1.4.1h2.6-.4l-.2-.1h.7s.2 0 0 0h-6.4.8c0 .2.2.2.5.2h1.1l1-.2zm-68 2.2h.2-1.1.1l.1.1h-8l-.6.2.1.1h1.1l.2-.1h9.7l1.2-.1h.8-4.1.2v-.1zm10.9 0c0-.1 0-.2.2-.2a2 2 0 0 0 -.6 0l.1.1h-1.5c-.1.1-.3 0-.4 0h-.3l-.1.1-.2-.1h-1c-.1.2-.3.1-.4.1h-1c-.1.1-.2 0-.4 0l-.3.1h-1l.3.1h4.7l1.6-.1h2.3l.8-.1h1-.4l-.5-.1h-2.1l-.4.1c-.2 0-.2-.1-.4 0zm144-.7h.1-.7l-.7-.1h-8.3c0 .1-.1.1-.2 0-.5 0-1-.2-1.4 0l.7.1h3.6l.2.1h.9v.1h.2-.1 5.5l.8.1h1.2v.1h-.5 1.6-.7 4.5l.1.1v-.1h.2l-.6-.1h-1.2c-.6 0-1-.2-1.6-.1h-3.2.5l.6.1h-.2c-.5-.3-.8-.3-1.3-.3zm-4.4-1.3h-.6a2 2 0 0 1 -.5 0h-.7l-.2-.1h.6l-1.3-.1.4.1h-1.3l-.2.1h.1c.3.1.6.2.8 0 .2 0 .4.2.5.1h2.2c.3 0 .5 0 .7.2h.1l.2-.2h4.8l.7.1h1.9l.4.1h.9l.3-.1h.6l-1-.2h.5-3.2l-1.2-.1h-3 2l.2.1h-2.9l-.8-.1h-1.7zm-96.9 1.3h-1.1l-.9-.1h-2.7v.1h.1v.1h5.3l.4-.1h7.8c.2 0 .5 0 .8-.2h-1.5c-.2-.1-.4-.1-.4 0h-.5c-.2-.1-.5-.1-.8 0h-4l-1.6.2zm228.5-1.2h.3c.2.2.5.2.8.2h.1l1.3.1h.5c.3.1.6 0 1 .2h1.5l1.1.2c.3 0 .3 0 .4-.2h-.6l-1.5-.2h-2.1l-1.3-.2h-1.1zm-184.8.9h2.4c.4.1.8.2 1.3.1h1.7l-.2-.2h-5.2zm195.2.2-.7-.1h-.8c-.1 0 0 0 0 0h-1.1l.2.1.6.1h.4c.1.1.2.2.4.1l.4.1h1.2l-.4-.2h-.7l.1-.1h.3zm-145.1-.4h6.9a2 2 0 0 0 -.5 0h-3.2l-.7-.1h-2.2l-.4.1zm-125.1.9v.1h5.5l.2-.1h-5.6zm78.5-2h-2.5l-.4.1h.5l1.1.1h3.1v-.1h-1.6l-.2-.2zm89.6 2.1h-.9v.1l.7.1h2.9-.7l-.3-.2zm-10-1.4c0-.2-.2-.2-.4-.2h-1.3l.6.1h-.7l-.1.1s-.1 0 0 .1h2.3l-.3-.1zm-149.5 1.3h2.7v-.1h-.4l-1.2-.1h-.7c0 .2-.2.2-.3.2zm262-.9-1.8-.1h-1.2l-.1-.1h-.6.1l.7.2h1.4l.5.1h1zm-153 .2c0 .2-.3.2-.5.2h-.9v-.2h-2.2l.1.1h2l1.3.1h1.4l-.2-.1h-1zm-1.2-1.7h-4.7l.2.1h4.4zm1.9.6v.1h4.9-4.7c0-.1-.1 0-.2 0zm-34.2-.3h-2.2c-.2.1-.4.2-.5.1h-.6v.1h3.1zm-27.7 1.4h-4.1l.1.1h2.6l.3.1c.5 0 .8 0 1.1-.2zm186.5.2h2-.4l.1-.1-.1-.2h-1v.1h.4l-.1.2h-.7c0-.1-.1-.1-.2 0h-.2zm-3-1h.2c.4 0 1 0 1.4.2h2.1l.4.1h.6-1.2l-1.5-.2h-2zm12-.2-1.1-.1h-1 1.3v.1h-1.3.3s.2 0 0 0h-.3l.1.1h1.6l.3.1v-.1h-.3l.2-.1c-.1 0 0 0 0 0zm-102.5-.2h3.4v.1h.3-.8c-.3 0-.5-.2-.7-.1h-.2l-.3-.1h-1.7zm-76.6 0h2c0-.1-.1-.2-.3-.2h-1.3l-.5.1zm77.6 1.2h4.2l-2.2-.1h-1l-.8-.1c-.2 0-.2.1-.2.2zm-130.1-.6-.2-.1h-2.4a2 2 0 0 0 -.7 0l.3.1zm217.3 1.6h-1.3l-.6-.1h-1.3.3l.5.1h2.3zm-78.3-.4h-1.1a2 2 0 0 1 -.6 0l-.6-.1h-1l-.2.1zm-154.8-.8h-1.2v.2h-1v.3h2.4l-.7-.1c.1-.2.3 0 .5-.2zm166.4-1h3-1.5l-1-.2h-.7v.2h.3zm-246.4 4s0 .1 0 0c.3.1.6.1.8 0h4.1zm95.7-2.4v-.1s0-.1 0 0h-1.6v.1h.4c.2.1.2 0 .4 0h.5c0 .1.2 0 .4 0h.4zm85.2-.5h-2.2l1.5.2h.5l-.1-.1zm-67.8.5h-2.9zm5.4-1.6-.4-.1h-.8s-.1 0 0 .1h1.5c.1 0 .1-.1 0-.1h-.3zm-18.8.2h-3.3 1c.3.2.7 0 1 0zm151.3-.3h-1.3v.2h1.7l.2-.1-.4-.1.4-.2h-.5zm-7.9.8h-2.4 1.1c.3 0 .6.1.8 0zm2 .2.1-.1h-1.9.1v.1h1.6zm-13.5-1h-2.7 2.6zm-86.7 0h1.7l-.9-.2h-.1zm15 1.2h-4 3.9zm68.8.5h-1.2c-.2 0 0 0 0 0-.2.1-.3 0-.4.2h.8zm-211.3 2.3h-2l-.2.2h-.1.5l1-.1zm166.2-3.9h-1.9l.4.1h1.8v-.2h-.2v.1zm154 1.8h.2l1.3.1h.4-.6l-.3-.1zm-224.2 0h2l-.3-.1h-1.7zm194.8.3h-1.3.2l1 .1h.2zm-217.2-1.4h-1.8zm218.3 3.6h.7l.8.1h.2l-.2-.1h-1.3c0-.1-.2 0-.2 0zm-60.9-4.8-.2.1c.2.2.6.1.8.1h.1l-.1-.2zm-108.4 1.7h2zm196.6-.3h-.3l.2.1h1.4l-.4-.1a1 1 0 0 0 -.6 0zm-184.7-1.5h-1.8zm-40.6 1.4h.7c0 .2.3.1.4 0v-.1h-1.1zm187.7.9c-.3-.2-.8 0-1.2-.1l.5.1zm65.9 10.5h.8c-.2-.2-.5-.2-.7-.1zm-79.6-11h-.3l-1.1-.1h-.3.5c.1.1.2.1.4 0h.7zm-39.5-.8-.3-.2h-.6l-.2.2zm94.8.7.3.2h1.1-.3c-.4-.2-.7-.1-1-.2zm-147.2-1.6h-1.2c.1.2.2.2.4.2h.4c.1 0 .3 0 .4-.2zm144.2 2.8.4.1h.5l-.5-.2zm-190.7-1.1h-1.5zm85-1h2.1l-.5-.1h-1.6zm-205.3 3.3h-1.4zm63-1.8h.8v-.2h-.8zm62-1c-.1-.2-.2-.2-.4-.2h-1v.1h1.5zm54.3 0c-.1 0-.1 0 0 0h-1.2a1 1 0 0 1 -.6 0h-.1zm-67.2.4h-1.5zm102.6.8c.3.1.5.2.9.1h.2-.5l.2-.2zm-57.3-2.4h1.1zm73.5.7h-1.6 1.5zm-64.8 0c-.4-.2-.6-.2-1 0zm-185.3 4h-2zm291.8 3.7h1.5zm-159.3-3.5h.8c.1 0 .2 0 .1-.1h-.9zm-126.4-.6h-1.2zm190.3-2v.1h1.3-1.2zm48.6-1.7.2.1h1.1-.1l-.9-.1zm-163 2h-1.2zm76.4-3.3h.6l.1-.2a1 1 0 0 0 -.5 0l-.1.1zm45.1 1.7h-.9s-.1 0 0 0v.1h.3l.5-.1zm-118.7 0h-.7l-.2.1h.1l.7.1zm46.5-.6h1zm-40.8.2h1.6-1.5zm54.8.5h1.3-.5l-.6-.1h-.1zm7.2-1.5h-1 1.1zm169 1.3h-.9 1zm-163 3.1h-1.7 1.9zm-106-1.7-.5-.1h-.7v.1zm151.3-.6h1zm-109.7-.7h-1l.3.1h.7zm129.4 0c-.3-.2-.7-.2-1-.2h-.2c.5.2.9.2 1.2.1zm-16.5.6h1.2-1.3zm104.5 0h-1.1zm-66.4-1.3h1.1-1.2zm-143.8 2h.6zm234-.7h-1.4 1.1c.1.1.2.1.2 0zm5 .2c-.2 0-.3-.1-.3-.2h-.3l-.4.1h1zm-113-1.1h.5v-.1h-.8zm-38.8 1.1h-1.7zm-91.9-1 .1.1h1-1.1zm112.7 3.5h-1.1zm-70.4-.5v.2h1.1-1.1zm-39.6-2.4h.7c-.3-.2-.5-.1-.7 0zm73.6 2.6h.6c-.2 0-.5-.1-.8 0zm-4.8-2.2h1a4 4 0 0 0 -1 0zm55.5.4h-.5v.1s-.1 0 0 .1c.3 0 .4 0 .5-.2zm-61.2-2.7h-1zm59 2.9h.5l-.1-.1h-.2l-.3.1zm41.4 3.9-.1-.1h-.7.8zm-64-5.7h-.7zm-50.5.6h-.8zm187 .6h-.4l-.2.1h.7zm-187.8.3h1.2zm26.9 1.9h-.6zm28.5-2.4-.3-.1h-.5zm5.2.6h.9-.8zm48.5-1.2h1.1zm-148.6 3h.9zm30 0c-.2-.2-.4-.2-.6-.2v.2zm87.1-4h.7zm67.8 8.2h.9zm-150.1-6.6h-.6zm-36.3-.6h.8-.7zm11.2.9s.1 0 0 0l.5.1v-.1a1 1 0 0 0 -.5 0zm-124.5 3h-1.2 1.3zm224.2-3.9h.9zm-25.4-.8h-.7zm122.5 1.2h.7-.3c-.1 0-.2-.1-.4 0zm-136.5-1.4h1zm-3-.5h.2l.4.1h.1-.8zm126.9 3.2h.6a1 1 0 0 0 -.6 0zm22-1.7-.5.1s0 .1.2 0h.4-.2zm-177 .1h-1zm-118.2 1.7h.4l-.1-.2h-.5zm25.1-.5h1a4 4 0 0 0 -1 0zm191.2-2.1-.5-.2h.6zm-277.5 6.3h-.8zm257-6.4h.2l.2-.1v-.1c-.2 0-.4 0-.4.2zm-132.7 5h-.5zm26.4-4.3h.8c-.3 0-.5-.1-.8 0zm186.1 1.4h-.6c.2.1.4.2.6.1zm-198.8-1h.7zm101.6 1.4h-1 .9c-.1.1 0 0 0 0zm-15.3-1.9h.6zm48.8-.3h1zm-176.1 2.2h.8zm13-.8h.7-.8zm11.8-1.2h-.5zm80.6 1.2h-.5zm40.2-1.8h-.6zm-212 4.3h.5-.6zm89.2-1h-1zm46.1-3.7h-.4zm1.5 2.1h.8zm25.3-2.4h-.5c-.2 0-.2-.1-.4 0zm-114.7 4-.5-.1h.5zm162-2.3c-.2 0-.2-.2-.5-.1h.5zm121.7.3h.7-.3c-.1 0-.2-.1-.4 0zm-81.9-1.1h.6zm-84.6-.7h.5zm34.6 1.6h-.3.2zm-66.7 1h.3v-.1h-.4zm116.5-1.4h-.5zm-62.4-.3h.6zm-90.7 0h.6zm217.3 9h-.5zm-110-7.1h-.6zm21 0h.6zm-43.1-2.8h-.5zm-93.3 3h-.8c.2.1.4.1.8 0zm93.6 1.5h-.8zm-31.5-1.7h-.5zm41.3-.3h-.6zm77.5-1.2h-.7zm-201 7h.5-.6zm172.2-6.3h.4v-.1zm-89.7 0h.2zm71.1.7h.4zm-223.3 2.3h.6zm85.6-2.3h.4zm251.6-.7h-.6zm5.3.4h.4zm-290.5.1h-.4c.1.1.2.1.4 0zm160 3h.3c-.2-.1-.4-.1-.4 0zm92.8-.3h.4zm-194.6-3.7h-.3zm102.8-.7h-.6v.1h.6zm101.3.3h-.7zm-136.9-1h-.6zm138.3 9.2h-.4zm-81.4-7.6h-.5zm-71-2.1c.1.1.2 0 .4 0zm91.3 1.1h.5zm-20.6-.2h.5zm-28.3 4.4h.4c0-.1-.2-.1-.4 0zm-29.7-3h.6zm-83.6-.4h.3zm112.8 3.2s-.2-.1-.4 0zm-1.9-2h-.6zm25.9-.4c-.2-.1-.3 0-.4 0zm128.2.5h.5zm-319.5.3-.3-.1h.3zm130.6-1h-.4zm-16.6-1h.4zm-92 1.3h-.5.3zm168.2-.5h.4zm-18.6.2h.4zm-72.1-1.2h.5zm76.4 0h-.4zm106.2 1.5h.4zm-110.4.4h-.4zm-97-1.5h-.3zm23.2-.9h-.3zm96.5.3h.2c0-.1 0 0-.2 0zm-96.5 1.5h-.3zm-50.8.5-.4.1h.4zm140.6 3h.4zm-169-3h.4-.3zm67.4-1.9h-.3zm82.1.8h-.3zm18.3-.1h.3zm22-.4h.5-.6zm-78.4 0h-.4zm39.4.4h.4-.3zm100.5 3.8h-.2zm-141.5-4.9h.3zm-167.4 4.6h-.6.5zm72.8-2h-.2zm237.3 4.5h.2zm-144.7-7.7h.2zm83.5.8h.3zm30.8 3.5c.1 0 .1 0 0 0h.3-.3c.1 0 .1 0 0 0zm-42.3-1.2h.4zm-113-1.6h-.2zm126-.9h-.4.5zm75.3.8h-.3zm-126.4 6.5h.4zm29.9-5.3h-.3zm70.8 6.6h.3zm-178.8-8.5h-.4zm106.1 1.6h-.2zm-132.8-.5h.3zm19.6-.3h-.2zm154.6 2.4.2.1h.2-.4zm50.1-1.5h.3zm-107.6 0 .3-.1h-.3zm-11.2-.7-.1-.1h-.3zm12.4 3.3h-.2.1zm-32 1h-.3zm31.5-1h-.1.2zm60-1h.3-.4zm-126.8-3.4h.1zm-2 4h.4zm128.3-2.6h.3zm-128.3-.6h-.4zm126.5 1.4h-.2zm-218.9.3h.3zm4.7-.4h-.2zm-28.6 2h.3zm187.6 3.4h-.2zm104.5-5.4h-.2zm-104-2.5h.2-.3c.1 0 .1 0 0 0zm-209.5 5h.2c-.2-.2-.2-.1-.2 0zm131.9-4.8h.2zm-.1 4h-.3zm-.7-1h-.5zm50.3-2.1v-.1h-.1c-.1 0 0 0 0 0zm-128.7 5h.2zm263.2-3.6h-.4zm-45 5.5h.2zm15.8-5.5h.1zm-116.7-.2h-.3zm13.6-1.4v.2l.1-.1zm137 2h.2-.3zm-153.6-.7h.3zm77-1.4h-.5.4zm-188.6 2.2h-.3zm244-.5h-.1zm-181-.2h-.2.3zm-1.6-1h.2l-.1-.1zm74 .7h-.3.2zm9 1s0 .1.2 0zm-84.5-2.4h-.1zm-107.1 3.9h.2zm228.3-3v.1h.1zm-126.9-.7h.3zm51 1.3h-.3s0 .1 0 0h.2zm116.4-.5h.2zm-118-1.1c-.1 0-.1 0 0 0h-.2zm67.3 2.4h-.2zm-70.6 1.6h-.3zm-50.7-2.6h.4zm87.7 5.6h.3zm-1.2 0s-.1 0 0 0h-.1v.1h.1zm-134.5-4.4h.2zm59.6-1.8h.2zm73.9-.7h-.2c.1.1.1 0 .2 0zm-26.8-.6h.1zm-61.8 2.8h-.3zm14.8-1.7h.2zm183 4 .2.1h-.3zm-112.1-2.6h.1zm117.7 3h.1zm-185-4.6h-.2zm120 2.5h-.2zm-53.6 4.4h-.1zm-2.1-5.4c-.1 0-.1 0 0 0h-.2zm59.6 4h.2l-.1-.1h-.1zm-268.6-.6h-.4zm116.9-4.6h-.2zm126.8.4h.2zm-234.2 3.9h-.1.2zm142.9-4.5h-.2zm.7 0h-.4.3zm167.8 8s0 .1 0 0l.2.1h-.2zm15.2-3.2h.2-.2c.1 0 .1 0 0 0zm-138.1-5h-.2zm35.9 4h-.2zm-131.3-2.6h-.5zm127.8-1.4h-.2zm-158.5 2.4h-.2zm127.5-3h.3zm78.3.4h.1zm-77.2 3.9h-.1zm-182.7.8s-.1 0 0 0h-.1zm336.8-3.2h-.2.3zm-157.3-.3h-.1zm149.1-.3h.3zm-140.7 1h-.2zm140.5-1c-.1 0-.1 0 0 0zm-5.5-.4h-.2zm-298.9 4s.1 0 0 0c.1 0 .1 0 0 0zm153-2.8h.1-.2zm136 3.2h.2-.1zm-7.4-.4h.2zm-244.2-2.6h.2zm225.2 6s-.1 0 0 0c-.1 0-.1 0 0 0zm-92.1-8.5h.2zm87.6 2s-.1 0 0 0zm-.3 2h.2zm-204.2 1.9h-.3zm.8-3.1h.2zm118-3h-.2l.1.1h.1zm.1 2.1h.2zm-110.4.9c-.1 0-.1 0 0 0zm185.4-1.6h-.1.2zm-175 .4h-.2zm155.8 7h-.2.2c-.1 0 0 0 0 0zm-5.9-7.8c.1 0 .1 0 0 0zm-82-1s-.1 0 0 0c-.1 0 0 0 0 0zm37 3v.1zm-89 2.6h-.1.2zm.3-1.8h-.1zm124.1-2.9h.2zm-73.7-.9h-.1zm-47.7 2.5h.2zm88.2.8h.2zm22.5 1.9h.1zm-87.8.3h.2zm76.2-2.8h-.2zm-2.5.5h.2zm-62.6-2h-.2zm3.7.7h.2zm56.1 0h.2zm-55.5 2.7s-.1 0 0 0c-.1 0 0 0 0 0zm-.6-1.6h.2zm6.1-2.4c.1 0 .1 0 0 0zm54.2 2.4s-.1 0 0 0c-.1 0 0 0 0 0zm0 2.7s.1 0 0 0c.1 0 .1 0 0 0zm-208.8-.6c-.1 0-.1 0 0 0zm181.5.3c-.1 0-.1 0 0 0h-.1zm-171.7-.7h-.1.2zm315.1-3h.2zm-4.3 7.6c.1 0 .1 0 0 0zm-109.2-9.1h-.2zm-77.4.1s.1 0 0 0zm83 1.4s-.2 0 0 0c-.2 0 0 0 0 0zm101.6-.3h.2zm-188.1-.4h.1zm185.2.9h.2zm-130.9 2.8h-.1zm36-2.8s-.2 0 0 0c-.2 0-.2 0 0 0zm92.6 8.6c-.1 0-.1 0 0 0zm-.2-.5s-.1 0 0 0c-.1 0-.1 0 0 0zm-2.5-7.8h.1zm-.2 4.2c-.1 0 0 0 0 0zm-140.9-5c.1 0 .1 0 0 0zm133.4 4s.1 0 0 0c.1 0 .1 0 0 0zm-193-4.6s-.1 0 0 0c-.1 0 0 0 0 0zm118.4 0c.2 0 .2 0 0 0zm-119.4 1.1c-.2 0-.2 0 0 0-.2 0 0 0 0 0zm-50.8 1.8c-.1 0-.1 0 0 0-.1 0 0 0 0 0zm100 .9c-.1 0-.1 0 0 0h-.1zm31.1-3h.1zm95.3.3c-.1 0-.1 0 0 0-.1 0 0 0 0 0zm-87.6-.6h-.1zm-130 7.4h.1zm1.2-6.4h-.2zm4.3 6.3h.1zm165-5.7c-.2 0-.2 0 0 0zm37.5-1.3c.1 0 .1 0 0 0h.2zm-198 6.8c-.2 0-.2 0 0 0h-.2.1zm164.3-5c-.1 0-.1 0 0 0zm21.5 3.3c-.1 0 0 0 0 0zm-1-5.7s-.1 0 0 0c-.1 0 0 0 0 0zm-171 6.9s-.1.1 0 0c-.1.1-.1.1 0 0 0 .1 0 .1 0 0zm103 0c.2 0 .2 0 0 0h.2s0-.1-.1 0c0-.1 0 0 0 0zm52.7-6.8c-.1 0-.1 0 0 0-.1 0 0 0 0 0zm-.1-.5c-.1 0-.1 0 0 0-.1 0 0 0 0 0zm-5.3 1.4s0 .1 0 0zm35.9.3c.1 0 .1 0 0 0zm-86 5.4s.1 0 0 0zm-.6-5.2s.1 0 0 0c.1 0 .1 0 0 0zm6.8 2.4s-.1 0 0 0zm-8.5-2.3s-.1 0 0 0c-.1 0-.1 0 0 0zm-.9-.1c-.2 0 0 0 0 0zm-68.2-2s.1 0 0 0zm193.1 8.9c-.1 0-.1 0 0 0zm-186.5-7s0 .1 0 0c0 .1 0 .1 0 0zm91.8.5s.1 0 0 0c.1 0 .1 0 0 0zm-42.3-2.4s0 .1 0 0h.1zm4.3 4.2h-.1zm-201.2 1.5c-.1 0-.1 0 0 0h-.1zm199.7 1.5c.1 0 .1 0 0 0z" fill="#f5663e"/></svg>