<svg fill="none" height="22" width="502" xmlns="http://www.w3.org/2000/svg"><path d="m233.5 3.6-.4-.1h-5.9l-.2.2h-3.2a7.3 7.3 0 0 0 -1.8.1l.2.2.8-.2-.1.2h.3c.6 0 1 0 1.5-.2h.6l-.4.1h1.5-.9c.4-.2.7-.1 1-.1h1-.7l.2.1h1.1c.3-.2.6-.2.9-.2h.7-.2c.4-.2.4-.2.6 0l.6-.2.3.1h-.6l1 .1v.3h-2.1l-1.8.1h-.5c-.2.2-.6.1-1 .2l.2-.2-.7.2.1.2c.3-.1.5-.1.8 0h1.8c0 .2-.2.2-.3.2h-2.8s.5 0 .3-.2a1.6 1.6 0 0 0 -1 0h-.4c-.2.1-.2.1.3.1h.4a1.7 1.7 0 0 1 -.9 0h-1v.1c-.7 0-1.4 0-2.1.2l.3-.4h.8l-.5.2h1.6l-.2-.2h-.4.2-.6l-.4-.2a19 19 0 0 1 -1.8-.1h-1.3l.2-.1h1.2c.4 0 .4 0 .5-.2h-.5l.7-.2h-3.2l-.3.1.1-.1h-2.1a4 4 0 0 1 -1.1 0 3.7 3.7 0 0 0 -1.4.1 2.3 2.3 0 0 1 -1 0 2 2 0 0 0 -.2 0l-4 .1h-.2l1 .1h.5a3 3 0 0 1 1 0l-.4.2v.1h-.3l-1.7.1h1c-.4.1-.9 0-1.1.2a17.5 17.5 0 0 0 -1.1-.2 14 14 0 0 0 -1.9.2l-.3-.1h-.7c.2-.1.3-.2.4-.1a1 1 0 0 0 .5 0l.4-.1h.3c0-.2.6-.2.7-.3l-1.4-.1c-.2.1-.8 0-1.2.2h1.1-.6l-.5.1-.4.1.5.1-1.3.1.4.2h-1l.4.1h.3l.3.1-1 .1h-.4l-.8.1a5 5 0 0 1 -.3 0h-2 .3-1.2l1.1-.3h-.8l-.7-.1h-3.7l.1.2h-.3l.2-.2h-4.5.2c0-.1.1-.1.2 0v-.5h3.1l-.6.1h3.2l-.3-.1h1.3a12.9 12.9 0 0 0 1.9.1h.8l-.4-.2h1.4l.2-.1a13 13 0 0 0 -2 0h-.7l.9.1h-.3c-.5.1-1 .1-1.6 0h1l-.2-.1h-1.1l.1-.1h-.7.2-.8a37.3 37.3 0 0 1 -4.8.2l-3.2.1h-5.4v.1l-3.2.1c.2.2.6 0 .8.2h-.5c0 .1 0 .2.3.2h.3l1.4-.2h.2l.4-.1.9.1 1.3-.2c-.1.2-.5.1-.7.2h2.8l-.4-.2h.6c0 .2 0 .1.3 0h1.1-.7l.4.1h1.2l-.6.2h-1.2l-.7.1c-.2.1-.3 0-.4 0h.2v-.1h-1.8l-.7.1a3 3 0 0 1 -.8 0h-.2l-1 .3h2.3l-.8.1h-1.6a3.9 3.9 0 0 1 -1.7 0l.3.2-1.5.1.2-.1v-.1h.6l.3-.1h1.3l.4-.1-.1-.1-.2-.1h-.4.2-.7l-1 .1h-1.5a8 8 0 0 0 -.5.2h.4l.4.2h-1.8v-.1l.6-.1h-.6l.1-.3h-1.8v.2h-.8l1.7.3c-.8 0-1.6.2-2.3.1v-.2l-.4.2-1.4.2-.1-.2c.2 0 .4 0 .4-.2l-1.2.1.3.2-.5.1h-.4a3 3 0 0 0 -1.2-.1l-1.1.1h-.4l-.3-.1.3-.1h2.2l.4-.1h-1v-.2l-.7.2h-.9l.3-.1a3.8 3.8 0 0 0 -.9.1h-.7l-.8.1h-2.4l-.5.1h-1.2a19.9 19.9 0 0 1 -2.3.2v.2l-1.5.1h.6l-.3.2h-1.4l-2 .1h-1l.2.1-.4.1h-.3c0 .2-.3.2-.4.3h.8l2.4-.2a2 2 0 0 1 .6.1l-1 .2h1c-.6 0-1.2.2-1.8 0v.1h-.8.8l-.4-.2h-1.8l.4.2h-.3c-.2.2-.6.2-1 .2s-.7.2-1 0l.7-.1-1-.2-.1.1.3.1h-1 .5l-.2-.2h1.3c.4-.1.5-.2.5-.3h1.5c0-.1 0-.2-.3-.2h-2.3c.3.2.7 0 1 .3h-1l-.2-.5 3.7-.1h-1.1l1-.2-1.4.1h-1l-2 .1h-.5l-1.3.1h-.3l-1.4.1h-1.2v-.2l-1.4.1h-.1l-.2.1h-.7.3c-.3.2-.3.2-.4 0h-.3.3-1.6.7v.1h-1.3l-.4.2h.5c0 .2-.3.3-.7.3h-1.7a76.9 76.9 0 0 1 -2.4 0h1-.2l.3-.2a3.6 3.6 0 0 0 -.8 0 3.3 3.3 0 0 1 -1.2 0h-.5a1.6 1.6 0 0 1 -.7.1h-.8l.4-.1h-.4.3v-.1c-.1 0-.2 0-.1-.2h.3l1-.1 2-.1h1.5l.6-.2-2.8.1-2.8.2v-.1h-1a.8.8 0 0 0 -.6 0 3 3 0 0 1 -1 .1h-.8.2v-.1h-1l-.2.1h-.3l-.9.2c-.3 0-.7.2-1.1.1l-.5-.2a5 5 0 0 1 -1.2.2h-1.6c-.5.2-1.1.1-1.6.1h.3a3.7 3.7 0 0 0 -1.3 0h-.5c-.5 0-1-.2-1.6 0h-.8c0 .2-.7.1-1 0h-1.1l1-.1h-1.9l.6.1h-.8l-.3.2h-.6s.1 0 0 .1l-.8.2a2.4 2.4 0 0 1 -1 0 1.5 1.5 0 0 0 -.7 0h-1.5v-.3l.6-.1c-.7 0-1.5 0-2.2.2l-.3.1c-.3 0-.5 0-.7.2h-.3c0-.1 0-.2-.3-.1h-.7l.5-.2-1.5.1.1.2h-.2l-.5.2-.9.1h.5c-.2-.2-.4 0-.7-.1l.5-.1a4.7 4.7 0 0 1 -1.7-.2l.9-.1h-1.8l-1.5.1h-2.4l-.8.1h-.3c-.1.2-.6.1-.9.1l-.6.1h-.7l-.6.1-.2-.1h.6l1.9-.2h.2-2 .4l.7-.1h-.2l-2.4.1c-.3 0-.3 0-.3.2l-1.7.2v-.3h-.9l-1.4.2h-.6c-.1-.2-.3 0-.5 0l-1.2.1a4 4 0 0 0 -.5 0l-.2.2h-.1a2 2 0 0 0 -.9 0h-1.6c-.3.2-.8 0-1.2.1-.4 0-.7 0-1 .2a.5.5 0 0 1 -.3 0h-1.3l-.2.1h-.7.4-1.5.6l-.3-.1a11 11 0 0 0 -1.7.1h-.2l1.2-.2h.1c.2-.1-.1-.1-.2-.2h.5l.4-.1h-1.1a1.4 1.4 0 0 0 -.6 0l-1 .2a5 5 0 0 0 -.5 0h.5v.1h-.2l-.6.3h-.7c-.2 0-.4 0-.6.2.3-.1.6 0 .8 0h.9-.5l-1 .3c-.2.2-.4.1-.6.2h-.6a4 4 0 0 0 -.7.1h-.3c.5 0 1.1 0 1.5-.3a5.1 5.1 0 0 1 -1.8 0h.2l.4-.1-.4-.1.7-.1-2.3.1h.1l1.1-.1.4-.1.2-.1a62 62 0 0 0 -3.8.2l.6-.1h-.3c0-.2.1-.2.3-.2l1.2-.1 1.3-.1h.8v-.2h-.8v-.2c-.4 0-.7.2-1.1.1h.3l-.4-.1-.2.1c-.4-.1-.6 0-1 .1l-.6.1v-.1h-.5l-.2.1c.2.2.4 0 .6 0l-1.2.3.2-.2h-1 .7l.3-.1h-1.4l.5-.1-1.7.2h.4l-.4.1h-.6c-.2.2-.3 0-.6 0l-.1.1-.9.1h-1.6v.1h-.4l-1 .2c0-.1.3-.2 0-.2l-2 .2-.5-.1h.6l.2-.1h.4-2.1l-.4.2h-1.2.1l.6-.2.5-.1h1l1-.1h-.3l1.3-.3-5 .4v-.2h-.5l-1 .2h-2l-.7.1-1 .1a8.9 8.9 0 0 1 -1.8.2h-.1l1.5-.3h.7a111.8 111.8 0 0 0 3-.3h-2.6l-1.4.2h-.2c-.7 0-1.4 0-2 .2h.2-1.7l-1.1.1h-.3l-.5.2h-1.3l.8-.1h1l.7-.2h-1.2l-2.8.3h-1.2l-2.7.3-3.6.4h-2.1a6.9 6.9 0 0 0 -1.4 0l-3.1.5-1.3.2h-.5l-.5.1-1.3.2h-.3l-2.6.3-2.6.3-2.1.3-2 .2-3.2.4h-.2 1.1c0 .1.3 0 .4 0h.6l-2 .4-1.3.2c-.4 0-.6.2-1 .1l-.3.1h1.4l-.7.2c0 .2-.3.3-1 .4h-.2l-.1.1 2.3-.2-.5.3a22.1 22.1 0 0 1 -2 .4l-.2.3h2.5-.3s-.4 0-.2.2h-.3l-.8.2h.7v.2h1.6c.1 0 .1.1-.1.2h-.8l-.3.1a7 7 0 0 1 -1.4.3l.3.1-.3.1h1l-.6.1h.4l-.2.1a7.6 7.6 0 0 0 1.1 0l.4.2h-1 .2a3 3 0 0 1 -.5 0l-.4.1-.3.2.2.1c.3 0 .5-.2 1 0l-1.4.1v.2h1.1-.4l.4.2c-.3.1-.3.1-.2.3h1l-.1.1h-.3l-.5.2h-.4c.1.1.2.2.5.1a.7.7 0 0 1 .3 0l.6.1h.9l-.5.2-.4.1-.6.1h.6a2 2 0 0 1 .7 0c0 .2-.6.1-.4.4h.9c-.3.1-.7 0-1 .2h.8c-.3.2-.7 0-.8.3.5 0 1-.2 1.6 0h-.5v.1l-.6.1-.2.3h2.2l-.7.2-.7.1c.3.2.3.2 1 .2h-.6c0 .2.3.2.4.2h.5c0 .1-.5 0-.6.2h.5-.4l-.2.1h-.3l.3.2c.2 0 .6-.1.8 0h.8l-.4.1.2.1h-.4l-.1.3h.2l1-.2-.3.2.3.1.3.1.5.1 2-.2c-.2.2-.6.2-1 .3h.4l1.7-.2 2.4-.4 1.8-.2a50.4 50.4 0 0 1 2.1 0h-.3l1.5-.1h-.3v-.2l1.3-.2h.5l.4-.2.4-.2h2.1c.1-.2.2-.2.4 0 .2-.2.5-.2.9-.3h.7l-.2.1 2.8-.3v.1h.7-.2v-.1l.7-.1 1.7-.2.4.1h.5c0-.2.3-.2.5-.2h.8l1-.2.7-.1h.4c.3-.2.7-.1 1-.1h1.1a11.2 11.2 0 0 0 1.9-.2h.7l1.5-.2c.1 0 .3-.2.2-.3l-1.6.2h-1.2l.1.1h-.7.6c.4-.2.8-.3 1.3-.3h1.6l.8-.2h1l.4-.2h.6c-.3.2-.3.2-.7.2l.2.1h.3a1.8 1.8 0 0 1 .7 0h.6a11 11 0 0 1 1.9 0l-.3.1c.7 0 1.3 0 2-.2l-1.4.1.2-.2.5-.1.5-.2h2.3l.6-.1h-.2c.1-.1.4 0 .3-.2h2a2.2 2.2 0 0 0 1 0 13 13 0 0 1 2.3-.1c0-.2.3-.2.6-.3a3.4 3.4 0 0 0 1.5 0h.8l.6-.1c-.3-.2-.7 0-1-.1h.3v-.1h.7a2.3 2.3 0 0 0 .9 0h2.1l1-.2h2.5l1-.2h.2l1-.1h.4l1.2-.1h.9l.6-.1.8-.2h1.6l1.6-.1h1.5-.4l-.4.1c0 .1-.2 0-.4 0h-1l-1.4.2-2.3.2a8 8 0 0 0 -.6 0l-.2.2h.6l1-.1h1.5c.5-.2 1-.2 1.6-.2l1.6-.1 1.9-.2h1l.8-.1a1.4 1.4 0 0 1 .5 0l.9-.1h1.2l2-.1 1-.1 2.3-.2 2.5-.1.8-.2h1.3l4-.2 3.3-.3h.6c.5 0 1.1 0 1.6-.2.2.1.4.2.7 0a.6.6 0 0 1 .2 0 8 8 0 0 0 1.7 0l1.8-.1h1.3l.6-.1h.9l2.6-.2.4-.1h.3l.2.3.8-.2h-.5l.7-.1h.3l1.8-.1.8-.1h.6c.2.1.3 0 .4.2.1 0 0-.2.3-.1h.1l1.3-.2h2.1l.9-.1h.4v-.2l.4.2.1-.1h1.5l.4-.1h1-.2l-.2.1h2l1.3-.1h.1c.2-.1-.2-.1 0-.2h.3s.3 0 .2.1h2v.1h.4c0-.2.2-.2.4-.2h.2l.3.2h.8l.3-.1-.1.1h2.1v-.2a1 1 0 0 1 -.6 0h.5l.4-.2h.6-.5c.2.2.5 0 .6.2l.4-.1.4.1.2-.2.3.1h-.1l.4-.2h.5c-.1 0-.5 0-.4.1h1.2l-.4-.2h.6l-.1.1h2.5a4 4 0 0 1 .8 0v-.1h4.5l1-.2.4.1h1.5l1.6-.1h.5l.4-.1.5-.1h3-.5l.9-.1-.2.1h1l-.3-.1.5-.1h1.8-.2v.1h1.4l-.2-.1h4.8l.9-.1h-.3a4 4 0 0 1 1.1-.2h3.1l.6-.1-.1-.1h5.9-.3 1.1-.2a.8.8 0 0 1 .5 0h1.8s0-.2.2-.1h2.4l.5-.1h4.1l1.3-.2h4.9c.8-.1 1.6 0 2.3-.2a3 3 0 0 0 1.3 0h3.3l.4-.2.4.1h6.8l2.3-.1h4.6l2.2-.2h9.4l2.7-.1h3l.6-.1h.6-.2 1.2c.5 0 1 0 1.4-.2l.4.2h.5a2.5 2.5 0 0 1 1 0h7.1v-.1h11.7a1.7 1.7 0 0 1 .8 0h1.3c.2 0 .4-.3.8-.1.3-.2.5-.2 1 0h6.1a31.7 31.7 0 0 1 3.4 0h1.3a.4.4 0 0 1 .1 0h7.8a1.8 1.8 0 0 0 .5 0 1 1 0 0 1 .5 0h1.1l1.2-.1h1.6c.2.1.3.1.4 0h3.9a1.7 1.7 0 0 0 .6 0h2.2a2.5 2.5 0 0 1 1 0h6.3a9 9 0 0 0 1 0h1.8l.9.1h2.2a12.2 12.2 0 0 1 2.2 0h2.2c.3.2.7 0 1 0l1.6.1h6.6l1.1.1h3.3-.4 1.2-.4 7.6-1.1l.3.1h.8a1.8 1.8 0 0 0 .6 0l.4-.1h2.4l-.2.2h.8l-.5-.1h5.1-.4l4.2.2-2.9-.1h5.8-1.5l.3.1h4.7-.4a2.8 2.8 0 0 1 .7 0h2.2a2.8 2.8 0 0 1 1 .2l.5-.1h2.5c.2 0 .3.2.6.1h.6a1.2 1.2 0 0 0 .5 0 1.5 1.5 0 0 1 .7 0h-.2 7.4v.2l.8-.1h1.9a9.5 9.5 0 0 1 1.6 0h1.5l1.6.1h2.1l1.8.1 4.2.1 3.7.1h2.6l3.1.1h3.1l2.3.1h2.4c.7.1 1.5.2 2.2.1l1.3.1h3l3.1.1 3 .1 4.4.1h.3c-1-.1-1.9 0-2.8-.2h5.6l4 .2h8.5a9.8 9.8 0 0 0 2.2 0h2.3l-.2.1h7.2a6.7 6.7 0 0 0 1.4 0h1.3c.8.1 1.7.2 2.6.1h.4-.4 1.4c.1-.2.4-.2.6-.1h-.3 1.3-.7 1.3l1.1.1h-.4l.1-.1h2.2a44.9 44.9 0 0 1 4.2 0l.2.1h.1l.1.1h.4a4 4 0 0 1 1.6-.1h4.5l-.1-.2h-2.5a37 37 0 0 1 -4.4-.1h-6.5l-2.5-.1-1.3-.1c9.5 0 19 .3 28.6.4l-2.6-.1-.3-.2c.2-.1.5 0 .8 0h3.3a40.1 40.1 0 0 0 4.6.2h1.2-.6l.5-.2h1.6l-.2-.1h1.2v.2h1.7-.6c.3 0 .6-.1.8 0h.3l.6.2-.2.2.7.3.9.2h1c-.1.1-.1.2 0 .2l.1.2.7.2h.7l.2.2h.8v.4h.9l.2-.2h.8l.4-.2c.1 0 0-.2-.4-.3a1.4 1.4 0 0 0 .5 0l.2-.2-.1-.3.9-.7h.3v-.1a1.2 1.2 0 0 1 -.4 0l-.1-.1v-.1l-.2-.1c.1-.2.5 0 .6-.1l-.4-.1.2-.2.1-.2-.4-.1.8-.1c.2-.2 0-.2-.2-.3l-.2-.2.2-.1h.4l.4-.1-.2-.1c-.3-.1-.3-.2-.1-.3h.6c.1-.2-.2-.2-.3-.3l.1-.2.4-.3c-.1-.2-.1-.2.3-.2l.1-.1v-.1c-.1-.1-.2-.2-.1-.3l.3-.3.4-.1v-.2c.4-.2.4-.2 0-.3l.6-.4c.4-.1.1-.2 0-.2 0-.1 0-.3.3-.3l.1-.2v-.1l.1-.3.3-.2c.5-.1.4-.4.5-.6l.1-.2.3-.2-.4-.1.1-.2c.2 0 .2-.2-.2-.2 0-.3-.3-.3-.6-.3l-1-.2a3 3 0 0 0 -.9-.2l-3.2-.1-3.4-.2-1.8-.1-2.3-.1-3.4-.1a58.2 58.2 0 0 0 -4.3-.1c-.2-.1-.5 0-.8 0l-.8-.1h-4.7l-2.4-.1h-5.1a55.4 55.4 0 0 0 -6 0l-1.9-.1h-4.7l-2-.3h-8.6l-.5-.1h-1.5l-3.3-.1a45.6 45.6 0 0 1 -5.8-.2h-.2a6.8 6.8 0 0 0 -1.8 0h-1a21.5 21.5 0 0 0 -3.2 0l-.3-.1c0-.2-.4-.1-.6-.1h-4.7a18.2 18.2 0 0 1 -1.5-.2h-1.8a19.4 19.4 0 0 1 -1.5 0h-.3a14.2 14.2 0 0 0 -2.4 0l-.5-.2h-4.6l-1.2-.1h-2.7l-1-.1-.7.1h-.2l-.7-.2h-2.9a3 3 0 0 1 -.5 0h-1a3.4 3.4 0 0 0 -1.4 0h-1.3.3s-.1-.1-.2 0h-4.3l.2-.2h-.8a4 4 0 0 1 -.8 0h-1.1c-.3.1-.5.1-.8 0h.4-4.8l2.2.2h-3.2l-.7-.1h-2.2l.2-.1h2.3l-.4-.2h-2.4.3-2.7.2c-.1-.1-.3-.1-.4 0h-1v.2l-.4-.1a3.3 3.3 0 0 0 -.8 0 2 2 0 0 1 -.6 0 1 1 0 0 1 -.3 0l.5-.2c-.3 0-.6-.2-1 0h-.7.1v.1h-1.4c0-.2.4-.1.6-.2h-2.4l.7.2h-3.8a62.7 62.7 0 0 1 -5.5 0c0 .2-.2 0-.4 0h.2v-.2h-.6a2.4 2.4 0 0 0 -1 0h-1 .7l.8.2-.7.1h-.7l1.7.1.7.1h-7.3a30.9 30.9 0 0 0 -3.2 0h.8l-.5.2h-2.9l.4.1h1.2l-.2.1h.3l-.5.1-2.7.1 1.8.1 1.8.1h-3.1l-1.1.2h-1.1c.3-.2.9 0 1.3-.1l-1.3-.1h-4.4.9l-.1.2h.3-.2v.4h.4l-.2-.2h2.9c-.2-.1-.7 0-1-.3h1.2v.3l1 .2h1a2.2 2.2 0 0 0 .8 0h1.6c-.1.2-.4.1-.8.2h.5v.1h1.8l.1.2h-2.2.2-1v.2h-.5c-.2 0-.4 0-.6.2h-1.4l.2.2h-.8l.2-.3h-1l.3.2a2.4 2.4 0 0 1 -1 0h-4.4l.1-.1h3.1l.3-.1-1.3-.1h.5c0-.2-.2-.2-.4-.2l-.4.2h-.2c.2-.3.6-.2 1-.2l.4.1h.4l.7-.2h.3-.5c-.2 0-.3 0-.2-.2h-1.3l-.1.2h-.7l-.3.1-.3-.1h-.4l-.3-.1h-.5l-1 .1v-.1h-.7l-.4.1h-1.1l-.2.1h2.3l1 .1h-.5c.2.3.6 0 .9.2l-1.3.1a16.1 16.1 0 0 1 -2 0h-.7l.3-.2-.6-.1h-.5l-.5.2c-.2-.3-.7-.1-1-.1-.1-.2-.1-.2.6-.2h-.5v-.1l1-.1v-.3l-.5.1a8 8 0 0 0 -.6 0v.1h-.6c-.5 0-1 0-1.6.2h2-.4c-.1.1-.4 0-.3.2.1.1.3 0 .4 0h.3l-.9.1h-.2l.2-.1h-3.2 1-3.3.6c-1 .2-1.3.2-1.4 0 .2-.1.5-.1.5-.3l.5-.1h.8a.8.8 0 0 0 .3 0l.1-.1h-4.8l.1.1c.1.1.3.2.5.1h1v.1h-1.1c-.2 0-.2 0 0 .1-.3 0-.7 0-1 .2l-.8-.1c.3-.2.7 0 1-.2h-3.8 2.4v-.1h-2c.8-.1 1.6-.2 2.4-.1.2 0 .3 0 .4-.2h.5-.4c-.3-.2-.4 0-.8 0h-1l.3-.1h.7c-.2-.2-.4 0-.6-.1h-2.6l.1.1h-.4l2.9.2h-.3a.8.8 0 0 1 -.3 0 1 1 0 0 0 -.5 0h-1.3c.1.2.4 0 .5.1l-.7.2h-.2l-.3.1h-.1v-.1h-.6c-.2.1-.4 0-.5.2h-.8l.2-.1h-1.4c-.4 0-.6 0-.7-.2l-1 .1.4.1-.9.1h-1.4.7l.4-.2h.5-2.6c-.2 0-.4 0-.5-.2l-.3.3-.4-.2h-.5a13.5 13.5 0 0 1 -1.4 0l.2.1-2 .1h-5.8c-.2 0-.3-.1-.1-.1.3 0 0-.2 0-.2h-.5c-.2.2-.6 0-.9 0-.2.1-.7 0-.9.3h-1.5 1l.4.1h1l-.6.2a8 8 0 0 1 -1.2 0h-.6l.2.1 1.6.1a3.9 3.9 0 0 1 1.8.1l-1.3.1c.4.2.8 0 1 .1h-1.6v-.2l-.3.1v.1h-.3l-.2.1c-.2.1-.8 0-.8 0h-.1l-.2-.1h-1.5a10.5 10.5 0 0 1 2 0l.2-.2c-.6 0-1 .1-1.6 0l.2-.4-.7.1h-1.5l1.6.1h-1.5l-.1.3h.4-1.4c.3 0 .7 0 .8-.2h-1.5l.3-.1h.8l.4-.2h-1a2.2 2.2 0 0 1 -1 0h.7a2 2 0 0 0 -.8 0l-.8.1h-1.1 1.4v.2l-1 .1h-1 2.9l.5.1h-.6l-1 .1h-2.6l.2.2h-1.9v-.1h-.8c0 .1-.2.2-.3 0l-.1.1h-1.5l-.9-.1-1-.1h-1.1a19.7 19.7 0 0 0 -2 .1l1.3.1h-3.5l-.2.1h-.4l.3-.2h-1.4l.3.1.1.1c.5 0 1 0 1.2.2h-2.3.6v-.2h-1.9l1-.1h-1.2v-.1h.2l-.2-.1h1.1c.3 0 .3 0 .5-.2l.2-.1h-1.2l-.2.1h-2l-.9.1h-1.3.6l.6.1c-.3.1-.5.2-.7.1h-2.7v.2h-.5l-.9.1h.5l.7.3h1l-1.7.1h-3.1v-.1h-.8l-.3.1-.3-.1.1-.1h.2a1 1 0 0 1 .4 0h.8l-.1-.3h-.7.4l-.3-.2h-.5l-.6.1-.4-.1h-2c-1.1.2-2.2 0-3.3.2h-.5.3-2.2v-.1h1.5v.2h.6c.1-.2.5 0 .8 0l.2-.2h-.6.8l.2.1.2-.1h2.4c.2 0 .2 0 0 .1-.2 0-.5-.2-.8 0l1.4.1.7.1a4 4 0 0 1 -1 .1v-.1h-2.8c-.3.2-.7.2-1 .2h-.4a8.2 8.2 0 0 1 -2.1 0l1-.3-1.4.2h.3-.3c-.4-.2-1 0-1.5 0l.2.1h-1.4.7l.2-.3h1.2l-.3-.2h.6-.3a1.6 1.6 0 0 0 -.5 0h-.2l-.5.1-.2-.1h-.7a6 6 0 0 1 -.5 0c0 .2.4.1.4.3h.7-.5c-.4 0-.6 0-.7.3-.2-.2-.5-.2-.8-.2a2 2 0 0 0 -.5 0 1 1 0 0 0 -.4.2v-.2h-.4l.2.2a10.9 10.9 0 0 1 -1.4 0h-.3l-.2-.1-.4-.1h-.5a12.6 12.6 0 0 1 -1.7.1c.2-.1.5-.3.5-.5h.7c-.4-.2-.4-.2-1 0h.1-.6c-.1 0-.5 0-.7-.2h.4l.5-.1h-2.5c.6 0 .6 0 .8.2h-1.3c-.1 0 0 .3-.4.2v-.1h-2.2.2zm133.8-.6h-.4.7zm-134 .9h.5-.9.5zm-112 3.3h.5-.7c0-.1.3-.2.2 0zm-49.7 8c.1-.2.4-.2.6-.1h-1.2.6zm28.3-6.7h.3c.1-.1.3-.1.4 0h-1.6.8zm288.3-6.5h-.4c.1-.1.2-.1.4 0h.7zm-309 13h-.6l-.4.1h.4c.2-.2.2-.2.7-.1h-.3l.5-.1-.2.2zm203.3-10.6v-.1h.5l-.5.1h-.5zm-33.2 1-.3-.2h1l-.8.1-.2.2-.3-.1zm-105.9 1.4h-.4 1c-.6.2-.6.2-.9.1h.3zm-135.8 14.2-1.3.2 1.4-.2h.7zm301.6-16.5h1.8c-.4.2-.6 0-.8 0h-.8l-.5.2v-.2h-.3.7zm14.6-.7h.3-.4.1-1c.8-.2.8-.2 1.2-.1zm-119.1 1.2s-.2-.2 0-.3c.9 0 1 0 1.2.2a3.2 3.2 0 0 0 -1.3.1h-.5zm95.3 0c.7-.2 1.3 0 2 0 0 0-.3.1-.4 0h-1.6 1.1-1.6zm-110 1.2-.1.1h-2.7 4.2a3.6 3.6 0 0 1 -1.4 0zm13.4 1.2a1.9 1.9 0 0 1 .8 0h-.8v.1h-1.4.8l.3-.1zm132.5-2a3.5 3.5 0 0 1 -1.6 0l.4-.1 1 .1h.2l.6-.1.2.2h-.8zm-123.9-1.3-.1-.2h1.2v.1h-1.2c-.1 0 .1.1 0 .2l-.3-.1-.5.1.3-.2h.6zm141.7-1.4-.2.1-.4.2-.4-.1.2-.2h-.4 1.7zm-118.5 1.1a3.4 3.4 0 0 1 1.2 0c-.3.1-.8.1-.8.4h-.3l.2-.2h-.7zm-149 4.4h-.2.1a11.7 11.7 0 0 1 1.4-.2l.2.1a1 1 0 0 0 -.3 0l-.2.2h-.1a1 1 0 0 1 -.5 0h-.4zm240-5.2c.3-.2.4-.2.8 0h-1 .2-1.1c-.4 0-.5 0-.6-.2a3.2 3.2 0 0 1 .8 0h.4a.8.8 0 0 1 .3 0l.1.1h.1zm-233.7 5c-.1.2-.4.2-.6.2h-.6l-.8.2h-.2l.1-.1h-1.1.2l1.6-.1 1.4-.1h.7-.7zm52.2-.7h1.8-3a2 2 0 0 1 -.6 0l-.5-.1h2.6zm-27 .3v-.1h.3c0-.1.4 0 .4-.2h-.3.4-.1.7l-.6.4c-.2.2-.2.2-.5.1h-.3zm67.7-2.4h.4c-.1 0-.3.1-.4 0l-1 .1h-1a4 4 0 0 1 -.3 0l.4-.3.4.1zm91.2-1.6-.4.1c-.3 0-.6 0-.9.2h-.3v-.2h2l.4-.1h-1a5 5 0 0 1 1.8 0h-.7.3l-.4.2.3.1h-1a5 5 0 0 0 -.3 0l.2-.1zm-132.2 4 2-.2.3.1h-.8l.5.1v.2h-1.6l.4-.2h-.8l.2.2h-.6l.2-.2zm99.4-.7h-1.7l-1 .1h-1.1.2c.4-.2.8 0 1.1-.1h3l.6-.1h4.8-3.5l-1 .1a15.1 15.1 0 0 1 -1.3 0zm4-2.6.1.1h2.1l.2-.2h1l-.9.2h2.3-5.4.4l.2-.2h.7c-.3 0-.5.2-.7 0zm89.1-1.3h-1.3s-.1 0 0 0h-3.3a2.3 2.3 0 0 1 -.9 0h1.6 3.7l.2.1h.5-.4zm-26.3.5h-.2c0-.2-.3-.2-.6-.2a1 1 0 0 1 -.3 0h-.1l-.1-.1a2 2 0 0 1 -.5 0l-.4-.1h.6l-.2-.1h-.1c.4-.1.7-.1.8 0h.1l.8.2h1.1a.6.6 0 0 0 .3 0 1.6 1.6 0 0 1 .6 0c0 .2-.1.2-.3.2h-1.1l-.4.1h-.5zm-117.2 1.3h-.4c.1 0 .4-.2.4 0h.3l-.3.2h1.2a6.6 6.6 0 0 1 -2 0h-.2c-.2.2-.5.2-.8.2l-1.2-.1h-.3v-.1h.9-.5v-.2h1.2l-.4.1h1.7-.2.3zm111.6-2.1h.4c.5-.2.9 0 1.3 0h-2.7a.5.5 0 0 0 -.2 0c-.4 0-.9 0-1.2.2h-1.3l.2-.1-.4-.1c-.4.2-.4.2-1 .1h.6l-.1-.1h-1.1c-.1 0-.2 0 0 0l-1 .1-.5-.1h-1c-.2 0-.6-.1-.8 0h-.7c0-.1 0-.2.5-.2h3.4c.2 0 .2 0 .1.1a9 9 0 0 1 1.9 0h4l-.2.1zm10.5.6h1.8l-.3.1h-3.6v.2h-.3l-.3-.2 1.5-.1h1.4-1l-.1-.1h-1.4l-1.4-.1.4-.3h-.7l.5-.2h2.1l.9.1c-.3 0-.6.1-.8 0-.6.2-1.2.2-1.9.3h2.4l.6.2h.3zm-149.8 2.9h-.4c-.2 0-.3 0-.2.1h2.8a155.8 155.8 0 0 1 3.7-.2h-.6c-.3.2-.7.2-1.1.2h-1l-.3.1h-1.3a1 1 0 0 1 -1 0c0 .3-.3.2-.5.2h-.2c0-.1.4 0 .5-.2a5 5 0 0 0 -.4 0l-1.1.1h-.5l-.3-.1c.3 0 .6-.2 1 0 0-.1-.3-.2 0-.3h1.6l1.4-.1h.4l-.2.1h-2.2zm33.8-.9.3.1h7.4l.1-.3-.4-.1c.3 0 .3 0 .5-.2.3-.2.8-.2 1-.1l.7.2h-1 .2l-.5.2v.1l-.4.1h2l-.6.1h-1l-1.6.1h-4.8a16.4 16.4 0 0 0 -2.3.2h-5.9v.1h-1l.1-.1h-3l-1.4.1a2.4 2.4 0 0 1 -.8 0h.3l.3-.1h4.6l2.6-.2h4.4l.2-.1.6-.1h.7zm161.2-3.1v.1h-.9c.3.1 0 .1-.2.2l3.1.1-.1.1h-2.6l-.3.1a1.5 1.5 0 0 1 -.5 0h-1.9.9l-.1-.1c-1-.1-1.9-.2-2.8-.1l-.2.1h-.4v-.1h-.5a7.6 7.6 0 0 1 2-.1h.4a10.6 10.6 0 0 1 2.2 0l-.5-.1a3.3 3.3 0 0 0 -1 0l-.1-.1h-4.2a1.3 1.3 0 0 0 -.5 0c.5.1 1 0 1.4.2h-2l.4-.5h1.6v.1h-1 6.5l1.1.1zm-144.2 2.5a4.7 4.7 0 0 1 -1 0h-.6a2.4 2.4 0 0 1 -.9 0h-.1v.3h-.3c.1-.2.2-.3.6-.3h-.1l.1-.1h.7l.1.1c.2-.1.5 0 .8 0l-.2-.2c-.5 0-1-.2-1.6 0l-.4-.1h-.9l2.3-.4h1l.6-.2h1.2l-.6.2h.6l-1 .3 1.2.1-.3.1h.6l-.4.2h-1.2l-.2-.1zm80-.8-.9.1h-1.4c-.1 0-.5-.1-.8 0h-1.9a1.2 1.2 0 0 0 -.6 0 1 1 0 0 1 -.6 0h.2l.9-.1c.2 0 .7 0 .7.2l.4-.2c-.3-.1-.8 0-1-.2h.6l-.3-.2h1.5l-1 .1h-.1c.2.2.6.1.9.2h1.8l.3-.2h-1v-.1h.8a3.5 3.5 0 0 1 1.4.1c-.3 0-.6 0-1 .2h1.3l-.6.1h.3zm70.1-1.3 1.5.1h2l1.2.1h1.1l-.7.1h-.1l.2.2h-.6v-.2a8 8 0 0 0 -.3 0h-.7l-2.3-.1h-2l-1.8-.1.1-.2h-.3l.4-.1h.7c.2-.2.4 0 .7 0h-.4 1.2-.3 1.3-.6l.4.1h-.7zm-184.6 3.3-1.5.1h-2.3c-.3.1-.5 0-.8 0a1 1 0 0 0 -.4 0 2.4 2.4 0 0 1 -.9 0l-.5.1-2.3.1h-.8v-.1h2.9l.4-.1h1.7l3.7-.2h.5zm34.2-.7h2.1l.6-.1h5.8c.3-.2.7 0 1 0h.1l-1.3.1h-1a4 4 0 0 0 -.7 0l-1.1.1h-.7a16.2 16.2 0 0 0 -1.6 0 3.6 3.6 0 0 0 -1.4 0h-2zm31.6-.4h4.4a20.8 20.8 0 0 0 3 0h4.4a11.6 11.6 0 0 1 -1.8 0h-3.1a46.9 46.9 0 0 0 -2.4.1h-.5c-.2 0-.7 0-1 .2h-.3v-.2h-2.7zm32.5-1h.7l.5-.1h.5a2 2 0 0 1 1 0 .6.6 0 0 0 .2 0h1-.2l.5.1-.2.1a.8.8 0 0 1 -.3 0h-.4c-.4.2-.9.1-1.3.2h-.2l.1-.2h-.9l.3.1-1.3-.1zm-42 1.3h1.5v-.1h-1.2l1.8-.1 1.3-.1v-.1h.7l-.4.1h1.1-.2c0-.2.3-.1.5-.1 0 .2 0 .2.3.2h1-.7c-.3 0-.6 0-.8.2l-.4-.2v.2h-2l.1-.1c-.3 0-.5.2-.7.1 0 .2-.2.1-.3 0a2.8 2.8 0 0 0 -1.1 0 5 5 0 0 1 -.6 0zm116.2-3.8h-.6a1.1 1.1 0 0 0 -.5 0 4 4 0 0 1 -.8 0h-2.4l-.5-.1v-.2l-.3-.1h3.9l.9.2.2.1zm-96.9 3h4.9l-1 .2h-1a42 42 0 0 0 -3.8 0l.3-.2h.3l.4-.1h2.7-1.2a.3.3 0 0 0 -.2 0h-1.4zm-114.6 2.3.4-.2h2.1a52.5 52.5 0 0 1 1.8 0l-.2.1-.2-.2-1 .1v.1h-.3l-.3.1h-1c-.4.1-1 .1-1.6 0l-.5-.1h.8zm211.4-5.1a7.7 7.7 0 0 1 2.4 0h3-1.5c-.2 0-.2.2-.3.2h-.6c0-.2 0-.2-.5-.2zm-210.6 6.3h-1l-.8.1h-1 .2c0-.2 0-.2.4-.2h.2l-.8-.1 1.8-.1-.7.1h1.1c.4 0 .5 0 .6.2zm145.7-3.8a4 4 0 0 1 -.3 0 1.9 1.9 0 0 0 -1 0 2 2 0 0 1 -.3 0h-.3l-.6-.2-.7-.1a3.1 3.1 0 0 1 1 0l.6.2a28.2 28.2 0 0 1 2.8-.2l-1.1.2v.1zm-124.4 3-1-.1h2.3l-.3.1h2-.2l-1.7.1h-1.9zm-27.8.6a44.8 44.8 0 0 1 -3.7.2h.4c-.3-.2-.6 0-1-.2h2.2-.5zm-86.4 2.7-3 .3c.1 0 .4 0 .3-.2l.2-.1h-1c1-.2 2.1-.3 3.1-.3l-1.8.3.5.1h1.7zm227.6-5.3.6-.1h4.8l-.5.1zm76.7-3.6 1-.1h3.1l2.1.1h.3a21.2 21.2 0 0 0 -2.1 0zm-48.2 1.3h1.8l1.6-.1 1 .1s-.2.1-.4 0a1.7 1.7 0 0 0 -.9.1h-3.1zm48.8-1.8 1.2-.1h2.6a3.4 3.4 0 0 1 1 .1zm-.6 0h-3.8l-1.2-.1c.4 0 .8-.2 1.1 0l.8-.1a41.7 41.7 0 0 1 3.1.1zm-22.6 3.1h.8-1.7-.3l.5-.1c-.1-.2-.2-.2-.5-.2h-.5l.2-.1h1l.1.1.2.1 1.1.2zm-205.3 2.8h2.1a1 1 0 0 0 -.4 0l-.2.1h-.2l-.2.1-2.8.2h-.3l2-.2zm244.7-4.3h-.1c-.5 0-1 0-1.3.2h-1.8l-.3-.3h3.3l.3.1zm-64.5.8-1.7.1h-1.6a7.1 7.1 0 0 0 -1.8 0h-.9a1.7 1.7 0 0 1 -.7 0 19.4 19.4 0 0 1 2.7 0 .8.8 0 0 0 .3 0l.1-.1v-.1l1 .1h2.7zm10-.2h-1 .3l-.2-.2.6-.3 1.2.1h-.3v.1h.7c-.6.2-1.3 0-1.9.3zm128.8 8.6-.2.1h.8-3.4a2 2 0 0 1 -.7-.1c.5-.2 1 0 1.5 0h.1l.7.1h.7zm-126.6-7.7h2.5l.8-.1h.9l-1 .3.2-.2-1 .1h-1.2zm-78 .2c.7-.1 1.4 0 2.1.2h-.5a5.3 5.3 0 0 0 -.8.1h-.3a1.1 1.1 0 0 0 -.6 0h-.4l.3-.1h.8l.2-.1h-.9zm-137.3 9.8a12.4 12.4 0 0 0 -1 0h-.2.7l-.4-.1 2.4-.2-.4.1v.1l-1.4.2zm125.2-9h3.8-.6a2.9 2.9 0 0 0 -1 0l-.5.1h-.8l-.8-.1zm-.6.2h-2.9l-.3-.1h.2l.5-.1h2l.6.2zm70.8-2.2h.1a29.1 29.1 0 0 1 2.3 0h2-.6l-.7.2h-.2a3.9 3.9 0 0 0 -1.7-.2l-1.3-.1zm37.1.6.2-.1 1.1-.1.8.2-.8.2-.9-.1h.7l-1-.1zm-73.9 1.8h-.7l-.7.1c-.2.1-.5 0-.8 0h.5-.1c-.4 0-.7 0-.9-.2h-.7 2-.8 2.2zm98-3.1h2.5a2.6 2.6 0 0 0 -1 .2h-.7c-.2 0-.2 0-.1-.2zm-166.3 4.7c0-.2.5 0 .5-.2h-1.6l-.2-.1h3.1l-.8.2h-1zm114.6-3h-.1c-.4.2-.8 0-1.2 0l-.8-.1.5-.1 1.6.1zm-178.1 3.1h-.5l-.1.1h-1 .1l-.1-.1h1.1l.8-.1h.7c-.4.2-.9.2-1.4.2zm27.7-.6 3-.1c-.3.1-.8.2-1.2.1zm-118.7 2.4-3.7.3c.2-.1.6 0 .8-.2h-.6l.8-.1v.1l1-.2h1.7zm97.4-2h.3a11.5 11.5 0 0 0 2-.2h1.1l.4.1h-2.1a15.7 15.7 0 0 0 -1.7.2zm-12 1.1c.4 0 .7-.2 1 0h1.9-.8l-1.2.1h-.4c-.3.1-.2-.1-.5-.1zm185.2-4h1.1a1 1 0 0 1 .4 0h.7-.2l-.5.2h-.2l-.4-.1h-1zm-237 5.5 2.1-.1-.1-.2h1.6c-.3.2-.7.2-1 .2h-.5c-.7.1-1.4.2-2 .1zm18.7 5.1-3.8.3v-.1h.2l.2-.1h2.5a2.1 2.1 0 0 1 .9 0zm256.4-12.6h2.6-1.1c-.7 0-.8 0-1 .2a6.8 6.8 0 0 1 1 0c-.6.1-.8.1-1.5-.2zm-81.5 1.7 1-.1.5.1-.4.2h.3l-.1.1c-.4 0-.6-.2-1-.1zm-129.7 3.9c0-.2.4-.2.6-.2h2.4-.4l-.5.1h-2zm86-1.9h-1l-1.3.1h-.4l.2-.1zm-27.7-.7h-.2l-.2.1h-.8.5l-.3-.1.3-.1a10.7 10.7 0 0 0 -1 0h-.3 2zm168.7-3.5-.3.1h-2.2v-.1h.2a7.7 7.7 0 0 0 2 0zm-261.7 8.1h.6c-.3 0-.7.2-1 0h-.6l-.2-.2h.8l.4-.1.4.2h-.4zm55.6-3.7h1.9l-.7.2h-.8v-.1h-.4zm101.2-1c1-.2 2-.2 2.9 0zm-56.5 1v.1h-1.6c-.5.2-.5.2-1 0h2.6zm-141.3 3.5-3.7.3 1.8-.2h1.9zm147.8-4h.6l3.5-.1h.2-2.8l-1.1.2h-.4zm29.6-.9h-.2 1c.4 0 .8-.2 1.1-.1-.7.2-1.4.2-2 .2h.1zm-142.4 3.1-.1.1h-.9l-1.2.1h-.2l2.3-.2zm-32 1.5-.2.1-1.4.1h-1.4l2.8-.2zm-50.3 12-3.6.4a19 19 0 0 1 3.6-.4zm307.2-17.8a4.1 4.1 0 0 1 .9 0l.3-.1h1.5v.1h-2.6zm-58.5 1.7c.2-.2.5-.3.8-.3h1.2c-.4.2-1 .1-1.4.1 0 .2-.2.2-.6.2zm-112.4 3h.5l.7.1-.5.1h-.5v-.1h-.4zm211-6.3c-.3.1-.5.2-.8.1h-1.2v-.1h1.9zm-84 3.3h-1.8c.2-.2.2-.2.5-.1h.6l.7-.1zm-193.3 9.7-1 .1h-.8c-.2 0-.2.1-.4 0h.7c.3 0 .5 0 .7-.2h.1zm158.3-9.3h2.2-1.2c-.1.2-.5.1-.7 0h.3zm25.3-2.2-.5.2h-.8v-.2zm-78.5 2h-1.8a1.2 1.2 0 0 1 -.5 0l1.8-.1h.4zm-5.7.7h-2a6 6 0 0 1 2 0zm-65.3 2h.5a13.4 13.4 0 0 0 2.2-.2h.1zm.5.5h2.2-2.1zm237.1-5c-.2.1-.6.2-.8.1a1.4 1.4 0 0 0 -.5 0h-.8.3l.5-.1zm-139.9 2.4h.8a14.8 14.8 0 0 1 1 0 2 2 0 0 1 -.7 0zm148.7-2.8h-.8l-.6-.2h1.2zm-40.6.5.8-.2.3.2-1 .1zm-71.8 1.8h2.3-.5l.1.2h-.7.2l.2-.1c-.5-.1-1.1 0-1.6 0zm114.6-2.3.7-.1 1 .1zm-123.8 2.7.4-.1h.3c.3-.2.6-.2 1-.1h-.4l-.3.1h-1zm84.6-1.8h-1.1a4 4 0 0 0 .6-.2 1 1 0 0 1 .6 0v.3zm-300.7 15.5c0 .2-.5.3-.6.2h-.7c.4-.3.9-.2 1.3-.2zm287.5-15.7h-.3a1 1 0 0 1 -.3 0h-1.7.7l.5-.1h.4l.3.1zm-130.8 2.1h2.2zm89.7.3-.5-.2h1c0 .2 0 .2-.5.2zm34.3-3a2 2 0 0 1 -.8 0h-.8l1.6-.1zm-138.3 3.6h1.9zm39.6-2.5c.5-.1.9-.2 1.3 0l.3-.2-.2.2zm-186.2 15.8-1.9.4c.2-.3.6-.2 1-.3h1zm212.7-14.3.2-.1h1.3zm-135.2 8.5v-.2l.2-.1 1.5-.1h.2l-1 .1-.9.2zm277-11.6-.5.2a3 3 0 0 0 -.4-.1h-.5v-.1h1.5zm-38.1.6h.2a2.4 2.4 0 0 0 .4-.2.9.9 0 0 1 .4 0v.1c.2 0 .2.1 0 .1zm-102.1 1.2c-.1.2-.2.2-.8.2v-.3h.8zm-158.6 10.8c.5-.3 1-.2 1.5-.2zm19-1h.1a10.4 10.4 0 0 0 1.5-.2l.4.1-2 .2zm288.3-11h1.8l.7.1h-2.4zm-345.3 14.7c-.4.3-1 0-1.4.2h-.4zm343-16h-2zm-300.4 13.3 1-.1c.3 0 .5-.2.9 0l-1.2.1zm-37.1 2.6c-.5.2-1 0-1.4 0l1.3-.1v.1zm263.8-13.8h-.4l-.2-.1.5-.1.5.1h-.7zm-160 3.5a4.5 4.5 0 0 1 -1.7 0zm239.4-4.6h-2.4zm-117.4 1.4.5-.1s-.1.1 0 .1h1c-.3.1-.5.2-.8.1zm-49.3 2.7-.2.1a7 7 0 0 1 -1 0c.4-.2.8 0 1.2-.1zm-126.8 7.4a4.6 4.6 0 0 1 -1.9 0zm141.3-10.5a7 7 0 0 1 -1.6.1c.5 0 1-.1 1.6 0zm53.5-.4h-1c-.2 0-.5.2-.8.1l.3-.1zm-122 2.6v-.1a3.9 3.9 0 0 1 1.5 0h-1.5zm65.5-1.5h-1.5zm-112 3h1.4c-.5 0-1 .2-1.4 0zm216-3.3a3.2 3.2 0 0 1 1.3 0 2.2 2.2 0 0 1 -1.3 0zm-259.1 11.2.5-.1h.7-.2zm153.3-11.5h-1.3zm-37 2.2h-2zm156.5-3.4-1-.2h1.1zm-244.6 6.2c-.4.1-.8.2-1.3.1h1.3zm15.4-1.8h1l-.8.2zm5.4 2.4-.7.1c-.3 0-.6 0-.7.3l-.3-.3h1.7zm20 .8h-1.4 1.2zm332.2 1.2h1.8zm-344.6.9c-.4 0-.7.2-1.2.1zm214-11h.4a1.2 1.2 0 0 0 .4 0h.5-1.2zm-193.3 4.7.2-.1h.3c.2-.1.5 0 .8 0-.4 0-.7.2-1.2 0zm90.7-.6a3.2 3.2 0 0 1 -1.4 0h1.3zm24.6-1.4v.1l.3.1h-.6v-.1h-.4v-.1zm-33.9.8h-1.5zm-38.7.2a4 4 0 0 1 -1.6 0zm-88.5 3c0 .2-.4 0-.6.1h-.7zm23.4-.3h-1.4zm90-2.2h1.5a3.7 3.7 0 0 1 -1.4 0zm127.8-2.5-.5-.3c.8 0 .9 0 1 .2h-.5zm-65.5 1.2.1-.1a2.8 2.8 0 0 1 1 0zm-60.2 2-.8.1c-.2 0-.3 0-.2-.1zm18.4-1.4h.3s.4.1.4 0h1a3.5 3.5 0 0 1 -1.7 0zm27.3.4c.3-.2.6 0 .9 0h.9zm50.5-2.6h1.5a2.6 2.6 0 0 1 -1.4 0zm.5.8c.3-.2.6-.2.8 0zm-98.6 3.4h1.7a5 5 0 0 1 -1.7 0zm-47.7-.5h.3l-.1-.1h-.4l1-.1c-.4 0-.4.3-.8.2zm-49.1.7h.7l-.2.2h-.5zm134.5-3.5.2-.1h.7c-.3.2-.6.1-1 0zm14.6 2.9h-1.6zm74.5-2.4c.2-.2.5-.1.7-.1h.7-1.4zm-91.6 1h.3l.2.1-.2.1a2 2 0 0 1 -.4 0v-.1zm-80.2.4-1.1.1v-.1h1zm-102.5 3.3-.4.1h-.6 1.2zm126-4.2c-.2.3-.5.3-1 .1h1zm182-1.9h1.7-1.8zm-153.4 4.3c.5-.2.9 0 1.3 0zm132.9-3.4h1.2zm-98.7 0c-.4.2-.7 0-1 0zm-.3.7h-1.4a4 4 0 0 1 1.5 0zm-115.4 4h.2l.2-.1h.3-.2.7l-.4.1zm-95.7 1.6.3-.1 1-.1h.4zm275-7.1h.8c-.4.2-.4.2-.9 0zm51.6-1h-1.4zm-92 2.9h1-.2a1.6 1.6 0 0 1 -.8 0zm49-1.6h1.2-1.1zm-184.7 4.2h1.2zm234.1-6.8v.1h-1.1 1zm-91.4 4.4-1-.1c.3 0 .8-.1 1 .1zm73.6-4.5h.7l-.4.1zm-367.8 14.5.5-.2.3.1a2.4 2.4 0 0 1 -.9 0v.1zm383-11.9h-1.1c-.1 0-.3.2-.4 0h1.4zm-337.8 7.4c-.4.2-1 .2-1.4.2zm120-3 1.1-.1h-1zm5.4-.8h1.3zm40.6-2h-1zm129.8-1.2-.2.1a6 6 0 0 1 -.6 0c.2-.2.2-.2.8-.1zm36-1.7-1.2-.1h1.3zm-231.8 7v.2l-1.7.1 1.7-.1zm76-3.3h1.2zm163.3-3.4c.3-.2.7-.1 1 0zm-284.7 6.7-.4.1-.4.1c0-.2.1-.2.8-.2zm24.4-2 1.5-.1h-1.5zm140-2h1.5-1.6zm86.8-.7v-.1h1.3-1.3zm-103 2.2h-1.2a2.2 2.2 0 0 1 1.2 0zm-127.6 1 .1-.2h.4c0 .2-.1.3-.5.3zm238-4.5h1.2zm-326.7 6.3 1.1-.1c-.3.2-.4.2-1 0zm152.7-2.8a10.4 10.4 0 0 1 -1.2.1h-.5 1.7zm-70.7 1.3-.8.2c0-.2 0-.2.8-.2zm-53.5 8.9.8-.1-.4.2zm278.7-12.7-.5.2-.1-.3zm-83.7 3h-1zm77-3.1a2.4 2.4 0 0 1 -.8 0c.4-.1.6-.1.8 0zm-230.5 8.7v-.1h.2l.3-.1h.4l-1 .2zm140.5-6.4a2.9 2.9 0 0 1 -1.3 0zm57.5 0h-1zm133.5 5.6h-1.3zm-238.4-5.4c.3-.2.7 0 1-.1-.3 0-.6.2-1 0zm121-3.7h.9a2 2 0 0 1 -.9 0zm-68 2.6h-1.1zm-85 1.1-.7-.1zm64.9.3h-1l.5-.2c.2 0 .4 0 .5.2zm-34 1.1c-.3.2-.7 0-1 .1h-.2.1l1-.1zm125.2-4.4h1zm27.5.2v-.1h1.3-1.3zm-21.6.7h1a2.6 2.6 0 0 1 -1 0zm-99.2 1.4h-1.1zm-102.6 2h.6zm70.2-1.5h-1.1a2.5 2.5 0 0 1 1.1 0zm-131.6 3 .5-.2h.5zm-56 3a4 4 0 0 1 -1 0zm179.4-4.2c.3-.2.5-.2 1 0zm98.6-4.2-.3.1h-.2v-.2zm-280.5 9.7.6-.1zm249.1-8.9h.9zm113.5-1h-1.2 1.3zm-241 4.1h.4c.1-.1.3 0 .4 0h-.9zm10 .3.6-.1h.5c-.4 0-.7.2-1 0zm-37.2 2h-1a2.4 2.4 0 0 1 1 0zm156-3h-1.2zm127.3-3.7c-.3 0-.6.2-.9 0h1zm-34.3 7.1h-1.2zm-18.7-6-.5-.2h.4l.4.2zm-266.1 12h.7zm103.1-9.5a3.2 3.2 0 0 1 1.4 0zm98-2.7h-.2a1 1 0 0 1 -.3.1h-.3zm42.9-.2h-.9c.4-.2.7 0 1 0zm-166.7 3h.3-.8c.2 0 0-.3.5-.2v.1zm76.1.5c0 .1-.3 0-.4 0h-.4zm-70-.3h-.6zm-97 10h-.8a1.4 1.4 0 0 1 .8 0zm323.6-13.8v-.2a2.4 2.4 0 0 1 1 0h-1zm-17.4-.4 1 .1h-1zm-166.3 4a2.4 2.4 0 0 1 -.9 0zm33.2-2a3 3 0 0 1 -1 0zm59 1.9h-.7.6zm.6-1.3h-1zm-23.2-.4h.8c-.5.1-.5.1-.8 0zm-99.8 2.8h-1.3a5 5 0 0 1 1.3 0zm286.7 3.6h1.1zm-281.6-3.1h-1zm-104.2.4c.4-.2.5 0 .8 0zm-9.5 1.6c.1-.2.5-.1.6-.2h.3zm204.7-4h-1zm-21-1.7v-.1h.9-1zm-5.3 1h.9c-.6.2-.8.2-1 0zm-15 1.7c.5-.1.5-.1.8 0zm179-6.4a2.3 2.3 0 0 1 1 0zm-149.4 3.1h.8a1.7 1.7 0 0 1 -.8 0zm-94 8h1.1-1zm94-7.7c0 .2-.3.1-.5.1h.5zm-49.4 2.7h-.8zm92.9-3.4h.7zm-6.5 3.1h-.7zm6.3-3.3c-.2.2-.2.2-.6 0zm-57.2 3h.9-1zm89.8-1.4h.8zm-174.3 3h-.9 1zm174.4-1h.7zm-139.1-.6h1zm150.1-3c.2-.3.5-.1.7-.1h-.7zm-173.8 3.3h.9zm177.4-1.1h-.7zm.3-2h.8c-.3.2-.6 0-.8 0zm-204.4 4.2h1zm-25-.1h-.9.8zm257.1-6.8h.8a2.1 2.1 0 0 1 -.8 0zm-279.3 8.1c.3-.2.3-.2.6 0zm178.4-4.7h-.7zm115.3-4.1h1zm-296.2 15.3v-.1h.9-.9zm200-10h-.6.5zm-22.8.8h-.4v-.1h.3-.1.3zm-103 .4c-.3.1-.3.1-.8 0zm70.8-1.3h-.7zm74 1.4h.6zm-94.2-1.6h-.5.3v-.2h.2zm-54.6 2.4c-.3 0-.5 0-.5-.3h.3c-.2.2.2.2.3.3zm199.3-5c.2-.3.3-.3.7-.2l-.7.1zm-232 4.5c.3 0 .5-.2.8 0zm299.3-3h.8zm-224 .2a1.6 1.6 0 0 1 -.9 0 1.2 1.2 0 0 0 .6 0zm-1.2 1.8h1a3 3 0 0 1 -1 0zm129.6-2.1.6-.2c0 .2 0 .2-.6.1zm-189.2 4.2c-.2 0-.4.2-.8.1.3-.1.6 0 .8 0zm106.4-1.2h-.7.3a1 1 0 0 1 .4 0zm-233.7 13.6c.2-.2.2-.2.5-.1h-.5zm29.5-1.8h-1 .9zm199.5-13.1c.1-.2.3-.2.6-.1h-.6zm-82.2 2.6h-.7zm206.5-8.1h.5l-.4.2v-.2zm.9 3.5.6.1h-.6zm33.3-2.9h-.7zm-217.6 5.9c.3 0 .5-.2.9 0zm-10 1 .2-.1h.3c-.2.2-.4.1-.6 0zm-82.7 7.6h.7zm103.5-10v-.1h.7-.7zm66.3-.3h.9-1zm-65.5-.5h-.6.2a.8.8 0 0 1 .3 0zm86.3.2h-.7zm5.6.7h.9-1zm71.8-2.1a1.8 1.8 0 0 1 -.8 0zm-233.8 9.7h.9zm119.7-8.4h-.7zm-.6-.2h.7c-.3.2-.5 0-.7 0zm74 .4h.8c-.3 0-.6.1-.8 0zm-84.4.3h-.1a.7.7 0 0 1 -.3 0h-.2zm-128 3.5h.7zm166.4-5.1c.3 0 .1.2.4.2h-.4zm-38 2.8h.6-.5zm-159.4 9.8c.1-.2.4-.1.6-.1h-.6zm313.8-13.1h-1zm-121.1 2.3-.2.1h-.3.5zm-114.3 4h-.6l.5-.2.1.1zm-4-2h.7-.8zm-.2.2c-.2.2-.2.2-.6 0zm35.7-1h-.6zm-45.2 4c.1-.2.3-.1.4-.1h.4-.8zm.2-.9c-.2.1-.3.2-.5 0zm59.7-2.6h.6zm-163.2 12.5h.6zm154.6-13h1zm61.2-.5.5-.1v.1zm-148.8 2 .7-.1h-.7zm156.7-3.3h-.6v-.1h.6zm-175 10.6h-.6zm-32.7-7-1 .1h1zm197.3-2.8h.7zm122.4-4.7a.8.8 0 0 1 .5 0zm-88.3 5.2-.4.2s0-.2.4-.2zm-220 3.5a.9.9 0 0 1 -.4 0h-.1.6zm283.3-6.1h.6-.7zm42.7 0v.1l-.2.1h-.1v-.1h.2zm-206.5 4.3h.6zm-39.8.2c.2 0 .2-.1.4 0h.1zm137.6-2.2h.4zm-74.5.5h.8zm98.1 0h-.8zm80.4-5.8h.6zm-31.7 2.6c0-.2.2-.2.4-.1h-.4zm-145 3c-.2.1-.4.2-.7 0zm40.4-.5h-.2l-.2.1h-.2zm2.8-.1c-.1.1-.2.2-.4.1h-.1zm-169.9 10.2h-.7zm273.8-11.2h.4c-.2.1-.3 0-.4 0zm18.4-.5.5.1zm-165 1.9h-.6zm46.7 3.2h-.6v-.1h.6zm-85.4-3-.4-.1h.2l.2-.1zm-56.9 3.5h.8zm131.2-5.1c.1 0 .3-.2.4 0zm173.4 7h.6zm-235.5-5v.1h-.5.5zm-137.4 11.5h-.6zm326.2-16.6h.6zm-276.4 7.2h.6zm220-4.8h-.2v-.1h.2zm-96.3 2h.6zm151.3-2.7h.5zm-150.1 1h.5zm-58.4 2.6h.5zm-72.2 8.4h.7c-.2 0-.4.2-.7 0zm312.3-10.6a1.4 1.4 0 0 1 -.6 0zm-367 15.1-.6.1h.5zm79.5-9h.4-.5zm246.4-6.5h.5zm80.5 7.5h-.7zm-311 1.2h-.6zm95.8-5.7c.1.1.1.2 0 .2-.2 0-.2-.1 0-.2zm129.4-4h.6zm-15.2 0h.6zm-202.4 6.4h-.6zm-65.8-1.4h.7zm183-1.8h-.6zm137.2-5.3h.5zm-65.5 1h-.7c.2-.2.4-.2.6-.1zm19 1.8h-.6zm-10-.3h-.9a1.8 1.8 0 0 1 .9 0zm-182.3 5.6h-.7zm-91.2 8h-.5zm219.5-13.2h.5zm67 .3h-.5zm-234.3 7h.6zm-3.6.5h.6zm166.7-6.2h-.5zm-1-2h.5zm55.2-1h.5zm-233.4 9.3a4.7 4.7 0 0 1 .5 0zm216-6.8h-.5.6zm-39-1.9.3.2c-.3 0-.4 0-.3-.2zm68.2.5c0 .1-.2.2-.3.1-.1 0 0 0 0 0h.3zm-59.7 0c0 .2 0 .2-.4.2l.4-.1zm-116.8 2.8c0-.2 0-.2.3-.1h-.3zm-79.9 9.3h.7zm140.1-10h.4c-.2.1-.2.1-.4 0zm-52.8 2h.6a.8.8 0 0 1 -.5 0zm0 3.7h.5zm125.6-6.3h.4zm-255.4 13.7h.5zm435.2-7.3v.1h-.4.4zm-239.6-5.7h-.5zm241.5 5.8h.5zm-240.9-4.5h-.4c0-.1.2 0 .4 0zm96-3.4h-.4zm-221.4 10.1h.6zm75-8.6h.4-.5zm-63.6 1.7c0 .1 0 .2-.2.2s0 0-.1-.1h.3zm129-2h-.7zm-126.6 8v.1h-.5.5zm208.2-8.6h.4zm142.9 7.3h.5zm-464.2 2.8h.4zm273-10.5h-.4zm27.3 1.8h-.5.4zm-297.2 16h-.5zm114.3-10.1h-.5zm44-1.6h.5zm-158 1.7h.6zm320.6-8.2h-.6zm-206 3.3h.4zm.5 2.4h.1a.6.6 0 0 1 .3 0zm1.5.8.5-.1h-.5zm235.4-7.9-.3.1h-.2.5zm-151.3 2.4.4.1zm51-.2h-.5.6zm-76.5 3c-.1.2-.3.1-.4.1h.4zm58.5-2.8h.5zm52.8-.6h-.4zm24-.9h.4zm17.1-.3c-.2 0-.3-.1-.2-.2h.1zm-195.3 6h.5zm233-6.5h-.4v-.1h.4zm-314.8 14.4h.3zm316.7-14.4h-.6a.9.9 0 0 1 .6 0zm-154.9 5h.7zm155.4-6.6h-.3zm-326 8.8c-.2.2-.3.1-.5 0zm269.4-3h-.5zm-87.3-2.3-.3.1zm-197 14.9c.1 0 .2-.2.5 0zm189.3-13h.6zm138-2.5h.2zm-259.8 9.7h-.5zm5.4.4h-.4zm-5.8-4.9h.1l-.3.1h.2zm51.5-1.8h.5zm70.1-1c0-.2 0-.2.2-.2h.1l-.3.1zm-37.8.3h.5zm167.7-1.6h.5zm-27.5-1h-.5zm.4.5c.2-.1.2-.1.4 0zm-290.6 4.8-.4.2h.4zm133.9 2.2c-.2 0-.3.1-.4 0zm-131.7-2 .4-.1h-.4zm131.3-1.2h-.4c.2-.1.3-.1.4 0zm72.2-3v.1h-.6.6zm-196.5 3.7h.5zm282-3.1h.4zm-3.6-2.8h-.6zm-142.2 4.4h.3zm40.7-.6h-.3l.2-.1v.1zm-170.3 10.6h-.5zm73.1-8.8h.6zm71.7 1.7h-.5zm46.2-5h.5zm20.7-1.4h-.5zm-101.3 4.2h-.5zm203.7-4.6h-.3zm-229 8.6h-.4.5zm0-1h.5zm25.4-3h.3l-.1.1h-.2zm155.5-4.2h.6zm-179.4 7.6h-.7zm-78-2.6h.3zm309.9-6h.4zm-208.2 8.8h.6zm63.7-5h.5zm95.5 3.6h.4zm-68.4-5.2h.3zm-61.7 3h.5zm-134.2 8h.4zm364.4-4.2h-.4zm-350.8 4.2h.2zm85.2-8h.5zm-11.8-.6h-.3v-.1h.3zm-68.9 8.5h-.5zm-47.3 3.6h-.2.4zm133.9-13.2h.4zm2.4 1.6h.3zm32-.3h.4-.3zm102.8-1.8h.1l-.1.2zm-90.3-.8-.3.1zm33 1.6h.4-.3zm-36.8-.3.4-.1h-.4zm-115 3h-.2.1zm.2 4.7h-.4zm287.1-10h.3zm-330.8 6.1h.4zm45.6.6h.3zm-61 8.6-.5.1h.5zm63.7-4.7a.6.6 0 0 1 -.3 0h-.1.5zm54-7.6h.3-.4zm182.4-1h-.3v-.1h.3zm25.2-3.9h-.3zm-206.2 10.2h-.6zm204.6-7.8c0 .1 0 .2-.2.1h.2zm-204.5 2.4h-.4zm95.3-2.6h.3zm-57.8.8h.3zm13.9-.3c-.2 0-.3.2-.5 0zm-198.6 7.7.4-.1h-.4zm195.2-5.3c0-.1.2-.1.4 0zm37.7-3.1h.3zm112.5-1.2h-.2zm-80.5 1.3h-.2zm-81.9 1.7c0-.2.2-.1.4 0zm-151.5 13.2h.3zm238.2-13.3h-.3zm-166.9 2.4h-.4zm50.6.2h-.3zm122.7-.6h-.3zm-174.9 2v-.1h.4-.4zm-1.3-2.2.3.1h-.3zm4.3.6h-.3zm2.1 5.5h-.3zm-105.2-1.4h-.4.3zm109 1.2h.4zm68.6-7.6h-.2zm97-1.2h-.2zm-179.7 6.6h-.3zm19 .7h-.4.3zm126.6-7.3h-.2zm-78 3.7.2.1h-.2zm181.1-5.1h.3zm-182 5.2h.3-.2zm-72 0v-.2h.2-.2zm109.2-2.2h.4zm24.4-1.5h-.3zm-105 2.7v-.1zm306.7 4.3h-.5zm-83.9-9.8h-.3zm-91.8 2.8h.3zm-129 4h-.2.3zm-35.8-.4h.3zm74-.2h-.3.2zm167.9-5.2h-.3zm-246.5 12.3h-.4zm123.3-10.2h.3zm107.7-.8h-.2zm-62.3 0h-.4zm-214.1 14.2h-.4zm323-17.8h.3-.2zm24.5 3.4h-.3zm-258.3 8.4h.2zm116.5-7.8h-.3zm96.3-1v-.1h.3-.3zm-192.1 4.6h.2-.3zm150-3h-.2.3zm84.6-1.9h.4zm-.8-1.2h.3zm-87 1h-.3zm-72.2 3.3h-.3zm96.5-2.4h-.2zm-173.6 8.2h-.3zm230.8-11.2h.2zm-43 2.9h-.2zm-278.4 12.7h-.3zm134.2-8.6h.3zm45.3-4.4h.3zm-177.1 4.8h.3zm82.3 4h-.3zm234-10.5h-.4zm-316 7.1h-.3.2zm219.7-4.1h.2zm90.7-3.7h.1-.2zm-117.7 4.2h.2zm124.6-4.8h.1zm-125.7 4.8h-.3zm-115.2 6.9v-.1h.3-.3zm184.9-6.5h-.1zm-101 .6h.2zm34.2 1.2h-.2zm126.7-4h-.1c-.1-.1 0 0 0 0zm-202.9 1.2h.3zm-104.6 6.9h.2zm291.7-10h-.2zm-62.3 1.3v.2h-.1zm-223.4 7.4h.3zm254.8-3.8h.3zm-47-1.5h.3-.4zm-158.6 5h.2zm144-3.7h.2zm132.3-5h.2zm-277.5 10.6h.2zm106-4.8h.2zm-147.8 1h.2zm72.4-1.6h.2zm2.6.3h-.2zm0-.4h.2-.3zm25.2.7h-.3zm21.8-.3h.2zm-80.3 0h.2zm38.8 1v.1h-.2.2zm33-1h.4-.3zm-73.9 1.9h.3zm199.8-5.4h-.3zm36.2-2.5h-.3zm-267.8 13.3h.2zm237.4-11.2h.2zm-208.7 4.2h.3zm110.7-1.5h-.2zm-3.4.8h.4zm-128.4 1.4h.2zm.5 0h-.1.2zm252.8-5.7h-.2zm-4 1.7h-.1zm-.2-.8h.3zm-174.7 5.1h.1l-.1.1zm-173 9.6h-.2zm142-9h-.3z" fill="#82d7b9"/></svg>