<?xml version="1.0" encoding="UTF-8" standalone="no"?>
<svg
   fill="none"
   height="23"
   width="200"
   version="1.1"
   id="svg16"
   sodipodi:docname="underline-stroke-dark-purple.svg"
   inkscape:version="1.1.1 (c3084ef, 2021-09-22)"
   xmlns:inkscape="http://www.inkscape.org/namespaces/inkscape"
   xmlns:sodipodi="http://sodipodi.sourceforge.net/DTD/sodipodi-0.dtd"
   xmlns="http://www.w3.org/2000/svg"
   xmlns:svg="http://www.w3.org/2000/svg">
  <defs
     id="defs20" />
  <sodipodi:namedview
     id="namedview18"
     pagecolor="#ffffff"
     bordercolor="#666666"
     borderopacity="1.0"
     inkscape:pageshadow="2"
     inkscape:pageopacity="0.0"
     inkscape:pagecheckerboard="0"
     showgrid="false"
     inkscape:zoom="5.715"
     inkscape:cx="100"
     inkscape:cy="11.548556"
     inkscape:window-width="1312"
     inkscape:window-height="928"
     inkscape:window-x="454"
     inkscape:window-y="55"
     inkscape:window-maximized="0"
     inkscape:current-layer="svg16" />
  <clipPath
     id="a">
    <path
       d="M0 0h200v22H0z"
       transform="matrix(1 0 0 -1 0 22.2)"
       id="path9" />
  </clipPath>
  <g
     clip-path="url(#a)"
     id="g14"
     transform="translate(-0.69991251,1.2248469)">
    <path
       d="m 96,2.2 h -2.5 v 0.1 h -1.4 a 2,2 0 0 0 -0.5,0 h -0.2 v 0.2 h 0.4 l 0.6,-0.1 h 0.2 -0.1 0.2 L 93,2.5 92.7,2.4 h 0.8 -0.3 1.3 V 2.3 H 95 94.8 95.2 V 2.5 H 93.5 L 93.1,2.6 H 93 v 0.1 h 1 l -0.1,0.1 h -1.1 0.1 -0.7 0.3 a 0.5,0.5 0 0 1 -0.3,0 H 91.8 A 4,4 0 0 0 90.9,3 L 91,2.7 h 0.4 l -0.2,0.1 h 0.6 -0.2 V 2.7 H 91.2 A 5.2,5.2 0 0 1 90.5,2.6 H 90 V 2.5 h 0.6 l 0.2,-0.1 h -0.2 l 0.2,-0.1 h -2.6 a 1,1 0 0 0 -0.5,0 0.6,0.6 0 0 1 -0.4,0 h -0.1 l -1.6,0.1 h 0.5 a 0.8,0.8 0 0 1 0.4,0 l -0.2,0.2 a 2,2 0 0 0 -0.7,0.1 h 0.3 L 85.5,2.8 A 5.3,5.3 0 0 0 85.1,2.7 H 84.7 A 3,3 0 0 0 84.3,2.8 H 84.2 L 83.9,2.7 h 0.3 l 0.2,-0.1 h 0.2 c 0,-0.1 0.2,0 0.2,-0.2 h -0.5 l -0.5,0.1 h 0.4 -0.4 l -0.2,0.1 h 0.2 L 83.3,2.8 H 83.5 83 l 0.2,0.1 h 0.1 L 83.5,3 h -0.6 l -0.3,0.1 h -0.9 0.1 -0.5 L 81.8,2.9 H 80 a 2,2 0 0 0 -0.3,0 H 77.9 78 L 78.1,2.8 V 2.7 h 1.2 -0.3 1.3 -0.1 0.5 a 3.5,3.5 0 0 0 0.7,0 h 0.4 -0.2 l 0.2,-0.1 h 0.4 a 3.5,3.5 0 0 0 -0.7,0 1,1 0 0 0 -0.3,0 h 0.3 a 4,4 0 0 1 -0.7,0 h 0.4 -0.6 L 80.7,2.5 H 80.2 A 10.2,10.2 0 0 1 78.8,2.6 H 78.3 L 77,2.7 a 4.6,4.6 0 0 0 -0.8,0 h -1.3 l -1.3,0.1 0.3,0.1 H 73.7 L 73.8,3 h 0.8 l 0.1,-0.2 0.4,0.1 h 0.5 -0.3 1.2 -0.2 V 2.8 h 0.2 c 0,0.1 0,0 0.2,0 h 0.4 -0.3 0.7 L 77.2,3 H 76.5 C 76.4,3.1 76.3,3 76.3,3 H 75 l -0.4,0.2 h 0.9 -0.4 l -0.3,0.1 h -0.2 a 1,1 0 0 1 -0.7,0 H 74 l -0.6,0.1 0.3,-0.1 h 0.6 L 74.5,3.2 V 3 H 74 A 1,1 0 0 1 73.5,3 2,2 0 0 0 73.2,3 H 73 l -0.3,0.1 h 0.2 L 73,3.3 H 72.3 L 72.6,3.2 H 72.3 V 3 H 72 A 1,1 0 0 1 71.7,3 V 3.1 H 71.3 L 72,3.3 a 3,3 0 0 1 -1,0 L 70.4,3.4 70.5,3.2 70,3.3 70.1,3.4 H 70 a 0.8,0.8 0 0 0 -0.5,0 h -0.7 0.9 L 69.9,3.3 H 69.5 V 3.2 a 2,2 0 0 1 -0.3,0 h -0.4 0.1 a 1,1 0 0 0 -0.3,0 L 68.3,3.3 H 67 l -0.2,0.1 h -1.1 a 1,1 0 0 0 -0.3,0.1 v 0.1 h -0.6 0.3 L 65,3.7 h -0.6 l -0.8,0.1 a 5,5 0 0 1 -0.4,0 V 4 H 63 l -0.2,0.2 h 0.3 l 1,-0.1 h 0.3 l -0.5,0.1 h 0.5 c -0.3,0 -0.5,0.2 -0.7,0 v 0.1 h -0.4 0.3 -0.1 c 0,0 -0.1,-0.1 -0.2,0 h -0.6 0.2 l -0.5,0.1 c -0.2,0 -0.3,0.1 -0.4,0 h 0.3 L 61.9,4.3 h -0.1 l -0.2,0.1 h 0.2 L 61.7,4.2 h 0.5 L 62.4,4.1 H 63 L 62.9,4 H 62 l 0.3,0.1 H 62 L 61.9,3.9 63.3,3.8 H 63 l 0.4,-0.1 a 2,2 0 0 0 -0.5,0 h -1.5 l -0.5,0.2 h -0.2 a 3,3 0 0 0 -0.5,0 H 59.7 V 3.8 H 59 V 4 H 58.6 58.8 58 58.2 58 l -0.3,0.1 h -0.2 l 0.3,0.1 -0.3,0.2 h -0.7 a 21,21 0 0 1 -1,0 h 0.4 V 4.3 H 56 a 0.9,0.9 0 0 1 -0.5,0 h -0.8 0.1 -0.1 L 54.8,4.2 V 4 l 0.5,-0.1 h 0.8 l 0.6,-0.1 h 0.2 -2.4 l -0.1,0.1 h -1 0.1 a 1,1 0 0 0 -0.4,0 H 52.9 L 52.6,4 h -1.2 l -0.2,0.1 h -1 0.1 a 1,1 0 0 0 -0.5,0 h -1.2 c 0,0.1 -0.3,0.1 -0.4,0 h -0.4 0.4 -0.8 0.3 -0.4 V 4.3 H 47 L 46.7,4.4 H 46 a 2,2 0 0 1 -0.6,0 c 0,0 0.2,0 0.2,-0.2 L 44.7,4.3 V 4.4 L 44.3,4.5 H 43.8 L 44,4.4 H 43.4 V 4.5 L 43.2,4.7 H 43 43.1 42.9 L 43,4.6 H 42.7 A 1,1 0 0 1 42.4,4.5 h 0.3 V 4.4 H 42 L 41.4,4.5 H 40 c -0.1,0.2 -0.3,0.1 -0.4,0.1 h -0.3 c 0,0 0,0.1 -0.1,0 H 39 l -0.3,0.1 h 0.2 L 39.6,4.6 H 39.7 39 l 0.3,-0.1 h -1 l -0.1,0.2 h -2 l -0.5,0.1 h -0.2 c -0.1,0.1 -0.1,0 -0.1,0 H 35 a 1,1 0 0 1 -0.3,0 H 34.6 L 34.4,4.9 H 34 c -0.1,0.1 -0.3,0 -0.4,0.2 a 0.1,0.1 0 0 1 -0.1,0 c -0.1,-0.1 -0.3,0 -0.4,0 h -0.5 0.2 -0.6 0.2 -0.1 a 3,3 0 0 0 -0.7,0 L 32,5 h 0.2 L 32.3,4.8 H 32 a 0.4,0.4 0 0 0 -0.3,0 L 31.3,4.9 H 31 V 5 h 0.2 l -0.3,0.2 h -0.3 l -0.2,0.1 h 0.7 -0.2 L 30.5,5.4 30.3,5.5 H 30 l -0.3,0.1 c 0.1,0 0.4,0 0.5,-0.2 a 1.4,1.4 0 0 1 -0.7,0 h 0.2 L 29.6,5.3 h 0.2 -0.8 0.4 l 0.2,-0.1 h -1.5 0.3 -0.1 V 5 h 0.5 l 0.6,-0.2 h 0.3 -0.3 V 4.6 c -0.2,0 -0.3,0.2 -0.5,0.1 H 29 L 28.9,4.6 H 28.8 L 28.5,4.7 H 28 c 0,0.1 0,0 0.1,0 L 27.7,4.9 V 4.8 h -0.4 0.4 -0.5 l 0.2,-0.1 -0.7,0.1 h 0.2 -0.2 L 26.5,4.9 H 25.2 V 5 H 25 l -0.4,0.1 a 4,4 0 0 1 -0.9,0 H 23.6 24 V 5 h -0.7 l -0.2,0.1 h -0.5 0.3 L 23.1,5 c 0.2,-0.1 0.3,0 0.4,0 h 0.4 L 23.8,4.9 24.3,4.7 22.3,5 h -0.9 l -0.5,0.1 h -0.3 l -0.3,0.1 a 2.4,2.4 0 0 1 -0.8,0 h 0.9 A 30.8,30.8 0 0 0 21.6,4.9 H 20.5 L 20,5 H 19.9 L 19.1,5.2 H 18 l -0.2,0.1 h -0.5 0.6 l 0.3,-0.1 h -0.5 l -1,0.2 H 16.2 L 15.1,5.6 13.6,5.8 H 12.8 A 1,1 0 0 0 12.5,5.9 H 12.2 L 11,6.1 10.5,6.3 H 9.6 L 9.4,6.4 8.4,6.6 7.4,6.8 6.5,6.9 5.7,7.1 4.5,7.3 H 4.4 5.2 L 4.5,7.5 3.9,7.6 3.5,7.7 H 3.9 L 3.7,7.9 c 0,0 -0.1,0.2 -0.4,0.2 H 3.2 4.1 L 3.9,8.2 3.3,8.4 H 3 L 2.9,8.6 h 1 -0.1 c 0,0 -0.2,0 -0.1,0.1 H 3.6 L 3.3,8.9 H 3.6 V 9 H 4.3 L 3.9,9.1 A 2,2 0 0 1 3.2,9.3 H 3.4 L 3.2,9.5 H 3.7 3.3 3.5 V 9.6 H 3.9 L 4,9.7 H 3.6 3.7 3.5 L 3.3,9.8 V 10 c 0.2,0 0.2,-0.1 0.4,0 H 3.2 v 0.1 H 3.6 3.5 v 0.4 h 0.2 c 0,0.1 0,0.1 0.2,0 v 0.1 H 3.6 l -0.2,0.1 c 0,0 0.1,0.1 0.2,0 a 0.2,0.2 0 0 1 0.2,0 L 4,10.8 H 4.3 L 4.2,11 H 3.8 v 0.1 H 4 a 0.6,0.6 0 0 1 0.3,0 c 0,0 -0.3,0 -0.2,0.2 H 4.5 L 4,11.4 h 0.4 c -0.1,0.1 -0.3,0 -0.3,0.2 H 4.7 4.5 L 4.3,11.7 4.2,11.9 H 5 4.7 L 4.4,12.1 H 5 L 4.9,12.2 H 4.8 c 0,0.1 0,0 0.1,0 h 0.3 c 0,0.2 -0.3,0.1 -0.3,0.2 H 5 4.7 l 0.1,0.2 H 5.4 5.2 v 0.1 L 5.1,12.8 H 5.6 5.5 v 0.1 L 5.7,13 h 1 -0.4 l 0.2,0.1 0.6,-0.1 1,-0.2 0.7,-0.2 a 14,14 0 0 1 0.7,0 H 9.7 9.5 10.1 10 v -0.1 l 0.5,-0.2 h 0.4 L 11,12.1 h 0.8 c 0.1,-0.1 0.1,-0.1 0.2,0 l 0.4,-0.2 h 0.3 l -0.1,0.1 1.1,-0.2 v 0.1 H 14 13.9 l 0.3,-0.1 0.7,-0.1 h 0.3 l 0.2,-0.1 h 0.3 l 0.4,-0.1 h 0.3 l 0.2,-0.1 H 18 l 0.2,-0.1 h 0.2 L 19,11.1 c 0.1,0 0.2,0 0.1,-0.2 L 18.5,11 H 18 v 0.1 H 17.8 18 L 18.5,11 h 0.7 l 0.3,-0.2 H 20 l 0.3,-0.1 -0.3,0.2 h 0.2 a 0.5,0.5 0 0 1 0.3,0 h 0.2 a 3,3 0 0 1 0.8,0 h -0.1 0.7 -0.5 v -0.1 l 0.3,-0.1 h 0.2 l 0.4,-0.1 h 0.8 -0.1 v -0.1 c 0,0 0.1,0 0,0 l 0.2,-0.1 h 0.7 a 0.6,0.6 0 0 0 0.3,0 3.6,3.6 0 0 1 1,0 l 0.2,-0.2 a 1,1 0 0 0 0.6,0 h 0.6 c -0.1,-0.2 -0.3,0 -0.4,-0.1 h 0.1 V 10 h 0.3 a 0.6,0.6 0 0 0 0.3,0 h 1.3 l 1,-0.2 h 0.8 l 0.2,-0.1 h 0.8 l 0.3,-0.1 h 0.6 l 0.3,-0.1 h 0.7 l 0.5,-0.1 h -0.2 c 0,0.1 -0.1,0.1 -0.2,0 H 33 L 32.7,9.5 32.1,9.6 31.2,9.7 H 31 v 0.1 h 1.1 l 0.7,-0.2 h 0.6 l 0.8,-0.1 h 0.7 V 9.4 h 1 l 0.9,-0.1 h 0.3 l 1,-0.1 1,-0.1 0.3,-0.1 h 0.5 A 167,167 0 0 1 42.8,8.7 H 43 l 0.7,-0.1 h 0.2 a 0.2,0.2 0 0 1 0.1,0 h 0.7 l 0.7,-0.1 h 0.8 l 0.3,-0.1 1,-0.1 H 48 l 0.1,0.1 0.4,-0.1 H 48 48.4 l 0.8,-0.1 h 1.7 L 51.2,8.1 H 52 V 7.9 L 52.2,8 H 53 l 0.2,-0.1 h 0.2 -0.1 V 8 h 1.3 V 7.8 h 0.6 c 0.1,0 0.3,0.1 0.4,0 h 0.2 l 0.1,-0.1 h 0.2 l 0.2,0.1 h 0.9 A 0.3,0.3 0 0 1 57,7.7 h 0.2 l 0.2,-0.1 h 0.2 -0.2 0.8 V 7.5 h 0.3 -0.2 l 0.2,0.1 c 0,0 0.2,-0.1 0.2,0 h 0.1 L 58.7,7.5 h 2.2 c 0,0 0.1,-0.1 0.2,0 H 62 l 0.4,-0.2 0.1,0.1 H 64 l 0.2,-0.2 h 1.3 -0.1 0.7 -0.2 l 0.2,-0.1 h 3.4 L 69.4,7 H 71 V 6.9 h 0.3 V 6.8 h 2.3 -0.1 1.2 c 0,0 0,-0.1 0.1,0 h 1 L 76,6.7 h 1.6 L 78.1,6.6 H 80 c 0,0 0.1,-0.1 0.2,0 0.3,-0.1 0.6,0 0.9,-0.2 h 0.3 c 0,0.1 0.1,0.1 0.2,0 h 5.3 l 0.8,-0.1 h 4.6 l 0.6,-0.1 h 2.6 l 0.2,-0.1 h 0.3 -0.1 1.4 a 0.7,0.7 0 0 1 0.4,0 h 4 L 102,6 h 3.2 a 0.5,0.5 0 0 1 0.3,0 h 0.8 c 0.2,-0.1 0.2,-0.1 0.4,0 h 2.5 a 8.6,8.6 0 0 1 0.9,0 h 0.9 a 0.1,0.1 0 0 1 0.1,0 h 6.9 a 0.5,0.5 0 0 0 0.3,0 h 0.5 c 0,0 0,-0.1 0.2,0 h 10.7 l 0.5,0.1 h 1.3 -0.1 0.4 -0.1 3 -0.4 0.4 a 0.5,0.5 0 0 0 0.3,0 h 1.3 -0.2 2.1 L 138,6.2 h 1.7 -1.2 2.3 -0.6 c 0,0.1 0.1,0 0.2,0 l 1,0.1 h 0.6 -0.1 2.8 l 0.2,0.1 h 0.2 a 0.3,0.3 0 0 0 0.3,0 h 3.6 v 0.1 h 0.7 a 2.6,2.6 0 0 1 0.6,0 h 2 l 0.7,0.1 h 3.2 l 1,0.1 h 1.9 l 0.5,0.1 h 2.9 l 0.4,0.1 h 1.2 l 1.3,0.1 h 1.1 l 1.8,0.1 h 0.1 L 167.3,7 h 4.6 l 0.7,0.1 h 5 l 1.5,0.1 h 2.3 -0.2 0.8 -0.1 0.5 -0.3 1 -0.2 1 a 12.2,12.2 0 0 1 1.7,0 h 2.8 L 188,7.1 h -0.7 a 10,10 0 0 1 -1.7,0 H 184 L 182.9,7 h -1 a 4,4 0 0 1 -0.5,-0.1 l 11.4,0.2 h -1 L 191.6,7 h 3.5 l 0.4,0.1 h -0.2 L 195.5,7 h 0.6 c 0.1,-0.1 0.3,0 0.4,0 h 0.7 -0.2 0.4 l 0.3,0.2 h -0.1 l 0.2,0.3 h 0.4 l 0.4,0.1 v 0.1 l 0.3,0.2 h 0.3 V 8 h 0.4 V 8.3 H 200 V 8 h 0.5 l -0.1,-0.3 a 0.4,0.4 0 0 0 0.2,0 V 7.5 L 201,7 h -0.1 V 6.9 c 0,-0.2 0,0 0.1,-0.1 L 200.9,6.7 V 6.6 L 201,6.5 200.9,6.4 h 0.3 V 6.2 L 201,6 201.1,5.9 h 0.2 V 5.6 h 0.2 V 5.4 l 0.1,-0.1 0.1,-0.2 V 4.7 l 0.2,-0.1 V 4.5 L 202,4.4 c 0.2,-0.1 0.2,-0.1 0,-0.2 0,0 0.1,-0.2 0.3,-0.2 V 3.8 l 0.1,-0.1 V 3.5 l 0.2,-0.2 c 0.2,0 0.1,-0.2 0.2,-0.3 V 2.8 h 0.1 L 202.8,2.7 V 2.4 h -0.1 l -0.2,-0.1 c -0.2,0 -0.3,0 -0.4,-0.2 h -0.4 L 200.4,2 199.1,1.9 198.4,1.8 h -1 l -1.3,-0.1 a 15.8,15.8 0 0 0 -1.7,0 l -0.3,-0.1 h -3.7 l -0.7,-0.1 h -0.8 a 15,15 0 0 0 -2,0 h -2.3 l -0.7,-0.1 h -2.6 l -1,-0.1 h -2.8 A 12.4,12.4 0 0 1 176,1.2 h -0.9 l -0.6,-0.1 h -1.8 L 172.4,1 h -1.9 a 5,5 0 0 1 -0.6,-0.1 h -1.4 a 3.9,3.9 0 0 0 -1,0 l -0.2,-0.1 h -1.8 L 165,0.7 h -1.8 l -0.3,-0.1 a 1,1 0 0 0 -0.3,0 h -1.4 a 1,1 0 0 0 -0.6,0 h -0.5 0.1 -1.8 V 0.5 h -1.3 0.2 -1.9 0.8 -2.4 1 V 0.3 h -1.2 0.1 V 0.2 h -1.1 0.1 -0.5 v 0.2 l -0.1,-0.1 h -0.3 a 0.5,0.5 0 0 1 -0.3,0 l 0.1,-0.1 c -0.1,0 -0.2,-0.1 -0.4,0 h -0.3 0.1 -0.6 l 0.2,-0.1 h -0.9 l 0.3,0.1 h -1.1 a 17,17 0 0 1 -2.4,0 h -0.2 c 0,0.2 -0.1,0.1 -0.2,0 h -0.2 a 0.7,0.7 0 0 0 -0.3,0 h -0.4 0.5 c 0,0.1 -0.2,0 -0.2,0.2 h -0.3 0.8 l -0.1,0.1 h -2.8 a 8.4,8.4 0 0 0 -1.2,0 h 0.3 -0.9 a 6,6 0 0 0 -0.5,0.1 h 0.7 v 0.1 h 0.1 -0.2 l -1,0.1 H 141 L 141.8,1 H 140 l -0.3,0.1 h -0.1 L 140.1,1 h -2.3 0.4 v 0.2 h 1.2 L 139,1 h 0.5 v 0.1 l 0.4,0.1 h 0.4 a 0.6,0.6 0 0 0 0.3,0 h 0.6 c 0,0.2 -0.2,0.1 -0.3,0.1 h 0.2 v 0.1 h 0.7 V 1.5 H 141 c 0,0.1 -0.2,0 -0.4,0 v 0.2 h -0.9 V 2 h -0.3 l 0.1,-0.2 h -0.4 0.1 L 139,1.9 h -1.9 1.2 l 0.2,-0.1 h -0.6 l 0.3,-0.1 h -0.4 c 0,-0.1 0.2,0 0.4,0 h 0.4 l 0.3,-0.1 h -0.1 l -0.1,-0.1 h -0.9 v 0.1 h -1.1 V 1.5 h -0.4 c 0,0.1 -0.1,0.1 -0.2,0 l -0.2,0.1 h -0.1 0.9 l 0.4,0.1 h -0.2 c 0,0.2 0.3,0 0.3,0.1 h -0.9 a 1,1 0 0 0 -0.3,0 h -0.3 0.1 l -0.2,-0.1 h -0.3 l -0.1,0.1 c -0.1,-0.2 -0.3,0 -0.5,0 0,-0.2 0,-0.2 0.3,-0.2 h -0.2 0.4 V 1.4 h -0.7 c -0.2,0.1 -0.4,0 -0.6,0.2 h 0.8 -0.3 c 0,0.1 0.1,0.1 0.2,0 v 0.1 h -0.7 a 2,2 0 0 1 -0.9,0 h 0.4 -1.3 0.3 -0.6 c 0,0 0.2,0 0.2,-0.2 h 0.5 a 0.2,0.2 0 0 0 0.1,0 l 0.1,-0.1 h -1.9 l 0.2,0.1 h 0.4 -0.4 c -0.1,0 -0.1,0.1 0,0.2 h -0.8 l 0.5,-0.1 h -1.7 1 V 1.5 h -0.8 1 l 0.1,-0.1 h 0.2 l -0.2,-0.1 h -0.6 0.4 c 0,-0.1 -0.1,0 -0.2,0 h -1.1 0.1 -0.2 1.2 v 0.1 h -0.1 a 0.2,0.2 0 0 1 -0.1,0 0.3,0.3 0 0 0 -0.2,0 h -0.6 0.2 c 0,0.1 -0.1,0.2 -0.3,0.2 H 127 c -0.2,-0.1 -0.3,0 -0.4,0 h 0.2 l -0.4,0.1 h -0.5 0.2 l 0.2,-0.1 h 0.2 -0.1 a 4,4 0 0 1 -0.5,0 h -0.4 l -0.2,-0.1 -0.2,0.1 H 125 a 3.7,3.7 0 0 1 -0.6,0 5,5 0 0 1 -0.7,0 h -2.3 c 0,0 -0.1,0 0,0 V 1.5 h -0.6 l -0.4,0.1 h -0.6 0.4 l 0.2,0.1 h 0.4 l -0.3,0.1 h -0.7 l 0.7,0.1 a 1,1 0 0 1 0.7,0.1 h -0.5 l 0.4,0.1 h -0.6 V 2 h -0.2 v 0.1 h -1.3 0.8 V 2 h -0.6 l 0.1,-0.2 h -0.8 0.6 l -0.6,0.1 V 2 h 0.1 -0.5 0.3 -0.2 l -0.4,-0.1 h 0.4 l 0.2,-0.1 H 118 a 0.6,0.6 0 0 1 -0.4,0 h 0.3 a 0.5,0.5 0 0 0 -0.3,0 h -0.8 0.6 V 2 h -0.8 1.3 -0.2 l -0.4,0.1 h -1 v 0.1 h -2.1 l -0.5,-0.1 h -1.2 l 0.5,0.1 h -1.7 0.1 -0.6 0.2 c 0.2,0 0.4,0 0.5,0.2 h -1 0.3 V 2.3 h -0.3 c -0.1,-0.1 -0.2,0 -0.2,0 h -0.2 l 0.3,-0.1 H 110 V 2 h 0.4 l 0.2,-0.1 h -2.2 0.3 l 0.2,0.1 h -0.7 l -0.6,0.1 -0.2,0.1 h -0.3 0.1 l 0.3,0.2 h 0.4 -2.4 a 0.3,0.3 0 0 1 0.2,0 H 106 V 2.2 h -0.3 0.2 l -0.1,-0.1 h -2.7 c 0,0 -0.1,0.2 -0.2,0.1 h 0.1 -0.9 V 2.1 h 0.6 v 0.1 h 0.7 -0.3 l 0.3,-0.1 h 1.2 c 0.1,0 0.1,0 0,0.1 h -0.3 0.8 l -0.3,0.2 V 2.3 a 6,6 0 0 1 -1,0 h -0.2 c 0,0.1 -0.2,0 -0.4,0 h -0.1 l -0.6,0.1 h -0.3 l 0.5,-0.2 -0.6,0.2 h 0.1 -1.2 0.3 V 2.2 h 0.5 L 102,2.1 h -0.1 a 0.4,0.4 0 0 0 -0.3,0 h -0.8 c 0,0.1 0.2,0 0.2,0.2 h 0.3 -0.3 l -0.2,0.1 h -0.9 0.1 a 3,3 0 0 1 -0.4,0 h -1.4 l 0.2,-0.3 h 0.3 -0.6 L 97.8,2 h 0.4 a 3,3 0 0 0 -1,0 H 97.5 97 c 0,0.1 0,0.2 -0.2,0.2 V 2.1 H 96 Z M 149.3,2 h -0.1 0.3 z M 96,2.5 h 0.1 -0.3 z m -44.7,2 c 0,-0.1 0.1,-0.1 0.2,0 H 51.3 V 4.4 Z M 31.5,9 h 0.3 -0.5 c 0,-0.1 0.1,0 0.2,0 z M 42.8,5 H 43 42.4 42.7 Z M 157.6,1.3 h -0.1 0.4 -0.2 z M 34.6,9 H 34 34.5 L 34.4,8.9 h 0.2 -0.1 z M 115.5,2.8 V 2.7 h 0.2 -0.4 0.2 z m -13.2,0.5 h -0.1 V 3.2 h 0.3 -0.2 l -0.1,0.2 H 102 V 3.3 Z M 60,4.3 59.9,4.2 h 0.4 C 60,4.3 60,4.3 59.9,4.2 H 60 Z M 6,12.4 5.4,12.5 H 6 c 0.2,-0.1 0.2,-0.1 0.4,0 H 6 Z M 126.1,2.8 h 0.6 -0.8 z m 5.8,-0.4 h 0.1 -0.5 0.5 z M 84.5,3 V 2.8 L 85,2.9 H 84.8 L 84.5,3 h -0.2 z m 38,0 c 0.3,-0.2 0.6,-0.1 0.8,-0.1 0,0 0,0.1 -0.1,0 h -0.6 0.4 -0.6 0.2 z M 78.7,3.7 h -1.1 1.6 a 1,1 0 0 1 -0.5,0 z M 84,4.4 a 0.5,0.5 0 0 1 0.3,0 h -0.9 z m 52.8,-1.2 a 1,1 0 0 1 -0.3,0 h -0.3 0.8 c 0,0.1 -0.1,0 -0.2,0 z M 87.4,2.5 V 2.4 h 0.5 -0.4 L 87.4,2.6 H 87 l 0.1,-0.1 h 0.2 z m 56.5,-0.9 v 0.1 l -0.2,0.1 h -0.2 V 1.6 h 0.5 -0.2 z M 96.7,2.3 a 1,1 0 0 1 0.5,0 c -0.1,0 -0.4,0 -0.3,0.2 H 96.7 L 96.8,2.4 H 96.5 Z M 37.3,5 a 3.2,3.2 0 0 1 0.5,-0.1 h 0.1 L 37.8,5 Z M 133,1.9 h 0.3 -0.8 l -0.2,-0.1 h 0.6 V 2 Z m -93.1,3 H 39.4 L 39,5.1 c -0.1,-0.1 -0.3,0 -0.4,0 V 5 h 0.7 l 0.6,-0.1 h 0.2 z M 60.7,4.4 h 0.7 -1.6 z M 49.9,4.6 H 50 c 0,-0.1 0.2,0 0.2,-0.2 H 50 50.4 l -0.2,0.3 h -0.3 z m 27,-1.4 h 0.1 -1 1 z m 36.3,-1 -0.1,0.1 -0.4,0.1 h -0.1 l 0.6,-0.1 h 0.3 -0.4 0.7 -0.3 0.2 l -0.2,0.1 h 0.1 -0.5 V 2.3 Z M 60.5,4.7 h 1 -0.4 0.2 v 0.1 h -0.6 0.1 -0.3 0.1 -0.2 0.1 z m 39.6,-0.4 h -1.4 3.8 -2.3 z m 1.6,-1.5 h 1.4 a 1,1 0 0 0 -0.4,0 h 1 -1.2 a 3,3 0 0 1 -0.3,0 h -0.7 0.2 l 0.2,-0.1 c 0,0 0,0.1 -0.2,0 z m 35.5,-0.7 h -1.8 a 0.6,0.6 0 0 1 -0.4,0 h 0.7 c 0,-0.1 0,-0.1 0.1,0 h 1.6 -0.1 z m -10.5,0.3 c 0,-0.2 -0.1,-0.2 -0.3,-0.1 a 0.3,0.3 0 0 1 -0.1,0 V 2 h -0.4 l 0.2,-0.1 h -0.1 0.3 l 0.4,0.1 h 0.4 a 0.2,0.2 0 0 0 0.1,0 0.4,0.4 0 0 1 0.3,0 l -0.2,0.1 h -0.6 c 0,0.1 0,0.2 -0.2,0.1 h 0.2 z M 80,3 c 0,0 0.1,-0.1 0.1,0 h 0.2 -0.1 l 0.4,0.1 h -0.3 a 0.7,0.7 0 0 1 -0.4,0 0.2,0.2 0 0 0 -0.1,0 c -0.1,0.1 -0.3,0 -0.4,0 -0.1,0 -0.3,0.1 -0.4,0 V 3.2 H 78.8 V 3 h 0.4 -0.2 0.5 -0.2 0.8 z m 44.6,-1.3 h 0.6 -1.1 l -0.5,0.1 h -1 0.2 -1.5 c 0,0 -0.3,-0.1 -0.4,0 h -0.2 l 0.2,-0.2 h 2 a 1.8,1.8 0 0 0 0.2,0 h 1.5 z m 4.1,0.4 h 0.7 l -0.5,0.1 a 2,2 0 0 1 -0.3,0 h -0.9 l 0.5,-0.1 h 0.5 -0.3 c -0.1,-0.1 -0.2,0 -0.2,0 h -0.5 L 127.2,2 127.4,1.8 h -0.3 c 0,0 0.1,-0.1 0.2,0 h 0.4 l 0.4,-0.1 h 0.4 -0.3 a 4,4 0 0 1 -0.8,0.2 h 1 l 0.2,0.1 h 0.1 z M 69,3.8 h -0.2 1.1 a 42.5,42.5 0 0 1 1.2,0 h -0.8 l -0.1,0.1 h -1 c 0,0.2 0,0.1 -0.1,0.1 H 69 69.2 68.4 L 68.3,3.9 h 0.3 V 3.7 H 70 69 Z M 82.5,3.3 h 3.2 V 3 h -0.2 l 0.2,-0.1 c 0.1,-0.1 0.3,-0.1 0.4,0 H 86.4 86 L 85.9,3 v 0.1 h -0.2 v 0.1 h 0.8 -0.7 a 9,9 0 0 1 -0.6,0 c -0.2,0.1 -0.3,0 -0.4,0 -0.3,0.1 -0.5,0.1 -0.8,0 l -0.7,0.1 h -0.7 a 1.2,1.2 0 0 1 -0.6,0 h -1.3 l -0.2,0.1 h -1.2 a 6,6 0 0 0 -0.6,0 h -0.9 a 0.7,0.7 0 0 1 -0.4,0 h 2.1 l 1,-0.1 h 1.8 V 3.2 h 0.6 -0.5 z m 64.2,-1.8 h -0.4 c 0.2,0 0,0 0,0.1 l 1.2,0.1 -0.1,0.1 c -0.1,-0.1 -0.3,0 -0.4,0 h -0.2 l -0.3,-0.1 -0.2,0.1 a 0.4,0.4 0 0 1 -0.2,0 h -0.7 0.3 l -1.2,-0.1 h -0.4 a 2,2 0 0 1 0.6,-0.1 h 1.3 -0.2 a 0.9,0.9 0 0 0 -0.4,0 h -0.1 l -0.2,-0.1 h -1.4 a 0.3,0.3 0 0 0 -0.2,0 l 0.5,0.1 h -0.8 l 0.2,-0.3 h 0.6 v 0.1 h -0.4 3.1 z M 89.3,2.9 H 89 a 0.7,0.7 0 0 0 -0.4,0 0.7,0.7 0 0 1 -0.3,0 V 3 H 88 L 88.2,2.9 V 2.8 h 0.3 c 0.1,0 0.3,0.1 0.4,0 -0.3,0 -0.5,-0.2 -0.7,0 L 88,2.7 a 1,1 0 0 1 -0.4,0 l 1,-0.2 h 1.1 -0.3 0.3 l -0.4,0.2 0.5,0.1 h -0.2 0.3 L 89.7,3 H 89.3 L 89.2,2.9 Z m 31.8,-0.4 h -2.2 a 0.3,0.3 0 0 1 -0.2,0 h 0.8 c 0,-0.1 -0.3,0 -0.4,-0.2 h 0.3 -0.2 0.7 -0.5 0.4 v 0.1 h 0.7 l 0.1,-0.1 h -0.4 0.3 a 1,1 0 0 1 0.6,0 h -0.4 0.3 l 0.2,0.1 h -0.2 0.1 z m 28,-0.8 h 1.3 l 0.5,0.1 h 0.5 -0.3 V 2 h -2.3 L 148.1,1.8 H 148 l 0.1,-0.1 h 0.6 -0.2 0.9 -0.2 0.1 z m -73.6,2 h -1.8 a 0.3,0.3 0 0 0 -0.2,0 H 73 l -0.9,0.1 h -0.3 l 0.6,-0.1 h 1.3 l 1.5,-0.1 h 0.3 z M 89.1,3.2 h 3.4 c 0.2,-0.2 0.3,0 0.4,0 h -0.8 a 1,1 0 0 0 -0.3,0 H 91 a 4.4,4.4 0 0 0 -0.7,0 H 90 a 1,1 0 0 0 -0.3,0 z M 101.7,3 h 1.8 a 5.7,5.7 0 0 0 1.1,0 h 1.8 a 3.3,3.3 0 0 1 -0.7,0 h -1.2 a 12.8,12.8 0 0 0 -1,0 h -0.2 l -0.4,0.1 h -0.8 z m 13,-0.6 h 0.7 a 0.6,0.6 0 0 1 0.4,0 c 0.2,-0.1 0.3,-0.1 0.4,0 h 0.1 -0.3 l -0.5,0.1 -0.4,-0.1 v 0.1 h -0.4 z M 97.9,3.1 h 0.6 -0.4 0.7 L 99.3,3 h 0.3 -0.2 0.5 -0.1 L 100,2.9 V 3 h 0.5 -0.3 l -0.3,0.1 h -1.2 c 0,0.1 0,0.1 -0.1,0 z M 144.2,1 h -1.9 V 0.8 h -0.1 1.9 l 0.1,0.1 z m -38.6,1.7 h 0.1 l 0.3,0.1 h 1.6 l -0.4,0.1 h -0.4 a 11.4,11.4 0 0 0 -1.5,0 l 0.1,-0.1 h 0.3 l 0.6,-0.1 h 0.5 -0.5 a 0.1,0.1 0 0 0 -0.1,0 c -0.1,0.1 -0.3,0 -0.4,0 z M 60,4.1 60.2,4 H 61 a 14.3,14.3 0 0 1 0.7,0 H 60.9 L 60.5,4.1 H 59.7 L 60,4 Z m 84.3,-3 h 2.1 -0.6 l -0.1,0.1 h -1.4 l -0.1,-0.1 z m -84,3.6 h -0.6 c -0.2,0.1 -0.3,0.1 -0.4,0 h 0.2 L 59.3,4.6 h 0.7 -0.3 0.5 l 0.2,0.1 z m 58.2,-2.2 h -0.2 a 0.5,0.5 0 0 0 -0.3,0 h -0.7 c 0,-0.1 -0.1,-0.2 -0.3,-0.2 h 0.5 l 0.2,0.1 a 7.8,7.8 0 0 1 1,0 h 0.1 -0.4 V 2.5 Z M 68.8,4.2 H 68.4 L 69,4 h 0.4 l -0.1,0.1 h 0.8 -1.2 L 68.5,4.2 68.9,4.1 Z M 57.7,4.6 a 12.3,12.3 0 0 1 -1.5,0 H 56.4 56 56.9 56.7 Z M 23.3,6 22.1,6.2 c 0,0 0.2,0 0.1,-0.1 L 22.3,6 H 21.9 L 23.1,5.9 22.4,6 h 0.2 c 0,0.1 0.1,0.1 0.2,0 z M 114,3 114.2,2.9 h 1.9 -2.1 z m 30.5,-2.2 h 2.6 c -0.1,0.1 -0.3,0.1 -0.4,0 z m -19.2,0.8 h 1.8 c 0,0 -0.1,0.1 -0.2,0 a 0.5,0.5 0 0 0 -0.3,0.1 h -1.3 z m 19.4,-1 h 1.5 a 1,1 0 0 1 0.5,0 z m -0.2,0 h -2 c 0.2,-0.1 0.4,-0.2 0.5,0 l 0.3,-0.1 a 11.4,11.4 0 0 1 1.2,0 z m -9,1.8 0.3,0.1 h -0.6 V 2.4 h -0.2 0.2 c 0,-0.2 0,-0.2 -0.2,-0.2 h -0.2 0.5 l 0.1,0.1 0.5,0.1 z M 53.7,4.2 h 0.2 l 0.2,-0.1 h 0.4 -0.1 l -0.1,0.1 h -0.1 l -1.1,0.2 h -0.2 l 0.8,-0.1 z m 97.5,-2.6 -0.5,0.1 h -0.8 l -0.1,-0.1 z m -25.6,0.5 h -1.4 a 2,2 0 0 0 -0.6,0 h -0.4 a 0.5,0.5 0 0 1 -0.3,0 h 0.5 a 2.9,2.9 0 0 1 0.6,0 z m 4,-0.1 h -0.5 0.2 l -0.1,-0.1 0.2,-0.2 h 0.5 -0.1 v 0.1 h 0.2 c -0.2,0.1 -0.5,0 -0.7,0.2 h 0.2 z m 51.2,5 h 0.3 v 0.1 h -1.3 L 179.4,7 Z M 130.4,2.6 h 1 l 0.3,-0.1 h 0.3 l -0.3,0.2 V 2.6 Z M 99.3,2.7 c 0.3,-0.1 0.6,0 0.8,0.1 h -0.3 a 0.5,0.5 0 0 1 -0.3,0 0.3,0.3 0 0 0 -0.2,0 H 99 99.5 L 99.2,2.7 Z M 44.6,8.3 a 3.4,3.4 0 0 0 -0.3,0 h -0.1 0.3 -0.2 l 1,-0.1 H 45 l -0.6,0.2 h 0.1 z m 50,-5.2 H 96 95.8 a 0.8,0.8 0 0 0 -0.4,0 H 95 L 94.9,3.2 94.5,3.1 Z m -0.3,0 h -0.4 l -0.8,0.1 c -0.1,0 -0.1,0 0,0 L 93.3,3.1 Z M 122.4,2 h 0.1 a 8,8 0 0 1 1,0 h 0.7 -0.2 a 3,3 0 0 0 -0.3,0.1 h -1.2 z m 14.8,0.4 c 0.2,-0.1 0.4,0 0.6,-0.2 l 0.3,0.2 h -0.7 0.3 z m -29.4,1 h -0.6 c 0,0.2 -0.2,0.1 -0.3,0 h 0.2 -0.7 c 0.3,-0.1 0.6,-0.1 0.8,0 h -0.3 z m 39,-1.8 h 1 a 0.7,0.7 0 0 0 -0.4,0.1 h -0.3 z M 80.6,4.2 h 0.2 -0.6 L 80,4 h 1.2 l -0.3,0.1 h -0.4 z m 45.7,-1.7 h -1 l 0.2,-0.1 h 0.7 z m -71,1.8 h -0.1 l -0.1,0.1 h -0.5 0.5 l 0.3,-0.1 h 0.3 l -0.6,0.1 h 0.2 z M 66.3,4 h 1.2 z M 19,5.3 17.5,5.6 c 0.1,-0.1 0.3,0 0.4,-0.2 H 17.6 19 Z m 38.8,-1 0.1,-0.1 a 3.1,3.1 0 0 0 0.7,-0.1 h 0.7 -0.8 L 58,4.2 H 57.8 Z M 53,4.8 h 1.2 -0.3 A 2,2 0 0 0 53.4,4.9 H 53 Z m 73.8,-2.3 h 0.4 a 0.3,0.3 0 0 1 0.2,0 h 0.3 l -0.2,0.1 h -0.7 z M 32.4,5.7 h 0.8 V 5.5 h 0.2 c 0,0.1 0.1,0 0.2,0 h 0.2 l -0.4,0.2 z m 7.4,3 -1.4,0.1 h 0.7 l 0.2,-0.1 h 0.2 a 0.6,0.6 0 0 1 0.3,0 z M 142,1.3 h 1 c -0.1,0.1 -0.3,0.1 -0.4,0 l -0.4,0.1 a 1.8,1.8 0 0 1 0.4,0 H 142 Z m -32.5,1 h 0.6 L 110,2.4 v 0.1 c -0.1,0 -0.2,-0.1 -0.4,0 V 2.3 Z M 58,4.6 58.2,4.5 H 59 58 Z M 92,3.5 h -1 1.1 z M 81,3 v 0.1 h -0.5 0.2 -0.1 0.1 a 3,3 0 0 0 -0.4,0 L 80.2,3 Z m 67.2,-2 h -1 0.1 a 2.1,2.1 0 0 0 0.8,0 z M 44,5.8 h 0.2 -0.6 V 5.7 h 0.2 L 44,5.6 h 0.1 z M 66,3.6 h 0.8 L 66.5,3.7 H 66 Z M 106.4,3 h 1.1 -0.4 a 1,1 0 0 1 -0.3,0 z M 83.8,3.7 h -1 z m -56.2,2 -1.5,0.1 0.7,-0.1 z M 86.5,3.3 h 0.2 l 1.4,-0.1 h -1 L 86.6,3.3 Z M 98.3,2.8 h -0.1 0.4 c 0.2,0 0.3,-0.2 0.5,-0.1 L 98.2,2.8 Z M 41.6,4.6 41.3,4.7 h -0.5 0.8 z M 29,5.5 28.3,5.6 h -0.4 l 1,-0.1 h 0.2 z m -20,7 -1.4,0.2 z M 131.3,2 h 0.1 a 0.6,0.6 0 0 0 0.3,0 h 0.6 z m -23.4,1 c 0.1,-0.2 0.2,-0.2 0.3,-0.2 h 0.5 -0.5 C 108.2,3 108.1,3 107.9,3 Z M 63.1,4.9 h 0.2 l 0.1,-0.1 0.3,0.1 h -0.2 c 0,0.1 -0.1,0.1 -0.2,0 H 63 Z m 84,-3.7 h -0.6 0.8 z M 113.9,3 h -0.7 c 0,0 0,-0.1 0.1,0 h 0.5 z m -77,5.8 h -1 0.8 z m 63,-5.5 h 0.8 -0.9 z m 10,-1.3 -0.1,0.1 h -0.3 0.5 z M 78.6,3.2 h -0.9 z m -2.3,0.4 h -0.8 z m -26,1.2 h 0.2 a 3.7,3.7 0 0 0 0.8,-0.1 h 0.1 z m 0.2,0.3 h 0.9 z M 145,2 c -0.1,0.1 -0.3,0.2 -0.4,0.1 h -0.5 0.9 z M 89.2,3.6 h 0.7 L 89.7,3.7 H 89.2 Z M 148.5,2 h -0.3 l -0.3,-0.1 h 0.5 z m -16.2,0.3 0.3,-0.2 0.2,0.2 h -0.4 z m -28.6,1 h 0.9 -0.2 v 0.1 h -0.2 0.1 -0.6 z M 149.4,2 h 0.7 z M 100,3.5 h 0.2 l 0.1,-0.1 h 0.4 -0.7 z m 33.8,-1 h -0.5 a 1.2,1.2 0 0 0 0.3,-0.2 h 0.1 v 0.2 z m -119.8,9 -0.3,0.1 h -0.3 c 0.2,-0.2 0.4,0 0.6,-0.1 z M 128.5,2.3 h -0.9 z M 76.4,3.7 h 0.8 a 3,3 0 0 1 -0.8,0 z m 35.7,0.1 h -0.2 l 0.4,-0.1 z M 125.8,2 125.5,2.1 h -0.3 0.6 z M 70.7,4.1 h 0.7 z M 86.5,2.7 c 0.2,0 0.3,-0.2 0.5,0 V 2.6 h 0.1 -0.6 z m -74.2,9 v 0.1 l -0.8,0.2 0.4,-0.2 h 0.4 z M 97,3.6 h 0.6 z m -53.8,5 V 8.5 A 14.1,14.1 0 0 1 43.9,8.4 H 43.5 A 3,3 0 0 0 43.2,8.5 Z M 153.5,1.8 h -0.5 0.6 z m -15.2,0.3 h 0.1 a 0.7,0.7 0 0 0 0.2,0 0.2,0.2 0 0 1 0.1,0 c 0.1,0 0.1,0 0,0 z M 97.6,2.8 c 0,0.1 0,0.2 -0.2,0.1 V 2.8 Z M 34.6,9 h 0.5 -0.6 z m 7.5,-0.5 0.5,-0.1 a 0.4,0.4 0 0 1 0.3,0 z M 157,2.1 h 0.9 -1 z M 19.3,10.5 c -0.1,0.2 -0.4,0 -0.5,0.2 H 18.7 Z M 156,1.3 h -0.8 z M 36.3,9 h 0.3 c 0.2,0 0.3,-0.1 0.4,0 z m -14.8,1.6 h -0.6 l 0.6,-0.1 z m 105.1,-8 h -0.1 l -0.1,-0.2 h 0.4 -0.3 l 0.1,0.1 z M 63,4.5 a 1.3,1.3 0 0 1 -0.7,0 z m 95.3,-2.7 a 3,3 0 0 1 -1,0 z m -46.7,0.8 h 0.4 -0.6 z M 91.8,4.3 a 2,2 0 0 1 -0.5,0 z M 41.3,8.5 a 1.3,1.3 0 0 1 -0.7,0.1 h 0.7 z m 56.3,-6 a 2,2 0 0 1 -0.6,0 z m 21.3,-0.3 h -0.3 c -0.2,0 -0.3,0.1 -0.4,0 H 119 Z M 70.3,3.7 a 1,1 0 0 1 0.6,0 z M 96.4,2.8 H 95.8 Z M 51.8,4.6 h 0.5 z m 86,-2 a 0.9,0.9 0 0 1 0.6,0 l -0.3,0.1 h -0.2 z M 34.7,9.3 h 0.5 z M 95.8,2.6 H 95.3 Z M 81,3.8 h -0.8 z m 62.3,-2 h -0.4 l 0.2,-0.2 0.3,0.1 z M 46,5.5 h -0.5 z m 6,-1.1 h 0.5 -0.4 z m 2.2,1.4 h -0.3 c 0,0 -0.2,0 -0.2,0.2 L 53.5,5.9 Z m 8,0.4 h -0.4 z m 132.4,0.7 h 0.7 z M 57.3,7.4 C 57.1,7.5 57,7.6 56.8,7.5 h 0.5 z m 85.2,-6.3 c 0,0 0.1,-0.1 0.1,0 a 0.3,0.3 0 0 0 0.2,0 c 0,0 0.2,-0.1 0.2,0 z m -77,2.6 H 66 Z m 36.1,-0.3 a 0.9,0.9 0 0 1 -0.5,0 z m 9.9,-0.8 v 0.1 h -0.3 0.3 z M 98,3.1 H 97.3 Z M 82.6,3.2 a 1.1,1.1 0 0 1 -0.7,0 z M 47.2,5 H 46.7 Z M 56.5,4.8 H 56 Z M 92.4,3.5 h 0.5 a 1,1 0 0 1 -0.5,0 z M 143.3,2 143.1,1.9 h 0.4 z M 117.2,2.8 V 2.7 a 0.8,0.8 0 0 1 0.4,0 h -0.4 z m -24,1.1 h -0.4 z m 7.3,-0.8 h 0.7 a 1,1 0 0 1 -0.7,0 z m 11,0.2 h 0.6 -0.7 z m 20,-1.5 h 0.6 a 0.7,0.7 0 0 1 -0.6,0 z m 0.2,0.5 c 0.2,-0.2 0.3,-0.2 0.4,0 z m -39.2,2 h 0.6 z M 73.5,4 h -0.1 c 0,-0.1 0,-0.1 0.4,0 -0.2,-0.1 -0.2,0 -0.4,0 z M 53.9,4.4 h 0.2 v 0.1 h -0.2 z m 53.6,-2 c 0,0 0,-0.1 0,0 h 0.3 z m 5.8,1.7 h -0.6 z M 143,2.7 c 0,-0.1 0.2,0 0.2,0 h 0.3 z m -36.6,0.6 h 0.2 c 0.1,0 0,0.1 0,0.1 h -0.2 z M 74.5,3.5 H 74.1 Z M 33.7,5.4 H 33.2 Z M 84,2.9 c 0,0.2 -0.2,0.2 -0.3,0 z m 72.5,-1 V 1.8 h 0.7 -0.7 z m -61,2.4 c 0.1,-0.1 0.3,0 0.4,0 h -0.5 z m 52.8,-2 h 0.5 z m -39.3,0 c -0.1,0.1 -0.2,0 -0.4,0 z m 0,0.4 h -0.6 a 1.1,1.1 0 0 1 0.6,0 z M 63,5.1 V 5 h 0.3 -0.2 L 63,5.1 H 62.8 Z M 24.6,6 h 0.1 l 0.4,-0.1 h 0.2 a 3,3 0 0 1 -0.7,0 z M 134.1,1.9 h 0.4 z m 20.6,-0.6 h -0.6 z M 118,3 h 0.5 -0.1 a 0.4,0.4 0 0 1 -0.3,0 z M 137.6,2 H 138 Z M 64,4.5 h 0.5 z m 93.3,-4 c -0.3,0.1 -0.3,0.1 -0.4,0 z M 121,3 h -0.3 z m 29.2,-2.5 h 0.3 z M 3.7,8.9 H 4 c 0.1,-0.1 0.1,0 0.2,0 H 3.8 Z M 156.3,2 h -0.6 z M 21.8,6.3 H 21.2 Z M 69.6,4.5 H 70 Z m 2.1,-0.4 h 0.6 z M 88,2.9 h -0.4 z m 51.7,-0.7 h -0.3 z m 14.4,-1 h -0.5 z M 61.6,5.4 h -0.7 z m 30.3,-2 h 0.5 a 3,3 0 0 1 -0.5,0 z m 65,-2 h 0.5 z M 43.5,5.4 H 43.2 L 43.5,5.3 Z M 53.2,4 h 0.6 z M 109,3 h 0.6 z m 34.6,-0.5 h 0.5 z m -41,1.3 h -0.5 a 0.6,0.6 0 0 1 0.4,0 z m -51,0.7 0.1,-0.2 h 0.2 c 0,0.2 0,0.2 -0.2,0.2 z M 146.5,1.8 H 147 Z M 16.4,5.5 h 0.4 z M 77.2,3.9 H 76.5 Z M 49,4.6 48.7,4.7 H 49 Z M 27.7,9.8 H 28 Z m 111,-7.4 h -0.2 0.3 z m -33.3,1.7 a 1,1 0 0 1 -0.4,0 z m 30.7,-1.8 a 0.7,0.7 0 0 1 -0.3,0 z m -91.9,5 h 0.4 z m 56,-3.5 a 0.8,0.8 0 0 1 -0.5,0 z m 23,0 h -0.5 c 0.2,-0.2 0.3,0 0.5,0 z M 176.3,7 h -0.5 z m -95,-3.2 c 0.1,-0.1 0.3,0 0.4,0 z m 48.2,-2.2 h 0.4 a 0.5,0.5 0 0 1 -0.4,0 z m -27,1.6 h -0.5 0.4 z m -34,0.6 h -0.2 0.3 z M 94.5,4 H 94 l 0.2,-0.1 h 0.2 z M 80.9,4.6 c -0.1,0.1 -0.3,0 -0.4,0 z m 49.9,-2.5 h 0.3 z m 11,0 h 0.4 -0.5 z m -8.7,0.5 h 0.4 a 0.7,0.7 0 0 1 -0.4,0 z M 93.6,3.4 a 1,1 0 0 1 -0.5,0 z M 52.7,4.6 h 0.2 z m 28,-1 -0.4,0.1 h -0.1 0.4 z M 28.2,5.4 h 0.4 -0.3 z M 6,7.2 H 5.5 Z M 77.4,4.8 c 0.1,-0.1 0.2,-0.1 0.4,0 z m 39.3,-2.5 c 0,0 0,0.1 -0.1,0 h -0.1 z M 5,8 5.3,7.9 H 5 Z m 99.3,-5.2 c 0.3,-0.1 0.3,-0.1 0.4,0 z M 149.6,2.2 H 149 Z m -96,2.4 V 4.5 h 0.3 -0.4 z m 4,0.1 h 0.2 -0.3 z m -15,1.2 h -0.3 a 0.6,0.6 0 0 1 0.4,0 z m 62.3,-1.7 h -0.5 z M 155.5,2 h -0.4 z m -13.7,4.1 h -0.5 z m -7.5,-3.4 -0.1,-0.2 h 0.1 l 0.2,0.1 h -0.2 z m -106,7 0.3,-0.1 H 28.3 Z M 69.4,4 A 0.9,0.9 0 0 1 70,4 Z m 39,-1.7 v 0.1 h -0.2 0.2 z m 17.1,0 h -0.3 c 0.1,-0.2 0.2,-0.1 0.3,0 z M 59.1,4 h 0.1 -0.3 z M 89.4,4.4 H 89.1 Z M 61.5,4.2 H 61.3 Z M 23,10 h -0.3 0.2 z M 152,2 a 0.7,0.7 0 0 1 0.3,0 h -0.4 z m -7,-0.2 h 0.4 z M 78.6,4.2 a 0.7,0.7 0 0 1 -0.3,0 z M 91.8,3 h -0.4 z m 23.5,1 c -0.1,0.1 -0.1,0.1 -0.2,0 z m 0.3,-0.7 h -0.4 z m -9.2,-0.2 h 0.3 z M 66.6,4.7 H 66 66.5 Z m 114.2,2.1 h 0.5 z M 68.6,5 H 68.3 Z M 27.1,5.2 h 0.3 c 0,0.1 0,0.1 -0.2,0 z m -3.8,1 0.3,-0.1 H 23.3 Z M 105,3.8 h -0.4 z m -8.4,-1 H 97 Z m -2.1,0.7 h 0.3 z m -6,1 h 0.3 z m 71.3,-3.9 a 0.6,0.6 0 0 1 0.3,0 z m -59.6,1.8 h 0.3 a 0.5,0.5 0 0 1 -0.3,0 z M 62.8,7.2 h 0.4 z M 100.2,2.6 100,2.7 h 0.2 z M 80.5,4.2 h -0.3 z m 37,-2 h 0.3 z M 115,4.1 h -0.3 0.2 z m 2.5,-2 c -0.1,0.2 -0.1,0.2 -0.3,0.1 h 0.3 z M 94.7,4 H 95 94.6 Z m 35.7,-0.7 h 0.4 z M 61,4.9 h -0.4 z m 69.5,-0.6 c 0,-0.1 0.1,0 0.2,0 z M 75,4 h 0.5 z m 60,-2 h 0.3 z M 65.7,4 h 0.4 z m 70.7,-0.7 h -0.3 z m 0.1,-1.1 h 0.3 z M 55,4.7 h 0.4 c -0.2,0 -0.3,0.1 -0.4,0 z m -10,0 h -0.3 z m 102.5,-4 h 0.3 a 0.6,0.6 0 0 1 -0.3,0 z M 36.2,5.4 c 0.1,-0.1 0.1,-0.1 0.2,0 z m 71,-2.8 h -0.2 0.3 z m 46,-2.3 h 0.5 z m -118,8.8 h 0.3 z m 79.6,-5.8 c 0,0.1 -0.1,0.1 -0.2,0 z m -9,0.5 h -0.2 l 0.2,-0.1 h -0.1 0.1 z M 64.7,4 H 64.4 Z M 92.9,3.2 H 92.6 Z M 122.4,4 h 0.3 z M 84.9,3.1 H 84.7 V 3 h 0.2 z M 63,4.6 62.8,4.5 H 63 Z m 79.4,-3 h 0.3 z M 50.1,4.4 c 0.1,0 0.2,-0.1 0.4,0 H 50 Z M 169.4,2.6 h 0.3 z M 80,2.7 a 0.4,0.4 0 0 1 -0.3,0 0.3,0.3 0 0 0 0.2,0 z m -0.4,1.1 h 0.3 z m 51.6,-1.4 h 0.2 z M 55.9,5 H 55.6 Z M 98.3,4.2 H 98 98.1 a 0.3,0.3 0 0 1 0.2,0 z m -93.1,8 c 0,-0.1 0,-0.1 0.2,0 z m 11.7,-1 H 16.6 Z M 96.4,3.5 h 0.3 z M 63.7,5 H 63.4 Z M 146,0.3 h 0.2 L 146,0.4 Z m 0.3,2 0.2,0.1 h -0.2 z m 13.3,-1.5 h -0.3 z M 72.9,4 h 0.3 z m -4,0.6 V 4.5 h 0.2 -0.3 z M 35.9,9 H 36.2 36 Z M 77.2,3.1 h 0.3 z M 103.6,3 H 104 Z M 77.5,2.7 h -0.2 z m 34.4,0.1 h -0.3 z m 2.2,0.4 h 0.4 z M 142.7,2 a 0.5,0.5 0 0 1 -0.3,0 z M 49.6,7.8 h 0.3 z M 97.3,2.9 H 97 Z M 97,2.8 h 0.3 z M 126.5,3 h 0.3 z M 93,3.2 a 0.2,0.2 0 0 1 -0.2,0 z m -51,2 h 0.3 z m 66.3,-3 0.2,0.1 h -0.2 z M 93.1,3.8 h 0.2 z M 29.5,9.5 h 0.2 z M 154.5,2 h -0.3 z m -48.2,1.3 h -0.2 z M 60.8,5.6 H 60.5 L 60.7,5.5 Z M 59,4.4 h 0.3 z m 0,0.2 H 58.8 Z M 73.2,3.9 H 73 Z m -18,2.3 h 0.4 -0.3 z m 0,-0.4 h -0.1 0.2 z M 79.1,4.2 h 0.2 z m -65,7.4 c 0,-0.1 0,-0.1 0.2,0 H 14 Z M 75.6,3.9 H 76 Z M 100,3.6 h 0.2 z M 40.8,4.8 h 0.3 z m 62.5,-1.9 h -0.2 z M 33.6,9.1 H 33.3 Z M 20.5,5 H 20 20.4 Z M 99,3.3 h 0.3 z m 48.9,-2.7 a 0.2,0.2 0 0 1 0.2,0 c 0,0.1 -0.1,0 -0.2,0 z m -35.2,3 c 0,0.1 0,0.2 -0.2,0.2 l 0.2,-0.1 z M 25.1,5.8 a 0.2,0.2 0 0 1 -0.2,0 z M 138,2.1 h 0.3 z m 17,0 V 2.2 Z M 72.7,4.7 h 0.2 z M 56.8,4.8 H 57 Z m 54.8,-1.3 h 0.2 z M 82,3.7 h 0.3 z m 39,0 h -0.3 0.4 z m 32,-3.3 h 0.3 -0.2 z M 140.6,2 h 0.2 z M 82.7,3.7 h -0.3 z m 16,-0.3 h -0.2 0.3 z m 1.2,0 H 99.7 Z M 32.2,9.2 H 32 32.3 Z m 109,-6.6 h 0.3 c -0.1,0.1 -0.2,0 -0.2,0 z m 7.4,-0.3 0.2,0.1 h -0.2 z M 83,3.6 h -0.3 z m 18.6,1.8 h -0.4 0.3 z M 67.6,3.6 H 67.4 Z M 44.7,5.7 H 45 Z M 97,2.7 h 0.1 z m 69,4.1 h 0.3 -0.2 z M 72.4,4 H 72 72.2 Z M 17.7,10.7 H 17.4 Z M 147.7,1 h 0.2 -0.3 z M 37.3,5.2 h 0.3 z M 125,2.3 h -0.1 c 0,0 0.1,0 0,0 z M 86.7,3.4 h 0.2 c 0,0.1 -0.2,0.2 -0.2,0 z M 147,2 h 0.2 z M 87.2,2.6 h 0.2 z M 63.9,4 h 0.2 z M 35.2,9 h 0.2 z M 159.6,2.8 h -0.3 z M 13.3,11.6 H 13.1 Z M 45,6.3 h 0.2 z m 98.2,-3.8 h 0.2 z m 32,4.4 h -0.2 0.3 z M 51.3,7.6 h -0.2 c 0,-0.1 0.2,0 0.2,0 z M 89.5,4.3 V 4.4 Z M 141.1,2 h 0.2 z m -6,0 h 0.2 -0.3 z M 54.3,5.6 H 54.1 Z M 28.2,5 h 0.3 z M 101,3.8 h -0.3 z m 54.8,-3.1 h 0.1 z m -26.2,0.5 h -0.2 z m 7.6,1.1 H 137 Z m -4,-0.1 h -0.3 a 0.5,0.5 0 0 1 0.3,0 z M 60.6,5.4 H 60.3 Z M 24.3,10.1 H 24 24.2 Z m 87.4,-7.7 h 0.2 z m 26.7,0.2 h -0.2 z m -93.3,4 h 0.2 z m -1.5,0.3 h 0.2 z m 66.5,-3.6 h -0.3 z m -0.4,-1 V 2.2 h 0.2 -0.2 z m 22,-0.8 h 0.2 -0.3 z M 38.7,7 a 1.3,1.3 0 0 1 0.2,0 z m 86,-4 h -0.2 z m -15.6,-1 0.2,0.1 z m 27.2,0.3 h -0.1 z m -23.8,0 c 0,0.1 0,0.1 -0.1,0 z M 66,3.8 c 0,-0.1 0,-0.1 0.2,0 z M 34.2,9.2 h 0.3 z M 90,3.4 h 0.2 z M 69,4.5 h 0.2 a 0.2,0.2 0 0 1 -0.1,0 z m 0,2.2 h 0.2 z M 119,3 h 0.2 z M 17.3,11 h 0.2 z M 190.6,6.8 h -0.1 z M 95.2,3.5 H 95 Z m 96.2,3.4 h 0.2 z m -96,-2.7 h -0.1 z m 38.3,-2 h -0.2 z m -88.2,6 h 0.2 z m 29.8,-5 c 0.1,-0.1 0.1,-0.1 0.2,0 z M 50,4.1 H 49.9 Z M 101.4,3 h -0.3 z M 51,7.7 H 50.8 Z M 190.8,6.9 H 191 Z M 6,8.5 H 6.2 Z M 114.8,2.4 h -0.2 z m 10.8,1 h -0.1 z M 7.1,12.9 H 7 7.2 Z M 52.7,6.9 52.5,7 h 0.2 z M 70.2,6 h 0.2 z M 7.2,7 H 7.5 7.3 Z M 135,2.2 h -0.2 z M 53.1,5.4 h 0.2 z m 0.6,0.4 h 0.2 z m 93.8,-4.5 h -0.2 z m -60.3,1.4 0.2,0.1 h -0.2 z m 20.4,0 h -0.2 c 0,-0.1 0,-0.1 0.2,0 z M 77,4.3 h -0.2 z m 23.3,-1.7 h 0.1 z m 21,-0.3 h -0.1 z m 9.6,-0.5 h 0.1 z m 6.8,-0.2 -0.1,-0.1 z M 59.9,5.2 h 0.2 z m 92.9,-3.8 h -0.2 z M 27.4,9.8 h 0.1 z M 153.5,1.4 h -0.2 a 0.2,0.2 0 0 1 0.2,0 z M 92,4.4 h 0.3 z m 61.9,-4 h -0.2 z M 23.9,5.6 H 23.8 24 Z M 131.3,4 h -0.2 z M 96.4,2.4 V 2.5 Z M 18,11.1 h 0.1 z M 93.4,3.5 h 0.2 z M 44.7,7.8 H 44.5 Z M 47,8 H 46.8 Z M 44.7,5.2 h -0.1 z m 20.5,-1 c 0,-0.1 0,-0.1 0.2,0 z M 78,3.7 h 0.1 z m 66.8,-0.9 h 0.2 z m -11,-0.6 h -0.2 z m 0.2,0.3 h 0.1 z M 18.3,5.3 H 18.1 Z M 71.6,6.6 H 71.5 Z M 19.2,5.3 h 0.1 z M 71.5,4.6 H 71.3 Z M 100.2,3 H 100 Z M 22,5 h 0.1 z M 134.3,3.3 h 0.2 z M 133,1.7 h -0.2 z M 76.2,4.3 h 0.2 z M 24.6,10.1 H 24.4 Z M 53.7,5 h 0.2 z M 82.2,6 H 82 Z m 18.4,-3 h 0.3 z m 8.3,-0.8 h -0.2 z M 68.6,4.7 H 68.4 Z M 58.5,7 h -0.2 z m 0,-0.6 h 0.2 z M 68.6,4.7 h 0.1 z m 62,-2.5 h 0.2 z M 59,6.7 h -0.3 z m 92.4,-5.2 h 0.1 z m -83,5.2 h 0.3 -0.2 z m 25.4,-3 H 94 Z M 132,6 h 0.2 z M 104.8,3 V 2.9 h 0.1 -0.1 z M 80,4.6 h 0.2 z M 26.7,9.3 h 0.1 z M 171.8,7 h -0.1 z M 32.1,9.3 h 0.1 z m 34,-4.6 h 0.2 z M 61.4,4.3 h -0.1 z m -27.5,5 h -0.2 z m -18.8,2 v 0.1 h -0.2 0.2 z M 68.4,3.6 h 0.1 z M 82,4.4 h 0.1 z m 18.1,-0.5 h 0.2 z M 85.4,3.6 h 0.2 z M 22.4,6 h 0.2 z m 18.2,0.3 h 0.1 z m -24.4,5 -0.1,0.1 h 0.1 z M 41.7,8.6 a 0.2,0.2 0 0 1 -0.2,0 z M 63.2,4.2 h 0.1 z m 72.7,-0.6 h -0.1 z m 10,-2.3 h -0.1 z m -82.2,6 h -0.2 z m 81.5,-4.6 c 0,0.1 0,0.1 0,0 z M 63.8,4 H 63.6 Z M 78.6,3 h 0.1 z M 84.1,2.8 H 84 84.2 Z m -1.3,1.4 h 0.1 z m 15,-1.8 h 0.1 z m 12.8,0.1 h -0.1 z M 78,3.5 C 78,3.3 78.1,3.4 78.2,3.4 H 78 Z m 34.6,-0.1 h -0.2 z M 46,4.8 h -0.2 z m 20.1,0 V 5 H 66 66.1 Z m 49,-0.3 h -0.2 0.1 z M 45.3,5.7 h 0.2 z M 45,4.4 h 0.1 z m 1.7,0.4 H 46.6 Z M 47.6,8 h -0.2 z m 1.5,-0.1 h 0.1 z M 51,7 h -0.1 z m 50.5,-4.3 h -0.1 z M 41.2,5 h 0.1 z M 84.7,3.8 h 0.2 z m 9.8,-1 V 2.9 H 94.4 Z M 174.8,7 h -0.2 z M 141.4,1.3 h -0.1 z M 104.8,2.9 H 105 Z M 53.5,5.2 H 53.4 V 5 Z M 39.2,4.9 h 0.1 z m 96.4,-3.1 h -0.2 0.1 z M 37.2,8.9 h -0.1 z m 92.1,-6.4 h -0.1 z M 19.1,10.7 H 19 Z M 157.7,2.4 h -0.1 z m -103,5 V 7.3 h 0.1 z M 101.2,2.8 H 101 Z m 38.3,-0.7 h 0.1 z M 63,5 h 0.1 z m 93.5,-3 h 0.2 z m -0.3,-0.8 h 0.1 z m -34.7,0.6 h -0.1 z m -28.7,2 H 92.6 Z M 62.1,7.2 h -0.2 z m 74.8,-4.9 h -0.1 z M 79.4,4.7 h 0.1 z m 18,-2.5 h 0.2 -0.1 z M 27,5 h 0.2 z M 153,1.2 h -0.2 z M 114.5,3 h 0.1 z m -10.8,0.3 h 0.1 z m -0.2,-0.1 h -0.2 z m -46,4 h 0.2 -0.1 z M 148.7,1 h -0.1 z M 35,6.1 h 0.1 z M 136.4,4 h 0.1 z M 117.7,3 h 0.1 z M 53.9,7 H 54 Z M 37.3,4.8 h 0.1 z M 67.2,4 h 0.1 z m 15.4,0 h 0.1 z M 53.1,5 h 0.2 z m 79.6,-3 h -0.1 z M 135,1.8 h 0.1 z M 52,4.3 h 0.1 z M 96,3.4 h 0.1 z m -1.4,0.4 h 0.2 z M 4,10.4 h 0.1 z"
       fill="#411e43"
       id="path12" />
  </g>
</svg>
