<svg width="8" height="11" viewBox="0 0 8 11" fill="none" xmlns="http://www.w3.org/2000/svg">
<path d="M2.29908 0.245241C2.26484 0.21103 2.21437 0.188659 2.15872 0.183032C2.10308 0.177405 2.04681 0.188981 2.00224 0.215223L0.995109 0.811993C0.950646 0.83834 0.921572 0.877175 0.914259 0.919988C0.906946 0.962801 0.921991 1.0061 0.956096 1.04039L5.18521 5.27259L0.952704 9.50447C0.918598 9.53876 0.903553 9.58206 0.910866 9.62487C0.918179 9.66768 0.947254 9.70652 0.991717 9.73287L2.00182 10.33C2.04639 10.3562 2.10266 10.3678 2.1583 10.3622C2.21394 10.3565 2.26442 10.3342 2.29866 10.2999L7.22873 5.37211C7.25727 5.34358 7.27275 5.30859 7.27275 5.27259C7.27275 5.23659 7.25727 5.2016 7.22873 5.17308L2.29908 0.245241Z" fill="currentColor"/>
</svg>
