<svg width="144" height="87" viewBox="0 0 144 87" fill="none" xmlns="http://www.w3.org/2000/svg"><path d="M56.368 105.053c-13.361 12.424-36.116 9.139-46.77-4.015-12.61-15.536-15.128-44.981 6.84-71.321C27.334 16.652 40.466 6.747 55.819 0L62.9 11.405C41.06 21.989 24.736 36.339 22.422 60.398c9.855 0 18.03-.357 25.313 2.248 8.291 2.967 13.327 8.47 15.394 14.779 3.279 9.878 1.69 19.772-6.76 27.628zm79.192 0c-13.362 12.424-36.117 9.139-46.77-4.015-12.61-15.536-15.128-44.981 6.84-71.321C106.525 16.652 119.656 6.747 135.01 0l7.081 11.405c-21.841 10.584-38.166 24.934-40.479 48.993 9.854 0 18.03-.357 25.313 2.248 8.291 2.967 13.327 8.47 15.394 14.779 3.278 9.878 1.689 19.772-6.76 27.628z" fill="#DCDFFB"/></svg>