<svg width="55" height="55" fill="none" xmlns="http://www.w3.org/2000/svg"><rect x=".5" y=".5" width="54" height="54" rx="7.5" fill="#F8F5F0" stroke="#F8F5F0"/><path d="M24.242 11.684a10.04 10.04 0 1 1-5.028 1.347 10.014 10.014 0 0 1 5.029-1.34v-.007zm0-.684a10.732 10.732 0 1 0-.029 21.464A10.732 10.732 0 0 0 24.243 11z" fill="#C9C9C9"/><path d="M23.691 16.08a10.589 10.589 0 1 1 .027 21.179 10.589 10.589 0 0 1-.033-21.178h.006zm-.006-2.07a12.666 12.666 0 1 0 10.971 6.332 12.596 12.596 0 0 0-10.971-6.332z" fill="#C9C9C9"/><path d="M29.066 18.787a9.874 9.874 0 1 1-9.874 9.871 9.885 9.885 0 0 1 9.874-9.872zm0-3.451a13.331 13.331 0 1 0 0 26.662 13.331 13.331 0 0 0 0-26.662z" fill="#000"/></svg>