                <svg
                    width="106"
                    height="30"
                    viewBox="0 0 106 30"
                    fill="none"
                    xmlns="http://www.w3.org/2000/svg"
                  >
                    <path
                      opacity="0.6"
                      d="M13.4132 0.893369C15.5347 0.894501 17.5966 1.59544 19.2792 2.88753C20.9619 4.17962 22.1713 5.99069 22.72 8.04001C23.2687 10.0893 23.1261 12.2624 22.3143 14.2224C21.5024 16.1825 20.0666 17.8199 18.2295 18.881C16.3925 19.9421 14.2567 20.3675 12.1532 20.0914C10.0497 19.8152 8.09612 18.8529 6.59519 17.3536C5.09425 15.8542 4.12982 13.9017 3.8514 11.7985C3.57299 9.69533 3.99613 7.55907 5.05524 5.72084C5.89999 4.25203 7.11791 3.03256 8.58565 2.18593C10.0534 1.33931 11.7188 0.895607 13.4132 0.899768V0.893369ZM13.4132 0.236338C10.9131 0.232937 8.49697 1.13871 6.61523 2.78484C4.73349 4.43096 3.51448 6.70514 3.18538 9.18352C2.85629 11.6619 3.43956 14.1754 4.8265 16.2556C6.21344 18.3357 8.30942 19.8406 10.7238 20.4898C13.1382 21.139 15.7063 20.8881 17.9494 19.784C20.1925 18.6799 21.9577 16.7979 22.9159 14.4886C23.8741 12.1794 23.9599 9.60056 23.1575 7.2327C22.355 4.86485 20.719 2.86955 18.5542 1.61866C16.9913 0.715389 15.2184 0.238693 13.4132 0.236338Z"
                      fill="white"
                    />
                    <path
                      opacity="0.6"
                      d="M12.8829 5.11519C15.3497 5.11372 17.7328 6.00913 19.5883 7.63456C21.4438 9.25999 22.645 11.5046 22.9682 13.9501C23.2914 16.3955 22.7145 18.8751 21.3449 20.9268C19.9754 22.9784 17.9067 24.4621 15.5242 25.1015C13.1418 25.7409 10.6081 25.4923 8.39541 24.4021C6.18267 23.3118 4.44177 21.4543 3.49711 19.1756C2.55244 16.8969 2.46845 14.3525 3.26077 12.0165C4.0531 9.68042 5.6677 7.71211 7.80372 6.47831C9.34667 5.58891 11.0956 5.11896 12.8765 5.11519H12.8829ZM12.8765 3.12703C10.2 3.1278 7.59848 4.01168 5.47546 5.64159C3.35243 7.2715 1.82652 9.55637 1.13434 12.1419C0.442166 14.7273 0.622412 17.469 1.64713 19.9416C2.67184 22.4142 4.48376 24.4796 6.80191 25.8175C9.12005 27.1555 11.8149 27.6911 14.4685 27.3415C17.1221 26.9919 19.5862 25.7764 21.4786 23.8837C23.3711 21.991 24.5862 19.5267 24.9354 16.873C25.2847 14.2194 24.7486 11.5246 23.4103 9.20669C22.348 7.35318 20.8136 5.81417 18.9633 4.74626C17.113 3.67835 15.0129 3.11965 12.8765 3.12703Z"
                      fill="white"
                    />
                    <path
                      d="M18.0435 7.71328C19.9185 7.71328 21.7515 8.26933 23.3105 9.3111C24.8695 10.3529 26.0846 11.8336 26.802 13.5659C27.5195 15.2983 27.7071 17.2045 27.3412 19.0435C26.9752 20.8825 26.0721 22.5717 24.7461 23.8974C23.4201 25.2232 21.7307 26.1259 19.8916 26.4914C18.0525 26.857 16.1463 26.6689 14.4141 25.9511C12.6819 25.2332 11.2015 24.0178 10.1601 22.4586C9.11865 20.8993 8.56301 19.0662 8.56343 17.1912C8.56682 14.6781 9.56676 12.269 11.3439 10.4923C13.1211 8.7155 15.5304 7.7161 18.0435 7.71328ZM18.0435 4.40039C15.512 4.40039 13.0374 5.15106 10.9325 6.55746C8.8277 7.96387 7.18718 9.96285 6.21844 12.3016C5.24969 14.6404 4.99622 17.2139 5.49008 19.6967C5.98395 22.1795 7.20296 24.4602 8.99298 26.2502C10.783 28.0402 13.0636 29.2592 15.5464 29.7531C18.0293 30.2469 20.6028 29.9935 22.9415 29.0247C25.2803 28.056 27.2793 26.4154 28.6857 24.3106C30.0921 22.2058 30.8428 19.7312 30.8428 17.1997C30.8428 13.8051 29.4943 10.5496 27.0939 8.14922C24.6936 5.74888 21.438 4.40039 18.0435 4.40039Z"
                      fill="white"
                    />
                    <path d="M47.9314 15.1074H47.1357V23.3758H47.9314V15.1074Z" fill="white" />
                    <path d="M47.9314 11.7676H47.1357V13.231H47.9314V11.7676Z" fill="white" />
                    <path
                      d="M43.0494 17.5878C43.5481 17.3733 43.9657 17.0057 44.2418 16.5383C44.5263 16.0628 44.6739 15.518 44.6685 14.9639C44.6671 14.6083 44.6051 14.2555 44.485 13.9208C44.3687 13.5855 44.194 13.2735 43.9688 12.9992C43.7455 12.7274 43.4698 12.5033 43.1582 12.3401C42.8295 12.1675 42.4628 12.0802 42.0916 12.0862H36.8311V23.3752H42.1108C42.5133 23.3796 42.9129 23.3072 43.2883 23.1619C43.6483 23.0197 43.9772 22.8089 44.2568 22.5411C44.5327 22.2764 44.7544 21.9605 44.9095 21.611C45.071 21.2479 45.1524 20.8543 45.1485 20.457C45.1568 19.8159 44.9586 19.1891 44.5832 18.6693C44.2116 18.143 43.6699 17.761 43.0494 17.5878ZM37.6417 12.8158H41.8718C42.1527 12.8125 42.4304 12.8753 42.6825 12.9992C42.9241 13.1182 43.1384 13.286 43.3118 13.492C43.4898 13.7055 43.6297 13.9479 43.7256 14.2088C43.8276 14.4861 43.8789 14.7794 43.8771 15.0749C43.8769 15.3667 43.8227 15.6561 43.7171 15.9282C43.6198 16.193 43.4752 16.438 43.2904 16.6513C43.1042 16.8584 42.8806 17.0285 42.6313 17.1526C42.3661 17.2831 42.0735 17.3482 41.778 17.3425H37.6417V12.8158ZM44.1629 21.1972C44.0492 21.4679 43.8906 21.7175 43.6936 21.9353C43.497 22.1527 43.2591 22.3288 42.9939 22.4537C42.7171 22.5812 42.4155 22.646 42.1108 22.6435H37.6417V18.0166H42.2217C42.5113 18.0153 42.7973 18.0802 43.0579 18.2064C43.3147 18.3329 43.5439 18.5091 43.732 18.7248C43.9249 18.9444 44.076 19.1974 44.1779 19.4714C44.2836 19.7479 44.3379 20.0415 44.3378 20.3375C44.3373 20.6329 44.2778 20.9251 44.1629 21.1972Z"
                      fill="white"
                    />
                    <path
                      d="M92.323 22.2626V18.2244C92.323 17.2061 92.0343 16.4083 91.4569 15.8309C90.8795 15.2535 90.0924 14.9648 89.0954 14.9648C88.1526 14.9648 87.1457 15.3254 86.0748 16.0464L86.3927 16.5861C86.8139 16.2873 87.2702 16.0416 87.7515 15.8544C88.1652 15.6928 88.6045 15.6068 89.0485 15.6005C89.3822 15.5834 89.7158 15.6361 90.028 15.7551C90.3402 15.8741 90.6241 16.0568 90.8617 16.2917C91.0908 16.5437 91.2678 16.8386 91.3823 17.1593C91.4969 17.48 91.5469 17.8203 91.5294 18.1604V18.971C91.1322 18.8248 90.7223 18.7156 90.305 18.6446C89.8584 18.5662 89.4059 18.5262 88.9525 18.5252C88.4826 18.5204 88.0143 18.5821 87.5617 18.7086C87.1724 18.8167 86.804 18.989 86.4716 19.2185C86.1793 19.4191 85.9353 19.6822 85.757 19.9886C85.5861 20.2886 85.4985 20.6289 85.5031 20.9741C85.5031 21.3223 85.5758 21.6667 85.7164 21.9853C85.8521 22.293 86.0505 22.5691 86.2988 22.7959C86.5542 23.0287 86.8508 23.2118 87.1734 23.3356C87.513 23.4694 87.875 23.5374 88.24 23.5361C88.9012 23.5421 89.5559 23.4061 90.1599 23.1372C90.7337 22.8842 91.2342 22.4901 91.6148 21.9917V22.6764C91.6118 22.7749 91.6317 22.8727 91.6728 22.9623C91.7138 23.0518 91.775 23.1306 91.8516 23.1927C91.9967 23.3201 92.1832 23.3906 92.3763 23.391H92.5107C92.5616 23.3911 92.6123 23.3861 92.6622 23.3761V22.6594C92.4339 22.6594 92.323 22.5271 92.323 22.2626ZM91.5294 20.9827C91.5193 21.2217 91.423 21.4489 91.2585 21.6226C90.9723 22.0407 90.5684 22.3643 90.0981 22.5527C89.5593 22.7846 88.978 22.9009 88.3915 22.894C88.1064 22.8968 87.8233 22.8454 87.5574 22.7426C87.3079 22.6495 87.0784 22.5097 86.8812 22.3308C86.6899 22.1548 86.5379 21.9404 86.4353 21.7015C86.3299 21.4556 86.2762 21.1905 86.2775 20.9229C86.2768 20.653 86.3469 20.3876 86.4809 20.1532C86.615 19.9189 86.8081 19.7238 87.0412 19.5875C87.6434 19.2225 88.3407 19.045 89.0442 19.0777C89.8911 19.078 90.7312 19.229 91.5252 19.5235L91.5294 20.9827Z"
                      fill="white"
                    />
                    <path
                      d="M99.0482 14.9649C98.6802 14.9637 98.3139 15.0147 97.9602 15.1163C97.6111 15.213 97.2767 15.3565 96.9662 15.543C96.6542 15.728 96.3674 15.9524 96.1129 16.2107C95.8584 16.4666 95.6428 16.7584 95.4729 17.0768V15.1078H94.7412V23.3761H95.5348V18.2564C95.642 17.8944 95.8085 17.5527 96.0275 17.2453C96.246 16.9386 96.5059 16.6636 96.7998 16.4283C97.0863 16.1974 97.4083 16.0144 97.7533 15.8864C98.0862 15.7613 98.4388 15.697 98.7943 15.6966C99.4642 15.6966 99.9491 15.9405 100.249 16.4283C100.549 16.916 100.701 17.6947 100.704 18.7641V23.3761H101.499V18.6212C101.499 17.4451 101.314 16.5413 100.942 15.9099C100.571 15.2784 99.9399 14.9634 99.0482 14.9649Z"
                      fill="white"
                    />
                    <path
                      d="M83.2518 21.8725C83.0701 22.0644 82.8609 22.2284 82.6311 22.3588C82.3858 22.5005 82.1244 22.6123 81.8524 22.6916C81.5759 22.7763 81.2883 22.8194 80.9992 22.8196C80.564 22.8214 80.1342 22.7236 79.7427 22.5338C79.3543 22.3456 79.0064 22.0833 78.7187 21.7615C78.0932 21.0562 77.7505 20.1444 77.7567 19.2017C77.752 18.7269 77.8352 18.2554 78.002 17.8108C78.1563 17.3964 78.3888 17.0155 78.6867 16.6888C78.9751 16.3734 79.3241 16.1195 79.7128 15.9421C80.1522 15.7438 80.632 15.6513 81.1136 15.672C81.5952 15.6928 82.0653 15.8262 82.486 16.0616C82.9312 16.3087 83.2956 16.6791 83.5355 17.1282L84.3163 16.8743C84.0335 16.2843 83.5822 15.7914 83.0193 15.4579C82.4185 15.1102 81.7336 14.9345 81.0397 14.9502C80.4762 14.9441 79.9178 15.0576 79.4014 15.283C78.915 15.4983 78.4752 15.8062 78.1065 16.1896C77.734 16.5784 77.4438 17.0384 77.2532 17.542C77.0504 18.0695 76.9477 18.6302 76.9503 19.1953C76.9463 19.7677 77.055 20.3352 77.2703 20.8656C77.4735 21.3722 77.7669 21.8376 78.1364 22.2394C78.5002 22.6364 78.9407 22.9557 79.4312 23.178C79.941 23.409 80.495 23.5262 81.0546 23.5214C81.4282 23.5221 81.8 23.4712 82.1596 23.37C82.5033 23.2732 82.832 23.1296 83.1366 22.9433C83.4257 22.7714 83.6862 22.5555 83.9089 22.3034C84.1136 22.0687 84.2747 21.7992 84.3846 21.5077L83.6102 21.2944C83.5368 21.5121 83.4142 21.7099 83.2518 21.8725Z"
                      fill="white"
                    />
                    <path d="M65.948 11.7676H65.1523V13.231H65.948V11.7676Z" fill="white" />
                    <path
                      d="M72.6883 14.9649C72.3196 14.9638 71.9526 15.0148 71.5982 15.1163C71.2493 15.2135 70.9149 15.357 70.6041 15.543C70.2963 15.7293 70.0132 15.9536 69.7615 16.2107C69.5077 16.4671 69.2922 16.7588 69.1215 17.0767V15.1078H68.3877V23.3761H69.1834V18.2564C69.2898 17.8941 69.4564 17.5523 69.6762 17.2453C69.894 16.9381 70.1539 16.663 70.4484 16.4282C70.7344 16.1966 71.0566 16.0136 71.4019 15.8864C71.7347 15.7611 72.0874 15.6968 72.4429 15.6966C73.1099 15.6966 73.5949 15.9405 73.8978 16.4282C74.2007 16.916 74.355 17.6947 74.3607 18.7641V23.3761H75.1543V18.6212C75.1543 17.4451 74.9687 16.5413 74.5975 15.9099C74.2263 15.2784 73.5899 14.9634 72.6883 14.9649Z"
                      fill="white"
                    />
                    <path
                      d="M56.9307 16.9047C56.5544 16.3705 56.0889 15.9051 55.5548 15.5288C55.0015 15.148 54.3425 14.951 53.6711 14.9656C53.134 14.9603 52.6031 15.0801 52.1203 15.3154C51.6545 15.5439 51.2407 15.8655 50.9043 16.2605C50.5605 16.6675 50.2938 17.1337 50.1172 17.6364C49.9319 18.1568 49.8381 18.7053 49.8399 19.2576C49.8384 19.7954 49.9353 20.329 50.1257 20.8319C50.3102 21.3315 50.585 21.7928 50.9363 22.1929C51.2841 22.5878 51.7049 22.9116 52.1757 23.1465C52.665 23.388 53.2044 23.5108 53.7501 23.5049C54.367 23.5017 54.9715 23.3314 55.4993 23.0121C56.0455 22.6991 56.5092 22.2603 56.8518 21.7322V23.5454C56.8605 23.9565 56.7759 24.3642 56.6043 24.7379C56.4477 25.0682 56.2196 25.3597 55.9366 25.5912C55.6444 25.8256 55.3098 26.0016 54.9511 26.1095C54.5617 26.2274 54.1569 26.2864 53.7501 26.2845C53.1318 26.2826 52.5216 26.145 51.9624 25.8813C51.3993 25.6201 50.9322 25.1888 50.627 24.6483L50.0873 25.0152C50.2548 25.2996 50.4545 25.5637 50.6825 25.8023C50.9115 26.0402 51.1737 26.2435 51.4611 26.406C51.7789 26.5793 52.1192 26.7078 52.4723 26.7879C52.8924 26.8815 53.3218 26.9265 53.7522 26.9223C54.2578 26.9267 54.7613 26.8548 55.2454 26.709C55.696 26.576 56.1173 26.3588 56.487 26.069C56.8463 25.7848 57.1378 25.4241 57.3403 25.0131C57.5617 24.5523 57.6713 24.0458 57.6602 23.5347V15.1085H56.9435L56.9307 16.9047ZM56.8518 20.593C56.8113 20.8799 56.7023 21.1529 56.5339 21.3887C56.3463 21.6607 56.1183 21.9024 55.8577 22.1055C55.584 22.3188 55.2817 22.4926 54.9596 22.6217C54.6364 22.7529 54.2909 22.8203 53.942 22.8201C53.4937 22.8234 53.0504 22.7257 52.645 22.5343C52.249 22.3436 51.8929 22.0793 51.5955 21.7556C51.293 21.4251 51.0536 21.0419 50.8894 20.625C50.7176 20.1957 50.6307 19.7371 50.6334 19.2747C50.6342 18.8337 50.7062 18.3957 50.8467 17.9777C50.9837 17.56 51.1939 17.1699 51.4675 16.8258C51.7391 16.4851 52.0773 16.2034 52.4616 15.9981C52.8111 15.818 53.1939 15.7119 53.5863 15.6862C53.9786 15.6605 54.372 15.7158 54.742 15.8488C55.0532 15.9581 55.3475 16.1103 55.6166 16.301C55.8908 16.494 56.1346 16.7269 56.3398 16.9922C56.551 17.2607 56.7227 17.5581 56.8496 17.8753L56.8518 20.593Z"
                      fill="white"
                    />
                    <path
                      d="M63.1383 22.5573C62.8694 22.6745 62.5782 22.7313 62.285 22.7237C62.0226 22.728 61.7659 22.6472 61.5533 22.4933C61.4471 22.4136 61.3625 22.3086 61.307 22.1879C61.2515 22.0673 61.2269 21.9347 61.2355 21.8022V15.7588H63.1746V15.1081H61.2355V12.2773H60.4398V15.1081H59.2793V15.7588H60.4398V21.992C60.4337 22.2132 60.4805 22.4326 60.5763 22.632C60.6637 22.8075 60.7847 22.964 60.9325 23.0928C61.0851 23.2208 61.2612 23.3179 61.4509 23.3786C61.6536 23.4436 61.8653 23.476 62.0781 23.4746C62.2867 23.476 62.4949 23.4545 62.6988 23.4106C62.8735 23.3726 63.0458 23.3249 63.2151 23.2677C63.3476 23.2243 63.4755 23.1678 63.5969 23.0992C63.6972 23.0416 63.7697 23.0032 63.8102 22.9818L63.5713 22.3419C63.5223 22.3739 63.3772 22.4464 63.1383 22.5573Z"
                      fill="white"
                    />
                    <path d="M65.948 15.1074H65.1523V23.3758H65.948V15.1074Z" fill="white" />
                    <path
                      d="M102.12 12.3341H101.405V12.0781H103.144V12.3341H102.427V14.4268H102.12V12.3341Z"
                      fill="white"
                    />
                    <path
                      d="M105.387 13.4C105.37 13.0715 105.348 12.679 105.353 12.3867H105.342C105.261 12.6619 105.165 12.9542 105.045 13.2784L104.631 14.4175H104.401L104.021 13.2997C103.91 12.967 103.808 12.6598 103.748 12.3867C103.748 12.679 103.725 13.0715 103.704 13.4235L103.64 14.4325H103.352L103.516 12.0859H103.902L104.303 13.2208C104.401 13.5109 104.48 13.769 104.54 14.0122H104.55C104.61 13.7754 104.693 13.5173 104.798 13.2208L105.225 12.0859H105.611L105.758 14.4325H105.461L105.387 13.4Z"
                      fill="white"
                    />
                  </svg>