<svg width="55" height="55" viewBox="0 0 55 55" fill="none" xmlns="http://www.w3.org/2000/svg">
<rect x="0.5" y="0.5" width="54" height="54" rx="7.5" fill="#F8F5F0" stroke="#F8F5F0"/>
<rect x="28.4062" y="14.0469" width="10.2245" height="3.32104" fill="#DCDFFB"/>
<rect x="16.3633" y="27.1309" width="6.49446" height="3.32104" fill="#DCDFFB"/>
<path fill-rule="evenodd" clip-rule="evenodd" d="M28.975 27.4167V14.594H38.0866V16.2838H38.0857V17.3778H38.0866V27.4167H28.975ZM39.1806 17.3778V27.4998C39.1806 27.7633 39.0904 28.0253 38.8928 28.2229C38.6952 28.4204 38.4332 28.5107 38.1697 28.5107H28.8919C28.6285 28.5107 28.3664 28.4204 28.1688 28.2229C27.9713 28.0253 27.881 27.7633 27.881 27.4998V17.3778H14.9743C14.5075 17.3778 14.1291 17.7562 14.1291 18.2229V33.9942C14.1291 34.461 14.5075 34.8394 14.9743 34.8394H15.8189V27.4999C15.8189 27.2364 15.9092 26.9744 16.1067 26.7768C16.3043 26.5792 16.5664 26.489 16.8298 26.489H22.3965C22.66 26.489 22.922 26.5792 23.1196 26.7768C23.3172 26.9744 23.4074 27.2364 23.4074 27.4999V34.8394H40.0239C40.4907 34.8394 40.869 34.461 40.869 33.9942V18.2229C40.869 17.7562 40.4907 17.3778 40.0239 17.3778H39.1806ZM23.4074 35.9333H40.0239C41.0948 35.9333 41.963 35.0652 41.963 33.9942V18.2229C41.963 17.152 41.0948 16.2838 40.0239 16.2838H39.1806V14.5109C39.1806 14.2474 39.0904 13.9853 38.8928 13.7878C38.6952 13.5902 38.4332 13.5 38.1697 13.5H28.8919C28.6285 13.5 28.3664 13.5902 28.1688 13.7878C27.9713 13.9853 27.881 14.2474 27.881 14.5109V16.2838H14.9743C13.9033 16.2838 13.0352 17.152 13.0352 18.2229V33.9942C13.0352 35.0652 13.9033 35.9333 14.9743 35.9333H15.8189V37.7055C15.8189 37.9689 15.9092 38.231 16.1067 38.4286C16.3043 38.6261 16.5664 38.7164 16.8298 38.7164H22.3965C22.66 38.7164 22.922 38.6261 23.1196 38.4286C23.3172 38.231 23.4074 37.9689 23.4074 37.7055V35.9333ZM29.8498 40.405H32.6852V41.499H28.4489C28.4408 41.4991 28.4327 41.4992 28.4246 41.4992H26.569C26.5609 41.4992 26.5528 41.4991 26.5447 41.499H22.3135V40.405H25.1438C25.1115 40.2836 25.0943 40.156 25.0943 40.0244C25.0943 39.2099 25.7545 38.5496 26.569 38.5496H28.4246C29.2391 38.5496 29.8993 39.2099 29.8993 40.0244C29.8993 40.156 29.8821 40.2836 29.8498 40.405ZM28.4369 40.405C28.6415 40.3985 28.8054 40.2306 28.8054 40.0244C28.8054 39.8141 28.6349 39.6436 28.4246 39.6436H26.569C26.3587 39.6436 26.1882 39.8141 26.1882 40.0244C26.1882 40.2306 26.3521 40.3985 26.5567 40.405H28.4369ZM32.5187 24.6337H34.5405V25.7276H32.5187V24.6337ZM16.9129 37.6224V27.583H22.3134V37.6224H16.9129ZM18.6027 34.8389H20.6245V35.9329H18.6027V34.8389Z" fill="black"/>
</svg>
