<svg viewBox="0 0 411 490" xmlns="http://www.w3.org/2000/svg" width="411" height="490"><defs><mask id="a" x="0" y=".5" width="412" height="489" maskUnits="userSpaceOnUse"><path d="M0 16.582A16.082 16.082 0 0 1 16.082.5h378.836A16.082 16.082 0 0 1 411 16.582v456.836a16.082 16.082 0 0 1-16.082 16.082H16.082A16.082 16.082 0 0 1 0 473.418z" fill="#e4ebf6"/></mask></defs><g mask="url(#a)"><path d="M8.526 269.738q.023-.066.044-.135c.13-.421-.362-.777-.78-.635a.511.511 0 0 0-.126.886l.09.08a.474.474 0 0 0 .772-.196zM41.41 445.693v-.008l-.001-.001c-.056.079-.113.157-.164.242a.234.234 0 0 0 .165-.233z" fill="#a8cef1"/><path d="M7.104 278.267a.971.971 0 0 1-.97-.34c-.36-.552-.743-1.127-1.122-1.731a1.987 1.987 0 0 0-1.799-.856.877.877 0 0 1-.614-.317A13.34 13.34 0 0 0 0 272.728v200.69a15.993 15.993 0 0 0 3.349 9.797 55.382 55.382 0 0 1 2.223-1.698c1.756-1.254 4.954-2.477 4.435-4.571-.09-.368.3-.757.623-1.032a16.989 16.989 0 0 1 1.896-1.452.61.61 0 0 1 .755.07.568.568 0 0 0 .822-.039 4.573 4.573 0 0 1 .825-.867c.062-.044.122-.091.187-.129.36-.211 1.038-.231 1.333-.482a23.2 23.2 0 0 0 2.095-2.175 26.365 26.365 0 0 1 2.601-2.495 1.326 1.326 0 0 1 1.467-.489.597.597 0 0 0 .666-.602 1.035 1.035 0 0 0-.018-.226 1.598 1.598 0 0 1 .648-1.705 12.346 12.346 0 0 0 3.293-3.641 5.219 5.219 0 0 1 .657-1.106c1.51-2.006 4.468-3.499 5.766-5.649a22.556 22.556 0 0 1 1.706-2.566c.598-.733 1.082-1.536 2.231-1.624.483-.022.737-.962 1.244-1.282a2.665 2.665 0 0 0 1.681-2.268c-.022-.483.553-.917.761-1.261-.115-.069-.16-.253-.275-.322a.274.274 0 0 0 .21.021c.105-.03.225-.047.229.059a5.42 5.42 0 0 0 .723-1.126c.582-1.476 1.792-2.476 2.753-3.627 1.198-1.466 2.326-2.817 3.41-4.352a5.01 5.01 0 0 0 1.452-2.407 1.992 1.992 0 0 1 .955-1.388.448.448 0 0 1 .698.431c-.061.329.262.571.492.327.525-.557.755-1.362 1.222-1.919a4.976 4.976 0 0 0 1.369-2.023 3.548 3.548 0 0 1 .882-1.886.984.984 0 0 0 .095-1.194 4.347 4.347 0 0 1 .674-3.97l1.636-2.711c.35-.579 1.17-.411 1.814-.2a.508.508 0 0 0 .665-.318 3.052 3.052 0 0 0-.167-1.902.524.524 0 0 1 .394-.743.53.53 0 0 0 .421-.38c.224-.706.627-1.35.896-2.029.593-1.501.777-3.298 1.29-4.828a4.596 4.596 0 0 0 .023-2.85 5.512 5.512 0 0 1-.075-1.435 2.105 2.105 0 0 1 .682-1.639c.045-.036.09-.07.137-.103.226-.161.49-.329.531-.604a1.22 1.22 0 0 0-.013-.28c-.038-.448-.151-.941-.171-1.377-.198-1.487.775-2.887.739-4.386a10.478 10.478 0 0 1 .31-2.798 15.606 15.606 0 0 1 1.64-4.794 5.866 5.866 0 0 0 .378-2.574.77.77 0 0 0-.388-.704.946.946 0 0 1-.558-.822 5.142 5.142 0 0 1 .837-3.086c.345-.573.393-1.17-.066-1.447a2.019 2.019 0 0 1-.228-.192c-1.045-1.035-.099-2.7-.452-4.127a5.091 5.091 0 0 1-.134-2.113 18.16 18.16 0 0 0-.606-6.775c-.535-2.872-1.6-5.922-2.143-8.792-.172-.911-.274-1.845-.428-2.766-.409-2.435-.518-4.846-1.915-6.94a8.982 8.982 0 0 1-.85-1.482c-.854-1.957-.957-4.361-2.282-6.035a3.431 3.431 0 0 1-.235-.51 5.268 5.268 0 0 1-.29-.755c-.314-1.313-1.715-2.32-2.011-3.636a1.87 1.87 0 0 1-.049-.411 3.47 3.47 0 0 0-1.12-2.552 39.358 39.358 0 0 1-4.74-6.926c-.32-.505-.865-.87-1.186-1.374-.34-.534-.518-1.061-1.06-1.388-1.147-.692-1.238-1.06-.478-2.321.284-.47-.171-.992-.719-.962-.54.03-.727-.266-.86-1.068a.75.75 0 0 0-.934-.696.947.947 0 0 1-1.027-.331c-.528-.72-1.082-1.415-1.63-2.22a.886.886 0 0 1 .107-1.051 3.442 3.442 0 0 1 .242-.248.129.129 0 0 0 .039-.125.135.135 0 0 0-.14-.098c-.857.043-1.296-.965-2.05-1.142-.176-.041-.373-.02-.504-.146a1.364 1.364 0 0 1-.182-.222c-.194-.291-.084-.67-.19-1.004-.167-.527-.766-.922-.917-1.46-.058-.205-.012-.444-.187-.566a2.075 2.075 0 0 1-.22-.168 9.666 9.666 0 0 0-1.483-1.176 8.529 8.529 0 0 1-2.293-2.165 5.381 5.381 0 0 1-1.327-2.21 3.29 3.29 0 0 0-1.856-2.37 5.983 5.983 0 0 1-2.431-1.935 3.437 3.437 0 0 1-.878-1.5 1.33 1.33 0 0 0-1.05-.908 1.346 1.346 0 0 1-1.047-.861l-.029-.071a2.233 2.233 0 0 0-1.063-1.19 3.94 3.94 0 0 1-1.71-1.458c-.93-1.294-2.14-2.28-3.161-3.494-.58-.69-1.366-1.094-1.95-1.78a13.865 13.865 0 0 1-.87-1.15c-.276-.322-.413-.874-.642-1.012a10.499 10.499 0 0 1-3.072-2.948 8.944 8.944 0 0 0-2.517-2.42c-.731-.45-1.611-.767-1.977-1.543a9.412 9.412 0 0 1-.536-1.112.652.652 0 0 0-.715-.368zm41.424 157.408c.098-.163.35-.157.339.033a.516.516 0 0 1-.061.214c-.122.228-.412-.025-.278-.247zm-1.823-116.526l.069-.115c-.058.095-.147.064-.241.01a.068.068 0 0 0-.092.024.066.066 0 0 0 .022.091l.058.035a.134.134 0 0 0 .184-.045zM2.46 264.682c.248.587.871.165.876-.473a5.772 5.772 0 0 1 .068-.894l-.235.058a1.005 1.005 0 0 0-.71 1.309zm37.81 197.773a.039.039 0 0 0 .01-.071.04.04 0 0 0-.054.013.039.039 0 0 0 .043.058zm-8.58 8.079c-.071.037-.142.075-.211.117-.132.08-.097.331-.01.458.04.059.071.05.142.051a.594.594 0 0 0 .63-.332c.109-.276-.29-.434-.552-.294zM369.753 161.44a.127.127 0 0 0 .032.127.133.133 0 0 0 .17.012c.711-.479 1.608.157 2.345-.081.172-.056.33-.176.507-.136a1.35 1.35 0 0 1 .27.096c.317.149.419.531.682.762.415.365 1.132.393 1.539.775.156.146.24.375.452.389a2.16 2.16 0 0 1 .277.03 9.721 9.721 0 0 0 1.877.241 8.53 8.53 0 0 1 3.081.669 5.384 5.384 0 0 1 2.278 1.205 3.296 3.296 0 0 0 2.814 1.071 5.965 5.965 0 0 1 3.081.401 3.429 3.429 0 0 1 1.526.83 1.33 1.33 0 0 0 1.369.235 1.345 1.345 0 0 1 1.341.196l.062.047a2.228 2.228 0 0 0 1.525.47 3.948 3.948 0 0 1 2.217.364c1.465.627 3.011.846 4.512 1.358.852.291 1.735.231 2.59.516a13.913 13.913 0 0 1 1.34.535c.401.134.802.536 1.07.536a10.508 10.508 0 0 1 4.154.936 11.697 11.697 0 0 0 1.135.401V16.582A16.082 16.082 0 0 0 395.918.5h-81.306c-.95 1.9-2.534 4.234-1.154 5.612.267.267.133.803 0 1.204a16.9 16.9 0 0 1-.874 2.223.612.612 0 0 1-.682.33.567.567 0 0 0-.684.46 4.552 4.552 0 0 1-.259 1.167 2.25 2.25 0 0 1-.093.207c-.2.367-.77.734-.892 1.101a23.285 23.285 0 0 0-.67 2.945 26.394 26.394 0 0 1-.938 3.48c-.219.768-.259.817-1.003 1.177a.598.598 0 0 0-.259.86 1.05 1.05 0 0 0 .132.183 1.599 1.599 0 0 1 .326 1.796 12.332 12.332 0 0 0-.938 4.818 5.272 5.272 0 0 1 .009 1.286c-.257 2.499-2.019 5.304-2.019 7.816a22.668 22.668 0 0 1-.134 3.079c-.134.937-.134 1.874-1.071 2.543-.402.268-.134 1.205-.402 1.74a2.663 2.663 0 0 0-.268 2.81c.268.402 0 1.072 0 1.473l-.001.026c.018-.009.035-.024.056-.019.115.027.231.127.347.127a.272.272 0 0 0-.192.091c-.073.079-.168.157-.225.069a5.413 5.413 0 0 0-.038 1.335c.265 1.565-.255 3.047-.483 4.528-.268 1.874-.536 3.614-.67 5.488a5.008 5.008 0 0 0 0 2.811 1.993 1.993 0 0 1-.1 1.682.448.448 0 0 1-.82-.008c-.119-.313-.52-.354-.592-.026-.16.749.058 1.557-.054 2.275a4.97 4.97 0 0 0-.127 2.44 3.553 3.553 0 0 1 .22 2.07.983.983 0 0 0 .535 1.07 4.348 4.348 0 0 1 1.474 3.748v3.166c0 .677-.79.957-1.45 1.11a.507.507 0 0 0-.405.615 3.049 3.049 0 0 0 1.126 1.542.525.525 0 0 1 .046.84.53.53 0 0 0-.164.543c.173.72.161 1.48.282 2.2.267 1.591 1.038 3.224 1.39 4.8a4.592 4.592 0 0 0 1.452 2.451 5.516 5.516 0 0 1 .806 1.191 2.107 2.107 0 0 1 .263 1.755c-.02.054-.042.107-.064.16a1.047 1.047 0 0 0-.143.79 1.219 1.219 0 0 0 .156.234c.263.364.616.727.858 1.09.938 1.171.828 2.872 1.634 4.137a10.505 10.505 0 0 1 1.18 2.556 15.605 15.605 0 0 1 1.072 4.953 5.855 5.855 0 0 0 1.007 2.398.771.771 0 0 0 .696.403.945.945 0 0 1 .902.415 5.146 5.146 0 0 1 .878 3.075c0 .669.268 1.204.804 1.204a2.03 2.03 0 0 1 .294.047c1.43.346 1.48 2.26 2.52 3.3a5.083 5.083 0 0 1 1.206 1.74 18.18 18.18 0 0 0 4.02 5.488c1.941 2.182 4.43 4.243 6.377 6.42.618.691 1.188 1.438 1.796 2.146 1.607 1.874 2.947 3.882 5.225 4.953a8.999 8.999 0 0 1 1.494.829c1.742 1.235 3.072 3.24 5.071 3.989a3.426 3.426 0 0 1 .465.314 5.33 5.33 0 0 1 .64.497c.946.962 2.665 1.101 3.6 2.075a1.83 1.83 0 0 1 .253.327 3.472 3.472 0 0 0 2.278 1.606 39.4 39.4 0 0 1 7.637 3.48c.535.267 1.19.297 1.725.564a3.599 3.599 0 0 0 1.624.641c1.34 0 1.608.267 1.608 1.74a.679.679 0 0 0 1.113.452c.446-.305.76-.148 1.29.47a.75.75 0 0 0 1.158.113.947.947 0 0 1 1.05-.246c.824.342 1.657.652 2.544 1.058a.886.886 0 0 1 .45.955 3.403 3.403 0 0 1-.079.337zm-68.261-99.944a.519.519 0 0 1-.058-.214c-.014-.259.366-.192.366.067 0 .19-.219.316-.308.147z" fill="#a8cef1"/><path d="M302.699 48.85a.16.16 0 0 0-.011.199.945.945 0 0 1 .034.053l.002.002c.006-.089.013-.177.014-.268-.013.006-.028.003-.039.013zm60.869 111.325v.134c0-.112.093-.13.201-.134a.067.067 0 0 0 0-.134h-.067a.134.134 0 0 0-.134.134z" fill="#a8cef1"/><path d="M411.712 184.125a2.928 2.928 0 0 1-1.35-.464.608.608 0 0 1-.167-.196c-.938-1.74-2.546-2.008-4.153-2.276-.938-.133-1.876-.535-2.948.268-.938.803-1.474.536-2.546-.535a1.475 1.475 0 0 0-.804-.402c-1.323.165-2.354-.92-3.685-1.005a3.325 3.325 0 0 1-1.272-.333 13.57 13.57 0 0 1-2.236-1.879 1.062 1.062 0 0 0-1.014-.225l-.309.089a.64.64 0 0 1-.724-.263 5.975 5.975 0 0 1-.152-.256.496.496 0 0 0-.855-.06.526.526 0 0 1-.554.227 1.063 1.063 0 0 1-.657-.316c-.055-.078-.087-.172-.141-.251-.38-.557-.627-.09-.96.079a.54.54 0 0 1-.553-.146 17.95 17.95 0 0 1-1.219-1.025.408.408 0 0 1 .06-.651.491.491 0 0 0 .148-.633.096.096 0 0 0-.079-.044 4.525 4.525 0 0 1-1.34 0c-2.533-.876-2.799-1.115-4.095-.82a6.148 6.148 0 0 1-3.944-.494 2.068 2.068 0 0 0-.842-.195 13.843 13.843 0 0 0-1.896.242.957.957 0 0 1-.777-.119 2.956 2.956 0 0 0-2.098-.311 4.747 4.747 0 0 1-2.828-.579c-1.474-.669-3.082-1.071-4.556-1.874-2.053-1.025-4.105-1.928-6.158-3.06-.182-.1-.396-.22-.583-.311-.112-.056-.1-.173-.129-.295-.329-1.377-1.475-.885-2.375-.885l-.188-.001c-.514-.008-.869-.396-1.317-.65a1.403 1.403 0 0 0-.595-.182c-.297-.022-.61.071-.862-.089-.21-.134-.322-.389-.492-.572-1.112-1.189-2.937-1.267-4.183-2.387a2.925 2.925 0 0 0-1.111-.505.648.648 0 0 0-.195-.031q-.119 0-.237.003a.807.807 0 0 1-.736-.789.456.456 0 0 0-.126-.306c-.092-.121-.183-.246-.275-.246-1.474 0-2.545-1.071-3.885-1.473-.536-.134-1.072-.937-1.34-1.472-.536-1.339-1.876-1.874-3.082-2.276a7.082 7.082 0 0 1-4.153-2.944c-.67-1.071-2.144-1.74-3.35-2.41a3.56 3.56 0 0 1-1.474-1.338c-.402-.803-.804-1.606-1.876-1.74-.134 0-.268-.134-.402-.268-2.009-2.008-4.019-3.882-5.895-5.889a11.373 11.373 0 0 1-2.68-2.945 11.04 11.04 0 0 0-2.143-2.945 19.944 19.944 0 0 1-2.01-2.677c-1.34-1.74-2.412-3.882-4.154-5.354a3.305 3.305 0 0 1-.536-1.205 3.26 3.26 0 0 0-1.34-1.874 2.386 2.386 0 0 1-1.473-1.74 1.572 1.572 0 0 0-.071-.192 21.18 21.18 0 0 0-2.341-4.492 9.127 9.127 0 0 1-1.608-3.481c-.266-.796-1.086-1.295-1.47-2.041a2.98 2.98 0 0 1-.076-.16 11.848 11.848 0 0 1-.403-1.216 33.82 33.82 0 0 0-1.267-3.81 22.18 22.18 0 0 1-1.608-4.15c-.731-2.191-1.505-4.682-2.31-6.847a4.614 4.614 0 0 0-.37-.782 9.103 9.103 0 0 1-1.071-3.213c-.536-2.677-.938-5.488-1.34-8.299-.25-.995.83-1.767.787-2.792-.02-.464-.185-.961-.251-1.49-.134-.938-.67-1.74 0-2.812.197-.295.032-.733-.175-1.264a.997.997 0 0 1 .234-1.07.934.934 0 0 0-.093-1.38.77.77 0 0 1-.234-.569c0-1.07-.402-2.41 0-3.346a2.416 2.416 0 0 0 .137-.587c.204-1.995-1.865-3.996-1.075-5.838a5.906 5.906 0 0 0 .134-3.748 5.463 5.463 0 0 1 .178-2.511c.209-.783 1.028-1.363 1.028-2.174a5.99 5.99 0 0 1 .183-1.585 7.144 7.144 0 0 0 .353-1.761c0-.803-.67-1.606-.804-2.543a2.424 2.424 0 0 1 .268-1.74c.938-.803 0-1.874.536-2.677a2.647 2.647 0 0 0 .536-2.41c-.33-.988.697-1.916 1.071-2.889a2.892 2.892 0 0 0 .135-.457c.023-.07.045-.143.065-.216.385-1.417-1.188-2.366-.869-3.8.19-1.137 1.465-1.73 1.708-2.858a10.54 10.54 0 0 1 1.373-3.7 3.95 3.95 0 0 0 .268-1.74.48.48 0 0 0-.08-.253.467.467 0 0 0-.572-.21c-.19.117-.499.056-.541-.163a.738.738 0 0 1 .524-.98 1.18 1.18 0 0 0 .833-.75c.086-.208.148-.427.242-.632a30.777 30.777 0 0 0 1.713-4.925c.01-.04.019-.08.025-.119a10.65 10.65 0 0 1 .938-2.677c.402-1.07 1.072-2.141.67-3.48a2.887 2.887 0 0 1 .445-1.642.619.619 0 0 0-.171-.819.887.887 0 0 1-.384-.935 2.259 2.259 0 0 1 1.45-1.824 2.206 2.206 0 0 0 1.474-2.543 8.084 8.084 0 0 1 .138-1.73H16.082A16.082 16.082 0 0 0 0 16.582v240.574a2.018 2.018 0 0 1 .108.73c-.043.541.277.672.591.829a.619.619 0 0 1 .075 1.012 7.24 7.24 0 0 1-.15.16 1.035 1.035 0 0 0-.266.97c.083.328.177.682.285 1.054.12.412.638.529.817.14.122-.264.454-.464.7-.308a3.052 3.052 0 0 1 1.244 1.572c.583.158 1.138.359 1.727.567.664.234.88.893 1.048 1.576a1.61 1.61 0 0 0 .487.791 1.877 1.877 0 0 0 .703.3 7.768 7.768 0 0 0 .987.193 2.516 2.516 0 0 1 1.62 1.056 2.754 2.754 0 0 0 2.28 1.176h.12c.288.002.606.034.745.287a1.425 1.425 0 0 1 .125.306c.046.183-.322.274-.46.503-.122.203-.285.418-.098.563a2.328 2.328 0 0 0 1.773.292 2.231 2.231 0 0 1 1.877.505 1.216 1.216 0 0 1 .376.928 1.077 1.077 0 0 0 .366.71c.25.227.505.458.78.7a2.936 2.936 0 0 1 .916 1.095.605.605 0 0 1 .04.254c-.095 1.974 1.143 3.034 2.381 4.094.734.599 1.33 1.428 2.662 1.294 1.218-.203 1.539.303 1.903 1.774a1.476 1.476 0 0 0 .481.759c1.218.542 1.54 2.004 2.636 2.765a3.316 3.316 0 0 1 .917.942 13.562 13.562 0 0 1 .943 2.764 1.06 1.06 0 0 0 .753.716l.31.084a.641.641 0 0 1 .484.599c.002.096.001.195-.002.298a.495.495 0 0 0 .7.493.526.526 0 0 1 .593.092 1.06 1.06 0 0 1 .399.61c.007.096-.014.193-.01.288.039.674.491.401.864.428.206.015.323.218.398.411.17.436.351.945.514 1.508a.409.409 0 0 1-.388.526.491.491 0 0 0-.454.465.098.098 0 0 0 .045.08 4.514 4.514 0 0 1 1.147.691c1.717 2.06 1.82 2.401 3.083 2.818a6.15 6.15 0 0 1 3.122 2.461 2.066 2.066 0 0 0 .62.602 13.897 13.897 0 0 0 1.748.772.959.959 0 0 1 .604.504 2.95 2.95 0 0 0 1.635 1.35 4.752 4.752 0 0 1 2.123 1.957c.916 1.334 2.085 2.51 2.932 3.958 1.228 1.938 2.519 3.772 3.691 5.802.104.18.226.393.338.567.068.106-.003.2-.04.32-.431 1.35.805 1.52 1.575 1.984l.16.098c.437.273.54.788.792 1.237a1.406 1.406 0 0 0 .415.463c.243.173.56.255.692.522a3.081 3.081 0 0 1 .127.744c.337 1.592 1.86 2.602 2.347 4.205a2.932 2.932 0 0 0 .69 1.006.627.627 0 0 0 .151.127q.102.062.205.12a.807.807 0 0 1 .222 1.056.454.454 0 0 0-.05.327c.016.152.03.306.108.353 1.262.762 1.627 2.232 2.566 3.268a2.903 2.903 0 0 1 .387 1.953 4.464 4.464 0 0 0 1.462 3.541 7.087 7.087 0 0 1 2.035 4.667c.02 1.263.936 2.597 1.623 3.793a3.564 3.564 0 0 1 .57 1.908 2.483 2.483 0 0 0 .707 2.46c.115.068.16.252.206.436.684 2.757 1.436 5.4 2.005 8.088a11.367 11.367 0 0 1 .773 3.906 11.022 11.022 0 0 0 .314 3.63 19.963 19.963 0 0 1 .337 3.33c.248 2.181.06 4.57.79 6.73a3.308 3.308 0 0 1-.164 1.308 3.256 3.256 0 0 0 .18 2.296 2.392 2.392 0 0 1 .362 2.252 1.417 1.417 0 0 0-.039.201 21.19 21.19 0 0 0-.316 5.056 9.125 9.125 0 0 1-.422 3.81c-.184.82.26 1.67.203 2.508q-.006.089-.017.177a12.113 12.113 0 0 1-.283 1.248 33.705 33.705 0 0 0-.884 3.917 22.206 22.206 0 0 1-.768 4.384c-.506 2.253-1.13 4.786-1.56 7.056a4.654 4.654 0 0 0-.087.86 9.106 9.106 0 0 1-.742 3.305c-.925 2.57-2.033 5.183-3.141 7.797-.301.981-1.624 1.085-2.116 1.985-.223.407-.339.918-.556 1.406-.37.871-.325 1.835-1.452 2.406-.32.151-.407.611-.504 1.172a.996.996 0 0 1-.752.796.934.934 0 0 0-.634 1.23.774.774 0 0 1-.094.608c-.553.917-.9 2.27-1.729 2.865a2.422 2.422 0 0 0-.42.431c-1.206 1.603-.468 4.385-2.096 5.554a5.91 5.91 0 0 0-2.052 3.14 5.476 5.476 0 0 1-1.45 2.058c-.583.563-1.584.636-2.003 1.33a5.984 5.984 0 0 1-.975 1.262 7.126 7.126 0 0 0-1.212 1.326c-.415.688-.257 1.721-.626 2.593a2.427 2.427 0 0 1-1.129 1.351c-1.218.203-.968 1.605-1.842 2.015a2.648 2.648 0 0 0-1.703 1.786c-.229 1.017-1.587 1.281-2.41 1.921a2.78 2.78 0 0 0-.352.321 4.331 4.331 0 0 0-.167.151c-1.062 1.015-.205 2.64-1.22 3.703-.75.876-2.148.724-2.938 1.564a10.548 10.548 0 0 1-3.088 2.46 3.953 3.953 0 0 0-1.129 1.35.478.478 0 0 0-.061.258c0 .213.167.477.38.475.224 0 .457.21.38.42a.738.738 0 0 1-.955.568 1.18 1.18 0 0 0-1.101.212c-.181.133-.348.29-.534.415a30.698 30.698 0 0 0-4.01 3.332 1.34 1.34 0 0 0-.084.09 10.662 10.662 0 0 1-2.186 1.806c-.897.71-2.024 1.28-2.372 2.633a2.889 2.889 0 0 1-1.229 1.177.619.619 0 0 0-.277.79.887.887 0 0 1-.154.998 2.259 2.259 0 0 1-2.184.813 2.205 2.205 0 0 0-2.576 1.415 5.487 5.487 0 0 1-1.766 2.045c-.095.06-.203.1-.295.162-.296.206-.248.634-.284.993-.002.018-.009.032-.011.05.191.006.378.028.57.028h379.837A16.082 16.082 0 0 0 412 473.418V184.18c-.098-.018-.187-.037-.288-.055z" fill="#a8cef1"/><path d="M295.062 34.22a.039.039 0 1 0-.027-.067.039.039 0 0 0 .027.067zm2.888-11.992c-.272.16-.411.363-.369.609.051.292.473.221.626-.033a4.69 4.69 0 0 0 .119-.21c.072-.136-.088-.333-.228-.397-.065-.03-.087-.006-.148.03z" fill="#a8cef1"/></g></svg>
