 <svg
            width="360"
            height="504"
            viewBox="0 0 360 504"
            fill="none"
            xmlns="http://www.w3.org/2000/svg"
          >
            <path
              d="M-399.554 10.5559C-398.303 10.9211 -397.836 12.9377 -397.145 14.0422V14.0422C-396.892 14.4456 -396.418 14.7583 -395.953 14.8568C-394.649 15.1323 -393.397 15.5648 -391.723 14.7282C-390.53 14.1326 -388.742 14.3312 -387.152 14.5297V14.5297C-386.012 14.5297 -384.881 14.7899 -384.336 13.7891C-384.186 13.5131 -384.035 13.2353 -383.885 12.9492C-383.692 12.5813 -383.312 12.3463 -382.9 12.3989C-382.732 12.4202 -382.551 12.4472 -382.357 12.4781C-381.702 12.5827 -381.5 13.3909 -382.092 13.6896V13.6896C-382.17 13.729 -382.216 13.7672 -382.277 13.8305C-382.887 14.4674 -382.942 14.8444 -382.444 15.3082C-382.289 15.4518 -382.18 15.5258 -381.984 15.4485V15.4485C-381.686 15.3312 -381.201 15.2718 -380.927 15.4359C-379.457 16.3146 -377.84 16.2974 -376.223 16.1179V16.1179C-375.436 16.1179 -375.936 14.6608 -376.48 14.0924C-376.587 13.9801 -376.661 13.8541 -376.711 13.6992C-376.955 12.9449 -376.063 12.2834 -375.276 12.3742C-374.914 12.416 -374.558 12.4639 -374.235 12.5445C-372.199 12.9144 -370.335 13.8011 -368.322 13.5998C-368.024 13.5699 -367.716 13.518 -367.438 13.6293C-367.142 13.7476 -366.836 13.9702 -366.501 14.2382C-365.642 14.9243 -364.637 15.0953 -363.653 14.6042V14.6042C-362.67 14.113 -361.387 14.1819 -360.39 14.6447C-359.656 14.9855 -358.865 15.1578 -357.94 14.9267C-357.529 14.7898 -357.023 14.9362 -356.488 15.1054C-356.003 15.2589 -355.509 15.4666 -355.02 15.6081V15.6081C-354.579 15.7357 -354.136 15.6784 -353.691 15.563C-352.921 15.3634 -352.152 15.1253 -351.382 15.1253C-350.389 15.1253 -349.395 15.7208 -348.402 15.7208C-343.831 16.1179 -339.062 15.9193 -334.491 15.7208C-333.1 15.7208 -331.709 15.9193 -330.914 16.7134C-329.921 17.5075 -329.325 17.5076 -328.331 17.309V17.309C-326.832 16.8098 -326.012 19.7382 -324.547 19.1456C-324.516 19.1331 -324.486 19.12 -324.455 19.1063C-323.196 18.5403 -322.059 17.3325 -320.776 17.8441C-320.394 17.9968 -320.032 18.1871 -319.679 18.391C-318.462 19.096 -317.051 19.2893 -315.663 19.058C-314.813 18.9164 -313.991 18.8075 -313.228 18.6986C-311.905 18.5098 -310.582 19.0393 -309.259 18.2378C-309.12 18.1536 -309.005 18.0313 -308.85 17.9829V17.9829C-308.455 17.8598 -308.063 18.1873 -307.667 18.3031C-305.253 19.0085 -302.683 18.5002 -300.113 18.5002C-298.523 18.5002 -297.529 19.2942 -296.138 19.6913C-295.343 19.8898 -294.548 19.6913 -293.952 19.8898C-293.615 19.974 -293.314 20.0581 -293.018 20.1423C-292.24 20.3636 -291.8 21.0367 -291.327 21.6922V21.6922C-291.236 21.8185 -291.133 21.9476 -291.014 22.0489C-290.527 22.4659 -289.58 22.4273 -289.58 22.0735C-289.382 20.4854 -288.189 20.4854 -286.997 20.4854C-286.202 20.4854 -285.407 20.4853 -284.612 20.6839C-280.837 21.4779 -277.061 21.875 -273.285 21.875C-271.099 21.875 -268.715 22.2721 -266.529 23.4632C-265.138 24.4558 -263.349 24.2573 -262.157 23.4632C-260.17 22.0736 -258.381 22.0735 -256.394 23.0661C-255.003 23.8602 -253.413 24.0587 -251.823 23.6617V23.6617C-250.388 23.3033 -248.972 24.2384 -247.52 24.5191C-247.109 24.5985 -246.693 24.6538 -246.273 24.6871C-244.679 24.8137 -243.042 24.4653 -241.49 24.8528V24.8528C-238.907 25.2499 -236.522 25.4484 -233.939 25.2499C-233.299 25.1433 -232.716 25.3227 -232.037 25.7574C-230.68 26.6262 -229.056 26.8385 -227.497 26.4331C-227.117 26.3343 -226.727 26.2663 -226.329 26.2425C-225.292 26.1804 -224.861 26.9693 -225.791 27.4336V27.4336V27.4336C-226.479 27.7774 -226.55 28.8123 -225.842 29.1137C-225.593 29.2195 -225.366 29.2758 -225.16 29.255C-225.049 29.2438 -224.94 29.2157 -224.829 29.2083C-222.392 29.0442 -220.301 29.4173 -218.047 30.3276C-217.911 30.3822 -217.855 30.4157 -217.709 30.4094V30.4094C-217.233 30.389 -216.817 29.8776 -216.982 29.4308C-217.212 28.8063 -217.71 28.3826 -218.238 27.9813C-218.371 27.8804 -218.502 27.7725 -218.581 27.6258C-218.598 27.5951 -218.614 27.5628 -218.63 27.5295C-218.833 27.0981 -218.731 26.5478 -218.314 26.3166V26.3166C-217.897 26.0858 -217.395 26.2347 -216.921 26.2745C-216.158 26.3384 -215.368 26.489 -214.464 26.6395C-213.438 26.8103 -213.295 26.8342 -212.769 25.5742C-212.581 25.1239 -212.197 24.7669 -211.712 24.72C-210.968 24.6482 -210.264 24.7484 -209.577 24.9751C-209.02 25.1588 -209.102 25.8215 -209.681 25.9184V25.9184C-210.016 25.9746 -210.324 25.7543 -210.562 25.5119C-210.704 25.368 -210.891 25.3367 -211.185 25.4181C-211.251 25.4364 -211.3 25.4323 -211.357 25.47V25.47C-211.652 25.6637 -211.517 26.3308 -211.178 26.4276C-211.147 26.4363 -211.116 26.441 -211.086 26.441V26.441C-210.54 26.441 -210.03 26.6679 -209.568 26.9591C-209.288 27.1355 -208.923 27.1417 -208.502 27.0366V27.0366C-208.195 26.9599 -207.261 26.7657 -207.068 27.0165C-206.845 27.3065 -206.609 27.6091 -206.353 27.9323C-206.216 28.1049 -205.976 28.16 -205.782 28.0554C-205.737 28.0315 -205.693 28.0069 -205.649 27.9813C-205.261 27.7575 -204.701 27.8375 -204.476 28.2245C-204.441 28.2848 -204.405 28.3472 -204.368 28.4115C-204.125 28.8351 -203.576 28.9776 -203.162 28.7178C-203.088 28.671 -203.012 28.6242 -202.935 28.5775C-202.413 28.2605 -202.213 27.5818 -202.553 27.0739C-202.619 26.9742 -202.686 26.8745 -202.755 26.7741C-203.312 25.9558 -202.842 24.8742 -201.854 24.9277C-199.032 25.0804 -196.404 26.3225 -193.97 25.5391C-193.1 25.2591 -191.575 25.5842 -192.283 26.1629V26.1629C-192.381 26.2429 -192.457 26.2808 -192.558 26.3561C-192.872 26.5884 -193.156 26.7922 -193.439 26.9941C-194.165 27.5123 -195.092 27.6497 -195.943 27.3803C-196.037 27.3503 -196.133 27.3209 -196.228 27.292C-198.102 26.7274 -198.735 28.8233 -196.778 28.8233V28.8233C-195.377 28.8233 -193.976 29.3106 -192.67 28.6628C-192.056 28.3581 -191.27 28.3779 -190.91 28.9615V28.9615C-190.739 29.2398 -190.426 29.4304 -190.1 29.4529C-187.093 29.6599 -184.086 30.0252 -181.079 30.2129C-179.546 30.3831 -177.866 29.678 -176.292 30.0985C-175.76 30.2406 -175.109 30.602 -174.72 30.2129V30.2129C-174.602 30.0955 -174.415 29.9781 -174.241 29.8195C-173.991 29.5925 -173.928 29.1998 -174.073 28.8949V28.8949C-174.191 28.6455 -174.453 28.5702 -174.711 28.4716C-175.289 28.2507 -175.866 28.0735 -176.443 28.1348C-177.049 28.1991 -177.58 28.5927 -178.186 28.6596C-178.871 28.7353 -179.527 28.5277 -180.085 27.8307C-180.232 27.648 -180.371 27.5594 -180.508 27.5353C-181.878 27.2935 -182.995 27.079 -181.675 26.6395V26.6395C-180.88 26.441 -179.887 26.2425 -179.092 26.441C-177.899 26.6396 -176.707 26.8381 -175.713 27.2351C-174.521 27.6322 -173.528 27.8307 -172.335 27.2351C-171.739 26.8381 -170.547 26.8381 -170.149 27.2351C-168.559 28.8233 -166.572 28.0292 -164.784 28.6247V28.6247C-163.377 29.0931 -162.133 28.5224 -160.724 28.0619C-160.687 28.0497 -160.649 28.0388 -160.611 28.0292C-160.51 27.9955 -160.409 27.9676 -160.307 27.9444C-159.277 27.71 -158.358 27.0966 -157.693 26.2766V26.2766C-157.494 26.0322 -157.274 26.0162 -156.962 25.9686C-155.887 25.8042 -154.72 25.698 -153.854 26.044C-153.019 26.4612 -152.184 26.6835 -151.28 26.6428C-150.469 26.6063 -149.698 26.2425 -148.886 26.2425V26.2425C-147.61 26.2425 -146.333 27.4129 -144.903 26.5314C-144.637 26.3678 -144.379 26.2036 -144.093 26.3273V26.3273C-143.996 26.3691 -143.873 26.4687 -143.782 26.5217C-143.031 26.9582 -142.281 27.2919 -141.531 27.6936C-141.226 27.8572 -141.198 28.3174 -141.302 28.648V28.648C-141.344 28.7828 -141.279 28.88 -141.176 28.977C-140.635 29.4892 -140.107 29.8511 -139.745 30.2129C-139.357 30.601 -140.107 31.7477 -139.028 31.9847C-138.977 31.9958 -138.953 31.9994 -138.901 31.9997V31.9997C-138.379 32.0024 -137.73 31.8418 -137.423 31.4196C-137.323 31.282 -137.23 31.1445 -137.162 31.007C-137.03 30.7431 -136.985 30.4792 -136.912 30.2736C-136.847 30.0921 -136.611 29.9885 -136.423 29.9467V29.9467C-136.204 29.8979 -136.066 30.0978 -135.88 30.2244C-134.216 31.3609 -132.542 31.1596 -130.699 30.26C-130.636 30.2292 -130.595 30.2072 -130.55 30.1539V30.1539C-130.235 29.7848 -130.579 29.1972 -131.058 29.1237C-131.07 29.1219 -131.082 29.1201 -131.094 29.1183C-131.541 29.0494 -131.878 28.5796 -131.716 28.1575C-131.359 27.2244 -130.969 27.2216 -129.196 27.865C-128.674 28.0547 -128.491 28.7359 -128.599 29.2811V29.2811C-128.628 29.4237 -128.586 29.4886 -128.506 29.6101C-128.29 29.9388 -127.956 30.245 -127.623 30.4115C-127.226 30.61 -126.828 30.4114 -126.431 30.6099C-124.288 31.502 -124.071 31.5924 -122.895 31.4575C-122.611 31.4249 -122.356 31.2921 -122.223 31.0391V31.0391C-122.138 30.8766 -122.027 30.7183 -121.955 30.5493C-121.371 29.1778 -120.6 28.8458 -119.475 29.2203C-118.482 29.6174 -117.29 30.0144 -116.296 30.4115C-113.989 31.3719 -111.681 31.5889 -109.374 30.5228C-109.22 30.4519 -109.047 30.4122 -108.925 30.2945V30.2945C-108.83 30.2014 -108.68 30.1879 -108.555 30.1401C-106.429 29.3254 -106.168 29.2952 -105.323 31.4646C-105.103 32.029 -105.335 32.5641 -105.764 32.9922V32.9922V32.9922C-106.068 33.2959 -106.042 33.8554 -105.79 34.2034C-105.187 35.0351 -104.371 35.5059 -103.439 35.7649C-103.018 35.8819 -102.791 36.3837 -103.123 36.6671V36.6671C-103.403 36.9056 -103.454 37.3893 -103.124 37.5506C-101.898 38.1491 -100.552 38.1234 -99.206 37.9553V37.9553C-98.225 37.9553 -97.5088 38.7547 -96.5278 38.7638C-96.2835 38.7661 -96.0336 38.7332 -95.7801 38.702C-94.8885 38.5925 -93.8798 38.7887 -93.2443 38.1538V38.1538C-93.0915 38.0011 -93.409 37.6134 -93.6542 37.2619C-93.787 37.0715 -93.8406 36.8418 -93.8406 36.6097V36.6097C-93.8406 36.4491 -93.8664 36.2894 -93.9175 36.137C-94.0818 35.6474 -94.2461 35.1752 -94.4104 34.8328C-94.4275 34.7971 -94.4292 34.7534 -94.4536 34.7223C-94.4641 34.7089 -94.4791 34.6997 -94.4977 34.6934C-94.6936 34.627 -95.2364 35 -95.0965 35.1523V35.1523C-95.0549 35.1976 -95.0087 35.2006 -94.964 35.243C-94.9233 35.2816 -94.8809 35.3203 -94.8371 35.3589C-94.4048 35.7411 -94.6267 36.2966 -95.2035 36.2813C-95.5589 36.2719 -95.9078 36.2879 -96.2252 36.3671C-96.4324 36.4016 -96.6396 36.4241 -96.8458 36.4336C-98.3583 36.5031 -98.5346 34.6901 -97.4577 33.6257V33.6257C-97.0703 33.2428 -96.5248 32.9467 -95.9801 32.956C-94.3727 32.9833 -93.0136 33.5909 -91.6546 34.7789C-91.1017 35.1932 -90.4526 35.6075 -89.8411 36.0218C-89.3498 36.3546 -88.9884 37.154 -89.4861 37.4771V37.4771C-90.3172 38.0167 -90.7165 38.6909 -89.9236 39.2854C-89.1841 39.8399 -88.2719 40.0375 -87.2827 39.5434C-86.1618 38.9835 -85.5678 39.4764 -84.6751 40.0323C-84.5599 40.1041 -84.4958 40.1679 -84.3715 40.2224V40.2224C-83.7958 40.4753 -83.0915 39.9885 -82.9743 39.3707C-82.7585 38.2328 -83.1944 37.2622 -83.5071 36.1686V36.1686C-83.7952 35.0174 -82.0726 35.3593 -81.3464 36.2978C-80.5988 37.2641 -79.7141 37.9779 -78.3127 37.8496C-77.9879 37.8199 -77.6065 38.1439 -77.4907 38.4489V38.4489C-77.3598 38.7936 -77.661 38.9225 -78.0288 38.897C-79.564 38.7908 -79.9707 38.8586 -80.9002 39.6254C-81.3005 39.9557 -81.244 40.7346 -80.725 40.7346V40.7346C-78.539 40.9331 -76.3531 40.7346 -74.3659 41.1316C-73.2396 41.4129 -72.5123 41.0963 -71.8306 40.6761C-71.3029 40.3507 -70.8516 39.6344 -71.3232 39.2319C-71.5708 39.0206 -71.9122 38.9621 -72.1937 38.8413C-72.4546 38.7294 -72.5259 38.2785 -72.2639 38.1691V38.1691C-72.2049 38.1445 -72.1493 38.143 -72.088 38.1251C-71.5039 37.9548 -70.7588 37.9452 -70.1928 37.7567C-68.603 37.1612 -67.212 37.3597 -66.0197 38.5508C-65.9712 38.5993 -65.8988 38.6241 -65.8115 38.6339C-65.3599 38.6845 -65.1612 38.0598 -65.2211 37.6094V37.6094C-65.2286 37.553 -65.2331 37.53 -65.2478 37.4751C-65.606 36.1369 -65.2048 35.3705 -64.2312 35.176C-62.6414 34.7789 -60.8529 34.3819 -59.2632 34.3819C-57.7465 34.1925 -56.2297 35.0872 -54.713 35.5146C-54.568 35.5555 -54.3461 35.5887 -54.2207 35.6722V35.6722C-54.0952 35.7558 -54.0564 35.8365 -53.9821 35.9677C-53.472 36.8684 -53.2618 37.5847 -52.7054 37.9553C-51.979 38.3181 -51.3263 38.0914 -50.7473 37.6793C-50.0964 37.2158 -49.1045 37.2467 -48.4102 37.6423V37.6423C-48.1227 37.8062 -47.9923 37.6481 -47.6938 37.5054C-47.0791 37.2116 -46.4645 37.1429 -45.8498 37.1625C-44.2008 37.2148 -42.7454 39.0923 -44.1605 39.9405V39.9405C-44.9553 40.5361 -44.3591 41.9257 -43.3655 41.9257C-43.2922 41.9257 -43.2098 41.9197 -43.1218 41.9092C-42.1773 41.7961 -41.6505 40.5726 -40.9199 39.9635V39.9635C-39.8992 39.1124 -38.3052 40.2942 -36.9804 40.4V40.4C-36.1586 40.4657 -35.2255 40.483 -34.6765 41.0981C-34.1495 41.6886 -33.6128 42.2694 -32.774 42.5484C-32.1221 42.7652 -31.5015 42.3651 -31.2771 41.7158V41.7158C-31.1249 41.2752 -30.7893 40.8561 -30.3258 40.8066C-30.0853 40.7809 -29.8462 40.7283 -29.6538 40.536C-28.2627 39.3449 -26.8717 39.742 -26.0768 41.1316C-25.7162 41.8521 -25.2101 41.7736 -24.6906 41.7309C-24.0362 41.6771 -23.6898 42.3156 -23.8196 42.9593C-23.8407 43.0638 -23.8637 43.1702 -23.8881 43.2779C-24.0051 43.7956 -23.861 44.34 -23.4831 44.7127C-23.125 45.0657 -22.7349 45.4432 -22.3126 45.8321C-21.8446 46.2632 -21.0976 46.0165 -21.1683 45.3841V45.3841C-21.2162 44.9557 -20.947 44.4482 -20.5161 44.4568C-19.8025 44.4711 -19.1477 44.6497 -18.5514 44.9608C-18.0866 45.2033 -17.9806 45.7489 -18.3515 46.1195V46.1195C-18.7225 46.49 -18.7732 47.1874 -18.385 47.5398C-18.1881 47.7185 -17.9953 47.8855 -17.7925 48.022C-17.0673 48.5104 -16.6255 47.5289 -17.0763 46.7798V46.7798C-17.4825 46.1048 -17.0704 45.3142 -16.3007 45.1466C-15.9079 45.0611 -15.51 44.9805 -15.1025 44.8963C-14.08 44.6848 -13.3026 45.3567 -12.5638 46.0947V46.0947C-12.2838 46.3744 -11.8066 46.6541 -11.3405 46.7256C-10.9644 46.7832 -10.5845 46.6671 -10.2173 46.5671C-9.73621 46.436 -9.27923 46.2511 -8.81642 46.0572C-7.91548 45.6798 -6.84683 45.7699 -5.94981 46.1565V46.1565C-4.70064 46.6949 -3.31329 46.6137 -2.15348 45.9029C-2.10251 45.8717 -2.05177 45.841 -2.00122 45.8109C-1.63345 45.592 -1.20549 45.3898 -0.835308 45.6046C-0.673732 45.6984 -0.523966 45.8142 -0.441931 45.8961C-0.24321 46.0947 -0.640603 46.4917 -0.640603 46.8887V46.8887C-0.640603 47.2396 -0.682108 47.6367 -0.333855 47.679C0.699432 47.8042 1.48773 47.1801 2.14153 46.6902C3.06517 45.9213 3.9888 45.748 4.91243 45.8936C5.43844 45.9764 5.80561 46.34 6.10124 46.7829V46.7829C6.32122 47.1125 6.72053 47.3275 7.1092 47.4046C7.60061 47.502 8.10158 47.5994 8.63555 47.6968C9.33555 47.8245 10.0839 47.9382 10.6381 48.3844C10.7429 48.4688 10.8296 48.5643 10.8852 48.6754C12.2762 51.2562 14.6609 51.6533 17.0456 52.0503C18.4366 52.2488 19.8276 52.8444 21.4173 51.6533C22.8084 50.4621 23.6033 50.8592 25.1931 52.4473C25.5905 52.8444 26.1866 53.0429 26.3853 53.0429V53.0429C28.3477 52.7979 29.8771 54.4076 31.8507 54.5343C32.5073 54.5765 33.1499 54.7344 33.738 55.0282C34.9049 55.6942 35.9319 56.7794 37.0536 57.8149C37.4563 58.1866 38.031 58.2984 38.5578 58.1476C38.7106 58.1038 38.8648 58.0601 39.0161 58.0163C39.4216 57.8991 39.8668 58.0479 40.0899 58.4062C40.1653 58.5272 40.2407 58.653 40.3162 58.7861C40.5953 59.2789 41.2869 59.3581 41.5835 58.8756V58.8756C41.7496 58.6054 42.0963 58.4665 42.4053 58.5381C42.7961 58.6285 43.1797 58.7262 43.3796 59.0073C43.4618 59.1229 43.509 59.2626 43.5889 59.3797C44.1529 60.2059 44.5183 59.5126 45.0125 59.2615C45.2862 59.1225 45.5897 59.291 45.8329 59.4784C46.3829 59.9023 47.0036 60.4093 47.6413 60.9995C47.9433 61.279 47.8939 61.7358 47.5518 61.9644V61.9644C47.2749 62.1494 47.1287 62.6398 47.3317 62.9038C47.3628 62.9442 47.4001 62.969 47.4498 62.969C48.046 62.969 48.8408 62.7705 49.437 62.969C53.194 64.2682 53.5886 64.6227 55.5107 64.1851C57.5039 63.7314 59.4984 64.0724 61.3599 64.9171V64.9171C61.7569 65.0972 62.1724 65.2036 62.6083 65.2067C63.433 65.2127 64.3077 65.0094 65.4203 64.8473C65.882 64.78 66.1857 64.7655 66.5739 65.0243V65.0243C67.4278 65.5934 68.6768 65.6801 69.6843 65.4852C70.9773 65.235 72.3284 65.6394 73.8796 66.3438C76.0655 67.3365 78.4502 67.9321 80.6362 69.1232C83.6806 70.6439 86.725 71.9826 89.7695 73.6621C90.0389 73.8107 90.3576 73.9883 90.6338 74.1238V74.1238C90.801 74.2058 90.7831 74.3794 90.8263 74.5605C91.3135 76.6035 93.0135 75.8729 94.3478 75.8729C94.4274 75.8729 94.523 75.8729 94.6266 75.8745C95.3896 75.8863 95.9163 76.4615 96.5798 76.8385C96.8491 76.9915 97.1433 77.0844 97.4624 77.1084C97.9031 77.1416 98.368 77.0027 98.7405 77.2405V77.2405C99.0526 77.4397 99.2187 77.8179 99.4715 78.0884C101.12 79.8521 103.827 79.9687 105.675 81.63C106.042 81.9966 106.748 82.194 107.323 82.3784C107.416 82.4082 107.513 82.4242 107.611 82.424C107.729 82.4237 107.846 82.4228 107.963 82.4198C108.53 82.405 109.064 83.0239 109.054 83.5905V83.5905C109.051 83.781 109.128 83.8911 109.242 84.0435C109.378 84.2241 109.514 84.4093 109.649 84.4093C111.835 84.4093 113.425 85.9975 115.412 86.5931C116.207 86.7916 117.002 87.9827 117.399 88.7768C118.194 90.762 120.182 91.5561 121.97 92.1517C124.553 92.9458 126.541 94.1369 128.13 96.5192C129.124 98.1073 131.31 99.0999 133.098 100.093C134.092 100.688 134.688 101.085 135.284 102.078C135.88 103.269 136.477 104.46 138.066 104.659C138.265 104.659 138.464 104.857 138.662 105.056C141.643 108.033 144.624 110.813 147.406 113.791C148.797 115.18 150.387 116.173 151.381 118.158C152.176 119.746 153.169 121.136 154.56 122.526C155.752 123.518 156.547 125.305 157.541 126.496C159.528 129.077 161.118 132.253 163.701 134.437C164.099 134.834 164.297 135.628 164.496 136.224C164.894 137.415 165.49 138.407 166.483 139.003C167.676 139.598 168.471 140.392 168.669 141.584C168.698 141.683 168.733 141.778 168.774 141.869C169.752 144.046 170.755 146.669 172.246 148.532V148.532C173.637 150.12 174.035 151.907 174.631 153.693V153.693C175.025 154.874 176.241 155.614 176.811 156.721C176.851 156.8 176.889 156.879 176.925 156.959C177.181 157.538 177.328 158.159 177.522 158.762C178.13 160.646 178.543 162.53 179.4 164.414C180.394 166.399 181.189 168.384 181.785 170.568V170.568C182.869 173.818 184.018 177.512 185.211 180.723C185.359 181.12 185.534 181.509 185.759 181.883C186.554 183.273 187.15 185.06 187.349 186.648C188.144 190.618 188.74 194.787 189.336 198.956V198.956C189.706 200.432 188.105 201.578 188.17 203.098C188.199 203.786 188.443 204.523 188.541 205.309C188.74 206.699 189.535 207.89 188.541 209.478C188.25 209.915 188.493 210.566 188.801 211.352C189.016 211.903 188.873 212.522 188.454 212.94V212.94C187.844 213.549 187.99 214.368 188.592 214.985C188.799 215.197 188.939 215.458 188.939 215.831C188.939 217.419 189.535 219.404 188.939 220.794C188.828 221.098 188.764 221.387 188.735 221.664C188.432 224.623 191.502 227.59 190.33 230.323V230.323C189.734 232.109 189.535 233.698 190.131 235.881C190.389 236.525 190.229 238.254 189.868 239.606C189.558 240.767 188.343 241.628 188.343 242.83V242.83V242.83C188.343 243.622 188.281 244.415 188.071 245.18C187.83 246.059 187.548 246.973 187.548 247.793C187.548 248.984 188.541 250.175 188.74 251.565C188.939 252.359 188.74 253.748 188.343 254.145C186.952 255.337 188.343 256.925 187.548 258.116C186.753 259.307 186.355 260.3 186.753 261.689V261.689C187.242 263.155 185.719 264.531 185.165 265.974C185.081 266.193 185.012 266.417 184.964 266.652C184.929 266.757 184.897 266.864 184.868 266.972C184.297 269.074 186.63 270.482 186.157 272.608V272.608V272.608C185.875 274.295 183.984 275.175 183.624 276.847C183.206 278.786 182.677 280.701 181.586 282.335C181.189 283.13 181.189 284.122 181.189 284.916C181.189 285.061 181.242 285.18 181.309 285.291C181.472 285.562 181.887 285.768 182.156 285.602V285.602C182.438 285.429 182.897 285.519 182.959 285.844C183.074 286.439 183.025 287.018 182.182 287.298C181.556 287.455 181.176 287.858 180.946 288.411C180.818 288.719 180.726 289.044 180.587 289.347V289.347C179.561 291.58 178.66 294.272 178.047 296.652C178.032 296.71 178.019 296.769 178.009 296.828C177.811 298.217 177.214 299.408 176.618 300.798C176.022 302.386 175.028 303.974 175.625 305.96C175.776 306.715 175.352 307.585 174.965 308.395C174.753 308.84 174.809 309.334 175.218 309.609V309.609C175.663 309.909 175.93 310.48 175.788 310.997C175.477 312.127 175.06 313.228 173.637 313.702C171.849 314.298 171.253 315.886 171.451 317.474C171.451 318.79 171.451 320.107 170.775 321.424C170.7 321.571 170.593 321.704 170.525 321.855V321.855C170.307 322.344 170.695 322.851 170.925 323.334C171.297 324.115 171.198 324.897 170.982 325.678C170.723 326.614 169.839 326.606 168.868 326.606V326.606C168.073 326.606 167.874 327.201 167.676 327.797C167.08 329.782 166.483 331.767 165.887 333.753C165.49 335.142 164.894 336.73 164.099 338.12C162.962 340.229 162.091 342.338 161.268 344.447C160.925 345.326 161.254 346.966 161.922 346.298V346.298C162.056 346.164 162.148 345.972 162.214 345.794C162.539 344.914 162.75 344.034 163.263 343.153C163.29 343.106 163.323 343.063 163.364 343.028C163.399 342.998 163.439 342.967 163.481 342.936C163.785 342.715 164.522 342.862 164.357 343.201V343.201C164.323 343.271 164.283 343.32 164.255 343.393C163.733 344.756 163.066 345.978 162.382 347.314C162.208 347.655 161.908 347.921 161.531 347.992C161.447 348.007 161.364 348.022 161.28 348.036C160.723 348.129 160.39 348.655 160.498 349.21C160.549 349.475 160.601 349.73 160.652 349.987C160.771 350.582 160.081 351.026 159.509 350.823V350.823C159.145 350.694 158.815 350.902 158.661 351.256C157.77 353.295 157.44 353.643 154.237 356.238C153.88 356.528 154.163 356.917 154.163 357.377V357.377C153.964 359.163 153.964 361.149 152.374 362.141C152.129 362.304 151.926 362.476 151.751 362.653C150.536 363.88 149.753 365.48 148.744 366.882C148.266 367.547 147.767 368.19 147.229 368.83C147.084 369.003 146.943 369.235 146.787 369.399V369.399C146.429 369.774 146.164 370.156 145.995 370.646C145.252 372.791 143.646 374.235 142.041 375.839C141.445 376.435 140.848 377.229 140.65 378.023C140.054 380.802 137.669 382.39 135.88 384.376C134.887 385.368 134.092 386.559 133.496 387.949C133.432 388.076 133.367 388.2 133.299 388.322C132.288 390.156 132.436 393.124 134.489 392.714V392.714C136.079 392.317 137.669 393.111 139.06 392.714C140.65 392.317 142.041 392.713 143.63 392.515C144.64 392.403 145.712 392.481 146.812 392.605C148.458 392.792 149.484 394.425 151.134 394.573V394.573C151.498 394.606 151.942 394.415 152.244 394.209C152.508 394.028 152.8 393.829 153.169 393.706C155.67 392.745 156.309 392.901 157.79 395.434C157.889 395.604 157.962 395.745 158.138 395.835V395.835C158.231 395.883 158.389 395.9 158.493 395.904C159.463 395.94 159.439 394.869 159.891 394.251C160.088 393.982 160.502 394.12 160.692 394.394V394.394C161.131 395.029 162.474 396.527 163.172 396.199V396.199C163.713 395.944 164.44 396.341 164.784 396.83C165.154 397.358 165.81 397.544 166.387 397.764C167.185 398.068 168.143 398.673 168.872 398.228C169.497 397.847 169.86 397.291 170.226 396.801C170.492 396.445 170.86 396.122 171.304 396.138C172.148 396.169 172.759 397.043 173.24 396.882C174.83 396.287 175.823 397.081 177.016 397.677C178.208 398.272 179.798 398.272 180.99 398.868C182.779 399.662 184.567 400.257 186.554 400.456C187.659 400.613 188.764 400.896 189.868 401.205C190.367 401.344 190.879 401.149 191.227 400.766V400.766C191.502 400.464 191.964 400.341 192.355 400.457C193.919 400.918 195.627 401.184 197.479 400.888C197.615 400.866 197.722 400.85 197.859 400.856V400.856C198.273 400.874 198.715 401.093 199 401.394C199.44 401.86 199.778 402.588 200.663 402.441C201.458 402.243 202.452 402.044 203.247 402.044V402.044C204.216 402.044 205.105 402.582 206.052 402.792C206.971 402.995 207.891 403.171 208.811 403.434C209.606 403.632 210.401 403.831 210.997 404.228C211.086 404.287 211.158 404.374 211.219 404.477C211.993 405.784 213.253 405.419 214.773 405.419V405.419C216.561 405.617 218.349 404.625 219.939 405.816C220.457 406.161 220.974 406.206 221.492 405.952C221.655 405.872 221.811 405.777 221.986 405.729C222.679 405.541 223.278 405.749 223.858 406.204C224.122 406.412 224.138 406.892 223.889 407.119V407.119C223.77 407.227 223.65 407.268 223.538 407.385C223.216 407.722 222.98 408.059 223.318 408.397C223.332 408.411 223.348 408.425 223.365 408.439C223.891 408.851 224.662 408.488 225.279 408.232V408.232C226.815 407.592 228.57 407.598 229.906 408.589C230.763 409.225 231.581 409.834 232.459 410.382C233.055 410.779 233.651 410.977 234.247 410.779C238.045 409.917 240.943 411.901 244.113 413.477C244.845 413.842 245.112 414.782 244.636 415.447V415.447C244.271 415.955 244.29 416.694 244.785 417.077C244.881 417.152 244.977 417.218 245.073 417.274C245.141 417.314 245.214 417.343 245.288 417.368C246.431 417.752 247.394 418.143 248.356 418.72C249.096 419.142 249.947 419.452 250.822 419.679C252.333 420.073 253.879 420.327 255.353 420.842C256.814 421.352 258.305 421.829 259.882 421.698C261.472 421.698 263.062 422.69 264.254 423.881C265.121 424.575 266.292 425.268 267.501 425.961C267.828 426.149 268.03 426.347 268.03 426.724V426.724C268.03 427.086 268.211 427.587 268.55 427.715C269.146 427.939 269.722 427.914 270.312 427.784C271.67 427.485 273.221 428.016 274.069 429.117V429.117C274.858 430.141 275.55 431.24 276.63 430.531C276.938 430.328 277.287 430.175 277.731 430.181C278.021 430.185 278.296 430.298 278.553 430.432C280.827 431.62 283.24 433.33 285.12 435.396C287.049 437.515 288.977 438.513 291.633 437.843C291.795 437.803 291.895 437.778 292.061 437.778V437.778C292.537 437.778 293.071 437.963 293.307 438.376C293.742 439.139 294.017 440.05 295.254 440.359V440.359C297.732 440.854 299.529 442.755 301.694 444.058C302.365 444.462 302.964 445.042 303.402 445.917C303.513 446.14 303.811 446.362 304.156 446.549C304.688 446.838 305.284 447.145 305.753 447.528V447.528C306.265 447.946 306.92 447.971 307.499 448.29C308.916 449.072 309.827 450.45 311.152 451.277C312.682 452.233 314.58 452.452 315.606 453.883C315.687 453.996 315.79 454.128 315.892 454.222V454.222C316.145 454.453 316.471 454.554 316.774 454.714C318.273 455.499 320.007 455.831 321.088 457.63C321.883 459.02 323.87 459.814 325.261 461.005C326.056 461.601 326.851 462.395 327.845 462.792C328.838 463.189 329.633 463.784 330.031 464.777V464.777C330.377 465.469 330.95 465.989 331.518 466.514C332.683 467.59 333.642 468.899 334.601 470.335C335.793 472.122 337.78 473.313 339.569 474.703C342.351 476.887 344.537 479.269 346.127 482.247C346.266 482.524 346.405 482.826 346.56 483.118C347.117 484.162 348.285 484.71 348.991 485.66C349.156 485.88 349.3 486.111 349.428 486.353C350.042 487.511 350.481 488.746 350.896 489.989V489.989C351.376 491.108 351.727 492.098 352.157 493.167C352.37 493.697 352.554 494.277 352.715 494.825V494.825C352.991 495.766 353.735 496.429 354.183 497.3C354.721 498.346 354.843 499.578 355.268 500.709C355.631 501.797 355.166 503.38 356.442 504.101C356.702 504.248 357.056 504.381 357.056 504.68V504.68C357.237 508.648 358.894 512.452 358.45 516.39C358.36 517.19 357.889 518.055 358.249 518.775V518.775C359.044 520.562 359.441 522.348 358.249 524.333C358.05 524.73 358.447 525.326 358.447 525.922C358.249 527.51 358.448 529.495 357.653 530.885C355.864 534.061 356.063 537.237 356.063 540.612V540.612C356.063 542.092 355.301 543.453 354.782 544.839C354.412 545.827 354.11 546.827 353.877 547.759C353.082 550.141 352.685 552.722 351.492 554.707C349.902 557.288 349.704 560.067 348.511 562.648C347.518 564.633 347.518 566.817 346.325 568.604C345.928 569.199 345.928 570.39 345.729 571.184C345.332 572.574 345.133 573.964 343.941 574.956V574.956C343.382 575.514 343.28 576.341 343.191 577.125C343.102 577.907 343.014 578.66 342.749 579.324C342.351 580.118 340.96 580.515 340.96 581.706C340.96 583.096 340.165 583.89 339.37 584.684C337.781 586.471 336.787 588.456 335.992 590.64C335.529 591.718 335.186 592.917 334.219 593.678C333.619 594.15 332.757 594.323 332.415 595.007V595.007C331.421 597.389 329.434 599.176 327.646 600.963C326.255 602.352 324.864 603.742 323.473 605.132C322.082 606.521 320.691 608.308 318.902 609.102C318.505 609.301 318.306 609.499 317.909 609.896C317.343 610.602 316.727 611.183 316.061 611.638C313.875 613.131 311.628 614.643 310.158 616.844V616.844C309.761 617.44 309.165 618.036 308.569 618.433C307.178 619.425 305.786 620.616 304.594 622.006C303.203 623.991 301.017 624.984 299.03 626.175C297.242 627.168 295.254 627.962 294.459 630.145C294.399 630.266 294.303 630.386 294.186 630.501C293.656 631.022 292.955 631.338 292.283 631.657V631.657C291.988 631.798 291.773 632.062 291.609 632.345C291.179 633.087 290.823 633.95 289.491 634.116C288.498 634.116 287.703 635.307 286.709 635.903C283.132 637.491 279.754 639.476 276.376 641.064C274.786 641.858 272.998 642.454 271.408 643.248C270.216 643.844 269.222 644.638 268.03 645.035C266.241 645.829 264.453 646.623 262.664 647.02C259.882 647.615 257.1 647.615 254.119 648.012C252.728 648.211 251.536 648.012 250.343 648.608C249.35 649.005 248.158 649.204 247.164 648.211C246.991 648.039 246.37 648.165 245.819 648.072C245.653 648.044 245.504 647.975 245.348 647.914V647.914C244.587 647.612 244.228 646.922 243.811 646.216C243.219 645.214 242.054 644.84 241.004 644.241C240.209 643.844 240.01 643.049 240.407 642.255C241.202 640.072 242.991 639.277 244.978 638.483C245.275 638.335 245.572 638.236 245.87 638.172C249.341 637.434 252.603 636.809 254.914 634.116V634.116C256.106 632.925 257.299 632.131 259.286 632.726C259.992 632.928 260.8 632.976 261.607 632.948C263.112 632.897 264.59 632.568 265.844 631.734V631.734C267.036 630.94 268.228 630.146 269.421 629.351C270.431 628.791 271.442 628.23 272.596 627.919C273.816 627.591 275.343 625.915 275.969 624.817V624.817C276.371 624.111 277.007 623.568 277.808 623.429C279.334 623.164 280.093 622.618 281.344 621.212V621.212C282.224 620.333 283.225 619.811 284.251 619.109C285.196 618.462 285.853 617.498 286.511 616.448C286.908 615.852 287.504 615.256 288.299 614.859V614.859C289.413 614.303 289.685 612.952 290.681 612.205C291.927 611.271 292.795 609.888 294.062 608.904C294.172 608.794 294.281 608.564 294.324 608.346C294.383 608.049 294.175 607.78 294.062 607.499C293.624 606.41 294.267 606.035 295.003 605.669C295.37 605.487 295.889 605.684 296.091 606.041V606.041C296.318 606.444 296.78 606.485 297.151 606.209C297.227 606.153 297.304 606.096 297.384 606.04C297.816 605.736 297.969 605.146 297.639 604.735C297.634 604.728 297.629 604.722 297.623 604.715C297.302 604.314 297.362 603.433 297.873 603.492V603.492C297.982 603.505 298.094 603.549 298.204 603.553C299.235 603.589 300.142 603.219 301.015 602.76C303.377 601.516 305.938 600.219 307.606 598.134C307.734 597.974 307.86 597.812 307.983 597.647C308.11 597.477 308.228 597.368 308.289 597.165V597.165C308.461 596.592 307.993 596.046 307.836 595.468C307.794 595.314 307.864 595.161 308.171 595.007C308.569 594.809 309.165 594.809 309.562 594.809C310.4 594.809 310.943 594.417 311.261 593.771C311.473 593.341 311.146 592.902 310.678 593.01V593.01C310.015 593.162 309.418 592.403 309.867 591.892C311.615 589.902 313.172 588.225 314.729 586.669C314.836 586.562 315.059 586.513 315.304 586.459C315.691 586.374 315.921 586.08 315.921 585.684V585.684C315.921 585.003 316.567 584.418 317.239 584.518C317.514 584.559 317.795 584.606 318.107 584.684C319.127 584.83 319.613 584.762 319.956 583.934C320.209 583.321 319.738 582.699 319.075 582.699V582.699C318.294 582.699 317.712 581.869 318.13 581.209C318.48 580.657 318.872 580.167 319.354 579.776C319.985 579.266 320.538 578.619 320.748 577.835C320.979 576.975 321.34 576.165 321.935 575.508C322.03 575.403 322.12 575.293 322.204 575.179C322.356 574.968 322.529 574.758 322.704 574.548C323.151 574.011 324.216 573.921 323.98 574.578C323.95 574.66 323.911 574.739 323.868 574.815C323.747 575.031 323.733 575.288 323.869 575.495C323.873 575.501 323.877 575.508 323.882 575.514C323.99 575.675 324.166 575.751 324.359 575.751V575.751C324.657 575.751 324.937 575.569 325.047 575.292C325.265 574.74 325.474 574.188 325.64 573.635C325.794 573.119 325.566 572.575 325.142 572.244C325.09 572.204 325.039 572.165 324.99 572.127C324.684 571.893 324.466 571.518 324.466 571.132V571.132C324.466 571.023 324.484 570.933 324.518 570.829C324.698 570.284 324.864 569.725 324.864 569.001C325.063 567.016 325.659 565.427 326.652 563.641C328.043 561.06 328.838 558.082 329.832 555.303C330.428 553.318 331.62 551.729 331.819 549.546C331.819 549.362 331.989 549.136 332.211 548.887C332.634 548.413 333.471 548.391 333.887 548.871V548.871C334.219 549.255 334.727 549.347 335.135 549.047C335.288 548.934 335.441 548.828 335.595 548.752C337.854 547.623 337.437 545.603 337.726 543.705C337.758 543.496 337.79 543.312 337.77 543.102V543.102C337.736 542.758 337.416 542.53 337.132 542.334C335.694 541.338 336.224 539.899 336.588 538.627C337.184 536.642 336.986 534.458 338.377 532.87V532.87C338.77 532.476 338.471 531.805 338.438 531.25C338.332 529.474 339.474 528.071 340.165 526.517C340.563 525.326 341.159 524.532 340.761 522.944C340.483 521.968 340.889 520.895 341.224 519.793C341.505 518.872 341.954 517.952 341.954 516.988V516.988C341.755 514.407 341.556 511.827 341.159 509.246C340.96 507.658 340.563 506.069 339.768 504.878C338.973 503.489 339.37 502.099 338.377 500.709C336.986 498.526 335.793 495.945 334.999 493.364C334.8 492.57 334.203 491.379 333.607 491.18C331.819 490.585 331.223 488.996 330.229 487.805C329.037 486.416 328.043 484.828 326.255 484.232V484.232C324.804 483.749 324.662 481.678 323.472 480.718C323.346 480.617 323.214 480.529 323.075 480.46C320.492 478.872 318.505 476.291 315.921 474.703C315.325 474.306 314.53 473.909 314.133 473.313C313.139 471.527 311.549 470.534 309.761 469.541C308.171 468.747 306.979 467.159 305.389 466.167C303.998 465.372 302.607 464.975 301.415 463.784C298.633 461.005 295.254 459.218 291.677 457.432C290.882 457.035 290.088 456.439 289.491 455.843C288.299 454.851 286.908 454.255 285.716 453.263C284.523 452.27 283.331 451.277 281.94 450.682V450.682C281.015 450.22 280.3 449.414 279.508 448.749C279.01 448.33 278.518 447.925 277.966 447.704C275.978 447.109 274.19 446.116 272.6 444.726C271.01 443.337 268.824 442.741 267.235 441.748C264.85 439.962 262.068 438.969 259.485 437.579V437.579C257.268 436.472 254.349 435.51 252.132 434.403V434.403C251.561 434.118 251.093 433.73 250.506 433.608C250.009 433.505 249.151 433.72 249.151 433.212V433.212C248.952 430.83 247.164 431.425 245.773 431.028C243.388 430.234 240.805 429.639 238.42 428.646C237.623 428.327 236.826 427.753 235.926 427.128C235.504 426.836 235.087 426.754 234.602 426.922V426.922C234.008 427.129 233.261 426.869 232.903 426.351C232.762 426.147 232.608 425.96 232.433 425.816C231.572 425.109 230.13 425.29 229.3 424.546C228.438 423.773 227.521 423.108 226.45 422.753C225.112 422.309 223.651 422.044 222.253 421.866C221.131 421.722 219.991 421.706 219.144 421.102C217.555 420.11 215.766 419.712 214.176 419.117C212.189 418.521 210.003 418.124 208.016 417.33C206.029 416.536 203.843 416.139 201.657 415.742C200.862 415.543 200.067 415.345 199.471 415.345C198.982 415.345 198.542 415.32 198.152 415.22C196.568 414.811 196.25 412.432 194.668 412.017C193.878 411.81 192.953 411.954 191.92 412.367V412.367C191.014 412.82 190.032 412.793 189.02 412.76C187.214 412.701 185.273 413.095 183.573 412.169C182.779 411.772 181.785 411.573 180.99 411.375C180.48 411.205 179.969 411.035 179.459 410.865C179.288 410.808 179.112 410.722 178.967 410.615V410.615C178.171 410.03 177.16 409.716 176.212 409.992C175.492 410.202 174.758 410.314 174.036 410.237C172.812 410.107 171.56 409.779 170.332 409.686C168.042 409.512 165.795 408.483 163.304 408.794C162.509 408.992 161.515 408.595 160.721 408.397V408.397C155.602 407.217 149.872 407.442 144.856 405.882C144.319 405.715 143.779 405.555 143.233 405.419C140.451 404.823 137.669 404.823 135.086 403.434V403.434C133.696 402.739 132.216 402.947 130.697 402.623C130.249 402.528 129.732 402.568 129.124 402.838C128.13 403.235 126.938 402.64 125.746 402.243C122.367 401.25 119.983 402.044 117.797 404.823C117.399 405.419 117.201 406.014 116.605 406.411C113.226 408.794 110.842 411.97 108.258 414.948C107.893 415.386 107.393 415.717 106.878 416.038C105.229 417.068 103.513 418.507 102.701 420.273V420.273C102.58 420.537 102.455 420.846 102.339 421.112C102.325 421.145 102.311 421.177 102.296 421.21C101.952 421.955 101.071 422.177 100.396 422.643C100.099 422.848 99.8355 423.085 99.5981 423.348C99.084 423.919 98.6771 424.581 98.1423 425.132C96.0633 427.274 93.5026 428.917 91.5658 431.028C90.5722 432.021 89.5785 432.815 88.7837 434.006C87.7901 435.594 86.0015 436.587 84.4118 437.579C83.8156 437.976 83.2195 438.175 82.6234 438.572C82.511 438.636 82.3986 438.702 82.2864 438.768C79.8155 440.241 77.4659 442.536 75.0719 444.131V444.131C73.2834 445.123 71.2962 445.719 69.5077 446.91C66.3282 448.697 63.3474 450.483 60.3666 452.469C59.7705 452.866 59.1743 453.064 58.5781 453.263C55.5973 454.057 53.2127 455.446 51.4242 458.027C50.6293 459.218 49.6357 459.814 48.0459 459.814V459.814C47.7439 459.814 47.4829 459.587 47.1816 459.608C45.4659 459.727 44.3405 461.434 42.8793 461.799C41.0908 461.998 39.501 462.395 37.9112 463.586C36.1228 464.975 33.9368 465.968 31.5522 466.365C30.5586 466.564 29.565 466.961 28.5713 467.159V467.159C27.1192 467.522 25.6832 466.712 24.1866 466.735C23.4125 466.747 22.6405 466.945 21.8148 467.358C21.4174 467.556 20.8212 467.556 20.2251 467.556C17.2442 467.755 14.2634 467.953 11.4813 467.953C9.69282 467.953 8.1031 467.953 6.31462 468.35C5.12229 468.747 3.53258 468.946 2.14153 467.755C1.54537 467.358 0.352951 467.556 -0.441931 467.755C-1.43553 467.953 -2.42914 468.152 -3.42274 467.755C-5.0125 467.358 -6.60227 466.365 -8.39075 467.358V467.358C-9.49716 467.91 -10.7865 466.811 -11.9817 466.494C-14.5666 465.806 -17.1762 465.062 -19.9165 464.578C-22.4999 464.181 -24.0897 462.593 -25.8781 461.204C-26.8717 460.409 -27.8653 459.615 -28.859 458.821V458.821C-31.5078 456.931 -32.8572 453.937 -35.1008 451.58C-35.1986 451.477 -35.3036 451.376 -35.4167 451.277C-36.2022 450.493 -36.4909 449.336 -36.3811 448.199C-36.3304 447.674 -36.494 447.166 -36.9902 446.988V446.988C-37.4339 446.829 -37.796 446.393 -37.8084 445.922C-37.8132 445.74 -37.8212 445.555 -37.8346 445.365C-37.8878 444.612 -38.5496 444.133 -39.1465 443.671C-39.4702 443.421 -39.6842 443.064 -39.7886 442.542C-39.9873 440.954 -40.186 439.168 -40.186 437.579C-40.186 437.493 -40.186 437.402 -40.1848 437.309C-40.1708 436.241 -39.4408 435.362 -38.9588 434.41V434.41C-37.0631 430.663 -35.3903 426.364 -32.1653 423.676C-31.9286 423.478 -31.6869 423.283 -31.4423 423.087C-29.9801 421.809 -29.3585 420.027 -27.7221 418.977C-27.4318 418.791 -27.1868 418.661 -27.114 418.324V418.324C-26.9852 417.727 -26.596 417.158 -26.0543 416.877C-25.3332 416.502 -24.6121 416.174 -23.8909 415.742C-23.4935 415.543 -23.0961 415.146 -22.8973 415.345C-21.1088 416.735 -20.9101 414.948 -20.1152 413.955C-19.1216 412.764 -18.128 411.573 -16.5382 410.978C-15.7062 410.645 -15.0134 410.173 -14.46 409.446C-14.2399 409.156 -14.0305 408.838 -13.6927 408.703C-13.6122 408.671 -13.527 408.645 -13.4394 408.626C-13.2565 408.587 -13.0679 408.573 -12.8867 408.527C-11.7859 408.246 -11.6226 408.129 -11.8175 407.114C-11.8869 406.752 -11.6197 406.287 -11.2572 406.222V406.222C-11.1893 406.209 -11.1394 406.226 -11.0747 406.249C-9.53354 406.816 -8.35779 406.991 -6.80089 406.213C-5.21113 405.419 -3.42269 405.022 -1.63421 404.625C-0.441882 404.426 -0.243162 402.838 1.3466 403.434C2.53893 403.831 2.93639 402.243 3.73127 401.647C5.9172 400.059 8.50059 398.669 11.084 398.074C12.8724 397.677 14.4621 396.684 16.4493 396.882C17.0455 396.882 17.6417 396.485 18.2379 396.287C18.8193 396.055 19.4688 395.754 20.1466 395.625C21.1143 395.44 22.3101 395.991 23.0072 395.294V395.294C24.1995 393.905 25.988 393.706 27.5777 393.706C29.6758 393.545 31.7739 393.384 33.7655 392.584C34.596 392.251 35.5478 392.387 36.2409 392.953C36.3107 393.01 36.3812 393.065 36.4522 393.119C36.6225 393.248 36.9069 393.285 37.1048 393.204V393.204C37.2894 393.13 37.3693 393.02 37.4821 392.856C38.4432 391.458 39.6111 390.927 41.4882 390.927C44.0716 390.927 46.8536 390.53 49.437 389.736C51.4242 389.14 53.6101 388.545 55.5973 387.552C56.1935 387.155 57.3858 387.155 58.1806 387.353C60.9627 388.148 64.1424 387.552 66.7257 389.339C67.3219 389.736 68.5142 389.537 69.3091 389.14C70.3027 388.545 71.0975 388.743 71.8924 388.743C72.4886 388.743 73.2835 388.545 73.6809 388.148C74.2542 387.46 75.0259 387.5 75.7671 387.466C76.7316 387.422 77.7588 387.173 78.6479 387.55V387.55C79.3541 387.849 80.2509 387.925 80.9667 387.65C82.6989 386.984 84.6484 386.704 86.5978 387.353C87.5914 387.75 88.3863 386.758 89.5786 387.155C91.9632 387.751 94.3478 387.353 96.7325 388.148C97.808 388.455 99.0023 388.524 100.132 388.081C100.754 387.837 101.482 387.783 102.016 388.185C102.032 388.198 102.049 388.211 102.066 388.223C102.587 388.62 103.227 388.66 103.72 388.229C103.754 388.199 103.79 388.169 103.828 388.138C103.99 388.007 104.196 387.949 104.405 387.949V387.949C104.586 387.949 104.765 387.997 104.925 388.082C107.983 389.704 110.307 389.074 112.63 386.559C113.624 385.368 114.617 384.177 115.213 382.787C115.81 381.596 116.604 380.008 117.797 379.413C120.181 378.221 120.778 376.038 121.97 374.052C123.361 371.67 124.355 369.089 126.739 367.501C127.137 367.303 127.137 366.707 127.534 366.112C127.932 365.318 128.329 364.523 128.925 363.928C130.912 361.943 132.105 359.56 133.694 357.377C134.092 356.781 134.688 356.186 134.887 355.392C135.284 354.399 135.682 353.803 136.477 353.208C137.073 352.811 137.47 352.017 137.47 351.222C137.669 349.436 138.464 348.046 139.656 346.656C140.848 345.068 141.842 343.282 142.637 341.296C143.63 338.914 145.022 336.532 146.413 334.15C146.545 333.885 146.678 333.619 146.752 333.413C146.81 333.249 146.792 333.1 146.736 332.935V332.935C146.422 332.004 147.109 331.469 147.804 330.775V330.775V330.775C148.74 329.84 149.266 328.578 149.745 327.344C150.569 325.225 151.317 323.043 152.233 320.92C153.501 317.982 156.625 313.978 154.361 311.717V311.717C153.964 311.32 154.163 310.526 154.361 309.93C154.693 308.77 155.164 307.748 155.657 306.633C155.825 306.253 156.261 306.061 156.669 306.143V306.143C157.14 306.238 157.618 305.939 157.683 305.463C157.768 304.844 157.844 304.25 158.066 303.73C158.11 303.627 158.152 303.522 158.205 303.423C158.501 302.879 159.347 302.335 159.528 301.791C159.926 300.401 160.323 298.813 160.522 297.423C160.919 295.636 161.317 293.85 161.913 292.262C162.238 291.123 162.297 291.051 163.401 290.516C163.896 290.276 164.057 289.719 163.785 289.241V289.241C163.732 289.148 163.662 289.047 163.589 288.969C162.888 288.212 162.727 287.439 163.105 286.306C163.9 283.924 164.695 281.541 164.496 279.159C164.404 278.514 164.419 277.88 164.483 277.252C164.865 273.546 167.477 269.385 167.477 265.66V265.66C167.477 264.072 167.477 262.483 167.676 261.094C167.874 259.704 167.874 258.314 169.265 257.322C169.862 256.925 169.464 255.535 169.862 254.741C170.657 253.351 171.054 252.16 170.259 250.572C169.862 249.976 170.259 248.984 170.259 248.388V248.388C170.259 247.55 170.477 246.799 170.337 245.972C169.945 243.652 170.716 241.454 171.054 239.256C171.451 236.477 171.849 233.896 172.048 231.117C172.246 229.727 172.644 228.139 172.048 226.948C171.665 225.93 171.855 225.238 172.197 224.454C172.426 223.931 173.212 223.931 173.413 224.465V224.465C173.588 224.93 174.184 224.99 174.289 224.504C174.529 223.394 174.204 222.195 174.369 221.13C174.553 219.943 174.981 218.636 174.558 217.512C174.189 216.532 173.993 215.523 174.234 214.441C174.432 213.845 174.035 213.25 173.439 212.853C171.65 211.463 171.253 209.478 171.253 207.294C171.253 205.679 171.253 204.155 171.253 202.599C171.253 201.595 172.424 201.18 173.402 200.954V200.954C173.833 200.855 174.108 200.47 174.004 200.041C173.827 199.316 173.241 198.464 172.334 197.754C171.916 197.427 171.847 196.835 172.265 196.508V196.508C172.503 196.322 172.579 195.997 172.509 195.702C172.252 194.635 172.27 193.509 172.091 192.441C171.694 190.08 170.55 187.658 170.031 185.321C169.742 184.023 169.094 182.802 167.874 181.685C167.388 181.199 167.051 180.565 166.68 179.919C166.226 179.126 165.969 178.171 166.29 177.316C166.32 177.235 166.351 177.157 166.385 177.08C166.548 176.702 166.755 176.287 166.597 175.906V175.906C166.544 175.779 166.446 175.671 166.365 175.56C165.975 175.021 165.452 174.482 165.092 173.943V173.943C163.702 172.206 163.865 169.683 162.67 167.807C161.937 166.657 161.343 165.393 160.919 164.017C160.124 161.634 159.329 159.252 159.329 156.671C159.329 155.485 158.461 154.3 157.836 153.114C157.644 152.749 157.215 152.491 156.804 152.517V152.517C156.274 152.55 155.733 152.359 155.466 151.9C154.663 150.519 153.997 148.999 154.163 147.341C154.163 146.348 153.765 145.554 152.97 145.554C152.808 145.539 152.664 145.516 152.535 145.485C150.414 144.971 150.341 142.133 148.797 140.591V140.591C148.002 139.797 147.406 139.003 147.009 138.01C145.618 134.834 143.432 132.253 141.047 129.871V129.871C138.168 126.635 134.477 123.577 131.588 120.349C130.672 119.324 129.827 118.216 128.925 117.165C126.541 114.386 124.553 111.408 121.175 109.82C120.414 109.475 119.654 109.081 118.96 108.59C116.376 106.758 114.404 103.784 111.438 102.673V102.673C111.208 102.559 110.979 102.378 110.749 102.207C110.428 101.969 110.082 101.756 109.801 101.471V101.471C108.397 100.044 105.847 99.8386 104.462 98.3933C104.316 98.2417 104.189 98.0813 104.085 97.9088C103.29 96.5192 102.098 95.9236 100.707 95.5266C96.7325 94.1369 92.9568 92.5487 89.3798 90.365C88.5859 89.9684 87.6158 89.9239 86.8215 89.5283C85.9813 89.1098 85.3505 88.5783 84.4118 88.5783V88.5783C82.4246 88.5783 82.0271 88.1813 82.0271 85.9975V85.9975C82.0271 85.1842 81.0482 84.8687 80.3764 85.3272C79.7147 85.7788 79.2494 85.5465 78.4653 84.6302C77.99 84.0748 77.2329 83.9159 76.7464 84.4616V84.4616C76.3638 84.8908 75.7194 85.0482 75.1884 84.8276C73.967 84.3203 72.7305 83.8599 71.4163 83.2584C70.9072 83.0254 70.6431 82.3909 70.7478 81.8408C70.7788 81.6783 70.8147 81.5103 70.8648 81.3412C70.8845 81.2746 70.8677 81.2019 70.8185 81.1528V81.1528C70.7515 81.0858 70.6447 81.0823 70.566 81.1352C69.5107 81.8462 68.1803 80.903 67.0885 81.2562C66.8329 81.3389 66.5981 81.517 66.3361 81.4571C66.2108 81.4285 66.0707 81.3787 65.9351 81.3149C65.4655 81.0942 65.3143 80.5278 64.9245 80.1854C64.3081 79.6438 63.2456 79.6014 62.6407 79.0348C62.4101 78.8187 62.2856 78.4794 61.9702 78.4588V78.4588C61.8367 78.45 61.6916 78.4404 61.5604 78.4143C60.6326 78.2298 59.7047 78.0567 58.7769 78.0567C57.1871 78.0567 55.796 77.6596 54.2062 77.0641C53.0139 76.667 51.8217 76.2699 50.8281 75.2773C49.6358 74.0862 48.2446 73.4907 46.6549 73.6892C45.0651 74.0862 43.4754 73.4907 42.0843 73.0936C41.2563 72.9558 40.5241 72.4349 39.8212 71.8635C39.2405 71.3915 38.479 71.2199 37.7911 71.5143V71.5143C37.1274 71.7984 36.3786 71.6575 35.8018 71.2233C35.7711 71.2001 35.7406 71.1771 35.7104 71.154C35.0625 70.6606 34.2608 70.3922 33.4491 70.4581C32.3568 70.5467 31.3109 70.4916 30.1611 69.9173C27.9883 68.987 25.6943 68.6622 23.4684 67.9025C22.2047 67.4713 20.8957 67.5598 19.6289 67.138V67.138C18.834 66.9395 18.2379 66.5424 17.6417 66.3438C17.0456 66.1453 16.4494 65.5498 16.052 65.5498C13.866 65.7483 11.68 64.7557 9.89156 64.1602C8.15377 63.4368 6.5215 63.0297 4.84096 63.0158C3.56786 63.0052 2.20758 63.2777 1.14793 62.5719V62.5719C0.584486 62.2905 0.120853 61.9093 -0.38447 61.5698C-0.761436 61.3165 -1.22838 61.3568 -1.57395 61.6514V61.6514C-1.9789 61.9967 -2.58731 62.195 -3.0663 61.9631C-3.94687 61.5368 -4.8742 61.1008 -5.81818 60.625C-6.84242 60.1088 -7.74865 60.3712 -8.75807 60.9159C-9.01691 61.0555 -9.33889 61.1102 -9.7817 60.9838C-12.1663 60.1897 -14.5511 59.9912 -16.9357 59.9912C-17.2245 59.9912 -17.487 59.9388 -17.7424 59.8625C-18.6702 59.5855 -19.5443 58.9986 -20.5127 58.9986V58.9986C-23.4935 59.1971 -25.0832 58.8001 -27.4679 57.2119C-27.7153 57.0265 -27.9628 56.8796 -28.2162 56.7472C-29.3291 56.1658 -30.7001 56.2408 -31.8217 56.8053V56.8053C-32.0797 56.9351 -32.3901 57.0724 -32.6679 56.9935C-33.4266 56.778 -34.0089 55.7146 -35.0192 56.2193C-36.0128 56.6163 -37.0064 56.6163 -38 56.0208C-38.3975 55.8222 -38.795 55.8222 -39.1924 55.8222C-43.763 56.4178 -48.1348 54.4326 -52.7054 54.2341C-52.9896 54.2341 -53.2851 54.1664 -53.5891 54.0526C-55.7885 53.2293 -57.9084 52.4473 -60.2568 52.4473V52.4473C-60.8529 52.4473 -61.4492 52.2488 -62.0453 51.8518C-62.6415 51.4547 -63.0388 51.2562 -63.8337 51.4547C-65.4235 51.8518 -66.8145 51.8518 -68.4043 51.0577C-69.994 50.2636 -71.5839 49.8666 -73.1736 50.6606V50.6606C-74.8385 51.4922 -76.9249 49.5087 -78.7763 49.6975C-79.308 49.7517 -79.842 49.8066 -80.3275 49.668C-81.3211 49.4695 -82.3147 50.0651 -83.3083 49.8666C-84.0377 49.7208 -84.7671 49.3612 -85.4964 49.1016C-86.0137 48.9176 -86.5351 48.6754 -87.0841 48.6754V48.6754C-88.5547 48.6754 -89.9498 48.4489 -91.2226 47.9028C-92.4476 47.3772 -94.4283 47.2798 -95.7349 47.5434V47.5434C-96.5493 47.7077 -97.3627 48.202 -98.193 48.1741C-99.0318 48.146 -99.8144 48.142 -100.597 47.8814C-101.413 47.6095 -102.23 47.0585 -103.174 46.4194C-104.059 45.8198 -104.858 45.5699 -105.891 45.8482V45.8482C-107.227 46.2083 -108.875 45.7456 -110.143 45.1906C-110.73 44.9335 -111.384 44.8112 -112.123 44.9035C-112.656 44.9701 -113.145 44.925 -113.596 44.7981C-115.214 44.3435 -116.979 43.5572 -118.482 44.308V44.308C-121.065 45.6976 -121.661 45.4991 -123.847 43.7124C-125.437 42.3227 -127.424 42.5213 -129.412 42.7198C-130.206 42.7198 -130.604 44.308 -131.598 43.9109C-132.392 43.5139 -133.187 43.7124 -134.181 43.7124C-136.367 43.7124 -138.553 44.1094 -140.54 42.7198C-142.726 41.3301 -145.309 41.1316 -147.893 42.1242C-149.681 42.9183 -151.271 43.1168 -153.059 41.7272V41.7272C-153.557 41.2303 -154.424 41.6128 -155.126 41.6446C-157.077 41.7328 -158.959 41.2094 -160.773 41.1848C-162.662 41.1592 -163.689 39.9405 -165.579 39.9405V39.9405C-165.976 39.9405 -166.323 39.7422 -166.671 39.4695C-167.205 39.0506 -167.967 39.3287 -168.175 39.9744V39.9744C-168.295 40.3448 -168.616 40.5507 -169.005 40.5713C-170.736 40.663 -171.502 40.6638 -172.332 40.3087C-173.845 39.6612 -175.436 39.1457 -177.055 39.4397C-177.883 39.5901 -178.686 39.74 -179.489 39.9405C-181.079 40.139 -182.47 40.7346 -183.662 38.9479C-184.007 38.4319 -185.097 38.2139 -186.028 38.0358C-186.305 37.9828 -186.589 37.9437 -186.864 38.005C-187.13 38.0643 -187.399 38.1698 -187.68 38.2855C-188.505 38.6255 -189.446 38.3995 -189.752 37.5616V37.5616C-189.796 37.4428 -189.848 37.301 -189.917 37.195C-190.361 36.5127 -191.256 36.1971 -191.81 36.5656C-193.002 37.3597 -193.996 37.1612 -195.387 36.7641C-196.38 36.5656 -197.374 36.9627 -198.368 37.1612C-199.162 37.3597 -199.759 37.1612 -200.553 36.7641C-203.534 35.573 -206.714 35.176 -209.893 36.3671C-210.112 36.4762 -210.39 36.4054 -210.663 36.3195C-211.066 36.1926 -211.562 36.0019 -211.908 35.7594V35.7594C-212.191 35.5607 -212.441 35.6496 -212.776 35.7368C-214.566 36.2028 -216.204 35.3244 -217.842 34.7789C-218.181 34.6661 -218.536 34.5853 -218.898 34.532C-220.696 34.2673 -222.539 34.5632 -224.329 34.8768C-224.934 34.9827 -225.545 35.0956 -226.188 35.176C-227.58 35.3745 -228.971 35.3745 -230.362 34.5804C-230.759 34.3819 -231.355 34.3819 -231.753 34.3819C-232.349 34.3819 -232.945 34.5804 -233.342 34.3819C-235.528 32.9923 -237.913 33.7863 -240.099 33.9848C-243.477 34.1834 -246.458 33.3893 -249.637 32.7937V32.7937C-251.437 32.3444 -253.194 30.7244 -254.862 31.5345C-255.18 31.6893 -255.477 31.9269 -255.728 32.2906C-255.776 32.3596 -255.851 32.4491 -255.918 32.5002V32.5002C-256.211 32.7259 -256.583 32.6645 -256.94 32.5667C-258.149 32.2355 -259.358 32.9403 -260.567 32.5952C-262.83 31.9492 -265.225 32.2228 -267.323 31.3855C-268.233 31.0226 -269.419 31.1479 -270.227 30.5948C-270.532 30.386 -270.787 30.0677 -271.061 29.7708C-271.398 29.4071 -271.941 29.4658 -272.292 29.8159V29.8159C-272.391 29.9146 -272.489 30.0625 -272.588 30.2107C-272.742 30.4404 -273.103 30.3498 -273.236 30.1078V30.1078C-273.303 29.9857 -273.257 29.9393 -273.208 29.8087C-272.955 29.1285 -272.847 28.7764 -273.028 28.5268C-273.666 27.6463 -275.118 28.412 -275.786 29.2702V29.2702C-276.339 29.9802 -277.209 30.3642 -278.104 30.2761C-279.748 30.1142 -281.325 29.9256 -283.023 29.6173C-283.752 29.5132 -284.154 29.4091 -284.571 29.0473C-285.64 28.1213 -286.888 27.4134 -288.262 27.7486V27.7486C-289.109 27.9554 -289.987 27.7759 -290.726 27.3128C-291.257 26.9802 -291.775 26.6759 -292.362 26.441C-292.76 26.2425 -293.356 26.2425 -293.952 26.441C-294.747 26.6396 -295.144 28.0292 -296.337 27.4336C-296.832 27.1862 -297.251 27.0158 -297.688 27.0187C-298.264 27.0226 -298.91 27.6425 -299.318 27.2351V27.2351C-301.305 25.0514 -304.286 27.0366 -306.67 25.6469C-307.068 25.4484 -307.863 25.8455 -308.459 26.044V26.044C-309.851 26.6005 -311.333 25.3289 -312.817 25.5462C-315.007 25.867 -317.198 25.7808 -319.388 25.0514C-320.183 24.8528 -321.177 25.0514 -322.17 24.8528C-323.363 24.6543 -324.754 25.2499 -325.946 24.4558C-326.762 23.967 -327.042 24.9493 -327.555 25.0975C-327.805 25.1694 -328.061 25.0233 -328.308 24.9438C-328.916 24.748 -329.524 24.4542 -330.132 24.1514C-330.246 24.0947 -330.314 23.9775 -330.337 23.8523C-330.363 23.708 -330.412 23.5865 -330.452 23.4563C-330.495 23.3162 -330.677 23.2262 -330.781 23.3298V23.3298C-330.845 23.3941 -330.863 23.5158 -330.797 23.5789C-330.721 23.6519 -330.64 23.7248 -330.544 23.7978C-330.325 23.9645 -330.226 24.2554 -330.366 24.4924C-330.387 24.5267 -330.407 24.5614 -330.427 24.5973C-330.613 24.9255 -331.017 25.0992 -331.355 24.9306C-331.89 24.6631 -332.426 24.3955 -332.962 24.1279C-333.054 24.0819 -333.149 24.0433 -333.246 24.0066C-333.411 23.9436 -333.577 23.8691 -333.742 23.7957C-334.472 23.472 -335.287 23.3349 -336.084 23.3907C-336.446 23.416 -336.784 23.4632 -337.075 23.4632V23.4632C-338.193 23.4632 -339.297 22.9169 -340.217 23.5532C-340.887 24.0165 -341.484 24.4962 -342.44 24.2573C-343.632 23.8602 -345.023 24.4558 -346.216 24.4558C-347.408 24.4558 -348.6 24.0587 -349.991 23.6617C-351.184 23.2646 -352.177 22.0736 -353.767 22.2721C-354.959 22.4706 -356.152 21.6765 -357.543 21.478C-360.722 20.8824 -363.902 20.6839 -367.081 19.8898C-368.671 19.4927 -370.261 19.4928 -372.049 20.2869C-373.133 20.6478 -374.217 21.3368 -375.301 20.2661C-375.537 20.0333 -375.758 19.7672 -376.086 19.7209C-376.154 19.7114 -376.222 19.705 -376.287 19.7006C-376.508 19.6856 -376.732 19.6742 -376.951 19.6403C-378.7 19.3699 -379.149 19.2735 -380.235 18.6259C-380.86 18.2531 -381.678 18.4624 -382.031 19.0986V19.0986C-382.419 19.7965 -383.481 19.9522 -384.246 20.1811C-385.07 20.4275 -385.872 21.1343 -386.755 20.8824C-387.863 20.5661 -388.971 20.3758 -390.079 20.2111C-390.595 20.1344 -391.172 19.5798 -390.806 19.2083V19.2083C-390.172 18.565 -390.64 17.8941 -390.834 18.776C-390.863 18.9081 -390.89 19.0674 -390.922 19.2584C-390.926 19.2817 -390.928 19.2984 -390.928 19.3221V19.3221C-390.928 19.656 -391.296 19.8743 -391.601 19.7393C-393.401 18.9441 -395.323 19.1401 -397.088 19.4928C-398.877 19.8898 -400.466 19.6913 -402.056 19.2942C-404.64 18.6987 -407.024 18.3016 -409.608 18.3016C-410.149 18.3016 -410.691 18.1172 -411.295 17.9369C-411.742 17.8038 -411.957 17.2278 -411.737 16.8175V16.8175C-411.491 16.3597 -411.792 15.8321 -412.307 15.7593C-413.246 15.6265 -414.11 15.5223 -414.973 15.5223C-416.165 15.5223 -417.358 15.9194 -418.749 15.9194V15.9194C-419.752 15.9194 -420.411 14.7642 -421.412 14.8302C-421.783 14.8546 -422.154 15.046 -422.524 15.3238C-423.915 16.3164 -425.505 16.3164 -426.896 16.3164V16.3164C-427.642 16.3164 -427.835 15.4136 -428.415 14.9444C-429.107 14.3839 -430.106 15.3238 -430.871 15.3238C-432.255 15.2085 -433.841 15.361 -435.2 14.8873C-437.132 14.2138 -438.959 13.3386 -441.005 13.3386V13.3386V13.3386C-442.928 13.3386 -444.901 13.5686 -446.821 13.6684C-447.541 13.7058 -448.339 13.6215 -449.352 13.5371C-452.134 13.3386 -454.717 12.1475 -457.499 11.5519C-459.729 11.2093 -461.958 11.1623 -464.315 11.1559C-464.941 11.1542 -465.489 11.6612 -465.585 12.2795V12.2795C-465.648 12.6862 -465.865 13.0921 -466.266 13.186C-467.404 13.4529 -468.33 12.6618 -469.426 12.2149C-469.968 11.994 -470.378 11.4315 -470.276 10.8552V10.8552C-470.212 10.4991 -470.386 10.2294 -470.693 10.038C-471.253 9.68853 -471.866 9.39152 -472.42 9.0358C-472.679 8.86926 -472.938 8.70062 -473.219 8.57243C-474.274 8.08971 -475.348 7.77995 -476.576 7.77995C-479.756 7.58143 -482.737 7.38292 -485.916 6.98588V6.98588C-486.312 6.98588 -486.3 7.67969 -485.936 7.83668C-484.274 8.55421 -482.611 8.97109 -480.948 8.97109C-479.804 8.97109 -478.66 9.10819 -477.494 9.36045C-476.04 9.67508 -476.158 11.4264 -477.57 10.9563V10.9563C-481.231 9.67637 -484.891 10.0806 -488.707 9.99724C-489.316 9.98396 -489.793 9.60898 -489.984 9.03116V9.03116C-490.041 8.85933 -490.162 8.69124 -490.343 8.69034C-490.6 8.68907 -490.942 8.83008 -491.083 8.97109C-491.977 10.0432 -492.872 10.3112 -494.056 10.2092C-494.327 10.186 -494.598 10.1554 -494.863 10.2146V10.2146C-495.383 10.3307 -495.912 10.4435 -496.434 10.5521C-498.836 11.0518 -501.469 10.848 -503.856 11.2502C-504.217 11.3111 -504.582 11.3534 -504.949 11.3534V11.3534C-505.374 11.3534 -505.797 11.2968 -506.215 11.2126C-509.21 10.6077 -512.368 10.9304 -515.526 10.5593C-515.923 10.5593 -516.321 10.5593 -516.718 10.3608C-517.209 10.1157 -517.623 9.79507 -518.103 9.44546C-518.633 9.05881 -518.798 8.31556 -518.433 7.7698C-518.332 7.61771 -518.23 7.46563 -518.129 7.31355C-518.002 7.12307 -518.12 6.80773 -518.318 6.69212V6.69212C-518.487 6.59311 -518.601 6.6768 -518.758 6.79457C-520.531 8.12603 -522.97 7.63622 -524.865 8.77256V8.77256C-525.738 9.20827 -526.399 8.00292 -527.206 7.4568C-528.216 6.77405 -529.569 6.87196 -530.842 6.62683C-530.965 6.60328 -531.035 6.60667 -531.152 6.5646V6.5646C-531.579 6.41149 -531.898 5.94905 -532.048 5.52124C-532.131 5.28542 -532.214 5.06271 -532.296 4.86743C-532.371 4.69043 -532.467 4.4661 -532.652 4.4159V4.4159C-532.766 4.38518 -532.871 4.39109 -532.989 4.38165C-533.783 4.31764 -535.295 4.68932 -536.229 5.25009C-536.84 5.61671 -537.293 6.48253 -536.789 6.98588V6.98588C-536.59 7.1844 -536.193 7.38295 -535.795 7.38295C-535.631 7.38295 -535.466 7.35741 -535.307 7.32925C-534.075 7.11147 -534.211 8.77436 -535.398 9.16963V9.16963C-539.271 10.1371 -539.558 10.1616 -541.042 6.48576C-541.12 6.29284 -541.151 5.9933 -541.359 5.99327V5.99327C-541.359 5.99327 -541.359 5.99327 -541.359 5.99327C-541.558 5.99324 -541.955 5.79474 -542.154 5.79474C-545.731 6.19178 -549.109 6.39034 -552.686 5.39773C-554.872 4.80216 -557.257 5.39773 -559.642 5.39773C-559.809 5.39773 -559.976 5.36261 -560.143 5.32191C-560.521 5.23 -560.819 4.80918 -560.735 4.42991V4.42991C-560.65 4.05064 -560.32 3.81192 -559.933 3.84354C-558.931 3.92534 -557.899 4.09236 -557.257 3.61105C-555.667 2.61844 -553.68 3.01547 -552.09 2.4199V2.4199C-551.352 2.05097 -550.584 2.73555 -549.793 2.9727C-548.3 3.42063 -547.015 2.588 -545.731 1.62583C-544.988 0.989451 -544.131 0.52306 -543.222 0.25694C-541.692 -0.190798 -540.372 0.823102 -539.808 2.3146C-539.753 2.46016 -539.693 2.60165 -539.622 2.73668C-539.118 3.70633 -537.824 3.59009 -536.769 3.30068C-535.353 2.91175 -533.859 2.63918 -532.289 2.38786C-531.73 2.29829 -531.263 2.73163 -531.353 3.29117V3.29117C-531.42 3.71022 -531.135 4.08158 -530.72 4.17189C-529.805 4.37118 -528.88 4.52433 -527.908 4.70645C-527.021 4.87267 -526.074 4.51193 -525.637 3.72247V3.72247C-525.251 3.02621 -524.582 2.5694 -523.792 2.47671C-522.856 2.36701 -521.928 2.27656 -521.022 2.40985C-519.385 2.65068 -517.804 3.39257 -516.154 3.28064C-515.613 3.24397 -515.073 3.21398 -514.532 3.21398C-513.115 3.07238 -512.708 3.03178 -511.871 3.45237C-511.028 3.87554 -510.114 3.97156 -509.259 3.57286V3.57286C-508.496 3.21715 -507.557 3.28298 -506.772 3.58616C-504.739 4.37165 -502.536 4.38172 -500.302 4.17172C-499.435 4.09018 -498.627 4.50911 -498.314 5.32172V5.32172C-497.933 6.30868 -496.819 6.93468 -495.841 6.53195C-495.145 6.24551 -494.498 5.92076 -493.917 5.51093C-493.398 5.14552 -492.747 5.03926 -492.26 5.44607V5.44607C-491.603 5.99472 -490.574 5.78341 -490.325 4.96489C-490.282 4.82411 -490.242 4.69041 -490.203 4.5638C-490.131 4.32816 -490.005 4.10319 -489.788 3.98638C-489.113 3.62337 -488.045 3.69677 -487.705 4.20659C-487.31 4.75814 -486.885 5.12206 -486.415 5.37281C-484.981 6.13917 -482.734 5.58585 -482.339 4.00805V4.00805C-482.21 3.23361 -481.745 3.13055 -481.326 2.98953C-481.127 2.92264 -480.822 3.10161 -480.872 3.30526C-480.876 3.32402 -480.881 3.34277 -480.885 3.36153C-480.923 3.5245 -480.75 3.57992 -480.749 3.41251V3.41251C-480.749 3.41249 -480.749 3.4125 -480.749 3.41248V3.41248C-480.749 3.0836 -480.482 2.80296 -480.154 2.83601C-480.054 2.84613 -479.964 2.86161 -479.895 2.88529C-479.768 2.92851 -479.726 3.07833 -479.662 3.19607C-479.076 4.28617 -478.283 5.00066 -476.775 5.00066V5.00066C-476.049 5.00066 -475.469 5.60221 -474.79 5.85868C-473.278 6.42969 -471.681 6.44464 -470.217 5.79474C-469.224 5.39769 -468.429 5.79475 -467.634 5.99327C-466.687 6.1509 -466.743 7.05956 -466.308 7.72533C-466.081 8.07337 -465.619 8.10991 -465.222 7.98596C-464.974 7.90838 -464.722 7.82815 -464.467 7.74561C-463.156 7.32169 -463.436 5.29253 -464.802 5.11958V5.11958C-465.463 5.03593 -465.925 4.30372 -465.314 4.03913C-465.144 3.96563 -464.957 3.9341 -464.789 3.90249C-464.563 3.85968 -464.337 3.79775 -464.107 3.77473C-462.257 3.58912 -460.562 3.42415 -458.692 3.61105C-456.833 3.7798 -455.119 4.23544 -453.182 4.61217C-452.633 4.71888 -452.276 5.21211 -452.44 5.7465V5.7465C-452.598 6.26217 -452.221 6.92129 -451.745 6.66757C-451.35 6.45697 -451.146 6.0398 -450.96 5.56525C-450.815 5.197 -450.588 4.8361 -450.208 4.72517C-449.683 4.57171 -448.985 4.67177 -447.647 4.98645C-446.662 5.21828 -446.236 6.07416 -447.212 6.34426V6.34426C-447.312 6.37208 -447.411 6.41573 -447.508 6.45169C-447.896 6.59407 -448.404 6.63436 -448.756 6.98588C-448.876 7.10581 -448.996 7.37064 -449.028 7.6053C-449.062 7.8548 -448.895 8.12061 -448.688 8.26456V8.26456C-448.379 8.47989 -447.98 8.39489 -447.629 8.25688C-446.571 7.84049 -445.432 8.5164 -444.582 8.17702C-443.39 7.77998 -442.396 8.77257 -441.204 7.97849C-441.037 7.84526 -440.871 7.77909 -440.705 7.76029C-439.066 7.57445 -437.633 8.08404 -435.992 8.2531C-434.514 8.40551 -433.09 9.0403 -431.666 9.16963C-431.114 9.27981 -430.563 9.14538 -429.977 8.93604C-429.424 8.73823 -429.243 7.97893 -429.727 7.64686V7.64686C-430.169 7.34409 -430.161 6.56962 -429.649 6.41014C-428.994 6.20593 -428.491 6.07828 -427.999 6.16833C-427.926 6.18163 -427.853 6.19562 -427.779 6.20242C-425.822 6.38325 -423.68 6.2028 -421.73 6.78734C-419.742 7.38291 -417.556 7.58143 -415.569 7.77995C-413.383 7.97847 -411.197 8.17704 -409.011 8.57409C-407.54 8.86804 -405.96 8.83552 -404.432 8.79882C-403.449 8.77519 -402.545 9.34373 -401.672 9.79717C-401.076 10.1065 -400.35 10.3236 -399.554 10.5559ZM-143.322 33.3893C-143.464 33.3893 -143.607 33.4912 -143.749 33.5489C-143.838 33.5852 -143.918 33.5096 -143.918 33.4133V33.4133C-143.918 33.2578 -143.704 33.147 -143.566 33.2183C-143.484 33.2602 -143.403 33.3082 -143.322 33.3893V33.3893C-143.586 34.181 -143.055 35.002 -142.222 34.9428C-141.916 34.921 -141.632 34.8856 -141.352 34.828C-141.208 34.7984 -141.061 34.7753 -140.914 34.7881C-140.766 34.8011 -140.636 34.8275 -140.521 34.8657C-139.476 35.2136 -138.543 35.8386 -137.745 35.0787C-137.628 34.9667 -137.508 34.8587 -137.383 34.7555C-137.247 34.6419 -137.136 34.5592 -137.21 34.3972V34.3972C-137.256 34.2957 -137.419 34.1712 -137.528 34.1519C-138.485 33.983 -139.58 33.9517 -140.142 33.3893C-141.335 32.3967 -142.328 33.1908 -143.322 33.3893ZM-152.264 28.2277C-152.662 30.8085 -152.662 30.8085 -155.245 30.8085V30.8085C-156.252 30.8085 -155.219 31.881 -154.25 32.1533C-152.444 32.6608 -150.734 33.9819 -148.523 33.6061C-148.017 33.52 -147.697 33.0454 -147.664 32.5329C-147.651 32.3357 -147.635 32.1386 -147.618 31.9375C-147.547 31.0824 -148.625 30.7459 -149.232 31.3523V31.3523C-149.549 31.6691 -149.955 31.6384 -150.316 31.3727C-151.486 30.5119 -152.094 29.5884 -152.264 28.2277C-151.668 28.4262 -151.271 28.8233 -150.675 29.0218V29.0218C-149.656 29.3609 -150.459 28.0646 -151.526 28.1823C-151.786 28.211 -152.034 28.2277 -152.264 28.2277ZM70.5013 430.036V430.036C69.6536 429.189 69.8371 428.459 70.8096 427.759C71.0271 427.602 71.2517 427.439 71.4949 427.256C73.0847 425.867 74.4758 424.279 75.8668 422.889C77.2579 421.698 78.4501 419.911 80.0399 419.514C82.0271 418.918 82.2259 416.735 83.8156 415.941C84.1643 415.708 84.445 415.272 84.7373 414.871C85.1225 414.342 85.7363 414.073 86.2924 413.728C87.1547 413.193 87.6583 412.448 87.9268 411.617C88.2813 410.519 88.7875 409.42 89.7626 408.804C89.8221 408.766 89.8815 408.729 89.9409 408.691C92.2854 407.206 91.6405 403.396 88.9216 403.953V403.953C88.6913 404 88.4817 404.089 88.2656 404.181C87.9746 404.306 87.6836 404.373 87.3926 404.228C85.0079 403.037 82.822 404.228 80.4374 404.426C78.6489 404.625 76.8604 404.823 75.0719 404.029C73.6808 403.434 72.0911 403.235 70.5013 403.831C67.918 404.625 65.3347 404.625 62.7513 404.029C61.559 403.632 60.1679 403.434 58.9756 404.426V404.426C57.6862 405.285 56.0778 404.489 54.532 404.591C52.9913 404.692 51.5122 405.419 50.0331 405.419C48.6421 405.419 47.4498 406.213 45.8601 406.213C44.469 406.213 43.0779 406.412 41.6869 406.809C40.4945 407.206 39.3023 407.404 37.9112 407.007C37.7451 406.966 37.553 406.933 37.3475 406.918C35.6033 406.79 34.4933 408.794 32.7444 408.794V408.794C30.9559 408.794 29.1674 409.191 27.379 409.389V409.389C26.4041 409.389 25.8522 410.55 25.0642 411.124C24.9183 411.23 24.7656 411.318 24.5969 411.375C23.7462 411.544 23.0776 411.896 22.5131 412.352C21.1843 413.426 19.3055 413.673 17.8404 414.551V414.551C16.8468 415.345 15.4558 416.139 14.2634 415.941C11.6801 415.742 9.89156 416.933 7.90436 417.926C5.71843 419.117 3.13511 419.712 0.750465 420.705C-0.839299 421.301 -2.23034 421.698 -3.22395 422.69C-3.62139 423.087 -4.21753 423.683 -4.81369 423.683C-4.90103 423.683 -4.9853 423.686 -5.06677 423.692C-6.62569 423.81 -7.48859 425.524 -8.80118 426.373C-9.31371 426.704 -9.88948 426.999 -10.5766 427.256C-11.769 427.653 -12.7625 428.646 -13.7561 429.44C-15.1472 430.631 -16.5383 431.822 -17.9293 432.815C-20.5127 434.403 -21.3076 436.587 -20.314 439.366C-20.1153 439.962 -20.3139 440.359 -20.5127 440.756C-21.5063 442.543 -21.3075 442.94 -19.7177 444.329V444.329C-18.3582 445.416 -19.2331 447.722 -18.12 449.06C-17.1339 450.245 -15.9792 451.233 -14.1536 451.476V451.476C-13.3688 451.476 -12.8676 452.371 -12.1275 452.632C-11.6509 452.8 -11.1465 452.866 -10.5766 452.866C-8.78815 452.866 -6.99964 452.866 -5.21115 453.064V453.064C-3.72502 453.064 -2.36083 453.661 -0.897302 453.919C0.536713 454.172 2.02392 454.086 3.51563 453.757C3.79187 453.696 4.11656 453.546 4.39788 453.516V453.516C4.81247 453.473 5.10912 453.769 5.50601 453.897C6.94131 454.358 8.4933 454.009 9.89156 453.66C11.68 453.263 13.2698 453.858 14.8596 453.66C14.9323 453.66 14.9784 453.633 15.0173 453.599C15.1614 453.475 15.3516 453.447 15.5399 453.418C17.7161 453.083 19.8872 452.749 21.9342 452.414C22.2981 452.355 22.627 452.642 22.4452 452.962V452.962C22.2815 453.251 22.3949 453.715 22.7268 453.723C23.198 453.736 23.6294 453.678 23.9929 453.512C24.7504 453.166 25.6737 452.826 26.5024 452.906C26.8693 452.941 27.239 452.853 27.6391 452.572C27.7323 452.506 27.826 452.44 27.9257 452.385C30.5261 450.95 33.6212 450.504 36.2591 449.144C36.5677 448.985 36.7892 448.744 37.1344 448.708V448.708C37.3482 448.685 37.6206 448.68 37.8321 448.642C38.8825 448.453 39.7535 448.174 40.2958 446.91C40.4945 446.314 41.4882 445.719 42.0843 445.719C44.6677 445.719 46.0587 444.329 47.6485 442.741C49.2382 440.954 51.0268 439.565 53.4114 438.969C54.8025 438.572 55.7961 437.976 56.7897 437.182C57.982 436.19 59.1743 435.197 60.5653 434.602C63.3388 433.461 63.8353 433.39 65.1338 431.864C65.7579 431.13 66.6444 430.754 67.547 431.09V431.09C68.3461 431.388 69.3707 431.361 69.9895 430.775C70.2322 430.545 70.4093 430.311 70.5013 430.036C71.0499 429.853 71.6406 429.712 72.2539 429.575C73.4692 429.303 73.9965 427.29 72.8462 427.767V427.767C72.7132 427.822 72.6357 427.903 72.5354 428.006C71.8144 428.748 71.2448 429.479 70.5013 430.036ZM-58.774 44.8323C-58.1187 43.9546 -57.2232 43.0853 -56.1281 43.062C-55.9246 43.0577 -55.7111 43.0722 -55.4874 43.1168C-54.2951 43.3154 -53.3016 43.7124 -52.1093 43.9109C-51.1217 44.1928 -50.034 44.4747 -48.9884 44.2593C-48.1687 44.0905 -47.9716 43.4047 -48.8065 43.3478V43.3478C-48.9068 43.341 -48.9778 43.3004 -49.0717 43.2645C-49.6206 43.055 -50.1694 42.704 -50.7182 42.5212C-51.693 42.1966 -52.5349 41.474 -53.5698 41.5465C-54.0646 41.5812 -54.5624 41.8377 -54.9799 41.57V41.57C-55.1961 41.4314 -55.3903 41.2438 -55.6286 41.1482C-56.1115 40.9546 -56.5944 41.0462 -57.0773 41.5286V41.5286C-57.8258 42.2764 -59.0059 42.0902 -60.0621 42.0273C-60.9595 41.9739 -61.8186 41.8058 -62.4427 40.9331C-62.8401 40.3375 -63.6351 40.3375 -64.0325 40.9331C-64.43 41.5287 -64.0324 42.1242 -63.4363 42.5212C-63.0676 42.7668 -62.6989 43.0123 -62.2833 43.2578C-61.9464 43.4568 -62.0374 44.0101 -62.3933 44.1727V44.1727C-62.7586 44.3396 -62.7201 44.8251 -62.3636 45.01C-61.3975 45.511 -60.5921 45.7114 -59.888 45.4924C-59.5953 45.4014 -59.2727 45.3222 -59.0388 45.1242C-58.9483 45.0475 -58.8607 44.9485 -58.774 44.8323ZM-429.221 14.2744C-428.516 14.5209 -427.708 14.3957 -427.061 14.0228V14.0228C-426.939 13.9524 -426.827 13.9172 -426.691 13.8817C-425.995 13.7007 -425.435 13.5196 -424.71 13.3386C-423.994 13.1954 -423.484 12.7427 -423.181 12.2035C-422.952 11.7961 -422.77 11.3505 -422.694 10.8893C-422.645 10.5932 -422.681 10.314 -422.838 10.0749C-423.147 9.60217 -423.813 9.60557 -424.369 9.70566C-425.191 9.85366 -426.052 10.0399 -426.878 10.1925C-427.418 10.2921 -427.756 10.8932 -427.595 11.4174V11.4174C-427.432 11.9491 -427.777 12.4374 -428.33 12.4977C-428.592 12.5264 -428.855 12.5508 -429.117 12.5783C-429.812 12.6511 -430.492 13.3368 -430.008 13.8405C-429.811 14.0452 -429.531 14.1659 -429.221 14.2744ZM-166.515 30.2191C-167.963 30.037 -169.203 31.8697 -167.745 31.831V31.831C-167.564 31.8262 -167.474 31.7855 -167.293 31.7841C-166.738 31.7799 -166.435 31.9836 -166.222 32.2794C-165.573 33.1839 -164.646 33.4679 -163.843 32.6958V32.6958C-162.962 31.8479 -163.684 30.5244 -164.901 30.4012C-165.448 30.3458 -165.983 30.2861 -166.515 30.2191ZM-330.09 21.8031C-329.983 21.7235 -329.918 21.5994 -329.972 21.4779V21.4779C-330.067 21.2648 -330.308 21.0809 -330.542 21.0809C-331.332 21.0809 -332.123 21.0809 -332.914 21.0809C-333.038 21.0809 -333.161 21.0688 -333.283 21.044C-333.333 21.0338 -333.383 21.0235 -333.432 21.0132C-334.63 20.7638 -335.255 21.4884 -334.094 21.875V21.875C-333.919 21.9332 -333.744 22.0256 -333.569 22.1422C-332.728 22.703 -331.692 22.959 -330.868 22.3737C-330.608 22.1896 -330.349 21.9971 -330.09 21.8031ZM-154.855 39.3953C-156.301 38.9241 -156.59 41.1782 -155.076 41.3196C-155.001 41.3266 -154.925 41.3302 -154.848 41.3302C-154.45 41.3302 -153.854 40.7346 -153.854 40.536C-153.854 40.4217 -153.986 40.1096 -154.136 39.8656C-154.296 39.6053 -154.565 39.4899 -154.855 39.3953V39.3953ZM-342.733 21.9139C-343.629 21.6161 -343.446 23.1771 -342.506 23.0834V23.0834C-341.826 23.0157 -341.926 22.2264 -342.562 21.9759C-342.619 21.9535 -342.676 21.9329 -342.733 21.9139ZM-36.566 48.5067C-37.1175 49.0841 -36.9259 50.1053 -36.2116 50.4621V50.4621V50.4621C-35.5303 50.8024 -34.5403 50.5984 -34.5289 49.8369C-34.5215 49.3441 -34.831 48.945 -35.4167 48.4769C-35.8102 48.0838 -36.1171 48.0367 -36.566 48.5067ZM-117.488 35.176C-117.82 34.5126 -118.746 34.5126 -119.078 35.176V35.176C-119.39 35.8001 -119.212 36.179 -118.831 36.5053C-118.612 36.6938 -118.374 36.913 -118.084 36.913V36.913C-117.795 36.913 -117.539 36.7034 -117.372 36.4672C-117.111 36.0982 -117.181 35.6371 -117.488 35.176V35.176ZM-109.726 32.1887C-110.254 32.3582 -110.348 33.0298 -109.898 33.3525C-109.476 33.6545 -109.201 33.6294 -108.885 33.2026C-108.491 32.6709 -109.097 31.9865 -109.726 32.1887V32.1887ZM-6.3522 49.5255C-6.51013 48.8918 -7.40736 48.8172 -7.8288 49.3161V49.3161C-8.22038 49.7796 -7.90481 50.421 -7.30963 50.5392C-7.25104 50.5508 -7.19304 50.5618 -7.13535 50.5721C-6.62638 50.6629 -6.19695 50.2374 -6.30445 49.7317C-6.31882 49.6641 -6.33473 49.5956 -6.3522 49.5255ZM-372.812 14.8461C-373.428 15.3979 -372.317 16.336 -371.537 16.0642V16.0642C-370.832 15.8186 -371.19 14.8572 -371.924 14.72C-372.336 14.6431 -372.626 14.679 -372.812 14.8461ZM-41.8535 44.8621C-42.4307 44.986 -42.4799 45.7883 -42.0623 46.2055V46.2055C-41.9674 46.3003 -41.9088 46.3181 -41.7787 46.3506C-41.3492 46.4579 -40.9428 46.426 -40.7115 46.0269C-40.5936 45.8234 -40.5929 45.5736 -40.7125 45.3711C-40.7806 45.2558 -40.8676 45.1368 -40.9533 45.0477C-41.0783 44.9178 -41.2628 44.8483 -41.4423 44.8304C-41.566 44.8181 -41.703 44.8299 -41.8535 44.8621ZM-50.5803 40.536C-50.0671 40.536 -49.7366 39.8947 -50.1563 39.5992C-50.5477 39.3237 -50.7578 39.3703 -50.9988 39.6862C-51.2672 40.0379 -51.0227 40.536 -50.5803 40.536V40.536ZM336.99 540.423C337.008 540.758 337.504 540.865 337.752 540.639V540.639C337.772 540.621 337.788 540.601 337.803 540.578C338.16 540.022 338.167 539.466 337.662 538.91C337.612 538.855 337.54 538.825 337.465 538.825V538.825C337.31 538.825 337.183 538.952 337.161 539.105C337.108 539.469 336.986 539.903 336.986 540.215C336.986 540.27 336.986 540.341 336.99 540.423ZM-125.467 35.4562C-124.851 35.5778 -124.465 34.8325 -125.069 34.6571C-125.245 34.606 -125.434 34.5804 -125.636 34.5804C-125.687 34.5804 -125.738 34.5935 -125.786 34.6131C-125.963 34.6857 -126.03 34.8889 -125.965 35.0692C-125.964 35.0716 -125.963 35.074 -125.963 35.0764C-125.892 35.2699 -125.67 35.4163 -125.467 35.4562V35.4562ZM171.65 229.791C171.65 230.175 172.213 230.275 172.193 229.891C172.187 229.782 172.16 229.676 172.106 229.574C171.975 229.323 171.65 229.508 171.65 229.791V229.791ZM-400.603 15.8578C-400.297 15.5589 -400.21 14.9789 -400.633 14.9237C-400.832 14.8978 -401.028 14.9109 -401.226 14.9602C-401.951 15.141 -401.606 16.1668 -400.881 15.9827C-400.847 15.9741 -400.814 15.965 -400.781 15.9554C-400.704 15.9332 -400.66 15.9135 -400.603 15.8578V15.8578ZM94.8108 413.455C95.3622 413.322 95.7316 412.389 95.204 412.181V412.181C95.1222 412.149 95.1007 412.151 95.0135 412.138C94.4381 412.054 93.7517 412.608 93.7517 413.161C93.7517 413.36 93.9504 413.558 94.1491 413.558C94.329 413.558 94.5496 413.518 94.8108 413.455ZM-524.906 5.74214C-525.001 5.77359 -525.064 5.86958 -525.064 5.96892V5.96892C-525.064 6.09634 -524.961 6.1918 -524.834 6.1918C-524.314 6.1918 -523.795 6.1918 -523.276 6.1918C-523.077 6.1918 -522.878 5.79478 -522.878 5.59626C-522.878 5.50208 -522.968 5.40789 -523.083 5.3349C-523.316 5.18754 -523.602 5.26599 -523.857 5.3686C-524.167 5.49311 -524.533 5.61762 -524.906 5.74214ZM-235.429 27.5332C-235.251 27.7992 -234.884 27.9347 -234.629 27.742C-234.456 27.6109 -234.336 27.4529 -234.336 27.2351C-234.336 27.1391 -234.429 26.9966 -234.525 26.8751C-234.65 26.717 -234.849 26.6436 -235.037 26.7154C-235.09 26.7356 -235.146 26.759 -235.205 26.7849C-235.497 26.9144 -235.606 27.2669 -235.429 27.5332V27.5332ZM-161.17 30.262C-161.6 30.3723 -161.55 31.0899 -161.287 31.4477V31.4477C-161.074 31.7368 -160.78 31.6211 -160.484 31.4183C-160.469 31.4082 -160.455 31.3981 -160.44 31.388C-160.287 31.2808 -160.209 31.1008 -160.198 30.9143C-160.175 30.5404 -160.181 30.1089 -160.708 30.192C-160.775 30.2027 -160.844 30.2116 -160.912 30.2173C-160.998 30.2244 -161.084 30.2399 -161.17 30.262ZM-282.575 29.3692C-282.665 29.4584 -282.708 29.6773 -282.602 29.7462C-282.307 29.9384 -282.011 30.1994 -281.716 30.3664C-281.666 30.3946 -281.604 30.3842 -281.564 30.3437V30.3437C-281.499 30.2794 -281.517 30.1702 -281.594 30.1225C-281.864 29.9562 -282.134 29.7232 -282.403 29.5477C-282.509 29.4789 -282.486 29.28 -282.575 29.3692V29.3692ZM177.908 286.911C177.833 286.477 177.207 286.582 176.981 286.96C176.92 287.061 176.86 287.163 176.804 287.27C176.697 287.472 176.934 287.764 177.142 287.86V287.86C177.238 287.904 177.271 287.868 177.361 287.814C177.765 287.576 177.971 287.275 177.908 286.911ZM-145.285 31.002C-145.454 30.9875 -145.803 31.0781 -145.866 31.235C-145.889 31.2914 -145.905 31.3477 -145.905 31.4041C-145.905 31.4609 -145.873 31.5015 -145.822 31.5351C-145.642 31.6528 -145.22 31.4475 -145.158 31.2423C-145.153 31.2259 -145.148 31.2097 -145.143 31.1938C-145.115 31.0926 -145.18 31.011 -145.285 31.002V31.002ZM3.43911 404.337C3.07889 404.108 2.33906 404.233 2.28805 404.657V404.657C2.26821 404.822 2.35559 404.922 2.47383 405.039C2.66154 405.224 2.9959 405.419 3.13514 405.419C3.33386 405.419 3.73127 404.823 3.73127 404.625C3.73127 404.535 3.60939 404.445 3.43911 404.337ZM-389.307 19.8146C-389.256 19.9866 -389.033 19.9866 -388.873 19.9058C-388.786 19.8619 -388.699 19.822 -388.613 19.7531C-388.566 19.7161 -388.541 19.657 -388.556 19.5995C-388.558 19.5923 -388.56 19.5851 -388.562 19.5779C-388.618 19.3951 -388.992 19.3611 -389.163 19.4466V19.4466C-389.269 19.4997 -389.344 19.5896 -389.329 19.7072C-389.324 19.743 -389.317 19.7788 -389.307 19.8146ZM-141.967 38.067C-142.069 37.8421 -142.396 37.6722 -142.625 37.7661C-142.63 37.7681 -142.634 37.77 -142.639 37.772C-142.813 37.8451 -142.82 38.0678 -142.713 38.2234C-142.627 38.3493 -142.54 38.486 -142.454 38.601C-142.384 38.694 -142.339 38.7521 -142.233 38.7045V38.7045C-142.049 38.6221 -141.839 38.3399 -141.925 38.1581C-141.94 38.1272 -141.954 38.0968 -141.967 38.067ZM-28.0643 50.2378C-28.0788 49.5917 -29.4551 49.4188 -29.4551 50.0651V50.0651C-29.4551 50.2636 -29.0577 50.6606 -28.859 50.6606C-28.6602 50.6606 -28.064 50.4622 -28.064 50.2636C-28.064 50.2549 -28.0641 50.2463 -28.0643 50.2378ZM-37.6026 45.4991C-37.7766 45.4991 -37.6607 45.7182 -37.5051 45.796C-37.4484 45.8243 -37.3918 45.8526 -37.3352 45.8719C-37.2658 45.8956 -37.1944 45.7936 -37.1641 45.7268V45.7268C-37.1152 45.619 -37.209 45.4991 -37.3274 45.4991C-37.4191 45.4991 -37.5109 45.4991 -37.6026 45.4991V45.4991ZM-52.6307 46.4916C-52.7205 46.5515 -52.7245 46.7306 -52.6278 46.7786C-52.5518 46.8164 -52.4757 46.8563 -52.3996 46.8761C-52.3421 46.8911 -52.2844 46.8652 -52.2423 46.8232L-52.1699 46.7508C-52.1311 46.712 -52.1034 46.657 -52.1246 46.6064C-52.1497 46.5463 -52.2038 46.5094 -52.2724 46.4668C-52.3641 46.4099 -52.5409 46.4318 -52.6307 46.4916V46.4916ZM-213.016 30.1344C-212.934 30.0735 -212.935 29.9559 -212.99 29.869C-213.07 29.742 -213.109 29.615 -213.21 29.488C-213.247 29.4415 -213.306 29.4166 -213.363 29.4315C-213.398 29.4405 -213.433 29.4538 -213.468 29.4691C-213.613 29.5331 -213.669 29.8657 -213.57 29.9896V29.9896C-213.47 30.1135 -213.161 30.2382 -213.032 30.1457C-213.027 30.142 -213.022 30.1382 -213.016 30.1344ZM-121.451 35.3866C-121.488 35.3495 -121.493 35.3725 -121.544 35.3846C-121.639 35.407 -121.735 35.4627 -121.83 35.5078C-121.91 35.5455 -121.952 35.6799 -121.889 35.7425V35.7425C-121.871 35.7611 -121.845 35.7715 -121.819 35.7715C-121.735 35.7715 -121.649 35.7715 -121.545 35.7715C-121.368 35.7715 -121.325 35.5116 -121.451 35.3866V35.3866ZM-132.157 33.521C-132.244 33.2497 -132.696 33.2353 -132.948 33.3684V33.3684C-133.028 33.4106 -133.015 33.4324 -133.031 33.5213C-133.109 33.9394 -132.77 34.5804 -132.591 34.5804C-132.458 34.5804 -132.324 34.4009 -132.251 34.2229C-132.191 34.0771 -132.11 33.9177 -132.111 33.76C-132.112 33.6876 -132.129 33.607 -132.157 33.521ZM328.278 563.478C328.186 563.387 327.965 563.317 327.847 563.371C327.656 563.457 327.447 563.497 327.447 563.641C327.447 563.718 327.447 563.795 327.459 563.873C327.493 564.1 327.785 564.112 327.976 563.983C328.045 563.937 328.117 563.89 328.185 563.843C328.317 563.752 328.392 563.592 328.278 563.478V563.478ZM63.8418 392.139C63.7008 391.893 63.2386 391.993 63.1587 392.265V392.265C63.1203 392.396 63.2042 392.37 63.2853 392.48C63.371 392.595 63.4568 392.731 63.5425 392.855C63.645 393.004 63.9247 392.931 64.0521 392.804V392.804C64.1516 392.704 64.1001 392.629 64.0364 392.503C63.9715 392.376 63.9067 392.252 63.8418 392.139ZM-129.85 34.5513C-129.899 34.6591 -129.812 34.827 -129.706 34.8799C-129.635 34.9154 -129.564 34.9506 -129.493 34.9674C-129.442 34.9794 -129.391 34.9566 -129.353 34.9194V34.9194C-129.276 34.8418 -129.275 34.7151 -129.355 34.6398C-129.463 34.5378 -129.571 34.4498 -129.68 34.408C-129.748 34.3815 -129.82 34.4845 -129.85 34.5513V34.5513ZM-451.538 11.3924C-451.538 11.4665 -451.477 11.5461 -451.404 11.557C-451.385 11.5597 -451.369 11.5638 -451.353 11.5702C-451.257 11.609 -451.14 11.5031 -451.14 11.3995V11.3995C-451.14 11.3353 -451.193 11.3502 -451.256 11.3563C-451.266 11.3572 -451.275 11.3584 -451.283 11.3599C-451.401 11.3813 -451.538 11.2728 -451.538 11.3924V11.3924ZM181.644 270.027C181.612 270.027 181.586 270.053 181.586 270.085V270.085C181.586 270.137 181.649 270.163 181.685 270.126V270.126C181.722 270.09 181.696 270.027 181.644 270.027V270.027ZM90.3735 411.573C90.3735 411.573 90.3734 411.573 90.3734 411.573C90.3734 411.673 90.4237 411.773 90.4736 411.873C90.5515 412.028 90.7709 411.97 90.7709 411.97V411.97C90.7709 411.97 90.7709 411.97 90.7709 411.97C90.7709 411.87 90.7207 411.771 90.6707 411.671C90.6707 411.671 90.3736 411.573 90.3735 411.573V411.573ZM-499.189 10.5181C-499.222 10.5502 -499.204 10.5854 -499.172 10.6175L-499.09 10.6998C-499.053 10.7369 -499.001 10.7603 -498.952 10.7415C-498.904 10.723 -498.85 10.6838 -498.836 10.6004C-498.832 10.5744 -498.844 10.5488 -498.862 10.5302L-498.891 10.5011C-498.943 10.4493 -499.137 10.4663 -499.189 10.5181V10.5181ZM-540.564 9.5667C-540.564 9.39272 -540.341 9.16963 -540.167 9.16963V9.16963V9.16963C-540.386 9.16963 -540.564 9.3474 -540.564 9.5667V9.5667V9.5667ZM169.663 248.19C169.835 248.19 170.006 248.338 170.178 248.378C170.229 248.39 170.28 248.367 170.317 248.33V248.33C170.395 248.253 170.394 248.127 170.334 248.035C170.315 248.007 170.299 247.98 170.284 247.955C170.199 247.818 170.057 247.937 169.947 248.055C169.871 248.135 169.767 248.19 169.663 248.19ZM-456.993 8.0671C-457.057 8.02277 -457.146 8.02288 -457.201 8.07767V8.07767C-457.256 8.13253 -457.256 8.22151 -457.201 8.27636L-457.16 8.31745C-457.123 8.35466 -457.071 8.38019 -457.021 8.36231C-456.898 8.31789 -456.872 8.17702 -456.704 8.17702C-456.811 8.17702 -456.917 8.12001 -456.993 8.0671ZM79.7418 83.2172C79.687 83.2188 79.6426 83.2626 79.6426 83.3175V83.3175C79.6426 83.3723 79.687 83.4167 79.7418 83.4167C79.7706 83.4167 79.8044 83.4167 79.8412 83.4167C79.9509 83.4167 80.0399 83.3278 80.0399 83.2181C80.0399 83.1685 80.0399 83.1189 80.0399 83.0197C80.0399 83.1849 79.9025 83.2126 79.7418 83.2172ZM-501.341 7.76229C-501.13 7.66691 -501.269 7.28088 -501.489 7.20742C-501.504 7.2024 -501.519 7.19803 -501.534 7.19449C-501.585 7.18243 -501.636 7.20529 -501.673 7.24247V7.24247C-501.751 7.32003 -501.75 7.44614 -501.69 7.53789C-501.601 7.67316 -501.562 7.77995 -501.416 7.77995C-501.391 7.77995 -501.366 7.77352 -501.341 7.76229ZM-541.529 6.519C-541.607 6.56132 -541.65 6.69581 -541.587 6.75832V6.75832C-541.569 6.7769 -541.543 6.78737 -541.517 6.78326C-541.466 6.77516 -541.373 6.751 -541.268 6.67899C-541.204 6.6349 -541.205 6.54438 -541.26 6.48952L-541.265 6.48418C-541.317 6.43234 -541.401 6.43371 -541.461 6.47602C-541.484 6.49269 -541.507 6.50689 -541.529 6.519ZM-54.0221 39.7172C-53.868 39.666 -53.9693 39.4822 -54.0476 39.3401C-54.0723 39.2952 -54.0938 39.2504 -54.1166 39.2056C-54.2082 39.0259 -54.4939 38.9448 -54.4938 39.1464V39.1464C-54.4938 39.1465 -54.4938 39.1464 -54.4938 39.1465C-54.4938 39.2761 -54.4938 39.4056 -54.4386 39.5352C-54.375 39.6843 -54.1759 39.7683 -54.0221 39.7172V39.7172ZM-276.266 22.8676L-276.067 23.0661L-276.266 22.8676ZM-144.044 29.269C-144.125 29.3212 -144.039 29.4189 -143.942 29.4189C-143.882 29.4189 -143.821 29.4189 -143.761 29.4189C-143.672 29.4189 -143.628 29.3119 -143.69 29.2494V29.2494C-143.709 29.2308 -143.734 29.2203 -143.761 29.2204C-143.871 29.2209 -143.977 29.2257 -144.044 29.269ZM-207.707 29.8741C-207.707 29.9259 -207.645 29.9518 -207.608 29.9152V29.9152C-207.571 29.8786 -207.597 29.8159 -207.649 29.8159V29.8159C-207.681 29.8159 -207.707 29.8419 -207.707 29.8741V29.8741ZM-166.97 33.5878C-166.896 33.5878 -166.86 33.4991 -166.912 33.4473V33.4473C-166.944 33.4153 -166.996 33.4153 -167.028 33.4473V33.4473C-167.08 33.4991 -167.043 33.5878 -166.97 33.5878V33.5878ZM-108.448 34.8763C-108.499 34.9347 -108.501 35.0219 -108.446 35.0768V35.0768C-108.392 35.1316 -108.303 35.1316 -108.248 35.0768V35.0768C-108.193 35.022 -108.193 34.9328 -108.248 34.878C-108.355 34.7708 -108.387 34.7387 -108.546 34.5804C-108.388 34.7379 -108.356 34.7704 -108.448 34.8763Z"
              fill="white"
              fill-opacity="0.08"
            />
          </svg>