  <svg
            width="370"
            height="382"
            viewBox="0 0 370 382"
            fill="none"
            xmlns="http://www.w3.org/2000/svg"
          >
            <path
              d="M758.958 370.911C757.707 370.546 757.24 368.529 756.549 367.425V367.425C756.296 367.021 755.822 366.708 755.357 366.61C754.053 366.335 752.802 365.902 751.127 366.739C749.935 367.334 748.146 367.136 746.556 366.937V366.937C745.417 366.937 744.286 366.677 743.74 367.678C743.59 367.954 743.44 368.232 743.289 368.518C743.096 368.885 742.716 369.12 742.304 369.068C742.136 369.047 741.955 369.02 741.761 368.989C741.106 368.884 740.904 368.076 741.497 367.777V367.777C741.575 367.738 741.621 367.7 741.681 367.636C742.291 366.999 742.347 366.622 741.848 366.159C741.694 366.015 741.584 365.941 741.388 366.018V366.018C741.09 366.136 740.606 366.195 740.331 366.031C738.861 365.152 737.244 365.169 735.627 365.349V365.349C734.84 365.349 735.34 366.806 735.884 367.374C735.992 367.487 736.065 367.613 736.115 367.768C736.359 368.522 735.468 369.183 734.68 369.093C734.318 369.051 733.963 369.003 733.64 368.922C731.603 368.552 729.739 367.666 727.727 367.867C727.428 367.897 727.121 367.949 726.842 367.838C726.546 367.719 726.24 367.497 725.905 367.229C725.046 366.542 724.041 366.372 723.058 366.863V366.863C722.075 367.354 720.791 367.285 719.794 366.822C719.06 366.481 718.269 366.309 717.344 366.54C716.933 366.677 716.428 366.531 715.893 366.361C715.407 366.208 714.914 366 714.425 365.859V365.859C713.983 365.731 713.54 365.788 713.095 365.904C712.326 366.103 711.556 366.342 710.787 366.342C709.793 366.342 708.8 365.746 707.806 365.746C703.235 365.349 698.466 365.547 693.895 365.746C692.504 365.746 691.113 365.547 690.319 364.753C689.325 363.959 688.729 363.959 687.735 364.158V364.158C686.236 364.657 685.416 361.729 683.952 362.321C683.921 362.334 683.89 362.347 683.86 362.361C682.6 362.927 681.463 364.134 680.181 363.623C679.798 363.47 679.436 363.28 679.084 363.076C677.866 362.371 676.455 362.178 675.067 362.409C674.218 362.55 673.395 362.659 672.632 362.768C671.309 362.957 669.987 362.428 668.664 363.229C668.525 363.313 668.409 363.435 668.254 363.484V363.484C667.86 363.607 667.467 363.279 667.071 363.164C664.657 362.458 662.087 362.967 659.517 362.967C657.927 362.967 656.933 362.173 655.542 361.776C654.748 361.577 653.953 361.776 653.356 361.577C653.019 361.493 652.718 361.409 652.422 361.324C651.645 361.103 651.204 360.43 650.731 359.775V359.775C650.64 359.648 650.537 359.519 650.419 359.418C649.931 359.001 648.985 359.04 648.985 359.393C648.786 360.981 647.594 360.981 646.401 360.981C645.606 360.981 644.812 360.981 644.017 360.783C640.241 359.989 636.465 359.592 632.69 359.592C630.504 359.592 628.119 359.195 625.933 358.004C624.542 357.011 622.753 357.21 621.561 358.004C619.574 359.393 617.786 359.393 615.798 358.401C614.407 357.607 612.818 357.408 611.228 357.805V357.805C609.793 358.164 608.376 357.228 606.924 356.948C606.513 356.868 606.097 356.813 605.678 356.78C604.083 356.653 602.446 357.002 600.894 356.614V356.614C598.311 356.217 595.926 356.018 593.343 356.217C592.703 356.323 592.12 356.144 591.441 355.709C590.084 354.841 588.461 354.628 586.901 355.034C586.521 355.133 586.132 355.201 585.734 355.224C584.696 355.286 584.266 354.498 585.195 354.033V354.033V354.033C585.884 353.689 585.954 352.655 585.246 352.353C584.997 352.247 584.77 352.191 584.564 352.212C584.453 352.223 584.344 352.251 584.233 352.259C581.796 352.423 579.705 352.049 577.451 351.139C577.316 351.085 577.259 351.051 577.113 351.057V351.057C576.637 351.078 576.222 351.589 576.386 352.036C576.616 352.661 577.114 353.084 577.642 353.485C577.775 353.586 577.906 353.694 577.985 353.841C578.002 353.872 578.018 353.904 578.034 353.937C578.237 354.369 578.135 354.919 577.718 355.15V355.15C577.301 355.381 576.799 355.232 576.325 355.192C575.562 355.128 574.772 354.978 573.868 354.827C572.843 354.657 572.699 354.633 572.173 355.893C571.985 356.343 571.602 356.7 571.116 356.747C570.373 356.819 569.669 356.718 568.981 356.492C568.424 356.308 568.507 355.645 569.085 355.548V355.548C569.42 355.492 569.729 355.713 569.967 355.955C570.108 356.099 570.296 356.13 570.59 356.049C570.656 356.03 570.704 356.035 570.761 355.997V355.997C571.057 355.803 570.922 355.136 570.582 355.039C570.551 355.031 570.521 355.026 570.49 355.026V355.026C569.944 355.026 569.435 354.799 568.973 354.508C568.693 354.331 568.327 354.325 567.907 354.43V354.43C567.6 354.507 566.665 354.701 566.472 354.45C566.249 354.16 566.014 353.858 565.757 353.535C565.621 353.362 565.38 353.307 565.186 353.411C565.142 353.435 565.097 353.46 565.053 353.486C564.665 353.709 564.106 353.629 563.88 353.242C563.845 353.182 563.809 353.12 563.772 353.055C563.53 352.632 562.98 352.489 562.567 352.749C562.492 352.796 562.417 352.843 562.34 352.889C561.817 353.206 561.618 353.885 561.957 354.393C562.023 354.493 562.091 354.592 562.159 354.693C562.716 355.511 562.246 356.593 561.258 356.539C558.436 356.386 555.808 355.144 553.374 355.928C552.504 356.208 550.98 355.883 551.687 355.304V355.304C551.785 355.224 551.861 355.186 551.963 355.111C552.276 354.878 552.561 354.675 552.844 354.473C553.57 353.955 554.497 353.817 555.347 354.087C555.442 354.116 555.537 354.146 555.632 354.175C557.506 354.739 558.139 352.644 556.182 352.644V352.644C554.781 352.644 553.38 352.156 552.074 352.804C551.46 353.109 550.674 353.089 550.315 352.505V352.505C550.143 352.227 549.83 352.036 549.504 352.014C546.497 351.807 543.49 351.442 540.483 351.254C538.95 351.084 537.271 351.789 535.696 351.368C535.164 351.226 534.514 350.865 534.124 351.254V351.254C534.007 351.371 533.819 351.489 533.645 351.647C533.395 351.874 533.333 352.267 533.477 352.572V352.572C533.595 352.821 533.858 352.897 534.115 352.995C534.693 353.216 535.27 353.393 535.848 353.332C536.453 353.268 536.984 352.874 537.59 352.807C538.275 352.732 538.931 352.939 539.49 353.636C539.636 353.819 539.775 353.907 539.912 353.932C541.282 354.173 542.399 354.388 541.079 354.827V354.827C540.284 355.026 539.291 355.224 538.496 355.026C537.304 354.827 536.111 354.629 535.118 354.232C533.925 353.835 532.932 353.636 531.74 354.232C531.143 354.629 529.951 354.629 529.554 354.232C527.964 352.644 525.977 353.438 524.188 352.842V352.842C522.782 352.374 521.538 352.944 520.129 353.405C520.091 353.417 520.053 353.428 520.015 353.438C519.914 353.471 519.813 353.499 519.711 353.522C518.681 353.757 517.763 354.37 517.097 355.19V355.19C516.899 355.435 516.678 355.451 516.367 355.498C515.292 355.663 514.124 355.769 513.258 355.423C512.423 355.006 511.588 354.783 510.685 354.824C509.873 354.861 509.103 355.224 508.29 355.224V355.224C507.014 355.224 505.737 354.054 504.307 354.935C504.042 355.099 503.783 355.263 503.497 355.14V355.14C503.4 355.098 503.277 354.998 503.186 354.945C502.436 354.509 501.686 354.175 500.936 353.773C500.63 353.61 500.603 353.149 500.706 352.819V352.819C500.749 352.684 500.683 352.587 500.581 352.49C500.039 351.978 499.512 351.616 499.149 351.254C498.761 350.866 499.511 349.719 498.432 349.482C498.381 349.471 498.357 349.467 498.305 349.467V349.467C497.783 349.464 497.134 349.625 496.827 350.047C496.727 350.185 496.635 350.322 496.566 350.46C496.434 350.724 496.39 350.988 496.316 351.193C496.252 351.375 496.016 351.478 495.828 351.52V351.52C495.608 351.569 495.47 351.369 495.285 351.242C493.62 350.106 491.946 350.307 490.103 351.207C490.04 351.238 489.999 351.26 489.954 351.313V351.313C489.639 351.682 489.983 352.27 490.463 352.343C490.475 352.345 490.486 352.347 490.498 352.349C490.945 352.417 491.282 352.887 491.121 353.309C490.763 354.242 490.374 354.245 488.601 353.602C488.078 353.412 487.895 352.731 488.004 352.186V352.186C488.032 352.043 487.99 351.978 487.91 351.857C487.694 351.528 487.361 351.222 487.027 351.055C486.63 350.857 486.232 351.055 485.835 350.857C483.692 349.965 483.475 349.874 482.299 350.009C482.015 350.042 481.761 350.175 481.628 350.428V350.428C481.542 350.59 481.432 350.749 481.36 350.918C480.775 352.289 480.004 352.621 478.88 352.247C477.886 351.849 476.694 351.452 475.7 351.055C473.393 350.095 471.085 349.878 468.778 350.944C468.625 351.015 468.451 351.055 468.33 351.172V351.172C468.234 351.265 468.084 351.279 467.959 351.327C465.834 352.141 465.572 352.172 464.727 350.002C464.507 349.438 464.74 348.903 465.168 348.475V348.475V348.475C465.472 348.171 465.446 347.611 465.194 347.263C464.592 346.432 463.775 345.961 462.843 345.702C462.422 345.585 462.195 345.083 462.527 344.8V344.8C462.807 344.561 462.858 344.078 462.528 343.916C461.302 343.318 459.956 343.343 458.61 343.512V343.512C457.629 343.512 456.913 342.712 455.932 342.703C455.688 342.701 455.438 342.734 455.184 342.765C454.293 342.874 453.284 342.678 452.649 343.313V343.313C452.496 343.466 452.813 343.853 453.058 344.205C453.191 344.395 453.245 344.625 453.245 344.857V344.857C453.245 345.018 453.271 345.177 453.322 345.33C453.486 345.819 453.65 346.292 453.815 346.634C453.832 346.67 453.834 346.713 453.858 346.745C453.868 346.758 453.883 346.767 453.902 346.773C454.098 346.84 454.641 346.467 454.501 346.315V346.315C454.459 346.269 454.413 346.266 454.368 346.224C454.328 346.185 454.285 346.147 454.241 346.108C453.809 345.726 454.031 345.17 454.608 345.186C454.963 345.195 455.312 345.179 455.629 345.1C455.837 345.065 456.044 345.043 456.25 345.033C457.763 344.964 457.939 346.777 456.862 347.841V347.841C456.475 348.224 455.929 348.52 455.384 348.511C453.777 348.484 452.418 347.876 451.059 346.688C450.506 346.274 449.857 345.859 449.245 345.445C448.754 345.112 448.393 344.313 448.89 343.99V343.99C449.722 343.45 450.121 342.776 449.328 342.181C448.588 341.627 447.676 341.429 446.687 341.923C445.566 342.483 444.972 341.99 444.079 341.435C443.964 341.363 443.9 341.299 443.776 341.244V341.244C443.2 340.992 442.496 341.478 442.379 342.096C442.163 343.234 442.599 344.205 442.911 345.298V345.298C443.199 346.449 441.477 346.108 440.751 345.169C440.003 344.203 439.118 343.489 437.717 343.617C437.392 343.647 437.011 343.323 436.895 343.018V343.018C436.764 342.673 437.065 342.544 437.433 342.57C438.968 342.676 439.375 342.608 440.304 341.841C440.705 341.511 440.648 340.732 440.129 340.732V340.732C437.943 340.534 435.757 340.732 433.77 340.335C432.644 340.054 431.917 340.37 431.235 340.791C430.707 341.116 430.256 341.832 430.727 342.235C430.975 342.446 431.317 342.505 431.598 342.626C431.859 342.737 431.93 343.188 431.668 343.298V343.298C431.609 343.322 431.554 343.324 431.492 343.342C430.908 343.512 430.163 343.522 429.597 343.71C428.007 344.306 426.616 344.107 425.424 342.916C425.375 342.868 425.303 342.843 425.216 342.833C424.764 342.782 424.566 343.407 424.625 343.857V343.857C424.633 343.914 424.637 343.937 424.652 343.992C425.01 345.33 424.609 346.096 423.635 346.291C422.046 346.688 420.257 347.085 418.667 347.085C417.151 347.274 415.634 346.38 414.117 345.952C413.972 345.911 413.75 345.878 413.625 345.795V345.795C413.499 345.711 413.461 345.63 413.386 345.499C412.876 344.598 412.666 343.882 412.11 343.512C411.383 343.149 410.731 343.375 410.152 343.788C409.501 344.251 408.509 344.22 407.815 343.825V343.825C407.527 343.661 407.397 343.819 407.098 343.961C406.483 344.255 405.869 344.324 405.254 344.304C403.605 344.252 402.15 342.375 403.565 341.526V341.526C404.36 340.931 403.763 339.541 402.77 339.541C402.696 339.541 402.614 339.547 402.526 339.558C401.582 339.671 401.055 340.894 400.324 341.503V341.503C399.303 342.354 397.709 341.173 396.385 341.067V341.067C395.563 341.001 394.63 340.984 394.081 340.369C393.554 339.778 393.017 339.197 392.178 338.918C391.526 338.702 390.906 339.102 390.681 339.751V339.751C390.529 340.192 390.194 340.611 389.73 340.66C389.49 340.686 389.251 340.739 389.058 340.931C387.667 342.122 386.276 341.725 385.481 340.335C385.12 339.615 384.614 339.693 384.095 339.736C383.441 339.79 383.094 339.151 383.224 338.508C383.245 338.403 383.268 338.297 383.292 338.189C383.409 337.671 383.265 337.127 382.887 336.754C382.529 336.401 382.139 336.024 381.717 335.635C381.249 335.204 380.502 335.45 380.573 336.083V336.083C380.62 336.511 380.351 337.019 379.92 337.01C379.207 336.996 378.552 336.817 377.956 336.506C377.491 336.264 377.385 335.718 377.756 335.347V335.347C378.127 334.977 378.177 334.279 377.789 333.927C377.592 333.748 377.4 333.581 377.197 333.445C376.472 332.956 376.03 333.938 376.481 334.687V334.687C376.887 335.362 376.475 336.153 375.705 336.32C375.312 336.406 374.914 336.486 374.507 336.571C373.484 336.782 372.707 336.11 371.968 335.372V335.372C371.688 335.092 371.211 334.813 370.745 334.741C370.369 334.684 369.989 334.8 369.622 334.9C369.141 335.031 368.684 335.216 368.221 335.41C367.32 335.787 366.251 335.697 365.354 335.31V335.31C364.105 334.772 362.718 334.853 361.558 335.564C361.507 335.595 361.456 335.626 361.406 335.656C361.038 335.875 360.61 336.077 360.24 335.862C360.078 335.768 359.928 335.653 359.846 335.571C359.648 335.372 360.045 334.975 360.045 334.578V334.578C360.045 334.227 360.086 333.83 359.738 333.788C358.705 333.663 357.917 334.287 357.263 334.777C356.339 335.546 355.415 335.719 354.492 335.573C353.966 335.49 353.599 335.127 353.303 334.684V334.684C353.083 334.354 352.684 334.139 352.295 334.062C351.804 333.965 351.303 333.867 350.769 333.77C350.069 333.642 349.32 333.529 348.766 333.082C348.661 332.998 348.575 332.903 348.519 332.791C347.128 330.211 344.743 329.814 342.359 329.417C340.968 329.218 339.577 328.622 337.987 329.814C336.596 331.005 335.801 330.608 334.211 329.02C333.814 328.622 333.218 328.424 333.019 328.424V328.424C331.057 328.669 329.527 327.059 327.554 326.933C326.897 326.89 326.254 326.732 325.666 326.439C324.499 325.773 323.472 324.687 322.351 323.652C321.948 323.28 321.373 323.168 320.847 323.319C320.694 323.363 320.539 323.407 320.388 323.451C319.983 323.568 319.538 323.419 319.314 323.061C319.239 322.94 319.164 322.814 319.088 322.681C318.809 322.188 318.117 322.109 317.821 322.591V322.591C317.655 322.861 317.308 323 316.999 322.929C316.608 322.838 316.225 322.741 316.025 322.46C315.942 322.344 315.895 322.204 315.815 322.087C315.251 321.261 314.886 321.954 314.392 322.205C314.118 322.344 313.815 322.176 313.571 321.988C313.021 321.565 312.401 321.058 311.763 320.467C311.461 320.188 311.51 319.731 311.853 319.502V319.502C312.129 319.317 312.276 318.827 312.073 318.563C312.041 318.523 312.004 318.498 311.954 318.498C311.358 318.498 310.563 318.696 309.967 318.498C306.21 317.199 305.816 316.844 303.894 317.282C301.9 317.735 299.906 317.394 298.044 316.55V316.55C297.647 316.37 297.232 316.263 296.796 316.26C295.971 316.254 295.097 316.457 293.984 316.62C293.522 316.687 293.219 316.701 292.83 316.443V316.443C291.977 315.873 290.728 315.787 289.72 315.982C288.427 316.232 287.076 315.827 285.525 315.123C283.339 314.13 280.954 313.535 278.768 312.344C275.724 310.823 272.679 309.484 269.635 307.805C269.365 307.656 269.047 307.479 268.77 307.343V307.343C268.603 307.261 268.621 307.087 268.578 306.906C268.091 304.863 266.391 305.594 265.056 305.594C264.977 305.594 264.881 305.594 264.778 305.592C264.015 305.581 263.488 305.005 262.824 304.628C262.555 304.475 262.261 304.382 261.942 304.358C261.501 304.325 261.036 304.464 260.664 304.226V304.226C260.352 304.027 260.186 303.649 259.933 303.378C258.284 301.615 255.577 301.498 253.729 299.837C253.362 299.47 252.657 299.273 252.081 299.088C251.988 299.059 251.891 299.043 251.793 299.043C251.676 299.043 251.558 299.044 251.441 299.047C250.875 299.062 250.34 298.443 250.35 297.876V297.876C250.353 297.686 250.277 297.576 250.162 297.423C250.026 297.243 249.891 297.058 249.755 297.058C247.569 297.058 245.979 295.469 243.992 294.874C243.197 294.675 242.402 293.484 242.005 292.69C241.21 290.705 239.223 289.911 237.434 289.315C234.851 288.521 232.864 287.33 231.274 284.948C230.28 283.36 228.094 282.367 226.306 281.374C225.312 280.779 224.716 280.382 224.12 279.389C223.524 278.198 222.928 277.007 221.338 276.808C221.139 276.808 220.941 276.61 220.742 276.411C217.761 273.433 214.78 270.654 211.998 267.676C210.607 266.287 209.017 265.294 208.024 263.309C207.229 261.721 206.235 260.331 204.844 258.941C203.652 257.949 202.857 256.162 201.863 254.971C199.876 252.39 198.286 249.214 195.703 247.03C195.305 246.633 195.107 245.839 194.908 245.243C194.511 244.052 193.915 243.06 192.921 242.464C191.729 241.868 190.934 241.074 190.735 239.883C190.707 239.784 190.671 239.689 190.63 239.598C189.652 237.421 188.65 234.798 187.158 232.935V232.935C185.767 231.347 185.369 229.56 184.773 227.773V227.773C184.379 226.592 183.163 225.853 182.594 224.745C182.553 224.667 182.515 224.588 182.48 224.508C182.223 223.929 182.077 223.307 181.883 222.705C181.275 220.821 180.861 218.937 180.004 217.053C179.01 215.068 178.216 213.083 177.619 210.899V210.899C176.535 207.649 175.387 203.955 174.193 200.744C174.046 200.347 173.87 199.958 173.645 199.583C172.85 198.194 172.254 196.407 172.055 194.819C171.26 190.848 170.664 186.679 170.068 182.51V182.51C169.699 181.035 171.299 179.889 171.235 178.369C171.205 177.681 170.961 176.943 170.863 176.158C170.664 174.768 169.869 173.577 170.863 171.989C171.155 171.552 170.911 170.901 170.604 170.115C170.388 169.563 170.531 168.945 170.95 168.527V168.527C171.56 167.917 171.414 167.099 170.812 166.481C170.605 166.27 170.465 166.009 170.465 165.636C170.465 164.048 169.869 162.063 170.465 160.673C170.576 160.369 170.641 160.079 170.669 159.803C170.972 156.844 167.902 153.877 169.074 151.144V151.144C169.671 149.357 169.869 147.769 169.273 145.585C169.015 144.942 169.175 143.213 169.537 141.861C169.847 140.7 171.062 139.839 171.062 138.637V138.637V138.637C171.062 137.844 171.123 137.051 171.333 136.287C171.574 135.408 171.856 134.494 171.856 133.674C171.856 132.483 170.863 131.292 170.664 129.902C170.465 129.108 170.664 127.719 171.062 127.321C172.453 126.13 171.062 124.542 171.856 123.351C172.651 122.16 173.049 121.167 172.651 119.778V119.778C172.162 118.311 173.685 116.935 174.239 115.492C174.323 115.274 174.393 115.05 174.44 114.815C174.475 114.709 174.507 114.603 174.536 114.495C175.107 112.393 172.775 110.985 173.248 108.859V108.859V108.859C173.529 107.171 175.42 106.292 175.78 104.62C176.198 102.681 176.727 100.766 177.818 99.1314C178.216 98.3374 178.216 97.3446 178.216 96.5506C178.216 96.4058 178.163 96.2874 178.095 96.1761C177.932 95.9052 177.518 95.699 177.248 95.8645V95.8645C176.966 96.0375 176.507 95.9478 176.445 95.623C176.331 95.0275 176.379 94.4491 177.222 94.1684C177.848 94.0119 178.228 93.6087 178.458 93.0561C178.586 92.7483 178.678 92.4232 178.817 92.1202V92.1202C179.844 89.8874 180.744 87.1946 181.357 84.815C181.373 84.7564 181.385 84.6978 181.395 84.6393C181.594 83.2496 182.19 82.0585 182.786 80.6688C183.382 79.0807 184.376 77.4925 183.78 75.5073C183.628 74.7521 184.053 73.8819 184.439 73.0717C184.651 72.6267 184.595 72.1329 184.186 71.8574V71.8574C183.742 71.5579 183.475 70.9865 183.617 70.4699C183.928 69.3398 184.345 68.2385 185.767 67.7649C187.555 67.1693 188.152 65.5812 187.953 63.9931C187.953 62.6764 187.953 61.3597 188.629 60.0431C188.704 59.8961 188.811 59.7626 188.879 59.6118V59.6118C189.098 59.1229 188.709 58.6163 188.479 58.1326C188.107 57.3514 188.207 56.5702 188.423 55.789C188.681 54.8529 189.565 54.861 190.536 54.861V54.861C191.331 54.861 191.53 54.2655 191.729 53.6699C192.325 51.6847 192.921 49.6995 193.517 47.7143C193.914 46.3246 194.511 44.7364 195.305 43.3468C196.442 41.2379 197.313 39.1291 198.136 37.0203C198.479 36.1405 198.15 34.5012 197.482 35.1686V35.1686C197.348 35.3028 197.256 35.4944 197.19 35.6725C196.865 36.5529 196.654 37.4333 196.142 38.3138C196.115 38.3604 196.082 38.4036 196.041 38.4386C196.005 38.4693 195.965 38.5 195.923 38.5306C195.619 38.752 194.882 38.6044 195.047 38.2663V38.2663C195.081 38.1955 195.121 38.147 195.149 38.0735C195.672 36.7109 196.338 35.4893 197.022 34.1533C197.197 33.8121 197.496 33.5456 197.873 33.4751C197.957 33.4595 198.041 33.4452 198.124 33.4312C198.681 33.338 199.014 32.8116 198.906 32.2573C198.855 31.9918 198.804 31.7372 198.752 31.4799C198.633 30.8844 199.323 30.4404 199.895 30.6435V30.6435C200.259 30.7727 200.589 30.565 200.744 30.211C201.634 28.1723 201.964 27.8235 205.167 25.2287C205.524 24.9391 205.241 24.5501 205.241 24.0901V24.0901C205.44 22.3034 205.44 20.3183 207.03 19.3257C207.275 19.1624 207.478 18.9907 207.653 18.814C208.869 17.5873 209.652 15.9869 210.66 14.5853C211.138 13.9203 211.637 13.2773 212.175 12.6369C212.321 12.4638 212.461 12.2316 212.618 12.0681V12.0681C212.975 11.6932 213.24 11.3109 213.409 10.8213C214.152 8.67555 215.758 7.23159 217.364 5.62765C217.96 5.03208 218.556 4.23805 218.755 3.44396C219.351 0.664655 221.735 -0.923543 223.524 -2.90876C224.517 -3.90137 225.312 -5.09247 225.908 -6.48213C225.972 -6.60868 226.037 -6.73299 226.105 -6.85553C227.116 -8.68937 226.969 -11.657 224.915 -11.2467V-11.2467C223.325 -10.8497 221.735 -11.6437 220.344 -11.2467C218.755 -10.8497 217.364 -11.2466 215.774 -11.0481C214.765 -10.9361 213.692 -11.0137 212.592 -11.1383C210.946 -11.3247 209.92 -12.9583 208.27 -13.1066V-13.1066C207.906 -13.1393 207.462 -12.9485 207.16 -12.7417C206.897 -12.5609 206.604 -12.3621 206.235 -12.2393C203.734 -11.2782 203.095 -11.4338 201.614 -13.9675C201.515 -14.1375 201.442 -14.2781 201.267 -14.3681V-14.3681C201.173 -14.4159 201.016 -14.4336 200.911 -14.4375C199.941 -14.4732 199.965 -13.4021 199.514 -12.7844C199.317 -12.5152 198.902 -12.6533 198.712 -12.9276V-12.9276C198.273 -13.5621 196.93 -15.0604 196.232 -14.7319V-14.7319C195.691 -14.4774 194.964 -14.8737 194.621 -15.3631C194.25 -15.8915 193.594 -16.0775 193.017 -16.2973C192.219 -16.6012 191.261 -17.2063 190.533 -16.7615C189.907 -16.3798 189.544 -15.8243 189.178 -15.3343C188.912 -14.978 188.544 -14.6553 188.1 -14.6714C187.256 -14.7019 186.645 -15.5758 186.164 -15.4156C184.575 -14.82 183.581 -15.6142 182.389 -16.2097C181.196 -16.8053 179.607 -16.8053 178.414 -17.4008C176.626 -18.1949 174.837 -18.7904 172.85 -18.989C171.745 -19.1466 170.641 -19.4295 169.536 -19.7381C169.037 -19.8774 168.525 -19.6817 168.177 -19.2988V-19.2988C167.903 -18.9975 167.44 -18.8746 167.049 -18.9899C165.486 -19.4511 163.777 -19.7176 161.925 -19.4207C161.789 -19.3991 161.682 -19.3829 161.545 -19.389V-19.389C161.131 -19.4072 160.689 -19.626 160.405 -19.9271C159.964 -20.3931 159.626 -21.1216 158.741 -20.9742C157.946 -20.7757 156.952 -20.5772 156.158 -20.5772V-20.5772C155.188 -20.5772 154.299 -21.1152 153.353 -21.3248C152.433 -21.5285 151.513 -21.7043 150.593 -21.9668C149.798 -22.1653 149.004 -22.3639 148.407 -22.7609C148.318 -22.8205 148.247 -22.9068 148.186 -23.0098C147.412 -24.3171 146.151 -23.952 144.632 -23.952V-23.952C142.843 -24.1505 141.055 -23.1579 139.465 -24.3491C138.947 -24.6938 138.43 -24.7392 137.912 -24.4853C137.75 -24.4056 137.593 -24.3097 137.418 -24.2623C136.725 -24.0744 136.126 -24.2826 135.546 -24.7372C135.282 -24.9447 135.267 -25.4251 135.515 -25.6517V-25.6517C135.634 -25.7604 135.755 -25.8015 135.866 -25.9181C136.188 -26.2553 136.424 -26.5926 136.087 -26.9298C136.073 -26.9438 136.057 -26.9578 136.039 -26.9717C135.513 -27.384 134.742 -27.0216 134.125 -26.7647V-26.7647C132.589 -26.1253 130.834 -26.1313 129.498 -27.1223C128.641 -27.7581 127.824 -28.3668 126.946 -28.915C126.349 -29.3121 125.753 -29.5106 125.157 -29.3121C121.36 -28.4499 118.462 -30.4336 115.291 -32.0106C114.559 -32.3748 114.292 -33.315 114.769 -33.9798V-33.9798C115.133 -34.4883 115.114 -35.2275 114.619 -35.6104C114.523 -35.6847 114.427 -35.7513 114.331 -35.8072C114.263 -35.8467 114.19 -35.8757 114.116 -35.9007C112.973 -36.2855 112.01 -36.6761 111.048 -37.253C110.309 -37.675 109.457 -37.9849 108.583 -38.2125C107.071 -38.6058 105.525 -38.8603 104.051 -39.3752C102.59 -39.8854 101.1 -40.3621 99.5222 -40.2308C97.9325 -40.2308 96.3427 -41.2235 95.1503 -42.4146C94.2829 -43.1079 93.1124 -43.8011 91.9035 -44.4944C91.5767 -44.6818 91.3746 -44.8805 91.3746 -45.2572V-45.2572C91.3746 -45.6192 91.193 -46.12 90.8543 -46.2477C90.2586 -46.4723 89.6825 -46.4468 89.0923 -46.3168C87.7346 -46.0177 86.1837 -46.5489 85.3353 -47.6502V-47.6502C84.5467 -48.6739 83.8545 -49.7735 82.7747 -49.0636C82.4666 -48.8611 82.1176 -48.7085 81.6731 -48.7146C81.3833 -48.7186 81.1084 -48.8315 80.8515 -48.9656C78.5777 -50.1527 76.1645 -51.8632 74.2847 -53.9288C72.3557 -56.0486 70.4268 -57.046 67.7709 -56.3764C67.6094 -56.3357 67.5093 -56.3111 67.3428 -56.3111V-56.3111C66.8673 -56.3111 66.3336 -56.496 66.0977 -56.9088C65.6618 -57.6718 65.3877 -58.5827 64.1499 -58.8919V-58.8919C61.6725 -59.3869 59.8753 -61.2885 57.7106 -62.5909C57.0394 -62.9948 56.4404 -63.5752 56.0024 -64.4505C55.8912 -64.6726 55.5933 -64.8948 55.248 -65.0822C54.7165 -65.3707 54.1202 -65.6784 53.6517 -66.0608V-66.0608C53.1389 -66.4794 52.4845 -66.5038 51.9048 -66.8235C50.4879 -67.6047 49.5771 -68.9834 48.2522 -69.8106C46.7222 -70.7659 44.8243 -70.9856 43.798 -72.4164C43.7173 -72.529 43.6143 -72.6609 43.5122 -72.7547V-72.7547C43.2597 -72.9865 42.9336 -73.0876 42.63 -73.2467C41.131 -74.0323 39.397 -74.3638 38.3162 -76.1633C37.5213 -77.5529 35.5341 -78.3469 34.1431 -79.5381C33.3482 -80.1336 32.5532 -80.9278 31.5596 -81.3248C30.566 -81.7219 29.7712 -82.3174 29.3738 -83.31V-83.31C29.0275 -84.0018 28.4544 -84.5219 27.8862 -85.0469C26.7208 -86.1236 25.7621 -87.4319 24.8033 -88.8686C23.611 -90.6553 21.6238 -91.8465 19.8353 -93.2361C17.0532 -95.4198 14.8672 -97.8021 13.2774 -100.78C13.1386 -101.057 12.9997 -101.359 12.8439 -101.651C12.2868 -102.695 11.1197 -103.244 10.413 -104.193C10.2486 -104.414 10.1043 -104.644 9.97627 -104.886C9.36242 -106.044 8.92292 -107.279 8.50809 -108.522V-108.522C8.02814 -109.641 7.67709 -110.631 7.24739 -111.7C7.03422 -112.23 6.85063 -112.81 6.68945 -113.359V-113.359C6.41301 -114.299 5.66917 -114.962 5.22096 -115.834C4.68314 -116.879 4.56096 -118.111 4.13633 -119.242C3.77355 -120.33 4.23857 -121.913 2.96213 -122.634C2.70237 -122.781 2.3478 -122.915 2.3478 -123.213V-123.213C2.16725 -127.181 0.510325 -130.985 0.954104 -134.924C1.04419 -135.723 1.5156 -136.589 1.15552 -137.308V-137.308C0.360642 -139.095 -0.0367996 -140.881 1.15552 -142.867C1.35424 -143.264 0.956852 -143.859 0.956852 -144.455C1.15557 -146.043 0.956657 -148.028 1.75154 -149.418C3.54002 -152.594 3.3414 -155.77 3.3414 -159.145V-159.145C3.3414 -160.625 4.1035 -161.986 4.62242 -163.372C4.99246 -164.36 5.29408 -165.36 5.52728 -166.292C6.32216 -168.674 6.71975 -171.255 7.91207 -173.24C9.50183 -175.821 9.70055 -178.6 10.8929 -181.181C11.8865 -183.166 11.8864 -185.35 13.0788 -187.137C13.4762 -187.732 13.4761 -188.924 13.6748 -189.718C14.0722 -191.107 14.271 -192.497 15.4633 -193.49V-193.49C16.0218 -194.048 16.1244 -194.874 16.2132 -195.658C16.3018 -196.44 16.3898 -197.193 16.6556 -197.857C17.053 -198.651 18.4441 -199.048 18.4441 -200.239C18.4441 -201.629 19.2391 -202.423 20.034 -203.217C21.6237 -205.004 22.6172 -206.989 23.4121 -209.173C23.8749 -210.252 24.2179 -211.45 25.1848 -212.211C25.7856 -212.683 26.647 -212.857 26.9892 -213.54V-213.54C27.9828 -215.922 29.9701 -217.709 31.7585 -219.496C33.1496 -220.886 34.5406 -222.275 35.9316 -223.665C37.3227 -225.055 38.7136 -226.841 40.502 -227.635C40.8995 -227.834 41.0982 -228.032 41.4956 -228.429C42.0612 -229.136 42.6771 -229.716 43.3433 -230.171C45.5291 -231.664 47.7765 -233.176 49.2458 -235.378V-235.378C49.6432 -235.973 50.2395 -236.569 50.8357 -236.966C52.2267 -237.958 53.6178 -239.15 54.8101 -240.539C56.2011 -242.524 58.3869 -243.517 60.3741 -244.708C62.1626 -245.701 64.1499 -246.495 64.9448 -248.679C65.005 -248.799 65.1016 -248.919 65.2182 -249.034C65.7479 -249.555 66.4495 -249.872 67.1209 -250.191V-250.191C67.4166 -250.331 67.6308 -250.595 67.7951 -250.878C68.2257 -251.62 68.5814 -252.483 69.9128 -252.649C70.9064 -252.649 71.7013 -253.84 72.6949 -254.436C76.2719 -256.024 79.65 -258.009 83.0283 -259.597C84.6181 -260.391 86.4065 -260.987 87.9963 -261.781C89.1886 -262.377 90.1823 -263.171 91.3746 -263.568C93.1631 -264.362 94.9516 -265.156 96.7401 -265.553C99.5222 -266.148 102.304 -266.148 105.285 -266.546C106.676 -266.744 107.868 -266.546 109.061 -267.141C110.054 -267.538 111.247 -267.737 112.24 -266.744C112.413 -266.572 113.035 -266.699 113.586 -266.605C113.751 -266.577 113.9 -266.508 114.056 -266.447V-266.447C114.818 -266.146 115.177 -265.455 115.593 -264.749C116.186 -263.747 117.35 -263.374 118.401 -262.774C119.196 -262.377 119.394 -261.583 118.997 -260.788C118.202 -258.605 116.413 -257.811 114.426 -257.017C114.129 -256.868 113.833 -256.769 113.535 -256.705C110.063 -255.967 106.801 -255.342 104.49 -252.649V-252.649C103.298 -251.458 102.106 -250.664 100.118 -251.259C99.4123 -251.461 98.6039 -251.509 97.7971 -251.481C96.2923 -251.43 94.8138 -251.101 93.5606 -250.267V-250.267C92.3683 -249.473 91.1758 -248.679 89.9835 -247.885C88.9728 -247.324 87.9622 -246.763 86.8081 -246.453C85.5879 -246.125 84.0613 -244.448 83.4356 -243.35V-243.35C83.0328 -242.644 82.3976 -242.101 81.5962 -241.962C80.0703 -241.697 79.3115 -241.151 78.0603 -239.745V-239.745C77.1807 -238.866 76.1797 -238.345 75.1537 -237.642C74.2085 -236.995 73.551 -236.031 72.8936 -234.981C72.4962 -234.385 71.8999 -233.789 71.1051 -233.392V-233.392C69.9915 -232.836 69.7191 -231.485 68.7233 -230.739C67.4771 -229.804 66.609 -228.421 65.3421 -227.437C65.2325 -227.327 65.123 -227.097 65.08 -226.879C65.0215 -226.582 65.2297 -226.313 65.3426 -226.032C65.7807 -224.943 65.1371 -224.568 64.4014 -224.202C64.0342 -224.02 63.5148 -224.217 63.3131 -224.574V-224.574C63.0858 -224.977 62.6246 -225.018 62.2534 -224.742C62.1772 -224.686 62.0999 -224.629 62.0198 -224.573C61.5887 -224.269 61.4356 -223.679 61.7652 -223.268C61.7704 -223.261 61.7756 -223.255 61.7808 -223.248C62.1021 -222.847 62.0422 -221.966 61.5316 -222.025V-222.025C61.4219 -222.038 61.3106 -222.082 61.2003 -222.086C60.1689 -222.122 59.2627 -221.752 58.3896 -221.293C56.0269 -220.049 53.4667 -218.752 51.7979 -216.667C51.6698 -216.507 51.544 -216.345 51.421 -216.18C51.2942 -216.01 51.1758 -215.902 51.115 -215.698V-215.698C50.9435 -215.125 51.411 -214.579 51.5683 -214.001C51.6102 -213.848 51.5406 -213.694 51.233 -213.54C50.8356 -213.342 50.2395 -213.342 49.8421 -213.342C49.0047 -213.342 48.4614 -212.95 48.1433 -212.304C47.9311 -211.874 48.2581 -211.435 48.7261 -211.543V-211.543C49.3893 -211.695 49.9865 -210.936 49.5374 -210.425C47.7893 -208.435 46.2324 -206.758 44.6754 -205.202C44.5681 -205.095 44.3451 -205.046 44.1001 -204.992C43.7132 -204.907 43.4829 -204.613 43.4829 -204.217V-204.217C43.4829 -203.537 42.8376 -202.951 42.1649 -203.051C41.8902 -203.092 41.6089 -203.139 41.297 -203.217C40.2775 -203.363 39.7917 -203.295 39.4485 -202.467C39.1948 -201.855 39.6667 -201.232 40.3294 -201.232V-201.232C41.1101 -201.232 41.6922 -200.402 41.2743 -199.742C40.9241 -199.19 40.5326 -198.7 40.0498 -198.309C39.419 -197.799 38.8658 -197.152 38.6559 -196.368C38.4256 -195.508 38.0644 -194.698 37.4697 -194.041C37.3745 -193.936 37.2839 -193.827 37.2005 -193.712C37.0478 -193.501 36.8752 -193.291 36.7002 -193.081C36.2535 -192.544 35.188 -192.454 35.4243 -193.111C35.4537 -193.193 35.4934 -193.272 35.5358 -193.348C35.6568 -193.564 35.6717 -193.821 35.5354 -194.028C35.5311 -194.034 35.5268 -194.041 35.5224 -194.048C35.4147 -194.208 35.2381 -194.284 35.045 -194.284V-194.284C34.747 -194.284 34.4673 -194.103 34.3577 -193.826C34.1391 -193.273 33.93 -192.721 33.7647 -192.168C33.6103 -191.653 33.838 -191.108 34.2626 -190.777C34.3145 -190.737 34.365 -190.698 34.4145 -190.66C34.7206 -190.426 34.938 -190.051 34.938 -189.665V-189.665C34.938 -189.556 34.9202 -189.466 34.8859 -189.362C34.706 -188.818 34.5404 -188.258 34.5404 -187.534C34.3417 -185.549 33.7457 -183.96 32.7521 -182.174C31.3611 -179.593 30.566 -176.615 29.5724 -173.836C28.9763 -171.851 27.7839 -170.263 27.5852 -168.079C27.5852 -167.895 27.415 -167.669 27.1928 -167.42C26.77 -166.946 25.9333 -166.924 25.5173 -167.404V-167.404C25.1849 -167.788 24.6775 -167.88 24.2688 -167.58C24.1158 -167.467 23.9627 -167.361 23.8097 -167.285C21.5499 -166.156 21.9668 -164.136 21.6784 -162.238C21.6466 -162.029 21.6138 -161.845 21.6345 -161.635V-161.635C21.6682 -161.292 21.9887 -161.063 22.2721 -160.867C23.7105 -159.871 23.18 -158.432 22.8161 -157.16C22.22 -155.175 22.4186 -152.991 21.0276 -151.403V-151.403C20.6339 -151.01 20.9334 -150.339 20.9665 -149.783C21.0723 -148.007 19.9302 -146.604 19.239 -145.05C18.8416 -143.859 18.2453 -143.065 18.6428 -141.477C18.9217 -140.502 18.5156 -139.429 18.1799 -138.326C17.8992 -137.405 17.4505 -136.485 17.4505 -135.521V-135.521C17.6492 -132.94 17.848 -130.36 18.2454 -127.779C18.4442 -126.191 18.8415 -124.603 19.6364 -123.411C20.4313 -122.022 20.034 -120.632 21.0276 -119.242C22.4186 -117.059 23.6109 -114.478 24.4057 -111.897C24.6045 -111.103 25.2008 -109.912 25.7969 -109.713C27.5854 -109.118 28.1815 -107.53 29.1751 -106.338C30.3674 -104.949 31.361 -103.361 33.1495 -102.765V-102.765C34.6006 -102.282 34.7421 -100.212 35.9323 -99.2511C36.0578 -99.1499 36.1904 -99.0625 36.329 -98.9933C38.9123 -97.4051 40.8995 -94.8243 43.4829 -93.2361C44.079 -92.8391 44.874 -92.442 45.2714 -91.8464C46.265 -90.0597 47.8549 -89.0672 49.6434 -88.0746C51.2332 -87.2805 52.4254 -85.6923 54.0152 -84.6997C55.4062 -83.9056 56.7972 -83.5086 57.9896 -82.3174C60.7717 -79.5381 64.15 -77.7514 67.7269 -75.9647C68.5218 -75.5677 69.3166 -74.9721 69.9128 -74.3766C71.1051 -73.3839 72.4962 -72.7884 73.6885 -71.7958C74.8809 -70.8032 76.0731 -69.8106 77.4642 -69.215V-69.215C78.3897 -68.7527 79.1042 -67.9476 79.8963 -67.282C80.3945 -66.8634 80.8858 -66.4581 81.4386 -66.2372C83.4258 -65.6416 85.2143 -64.649 86.8041 -63.2594C88.3938 -61.8697 90.5798 -61.2742 92.1695 -60.2816C94.5542 -58.4949 97.3362 -57.5022 99.9196 -56.1125V-56.1125C102.136 -55.0053 105.056 -54.0434 107.272 -52.9362V-52.9362C107.843 -52.651 108.312 -52.2634 108.898 -52.1412C109.396 -52.0377 110.253 -52.2529 110.253 -51.745V-51.745C110.452 -49.3628 112.24 -49.9584 113.631 -49.5613C116.016 -48.7673 118.599 -48.1717 120.984 -47.1791C121.781 -46.8605 122.579 -46.2862 123.479 -45.6615C123.9 -45.369 124.318 -45.2872 124.802 -45.4554V-45.4554C125.397 -45.6617 126.144 -45.4017 126.501 -44.884C126.643 -44.6796 126.796 -44.4932 126.971 -44.3494C127.833 -43.642 129.274 -43.8228 130.104 -43.0789C130.966 -42.3059 131.883 -41.6415 132.954 -41.2861C134.292 -40.8423 135.753 -40.5776 137.151 -40.3987C138.273 -40.2552 139.414 -40.2392 140.26 -39.6353C141.85 -38.6427 143.638 -38.2456 145.228 -37.65C147.215 -37.0545 149.401 -36.6574 151.388 -35.8633C153.375 -35.0692 155.561 -34.6722 157.747 -34.2752C158.542 -34.0766 159.337 -33.8781 159.933 -33.8781C160.422 -33.8781 160.862 -33.8536 161.253 -33.7528C162.836 -33.3446 163.154 -30.9649 164.736 -30.5502C165.526 -30.343 166.452 -30.4875 167.485 -30.9003V-30.9003C168.39 -31.3526 169.372 -31.3258 170.384 -31.2927C172.191 -31.2338 174.131 -31.6281 175.831 -30.7018C176.626 -30.3047 177.619 -30.1062 178.414 -29.9077C178.924 -29.7377 179.435 -29.5678 179.945 -29.3979C180.116 -29.341 180.292 -29.255 180.437 -29.1483V-29.1483C181.233 -28.5635 182.244 -28.2487 183.192 -28.525C183.913 -28.735 184.646 -28.8471 185.369 -28.7703C186.593 -28.6404 187.844 -28.3124 189.072 -28.2192C191.362 -28.0454 193.609 -27.0158 196.1 -27.3269C196.895 -27.5254 197.889 -27.1284 198.684 -26.9298V-26.9298C203.802 -25.7499 209.532 -25.9752 214.548 -24.4152C215.085 -24.2481 215.625 -24.0884 216.171 -23.952C218.953 -23.3564 221.735 -23.3564 224.319 -21.9668V-21.9668C225.709 -21.2725 227.188 -21.4805 228.708 -21.1563C229.156 -21.0607 229.672 -21.1011 230.28 -21.3713C231.274 -21.7683 232.466 -21.1728 233.659 -20.7757C237.037 -19.7831 239.422 -20.5772 241.607 -23.3565C242.005 -23.952 242.204 -24.5476 242.8 -24.9446C246.178 -27.3269 248.563 -30.5033 251.146 -33.4812C251.511 -33.9191 252.011 -34.2497 252.526 -34.5716C254.175 -35.6012 255.891 -37.0401 256.703 -38.8062V-38.8062C256.824 -39.07 256.949 -39.379 257.065 -39.6453C257.079 -39.678 257.094 -39.7106 257.109 -39.7431C257.453 -40.4877 258.333 -40.7105 259.008 -41.1762C259.305 -41.3808 259.569 -41.6179 259.806 -41.8815C260.32 -42.452 260.727 -43.114 261.262 -43.6651C263.341 -45.8074 265.902 -47.4506 267.838 -49.5614C268.832 -50.554 269.826 -51.3481 270.621 -52.5392C271.614 -54.1274 273.403 -55.1199 274.992 -56.1126C275.589 -56.5096 276.185 -56.7081 276.781 -57.1052C276.893 -57.1693 277.006 -57.2348 277.118 -57.3016C279.589 -58.7742 281.938 -61.0693 284.332 -62.6637V-62.6637C286.121 -63.6564 288.108 -64.252 289.897 -65.4431C293.076 -67.2298 296.057 -69.0165 299.038 -71.0017C299.634 -71.3987 300.23 -71.5973 300.826 -71.7958C303.807 -72.5899 306.192 -73.9795 307.98 -76.5603C308.775 -77.7514 309.769 -78.347 311.358 -78.347V-78.347C311.66 -78.347 311.921 -78.1202 312.223 -78.1412C313.938 -78.2606 315.064 -79.9673 316.525 -80.3322C318.313 -80.5307 319.903 -80.9278 321.493 -82.119C323.282 -83.5086 325.467 -84.5012 327.852 -84.8982C328.846 -85.0967 329.839 -85.4938 330.833 -85.6923V-85.6923C332.285 -86.055 333.721 -85.2455 335.218 -85.2684C335.992 -85.2802 336.764 -85.4784 337.589 -85.8908C337.987 -86.0893 338.583 -86.0894 339.179 -86.0894C342.16 -86.2879 345.141 -86.4864 347.923 -86.4864C349.711 -86.4864 351.301 -86.4864 353.09 -86.8834C354.282 -87.2805 355.872 -87.479 357.263 -86.2879C357.859 -85.8908 359.051 -86.0894 359.846 -86.2879C360.84 -86.4864 361.833 -86.6849 362.827 -86.2879C364.417 -85.8908 366.007 -84.8982 367.795 -85.8908V-85.8908C368.901 -86.4435 370.191 -85.3446 371.386 -85.0267C373.971 -84.339 376.58 -83.5947 379.321 -83.1116C381.904 -82.7145 383.494 -81.1263 385.282 -79.7367C386.276 -78.9426 387.27 -78.1485 388.263 -77.3544V-77.3544C390.912 -75.4643 392.261 -72.47 394.505 -70.113C394.603 -70.0103 394.708 -69.9095 394.821 -69.8106C395.606 -69.0259 395.895 -67.8691 395.785 -66.7324C395.735 -66.2076 395.898 -65.6994 396.394 -65.5214V-65.5214C396.838 -65.3622 397.2 -64.9265 397.213 -64.4553C397.217 -64.2735 397.225 -64.0884 397.239 -63.8979C397.292 -63.1453 397.954 -62.6658 398.551 -62.2043C398.874 -61.954 399.088 -61.597 399.193 -61.0756C399.392 -59.4874 399.59 -57.7007 399.59 -56.1126C399.59 -56.026 399.59 -55.9352 399.589 -55.8421C399.575 -54.7746 398.845 -53.8953 398.363 -52.9427V-52.9427C396.467 -49.1965 394.795 -44.8973 391.57 -42.2089C391.333 -42.0115 391.091 -41.816 390.847 -41.6205C389.384 -40.3424 388.763 -38.5605 387.126 -37.5104C386.836 -37.3241 386.591 -37.1938 386.518 -36.8567V-36.8567C386.389 -36.2599 386 -35.6916 385.459 -35.41C384.737 -35.0351 384.016 -34.7074 383.295 -34.2752C382.898 -34.0767 382.5 -33.6796 382.302 -33.8781C380.513 -35.2678 380.314 -33.4812 379.519 -32.4886C378.526 -31.2974 377.532 -30.1063 375.943 -29.5107C375.11 -29.1782 374.418 -28.7065 373.864 -27.9789C373.644 -27.6895 373.435 -27.3712 373.097 -27.2366C373.016 -27.2045 372.931 -27.1779 372.844 -27.1591C372.661 -27.1199 372.472 -27.1059 372.291 -27.0598C371.19 -26.7793 371.027 -26.6619 371.222 -25.647C371.291 -25.2853 371.024 -24.8206 370.661 -24.7549V-24.7549C370.594 -24.7426 370.544 -24.7588 370.479 -24.7826C368.938 -25.3495 367.762 -25.5238 366.205 -24.7462C364.615 -23.9521 362.827 -23.5551 361.038 -23.158C359.846 -22.9595 359.647 -21.3712 358.058 -21.9668C356.865 -22.3638 356.468 -20.7757 355.673 -20.1802C353.487 -18.592 350.904 -17.2024 348.32 -16.6068C346.532 -16.2098 344.942 -15.2171 342.955 -15.4156C342.359 -15.4156 341.763 -15.0186 341.166 -14.8201C340.585 -14.5877 339.935 -14.2874 339.258 -14.1578C338.29 -13.9727 337.094 -14.5238 336.397 -13.8275V-13.8275C335.205 -12.4378 333.416 -12.2393 331.827 -12.2393C329.728 -12.0781 327.63 -11.9168 325.639 -11.1175C324.808 -10.7842 323.857 -10.9197 323.163 -11.4858C323.094 -11.5429 323.023 -11.5986 322.952 -11.6522C322.782 -11.7811 322.497 -11.8178 322.299 -11.7376V-11.7376C322.115 -11.6628 322.035 -11.5529 321.922 -11.3887C320.961 -9.99139 319.793 -9.45996 317.916 -9.45996C315.333 -9.45996 312.551 -9.06296 309.967 -8.26888C307.98 -7.67331 305.794 -7.07767 303.807 -6.08507C303.211 -5.68802 302.019 -5.68807 301.224 -5.88659C298.442 -6.68068 295.262 -6.08511 292.679 -7.87181C292.082 -8.26885 290.89 -8.07038 290.095 -7.67334C289.102 -7.07777 288.307 -7.27627 287.512 -7.27627C286.916 -7.27627 286.121 -7.07777 285.723 -6.68073C285.15 -5.9935 284.378 -6.03316 283.637 -5.99908C282.673 -5.95472 281.645 -5.70636 280.756 -6.08276V-6.08276C280.05 -6.38172 279.153 -6.45809 278.438 -6.18293C276.705 -5.51699 274.756 -5.23744 272.806 -5.88659C271.813 -6.28363 271.018 -5.29107 269.826 -5.68812C267.441 -6.28368 265.056 -5.88664 262.672 -6.68072C261.596 -6.9877 260.402 -7.05728 259.273 -6.61428C258.65 -6.37027 257.923 -6.31651 257.389 -6.71831C257.372 -6.73094 257.355 -6.74365 257.338 -6.75645C256.818 -7.15333 256.177 -7.19317 255.684 -6.76217C255.65 -6.73217 255.614 -6.70189 255.577 -6.67142C255.415 -6.54033 255.208 -6.48213 254.999 -6.48213V-6.48213C254.818 -6.48213 254.64 -6.53012 254.48 -6.61505C251.421 -8.23693 249.098 -7.60697 246.774 -5.09245C245.781 -3.90132 244.787 -2.71026 244.191 -1.32061C243.595 -0.129483 242.8 1.45872 241.607 2.05428C239.223 3.24541 238.627 5.42917 237.434 7.41439C236.043 9.79665 235.05 12.3774 232.665 13.9656C232.268 14.1641 232.268 14.7597 231.87 15.3553C231.473 16.1493 231.075 16.9434 230.479 17.5389C228.492 19.5242 227.3 21.9064 225.71 24.0901C225.312 24.6857 224.716 25.2813 224.517 26.0754C224.12 27.068 223.723 27.6636 222.928 28.2592C222.332 28.6562 221.934 29.4503 221.934 30.2444C221.735 32.0311 220.941 33.4207 219.748 34.8104C218.556 36.3985 217.562 38.1853 216.767 40.1705C215.774 42.5527 214.383 44.9349 212.992 47.3172C212.859 47.5823 212.726 47.8475 212.653 48.0535C212.594 48.2183 212.613 48.3664 212.669 48.5322V48.5322C212.983 49.4633 212.296 49.9976 211.601 50.6921V50.6921V50.6921C210.664 51.6272 210.139 52.8892 209.659 54.1225C208.835 56.242 208.088 58.424 207.171 60.5465C205.903 63.4845 202.779 67.4884 205.043 69.7501V69.7501C205.44 70.1472 205.242 70.9413 205.043 71.5369C204.711 72.6972 204.241 73.7191 203.747 74.8338C203.579 75.2137 203.143 75.4063 202.736 75.3243V75.3243C202.264 75.2293 201.786 75.5277 201.721 76.0038C201.637 76.6225 201.56 77.217 201.338 77.7365C201.294 77.8398 201.253 77.9449 201.199 78.0435C200.903 78.5878 200.058 79.132 199.876 79.6762C199.479 81.0659 199.081 82.6541 198.883 84.0437C198.485 85.8304 198.088 87.6172 197.491 89.2054C197.166 90.3439 197.107 90.4163 196.003 90.9512C195.508 91.1913 195.348 91.7474 195.62 92.2259V92.2259C195.673 92.319 195.743 92.4197 195.815 92.4983C196.516 93.2544 196.677 94.0282 196.299 95.161C195.504 97.5433 194.709 99.9255 194.908 102.308C195 102.953 194.986 103.587 194.921 104.215C194.54 107.921 191.927 112.082 191.927 115.807V115.807C191.927 117.395 191.927 118.984 191.729 120.373C191.53 121.763 191.53 123.153 190.139 124.145C189.543 124.542 189.94 125.932 189.543 126.726C188.748 128.116 188.35 129.307 189.145 130.895C189.543 131.49 189.145 132.483 189.145 133.079V133.079C189.145 133.917 188.927 134.668 189.067 135.495C189.46 137.815 188.689 140.013 188.35 142.211C187.953 144.99 187.555 147.571 187.357 150.35C187.158 151.74 186.76 153.328 187.357 154.519C187.739 155.537 187.549 156.229 187.207 157.013C186.978 157.536 186.192 157.536 185.991 157.002V157.002C185.816 156.537 185.22 156.477 185.115 156.962C184.875 158.073 185.2 159.272 185.035 160.337C184.851 161.524 184.423 162.83 184.846 163.955C185.215 164.935 185.411 165.944 185.171 167.026C184.972 167.621 185.37 168.217 185.966 168.614C187.754 170.004 188.152 171.989 188.152 174.173C188.152 175.788 188.152 177.312 188.152 178.868C188.152 179.872 186.98 180.287 186.002 180.512V180.512C185.571 180.612 185.296 180.997 185.401 181.426C185.577 182.151 186.163 183.003 187.07 183.713C187.488 184.04 187.558 184.632 187.14 184.959V184.959C186.901 185.145 186.825 185.47 186.896 185.765C187.152 186.832 187.134 187.958 187.313 189.026C187.71 191.387 188.854 193.809 189.374 196.146C189.662 197.444 190.31 198.665 191.53 199.782C192.016 200.268 192.353 200.902 192.724 201.548C193.178 202.34 193.435 203.296 193.114 204.151C193.084 204.231 193.053 204.31 193.02 204.387C192.856 204.765 192.649 205.18 192.807 205.561V205.561C192.86 205.688 192.958 205.796 193.039 205.907C193.43 206.446 193.952 206.985 194.312 207.524V207.524C195.702 209.26 195.539 211.784 196.734 213.659C197.467 214.81 198.061 216.074 198.485 217.45C199.28 219.833 200.075 222.215 200.075 224.796C200.075 225.982 200.943 227.167 201.568 228.353C201.76 228.718 202.189 228.976 202.601 228.95V228.95C203.13 228.917 203.672 229.107 203.938 229.566C204.741 230.948 205.408 232.468 205.242 234.126C205.242 235.119 205.639 235.913 206.434 235.913C206.596 235.928 206.741 235.951 206.869 235.982C208.991 236.496 209.063 239.333 210.607 240.876V240.876C211.402 241.67 211.998 242.464 212.396 243.457C213.787 246.633 215.972 249.214 218.357 251.596V251.596C221.237 254.832 224.928 257.89 227.816 261.118C228.733 262.143 229.577 263.251 230.479 264.301C232.864 267.081 234.851 270.059 238.229 271.647C238.99 271.992 239.75 272.386 240.444 272.877C243.028 274.709 245.001 277.682 247.966 278.794V278.794C248.196 278.908 248.425 279.089 248.655 279.259C248.976 279.498 249.323 279.711 249.603 279.996V279.996C251.008 281.423 253.558 281.628 254.943 283.074C255.088 283.225 255.216 283.386 255.319 283.558C256.114 284.948 257.306 285.543 258.697 285.94C262.672 287.33 266.448 288.918 270.024 291.102C270.818 291.498 271.788 291.543 272.583 291.939C273.423 292.357 274.054 292.889 274.993 292.889V292.889C276.98 292.889 277.377 293.286 277.377 295.469V295.469C277.377 296.283 278.356 296.598 279.028 296.14C279.69 295.688 280.155 295.92 280.939 296.837C281.414 297.392 282.171 297.551 282.658 297.005V297.005C283.041 296.576 283.685 296.419 284.216 296.639C285.437 297.147 286.674 297.607 287.988 298.208C288.497 298.441 288.761 299.076 288.656 299.626C288.625 299.789 288.59 299.957 288.54 300.126C288.52 300.192 288.537 300.265 288.586 300.314V300.314C288.653 300.381 288.76 300.385 288.838 300.332C289.894 299.621 291.224 300.564 292.316 300.211C292.571 300.128 292.806 299.95 293.068 300.01C293.194 300.038 293.334 300.088 293.469 300.152C293.939 300.373 294.09 300.939 294.48 301.281C295.096 301.823 296.159 301.866 296.764 302.432C296.994 302.648 297.119 302.987 297.434 303.008V303.008C297.568 303.017 297.713 303.026 297.844 303.053C298.772 303.237 299.7 303.41 300.627 303.41C302.217 303.41 303.608 303.807 305.198 304.403C306.39 304.8 307.583 305.197 308.576 306.19C309.769 307.381 311.16 307.976 312.749 307.778C314.339 307.381 315.929 307.976 317.32 308.373C318.148 308.511 318.88 309.032 319.583 309.603C320.164 310.075 320.925 310.247 321.613 309.953V309.953C322.277 309.668 323.026 309.809 323.602 310.244C323.633 310.267 323.664 310.29 323.694 310.313C324.342 310.806 325.143 311.075 325.955 311.009C327.047 310.92 328.093 310.975 329.243 311.55C331.416 312.48 333.71 312.805 335.936 313.564C337.2 313.996 338.509 313.907 339.775 314.329V314.329C340.57 314.527 341.166 314.924 341.763 315.123C342.359 315.322 342.955 315.917 343.352 315.917C345.538 315.719 347.724 316.711 349.513 317.307C351.251 318.03 352.883 318.437 354.563 318.451C355.836 318.462 357.197 318.189 358.256 318.895V318.895C358.82 319.176 359.283 319.558 359.789 319.897C360.166 320.15 360.633 320.11 360.978 319.815V319.815C361.383 319.47 361.992 319.272 362.471 319.504C363.351 319.93 364.278 320.366 365.222 320.842C366.247 321.358 367.153 321.096 368.162 320.551C368.421 320.411 368.743 320.357 369.186 320.483C371.571 321.277 373.955 321.476 376.34 321.476C376.629 321.476 376.891 321.528 377.147 321.604C378.074 321.881 378.949 322.468 379.917 322.468V322.468C382.898 322.27 384.488 322.667 386.872 324.255C387.12 324.44 387.367 324.587 387.62 324.72C388.733 325.301 390.104 325.226 391.226 324.662V324.662C391.484 324.532 391.794 324.394 392.072 324.473C392.831 324.689 393.413 325.752 394.424 325.248C395.417 324.851 396.411 324.851 397.404 325.446C397.802 325.645 398.199 325.645 398.597 325.645C403.167 325.049 407.539 327.034 412.11 327.233C412.394 327.233 412.689 327.3 412.993 327.414C415.193 328.238 417.313 329.02 419.661 329.02V329.02C420.257 329.02 420.853 329.218 421.45 329.615C422.046 330.012 422.443 330.211 423.238 330.012C424.828 329.615 426.219 329.615 427.809 330.409C429.398 331.203 430.988 331.6 432.578 330.806V330.806C434.243 329.975 436.329 331.958 438.181 331.769C438.712 331.715 439.246 331.66 439.732 331.799C440.725 331.997 441.719 331.402 442.713 331.6C443.442 331.746 444.171 332.106 444.901 332.365C445.418 332.549 445.939 332.791 446.488 332.791V332.791C447.959 332.791 449.354 333.018 450.627 333.564C451.852 334.09 453.833 334.187 455.139 333.923V333.923C455.954 333.759 456.767 333.265 457.597 333.293C458.436 333.321 459.219 333.325 460.001 333.585C460.818 333.857 461.634 334.408 462.578 335.047C463.464 335.647 464.263 335.897 465.295 335.619V335.619C466.632 335.259 468.279 335.721 469.547 336.276C470.135 336.533 470.788 336.656 471.527 336.563C472.06 336.497 472.549 336.542 473.001 336.669C474.618 337.123 476.383 337.91 477.886 337.159V337.159C480.47 335.769 481.066 335.968 483.252 337.754C484.841 339.144 486.829 338.946 488.816 338.747C489.611 338.747 490.008 337.159 491.002 337.556C491.797 337.953 492.592 337.754 493.585 337.754C495.771 337.754 497.957 337.357 499.944 338.747C502.13 340.137 504.713 340.335 507.297 339.343C509.085 338.549 510.675 338.35 512.464 339.74V339.74C512.961 340.237 513.828 339.854 514.531 339.822C516.481 339.734 518.363 340.257 520.177 340.282C522.067 340.308 523.094 341.526 524.983 341.526V341.526C525.38 341.526 525.728 341.725 526.075 341.997C526.609 342.416 527.371 342.138 527.58 341.492V341.492C527.699 341.122 528.021 340.916 528.409 340.896C530.14 340.804 530.907 340.803 531.736 341.158C533.249 341.806 534.84 342.321 536.459 342.027C537.288 341.877 538.091 341.727 538.893 341.526C540.483 341.328 541.874 340.732 543.067 342.519C543.411 343.035 544.501 343.253 545.433 343.431C545.709 343.484 545.994 343.523 546.269 343.462C546.534 343.403 546.804 343.297 547.084 343.181C547.909 342.841 548.851 343.067 549.157 343.905V343.905C549.2 344.024 549.252 344.166 549.321 344.272C549.765 344.954 550.661 345.27 551.214 344.901C552.406 344.107 553.4 344.306 554.791 344.703C555.785 344.901 556.778 344.504 557.772 344.306C558.567 344.107 559.163 344.306 559.958 344.703C562.939 345.894 566.118 346.291 569.298 345.1C569.516 344.991 569.795 345.061 570.067 345.147C570.47 345.274 570.967 345.465 571.312 345.707V345.707C571.595 345.906 571.845 345.817 572.18 345.73C573.971 345.264 575.608 346.142 577.246 346.688C577.585 346.801 577.94 346.882 578.302 346.935C580.1 347.199 581.943 346.904 583.734 346.59C584.338 346.484 584.949 346.371 585.593 346.291C586.984 346.092 588.375 346.092 589.766 346.886C590.163 347.085 590.759 347.085 591.157 347.085C591.753 347.085 592.349 346.886 592.747 347.085C594.933 348.475 597.317 347.681 599.503 347.482C602.881 347.283 605.862 348.078 609.042 348.673V348.673C610.841 349.122 612.598 350.742 614.266 349.932C614.584 349.778 614.881 349.54 615.132 349.176C615.18 349.107 615.256 349.018 615.322 348.967V348.967C615.615 348.741 615.987 348.802 616.344 348.9C617.553 349.231 618.762 348.527 619.971 348.872C622.235 349.518 624.629 349.244 626.728 350.081C627.637 350.444 628.823 350.319 629.631 350.872C629.936 351.081 630.191 351.399 630.466 351.696C630.802 352.06 631.346 352.001 631.696 351.651V351.651C631.795 351.552 631.894 351.404 631.993 351.256C632.146 351.026 632.507 351.117 632.64 351.359V351.359C632.707 351.481 632.661 351.528 632.613 351.658C632.359 352.338 632.251 352.69 632.432 352.94C633.071 353.82 634.522 353.055 635.19 352.197V352.197C635.743 351.487 636.613 351.103 637.509 351.191C639.152 351.353 640.73 351.541 642.427 351.849C643.156 351.954 643.558 352.058 643.976 352.42C645.044 353.346 646.292 354.053 647.666 353.718V353.718C648.513 353.511 649.391 353.691 650.13 354.154C650.661 354.487 651.179 354.791 651.767 355.026C652.164 355.224 652.76 355.224 653.356 355.026C654.151 354.827 654.549 353.438 655.741 354.033C656.237 354.281 656.655 354.451 657.092 354.448C657.669 354.444 658.314 353.824 658.722 354.232V354.232C660.709 356.415 663.69 354.43 666.075 355.82C666.472 356.018 667.267 355.621 667.863 355.423V355.423C669.256 354.866 670.737 356.138 672.221 355.921C674.411 355.6 676.602 355.686 678.793 356.415C679.588 356.614 680.581 356.415 681.575 356.614C682.767 356.813 684.158 356.217 685.351 357.011C686.166 357.5 686.446 356.518 686.96 356.369C687.209 356.297 687.466 356.444 687.713 356.523C688.321 356.719 688.929 357.013 689.537 357.315C689.651 357.372 689.718 357.489 689.741 357.615C689.767 357.759 689.816 357.88 689.856 358.011C689.9 358.151 690.081 358.241 690.185 358.137V358.137C690.249 358.073 690.267 357.951 690.201 357.888C690.125 357.815 690.044 357.742 689.948 357.669C689.729 357.502 689.63 357.211 689.771 356.974C689.791 356.94 689.811 356.905 689.832 356.87C690.017 356.541 690.421 356.368 690.759 356.536C691.295 356.804 691.83 357.071 692.366 357.339C692.458 357.385 692.554 357.424 692.65 357.46C692.816 357.523 692.981 357.598 693.147 357.671C693.877 357.995 694.691 358.132 695.488 358.076C695.85 358.051 696.188 358.004 696.479 358.004V358.004C697.597 358.004 698.701 358.55 699.621 357.914C700.291 357.45 700.888 356.971 701.844 357.21C703.037 357.607 704.428 357.011 705.62 357.011C706.812 357.011 708.005 357.408 709.396 357.805C710.588 358.202 711.582 359.393 713.171 359.195C714.364 358.996 715.556 359.79 716.947 359.989C720.127 360.584 723.306 360.783 726.486 361.577C728.075 361.974 729.665 361.974 731.454 361.18C732.538 360.819 733.621 360.13 734.705 361.201C734.941 361.433 735.163 361.7 735.491 361.746C735.558 361.755 735.626 361.762 735.691 361.766C735.913 361.781 736.136 361.793 736.355 361.827C738.104 362.097 738.554 362.193 739.639 362.841C740.264 363.214 741.082 363.004 741.435 362.368V362.368C741.823 361.67 742.885 361.515 743.65 361.286C744.474 361.039 745.277 360.333 746.159 360.584C747.267 360.901 748.375 361.091 749.484 361.256C750 361.332 750.576 361.887 750.21 362.259V362.259C749.576 362.902 750.044 363.573 750.238 362.691C750.267 362.559 750.294 362.399 750.326 362.208C750.33 362.185 750.332 362.168 750.332 362.145V362.145C750.332 361.811 750.7 361.593 751.005 361.727C752.806 362.523 754.727 362.327 756.492 361.974C758.281 361.577 759.871 361.776 761.46 362.173C764.044 362.768 766.428 363.165 769.012 363.165C769.554 363.165 770.095 363.35 770.7 363.53C771.146 363.663 771.362 364.239 771.141 364.649V364.649C770.895 365.107 771.197 365.635 771.711 365.708C772.65 365.84 773.514 365.944 774.377 365.944C775.57 365.944 776.762 365.547 778.153 365.547V365.547C779.156 365.547 779.815 366.703 780.816 366.637C781.187 366.612 781.558 366.421 781.929 366.143C783.32 365.15 784.91 365.15 786.301 365.15V365.15C787.046 365.15 787.24 366.053 787.819 366.522C788.511 367.083 789.511 366.143 790.275 366.143C791.66 366.258 793.245 366.106 794.604 366.579C796.536 367.253 798.364 368.128 800.41 368.128V368.128V368.128C802.332 368.128 804.305 367.898 806.225 367.798C806.945 367.761 807.743 367.845 808.756 367.93C811.538 368.128 814.121 369.319 816.904 369.915C819.133 370.258 821.362 370.304 823.719 370.311C824.345 370.313 824.893 369.806 824.989 369.187V369.187C825.053 368.781 825.269 368.375 825.67 368.281C826.808 368.014 827.734 368.805 828.831 369.252C829.373 369.473 829.782 370.035 829.68 370.612V370.612C829.617 370.968 829.79 371.237 830.097 371.429C830.657 371.778 831.27 372.075 831.824 372.431C832.083 372.598 832.343 372.766 832.623 372.894C833.678 373.377 834.752 373.687 835.981 373.687C839.16 373.885 842.141 374.084 845.321 374.481V374.481C845.717 374.481 845.704 373.787 845.34 373.63C843.678 372.913 842.015 372.496 840.353 372.496C839.208 372.496 838.064 372.359 836.898 372.106C835.444 371.792 835.563 370.04 836.974 370.51V370.51C840.635 371.79 844.296 371.386 848.111 371.47C848.72 371.483 849.197 371.858 849.388 372.436V372.436C849.445 372.607 849.566 372.776 849.747 372.776C850.004 372.778 850.346 372.637 850.487 372.496C851.382 371.424 852.276 371.156 853.46 371.258C853.731 371.281 854.002 371.311 854.267 371.252V371.252C854.787 371.136 855.316 371.023 855.838 370.915C858.241 370.415 860.874 370.619 863.26 370.217C863.621 370.156 863.986 370.113 864.353 370.113V370.113C864.779 370.113 865.202 370.17 865.619 370.254C868.614 370.859 871.772 370.536 874.93 370.907C875.327 370.907 875.725 370.908 876.122 371.106C876.613 371.351 877.028 371.672 877.507 372.021C878.037 372.408 878.202 373.151 877.838 373.697C877.736 373.849 877.635 374.001 877.533 374.153C877.406 374.344 877.525 374.659 877.722 374.775V374.775C877.892 374.874 878.006 374.79 878.162 374.672C879.936 373.341 882.374 373.831 884.27 372.694V372.694C885.142 372.259 885.803 373.464 886.611 374.01C887.621 374.693 888.973 374.595 890.247 374.84C890.369 374.864 890.44 374.86 890.557 374.902V374.902C890.984 375.055 891.302 375.518 891.452 375.946C891.535 376.181 891.618 376.404 891.701 376.599C891.775 376.776 891.871 377.001 892.057 377.051V377.051C892.17 377.082 892.276 377.076 892.393 377.085C893.187 377.149 894.7 376.777 895.633 376.217C896.244 375.85 896.697 374.984 896.193 374.481V374.481C895.994 374.282 895.597 374.084 895.199 374.084C895.035 374.084 894.87 374.109 894.711 374.138C893.479 374.355 893.615 372.692 894.802 372.297V372.297C898.676 371.33 898.963 371.305 900.447 374.981C900.525 375.174 900.556 375.474 900.764 375.474V375.474C900.764 375.474 900.764 375.474 900.764 375.474C900.962 375.474 901.36 375.672 901.558 375.672C905.135 375.275 908.514 375.076 912.091 376.069C914.277 376.665 916.661 376.069 919.046 376.069C919.213 376.069 919.38 376.104 919.547 376.145C919.925 376.237 920.223 376.658 920.139 377.037V377.037C920.054 377.416 919.724 377.655 919.337 377.623C918.335 377.541 917.304 377.374 916.661 377.856C915.071 378.848 913.084 378.451 911.495 379.047V379.047C910.756 379.416 909.988 378.731 909.198 378.494C907.704 378.046 906.42 378.879 905.135 379.841C904.392 380.477 903.536 380.944 902.626 381.21C901.096 381.658 899.776 380.644 899.213 379.152C899.158 379.007 899.097 378.865 899.027 378.73C898.522 377.76 897.228 377.877 896.174 378.166C894.757 378.555 893.264 378.828 891.694 379.079C891.134 379.169 890.668 378.735 890.757 378.176V378.176C890.824 377.757 890.539 377.385 890.124 377.295C889.209 377.096 888.284 376.942 887.312 376.76C886.425 376.594 885.478 376.955 885.041 377.744V377.744C884.655 378.441 883.987 378.897 883.196 378.99C882.26 379.1 881.332 379.19 880.426 379.057C878.79 378.816 877.209 378.074 875.558 378.186C875.018 378.223 874.477 378.253 873.936 378.253C872.519 378.394 872.112 378.435 871.275 378.014C870.432 377.591 869.518 377.495 868.663 377.894V377.894C867.901 378.25 866.961 378.184 866.176 377.881C864.143 377.095 861.94 377.085 859.707 377.295C858.839 377.377 858.031 376.958 857.718 376.145V376.145C857.337 375.158 856.223 374.532 855.245 374.935C854.549 375.221 853.903 375.546 853.321 375.956C852.802 376.321 852.151 376.428 851.664 376.021V376.021C851.007 375.472 849.978 375.683 849.729 376.502C849.686 376.643 849.646 376.776 849.607 376.903C849.535 377.139 849.409 377.364 849.192 377.48C848.518 377.843 847.449 377.77 847.109 377.26C846.715 376.709 846.289 376.345 845.82 376.094C844.385 375.328 842.138 375.881 841.744 377.459V377.459C841.614 378.233 841.149 378.336 840.73 378.477C840.532 378.544 840.226 378.365 840.276 378.162C840.28 378.143 840.285 378.124 840.289 378.105C840.328 377.942 840.154 377.887 840.154 378.054V378.054C840.154 378.054 840.154 378.054 840.154 378.054V378.054C840.154 378.383 839.886 378.664 839.559 378.631C839.459 378.621 839.368 378.605 839.299 378.582C839.172 378.538 839.13 378.388 839.067 378.271C838.48 377.181 837.687 376.466 836.179 376.466V376.466C835.453 376.466 834.873 375.865 834.194 375.608C832.682 375.037 831.085 375.022 829.622 375.672C828.628 376.069 827.833 375.672 827.038 375.474C826.092 375.316 826.147 374.407 825.713 373.741C825.486 373.393 825.023 373.357 824.626 373.481C824.378 373.558 824.126 373.639 823.871 373.721C822.561 374.145 822.84 376.174 824.207 376.347V376.347C824.868 376.431 825.33 377.163 824.718 377.428C824.548 377.501 824.361 377.533 824.194 377.564C823.967 377.607 823.741 377.669 823.512 377.692C821.661 377.878 819.967 378.043 818.096 377.856C816.238 377.687 814.523 377.231 812.586 376.855C812.037 376.748 811.68 376.255 811.844 375.72V375.72C812.002 375.205 811.625 374.546 811.149 374.799C810.754 375.01 810.551 375.427 810.364 375.902C810.22 376.27 809.992 376.631 809.612 376.742C809.087 376.895 808.389 376.795 807.052 376.48C806.066 376.249 805.641 375.393 806.616 375.123V375.123C806.717 375.095 806.815 375.051 806.913 375.015C807.3 374.873 807.808 374.832 808.16 374.481C808.28 374.361 808.4 374.096 808.432 373.862C808.467 373.612 808.299 373.346 808.092 373.202V373.202C807.783 372.987 807.384 373.072 807.033 373.21C805.976 373.626 804.836 372.95 803.987 373.29C802.794 373.687 801.801 372.694 800.608 373.488C800.442 373.622 800.275 373.688 800.109 373.707C798.471 373.892 797.037 373.383 795.397 373.214C793.918 373.061 792.494 372.427 791.07 372.297C790.518 372.187 789.967 372.321 789.381 372.531C788.828 372.729 788.647 373.488 789.132 373.82V373.82C789.574 374.123 789.565 374.897 789.053 375.057C788.399 375.261 787.896 375.389 787.403 375.298C787.33 375.285 787.257 375.271 787.184 375.264C785.226 375.084 783.084 375.264 781.134 374.679C779.147 374.084 776.961 373.885 774.973 373.687C772.788 373.488 770.602 373.29 768.416 372.893C766.944 372.599 765.364 372.631 763.837 372.668C762.853 372.692 761.949 372.123 761.076 371.67C760.48 371.36 759.754 371.143 758.958 370.911ZM502.726 348.078C502.869 348.078 503.011 347.976 503.153 347.918C503.243 347.882 503.322 347.957 503.322 348.054V348.054C503.322 348.209 503.108 348.32 502.97 348.249C502.889 348.207 502.807 348.159 502.726 348.078V348.078C502.99 347.286 502.459 346.465 501.626 346.524C501.321 346.546 501.036 346.581 500.756 346.639C500.612 346.668 500.465 346.691 500.319 346.679C500.17 346.666 500.04 346.639 499.926 346.601C498.88 346.253 497.947 345.628 497.149 346.388C497.032 346.5 496.912 346.608 496.788 346.711C496.651 346.825 496.541 346.908 496.614 347.07V347.07C496.66 347.171 496.823 347.296 496.933 347.315C497.889 347.484 498.984 347.515 499.547 348.078C500.739 349.07 501.733 348.276 502.726 348.078ZM511.669 353.239C512.066 350.658 512.066 350.658 514.649 350.658V350.658C515.656 350.658 514.623 349.586 513.654 349.313C511.849 348.806 510.138 347.485 507.927 347.861C507.421 347.947 507.101 348.421 507.068 348.934C507.055 349.131 507.039 349.328 507.023 349.529C506.952 350.384 508.029 350.721 508.636 350.115V350.115C508.953 349.798 509.359 349.828 509.72 350.094C510.891 350.955 511.498 351.878 511.669 353.239C511.073 353.041 510.675 352.644 510.079 352.445V352.445C509.061 352.106 509.864 353.402 510.931 353.284C511.19 353.256 511.438 353.239 511.669 353.239ZM288.903 -48.5688V-48.5688C289.751 -47.7219 289.567 -46.9917 288.595 -46.2918C288.377 -46.1353 288.153 -45.9717 287.909 -45.7894C286.32 -44.3997 284.928 -42.8117 283.537 -41.422C282.146 -40.2309 280.954 -38.4442 279.364 -38.0471C277.377 -37.4516 277.178 -35.2678 275.589 -34.4738C275.24 -34.2415 274.959 -33.8055 274.667 -33.4042C274.282 -32.8751 273.668 -32.6066 273.112 -32.2615C272.25 -31.7264 271.746 -30.9814 271.477 -30.1499C271.123 -29.0522 270.617 -27.9533 269.642 -27.3371C269.582 -27.2996 269.523 -27.262 269.463 -27.2244C267.119 -25.7391 267.764 -21.9287 270.483 -22.4859V-22.4859C270.713 -22.5331 270.923 -22.6219 271.139 -22.7144C271.43 -22.8388 271.721 -22.9063 272.012 -22.7609C274.396 -21.5698 276.582 -22.7609 278.967 -22.9594C280.755 -23.1579 282.544 -23.3565 284.332 -22.5625C285.723 -21.9669 287.313 -21.7683 288.903 -22.3639C291.486 -23.158 294.07 -23.158 296.653 -22.5625C297.845 -22.1654 299.236 -21.9668 300.429 -22.9594V-22.9594C301.718 -23.8181 303.326 -23.0222 304.872 -23.1237C306.413 -23.2249 307.892 -23.952 309.371 -23.952C310.762 -23.952 311.954 -24.7462 313.544 -24.7462C314.935 -24.7462 316.326 -24.9447 317.717 -25.3417C318.91 -25.7387 320.102 -25.9373 321.493 -25.5403C321.659 -25.4988 321.851 -25.466 322.057 -25.4509C323.801 -25.3228 324.911 -27.3269 326.66 -27.3269V-27.3269C328.448 -27.3269 330.237 -27.7239 332.025 -27.9225V-27.9225C333 -27.9225 333.552 -29.0834 334.34 -29.6574C334.486 -29.7636 334.639 -29.8515 334.807 -29.9077C335.658 -30.0776 336.327 -30.4295 336.891 -30.8855C338.22 -31.9587 340.099 -32.2059 341.564 -33.0841V-33.0841C342.557 -33.8782 343.948 -34.6723 345.141 -34.4738C347.724 -34.2752 349.513 -35.4664 351.5 -36.459C353.686 -37.6501 356.269 -38.2456 358.654 -39.2382C360.244 -39.8338 361.635 -40.2308 362.628 -41.2234C363.026 -41.6205 363.622 -42.216 364.218 -42.216C364.305 -42.216 364.39 -42.2191 364.471 -42.2252C366.03 -42.3427 366.893 -44.0567 368.205 -44.9059C368.718 -45.2375 369.294 -45.532 369.981 -45.7894C371.173 -46.1865 372.167 -47.1791 373.16 -47.9732C374.551 -49.1644 375.943 -50.3555 377.334 -51.3481C379.917 -52.9363 380.712 -55.12 379.718 -57.8993C379.52 -58.4949 379.718 -58.8919 379.917 -59.289C380.911 -61.0757 380.712 -61.4727 379.122 -62.8623V-62.8623C377.763 -63.9488 378.637 -66.2551 377.524 -67.593C376.538 -68.7781 375.383 -69.7659 373.558 -70.0091V-70.0091C372.773 -70.0091 372.272 -70.9044 371.532 -71.1654C371.055 -71.3334 370.551 -71.3988 369.981 -71.3988C368.192 -71.3988 366.404 -71.3987 364.615 -71.5972V-71.5972C363.129 -71.5972 361.765 -72.1942 360.302 -72.4524C358.868 -72.7054 357.38 -72.619 355.889 -72.2903C355.612 -72.2294 355.288 -72.0791 355.006 -72.0496V-72.0496C354.592 -72.006 354.295 -72.3025 353.898 -72.4301C352.463 -72.8913 350.911 -72.5421 349.513 -72.1929C347.724 -71.7958 346.134 -72.3914 344.545 -72.1929C344.472 -72.1929 344.426 -72.1663 344.387 -72.1326C344.243 -72.008 344.053 -71.9798 343.864 -71.9508C341.688 -71.6163 339.517 -71.2819 337.47 -70.9474C337.106 -70.8879 336.777 -71.1747 336.959 -71.4955V-71.4955C337.123 -71.7843 337.009 -72.2478 336.677 -72.2565C336.206 -72.2688 335.775 -72.2109 335.411 -72.0451C334.654 -71.6995 333.731 -71.359 332.902 -71.439C332.535 -71.4744 332.165 -71.3858 331.765 -71.1048C331.672 -71.0393 331.578 -70.9729 331.479 -70.9179C328.878 -69.4832 325.783 -69.0372 323.145 -67.6776C322.837 -67.5186 322.615 -67.2772 322.27 -67.2409V-67.2409C322.056 -67.2184 321.784 -67.2133 321.572 -67.1751C320.522 -66.9857 319.651 -66.7071 319.108 -65.4431C318.91 -64.8475 317.916 -64.252 317.32 -64.252C314.737 -64.252 313.346 -62.8624 311.756 -61.2742C310.166 -59.4875 308.377 -58.0978 305.993 -57.5022C304.602 -57.1052 303.608 -56.5096 302.615 -55.7155C301.422 -54.7229 300.23 -53.7303 298.839 -53.1347C296.065 -51.9938 295.569 -51.9234 294.27 -50.3968C293.646 -49.663 292.76 -49.2873 291.857 -49.6236V-49.6236C291.058 -49.9213 290.034 -49.8943 289.415 -49.3077C289.172 -49.0777 288.995 -48.8445 288.903 -48.5688C288.354 -48.3861 287.764 -48.2454 287.15 -48.1081C285.935 -47.8361 285.408 -45.8228 286.558 -46.2998V-46.2998C286.691 -46.355 286.769 -46.436 286.869 -46.5392C287.59 -47.2811 288.159 -48.0117 288.903 -48.5688ZM418.178 336.635C417.523 337.512 416.627 338.381 415.532 338.405C415.329 338.409 415.115 338.395 414.892 338.35C413.699 338.151 412.706 337.754 411.514 337.556C410.526 337.274 409.438 336.992 408.393 337.208C407.573 337.376 407.376 338.062 408.211 338.119V338.119C408.311 338.126 408.382 338.166 408.476 338.202C409.025 338.412 409.574 338.763 410.123 338.946C411.097 339.27 411.939 339.993 412.974 339.92C413.469 339.886 413.967 339.629 414.384 339.897V339.897C414.6 340.035 414.795 340.223 415.033 340.319C415.516 340.512 415.999 340.421 416.482 339.938V339.938C417.23 339.19 418.41 339.377 419.466 339.44C420.364 339.493 421.223 339.661 421.847 340.534C422.244 341.129 423.039 341.129 423.437 340.534C423.834 339.938 423.437 339.343 422.841 338.946C422.472 338.7 422.103 338.455 421.688 338.209C421.351 338.01 421.442 337.457 421.798 337.294V337.294C422.163 337.127 422.124 336.642 421.768 336.457C420.802 335.956 419.996 335.755 419.292 335.974C419 336.065 418.677 336.145 418.443 336.343C418.353 336.419 418.265 336.518 418.178 336.635ZM788.625 367.192C787.92 366.946 787.112 367.071 786.466 367.444V367.444C786.344 367.514 786.231 367.55 786.095 367.585C785.399 367.766 784.84 367.947 784.115 368.128C783.398 368.271 782.888 368.724 782.585 369.263C782.356 369.671 782.174 370.116 782.098 370.577C782.049 370.874 782.086 371.153 782.242 371.392C782.551 371.865 783.217 371.861 783.773 371.761C784.595 371.613 785.456 371.427 786.283 371.274C786.822 371.175 787.16 370.574 786.999 370.049V370.049C786.836 369.518 787.181 369.029 787.734 368.969C787.997 368.94 788.259 368.916 788.521 368.889C789.216 368.816 789.896 368.13 789.412 367.626C789.216 367.422 788.935 367.301 788.625 367.192ZM525.92 351.248C527.367 351.43 528.608 349.597 527.149 349.636V349.636C526.968 349.641 526.878 349.681 526.697 349.683C526.142 349.687 525.839 349.483 525.627 349.187C524.977 348.283 524.05 347.999 523.248 348.771V348.771C522.366 349.619 523.088 350.942 524.305 351.066C524.852 351.121 525.388 351.181 525.92 351.248ZM689.494 359.664C689.388 359.743 689.322 359.867 689.376 359.989V359.989C689.471 360.202 689.713 360.386 689.946 360.386C690.737 360.386 691.527 360.386 692.318 360.386C692.442 360.386 692.566 360.398 692.687 360.423C692.737 360.433 692.787 360.443 692.836 360.454C694.034 360.703 694.659 359.978 693.498 359.592V359.592C693.323 359.534 693.148 359.441 692.973 359.325C692.132 358.764 691.097 358.508 690.272 359.093C690.013 359.277 689.753 359.47 689.494 359.664ZM514.26 342.072C515.706 342.543 515.994 340.289 514.48 340.147C514.405 340.14 514.329 340.137 514.252 340.137C513.855 340.137 513.258 340.732 513.258 340.931C513.258 341.045 513.39 341.357 513.54 341.601C513.7 341.861 513.969 341.977 514.26 342.072V342.072ZM702.137 359.553C703.034 359.851 702.85 358.29 701.91 358.383V358.383C701.23 358.451 701.331 359.24 701.966 359.491C702.023 359.513 702.08 359.534 702.137 359.553ZM395.97 332.96C396.522 332.383 396.33 331.362 395.616 331.005V331.005V331.005C394.935 330.664 393.945 330.868 393.933 331.63C393.926 332.123 394.235 332.522 394.821 332.99C395.214 333.383 395.521 333.43 395.97 332.96ZM476.893 346.291C477.225 346.954 478.15 346.954 478.482 346.291V346.291C478.795 345.667 478.616 345.288 478.236 344.961C478.016 344.773 477.778 344.554 477.489 344.554V344.554C477.199 344.554 476.944 344.763 476.776 345C476.515 345.369 476.585 345.83 476.893 346.291V346.291ZM469.131 349.278C469.658 349.109 469.753 348.437 469.302 348.114C468.881 347.812 468.605 347.837 468.289 348.264C467.896 348.796 468.501 349.48 469.131 349.278V349.278ZM365.756 331.941C365.914 332.575 366.812 332.65 367.233 332.151V332.151C367.625 331.687 367.309 331.046 366.714 330.928C366.655 330.916 366.597 330.905 366.54 330.895C366.031 330.804 365.601 331.229 365.709 331.735C365.723 331.803 365.739 331.871 365.756 331.941ZM732.216 366.621C732.832 366.069 731.722 365.131 730.941 365.403V365.403C730.236 365.648 730.594 366.61 731.328 366.747C731.74 366.824 732.03 366.788 732.216 366.621ZM401.258 336.605C401.835 336.481 401.884 335.679 401.467 335.261V335.261C401.372 335.167 401.313 335.149 401.183 335.116C400.754 335.009 400.347 335.041 400.116 335.44C399.998 335.643 399.997 335.893 400.117 336.096C400.185 336.211 400.272 336.33 400.358 336.419C400.483 336.549 400.667 336.619 400.847 336.636C400.97 336.649 401.107 336.637 401.258 336.605ZM409.985 340.931C409.471 340.931 409.141 341.572 409.561 341.868C409.952 342.143 410.162 342.096 410.403 341.781C410.671 341.429 410.427 340.931 409.985 340.931V340.931ZM22.4142 -158.956C22.3967 -159.291 21.8999 -159.398 21.6518 -159.172V-159.172C21.6319 -159.154 21.6159 -159.134 21.6014 -159.111C21.2444 -158.555 21.2375 -157.999 21.742 -157.443C21.7921 -157.388 21.8643 -157.359 21.9388 -157.359V-157.359C22.094 -157.359 22.2213 -157.485 22.2435 -157.638C22.2961 -158.003 22.4185 -158.437 22.4185 -158.748C22.4185 -158.804 22.4185 -158.874 22.4142 -158.956ZM484.872 346.011C484.255 345.889 483.869 346.634 484.473 346.81C484.649 346.861 484.838 346.886 485.04 346.886C485.091 346.886 485.143 346.873 485.19 346.854C485.368 346.781 485.435 346.578 485.369 346.398C485.369 346.395 485.368 346.393 485.367 346.39C485.296 346.197 485.074 346.05 484.872 346.011V346.011ZM187.754 151.676C187.754 151.291 187.191 151.192 187.212 151.576C187.218 151.685 187.244 151.791 187.298 151.893C187.429 152.144 187.754 151.958 187.754 151.676V151.676ZM760.007 365.609C759.702 365.908 759.614 366.488 760.038 366.543C760.237 366.569 760.432 366.556 760.63 366.507C761.355 366.326 761.01 365.3 760.285 365.484C760.252 365.493 760.218 365.502 760.185 365.511C760.109 365.534 760.064 365.553 760.007 365.609V365.609ZM264.593 -31.9879C264.042 -31.8551 263.673 -30.9224 264.2 -30.7141V-30.7141C264.282 -30.6818 264.304 -30.684 264.391 -30.6713C264.966 -30.5876 265.653 -31.141 265.653 -31.6944C265.653 -31.8929 265.454 -32.0915 265.255 -32.0915C265.075 -32.0915 264.855 -32.0508 264.593 -31.9879ZM884.311 375.725C884.405 375.693 884.469 375.597 884.469 375.498V375.498C884.469 375.37 884.365 375.275 884.238 375.275C883.719 375.275 883.199 375.275 882.68 375.275C882.481 375.275 882.283 375.672 882.283 375.871C882.283 375.965 882.372 376.059 882.487 376.132C882.72 376.279 883.006 376.201 883.262 376.098C883.572 375.974 883.938 375.849 884.311 375.725ZM594.833 353.934C594.656 353.668 594.289 353.532 594.033 353.725C593.86 353.856 593.74 354.014 593.74 354.232C593.74 354.328 593.833 354.47 593.929 354.592C594.054 354.75 594.253 354.823 594.442 354.751C594.494 354.731 594.55 354.708 594.609 354.682C594.902 354.552 595.011 354.2 594.833 353.934V353.934ZM520.574 351.205C521.005 351.095 520.954 350.377 520.691 350.019V350.019C520.478 349.73 520.185 349.846 519.888 350.049C519.874 350.059 519.859 350.069 519.845 350.079C519.692 350.186 519.614 350.366 519.602 350.552C519.579 350.926 519.586 351.358 520.112 351.275C520.18 351.264 520.248 351.255 520.317 351.25C520.403 351.242 520.488 351.227 520.574 351.205ZM641.98 352.098C642.069 352.008 642.112 351.789 642.006 351.721C641.711 351.528 641.416 351.267 641.12 351.1C641.071 351.072 641.009 351.083 640.968 351.123V351.123C640.904 351.187 640.921 351.297 640.998 351.344C641.268 351.511 641.538 351.744 641.808 351.919C641.913 351.988 641.89 352.187 641.98 352.098V352.098ZM181.496 94.5562C181.571 94.99 182.197 94.885 182.424 94.5073C182.484 94.4057 182.545 94.3034 182.601 94.197C182.707 93.9948 182.47 93.7024 182.262 93.6071V93.6071C182.167 93.5632 182.134 93.599 182.043 93.6526C181.64 93.8908 181.434 94.192 181.496 94.5562ZM504.689 350.465C504.858 350.479 505.207 350.389 505.271 350.232C505.294 350.175 505.31 350.119 505.31 350.063C505.31 350.006 505.277 349.965 505.226 349.932C505.047 349.814 504.624 350.019 504.562 350.225C504.557 350.241 504.552 350.257 504.548 350.273C504.52 350.374 504.585 350.456 504.689 350.465V350.465ZM355.965 -22.8704C356.325 -22.6416 357.065 -22.7666 357.116 -23.1902V-23.1902C357.136 -23.3551 357.049 -23.4556 356.93 -23.5722C356.743 -23.7571 356.408 -23.952 356.269 -23.952C356.07 -23.952 355.673 -23.3565 355.673 -23.158C355.673 -23.0682 355.795 -22.9785 355.965 -22.8704ZM748.711 361.652C748.661 361.48 748.437 361.48 748.277 361.561C748.191 361.605 748.104 361.645 748.017 361.714C747.97 361.751 747.945 361.81 747.96 361.867C747.962 361.875 747.964 361.882 747.966 361.889C748.023 362.072 748.397 362.106 748.568 362.02V362.02C748.674 361.967 748.748 361.877 748.733 361.76C748.728 361.724 748.721 361.688 748.711 361.652ZM501.371 343.4C501.473 343.625 501.801 343.795 502.029 343.701C502.034 343.699 502.038 343.697 502.043 343.695C502.217 343.622 502.224 343.399 502.118 343.243C502.031 343.118 501.945 342.981 501.858 342.866C501.789 342.773 501.743 342.715 501.637 342.762V342.762C501.454 342.845 501.244 343.127 501.329 343.309C501.344 343.34 501.358 343.37 501.371 343.4ZM387.469 331.229C387.483 331.875 388.859 332.048 388.859 331.402V331.402C388.859 331.203 388.462 330.806 388.263 330.806C388.065 330.806 387.468 331.005 387.468 331.203C387.468 331.212 387.468 331.221 387.469 331.229ZM397.007 335.968C397.181 335.968 397.065 335.749 396.909 335.671C396.853 335.643 396.796 335.614 396.74 335.595C396.67 335.571 396.599 335.673 396.568 335.74V335.74C396.52 335.848 396.613 335.968 396.732 335.968C396.823 335.968 396.915 335.968 397.007 335.968V335.968ZM412.035 334.975C412.125 334.915 412.129 334.736 412.032 334.688C411.956 334.65 411.88 334.611 411.804 334.591C411.746 334.576 411.689 334.602 411.647 334.644L411.574 334.716C411.535 334.755 411.508 334.81 411.529 334.86C411.554 334.921 411.608 334.957 411.677 335C411.768 335.057 411.945 335.035 412.035 334.975V334.975ZM572.421 351.332C572.338 351.393 572.339 351.511 572.394 351.598C572.474 351.725 572.513 351.852 572.614 351.979C572.651 352.025 572.71 352.05 572.768 352.035C572.802 352.026 572.837 352.013 572.872 351.998C573.017 351.934 573.073 351.601 572.974 351.477V351.477C572.875 351.353 572.565 351.229 572.436 351.321C572.431 351.325 572.426 351.329 572.421 351.332ZM480.855 346.08C480.892 346.117 480.897 346.094 480.948 346.082C481.044 346.06 481.139 346.004 481.234 345.959C481.314 345.921 481.356 345.787 481.294 345.724V345.724C481.275 345.706 481.25 345.695 481.223 345.695C481.139 345.695 481.053 345.695 480.949 345.695C480.772 345.695 480.73 345.955 480.855 346.08V346.08ZM491.561 347.946C491.649 348.217 492.1 348.232 492.352 348.098V348.098C492.432 348.056 492.419 348.034 492.436 347.946C492.513 347.527 492.174 346.886 491.995 346.886C491.862 346.886 491.728 347.066 491.655 347.244C491.595 347.39 491.514 347.549 491.516 347.707C491.516 347.779 491.533 347.86 491.561 347.946ZM31.1261 -182.011C31.2179 -181.92 31.4391 -181.85 31.5574 -181.904C31.7481 -181.99 31.9572 -182.03 31.9572 -182.174C31.9572 -182.251 31.9572 -182.328 31.9455 -182.406C31.911 -182.633 31.6195 -182.645 31.4285 -182.517C31.3588 -182.47 31.2873 -182.423 31.2195 -182.376C31.0872 -182.285 31.0124 -182.125 31.1261 -182.011V-182.011ZM295.562 -10.6718C295.703 -10.4259 296.166 -10.5264 296.246 -10.7984V-10.7984C296.284 -10.9292 296.2 -10.903 296.119 -11.0127C296.033 -11.1286 295.947 -11.2645 295.862 -11.3885C295.759 -11.5367 295.48 -11.4642 295.352 -11.3368V-11.3368C295.253 -11.2374 295.304 -11.1617 295.368 -11.0363C295.433 -10.9087 295.498 -10.785 295.562 -10.6718ZM489.254 346.916C489.303 346.808 489.216 346.64 489.11 346.587C489.039 346.551 488.968 346.516 488.897 346.499C488.846 346.487 488.795 346.51 488.758 346.547V346.547C488.68 346.625 488.679 346.752 488.759 346.827C488.867 346.929 488.976 347.017 489.084 347.059C489.152 347.085 489.224 346.982 489.254 346.916V346.916ZM810.942 370.074C810.942 370 810.881 369.921 810.808 369.91C810.79 369.907 810.773 369.903 810.758 369.897C810.662 369.858 810.544 369.964 810.544 370.067V370.067C810.544 370.132 810.597 370.117 810.661 370.11C810.67 370.11 810.679 370.108 810.687 370.107C810.805 370.085 810.942 370.194 810.942 370.074V370.074ZM177.76 111.44C177.792 111.44 177.818 111.414 177.818 111.382V111.382C177.818 111.33 177.755 111.304 177.719 111.34V111.34C177.682 111.377 177.708 111.44 177.76 111.44V111.44ZM269.031 -30.1063C269.031 -30.1063 269.031 -30.1063 269.031 -30.1063C269.031 -30.2061 268.981 -30.3059 268.931 -30.4057C268.853 -30.5612 268.633 -30.5033 268.633 -30.5033V-30.5033C268.633 -30.5033 268.633 -30.5033 268.633 -30.5033C268.633 -30.4035 268.684 -30.3037 268.734 -30.2039C268.734 -30.2039 269.031 -30.1063 269.031 -30.1063V-30.1063ZM858.594 370.949C858.626 370.917 858.609 370.881 858.577 370.849L858.494 370.767C858.457 370.73 858.405 370.706 858.356 370.725C858.308 370.744 858.254 370.783 858.241 370.866C858.236 370.892 858.248 370.918 858.267 370.937L858.296 370.966C858.348 371.017 858.542 371.001 858.594 370.949V370.949ZM899.969 371.9C899.969 372.074 899.745 372.297 899.571 372.297V372.297V372.297C899.791 372.297 899.969 372.119 899.969 371.9V371.9V371.9ZM189.741 133.277C189.57 133.277 189.398 133.129 189.227 133.089C189.175 133.077 189.124 133.099 189.087 133.137V133.137C189.009 133.214 189.01 133.34 189.07 133.432C189.089 133.46 189.105 133.487 189.12 133.511C189.206 133.648 189.347 133.53 189.457 133.412C189.533 133.332 189.637 133.277 189.741 133.277ZM816.398 373.4C816.461 373.444 816.551 373.444 816.605 373.389V373.389C816.66 373.334 816.66 373.245 816.605 373.19L816.564 373.149C816.527 373.112 816.475 373.087 816.425 373.104C816.302 373.149 816.276 373.29 816.109 373.29C816.215 373.29 816.322 373.347 816.398 373.4ZM279.662 298.25C279.717 298.248 279.762 298.204 279.762 298.149V298.149C279.762 298.095 279.717 298.05 279.662 298.05C279.634 298.05 279.6 298.05 279.563 298.05C279.453 298.05 279.364 298.139 279.364 298.249C279.364 298.298 279.364 298.348 279.364 298.447C279.364 298.282 279.502 298.254 279.662 298.25ZM860.745 373.705C860.534 373.8 860.673 374.186 860.893 374.259C860.908 374.264 860.923 374.269 860.938 374.272C860.989 374.284 861.04 374.262 861.078 374.224V374.224C861.155 374.147 861.154 374.021 861.094 373.929C861.005 373.794 860.967 373.687 860.821 373.687C860.795 373.687 860.77 373.693 860.745 373.705ZM900.934 374.948C901.011 374.905 901.054 374.771 900.991 374.708V374.708C900.973 374.69 900.948 374.679 900.922 374.684C900.871 374.692 900.777 374.716 900.673 374.788C900.609 374.832 900.609 374.922 900.664 374.977L900.67 374.983C900.722 375.034 900.805 375.033 900.865 374.991C900.888 374.974 900.912 374.96 900.934 374.948ZM413.426 341.75C413.272 341.801 413.374 341.985 413.452 342.127C413.477 342.172 413.498 342.216 413.521 342.261C413.612 342.441 413.898 342.522 413.898 342.32V342.32C413.898 342.32 413.898 342.32 413.898 342.32C413.898 342.191 413.898 342.061 413.843 341.932C413.779 341.783 413.58 341.699 413.426 341.75V341.75ZM635.67 358.599L635.472 358.401L635.67 358.599ZM503.448 352.198C503.529 352.146 503.443 352.048 503.347 352.048C503.286 352.048 503.225 352.048 503.165 352.048C503.076 352.048 503.032 352.155 503.095 352.217V352.217C503.113 352.236 503.139 352.247 503.165 352.246C503.275 352.246 503.381 352.241 503.448 352.198ZM567.112 351.593C567.112 351.541 567.049 351.515 567.012 351.552V351.552C566.976 351.588 567.002 351.651 567.054 351.651V351.651C567.086 351.651 567.112 351.625 567.112 351.593V351.593ZM526.374 347.879C526.301 347.879 526.264 347.968 526.316 348.02V348.02C526.348 348.052 526.4 348.052 526.432 348.019V348.019C526.484 347.968 526.447 347.879 526.374 347.879V347.879ZM467.852 346.591C467.903 346.532 467.906 346.445 467.851 346.39V346.39C467.796 346.335 467.707 346.335 467.652 346.39V346.39C467.597 346.445 467.597 346.534 467.652 346.589C467.76 346.696 467.792 346.728 467.95 346.886C467.793 346.729 467.76 346.696 467.852 346.591Z"
              fill="white"
              fill-opacity="0.08"
            />
          </svg>