<svg width="360" height="526" viewBox="0 0 360 526" fill="none" xmlns="http://www.w3.org/2000/svg">
<path d="M-399.553 10.5559C-398.302 10.9211 -397.835 12.9377 -397.144 14.0422C-396.891 14.4456 -396.417 14.7583 -395.952 14.8568C-394.648 15.1323 -393.397 15.5648 -391.722 14.7282C-390.53 14.1326 -388.741 14.3312 -387.151 14.5297C-386.012 14.5297 -384.881 14.7899 -384.335 13.7891C-384.185 13.5131 -384.035 13.2353 -383.884 12.9492C-383.691 12.5813 -383.311 12.3463 -382.899 12.3989C-382.731 12.4202 -382.55 12.4472 -382.356 12.4781C-381.701 12.5827 -381.499 13.3909 -382.092 13.6896C-382.17 13.729 -382.216 13.7672 -382.276 13.8305C-382.886 14.4674 -382.942 14.8444 -382.443 15.3082C-382.289 15.4518 -382.179 15.5258 -381.983 15.4485C-381.685 15.3312 -381.2 15.2718 -380.926 15.4359C-379.456 16.3146 -377.839 16.2974 -376.222 16.1179C-375.435 16.1179 -375.935 14.6608 -376.479 14.0924C-376.587 13.9801 -376.66 13.8541 -376.71 13.6992C-376.954 12.9449 -376.063 12.2834 -375.275 12.3742C-374.913 12.416 -374.558 12.4639 -374.235 12.5445C-372.198 12.9144 -370.334 13.8011 -368.322 13.5998C-368.023 13.5699 -367.716 13.518 -367.437 13.6293C-367.141 13.7476 -366.835 13.9702 -366.5 14.2382C-365.641 14.9243 -364.636 15.0953 -363.653 14.6042C-362.669 14.113 -361.386 14.1819 -360.389 14.6447C-359.655 14.9855 -358.864 15.1578 -357.939 14.9267C-357.528 14.7898 -357.023 14.9362 -356.488 15.1054C-356.002 15.2589 -355.509 15.4666 -355.02 15.6081C-354.578 15.7357 -354.135 15.6784 -353.69 15.563C-352.921 15.3634 -352.151 15.1253 -351.382 15.1253C-350.388 15.1253 -349.395 15.7208 -348.401 15.7208C-343.83 16.1179 -339.061 15.9193 -334.49 15.7208C-333.099 15.7208 -331.708 15.9193 -330.914 16.7134C-329.92 17.5075 -329.324 17.5076 -328.33 17.309C-326.831 16.8098 -326.011 19.7382 -324.547 19.1456C-324.516 19.1331 -324.485 19.12 -324.454 19.1063C-323.195 18.5403 -322.058 17.3325 -320.776 17.8441C-320.393 17.9968 -320.031 18.1871 -319.679 18.391C-318.461 19.096 -317.05 19.2893 -315.662 19.058C-314.813 18.9164 -313.99 18.8075 -313.227 18.6986C-311.904 18.5098 -310.582 19.0393 -309.259 18.2378C-309.12 18.1536 -309.004 18.0313 -308.849 17.9829C-308.455 17.8598 -308.062 18.1873 -307.666 18.3031C-305.252 19.0085 -302.682 18.5002 -300.112 18.5002C-298.522 18.5002 -297.528 19.2942 -296.137 19.6913C-295.343 19.8898 -294.548 19.6913 -293.951 19.8898C-293.614 19.974 -293.313 20.0582 -293.017 20.1423C-292.24 20.3636 -291.799 21.0367 -291.326 21.6922C-291.235 21.8185 -291.132 21.9476 -291.014 22.0489C-290.526 22.4658 -289.58 22.4273 -289.58 22.0735C-289.381 20.4854 -288.189 20.4854 -286.996 20.4854C-286.201 20.4854 -285.407 20.4853 -284.612 20.6839C-280.836 21.4779 -277.06 21.875 -273.285 21.875C-271.099 21.875 -268.714 22.2721 -266.528 23.4632C-265.137 24.4558 -263.348 24.2573 -262.156 23.4632C-260.169 22.0736 -258.38 22.0735 -256.393 23.0661C-255.002 23.8602 -253.413 24.0587 -251.823 23.6617C-250.388 23.3033 -248.971 24.2384 -247.519 24.5191C-247.108 24.5985 -246.692 24.6538 -246.273 24.6871C-244.678 24.8137 -243.041 24.4653 -241.489 24.8528C-238.906 25.2499 -236.521 25.4484 -233.938 25.2499C-233.298 25.1433 -232.715 25.3227 -232.036 25.7574C-230.679 26.6262 -229.056 26.8385 -227.496 26.4331C-227.116 26.3343 -226.727 26.2663 -226.329 26.2425C-225.291 26.1804 -224.861 26.9693 -225.79 27.4336C-226.479 27.7774 -226.549 28.8123 -225.841 29.1137C-225.592 29.2195 -225.365 29.2758 -225.159 29.255C-225.048 29.2438 -224.939 29.2157 -224.828 29.2083C-222.391 29.0442 -220.3 29.4173 -218.046 30.3276C-217.911 30.3822 -217.854 30.4157 -217.708 30.4094C-217.232 30.389 -216.816 29.8776 -216.981 29.4307C-217.211 28.8063 -217.709 28.3826 -218.237 27.9813C-218.37 27.8804 -218.501 27.7725 -218.58 27.6258C-218.597 27.5951 -218.613 27.5628 -218.629 27.5295C-218.832 27.0981 -218.73 26.5478 -218.313 26.3166C-217.896 26.0858 -217.394 26.2347 -216.92 26.2745C-216.157 26.3384 -215.367 26.489 -214.463 26.6395C-213.438 26.8103 -213.294 26.8342 -212.768 25.5742C-212.58 25.1239 -212.197 24.7669 -211.711 24.72C-210.968 24.6482 -210.264 24.7484 -209.576 24.9751C-209.019 25.1588 -209.102 25.8215 -209.68 25.9184C-210.015 25.9746 -210.324 25.7543 -210.562 25.5119C-210.703 25.368 -210.891 25.3367 -211.184 25.4181C-211.251 25.4364 -211.299 25.4323 -211.356 25.47C-211.652 25.6637 -211.517 26.3308 -211.177 26.4276C-211.146 26.4363 -211.116 26.441 -211.085 26.441C-210.539 26.441 -210.03 26.6679 -209.568 26.9591C-209.288 27.1355 -208.922 27.1417 -208.502 27.0366C-208.195 26.9599 -207.26 26.7657 -207.067 27.0165C-206.844 27.3065 -206.609 27.6091 -206.352 27.9323C-206.216 28.1049 -205.975 28.16 -205.781 28.0554C-205.737 28.0315 -205.692 28.0069 -205.648 27.9813C-205.26 27.7575 -204.701 27.8375 -204.475 28.2245C-204.44 28.2848 -204.404 28.3471 -204.367 28.4114C-204.125 28.8351 -203.575 28.9776 -203.161 28.7178C-203.087 28.671 -203.012 28.6242 -202.935 28.5775C-202.412 28.2605 -202.213 27.5818 -202.552 27.0739C-202.618 26.9742 -202.686 26.8745 -202.754 26.7741C-203.311 25.9557 -202.841 24.8742 -201.853 24.9277C-199.031 25.0804 -196.403 26.3225 -193.969 25.5391C-193.099 25.2591 -191.575 25.5842 -192.282 26.1629C-192.38 26.2429 -192.456 26.2808 -192.558 26.3561C-192.871 26.5884 -193.156 26.7922 -193.439 26.9941C-194.165 27.5123 -195.092 27.6497 -195.942 27.3803C-196.037 27.3503 -196.132 27.3209 -196.227 27.292C-198.101 26.7274 -198.734 28.8233 -196.777 28.8233C-195.376 28.8233 -193.975 29.3106 -192.669 28.6628C-192.055 28.3581 -191.269 28.3779 -190.909 28.9615C-190.738 29.2398 -190.425 29.4304 -190.099 29.4529C-187.092 29.6599 -184.085 30.0252 -181.078 30.2129C-179.545 30.3831 -177.866 29.678 -176.291 30.0985C-175.759 30.2406 -175.108 30.602 -174.719 30.2129C-174.602 30.0955 -174.414 29.9781 -174.24 29.8195C-173.99 29.5925 -173.928 29.1998 -174.072 28.8949C-174.19 28.6455 -174.453 28.5702 -174.71 28.4716C-175.288 28.2507 -175.865 28.0735 -176.443 28.1348C-177.048 28.1991 -177.579 28.5927 -178.185 28.6596C-178.87 28.7353 -179.526 28.5277 -180.085 27.8307C-180.231 27.648 -180.37 27.5594 -180.507 27.5353C-181.877 27.2935 -182.994 27.079 -181.674 26.6395C-180.879 26.441 -179.886 26.2425 -179.091 26.441C-177.899 26.6396 -176.706 26.8381 -175.713 27.2351C-174.52 27.6322 -173.527 27.8307 -172.335 27.2351C-171.738 26.8381 -170.546 26.8381 -170.148 27.2351C-168.559 28.8233 -166.572 28.0292 -164.783 28.6247C-163.377 29.0931 -162.133 28.5223 -160.724 28.0619C-160.686 28.0497 -160.648 28.0388 -160.61 28.0292C-160.509 27.9955 -160.408 27.9676 -160.306 27.9444C-159.276 27.71 -158.358 27.0966 -157.692 26.2766C-157.493 26.0322 -157.273 26.0162 -156.962 25.9686C-155.887 25.8042 -154.719 25.698 -153.853 26.044C-153.018 26.4612 -152.183 26.6835 -151.28 26.6428C-150.468 26.6063 -149.698 26.2425 -148.885 26.2425C-147.609 26.2425 -146.332 27.4129 -144.902 26.5314C-144.637 26.3678 -144.378 26.2036 -144.092 26.3273C-143.995 26.3691 -143.872 26.4687 -143.781 26.5217C-143.031 26.9582 -142.281 27.2919 -141.531 27.6936C-141.225 27.8572 -141.198 28.3174 -141.301 28.648C-141.344 28.7828 -141.278 28.88 -141.176 28.977C-140.634 29.4892 -140.107 29.8511 -139.744 30.2129C-139.356 30.601 -140.106 31.7477 -139.027 31.9847C-138.976 31.9958 -138.952 31.9994 -138.9 31.9997C-138.378 32.0024 -137.729 31.8418 -137.422 31.4196C-137.322 31.282 -137.23 31.1445 -137.161 31.007C-137.029 30.7431 -136.985 30.4792 -136.911 30.2736C-136.847 30.0921 -136.611 29.9885 -136.422 29.9467C-136.203 29.8979 -136.065 30.0978 -135.88 30.2244C-134.215 31.3609 -132.541 31.1596 -130.698 30.26C-130.635 30.2292 -130.594 30.2072 -130.549 30.1539C-130.234 29.7848 -130.578 29.1972 -131.058 29.1237C-131.069 29.1219 -131.081 29.1201 -131.093 29.1183C-131.54 29.0494 -131.877 28.5796 -131.716 28.1575C-131.358 27.2243 -130.969 27.2216 -129.196 27.865C-128.673 28.0547 -128.49 28.7359 -128.599 29.2811C-128.627 29.4237 -128.585 29.4886 -128.505 29.6101C-128.289 29.9388 -127.956 30.245 -127.622 30.4115C-127.225 30.61 -126.827 30.4114 -126.43 30.6099C-124.287 31.502 -124.07 31.5924 -122.894 31.4575C-122.61 31.4249 -122.356 31.2921 -122.223 31.0391C-122.137 30.8766 -122.027 30.7183 -121.955 30.5493C-121.37 29.1778 -120.599 28.8458 -119.475 29.2203C-118.481 29.6174 -117.289 30.0144 -116.295 30.4115C-113.988 31.3719 -111.68 31.5889 -109.373 30.5228C-109.219 30.4519 -109.046 30.4122 -108.925 30.2945C-108.829 30.2014 -108.679 30.1879 -108.554 30.1401C-106.429 29.3254 -106.167 29.2952 -105.322 31.4646C-105.102 32.029 -105.335 32.5641 -105.763 32.9922C-106.067 33.2959 -106.041 33.8554 -105.789 34.2034C-105.187 35.0351 -104.37 35.5059 -103.438 35.7649C-103.017 35.8819 -102.79 36.3837 -103.122 36.6671C-103.402 36.9056 -103.453 37.3893 -103.123 37.5506C-101.897 38.1491 -100.551 38.1234 -99.2052 37.9553C-98.2243 37.9553 -97.5081 38.7547 -96.5271 38.7638C-96.2828 38.7661 -96.0328 38.7332 -95.7793 38.702C-94.8878 38.5925 -93.8791 38.7887 -93.2436 38.1538C-93.0908 38.0011 -93.4083 37.6134 -93.6535 37.2619C-93.7862 37.0715 -93.8399 36.8418 -93.8399 36.6097C-93.8399 36.4491 -93.8657 36.2894 -93.9168 36.137C-94.0811 35.6474 -94.2453 35.1752 -94.4096 34.8328C-94.4267 34.7971 -94.4285 34.7534 -94.4529 34.7223C-94.4633 34.7089 -94.4784 34.6997 -94.4969 34.6934C-94.6928 34.627 -95.2357 35 -95.0957 35.1523C-95.0541 35.1976 -95.0079 35.2006 -94.9633 35.243C-94.9225 35.2816 -94.8801 35.3203 -94.8364 35.3589C-94.4041 35.7411 -94.6259 36.2966 -95.2028 36.2813C-95.5581 36.2719 -95.9071 36.2879 -96.2244 36.3671C-96.4316 36.4016 -96.6389 36.4241 -96.845 36.4336C-98.3576 36.5031 -98.5338 34.6901 -97.457 33.6257C-97.0695 33.2428 -96.524 32.9467 -95.9793 32.956C-94.372 32.9833 -93.0129 33.591 -91.6539 34.7789C-91.1009 35.1932 -90.4518 35.6075 -89.8403 36.0218C-89.3491 36.3546 -88.9877 37.1539 -89.4854 37.4771C-90.3165 38.0167 -90.7157 38.6909 -89.9229 39.2854C-89.1833 39.8399 -88.2711 40.0375 -87.282 39.5434C-86.1611 38.9835 -85.5671 39.4764 -84.6744 40.0323C-84.5591 40.1041 -84.4951 40.1679 -84.3708 40.2224C-83.795 40.4753 -83.0908 39.9885 -82.9736 39.3707C-82.7578 38.2328 -83.1936 37.2622 -83.5064 36.1686C-83.7945 35.0174 -82.0719 35.3593 -81.3457 36.2978C-80.5981 37.2641 -79.7134 37.9779 -78.312 37.8496C-77.9871 37.8199 -77.6057 38.1439 -77.49 38.4489C-77.3591 38.7936 -77.6603 38.9225 -78.0281 38.897C-79.5633 38.7908 -79.97 38.8586 -80.8994 39.6254C-81.2998 39.9557 -81.2433 40.7346 -80.7242 40.7346C-78.5383 40.9331 -76.3524 40.7346 -74.3652 41.1316C-73.2389 41.4129 -72.5116 41.0963 -71.8299 40.6761C-71.3021 40.3507 -70.8508 39.6344 -71.3224 39.2319C-71.5701 39.0206 -71.9115 38.9621 -72.193 38.8413C-72.4539 38.7294 -72.5252 38.2785 -72.2632 38.1691C-72.2042 38.1445 -72.1486 38.143 -72.0872 38.1251C-71.5031 37.9548 -70.7581 37.9452 -70.1921 37.7567C-68.6023 37.1612 -67.2113 37.3597 -66.019 38.5508C-65.9704 38.5993 -65.8981 38.6241 -65.8108 38.6339C-65.3591 38.6845 -65.1605 38.0598 -65.2204 37.6094C-65.2279 37.553 -65.2324 37.53 -65.2471 37.4751C-65.6053 36.1369 -65.2041 35.3705 -64.2305 35.176C-62.6407 34.7789 -60.8522 34.3819 -59.2625 34.3819C-57.7458 34.1925 -56.229 35.0872 -54.7123 35.5146C-54.5672 35.5555 -54.3453 35.5887 -54.2199 35.6723C-54.0945 35.7558 -54.0557 35.8365 -53.9814 35.9677C-53.4713 36.8684 -53.261 37.5847 -52.7047 37.9553C-51.9782 38.3181 -51.3255 38.0914 -50.7466 37.6793C-50.0957 37.2158 -49.1038 37.2467 -48.4095 37.6423C-48.1219 37.8062 -47.9916 37.6481 -47.6931 37.5054C-47.0784 37.2116 -46.4637 37.1429 -45.8491 37.1625C-44.2001 37.2148 -42.7447 39.0923 -44.1597 39.9405C-44.9546 40.5361 -44.3584 41.9257 -43.3648 41.9257C-43.2914 41.9257 -43.2091 41.9197 -43.121 41.9092C-42.1765 41.7961 -41.6498 40.5727 -40.9191 39.9635C-39.8984 39.1124 -38.3044 40.2942 -36.9797 40.4C-36.1578 40.4657 -35.2247 40.483 -34.6758 41.0981C-34.1487 41.6886 -33.6121 42.2694 -32.7733 42.5484C-32.1214 42.7652 -31.5008 42.3651 -31.2764 41.7158C-31.1241 41.2752 -30.7885 40.8561 -30.3251 40.8066C-30.0845 40.7809 -29.8455 40.7283 -29.653 40.536C-28.262 39.3449 -26.871 39.742 -26.0761 41.1316C-25.7155 41.8522 -25.2094 41.7736 -24.6899 41.7309C-24.0355 41.6771 -23.689 42.3156 -23.8188 42.9593C-23.84 43.0638 -23.8629 43.1702 -23.8873 43.2779C-24.0044 43.7956 -23.8602 44.34 -23.4823 44.7127C-23.1243 45.0657 -22.7342 45.4432 -22.3119 45.8321C-21.8439 46.2632 -21.0969 46.0165 -21.1675 45.3841C-21.2155 44.9557 -20.9464 44.4482 -20.5153 44.4568C-19.8018 44.4711 -19.1469 44.6497 -18.5507 44.9608C-18.0859 45.2033 -17.9799 45.7489 -18.3508 46.1195C-18.7217 46.49 -18.7724 47.1874 -18.3842 47.5398C-18.1874 47.7185 -17.9946 47.8855 -17.7918 48.022C-17.0667 48.5104 -16.6248 47.5289 -17.0756 46.7798C-17.4818 46.1048 -17.0697 45.3142 -16.2999 45.1466C-15.9072 45.0611 -15.5092 44.9805 -15.1018 44.8963C-14.0792 44.6848 -13.3018 45.3567 -12.5631 46.0947C-12.2831 46.3744 -11.8058 46.6541 -11.3398 46.7256C-10.9637 46.7832 -10.5837 46.6671 -10.2166 46.5671C-9.73547 46.436 -9.2785 46.2511 -8.81567 46.0572C-7.91473 45.6798 -6.84607 45.7699 -5.9491 46.1565C-4.69989 46.6949 -3.31256 46.6137 -2.15271 45.9029C-2.10175 45.8717 -2.05103 45.841 -2.00049 45.8109C-1.63275 45.592 -1.20477 45.3898 -0.834595 45.6046C-0.673035 45.6984 -0.523254 45.8142 -0.441223 45.8961C-0.242493 46.0947 -0.639893 46.4917 -0.639893 46.8887C-0.639893 47.2396 -0.681396 47.6367 -0.33313 47.679C0.700134 47.8042 1.48846 47.1801 2.14227 46.6902C3.06592 45.9213 3.98956 45.748 4.91321 45.8936C5.43921 45.9764 5.80634 46.34 6.10199 46.7829C6.32196 47.1125 6.72125 47.3275 7.10992 47.4046C7.60138 47.502 8.10229 47.5994 8.63629 47.6968C9.33624 47.8245 10.0846 47.9382 10.6388 48.3844C10.7436 48.4688 10.8303 48.5643 10.8859 48.6754C12.277 51.2562 14.6617 51.6533 17.0463 52.0503C18.4374 52.2488 19.8283 52.8444 21.4181 51.6533C22.8091 50.4621 23.604 50.8592 25.1938 52.4473C25.5912 52.8444 26.1874 53.0429 26.3861 53.0429C28.3484 52.7979 29.8779 54.4076 31.8514 54.5343C32.5081 54.5764 33.1506 54.7344 33.7388 55.0281C34.9056 55.6942 35.9326 56.7794 37.0544 57.8149C37.457 58.1866 38.0317 58.2984 38.5585 58.1476C38.7113 58.1038 38.8655 58.0601 39.0168 58.0163C39.4224 57.8991 39.8675 58.0479 40.0906 58.4062C40.1661 58.5272 40.2415 58.653 40.3169 58.7861C40.596 59.2789 41.2877 59.3581 41.5842 58.8756C41.7503 58.6054 42.097 58.4665 42.4061 58.5381C42.7968 58.6285 43.1804 58.7262 43.3804 59.0073C43.4626 59.1229 43.5097 59.2626 43.5897 59.3797C44.1536 60.2059 44.519 59.5126 45.0132 59.2615C45.2869 59.1225 45.5905 59.291 45.8336 59.4784C46.3836 59.9023 47.0044 60.4093 47.642 60.9995C47.944 61.279 47.8946 61.7358 47.5525 61.9644C47.2756 62.1494 47.1295 62.6398 47.3325 62.9038C47.3635 62.9442 47.4008 62.969 47.4506 62.969C48.0468 62.969 48.8416 62.7705 49.4377 62.969C53.1947 64.2682 53.5894 64.6227 55.5115 64.1851C57.5047 63.7313 59.4991 64.0724 61.3606 64.9171C61.7576 65.0972 62.1732 65.2036 62.6091 65.2067C63.4337 65.2127 64.3084 65.0094 65.421 64.8473C65.8827 64.7801 66.1864 64.7655 66.5746 65.0243C67.4285 65.5934 68.6776 65.6801 69.6851 65.4852C70.9781 65.235 72.3292 65.6395 73.8804 66.3438C76.0663 67.3365 78.451 67.9321 80.6369 69.1232C83.6813 70.6439 86.7258 71.9826 89.7703 73.6621C90.0397 73.8107 90.3583 73.9883 90.6346 74.1238C90.8017 74.2058 90.7839 74.3794 90.827 74.5605C91.3142 76.6035 93.0142 75.8729 94.3486 75.8729C94.4282 75.8729 94.5237 75.8729 94.6273 75.8745C95.3904 75.8863 95.917 76.4615 96.5806 76.8385C96.8499 76.9915 97.144 77.0844 97.4631 77.1084C97.9038 77.1416 98.3688 77.0027 98.7413 77.2405C99.0533 77.4397 99.2194 77.8179 99.4722 78.0884C101.121 79.8521 103.828 79.9687 105.676 81.63C106.043 81.9966 106.748 82.194 107.324 82.3784C107.417 82.4082 107.514 82.4242 107.612 82.424C107.729 82.4237 107.847 82.4228 107.964 82.4198C108.53 82.405 109.065 83.0239 109.055 83.5905C109.052 83.781 109.128 83.8911 109.243 84.0435C109.379 84.2241 109.514 84.4093 109.65 84.4093C111.836 84.4093 113.426 85.9975 115.413 86.5931C116.208 86.7916 117.003 87.9827 117.4 88.7768C118.195 90.762 120.182 91.5561 121.971 92.1517C124.554 92.9458 126.541 94.1369 128.131 96.5192C129.125 98.1073 131.311 99.0999 133.099 100.093C134.093 100.688 134.689 101.085 135.285 102.078C135.881 103.269 136.477 104.46 138.067 104.659C138.266 104.659 138.464 104.857 138.663 105.056C141.644 108.033 144.625 110.813 147.407 113.791C148.798 115.18 150.388 116.173 151.381 118.158C152.176 119.746 153.17 121.136 154.561 122.526C155.753 123.518 156.548 125.305 157.542 126.496C159.529 129.077 161.119 132.253 163.702 134.437C164.1 134.834 164.298 135.628 164.497 136.224C164.894 137.415 165.49 138.407 166.484 139.003C167.676 139.598 168.471 140.392 168.67 141.584C168.698 141.683 168.734 141.778 168.775 141.869C169.753 144.046 170.755 146.669 172.247 148.532C173.638 150.12 174.036 151.907 174.632 153.693C175.026 154.874 176.242 155.614 176.811 156.721C176.852 156.8 176.89 156.879 176.925 156.959C177.182 157.538 177.328 158.16 177.522 158.762C178.13 160.646 178.544 162.53 179.401 164.414C180.395 166.399 181.189 168.384 181.786 170.568C182.87 173.818 184.018 177.512 185.212 180.723C185.359 181.12 185.535 181.509 185.76 181.883C186.555 183.273 187.151 185.06 187.35 186.648C188.145 190.618 188.741 194.787 189.337 198.956C189.706 200.432 188.106 201.578 188.17 203.098C188.2 203.786 188.444 204.523 188.542 205.309C188.741 206.699 189.536 207.89 188.542 209.478C188.25 209.915 188.494 210.566 188.801 211.352C189.017 211.903 188.874 212.522 188.455 212.94C187.845 213.549 187.991 214.368 188.593 214.985C188.8 215.197 188.94 215.458 188.94 215.831C188.94 217.419 189.536 219.404 188.94 220.794C188.829 221.098 188.764 221.387 188.736 221.664C188.433 224.623 191.503 227.59 190.331 230.323C189.734 232.109 189.536 233.698 190.132 235.881C190.39 236.525 190.23 238.254 189.869 239.606C189.558 240.767 188.343 241.628 188.343 242.83C188.343 243.622 188.282 244.415 188.072 245.18C187.831 246.059 187.549 246.973 187.549 247.793C187.549 248.984 188.542 250.175 188.741 251.565C188.94 252.359 188.741 253.748 188.343 254.145C186.952 255.337 188.343 256.925 187.549 258.116C186.754 259.307 186.356 260.3 186.754 261.689C187.243 263.155 185.72 264.531 185.166 265.974C185.082 266.193 185.012 266.417 184.965 266.652C184.93 266.757 184.898 266.864 184.869 266.972C184.298 269.074 186.63 270.482 186.157 272.608C185.876 274.295 183.985 275.175 183.625 276.847C183.207 278.786 182.678 280.701 181.587 282.335C181.189 283.13 181.189 284.122 181.189 284.916C181.189 285.061 181.242 285.179 181.31 285.291C181.473 285.562 181.887 285.768 182.157 285.602C182.439 285.429 182.898 285.519 182.96 285.844C183.074 286.439 183.026 287.018 182.183 287.298C181.557 287.455 181.177 287.858 180.947 288.411C180.819 288.719 180.727 289.044 180.588 289.347C179.561 291.579 178.661 294.272 178.048 296.652C178.032 296.711 178.02 296.769 178.01 296.828C177.811 298.217 177.215 299.408 176.619 300.798C176.023 302.386 175.029 303.974 175.625 305.96C175.776 306.715 175.352 307.585 174.966 308.395C174.754 308.84 174.81 309.334 175.219 309.609C175.663 309.909 175.93 310.48 175.788 310.997C175.477 312.127 175.06 313.228 173.638 313.702C171.85 314.297 171.253 315.886 171.452 317.474C171.452 318.79 171.452 320.107 170.776 321.424C170.701 321.571 170.594 321.704 170.526 321.855C170.307 322.344 170.696 322.851 170.926 323.334C171.298 324.115 171.198 324.897 170.982 325.678C170.724 326.614 169.84 326.606 168.869 326.606C168.074 326.606 167.875 327.201 167.677 327.797C167.08 329.782 166.484 331.767 165.888 333.753C165.49 335.142 164.894 336.73 164.1 338.12C162.963 340.229 162.092 342.338 161.269 344.447C160.925 345.326 161.255 346.966 161.923 346.298C162.057 346.164 162.149 345.972 162.215 345.794C162.54 344.914 162.751 344.034 163.263 343.153C163.29 343.107 163.323 343.063 163.364 343.028C163.4 342.998 163.44 342.967 163.482 342.936C163.786 342.715 164.523 342.862 164.358 343.201C164.323 343.271 164.284 343.32 164.256 343.393C163.733 344.756 163.067 345.978 162.383 347.314C162.208 347.655 161.909 347.921 161.532 347.992C161.448 348.007 161.364 348.022 161.281 348.036C160.724 348.129 160.391 348.655 160.498 349.21C160.55 349.475 160.601 349.73 160.653 349.987C160.772 350.582 160.082 351.026 159.51 350.823C159.146 350.694 158.816 350.902 158.661 351.256C157.771 353.295 157.441 353.643 154.238 356.238C153.881 356.528 154.164 356.917 154.164 357.377C153.965 359.163 153.965 361.149 152.375 362.141C152.13 362.305 151.927 362.476 151.752 362.653C150.536 363.88 149.753 365.48 148.745 366.882C148.267 367.547 147.768 368.19 147.23 368.83C147.084 369.003 146.944 369.235 146.787 369.399C146.43 369.774 146.165 370.156 145.996 370.646C145.253 372.791 143.647 374.235 142.042 375.839C141.445 376.435 140.849 377.229 140.65 378.023C140.054 380.802 137.67 382.39 135.881 384.376C134.888 385.368 134.093 386.559 133.497 387.949C133.433 388.076 133.368 388.2 133.3 388.322C132.289 390.156 132.436 393.124 134.49 392.714C136.08 392.317 137.67 393.111 139.061 392.714C140.65 392.317 142.041 392.713 143.631 392.515C144.641 392.403 145.713 392.481 146.813 392.605C148.459 392.792 149.485 394.425 151.135 394.573C151.499 394.606 151.943 394.415 152.245 394.209C152.508 394.028 152.801 393.829 153.17 393.706C155.671 392.745 156.31 392.901 157.791 395.434C157.89 395.604 157.963 395.745 158.138 395.835C158.232 395.883 158.39 395.9 158.494 395.904C159.464 395.94 159.44 394.869 159.891 394.251C160.088 393.982 160.503 394.12 160.693 394.394C161.132 395.029 162.475 396.527 163.173 396.199C163.714 395.944 164.441 396.341 164.784 396.83C165.155 397.358 165.811 397.544 166.388 397.764C167.186 398.068 168.144 398.673 168.872 398.228C169.498 397.847 169.861 397.291 170.227 396.801C170.493 396.445 170.861 396.122 171.305 396.138C172.149 396.169 172.76 397.043 173.241 396.882C174.83 396.287 175.824 397.081 177.016 397.677C178.209 398.272 179.798 398.272 180.991 398.868C182.779 399.662 184.568 400.257 186.555 400.456C187.66 400.613 188.764 400.896 189.869 401.205C190.368 401.344 190.88 401.149 191.228 400.766C191.502 400.464 191.965 400.341 192.356 400.457C193.919 400.918 195.628 401.184 197.48 400.888C197.615 400.866 197.723 400.85 197.86 400.856C198.274 400.874 198.716 401.093 199 401.394C199.441 401.86 199.779 402.588 200.664 402.441C201.459 402.243 202.453 402.044 203.247 402.044C204.217 402.044 205.106 402.582 206.052 402.792C206.972 402.995 207.892 403.171 208.812 403.434C209.607 403.632 210.401 403.831 210.998 404.228C211.087 404.287 211.158 404.374 211.219 404.477C211.994 405.784 213.254 405.419 214.773 405.419C216.562 405.617 218.35 404.625 219.94 405.816C220.458 406.161 220.975 406.206 221.493 405.952C221.655 405.872 221.812 405.777 221.987 405.729C222.68 405.541 223.279 405.749 223.859 406.204C224.123 406.412 224.138 406.892 223.89 407.119C223.771 407.227 223.65 407.268 223.539 407.385C223.217 407.722 222.981 408.059 223.318 408.397C223.332 408.411 223.348 408.425 223.366 408.439C223.892 408.851 224.663 408.488 225.28 408.232C226.816 407.592 228.571 407.598 229.907 408.589C230.764 409.225 231.581 409.834 232.459 410.382C233.056 410.779 233.652 410.978 234.248 410.779C238.045 409.917 240.943 411.901 244.114 413.477C244.846 413.842 245.113 414.782 244.636 415.447C244.272 415.955 244.291 416.694 244.786 417.077C244.882 417.152 244.978 417.218 245.074 417.274C245.142 417.314 245.215 417.343 245.289 417.368C246.432 417.752 247.395 418.143 248.357 418.72C249.096 419.142 249.948 419.452 250.822 419.679C252.334 420.073 253.88 420.327 255.354 420.842C256.815 421.352 258.305 421.829 259.883 421.698C261.473 421.698 263.062 422.69 264.255 423.881C265.122 424.575 266.293 425.268 267.501 425.961C267.828 426.149 268.03 426.347 268.03 426.724C268.03 427.086 268.212 427.587 268.551 427.715C269.146 427.939 269.722 427.914 270.313 427.784C271.67 427.485 273.221 428.016 274.07 429.117C274.858 430.141 275.551 431.24 276.63 430.531C276.938 430.328 277.287 430.175 277.732 430.181C278.022 430.185 278.297 430.298 278.553 430.432C280.827 431.62 283.241 433.33 285.12 435.396C287.049 437.515 288.978 438.513 291.634 437.843C291.796 437.803 291.896 437.778 292.062 437.778C292.538 437.778 293.071 437.963 293.307 438.376C293.743 439.139 294.017 440.05 295.255 440.359C297.732 440.854 299.53 442.755 301.694 444.058C302.366 444.462 302.965 445.042 303.403 445.917C303.514 446.139 303.812 446.362 304.157 446.549C304.689 446.838 305.285 447.145 305.753 447.528C306.266 447.946 306.92 447.971 307.5 448.29C308.917 449.072 309.828 450.45 311.153 451.277C312.683 452.233 314.581 452.452 315.607 453.883C315.688 453.996 315.791 454.128 315.893 454.222C316.145 454.453 316.471 454.554 316.775 454.714C318.274 455.499 320.008 455.831 321.089 457.63C321.884 459.02 323.871 459.814 325.262 461.005C326.057 461.6 326.852 462.395 327.845 462.792C328.839 463.189 329.634 463.784 330.031 464.777C330.378 465.469 330.951 465.989 331.519 466.514C332.684 467.59 333.643 468.899 334.602 470.335C335.794 472.122 337.781 473.313 339.57 474.703C342.352 476.887 344.538 479.269 346.128 482.247C346.266 482.524 346.405 482.826 346.561 483.118C347.118 484.162 348.285 484.71 348.992 485.66C349.156 485.88 349.301 486.111 349.429 486.353C350.043 487.511 350.482 488.746 350.897 489.989C351.377 491.108 351.728 492.098 352.158 493.167C352.371 493.697 352.554 494.277 352.716 494.825C352.992 495.766 353.736 496.429 354.184 497.3C354.722 498.346 354.844 499.578 355.269 500.709C355.631 501.797 355.166 503.38 356.443 504.101C356.703 504.248 357.057 504.381 357.057 504.68C357.238 508.648 358.895 512.452 358.451 516.39C358.361 517.19 357.889 518.055 358.249 518.775C359.044 520.562 359.442 522.348 358.249 524.333C358.051 524.73 358.448 525.326 358.448 525.922C358.249 527.51 358.448 529.495 357.653 530.885C355.865 534.061 356.064 537.237 356.064 540.612C356.064 542.092 355.302 543.453 354.783 544.839C354.413 545.827 354.111 546.827 353.878 547.759C353.083 550.141 352.685 552.722 351.493 554.707C349.903 557.288 349.704 560.067 348.512 562.648C347.518 564.633 347.519 566.817 346.326 568.604C345.929 569.199 345.929 570.39 345.73 571.184C345.333 572.574 345.134 573.964 343.942 574.956C343.383 575.514 343.281 576.341 343.192 577.125C343.103 577.907 343.015 578.66 342.749 579.324C342.352 580.118 340.961 580.515 340.961 581.706C340.961 583.096 340.166 583.89 339.371 584.684C337.781 586.471 336.788 588.456 335.993 590.64C335.53 591.718 335.187 592.917 334.22 593.678C333.619 594.15 332.758 594.323 332.416 595.007C331.422 597.389 329.435 599.176 327.646 600.963C326.255 602.352 324.864 603.742 323.473 605.132C322.082 606.521 320.691 608.308 318.903 609.102C318.505 609.301 318.307 609.499 317.909 609.896C317.344 610.602 316.728 611.183 316.062 611.638C313.876 613.131 311.628 614.643 310.159 616.844C309.762 617.44 309.166 618.036 308.569 618.433C307.178 619.425 305.787 620.616 304.595 622.006C303.204 623.991 301.018 624.984 299.031 626.175C297.242 627.168 295.255 627.962 294.46 630.145C294.4 630.266 294.303 630.386 294.187 630.501C293.657 631.022 292.956 631.338 292.284 631.657C291.988 631.798 291.774 632.062 291.61 632.345C291.179 633.087 290.824 633.95 289.492 634.116C288.499 634.116 287.704 635.307 286.71 635.903C283.133 637.491 279.755 639.476 276.377 641.064C274.787 641.858 272.998 642.454 271.409 643.248C270.216 643.844 269.223 644.638 268.03 645.035C266.242 645.829 264.453 646.623 262.665 647.02C259.883 647.615 257.101 647.615 254.12 648.012C252.729 648.211 251.536 648.012 250.344 648.608C249.351 649.005 248.158 649.204 247.165 648.211C246.992 648.039 246.37 648.165 245.819 648.072C245.654 648.044 245.505 647.975 245.349 647.914C244.587 647.612 244.228 646.922 243.812 646.216C243.219 645.214 242.055 644.84 241.004 644.241C240.209 643.844 240.011 643.049 240.408 642.255C241.203 640.072 242.992 639.277 244.979 638.483C245.276 638.335 245.572 638.236 245.87 638.172C249.342 637.434 252.604 636.809 254.915 634.116C256.107 632.925 257.299 632.131 259.287 632.726C259.993 632.928 260.801 632.976 261.608 632.948C263.113 632.897 264.591 632.568 265.844 631.734C267.037 630.94 268.229 630.146 269.421 629.351C270.432 628.791 271.443 628.23 272.597 627.919C273.817 627.591 275.344 625.915 275.969 624.817C276.372 624.111 277.007 623.568 277.809 623.429C279.335 623.164 280.093 622.618 281.345 621.212C282.224 620.333 283.225 619.811 284.251 619.109C285.197 618.462 285.854 617.498 286.511 616.448C286.909 615.852 287.505 615.256 288.3 614.859C289.414 614.303 289.686 612.952 290.682 612.205C291.928 611.271 292.796 609.888 294.063 608.904C294.172 608.794 294.282 608.564 294.325 608.346C294.383 608.049 294.175 607.78 294.062 607.499C293.624 606.41 294.268 606.035 295.004 605.669C295.371 605.487 295.89 605.684 296.092 606.041C296.319 606.444 296.78 606.484 297.152 606.209C297.228 606.153 297.305 606.096 297.385 606.04C297.816 605.736 297.969 605.146 297.64 604.735C297.635 604.728 297.629 604.722 297.624 604.715C297.303 604.314 297.363 603.433 297.873 603.492C297.983 603.505 298.094 603.549 298.205 603.553C299.236 603.589 300.142 603.219 301.015 602.76C303.378 601.516 305.938 600.219 307.607 598.134C307.735 597.974 307.861 597.812 307.984 597.647C308.111 597.477 308.229 597.368 308.29 597.165C308.461 596.592 307.994 596.046 307.837 595.468C307.795 595.314 307.864 595.161 308.172 595.007C308.569 594.809 309.165 594.809 309.563 594.809C310.4 594.809 310.944 594.417 311.262 593.771C311.474 593.341 311.147 592.902 310.679 593.01C310.016 593.161 309.419 592.403 309.868 591.892C311.616 589.902 313.173 588.225 314.73 586.669C314.837 586.562 315.06 586.513 315.305 586.459C315.692 586.374 315.922 586.08 315.922 585.684C315.922 585.003 316.567 584.418 317.24 584.518C317.515 584.559 317.796 584.606 318.108 584.684C319.127 584.83 319.613 584.762 319.956 583.934C320.21 583.321 319.738 582.699 319.076 582.699C318.295 582.699 317.713 581.869 318.131 581.209C318.481 580.657 318.872 580.167 319.355 579.776C319.986 579.266 320.539 578.619 320.749 577.835C320.979 576.975 321.341 576.165 321.935 575.508C322.03 575.403 322.121 575.293 322.204 575.179C322.357 574.968 322.53 574.758 322.705 574.548C323.151 574.011 324.217 573.921 323.981 574.578C323.951 574.66 323.912 574.739 323.869 574.815C323.748 575.031 323.733 575.288 323.87 575.495C323.874 575.501 323.878 575.508 323.883 575.514C323.99 575.675 324.167 575.751 324.36 575.751C324.658 575.751 324.938 575.569 325.047 575.292C325.266 574.74 325.475 574.188 325.64 573.635C325.795 573.119 325.567 572.575 325.142 572.244C325.091 572.204 325.04 572.165 324.991 572.127C324.684 571.893 324.467 571.518 324.467 571.132C324.467 571.023 324.485 570.933 324.519 570.829C324.699 570.284 324.865 569.725 324.865 569.001C325.063 567.016 325.659 565.427 326.653 563.641C328.044 561.06 328.839 558.082 329.833 555.303C330.429 553.318 331.621 551.729 331.82 549.546C331.82 549.362 331.99 549.136 332.212 548.887C332.635 548.413 333.472 548.391 333.888 548.871C334.22 549.255 334.728 549.347 335.136 549.047C335.289 548.934 335.442 548.828 335.595 548.752C337.855 547.623 337.438 545.603 337.727 543.705C337.758 543.496 337.791 543.312 337.77 543.102C337.737 542.758 337.416 542.53 337.133 542.334C335.694 541.338 336.225 539.899 336.589 538.627C337.185 536.642 336.986 534.458 338.377 532.87C338.771 532.477 338.472 531.805 338.438 531.25C338.333 529.474 339.475 528.071 340.166 526.517C340.563 525.326 341.16 524.532 340.762 522.944C340.483 521.968 340.889 520.895 341.225 519.793C341.506 518.872 341.954 517.951 341.954 516.988C341.756 514.407 341.557 511.827 341.16 509.246C340.961 507.658 340.563 506.069 339.769 504.878C338.974 503.489 339.371 502.099 338.377 500.709C336.986 498.526 335.794 495.945 334.999 493.364C334.801 492.57 334.204 491.379 333.608 491.18C331.82 490.585 331.224 488.996 330.23 487.805C329.038 486.416 328.044 484.828 326.255 484.232C324.804 483.749 324.663 481.678 323.473 480.718C323.347 480.617 323.215 480.529 323.076 480.46C320.493 478.872 318.505 476.291 315.922 474.703C315.326 474.306 314.531 473.909 314.134 473.313C313.14 471.527 311.55 470.534 309.762 469.541C308.172 468.747 306.98 467.159 305.39 466.167C303.999 465.372 302.608 464.975 301.415 463.784C298.633 461.005 295.255 459.218 291.678 457.432C290.883 457.035 290.088 456.439 289.492 455.843C288.3 454.851 286.909 454.255 285.716 453.263C284.524 452.27 283.332 451.277 281.941 450.682C281.015 450.22 280.301 449.414 279.509 448.749C279.01 448.33 278.519 447.925 277.966 447.704C275.979 447.109 274.191 446.116 272.601 444.726C271.011 443.337 268.825 442.741 267.235 441.748C264.851 439.962 262.069 438.969 259.485 437.579C257.269 436.472 254.349 435.51 252.133 434.403C251.562 434.118 251.093 433.73 250.506 433.608C250.009 433.505 249.152 433.72 249.152 433.212C248.953 430.83 247.165 431.425 245.774 431.028C243.389 430.234 240.806 429.639 238.421 428.646C237.624 428.327 236.826 427.753 235.927 427.128C235.505 426.836 235.087 426.754 234.603 426.922C234.008 427.129 233.261 426.869 232.904 426.351C232.762 426.147 232.609 425.96 232.434 425.816C231.573 425.109 230.131 425.29 229.301 424.546C228.439 423.773 227.522 423.108 226.451 422.753C225.113 422.309 223.652 422.044 222.254 421.866C221.132 421.722 219.991 421.706 219.145 421.102C217.555 420.11 215.767 419.712 214.177 419.117C212.19 418.521 210.004 418.124 208.017 417.33C206.03 416.536 203.844 416.139 201.658 415.742C200.863 415.544 200.068 415.345 199.472 415.345C198.983 415.345 198.543 415.32 198.152 415.22C196.569 414.811 196.251 412.432 194.669 412.017C193.879 411.81 192.953 411.954 191.92 412.367C191.015 412.82 190.033 412.793 189.021 412.76C187.214 412.701 185.274 413.095 183.574 412.169C182.779 411.772 181.786 411.573 180.991 411.375C180.481 411.205 179.97 411.035 179.46 410.865C179.289 410.808 179.113 410.722 178.968 410.615C178.172 410.03 177.161 409.716 176.213 409.992C175.492 410.202 174.759 410.314 174.036 410.237C172.812 410.107 171.56 409.779 170.333 409.686C168.043 409.512 165.796 408.483 163.305 408.794C162.51 408.992 161.516 408.595 160.721 408.397C155.603 407.217 149.873 407.442 144.857 405.882C144.32 405.715 143.78 405.555 143.234 405.419C140.452 404.823 137.67 404.823 135.086 403.434C133.696 402.739 132.217 402.947 130.697 402.623C130.25 402.528 129.733 402.568 129.125 402.838C128.131 403.235 126.939 402.64 125.746 402.243C122.368 401.25 119.983 402.044 117.798 404.823C117.4 405.419 117.201 406.014 116.605 406.411C113.227 408.794 110.842 411.97 108.259 414.948C107.894 415.386 107.394 415.717 106.879 416.038C105.23 417.068 103.514 418.507 102.702 420.273C102.581 420.537 102.456 420.846 102.34 421.112C102.326 421.145 102.311 421.177 102.296 421.21C101.952 421.955 101.072 422.177 100.397 422.643C100.1 422.848 99.8362 423.085 99.5988 423.348C99.0848 423.919 98.6779 424.581 98.1431 425.132C96.064 427.274 93.5033 428.917 91.5665 431.028C90.5729 432.021 89.5792 432.815 88.7844 434.006C87.7908 435.594 86.0023 436.587 84.4125 437.579C83.8163 437.976 83.2203 438.175 82.6241 438.572C82.5117 438.636 82.3994 438.702 82.2872 438.768C79.8163 440.241 77.4667 442.536 75.0726 444.131C73.2841 445.123 71.297 445.719 69.5085 446.91C66.329 448.697 63.3482 450.483 60.3674 452.469C59.7712 452.866 59.175 453.064 58.5789 453.263C55.598 454.057 53.2134 455.446 51.4249 458.027C50.6301 459.218 49.6365 459.814 48.0467 459.814C47.7446 459.814 47.4836 459.587 47.1823 459.608C45.4667 459.727 44.3412 461.434 42.88 461.799C41.0915 461.998 39.5018 462.395 37.912 463.586C36.1235 464.975 33.9376 465.968 31.5529 466.365C30.5593 466.564 29.5657 466.961 28.5721 467.159C27.1199 467.522 25.684 466.712 24.1874 466.735C23.4133 466.747 22.6412 466.945 21.8156 467.358C21.4181 467.556 20.822 467.556 20.2258 467.556C17.2449 467.755 14.2642 467.953 11.4821 467.953C9.69354 467.953 8.10388 467.953 6.31537 468.35C5.12305 468.747 3.53333 468.946 2.14227 467.755C1.54608 467.358 0.353638 467.556 -0.441223 467.755C-1.43481 467.953 -2.42841 468.152 -3.422 467.755C-5.01178 467.358 -6.6015 466.365 -8.39001 467.358C-9.4964 467.91 -10.7858 466.811 -11.981 466.494C-14.5659 465.806 -17.1754 465.062 -19.9158 464.578C-22.4991 464.181 -24.0889 462.593 -25.8774 461.204C-26.871 460.409 -27.8646 459.615 -28.8582 458.821C-31.507 456.931 -32.8565 453.937 -35.1001 451.58C-35.1979 451.477 -35.3029 451.376 -35.416 451.277C-36.2014 450.493 -36.4902 449.336 -36.3803 448.199C-36.3297 447.674 -36.4932 447.166 -36.9894 446.988C-37.4332 446.829 -37.7953 446.393 -37.8077 445.922C-37.8124 445.74 -37.8205 445.555 -37.8339 445.365C-37.8871 444.612 -38.5489 444.133 -39.1458 443.671C-39.4694 443.421 -39.6835 443.064 -39.7878 442.542C-39.9866 440.954 -40.1853 439.168 -40.1853 437.579C-40.1853 437.493 -40.1853 437.402 -40.1841 437.309C-40.1701 436.241 -39.4401 435.362 -38.958 434.41C-37.0623 430.663 -35.3895 426.364 -32.1646 423.676C-31.9279 423.478 -31.6862 423.283 -31.4416 423.087C-29.9794 421.809 -29.3578 420.027 -27.7214 418.977C-27.4311 418.791 -27.1861 418.661 -27.1133 418.324C-26.9845 417.727 -26.5953 417.158 -26.0536 416.877C-25.3325 416.502 -24.6113 416.174 -23.8902 415.742C-23.4927 415.544 -23.0953 415.146 -22.8966 415.345C-21.1081 416.735 -20.9093 414.948 -20.1144 413.955C-19.1208 412.764 -18.1273 411.573 -16.5375 410.978C-15.7054 410.645 -15.0127 410.173 -14.4593 409.446C-14.2392 409.156 -14.0297 408.838 -13.692 408.703C-13.6115 408.671 -13.5262 408.645 -13.4386 408.626C-13.2558 408.587 -13.0672 408.573 -12.886 408.527C-11.7852 408.246 -11.6218 408.129 -11.8168 407.114C-11.8862 406.752 -11.619 406.287 -11.2565 406.222C-11.1886 406.21 -11.1387 406.226 -11.074 406.249C-9.53284 406.816 -8.35706 406.991 -6.80017 406.213C-5.21039 405.419 -3.422 405.022 -1.63348 404.625C-0.441162 404.426 -0.242432 402.838 1.34735 403.434C2.53967 403.831 2.93713 402.243 3.73199 401.647C5.91791 400.059 8.50134 398.669 11.0847 398.074C12.8732 397.677 14.4629 396.684 16.4501 396.882C17.0463 396.882 17.6424 396.485 18.2386 396.287C18.8201 396.055 19.4696 395.754 20.1473 395.625C21.1151 395.44 22.3109 395.991 23.0079 395.294C24.2003 393.905 25.9887 393.706 27.5785 393.706C29.6766 393.545 31.7746 393.384 33.7662 392.584C34.5967 392.251 35.5485 392.387 36.2416 392.953C36.3114 393.01 36.382 393.065 36.453 393.119C36.6233 393.248 36.9077 393.285 37.1056 393.204C37.2902 393.13 37.37 393.02 37.4829 392.856C38.444 391.458 39.6118 390.927 41.4889 390.927C44.0723 390.927 46.8544 390.53 49.4377 389.736C51.4249 389.14 53.6108 388.545 55.598 387.552C56.1942 387.155 57.3865 387.155 58.1814 387.353C60.9635 388.148 64.1431 387.552 66.7264 389.339C67.3226 389.736 68.515 389.537 69.3098 389.14C70.3034 388.545 71.0983 388.743 71.8931 388.743C72.4893 388.743 73.2842 388.545 73.6817 388.148C74.2549 387.46 75.0266 387.5 75.7678 387.466C76.7323 387.422 77.7595 387.173 78.6487 387.55C79.3549 387.849 80.2516 387.925 80.9674 387.65C82.6997 386.984 84.6491 386.704 86.5985 387.353C87.5921 387.75 88.387 386.758 89.5793 387.155C91.964 387.751 94.3486 387.353 96.7332 388.148C97.8087 388.455 99.0031 388.524 100.132 388.081C100.755 387.837 101.482 387.783 102.016 388.185C102.033 388.198 102.05 388.211 102.067 388.223C102.587 388.62 103.228 388.66 103.721 388.229C103.755 388.199 103.791 388.169 103.828 388.138C103.99 388.007 104.197 387.949 104.406 387.949C104.587 387.949 104.765 387.997 104.925 388.082C107.984 389.704 110.307 389.074 112.631 386.559C113.624 385.368 114.618 384.177 115.214 382.787C115.81 381.596 116.605 380.008 117.798 379.413C120.182 378.221 120.778 376.038 121.971 374.052C123.362 371.67 124.355 369.089 126.74 367.501C127.137 367.303 127.137 366.707 127.535 366.112C127.932 365.318 128.33 364.523 128.926 363.928C130.913 361.943 132.105 359.56 133.695 357.377C134.093 356.781 134.689 356.186 134.888 355.392C135.285 354.399 135.682 353.803 136.477 353.208C137.074 352.811 137.471 352.017 137.471 351.222C137.67 349.436 138.464 348.046 139.657 346.656C140.849 345.068 141.843 343.282 142.638 341.296C143.631 338.914 145.022 336.532 146.413 334.15C146.546 333.885 146.679 333.619 146.752 333.413C146.811 333.249 146.792 333.1 146.736 332.935C146.422 332.004 147.109 331.469 147.804 330.775C148.741 329.84 149.266 328.578 149.746 327.344C150.57 325.225 151.317 323.043 152.234 320.92C153.502 317.982 156.626 313.978 154.362 311.717C153.965 311.32 154.163 310.526 154.362 309.93C154.694 308.77 155.164 307.748 155.658 306.633C155.826 306.253 156.262 306.061 156.669 306.143C157.141 306.238 157.619 305.939 157.684 305.463C157.768 304.844 157.845 304.25 158.067 303.73C158.111 303.627 158.152 303.522 158.206 303.423C158.502 302.879 159.347 302.335 159.529 301.791C159.926 300.401 160.324 298.813 160.522 297.423C160.92 295.636 161.317 293.85 161.914 292.262C162.239 291.123 162.298 291.051 163.402 290.516C163.897 290.276 164.057 289.719 163.785 289.241C163.732 289.148 163.662 289.047 163.59 288.969C162.889 288.212 162.728 287.439 163.106 286.306C163.901 283.924 164.696 281.541 164.497 279.159C164.405 278.514 164.419 277.88 164.484 277.252C164.865 273.546 167.478 269.385 167.478 265.66C167.478 264.072 167.478 262.483 167.677 261.094C167.875 259.704 167.875 258.314 169.266 257.322C169.862 256.925 169.465 255.535 169.862 254.741C170.657 253.351 171.055 252.16 170.26 250.572C169.862 249.976 170.26 248.984 170.26 248.388C170.26 247.55 170.478 246.799 170.338 245.972C169.945 243.652 170.716 241.454 171.055 239.256C171.452 236.477 171.85 233.896 172.048 231.117C172.247 229.727 172.645 228.139 172.048 226.948C171.666 225.93 171.856 225.238 172.198 224.454C172.427 223.931 173.213 223.931 173.414 224.465C173.589 224.93 174.185 224.99 174.29 224.505C174.53 223.394 174.205 222.195 174.37 221.13C174.554 219.943 174.982 218.636 174.559 217.512C174.19 216.532 173.994 215.523 174.234 214.441C174.433 213.845 174.036 213.25 173.439 212.853C171.651 211.463 171.253 209.478 171.253 207.294C171.253 205.679 171.253 204.155 171.253 202.599C171.253 201.595 172.425 201.18 173.403 200.954C173.834 200.855 174.109 200.47 174.005 200.041C173.828 199.316 173.242 198.464 172.335 197.754C171.917 197.427 171.847 196.835 172.265 196.508C172.504 196.322 172.58 195.996 172.509 195.702C172.253 194.635 172.271 193.508 172.092 192.441C171.695 190.08 170.551 187.658 170.031 185.321C169.743 184.023 169.095 182.802 167.875 181.685C167.389 181.199 167.052 180.565 166.681 179.919C166.227 179.126 165.97 178.171 166.29 177.316C166.321 177.235 166.352 177.157 166.385 177.08C166.549 176.702 166.756 176.287 166.598 175.906C166.545 175.779 166.447 175.671 166.366 175.56C165.975 175.021 165.453 174.482 165.093 173.943C163.703 172.206 163.866 169.683 162.671 167.807C161.938 166.657 161.344 165.393 160.92 164.017C160.125 161.634 159.33 159.252 159.33 156.671C159.33 155.485 158.462 154.3 157.837 153.114C157.645 152.749 157.216 152.491 156.804 152.517C156.275 152.55 155.733 152.359 155.467 151.9C154.664 150.519 153.997 148.999 154.164 147.341C154.164 146.348 153.766 145.554 152.971 145.554C152.809 145.539 152.665 145.516 152.536 145.485C150.414 144.971 150.342 142.133 148.798 140.591C148.003 139.797 147.407 139.003 147.01 138.01C145.618 134.834 143.433 132.253 141.048 129.871C138.168 126.635 134.477 123.577 131.589 120.349C130.672 119.324 129.828 118.216 128.926 117.165C126.541 114.386 124.554 111.408 121.176 109.82C120.415 109.475 119.655 109.081 118.961 108.59C116.377 106.758 114.404 103.784 111.439 102.673C111.209 102.559 110.98 102.378 110.75 102.207C110.429 101.969 110.082 101.756 109.802 101.471C108.398 100.044 105.847 99.8386 104.462 98.3933C104.317 98.2417 104.189 98.0813 104.086 97.9088C103.291 96.5192 102.099 95.9236 100.708 95.5266C96.7332 94.1369 92.9575 92.5487 89.3806 90.365C88.5867 89.9684 87.6166 89.9239 86.8223 89.5283C85.9821 89.1098 85.3512 88.5783 84.4125 88.5783C82.4254 88.5783 82.0278 88.1813 82.0278 85.9975C82.0278 85.1842 81.049 84.8687 80.3771 85.3272C79.7154 85.7788 79.2501 85.5465 78.466 84.6302C77.9907 84.0748 77.2336 83.9159 76.7471 84.4616C76.3645 84.8908 75.7201 85.0482 75.1891 84.8276C73.9677 84.3203 72.7313 83.8599 71.4171 83.2584C70.9079 83.0254 70.6438 82.3909 70.7486 81.8408C70.7795 81.6783 70.8155 81.5102 70.8655 81.3412C70.8853 81.2746 70.8685 81.2019 70.8193 81.1528C70.7522 81.0858 70.6454 81.0823 70.5668 81.1352C69.5114 81.8462 68.181 80.903 67.0892 81.2562C66.8336 81.3389 66.5988 81.517 66.3369 81.4571C66.2115 81.4285 66.0714 81.3787 65.9358 81.3149C65.4662 81.0942 65.315 80.5278 64.9252 80.1854C64.3088 79.6438 63.2463 79.6013 62.6415 79.0348C62.4108 78.8187 62.2863 78.4794 61.9709 78.4588C61.8374 78.45 61.6923 78.4404 61.5611 78.4143C60.6333 78.2298 59.7055 78.0567 58.7776 78.0567C57.1879 78.0567 55.7968 77.6596 54.207 77.0641C53.0146 76.667 51.8224 76.2699 50.8288 75.2773C49.6365 74.0862 48.2454 73.4906 46.6556 73.6892C45.0658 74.0862 43.4761 73.4907 42.0851 73.0936C41.257 72.9558 40.5248 72.4349 39.8219 71.8635C39.2413 71.3915 38.4797 71.2199 37.7919 71.5143C37.1281 71.7984 36.3794 71.6575 35.8026 71.2233C35.7719 71.2001 35.7414 71.1771 35.7111 71.154C35.0632 70.6606 34.2615 70.3922 33.4498 70.4581C32.3575 70.5467 31.3116 70.4916 30.1618 69.9173C27.989 68.987 25.6951 68.6622 23.4692 67.9025C22.2055 67.4713 20.8965 67.5598 19.6296 67.138C18.8348 66.9395 18.2386 66.5424 17.6425 66.3438C17.0463 66.1453 16.4502 65.5498 16.0527 65.5498C13.8668 65.7483 11.6808 64.7557 9.89227 64.1602C8.15448 63.4368 6.52222 63.0297 4.84167 63.0158C3.5686 63.0052 2.20831 63.2777 1.14868 62.5719C0.585205 62.2905 0.121582 61.9093 -0.383728 61.5698C-0.760742 61.3166 -1.22766 61.3568 -1.57324 61.6514C-1.97815 61.9967 -2.58661 62.1951 -3.06555 61.9631C-3.94611 61.5368 -4.87347 61.1008 -5.81744 60.625C-6.84167 60.1088 -7.74792 60.3713 -8.75732 60.9159C-9.01617 61.0555 -9.33813 61.1102 -9.78094 60.9838C-12.1656 60.1897 -14.5504 59.9912 -16.935 59.9912C-17.2238 59.9912 -17.4863 59.9388 -17.7416 59.8625C-18.6694 59.5855 -19.5436 58.9986 -20.5119 58.9986C-23.4927 59.1971 -25.0825 58.8001 -27.4672 57.2119C-27.7146 57.0265 -27.962 56.8796 -28.2155 56.7472C-29.3283 56.1658 -30.6994 56.2408 -31.821 56.8053C-32.079 56.9351 -32.3893 57.0724 -32.6672 56.9935C-33.4259 56.778 -34.0081 55.7146 -35.0185 56.2193C-36.0121 56.6163 -37.0057 56.6163 -37.9993 56.0208C-38.3968 55.8222 -38.7943 55.8222 -39.1917 55.8222C-43.7623 56.4178 -48.1341 54.4326 -52.7047 54.2341C-52.9889 54.2341 -53.2844 54.1664 -53.5884 54.0526C-55.7878 53.2292 -57.9076 52.4473 -60.256 52.4473C-60.8522 52.4473 -61.4484 52.2488 -62.0446 51.8518C-62.6407 51.4547 -63.0381 51.2562 -63.833 51.4547C-65.4228 51.8518 -66.8138 51.8518 -68.4035 51.0577C-69.9933 50.2636 -71.5831 49.8666 -73.1729 50.6606C-74.8377 51.4922 -76.9242 49.5087 -78.7756 49.6975C-79.3073 49.7517 -79.8412 49.8066 -80.3268 49.668C-81.3204 49.4695 -82.314 50.0651 -83.3076 49.8666C-84.037 49.7208 -84.7663 49.3612 -85.4957 49.1016C-86.0129 48.9176 -86.5343 48.6754 -87.0833 48.6754C-88.554 48.6754 -89.949 48.4489 -91.2219 47.9028C-92.4469 47.3772 -94.4276 47.2798 -95.7342 47.5434C-96.5486 47.7077 -97.3619 48.202 -98.1923 48.1741C-99.0311 48.146 -99.8137 48.142 -100.596 47.8814C-101.413 47.6095 -102.229 47.0585 -103.173 46.4195C-104.059 45.8198 -104.858 45.5699 -105.89 45.8482C-107.227 46.2083 -108.874 45.7456 -110.142 45.1906C-110.73 44.9335 -111.383 44.8112 -112.122 44.9035C-112.655 44.9701 -113.144 44.925 -113.596 44.7981C-115.213 44.3435 -116.978 43.5572 -118.481 44.308C-121.065 45.6976 -121.661 45.4991 -123.847 43.7124C-125.436 42.3227 -127.424 42.5213 -129.411 42.7198C-130.206 42.7198 -130.603 44.308 -131.597 43.9109C-132.392 43.5139 -133.187 43.7124 -134.18 43.7124C-136.366 43.7124 -138.552 44.1094 -140.539 42.7198C-142.725 41.3301 -145.308 41.1316 -147.892 42.1242C-149.68 42.9183 -151.27 43.1168 -153.059 41.7272C-153.556 41.2303 -154.423 41.6128 -155.126 41.6446C-157.076 41.7328 -158.958 41.2094 -160.772 41.1848C-162.661 41.1592 -163.689 39.9405 -165.578 39.9405C-165.975 39.9405 -166.323 39.7422 -166.67 39.4695C-167.204 39.0506 -167.966 39.3287 -168.175 39.9744C-168.294 40.3448 -168.616 40.5507 -169.004 40.5713C-170.735 40.663 -171.502 40.6638 -172.331 40.3087C-173.844 39.6612 -175.435 39.1457 -177.054 39.4397C-177.883 39.5901 -178.685 39.74 -179.488 39.9405C-181.078 40.139 -182.469 40.7346 -183.661 38.9479C-184.006 38.4319 -185.096 38.2139 -186.028 38.0358C-186.304 37.9828 -186.589 37.9437 -186.864 38.005C-187.129 38.0643 -187.399 38.1698 -187.679 38.2855C-188.504 38.6255 -189.446 38.3995 -189.752 37.5616C-189.795 37.4428 -189.847 37.301 -189.916 37.195C-190.36 36.5127 -191.256 36.1971 -191.809 36.5656C-193.001 37.3597 -193.995 37.1612 -195.386 36.7641C-196.38 36.5656 -197.373 36.9627 -198.367 37.1612C-199.162 37.3597 -199.758 37.1612 -200.553 36.7641C-203.534 35.573 -206.713 35.176 -209.893 36.3671C-210.111 36.4762 -210.39 36.4054 -210.662 36.3195C-211.065 36.1926 -211.561 36.0019 -211.907 35.7594C-212.19 35.5607 -212.44 35.6496 -212.775 35.7368C-214.565 36.2028 -216.203 35.3244 -217.841 34.7789C-218.18 34.6661 -218.535 34.5853 -218.897 34.5321C-220.695 34.2673 -222.538 34.5632 -224.329 34.8768C-224.933 34.9827 -225.544 35.0956 -226.188 35.176C-227.579 35.3745 -228.97 35.3745 -230.361 34.5804C-230.758 34.3819 -231.354 34.3819 -231.752 34.3819C-232.348 34.3819 -232.944 34.5804 -233.342 34.3819C-235.528 32.9923 -237.912 33.7863 -240.098 33.9848C-243.476 34.1834 -246.457 33.3893 -249.637 32.7937C-251.436 32.3444 -253.193 30.7244 -254.861 31.5345C-255.179 31.6893 -255.476 31.9269 -255.727 32.2906C-255.775 32.3596 -255.851 32.4491 -255.917 32.5002C-256.21 32.7259 -256.582 32.6645 -256.939 32.5667C-258.148 32.2355 -259.357 32.9403 -260.566 32.5952C-262.83 31.9492 -265.224 32.2228 -267.323 31.3855C-268.232 31.0226 -269.418 31.1479 -270.226 30.5948C-270.531 30.386 -270.786 30.0677 -271.061 29.7708C-271.397 29.4071 -271.94 29.4658 -272.291 29.8159C-272.39 29.9146 -272.489 30.0625 -272.587 30.2107C-272.741 30.4404 -273.102 30.3498 -273.235 30.1078C-273.302 29.9857 -273.256 29.9393 -273.208 29.8087C-272.954 29.1285 -272.846 28.7765 -273.027 28.5268C-273.666 27.6463 -275.117 28.412 -275.785 29.2702C-276.338 29.9802 -277.208 30.3642 -278.104 30.2761C-279.747 30.1142 -281.325 29.9256 -283.022 29.6173C-283.751 29.5132 -284.153 29.4091 -284.57 29.0473C-285.639 28.1213 -286.887 27.4134 -288.261 27.7486C-289.108 27.9554 -289.986 27.7759 -290.725 27.3128C-291.256 26.9802 -291.774 26.6759 -292.362 26.441C-292.759 26.2425 -293.355 26.2425 -293.951 26.441C-294.746 26.6396 -295.144 28.0292 -296.336 27.4336C-296.832 27.1862 -297.25 27.0158 -297.687 27.0187C-298.263 27.0226 -298.909 27.6425 -299.317 27.2351C-301.304 25.0514 -304.285 27.0366 -306.67 25.6469C-307.067 25.4484 -307.862 25.8454 -308.458 26.044C-309.851 26.6005 -311.332 25.3289 -312.816 25.5462C-315.006 25.867 -317.197 25.7808 -319.388 25.0514C-320.183 24.8528 -321.176 25.0514 -322.17 24.8528C-323.362 24.6543 -324.753 25.2499 -325.945 24.4558C-326.761 23.967 -327.041 24.9493 -327.555 25.0975C-327.804 25.1694 -328.061 25.0233 -328.307 24.9438C-328.916 24.748 -329.524 24.4542 -330.132 24.1514C-330.245 24.0947 -330.313 23.9775 -330.336 23.8523C-330.362 23.708 -330.411 23.5865 -330.451 23.4563C-330.495 23.3162 -330.676 23.2262 -330.78 23.3298C-330.844 23.3941 -330.862 23.5158 -330.796 23.5789C-330.72 23.6519 -330.639 23.7248 -330.543 23.7978C-330.324 23.9645 -330.225 24.2554 -330.366 24.4925C-330.386 24.5267 -330.406 24.5614 -330.427 24.5973C-330.612 24.9255 -331.016 25.0992 -331.354 24.9306C-331.89 24.663 -332.425 24.3955 -332.961 24.1279C-333.053 24.0819 -333.149 24.0433 -333.245 24.0066C-333.411 23.9436 -333.576 23.8691 -333.742 23.7957C-334.472 23.472 -335.286 23.3349 -336.083 23.3907C-336.445 23.416 -336.783 23.4632 -337.074 23.4632C-338.192 23.4632 -339.296 22.9169 -340.216 23.5532C-340.886 24.0165 -341.483 24.4961 -342.439 24.2573C-343.632 23.8602 -345.023 24.4558 -346.215 24.4558C-347.407 24.4558 -348.6 24.0587 -349.991 23.6617C-351.183 23.2646 -352.177 22.0735 -353.766 22.2721C-354.959 22.4706 -356.151 21.6765 -357.542 21.478C-360.722 20.8824 -363.901 20.6839 -367.081 19.8898C-368.67 19.4927 -370.26 19.4928 -372.049 20.2869C-373.133 20.6478 -374.216 21.3368 -375.3 20.2661C-375.536 20.0333 -375.758 19.7672 -376.086 19.7209C-376.153 19.7114 -376.221 19.705 -376.286 19.7006C-376.508 19.6856 -376.731 19.6742 -376.95 19.6403C-378.699 19.3699 -379.149 19.2735 -380.234 18.6259C-380.859 18.2531 -381.677 18.4624 -382.03 19.0986C-382.418 19.7965 -383.48 19.9522 -384.245 20.1811C-385.069 20.4275 -385.872 21.1343 -386.754 20.8824C-387.862 20.5661 -388.97 20.3758 -390.079 20.2111C-390.594 20.1344 -391.171 19.5798 -390.805 19.2083C-390.171 18.565 -390.639 17.8941 -390.833 18.776C-390.862 18.9081 -390.889 19.0674 -390.921 19.2584C-390.925 19.2817 -390.927 19.2984 -390.927 19.3221C-390.927 19.656 -391.295 19.8743 -391.6 19.7393C-393.401 18.9441 -395.322 19.1401 -397.087 19.4928C-398.876 19.8898 -400.466 19.6913 -402.055 19.2942C-404.639 18.6987 -407.023 18.3016 -409.607 18.3016C-410.148 18.3016 -410.69 18.1172 -411.295 17.9369C-411.741 17.8038 -411.957 17.2278 -411.736 16.8175C-411.49 16.3597 -411.792 15.8321 -412.306 15.7593C-413.245 15.6265 -414.109 15.5223 -414.972 15.5223C-416.165 15.5223 -417.357 15.9194 -418.748 15.9194C-419.751 15.9194 -420.41 14.7642 -421.411 14.8302C-421.782 14.8546 -422.153 15.046 -422.524 15.3238C-423.915 16.3164 -425.504 16.3164 -426.896 16.3164C-427.641 16.3164 -427.835 15.4136 -428.414 14.9444C-429.106 14.3839 -430.106 15.3238 -430.87 15.3238C-432.255 15.2085 -433.84 15.361 -435.199 14.8873C-437.131 14.2138 -438.959 13.3386 -441.005 13.3386C-442.927 13.3386 -444.9 13.5686 -446.82 13.6684C-447.54 13.7058 -448.338 13.6215 -449.351 13.5371C-452.133 13.3386 -454.716 12.1475 -457.499 11.5519C-459.728 11.2093 -461.957 11.1623 -464.314 11.1559C-464.94 11.1542 -465.488 11.6612 -465.584 12.2795C-465.648 12.6862 -465.864 13.0921 -466.265 13.186C-467.403 13.4529 -468.329 12.6618 -469.426 12.2149C-469.968 11.994 -470.377 11.4315 -470.275 10.8552C-470.212 10.4991 -470.385 10.2294 -470.692 10.038C-471.252 9.68853 -471.865 9.39152 -472.419 9.0358C-472.678 8.86926 -472.937 8.70062 -473.218 8.57243C-474.273 8.08971 -475.347 7.77995 -476.576 7.77995C-479.755 7.58143 -482.736 7.38292 -485.916 6.98588C-486.312 6.98588 -486.299 7.67969 -485.935 7.83668C-484.273 8.55421 -482.61 8.97109 -480.948 8.97109C-479.803 8.97109 -478.659 9.10819 -477.493 9.36045C-476.039 9.67508 -476.158 11.4264 -477.569 10.9563C-481.23 9.67637 -484.89 10.0806 -488.706 9.99724C-489.315 9.98396 -489.792 9.60898 -489.983 9.03116C-490.04 8.85933 -490.161 8.69124 -490.342 8.69034C-490.599 8.68907 -490.941 8.83008 -491.082 8.97109C-491.977 10.0432 -492.871 10.3112 -494.055 10.2092C-494.326 10.186 -494.597 10.1554 -494.862 10.2146C-495.382 10.3307 -495.911 10.4435 -496.433 10.5521C-498.836 11.0518 -501.468 10.848 -503.855 11.2502C-504.216 11.3111 -504.581 11.3534 -504.948 11.3534C-505.374 11.3534 -505.797 11.2968 -506.214 11.2126C-509.209 10.6077 -512.367 10.9304 -515.525 10.5593C-515.922 10.5593 -516.32 10.5593 -516.717 10.3608C-517.208 10.1157 -517.623 9.79507 -518.102 9.44547C-518.632 9.05881 -518.797 8.31556 -518.433 7.7698C-518.331 7.61771 -518.23 7.46563 -518.128 7.31355C-518.001 7.12307 -518.12 6.80773 -518.317 6.69212C-518.487 6.59311 -518.601 6.6768 -518.757 6.79457C-520.531 8.12603 -522.969 7.63622 -524.865 8.77256C-525.737 9.20827 -526.398 8.00292 -527.206 7.4568C-528.215 6.77405 -529.568 6.87196 -530.842 6.62683C-530.964 6.60328 -531.034 6.60667 -531.152 6.5646C-531.578 6.41149 -531.897 5.94905 -532.047 5.52124C-532.13 5.28542 -532.213 5.06271 -532.295 4.86743C-532.37 4.69043 -532.466 4.4661 -532.652 4.4159C-532.765 4.38519 -532.871 4.39109 -532.988 4.38165C-533.782 4.31764 -535.294 4.68931 -536.228 5.25009C-536.839 5.61671 -537.292 6.48253 -536.788 6.98588C-536.589 7.1844 -536.192 7.38295 -535.794 7.38295C-535.63 7.38295 -535.465 7.35741 -535.306 7.32925C-534.074 7.11147 -534.21 8.77436 -535.397 9.16963C-539.271 10.1371 -539.558 10.1616 -541.042 6.48576C-541.12 6.29284 -541.15 5.9933 -541.359 5.99327C-541.359 5.99327 -541.359 5.99327 -541.359 5.99327C-541.557 5.99324 -541.955 5.79473 -542.153 5.79473C-545.73 6.19178 -549.109 6.39034 -552.686 5.39773C-554.872 4.80216 -557.256 5.39773 -559.641 5.39773C-559.808 5.39773 -559.975 5.36261 -560.142 5.32191C-560.52 5.23 -560.818 4.80918 -560.734 4.42991C-560.649 4.05064 -560.319 3.81192 -559.932 3.84354C-558.93 3.92534 -557.899 4.09236 -557.256 3.61105C-555.666 2.61844 -553.679 3.01547 -552.089 2.4199C-551.351 2.05097 -550.583 2.73555 -549.793 2.9727C-548.299 3.42063 -547.015 2.588 -545.73 1.62583C-544.987 0.989451 -544.131 0.52306 -543.221 0.25694C-541.691 -0.190798 -540.371 0.823102 -539.808 2.3146C-539.753 2.46016 -539.692 2.60165 -539.622 2.73668C-539.117 3.70633 -537.823 3.59009 -536.769 3.30068C-535.352 2.91175 -533.859 2.63918 -532.289 2.38786C-531.729 2.29829 -531.263 2.73163 -531.352 3.29117C-531.419 3.71022 -531.134 4.08158 -530.719 4.17189C-529.804 4.37118 -528.879 4.52433 -527.907 4.70645C-527.02 4.87267 -526.073 4.51193 -525.636 3.72247C-525.25 3.02621 -524.582 2.5694 -523.791 2.47671C-522.855 2.36701 -521.927 2.27656 -521.021 2.40985C-519.385 2.65068 -517.804 3.39257 -516.153 3.28064C-515.613 3.24397 -515.072 3.21398 -514.531 3.21398C-513.114 3.07238 -512.707 3.03178 -511.87 3.45237C-511.027 3.87554 -510.113 3.97156 -509.258 3.57286C-508.496 3.21715 -507.556 3.28298 -506.771 3.58616C-504.738 4.37165 -502.535 4.38172 -500.302 4.17172C-499.434 4.09018 -498.626 4.50911 -498.313 5.32172C-497.932 6.30868 -496.818 6.93468 -495.84 6.53195C-495.144 6.24551 -494.498 5.92076 -493.916 5.51093C-493.397 5.14552 -492.746 5.03926 -492.259 5.44607C-491.602 5.99472 -490.573 5.78341 -490.324 4.9649C-490.281 4.82411 -490.241 4.69041 -490.202 4.5638C-490.13 4.32816 -490.004 4.10319 -489.787 3.98638C-489.113 3.62337 -488.044 3.69677 -487.704 4.20659C-487.31 4.75815 -486.884 5.12206 -486.415 5.37281C-484.98 6.13917 -482.733 5.58585 -482.339 4.00805C-482.209 3.23361 -481.744 3.13055 -481.325 2.98953C-481.127 2.92264 -480.821 3.10161 -480.871 3.30526C-480.875 3.32402 -480.88 3.34277 -480.884 3.36153C-480.923 3.5245 -480.749 3.57992 -480.749 3.41251C-480.749 3.41249 -480.749 3.4125 -480.749 3.41247C-480.749 3.0836 -480.481 2.80296 -480.154 2.83601C-480.054 2.84613 -479.963 2.86161 -479.894 2.88529C-479.767 2.92851 -479.725 3.07833 -479.661 3.19607C-479.075 4.28617 -478.282 5.00066 -476.774 5.00066C-476.048 5.00066 -475.468 5.60221 -474.789 5.85867C-473.277 6.42969 -471.68 6.44464 -470.217 5.79473C-469.223 5.39769 -468.428 5.79475 -467.633 5.99327C-466.686 6.1509 -466.742 7.05956 -466.308 7.72533C-466.081 8.07337 -465.618 8.10991 -465.221 7.98596C-464.973 7.90838 -464.721 7.82815 -464.466 7.74561C-463.156 7.32169 -463.435 5.29253 -464.802 5.11958C-465.463 5.03593 -465.924 4.30372 -465.313 4.03913C-465.143 3.96563 -464.956 3.9341 -464.789 3.90249C-464.562 3.85968 -464.336 3.79775 -464.107 3.77473C-462.256 3.58912 -460.562 3.42415 -458.691 3.61105C-456.833 3.7798 -455.118 4.23544 -453.181 4.61217C-452.632 4.71888 -452.275 5.21211 -452.439 5.7465C-452.597 6.26217 -452.22 6.92129 -451.744 6.66757C-451.349 6.45696 -451.146 6.0398 -450.959 5.56525C-450.815 5.197 -450.587 4.8361 -450.207 4.72517C-449.682 4.57171 -448.984 4.67177 -447.647 4.98645C-446.661 5.21828 -446.236 6.07416 -447.211 6.34426C-447.312 6.37208 -447.41 6.41573 -447.508 6.45169C-447.895 6.59407 -448.403 6.63436 -448.755 6.98588C-448.875 7.10581 -448.995 7.37064 -449.027 7.6053C-449.062 7.8548 -448.894 8.12061 -448.687 8.26456C-448.378 8.47989 -447.979 8.39489 -447.628 8.25688C-446.571 7.84049 -445.431 8.5164 -444.582 8.17702C-443.389 7.77998 -442.396 8.77257 -441.203 7.97849C-441.037 7.84526 -440.87 7.77909 -440.704 7.76029C-439.066 7.57446 -437.632 8.08405 -435.992 8.2531C-434.513 8.40551 -433.089 9.0403 -431.665 9.16963C-431.113 9.27981 -430.562 9.14538 -429.976 8.93604C-429.423 8.73823 -429.242 7.97894 -429.727 7.64686C-430.169 7.34409 -430.16 6.56962 -429.648 6.41014C-428.994 6.20593 -428.49 6.07828 -427.998 6.16833C-427.925 6.18163 -427.852 6.19562 -427.779 6.20242C-425.821 6.38325 -423.679 6.2028 -421.729 6.78734C-419.742 7.38291 -417.556 7.58143 -415.568 7.77995C-413.383 7.97847 -411.197 8.17704 -409.011 8.57409C-407.539 8.86804 -405.959 8.83552 -404.432 8.79882C-403.448 8.77519 -402.544 9.34373 -401.671 9.79717C-401.075 10.1065 -400.349 10.3236 -399.553 10.5559ZM-143.321 33.3893C-143.464 33.3893 -143.606 33.4912 -143.748 33.549C-143.838 33.5852 -143.917 33.5096 -143.917 33.4133C-143.917 33.2578 -143.703 33.147 -143.565 33.2183C-143.484 33.2602 -143.402 33.3082 -143.321 33.3893C-143.585 34.181 -143.054 35.002 -142.221 34.9428C-141.915 34.921 -141.631 34.8856 -141.351 34.828C-141.207 34.7984 -141.06 34.7753 -140.914 34.7882C-140.765 34.8011 -140.635 34.8275 -140.521 34.8657C-139.475 35.2136 -138.542 35.8386 -137.744 35.0787C-137.627 34.9667 -137.507 34.8587 -137.383 34.7555C-137.246 34.6419 -137.136 34.5592 -137.209 34.3972C-137.255 34.2957 -137.418 34.1712 -137.528 34.1519C-138.484 33.983 -139.579 33.9517 -140.142 33.3893C-141.334 32.3967 -142.328 33.1908 -143.321 33.3893ZM-152.264 28.2277C-152.661 30.8085 -152.661 30.8085 -155.244 30.8085C-156.251 30.8085 -155.218 31.881 -154.249 32.1533C-152.444 32.6608 -150.733 33.9819 -148.522 33.6061C-148.016 33.52 -147.696 33.0454 -147.663 32.5329C-147.65 32.3357 -147.634 32.1386 -147.618 31.9375C-147.547 31.0824 -148.624 30.7459 -149.231 31.3523C-149.548 31.6691 -149.954 31.6384 -150.315 31.3727C-151.486 30.5119 -152.093 29.5884 -152.264 28.2277C-151.667 28.4262 -151.27 28.8233 -150.674 29.0218C-149.656 29.3609 -150.459 28.0646 -151.526 28.1823C-151.785 28.211 -152.033 28.2277 -152.264 28.2277ZM70.5021 430.036C69.6544 429.189 69.8378 428.459 70.8104 427.759C71.0278 427.602 71.2524 427.439 71.4957 427.256C73.0854 425.867 74.4765 424.279 75.8676 422.889C77.2586 421.698 78.4509 419.911 80.0406 419.514C82.0278 418.918 82.2266 416.735 83.8164 415.941C84.1651 415.708 84.4458 415.272 84.738 414.871C85.1232 414.342 85.7371 414.073 86.2931 413.728C87.1554 413.193 87.659 412.448 87.9276 411.617C88.282 410.519 88.7881 409.42 89.7634 408.804C89.8228 408.766 89.8822 408.729 89.9416 408.691C92.2861 407.206 91.6412 403.396 88.9223 403.953C88.692 404 88.4824 404.089 88.2662 404.181C87.9753 404.306 87.6843 404.373 87.3933 404.228C85.0087 403.037 82.8228 404.228 80.4381 404.426C78.6496 404.625 76.8611 404.823 75.0726 404.029C73.6816 403.434 72.0919 403.235 70.5021 403.831C67.9187 404.625 65.3354 404.625 62.7521 404.029C61.5598 403.632 60.1686 403.434 58.9763 404.426C57.687 405.285 56.0786 404.489 54.5327 404.591C52.9921 404.692 51.5129 405.419 50.0339 405.419C48.6428 405.419 47.4506 406.213 45.8608 406.213C44.4697 406.213 43.0786 406.411 41.6876 406.809C40.4952 407.206 39.303 407.404 37.912 407.007C37.7458 406.966 37.5536 406.933 37.3481 406.918C35.604 406.79 34.494 408.794 32.7452 408.794C30.9567 408.794 29.1682 409.191 27.3797 409.389C26.4048 409.389 25.853 410.55 25.0649 411.124C24.9191 411.23 24.7663 411.318 24.5977 411.375C23.7469 411.544 23.0783 411.896 22.5138 412.352C21.1851 413.426 19.3062 413.673 17.8411 414.551C16.8475 415.345 15.4565 416.139 14.2642 415.941C11.6808 415.742 9.89227 416.933 7.90509 417.926C5.71918 419.117 3.13586 419.712 0.751221 420.705C-0.838562 421.301 -2.22961 421.698 -3.22321 422.69C-3.62067 423.087 -4.21674 423.683 -4.81293 423.683C-4.90027 423.683 -4.98456 423.686 -5.06604 423.692C-6.62494 423.81 -7.48785 425.524 -8.80048 426.373C-9.31299 426.704 -9.88879 426.999 -10.5759 427.256C-11.7682 427.653 -12.7618 428.646 -13.7554 429.44C-15.1464 430.631 -16.5375 431.822 -17.9286 432.815C-20.512 434.403 -21.3068 436.587 -20.3132 439.366C-20.1145 439.962 -20.3132 440.359 -20.5119 440.756C-21.5055 442.543 -21.3068 442.94 -19.717 444.329C-18.3575 445.416 -19.2324 447.722 -18.1193 449.06C-17.1332 450.245 -15.9785 451.233 -14.1528 451.476C-13.3681 451.476 -12.8669 452.371 -12.1268 452.632C-11.6502 452.8 -11.1458 452.866 -10.5759 452.866C-8.78741 452.866 -6.99896 452.866 -5.21045 453.064C-3.7243 453.064 -2.36011 453.661 -0.896545 453.919C0.537476 454.172 2.02466 454.086 3.51636 453.757C3.7926 453.696 4.11725 453.546 4.39862 453.516C4.81317 453.473 5.1098 453.769 5.50671 453.897C6.94202 454.358 8.49402 454.009 9.89227 453.66C11.6808 453.263 13.2705 453.858 14.8603 453.66C14.933 453.66 14.9791 453.633 15.018 453.599C15.1621 453.475 15.3523 453.447 15.5406 453.418C17.7169 453.083 19.8879 452.749 21.935 452.414C22.2988 452.355 22.6277 452.642 22.4459 452.962C22.2822 453.251 22.3957 453.715 22.7275 453.723C23.1987 453.736 23.6302 453.678 23.9937 453.512C24.7512 453.166 25.6744 452.826 26.5031 452.906C26.87 452.941 27.2397 452.853 27.6398 452.572C27.733 452.506 27.8267 452.44 27.9265 452.385C30.5268 450.95 33.6219 450.504 36.2599 449.144C36.5684 448.985 36.7899 448.744 37.1351 448.708C37.3489 448.685 37.6213 448.68 37.8329 448.642C38.8832 448.453 39.7543 448.174 40.2965 446.91C40.4952 446.314 41.4889 445.719 42.0851 445.719C44.6685 445.719 46.0594 444.329 47.6492 442.741C49.239 440.954 51.0275 439.565 53.4122 438.969C54.8032 438.572 55.7968 437.976 56.7904 437.182C57.9827 436.19 59.175 435.197 60.566 434.602C63.3395 433.461 63.836 433.39 65.1345 431.864C65.7586 431.13 66.6451 430.754 67.5478 431.09C68.3468 431.388 69.3715 431.361 69.9902 430.775C70.2329 430.544 70.4101 430.311 70.5021 430.036C71.0507 429.853 71.6413 429.712 72.2546 429.575C73.4699 429.303 73.9973 427.29 72.8469 427.767C72.7139 427.822 72.6364 427.903 72.5361 428.006C71.8151 428.748 71.2455 429.479 70.5021 430.036ZM-58.7732 44.8323C-58.118 43.9546 -57.2224 43.0853 -56.1273 43.062C-55.9239 43.0577 -55.7103 43.0722 -55.4867 43.1168C-54.2944 43.3154 -53.3009 43.7124 -52.1086 43.9109C-51.121 44.1928 -50.0333 44.4747 -48.9876 44.2593C-48.168 44.0905 -47.9708 43.4047 -48.8058 43.3478C-48.906 43.341 -48.9771 43.3004 -49.071 43.2645C-49.6198 43.055 -50.1687 42.704 -50.7175 42.5212C-51.6922 42.1966 -52.5342 41.474 -53.5691 41.5465C-54.0638 41.5812 -54.5617 41.8377 -54.9792 41.57C-55.1953 41.4314 -55.3895 41.2438 -55.6278 41.1482C-56.1107 40.9546 -56.5937 41.0462 -57.0766 41.5286C-57.8251 42.2764 -59.0052 42.0902 -60.0614 42.0273C-60.9587 41.9739 -61.8179 41.8058 -62.4419 40.9331C-62.8394 40.3375 -63.6344 40.3375 -64.0318 40.9331C-64.4292 41.5287 -64.0317 42.1242 -63.4355 42.5212C-63.0669 42.7668 -62.6982 43.0123 -62.2826 43.2578C-61.9457 43.4568 -62.0367 44.0101 -62.3926 44.1727C-62.7578 44.3396 -62.7194 44.8251 -62.3629 45.01C-61.3967 45.511 -60.5913 45.7114 -59.8872 45.4924C-59.5946 45.4014 -59.272 45.3222 -59.0381 45.1242C-58.9476 45.0475 -58.86 44.9485 -58.7732 44.8323ZM-429.22 14.2744C-428.515 14.5209 -427.707 14.3957 -427.061 14.0228C-426.939 13.9524 -426.826 13.9172 -426.69 13.8817C-425.994 13.7007 -425.435 13.5196 -424.71 13.3386C-423.993 13.1954 -423.483 12.7427 -423.18 12.2035C-422.951 11.7961 -422.769 11.3505 -422.693 10.8893C-422.644 10.5932 -422.68 10.314 -422.837 10.0749C-423.146 9.60217 -423.812 9.60557 -424.368 9.70566C-425.19 9.85366 -426.051 10.0399 -426.878 10.1925C-427.417 10.2921 -427.755 10.8932 -427.594 11.4174C-427.431 11.9491 -427.776 12.4374 -428.329 12.4977C-428.592 12.5264 -428.854 12.5508 -429.116 12.5783C-429.811 12.6511 -430.491 13.3368 -430.007 13.8405C-429.811 14.0452 -429.53 14.1659 -429.22 14.2744ZM-166.515 30.2191C-167.962 30.037 -169.203 31.8697 -167.744 31.831C-167.563 31.8262 -167.473 31.7855 -167.292 31.7841C-166.737 31.7799 -166.434 31.9836 -166.222 32.2794C-165.572 33.1839 -164.645 33.4679 -163.842 32.6958C-162.961 31.8479 -163.683 30.5244 -164.9 30.4012C-165.447 30.3458 -165.983 30.2861 -166.515 30.2191ZM-330.089 21.8031C-329.983 21.7235 -329.917 21.5994 -329.971 21.4779C-330.066 21.2648 -330.308 21.0809 -330.541 21.0809C-331.332 21.0809 -332.122 21.0809 -332.913 21.0809C-333.037 21.0809 -333.161 21.0688 -333.282 21.044C-333.332 21.0338 -333.382 21.0235 -333.431 21.0132C-334.629 20.7638 -335.254 21.4884 -334.093 21.875C-333.918 21.9332 -333.743 22.0256 -333.568 22.1422C-332.727 22.703 -331.692 22.959 -330.867 22.3737C-330.608 22.1896 -330.348 21.9971 -330.089 21.8031ZM-154.854 39.3953C-156.301 38.9241 -156.589 41.1782 -155.075 41.3196C-155 41.3266 -154.924 41.3302 -154.847 41.3302C-154.45 41.3302 -153.853 40.7346 -153.853 40.536C-153.853 40.4216 -153.985 40.1096 -154.135 39.8656C-154.295 39.6053 -154.564 39.4899 -154.854 39.3953ZM-342.732 21.9139C-343.629 21.6161 -343.445 23.1771 -342.505 23.0834C-341.825 23.0157 -341.926 22.2264 -342.561 21.9759C-342.618 21.9535 -342.675 21.9329 -342.732 21.9139ZM-36.5652 48.5067C-37.1168 49.0841 -36.9252 50.1053 -36.2109 50.4621C-35.5295 50.8024 -34.5396 50.5984 -34.5281 49.8369C-34.5208 49.3441 -34.8303 48.945 -35.416 48.4769C-35.8094 48.0838 -36.1163 48.0367 -36.5652 48.5067ZM-117.488 35.176C-117.82 34.5126 -118.745 34.5126 -119.077 35.176C-119.39 35.8001 -119.211 36.179 -118.831 36.5053C-118.611 36.6938 -118.373 36.913 -118.084 36.913C-117.794 36.913 -117.539 36.7034 -117.371 36.4672C-117.11 36.0982 -117.18 35.6371 -117.488 35.176ZM-109.726 32.1887C-110.253 32.3582 -110.348 33.0298 -109.897 33.3525C-109.476 33.6545 -109.2 33.6294 -108.884 33.2026C-108.491 32.6709 -109.096 31.9865 -109.726 32.1887ZM-6.3515 49.5255C-6.5094 48.8918 -7.40662 48.8172 -7.82806 49.3161C-8.21967 49.7796 -7.90405 50.421 -7.3089 50.5392C-7.25031 50.5508 -7.19232 50.5618 -7.13464 50.5721C-6.62567 50.6629 -6.19623 50.2374 -6.30371 49.7317C-6.31812 49.6641 -6.33398 49.5956 -6.3515 49.5255ZM-372.811 14.8461C-373.427 15.3979 -372.317 16.336 -371.536 16.0642C-370.831 15.8186 -371.189 14.8572 -371.923 14.72C-372.335 14.6431 -372.625 14.679 -372.811 14.8461ZM-41.8528 44.8621C-42.43 44.986 -42.4792 45.7883 -42.0616 46.2055C-41.9667 46.3003 -41.9081 46.3181 -41.778 46.3506C-41.3485 46.4579 -40.942 46.426 -40.7108 46.0269C-40.5928 45.8234 -40.5921 45.5736 -40.7118 45.3711C-40.7798 45.2558 -40.8668 45.1368 -40.9525 45.0477C-41.0775 44.9178 -41.2621 44.8483 -41.4415 44.8304C-41.5652 44.8181 -41.7023 44.8299 -41.8528 44.8621ZM-50.5796 40.536C-50.0663 40.536 -49.7358 39.8947 -50.1555 39.5992C-50.5469 39.3237 -50.7571 39.3703 -50.9981 39.6862C-51.2665 40.0379 -51.022 40.536 -50.5796 40.536ZM336.991 540.423C337.008 540.758 337.505 540.865 337.753 540.639C337.773 540.621 337.789 540.601 337.804 540.578C338.161 540.022 338.167 539.466 337.663 538.91C337.613 538.855 337.541 538.825 337.466 538.825C337.311 538.825 337.184 538.952 337.161 539.105C337.109 539.469 336.986 539.904 336.986 540.215C336.986 540.27 336.986 540.341 336.991 540.423ZM-125.467 35.4562C-124.85 35.5778 -124.464 34.8325 -125.068 34.6572C-125.244 34.606 -125.433 34.5804 -125.635 34.5804C-125.686 34.5804 -125.737 34.5935 -125.785 34.6131C-125.963 34.6857 -126.03 34.8889 -125.964 35.0691C-125.964 35.0716 -125.963 35.074 -125.962 35.0764C-125.891 35.2699 -125.669 35.4163 -125.467 35.4562ZM171.651 229.791C171.651 230.175 172.214 230.275 172.193 229.891C172.187 229.782 172.161 229.676 172.107 229.574C171.976 229.323 171.651 229.508 171.651 229.791ZM-400.602 15.8578C-400.297 15.5589 -400.209 14.9789 -400.633 14.9237C-400.832 14.8978 -401.027 14.9109 -401.225 14.9602C-401.95 15.141 -401.605 16.1668 -400.88 15.9827C-400.847 15.9741 -400.813 15.965 -400.78 15.9554C-400.704 15.9332 -400.659 15.9135 -400.602 15.8578ZM94.8116 413.455C95.363 413.322 95.7323 412.389 95.2048 412.181C95.1229 412.149 95.1014 412.151 95.0143 412.138C94.4388 412.054 93.7524 412.608 93.7524 413.161C93.7524 413.36 93.9512 413.558 94.1499 413.558C94.3298 413.558 94.5504 413.518 94.8116 413.455ZM-524.906 5.74214C-525 5.77359 -525.064 5.86958 -525.064 5.96892C-525.064 6.09634 -524.96 6.1918 -524.833 6.1918C-524.314 6.1918 -523.794 6.1918 -523.275 6.1918C-523.076 6.1918 -522.878 5.79478 -522.878 5.59626C-522.878 5.50208 -522.967 5.40789 -523.082 5.3349C-523.315 5.18754 -523.601 5.26599 -523.857 5.3686C-524.167 5.49311 -524.533 5.61762 -524.906 5.74214ZM-235.428 27.5332C-235.25 27.7992 -234.884 27.9347 -234.628 27.742C-234.455 27.6109 -234.335 27.4529 -234.335 27.2351C-234.335 27.1391 -234.428 26.9966 -234.524 26.8751C-234.649 26.717 -234.848 26.6436 -235.037 26.7154C-235.089 26.7356 -235.145 26.759 -235.204 26.7849C-235.497 26.9144 -235.606 27.2669 -235.428 27.5332ZM-161.169 30.2619C-161.6 30.3723 -161.549 31.0899 -161.286 31.4477C-161.073 31.7368 -160.78 31.6211 -160.483 31.4183C-160.469 31.4082 -160.454 31.3981 -160.44 31.388C-160.287 31.2808 -160.209 31.1008 -160.197 30.9143C-160.174 30.5404 -160.181 30.1089 -160.707 30.192C-160.775 30.2027 -160.843 30.2116 -160.912 30.2173C-160.998 30.2244 -161.083 30.2399 -161.169 30.2619ZM-282.575 29.3692C-282.664 29.4584 -282.707 29.6773 -282.601 29.7462C-282.306 29.9384 -282.011 30.1994 -281.715 30.3664C-281.666 30.3946 -281.604 30.3842 -281.563 30.3437C-281.499 30.2794 -281.516 30.1702 -281.593 30.1225C-281.863 29.9562 -282.133 29.7232 -282.403 29.5477C-282.508 29.4789 -282.485 29.28 -282.575 29.3692ZM177.909 286.911C177.834 286.477 177.208 286.582 176.981 286.96C176.921 287.061 176.86 287.163 176.804 287.27C176.698 287.472 176.935 287.764 177.143 287.86C177.238 287.904 177.271 287.868 177.362 287.814C177.765 287.576 177.971 287.275 177.909 286.911ZM-145.284 31.002C-145.453 30.9875 -145.802 31.078 -145.866 31.235C-145.889 31.2914 -145.905 31.3477 -145.905 31.4041C-145.905 31.4609 -145.872 31.5015 -145.821 31.5351C-145.642 31.6528 -145.219 31.4475 -145.157 31.2423C-145.152 31.2259 -145.147 31.2097 -145.143 31.1938C-145.115 31.0926 -145.18 31.011 -145.284 31.002ZM3.43982 404.337C3.07965 404.108 2.33978 404.233 2.28876 404.657C2.26892 404.822 2.35632 404.922 2.47455 405.039C2.66229 405.224 2.99664 405.419 3.13586 405.419C3.33459 405.419 3.73199 404.823 3.73199 404.625C3.73199 404.535 3.61011 404.445 3.43982 404.337ZM-389.306 19.8146C-389.256 19.9866 -389.032 19.9866 -388.872 19.9058C-388.786 19.8619 -388.699 19.822 -388.612 19.7531C-388.565 19.7161 -388.54 19.657 -388.555 19.5995C-388.557 19.5923 -388.559 19.5851 -388.561 19.5779C-388.618 19.3951 -388.991 19.3611 -389.163 19.4466C-389.269 19.4997 -389.343 19.5896 -389.328 19.7072C-389.323 19.743 -389.316 19.7788 -389.306 19.8146ZM-141.966 38.067C-142.068 37.8421 -142.396 37.6722 -142.624 37.7662C-142.629 37.7681 -142.633 37.77 -142.638 37.772C-142.812 37.8451 -142.819 38.0678 -142.713 38.2234C-142.626 38.3493 -142.54 38.486 -142.453 38.601C-142.384 38.694 -142.338 38.7521 -142.232 38.7045C-142.049 38.6221 -141.839 38.3399 -141.924 38.158C-141.939 38.1272 -141.953 38.0968 -141.966 38.067ZM-28.0636 50.2378C-28.0781 49.5917 -29.4543 49.4188 -29.4543 50.0651C-29.4543 50.2636 -29.0569 50.6606 -28.8582 50.6606C-28.6595 50.6606 -28.0633 50.4622 -28.0633 50.2636C-28.0633 50.2549 -28.0634 50.2463 -28.0636 50.2378ZM-37.6019 45.4991C-37.7759 45.4991 -37.66 45.7182 -37.5043 45.796C-37.4478 45.8243 -37.3911 45.8526 -37.3345 45.8719C-37.2651 45.8956 -37.1937 45.7936 -37.1634 45.7268C-37.1145 45.619 -37.2083 45.4991 -37.3267 45.4991C-37.4184 45.4991 -37.5101 45.4991 -37.6019 45.4991ZM-52.6299 46.4916C-52.7198 46.5515 -52.7238 46.7306 -52.6271 46.7786C-52.551 46.8164 -52.4749 46.8563 -52.3989 46.8761C-52.3414 46.8911 -52.2836 46.8652 -52.2416 46.8232L-52.1692 46.7508C-52.1304 46.712 -52.1027 46.657 -52.1239 46.6064C-52.149 46.5463 -52.2031 46.5094 -52.2717 46.4668C-52.3633 46.4099 -52.5402 46.4318 -52.6299 46.4916ZM-213.016 30.1344C-212.933 30.0735 -212.934 29.9559 -212.989 29.869C-213.069 29.742 -213.108 29.615 -213.209 29.488C-213.246 29.4415 -213.305 29.4166 -213.363 29.4315C-213.397 29.4405 -213.432 29.4538 -213.467 29.4691C-213.612 29.5331 -213.668 29.8657 -213.569 29.9896C-213.47 30.1135 -213.16 30.2382 -213.031 30.1457C-213.026 30.142 -213.021 30.1382 -213.016 30.1344ZM-121.45 35.3866C-121.487 35.3495 -121.492 35.3725 -121.543 35.3846C-121.639 35.407 -121.734 35.4627 -121.829 35.5078C-121.909 35.5455 -121.951 35.6799 -121.889 35.7425C-121.87 35.7611 -121.845 35.7715 -121.818 35.7715C-121.734 35.7715 -121.648 35.7715 -121.544 35.7715C-121.367 35.7715 -121.325 35.5116 -121.45 35.3866ZM-132.156 33.521C-132.244 33.2497 -132.695 33.2352 -132.947 33.3684C-133.027 33.4106 -133.014 33.4324 -133.031 33.5213C-133.108 33.9394 -132.769 34.5804 -132.59 34.5804C-132.457 34.5804 -132.323 34.4009 -132.25 34.2229C-132.19 34.0771 -132.109 33.9177 -132.111 33.76C-132.111 33.6876 -132.128 33.607 -132.156 33.521ZM328.279 563.478C328.187 563.386 327.966 563.317 327.848 563.37C327.657 563.457 327.448 563.497 327.448 563.641C327.448 563.718 327.448 563.795 327.459 563.873C327.494 564.1 327.785 564.112 327.976 563.983C328.046 563.937 328.118 563.89 328.185 563.843C328.318 563.752 328.393 563.592 328.279 563.478ZM63.8426 392.139C63.7016 391.893 63.2393 391.993 63.1594 392.265C63.121 392.396 63.205 392.37 63.2861 392.48C63.3718 392.595 63.4575 392.731 63.5433 392.855C63.6458 393.004 63.9254 392.931 64.0529 392.804C64.1523 392.704 64.1009 392.629 64.0372 392.503C63.9723 392.376 63.9074 392.252 63.8426 392.139ZM-129.849 34.5513C-129.898 34.6591 -129.811 34.827 -129.705 34.8799C-129.634 34.9154 -129.563 34.9506 -129.492 34.9674C-129.441 34.9794 -129.39 34.9566 -129.353 34.9194C-129.275 34.8418 -129.274 34.7151 -129.354 34.6398C-129.462 34.5378 -129.571 34.4498 -129.679 34.408C-129.747 34.3815 -129.819 34.4845 -129.849 34.5513ZM-451.537 11.3924C-451.537 11.4665 -451.476 11.5461 -451.403 11.557C-451.385 11.5597 -451.368 11.5638 -451.353 11.5702C-451.257 11.609 -451.139 11.5031 -451.139 11.3995C-451.139 11.3353 -451.192 11.3502 -451.256 11.3563C-451.265 11.3572 -451.274 11.3584 -451.282 11.3599C-451.4 11.3813 -451.537 11.2728 -451.537 11.3924ZM181.645 270.027C181.613 270.027 181.587 270.053 181.587 270.085C181.587 270.137 181.65 270.163 181.686 270.126C181.723 270.09 181.697 270.027 181.645 270.027ZM90.3743 411.573C90.3742 411.573 90.3741 411.573 90.3741 411.573C90.3741 411.673 90.4244 411.773 90.4744 411.873C90.5522 412.028 90.7716 411.97 90.7716 411.97C90.7716 411.87 90.7214 411.771 90.6715 411.671C90.6714 411.671 90.3743 411.573 90.3743 411.573ZM-499.189 10.5181C-499.221 10.5502 -499.204 10.5854 -499.172 10.6175L-499.089 10.6998C-499.052 10.7369 -499 10.7603 -498.951 10.7415C-498.903 10.723 -498.849 10.6838 -498.836 10.6004C-498.831 10.5744 -498.843 10.5488 -498.862 10.5302L-498.891 10.5011C-498.942 10.4493 -499.137 10.4663 -499.189 10.5181ZM-540.564 9.5667C-540.564 9.39272 -540.34 9.16963 -540.166 9.16963C-540.386 9.16963 -540.564 9.3474 -540.564 9.5667ZM169.664 248.19C169.835 248.19 170.007 248.338 170.178 248.378C170.23 248.39 170.281 248.367 170.318 248.33C170.396 248.253 170.395 248.127 170.335 248.035C170.316 248.007 170.3 247.98 170.285 247.955C170.199 247.818 170.058 247.937 169.948 248.055C169.872 248.135 169.768 248.19 169.664 248.19ZM-456.993 8.0671C-457.056 8.02277 -457.146 8.02288 -457.2 8.07767C-457.255 8.13253 -457.255 8.22151 -457.2 8.27636L-457.159 8.31745C-457.122 8.35466 -457.07 8.38019 -457.02 8.36231C-456.897 8.31789 -456.871 8.17702 -456.704 8.17702C-456.81 8.17702 -456.917 8.12001 -456.993 8.0671ZM79.7426 83.2173C79.6878 83.2188 79.6433 83.2626 79.6433 83.3175C79.6433 83.3723 79.6877 83.4167 79.7426 83.4167C79.7714 83.4167 79.8051 83.4167 79.842 83.4167C79.9517 83.4167 80.0406 83.3278 80.0406 83.2181C80.0406 83.1685 80.0406 83.1189 80.0406 83.0197C80.0406 83.1849 79.9032 83.2126 79.7426 83.2173ZM-501.34 7.76229C-501.129 7.66691 -501.268 7.28088 -501.488 7.20742C-501.503 7.2024 -501.518 7.19803 -501.533 7.19449C-501.584 7.18243 -501.635 7.20529 -501.673 7.24248C-501.75 7.32003 -501.749 7.44614 -501.689 7.53789C-501.6 7.67316 -501.562 7.77995 -501.416 7.77995C-501.39 7.77995 -501.365 7.77352 -501.34 7.76229ZM-541.529 6.519C-541.606 6.56132 -541.649 6.69581 -541.586 6.75832C-541.568 6.7769 -541.543 6.78737 -541.517 6.78326C-541.465 6.77516 -541.372 6.751 -541.268 6.67899C-541.204 6.6349 -541.204 6.54438 -541.259 6.48952L-541.265 6.48418C-541.317 6.43234 -541.4 6.43371 -541.46 6.47602C-541.483 6.49269 -541.507 6.50689 -541.529 6.519ZM-54.0213 39.7172C-53.8673 39.666 -53.9685 39.4822 -54.0469 39.3401C-54.0716 39.2952 -54.093 39.2504 -54.1159 39.2056C-54.2075 39.0259 -54.4931 38.9448 -54.4931 39.1464C-54.4931 39.1465 -54.4931 39.1465 -54.4931 39.1465C-54.4931 39.2761 -54.4931 39.4056 -54.4378 39.5352C-54.3742 39.6843 -54.1752 39.7683 -54.0213 39.7172ZM-276.265 22.8676L-276.067 23.0661L-276.265 22.8676ZM-144.043 29.269C-144.124 29.3212 -144.038 29.4189 -143.942 29.4189C-143.881 29.4189 -143.82 29.4189 -143.76 29.4189C-143.671 29.4189 -143.627 29.3119 -143.69 29.2494C-143.708 29.2308 -143.733 29.2203 -143.76 29.2204C-143.87 29.2209 -143.976 29.2257 -144.043 29.269ZM-207.707 29.8741C-207.707 29.9259 -207.644 29.9518 -207.607 29.9152C-207.571 29.8786 -207.597 29.8159 -207.649 29.8159C-207.681 29.8159 -207.707 29.8419 -207.707 29.8741ZM-166.969 33.5878C-166.896 33.5878 -166.859 33.4991 -166.911 33.4473C-166.943 33.4153 -166.995 33.4153 -167.027 33.4473C-167.079 33.4991 -167.042 33.5878 -166.969 33.5878ZM-108.447 34.8763C-108.498 34.9347 -108.501 35.0219 -108.446 35.0768C-108.391 35.1316 -108.302 35.1316 -108.247 35.0768C-108.192 35.022 -108.192 34.9328 -108.247 34.878C-108.355 34.7708 -108.387 34.7387 -108.545 34.5804C-108.387 34.7379 -108.355 34.7704 -108.447 34.8763Z" fill="white"/>
</svg>
