<svg width="370" height="382" viewBox="0 0 370 382" fill="none" xmlns="http://www.w3.org/2000/svg">
<path d="M758.958 370.911C757.707 370.546 757.24 368.529 756.548 367.425C756.296 367.021 755.822 366.708 755.356 366.61C754.052 366.335 752.801 365.902 751.126 366.739C749.934 367.334 748.146 367.136 746.556 366.937C745.416 366.937 744.285 366.677 743.74 367.678C743.589 367.954 743.439 368.232 743.289 368.518C743.095 368.885 742.716 369.12 742.303 369.068C742.136 369.047 741.954 369.02 741.761 368.989C741.105 368.884 740.903 368.076 741.496 367.777C741.574 367.738 741.62 367.7 741.681 367.636C742.291 366.999 742.346 366.622 741.847 366.159C741.693 366.015 741.583 365.941 741.387 366.018C741.09 366.136 740.605 366.195 740.33 366.031C738.86 365.152 737.243 365.169 735.626 365.349C734.839 365.349 735.34 366.806 735.884 367.374C735.991 367.487 736.064 367.613 736.115 367.768C736.358 368.522 735.467 369.183 734.68 369.093C734.318 369.051 733.962 369.003 733.639 368.922C731.603 368.552 729.739 367.666 727.726 367.867C727.428 367.897 727.12 367.949 726.842 367.838C726.546 367.719 726.24 367.497 725.904 367.229C725.046 366.542 724.04 366.372 723.057 366.863C722.074 367.354 720.79 367.285 719.793 366.822C719.059 366.481 718.269 366.309 717.344 366.54C716.933 366.677 716.427 366.531 715.892 366.361C715.407 366.208 714.913 366 714.424 365.859C713.983 365.731 713.539 365.788 713.094 365.904C712.325 366.103 711.556 366.342 710.786 366.342C709.793 366.342 708.799 365.746 707.805 365.746C703.235 365.349 698.465 365.547 693.895 365.746C692.504 365.746 691.113 365.547 690.318 364.753C689.324 363.959 688.728 363.959 687.735 364.158C686.235 364.657 685.416 361.729 683.951 362.321C683.92 362.334 683.889 362.347 683.859 362.361C682.6 362.927 681.462 364.134 680.18 363.623C679.797 363.47 679.435 363.28 679.083 363.076C677.865 362.371 676.454 362.178 675.066 362.409C674.217 362.55 673.394 362.659 672.632 362.768C671.309 362.957 669.986 362.428 668.663 363.229C668.524 363.313 668.408 363.435 668.253 363.484C667.859 363.607 667.467 363.279 667.07 363.164C664.657 362.458 662.087 362.967 659.516 362.967C657.926 362.967 656.933 362.173 655.542 361.776C654.747 361.577 653.952 361.776 653.356 361.577C653.019 361.493 652.717 361.409 652.422 361.324C651.644 361.103 651.203 360.43 650.73 359.775C650.639 359.648 650.536 359.519 650.418 359.418C649.931 359.001 648.984 359.04 648.984 359.393C648.785 360.981 647.593 360.981 646.401 360.981C645.606 360.981 644.811 360.981 644.016 360.783C640.24 359.989 636.465 359.592 632.689 359.592C630.503 359.592 628.118 359.195 625.932 358.004C624.541 357.011 622.753 357.21 621.561 358.004C619.573 359.393 617.785 359.393 615.798 358.401C614.407 357.607 612.817 357.408 611.227 357.805C609.792 358.164 608.375 357.228 606.923 356.948C606.513 356.868 606.097 356.813 605.677 356.78C604.083 356.653 602.445 357.002 600.894 356.614C598.31 356.217 595.926 356.018 593.342 356.217C592.702 356.323 592.12 356.144 591.441 355.709C590.083 354.841 588.46 354.628 586.9 355.034C586.52 355.133 586.131 355.201 585.733 355.224C584.696 355.286 584.265 354.498 585.195 354.033C585.883 353.689 585.953 352.655 585.245 352.353C584.997 352.247 584.769 352.191 584.563 352.212C584.453 352.223 584.344 352.251 584.233 352.259C581.795 352.423 579.705 352.049 577.45 351.139C577.315 351.085 577.258 351.051 577.112 351.057C576.637 351.078 576.221 351.589 576.386 352.036C576.616 352.661 577.114 353.084 577.642 353.485C577.775 353.586 577.905 353.694 577.985 353.841C578.001 353.872 578.018 353.904 578.033 353.937C578.237 354.369 578.134 354.919 577.717 355.15C577.301 355.381 576.799 355.232 576.324 355.192C575.562 355.128 574.772 354.978 573.868 354.827C572.842 354.657 572.699 354.633 572.173 355.893C571.985 356.343 571.601 356.7 571.115 356.747C570.372 356.819 569.668 356.718 568.981 356.492C568.424 356.308 568.506 355.645 569.084 355.548C569.42 355.492 569.728 355.713 569.966 355.955C570.107 356.099 570.295 356.13 570.589 356.049C570.655 356.03 570.703 356.035 570.761 355.997C571.056 355.803 570.921 355.136 570.582 355.039C570.551 355.031 570.52 355.026 570.489 355.026C569.943 355.026 569.434 354.799 568.972 354.508C568.692 354.331 568.327 354.325 567.906 354.43C567.599 354.507 566.665 354.701 566.472 354.45C566.249 354.16 566.013 353.858 565.757 353.535C565.62 353.362 565.379 353.307 565.185 353.411C565.141 353.435 565.097 353.46 565.052 353.486C564.664 353.709 564.105 353.629 563.88 353.242C563.845 353.182 563.808 353.12 563.772 353.055C563.529 352.632 562.979 352.489 562.566 352.749C562.492 352.796 562.416 352.843 562.339 352.889C561.817 353.206 561.617 353.885 561.956 354.393C562.023 354.493 562.09 354.592 562.158 354.693C562.715 355.511 562.246 356.593 561.258 356.539C558.435 356.386 555.807 355.144 553.373 355.928C552.503 356.208 550.979 355.883 551.686 355.304C551.784 355.224 551.861 355.186 551.962 355.111C552.275 354.878 552.56 354.675 552.843 354.473C553.569 353.955 554.496 353.817 555.347 354.087C555.441 354.116 555.536 354.146 555.632 354.175C557.505 354.739 558.138 352.644 556.182 352.644C554.78 352.644 553.379 352.156 552.074 352.804C551.46 353.109 550.673 353.089 550.314 352.505C550.143 352.227 549.83 352.036 549.504 352.014C546.497 351.807 543.49 351.442 540.483 351.254C538.949 351.084 537.27 351.789 535.695 351.368C535.163 351.226 534.513 350.865 534.123 351.254C534.006 351.371 533.819 351.489 533.644 351.647C533.395 351.874 533.332 352.267 533.476 352.572C533.595 352.821 533.857 352.897 534.115 352.995C534.692 353.216 535.27 353.393 535.847 353.332C536.453 353.268 536.984 352.874 537.589 352.807C538.275 352.732 538.931 352.939 539.489 353.636C539.635 353.819 539.775 353.907 539.911 353.932C541.281 354.173 542.398 354.388 541.079 354.827C540.284 355.026 539.29 355.224 538.495 355.026C537.303 354.827 536.111 354.629 535.117 354.232C533.925 353.835 532.931 353.636 531.739 354.232C531.143 354.629 529.95 354.629 529.553 354.232C527.963 352.644 525.976 353.438 524.187 352.842C522.781 352.374 521.537 352.944 520.128 353.405C520.091 353.417 520.053 353.428 520.014 353.438C519.913 353.471 519.812 353.499 519.71 353.522C518.68 353.757 517.762 354.37 517.096 355.19C516.898 355.435 516.677 355.451 516.366 355.498C515.291 355.663 514.124 355.769 513.258 355.423C512.423 355.006 511.587 354.783 510.684 354.824C509.872 354.861 509.102 355.224 508.29 355.224C507.013 355.224 505.737 354.054 504.307 354.935C504.041 355.099 503.783 355.263 503.496 355.14C503.4 355.098 503.276 354.998 503.185 354.945C502.435 354.509 501.685 354.175 500.935 353.773C500.63 353.61 500.602 353.149 500.706 352.819C500.748 352.684 500.683 352.587 500.58 352.49C500.038 351.978 499.511 351.616 499.149 351.254C498.76 350.866 499.511 349.719 498.432 349.482C498.381 349.471 498.357 349.467 498.305 349.467C497.783 349.464 497.134 349.625 496.827 350.047C496.727 350.185 496.634 350.322 496.565 350.46C496.433 350.724 496.389 350.988 496.316 351.193C496.251 351.375 496.015 351.478 495.827 351.52C495.608 351.569 495.469 351.369 495.284 351.242C493.619 350.106 491.946 350.307 490.103 351.207C490.04 351.238 489.999 351.26 489.953 351.313C489.639 351.682 489.982 352.27 490.462 352.343C490.474 352.345 490.486 352.347 490.498 352.349C490.944 352.417 491.282 352.887 491.12 353.309C490.763 354.242 490.373 354.245 488.6 353.602C488.077 353.412 487.895 352.731 488.003 352.186C488.032 352.043 487.989 351.978 487.91 351.857C487.694 351.528 487.36 351.222 487.027 351.055C486.629 350.857 486.232 351.055 485.834 350.857C483.691 349.965 483.474 349.874 482.298 350.009C482.014 350.042 481.76 350.175 481.627 350.428C481.542 350.59 481.431 350.749 481.359 350.918C480.775 352.289 480.004 352.621 478.879 352.247C477.886 351.849 476.693 351.452 475.7 351.055C473.392 350.095 471.085 349.878 468.777 350.944C468.624 351.015 468.45 351.055 468.329 351.172C468.233 351.265 468.083 351.279 467.959 351.327C465.833 352.141 465.571 352.172 464.726 350.002C464.507 349.438 464.739 348.903 465.168 348.475C465.471 348.171 465.445 347.611 465.193 347.263C464.591 346.432 463.774 345.961 462.842 345.702C462.422 345.585 462.195 345.083 462.527 344.8C462.806 344.561 462.857 344.078 462.527 343.916C461.302 343.318 459.956 343.343 458.61 343.512C457.629 343.512 456.912 342.712 455.932 342.703C455.687 342.701 455.437 342.734 455.184 342.765C454.292 342.874 453.284 342.678 452.648 343.313C452.495 343.466 452.813 343.853 453.058 344.205C453.191 344.395 453.244 344.625 453.244 344.857C453.244 345.018 453.27 345.177 453.321 345.33C453.486 345.819 453.65 346.292 453.814 346.634C453.831 346.67 453.833 346.713 453.857 346.745C453.868 346.758 453.883 346.767 453.901 346.773C454.097 346.84 454.64 346.467 454.5 346.315C454.459 346.269 454.412 346.266 454.368 346.224C454.327 346.185 454.285 346.147 454.241 346.108C453.808 345.726 454.03 345.17 454.607 345.186C454.963 345.195 455.312 345.179 455.629 345.1C455.836 345.065 456.043 345.043 456.249 345.033C457.762 344.964 457.938 346.777 456.861 347.841C456.474 348.224 455.928 348.52 455.384 348.511C453.776 348.484 452.417 347.876 451.058 346.688C450.505 346.274 449.856 345.859 449.245 345.445C448.754 345.112 448.392 344.313 448.89 343.99C449.721 343.45 450.12 342.776 449.327 342.181C448.588 341.627 447.676 341.429 446.686 341.923C445.565 342.483 444.972 341.99 444.079 341.435C443.964 341.363 443.899 341.299 443.775 341.244C443.199 340.992 442.495 341.478 442.378 342.096C442.162 343.234 442.598 344.205 442.911 345.298C443.199 346.449 441.476 346.108 440.75 345.169C440.002 344.203 439.118 343.489 437.716 343.617C437.392 343.647 437.01 343.323 436.894 343.018C436.763 342.673 437.065 342.544 437.432 342.57C438.968 342.676 439.374 342.608 440.304 341.841C440.704 341.511 440.648 340.732 440.129 340.732C437.943 340.534 435.757 340.732 433.77 340.335C432.643 340.054 431.916 340.37 431.234 340.791C430.707 341.116 430.255 341.832 430.727 342.235C430.974 342.446 431.316 342.505 431.597 342.626C431.858 342.737 431.93 343.188 431.668 343.298C431.609 343.322 431.553 343.324 431.492 343.342C430.908 343.512 430.162 343.522 429.596 343.71C428.007 344.306 426.616 344.107 425.423 342.916C425.375 342.868 425.303 342.843 425.215 342.833C424.764 342.782 424.565 343.407 424.625 343.857C424.632 343.914 424.637 343.937 424.651 343.992C425.01 345.33 424.609 346.096 423.635 346.291C422.045 346.688 420.257 347.085 418.667 347.085C417.15 347.274 415.633 346.38 414.117 345.952C413.972 345.911 413.75 345.878 413.624 345.795C413.499 345.711 413.46 345.63 413.386 345.499C412.876 344.598 412.665 343.882 412.109 343.512C411.383 343.149 410.73 343.375 410.151 343.788C409.5 344.251 408.508 344.22 407.814 343.825C407.526 343.661 407.396 343.819 407.097 343.961C406.483 344.255 405.868 344.324 405.253 344.304C403.605 344.252 402.149 342.375 403.564 341.526C404.359 340.931 403.763 339.541 402.769 339.541C402.696 339.541 402.614 339.547 402.526 339.558C401.581 339.671 401.054 340.894 400.324 341.503C399.303 342.354 397.709 341.173 396.384 341.067C395.562 341.001 394.629 340.984 394.08 340.369C393.553 339.778 393.016 339.197 392.178 338.918C391.526 338.702 390.905 339.102 390.681 339.751C390.529 340.192 390.193 340.611 389.729 340.66C389.489 340.686 389.25 340.739 389.057 340.931C387.666 342.122 386.275 341.725 385.481 340.335C385.12 339.615 384.614 339.693 384.094 339.736C383.44 339.79 383.093 339.151 383.223 338.508C383.244 338.403 383.267 338.297 383.292 338.189C383.409 337.671 383.265 337.127 382.887 336.754C382.529 336.401 382.139 336.024 381.716 335.635C381.248 335.204 380.501 335.45 380.572 336.083C380.62 336.511 380.351 337.019 379.92 337.01C379.206 336.996 378.551 336.817 377.955 336.506C377.49 336.264 377.384 335.718 377.755 335.347C378.126 334.977 378.177 334.279 377.789 333.927C377.592 333.748 377.399 333.581 377.196 333.445C376.471 332.956 376.029 333.938 376.48 334.687C376.886 335.362 376.474 336.153 375.704 336.32C375.312 336.406 374.914 336.486 374.506 336.571C373.484 336.782 372.706 336.11 371.968 335.372C371.687 335.092 371.21 334.813 370.744 334.741C370.368 334.684 369.988 334.8 369.621 334.9C369.14 335.031 368.683 335.216 368.22 335.41C367.319 335.787 366.25 335.697 365.354 335.31C364.104 334.772 362.717 334.853 361.557 335.564C361.506 335.595 361.455 335.626 361.405 335.656C361.037 335.875 360.609 336.077 360.239 335.862C360.077 335.768 359.928 335.653 359.846 335.571C359.647 335.372 360.044 334.975 360.044 334.578C360.044 334.227 360.086 333.83 359.738 333.788C358.704 333.663 357.916 334.287 357.262 334.777C356.338 335.546 355.415 335.719 354.491 335.573C353.965 335.49 353.598 335.127 353.302 334.684C353.082 334.354 352.683 334.139 352.294 334.062C351.803 333.965 351.302 333.867 350.768 333.77C350.068 333.642 349.32 333.529 348.766 333.082C348.661 332.998 348.574 332.903 348.518 332.791C347.127 330.211 344.743 329.814 342.358 329.417C340.967 329.218 339.576 328.622 337.986 329.814C336.595 331.005 335.8 330.608 334.211 329.02C333.813 328.622 333.217 328.424 333.018 328.424C331.056 328.669 329.527 327.059 327.553 326.933C326.896 326.89 326.254 326.732 325.666 326.439C324.499 325.773 323.472 324.687 322.35 323.652C321.947 323.28 321.373 323.168 320.846 323.319C320.693 323.363 320.539 323.407 320.388 323.451C319.982 323.568 319.537 323.419 319.314 323.061C319.238 322.94 319.163 322.814 319.088 322.681C318.808 322.188 318.117 322.109 317.82 322.591C317.654 322.861 317.307 323 316.998 322.929C316.608 322.838 316.224 322.741 316.024 322.46C315.942 322.344 315.895 322.204 315.815 322.087C315.251 321.261 314.885 321.954 314.391 322.205C314.118 322.344 313.814 322.176 313.571 321.988C313.021 321.565 312.4 321.058 311.762 320.467C311.46 320.188 311.51 319.731 311.852 319.502C312.129 319.317 312.275 318.827 312.072 318.563C312.041 318.523 312.004 318.498 311.954 318.498C311.358 318.498 310.563 318.696 309.967 318.498C306.21 317.199 305.815 316.844 303.893 317.282C301.9 317.735 299.905 317.394 298.044 316.55C297.647 316.37 297.231 316.263 296.795 316.26C295.971 316.254 295.096 316.457 293.983 316.62C293.522 316.687 293.218 316.701 292.83 316.443C291.976 315.873 290.727 315.787 289.719 315.982C288.426 316.232 287.075 315.827 285.524 315.123C283.338 314.13 280.953 313.535 278.768 312.344C275.723 310.823 272.679 309.484 269.634 307.805C269.365 307.656 269.046 307.479 268.77 307.343C268.603 307.261 268.621 307.087 268.577 306.906C268.09 304.863 266.39 305.594 265.056 305.594C264.976 305.594 264.881 305.594 264.777 305.592C264.014 305.581 263.487 305.005 262.824 304.628C262.555 304.475 262.26 304.382 261.941 304.358C261.501 304.325 261.036 304.464 260.663 304.226C260.351 304.027 260.185 303.649 259.932 303.378C258.283 301.615 255.577 301.498 253.729 299.837C253.362 299.47 252.656 299.273 252.081 299.088C251.987 299.059 251.89 299.043 251.792 299.043C251.675 299.043 251.558 299.044 251.44 299.047C250.874 299.062 250.34 298.443 250.349 297.876C250.352 297.686 250.276 297.576 250.161 297.423C250.026 297.243 249.89 297.058 249.754 297.058C247.568 297.058 245.979 295.469 243.991 294.874C243.197 294.675 242.402 293.484 242.004 292.69C241.209 290.705 239.222 289.911 237.434 289.315C234.85 288.521 232.863 287.33 231.273 284.948C230.28 283.36 228.094 282.367 226.305 281.374C225.312 280.779 224.716 280.382 224.119 279.389C223.523 278.198 222.927 277.007 221.337 276.808C221.139 276.808 220.94 276.61 220.741 276.411C217.76 273.433 214.78 270.654 211.997 267.676C210.606 266.287 209.017 265.294 208.023 263.309C207.228 261.721 206.235 260.331 204.844 258.941C203.651 257.949 202.856 256.162 201.863 254.971C199.876 252.39 198.286 249.214 195.702 247.03C195.305 246.633 195.106 245.839 194.908 245.243C194.51 244.052 193.914 243.06 192.92 242.464C191.728 241.868 190.933 241.074 190.734 239.883C190.706 239.784 190.671 239.689 190.63 239.598C189.652 237.421 188.649 234.798 187.157 232.935C185.766 231.347 185.369 229.56 184.773 227.773C184.379 226.592 183.162 225.853 182.593 224.745C182.553 224.667 182.515 224.588 182.479 224.508C182.222 223.929 182.076 223.307 181.882 222.705C181.274 220.821 180.861 218.937 180.003 217.053C179.01 215.068 178.215 213.083 177.619 210.899C176.534 207.649 175.386 203.955 174.192 200.744C174.045 200.347 173.869 199.958 173.644 199.583C172.85 198.194 172.253 196.407 172.055 194.819C171.26 190.848 170.664 186.679 170.067 182.51C169.698 181.035 171.299 179.889 171.234 178.369C171.205 177.681 170.961 176.943 170.862 176.158C170.664 174.768 169.869 173.577 170.862 171.989C171.154 171.552 170.91 170.901 170.603 170.115C170.388 169.563 170.531 168.945 170.949 168.527C171.56 167.917 171.414 167.099 170.811 166.481C170.605 166.27 170.465 166.009 170.465 165.636C170.465 164.048 169.869 162.063 170.465 160.673C170.576 160.369 170.64 160.079 170.668 159.803C170.971 156.844 167.901 153.877 169.074 151.144C169.67 149.357 169.869 147.769 169.273 145.585C169.015 144.942 169.175 143.213 169.536 141.861C169.846 140.7 171.061 139.839 171.061 138.637C171.061 137.844 171.123 137.051 171.332 136.287C171.573 135.408 171.856 134.494 171.856 133.674C171.856 132.483 170.862 131.292 170.664 129.902C170.465 129.108 170.664 127.719 171.061 127.321C172.452 126.13 171.061 124.542 171.856 123.351C172.651 122.16 173.048 121.167 172.651 119.778C172.162 118.311 173.685 116.935 174.239 115.492C174.323 115.274 174.392 115.05 174.439 114.815C174.474 114.709 174.506 114.603 174.536 114.495C175.107 112.393 172.774 110.985 173.247 108.859C173.528 107.171 175.42 106.292 175.78 104.62C176.197 102.681 176.727 100.766 177.817 99.1314C178.215 98.3373 178.215 97.3446 178.215 96.5506C178.215 96.4058 178.162 96.2874 178.095 96.1761C177.931 95.9052 177.517 95.699 177.247 95.8645C176.965 96.0375 176.507 95.9478 176.444 95.623C176.33 95.0275 176.378 94.4491 177.221 94.1684C177.848 94.0119 178.227 93.6087 178.457 93.0561C178.586 92.7483 178.678 92.4232 178.817 92.1202C179.843 89.8874 180.743 87.1946 181.357 84.815C181.372 84.7564 181.385 84.6978 181.394 84.6393C181.593 83.2496 182.189 82.0585 182.785 80.6688C183.382 79.0807 184.375 77.4925 183.779 75.5073C183.628 74.752 184.052 73.8819 184.438 73.0717C184.651 72.6267 184.594 72.1329 184.185 71.8574C183.741 71.5579 183.474 70.9865 183.616 70.4699C183.927 69.3398 184.344 68.2385 185.766 67.7649C187.555 67.1693 188.151 65.5812 187.952 63.9931C187.952 62.6764 187.952 61.3597 188.628 60.0431C188.704 59.8961 188.811 59.7626 188.878 59.6118C189.097 59.1229 188.708 58.6163 188.478 58.1326C188.107 57.3514 188.206 56.5702 188.422 55.789C188.681 54.8529 189.564 54.861 190.536 54.861C191.331 54.861 191.529 54.2655 191.728 53.6699C192.324 51.6847 192.92 49.6995 193.516 47.7143C193.914 46.3246 194.51 44.7364 195.305 43.3468C196.441 41.2379 197.313 39.1291 198.136 37.0203C198.479 36.1404 198.15 34.5012 197.482 35.1686C197.347 35.3028 197.255 35.4944 197.19 35.6725C196.864 36.5529 196.654 37.4334 196.141 38.3138C196.114 38.3604 196.081 38.4036 196.04 38.4386C196.004 38.4693 195.965 38.4999 195.922 38.5306C195.618 38.752 194.882 38.6044 195.046 38.2663C195.081 38.1955 195.12 38.147 195.149 38.0735C195.671 36.7109 196.338 35.4893 197.022 34.1533C197.196 33.8121 197.496 33.5456 197.873 33.4751C197.956 33.4595 198.04 33.4452 198.124 33.4312C198.681 33.338 199.013 32.8116 198.906 32.2574C198.854 31.9918 198.803 31.7372 198.752 31.48C198.633 30.8844 199.322 30.4404 199.895 30.6435C200.259 30.7727 200.588 30.565 200.743 30.211C201.633 28.1723 201.964 27.8235 205.166 25.2287C205.524 24.9391 205.241 24.5501 205.241 24.0902C205.44 22.3034 205.44 20.3183 207.029 19.3257C207.275 19.1624 207.478 18.9907 207.653 18.814C208.868 17.5873 209.651 15.9869 210.659 14.5853C211.138 13.9203 211.637 13.2773 212.175 12.6369C212.32 12.4638 212.461 12.2316 212.617 12.0681C212.975 11.6931 213.239 11.3109 213.409 10.8213C214.152 8.67554 215.757 7.2316 217.363 5.62766C217.959 5.03207 218.555 4.23804 218.754 3.44397C219.35 0.664643 221.735 -0.923553 223.523 -2.90875C224.517 -3.90137 225.312 -5.09247 225.908 -6.48212C225.971 -6.60867 226.037 -6.733 226.104 -6.85553C227.116 -8.68936 226.968 -11.657 224.914 -11.2467C223.324 -10.8496 221.735 -11.6437 220.344 -11.2467C218.754 -10.8496 217.363 -11.2466 215.773 -11.0481C214.764 -10.9361 213.691 -11.0137 212.591 -11.1383C210.945 -11.3247 209.92 -12.9583 208.27 -13.1066C207.905 -13.1393 207.462 -12.9485 207.16 -12.7417C206.896 -12.5609 206.603 -12.3621 206.234 -12.2393C203.733 -11.2782 203.095 -11.4338 201.614 -13.9675C201.514 -14.1375 201.441 -14.2781 201.266 -14.3681C201.173 -14.4159 201.015 -14.4336 200.91 -14.4375C199.941 -14.4731 199.965 -13.4021 199.513 -12.7844C199.316 -12.5152 198.901 -12.6533 198.712 -12.9276C198.273 -13.562 196.93 -15.0604 196.232 -14.7319C195.691 -14.4774 194.964 -14.8737 194.62 -15.3631C194.249 -15.8915 193.594 -16.0775 193.017 -16.2973C192.219 -16.6012 191.261 -17.2063 190.532 -16.7615C189.907 -16.3798 189.544 -15.8242 189.178 -15.3343C188.912 -14.9781 188.544 -14.6553 188.099 -14.6714C187.255 -14.702 186.645 -15.5758 186.164 -15.4156C184.574 -14.82 183.58 -15.6142 182.388 -16.2097C181.196 -16.8053 179.606 -16.8053 178.414 -17.4008C176.625 -18.1949 174.837 -18.7904 172.849 -18.989C171.745 -19.1466 170.64 -19.4295 169.535 -19.7382C169.037 -19.8774 168.525 -19.6818 168.176 -19.2988C167.902 -18.9975 167.44 -18.8746 167.049 -18.9899C165.485 -19.4511 163.777 -19.7176 161.924 -19.4207C161.789 -19.399 161.682 -19.383 161.545 -19.389C161.131 -19.4072 160.689 -19.626 160.404 -19.9271C159.963 -20.3931 159.626 -21.1216 158.74 -20.9742C157.945 -20.7757 156.952 -20.5772 156.157 -20.5772C155.188 -20.5772 154.298 -21.1152 153.352 -21.3248C152.432 -21.5285 151.512 -21.7042 150.593 -21.9668C149.798 -22.1653 149.003 -22.3639 148.407 -22.7609C148.317 -22.8205 148.246 -22.9068 148.185 -23.0098C147.411 -24.3171 146.15 -23.952 144.631 -23.952C142.843 -24.1505 141.054 -23.158 139.464 -24.3491C138.947 -24.6938 138.429 -24.7392 137.912 -24.4853C137.749 -24.4056 137.592 -24.3097 137.418 -24.2623C136.724 -24.0744 136.125 -24.2826 135.546 -24.7372C135.281 -24.9447 135.266 -25.4251 135.514 -25.6517C135.633 -25.7604 135.754 -25.8015 135.865 -25.9181C136.188 -26.2553 136.424 -26.5926 136.086 -26.9298C136.072 -26.9438 136.056 -26.9578 136.038 -26.9717C135.512 -27.384 134.741 -27.0216 134.124 -26.7647C132.589 -26.1253 130.834 -26.1313 129.498 -27.1223C128.64 -27.7581 127.823 -28.3668 126.945 -28.915C126.349 -29.3121 125.753 -29.5106 125.157 -29.3121C121.359 -28.4499 118.461 -30.4336 115.291 -32.0106C114.559 -32.3748 114.292 -33.315 114.768 -33.9798C115.133 -34.4883 115.113 -35.2275 114.619 -35.6104C114.523 -35.6847 114.426 -35.7513 114.33 -35.8072C114.263 -35.8467 114.189 -35.8757 114.115 -35.9007C112.972 -36.2855 112.01 -36.6761 111.047 -37.253C110.308 -37.675 109.456 -37.9849 108.582 -38.2125C107.071 -38.6058 105.525 -38.8603 104.051 -39.3752C102.589 -39.8854 101.099 -40.3621 99.5216 -40.2308C97.9318 -40.2308 96.3421 -41.2235 95.1497 -42.4146C94.2823 -43.1079 93.1118 -43.8011 91.9029 -44.4944C91.5761 -44.6818 91.374 -44.8805 91.374 -45.2573C91.374 -45.6192 91.1923 -46.12 90.8537 -46.2477C90.258 -46.4723 89.6819 -46.4468 89.0918 -46.3168C87.734 -46.0177 86.1831 -46.5489 85.3347 -47.6502C84.5461 -48.6739 83.8538 -49.7735 82.7741 -49.0636C82.466 -48.8611 82.117 -48.7085 81.6724 -48.7146C81.3827 -48.7186 81.1078 -48.8315 80.8509 -48.9656C78.577 -50.1527 76.1638 -51.8631 74.2841 -53.9289C72.3551 -56.0486 70.4262 -57.046 67.7702 -56.3764C67.6088 -56.3356 67.5088 -56.3111 67.3422 -56.3111C66.8667 -56.3111 66.333 -56.496 66.0971 -56.9088C65.6612 -57.6718 65.3871 -58.5827 64.1493 -58.8919C61.6719 -59.3869 59.8747 -61.2885 57.71 -62.5909C57.0388 -62.9948 56.4398 -63.5752 56.0017 -64.4505C55.8906 -64.6726 55.5927 -64.8948 55.2474 -65.0822C54.7158 -65.3707 54.1195 -65.6784 53.6511 -66.0608C53.1383 -66.4794 52.4839 -66.5039 51.9043 -66.8235C50.4873 -67.6047 49.5764 -68.9834 48.2516 -69.8106C46.7216 -70.7659 44.8236 -70.9856 43.7974 -72.4164C43.7166 -72.529 43.6137 -72.6609 43.5116 -72.7547C43.2591 -72.9865 42.933 -73.0876 42.6294 -73.2467C41.1303 -74.0323 39.3964 -74.3638 38.3156 -76.1633C37.5207 -77.5529 35.5335 -78.3469 34.1425 -79.5381C33.3476 -80.1336 32.5526 -80.9278 31.559 -81.3248C30.5655 -81.7218 29.7706 -82.3174 29.3731 -83.31C29.0269 -84.0018 28.4538 -84.5219 27.8856 -85.0469C26.7202 -86.1236 25.7615 -87.4319 24.8027 -88.8686C23.6104 -90.6553 21.6232 -91.8464 19.8347 -93.2361C17.0526 -95.4198 14.8666 -97.8021 13.2768 -100.78C13.138 -101.057 12.9991 -101.359 12.8433 -101.651C12.2862 -102.695 11.1191 -103.244 10.4124 -104.193C10.248 -104.414 10.1037 -104.644 9.97567 -104.886C9.36183 -106.044 8.92232 -107.279 8.50746 -108.522C8.02754 -109.641 7.67647 -110.631 7.24678 -111.7C7.03359 -112.23 6.84999 -112.81 6.68886 -113.359C6.41237 -114.299 5.66854 -114.962 5.22035 -115.834C4.68251 -116.879 4.56038 -118.111 4.1357 -119.242C3.77291 -120.33 4.23793 -121.913 2.9615 -122.634C2.70174 -122.781 2.34718 -122.915 2.34718 -123.213C2.16664 -127.181 0.509721 -130.985 0.953507 -134.924C1.04359 -135.723 1.51497 -136.589 1.15492 -137.308C0.360062 -139.095 -0.0373992 -140.881 1.15492 -142.867C1.35365 -143.264 0.956253 -143.859 0.956253 -144.455C1.15498 -146.043 0.956069 -148.028 1.75093 -149.418C3.53944 -152.594 3.34077 -155.77 3.34077 -159.145C3.34077 -160.625 4.10286 -161.986 4.62178 -163.372C4.99183 -164.36 5.29347 -165.36 5.52669 -166.292C6.32155 -168.674 6.71913 -171.255 7.91145 -173.24C9.50123 -175.821 9.69996 -178.6 10.8923 -181.181C11.8859 -183.166 11.8858 -185.35 13.0781 -187.137C13.4756 -187.732 13.4754 -188.924 13.6741 -189.718C14.0716 -191.107 14.2704 -192.497 15.4627 -193.49C16.0213 -194.048 16.1238 -194.874 16.2126 -195.658C16.3012 -196.44 16.3892 -197.193 16.655 -197.857C17.0524 -198.651 18.4435 -199.048 18.4435 -200.239C18.4435 -201.629 19.2385 -202.423 20.0333 -203.217C21.6231 -205.004 22.6166 -206.989 23.4115 -209.173C23.8743 -210.252 24.2174 -211.45 25.1842 -212.211C25.785 -212.683 26.6464 -212.857 26.9886 -213.54C27.9822 -215.922 29.9694 -217.709 31.7579 -219.496C33.149 -220.885 34.54 -222.275 35.931 -223.665C37.322 -225.055 38.713 -226.841 40.5014 -227.635C40.8989 -227.834 41.0976 -228.032 41.4951 -228.429C42.0606 -229.136 42.6765 -229.716 43.3427 -230.171C45.5285 -231.664 47.7759 -233.176 49.2452 -235.378C49.6426 -235.973 50.2389 -236.569 50.835 -236.966C52.2261 -237.958 53.6171 -239.15 54.8095 -240.539C56.2005 -242.524 58.3863 -243.517 60.3735 -244.708C62.162 -245.701 64.1493 -246.495 64.9442 -248.679C65.0043 -248.799 65.101 -248.919 65.2176 -249.034C65.7473 -249.555 66.4489 -249.872 67.1202 -250.191C67.416 -250.331 67.6302 -250.595 67.7944 -250.878C68.2251 -251.62 68.5808 -252.483 69.9122 -252.649C70.9058 -252.649 71.7007 -253.84 72.6943 -254.436C76.2713 -256.024 79.6494 -258.009 83.0277 -259.597C84.6174 -260.391 86.4059 -260.987 87.9957 -261.781C89.1881 -262.377 90.1816 -263.171 91.374 -263.568C93.1625 -264.362 94.951 -265.156 96.7394 -265.553C99.5215 -266.148 102.304 -266.148 105.284 -266.546C106.675 -266.744 107.868 -266.546 109.06 -267.141C110.054 -267.538 111.246 -267.737 112.24 -266.744C112.412 -266.572 113.034 -266.699 113.585 -266.605C113.75 -266.577 113.899 -266.508 114.055 -266.447C114.817 -266.145 115.176 -265.455 115.593 -264.749C116.185 -263.747 117.349 -263.374 118.4 -262.774C119.195 -262.377 119.394 -261.583 118.996 -260.788C118.201 -258.605 116.413 -257.811 114.426 -257.017C114.129 -256.868 113.832 -256.769 113.534 -256.705C110.063 -255.967 106.8 -255.342 104.49 -252.649C103.297 -251.458 102.105 -250.664 100.118 -251.259C99.4117 -251.461 98.6033 -251.509 97.7965 -251.481C96.2917 -251.43 94.8132 -251.101 93.56 -250.267C92.3677 -249.473 91.1752 -248.679 89.9829 -247.885C88.9722 -247.324 87.9616 -246.763 86.8074 -246.453C85.5873 -246.125 84.0607 -244.448 83.435 -243.35C83.0322 -242.644 82.397 -242.101 81.5956 -241.962C80.0697 -241.697 79.3109 -241.151 78.0597 -239.745C77.1801 -238.866 76.1791 -238.345 75.1531 -237.642C74.2078 -236.995 73.5504 -236.031 72.893 -234.981C72.4956 -234.385 71.8994 -233.789 71.1044 -233.392C69.9909 -232.836 69.7185 -231.485 68.7227 -230.739C67.4764 -229.804 66.6084 -228.421 65.3415 -227.437C65.2319 -227.327 65.1223 -227.097 65.0794 -226.879C65.0209 -226.582 65.2291 -226.313 65.342 -226.032C65.7801 -224.943 65.1365 -224.568 64.4008 -224.203C64.0336 -224.02 63.5142 -224.217 63.3125 -224.575C63.0852 -224.977 62.624 -225.018 62.2528 -224.742C62.1766 -224.686 62.0993 -224.629 62.0192 -224.573C61.5881 -224.269 61.435 -223.679 61.7645 -223.268C61.7698 -223.261 61.775 -223.255 61.7802 -223.248C62.1014 -222.847 62.0416 -221.966 61.531 -222.025C61.4213 -222.038 61.3099 -222.082 61.1997 -222.086C60.1683 -222.122 59.2622 -221.752 58.389 -221.293C56.0263 -220.049 53.4661 -218.752 51.7972 -216.667C51.6691 -216.507 51.5434 -216.345 51.4204 -216.18C51.2936 -216.01 51.1752 -215.902 51.1144 -215.698C50.9429 -215.125 51.4103 -214.579 51.5677 -214.001C51.6096 -213.848 51.54 -213.694 51.2324 -213.54C50.835 -213.342 50.2389 -213.342 49.8414 -213.342C49.0042 -213.342 48.4608 -212.95 48.1427 -212.304C47.9305 -211.874 48.2575 -211.435 48.7255 -211.543C49.3887 -211.695 49.9858 -210.937 49.5368 -210.425C47.7887 -208.435 46.2318 -206.758 44.6748 -205.202C44.5675 -205.095 44.3446 -205.046 44.0995 -204.992C43.7125 -204.907 43.4822 -204.613 43.4822 -204.217C43.4822 -203.537 42.837 -202.951 42.1643 -203.051C41.8896 -203.092 41.6083 -203.139 41.2964 -203.217C40.2769 -203.363 39.7911 -203.295 39.4479 -202.467C39.1942 -201.855 39.6661 -201.232 40.3287 -201.232C41.1095 -201.232 41.6915 -200.402 41.2736 -199.742C40.9235 -199.19 40.532 -198.7 40.0492 -198.309C39.4184 -197.799 38.8652 -197.152 38.6553 -196.368C38.425 -195.508 38.0638 -194.698 37.4691 -194.041C37.3739 -193.936 37.2833 -193.827 37.1999 -193.712C37.0472 -193.501 36.8746 -193.291 36.6996 -193.081C36.2529 -192.544 35.1873 -192.454 35.4237 -193.111C35.4531 -193.193 35.4928 -193.272 35.5352 -193.348C35.6561 -193.564 35.6712 -193.821 35.5349 -194.028C35.5305 -194.034 35.5262 -194.041 35.5218 -194.048C35.4141 -194.208 35.2375 -194.284 35.0444 -194.284C34.7464 -194.284 34.4667 -194.103 34.3571 -193.826C34.1385 -193.273 33.9295 -192.721 33.764 -192.168C33.6096 -191.653 33.8374 -191.108 34.262 -190.777C34.3139 -190.737 34.3644 -190.698 34.4138 -190.66C34.72 -190.426 34.9374 -190.051 34.9374 -189.665C34.9374 -189.556 34.9196 -189.466 34.8853 -189.362C34.7053 -188.818 34.5398 -188.258 34.5398 -187.534C34.3411 -185.549 33.7451 -183.96 32.7515 -182.174C31.3605 -179.593 30.5654 -176.615 29.5718 -173.836C28.9757 -171.851 27.7833 -170.263 27.5846 -168.079C27.5846 -167.895 27.4144 -167.669 27.1922 -167.42C26.7694 -166.946 25.9326 -166.924 25.5167 -167.404C25.1843 -167.788 24.6769 -167.88 24.2682 -167.58C24.1152 -167.467 23.9621 -167.361 23.8091 -167.285C21.5493 -166.156 21.9662 -164.136 21.6778 -162.238C21.646 -162.029 21.6132 -161.845 21.6339 -161.635C21.6676 -161.292 21.9881 -161.063 22.2715 -160.867C23.7099 -159.871 23.1794 -158.432 22.8155 -157.16C22.2193 -155.175 22.418 -152.991 21.027 -151.403C20.6333 -151.01 20.9328 -150.338 20.9659 -149.783C21.0717 -148.007 19.9296 -146.604 19.2384 -145.05C18.841 -143.859 18.2448 -143.065 18.6422 -141.477C18.9211 -140.502 18.515 -139.429 18.1793 -138.326C17.8986 -137.405 17.4499 -136.485 17.4499 -135.521C17.6486 -132.94 17.8474 -130.36 18.2448 -127.779C18.4436 -126.191 18.8409 -124.603 19.6358 -123.411C20.4307 -122.022 20.0333 -120.632 21.027 -119.242C22.418 -117.059 23.6102 -114.478 24.4051 -111.897C24.6038 -111.103 25.2002 -109.912 25.7963 -109.713C27.5848 -109.118 28.1809 -107.53 29.1745 -106.338C30.3668 -104.949 31.3604 -103.361 33.1489 -102.765C34.6 -102.282 34.7415 -100.212 35.9317 -99.2511C36.0572 -99.1499 36.1898 -99.0625 36.3284 -98.9933C38.9117 -97.4051 40.8989 -94.8243 43.4823 -93.2361C44.0784 -92.8391 44.8734 -92.442 45.2708 -91.8465C46.2644 -90.0597 47.8543 -89.0672 49.6428 -88.0746C51.2326 -87.2805 52.4248 -85.6923 54.0145 -84.6997C55.4056 -83.9056 56.7967 -83.5086 57.989 -82.3174C60.771 -79.5381 64.1494 -77.7514 67.7263 -75.9647C68.5212 -75.5677 69.3161 -74.9721 69.9122 -74.3765C71.1045 -73.384 72.4956 -72.7884 73.6879 -71.7958C74.8803 -70.8032 76.0725 -69.8106 77.4635 -69.215C78.3891 -68.7527 79.1036 -67.9476 79.8957 -67.282C80.3939 -66.8634 80.8852 -66.4581 81.4379 -66.2372C83.4252 -65.6417 85.2137 -64.649 86.8034 -63.2594C88.3932 -61.8697 90.5792 -61.2742 92.1689 -60.2816C94.5536 -58.4949 97.3356 -57.5022 99.919 -56.1125C102.136 -55.0053 105.055 -54.0434 107.272 -52.9362C107.843 -52.6511 108.311 -52.2634 108.898 -52.1412C109.395 -52.0377 110.252 -52.2529 110.252 -51.745C110.451 -49.3628 112.24 -49.9584 113.631 -49.5614C116.015 -48.7673 118.599 -48.1717 120.983 -47.1791C121.781 -46.8605 122.578 -46.2862 123.478 -45.6615C123.899 -45.369 124.317 -45.2872 124.801 -45.4554C125.396 -45.6617 126.143 -45.4017 126.501 -44.8841C126.642 -44.6796 126.796 -44.4932 126.971 -44.3494C127.832 -43.642 129.274 -43.8228 130.104 -43.0789C130.966 -42.3059 131.882 -41.6415 132.954 -41.2861C134.291 -40.8423 135.753 -40.5776 137.151 -40.3987C138.272 -40.2552 139.413 -40.2392 140.259 -39.6353C141.849 -38.6427 143.638 -38.2456 145.227 -37.65C147.215 -37.0545 149.4 -36.6574 151.388 -35.8633C153.375 -35.0692 155.561 -34.6722 157.747 -34.2752C158.542 -34.0766 159.336 -33.8781 159.933 -33.8781C160.421 -33.8781 160.861 -33.8536 161.252 -33.7528C162.835 -33.3446 163.154 -30.9649 164.735 -30.5502C165.526 -30.343 166.451 -30.4875 167.484 -30.9003C168.39 -31.3527 169.371 -31.3258 170.383 -31.2928C172.19 -31.2338 174.13 -31.6281 175.83 -30.7018C176.625 -30.3047 177.619 -30.1062 178.414 -29.9076C178.924 -29.7377 179.434 -29.5678 179.944 -29.3979C180.116 -29.341 180.291 -29.255 180.437 -29.1483C181.233 -28.5635 182.243 -28.2487 183.191 -28.525C183.912 -28.735 184.645 -28.8471 185.368 -28.7704C186.592 -28.6404 187.844 -28.3124 189.071 -28.2192C191.361 -28.0453 193.609 -27.0158 196.1 -27.3269C196.895 -27.5254 197.888 -27.1284 198.683 -26.9298C203.801 -25.7498 209.532 -25.9752 214.547 -24.4152C215.084 -24.2481 215.625 -24.0883 216.17 -23.952C218.953 -23.3564 221.735 -23.3564 224.318 -21.9668C225.708 -21.2725 227.188 -21.4805 228.707 -21.1563C229.155 -21.0607 229.671 -21.1011 230.28 -21.3712C231.273 -21.7683 232.466 -21.1728 233.658 -20.7757C237.036 -19.7831 239.421 -20.5772 241.607 -23.3565C242.004 -23.952 242.203 -24.5476 242.799 -24.9446C246.177 -27.3269 248.562 -30.5033 251.145 -33.4811C251.511 -33.9191 252.01 -34.2497 252.526 -34.5716C254.174 -35.6013 255.89 -37.0401 256.702 -38.8062C256.824 -39.07 256.949 -39.3789 257.064 -39.6453C257.078 -39.678 257.093 -39.7106 257.108 -39.7431C257.452 -40.4877 258.332 -40.7105 259.008 -41.1762C259.304 -41.3808 259.568 -41.6179 259.806 -41.8815C260.32 -42.452 260.727 -43.114 261.261 -43.6651C263.34 -45.8074 265.901 -47.4506 267.838 -49.5614C268.831 -50.554 269.825 -51.3481 270.62 -52.5392C271.614 -54.1274 273.402 -55.1199 274.992 -56.1126C275.588 -56.5096 276.184 -56.7081 276.78 -57.1052C276.893 -57.1693 277.005 -57.2348 277.117 -57.3016C279.588 -58.7742 281.938 -61.0693 284.332 -62.6637C286.12 -63.6563 288.107 -64.252 289.896 -65.4431C293.075 -67.2298 296.056 -69.0165 299.037 -71.0017C299.633 -71.3987 300.229 -71.5973 300.826 -71.7958C303.806 -72.5899 306.191 -73.9795 307.979 -76.5603C308.774 -77.7514 309.768 -78.347 311.358 -78.347C311.66 -78.347 311.921 -78.1202 312.222 -78.1412C313.938 -78.2605 315.063 -79.9673 316.524 -80.3322C318.313 -80.5307 319.903 -80.9278 321.492 -82.119C323.281 -83.5086 325.467 -84.5012 327.851 -84.8982C328.845 -85.0967 329.839 -85.4938 330.832 -85.6923C332.284 -86.055 333.72 -85.2455 335.217 -85.2684C335.991 -85.2802 336.763 -85.4784 337.589 -85.8908C337.986 -86.0893 338.582 -86.0894 339.179 -86.0894C342.159 -86.2879 345.14 -86.4863 347.922 -86.4863C349.711 -86.4863 351.301 -86.4864 353.089 -86.8834C354.281 -87.2805 355.871 -87.479 357.262 -86.2879C357.858 -85.8909 359.051 -86.0894 359.846 -86.2879C360.839 -86.4864 361.833 -86.6849 362.826 -86.2879C364.416 -85.8909 366.006 -84.8982 367.794 -85.8908C368.901 -86.4435 370.19 -85.3446 371.385 -85.0267C373.97 -84.339 376.58 -83.5947 379.32 -83.1116C381.904 -82.7146 383.493 -81.1264 385.282 -79.7367C386.275 -78.9426 387.269 -78.1485 388.263 -77.3544C390.911 -75.4643 392.261 -72.47 394.504 -70.113C394.602 -70.0103 394.707 -69.9094 394.82 -69.8106C395.606 -69.026 395.895 -67.8691 395.785 -66.7324C395.734 -66.2076 395.898 -65.6994 396.394 -65.5214C396.838 -65.3622 397.2 -64.9265 397.212 -64.4552C397.217 -64.2735 397.225 -64.0884 397.238 -63.8979C397.291 -63.1453 397.953 -62.6658 398.55 -62.2043C398.874 -61.954 399.088 -61.597 399.192 -61.0756C399.391 -59.4874 399.59 -57.7007 399.59 -56.1126C399.59 -56.026 399.59 -55.9352 399.588 -55.8421C399.574 -54.7746 398.844 -53.8953 398.362 -52.9427C396.467 -49.1965 394.794 -44.8973 391.569 -42.2089C391.332 -42.0115 391.091 -41.816 390.846 -41.6205C389.384 -40.3424 388.762 -38.5605 387.126 -37.5104C386.835 -37.3241 386.59 -37.1939 386.518 -36.8567C386.389 -36.2599 386 -35.6916 385.458 -35.41C384.737 -35.0351 384.016 -34.7074 383.295 -34.2752C382.897 -34.0766 382.5 -33.6796 382.301 -33.8781C380.512 -35.2678 380.314 -33.4812 379.519 -32.4885C378.525 -31.2974 377.532 -30.1063 375.942 -29.5107C375.11 -29.1782 374.417 -28.7065 373.864 -27.9789C373.644 -27.6895 373.434 -27.3712 373.096 -27.2366C373.016 -27.2045 372.931 -27.1779 372.843 -27.1591C372.66 -27.1199 372.472 -27.1059 372.29 -27.0598C371.19 -26.7793 371.026 -26.6619 371.221 -25.647C371.291 -25.2853 371.023 -24.8206 370.661 -24.7549C370.593 -24.7426 370.543 -24.7588 370.478 -24.7826C368.937 -25.3495 367.761 -25.5238 366.205 -24.7462C364.615 -23.9521 362.826 -23.5551 361.038 -23.158C359.846 -22.9595 359.647 -21.3712 358.057 -21.9668C356.865 -22.3638 356.467 -20.7757 355.672 -20.1802C353.486 -18.592 350.903 -17.2024 348.32 -16.6068C346.531 -16.2098 344.942 -15.2171 342.954 -15.4156C342.358 -15.4156 341.762 -15.0186 341.166 -14.8201C340.584 -14.5877 339.935 -14.2874 339.257 -14.1578C338.289 -13.9727 337.094 -14.5238 336.396 -13.8275C335.204 -12.4378 333.416 -12.2393 331.826 -12.2393C329.728 -12.0781 327.63 -11.9168 325.638 -11.1175C324.808 -10.7842 323.856 -10.9197 323.163 -11.4858C323.093 -11.5429 323.022 -11.5986 322.951 -11.6522C322.781 -11.781 322.497 -11.8178 322.299 -11.7376C322.114 -11.6628 322.034 -11.5529 321.922 -11.3887C320.96 -9.9914 319.793 -9.45997 317.915 -9.45997C315.332 -9.45997 312.55 -9.06297 309.967 -8.26887C307.979 -7.67332 305.794 -7.07767 303.806 -6.08506C303.21 -5.68803 302.018 -5.68806 301.223 -5.8866C298.441 -6.68067 295.261 -6.08512 292.678 -7.8718C292.082 -8.26887 290.889 -8.07038 290.095 -7.67335C289.101 -7.07776 288.306 -7.27628 287.511 -7.27628C286.915 -7.27628 286.12 -7.07776 285.723 -6.68073C285.149 -5.99351 284.378 -6.03315 283.637 -5.99909C282.672 -5.95472 281.645 -5.70637 280.756 -6.08277C280.05 -6.38172 279.153 -6.4581 278.437 -6.18293C276.705 -5.517 274.755 -5.23743 272.806 -5.8866C271.812 -6.28363 271.017 -5.29108 269.825 -5.68811C267.44 -6.2837 265.056 -5.88663 262.671 -6.68073C261.596 -6.9877 260.401 -7.05728 259.272 -6.61429C258.65 -6.37027 257.922 -6.3165 257.388 -6.71833C257.371 -6.73093 257.354 -6.74366 257.338 -6.75644C256.817 -7.15332 256.176 -7.19318 255.684 -6.76218C255.65 -6.73218 255.614 -6.70188 255.576 -6.67142C255.414 -6.54032 255.207 -6.48212 254.999 -6.48212C254.818 -6.48212 254.639 -6.53012 254.479 -6.61505C251.42 -8.23694 249.097 -7.60697 246.774 -5.09244C245.78 -3.90131 244.786 -2.71027 244.19 -1.32062C243.594 -0.129488 242.799 1.45871 241.607 2.05429C239.222 3.24542 238.626 5.42917 237.434 7.4144C236.043 9.79666 235.049 12.3774 232.664 13.9656C232.267 14.1641 232.267 14.7597 231.869 15.3553C231.472 16.1494 231.075 16.9434 230.478 17.5389C228.491 19.5242 227.299 21.9064 225.709 24.0901C225.312 24.6857 224.716 25.2813 224.517 26.0753C224.119 27.068 223.722 27.6636 222.927 28.2592C222.331 28.6562 221.933 29.4503 221.933 30.2444C221.735 32.0311 220.94 33.4207 219.748 34.8104C218.555 36.3985 217.562 38.1852 216.767 40.1705C215.773 42.5527 214.382 44.9349 212.991 47.3172C212.858 47.5823 212.726 47.8475 212.652 48.0535C212.593 48.2183 212.612 48.3664 212.668 48.5322C212.982 49.4633 212.295 49.9976 211.6 50.6921C210.664 51.6272 210.138 52.8892 209.659 54.1225C208.835 56.242 208.087 58.424 207.171 60.5465C205.902 63.4845 202.778 67.4884 205.042 69.7501C205.44 70.1472 205.241 70.9413 205.042 71.5369C204.71 72.6972 204.24 73.7191 203.747 74.8338C203.579 75.2137 203.142 75.4063 202.735 75.3243C202.264 75.2293 201.786 75.5277 201.721 76.0038C201.636 76.6225 201.559 77.217 201.337 77.7365C201.293 77.8398 201.252 77.9449 201.198 78.0435C200.902 78.5878 200.057 79.132 199.876 79.6762C199.478 81.0659 199.081 82.6541 198.882 84.0437C198.484 85.8304 198.087 87.6172 197.491 89.2054C197.165 90.3439 197.106 90.4163 196.003 90.9512C195.507 91.1913 195.347 91.7474 195.619 92.2259C195.672 92.319 195.742 92.4197 195.815 92.4983C196.515 93.2544 196.676 94.0282 196.298 95.161C195.504 97.5433 194.709 99.9255 194.908 102.308C195 102.953 194.985 103.587 194.92 104.215C194.539 107.921 191.927 112.082 191.927 115.807C191.927 117.395 191.927 118.984 191.728 120.373C191.529 121.763 191.529 123.152 190.138 124.145C189.542 124.542 189.939 125.932 189.542 126.726C188.747 128.116 188.35 129.307 189.145 130.895C189.542 131.49 189.145 132.483 189.145 133.079C189.145 133.917 188.927 134.668 189.067 135.495C189.459 137.815 188.688 140.013 188.35 142.211C187.952 144.99 187.555 147.571 187.356 150.35C187.157 151.74 186.76 153.328 187.356 154.519C187.738 155.537 187.549 156.229 187.206 157.013C186.978 157.536 186.191 157.536 185.99 157.002C185.816 156.537 185.219 156.477 185.115 156.962C184.875 158.073 185.199 159.272 185.034 160.337C184.85 161.524 184.422 162.83 184.846 163.955C185.214 164.935 185.411 165.944 185.17 167.026C184.971 167.621 185.369 168.217 185.965 168.614C187.754 170.004 188.151 171.989 188.151 174.173C188.151 175.788 188.151 177.312 188.151 178.868C188.151 179.872 186.98 180.287 186.002 180.512C185.571 180.612 185.295 180.997 185.4 181.426C185.576 182.151 186.163 183.003 187.07 183.713C187.487 184.04 187.557 184.632 187.139 184.959C186.901 185.145 186.824 185.47 186.895 185.765C187.152 186.832 187.133 187.958 187.313 189.026C187.709 191.387 188.853 193.809 189.373 196.146C189.662 197.444 190.309 198.665 191.529 199.782C192.015 200.268 192.353 200.902 192.724 201.548C193.178 202.34 193.435 203.296 193.114 204.151C193.084 204.231 193.052 204.31 193.019 204.387C192.855 204.765 192.649 205.18 192.807 205.561C192.859 205.688 192.958 205.796 193.038 205.907C193.429 206.446 193.952 206.985 194.311 207.524C195.702 209.26 195.539 211.784 196.734 213.659C197.467 214.81 198.06 216.074 198.484 217.45C199.279 219.833 200.074 222.215 200.074 224.796C200.074 225.982 200.942 227.167 201.568 228.353C201.76 228.718 202.189 228.976 202.6 228.95C203.13 228.917 203.671 229.107 203.938 229.566C204.741 230.948 205.407 232.468 205.241 234.126C205.241 235.119 205.638 235.913 206.433 235.913C206.595 235.928 206.74 235.951 206.869 235.982C208.99 236.496 209.062 239.333 210.606 240.876C211.401 241.67 211.997 242.464 212.395 243.457C213.786 246.633 215.972 249.214 218.356 251.596C221.236 254.832 224.927 257.89 227.815 261.118C228.732 262.143 229.577 263.251 230.478 264.301C232.863 267.081 234.85 270.059 238.229 271.647C238.989 271.992 239.75 272.386 240.444 272.877C243.027 274.709 245 277.682 247.966 278.794C248.195 278.908 248.425 279.089 248.654 279.259C248.976 279.498 249.322 279.711 249.603 279.996C251.007 281.423 253.557 281.628 254.942 283.074C255.087 283.225 255.215 283.386 255.319 283.558C256.113 284.948 257.306 285.543 258.697 285.94C262.671 287.33 266.447 288.918 270.024 291.102C270.818 291.498 271.788 291.543 272.582 291.939C273.422 292.357 274.053 292.889 274.992 292.889C276.979 292.889 277.377 293.286 277.377 295.469C277.377 296.283 278.355 296.598 279.027 296.14C279.689 295.688 280.154 295.92 280.938 296.837C281.414 297.392 282.171 297.551 282.657 297.005C283.04 296.576 283.684 296.419 284.215 296.639C285.437 297.147 286.673 297.607 287.987 298.208C288.497 298.441 288.761 299.076 288.656 299.626C288.625 299.789 288.589 299.957 288.539 300.126C288.519 300.192 288.536 300.265 288.585 300.314C288.652 300.381 288.759 300.385 288.838 300.332C289.893 299.621 291.223 300.564 292.315 300.211C292.571 300.128 292.806 299.95 293.068 300.01C293.193 300.038 293.333 300.088 293.469 300.152C293.938 300.373 294.089 300.939 294.479 301.281C295.096 301.823 296.158 301.866 296.763 302.432C296.994 302.648 297.118 302.987 297.433 303.008C297.567 303.017 297.712 303.026 297.843 303.053C298.771 303.237 299.699 303.41 300.627 303.41C302.217 303.41 303.608 303.807 305.197 304.403C306.39 304.8 307.582 305.197 308.576 306.19C309.768 307.381 311.159 307.976 312.749 307.778C314.339 307.381 315.928 307.976 317.319 308.373C318.147 308.511 318.88 309.032 319.583 309.603C320.163 310.075 320.925 310.247 321.613 309.953C322.276 309.668 323.025 309.809 323.602 310.244C323.633 310.267 323.663 310.29 323.693 310.313C324.341 310.806 325.143 311.075 325.955 311.009C327.047 310.92 328.093 310.975 329.243 311.55C331.415 312.48 333.709 312.805 335.935 313.564C337.199 313.996 338.508 313.907 339.775 314.329C340.57 314.527 341.166 314.924 341.762 315.123C342.358 315.322 342.954 315.917 343.352 315.917C345.538 315.719 347.724 316.711 349.512 317.307C351.25 318.03 352.882 318.437 354.563 318.451C355.836 318.462 357.196 318.189 358.256 318.895C358.819 319.176 359.283 319.558 359.788 319.897C360.165 320.15 360.632 320.11 360.978 319.815C361.383 319.47 361.991 319.272 362.47 319.504C363.351 319.93 364.278 320.366 365.222 320.842C366.246 321.358 367.152 321.096 368.162 320.551C368.421 320.411 368.743 320.357 369.185 320.483C371.57 321.277 373.955 321.476 376.339 321.476C376.628 321.476 376.891 321.528 377.146 321.604C378.074 321.881 378.948 322.468 379.916 322.468C382.897 322.27 384.487 322.667 386.872 324.255C387.119 324.44 387.366 324.587 387.62 324.72C388.733 325.301 390.104 325.226 391.225 324.662C391.483 324.532 391.794 324.394 392.072 324.473C392.83 324.689 393.413 325.752 394.423 325.248C395.416 324.851 396.41 324.851 397.404 325.446C397.801 325.645 398.199 325.645 398.596 325.645C403.167 325.049 407.539 327.034 412.109 327.233C412.393 327.233 412.689 327.3 412.993 327.414C415.192 328.238 417.312 329.02 419.66 329.02C420.257 329.02 420.853 329.218 421.449 329.615C422.045 330.012 422.443 330.211 423.237 330.012C424.827 329.615 426.218 329.615 427.808 330.409C429.398 331.203 430.988 331.6 432.577 330.806C434.242 329.975 436.329 331.958 438.18 331.769C438.712 331.715 439.246 331.66 439.731 331.799C440.725 331.997 441.718 331.402 442.712 331.6C443.441 331.746 444.171 332.106 444.9 332.365C445.417 332.549 445.939 332.791 446.488 332.791C447.958 332.791 449.353 333.018 450.626 333.564C451.851 334.09 453.832 334.187 455.139 333.923C455.953 333.759 456.766 333.265 457.597 333.293C458.435 333.321 459.218 333.325 460.001 333.585C460.817 333.857 461.633 334.408 462.577 335.047C463.463 335.647 464.262 335.897 465.295 335.619C466.631 335.259 468.279 335.721 469.547 336.276C470.134 336.533 470.787 336.656 471.526 336.563C472.06 336.497 472.549 336.542 473 336.669C474.617 337.123 476.383 337.91 477.886 337.159C480.469 335.769 481.065 335.968 483.251 337.754C484.841 339.144 486.828 338.946 488.815 338.747C489.61 338.747 490.008 337.159 491.001 337.556C491.796 337.953 492.591 337.754 493.585 337.754C495.77 337.754 497.956 337.357 499.944 338.747C502.13 340.137 504.713 340.335 507.296 339.343C509.085 338.549 510.675 338.35 512.463 339.74C512.96 340.237 513.828 339.854 514.53 339.822C516.48 339.734 518.362 340.257 520.177 340.282C522.066 340.308 523.093 341.526 524.982 341.526C525.38 341.526 525.727 341.725 526.075 341.997C526.609 342.416 527.37 342.138 527.579 341.492C527.699 341.122 528.02 340.916 528.409 340.896C530.14 340.804 530.906 340.803 531.736 341.158C533.249 341.806 534.839 342.321 536.458 342.027C537.287 341.877 538.09 341.727 538.893 341.526C540.483 341.328 541.874 340.732 543.066 342.519C543.41 343.035 544.501 343.253 545.432 343.431C545.709 343.484 545.993 343.523 546.268 343.462C546.534 343.403 546.803 343.297 547.084 343.181C547.908 342.841 548.85 343.067 549.156 343.905C549.199 344.024 549.252 344.166 549.321 344.272C549.764 344.954 550.66 345.27 551.214 344.901C552.406 344.107 553.399 344.306 554.79 344.703C555.784 344.901 556.778 344.504 557.771 344.306C558.566 344.107 559.162 344.306 559.957 344.703C562.938 345.894 566.118 346.291 569.297 345.1C569.515 344.991 569.794 345.061 570.066 345.147C570.469 345.274 570.966 345.465 571.312 345.707C571.595 345.906 571.844 345.817 572.179 345.73C573.97 345.264 575.608 346.142 577.246 346.688C577.585 346.801 577.94 346.882 578.301 346.935C580.1 347.199 581.943 346.904 583.733 346.59C584.338 346.484 584.949 346.371 585.592 346.291C586.983 346.092 588.374 346.092 589.765 346.886C590.163 347.085 590.759 347.085 591.156 347.085C591.752 347.085 592.349 346.886 592.746 347.085C594.932 348.475 597.317 347.681 599.503 347.482C602.881 347.283 605.862 348.078 609.041 348.673C610.84 349.122 612.597 350.742 614.265 349.932C614.584 349.778 614.88 349.54 615.132 349.176C615.18 349.107 615.255 349.018 615.321 348.967C615.615 348.741 615.986 348.802 616.343 348.9C617.553 349.231 618.762 348.527 619.971 348.872C622.234 349.518 624.629 349.244 626.727 350.081C627.637 350.444 628.822 350.319 629.63 350.872C629.935 351.081 630.191 351.399 630.465 351.696C630.801 352.06 631.345 352.001 631.695 351.651C631.794 351.552 631.893 351.404 631.992 351.256C632.145 351.026 632.506 351.117 632.639 351.359C632.707 351.481 632.661 351.528 632.612 351.658C632.359 352.338 632.251 352.69 632.432 352.94C633.07 353.82 634.522 353.055 635.19 352.197C635.742 351.487 636.613 351.103 637.508 351.191C639.152 351.353 640.729 351.541 642.426 351.849C643.156 351.954 643.557 352.058 643.975 352.42C645.044 353.346 646.292 354.053 647.666 353.718C648.513 353.511 649.39 353.691 650.129 354.154C650.66 354.487 651.178 354.791 651.766 355.026C652.164 355.224 652.76 355.224 653.356 355.026C654.151 354.827 654.548 353.438 655.741 354.033C656.236 354.281 656.654 354.451 657.092 354.448C657.668 354.444 658.314 353.824 658.721 354.232C660.709 356.415 663.689 354.43 666.074 355.82C666.471 356.018 667.266 355.621 667.863 355.423C669.255 354.866 670.736 356.138 672.22 355.921C674.411 355.6 676.602 355.686 678.792 356.415C679.587 356.614 680.581 356.415 681.574 356.614C682.766 356.813 684.158 356.217 685.35 357.011C686.165 357.5 686.445 356.518 686.959 356.369C687.208 356.297 687.465 356.444 687.712 356.523C688.32 356.719 688.928 357.013 689.536 357.315C689.65 357.372 689.718 357.489 689.74 357.615C689.767 357.759 689.815 357.88 689.856 358.011C689.899 358.151 690.081 358.241 690.184 358.137C690.249 358.073 690.266 357.951 690.201 357.888C690.125 357.815 690.044 357.742 689.948 357.669C689.728 357.502 689.629 357.211 689.77 356.974C689.79 356.94 689.811 356.905 689.831 356.87C690.017 356.541 690.421 356.368 690.758 356.536C691.294 356.804 691.83 357.071 692.365 357.339C692.458 357.385 692.553 357.424 692.649 357.46C692.815 357.523 692.981 357.598 693.146 357.671C693.876 357.995 694.691 358.132 695.488 358.076C695.85 358.051 696.188 358.004 696.478 358.004C697.597 358.004 698.701 358.55 699.621 357.914C700.29 357.45 700.887 356.971 701.844 357.21C703.036 357.607 704.427 357.011 705.619 357.011C706.812 357.011 708.004 357.408 709.395 357.805C710.587 358.202 711.581 359.393 713.171 359.195C714.363 358.996 715.555 359.79 716.946 359.989C720.126 360.584 723.306 360.783 726.485 361.577C728.075 361.974 729.665 361.974 731.453 361.18C732.537 360.819 733.621 360.13 734.705 361.201C734.94 361.433 735.162 361.7 735.49 361.746C735.558 361.755 735.626 361.762 735.691 361.766C735.912 361.781 736.135 361.793 736.355 361.827C738.104 362.097 738.553 362.193 739.639 362.841C740.264 363.214 741.081 363.004 741.435 362.368C741.823 361.67 742.885 361.515 743.65 361.286C744.474 361.039 745.276 360.333 746.158 360.584C747.267 360.901 748.375 361.091 749.483 361.256C749.999 361.332 750.576 361.887 750.209 362.259C749.576 362.902 750.043 363.573 750.238 362.691C750.267 362.559 750.294 362.399 750.326 362.208C750.329 362.185 750.332 362.168 750.332 362.145C750.332 361.811 750.699 361.593 751.005 361.727C752.805 362.523 754.727 362.327 756.492 361.974C758.28 361.577 759.87 361.776 761.46 362.173C764.043 362.768 766.428 363.165 769.011 363.165C769.553 363.165 770.095 363.35 770.699 363.53C771.145 363.663 771.361 364.239 771.141 364.649C770.895 365.107 771.196 365.635 771.711 365.708C772.65 365.84 773.513 365.944 774.377 365.944C775.569 365.944 776.761 365.547 778.152 365.547C779.156 365.547 779.814 366.703 780.816 366.637C781.186 366.612 781.557 366.421 781.928 366.143C783.319 365.15 784.909 365.15 786.3 365.15C787.045 365.15 787.239 366.053 787.818 366.522C788.51 367.083 789.51 366.143 790.274 366.143C791.659 366.258 793.245 366.106 794.603 366.579C796.535 367.253 798.363 368.128 800.409 368.128C802.332 368.128 804.305 367.898 806.225 367.798C806.945 367.761 807.742 367.845 808.755 367.93C811.537 368.128 814.121 369.319 816.903 369.915C819.132 370.258 821.362 370.304 823.719 370.311C824.344 370.313 824.893 369.806 824.989 369.187C825.052 368.781 825.269 368.375 825.669 368.281C826.808 368.014 827.734 368.805 828.83 369.252C829.372 369.473 829.782 370.035 829.679 370.612C829.616 370.968 829.789 371.237 830.096 371.429C830.656 371.778 831.269 372.075 831.823 372.431C832.083 372.598 832.342 372.766 832.622 372.894C833.678 373.377 834.751 373.687 835.98 373.687C839.16 373.885 842.14 374.084 845.32 374.481C845.716 374.481 845.704 373.787 845.34 373.63C843.677 372.913 842.015 372.496 840.352 372.496C839.208 372.496 838.064 372.359 836.898 372.106C835.443 371.792 835.562 370.04 836.974 370.51C840.634 371.79 844.295 371.386 848.111 371.47C848.719 371.483 849.197 371.858 849.388 372.436C849.444 372.607 849.566 372.776 849.747 372.776C850.004 372.778 850.346 372.637 850.487 372.496C851.381 371.424 852.275 371.156 853.46 371.258C853.73 371.281 854.001 371.311 854.266 371.252C854.787 371.136 855.316 371.023 855.838 370.915C858.24 370.415 860.873 370.619 863.259 370.217C863.621 370.156 863.986 370.113 864.352 370.113C864.778 370.113 865.201 370.17 865.618 370.254C868.614 370.859 871.772 370.536 874.929 370.907C875.327 370.907 875.724 370.908 876.122 371.106C876.612 371.351 877.027 371.672 877.506 372.021C878.037 372.408 878.201 373.151 877.837 373.697C877.736 373.849 877.634 374.001 877.533 374.153C877.406 374.344 877.524 374.659 877.722 374.775C877.891 374.874 878.005 374.79 878.162 374.672C879.935 373.341 882.373 373.831 884.269 372.694C885.141 372.259 885.802 373.464 886.61 374.01C887.62 374.693 888.973 374.595 890.246 374.84C890.368 374.864 890.439 374.86 890.556 374.902C890.983 375.055 891.302 375.518 891.452 375.946C891.535 376.181 891.617 376.404 891.7 376.599C891.775 376.776 891.871 377.001 892.056 377.051C892.17 377.082 892.275 377.076 892.392 377.085C893.187 377.149 894.699 376.777 895.633 376.217C896.243 375.85 896.696 374.984 896.192 374.481C895.994 374.282 895.596 374.084 895.199 374.084C895.034 374.084 894.87 374.109 894.71 374.138C893.478 374.355 893.614 372.692 894.801 372.297C898.675 371.33 898.962 371.305 900.446 374.981C900.524 375.174 900.555 375.474 900.763 375.474C900.763 375.474 900.763 375.474 900.763 375.474C900.962 375.474 901.359 375.672 901.558 375.672C905.135 375.275 908.513 375.076 912.09 376.069C914.276 376.665 916.661 376.069 919.045 376.069C919.212 376.069 919.38 376.104 919.547 376.145C919.924 376.237 920.223 376.658 920.138 377.037C920.054 377.416 919.724 377.655 919.336 377.623C918.335 377.541 917.303 377.374 916.661 377.856C915.071 378.848 913.084 378.451 911.494 379.047C910.755 379.416 909.988 378.731 909.197 378.494C907.703 378.046 906.419 378.879 905.135 379.841C904.392 380.477 903.535 380.944 902.626 381.21C901.095 381.658 899.775 380.644 899.212 379.152C899.157 379.007 899.096 378.865 899.026 378.73C898.521 377.76 897.227 377.877 896.173 378.166C894.756 378.555 893.263 378.828 891.693 379.079C891.134 379.169 890.667 378.735 890.757 378.176C890.824 377.757 890.538 377.385 890.124 377.295C889.209 377.096 888.284 376.942 887.312 376.76C886.425 376.594 885.478 376.955 885.04 377.744C884.654 378.441 883.986 378.897 883.195 378.99C882.26 379.1 881.331 379.19 880.426 379.057C878.789 378.816 877.208 378.074 875.558 378.186C875.017 378.223 874.476 378.253 873.936 378.253C872.518 378.394 872.112 378.435 871.274 378.014C870.431 377.591 869.517 377.495 868.663 377.894C867.9 378.25 866.961 378.184 866.176 377.881C864.142 377.095 861.939 377.085 859.706 377.295C858.839 377.377 858.031 376.958 857.717 376.145C857.337 375.158 856.222 374.532 855.244 374.935C854.549 375.221 853.902 375.546 853.32 375.956C852.802 376.321 852.15 376.428 851.663 376.021C851.007 375.472 849.978 375.683 849.729 376.502C849.686 376.643 849.645 376.776 849.607 376.903C849.534 377.139 849.409 377.364 849.191 377.48C848.517 377.843 847.449 377.77 847.108 377.26C846.714 376.709 846.288 376.345 845.819 376.094C844.384 375.328 842.138 375.881 841.743 377.459C841.614 378.233 841.149 378.336 840.73 378.477C840.531 378.544 840.225 378.365 840.275 378.162C840.28 378.143 840.284 378.124 840.289 378.105C840.327 377.942 840.153 377.887 840.153 378.054C840.153 378.054 840.153 378.054 840.153 378.054C840.153 378.383 839.885 378.664 839.558 378.631C839.458 378.621 839.368 378.605 839.298 378.582C839.172 378.538 839.129 378.388 839.066 378.271C838.48 377.181 837.687 376.466 836.179 376.466C835.453 376.466 834.873 375.865 834.194 375.608C832.682 375.037 831.085 375.022 829.621 375.672C828.627 376.069 827.833 375.672 827.038 375.474C826.091 375.316 826.146 374.407 825.712 373.741C825.485 373.393 825.022 373.357 824.626 373.481C824.377 373.558 824.126 373.639 823.871 373.721C822.56 374.145 822.84 376.174 824.206 376.347C824.867 376.431 825.329 377.163 824.717 377.428C824.548 377.501 824.36 377.533 824.193 377.564C823.967 377.607 823.741 377.669 823.511 377.692C821.661 377.878 819.966 378.043 818.095 377.856C816.237 377.687 814.522 377.231 812.585 376.855C812.037 376.748 811.68 376.255 811.844 375.72C812.002 375.205 811.625 374.546 811.149 374.799C810.754 375.01 810.55 375.427 810.364 375.902C810.219 376.27 809.991 376.631 809.612 376.742C809.086 376.895 808.389 376.795 807.051 376.48C806.066 376.249 805.64 375.393 806.615 375.123C806.716 375.095 806.814 375.051 806.912 375.015C807.3 374.873 807.807 374.832 808.159 374.481C808.279 374.361 808.399 374.096 808.432 373.862C808.466 373.612 808.298 373.346 808.092 373.202C807.782 372.987 807.383 373.072 807.033 373.21C805.975 373.626 804.835 372.95 803.986 373.29C802.794 373.687 801.8 372.694 800.608 373.488C800.441 373.622 800.274 373.688 800.109 373.707C798.47 373.892 797.037 373.383 795.396 373.214C793.917 373.061 792.493 372.427 791.069 372.297C790.518 372.187 789.966 372.321 789.381 372.531C788.828 372.729 788.646 373.488 789.131 373.82C789.573 374.123 789.564 374.897 789.053 375.057C788.398 375.261 787.895 375.389 787.402 375.298C787.329 375.285 787.257 375.271 787.183 375.264C785.226 375.084 783.084 375.264 781.133 374.679C779.146 374.084 776.96 373.885 774.973 373.687C772.787 373.488 770.601 373.29 768.415 372.893C766.944 372.599 765.364 372.631 763.836 372.668C762.852 372.692 761.948 372.123 761.075 371.67C760.48 371.36 759.753 371.143 758.958 370.911ZM502.726 348.078C502.868 348.078 503.01 347.976 503.153 347.918C503.242 347.882 503.322 347.957 503.322 348.054C503.322 348.209 503.107 348.32 502.969 348.249C502.888 348.207 502.807 348.159 502.726 348.078C502.99 347.286 502.458 346.465 501.626 346.524C501.32 346.546 501.036 346.581 500.756 346.639C500.612 346.668 500.465 346.691 500.318 346.679C500.17 346.666 500.04 346.639 499.925 346.601C498.88 346.253 497.946 345.628 497.149 346.388C497.031 346.5 496.911 346.608 496.787 346.711C496.65 346.825 496.54 346.908 496.613 347.07C496.659 347.171 496.822 347.296 496.932 347.315C497.889 347.484 498.983 347.515 499.546 348.078C500.738 349.07 501.732 348.276 502.726 348.078ZM511.668 353.239C512.066 350.658 512.066 350.658 514.649 350.658C515.655 350.658 514.622 349.586 513.653 349.313C511.848 348.806 510.138 347.485 507.927 347.861C507.421 347.947 507.1 348.421 507.067 348.934C507.055 349.131 507.039 349.328 507.022 349.529C506.951 350.384 508.029 350.721 508.635 350.115C508.953 349.798 509.359 349.828 509.72 350.094C510.89 350.955 511.498 351.878 511.668 353.239C511.072 353.041 510.674 352.644 510.078 352.445C509.06 352.106 509.863 353.402 510.93 353.284C511.19 353.256 511.437 353.239 511.668 353.239ZM288.902 -48.5688C289.75 -47.7219 289.567 -46.9917 288.594 -46.2918C288.377 -46.1353 288.152 -45.9717 287.909 -45.7894C286.319 -44.3998 284.928 -42.8117 283.537 -41.422C282.146 -40.2309 280.954 -38.4442 279.364 -38.0471C277.377 -37.4516 277.178 -35.2679 275.588 -34.4738C275.239 -34.2415 274.959 -33.8055 274.666 -33.4041C274.281 -32.8751 273.667 -32.6066 273.111 -32.2615C272.249 -31.7264 271.745 -30.9814 271.477 -30.1499C271.122 -29.0522 270.616 -27.9533 269.641 -27.3371C269.582 -27.2996 269.522 -27.262 269.463 -27.2243C267.118 -25.7391 267.763 -21.9287 270.482 -22.4859C270.712 -22.5331 270.922 -22.6219 271.138 -22.7144C271.429 -22.8388 271.72 -22.9063 272.011 -22.7609C274.396 -21.5698 276.582 -22.7609 278.966 -22.9594C280.755 -23.1579 282.543 -23.3565 284.332 -22.5625C285.723 -21.9669 287.313 -21.7683 288.902 -22.3639C291.486 -23.158 294.069 -23.158 296.652 -22.5625C297.845 -22.1654 299.236 -21.9668 300.428 -22.9594C301.717 -23.8181 303.326 -23.0222 304.872 -23.1237C306.412 -23.2249 307.891 -23.952 309.371 -23.952C310.762 -23.952 311.954 -24.7462 313.544 -24.7462C314.935 -24.7462 316.326 -24.9446 317.717 -25.3417C318.909 -25.7387 320.101 -25.9373 321.492 -25.5403C321.659 -25.4988 321.851 -25.466 322.056 -25.4509C323.8 -25.3229 324.91 -27.3269 326.659 -27.3269C328.448 -27.3269 330.236 -27.7239 332.025 -27.9225C333 -27.9225 333.551 -29.0834 334.34 -29.6574C334.485 -29.7636 334.638 -29.8515 334.807 -29.9077C335.657 -30.0776 336.326 -30.4295 336.891 -30.8854C338.219 -31.9588 340.098 -32.2059 341.563 -33.0841C342.557 -33.8782 343.948 -34.6723 345.14 -34.4738C347.724 -34.2752 349.512 -35.4664 351.499 -36.459C353.685 -37.6501 356.269 -38.2456 358.653 -39.2382C360.243 -39.8338 361.634 -40.2308 362.628 -41.2234C363.025 -41.6205 363.621 -42.216 364.217 -42.216C364.305 -42.216 364.389 -42.2191 364.47 -42.2252C366.029 -42.3427 366.892 -44.0567 368.205 -44.9059C368.717 -45.2375 369.293 -45.532 369.98 -45.7894C371.173 -46.1864 372.166 -47.1791 373.16 -47.9732C374.551 -49.1644 375.942 -50.3555 377.333 -51.3481C379.916 -52.9363 380.711 -55.12 379.718 -57.8993C379.519 -58.4949 379.718 -58.892 379.916 -59.289C380.91 -61.0757 380.711 -61.4727 379.121 -62.8623C377.762 -63.9488 378.637 -66.2551 377.524 -67.5929C376.538 -68.7781 375.383 -69.7659 373.557 -70.0091C372.772 -70.0091 372.271 -70.9044 371.531 -71.1654C371.055 -71.3334 370.55 -71.3988 369.98 -71.3988C368.192 -71.3988 366.403 -71.3987 364.615 -71.5972C363.129 -71.5972 361.764 -72.1942 360.301 -72.4524C358.867 -72.7054 357.38 -72.619 355.888 -72.2903C355.612 -72.2294 355.287 -72.0791 355.006 -72.0495C354.591 -72.006 354.295 -72.3025 353.898 -72.4301C352.462 -72.8913 350.91 -72.5421 349.512 -72.1929C347.724 -71.7958 346.134 -72.3914 344.544 -72.1929C344.471 -72.1929 344.425 -72.1663 344.386 -72.1326C344.242 -72.008 344.052 -71.9797 343.864 -71.9508C341.688 -71.6163 339.517 -71.2818 337.469 -70.9474C337.106 -70.8879 336.777 -71.1748 336.959 -71.4955C337.122 -71.7843 337.009 -72.2478 336.677 -72.2565C336.206 -72.2688 335.774 -72.2109 335.411 -72.0451C334.653 -71.6995 333.73 -71.359 332.901 -71.439C332.534 -71.4744 332.165 -71.3858 331.765 -71.1048C331.671 -71.0393 331.578 -70.9729 331.478 -70.9179C328.878 -69.4832 325.782 -69.0371 323.145 -67.6776C322.836 -67.5186 322.614 -67.2772 322.269 -67.2409C322.056 -67.2184 321.783 -67.2133 321.571 -67.1751C320.521 -66.9857 319.65 -66.7071 319.108 -65.4431C318.909 -64.8475 317.915 -64.252 317.319 -64.252C314.736 -64.252 313.345 -62.8624 311.755 -61.2742C310.165 -59.4875 308.377 -58.0978 305.992 -57.5022C304.601 -57.1052 303.608 -56.5096 302.614 -55.7155C301.422 -54.7229 300.229 -53.7303 298.838 -53.1347C296.065 -51.9938 295.568 -51.9234 294.27 -50.3968C293.646 -49.663 292.759 -49.2873 291.857 -49.6236C291.058 -49.9213 290.033 -49.8943 289.414 -49.3077C289.171 -49.0777 288.994 -48.8445 288.902 -48.5688C288.354 -48.3861 287.763 -48.2454 287.15 -48.1081C285.934 -47.8361 285.407 -45.8228 286.557 -46.2998C286.69 -46.355 286.768 -46.436 286.868 -46.5392C287.589 -47.2811 288.159 -48.0118 288.902 -48.5688ZM418.178 336.635C417.522 337.512 416.627 338.381 415.532 338.405C415.328 338.409 415.115 338.395 414.891 338.35C413.699 338.151 412.705 337.754 411.513 337.556C410.525 337.274 409.438 336.992 408.392 337.208C407.572 337.376 407.375 338.062 408.21 338.119C408.31 338.126 408.382 338.166 408.475 338.202C409.024 338.412 409.573 338.763 410.122 338.946C411.097 339.27 411.939 339.993 412.973 339.92C413.468 339.886 413.966 339.629 414.384 339.897C414.6 340.035 414.794 340.223 415.032 340.319C415.515 340.512 415.998 340.421 416.481 339.938C417.23 339.19 418.41 339.377 419.466 339.44C420.363 339.493 421.222 339.661 421.846 340.534C422.244 341.129 423.039 341.129 423.436 340.534C423.834 339.938 423.436 339.343 422.84 338.946C422.471 338.7 422.103 338.455 421.687 338.209C421.35 338.01 421.441 337.457 421.797 337.294C422.162 337.127 422.124 336.642 421.767 336.457C420.801 335.956 419.996 335.755 419.292 335.974C418.999 336.065 418.676 336.145 418.443 336.343C418.352 336.419 418.264 336.518 418.178 336.635ZM788.624 367.192C787.92 366.946 787.112 367.071 786.465 367.444C786.343 367.514 786.231 367.55 786.094 367.585C785.399 367.766 784.839 367.947 784.114 368.128C783.398 368.271 782.888 368.724 782.585 369.263C782.355 369.671 782.174 370.116 782.098 370.577C782.049 370.874 782.085 371.153 782.241 371.392C782.551 371.865 783.217 371.861 783.773 371.761C784.595 371.613 785.455 371.427 786.282 371.274C786.821 371.175 787.16 370.574 786.999 370.049C786.835 369.518 787.181 369.029 787.734 368.969C787.996 368.94 788.258 368.916 788.521 368.889C789.215 368.816 789.896 368.13 789.412 367.626C789.215 367.422 788.934 367.301 788.624 367.192ZM525.919 351.248C527.366 351.43 528.607 349.597 527.149 349.636C526.968 349.641 526.878 349.681 526.697 349.683C526.142 349.687 525.838 349.483 525.626 349.187C524.976 348.283 524.049 347.999 523.247 348.771C522.366 349.619 523.088 350.942 524.304 351.066C524.852 351.121 525.387 351.181 525.919 351.248ZM689.493 359.664C689.387 359.743 689.322 359.867 689.376 359.989C689.471 360.202 689.712 360.386 689.945 360.386C690.736 360.386 691.527 360.386 692.318 360.386C692.441 360.386 692.565 360.398 692.686 360.423C692.736 360.433 692.786 360.443 692.836 360.454C694.034 360.703 694.658 359.978 693.497 359.592C693.323 359.534 693.148 359.441 692.973 359.325C692.131 358.764 691.096 358.508 690.272 359.093C690.012 359.277 689.753 359.47 689.493 359.664ZM514.259 342.072C515.705 342.543 515.994 340.289 514.479 340.147C514.404 340.14 514.329 340.137 514.251 340.137C513.854 340.137 513.258 340.732 513.258 340.931C513.258 341.045 513.39 341.357 513.54 341.601C513.699 341.861 513.969 341.977 514.259 342.072ZM702.137 359.553C703.033 359.851 702.849 358.29 701.909 358.383C701.229 358.451 701.33 359.24 701.966 359.491C702.023 359.513 702.08 359.534 702.137 359.553ZM395.97 332.96C396.521 332.383 396.33 331.362 395.615 331.005C394.934 330.664 393.944 330.868 393.933 331.63C393.925 332.123 394.235 332.522 394.82 332.99C395.214 333.383 395.521 333.43 395.97 332.96ZM476.892 346.291C477.224 346.954 478.15 346.954 478.482 346.291C478.794 345.667 478.615 345.288 478.235 344.961C478.016 344.773 477.778 344.554 477.488 344.554C477.199 344.554 476.943 344.763 476.776 345C476.515 345.369 476.584 345.83 476.892 346.291ZM469.13 349.278C469.658 349.109 469.752 348.437 469.302 348.114C468.88 347.812 468.604 347.837 468.289 348.264C467.895 348.796 468.5 349.48 469.13 349.278ZM365.756 331.941C365.914 332.575 366.811 332.65 367.232 332.151C367.624 331.687 367.308 331.046 366.713 330.928C366.655 330.916 366.597 330.905 366.539 330.895C366.03 330.804 365.601 331.229 365.708 331.735C365.722 331.803 365.738 331.871 365.756 331.941ZM732.216 366.621C732.831 366.069 731.721 365.131 730.941 365.403C730.235 365.648 730.594 366.61 731.328 366.747C731.739 366.824 732.029 366.788 732.216 366.621ZM401.257 336.605C401.834 336.481 401.884 335.679 401.466 335.261C401.371 335.167 401.312 335.149 401.182 335.116C400.753 335.009 400.346 335.041 400.115 335.44C399.997 335.643 399.997 335.893 400.116 336.096C400.184 336.211 400.271 336.33 400.357 336.419C400.482 336.549 400.666 336.619 400.846 336.636C400.97 336.649 401.107 336.637 401.257 336.605ZM409.984 340.931C409.471 340.931 409.14 341.572 409.56 341.868C409.951 342.143 410.161 342.096 410.403 341.781C410.671 341.429 410.426 340.931 409.984 340.931ZM22.4136 -158.956C22.3961 -159.291 21.8993 -159.398 21.6511 -159.172C21.6313 -159.154 21.6153 -159.134 21.6008 -159.111C21.2438 -158.555 21.2368 -157.999 21.7414 -157.443C21.7915 -157.388 21.8637 -157.359 21.9382 -157.359C22.0934 -157.359 22.2207 -157.485 22.2429 -157.638C22.2955 -158.003 22.4179 -158.437 22.4179 -158.748C22.4179 -158.804 22.4179 -158.874 22.4136 -158.956ZM484.871 346.011C484.254 345.889 483.869 346.634 484.473 346.81C484.649 346.861 484.838 346.886 485.04 346.886C485.091 346.886 485.142 346.873 485.19 346.854C485.367 346.781 485.434 346.578 485.369 346.398C485.368 346.395 485.367 346.393 485.366 346.39C485.296 346.197 485.073 346.05 484.871 346.011ZM187.754 151.676C187.754 151.291 187.19 151.192 187.211 151.576C187.217 151.685 187.244 151.791 187.297 151.893C187.429 152.144 187.754 151.958 187.754 151.676ZM760.007 365.609C759.701 365.908 759.613 366.488 760.037 366.543C760.236 366.569 760.431 366.556 760.629 366.507C761.355 366.326 761.01 365.3 760.285 365.484C760.251 365.493 760.218 365.502 760.184 365.511C760.108 365.534 760.064 365.553 760.007 365.609ZM264.593 -31.9879C264.041 -31.8551 263.672 -30.9224 264.2 -30.7141C264.281 -30.6818 264.303 -30.684 264.39 -30.6713C264.966 -30.5876 265.652 -31.141 265.652 -31.6944C265.652 -31.8929 265.453 -32.0915 265.254 -32.0915C265.075 -32.0915 264.854 -32.0508 264.593 -31.9879ZM884.31 375.725C884.404 375.693 884.468 375.597 884.468 375.498C884.468 375.37 884.365 375.275 884.237 375.275C883.718 375.275 883.199 375.275 882.679 375.275C882.481 375.275 882.282 375.672 882.282 375.871C882.282 375.965 882.371 376.059 882.487 376.132C882.719 376.279 883.005 376.201 883.261 376.098C883.571 375.974 883.937 375.849 884.31 375.725ZM594.832 353.934C594.655 353.668 594.288 353.532 594.033 353.725C593.859 353.856 593.74 354.014 593.74 354.232C593.74 354.328 593.833 354.47 593.929 354.592C594.054 354.75 594.253 354.823 594.441 354.751C594.494 354.731 594.55 354.708 594.608 354.682C594.901 354.552 595.01 354.2 594.832 353.934ZM520.574 351.205C521.004 351.095 520.954 350.377 520.69 350.019C520.478 349.73 520.184 349.846 519.888 350.049C519.873 350.059 519.858 350.069 519.844 350.079C519.691 350.186 519.613 350.366 519.602 350.552C519.579 350.926 519.585 351.358 520.111 351.275C520.179 351.264 520.248 351.255 520.316 351.25C520.402 351.242 520.488 351.227 520.574 351.205ZM641.979 352.098C642.068 352.008 642.112 351.789 642.006 351.721C641.71 351.528 641.415 351.267 641.12 351.1C641.07 351.072 641.008 351.083 640.967 351.123C640.903 351.187 640.92 351.297 640.998 351.344C641.268 351.511 641.537 351.744 641.807 351.919C641.913 351.988 641.89 352.187 641.979 352.098ZM181.496 94.5562C181.57 94.99 182.197 94.885 182.423 94.5073C182.484 94.4057 182.544 94.3034 182.6 94.197C182.707 93.9948 182.47 93.7024 182.262 93.6071C182.166 93.5632 182.133 93.599 182.042 93.6526C181.639 93.8908 181.433 94.192 181.496 94.5562ZM504.689 350.465C504.858 350.479 505.206 350.389 505.27 350.232C505.293 350.175 505.309 350.119 505.309 350.063C505.309 350.006 505.276 349.965 505.225 349.932C505.046 349.814 504.623 350.019 504.561 350.225C504.556 350.241 504.552 350.257 504.547 350.273C504.519 350.374 504.584 350.456 504.689 350.465ZM355.965 -22.8703C356.325 -22.6416 357.065 -22.7666 357.116 -23.1902C357.135 -23.3551 357.048 -23.4556 356.93 -23.5722C356.742 -23.7571 356.408 -23.952 356.269 -23.952C356.07 -23.952 355.672 -23.3565 355.672 -23.158C355.672 -23.0682 355.794 -22.9785 355.965 -22.8703ZM748.71 361.652C748.66 361.48 748.437 361.48 748.277 361.561C748.19 361.605 748.103 361.645 748.016 361.714C747.97 361.751 747.945 361.81 747.96 361.867C747.961 361.875 747.964 361.882 747.966 361.889C748.022 362.072 748.396 362.106 748.567 362.02C748.673 361.967 748.748 361.877 748.732 361.76C748.728 361.724 748.721 361.688 748.71 361.652ZM501.371 343.4C501.473 343.625 501.8 343.795 502.029 343.701C502.033 343.699 502.038 343.697 502.042 343.695C502.217 343.622 502.224 343.399 502.117 343.243C502.031 343.118 501.944 342.981 501.858 342.866C501.788 342.773 501.742 342.715 501.636 342.762C501.453 342.845 501.243 343.127 501.329 343.309C501.343 343.34 501.357 343.37 501.371 343.4ZM387.468 331.229C387.482 331.875 388.859 332.048 388.859 331.402C388.859 331.203 388.461 330.806 388.263 330.806C388.064 330.806 387.468 331.005 387.468 331.203C387.468 331.212 387.468 331.221 387.468 331.229ZM397.006 335.968C397.18 335.968 397.064 335.749 396.909 335.671C396.852 335.643 396.796 335.614 396.739 335.595C396.669 335.571 396.598 335.673 396.568 335.74C396.519 335.848 396.613 335.968 396.731 335.968C396.823 335.968 396.915 335.968 397.006 335.968ZM412.034 334.975C412.124 334.915 412.128 334.736 412.032 334.688C411.955 334.65 411.879 334.611 411.803 334.591C411.746 334.576 411.688 334.602 411.646 334.644L411.574 334.716C411.535 334.755 411.507 334.81 411.528 334.86C411.553 334.921 411.608 334.957 411.676 335C411.768 335.057 411.945 335.035 412.034 334.975ZM572.42 351.332C572.337 351.393 572.339 351.511 572.394 351.598C572.474 351.725 572.512 351.852 572.613 351.979C572.65 352.025 572.709 352.05 572.767 352.035C572.802 352.026 572.836 352.013 572.871 351.998C573.016 351.934 573.073 351.601 572.973 351.477C572.874 351.353 572.565 351.229 572.436 351.321C572.43 351.325 572.425 351.329 572.42 351.332ZM480.854 346.08C480.891 346.117 480.897 346.094 480.948 346.082C481.043 346.06 481.138 346.004 481.234 345.959C481.314 345.921 481.355 345.787 481.293 345.724C481.274 345.706 481.249 345.695 481.223 345.695C481.139 345.695 481.052 345.695 480.949 345.695C480.772 345.695 480.729 345.955 480.854 346.08ZM491.56 347.946C491.648 348.217 492.1 348.232 492.352 348.098C492.432 348.056 492.419 348.034 492.435 347.946C492.512 347.527 492.173 346.886 491.995 346.886C491.861 346.886 491.728 347.066 491.654 347.244C491.594 347.39 491.514 347.549 491.515 347.707C491.516 347.779 491.533 347.86 491.56 347.946ZM31.1254 -182.011C31.2173 -181.92 31.4385 -181.85 31.5568 -181.904C31.7474 -181.99 31.9566 -182.03 31.9566 -182.174C31.9566 -182.251 31.9566 -182.328 31.9448 -182.406C31.9104 -182.633 31.6189 -182.645 31.4279 -182.517C31.3582 -182.47 31.2868 -182.423 31.2188 -182.376C31.0866 -182.285 31.0118 -182.125 31.1254 -182.011ZM295.562 -10.6718C295.703 -10.4258 296.165 -10.5264 296.245 -10.7984C296.283 -10.9292 296.199 -10.9031 296.118 -11.0127C296.033 -11.1285 295.947 -11.2644 295.861 -11.3885C295.759 -11.5367 295.479 -11.4642 295.352 -11.3368C295.252 -11.2373 295.303 -11.1617 295.367 -11.0363C295.432 -10.9088 295.497 -10.7849 295.562 -10.6718ZM489.254 346.916C489.303 346.808 489.216 346.64 489.11 346.587C489.039 346.551 488.968 346.516 488.897 346.499C488.845 346.487 488.794 346.51 488.757 346.547C488.679 346.625 488.679 346.752 488.758 346.827C488.867 346.929 488.975 347.017 489.083 347.059C489.152 347.085 489.224 346.982 489.254 346.916ZM810.941 370.074C810.941 370 810.881 369.921 810.807 369.91C810.789 369.907 810.773 369.903 810.757 369.897C810.661 369.858 810.544 369.964 810.544 370.067C810.544 370.132 810.596 370.117 810.66 370.11C810.67 370.11 810.678 370.108 810.687 370.107C810.804 370.085 810.941 370.194 810.941 370.074ZM177.759 111.44C177.791 111.44 177.817 111.414 177.817 111.382C177.817 111.33 177.755 111.304 177.718 111.34C177.681 111.377 177.707 111.44 177.759 111.44ZM269.03 -30.1063C269.03 -30.1063 269.03 -30.1063 269.03 -30.1063C269.03 -30.2061 268.98 -30.3059 268.93 -30.4057C268.852 -30.5612 268.633 -30.5033 268.633 -30.5033C268.633 -30.4035 268.683 -30.3037 268.733 -30.2039C268.733 -30.2039 269.03 -30.1063 269.03 -30.1063ZM858.593 370.949C858.625 370.917 858.608 370.881 858.576 370.849L858.494 370.767C858.456 370.73 858.404 370.706 858.355 370.725C858.308 370.744 858.253 370.783 858.24 370.866C858.236 370.892 858.247 370.918 858.266 370.937L858.295 370.966C858.347 371.017 858.541 371.001 858.593 370.949ZM899.968 371.9C899.968 372.074 899.745 372.297 899.571 372.297C899.79 372.297 899.968 372.119 899.968 371.9ZM189.741 133.277C189.569 133.277 189.398 133.129 189.226 133.089C189.175 133.077 189.124 133.099 189.086 133.137C189.009 133.214 189.01 133.34 189.07 133.432C189.088 133.46 189.104 133.487 189.12 133.511C189.205 133.648 189.346 133.53 189.457 133.412C189.532 133.332 189.637 133.277 189.741 133.277ZM816.397 373.4C816.461 373.444 816.55 373.444 816.605 373.389C816.66 373.334 816.66 373.245 816.605 373.19L816.564 373.149C816.526 373.112 816.474 373.087 816.425 373.104C816.302 373.149 816.275 373.29 816.108 373.29C816.215 373.29 816.321 373.347 816.397 373.4ZM279.662 298.25C279.717 298.248 279.761 298.204 279.761 298.149C279.761 298.095 279.717 298.05 279.662 298.05C279.633 298.05 279.599 298.05 279.562 298.05C279.453 298.05 279.364 298.139 279.364 298.249C279.364 298.298 279.364 298.348 279.364 298.447C279.364 298.282 279.501 298.254 279.662 298.25ZM860.745 373.705C860.533 373.8 860.672 374.186 860.892 374.259C860.907 374.264 860.922 374.269 860.937 374.272C860.989 374.284 861.04 374.262 861.077 374.224C861.155 374.147 861.154 374.021 861.094 373.929C861.005 373.794 860.966 373.687 860.82 373.687C860.795 373.687 860.77 373.693 860.745 373.705ZM900.933 374.948C901.011 374.905 901.053 374.771 900.991 374.708C900.972 374.69 900.947 374.679 900.921 374.684C900.87 374.692 900.776 374.716 900.672 374.788C900.608 374.832 900.609 374.922 900.664 374.977L900.669 374.983C900.721 375.034 900.804 375.033 900.864 374.991C900.888 374.974 900.911 374.96 900.933 374.948ZM413.426 341.75C413.272 341.801 413.373 341.985 413.451 342.127C413.476 342.172 413.497 342.216 413.52 342.261C413.612 342.441 413.898 342.522 413.898 342.32C413.898 342.32 413.898 342.32 413.898 342.32C413.898 342.191 413.898 342.061 413.842 341.932C413.779 341.783 413.58 341.699 413.426 341.75ZM635.67 358.599L635.471 358.401L635.67 358.599ZM503.448 352.198C503.529 352.146 503.442 352.048 503.346 352.048C503.285 352.048 503.225 352.048 503.164 352.048C503.076 352.048 503.031 352.155 503.094 352.217C503.113 352.236 503.138 352.247 503.164 352.246C503.274 352.246 503.38 352.241 503.448 352.198ZM567.111 351.593C567.111 351.541 567.049 351.515 567.012 351.552C566.975 351.588 567.001 351.651 567.053 351.651C567.085 351.651 567.111 351.625 567.111 351.593ZM526.373 347.879C526.3 347.879 526.263 347.968 526.315 348.02C526.347 348.052 526.399 348.052 526.432 348.019C526.483 347.968 526.447 347.879 526.373 347.879ZM467.852 346.591C467.903 346.532 467.905 346.445 467.85 346.39C467.795 346.335 467.706 346.335 467.652 346.39C467.597 346.445 467.597 346.534 467.652 346.589C467.759 346.696 467.791 346.728 467.95 346.886C467.792 346.729 467.759 346.696 467.852 346.591Z" fill="white"/>
</svg>
