<svg width="606" height="619" viewBox="0 0 606 619" fill="none" xmlns="http://www.w3.org/2000/svg">
<mask id="mask0_815_17652" style="mask-type:alpha" maskUnits="userSpaceOnUse" x="0" y="0" width="606" height="619">
<rect y="0.490234" width="606" height="618" fill="currentColor"/>
</mask>
<g mask="url(#mask0_815_17652)">
<path d="M81.2925 696.38C81.7935 695.177 83.8493 694.936 85.0234 694.37C85.4523 694.164 85.8153 693.727 85.9645 693.275C86.3823 692.01 86.9502 690.814 86.3037 689.057C85.8433 687.807 86.2381 686.051 86.6109 684.493C86.7367 683.36 87.12 682.265 86.1855 681.612C85.9279 681.432 85.6683 681.252 85.4006 681.071C85.0563 680.838 84.8647 680.435 84.9624 680.031C85.0021 679.867 85.0489 679.69 85.101 679.501C85.2773 678.861 86.1029 678.749 86.3343 679.371C86.3649 679.453 86.3977 679.503 86.4539 679.57C87.0197 680.247 87.3883 680.344 87.9043 679.899C88.064 679.762 88.1496 679.661 88.0945 679.457C88.0108 679.148 88.0052 678.66 88.1986 678.405C89.2342 677.041 89.3956 675.432 89.3957 673.805C89.4825 673.023 87.9791 673.36 87.3541 673.838C87.2307 673.932 87.0973 673.991 86.9378 674.024C86.1612 674.183 85.6021 673.224 85.7793 672.451C85.8608 672.096 85.9476 671.748 86.0635 671.436C86.6558 669.453 87.7428 667.698 87.7649 665.675C87.7681 665.376 87.7505 665.064 87.8918 664.8C88.0421 664.518 88.2971 664.239 88.6005 663.935C89.3772 663.158 89.6581 662.177 89.2785 661.146C88.8989 660.114 89.109 658.846 89.679 657.907C90.0988 657.215 90.3572 656.448 90.2297 655.503C90.139 655.079 90.3403 654.593 90.5674 654.08C90.7736 653.614 91.0345 653.147 91.2291 652.676C91.4047 652.252 91.3966 651.805 91.3311 651.35C91.2176 650.563 91.0659 649.772 91.1508 649.007C91.2605 648.02 91.962 647.098 92.0717 646.11C92.9708 641.612 93.2999 636.85 93.607 632.285C93.7606 630.903 94.1114 629.542 94.9884 628.84C95.8873 627.94 95.9531 627.347 95.8655 626.338C95.5348 624.793 98.5358 624.301 98.1084 622.78C98.0994 622.748 98.0898 622.716 98.0795 622.684C97.6559 621.37 96.5811 620.106 97.2311 618.889C97.4252 618.525 97.6542 618.186 97.8958 617.858C98.7308 616.726 99.0787 615.345 99.002 613.94C98.955 613.08 98.9376 612.251 98.9136 611.481C98.8719 610.145 99.5441 608.888 98.8936 607.485C98.8252 607.338 98.7165 607.209 98.6854 607.05C98.6067 606.644 98.9755 606.291 99.1343 605.909C100.102 603.588 99.8802 600.978 100.164 598.423C100.339 596.843 101.238 595.943 101.786 594.605C102.071 593.836 101.962 593.024 102.225 592.454C102.346 592.128 102.463 591.838 102.579 591.553C102.885 590.805 103.602 590.441 104.306 590.043C104.442 589.967 104.581 589.879 104.695 589.772C105.163 589.334 105.23 588.389 104.878 588.35C103.321 587.977 103.453 586.792 103.585 585.607C103.672 584.817 103.76 584.027 104.045 583.259C105.251 579.594 106.062 575.885 106.479 572.132C106.72 569.96 107.378 567.633 108.803 565.592C109.943 564.319 109.944 562.52 109.286 561.247C108.124 559.119 108.321 557.341 109.527 555.476C110.47 554.181 110.843 552.623 110.624 550.999C110.426 549.533 111.512 548.228 111.951 546.816C112.075 546.417 112.176 546.009 112.256 545.596C112.557 544.025 112.392 542.359 112.948 540.86C113.628 538.336 114.088 535.988 114.176 533.399C114.141 532.751 114.384 532.191 114.891 531.564C115.904 530.311 116.294 528.721 116.063 527.126C116.007 526.738 115.982 526.344 116.003 525.945C116.055 524.908 116.887 524.567 117.246 525.542C117.512 526.264 118.532 526.448 118.91 525.778C119.043 525.542 119.124 525.322 119.126 525.115C119.127 525.004 119.111 524.893 119.116 524.782C119.222 522.341 119.823 520.304 120.977 518.164C121.046 518.036 121.086 517.983 121.096 517.837C121.128 517.362 120.665 516.893 120.203 517.007C119.557 517.167 119.081 517.615 118.624 518.096C118.509 518.216 118.387 518.334 118.233 518.397C118.2 518.41 118.167 518.423 118.132 518.435C117.68 518.589 117.145 518.427 116.961 517.987C116.778 517.547 116.981 517.065 117.073 516.598C117.221 515.847 117.457 515.078 117.707 514.196C117.99 513.196 118.029 513.056 116.835 512.394C116.408 512.158 116.096 511.737 116.103 511.249C116.114 510.502 116.291 509.814 116.592 509.155C116.836 508.622 117.486 508.777 117.518 509.363C117.537 509.702 117.284 509.984 117.017 510.194C116.858 510.319 116.806 510.502 116.855 510.803C116.866 510.871 116.856 510.918 116.887 510.979C117.047 511.294 117.725 511.234 117.859 510.907C117.871 510.877 117.879 510.847 117.882 510.817C117.943 510.274 118.224 509.793 118.565 509.366C118.771 509.107 118.818 508.745 118.76 508.315C118.717 508.001 118.627 507.051 118.898 506.887C119.211 506.698 119.538 506.497 119.887 506.278C120.074 506.161 120.155 505.928 120.072 505.723C120.054 505.677 120.034 505.63 120.013 505.583C119.834 505.173 119.975 504.626 120.385 504.444C120.448 504.416 120.514 504.387 120.582 504.358C121.03 504.163 121.232 503.632 121.02 503.193C120.982 503.114 120.943 503.034 120.905 502.952C120.648 502.398 119.996 502.125 119.453 502.406C119.347 502.461 119.24 502.517 119.133 502.574C118.258 503.037 117.235 502.451 117.397 501.474C117.861 498.686 119.385 496.211 118.875 493.706C118.693 492.81 119.184 491.331 119.681 492.098C119.75 492.204 119.779 492.284 119.843 492.393C120.039 492.73 120.21 493.036 120.38 493.339C120.815 494.118 120.849 495.055 120.487 495.87C120.447 495.961 120.407 496.052 120.368 496.144C119.6 497.944 121.613 498.804 121.829 496.859C121.984 495.467 122.623 494.128 122.123 492.759C121.888 492.115 121.995 491.336 122.614 491.043C122.91 490.903 123.134 490.613 123.192 490.292C123.73 487.326 124.425 484.378 124.943 481.41C125.282 479.905 124.766 478.158 125.358 476.639C125.558 476.126 125.989 475.519 125.645 475.089C125.541 474.96 125.445 474.761 125.307 474.57C125.109 474.297 124.726 474.191 124.407 474.301C124.146 474.391 124.042 474.643 123.915 474.889C123.632 475.438 123.392 475.992 123.39 476.573C123.387 477.182 123.719 477.753 123.719 478.363C123.718 479.052 123.44 479.681 122.685 480.159C122.488 480.284 122.384 480.413 122.345 480.546C121.954 481.881 121.617 482.968 121.326 481.608C121.216 480.796 121.129 479.786 121.414 479.018C121.743 477.855 122.072 476.692 122.576 475.748C123.102 474.607 123.409 473.641 122.949 472.391C122.62 471.754 122.752 470.569 123.19 470.218C124.944 468.813 124.374 466.751 125.163 465.039C125.784 463.693 125.354 462.393 125.052 460.942C125.044 460.903 125.037 460.865 125.032 460.825C125.01 460.721 124.993 460.618 124.981 460.514C124.862 459.464 124.354 458.484 123.612 457.732C123.391 457.508 123.4 457.287 123.387 456.972C123.342 455.885 123.365 454.713 123.805 453.891C124.312 453.107 124.625 452.301 124.684 451.399C124.737 450.588 124.461 449.783 124.55 448.975C124.691 447.707 125.995 446.567 125.277 445.048C125.144 444.766 125.009 444.491 125.164 444.22C125.216 444.129 125.329 444.017 125.391 443.933C125.908 443.235 126.322 442.527 126.804 441.826C127.001 441.54 127.461 441.564 127.778 441.703C127.908 441.76 128.011 441.706 128.119 441.615C128.688 441.132 129.106 440.648 129.505 440.328C129.934 439.985 130.991 440.858 131.346 439.811C131.362 439.762 131.368 439.738 131.374 439.687C131.435 439.168 131.347 438.505 130.961 438.154C130.835 438.039 130.709 437.932 130.58 437.848C130.332 437.688 130.075 437.615 129.878 437.519C129.705 437.435 129.628 437.189 129.607 436.997C129.583 436.774 129.797 436.659 129.943 436.488C131.257 434.96 131.241 433.274 130.551 431.343C130.527 431.277 130.51 431.234 130.462 431.183C130.13 430.829 129.508 431.106 129.382 431.574C129.379 431.586 129.375 431.598 129.372 431.609C129.255 432.046 128.75 432.329 128.349 432.122C127.461 431.664 127.501 431.276 128.336 429.585C128.582 429.087 129.28 428.98 129.809 429.148C129.948 429.192 130.017 429.157 130.147 429.091C130.497 428.913 130.838 428.615 131.041 428.302C131.282 427.929 131.128 427.512 131.37 427.139C132.493 425.108 132.607 424.902 132.602 423.718C132.601 423.432 132.497 423.165 132.261 423.005C132.108 422.902 131.963 422.775 131.803 422.684C130.505 421.952 130.26 421.149 130.756 420.073C131.26 419.129 131.787 417.988 132.291 417.044C133.5 414.857 133.971 412.588 133.166 410.177C133.112 410.016 133.092 409.839 132.988 409.706C132.906 409.601 132.909 409.45 132.876 409.321C132.301 407.118 132.299 406.855 134.549 406.254C135.134 406.098 135.64 406.388 136.018 406.862C136.287 407.197 136.846 407.233 137.219 407.021C138.112 406.514 138.67 405.754 139.031 404.857C139.193 404.451 139.717 404.281 139.962 404.643C140.168 404.947 140.644 405.051 140.84 404.741C141.57 403.589 141.693 402.248 141.675 400.891C141.783 399.917 142.657 399.293 142.774 398.319C142.803 398.076 142.798 397.824 142.795 397.569C142.785 396.671 143.091 395.69 142.53 394.988C142.395 394.819 141.975 395.092 141.599 395.297C141.395 395.408 141.16 395.436 140.93 395.41C140.77 395.393 140.609 395.401 140.451 395.435C139.947 395.544 139.459 395.655 139.101 395.781C139.064 395.794 139.02 395.791 138.986 395.811C138.972 395.82 138.961 395.834 138.953 395.852C138.865 396.039 139.176 396.62 139.343 396.498C139.392 396.461 139.4 396.416 139.447 396.376C139.49 396.34 139.533 396.302 139.577 396.263C140.004 395.875 140.532 396.157 140.453 396.729C140.404 397.081 140.382 397.429 140.425 397.754C140.437 397.963 140.436 398.172 140.423 398.378C140.325 399.889 138.504 399.864 137.565 398.676C137.227 398.249 136.993 397.674 137.062 397.134C137.267 395.539 138.021 394.255 139.351 393.036C139.824 392.532 140.308 391.932 140.787 391.37C141.172 390.919 142.006 390.648 142.272 391.178C142.717 392.064 143.343 392.535 144.021 391.813C144.654 391.139 144.951 390.254 144.569 389.216C144.137 388.041 144.692 387.505 145.343 386.679C145.427 386.572 145.498 386.515 145.566 386.398C145.88 385.854 145.474 385.1 144.873 384.915C143.766 384.575 142.753 384.901 141.632 385.091C140.456 385.251 140.986 383.576 141.999 382.958C143.042 382.322 143.849 381.521 143.876 380.114C143.882 379.788 144.246 379.445 144.562 379.363C144.919 379.271 145.014 379.585 144.948 379.948C144.673 381.462 144.696 381.873 145.355 382.882C145.639 383.316 146.42 383.346 146.477 382.83C146.916 380.68 146.96 378.485 147.574 376.554C147.977 375.465 147.743 374.708 147.401 373.984C147.135 373.423 146.473 372.896 146.021 373.32C145.784 373.543 145.688 373.876 145.537 374.142C145.397 374.389 144.941 374.41 144.861 374.138C144.843 374.076 144.848 374.021 144.837 373.958C144.732 373.359 144.805 372.617 144.68 372.034C144.263 370.388 144.614 369.027 145.93 367.974C145.983 367.931 146.016 367.862 146.035 367.776C146.135 367.333 145.537 367.066 145.082 367.076C145.025 367.077 145.002 367.079 144.946 367.088C143.576 367.296 142.859 366.813 142.773 365.824C142.554 364.2 142.357 362.378 142.532 360.798C142.511 359.27 143.568 357.861 144.16 356.401C144.217 356.261 144.274 356.044 144.371 355.929C144.468 355.814 144.552 355.784 144.691 355.725C145.643 355.317 146.378 355.187 146.807 354.675C147.248 353.993 147.095 353.319 146.749 352.698C146.36 352 146.501 351.018 146.97 350.372C147.165 350.104 147.022 349.957 146.913 349.644C146.689 349.001 146.689 348.383 146.776 347.774C147.01 346.141 149.037 344.901 149.724 346.401C150.228 347.257 151.675 346.818 151.784 345.83C151.793 345.758 151.796 345.675 151.795 345.586C151.787 344.635 150.629 343.977 150.104 343.183C149.371 342.075 150.721 340.621 150.973 339.316C151.129 338.506 151.249 337.581 151.921 337.103C152.566 336.645 153.203 336.175 153.572 335.372C153.86 334.748 153.531 334.087 152.91 333.793C152.489 333.593 152.109 333.213 152.111 332.747C152.112 332.505 152.087 332.262 151.917 332.049C150.886 330.535 151.435 329.196 152.903 328.56C153.659 328.281 153.637 327.769 153.652 327.248C153.671 326.592 154.344 326.318 154.969 326.518C155.071 326.551 155.174 326.585 155.278 326.621C155.78 326.795 156.337 326.712 156.749 326.377C157.139 326.06 157.557 325.714 157.991 325.337C158.471 324.92 158.308 324.15 157.672 324.151C157.241 324.151 156.766 323.827 156.822 323.4C156.915 322.692 157.165 322.061 157.54 321.503C157.832 321.068 158.386 321.023 158.713 321.432C159.041 321.842 159.728 321.969 160.121 321.622C160.321 321.446 160.508 321.273 160.666 321.087C161.232 320.42 160.305 319.872 159.511 320.238C158.795 320.567 158.055 320.07 157.973 319.286C157.931 318.887 157.895 318.482 157.856 318.068C157.759 317.028 158.513 316.33 159.328 315.677C159.637 315.43 159.967 314.986 160.09 314.531C160.189 314.163 160.115 313.773 160.056 313.397C159.979 312.904 159.846 312.43 159.704 311.948C159.428 311.011 159.636 309.959 160.119 309.11C160.792 307.928 160.864 306.54 160.286 305.309C160.261 305.255 160.236 305.201 160.211 305.148C160.034 304.758 159.881 304.31 160.135 303.966C160.246 303.816 160.378 303.68 160.468 303.607C160.687 303.432 161.038 303.871 161.433 303.914C161.782 303.953 162.172 304.038 162.252 303.697C162.491 302.684 161.957 301.831 161.543 301.127C160.88 300.124 160.81 299.187 161.057 298.285C161.197 297.772 161.599 297.447 162.072 297.202C162.424 297.02 162.681 296.647 162.801 296.269C162.952 295.791 163.104 295.304 163.26 294.784C163.464 294.102 163.66 293.371 164.164 292.87C164.26 292.775 164.364 292.699 164.481 292.656C167.199 291.559 167.857 289.232 168.515 286.906C168.866 285.545 169.611 284.229 168.603 282.517C167.573 281.003 168.055 280.257 169.809 278.852C170.247 278.501 170.51 277.93 170.532 277.733C170.505 275.755 172.274 274.413 172.618 272.465C172.732 271.817 172.96 271.196 173.317 270.644C174.108 269.558 175.3 268.657 176.453 267.656C176.867 267.297 177.041 266.738 176.949 266.198C176.923 266.041 176.896 265.883 176.87 265.728C176.798 265.312 176.995 264.886 177.375 264.704C177.504 264.642 177.637 264.581 177.778 264.521C178.299 264.298 178.454 263.619 178.007 263.271C177.757 263.076 177.657 262.716 177.762 262.417C177.895 262.039 178.035 261.668 178.336 261.501C178.46 261.432 178.604 261.4 178.729 261.334C179.613 260.864 178.964 260.425 178.769 259.906C178.661 259.619 178.862 259.335 179.075 259.114C179.557 258.615 180.129 258.054 180.786 257.485C181.098 257.216 181.546 257.315 181.736 257.68C181.889 257.976 182.36 258.175 182.645 258.003C182.688 257.976 182.717 257.942 182.723 257.893C182.789 257.3 182.679 256.488 182.942 255.918C184.648 252.327 185.044 251.974 184.821 250.015C184.59 247.984 185.149 246.039 186.194 244.283C186.417 243.908 186.569 243.507 186.62 243.074C186.717 242.255 186.611 241.363 186.573 240.239C186.557 239.773 186.576 239.47 186.876 239.112C187.536 238.326 187.76 237.095 187.678 236.072C187.572 234.759 188.123 233.461 188.994 231.997C190.222 229.934 191.077 227.629 192.502 225.588C194.35 222.73 196.016 219.852 198.022 217.012C198.199 216.76 198.411 216.463 198.576 216.204C198.676 216.047 198.846 216.084 199.031 216.061C201.115 215.802 200.577 214.032 200.724 212.705C200.733 212.626 200.743 212.531 200.757 212.428C200.852 211.671 201.482 211.211 201.93 210.594C202.112 210.343 202.237 210.061 202.296 209.746C202.377 209.312 202.291 208.834 202.568 208.49C202.801 208.202 203.195 208.079 203.492 207.858C205.427 206.413 205.841 203.736 207.696 202.083C208.101 201.759 208.375 201.079 208.622 200.527C208.662 200.438 208.689 200.343 208.699 200.246C208.712 200.129 208.724 200.013 208.734 199.896C208.782 199.331 209.456 198.869 210.018 198.94C210.207 198.965 210.325 198.901 210.489 198.804C210.683 198.689 210.882 198.574 210.897 198.44C211.139 196.267 212.893 194.862 213.704 192.953C213.989 192.185 215.26 191.526 216.094 191.219C218.154 190.648 219.163 188.761 219.952 187.049C221.027 184.569 222.43 182.725 224.973 181.408C226.661 180.596 227.889 178.533 229.073 176.865C229.774 175.943 230.235 175.394 231.287 174.911C232.537 174.45 233.787 173.989 234.159 172.431C234.181 172.234 234.4 172.058 234.62 171.882C237.908 169.249 241 166.593 244.266 164.156C245.801 162.927 246.963 161.457 249.046 160.688C250.712 160.073 252.203 159.239 253.738 158.01C254.856 156.935 256.719 156.342 258.013 155.486C260.797 153.796 264.13 152.566 266.585 150.239C267.024 149.888 267.835 149.779 268.449 149.647C269.676 149.383 270.729 148.9 271.43 147.978C272.154 146.859 273.031 146.157 274.237 146.091C274.338 146.073 274.436 146.049 274.532 146.018C276.803 145.287 279.521 144.579 281.537 143.303C283.269 142.095 285.089 141.897 286.93 141.502C288.148 141.241 289.017 140.114 290.18 139.67C290.263 139.639 290.346 139.61 290.429 139.583C291.032 139.392 291.667 139.315 292.287 139.188C294.226 138.792 296.144 138.589 298.111 137.945C300.194 137.177 302.255 136.606 304.491 136.254C307.841 135.535 311.639 134.802 314.963 133.97C315.373 133.867 315.779 133.736 316.176 133.553C317.645 132.917 319.487 132.521 321.087 132.499C325.121 132.147 329.331 132.015 333.54 131.882C335.048 131.678 336.009 133.395 337.527 133.499C338.215 133.546 338.974 133.385 339.766 133.374C341.169 133.33 342.441 132.671 343.909 133.834C344.312 134.172 344.985 134.002 345.801 133.783C346.372 133.63 346.971 133.84 347.34 134.302C347.879 134.976 348.708 134.921 349.389 134.391C349.622 134.209 349.897 134.099 350.267 134.14C351.846 134.315 353.885 133.942 355.2 134.688C355.49 134.832 355.771 134.927 356.043 134.986C358.95 135.614 362.237 132.89 364.824 134.357C366.534 135.147 368.091 135.52 370.327 135.168C370.995 134.983 372.695 135.333 374 135.841C375.12 136.277 375.841 137.58 377.035 137.712C377.823 137.8 378.605 137.949 379.341 138.242C380.188 138.578 381.065 138.96 381.88 139.05C383.064 139.182 384.358 138.326 385.761 138.282C386.572 138.172 387.931 138.523 388.282 138.961C389.312 140.475 391.044 139.268 392.14 140.19C393.237 141.111 394.179 141.616 395.604 141.374C397.116 141.05 398.315 142.715 399.688 143.425C399.896 143.533 400.111 143.627 400.34 143.699C400.44 143.746 400.543 143.789 400.647 143.83C402.673 144.63 404.329 142.467 406.39 143.172C408.036 143.638 408.702 145.615 410.324 146.157C412.205 146.786 414.05 147.523 415.554 148.788C416.299 149.271 417.286 149.38 418.075 149.468C418.219 149.484 418.343 149.444 418.461 149.39C418.748 149.257 418.999 148.868 418.864 148.582C418.723 148.283 418.863 147.837 419.193 147.811C419.797 147.763 420.367 147.875 420.553 148.743C420.639 149.383 420.998 149.805 421.522 150.095C421.813 150.256 422.126 150.383 422.412 150.555C424.518 151.822 427.095 153.014 429.392 153.886C429.449 153.907 429.506 153.926 429.563 153.943C430.922 154.294 432.04 155.018 433.355 155.764C434.868 156.531 436.337 157.694 438.376 157.321C439.143 157.254 439.961 157.771 440.724 158.245C441.143 158.505 441.64 158.503 441.959 158.127C442.305 157.719 442.903 157.516 443.4 157.715C444.489 158.149 445.538 158.685 445.852 160.15C446.246 161.994 447.759 162.761 449.359 162.739C450.668 162.885 451.976 163.03 453.21 163.847C453.348 163.938 453.469 164.06 453.611 164.143C454.073 164.415 454.62 164.084 455.126 163.909C455.943 163.626 456.709 163.811 457.461 164.112C458.363 164.472 458.257 165.35 458.15 166.315C458.062 167.105 458.632 167.368 459.202 167.631C461.11 168.443 463.017 169.255 464.924 170.066C466.262 170.615 467.774 171.382 469.068 172.326C471.038 173.688 473.038 174.787 475.043 175.837C475.88 176.276 477.545 176.13 476.956 175.392C476.837 175.244 476.657 175.131 476.487 175.046C475.648 174.626 474.796 174.319 473.978 173.712C473.934 173.68 473.895 173.643 473.865 173.598C473.838 173.559 473.812 173.516 473.786 173.471C473.6 173.144 473.828 172.428 474.146 172.63C474.212 172.672 474.256 172.716 474.326 172.752C475.623 173.422 476.763 174.22 478.016 175.047C478.335 175.258 478.567 175.585 478.596 175.967C478.602 176.052 478.607 176.137 478.612 176.222C478.643 176.786 479.129 177.174 479.692 177.129C479.962 177.107 480.22 177.084 480.482 177.061C481.087 177.009 481.452 177.743 481.187 178.29C481.018 178.637 481.188 178.988 481.523 179.18C483.451 180.29 483.761 180.657 485.987 184.127C486.235 184.514 486.653 184.276 487.11 184.326C488.864 184.721 490.837 184.94 491.648 186.63C491.783 186.892 491.931 187.113 492.088 187.306C493.173 188.649 494.677 189.604 495.959 190.761C496.567 191.31 497.151 191.876 497.728 192.482C497.884 192.646 498.099 192.811 498.245 192.984C498.578 193.381 498.928 193.686 499.396 193.909C501.447 194.884 502.705 196.639 504.122 198.412C504.648 199.07 505.371 199.751 506.139 200.036C508.835 200.935 510.15 203.48 511.926 205.477C512.803 206.574 513.899 207.496 515.214 208.242C515.333 208.319 515.449 208.397 515.564 208.478C517.275 209.686 520.241 209.866 520.06 207.78C519.84 206.156 520.805 204.664 520.564 203.237C520.345 201.613 520.893 200.275 520.871 198.673C520.871 197.657 521.067 196.6 521.312 195.52C521.679 193.905 523.416 193.066 523.745 191.442C523.818 191.084 523.677 190.622 523.505 190.299C523.354 190.017 523.189 189.704 523.108 189.324C522.429 186.732 522.654 186.115 525.335 184.922C525.515 184.842 525.663 184.785 525.772 184.621C525.83 184.533 525.865 184.378 525.88 184.275C526.023 183.315 524.955 183.221 524.391 182.704C524.146 182.478 524.329 182.081 524.622 181.923C525.301 181.557 526.939 180.387 526.689 179.657C526.496 179.091 526.97 178.413 527.494 178.125C528.061 177.815 528.318 177.184 528.6 176.635C528.99 175.875 529.697 174.99 529.336 174.216C529.025 173.553 528.513 173.131 528.066 172.713C527.742 172.409 527.462 172.008 527.527 171.568C527.65 170.732 528.586 170.222 528.48 169.726C528.064 168.081 528.962 167.181 529.686 166.061C530.41 164.942 530.585 163.362 531.308 162.243C532.295 160.553 533.084 158.841 533.501 156.888C533.78 155.807 534.183 154.74 534.611 153.677C534.805 153.196 534.667 152.666 534.325 152.277C534.056 151.971 533.985 151.498 534.142 151.123C534.773 149.619 535.227 147.951 535.136 146.077C535.129 145.94 535.125 145.832 535.146 145.696C535.21 145.287 535.476 144.872 535.807 144.622C536.319 144.235 537.08 143.98 537.031 143.084C536.922 142.272 536.834 141.263 536.922 140.473C537.029 139.509 537.662 138.685 537.975 137.767C538.279 136.876 538.555 135.981 538.917 135.096C539.202 134.328 539.487 133.56 539.948 133.011C540.017 132.929 540.111 132.867 540.22 132.818C541.604 132.193 541.381 130.9 541.548 129.39C541.943 127.634 541.154 125.747 542.513 124.298C542.913 123.822 543.015 123.312 542.82 122.77C542.759 122.6 542.681 122.433 542.653 122.255C542.543 121.544 542.816 120.972 543.331 120.447C543.567 120.207 544.046 120.244 544.244 120.516C544.339 120.646 544.366 120.771 544.47 120.895C544.77 121.252 545.079 121.524 545.451 121.226C545.467 121.213 545.482 121.199 545.498 121.183C545.966 120.705 545.691 119.899 545.503 119.257C545.038 117.661 545.237 115.917 546.37 114.698C547.096 113.917 547.791 113.172 548.433 112.359C548.894 111.811 549.157 111.24 549.025 110.626C548.587 106.756 550.879 104.095 552.796 101.118C553.239 100.43 554.203 100.269 554.811 100.816C555.276 101.234 556.013 101.297 556.448 100.847C556.533 100.76 556.609 100.672 556.676 100.583C556.722 100.52 556.759 100.45 556.792 100.379C557.301 99.2854 557.795 98.372 558.475 97.4792C558.976 96.791 559.378 95.9787 559.701 95.1348C560.258 93.6761 560.682 92.1678 561.356 90.7593C562.025 89.3634 562.663 87.9348 562.707 86.3525C562.882 84.7724 564.044 83.3019 565.36 82.2484C566.144 81.4627 566.963 80.3759 567.785 79.2509C568.007 78.9468 568.227 78.7678 568.602 78.8094C568.961 78.8494 569.479 78.7241 569.643 78.4016C569.932 77.8344 569.971 77.259 569.907 76.6581C569.759 75.2757 570.458 73.7929 571.647 73.0711C572.751 72.4004 573.92 71.8337 573.334 70.6822C573.167 70.3537 573.053 69.9899 573.109 69.5488C573.145 69.2612 573.287 69.0005 573.449 68.76C574.88 66.631 576.846 64.4213 579.106 62.7811C581.426 61.0979 582.63 59.2908 582.258 56.5771C582.235 56.4122 582.222 56.3101 582.24 56.1445C582.293 55.672 582.536 55.1619 582.972 54.973C583.778 54.624 584.714 54.4521 585.158 53.2559C585.923 50.8484 588.012 49.272 589.545 47.2644C590.02 46.6418 590.663 46.1105 591.582 45.7717C591.815 45.6858 592.069 45.4142 592.293 45.0917C592.638 44.5953 593.01 44.0365 593.442 43.6132C593.914 43.1497 594.011 42.502 594.392 41.9612C595.325 40.6392 596.796 39.886 597.764 38.6606C598.883 37.2454 599.311 35.3832 600.846 34.5212C600.967 34.4533 601.109 34.3656 601.214 34.2744C601.472 34.0491 601.608 33.7362 601.8 33.4519C602.746 32.0488 603.267 30.362 605.175 29.4864C606.644 28.8498 607.652 26.9624 608.99 25.7113C609.669 24.987 610.547 24.2846 611.051 23.3409C611.555 22.3972 612.235 21.6729 613.265 21.3874C613.991 21.1197 614.571 20.6075 615.156 20.1007C616.354 19.0613 617.76 18.2528 619.294 17.4584C621.202 16.4706 622.605 14.627 624.183 13.0028C626.661 10.4788 629.27 8.56906 632.405 7.31766C632.696 7.21028 633.011 7.10557 633.319 6.98293C634.418 6.5445 635.092 5.44505 636.113 4.84747C636.351 4.70842 636.596 4.59046 636.85 4.48986C638.069 4.00759 639.345 3.70711 640.626 3.43201C641.791 3.0785 642.814 2.83885 643.924 2.52974C644.474 2.37636 645.071 2.25796 645.634 2.15831C646.599 1.98728 647.34 1.32122 648.256 0.971956C649.354 0.552816 650.592 0.567404 651.764 0.270174C652.884 0.0296042 654.407 0.666576 655.264 -0.52249C655.439 -0.764477 655.611 -1.10211 655.907 -1.06918C659.871 -0.810639 663.835 -2.03754 667.7 -1.16179C668.485 -0.984014 669.293 -0.419986 670.048 -0.698428C671.911 -1.29123 673.731 -1.48906 675.572 -0.0849055C675.945 0.156433 676.581 -0.172809 677.173 -0.107073C678.729 0.265732 680.724 0.28715 682.018 1.23054C684.977 3.35871 688.156 3.51185 691.51 3.88434C692.981 4.04769 694.249 4.95527 695.57 5.624C696.511 6.10088 697.472 6.51106 698.372 6.8457C700.652 7.89865 703.173 8.57865 705.015 9.98281C707.404 11.8477 710.145 12.352 712.578 13.8219C714.442 15.0285 716.612 15.2695 718.256 16.6517C718.804 17.1125 719.988 17.2438 720.755 17.5289C722.093 18.0774 723.452 18.4283 724.307 19.7229C724.8 20.3396 725.61 20.5327 726.38 20.7076C727.147 20.8819 727.886 21.0525 728.516 21.39C729.261 21.8726 729.503 23.299 730.686 23.4305C732.068 23.5839 732.769 24.4616 733.471 25.3393C735.071 27.1166 736.934 28.3231 739.017 29.3542C740.038 29.9332 741.191 30.4064 741.841 31.4513C742.244 32.1007 742.321 32.9759 742.963 33.3914C745.221 34.6419 746.777 36.8142 748.356 38.789C749.583 40.3249 750.811 41.8608 752.039 43.3967C753.266 44.9326 754.889 46.5123 755.48 48.3774C755.634 48.7944 755.809 49.0138 756.16 49.4526C756.799 50.0927 757.308 50.7689 757.687 51.4812C758.93 53.8185 760.184 56.219 762.21 57.9223C762.758 58.3831 763.285 59.0414 763.613 59.6778C764.446 61.1699 765.477 62.6839 766.726 64.0223C768.546 65.624 769.291 67.906 770.255 70.0125C771.045 71.8996 771.615 73.9624 773.697 74.9935C773.81 75.0665 773.919 75.1759 774.02 75.3044C774.48 75.8884 774.717 76.6206 774.96 77.3231C775.067 77.6325 775.305 77.8746 775.569 78.0691C776.259 78.579 777.077 79.0277 777.095 80.3693C776.985 81.3569 778.082 82.2784 778.564 83.3317C779.747 87.0621 781.348 90.6387 782.553 94.1717C783.167 95.8393 783.562 97.6826 784.175 99.3504C784.636 100.601 785.315 101.676 785.578 102.905C786.17 104.77 786.762 106.636 786.959 108.457C787.244 111.288 786.937 114.053 787.002 117.059C787.046 118.464 786.717 119.627 787.178 120.878C787.463 121.909 787.528 123.116 786.432 123.994C786.242 124.146 786.299 124.778 786.146 125.316C786.1 125.477 786.015 125.618 785.936 125.766C785.553 126.49 784.827 126.77 784.08 127.106C783.018 127.584 782.518 128.7 781.806 129.678C781.324 130.425 780.513 130.535 779.767 130.052C777.685 129.021 777.093 127.156 776.523 125.093C776.408 124.782 776.342 124.476 776.312 124.172C775.961 120.641 775.7 117.329 773.279 114.736C772.226 113.419 771.569 112.146 772.38 110.237C772.658 109.558 772.795 108.759 772.857 107.954C772.972 106.453 772.808 104.947 772.117 103.61C771.46 102.337 770.802 101.064 770.144 99.7916C769.699 98.7252 769.253 97.6588 769.072 96.4775C768.88 95.2286 767.383 93.5262 766.361 92.7832C765.703 92.3049 765.234 91.6138 765.184 90.8019C765.089 89.256 764.63 88.4416 763.371 87.0428C762.594 86.0716 762.186 85.0191 761.602 83.9219C761.063 82.911 760.177 82.1512 759.206 81.3819C758.658 80.9211 758.131 80.2628 757.824 79.4289C757.395 78.2607 756.082 77.841 755.45 76.7688C754.658 75.427 753.38 74.4116 752.541 73.0438C752.445 72.9229 752.228 72.7885 752.016 72.7218C751.727 72.6309 751.437 72.8081 751.145 72.8893C750.014 73.2045 749.713 72.5235 749.431 71.7519C749.29 71.3668 749.543 70.8723 749.921 70.7113C750.345 70.5298 750.437 70.0759 750.204 69.6766C750.157 69.5947 750.109 69.5116 750.062 69.4257C749.808 68.9637 749.238 68.7465 748.793 69.0286C748.786 69.0331 748.779 69.0375 748.772 69.042C748.337 69.317 747.468 69.1602 747.583 68.6593C747.608 68.5517 747.665 68.4459 747.68 68.3367C747.83 67.3156 747.563 66.3742 747.202 65.4557C746.227 62.9702 745.22 60.2824 743.333 58.3937C743.188 58.2487 743.04 58.1058 742.89 57.9654C742.735 57.8206 742.64 57.6909 742.445 57.608C741.894 57.3743 741.299 57.7786 740.708 57.8713C740.551 57.8959 740.406 57.8098 740.287 57.4871C740.133 57.0702 740.199 56.4778 740.243 56.0828C740.336 55.2506 740.006 54.6673 739.4 54.2799C738.995 54.0214 738.523 54.298 738.578 54.775C738.656 55.451 737.837 55.9608 737.378 55.4581C735.593 53.501 734.098 51.7684 732.724 50.0493C732.629 49.9309 732.605 49.7038 732.578 49.4543C732.536 49.0603 732.27 48.799 731.876 48.7552C731.2 48.6802 730.689 47.9743 730.863 47.3167C730.934 47.0482 731.012 46.7738 731.124 46.4724C731.381 45.4752 731.367 44.9849 730.582 44.5524C730.001 44.2327 729.331 44.633 729.257 45.2916C729.171 46.0676 728.282 46.5544 727.673 46.0663C727.162 45.6574 726.718 45.2141 726.383 44.6912C725.946 44.0079 725.364 43.3867 724.608 43.0916C723.779 42.7677 723.014 42.3193 722.426 41.6557C722.332 41.5495 722.233 41.4473 722.128 41.3518C721.936 41.1768 721.746 40.9821 721.557 40.7849C721.073 40.2817 721.101 39.2127 721.728 39.5201C721.806 39.5585 721.88 39.6066 721.951 39.6571C722.152 39.8012 722.406 39.8445 722.626 39.7318C722.633 39.7283 722.64 39.7247 722.647 39.721C722.819 39.6317 722.913 39.4645 722.935 39.2726C722.968 38.9764 722.819 38.6784 722.555 38.5389C722.03 38.2607 721.504 37.992 720.974 37.7666C720.478 37.5562 719.912 37.7225 719.536 38.108C719.49 38.1551 719.446 38.201 719.403 38.2459C719.136 38.5244 718.739 38.699 718.356 38.6565C718.248 38.6444 718.161 38.6168 718.061 38.5713C717.54 38.3323 717.002 38.1061 716.282 38.0261C714.331 37.6095 712.818 36.8419 711.152 35.6571C708.74 33.9897 705.869 32.8709 703.216 31.5765C701.309 30.7649 699.862 29.4046 697.713 28.9661C697.531 28.9458 697.325 28.7516 697.102 28.5033C696.677 28.0308 696.748 27.1968 697.271 26.8363C697.689 26.5483 697.837 26.0542 697.583 25.6148C697.488 25.4503 697.4 25.2865 697.341 25.126C696.468 22.7554 694.415 22.9468 692.56 22.4507C692.356 22.396 692.177 22.3432 691.965 22.3404C691.621 22.3361 691.358 22.6294 691.132 22.8894C689.984 24.2092 688.612 23.5231 687.388 23.021C685.481 22.2093 683.288 22.1658 681.863 20.6079C681.516 20.1732 680.816 20.3969 680.26 20.3684C678.484 20.2776 677.215 18.9876 675.747 18.1291C674.607 17.6027 673.883 16.9224 672.261 17.1421C671.261 17.3117 670.239 16.7897 669.181 16.3344C668.296 15.9537 667.431 15.4061 666.473 15.2998C663.886 15.2124 661.3 15.1251 658.691 15.2353C657.09 15.2575 655.468 15.4771 654.196 16.1357C652.727 16.7724 651.39 16.2241 649.899 17.0583C647.575 18.1998 644.879 19.0999 642.226 19.605C641.415 19.7149 640.165 20.1761 639.902 20.7467C639.113 22.4585 637.468 22.8756 636.175 23.7317C634.662 24.7634 632.974 25.5756 632.185 27.2874C631.544 28.6763 629.471 28.5885 628.385 29.6654C628.27 29.779 628.169 29.9011 628.085 30.0312C626.221 32.4234 623.437 34.1136 621.573 36.5059C621.113 37.0546 620.631 37.8009 619.995 38.1301C618.109 38.9205 616.947 40.3911 615.763 42.0591C614.799 43.5515 613.089 44.5612 611.927 46.0317C610.984 47.3266 610.436 48.6653 609.12 49.7189C606.051 52.1771 603.902 55.3377 601.732 58.6956C601.249 59.4417 600.57 60.166 599.912 60.6928C598.794 61.7683 598.048 63.0851 596.93 64.1606C595.812 65.2361 594.694 66.3115 593.948 67.6283C593.387 68.4972 592.508 69.1184 591.759 69.8322C591.288 70.2812 590.831 70.7247 590.55 71.2497C589.739 73.1591 588.555 74.8271 586.998 76.2538C585.442 77.6804 584.608 79.7873 583.446 81.2578C581.407 83.4307 580.114 86.0861 578.447 88.5003C577.102 90.5812 575.824 93.3766 574.479 95.4575C574.133 95.9935 573.696 96.4163 573.509 96.9861C573.352 97.4688 573.471 98.3447 572.966 98.2886C570.576 98.2232 570.971 100.067 570.423 101.405C569.37 103.688 568.493 106.19 567.244 108.45C566.839 109.207 566.18 109.936 565.46 110.762C565.123 111.148 564.995 111.554 565.109 112.055C565.248 112.668 564.908 113.382 564.354 113.68C564.135 113.798 563.933 113.93 563.77 114.089C562.972 114.866 562.993 116.319 562.162 117.062C561.298 117.834 560.537 118.671 560.065 119.697C559.477 120.977 559.052 122.401 558.72 123.77C558.454 124.869 558.312 126.001 557.618 126.776C556.456 128.246 555.864 129.98 555.097 131.494C554.286 133.403 553.65 135.532 552.641 137.42C551.633 139.307 550.997 141.436 550.361 143.565C550.076 144.333 549.791 145.101 549.725 145.693C549.671 146.179 549.598 146.613 549.455 146.991C548.874 148.519 546.474 148.573 545.887 150.099C545.594 150.862 545.636 151.798 545.932 152.87C546.281 153.82 546.146 154.793 546.002 155.795C545.744 157.584 545.922 159.556 544.813 161.143C544.331 161.889 544.024 162.855 543.739 163.623C543.514 164.111 543.289 164.6 543.063 165.088C542.988 165.252 542.883 165.417 542.761 165.55C542.092 166.276 541.667 167.246 541.837 168.219C541.967 168.959 541.997 169.7 541.841 170.409C541.577 171.612 541.113 172.82 540.884 174.029C540.459 176.286 539.188 178.406 539.222 180.916C539.331 181.728 538.827 182.672 538.542 183.44C536.804 188.397 536.396 194.117 534.292 198.93C534.066 199.445 533.848 199.964 533.652 200.492C532.753 203.191 532.446 205.956 530.78 208.371C529.936 209.675 529.98 211.169 529.49 212.643C529.346 213.078 529.329 213.596 529.53 214.23C529.815 215.261 529.091 216.381 528.565 217.522C527.206 220.77 527.732 223.228 530.253 225.707C530.801 226.168 531.371 226.431 531.7 227.067C533.695 230.688 536.588 233.409 539.263 236.305C539.658 236.716 539.931 237.249 540.194 237.797C541.036 239.549 542.276 241.414 543.942 242.416C544.191 242.565 544.484 242.724 544.736 242.868C544.767 242.886 544.798 242.904 544.828 242.922C545.531 243.346 545.655 244.246 546.043 244.968C546.214 245.286 546.42 245.574 546.656 245.839C547.166 246.413 547.779 246.891 548.268 247.483C550.168 249.786 551.518 252.512 553.402 254.67C554.279 255.767 554.959 256.842 556.055 257.764C557.524 258.927 558.313 260.814 559.124 262.504C559.453 263.14 559.584 263.754 559.913 264.391C559.965 264.509 560.017 264.628 560.071 264.747C561.262 267.365 563.284 269.954 564.604 272.509C565.393 274.397 565.766 276.437 566.753 278.346C568.177 281.704 569.624 284.863 571.268 288.045C571.597 288.681 571.729 289.296 571.86 289.91C572.32 292.961 573.438 295.484 575.806 297.547C576.902 298.468 577.384 299.521 577.209 301.101C577.175 301.402 576.921 301.636 576.909 301.938C576.838 303.656 578.41 304.963 578.612 306.456C578.611 308.255 578.831 309.879 579.839 311.59C581.023 313.521 581.768 315.803 581.899 318.217C581.987 319.227 582.272 320.258 582.36 321.268C582.56 322.751 581.597 324.089 581.454 325.579C581.381 326.349 581.492 327.139 581.811 328.005C581.965 328.422 581.899 329.014 581.833 329.607C581.701 332.591 581.57 335.576 581.263 338.341C581.065 340.118 580.89 341.699 581.087 343.52C581.35 344.749 581.372 346.351 580.034 347.602C579.574 348.15 579.64 349.357 579.749 350.169C579.837 351.179 579.925 352.188 579.42 353.132C578.85 354.668 577.688 356.139 578.477 358.026C578.905 359.186 577.67 360.347 577.222 361.5C576.253 363.993 575.226 366.504 574.443 369.174C573.763 371.698 572.009 373.103 570.431 374.727C569.532 375.627 568.633 376.527 567.734 377.427C565.563 379.851 562.438 380.862 559.848 382.831C559.735 382.917 559.623 383.01 559.512 383.112C558.646 383.806 557.464 383.965 556.347 383.731C555.831 383.622 555.307 383.729 555.076 384.202C554.869 384.626 554.396 384.938 553.926 384.898C553.745 384.883 553.56 384.87 553.369 384.862C552.615 384.832 552.066 385.437 551.541 385.979C551.256 386.273 550.878 386.447 550.348 386.493C548.748 386.515 546.95 386.515 545.372 386.34C545.286 386.331 545.195 386.321 545.103 386.309C544.044 386.177 543.25 385.355 542.357 384.771C538.843 382.473 534.754 380.336 532.438 376.834C532.268 376.577 532.101 376.315 531.933 376.05C530.824 374.456 529.122 373.641 528.259 371.899C528.106 371.59 528.003 371.332 527.676 371.223C527.097 371.029 526.575 370.579 526.355 370.01C526.062 369.252 525.816 368.499 525.466 367.734C525.313 367.317 524.962 366.879 525.181 366.703C526.76 365.079 525.006 364.684 524.107 363.784C523.033 362.665 521.959 361.546 521.542 359.901C521.304 359.037 520.911 358.296 520.249 357.666C519.986 357.415 519.693 357.172 519.596 356.821C519.573 356.738 519.556 356.65 519.547 356.561C519.529 356.375 519.535 356.186 519.51 356.001C519.352 354.876 519.254 354.701 518.223 354.782C517.856 354.811 517.424 354.494 517.399 354.127C517.394 354.058 517.415 354.01 517.446 353.949C518.18 352.48 518.483 351.33 517.882 349.697C517.268 348.029 517.071 346.208 516.874 344.387C516.808 343.18 515.251 342.807 516.019 341.292C516.545 340.151 515.01 339.581 514.506 338.725C513.169 336.377 512.073 333.656 511.766 331.023C511.569 329.202 510.758 327.512 511.174 325.559C511.24 324.966 510.911 324.33 510.78 323.716C510.613 323.112 510.386 322.433 510.332 321.745C510.255 320.763 510.935 319.636 510.32 318.866C509.07 317.527 509.07 315.728 509.246 314.148C509.317 312.045 509.388 309.942 508.814 307.874C508.574 307.012 508.814 306.081 509.453 305.455C509.518 305.391 509.581 305.327 509.642 305.263C509.789 305.108 509.857 304.829 509.799 304.624C509.745 304.432 509.644 304.34 509.494 304.21C508.211 303.101 507.812 301.881 508.019 300.016C508.304 297.448 508.216 294.639 507.712 291.984C507.34 289.943 506.989 287.705 506.222 285.62C505.893 284.984 506.025 283.799 506.31 283.031C507.406 280.353 507.165 277.127 509.226 274.757C509.686 274.208 509.621 273.001 509.314 272.168C508.832 271.114 509.117 270.346 509.204 269.556C509.27 268.964 509.161 268.152 508.81 267.713C508.19 267.067 508.315 266.305 508.363 265.564C508.425 264.601 508.291 263.552 508.764 262.71C509.139 262.041 509.314 261.159 509.119 260.417C508.649 258.622 508.586 256.653 509.446 254.787C509.95 253.844 509.052 252.944 509.578 251.803C510.433 249.498 510.302 247.085 511.354 244.802C511.778 243.767 511.979 242.588 511.663 241.416C511.489 240.771 511.516 240.042 511.975 239.555C511.989 239.54 512.003 239.525 512.018 239.51C512.47 239.036 512.58 238.404 512.206 237.866C512.18 237.829 512.154 237.79 512.128 237.749C512.016 237.574 511.98 237.362 512.003 237.155C512.024 236.975 512.091 236.803 512.193 236.653C514.143 233.792 513.773 231.413 511.53 228.826C510.456 227.707 509.382 226.588 508.067 225.842C506.948 225.119 505.458 224.153 504.997 222.902C504.077 220.401 501.972 219.567 500.131 218.163C497.916 216.518 495.461 215.245 494.146 212.7C493.992 212.283 493.4 212.217 492.852 211.756C492.107 211.274 491.362 210.791 490.836 210.133C489.082 207.939 486.846 206.491 484.851 204.67C484.303 204.209 483.777 203.551 483.009 203.266C482.067 202.761 481.519 202.3 481.014 201.444C480.686 200.808 479.94 200.325 479.151 200.238C477.397 199.843 476.104 198.9 474.854 197.561C473.407 196.201 471.741 195.016 469.856 194.007C467.598 192.757 465.384 191.111 463.169 189.466C462.921 189.304 462.672 189.143 462.475 189.047C462.318 188.971 462.169 188.973 461.998 189.01C461.037 189.22 460.582 188.478 459.969 187.711C459.143 186.677 457.946 186.015 456.774 185.402C454.758 184.35 452.672 183.366 450.663 182.221C447.883 180.636 444.249 177.089 441.751 179.089C441.312 179.441 440.545 179.155 439.975 178.892C438.858 178.434 437.895 177.854 436.841 177.241C436.482 177.032 436.339 176.577 436.466 176.181C436.612 175.723 436.368 175.215 435.902 175.098C435.297 174.946 434.714 174.803 434.222 174.526C434.124 174.47 434.025 174.418 433.932 174.354C433.424 173.999 432.977 173.099 432.456 172.859C431.118 172.31 429.584 171.74 428.225 171.389C426.493 170.797 424.761 170.205 423.248 169.437C422.152 168.987 422.087 168.921 421.677 167.765C421.493 167.246 420.958 167.025 420.453 167.243C420.354 167.285 420.246 167.344 420.16 167.407C419.331 168.02 418.545 168.095 417.46 167.594C415.18 166.541 412.9 165.489 410.511 165.423C409.86 165.444 409.231 165.359 408.614 165.225C404.973 164.437 401.125 161.382 397.423 160.97C395.844 160.795 394.266 160.62 392.907 160.269C391.547 159.918 390.166 159.765 389.333 158.273C389.004 157.636 387.579 157.878 386.834 157.395C385.541 156.452 384.401 155.925 382.734 156.54C382.099 156.869 381.156 156.365 380.564 156.299C379.731 156.207 379.009 155.907 378.171 155.955C375.822 156.089 373.723 155.08 371.576 154.501C368.857 153.799 366.336 153.119 363.596 152.615C362.236 152.264 360.702 151.694 359.452 152.155C358.398 152.423 357.731 152.158 356.99 151.731C356.495 151.446 356.582 150.664 357.135 150.524C357.616 150.401 357.742 149.815 357.271 149.658C356.193 149.297 354.966 149.487 353.926 149.205C352.767 148.891 351.515 148.322 350.351 148.618C349.336 148.877 348.312 148.961 347.263 148.602C346.693 148.339 346.057 148.668 345.597 149.217C344.018 150.841 342.001 151.017 339.831 150.776C338.225 150.598 336.711 150.429 335.164 150.258C334.166 150.147 333.883 148.937 333.767 147.94C333.716 147.501 333.364 147.184 332.925 147.241C332.185 147.336 331.274 147.825 330.468 148.648C330.097 149.027 329.501 149.031 329.222 148.58C329.064 148.322 328.748 148.21 328.448 148.248C327.359 148.385 326.242 148.243 325.161 148.303C322.771 148.437 320.237 149.306 317.857 149.565C316.535 149.709 315.25 150.218 314.005 151.307C313.469 151.736 312.801 152.002 312.118 152.299C311.28 152.663 310.302 152.813 309.487 152.4C309.411 152.361 309.337 152.321 309.264 152.279C308.906 152.075 308.516 151.824 308.121 151.939C307.989 151.977 307.87 152.063 307.751 152.131C307.172 152.459 306.578 152.919 306.003 153.217C304.124 154.408 301.634 153.967 299.638 154.948C298.413 155.55 297.092 156 295.677 156.269C293.222 156.797 290.766 157.324 288.201 157.039C287.022 156.908 285.748 157.64 284.5 158.13C284.117 158.281 283.813 158.679 283.793 159.091C283.768 159.621 283.519 160.138 283.033 160.352C281.571 160.998 279.987 161.492 278.357 161.144C277.371 161.034 276.538 161.342 276.45 162.132C276.417 162.291 276.378 162.432 276.333 162.557C275.588 164.609 272.76 164.367 271.057 165.732C270.18 166.434 269.325 166.939 268.294 167.224C264.984 168.256 262.177 170.144 259.546 172.251C256.012 174.756 252.566 178.087 249.039 180.601C247.919 181.399 246.725 182.117 245.581 182.897C242.555 184.96 239.376 186.607 237.425 189.789C236.998 190.507 236.523 191.219 235.957 191.854C233.852 194.22 230.679 195.853 229.247 198.678C229.108 198.893 228.903 199.101 228.708 199.311C228.435 199.604 228.186 199.924 227.871 200.172C226.298 201.41 225.813 203.922 224.223 205.139C224.057 205.267 223.883 205.376 223.7 205.46C222.231 206.096 221.508 207.216 220.96 208.554C219.14 212.351 217.145 215.928 214.579 219.243C214.098 219.988 213.946 220.947 213.465 221.693C212.957 222.482 212.359 223.05 212.255 223.983C212.036 225.958 211.597 226.309 209.427 226.068C208.619 225.979 208.197 226.917 208.579 227.635C208.954 228.342 208.672 228.779 207.675 229.457C207.07 229.868 206.829 230.604 207.318 231.147C207.702 231.575 207.787 232.233 207.509 232.736C206.87 233.894 206.276 235.072 205.533 236.312C205.246 236.792 204.586 236.985 204.051 236.82C203.893 236.771 203.73 236.717 203.567 236.649C203.503 236.622 203.429 236.63 203.375 236.674C203.301 236.733 203.285 236.839 203.329 236.923C203.92 238.05 202.835 239.268 203.066 240.392C203.12 240.656 203.271 240.909 203.182 241.162C203.14 241.284 203.075 241.417 202.997 241.545C202.726 241.987 202.146 242.075 201.763 242.425C201.156 242.978 200.997 244.029 200.367 244.568C200.127 244.773 199.776 244.859 199.721 245.171C199.697 245.302 199.672 245.445 199.631 245.573C199.345 246.475 199.071 247.378 198.968 248.3C198.793 249.88 198.245 251.219 197.477 252.733C196.951 253.874 196.425 255.016 195.329 255.894C194.013 256.947 193.268 258.264 193.29 259.866C193.509 261.49 192.741 263.004 192.193 264.343C191.965 265.151 191.366 265.821 190.721 266.456C190.188 266.981 189.933 267.719 190.15 268.436C190.359 269.127 190.136 269.855 189.641 270.38C189.615 270.408 189.588 270.436 189.562 270.464C189 271.053 188.645 271.82 188.621 272.634C188.588 273.73 188.418 274.763 187.72 275.843C186.556 277.899 185.98 280.144 184.979 282.272C184.411 283.48 184.355 284.791 183.796 286.004C183.511 286.772 183.05 287.32 182.787 287.891C182.524 288.462 181.866 288.988 181.822 289.383C181.778 291.578 180.551 293.641 179.761 295.353C178.85 297 178.266 298.578 178.066 300.246C177.915 301.51 178.036 302.892 177.218 303.868C176.876 304.397 176.446 304.815 176.052 305.28C175.759 305.627 175.748 306.095 176.002 306.471C176.301 306.912 176.431 307.539 176.147 307.989C175.626 308.817 175.091 309.691 174.514 310.576C173.888 311.537 174.048 312.467 174.478 313.53C174.589 313.803 174.607 314.129 174.433 314.555C173.38 316.838 172.92 319.186 172.657 321.556C172.625 321.843 172.544 322.098 172.44 322.344C172.062 323.235 171.382 324.039 171.275 325.002C171.144 327.986 170.574 329.522 168.732 331.717C168.52 331.943 168.347 332.172 168.187 332.41C167.487 333.452 167.41 334.822 167.847 335.999C167.948 336.27 168.05 336.594 167.941 336.861C167.643 337.592 166.522 338.053 166.912 339.113C167.197 340.144 167.087 341.132 166.386 342.053C166.144 342.427 166.101 342.822 166.057 343.217C166.144 347.825 163.688 351.951 162.987 356.472C162.955 356.754 162.855 357.04 162.709 357.33C161.648 359.425 160.637 361.446 160.377 363.78C160.312 364.372 160.049 364.943 159.588 365.492C159.128 366.04 158.886 366.413 158.996 367.225C159.215 368.849 159.062 370.232 158.097 371.724C157.132 373.217 156.562 374.753 157.176 376.421C157.819 378.167 155.617 380.022 155.6 381.883C155.596 382.417 155.591 382.954 155.4 383.421C155.093 384.387 155.575 385.44 155.268 386.406C155.043 387.114 154.605 387.8 154.266 388.496C154.026 388.99 153.728 389.481 153.668 390.027C153.505 391.489 153.126 392.85 152.443 394.055C151.785 395.214 151.47 397.172 151.588 398.5C151.661 399.327 152.063 400.19 151.943 401.013C151.823 401.843 151.732 402.621 151.387 403.37C151.027 404.151 150.389 404.902 149.649 405.769C148.956 406.583 148.619 407.35 148.782 408.407C148.992 409.775 148.35 411.361 147.659 412.56C147.339 413.116 147.145 413.751 147.155 414.496C147.162 415.034 147.064 415.514 146.888 415.949C146.257 417.507 145.281 419.174 145.861 420.751C146.957 423.472 146.694 424.042 144.677 426.018C143.12 427.444 143.098 429.441 143.076 431.438C142.989 432.228 144.523 432.799 144.019 433.742C143.537 434.489 143.646 435.301 143.537 436.288C143.295 438.461 143.449 440.677 141.848 442.499C140.226 444.518 139.743 447.064 140.445 449.741C141.037 451.606 141.058 453.208 139.48 454.832C138.931 455.272 139.216 456.176 139.17 456.877C139.042 458.825 138.314 460.638 138.089 462.439C137.855 464.314 136.531 465.2 136.322 467.078C136.278 467.473 136.043 467.796 135.734 468.111C135.258 468.596 135.451 469.384 136.069 469.662C136.424 469.822 136.593 470.164 136.571 470.553C136.471 472.283 136.387 473.045 135.943 473.831C135.132 475.263 134.444 476.787 134.558 478.428C134.616 479.269 134.676 480.083 134.787 480.903C134.809 482.505 135.247 483.953 133.34 484.941C132.789 485.227 132.452 486.286 132.172 487.192C132.089 487.462 132.019 487.74 132.049 488.02C132.079 488.29 132.154 488.57 132.238 488.861C132.485 489.719 132.156 490.63 131.29 490.841C131.167 490.871 131.02 490.908 130.907 490.964C130.18 491.33 129.768 492.186 130.073 492.776C130.73 494.049 130.423 495.014 129.875 496.353C129.568 497.319 129.853 498.35 129.941 499.36C130.05 500.172 129.787 500.742 129.305 501.488C127.792 504.319 127.047 507.436 127.88 510.727C127.964 510.956 127.863 511.225 127.747 511.487C127.577 511.873 127.332 512.346 127.053 512.662C126.824 512.922 126.885 513.18 126.935 513.522C127.2 515.353 126.147 516.884 125.424 518.452C125.274 518.777 125.155 519.12 125.062 519.474C124.6 521.232 124.691 523.096 124.805 524.911C124.843 525.523 124.888 526.143 124.897 526.791C124.941 528.196 124.787 529.578 123.845 530.873C123.603 531.246 123.538 531.839 123.494 532.234C123.428 532.826 123.559 533.441 123.318 533.814C121.696 535.833 122.222 538.291 122.178 540.485C122.002 543.865 120.884 546.74 119.941 549.834C119.296 551.573 117.492 553.14 118.113 554.887C118.232 555.221 118.435 555.542 118.769 555.832C118.832 555.887 118.913 555.972 118.956 556.044C119.148 556.36 119.046 556.723 118.91 557.067C118.447 558.232 119.014 559.511 118.538 560.675C117.646 562.853 117.653 565.264 116.59 567.257C116.129 568.12 116.122 569.313 115.483 570.055C115.242 570.335 114.898 570.554 114.572 570.793C114.174 571.088 114.172 571.634 114.481 572.021C114.568 572.13 114.704 572.245 114.841 572.36C115.052 572.537 114.922 572.886 114.667 572.992C114.538 573.045 114.497 572.994 114.373 572.931C113.725 572.605 113.387 572.459 113.119 572.611C112.173 573.148 112.774 574.676 113.553 575.434C114.198 576.062 114.483 576.969 114.297 577.849C113.955 579.465 113.593 581.012 113.099 582.665C112.915 583.378 112.768 583.766 112.362 584.141C111.324 585.101 110.482 586.263 110.664 587.666C110.776 588.531 110.501 589.383 109.959 590.066C109.57 590.557 109.21 591.039 108.912 591.597C108.671 591.97 108.605 592.562 108.736 593.177C108.846 593.989 110.183 594.537 109.46 595.657C109.159 596.122 108.943 596.519 108.898 596.954C108.838 597.527 109.383 598.237 108.933 598.597C106.543 600.331 108.188 603.513 106.543 605.73C106.302 606.103 106.609 606.937 106.74 607.551C107.14 608.997 105.713 610.329 105.765 611.827C105.842 614.04 105.514 616.208 104.548 618.304C104.262 619.073 104.35 620.082 104.043 621.048C103.714 622.211 104.153 623.659 103.232 624.756C102.656 625.513 103.601 625.9 103.692 626.427C103.736 626.682 103.562 626.921 103.456 627.158C103.194 627.741 102.835 628.312 102.467 628.883C102.398 628.99 102.274 629.045 102.147 629.053C102.001 629.063 101.875 629.099 101.741 629.124C101.597 629.152 101.488 629.323 101.579 629.437C101.636 629.508 101.755 629.539 101.825 629.481C101.906 629.413 101.987 629.341 102.07 629.254C102.26 629.054 102.56 628.988 102.78 629.154C102.812 629.178 102.844 629.202 102.878 629.226C103.184 629.447 103.312 629.867 103.107 630.184C102.782 630.687 102.457 631.19 102.132 631.693C102.076 631.779 102.027 631.87 101.98 631.962C101.899 632.119 101.806 632.276 101.715 632.432C101.313 633.122 101.087 633.917 101.054 634.715C101.039 635.077 101.049 635.418 101.017 635.707C100.894 636.819 100.229 637.856 100.76 638.84C101.146 639.557 101.557 640.203 101.214 641.128C100.688 642.269 101.126 643.717 100.995 644.902C100.863 646.087 100.337 647.228 99.7886 648.567C99.2624 649.708 97.9689 650.564 97.9907 652.166C98.0564 653.373 97.1356 654.471 96.7848 655.831C95.8419 658.926 95.2936 662.064 94.1534 665.136C93.5834 666.673 93.4079 668.253 93.9997 670.118C94.2388 671.235 94.804 672.388 93.6203 673.347C93.3629 673.556 93.0739 673.747 92.9917 674.068C92.9748 674.134 92.9609 674.201 92.9493 674.265C92.91 674.483 92.874 674.704 92.8161 674.918C92.3544 676.626 92.209 677.063 91.4455 678.07C91.0059 678.65 91.1238 679.486 91.717 679.907C92.3679 680.37 92.4054 681.442 92.5484 682.228C92.7024 683.074 93.3163 683.95 92.9686 684.799C92.5319 685.865 92.2204 686.946 91.9344 688.029C91.8013 688.533 91.1864 689.045 90.8575 688.641C90.2882 687.94 89.5697 688.33 90.4248 688.621C90.5528 688.664 90.7082 688.709 90.8945 688.761C90.9173 688.768 90.9337 688.772 90.9572 688.774C91.2891 688.811 91.4654 689.201 91.2976 689.49C90.3085 691.191 90.2912 693.123 90.4469 694.916C90.6441 696.737 90.2713 698.295 89.7012 699.832C88.8242 702.334 88.1664 704.66 87.8812 707.227C87.8214 707.766 87.5784 708.284 87.3324 708.865C87.1509 709.294 86.5546 709.444 86.1711 709.18C85.7432 708.885 85.1856 709.126 85.0565 709.63C84.8208 710.548 84.622 711.395 84.5267 712.253C84.3951 713.438 84.6581 714.667 84.5046 716.05C84.3938 717.047 83.173 717.574 83.1281 718.577C83.1114 718.948 83.2607 719.337 83.4959 719.737C84.3289 721.229 84.1535 722.809 83.9999 724.191C83.9176 724.932 82.999 725.025 82.4687 725.549C81.8352 726.175 82.6591 727.272 82.5747 728.032C82.3073 729.395 82.2838 730.988 81.6631 732.286C80.7805 734.132 79.7088 735.852 79.483 737.886C79.2708 739.797 79.2817 741.783 79.1689 743.702C79.1266 744.422 78.9547 745.205 78.7591 746.203C78.2548 748.946 76.7858 751.382 75.8868 754.081C75.3002 756.259 75.0074 758.47 74.7409 760.812C74.6701 761.434 75.1135 762.034 75.7174 762.198C76.1147 762.306 76.4942 762.566 76.5433 762.975C76.6829 764.136 75.7945 764.969 75.2293 766.009C74.9499 766.523 74.3456 766.868 73.7841 766.703C73.4372 766.601 73.15 766.743 72.9259 767.027C72.5167 767.545 72.1539 768.122 71.7392 768.633C71.5451 768.872 71.3488 769.111 71.1905 769.376C70.5942 770.372 70.1678 771.405 70.0322 772.626C69.484 775.764 68.9577 778.705 68.2121 781.821C68.1684 782.215 68.8594 782.279 69.0555 781.935C69.9522 780.361 70.55 778.755 70.7336 777.102C70.8598 775.965 71.1224 774.843 71.5018 773.712C71.975 772.301 73.7026 772.613 73.0795 773.964C71.4034 777.461 71.401 781.144 70.8971 784.927C70.8167 785.53 70.3913 785.963 69.7959 786.089C69.6189 786.127 69.4385 786.229 69.4176 786.408C69.3879 786.664 69.4904 787.019 69.615 787.175C70.5818 788.182 70.7494 789.101 70.5174 790.267C70.4644 790.533 70.4041 790.799 70.4337 791.069C70.4916 791.599 70.5453 792.137 70.5957 792.668C70.8272 795.111 70.3341 797.705 70.4704 800.121C70.491 800.487 70.4927 800.855 70.4523 801.219C70.4053 801.642 70.3023 802.056 70.1726 802.462C69.2408 805.372 69.213 808.546 68.4956 811.644C68.4518 812.039 68.4079 812.434 68.1667 812.807C67.869 813.267 67.5045 813.644 67.1042 814.082C66.6613 814.566 65.9045 814.648 65.4022 814.226C65.2623 814.108 65.1223 813.991 64.9824 813.873C64.8071 813.725 64.4806 813.808 64.3439 813.992C64.2268 814.15 64.2974 814.272 64.3971 814.441C65.5247 816.35 64.7688 818.72 65.6889 820.729C66.0257 821.644 64.7548 822.168 64.1228 822.911C63.3328 823.839 63.2808 825.194 62.8966 826.433C62.8597 826.552 62.8553 826.622 62.8005 826.734C62.6013 827.141 62.1065 827.407 61.6647 827.509C61.4212 827.565 61.1907 827.623 60.9875 827.684C60.8033 827.739 60.5698 827.809 60.4994 827.988C60.4564 828.097 60.4506 828.203 60.4283 828.318C60.277 829.101 60.4795 830.645 60.9337 831.635C61.2307 832.282 62.0413 832.828 62.5972 832.382C62.8164 832.207 63.0576 831.834 63.1015 831.439C63.1196 831.275 63.1124 831.109 63.102 830.947C63.0215 829.699 64.6593 830.018 64.9211 831.241C65.4551 835.198 65.4478 835.486 61.6306 836.555C61.4303 836.611 61.1291 836.609 61.1061 836.816C61.1061 836.816 61.1061 836.816 61.1061 836.816C61.0842 837.013 60.843 837.386 60.8211 837.584C60.8209 841.183 60.6454 844.562 59.264 848.008C58.4308 850.115 58.7596 852.55 58.4964 854.92C58.4779 855.087 58.4245 855.249 58.3656 855.411C58.2326 855.776 57.7814 856.026 57.4138 855.9C57.0462 855.774 56.8454 855.42 56.9195 855.038C57.1114 854.052 57.3913 853.045 56.9838 852.353C56.1727 850.664 56.7867 848.732 56.3702 847.087C56.085 846.312 56.8502 845.624 57.1731 844.865C57.7832 843.429 57.0974 842.061 56.2828 840.679C55.7324 839.87 55.3634 838.967 55.1993 838.034C54.9232 836.463 56.0766 835.263 57.6211 834.868C57.7719 834.83 57.9192 834.785 58.0611 834.73C59.0806 834.335 59.1079 833.036 58.9366 831.957C58.7064 830.506 58.6003 828.991 58.5238 827.403C58.4966 826.837 58.9788 826.421 59.525 826.572C59.9341 826.685 60.3347 826.442 60.4702 826.04C60.7693 825.153 61.0236 824.25 61.3119 823.304C61.575 822.441 61.3209 821.46 60.5846 820.938C59.9352 820.478 59.5549 819.763 59.5501 818.967C59.5443 818.025 59.5569 817.092 59.7893 816.207C60.2093 814.607 61.1212 813.117 61.1921 811.465C61.2153 810.923 61.2452 810.383 61.3049 809.845C61.3206 808.421 61.3251 808.013 61.8355 807.227C62.3492 806.436 62.5455 805.538 62.2436 804.644C61.9742 803.847 62.1433 802.921 62.5312 802.174C63.5364 800.24 63.7895 798.051 63.8273 795.808C63.842 794.937 64.3476 794.181 65.1898 793.959C66.2128 793.689 66.9579 792.651 66.6656 791.634C66.4577 790.911 66.2063 790.233 65.8632 789.61C65.5572 789.054 65.5235 788.395 65.9816 787.956C66.5994 787.364 66.5029 786.318 65.7169 785.979C65.5817 785.921 65.4533 785.867 65.3317 785.814C65.1055 785.716 64.8958 785.566 64.8036 785.338C64.5173 784.627 64.7082 783.573 65.2524 783.292C65.8441 782.961 66.2528 782.578 66.5538 782.139C67.4739 780.798 67.1719 778.504 65.6473 777.937C64.8919 777.723 64.8408 777.249 64.7469 776.817C64.7023 776.613 64.9139 776.329 65.1108 776.401C65.1289 776.407 65.1471 776.414 65.1652 776.42C65.323 776.476 65.3973 776.31 65.2309 776.291C65.2309 776.291 65.2309 776.291 65.2308 776.291C64.904 776.255 64.6546 775.958 64.7236 775.636C64.7447 775.538 64.7701 775.45 64.8012 775.383C64.8582 775.262 65.0118 775.237 65.1358 775.187C66.2839 774.724 67.0816 774.015 67.248 772.516C67.3281 771.795 67.99 771.285 68.3199 770.638C69.0543 769.198 69.2454 767.613 68.761 766.086C68.4761 765.055 68.9584 764.309 69.2435 763.541C69.5046 762.617 70.4016 762.773 71.1113 762.414C71.4822 762.227 71.5696 761.771 71.4902 761.363C71.4405 761.108 71.3885 760.849 71.3347 760.586C71.058 759.237 69.0104 759.291 68.6877 760.63C68.5316 761.278 67.7529 761.656 67.5574 761.019C67.5031 760.842 67.4924 760.653 67.4794 760.483C67.4619 760.253 67.4253 760.021 67.4277 759.791C67.4475 757.931 67.4706 756.229 67.8628 754.39C68.2356 752.562 68.8777 750.908 69.466 749.024C69.6326 748.491 70.1622 748.19 70.6752 748.412C71.1703 748.626 71.867 748.324 71.6674 747.823C71.5017 747.407 71.1095 747.159 70.6584 746.921C70.3084 746.737 69.9748 746.471 69.9065 746.081C69.8119 745.542 69.9884 744.86 70.4488 743.565C70.788 742.611 71.6856 742.283 71.8464 743.282C71.863 743.385 71.8955 743.487 71.9204 743.589C72.0192 743.99 72.0032 744.499 72.3137 744.887C72.4196 745.02 72.6696 745.168 72.8993 745.226C73.1434 745.288 73.4262 745.151 73.592 744.961C73.8402 744.678 73.7997 744.272 73.7013 743.908C73.4042 742.811 74.2017 741.753 73.9582 740.871C73.6951 739.642 74.7914 738.764 74.1337 737.491C74.0197 737.311 73.9723 737.138 73.9719 736.971C73.9681 735.322 74.6328 733.954 74.9819 732.342C75.2966 730.889 76.0847 729.544 76.3704 728.143C76.5408 727.607 76.468 727.044 76.3246 726.439C76.189 725.867 75.4544 725.603 75.0708 726.048C74.7212 726.454 73.9524 726.36 73.8503 725.834C73.7196 725.161 73.6483 724.646 73.7922 724.167C73.8134 724.096 73.8354 724.025 73.8503 723.953C74.246 722.027 74.3031 719.878 75.0993 718.004C75.9106 716.095 76.3492 713.944 76.7658 711.991C77.2044 709.841 77.643 707.69 78.2789 705.561C78.7334 704.131 78.8755 702.557 79.0077 701.035C79.0928 700.055 79.7576 699.219 80.3046 698.401C80.6778 697.843 80.9738 697.145 81.2925 696.38ZM132.268 444.234C132.252 444.375 132.337 444.528 132.379 444.676C132.405 444.769 132.321 444.84 132.226 444.829C132.071 444.812 131.985 444.587 132.071 444.457C132.121 444.381 132.178 444.306 132.268 444.234C133.025 444.584 133.9 444.146 133.933 443.312C133.945 443.006 133.941 442.719 133.915 442.435C133.901 442.288 133.895 442.14 133.924 441.995C133.953 441.849 133.994 441.723 134.044 441.613C134.505 440.613 135.23 439.754 134.562 438.878C134.464 438.749 134.37 438.617 134.281 438.482C134.183 438.334 134.113 438.215 133.944 438.27C133.838 438.305 133.696 438.453 133.665 438.56C133.392 439.492 133.24 440.577 132.619 441.074C131.5 442.149 132.18 443.225 132.268 444.234ZM126.151 452.552C128.672 453.232 128.672 453.232 128.387 455.8C128.275 456.8 129.455 455.892 129.833 454.959C130.537 453.22 132.039 451.666 131.909 449.427C131.879 448.915 131.443 448.544 130.937 448.455C130.743 448.42 130.549 448.383 130.35 448.344C129.508 448.179 129.055 449.213 129.591 449.883C129.871 450.233 129.795 450.633 129.491 450.963C128.507 452.031 127.522 452.533 126.151 452.552C126.414 451.981 126.852 451.63 127.115 451.06C127.565 450.085 126.188 450.74 126.187 451.814C126.187 452.075 126.176 452.323 126.151 452.552ZM550.091 275.496C549.156 276.245 548.45 275.983 547.862 274.939C547.73 274.705 547.593 274.464 547.438 274.202C546.233 272.469 544.808 270.911 543.58 269.375C542.55 267.861 540.906 266.479 540.686 264.855C540.314 262.814 538.165 262.375 537.552 260.708C537.359 260.335 536.957 260.008 536.59 259.674C536.107 259.232 535.908 258.593 535.626 258.002C535.19 257.086 534.505 256.503 533.708 256.144C532.656 255.671 531.62 255.047 531.115 254.009C531.084 253.946 531.053 253.883 531.023 253.82C529.805 251.326 525.947 251.546 526.201 254.31C526.222 254.544 526.287 254.762 526.355 254.987C526.447 255.29 526.482 255.587 526.305 255.86C524.858 258.098 525.801 260.402 525.735 262.794C525.735 264.594 525.735 266.393 524.748 268.083C524.003 269.4 523.63 270.958 524.046 272.604C524.55 275.259 524.265 277.827 523.388 280.329C522.862 281.47 522.511 282.831 523.366 284.125C524.077 285.501 523.108 287.012 523.039 288.56C522.969 290.102 523.529 291.652 523.365 293.122C523.212 294.505 523.87 295.778 523.694 297.358C523.541 298.74 523.584 300.145 523.825 301.571C524.088 302.8 524.154 304.007 523.606 305.346C523.546 305.506 523.493 305.694 523.455 305.896C523.135 307.616 525.005 308.94 524.812 310.678C524.614 312.456 524.811 314.277 524.811 316.076C524.704 317.045 525.797 317.722 526.28 318.569C526.37 318.725 526.44 318.887 526.477 319.061C526.552 319.925 526.828 320.628 527.219 321.24C528.139 322.679 528.177 324.573 528.888 326.126C529.568 327.202 530.204 328.672 529.875 329.835C529.392 332.381 530.379 334.29 531.146 336.374C532.089 338.678 532.395 341.312 533.119 343.791C533.535 345.437 533.776 346.863 534.653 347.96C535.004 348.399 535.53 349.058 535.464 349.65C535.455 349.737 535.448 349.821 535.445 349.903C535.39 351.465 536.998 352.512 537.698 353.91C537.971 354.456 538.2 355.061 538.38 355.772C538.643 357.001 539.52 358.098 540.199 359.173C541.23 360.687 542.26 362.201 543.093 363.694C544.386 366.436 546.469 367.467 549.341 366.787C549.955 366.655 550.327 366.896 550.7 367.138C552.366 368.322 552.783 368.169 554.339 366.742C555.569 365.511 557.765 366.635 559.217 365.676C560.504 364.827 561.613 363.788 562.057 362.001C562.143 361.221 563.088 360.821 563.429 360.114C563.649 359.659 563.77 359.165 563.833 358.599C564.03 356.821 564.227 355.044 564.622 353.288C564.786 351.811 565.53 350.521 565.948 349.095C566.358 347.698 566.436 346.21 566.274 344.691C566.244 344.41 566.131 344.07 566.132 343.788C566.135 343.371 566.462 343.109 566.633 342.728C567.25 341.353 567.074 339.772 566.881 338.343C566.684 336.522 567.451 335.008 567.429 333.406C567.437 333.333 567.416 333.285 567.387 333.242C567.279 333.085 567.272 332.893 567.264 332.703C567.172 330.503 567.079 328.308 566.972 326.237C566.953 325.869 567.275 325.573 567.573 325.789C567.842 325.984 568.316 325.922 568.361 325.594C568.425 325.127 568.415 324.691 568.29 324.312C568.031 323.521 567.794 322.566 567.965 321.751C568.041 321.39 567.994 321.013 567.758 320.584C567.704 320.484 567.648 320.384 567.604 320.279C566.465 317.536 566.364 314.41 565.304 311.639C565.18 311.314 564.964 311.067 564.966 310.72C564.967 310.505 564.992 310.234 564.978 310.02C564.905 308.955 564.725 308.058 563.528 307.38C562.958 307.117 562.476 306.063 562.542 305.471C562.827 302.903 561.599 301.367 560.196 299.612C558.596 297.835 557.412 295.904 557.084 293.468C556.842 292.042 556.36 290.988 555.681 289.913C554.826 288.618 553.971 287.324 553.532 285.876C552.705 282.993 552.689 282.492 551.315 281.033C550.655 280.332 550.379 279.409 550.813 278.549C551.197 277.788 551.284 276.766 550.769 276.087C550.567 275.82 550.355 275.618 550.091 275.496C549.97 274.931 549.895 274.328 549.827 273.704C549.69 272.466 547.748 271.719 548.095 272.915C548.135 273.054 548.207 273.14 548.298 273.251C548.956 274.049 549.619 274.696 550.091 275.496ZM152.973 361.466C152.173 360.717 151.407 359.731 151.505 358.64C151.523 358.438 151.561 358.227 151.63 358.01C151.959 356.847 152.464 355.903 152.792 354.74C153.182 353.789 153.582 352.74 153.483 351.677C153.406 350.843 152.746 350.572 152.597 351.395C152.579 351.494 152.531 351.56 152.485 351.65C152.216 352.172 151.807 352.679 151.565 353.204C151.135 354.137 150.323 354.894 150.281 355.931C150.261 356.426 150.461 356.949 150.149 357.335C149.987 357.534 149.779 357.706 149.658 357.933C149.412 358.391 149.45 358.881 149.876 359.415C150.537 360.241 150.222 361.393 150.043 362.436C149.89 363.322 149.629 364.158 148.692 364.681C148.056 365.011 147.969 365.801 148.517 366.262C149.065 366.722 149.701 366.393 150.161 365.844C150.446 365.505 150.73 365.166 151.02 364.78C151.255 364.467 151.795 364.618 151.918 364.99C152.043 365.371 152.53 365.387 152.753 365.053C153.358 364.148 153.646 363.37 153.506 362.646C153.448 362.345 153.404 362.015 153.233 361.761C153.167 361.663 153.078 361.565 152.973 361.466ZM81.7138 726.276C82.0366 725.603 82.0014 724.786 81.7021 724.102C81.6456 723.973 81.623 723.858 81.6028 723.718C81.4996 723.007 81.3815 722.431 81.2816 721.69C81.2184 720.962 80.8246 720.406 80.3222 720.045C79.9425 719.772 79.5198 719.542 79.0698 719.416C78.7809 719.334 78.4994 719.339 78.2445 719.469C77.7405 719.724 77.6704 720.386 77.7085 720.95C77.7649 721.783 77.8549 722.659 77.9154 723.498C77.9548 724.045 78.5149 724.447 79.0537 724.345C79.6002 724.241 80.0474 724.639 80.0463 725.195C80.0458 725.459 80.0411 725.722 80.0395 725.986C80.0353 726.684 80.6416 727.436 81.1956 727.011C81.4208 726.838 81.5717 726.572 81.7138 726.276ZM126.557 466.936C126.216 468.354 127.901 469.789 128.023 468.336C128.038 468.155 128.008 468.062 128.026 467.881C128.084 467.329 128.319 467.05 128.637 466.872C129.608 466.326 129.992 465.436 129.313 464.553C128.568 463.584 127.173 464.155 126.916 465.351C126.801 465.889 126.682 466.414 126.557 466.936ZM100.138 628.582C100.071 628.467 99.9544 628.389 99.8277 628.429C99.6055 628.5 99.3961 628.719 99.3703 628.951C99.2831 629.737 99.1958 630.523 99.1085 631.309C99.0948 631.432 99.0692 631.554 99.0311 631.671C99.0154 631.72 98.9997 631.769 98.984 631.816C98.6039 632.98 99.2551 633.68 99.7675 632.569C99.8447 632.402 99.9558 632.238 100.091 632.077C100.741 631.303 101.11 630.302 100.619 629.418C100.465 629.14 100.302 628.861 100.138 628.582ZM136.964 456.36C136.336 457.745 138.544 458.281 138.852 456.791C138.867 456.718 138.879 456.642 138.888 456.566C138.932 456.171 138.406 455.513 138.208 455.491C138.095 455.478 137.77 455.575 137.511 455.697C137.234 455.827 137.09 456.082 136.964 456.36ZM98.8527 641.16C98.4577 642.018 100.029 642.008 100.04 641.063C100.048 640.38 99.2522 640.393 98.9331 640.997C98.9046 641.051 98.8778 641.105 98.8527 641.16ZM159.076 339.799C159.589 340.411 160.625 340.333 161.058 339.662C161.472 339.023 161.378 338.016 160.623 337.921C160.134 337.859 159.703 338.123 159.173 338.653C158.739 339.001 158.658 339.301 159.076 339.799ZM136.895 418.755C136.199 419.012 136.097 419.932 136.719 420.335C137.305 420.715 137.701 420.579 138.068 420.237C138.279 420.04 138.523 419.827 138.555 419.54C138.587 419.252 138.407 418.975 138.191 418.782C137.853 418.482 137.387 418.5 136.895 418.755ZM134.782 410.711C134.893 411.254 135.55 411.422 135.92 411.01C136.267 410.624 136.272 410.348 135.883 409.987C135.398 409.537 134.651 410.063 134.782 410.711ZM163.423 309.882C162.776 309.969 162.603 310.853 163.052 311.327C163.469 311.767 164.142 311.524 164.325 310.946C164.343 310.889 164.36 310.832 164.377 310.776C164.523 310.28 164.148 309.806 163.633 309.857C163.565 309.864 163.495 309.872 163.423 309.882ZM88.5081 670.275C88.9886 670.948 90.0434 669.948 89.8594 669.142C89.6932 668.414 88.6981 668.664 88.4808 669.379C88.3589 669.779 88.3625 670.072 88.5081 670.275ZM154.87 344.652C154.929 345.239 155.721 345.377 156.182 345.008C156.287 344.924 156.311 344.867 156.357 344.742C156.511 344.327 156.525 343.919 156.154 343.645C155.964 343.506 155.716 343.477 155.502 343.574C155.38 343.629 155.252 343.702 155.154 343.778C155.011 343.887 154.921 344.063 154.884 344.24C154.858 344.361 154.854 344.499 154.87 344.652ZM149.607 352.848C149.664 352.338 149.063 351.938 148.723 352.323C148.406 352.682 148.429 352.896 148.716 353.17C149.036 353.475 149.558 353.287 149.607 352.848ZM689.217 22.8198C689.552 22.8393 689.713 22.3574 689.516 22.0858C689.5 22.0641 689.482 22.046 689.461 22.029C688.948 21.6129 688.396 21.5445 687.787 21.9847C687.727 22.0283 687.69 22.0969 687.682 22.171C687.665 22.3252 687.776 22.4656 687.926 22.5046C688.283 22.5971 688.7 22.7667 689.01 22.8011C689.065 22.8072 689.135 22.815 689.217 22.8198ZM136.293 426.717C136.481 426.117 135.783 425.652 135.542 426.232C135.472 426.402 135.426 426.587 135.403 426.787C135.398 426.838 135.405 426.891 135.419 426.94C135.472 427.125 135.667 427.213 135.853 427.169C135.855 427.168 135.858 427.167 135.86 427.167C136.061 427.118 136.231 426.913 136.293 426.717ZM362.234 152.864C362.616 152.906 362.777 152.357 362.393 152.336C362.285 152.33 362.176 152.344 362.068 152.387C361.805 152.489 361.953 152.833 362.234 152.864ZM86.4462 698.008C86.1829 697.671 85.6161 697.52 85.5144 697.935C85.4667 698.13 85.4582 698.326 85.4854 698.528C85.585 699.269 86.6426 699.039 86.5396 698.298C86.5348 698.264 86.5295 698.23 86.5236 698.196C86.5099 698.117 86.4953 698.071 86.4462 698.008ZM536.295 249.505C536.223 248.943 535.337 248.473 535.072 248.974C535.031 249.052 535.031 249.073 535.008 249.159C534.862 249.721 535.336 250.465 535.886 250.526C536.083 250.548 536.302 250.372 536.324 250.174C536.344 249.996 536.328 249.772 536.295 249.505ZM62.6725 820.436C62.6934 820.533 62.7818 820.606 62.8805 820.617C63.0071 820.631 63.1134 820.539 63.1275 820.413C63.1848 819.897 63.2421 819.38 63.2994 818.864C63.3213 818.667 62.9487 818.426 62.7514 818.404C62.6578 818.393 62.5543 818.472 62.469 818.578C62.2969 818.793 62.3433 819.086 62.4171 819.352C62.5066 819.673 62.5899 820.051 62.6725 820.436ZM116.281 535.132C116.565 534.985 116.74 534.635 116.577 534.36C116.466 534.173 116.322 534.037 116.105 534.013C116.01 534.002 115.858 534.079 115.727 534.161C115.556 534.267 115.461 534.457 115.512 534.652C115.526 534.707 115.543 534.765 115.562 534.826C115.659 535.132 115.997 535.279 116.281 535.132ZM127.189 461.628C127.252 462.068 127.97 462.097 128.355 461.875C128.666 461.695 128.583 461.391 128.414 461.074C128.406 461.058 128.398 461.042 128.389 461.027C128.299 460.863 128.129 460.766 127.945 460.734C127.576 460.67 127.146 460.628 127.171 461.16C127.174 461.229 127.175 461.298 127.173 461.367C127.171 461.453 127.177 461.54 127.189 461.628ZM112.902 582.193C112.981 582.292 113.194 582.359 113.274 582.261C113.498 581.989 113.79 581.724 113.988 581.449C114.022 581.402 114.018 581.34 113.982 581.295C113.926 581.224 113.815 581.229 113.759 581.301C113.564 581.55 113.303 581.793 113.099 582.042C113.018 582.139 112.823 582.094 112.902 582.193ZM419.695 152.949C419.256 152.975 419.291 153.609 419.642 153.876C419.736 153.947 419.831 154.019 419.93 154.086C420.12 154.215 420.436 154.011 420.554 153.815C420.608 153.725 420.576 153.688 420.533 153.592C420.341 153.165 420.064 152.927 419.695 152.949ZM129.678 445.922C129.645 446.088 129.697 446.444 129.846 446.525C129.899 446.554 129.953 446.576 130.009 446.582C130.066 446.589 130.11 446.561 130.149 446.514C130.286 446.349 130.128 445.906 129.931 445.821C129.915 445.815 129.9 445.808 129.885 445.802C129.787 445.763 129.699 445.819 129.678 445.922ZM517.148 339.312C516.881 339.645 516.923 340.394 517.339 340.492C517.5 340.53 517.61 340.454 517.739 340.349C517.943 340.183 518.174 339.872 518.189 339.734C518.211 339.536 517.663 339.076 517.466 339.054C517.377 339.044 517.274 339.155 517.148 339.312ZM91.6257 687.217C91.8021 687.187 91.8268 686.965 91.7641 686.797C91.7301 686.705 91.7001 686.615 91.6411 686.521C91.6095 686.47 91.5535 686.439 91.4947 686.448C91.4873 686.449 91.4799 686.45 91.4725 686.451C91.2846 686.487 91.2096 686.855 91.2757 687.034C91.3167 687.146 91.3978 687.23 91.5164 687.228C91.5526 687.227 91.5889 687.224 91.6257 687.217ZM137.066 443.404C136.831 443.48 136.627 443.787 136.695 444.024C136.696 444.029 136.697 444.034 136.699 444.039C136.752 444.22 136.973 444.252 137.139 444.163C137.274 444.091 137.419 444.02 137.543 443.947C137.643 443.887 137.706 443.849 137.671 443.738C137.609 443.547 137.352 443.307 137.161 443.372C137.129 443.383 137.097 443.394 137.066 443.404ZM161.735 331.54C161.091 331.483 160.767 332.832 161.409 332.903C161.607 332.925 162.045 332.574 162.067 332.377C162.089 332.179 161.958 331.565 161.76 331.543C161.752 331.542 161.743 331.541 161.735 331.54ZM155.972 340.497C155.953 340.67 156.183 340.579 156.278 340.433C156.312 340.38 156.347 340.327 156.372 340.273C156.403 340.206 156.31 340.124 156.247 340.086C156.145 340.026 156.015 340.106 156.002 340.224C155.992 340.315 155.982 340.406 155.972 340.497ZM155.3 355.543C155.349 355.639 155.527 355.663 155.585 355.572C155.631 355.5 155.679 355.429 155.707 355.356C155.729 355.3 155.709 355.24 155.672 355.194L155.608 355.114C155.574 355.071 155.522 355.037 155.47 355.053C155.407 355.071 155.365 355.121 155.315 355.184C155.248 355.269 155.25 355.447 155.3 355.543ZM121.34 513.143C121.289 513.054 121.172 513.043 121.079 513.088C120.944 513.153 120.814 513.178 120.676 513.264C120.626 513.296 120.595 513.352 120.603 513.41C120.608 513.446 120.618 513.482 120.629 513.518C120.677 513.67 121.001 513.762 121.135 513.677C121.269 513.592 121.427 513.298 121.35 513.16C121.347 513.155 121.343 513.149 121.34 513.143ZM136.667 422.717C136.626 422.75 136.648 422.757 136.654 422.809C136.666 422.907 136.711 423.008 136.745 423.107C136.774 423.191 136.903 423.247 136.972 423.192C136.993 423.175 137.006 423.152 137.009 423.125C137.018 423.042 137.027 422.956 137.039 422.853C137.058 422.677 136.805 422.606 136.667 422.717ZM133.631 433.152C133.352 433.209 133.287 433.656 133.392 433.921C133.425 434.005 133.448 433.995 133.535 434.021C133.942 434.144 134.616 433.878 134.636 433.7C134.651 433.567 134.487 433.415 134.318 433.322C134.18 433.247 134.03 433.149 133.873 433.133C133.801 433.125 133.719 433.133 133.631 433.152ZM711.17 34.0231C711.069 34.1042 710.975 34.3164 711.015 34.4399C711.08 34.6389 711.097 34.8512 711.24 34.8671C711.317 34.8756 711.393 34.8842 711.472 34.881C711.701 34.8718 711.745 34.5834 711.639 34.3795C711.6 34.305 711.561 34.2288 711.522 34.1561C711.446 34.0146 711.295 33.9226 711.17 34.0231ZM511.691 277.932C511.43 278.045 511.479 278.516 511.741 278.625C511.867 278.678 511.85 278.592 511.968 278.523C512.092 278.451 512.237 278.38 512.37 278.309C512.528 278.224 512.487 277.937 512.375 277.797C512.287 277.687 512.206 277.73 512.074 277.779C511.94 277.83 511.81 277.88 511.691 277.932ZM134.909 430.973C135.011 431.033 135.188 430.965 135.252 430.866C135.295 430.799 135.338 430.732 135.362 430.664C135.38 430.614 135.363 430.561 135.33 430.52C135.262 430.434 135.136 430.419 135.052 430.49C134.939 430.586 134.839 430.684 134.786 430.787C134.752 430.852 134.846 430.935 134.909 430.973ZM76.3862 748.139C76.4599 748.147 76.5457 748.095 76.5646 748.024C76.5693 748.006 76.5752 747.99 76.5833 747.975C76.6324 747.884 76.5402 747.756 76.4372 747.744C76.3733 747.737 76.3824 747.791 76.3814 747.855C76.3813 747.865 76.3814 747.874 76.382 747.882C76.3903 748.001 76.2674 748.125 76.3862 748.139ZM403.327 147.372C403.324 147.404 403.347 147.432 403.379 147.436C403.43 147.442 403.463 147.382 403.431 147.342C403.398 147.301 403.333 147.32 403.327 147.372ZM533.935 253.708C533.935 253.708 533.935 253.708 533.935 253.708C534.034 253.719 534.139 253.68 534.243 253.641C534.406 253.581 534.373 253.357 534.373 253.357C534.274 253.346 534.169 253.385 534.064 253.423C534.064 253.423 533.935 253.708 533.935 253.708ZM70.2578 795.403C70.2862 795.438 70.323 795.425 70.3585 795.397L70.4493 795.324C70.4903 795.291 70.5193 795.242 70.506 795.191C70.493 795.142 70.46 795.083 70.3786 795.061C70.3532 795.054 70.3265 795.062 70.3059 795.079L70.2738 795.105C70.2166 795.15 70.212 795.345 70.2578 795.403ZM64.7455 836.42C64.5726 836.401 64.3755 836.154 64.3947 835.981C64.3705 836.199 64.5275 836.396 64.7455 836.42ZM380.301 156.87C380.32 156.699 380.486 156.545 380.545 156.379C380.563 156.329 380.546 156.276 380.513 156.235C380.444 156.149 380.319 156.136 380.221 156.186C380.191 156.201 380.163 156.214 380.137 156.227C379.991 156.296 380.093 156.45 380.198 156.573C380.27 156.657 380.312 156.766 380.301 156.87ZM72.4791 753.194C72.428 753.252 72.4183 753.341 72.4667 753.402C72.5151 753.462 72.6036 753.472 72.6641 753.424L72.7095 753.387C72.7506 753.354 72.7817 753.305 72.7694 753.254C72.7388 753.127 72.6017 753.085 72.6202 752.919C72.6085 753.025 72.5401 753.124 72.4791 753.194ZM206.411 228.033C206.407 228.087 206.446 228.136 206.5 228.142C206.555 228.149 206.604 228.109 206.61 228.055C206.613 228.026 206.617 227.993 206.621 227.956C206.633 227.847 206.554 227.749 206.445 227.737C206.396 227.731 206.347 227.726 206.248 227.715C206.412 227.733 206.425 227.873 206.411 228.033ZM67.2813 797.237C67.2099 797.016 66.8108 797.112 66.7135 797.323C66.7069 797.337 66.7009 797.351 66.6957 797.366C66.6781 797.416 66.6952 797.469 66.728 797.51C66.7965 797.596 66.922 797.609 67.0198 797.559C67.164 797.486 67.2745 797.459 67.2905 797.314C67.2933 797.289 67.2897 797.263 67.2813 797.237ZM61.6099 837.043C61.6434 837.125 61.7723 837.182 61.8414 837.126C61.8619 837.11 61.8751 837.086 61.8739 837.06C61.8715 837.008 61.8578 836.912 61.7977 836.801C61.7609 836.732 61.6709 836.723 61.6103 836.772L61.6044 836.776C61.5472 836.822 61.5393 836.905 61.5748 836.97C61.5887 836.995 61.6003 837.019 61.6099 837.043ZM148.413 356.178C148.379 356.019 148.186 356.1 148.036 356.162C147.988 356.181 147.941 356.198 147.894 356.216C147.706 356.287 147.593 356.562 147.794 356.584C147.794 356.584 147.794 356.584 147.794 356.584C147.923 356.598 148.051 356.613 148.186 356.572C148.342 356.525 148.447 356.337 148.413 356.178ZM107.137 575.205L107.356 575.029L107.137 575.205ZM128.093 444.497C128.136 444.583 128.242 444.508 128.253 444.412C128.26 444.352 128.266 444.292 128.273 444.232C128.283 444.144 128.181 444.088 128.112 444.143C128.092 444.16 128.079 444.184 128.076 444.21C128.064 444.319 128.057 444.425 128.093 444.497ZM121.667 507.838C121.719 507.844 121.752 507.784 121.719 507.744C121.687 507.703 121.622 507.722 121.616 507.774C121.612 507.806 121.635 507.835 121.667 507.838ZM129.855 467.759C129.863 467.686 129.779 467.64 129.722 467.686C129.686 467.714 129.68 467.766 129.709 467.801C129.755 467.859 129.847 467.832 129.855 467.759ZM137.595 409.737C137.647 409.794 137.734 409.806 137.794 409.758C137.855 409.709 137.864 409.621 137.816 409.56C137.768 409.5 137.679 409.49 137.618 409.539C137.5 409.633 137.465 409.662 137.29 409.802C137.464 409.663 137.5 409.634 137.595 409.737Z" fill="currentColor"/>
</g>
</svg>
