<svg width="692" height="753" viewBox="0 0 692 753" fill="none" xmlns="http://www.w3.org/2000/svg">
<mask id="mask0_1635_18857" style="mask-type:alpha" maskUnits="userSpaceOnUse" x="0" y="0" width="692" height="753">
<rect width="692" height="753" fill="#C4C4C4"/>
</mask>
<g mask="url(#mask0_1635_18857)">
<path d="M94.8337 789.737C95.4143 788.367 97.7405 788.104 99.0879 787.469C99.587 787.234 100.01 786.73 100.186 786.208C100.663 784.795 101.3 783.455 100.565 781.491C100.04 780.086 100.491 778.113 100.916 776.362C101.06 775.089 101.5 773.859 100.445 773.135C100.147 772.93 99.846 772.724 99.5357 772.518C99.1416 772.256 98.9223 771.797 99.036 771.336C99.0803 771.157 99.1322 770.964 99.1898 770.758C99.3932 770.031 100.333 769.9 100.6 770.604C100.635 770.698 100.673 770.755 100.738 770.832C101.384 771.591 101.805 771.699 102.395 771.199C102.576 771.045 102.674 770.931 102.611 770.703C102.516 770.357 102.51 769.807 102.73 769.522C103.913 767.988 104.098 766.18 104.098 764.351C104.198 763.459 102.482 763.856 101.759 764.392C101.623 764.494 101.475 764.558 101.299 764.595C100.409 764.78 99.7674 763.679 99.9749 762.794C100.065 762.407 100.163 762.029 100.291 761.688C100.968 759.461 102.209 757.489 102.235 755.217C102.239 754.879 102.219 754.527 102.381 754.229C102.553 753.913 102.846 753.598 103.193 753.255C104.076 752.386 104.397 751.281 103.964 750.125C103.531 748.968 103.77 747.54 104.42 746.486C104.901 745.708 105.196 744.846 105.051 743.784C104.947 743.307 105.177 742.76 105.437 742.183C105.672 741.661 105.97 741.136 106.192 740.608C106.393 740.13 106.384 739.627 106.308 739.114C106.179 738.231 106.006 737.343 106.103 736.484C106.228 735.374 107.03 734.338 107.155 733.228C108.182 728.173 108.558 722.821 108.909 717.691C109.084 716.138 109.485 714.609 110.487 713.819C111.514 712.808 111.589 712.142 111.489 711.008C111.107 709.254 114.553 708.702 114.043 706.982C114.035 706.956 114.027 706.93 114.019 706.905C113.534 705.418 112.308 703.992 113.06 702.616C113.277 702.219 113.532 701.847 113.801 701.488C114.758 700.21 115.158 698.646 115.071 697.055C115.018 696.096 114.998 695.171 114.971 694.311C114.923 692.81 115.692 691.398 114.948 689.82C114.87 689.655 114.746 689.512 114.71 689.333C114.62 688.877 115.042 688.479 115.224 688.049C116.328 685.441 116.075 682.508 116.399 679.638C116.6 677.862 117.627 676.851 118.253 675.346C118.578 674.483 118.453 673.571 118.754 672.929C118.889 672.57 119.021 672.249 119.151 671.935C119.505 671.083 120.326 670.669 121.132 670.22C121.287 670.134 121.446 670.036 121.576 669.916C122.111 669.423 122.186 668.361 121.785 668.317C120.006 667.898 120.157 666.567 120.307 665.235C120.407 664.347 120.508 663.459 120.833 662.596C122.211 658.477 123.138 654.31 123.614 650.092C123.889 647.651 124.641 645.037 126.269 642.743C127.571 641.312 127.572 639.29 126.82 637.86C125.493 635.468 125.719 633.47 127.096 631.374C128.173 629.919 128.599 628.168 128.349 626.343C128.123 624.696 129.362 623.231 129.864 621.644C130.032 621.113 130.163 620.568 130.26 620.014C130.54 618.414 130.339 616.736 130.905 615.213C130.938 615.125 130.971 615.037 131.004 614.949C131.781 612.113 132.307 609.474 132.407 606.564C132.367 605.84 132.641 605.215 133.213 604.515C134.372 603.098 134.818 601.295 134.559 599.487C134.498 599.064 134.471 598.634 134.493 598.201C134.551 597.025 135.502 596.634 135.914 597.734C136.22 598.553 137.378 598.761 137.814 598.001C137.965 597.738 138.057 597.493 138.061 597.261C138.063 597.132 138.045 597.003 138.05 596.874C138.172 594.135 138.859 591.849 140.174 589.447C140.255 589.3 140.301 589.24 140.312 589.074C140.348 588.541 139.829 588.016 139.309 588.139C138.564 588.315 138.017 588.82 137.492 589.362C137.358 589.501 137.216 589.636 137.037 589.707C136.995 589.723 136.952 589.739 136.907 589.754C136.401 589.92 135.805 589.742 135.593 589.256C135.376 588.756 135.611 588.202 135.719 587.668C135.888 586.829 136.157 585.97 136.44 584.984C136.763 583.861 136.809 583.703 135.446 582.96C134.958 582.694 134.599 582.216 134.608 581.659C134.622 580.819 134.827 580.045 135.174 579.305C135.454 578.705 136.187 578.881 136.224 579.541C136.246 579.928 135.955 580.25 135.649 580.489C135.471 580.629 135.412 580.833 135.466 581.167C135.479 581.246 135.468 581.301 135.505 581.371C135.694 581.725 136.46 581.659 136.614 581.288C136.628 581.254 136.637 581.221 136.641 581.187C136.71 580.578 137.021 580.037 137.413 579.565C137.655 579.273 137.71 578.863 137.643 578.375C137.594 578.022 137.496 576.952 137.803 576.769C138.159 576.557 138.531 576.332 138.929 576.087C139.143 575.955 139.236 575.69 139.141 575.458C139.12 575.407 139.098 575.356 139.075 575.304C138.871 574.846 139.031 574.229 139.493 574.028C139.568 573.995 139.646 573.962 139.726 573.927C140.235 573.71 140.465 573.108 140.222 572.613C140.177 572.521 140.132 572.428 140.087 572.333C139.796 571.716 139.069 571.412 138.46 571.722C138.331 571.788 138.202 571.854 138.072 571.922C137.066 572.445 135.9 571.776 136.091 570.66C136.625 567.543 138.35 564.774 137.778 561.972C137.571 560.958 138.129 559.287 138.697 560.152C138.775 560.271 138.808 560.36 138.88 560.482C139.099 560.852 139.291 561.188 139.48 561.521C139.985 562.41 140.023 563.486 139.602 564.421C139.564 564.508 139.525 564.594 139.487 564.682C138.6 566.723 140.9 567.711 141.15 565.501C141.326 563.94 142.053 562.439 141.489 560.904C141.222 560.176 141.345 559.291 142.05 558.963C142.385 558.808 142.64 558.481 142.707 558.117C143.321 554.786 144.115 551.473 144.707 548.139C145.094 546.448 144.505 544.484 145.181 542.777C145.41 542.201 145.899 541.516 145.509 541.037C145.39 540.89 145.279 540.664 145.119 540.448C144.894 540.144 144.463 540.028 144.103 540.148C143.8 540.249 143.675 540.539 143.527 540.822C143.205 541.437 142.934 542.058 142.932 542.708C142.93 543.391 143.308 544.028 143.308 544.711C143.309 545.488 142.991 546.196 142.128 546.734C141.911 546.869 141.793 547.008 141.745 547.151C141.237 548.649 140.91 549.904 140.575 548.362C140.45 547.449 140.349 546.315 140.675 545.452C141.051 544.145 141.427 542.838 142.003 541.777C142.604 540.494 142.954 539.409 142.429 538.004C142.053 537.289 142.203 535.957 142.704 535.562C144.708 533.984 144.057 531.666 144.959 529.742C145.667 528.23 145.187 526.775 144.833 525.147C144.823 525.101 144.815 525.054 144.809 525.007C144.784 524.896 144.766 524.786 144.753 524.676C144.609 523.487 144.035 522.376 143.188 521.531C142.934 521.279 142.944 521.027 142.929 520.669C142.878 519.45 142.905 518.136 143.406 517.214C143.985 516.333 144.343 515.428 144.411 514.414C144.472 513.502 144.156 512.598 144.258 511.69C144.419 510.264 145.91 508.983 145.088 507.276C144.936 506.96 144.783 506.649 144.96 506.345C145.019 506.243 145.147 506.119 145.218 506.024C145.807 505.242 146.28 504.447 146.83 503.66C147.057 503.335 147.582 503.36 147.945 503.517C148.093 503.581 148.213 503.52 148.337 503.417C148.986 502.875 149.463 502.332 149.919 501.972C150.409 501.587 151.616 502.567 152.021 501.391C152.04 501.336 152.047 501.31 152.054 501.251C152.123 500.67 152.024 499.926 151.59 499.536C151.444 499.405 151.297 499.281 151.146 499.186C150.864 499.005 150.57 498.923 150.346 498.816C150.148 498.722 150.059 498.443 150.035 498.225C150.008 497.976 150.251 497.85 150.416 497.661C151.919 495.943 151.903 494.048 151.114 491.877C151.086 491.801 151.066 491.752 151.011 491.694C150.629 491.295 149.92 491.613 149.774 492.147C149.772 492.156 149.77 492.164 149.767 492.173C149.632 492.665 149.064 492.985 148.609 492.756C147.585 492.24 147.625 491.809 148.577 489.912C148.862 489.343 149.659 489.219 150.267 489.408C150.425 489.457 150.503 489.419 150.652 489.344C151.052 489.144 151.442 488.81 151.673 488.458C151.948 488.039 151.773 487.57 152.049 487.151C153.329 484.873 153.461 484.637 153.457 483.315C153.456 482.988 153.335 482.684 153.064 482.503C152.892 482.388 152.728 482.246 152.547 482.146C151.061 481.323 150.78 480.42 151.348 479.21C151.924 478.149 152.525 476.867 153.101 475.806C154.483 473.348 155.02 470.798 154.1 468.089C154.039 467.908 154.016 467.709 153.898 467.56C153.804 467.441 153.808 467.271 153.769 467.126C153.111 464.649 153.111 464.355 155.689 463.678C156.354 463.504 156.927 463.831 157.359 464.363C157.668 464.742 158.302 464.781 158.731 464.542C159.748 463.974 160.385 463.123 160.797 462.118C160.986 461.657 161.584 461.461 161.866 461.871C162.102 462.214 162.641 462.331 162.868 461.979C163.702 460.684 163.842 459.178 163.821 457.654C163.945 456.556 164.941 455.862 165.077 454.766C165.11 454.494 165.105 454.211 165.101 453.925C165.089 452.912 165.436 451.805 164.798 451.02C164.645 450.83 164.165 451.136 163.736 451.366C163.502 451.491 163.234 451.523 162.97 451.494C162.788 451.474 162.603 451.483 162.423 451.522C161.846 451.644 161.288 451.77 160.879 451.911C160.837 451.925 160.79 451.922 160.752 451.944C160.736 451.952 160.724 451.966 160.715 451.983C160.604 452.189 160.967 452.853 161.157 452.716C161.214 452.675 161.223 452.624 161.277 452.579C161.327 452.537 161.378 452.494 161.429 452.448C161.918 452.011 162.515 452.333 162.425 452.982C162.37 453.375 162.344 453.765 162.394 454.127C162.407 454.364 162.406 454.598 162.391 454.83C162.278 456.541 160.211 456.514 159.138 455.18C158.745 454.69 158.472 454.028 158.555 453.404C158.794 451.625 159.654 450.189 161.167 448.826C161.706 448.26 162.258 447.588 162.804 446.957C163.246 446.447 164.201 446.141 164.505 446.741C165.012 447.741 165.716 448.27 166.495 447.459C167.223 446.7 167.566 445.703 167.128 444.533C166.633 443.211 167.269 442.609 168.013 441.68C168.108 441.561 168.188 441.498 168.266 441.367C168.625 440.756 168.165 439.911 167.489 439.704C166.219 439.315 165.058 439.683 163.772 439.898C162.44 440.075 163.036 438.194 164.189 437.502C165.379 436.788 166.3 435.891 166.336 434.316C166.344 433.944 166.761 433.552 167.122 433.46C167.529 433.357 167.635 433.714 167.559 434.126C167.246 435.823 167.274 436.285 168.029 437.419C168.354 437.909 169.241 437.942 169.307 437.357C169.808 434.94 169.859 432.474 170.56 430.303C171.02 429.084 170.755 428.234 170.366 427.423C170.061 426.787 169.308 426.189 168.788 426.668C168.515 426.919 168.406 427.294 168.233 427.594C168.072 427.873 167.557 427.897 167.462 427.59C167.44 427.519 167.446 427.456 167.433 427.383C167.314 426.71 167.397 425.878 167.254 425.224C166.778 423.374 167.179 421.845 168.682 420.661C168.74 420.616 168.776 420.544 168.799 420.454C168.926 419.95 168.233 419.642 167.713 419.652C167.649 419.654 167.622 419.656 167.559 419.665C165.994 419.9 165.174 419.357 165.076 418.245C164.825 416.42 164.6 414.373 164.8 412.598C164.777 410.881 165.982 409.299 166.659 407.659C166.725 407.5 166.791 407.254 166.903 407.123C167.013 406.995 167.107 406.963 167.263 406.898C168.352 406.438 169.193 406.292 169.685 405.716C170.189 404.949 170.013 404.191 169.617 403.492C169.174 402.711 169.336 401.604 169.871 400.879C170.093 400.579 169.93 400.414 169.806 400.063C169.555 399.354 169.549 398.672 169.643 398C169.903 396.143 172.226 394.721 173.016 396.418C173.592 397.38 175.245 396.887 175.37 395.777C175.38 395.693 175.383 395.597 175.382 395.494C175.37 394.428 174.262 393.794 173.581 392.976C173.57 392.963 173.56 392.95 173.55 392.937C172.625 391.769 174.154 389.923 174.443 388.458C174.622 387.545 174.76 386.505 175.524 385.971C176.256 385.459 176.979 384.935 177.403 384.044C177.741 383.335 177.363 382.579 176.652 382.247C176.174 382.024 175.743 381.595 175.744 381.067C175.745 380.797 175.714 380.526 175.521 380.289C174.344 378.588 174.971 377.084 176.649 376.368C177.503 376.058 177.487 375.492 177.503 374.914C177.524 374.162 178.294 373.849 179.011 374.074C179.134 374.113 179.259 374.155 179.386 374.198C179.945 374.389 180.564 374.296 181.027 373.927C181.471 373.572 181.948 373.185 182.441 372.763C182.994 372.291 182.813 371.412 182.086 371.413C181.598 371.414 181.061 371.049 181.126 370.565C181.232 369.773 181.517 369.066 181.943 368.441C182.28 367.947 182.91 367.896 183.286 368.358C183.662 368.821 184.444 368.963 184.895 368.571C185.117 368.378 185.326 368.188 185.504 367.984C186.161 367.231 185.109 366.603 184.198 367.015C183.377 367.387 182.532 366.821 182.438 365.927C182.392 365.492 182.352 365.052 182.309 364.602C182.197 363.422 183.054 362.626 183.988 361.891C184.341 361.613 184.718 361.114 184.858 360.603C184.971 360.19 184.887 359.751 184.82 359.329C184.732 358.775 184.58 358.242 184.418 357.702C184.103 356.649 184.34 355.464 184.892 354.511C185.659 353.185 185.743 351.621 185.084 350.243C185.054 350.179 185.024 350.116 184.995 350.053C184.795 349.618 184.62 349.118 184.907 348.734C185.035 348.564 185.187 348.409 185.291 348.327C185.541 348.13 185.942 348.623 186.393 348.672C186.791 348.716 187.238 348.81 187.33 348.42C187.598 347.285 186.991 346.329 186.518 345.54C185.763 344.415 185.682 343.364 185.961 342.353C186.122 341.771 186.582 341.404 187.12 341.13C187.524 340.925 187.82 340.501 187.959 340.071C188.13 339.538 188.302 338.994 188.479 338.415C188.713 337.647 188.938 336.822 189.513 336.26C189.622 336.154 189.741 336.069 189.875 336.02C192.98 334.787 193.732 332.172 194.483 329.558C194.884 328.029 195.736 326.549 194.584 324.626C193.407 322.925 193.958 322.086 195.961 320.507C196.462 320.113 196.763 319.471 196.788 319.249C196.757 317.016 198.77 315.5 199.176 313.302C199.308 312.584 199.567 311.896 199.969 311.283C200.873 310.062 202.236 309.048 203.555 307.923C204.024 307.522 204.223 306.892 204.118 306.286C204.088 306.112 204.059 305.937 204.029 305.766C203.946 305.295 204.171 304.812 204.605 304.608C204.752 304.539 204.905 304.47 205.066 304.402C205.656 304.153 205.832 303.385 205.326 302.997C205.041 302.779 204.928 302.371 205.049 302.033C205.201 301.607 205.362 301.191 205.709 301.005C205.847 300.93 206.007 300.896 206.146 300.823C207.156 300.299 206.432 299.808 206.203 299.229C206.072 298.9 206.306 298.571 206.556 298.318C207.105 297.758 207.756 297.13 208.504 296.494C208.861 296.19 209.369 296.302 209.587 296.715C209.762 297.049 210.292 297.268 210.621 297.08C210.673 297.05 210.708 297.01 210.714 296.953C210.789 296.287 210.664 295.375 210.965 294.734C212.911 290.704 213.364 290.303 213.112 288.11C212.85 285.823 213.487 283.632 214.68 281.658C214.935 281.237 215.108 280.786 215.166 280.298C215.277 279.379 215.157 278.378 215.113 277.118C215.095 276.592 215.116 276.25 215.459 275.848C216.211 274.967 216.467 273.577 216.374 272.425C216.255 270.952 216.884 269.495 217.879 267.852C219.281 265.533 220.258 262.944 221.886 260.65C223.996 257.439 225.899 254.206 228.189 251.015C228.393 250.731 228.635 250.394 228.827 250.1C228.94 249.926 229.131 249.969 229.337 249.944C231.727 249.656 231.11 247.664 231.279 246.172C231.289 246.081 231.302 245.971 231.317 245.851C231.427 245.006 232.134 244.497 232.646 243.814C232.857 243.531 233.003 243.213 233.072 242.858C233.169 242.363 233.068 241.818 233.39 241.43C233.655 241.111 234.098 240.975 234.432 240.731C236.65 239.109 237.122 236.095 239.244 234.235C239.706 233.871 240.019 233.108 240.3 232.489C240.347 232.387 240.377 232.279 240.39 232.169C240.403 232.047 240.416 231.925 240.427 231.803C240.484 231.157 241.255 230.623 241.898 230.704C242.112 230.731 242.246 230.659 242.433 230.551C242.655 230.421 242.883 230.292 242.901 230.141C243.176 227.699 245.18 226.12 246.107 223.975C246.432 223.111 247.885 222.371 248.837 222.026C251.191 221.384 252.343 219.263 253.245 217.34C254.472 214.553 256.075 212.481 258.981 211.001C260.909 210.088 262.312 207.77 263.664 205.895C264.466 204.859 264.992 204.242 266.194 203.7C267.621 203.182 269.049 202.664 269.475 200.913C269.5 200.691 269.75 200.493 270.001 200.296C273.758 197.336 277.289 194.351 281.021 191.613C282.774 190.232 284.102 188.579 286.481 187.716C288.385 187.025 290.088 186.088 291.841 184.706C293.118 183.498 295.247 182.832 296.725 181.87C299.906 179.97 303.713 178.588 306.518 175.974C307.019 175.579 307.946 175.456 308.647 175.308C310.049 175.012 311.252 174.469 312.053 173.433C312.88 172.175 313.881 171.386 315.259 171.311C315.374 171.292 315.486 171.265 315.594 171.23C318.192 170.41 321.286 169.619 323.599 168.178C325.578 166.821 327.656 166.599 329.76 166.155C331.147 165.862 332.149 164.591 333.477 164.094C333.574 164.058 333.672 164.025 333.77 163.994C334.452 163.783 335.167 163.698 335.867 163.557C338.087 163.11 340.282 162.883 342.534 162.158C344.913 161.294 347.267 160.653 349.822 160.258C353.654 159.448 357.986 158.627 361.79 157.689C362.257 157.574 362.719 157.426 363.171 157.222C364.849 156.507 366.953 156.062 368.781 156.037C373.389 155.642 378.198 155.493 383.007 155.344C384.729 155.115 385.837 157.048 387.569 157.162C388.353 157.213 389.218 157.032 390.119 157.02C391.722 156.971 393.175 156.231 394.853 157.537C395.313 157.918 396.085 157.725 397.019 157.479C397.67 157.307 398.35 157.544 398.773 158.065C399.391 158.825 400.334 158.759 401.115 158.162C401.381 157.959 401.694 157.835 402.116 157.881C403.919 158.078 406.248 157.659 407.751 158.497C408.086 158.66 408.41 158.769 408.723 158.834C412.038 159.53 415.791 156.477 418.746 158.125C420.699 159.013 422.478 159.432 425.032 159.037C425.796 158.829 427.739 159.222 429.229 159.793C430.506 160.283 431.336 161.748 432.696 161.896C433.596 161.994 434.489 162.162 435.331 162.491C436.298 162.869 437.3 163.298 438.231 163.399C439.583 163.547 441.061 162.585 442.664 162.536C443.59 162.412 445.143 162.807 445.544 163.3C446.721 165.001 448.7 163.644 449.952 164.68C451.204 165.715 452.281 166.283 453.909 166.011C455.635 165.646 457.007 167.52 458.577 168.317C458.813 168.438 459.058 168.543 459.318 168.624C459.441 168.68 459.565 168.731 459.692 168.78C461.997 169.667 463.89 167.244 466.231 168.031C468.095 168.55 468.861 170.774 470.699 171.377C472.857 172.086 474.974 172.916 476.699 174.343C477.551 174.885 478.678 175.008 479.58 175.107C479.747 175.125 479.891 175.079 480.028 175.015C480.351 174.867 480.635 174.433 480.482 174.113C480.321 173.778 480.479 173.274 480.85 173.245C481.543 173.19 482.197 173.313 482.41 174.292C482.508 175.012 482.918 175.485 483.516 175.811C483.85 175.993 484.208 176.136 484.535 176.329C486.944 177.754 489.879 179.078 492.499 180.068C492.566 180.094 492.634 180.116 492.703 180.135C494.256 180.53 495.533 181.343 497.036 182.182C498.764 183.044 500.442 184.351 502.771 183.932C503.65 183.856 504.587 184.441 505.46 184.975C505.936 185.265 506.498 185.262 506.863 184.839C507.261 184.378 507.938 184.15 508.503 184.371C509.75 184.859 510.952 185.461 511.311 187.111C511.762 189.183 513.49 190.046 515.318 190.021C516.814 190.184 518.31 190.348 519.72 191.268C519.876 191.369 520.012 191.503 520.173 191.597C520.701 191.904 521.331 191.53 521.911 191.334C522.851 191.015 523.73 191.229 524.595 191.572C525.61 191.973 525.484 192.954 525.361 194.039C525.261 194.927 525.912 195.223 526.563 195.518C528.742 196.431 530.921 197.343 533.1 198.255C534.627 198.871 536.356 199.734 537.833 200.794C540.089 202.328 542.378 203.565 544.673 204.747C545.622 205.237 547.517 205.07 546.845 204.241C546.71 204.074 546.503 203.947 546.31 203.852C545.35 203.379 544.376 203.034 543.44 202.351C543.392 202.316 543.348 202.275 543.314 202.226C543.285 202.184 543.256 202.138 543.228 202.089C543.013 201.721 543.276 200.909 543.636 201.137C543.71 201.184 543.759 201.233 543.838 201.272C545.321 202.026 546.626 202.923 548.058 203.854C548.421 204.09 548.686 204.458 548.718 204.891C548.725 204.982 548.73 205.074 548.736 205.166C548.772 205.804 549.322 206.243 549.961 206.192C550.281 206.167 550.587 206.14 550.897 206.114C551.576 206.056 551.981 206.882 551.679 207.494C551.486 207.885 551.678 208.28 552.057 208.495C554.264 209.744 554.617 210.154 557.16 214.055C557.446 214.493 557.924 214.224 558.445 214.28C560.448 214.724 562.702 214.97 563.629 216.869C563.782 217.161 563.951 217.409 564.128 217.625C565.371 219.142 567.089 220.211 568.555 221.513C569.249 222.129 569.916 222.766 570.574 223.445C570.753 223.629 570.999 223.816 571.165 224.011C571.545 224.456 571.943 224.798 572.474 225.046C574.82 226.142 576.259 228.116 577.879 230.11C578.48 230.85 579.306 231.614 580.183 231.934C583.263 232.945 584.766 235.805 586.794 238.049C587.796 239.282 589.048 240.318 590.551 241.156C590.696 241.248 590.837 241.343 590.976 241.44C592.917 242.794 596.294 242.997 596.086 240.637C595.836 238.812 596.938 237.135 596.662 235.532C596.412 233.707 597.038 232.203 597.013 230.403C597.013 229.266 597.235 228.083 597.513 226.876C597.934 225.051 599.915 224.112 600.296 222.279C600.38 221.873 600.218 221.354 600.021 220.99C599.849 220.673 599.661 220.322 599.568 219.896C598.792 216.982 599.05 216.289 602.118 214.948C602.32 214.859 602.486 214.796 602.61 214.613C602.677 214.514 602.718 214.338 602.736 214.219C602.895 213.15 601.694 213.039 601.047 212.468C600.758 212.212 600.918 211.784 601.259 211.6C601.279 211.589 601.299 211.579 601.32 211.568C602.092 211.162 603.948 209.869 603.664 209.047C603.443 208.406 603.979 207.634 604.577 207.313C605.225 206.964 605.519 206.255 605.842 205.638C606.289 204.781 607.095 203.779 606.679 202.91C606.323 202.168 605.739 201.696 605.231 201.227C604.862 200.887 604.541 200.436 604.617 199.939C604.76 199.002 605.826 198.429 605.705 197.873C605.23 196.023 606.257 195.012 607.083 193.754C607.91 192.496 608.11 190.721 608.937 189.463C610.064 187.564 610.965 185.64 611.441 183.445C611.759 182.233 612.219 181.036 612.707 179.843C612.929 179.301 612.773 178.7 612.384 178.265C612.076 177.921 611.995 177.385 612.177 176.959C612.896 175.272 613.412 173.4 613.309 171.298C613.302 171.143 613.297 171.02 613.321 170.867C613.394 170.407 613.699 169.942 614.073 169.663C614.657 169.227 615.53 168.942 615.474 167.933C615.349 167.02 615.249 165.886 615.35 164.998C615.472 163.914 616.195 162.989 616.552 161.957C616.899 160.955 617.215 159.95 617.629 158.955C617.954 158.092 618.28 157.229 618.806 156.612C618.889 156.515 619.003 156.444 619.136 156.387C620.711 155.715 620.443 154.242 620.635 152.543C621.086 150.57 620.184 148.449 621.737 146.821C622.192 146.288 622.31 145.718 622.09 145.11C622.019 144.914 621.927 144.723 621.895 144.517C621.772 143.721 622.085 143.079 622.675 142.489C622.944 142.22 623.483 142.264 623.711 142.567C623.822 142.715 623.855 142.859 623.976 143C624.317 143.4 624.669 143.702 625.093 143.368C625.112 143.353 625.132 143.335 625.151 143.316C625.676 142.78 625.367 141.881 625.155 141.164C624.623 139.368 624.852 137.399 626.142 136.033C626.972 135.155 627.767 134.317 628.5 133.405C629.026 132.788 629.326 132.147 629.176 131.456C628.677 127.113 631.287 124.125 633.476 120.785C633.988 120.002 635.088 119.815 635.787 120.433C636.32 120.904 637.157 120.975 637.658 120.466C637.753 120.369 637.839 120.272 637.914 120.173C637.969 120.1 638.012 120.02 638.051 119.937C638.631 118.71 639.196 117.685 639.971 116.682C640.592 115.844 641.08 114.841 641.463 113.807C642.014 112.32 642.452 110.79 643.149 109.365C643.952 107.722 644.753 106.045 644.806 104.178C645.006 102.403 646.334 100.75 647.836 99.5661C648.731 98.6848 649.664 97.4663 650.602 96.2045C650.86 95.8581 651.112 95.6547 651.54 95.7015C651.952 95.7465 652.545 95.6043 652.734 95.2358C653.052 94.6174 653.101 93.9902 653.036 93.3364C652.879 91.7552 653.665 90.0567 655.035 89.2434C656.296 88.4948 657.614 87.8628 656.944 86.5639C656.755 86.1983 656.628 85.7938 656.688 85.3046C656.728 84.9743 656.894 84.6757 657.082 84.4007C658.717 82.0105 660.961 79.5304 663.541 77.689C666.191 75.7975 667.566 73.7669 667.141 70.7177C667.115 70.5319 667.1 70.4167 667.121 70.2302C667.181 69.7001 667.457 69.1283 667.948 68.9182C668.871 68.5234 669.945 68.3333 670.454 66.9848C671.334 64.2611 673.714 62.4854 675.482 60.2308C676.023 59.5401 676.754 58.9511 677.793 58.5741C678.059 58.4775 678.349 58.172 678.605 57.8094C678.999 57.2524 679.424 56.6238 679.915 56.1505C680.456 55.6294 680.569 54.8968 681.007 54.2872C682.073 52.8044 683.751 51.9583 684.856 50.5826C686.134 48.9911 686.623 46.8967 688.38 45.9288C688.515 45.854 688.676 45.7565 688.794 45.6557C689.09 45.4021 689.248 45.0477 689.468 44.7262C690.548 43.15 691.143 41.2562 693.321 40.2728C695 39.5574 696.152 37.4364 697.679 36.0304C698.456 35.2165 699.458 34.4271 700.034 33.3665C700.61 32.306 701.386 31.4921 702.564 31.1713C703.392 30.8707 704.057 30.2925 704.728 29.7208C706.097 28.5549 707.701 27.6475 709.451 26.7559C711.63 25.6458 713.233 23.574 715.036 21.7488C717.867 18.9123 720.847 16.7661 724.429 15.3598C724.752 15.2427 725.1 15.1283 725.442 14.9956C726.715 14.5009 727.507 13.2408 728.696 12.5663C728.958 12.4173 729.228 12.2902 729.509 12.1812C730.902 11.6392 732.359 11.302 733.821 10.9932C735.154 10.5952 736.324 10.3258 737.594 9.97752C738.218 9.8063 738.897 9.67386 739.535 9.56292C740.641 9.37086 741.497 8.61576 742.549 8.22384C743.801 7.75768 745.21 7.77286 746.544 7.43999C747.823 7.16995 749.56 7.88406 750.54 6.55318C750.742 6.27938 750.94 5.89792 751.277 5.93478C755.806 6.22539 760.334 4.84659 764.75 5.83071C765.646 6.03041 766.567 6.66518 767.432 6.35147C769.561 5.68517 771.639 5.46294 773.743 7.04093C774.169 7.31216 774.895 6.94208 775.571 7.01595C777.349 7.43492 779.628 7.45906 781.106 8.51922C784.487 10.9108 788.119 11.0829 791.95 11.5015C793.63 11.685 795.081 12.7064 796.592 13.4587C797.666 13.9936 798.762 14.4539 799.789 14.8295C802.394 16.0128 805.274 16.777 807.378 18.3549C810.108 20.4506 813.238 21.0174 816.018 22.6692C818.147 24.0252 820.626 24.296 822.505 25.8494C823.131 26.3672 824.483 26.5147 825.36 26.8352C826.887 27.4515 828.44 27.8459 829.417 29.3007C829.982 29.9961 830.903 30.2104 831.779 30.406C832.658 30.6024 833.504 30.794 834.226 31.1741C835.077 31.7165 835.353 33.3195 836.705 33.4673C838.283 33.6397 839.084 34.6261 839.886 35.6124C841.714 37.6096 843.843 38.9656 846.222 40.1242C847.387 40.774 848.702 41.3053 849.444 42.4761C849.907 43.2065 850 44.1965 850.729 44.6613C853.309 46.0665 855.087 48.5077 856.89 50.727C858.293 52.453 859.695 54.179 861.098 55.9051C862.5 57.6311 864.353 59.4063 865.029 61.5024C865.205 61.9709 865.405 62.2175 865.806 62.7106C866.521 63.4149 867.093 64.1581 867.523 64.9402C868.971 67.5756 870.4 70.3124 872.718 72.2288C873.344 72.7466 873.945 73.4864 874.32 74.2015C875.272 75.8784 876.449 77.5798 877.877 79.0839C879.955 80.8838 880.807 83.4483 881.909 85.8156C882.81 87.9363 883.461 90.2545 885.84 91.4131C885.969 91.4951 886.093 91.6176 886.208 91.7616C886.733 92.4165 887.004 93.2421 887.283 94.0338C887.406 94.3801 887.676 94.6495 887.973 94.8655C888.762 95.4402 889.701 95.9433 889.722 97.4545C889.597 98.5643 890.849 99.5999 891.4 100.784C892.752 104.976 894.58 108.995 895.957 112.965C896.659 114.84 897.109 116.911 897.81 118.785C898.336 120.191 899.113 121.399 899.413 122.78C900.089 124.876 900.765 126.972 900.991 129.019C901.316 132.2 900.965 135.308 901.04 138.686C901.09 140.265 900.714 141.572 901.24 142.977C901.566 144.136 901.641 145.493 900.389 146.479C900.172 146.65 900.236 147.357 900.063 147.959C900.01 148.144 899.911 148.306 899.819 148.475C899.383 149.287 898.567 149.601 897.721 149.968C896.494 150.5 895.922 151.762 895.104 152.868C894.553 153.706 893.626 153.83 892.775 153.287C890.395 152.129 889.719 150.032 889.068 147.714C888.944 147.384 888.87 147.058 888.833 146.736C888.377 142.741 888.127 138.988 885.362 136.075C884.16 134.595 883.409 133.165 884.335 131.019C884.672 130.211 884.828 129.253 884.892 128.295C884.998 126.713 884.889 125.102 884.115 123.719C884.088 123.67 884.061 123.621 884.035 123.572C883.284 122.142 882.533 120.711 881.782 119.281C881.278 118.095 880.774 116.91 880.563 115.599C880.334 114.176 878.633 112.245 877.462 111.407C876.707 110.867 876.174 110.08 876.113 109.152C876 107.432 875.475 106.518 874.043 104.954C873.155 103.861 872.69 102.671 872.015 101.434C871.399 100.305 870.391 99.4538 869.285 98.5923C868.659 98.0746 868.058 97.3347 867.707 96.3977C867.211 95.0719 865.714 94.6002 864.983 93.3888C864.078 91.8906 862.626 90.7527 861.672 89.2222C861.56 89.0842 861.306 88.9308 861.061 88.857C860.738 88.7598 860.413 88.9553 860.087 89.0457C858.79 89.4057 858.444 88.6437 858.121 87.7773C857.959 87.3423 858.249 86.7811 858.678 86.6008C859.161 86.3979 859.265 85.8822 858.999 85.4328C858.947 85.3443 858.894 85.2546 858.843 85.162C858.549 84.6381 857.901 84.3912 857.389 84.7099C857.378 84.717 857.367 84.7241 857.355 84.7312C856.862 85.0385 855.88 84.8653 856.007 84.2989C856.035 84.1745 856.101 84.0534 856.12 83.9273C856.287 82.7957 855.991 81.7512 855.588 80.7324C854.472 77.9163 853.302 74.8727 851.143 72.7497C850.982 72.5909 850.817 72.4344 850.65 72.2804C850.47 72.1155 850.36 71.9679 850.135 71.8745C849.506 71.614 848.826 72.0706 848.152 72.1716C847.973 72.1985 847.808 72.1012 847.673 71.7397C847.497 71.2712 847.573 70.6054 847.623 70.1615C847.729 69.2226 847.349 68.5657 846.651 68.1303C846.191 67.8435 845.658 68.1581 845.721 68.6969C845.81 69.4585 844.889 70.0408 844.368 69.4791C842.321 67.2717 840.607 65.3188 839.033 63.3812C838.925 63.2489 838.897 62.996 838.867 62.7176C838.819 62.271 838.516 61.9763 838.069 61.9275C837.295 61.843 836.711 61.0342 836.914 60.2822C836.993 59.9894 837.081 59.6897 837.205 59.3615C837.5 58.2342 837.482 57.6834 836.569 57.1952C835.911 56.8431 835.156 57.2949 835.072 58.0376C834.974 58.9111 833.974 59.4633 833.283 58.9218C832.694 58.46 832.182 57.9598 831.795 57.3692C831.291 56.5981 830.628 55.8944 829.767 55.5642C828.816 55.1997 827.939 54.6946 827.266 53.946C827.16 53.8283 827.049 53.7153 826.931 53.6097C826.715 53.416 826.501 53.2006 826.287 52.9821C825.729 52.4121 825.77 51.2 826.484 51.5555C826.57 51.5983 826.652 51.651 826.73 51.7059C826.957 51.8664 827.243 51.914 827.492 51.7892C827.502 51.784 827.513 51.7787 827.523 51.7733C827.717 51.6737 827.825 51.4855 827.85 51.2692C827.887 50.9374 827.72 50.6043 827.424 50.45C826.818 50.1341 826.211 49.8288 825.598 49.5735C825.037 49.3398 824.398 49.5272 823.969 49.96C823.918 50.0113 823.869 50.0612 823.821 50.1102C823.512 50.4268 823.057 50.6259 822.618 50.578C822.495 50.5645 822.396 50.5336 822.283 50.4827C821.687 50.214 821.072 49.9596 820.249 49.8697C818.02 49.4015 816.292 48.5388 814.389 47.2074C811.634 45.3336 808.353 44.0762 805.323 42.6217C803.144 41.7096 801.491 40.1809 799.037 39.6881C798.828 39.6653 798.593 39.4475 798.339 39.1686C797.856 38.6403 797.938 37.6971 798.532 37.2941C799.008 36.972 799.176 36.4128 798.887 35.9195C798.779 35.7354 798.678 35.5522 798.611 35.3726C797.614 32.7066 795.265 32.924 793.145 32.3649C792.915 32.3042 792.713 32.2459 792.475 32.2424C792.079 32.2365 791.775 32.5707 791.511 32.8672C790.201 34.3395 788.637 33.5703 787.241 33.007C785.062 32.0949 782.557 32.046 780.93 30.2953C780.53 29.8035 779.733 30.0579 779.099 30.0261C777.069 29.9245 775.619 28.4745 773.942 27.5097C772.64 26.918 771.813 26.1535 769.96 26.4004C768.817 26.5911 767.65 26.0041 766.441 25.4924C765.429 25.0645 764.441 24.4494 763.348 24.33C760.393 24.2319 757.438 24.1338 754.457 24.2576C752.629 24.2825 750.776 24.5294 749.323 25.2694C747.645 25.9849 746.117 25.3688 744.414 26.3062C741.759 27.589 738.679 28.6006 735.648 29.1683C734.722 29.2917 733.294 29.81 732.993 30.4512C732.092 32.375 730.213 32.8438 728.735 33.8058C727.007 34.9652 725.079 35.8779 724.177 37.8016C723.441 39.3727 721.089 39.2592 719.842 40.4679C719.709 40.5972 719.591 40.7365 719.494 40.885C717.365 43.5734 714.184 45.4729 712.055 48.1613C711.529 48.7779 710.978 49.6165 710.251 49.9866C708.097 50.8747 706.77 52.5274 705.417 54.4019C704.315 56.079 702.362 57.2137 701.034 58.8662C699.957 60.3214 699.331 61.8258 697.828 63.0099C694.322 65.7725 691.867 69.3242 689.388 73.0977C688.837 73.9363 688.06 74.7502 687.309 75.3422C686.031 76.5509 685.18 78.0307 683.902 79.2393C682.625 80.4479 681.348 81.6565 680.496 83.1363C679.852 84.116 678.849 84.8118 677.994 85.6139C677.456 86.1181 676.934 86.6163 676.614 87.206C675.687 89.3517 674.335 91.2262 672.556 92.8295C670.778 94.4327 669.826 96.8005 668.499 98.453C666.169 100.895 664.692 103.879 662.788 106.592C661.256 108.923 659.786 112.079 658.254 114.41C657.86 115.011 657.362 115.486 657.148 116.124C656.966 116.669 657.097 117.654 656.526 117.592C653.796 117.519 654.247 119.59 653.621 121.094C652.418 123.659 651.416 126.471 649.989 129.011C649.526 129.863 648.774 130.682 647.951 131.61C647.567 132.043 647.421 132.502 647.551 133.064C647.709 133.751 647.325 134.553 646.7 134.882C646.45 135.014 646.217 135.162 646.03 135.339C645.114 136.205 645.129 137.858 644.182 138.69C643.198 139.556 642.33 140.495 641.791 141.644C641.117 143.084 640.631 144.689 640.251 146.232C639.947 147.466 639.784 148.736 638.993 149.605C637.665 151.258 636.989 153.206 636.112 154.908C635.186 157.054 634.459 159.446 633.307 161.567C632.155 163.688 631.428 166.08 630.702 168.473C630.376 169.336 630.051 170.199 629.975 170.865C629.898 171.554 629.785 172.152 629.52 172.644C628.752 174.07 626.505 174.072 625.738 175.499C625.249 176.408 625.261 177.572 625.642 178.93C626.041 179.997 625.887 181.092 625.722 182.221C625.428 184.23 625.63 186.445 624.365 188.227C623.813 189.066 623.463 190.151 623.137 191.014C622.88 191.563 622.623 192.111 622.366 192.66C622.279 192.844 622.16 193.03 622.021 193.179C621.257 193.995 620.774 195.093 620.967 196.192C621.113 197.018 621.146 197.847 620.969 198.64C620.667 199.993 620.137 201.352 619.875 202.713C619.388 205.248 617.938 207.629 617.977 210.448C618.102 211.361 617.526 212.421 617.2 213.284C615.217 218.849 614.745 225.291 612.345 230.69C612.088 231.27 611.838 231.854 611.614 232.447C610.587 235.48 610.236 238.588 608.333 241.301C607.373 242.762 607.43 244.439 606.863 246.091C606.694 246.582 606.673 247.167 606.905 247.886C607.23 249.045 606.404 250.303 605.803 251.585C604.25 255.235 604.851 257.997 607.731 260.784C608.357 261.301 609.008 261.597 609.384 262.312C611.662 266.381 614.968 269.438 618.024 272.693C618.365 273.043 618.626 273.47 618.864 273.924C620.027 276.15 621.715 278.494 623.834 279.844C625.053 280.398 625.319 281.875 626.104 282.958C626.222 283.121 626.349 283.276 626.485 283.425C627.061 284.057 627.748 284.584 628.298 285.24C630.475 287.831 632.02 290.902 634.177 293.332C635.178 294.565 635.955 295.773 637.207 296.809C638.885 298.115 639.786 300.236 640.713 302.135C641.089 302.85 641.239 303.541 641.614 304.256C641.674 304.392 641.736 304.529 641.799 304.665C643.161 307.606 645.467 310.511 646.974 313.38C647.875 315.5 648.301 317.794 649.428 319.939C651.055 323.712 652.708 327.263 654.586 330.838C654.962 331.553 655.112 332.244 655.263 332.935C655.788 336.362 657.065 339.198 659.77 341.516C661.022 342.551 661.573 343.735 661.373 345.511C661.335 345.849 661.044 346.112 661.03 346.453C660.951 348.383 662.745 349.851 662.975 351.528C662.975 353.55 663.226 355.375 664.378 357.298C665.73 359.468 666.581 362.033 666.732 364.746C666.832 365.88 667.157 367.039 667.257 368.173C667.486 369.84 666.386 371.343 666.223 373.019C666.139 373.885 666.267 374.771 666.631 375.745C666.806 376.213 666.731 376.879 666.656 377.545C666.505 380.899 666.355 384.253 666.004 387.36C665.778 389.358 665.578 391.133 665.803 393.18C666.104 394.561 666.129 396.361 664.601 397.767C664.075 398.384 664.15 399.74 664.275 400.653C664.375 401.787 664.475 402.922 663.899 403.982C663.248 405.709 661.921 407.361 662.822 409.482C663.309 410.783 661.9 412.09 661.388 413.386C660.281 416.188 659.107 419.01 658.213 422.011C657.437 424.847 655.433 426.425 653.63 428.251C652.603 429.262 651.576 430.273 650.549 431.284C648.072 434.006 644.553 435.152 641.584 437.326C641.44 437.431 641.297 437.546 641.157 437.673C640.163 438.456 638.805 438.634 637.524 438.365C636.943 438.243 636.354 438.364 636.09 438.896C635.852 439.374 635.316 439.726 634.784 439.681C634.575 439.664 634.362 439.649 634.142 439.641C633.279 439.606 632.648 440.302 632.034 440.912C631.711 441.232 631.283 441.422 630.688 441.473C628.859 441.498 626.806 441.498 625.002 441.301C624.905 441.291 624.803 441.279 624.699 441.267C623.488 441.119 622.576 440.191 621.551 439.533C617.542 436.957 612.883 434.57 610.225 430.615C610.032 430.327 609.841 430.034 609.65 429.738C608.385 427.948 606.444 427.033 605.457 425.08C605.279 424.728 605.16 424.435 604.785 424.311C604.125 424.095 603.528 423.587 603.275 422.941C602.942 422.092 602.661 421.248 602.263 420.392C602.087 419.924 601.687 419.43 601.937 419.233C603.74 417.408 601.737 416.964 600.71 415.953C599.483 414.696 598.256 413.438 597.78 411.589C597.506 410.615 597.056 409.78 596.295 409.07C595.998 408.794 595.669 408.525 595.559 408.135C595.532 408.042 595.512 407.944 595.502 407.844C595.479 407.63 595.487 407.412 595.456 407.198C595.277 405.936 595.162 405.744 593.975 405.838C593.562 405.871 593.076 405.515 593.046 405.102C593.041 405.023 593.066 404.969 593.101 404.898C593.939 403.248 594.284 401.957 593.598 400.122C592.897 398.248 592.672 396.201 592.446 394.154C592.371 392.798 590.593 392.379 591.47 390.677C592.071 389.395 590.318 388.754 589.742 387.792C588.214 385.153 586.962 382.096 586.612 379.136C586.386 377.089 585.46 375.191 585.936 372.996C586.011 372.33 585.635 371.615 585.485 370.924C585.295 370.247 585.036 369.485 584.974 368.713C584.885 367.608 585.658 366.334 584.959 365.474C583.532 363.97 583.532 361.948 583.732 360.172C583.814 357.811 583.895 355.451 583.241 353.129C582.967 352.158 583.241 351.105 583.969 350.403C584.043 350.332 584.115 350.26 584.184 350.188C584.352 350.014 584.43 349.699 584.363 349.467C584.302 349.253 584.189 349.152 584.02 349.008C582.551 347.76 582.094 346.389 582.331 344.291C582.656 341.405 582.556 338.249 581.981 335.265C581.555 332.971 581.154 330.456 580.278 328.113C579.902 327.398 580.052 326.066 580.378 325.203C581.631 322.194 581.355 318.569 583.71 315.905C584.236 315.289 584.161 313.932 583.81 312.995C583.259 311.812 583.585 310.948 583.685 310.061C583.76 309.395 583.635 308.482 583.234 307.989C582.526 307.264 582.669 306.407 582.723 305.575C582.795 304.493 582.643 303.311 583.181 302.368C583.609 301.617 583.809 300.622 583.587 299.789C583.05 297.772 582.979 295.56 583.961 293.464C584.537 292.403 583.511 291.392 584.112 290.11C585.089 287.52 584.939 284.807 586.141 282.242C586.625 281.08 586.854 279.756 586.495 278.441C586.297 277.714 586.328 276.89 586.851 276.345C586.867 276.328 586.883 276.311 586.899 276.295C587.415 275.763 587.54 275.05 587.114 274.448C587.084 274.405 587.054 274.361 587.024 274.315C586.896 274.119 586.856 273.881 586.883 273.648C586.906 273.446 586.982 273.253 587.099 273.085C589.326 269.87 588.904 267.196 586.342 264.289C585.115 263.031 583.888 261.774 582.385 260.936C581.108 260.122 579.405 259.037 578.879 257.632C577.827 254.82 575.423 253.884 573.319 252.306C570.79 250.456 567.985 249.027 566.482 246.166C566.307 245.698 565.631 245.624 565.005 245.106C564.153 244.564 563.302 244.021 562.701 243.281C560.697 240.816 558.143 239.188 555.864 237.142C555.238 236.624 554.637 235.884 553.76 235.564C552.683 234.997 552.057 234.479 551.481 233.517C551.105 232.802 550.254 232.26 549.352 232.161C547.349 231.718 545.871 230.658 544.443 229.154C542.791 227.625 540.887 226.293 538.733 225.159C536.154 223.754 533.624 221.905 531.095 220.056C530.81 219.874 530.525 219.693 530.3 219.585C530.121 219.5 529.919 219.509 529.724 219.551C529.71 219.554 529.696 219.557 529.681 219.56C528.595 219.795 528.137 218.943 527.438 218.083C526.493 216.919 525.13 216.179 523.795 215.493C521.494 214.31 519.112 213.205 516.818 211.919C513.634 210.135 509.502 206.129 506.627 208.395C506.126 208.79 505.249 208.469 504.598 208.173C503.319 207.658 502.216 207.004 501.01 206.313C500.605 206.081 500.444 205.57 500.589 205.125C500.755 204.613 500.483 204.043 499.961 203.913C499.194 203.724 498.46 203.549 497.861 203.168C497.21 202.872 496.659 201.689 496.008 201.393C494.48 200.777 492.727 200.136 491.174 199.742C489.196 199.076 487.217 198.41 485.489 197.548C484.24 197.044 484.163 196.968 483.697 195.677C483.484 195.087 482.875 194.836 482.297 195.082C482.183 195.13 482.059 195.196 481.96 195.268C481.014 195.956 480.115 196.039 478.877 195.477C476.273 194.294 473.668 193.111 470.938 193.037C470.185 193.06 469.458 192.962 468.744 192.809C464.592 191.917 460.21 188.495 455.986 188.033C454.183 187.836 452.38 187.639 450.827 187.245C449.274 186.85 447.697 186.678 446.745 185.001C446.369 184.286 444.741 184.558 443.89 184.015C442.412 182.955 441.11 182.364 439.206 183.054C438.48 183.424 437.403 182.857 436.727 182.783C435.776 182.68 434.95 182.343 433.995 182.397C431.31 182.547 428.912 181.414 426.459 180.763C423.353 179.974 420.473 179.21 417.342 178.644C415.79 178.249 414.036 177.608 412.609 178.126C411.405 178.427 410.643 178.13 409.797 177.65C409.237 177.334 409.337 176.45 409.962 176.293C410.507 176.157 410.649 175.495 410.117 175.32C408.872 174.91 407.452 175.133 406.256 174.801C404.96 174.441 403.563 173.808 402.257 174.141C401.083 174.44 399.897 174.542 398.684 174.134C398.033 173.838 397.306 174.208 396.781 174.825C394.977 176.65 392.673 176.847 390.194 176.577C388.349 176.375 386.61 176.185 384.833 175.991C383.71 175.868 383.401 174.504 383.266 173.384C383.207 172.894 382.813 172.543 382.323 172.602C381.474 172.704 380.426 173.254 379.499 174.184C379.072 174.613 378.395 174.619 378.075 174.109C377.893 173.819 377.535 173.693 377.194 173.735C375.955 173.89 374.683 173.732 373.453 173.797C370.719 173.942 367.817 174.926 365.094 175.216C363.582 175.377 362.113 175.949 360.69 177.173C360.079 177.655 359.317 177.953 358.538 178.287C357.578 178.697 356.463 178.867 355.531 178.402C355.443 178.358 355.357 178.313 355.274 178.266C354.865 178.037 354.422 177.755 353.97 177.883C353.818 177.926 353.681 178.023 353.543 178.101C352.883 178.47 352.206 178.986 351.549 179.32C349.389 180.666 346.552 180.169 344.26 181.274C342.866 181.945 341.362 182.449 339.752 182.75C336.947 183.343 334.142 183.935 331.212 183.615C329.862 183.467 328.401 184.295 326.972 184.846C326.542 185.012 326.2 185.457 326.177 185.917C326.147 186.513 325.864 187.096 325.316 187.335C323.644 188.062 321.832 188.62 319.967 188.228C318.84 188.105 317.888 188.451 317.788 189.338C317.748 189.529 317.7 189.695 317.644 189.842C316.765 192.15 313.568 191.854 311.626 193.384C310.624 194.173 309.648 194.741 308.47 195.061C304.689 196.221 301.483 198.342 298.477 200.71C294.432 203.531 290.476 207.296 286.434 210.121C285.166 211.007 283.816 211.806 282.523 212.674C279.066 214.993 275.435 216.843 273.206 220.419C272.709 221.24 272.156 222.055 271.495 222.778C269.084 225.416 265.499 227.233 263.863 230.408C263.703 230.652 263.468 230.887 263.244 231.123C262.935 231.45 262.651 231.809 262.295 232.084C260.506 233.471 259.931 236.309 258.123 237.67C257.933 237.813 257.735 237.936 257.527 238.03C255.848 238.745 255.022 240.003 254.396 241.507C252.317 245.774 250.037 249.794 247.107 253.519C246.555 254.359 246.382 255.442 245.828 256.282C245.246 257.164 244.57 257.797 244.452 258.846C244.201 261.066 243.7 261.46 241.221 261.189C240.305 261.089 239.831 262.155 240.261 262.968C240.676 263.753 240.349 264.242 239.217 264.999C238.53 265.459 238.256 266.289 238.811 266.897C239.249 267.376 239.346 268.12 239.027 268.688C238.301 269.984 237.625 271.302 236.781 272.689C236.447 273.238 235.692 273.458 235.078 273.272C234.897 273.217 234.71 273.155 234.524 273.078C234.452 273.048 234.37 273.058 234.309 273.106C234.223 273.173 234.206 273.294 234.256 273.39C234.929 274.658 233.687 276.028 233.955 277.293C234.017 277.585 234.188 277.865 234.089 278.147C234.04 278.287 233.963 278.442 233.87 278.59C233.561 279.082 232.911 279.177 232.475 279.562C231.772 280.183 231.593 281.378 230.864 281.985C230.592 282.211 230.197 282.303 230.133 282.651C230.106 282.802 230.076 282.967 230.029 283.114C229.703 284.125 229.39 285.139 229.273 286.173C229.073 287.949 228.446 289.453 227.57 291.155C226.969 292.438 226.367 293.72 225.115 294.707C223.612 295.891 222.761 297.371 222.786 299.171C223.036 300.996 222.159 302.697 221.533 304.202C221.272 305.111 220.586 305.866 219.847 306.581C219.241 307.168 218.952 307.998 219.199 308.801C219.437 309.576 219.183 310.396 218.621 310.983C218.589 311.017 218.557 311.05 218.526 311.082C217.885 311.743 217.48 312.609 217.452 313.527C217.414 314.755 217.219 315.915 216.423 317.125C215.092 319.438 214.434 321.962 213.29 324.355C212.642 325.711 212.578 327.183 211.94 328.544C211.614 329.407 211.088 330.024 210.787 330.665C210.487 331.306 209.736 331.898 209.685 332.342C209.635 334.808 208.233 337.127 207.331 339.051C206.291 340.901 205.623 342.672 205.395 344.546C205.222 345.969 205.357 347.527 204.425 348.62C204.035 349.213 203.545 349.683 203.097 350.204C202.761 350.594 202.746 351.124 203.037 351.546C203.377 352.04 203.524 352.748 203.2 353.255C202.606 354.184 201.995 355.164 201.337 356.157C200.622 357.237 200.799 358.281 201.294 359.474C201.421 359.781 201.444 360.149 201.244 360.63C200.041 363.195 199.515 365.834 199.215 368.498C199.178 368.82 199.086 369.107 198.967 369.383C198.535 370.385 197.759 371.287 197.637 372.37C197.486 375.724 196.835 377.45 194.731 379.916C194.49 380.169 194.292 380.427 194.11 380.693C193.311 381.861 193.222 383.409 193.721 384.73C193.836 385.034 193.952 385.397 193.827 385.698C193.487 386.518 192.206 387.037 192.652 388.228C192.977 389.387 192.852 390.496 192.051 391.532C191.775 391.952 191.725 392.396 191.675 392.839C191.775 398.018 188.969 402.655 188.168 407.735C188.131 408.058 188.014 408.384 187.843 408.715C186.625 411.059 185.483 413.326 185.187 415.948C185.112 416.614 184.811 417.255 184.285 417.872C183.759 418.489 183.484 418.908 183.609 419.82C183.859 421.645 183.684 423.199 182.582 424.876C181.48 426.553 180.828 428.279 181.53 430.154C182.261 432.108 179.749 434.192 179.73 436.281C179.724 436.885 179.72 437.493 179.501 438.021C179.15 439.106 179.701 440.29 179.35 441.375C179.093 442.171 178.592 442.941 178.206 443.724C177.932 444.278 177.591 444.83 177.522 445.444C177.336 447.085 176.904 448.614 176.124 449.967C175.376 451.268 175.009 453.48 175.146 454.971C175.231 455.9 175.688 456.868 175.552 457.791C175.414 458.724 175.311 459.597 174.916 460.439C174.504 461.318 173.774 462.163 172.928 463.139C172.139 464.05 171.755 464.914 171.94 466.101C172.18 467.635 171.455 469.416 170.664 470.756C170.294 471.382 170.07 472.101 170.082 472.943C170.09 473.55 169.976 474.093 169.773 474.583C169.05 476.329 167.943 478.206 168.604 479.971C169.856 483.029 169.555 483.671 167.251 485.89C165.473 487.494 165.448 489.738 165.422 491.982C165.322 492.87 167.075 493.511 166.499 494.571C165.948 495.41 166.073 496.322 165.948 497.432C165.672 499.874 165.848 502.364 164.019 504.412C162.166 506.681 161.615 509.541 162.416 512.55C163.092 514.646 163.117 516.446 161.314 518.272C160.69 518.763 161.012 519.783 160.959 520.573C160.813 522.753 159.988 524.783 159.728 526.798C159.455 528.919 157.946 529.908 157.706 532.033C157.657 532.472 157.394 532.832 157.046 533.182C156.502 533.732 156.716 534.627 157.421 534.939C157.824 535.118 158.016 535.505 157.99 535.945C157.877 537.878 157.781 538.734 157.279 539.612C156.352 541.231 155.562 542.954 155.692 544.812C155.758 545.748 155.827 546.656 155.952 547.57C155.977 549.37 156.478 550.998 154.299 552.108C153.67 552.428 153.285 553.618 152.966 554.636C152.87 554.94 152.79 555.253 152.825 555.569C152.851 555.803 152.908 556.043 152.977 556.29C153.283 557.395 152.844 558.554 151.719 558.792C150.768 559.137 150.191 560.198 150.567 560.913C151.318 562.343 150.968 563.428 150.341 564.933C149.991 566.018 150.316 567.177 150.416 568.311C150.542 569.224 150.241 569.865 149.69 570.703C147.962 573.885 147.11 577.387 148.062 581.086C148.158 581.343 148.043 581.644 147.911 581.938C147.716 582.373 147.436 582.905 147.118 583.261C146.857 583.552 146.926 583.843 146.983 584.229C147.285 586.286 146.082 588.006 145.256 589.767C145.044 590.219 144.885 590.704 144.772 591.203C144.361 593.004 144.421 594.888 144.531 596.73C144.578 597.515 144.643 598.306 144.654 599.139C144.704 600.717 144.529 602.271 143.452 603.726C143.176 604.145 143.101 604.811 143.051 605.255C142.976 605.921 143.126 606.611 142.851 607.031C140.997 609.3 141.598 612.062 141.548 614.528C141.347 618.326 140.07 621.557 138.993 625.034C138.254 626.994 136.188 628.766 136.91 630.727C137.046 631.097 137.278 631.454 137.656 631.776C137.727 631.837 137.817 631.93 137.866 632.01C138.086 632.365 137.969 632.777 137.813 633.166C137.287 634.474 137.933 635.91 137.389 637.217C136.371 639.664 136.379 642.372 135.165 644.611C134.638 645.583 134.627 646.933 133.896 647.762C133.621 648.075 133.23 648.319 132.86 648.587C132.407 648.916 132.403 649.534 132.755 649.968C132.854 650.089 133.007 650.216 133.162 650.344C133.404 650.545 133.256 650.941 132.963 651.06C132.819 651.118 132.776 651.062 132.637 650.993C131.905 650.63 131.519 650.464 131.214 650.622C130.117 651.191 130.808 652.953 131.697 653.804C132.431 654.508 132.757 655.535 132.542 656.531C132.152 658.342 131.739 660.076 131.177 661.928C130.964 662.742 130.793 663.179 130.314 663.606C129.128 664.664 128.187 665.974 128.394 667.545C128.522 668.518 128.208 669.479 127.59 670.245C127.145 670.797 126.734 671.339 126.393 671.966C126.117 672.386 126.042 673.052 126.192 673.742C126.317 674.654 127.845 675.271 127.019 676.529C126.675 677.051 126.429 677.497 126.377 677.985C126.308 678.631 126.928 679.431 126.417 679.833C123.687 681.782 125.565 685.358 123.687 687.849C123.411 688.268 123.762 689.205 123.912 689.896C124.369 691.522 122.739 693.024 122.798 694.713C122.884 697.195 122.51 699.628 121.407 701.98C121.082 702.843 121.182 703.978 120.831 705.063C120.455 706.37 120.956 707.998 119.904 709.231C119.249 710.077 120.317 710.512 120.428 711.1C120.484 711.391 120.281 711.666 120.157 711.937C119.858 712.589 119.449 713.23 119.03 713.869C118.952 713.989 118.812 714.05 118.669 714.059C118.5 714.07 118.355 714.11 118.201 714.139C118.038 714.17 117.913 714.364 118.018 714.493C118.082 714.572 118.215 714.607 118.294 714.542C118.387 714.466 118.481 714.384 118.576 714.286C118.794 714.06 119.135 713.984 119.386 714.171C119.421 714.196 119.456 714.222 119.493 714.248C119.844 714.499 119.99 714.983 119.752 715.345C119.384 715.905 119.015 716.465 118.647 717.026C118.583 717.123 118.527 717.225 118.474 717.328C118.382 717.505 118.277 717.679 118.173 717.854C117.713 718.63 117.453 719.526 117.416 720.426C117.4 720.832 117.41 721.214 117.374 721.537C117.233 722.788 116.475 723.954 117.079 725.057C117.521 725.863 117.991 726.589 117.599 727.628C116.998 728.911 117.499 730.538 117.348 731.87C117.198 733.202 116.597 734.484 115.971 735.989C115.369 737.271 113.892 738.233 113.917 740.034C113.992 741.39 112.94 742.623 112.539 744.152C111.462 747.63 110.836 751.156 109.533 754.609C108.882 756.336 108.681 758.111 109.357 760.207C109.631 761.465 110.279 762.764 108.916 763.843C108.626 764.072 108.301 764.283 108.207 764.641C108.188 764.716 108.171 764.793 108.158 764.866C108.113 765.113 108.071 765.362 108.005 765.603C107.479 767.517 107.312 768.009 106.446 769.135C105.943 769.79 106.075 770.737 106.749 771.208C107.489 771.726 107.533 772.949 107.703 773.836C107.885 774.781 108.574 775.758 108.179 776.706C107.683 777.9 107.328 779.109 107.002 780.321C106.847 780.897 106.138 781.479 105.764 781.018C105.12 780.225 104.304 780.677 105.274 781.001C105.42 781.05 105.598 781.1 105.811 781.159C105.836 781.166 105.855 781.171 105.881 781.173C106.259 781.215 106.458 781.659 106.265 781.987C105.14 783.897 105.121 786.064 105.299 788.075C105.524 790.122 105.098 791.873 104.447 793.599C103.445 796.411 102.693 799.025 102.368 801.911C102.3 802.512 102.025 803.091 101.746 803.739C101.535 804.229 100.854 804.403 100.414 804.105C99.9227 803.772 99.2869 804.049 99.137 804.624C98.8694 805.651 98.6439 806.599 98.5355 807.559C98.3851 808.89 98.6856 810.271 98.5102 811.825C98.3834 812.948 96.9925 813.532 96.9379 814.661C96.9176 815.079 97.0884 815.518 97.3579 815.968C98.3095 817.645 98.1091 819.421 97.9337 820.975C97.8394 821.81 96.8037 821.913 96.193 822.492C95.4534 823.194 96.4023 824.433 96.3055 825.291C95.9984 826.831 95.9729 828.633 95.2522 830.096C94.2357 832.159 93.0313 834.081 92.7736 836.364C92.5314 838.51 92.5422 840.741 92.415 842.896C92.3672 843.706 92.1705 844.588 91.9466 845.711C91.3704 848.794 89.6923 851.531 88.6652 854.565C87.9971 857.005 87.6627 859.481 87.3589 862.105C87.2765 862.816 87.7834 863.503 88.4754 863.687C88.9276 863.808 89.3606 864.101 89.4161 864.565C89.5706 865.86 88.569 866.792 87.924 867.951C87.5975 868.537 86.9038 868.934 86.2601 868.748C85.8653 868.633 85.5383 868.794 85.2805 869.116C84.8155 869.696 84.4027 870.34 83.9316 870.912C83.7069 871.185 83.4796 871.457 83.296 871.759C82.617 872.876 82.1317 874.035 81.9771 875.405C81.3508 878.931 80.7495 882.236 79.8978 885.738C79.8472 886.186 80.6347 886.257 80.861 885.866C81.8855 884.098 82.5686 882.293 82.7783 880.435C82.9226 879.157 83.2228 877.895 83.6568 876.623C84.203 875.022 86.1766 875.376 85.4583 876.908C83.5462 880.833 83.5408 884.965 82.9676 889.21C82.8746 889.899 82.3854 890.393 81.7044 890.536C81.504 890.578 81.2985 890.691 81.2748 890.895C81.2413 891.182 81.3582 891.58 81.5004 891.755C82.6049 892.887 82.7964 893.919 82.5314 895.229C82.4708 895.528 82.4019 895.828 82.4357 896.131C82.5019 896.726 82.5632 897.331 82.6207 897.928C82.8853 900.673 82.3218 903.589 82.4776 906.304C82.5012 906.715 82.5031 907.128 82.4569 907.538C82.4033 908.013 82.2857 908.478 82.1376 908.933C81.073 912.204 81.0413 915.771 80.2217 919.253C80.1716 919.697 80.1214 920.14 79.8459 920.56C79.5074 921.075 79.0932 921.497 78.6382 921.986C78.1269 922.536 77.2638 922.631 76.6872 922.154C76.5252 922.02 76.3632 921.886 76.2012 921.752C76.0043 921.589 75.6381 921.682 75.4831 921.886C75.347 922.065 75.4273 922.209 75.5425 922.401C76.8264 924.546 75.9649 927.206 77.0153 929.463C77.3996 930.49 75.9579 931.076 75.2346 931.905C74.3248 932.947 74.2658 934.474 73.8265 935.869C73.7836 936.005 73.7786 936.086 73.7146 936.213C73.4858 936.669 72.9271 936.967 72.4296 937.079C72.145 937.144 71.8757 937.21 71.6391 937.28C71.4323 937.341 71.1691 937.419 71.0875 937.618C71.0365 937.743 71.0306 937.863 71.0049 937.995C70.8336 938.873 71.0638 940.6 71.58 941.712C71.9213 942.447 72.8446 943.062 73.4833 942.559C73.7337 942.361 74.0093 941.942 74.0594 941.498C74.1596 940.61 73.5836 939.649 75.1865 939.599C76.0881 939.698 75.9879 940.585 76.1381 941.276C76.7483 945.723 76.7398 946.046 72.3771 947.248C72.1495 947.311 71.8064 947.306 71.78 947.54C71.7799 947.54 71.7799 947.54 71.7799 947.541C71.7548 947.762 71.4794 948.182 71.4543 948.404C71.4541 952.448 71.2536 956.246 69.6755 960.118C68.7237 962.486 69.0992 965.223 68.7985 967.887C68.7779 968.069 68.719 968.248 68.6534 968.426C68.4998 968.843 67.982 969.129 67.5619 968.987C67.1417 968.846 66.9133 968.442 66.9996 968.007C67.2187 966.902 67.5344 965.776 67.0706 965.001C66.144 963.103 66.8454 960.932 66.3696 959.083C66.0445 958.214 66.9161 957.442 67.2857 956.589C67.9847 954.975 67.2009 953.436 66.2698 951.882C65.6451 950.979 65.225 949.971 65.0357 948.93C64.7133 947.156 66.0294 945.792 67.7829 945.356C67.9579 945.312 68.129 945.262 68.2938 945.2C69.4567 944.76 69.4952 943.286 69.2985 942.062C69.0387 940.443 68.918 938.755 68.831 936.985C68.7992 936.338 69.3515 935.86 69.9767 936.03C70.4427 936.156 70.8998 935.88 71.0564 935.423C71.3943 934.435 71.6824 933.431 72.0079 932.38C72.3119 931.397 72.022 930.282 71.1801 929.695C70.4414 929.18 70.0077 928.372 70.0022 927.471C69.9958 926.419 70.011 925.377 70.2738 924.388C70.7536 922.581 71.797 920.902 71.8788 919.037C71.9052 918.433 71.9393 917.831 72.007 917.232C72.0249 915.63 72.0301 915.171 72.6143 914.287C73.1999 913.4 73.4235 912.389 73.0793 911.387C72.7721 910.492 72.965 909.449 73.4078 908.611C74.553 906.443 74.8438 903.992 74.8882 901.478C74.9057 900.489 75.4837 899.628 76.4434 899.379C77.6098 899.077 78.4622 897.892 78.1231 896.739C77.8873 895.937 77.6023 895.184 77.2149 894.492C76.8661 893.868 76.8288 893.123 77.3506 892.631C78.0517 891.97 77.9474 890.793 77.0626 890.418C76.8999 890.349 76.7457 890.284 76.6001 890.222C76.3463 890.114 76.1105 889.949 76.0054 889.694C75.6762 888.895 75.894 887.708 76.5166 887.391C77.1833 887.024 77.6465 886.6 77.989 886.116C79.0547 884.608 78.6978 882.006 76.9677 881.374C76.1099 881.135 76.0471 880.607 75.941 880.124C75.8902 879.893 76.1324 879.567 76.3555 879.647C76.3765 879.655 76.3976 879.662 76.4186 879.67C76.5971 879.732 76.6801 879.545 76.492 879.524C76.492 879.524 76.492 879.524 76.492 879.524C76.1186 879.483 75.8332 879.144 75.9148 878.777C75.9388 878.669 75.9677 878.573 76.0029 878.5C76.0681 878.366 76.2399 878.339 76.3785 878.285C77.6928 877.765 78.606 876.968 78.7964 875.282C78.8881 874.469 79.6437 873.898 80.0208 873.171C80.8599 871.553 81.0782 869.771 80.5248 868.056C80.1993 866.897 80.7504 866.058 81.076 865.195C81.3725 864.163 82.3866 864.33 83.1949 863.937C83.6279 863.726 83.7319 863.198 83.6385 862.727C83.5815 862.44 83.5219 862.148 83.4602 861.852C83.1411 860.323 80.8172 860.39 80.4444 861.91C80.2637 862.647 79.3745 863.083 79.1495 862.36C79.0885 862.164 79.0758 861.954 79.0613 861.766C79.041 861.502 78.9989 861.237 79.0018 860.973C79.0243 858.887 79.0512 856.975 79.4987 854.912C79.9236 852.862 80.6546 851.007 81.3253 848.897C81.5189 848.288 82.1236 847.944 82.7109 848.193C83.278 848.435 84.0776 848.084 83.8387 847.517C83.6455 847.058 83.2004 846.781 82.6896 846.517C82.2914 846.311 81.9104 846.012 81.8327 845.57C81.7265 844.966 81.9275 844.201 82.4506 842.753C82.8396 841.677 83.8653 841.298 84.0491 842.426C84.0684 842.544 84.1061 842.66 84.1349 842.776C84.2468 843.226 84.2294 843.797 84.5834 844.232C84.7061 844.383 84.9979 844.553 85.2632 844.616C85.5358 844.681 85.8497 844.532 86.0371 844.323C86.3241 844.003 86.2785 843.538 86.1663 843.124C85.8331 841.894 86.7397 840.708 86.462 839.719C86.1616 838.338 87.4139 837.351 86.6626 835.921C86.4666 835.616 86.443 835.33 86.5152 835.058C86.9436 833.443 87.2812 832.05 87.5771 830.406C87.8899 828.668 88.8733 827.076 89.2177 825.415C89.412 824.814 89.3296 824.183 89.1665 823.505C89.01 822.854 88.1758 822.556 87.7337 823.061C87.3309 823.521 86.4556 823.413 86.3377 822.815C86.1894 822.063 86.1088 821.487 86.2713 820.951C86.2962 820.868 86.322 820.787 86.3395 820.703C86.791 818.54 86.8566 816.127 87.7657 814.022C88.6925 811.876 89.1935 809.459 89.6695 807.264C90.1705 804.847 90.6716 802.43 91.398 800.038C91.9134 798.444 92.0771 796.689 92.2271 794.99C92.3264 793.866 93.0958 792.908 93.727 791.97C94.1437 791.351 94.4765 790.581 94.8337 789.737ZM153.074 506.362C153.057 506.52 153.154 506.691 153.201 506.857C153.232 506.962 153.137 507.042 153.028 507.031C152.852 507.011 152.754 506.753 152.853 506.607C152.91 506.523 152.974 506.44 153.074 506.362C153.941 506.755 154.942 506.251 154.978 505.299C154.991 504.965 154.986 504.653 154.957 504.342C154.941 504.176 154.933 504.007 154.967 503.844C155 503.683 155.045 503.544 155.101 503.423C155.625 502.29 156.447 501.316 155.687 500.331C155.578 500.189 155.473 500.046 155.374 499.898C155.263 499.731 155.184 499.598 154.992 499.659C154.87 499.698 154.706 499.866 154.67 499.989C154.358 501.036 154.184 502.252 153.475 502.81C152.198 504.019 152.974 505.227 153.074 506.362ZM146.086 515.709C148.967 516.473 148.966 516.473 148.641 519.359C148.513 520.492 149.863 519.451 150.3 518.396C151.107 516.45 152.811 514.707 152.665 512.2C152.631 511.621 152.138 511.206 151.567 511.107C151.333 511.066 151.1 511.022 150.861 510.976C149.914 510.793 149.408 511.961 150.015 512.708C150.335 513.101 150.247 513.556 149.899 513.927C148.775 515.125 147.651 515.688 146.086 515.709C146.387 515.068 146.888 514.673 147.188 514.032C147.705 512.93 146.131 513.683 146.128 514.898C146.127 515.185 146.115 515.457 146.086 515.709ZM630.394 316.736C629.325 317.578 628.519 317.282 627.845 316.106C627.696 315.845 627.539 315.575 627.363 315.282C625.986 313.334 624.358 311.583 622.956 309.857C621.779 308.155 619.9 306.602 619.65 304.777C619.224 302.484 616.77 301.991 616.069 300.117C615.851 299.703 615.4 299.339 614.984 298.967C614.424 298.465 614.19 297.73 613.858 297.054C613.357 296.033 612.575 295.384 611.667 294.984C610.469 294.456 609.291 293.752 608.71 292.579C608.67 292.498 608.63 292.417 608.59 292.337C607.194 289.524 602.812 289.787 603.1 292.917C603.125 293.187 603.202 293.438 603.281 293.697C603.383 294.034 603.421 294.365 603.221 294.669C601.568 297.185 602.644 299.774 602.569 302.462C602.569 304.484 602.569 306.506 601.442 308.405C600.59 309.885 600.164 311.636 600.64 313.486C601.216 316.47 600.89 319.355 599.888 322.167C599.287 323.449 598.886 324.978 599.863 326.433C599.9 326.503 599.936 326.577 599.971 326.655C600.624 328.091 599.642 329.598 599.505 331.172C599.348 332.986 600.058 334.814 599.863 336.544C599.687 338.098 600.439 339.528 600.238 341.304C600.063 342.857 600.113 344.436 600.388 346.039C600.689 347.42 600.764 348.776 600.137 350.28C600.069 350.463 600.006 350.677 599.963 350.908C599.602 352.843 601.735 354.317 601.515 356.273C601.289 358.271 601.514 360.317 601.514 362.34C601.391 363.434 602.638 364.188 603.191 365.138C603.294 365.315 603.375 365.497 603.417 365.693C603.504 366.675 603.825 367.471 604.279 368.164C605.329 369.764 605.364 371.899 606.172 373.634C606.948 374.842 607.675 376.494 607.299 377.801C606.748 380.662 607.875 382.807 608.751 385.15C609.828 387.739 610.178 390.699 611.005 393.485C611.48 395.335 611.756 396.938 612.758 398.171C613.158 398.664 613.759 399.403 613.684 400.069C613.66 400.28 613.655 400.477 613.667 400.662C613.768 402.218 615.338 403.215 616.089 404.579C616.466 405.265 616.778 406.027 617.015 406.949C617.315 408.33 618.317 409.563 619.093 410.771C620.27 412.473 621.447 414.174 622.399 415.851C623.877 418.934 626.256 420.092 629.537 419.327C630.238 419.179 630.664 419.45 631.09 419.721C632.993 421.053 633.469 420.88 635.247 419.277C636.663 417.883 639.154 419.16 640.821 418.078C642.29 417.124 643.557 415.957 644.063 413.949C644.163 413.068 645.242 412.625 645.632 411.828C645.883 411.317 646.02 410.762 646.092 410.126C646.318 408.128 646.543 406.131 646.994 404.158C647.181 402.497 648.03 401.05 648.508 399.447C648.977 397.877 649.066 396.206 648.881 394.499C648.847 394.181 648.717 393.799 648.719 393.479C648.723 393.011 649.095 392.719 649.29 392.293C649.996 390.746 649.795 388.969 649.575 387.363C649.349 385.316 650.226 383.614 650.201 381.814C650.21 381.735 650.187 381.681 650.155 381.634C650.032 381.454 650.021 381.236 650.012 381.018C649.906 378.553 649.801 376.094 649.68 373.772C649.658 373.351 650.025 373.012 650.368 373.257C650.675 373.476 651.214 373.403 651.266 373.028C651.338 372.511 651.327 372.029 651.189 371.607C650.895 370.708 650.634 369.62 650.818 368.69C650.897 368.292 650.84 367.876 650.576 367.404C650.514 367.293 650.451 367.181 650.401 367.063C649.099 363.979 648.984 360.465 647.771 357.349C647.63 356.987 647.385 356.712 647.387 356.323C647.388 356.079 647.417 355.773 647.4 355.53C647.317 354.335 647.11 353.328 645.744 352.566C645.093 352.271 644.542 351.087 644.618 350.421C644.943 347.536 643.541 345.81 641.938 343.837C640.11 341.84 638.758 339.67 638.382 336.932C638.107 335.329 637.556 334.146 636.779 332.937C635.803 331.483 634.826 330.028 634.325 328.4C633.377 325.153 633.362 324.595 631.781 322.946C631.034 322.167 630.724 321.132 631.218 320.169C631.656 319.314 631.754 318.163 631.171 317.403C630.939 317.102 630.696 316.874 630.394 316.736C630.256 316.105 630.171 315.432 630.093 314.735C629.936 313.332 627.716 312.48 628.113 313.834C628.159 313.992 628.242 314.088 628.347 314.214C629.098 315.111 629.855 315.837 630.394 316.736ZM176.722 413.342C175.809 412.506 174.935 411.391 175.053 410.157C175.074 409.934 175.117 409.703 175.194 409.464C175.57 408.157 176.146 407.096 176.522 405.789C176.966 404.721 177.424 403.541 177.311 402.347C177.222 401.406 176.464 401.097 176.3 402.027C176.279 402.142 176.223 402.217 176.169 402.32C175.862 402.906 175.396 403.474 175.119 404.063C174.628 405.111 173.703 405.961 173.653 407.124C173.629 407.684 173.858 408.273 173.501 408.706C173.317 408.929 173.08 409.122 172.942 409.377C172.661 409.892 172.704 410.443 173.191 411.043C173.942 411.967 173.585 413.269 173.379 414.445C173.205 415.438 172.905 416.374 171.838 416.961C171.112 417.331 171.011 418.219 171.637 418.737C172.264 419.255 172.99 418.885 173.516 418.268C173.841 417.887 174.167 417.505 174.498 417.071C174.769 416.717 175.381 416.887 175.522 417.308C175.667 417.74 176.219 417.758 176.476 417.38C177.163 416.368 177.493 415.497 177.339 414.687C177.273 414.339 177.221 413.958 177.018 413.668C176.942 413.56 176.841 413.452 176.722 413.342ZM95.3201 823.321C95.6897 822.564 95.6498 821.642 95.3084 820.874C95.244 820.729 95.2183 820.6 95.1952 820.443C95.0774 819.643 94.9424 818.996 94.8282 818.164C94.7554 817.339 94.2987 816.71 93.718 816.305C93.2912 816.007 92.8193 815.756 92.3187 815.612C91.9866 815.517 91.6627 815.52 91.3692 815.662C90.7871 815.945 90.703 816.705 90.7476 817.349C90.8116 818.274 90.9128 819.246 90.9815 820.177C91.0275 820.803 91.6669 821.263 92.2842 821.147C92.9097 821.03 93.4186 821.483 93.4171 822.118C93.4163 822.408 93.4112 822.697 93.4094 822.986C93.4044 823.774 94.0838 824.62 94.7196 824.151C94.9816 823.958 95.1562 823.657 95.3201 823.321ZM146.556 531.85C146.165 533.455 148.081 535.093 148.225 533.449C148.244 533.243 148.208 533.137 148.23 532.931C148.295 532.325 148.556 532.013 148.908 531.812C150.016 531.182 150.469 530.176 149.685 529.177C148.835 528.096 147.255 528.747 146.961 530.094C146.831 530.69 146.697 531.272 146.556 531.85ZM116.37 713.53C116.293 713.401 116.161 713.313 116.017 713.358C115.762 713.437 115.522 713.688 115.492 713.953C115.393 714.833 115.293 715.712 115.194 716.592C115.178 716.732 115.148 716.87 115.104 717.004C115.088 717.053 115.072 717.101 115.057 717.149C114.62 718.464 115.358 719.265 115.946 718.011C116.033 717.827 116.156 717.647 116.306 717.47C117.051 716.59 117.475 715.452 116.91 714.452C116.736 714.145 116.554 713.838 116.37 713.53ZM158.434 520C157.719 521.562 160.227 522.17 160.592 520.493C160.612 520.404 160.627 520.313 160.637 520.22C160.687 519.776 160.086 519.036 159.861 519.012C159.733 518.998 159.368 519.104 159.074 519.239C158.752 519.386 158.581 519.679 158.434 520ZM114.901 727.665C114.445 728.641 116.245 728.633 116.258 727.558C116.267 726.783 115.364 726.794 114.996 727.478C114.962 727.54 114.931 727.602 114.901 727.665ZM183.706 389.005C184.294 389.691 185.467 389.603 185.965 388.845C186.435 388.129 186.33 387.006 185.482 386.89C184.918 386.813 184.422 387.11 183.811 387.711C183.313 388.103 183.222 388.442 183.706 389.005ZM158.36 477.729C157.571 478.015 157.454 479.055 158.16 479.505C158.83 479.931 159.283 479.778 159.702 479.393C159.942 479.172 160.221 478.934 160.258 478.61C160.294 478.286 160.088 477.976 159.843 477.761C159.457 477.422 158.924 477.442 158.36 477.729ZM155.949 468.697C156.075 469.307 156.812 469.495 157.236 469.037C157.646 468.594 157.654 468.28 157.196 467.867C156.641 467.366 155.797 467.964 155.949 468.697ZM188.679 355.377C187.94 355.473 187.74 356.48 188.256 357.015C188.728 357.506 189.484 357.231 189.694 356.581C189.715 356.517 189.735 356.454 189.754 356.391C189.923 355.83 189.498 355.294 188.915 355.35C188.838 355.357 188.759 355.366 188.679 355.377ZM103.087 760.389C103.645 761.142 104.842 760.012 104.625 759.1C104.431 758.286 103.305 758.568 103.055 759.369C102.912 759.827 102.917 760.159 103.087 760.389ZM178.895 394.449C178.962 395.116 179.864 395.27 180.392 394.854C180.514 394.758 180.542 394.693 180.597 394.548C180.772 394.08 180.784 393.622 180.354 393.316C180.141 393.164 179.866 393.132 179.625 393.237C179.486 393.298 179.338 393.381 179.225 393.466C179.058 393.591 178.952 393.793 178.909 393.997C178.881 394.131 178.878 394.281 178.895 394.449ZM172.883 403.661C172.948 403.084 172.273 402.632 171.882 403.062C171.507 403.475 171.534 403.718 171.873 404.032C172.239 404.372 172.827 404.158 172.883 403.661ZM789.336 32.7812C789.713 32.8022 789.896 32.2583 789.672 31.9555C789.654 31.9315 789.634 31.9116 789.61 31.8929C789.024 31.4247 788.393 31.3477 787.697 31.8425C787.629 31.8914 787.586 31.9691 787.577 32.0528C787.557 32.2256 787.682 32.3825 787.85 32.4252C788.258 32.5289 788.739 32.7211 789.094 32.76C789.158 32.767 789.24 32.7759 789.336 32.7812ZM157.673 486.674C157.889 486 157.101 485.468 156.821 486.118C156.738 486.312 156.683 486.525 156.657 486.755C156.65 486.812 156.659 486.871 156.675 486.927C156.735 487.135 156.956 487.234 157.167 487.184C157.172 487.183 157.177 487.182 157.182 487.181C157.408 487.126 157.602 486.896 157.673 486.674ZM415.784 178.923C416.216 178.97 416.396 178.35 415.962 178.329C415.841 178.323 415.72 178.34 415.6 178.386C415.3 178.5 415.466 178.888 415.784 178.923ZM100.727 791.549C100.425 791.169 99.7815 790.996 99.664 791.468C99.6094 791.687 99.5996 791.906 99.6306 792.134C99.7456 792.977 100.955 792.706 100.833 791.865C100.828 791.831 100.823 791.797 100.817 791.764C100.801 791.674 100.784 791.62 100.727 791.549ZM614.634 287.535C614.552 286.896 613.547 286.362 613.237 286.929C613.188 287.019 613.188 287.044 613.162 287.143C612.998 287.775 613.539 288.606 614.166 288.674C614.391 288.699 614.642 288.502 614.667 288.28C614.689 288.08 614.671 287.832 614.634 287.535ZM73.5689 929.131C73.593 929.241 73.6939 929.325 73.8065 929.337C73.9515 929.353 74.0733 929.247 74.0896 929.102C74.1549 928.524 74.2202 927.946 74.2855 927.367C74.3106 927.145 73.8849 926.874 73.6595 926.849C73.5541 926.838 73.4378 926.923 73.3413 927.04C73.1406 927.283 73.1941 927.618 73.2793 927.921C73.3807 928.281 73.4752 928.702 73.5689 929.131ZM134.805 608.515C135.132 608.348 135.335 607.944 135.142 607.633C135.016 607.428 134.854 607.28 134.611 607.254C134.503 607.242 134.331 607.327 134.181 607.418C133.984 607.539 133.875 607.756 133.934 607.979C133.95 608.039 133.969 608.104 133.991 608.171C134.101 608.514 134.483 608.679 134.805 608.515ZM147.274 525.915C147.347 526.41 148.159 526.44 148.594 526.192C148.954 525.987 148.862 525.634 148.665 525.272C148.657 525.257 148.649 525.242 148.64 525.228C148.54 525.047 148.35 524.94 148.146 524.905C147.723 524.833 147.226 524.781 147.252 525.38C147.255 525.459 147.257 525.54 147.255 525.619C147.252 525.717 147.259 525.815 147.274 525.915ZM130.951 661.398C131.042 661.51 131.284 661.585 131.377 661.474C131.632 661.169 131.964 660.873 132.19 660.564C132.23 660.511 132.226 660.439 132.184 660.387C132.119 660.308 131.995 660.314 131.931 660.395C131.709 660.675 131.41 660.948 131.177 661.227C131.084 661.338 130.861 661.287 130.951 661.398ZM481.442 179.018C480.94 179.041 480.975 179.766 481.377 180.066C481.484 180.146 481.593 180.226 481.706 180.302C481.92 180.443 482.276 180.214 482.41 179.994C482.473 179.891 482.436 179.848 482.386 179.739C482.169 179.264 481.857 178.999 481.442 179.018ZM150.117 508.257C150.079 508.443 150.137 508.844 150.304 508.934C150.366 508.968 150.429 508.994 150.495 509.001C150.556 509.007 150.605 508.979 150.648 508.931C150.81 508.748 150.628 508.239 150.403 508.145C150.384 508.137 150.366 508.129 150.348 508.122C150.239 508.079 150.14 508.142 150.117 508.257ZM592.767 388.442C592.459 388.818 592.508 389.675 592.982 389.778C593.163 389.818 593.285 389.736 593.43 389.621C593.665 389.435 593.932 389.082 593.949 388.926C593.974 388.704 593.348 388.186 593.123 388.161C593.023 388.15 592.908 388.271 592.767 388.442ZM106.642 779.424C106.844 779.391 106.874 779.137 106.801 778.945C106.763 778.844 106.729 778.744 106.662 778.64C106.626 778.584 106.564 778.549 106.498 778.558C106.488 778.56 106.478 778.561 106.467 778.563C106.256 778.604 106.171 779.018 106.246 779.22C106.292 779.344 106.383 779.437 106.516 779.435C106.558 779.435 106.599 779.431 106.642 779.424ZM158.56 505.427C158.291 505.514 158.055 505.866 158.135 506.137C158.136 506.14 158.137 506.144 158.138 506.148C158.2 506.349 158.446 506.384 158.633 506.285C158.788 506.203 158.956 506.123 159.1 506.04C159.215 505.973 159.287 505.927 159.246 505.801C159.176 505.587 158.888 505.318 158.674 505.39C158.635 505.403 158.597 505.415 158.56 505.427ZM186.733 379.717C186.007 379.656 185.642 381.17 186.366 381.25C186.591 381.274 187.092 380.879 187.117 380.658C187.142 380.436 186.992 379.745 186.767 379.72C186.755 379.719 186.744 379.718 186.733 379.717ZM180.154 389.783C180.132 389.979 180.396 389.874 180.505 389.709C180.543 389.651 180.581 389.593 180.61 389.534C180.647 389.458 180.539 389.364 180.467 389.321C180.35 389.253 180.204 389.345 180.189 389.479C180.177 389.581 180.166 389.682 180.154 389.783ZM179.388 406.695C179.444 406.802 179.645 406.828 179.712 406.725C179.764 406.645 179.819 406.566 179.851 406.483C179.876 406.42 179.854 406.351 179.811 406.298L179.738 406.208C179.699 406.16 179.642 406.124 179.583 406.14C179.511 406.16 179.463 406.214 179.406 406.285C179.329 406.381 179.331 406.586 179.388 406.695ZM140.591 583.8C140.532 583.7 140.399 583.688 140.294 583.738C140.14 583.812 139.991 583.84 139.834 583.936C139.776 583.972 139.739 584.036 139.749 584.104C139.755 584.142 139.765 584.181 139.778 584.22C139.832 584.392 140.203 584.497 140.357 584.401C140.511 584.305 140.691 583.976 140.601 583.819C140.598 583.813 140.594 583.807 140.591 583.8ZM158.101 482.18C158.053 482.218 158.079 482.227 158.086 482.287C158.1 482.396 158.151 482.508 158.189 482.619C158.223 482.714 158.369 482.778 158.448 482.715C158.472 482.697 158.487 482.669 158.491 482.639C158.501 482.546 158.512 482.45 158.525 482.336C158.547 482.136 158.259 482.055 158.101 482.18ZM154.628 493.908C154.313 493.972 154.24 494.476 154.359 494.773C154.397 494.867 154.422 494.854 154.519 494.883C154.983 495.024 155.757 494.724 155.78 494.524C155.797 494.373 155.606 494.2 155.412 494.096C155.256 494.014 155.09 493.906 154.914 493.887C154.83 493.877 154.733 493.887 154.628 493.908ZM814.413 45.3682C814.296 45.4603 814.188 45.7029 814.234 45.8439C814.307 46.0664 814.327 46.3018 814.489 46.3195C814.576 46.329 814.662 46.3385 814.751 46.3354C815.013 46.326 815.065 45.9974 814.942 45.7657C814.898 45.6829 814.855 45.5985 814.81 45.5179C814.724 45.3596 814.556 45.2561 814.413 45.3682ZM586.53 319.472C586.232 319.599 586.286 320.132 586.585 320.253C586.726 320.31 586.706 320.215 586.838 320.14C586.98 320.058 587.145 319.979 587.297 319.899C587.48 319.802 587.433 319.477 587.304 319.318C587.205 319.196 587.117 319.245 586.969 319.299C586.816 319.356 586.667 319.413 586.53 319.472ZM156.094 491.459C156.21 491.528 156.411 491.45 156.485 491.337C156.533 491.263 156.581 491.189 156.609 491.114C156.63 491.057 156.61 490.995 156.572 490.948C156.494 490.852 156.352 490.836 156.257 490.915C156.128 491.023 156.014 491.133 155.953 491.248C155.913 491.322 156.021 491.417 156.094 491.459ZM89.237 847.886C89.3205 847.896 89.4179 847.837 89.4399 847.756C89.4449 847.738 89.451 847.721 89.4591 847.706C89.5139 847.601 89.4105 847.456 89.2932 847.443C89.2209 847.435 89.2313 847.496 89.2303 847.569C89.2302 847.577 89.2303 847.585 89.2307 847.593C89.2381 847.729 89.1018 847.872 89.237 847.886ZM462.732 172.751C462.728 172.787 462.754 172.819 462.79 172.823C462.848 172.83 462.886 172.762 462.848 172.716C462.812 172.671 462.738 172.692 462.732 172.751ZM611.937 292.25C611.937 292.25 611.937 292.251 611.937 292.251C612.051 292.263 612.171 292.219 612.291 292.175C612.477 292.108 612.634 291.877 612.438 291.856C612.324 291.843 612.203 291.888 612.083 291.931C612.083 291.931 611.937 292.25 611.937 292.25ZM82.2361 901.003C82.2681 901.042 82.3084 901.027 82.3484 900.996L82.4521 900.914C82.4998 900.876 82.5338 900.819 82.5176 900.761C82.5023 900.706 82.4641 900.641 82.3715 900.617C82.3432 900.609 82.3135 900.619 82.2904 900.637L82.2544 900.665C82.189 900.717 82.1838 900.938 82.2361 901.003ZM75.9375 947.096C75.7415 947.075 75.5147 946.799 75.5368 946.603C75.5091 946.848 75.6853 947.068 75.9306 947.095C75.9329 947.095 75.9352 947.096 75.9375 947.096ZM436.426 183.425C436.448 183.234 436.636 183.061 436.704 182.876C436.725 182.818 436.705 182.757 436.667 182.71C436.589 182.614 436.448 182.6 436.337 182.655C436.304 182.672 436.272 182.687 436.242 182.701C436.075 182.779 436.189 182.952 436.31 183.092C436.391 183.186 436.44 183.309 436.426 183.425ZM84.7742 853.565C84.7152 853.632 84.7038 853.734 84.7597 853.803C84.8145 853.87 84.9133 853.881 84.9817 853.827L85.0342 853.786C85.082 853.748 85.1185 853.691 85.1034 853.633C85.0673 853.492 84.9126 853.444 84.9336 853.258C84.9203 853.376 84.8434 853.487 84.7742 853.565ZM237.776 263.395C237.771 263.458 237.815 263.514 237.877 263.52C237.94 263.527 237.996 263.482 238.003 263.42C238.006 263.388 238.01 263.351 238.015 263.311C238.029 263.188 237.941 263.078 237.818 263.065C237.761 263.058 237.704 263.052 237.589 263.04C237.776 263.06 237.791 263.216 237.776 263.395ZM78.8324 903.057C78.7453 902.811 78.2987 902.92 78.1868 903.157C78.1792 903.173 78.1723 903.189 78.1663 903.205C78.1453 903.262 78.1653 903.324 78.2035 903.371C78.2815 903.467 78.4227 903.481 78.5337 903.425C78.6994 903.342 78.8265 903.313 78.845 903.149C78.8484 903.119 78.8435 903.088 78.8324 903.057ZM72.3551 947.795C72.3938 947.888 72.54 947.953 72.6192 947.89C72.643 947.872 72.6584 947.844 72.6569 947.814C72.654 947.755 72.6379 947.647 72.5689 947.522C72.527 947.446 72.4263 947.436 72.3579 947.49L72.351 947.495C72.2849 947.547 72.2757 947.642 72.3165 947.716C72.3317 947.743 72.3445 947.77 72.3551 947.795ZM171.518 407.402C171.478 407.226 171.26 407.316 171.092 407.385C171.036 407.408 170.981 407.427 170.925 407.448C170.711 407.527 170.585 407.837 170.812 407.862C170.812 407.862 170.812 407.862 170.812 407.862C170.958 407.878 171.105 407.894 171.259 407.848C171.436 407.796 171.559 407.583 171.518 407.402ZM124.365 653.545L124.615 653.347L124.365 653.545ZM148.306 506.658C148.355 506.755 148.476 506.669 148.488 506.56C148.496 506.494 148.503 506.427 148.511 506.36C148.522 506.26 148.407 506.197 148.328 506.259C148.304 506.278 148.289 506.305 148.286 506.336C148.272 506.459 148.265 506.577 148.306 506.658ZM140.964 577.839C141.023 577.846 141.06 577.778 141.023 577.732C140.986 577.687 140.913 577.708 140.906 577.766C140.902 577.803 140.928 577.835 140.964 577.839ZM150.318 532.799C150.327 532.717 150.233 532.664 150.167 532.716C150.126 532.748 150.12 532.807 150.152 532.848C150.205 532.912 150.309 532.881 150.318 532.799ZM159.162 467.597C159.221 467.66 159.318 467.673 159.386 467.619C159.456 467.564 159.467 467.463 159.411 467.394C159.357 467.327 159.258 467.316 159.189 467.37C159.052 467.478 159.012 467.509 158.812 467.667C159.011 467.51 159.052 467.478 159.162 467.597Z" fill="currentColor"/>
</g>
</svg>
