<svg width="538" height="285" fill="none" xmlns="http://www.w3.org/2000/svg"><path opacity=".2" d="M689.676 377.719c-.901-.251-1.8-1.646-2.537-2.332a1.975 1.975 0 0 0-.859-.461c-1.103-.234-2.195-.616-3.349-.154-.785.314-2.192.105-3.448-.096-.871-.054-1.794-.261-2.022.409-.049.143-.097.287-.144.435-.068.214-.274.338-.557.294a17.766 17.766 0 0 1-.543-.094c-.473-.088-.773-.62-.411-.766a.234.234 0 0 0 .095-.068c.337-.37.305-.603-.17-.916-.156-.103-.255-.154-.389-.115-.207.061-.555.075-.809-.045-1.306-.617-2.536-.683-3.731-.649-.521-.033.072.912.582 1.248.142.094.245.197.331.329.303.466-.116.823-.633.746-.357-.053-.715-.106-1.044-.188-1.638-.33-3.252-.975-4.75-.942-.213.004-.427.022-.658-.057-.245-.085-.519-.233-.824-.411-.837-.489-1.624-.647-2.283-.383-.659.264-1.641.153-2.513-.187-.628-.245-1.264-.388-1.918-.289-.283.066-.697-.048-1.138-.178-.409-.121-.836-.277-1.244-.389a2.233 2.233 0 0 0-.987-.035c-.549.088-1.089.201-1.68.164-.759-.048-1.643-.467-2.402-.515-3.574-.467-7.174-.572-10.623-.667-1.062-.067-2.166-.257-2.94-.791-.926-.543-1.382-.572-2.098-.496-.951.22-2.168-1.565-3.13-1.364a1.615 1.615 0 0 0-.23.064c-.784.286-1.358.986-2.375.654a10.385 10.385 0 0 1-1.174-.478c-1.037-.485-2.079-.659-3.022-.583-.658.053-1.302.083-1.895.116-.968.054-2.087-.338-2.928.094-.092.047-.159.121-.269.143-.272.054-.637-.165-.958-.255-1.995-.559-3.853-.364-5.819-.488-1.214-.076-2.14-.619-3.286-.934-.649-.162-1.214-.076-1.711-.228-.318-.08-.6-.157-.881-.234-.571-.157-1.017-.593-1.499-1.013a2.603 2.603 0 0 0-.316-.24 1.698 1.698 0 0 0-.662-.225c-.39-.047-.348.35-.462.636-.184.46-.901.415-1.617.37-.607-.038-1.214-.076-1.862-.238-3.051-.676-6.018-1.105-8.901-1.287a16.07 16.07 0 0 1-5.494-1.315c-1.272-.686-2.596-.648-3.339-.209-1.225.771-2.59.686-4.317-.029-1.23-.562-2.485-.763-3.616-.591-1.024.155-2.312-.501-3.481-.744a12.526 12.526 0 0 0-2.798-.257c-.565.086-1.214-.076-1.863-.238-2.056-.372-3.919-.61-5.85-.61-.494.038-1.007-.122-1.671-.465-1.154-.596-2.336-.804-3.338-.611a4.95 4.95 0 0 1-1.083.09c-.732-.021-1.177-.532-.59-.768.418-.167.229-.847-.325-1.049-.222-.081-.415-.127-.572-.116-.059.004-.118.012-.179.012-1.846-.011-3.536-.346-5.469-1.032-.101-.035-.144-.055-.239-.059-.369-.013-.57.341-.291.664.347.404.862.692 1.377.98a.942.942 0 0 1 .115.098c.33.321.372.753.049.865-.248.086-.592-.016-.901-.053-.623-.074-1.287-.213-2.047-.357-.824-.157-.935-.178-1.072.596a.542.542 0 0 1-.545.467 5.273 5.273 0 0 1-1.665-.23c-.45-.13-.556-.584-.152-.618.209-.018.461.126.669.284.15.114.309.146.539.102.033-.007.061-.005.09-.016.193-.075-.07-.537-.324-.609a.382.382 0 0 0-.078-.015c-.422-.026-.894-.244-1.336-.426a1.4 1.4 0 0 0-.762-.069c-.212.032-.866.13-1.077-.044a89.298 89.298 0 0 0-.766-.629c-.137-.111-.31-.154-.426-.104l-.107.049c-.26.126-.699.043-.984-.241l-.083-.083c-.287-.289-.706-.41-.959-.27l-.096.052c-.357.191-.336.707.088 1.089l.088.08c.563.506.503 1.172-.149 1.114-2.269-.204-4.643-1.185-6.385-.759-.559.137-1.751-.156-1.35-.483.058-.048.113-.07.176-.113.231-.158.439-.292.651-.429.378-.245.922-.286 1.502-.11.182.055.366.109.551.161 1.414.396 1.345-.873-.004-.958-1.091-.068-2.29-.453-3.155-.075-.378.166-.929.117-1.34-.278a1.315 1.315 0 0 0-.716-.357c-2.347-.274-4.727-.648-7.07-.91-1.206-.179-2.338.179-3.628-.157-.436-.114-.999-.386-1.228-.148-.061.063-.168.124-.263.205-.156.134-.122.413.085.628.13.135.296.17.465.228.504.174 1 .324 1.444.319.461-.006.803-.236 1.262-.245.502-.01 1.04.153 1.606.609.204.164.362.22.497.213.923-.045 1.811.412.968.607-.565.085-1.282.162-1.931 0-.952-.182-1.904-.363-2.747-.658-.994-.305-1.794-.477-2.579-.162-.372.219-1.283.162-1.67-.105-1.548-1.067-2.899-.667-4.39-1.124-1.182-.363-2.019-.016-3.03.166l-.031.005c-.102.024-.207.04-.316.05-.698.064-1.205.431-1.547.909-.097.136-.248.136-.449.149-.796.053-1.683.068-2.429-.193-.726-.301-1.412-.48-2.094-.498-.608-.015-1.125.174-1.742.135-.973-.061-2.193-.85-3.099-.373-.17.09-.327.181-.57.094-.088-.032-.21-.104-.296-.144-.674-.312-1.325-.558-1.992-.85-.235-.103-.348-.399-.341-.595.003-.081-.063-.14-.154-.2-.526-.35-1.009-.603-1.365-.848-.379-.261-.046-.941-.923-1.14a.476.476 0 0 0-.097-.015c-.41-.027-.874.05-1.032.334a.96.96 0 0 0-.088.202c-.046.16-.023.324-.036.449-.012.111-.158.156-.277.173-.167.024-.346-.116-.533-.212-1.5-.774-2.73-.723-3.943-.25-.034.014-.056.024-.077.051-.158.203.192.598.529.658l.111.02c.345.063.709.416.658.691-.093.511-.435.464-1.945-.032-.375-.123-.631-.555-.661-.88-.009-.09-.056-.133-.141-.211a3.04 3.04 0 0 0-.843-.543c-.346-.143-.607-.038-.953-.181-1.857-.671-2.015-.729-2.926-.697-.18.006-.329.068-.373.214-.033.109-.087.211-.109.325-.162.811-.68.977-1.61.691-.843-.295-1.837-.6-2.679-.896-1.965-.71-3.773-.956-5.31-.401-.102.037-.223.051-.294.121-.055.055-.164.054-.248.078-1.436.402-1.642.414-2.711-.933-.304-.382-.26-.735-.024-.98.159-.165.019-.536-.238-.757-.65-.56-1.391-.894-2.175-1.099-.304-.079-.562-.411-.383-.559.154-.129.086-.448-.177-.555-1.063-.434-2.087-.482-3.08-.442-.739-.046-1.496-.588-2.235-.634-.189-.012-.376-.002-.565.005-.642.024-1.428-.162-1.795.219-.085.089.249.352.512.586a.96.96 0 0 1 .269.406c.034.1.087.201.157.297.225.309.446.606.641.827.028.031.046.073.083.093a.203.203 0 0 0 .073.021c.151.019.453-.166.312-.268-.039-.029-.075-.033-.116-.06a7.518 7.518 0 0 0-.093-.061c-.395-.252-.383-.617.019-.581.286.025.561.034.796-.002.149-.011.3-.015.453-.012 1.059.026 1.597 1.235 1.004 1.846-.178.183-.456.31-.776.293-1.289-.069-2.497-.516-3.836-1.355-.518-.289-1.111-.584-1.673-.876-.424-.22-.854-.725-.566-.903.489-.304.624-.764-.094-1.15-.665-.357-1.378-.507-2.01-.254-.736.295-1.292-.038-2.086-.426-.109-.053-.173-.097-.283-.138-.503-.187-.944.102-.874.545.105.668.62 1.273 1.071 1.944.501.793-.912.445-1.688-.193-.787-.648-1.629-1.138-2.698-1.104-.207.007-.529-.209-.678-.401-.178-.228-.004-.304.255-.273 1.223.144 1.527.129 2.071-.296.229-.18.014-.693-.349-.716-1.711-.228-3.338-.209-4.939-.553-.947-.236-1.437-.057-1.879.184-.304.165-.456.606-.038.86.229.139.496.192.733.279.212.077.371.391.192.428-.032.007-.066.007-.097.013-.411.082-.989.051-1.387.142-1.088.296-2.192.105-3.354-.695a.514.514 0 0 0-.269-.071c-.293-.015-.284.339-.144.617.02.039.029.054.053.092.552.85.407 1.307-.294 1.382-1.131.171-2.413.333-3.627.257-1.124.046-2.479-.592-3.732-.93-.107-.029-.267-.057-.373-.108-.125-.062-.185-.127-.284-.227-.565-.576-.875-1.025-1.372-1.28-.624-.258-1.071-.153-1.425.071-.415.263-1.159.207-1.784-.079-.257-.118-.326-.025-.525.05-.474.178-1.012.166-1.568.1-1.162-.14-2.487-1.357-1.641-1.79.481-.334-.267-1.23-1.026-1.277a1.404 1.404 0 0 0-.132-.003c-.723.011-.885.828-1.392 1.161-.634.417-1.997-.349-2.956-.502a1.856 1.856 0 0 0-.167-.02c-.612-.051-1.256-.12-1.829-.548-.555-.415-1.118-.822-1.878-1.023-.47-.126-.795.082-.831.467-.025.279-.178.536-.494.54-.193.002-.384.018-.498.137-.812.677-1.958.362-2.857-.543-.468-.511-.867-.433-1.296-.441-.414-.008-.776-.413-.812-.796l-.006-.065c-.033-.401-.305-.842-.734-1.134a53.707 53.707 0 0 0-1.163-.772c-.414-.267-.84-.128-.656.271.134.291.059.62-.248.598a5.089 5.089 0 0 1-1.66-.421c-.369-.159-.57-.521-.376-.723.195-.202.081-.656-.267-.881a6.05 6.05 0 0 0-.675-.39c-.598-.281-.645.336-.163.805.433.422.329.901-.148.961-.358.045-.723.084-1.1.127-.673.077-1.36-.401-2.061-.884-.387-.267-1.078-.553-1.492-.458-.507.039-.935.166-1.367.303-.613.193-1.434.085-2.206-.202-1.083-.402-2.101-.413-2.861-.014l-.056.028c-.251.129-.548.24-.899.073a2.692 2.692 0 0 1-.334-.188c-.194-.133.026-.362-.058-.61-.073-.216-.118-.458-.353-.5-.845-.149-1.326.211-1.729.491-.554.443-1.237.501-1.99.356-.392-.076-.737-.318-1.066-.616a1.893 1.893 0 0 0-.83-.412c-.421-.09-.849-.18-1.306-.272-.549-.111-1.124-.208-1.655-.522a1.105 1.105 0 0 1-.249-.193c-1.606-1.677-3.51-2.039-5.415-2.401-1.104-.191-2.292-.629-3.255.038-.811.676-1.502.39-3.05-.677-.388-.267-.885-.419-1.036-.429-1.383.056-2.87-1.055-4.32-1.176a5.742 5.742 0 0 1-1.714-.415c-1.023-.468-2.028-1.187-3.094-1.882-.409-.267-.865-.366-1.237-.297l-.366.068c-.268.051-.614-.063-.868-.305a10.841 10.841 0 0 1-.244-.239c-.341-.345-.857-.435-.99-.128-.073.168-.29.24-.528.184-.308-.073-.616-.146-.833-.314-.118-.09-.204-.211-.316-.308-.612-.526-.724-.033-1.093.061-.154.039-.355-.056-.536-.159a33.47 33.47 0 0 1-1.757-1.066c-.277-.181-.349-.488-.149-.606.165-.097.174-.456-.059-.598a.15.15 0 0 0-.074-.024c-.455-.029-1.02.057-1.517-.096-2.812-.886-3.409-1.172-4.489-1.093-1.744.128-3.596-.276-5.532-.87-.825-.157-1.557-.035-2.599.026-.328.019-.549.013-.902-.169-.787-.404-1.728-.517-2.44-.438-.94.104-2.067-.215-3.415-.734-1.878-.724-3.825-1.211-5.745-2.059-2.655-1.099-5.272-2.084-7.962-3.284-.216-.097-.481-.223-.699-.305-.161-.061-.202-.193-.293-.335-.801-1.248-1.931-.882-2.939-.945l-.154-.011c-.619-.043-1.218-.485-1.864-.746a2.403 2.403 0 0 0-.688-.171c-.296-.027-.585.023-.889-.114-.314-.142-.554-.425-.844-.629-1.622-1.143-3.684-1.354-5.424-2.465-.361-.249-.948-.407-1.429-.55a.883.883 0 0 0-.203-.038 10.469 10.469 0 0 0-.43-.02c-.362-.008-.818-.417-.928-.765-.04-.129-.125-.206-.247-.308-.14-.118-.281-.238-.384-.244-1.669-.105-3.218-1.173-4.861-1.64-.649-.162-1.506-.943-1.977-1.458-1.026-1.277-2.711-1.867-4.202-2.325-2.14-.619-3.908-1.458-5.624-3.021-1.094-1.038-2.972-1.763-4.547-2.468-.884-.419-1.423-.696-2.088-1.344-.706-.772-1.412-1.543-2.668-1.744-.152-.009-.346-.143-.539-.276-2.904-2.001-5.766-3.879-8.518-5.87-1.355-.934-2.778-1.63-3.955-2.916-.942-1.029-1.994-1.944-3.349-2.878-1.119-.677-2.103-1.83-3.113-2.621-2.061-1.706-3.945-3.764-6.378-5.251-.387-.266-.706-.772-.983-1.153-.555-.762-1.219-1.41-2.103-1.829-1.036-.429-1.811-.963-2.213-1.716a2.121 2.121 0 0 0-.151-.195c-1.206-1.387-2.58-3.132-4.045-4.312-1.397-1.058-2.077-2.192-2.909-3.336-.567-.779-1.602-1.249-2.283-1.973l-.097-.105c-.363-.41-.638-.861-.947-1.295-.838-1.18-1.543-2.352-2.574-3.545-1.177-1.286-2.203-2.563-3.118-3.955-1.49-2.048-3.186-4.444-4.734-6.471a7.078 7.078 0 0 0-.686-.781c-.9-.905-1.731-2.048-2.218-3.049-1.444-2.516-2.777-5.146-4.111-7.776-.595-.942.384-1.524.033-2.487-.161-.443-.517-.928-.765-1.439-.445-.877-1.303-1.658-.879-2.602.128-.253-.18-.66-.57-1.153-.287-.363-.321-.765-.097-.999.324-.337.052-.884-.518-1.277-.209-.144-.377-.316-.457-.554-.335-.991-1.208-2.258-1.046-3.097a1.66 1.66 0 0 0-.017-.479c-.339-1.866-3.373-3.885-3.053-5.534.078-1.086-.105-2.068-1.02-3.459-.331-.413-.573-1.478-.584-2.304-.009-.728.748-1.168.485-1.946-.167-.495-.286-.986-.288-1.448-.001-.538.023-1.098-.151-1.611-.251-.744-1.26-1.535-1.705-2.411-.319-.505-.46-1.363-.24-1.592.811-.676-.586-1.734-.23-2.439.356-.705.45-1.306-.146-2.192-.684-.94.183-1.714.307-2.583.02-.137.027-.278.013-.428l.003-.069c.058-1.332-2.077-2.324-2.169-3.705-.153-1.133 1.107-1.558 1.03-2.671-.078-1.139-.058-2.252.41-3.18.136-.476-.073-1.096-.24-1.591a.552.552 0 0 0-.127-.195c-.195-.208-.589-.37-.769-.273-.182.098-.541.007-.67-.228-.199-.365-.263-.707.305-.838.446-.068.651-.302.71-.638.032-.182.033-.377.075-.555.307-1.327.519-3.014.399-4.503l-.006-.051c-.141-.857.064-1.572.226-2.41.12-.963.545-1.906-.329-3.174-.267-.465-.142-.972-.02-1.448.072-.284-.082-.626-.446-.814-.387-.2-.722-.6-.72-.933.003-.675.107-1.318 1.072-1.541.846-.195 1.171-.705 1.138-1.327-.032-.589-.397-1.237-.551-1.851-.125-.504-.177-1.004-.033-1.491.029-.097.089-.185.108-.287.054-.291-.321-.596-.596-.897a2.003 2.003 0 0 1-.56-1.373c-.023-.661.678-.644 1.416-.597.607.038.634-.324.66-.686l.11-3.631c.011-.848.132-1.811.446-2.64.415-1.236.635-2.485.817-3.736.083-.568-.521-1.65-.884-1.257a.53.53 0 0 0-.112.298c-.062.529-.038 1.064-.24 1.585a.2.2 0 0 1-.061.088.918.918 0 0 1-.1.07c-.181.114-.725-.003-.69-.222.008-.052.034-.084.041-.137.112-.815.36-1.538.598-2.33a.536.536 0 0 1 .484-.393c.084-.008.169-.015.254-.021.372-.029.49-.368.279-.739a27.442 27.442 0 0 0-.174-.304c-.255-.445.139-.761.636-.602.299.096.493-.027.541-.26.248-1.209.437-1.417 2.328-2.877.198-.153-.088-.408-.188-.703-.225-1.105-.643-2.344.362-2.887.161-.095.284-.198.383-.306.635-.691.916-1.652 1.384-2.469.227-.395.474-.776.752-1.153.075-.1.133-.237.216-.33.194-.22.315-.461.347-.778.128-1.283 1.042-2.101 1.922-3.016.329-.343.617-.81.602-1.296-.131-1.706 1.356-2.583 2.303-3.736.549-.571.906-1.276 1.068-2.115l.025-.083c.363-1.169-.393-3.086-1.788-2.938-1.13.172-2.512-.4-3.49-.219-1.131.171-2.276-.143-3.449-.095-.774.022-1.642-.086-2.542-.224-1.245-.19-2.397-1.269-3.633-1.422a1.266 1.266 0 0 0-.747.168c-.166.102-.351.216-.613.277-1.669.469-2.203.357-3.781-1.191-.186-.182-.401-.406-.624-.42-.946-.163-.583.646-.884 1.007-.096.116-.362.021-.532-.127-.453-.393-1.897-1.465-2.311-1.316a3.044 3.044 0 0 0-.169.065c-.328.133-.867-.213-1.235-.532-.398-.346-.94-.492-1.427-.658-.646-.219-1.469-.649-1.934-.427-.427.204-.593.543-.774.839-.133.219-.344.398-.668.374-.658-.049-1.319-.637-1.657-.559-1.088.295-2.014-.248-3.05-.677-1.036-.429-2.25-.505-3.286-.934-1.533-.581-3.025-1.039-4.584-1.258-.89-.154-1.807-.388-2.729-.637-.395-.107-.718-.003-.91.225-.145.173-.446.231-.746.146-1.307-.37-2.686-.626-4.057-.527a1.494 1.494 0 0 1-.268.002 2.197 2.197 0 0 1-1.012-.406c-.427-.312-.835-.767-1.47-.719-.566.086-1.283.162-1.89.124-.731-.046-1.532-.424-2.294-.6-.747-.171-1.488-.325-2.247-.534-.649-.162-1.298-.324-1.837-.6a.726.726 0 0 1-.117-.075c-1.075-.818-1.869-.777-3.017-.85-1.408-.209-2.564.324-4.029-.495-.482-.247-.897-.296-1.245-.147-.085.036-.166.077-.262.096-.494.097-.998-.055-1.54-.364-.247-.141-.385-.484-.227-.602.062-.046.127-.061.178-.117.185-.201.311-.405-.028-.639l-.009-.006c-.515-.34-1.052-.113-1.49.026-1.03.328-2.315.242-3.574-.457-.788-.437-1.54-.856-2.326-1.24-.539-.276-1.036-.429-1.449-.334-2.749.36-5.408-1.052-8.195-2.195-.561-.23-.936-.841-.725-1.21.166-.292-.014-.776-.44-1.022a3.156 3.156 0 0 0-.367-.185c-.994-.305-1.837-.6-2.721-1.02-1.23-.562-2.679-.896-3.935-1.096-1.795-.476-3.715-1.324-5.494-1.315-1.214-.076-2.637-.772-3.799-1.572-.822-.482-1.882-.98-2.97-1.478-.254-.117-.433-.244-.512-.477-.075-.224-.306-.538-.554-.626-.634-.224-1.16-.198-1.686-.103-.81.147-1.95-.311-2.78-.976-.84-.674-1.682-1.486-2.325-1.098-.208.126-.464.216-.852.174a2.053 2.053 0 0 1-.567-.167c-2-.852-4.226-2.044-6.114-3.436-1.92-1.416-3.605-2.13-5.493-1.839a1.22 1.22 0 0 1-.306.02c-.369-.023-.826-.171-1.125-.478-.474-.487-.881-1.041-1.861-1.286-1.885-.404-3.656-1.709-5.543-2.546a5.457 5.457 0 0 1-1.85-1.313c-.131-.144-.404-.296-.706-.43-.474-.208-.988-.428-1.445-.697-.477-.283-.95-.319-1.446-.536-1.262-.554-2.255-1.47-3.451-2.054-1.36-.665-2.845-.894-3.928-1.82a3.198 3.198 0 0 0-.33-.256c-.237-.152-.486-.22-.737-.328-1.317-.569-2.72-.855-3.931-2.037-.9-.905-2.585-1.496-3.898-2.306-.733-.41-1.507-.943-2.35-1.239-.842-.295-1.575-.705-2.087-1.344-.236-.257-.471-.514-.664-.648-1.465-.82-2.71-1.867-3.998-3.04-1.287-1.172-3.055-2.01-4.714-2.963-2.585-1.496-4.756-3.088-6.598-5.022-.21-.23-.429-.485-.668-.722-.587-.581-1.394-.88-2.052-1.394a6.014 6.014 0 0 1-.656-.594c-.709-.745-1.312-1.545-1.897-2.35-.593-.71-1.064-1.336-1.606-2.01a19.401 19.401 0 0 1-.828-1.133c-.399-.579-1.042-.982-1.552-1.51-.673-.694-1.03-1.496-1.612-2.247-.51-.702-.484-1.679-1.641-2.186-.213-.093-.496-.184-.561-.377-.974-2.485-3.041-4.938-3.533-7.374-.1-.496.066-1.026-.348-1.48-.984-1.152-1.664-2.286-1.172-3.468.162-.565-.554-1.336-.742-2.013-.203-.732-.396-1.485-.183-2.046.696-1.897-.125-3.888-.836-5.994-.314-.93-.02-1.724.084-2.55.077-.608.097-1.227.079-1.805.105-1.449-.135-3.04.357-4.222.67-1.534.236-3.259.602-4.812.34-1.191-.12-2.554.414-3.612.178-.352-.073-1.095-.088-1.581.01-.848-.13-1.706.57-2.268.3-.311.211-.844.11-1.351-.095-.472-.181-.925-.12-1.318.137-.476 1.115-.657.864-1.4-.293-.868.147-1.325.587-1.782.837-1.039 1.178-2.23 1.324-3.555.163-.838.132-1.81 1.372-2.096.261-.105.371-.22.44-.457.256-1.44 1.397-2.459 2.386-3.488.77-.8 1.54-1.601 2.308-2.402.77-.8 1.455-1.848 2.654-2.258.261-.105.371-.22.591-.448A3.395 3.395 0 0 1 16.89-31.8c1.345-.682 2.52-1.544 3.17-2.832.178-.352.508-.695.88-.915.853-.552 1.664-1.229 2.281-2.039.644-1.172 2.104-1.686 3.37-2.334 1.157-.534 2.508-.934 2.654-2.259a.518.518 0 0 1 .139-.213c.301-.302.755-.463 1.19-.62.205-.075.323-.242.396-.433.165-.436.273-.934 1.232-.973.759.047 1.115-.658 1.748-.982 2.397-.82 4.558-1.896 6.803-2.725 1.047-.42 2.287-.705 3.334-1.124.785-.315 1.376-.763 2.203-.953 1.199-.41 2.397-.82 3.679-.982 1.999-.238 4.123-.104 6.316-.209 1.02-.057 1.973.124 2.758-.19.675-.2 1.543-.267 2.511.4.194.133.76.047 1.256.2.763.316 1.303.899 1.98 1.428.643.503 1.489.772 2.305 1.145.691.286 1.01.79.874 1.267-.147 1.325-1.345 1.735-2.695 2.135a2.64 2.64 0 0 1-.919.172c-2.425.066-4.546.5-5.748 2.077-.66.686-1.403 1.124-3.046.657-1.146-.314-2.47-.276-3.49-.22-.607-.037-.937.306-1.308.525l-2.23 1.315c-.713.328-1.425.657-2.348.774-.77.098-1.47 1.126-1.704 1.76-.148.402-.452.716-.955.748-1.219.078-1.695.372-2.383 1.225-.48.5-1.09.78-1.718 1.138-.624.356-.933.943-1.223 1.587-.178.353-.508.696-1.031.906-.669.267-.587 1.112-1.169 1.481-.817.519-1.187 1.383-1.977 1.959-.051.053-.084.162-.085.275-.001.217.256.434.424.655.512.673.077.864-.41 1.056-.23.091-.637-.056-.874-.296-.27-.274-.6-.326-.821-.174a5.268 5.268 0 0 1-.194.128c-.243.152-.214.527.107.785.322.26.458.805.102.767a.437.437 0 0 1-.05-.009c-.068-.015-.139-.038-.205-.044-.894-.088-1.56.152-2.188.436-1.424.646-3.008 1.24-3.846 2.444-.08.115-.157.232-.23.352-.052.088-.112.141-.12.253-.022.352.43.713.696 1.084.073.102.059.198-.151.283-.262.104-.717.076-1.02.057-.617-.04-.948.162-1.067.524-.088.268.245.59.563.549.46-.06 1.054.52.808.83a40.471 40.471 0 0 1-2.535 2.928c-.063.065-.239.084-.427.108-.253.031-.355.214-.267.475.14.416-.145.747-.598.669a11.456 11.456 0 0 1-.87-.175c-.76-.132-1.121-.123-1.234.295-.105.389.405.865.894.896.585.037 1.213.674 1 1.09a2.045 2.045 0 0 1-.624.756c-.362.261-.61.646-.608 1.135.001.51-.103.984-.406 1.358a1.87 1.87 0 0 0-.155.22c-.084.141-.186.28-.287.42-.208.284-.894.343-.934-.065a.476.476 0 0 1 .026-.197c.048-.145.048-.28-.112-.43a.82.82 0 0 0-.423-.202l-.03-.002c-.233-.014-.403.1-.432.297-.045.3-.083.599-.095.9-.014.343.289.734.685.962l.181.104c.25.14.474.374.553.608.024.072.03.131.026.197-.023.33-.03.67.121 1.12.267 1.23.147 2.192-.236 3.26-.518 1.543-.497 3.363-.67 5.05-.037 1.21-.613 2.144-.305 3.497.04.115-.044.25-.163.395-.233.287-.83.264-1.268-.07-.349-.265-.734-.35-.984-.18a1.606 1.606 0 0 1-.3.17c-1.476.59-.756 1.856-.569 3.019.024.148.038.278.111.429.098.202.352.338.57.449 1.378.695 1.273 1.584 1.263 2.373-.037 1.21.575 2.582-.153 3.507-.204.212.154.66.297 1.014.45 1.11-.124 1.93-.324 2.864-.052.724-.34 1.191.298 2.201.417.62.335 1.27.31 1.94-.02.56-.171 1.11.035 1.72.695 1.62 1.39 3.24 2.238 4.869.487 1 1.125 2.01 1.983 2.792.9.905.89 1.754 1.94 2.668a31.16 31.16 0 0 1 4.128 4.746c.32.505 1.026 1.277 1.523 1.43 1.491.457 2.281 1.477 3.29 2.268 1.204.924 2.298 1.963 3.789 2.42 1.142.35 1.816 1.733 2.917 2.356.1.057.203.108.306.15 2.307 1.115 4.369 2.821 6.676 3.936.539.277 1.23.563 1.659.953 1.135 1.163 2.558 1.858 4.133 2.564 1.382.572 2.627 1.62 4.05 2.315 1.23.563 2.375.877 3.537 1.678 2.71 1.867 5.666 3.145 8.775 4.431.69.286 1.423.696 2.003 1.096 1.12.677 2.308 1.115 3.427 1.791 1.12.677 2.24 1.354 3.428 1.792.78.323 1.511.865 2.257 1.319.471.286.934.565 1.405.73a18.296 18.296 0 0 1 4.725 2.116c1.507.943 3.302 1.42 4.725 2.115 2.197 1.23 4.53 1.983 6.796 2.974l.036.014c1.955.825 4.292 1.51 6.249 2.32.505.21.951.48 1.435.58.385.08.973-.045 1.092.307.654 1.496 1.894 1.21 3.04 1.524 1.988.61 4.086 1.106 6.117 1.84.675.236 1.403.632 2.22 1.064.394.208.714.28 1.047.197.425-.105 1.064.125 1.504.5.151.13.309.246.474.335.83.449 1.771.381 2.575.894.836.534 1.692 1.001 2.603 1.273 1.105.331 2.243.562 3.328.74.894.146 1.778.208 2.558.629 1.423.696 2.873 1.03 4.212 1.477 1.643.467 3.396.82 5.081 1.41 1.685.591 3.438.944 5.191 1.297.649.162 1.297.324 1.753.352 1.837.116 3.612 2.494 5.368 2.404a4.41 4.41 0 0 0 1.026-.183c.599-.24 1.345-.177 2.109-.108 1.399.127 2.805-.031 4.306.632.691.286 1.491.457 2.14.62.428.13.855.262 1.283.393.138.043.293.106.427.18.732.405 1.528.66 2.167.531a4.863 4.863 0 0 1 1.677-.061c.954.14 1.966.405 2.912.518 1.793.214 3.737.972 5.584.897.565-.085 1.407.21 2.056.372 4.193.991 8.435 1.102 12.651 2.332.443.13.887.255 1.33.365 2.25.505 4.375.639 6.641 1.63 1.244.515 2.358.492 3.591.731.342.066.705.057 1.087-.073.675-.201 1.711.228 2.705.533 2.789.782 4.442.401 5.526-1.229.178-.352.204-.715.576-.934 2.077-1.324 3.229-3.192 4.574-4.926.196-.269.531-.457.874-.641.986-.53 1.989-1.297 2.241-2.388.042-.183.073-.389.114-.573.006-.028.013-.056.021-.083.116-.417.66-.478 1.043-.688.191-.105.349-.231.482-.376.333-.362.53-.83.867-1.19 1.132-1.202 2.701-2.093 3.716-3.295.55-.572 1.141-1.02 1.497-1.725.424-.943 1.581-1.477 2.586-2.02.371-.22.784-.314 1.156-.534.058-.027.116-.056.174-.085 1.586-.795 2.916-2.133 4.421-3.021 1.157-.534 2.549-.81 3.663-1.467 2.052-.963 3.951-1.935 5.809-3.03.372-.22.785-.315 1.199-.41 2.109-.353 3.637-1.106 4.459-2.63.356-.705.989-1.03 2.203-.953.224.014.472.167.691.17 1.294.014 1.794-1.003 2.836-1.161 1.324-.038 2.454-.21 3.417-.877 1.073-.781 2.533-1.296 4.27-1.429.717-.076 1.392-.276 2.109-.353 1.033-.156 2.305.418 3.436.475a3.887 3.887 0 0 0 1.682-.274c.262-.105.717-.077 1.172-.048 2.234.02 4.469.038 6.593.172 1.366.086 2.58.162 3.862 0 .827-.19 1.999-.238 3.312.572.539.276 1.408.21 1.973.124.717-.077 1.434-.153 2.276.143 1.298.324 2.721 1.02 3.878.486.741-.297 1.942.455 2.921.71 2.12.554 4.271 1.144 6.466 1.577 2.056.372 3.605 1.439 5.264 2.392l2.778 1.63c2.441 1.317 4.224 3.535 6.597 5.022.732.504 1.188 1.198 1.363 1.873.097.374.346.75.762.885.358.115.729.428.85.752.039.103.081.208.127.316.196.461.713.784 1.214 1.027.364.177.646.428.864.807.486 1 1.015 2.125 1.349 3.116.02.06.042.123.062.187.212.665-.155 1.147-.32 1.696-.683 2.273-1.113 4.94-2.924 6.399-.143.115-.291.229-.441.342-.857.736-.948 1.835-2.011 2.407-.162.087-.304.146-.291.346.026.376-.136.707-.46.846-.486.207-.983.38-1.456.623-.262.104-.482.333-.675.2-1.659-.953-1.434.152-1.832.733-.508.696-1.015 1.392-2.104 1.687-.546.162-.965.411-1.236.813-.13.194-.239.414-.493.479-.057.015-.12.026-.186.031-.105.009-.214.009-.315.025-.787.121-.92.178-.602.762.144.265.058.586-.208.605a.301.301 0 0 1-.124-.023c-1.302-.43-2.239-.598-3.267-.186-1.047.419-2.329.581-3.611.743-.869.067-.686 1.049-2.025.601-.994-.305-.963.667-1.445 1-1.334.886-3.014 1.63-4.861 1.877-1.282.162-2.287.705-3.847.486-.455-.028-.826.191-1.24.286-.398.118-.835.276-1.331.323-.695.066-1.694-.356-2.102.068-.617.81-1.941.848-3.155.771-1.582 0-3.165 0-4.525.415-.551.167-1.271.034-1.931-.36-.067-.04-.135-.079-.202-.117-.156-.087-.369-.123-.499-.085-.133.039-.179.114-.239.225-.441.809-1.22 1.079-2.641.989-1.973-.123-4.013-.009-5.819.362-1.392.277-2.935.544-4.244 1.068-.371.219-1.282.162-1.931 0-2.291-.629-4.594-.41-6.943-1.649-.539-.276-1.408-.21-1.931 0-.633.324-1.282.162-1.889.124-.456-.029-1.021.057-1.241.285-.293.402-.891.34-1.451.326-.73-.019-1.443.092-2.219-.192-.608-.223-1.293-.312-1.784-.174-1.183.334-2.614.416-4.242-.084-.842-.295-1.24.286-2.234-.019-1.947-.486-3.684-.352-5.672-.962-.893-.245-1.826-.346-2.599-.117a1.836 1.836 0 0 1-1.435-.155l-.057-.032c-.487-.277-.97-.334-1.261-.083l-.057.046c-.101.079-.249.107-.409.096a1.27 1.27 0 0 1-.43-.11c-2.674-1.156-4.314-.873-5.558.583-.507.696-1.015 1.391-1.177 2.23-.205.715-.477 1.668-1.262 1.982-1.57.629-1.565 1.963-2.057 3.145-.56 1.419-.775 2.982-2.261 3.859-.262.105-.137.476-.315.829-.136.476-.272.953-.602 1.296-1.099 1.143-1.507 2.573-2.261 3.859-.383.76-.407 1.758-1.051 2.318a1.993 1.993 0 0 1-.195.15c-.371.219-.508.696-.34 1.192.225 1.105-.09 1.934-.707 2.744-.576.934-.958 2.001-1.147 3.202-.256 1.439-.817 2.858-1.377 4.278a2.964 2.964 0 0 0-.103.437c-.011.103.035.2.115.309.423.579.23 1.005-.262 1.225a.307.307 0 0 0-.101.069c-.507.527-.656 1.313-.765 2.087-.182 1.29-.294 2.622-.552 3.907-.346 1.727-1.714 4.178.326 5.584.387.267.403.753.376 1.115-.008.693-.146 1.297-.285 1.952-.055.26-.34.373-.67.302-.393-.085-.684.113-.624.463.059.344.11.674.059.959-.013.073-.023.147-.048.213-.121.32-.638.616-.662.942-.01.848.021 1.82.162 2.678.073 1.096.146 2.191.025 3.154-.008.707-.039.738-.807 1.033-.295.113-.279.464.021.769.056.056.124.117.19.164.702.509.991 1.001.941 1.693-.105 1.449-.21 2.897.444 4.393.179.354.295.698.377 1.037.563 2.337-.606 4.883.192 7.244.334.991.669 1.982.81 2.84.141.858.434 1.725-.419 2.277-.371.22.225 1.106.089 1.582-.314.829-.367 1.554.575 2.583.429.39.335.991.46 1.362.18.533.17.982.453 1.511.785 1.464.66 2.797.865 4.15.282 1.715.522 3.307.956 5.031.141.858.172 1.83.879 2.602.508.657.507 1.08.41 1.555-.071.343-.637.306-.929-.07-.249-.321-.702-.396-.678-.07.044.606.445 1.277.603 1.88.231.881.235 1.863.845 2.714.396.551.677 1.112.715 1.691-.026.362.403.752.942 1.029 1.659.953 2.38 2.211 2.841 3.573l.933 2.764c.245.725-.502 1.003-1.209 1.086-.33.038-.461.316-.233.64.312.443.913.962 1.702 1.417.365.21.54.604.305.777-.138.101-.121.315 0 .513.433.706.657 1.437 1.049 2.136.825 1.47 2.145 2.997 3.028 4.457.494.817 1.244 1.604 2.401 2.353.481.332.877.751 1.304 1.179.499.5.892 1.123.826 1.634a2.56 2.56 0 0 1-.021.131c-.046.23-.115.488.093.733.063.074.152.14.228.206.414.359.934.724 1.327 1.082 1.339 1.079 1.784 2.688 3.041 3.85.843.78 1.598 1.628 2.237 2.544 1.109 1.525 2.218 3.05 2.762 4.66.243.72 1.114 1.479 1.83 2.229.264.275.673.482.995.485.396.003.838.155 1.171.489.889.889 1.697 1.856 1.916 2.868.209.619.68 1.134 1.287 1.172.062.008.121.017.177.028 1.64.301 2.522 2.212 4.056 3.269.774.534 1.397 1.058 1.909 1.696 1.732 2.049 3.945 3.764 6.268 5.365 2.828 2.118 6.115 4.123 8.969 6.204 1.011.737 1.969 1.541 2.965 2.306 2.407 1.849 4.552 3.803 7.467 4.956.55.212 1.108.446 1.649.717 2.444 1.228 4.799 3.376 7.293 4.21.19.079.394.195.596.308.316.177.633.328.933.539 1.42.995 3.273 1.15 4.689 2.151.147.104.282.212.4.328.9.905 1.936 1.334 3.082 1.648 3.328 1.058 6.546 2.23 9.738 3.765.667.276 1.392.354 2.063.618.748.293 1.393.69 2.107.735 1.517.095 1.905.362 2.365 1.725.184.544.945.831 1.316.555.439-.327.841-.184 1.678.458.503.386 1.094.53 1.362.199.208-.258.638-.326 1.078-.167 1.078.39 2.157.748 3.335 1.208.373.145.685.553.72.878.01.096.018.194.016.293 0 .05.034.108.088.146.06.041.129.047.172.021.644-.402 1.844.235 2.609.091.201-.038.363-.148.598-.088.076.019.16.046.245.077.432.161.732.589 1.149.825.561.317 1.305.408 1.855.747.252.155.461.402.717.427.082.008.172.019.257.037.758.162 1.514.318 2.233.363 1.214.077 2.36.391 3.699.839.995.305 1.989.61 2.957 1.277 1.161.8 2.349 1.239 3.521 1.191 1.13-.171 2.47.277 3.616.591.649.124 1.306.473 1.952.855.572.339 1.188.49 1.66.336.454-.147 1.05-.02 1.606.293l.045.025c.609.344 1.26.554 1.846.55.829-.006 1.65.075 2.665.495 2.376.877 4.694 1.144 7.111 2.144.497.153 1.02-.057 1.518.096.648.162 1.187.438 1.684.591.497.152 1.078.552 1.382.571 1.627-.019 3.506.706 4.997 1.163 1.488.538 2.827.871 4.12.958.958.065 1.909-.051 2.891.453.498.206.939.471 1.405.71.338.174.663.164.866-.004.242-.2.638-.302 1.049-.135.773.313 1.586.634 2.421.982.89.371 1.52.219 2.193-.053.167-.068.397-.081.747.015 1.989.61 3.852.848 5.673.963.219.013.43.058.64.118.767.217 1.569.627 2.3.673 2.235.019 3.532.343 5.688 1.448.233.13.457.235.683.332.986.42 1.975.435 2.721.133.173-.07.382-.142.611-.08.625.17 1.295.864 1.961.597.675-.2 1.433-.153 2.318.267.345.143.649.162.952.181 3.365-.153 7.122 1.296 10.654 1.639.19.012.397.057.617.125 1.889.585 3.726 1.239 5.526 1.352.455.029.952.181 1.491.458.539.276.884.419 1.449.333 1.131-.171 2.193-.104 3.574.467 1.382.572 2.679.896 3.726.477 1.134-.454 3.154.897 4.54.868.375-.007.752-.01 1.132.094.801.172 1.434-.152 2.234.02.588.125 1.221.385 1.832.582.436.14.887.316 1.303.342a11.61 11.61 0 0 1 3.348.69c1.067.397 2.518.526 3.469.434.598-.058 1.119-.337 1.764-.279.65.058 1.25.098 1.905.299.672.206 1.402.582 2.244 1.019.833.432 1.487.629 2.219.505.965-.164 2.348.24 3.471.641.479.171.978.267 1.495.246.375-.015.741.031 1.096.123 1.347.348 2.866.962 3.885.554 1.68-.744 2.177-.591 4.223.629 1.507.943 2.983.915 4.458.886.607.038.576-.934 1.419-.638.69.285 1.255.2 2.014.247 1.669.105 3.255-.038 5.065.925 1.962.972 3.977 1.22 5.741.724 1.198-.41 2.37-.457 4.029.496.511.352 1.06.137 1.581.15 1.52.037 3.123.481 4.55.567 1.356.081 2.448.913 3.805.998.335.021.674.19 1.034.406.465.278.918.118.941-.285.014-.238.199-.356.469-.351 1.377.027 1.961.063 2.711.353 1.233.476 2.483.851 3.588.752a31.693 31.693 0 0 0 1.88-.207c1.172-.048 2.109-.353 3.396.819.373.34 1.257.528 2.007.685.217.045.436.082.629.058.227-.028.445-.097.675-.169.502-.156 1.194.017 1.611.557.073.094.156.203.248.286.483.432 1.215.661 1.554.461.743-.439 1.543-.267 2.689.047.801.172 1.476-.028 2.193-.104.565-.086 1.062.066 1.753.352 2.527.887 5.039 1.287 7.216.696.146-.059.38.002.61.071.328.097.738.235 1.057.405.26.139.427.095.657.057 1.272-.209 2.711.419 4.08.839 2.032.624 3.879.32 5.71.187.189-.014.382-.026.58-.034 1.02-.057 2.083.01 3.312.572.346.143.801.171 1.104.191.456.028.869-.067 1.214.076 1.962.972 3.616.591 5.244.572 2.537.038 4.981.676 7.535 1.201 1.43.357 3.053 1.427 4.187 1.06a.945.945 0 0 0 .562-.441.476.476 0 0 1 .12-.144c.178-.122.451-.067.73.01 1.005.278 1.784-.113 2.789.163 1.869.513 3.644.455 5.427 1.083.767.27 1.582.234 2.335.61.292.146.566.369.852.577.345.251.725.234.925.027.06-.063.107-.162.156-.258.065-.128.331-.054.477.095.095.096.076.144.064.243-.053.448-.049.655.229.826.766.47 1.519.118 1.852-.391.278-.426.821-.627 1.479-.535 1.32.183 2.588.378 3.979.658.5.087.813.161 1.144.338 1.126.604 2.263 1.224 3.27 1.077.596-.087 1.291.068 1.965.398.471.231.928.444 1.422.617.346.143.801.172 1.214.077.566-.086.576-.934 1.612-.505.434.179.791.306 1.126.324.43.022.775-.345 1.192-.058 1.978 1.459 3.836.363 5.95 1.344.345.143.868-.066 1.282-.162.938-.278 2.31.591 3.369.524a14.314 14.314 0 0 1 5.186.62c.649.162 1.366.086 2.166.257.953.181 1.89-.123 2.967.429.753.357.732-.301 1.136-.328.158-.011.344.072.518.123.519.152 1.061.37 1.605.595.099.041.18.127.232.216.049.084.107.158.162.236.065.093.21.162.266.103.04-.041.021-.131-.051-.179a3.683 3.683 0 0 0-.228-.14c-.193-.108-.324-.306-.267-.448l.033-.088c.062-.183.275-.271.524-.168l1.617.669c.996.306 1.99.556 2.916.556.085 0 .166.002.244.006.844.053 1.8.456 2.386.092.412-.256.767-.524 1.544-.33.995.305 1.931 0 2.842.058.91.057 1.904.362 3.05.676.995.305 2.004 1.096 3.176 1.049.869-.067 1.947.486 3.051.676 2.553.524 5.023.801 7.619 1.449 1.297.324 2.511.4 3.71-.01.643-.148 1.236-.446 2.053-.078.541.244 1.042.637 1.563.669 1.649.299 1.976.358 3.053.871.538.257 1.063.152 1.205-.245.156-.435.836-.48 1.36-.549.626-.082 1.101-.545 1.87-.334.944.259 1.86.435 2.771.595.356.062.856.4.695.62-.298.409.133.874.093.295-.006-.08-.019-.176-.034-.291-.003-.018-.005-.031-.011-.049-.072-.214.118-.344.354-.252 1.57.612 3.022.583 4.315.445 1.283-.162 2.538.038 3.836.362 2.098.496 4.003.858 5.976.982.434.027.911.181 1.44.329.319.09.578.462.499.697-.087.262.221.615.571.675.779.135 1.488.248 2.173.291.91.057 1.737-.134 2.799-.067.753.047 1.553.815 2.284.808.27-.003.506-.104.725-.255.853-.553 2.067-.477 3.129-.41.555.035.947.682 1.518.967.618.307 1.164-.192 1.726-.157 1.031.132 2.149.121 3.236.432 1.654.472 3.345 1.194 4.922 1.293 1.478.093 2.939.037 4.398.074.535.014 1.155.103 1.934.203 2.166.257 4.39 1.124 6.64 1.629 1.82.329 3.574.464 5.426.583.402.026.652-.26.598-.631-.038-.258.034-.504.288-.545.859-.14 1.787.464 2.779.794.393.131.769.488.81.832.027.226.213.407.467.533.524.257 1.08.48 1.599.742.203.103.407.205.614.286.925.362 1.826.615 2.782.675 2.469.277 4.787.544 7.299.944.27.017.115-.426-.168-.531-1.419-.527-2.775-.867-4.044-.946a17.314 17.314 0 0 1-2.704-.405c-1.067-.241-1.369-1.326-.294-.996 3.103.986 5.842.896 8.815 1.142.404.033.8.275 1.06.641.086.12.217.233.349.243.198.015.434-.057.513-.139.508-.696 1.225-.772 2.329-.581.612.038 1.14-.129 1.716-.178 1.665-.14 3.586.078 5.227-.05.264-.021.534-.03.814-.012.326.02.662.076 1 .149 2.414.52 4.756.471 7.245.853.303.019.607.039.952.182.443.183.842.414 1.304.666.439.241.709.722.554 1.03l-.119.235c-.066.13.109.368.299.454.128.059.167.012.249-.046 1.068-.768 3.053-.335 4.269-.958.58-.232 1.385.603 2.14.971.902.441 1.894.447 2.898.66.084.017.13.019.216.045.364.109.727.447.963.76a13 13 0 0 0 .257.33c.11.133.245.295.402.329.08.018.155.022.233.033.628.085 1.749-.082 2.343-.401.35-.188.494-.72.03-1.04a1.869 1.869 0 0 0-.843-.295c-.121-.008-.238 0-.35.009-.855.072-1.122-.96-.33-1.143 2.751-.417 2.968-.419 4.868 1.935.106.131.207.324.354.333.152.01.497.153.649.162 2.648-.076 5.186-.038 8.127.753 1.794.477 3.49.219 5.311.334.15.009.311.049.472.089.268.067.551.335.566.567.016.232-.153.369-.414.337-.804-.098-1.667-.271-2.069.007-1.005.543-2.606.2-3.694.496-.262.104-.565.085-.911-.058-1.81-.962-2.815-.419-3.778.248-.459.383-1.055.64-1.74.754-1.031.171-2.171-.539-2.99-1.547a3.975 3.975 0 0 0-.213-.24c-.614-.628-1.472-.583-2.15-.46-1.063.192-2.221.295-3.451.381-.349.025-.736-.263-.784-.602-.038-.264-.314-.513-.613-.581-.805-.185-1.605-.334-2.459-.511-.637-.132-1.211.046-1.379.514-.156.432-.54.687-1.085.706-.729.026-1.456.043-2.216-.097-1.254-.231-2.58-.76-3.767-.768-.434-.002-.87-.009-1.312-.037-1.047.021-1.351.027-2.071-.271-.748-.309-1.453-.417-2.031-.206-.514.188-1.236.101-1.904-.128-1.76-.601-3.484-.704-5.184-.673-.581.011-1.225-.288-1.645-.822-.507-.646-1.391-1.087-2.001-.908-.528.155-1.003.338-1.396.589-.322.207-.77.246-1.238-.037-.654-.396-1.368-.282-1.388.291l-.004.118c-.006.169-.061.322-.212.385-.443.185-1.259.086-1.621-.244a4.668 4.668 0 0 0-1.38-.851c-1.208-.477-2.709-.314-2.676.718.068.502-.306.522-.606.598-.128.033-.361-.093-.366-.227l-.002-.029c-.005-.109-.153-.162-.114-.047.069.205-.049.366-.269.339a1.528 1.528 0 0 1-.247-.044c-.117-.032-.204-.146-.294-.239-.671-.694-1.423-1.166-2.56-1.238-.542-.034-1.128-.439-1.698-.631-1.274-.428-2.496-.514-3.477-.179-.675.2-1.366-.086-2.015-.248-.797-.151-.919-.77-1.456-1.214a.836.836 0 0 0-.702-.167l-.509.109c-.837.184-.202 1.54.779 1.696.464.074.907.554.537.681-.128.045-.286.054-.419.067-.137.015-.27.04-.413.043-1.39.027-2.66.051-4.143-.157-1.485-.199-2.919-.577-4.517-.91-.38-.079-.719-.407-.707-.727.012-.306-.35-.717-.646-.632-.319.092-.398.357-.444.666-.035.23-.133.443-.375.496-.362.078-.903-.011-1.974-.267-.831-.198-1.268-.744-.573-.904.262-.105.717-.076.937-.305.057-.059.092-.185.085-.311-.011-.189-.254-.414-.469-.523-.26-.131-.494-.096-.702-.026-.722.241-1.763-.258-2.352-.083-.827.19-1.794-.477-2.538-.038-.591.447-1.684-.591-2.25-.506-1.611.505-3.573-.467-5.285-.695-.452-.097-.851-.036-1.261.07-.338.087-.295.579.107.789.369.194.544.692.226.76-.505.107-.888.168-1.327.058-1.56-.219-3.187-.2-4.83-.667-1.643-.467-3.354-.696-4.913-.915-1.712-.229-3.423-.458-5.175-.81-1.263-.271-2.542-.316-3.77-.37-.612-.027-1.29-.376-1.929-.673-.586-.272-1.284-.464-2.056-.68zm-200.364-26.508c.112.007.201-.053.3-.082.058-.016.131.039.153.103.034.1-.078.16-.188.115a1.337 1.337 0 0 1-.265-.136c.034-.473-.474-1.009-1.014-1.02-.298-.007-.563 0-.815.03-.089.01-.182.016-.28.004a1.87 1.87 0 0 1-.388-.085c-.823-.28-1.63-.743-2.067-.301a2.88 2.88 0 0 1-.258.234c-.081.064-.145.12-.046.229a.647.647 0 0 0 .257.15c.773.155 1.629.224 2.183.606 1.12.677 1.711.229 2.428.153zm7.917 3.65c-.241-1.592-.241-1.592 1.732-1.468.715.045-.182-.667-.929-.857-1.524-.387-3.154-1.349-4.81-1.21-.353.03-.487.338-.398.691.015.056.029.113.042.169.15.618 1.036.946 1.397.571.174-.182.458-.148.782.029 1.095.599 1.763 1.209 2.184 2.075-.497-.153-.885-.42-1.382-.572-.804-.247-.015.598.721.568.23-.009.452-.009.661.004zM242.439 93.437c.827.57.844 1.014.261 1.395-.139.09-.281.185-.434.292-.921.79-1.649 1.715-2.418 2.515-.812.677-1.345 1.735-2.476 1.906-1.392.276-1.083 1.63-2.13 2.049-.239.141-.364.44-.521.694-.165.265-.499.375-.8.515-.6.281-.858.724-.903 1.238-.06.68-.165 1.366-.741 1.681-1.413.775-.156 3.317 1.646 3.101.128-.015.241-.049.354-.089.21-.074.43-.115.702-.003 2.072.858 3.49.22 5.269.21 1.324-.038 2.648-.076 4.181.505 1.188.439 2.444.639 3.532.343 1.806-.371 3.778-.247 5.877.248.994.305 2.098.496 2.799-.066.372-.22 1.047-.42 1.544-.267 2.072.857 3.407-.029 5.076.076 1.062.067 1.805-.371 3.019-.295a12.46 12.46 0 0 0 3.061-.172 5.458 5.458 0 0 1 2.842.058c.128.032.272.06.422.079 1.333.171 1.841-1.028 3.147-.946 1.366.085 2.648-.077 3.971-.115.712.045.925-.66 1.411-.977a.892.892 0 0 1 .296-.128c.556-.059.967-.219 1.288-.44.884-.608 2.221-.716 3.202-1.218.591-.448 1.486-.877 2.438-.696 2.015.248 3.13-.409 4.438-.933 1.418-.639 3.265-.887 4.877-1.392 1.089-.295 2.067-.476 2.617-1.048.22-.228.549-.571 1.004-.543 1.274.08 1.692-1.09 2.638-1.573a5.19 5.19 0 0 1 1.01-.38c.827-.19 1.376-.763 1.968-1.21.811-.677 1.622-1.354 2.475-1.906 1.638-.867 1.785-2.192.441-3.974-.277-.381-.209-.62-.141-.858.382-1.067.146-1.324-1.36-2.268-1.175-.689-1.128-2.172-2.208-3.02-1.005-.791-2.098-1.466-3.548-1.706-.576-.037-1.178-.622-1.784-.817a4.985 4.985 0 0 0-1.24-.222c-1.366-.086-2.731-.172-4.139-.381-1.129-.071-2.316-.514-3.486-.743a10.456 10.456 0 0 0-3.337-.107c-.189.024-.401.099-.598.106-.31.011-.615-.195-.953-.294-1.188-.352-2.294-.209-3.284-.058-1.282.161-2.622-.286-3.794-.239-.152-.01-.11.114-.262.105-1.688.11-3.376.221-4.955.339-.227.017-.5-.18-.433-.362.063-.17-.105-.474-.329-.495-.415-.038-.774-.02-1.032.094-.437.191-.968.395-1.556.261-.35-.079-.665-.062-.956.12-.062.039-.123.078-.191.11-1.678.765-3.936.897-5.66 1.612-.213.089-.343.235-.606.238-.148.002-.346-.007-.489.006-.77.067-1.384.196-1.533.964-.026.362-.659.686-1.114.657-1.973-.124-2.742.677-3.622 1.592-.837 1.038-1.91 1.82-3.605 2.077-.979.181-1.612.505-2.204.953-.701.562-1.402 1.124-2.339 1.43-1.835.565-2.224.597-2.866 1.43-.36.466-.957.682-1.74.42-.676-.225-1.435-.26-1.798.099-.129.127-.209.26-.221.423-.4.092-.846.153-1.31.212-.81.103-.713 1.332.009 1.087a.382.382 0 0 0 .167-.121c.399-.432.68-.864 1.134-1.178zm179.917 246.548c-.344.519-.805 1.023-1.579 1.01a3.097 3.097 0 0 1-.588-.068c-.952-.181-1.795-.477-2.747-.658-.784-.215-1.638-.434-2.373-.375-.628.051-.626.306.07.594.498.153 1.037.429 1.534.582.818.251 1.619.748 2.399.745.356-.001.674-.136 1.05.05.199.099.391.228.594.299.408.142.756.107 1.022-.17.43-.448 1.341-.256 2.137-.172.709.076 1.413.216 2.085.801.429.391 1.037.429 1.215.077.178-.353-.252-.744-.79-1.02-.331-.17-.662-.339-1.028-.511-.279-.131-.334-.492-.116-.57.223-.079.079-.405-.208-.527-.877-.373-1.553-.533-2.05-.401-.154.041-.329.062-.455.138a.557.557 0 0 0-.172.176zm289.279 36.861c-.583-.184-1.149-.144-1.567.06a.84.84 0 0 1-.255.071c-.493.08-.883.166-1.398.245-.476.05-.763.272-.897.558a1.39 1.39 0 0 0-.107.971c.045.169.147.33.325.472.335.268.745.287 1.088.257.658-.055 1.344-.141 2.006-.2.333-.03.423-.39.196-.716-.232-.333-.111-.63.24-.641.236-.008.473-.011.709-.016.493-.013.817-.476.311-.79a2.873 2.873 0 0 0-.651-.271zm-203.799-22.521c1.079.175 1.477-.945.443-.971-.115-.002-.176.015-.292.01-.509-.022-.807-.21-1.057-.459-.601-.597-1.296-.749-1.72-.355-.534.497.269 1.427 1.207 1.56.48.068.949.139 1.419.215zm126.537 13.077c-.062.043-.083.122-.012.203.114.132.312.255.464.265l1.878.118c.082.005.167.017.252.035l.238.052c.921.205 1.153-.243.225-.527a3.164 3.164 0 0 1-.554-.243c-.699-.38-1.454-.576-1.93-.277-.189.118-.375.246-.561.374zm-137.596-19.409c1.171.369.848-1.081-.276-1.18l-.061-.005c-.303-.019-.633.324-.591.448.026.079.226.315.407.48.154.14.334.198.521.257zm147.226 19.943c.67.206.189-.752-.428-.739-.461.01-.185.533.315.703l.113.036zm-239.428-31.25c.313-.316-.067-1.025-.654-1.267-.61-.253-1.378-.158-1.119.396.128.271.437.515.931.804.368.254.608.305.842.067zm64.633 12.171c.421.459 1.093.501 1.214.076.106-.372-.106-.616-.46-.836-.214-.134-.448-.282-.664-.296a.467.467 0 0 0-.456.254c-.112.217.039.504.366.802zm-5.341 1.501c.367-.078.264-.568-.166-.777-.304-.147-.484-.138-.619.052-.214.3.373.812.785.725zm-82.506-15.719c.26.401.869.479 1.075.205.216-.29-.178-.772-.654-.871l-.14-.028c-.379-.073-.585.196-.379.538l.098.156zm287.084 39.169c.382-.269-.635-.951-1.148-.852-.513.1-.025.77.57.882.281.052.472.045.578-.03zm-259.017-34.626c.374-.05.236-.566-.157-.837-.076-.053-.114-.063-.197-.085-.343-.09-.648-.103-.762.101-.076.136-.001.34.167.496.077.072.164.143.242.194a.932.932 0 0 0 .335.125c.116.022.24.023.372.006zm7.57 3.121c-.37-.023-.441.419-.058.604.275.134.412.12.517-.015.154-.198-.14-.569-.459-.589zM15.688 11.801c-.092-.244-.484-.342-.637-.206a.127.127 0 0 0-.03.042c-.153.329-.04.674.461 1.044a.31.31 0 0 0 .161.061c.122.008.192-.08.175-.193-.031-.217-.032-.465-.095-.65l-.034-.098zm459.609 337.275c-.493-.108-.593.377-.099.491.117.027.236.044.358.052a.3.3 0 0 0 .11-.014c.114-.036.091-.211-.007-.332a.534.534 0 0 0-.336-.191 1.055 1.055 0 0 0-.026-.006zM207.393 213.525c-.087-.26-.526-.372-.444-.112a.647.647 0 0 0 .163.258c.164.166.346.045.281-.146zm482.088 160.962c-.164.167-.086.542.218.591.156.025.301.026.442.005.461-.07.045-.723-.421-.663-.05.006-.099.014-.147.024-.042.008-.065.015-.092.043zM227.327 102.624c-.353.053-.384.653.022.773.051.015.065.016.115.027.469.098.895-.22.776-.572-.042-.124-.235-.258-.387-.267a2.517 2.517 0 0 0-.526.039zM786.54 386.766c.058-.014.082-.07.06-.134a.232.232 0 0 0-.195-.146l-1.217-.076c-.151-.01-.22.228-.178.352.023.067.133.139.254.193.188.084.358.052.509.006.22-.067.491-.131.767-.195zm-225.697-27.517c-.172-.158-.419-.25-.562-.168-.138.079-.224.179-.171.336.022.064.136.167.241.251.119.094.26.144.371.116.042-.011.088-.024.135-.04.195-.066.191-.308-.014-.495zm-57.274-5.226c.302-.04.107-.536-.185-.787-.196-.167-.331-.102-.486-.011l-.064.038c-.111.069-.141.207-.098.358.064.221.176.451.545.417.037-.003.075-.004.113-.004.06.001.118-.003.175-.011zm92.929 6.377c.046-.049.034-.187-.053-.231-.273-.137-.562-.321-.829-.44-.036-.016-.071-.013-.09.007-.036.038.002.117.071.15.241.118.496.276.738.397.087.044.116.165.163.117zM190.619 177.658c.182.267.554.211.644-.005a2.96 2.96 0 0 0 .073-.185c.048-.136-.198-.359-.384-.432-.072-.028-.079-.007-.131.018-.289.141-.38.341-.202.604zm300.706 175.138c.133.019.376-.028.387-.139a.203.203 0 0 0-.009-.084c-.016-.049-.074-.081-.15-.111-.154-.061-.381.038-.386.166l-.001.016c-.002.074.072.14.159.152zM299.144 112.729c.298.145.748.101.736-.159-.006-.121-.125-.207-.258-.293-.183-.118-.452-.241-.552-.247-.152-.01-.33.343-.288.467.022.065.17.138.362.232zm380.857 258.734c-.079-.105-.219-.109-.309-.07-.065.028-.131.048-.19.091-.031.022-.04.061-.011.104.086.126.356.187.456.133l.012-.006c.07-.034.13-.103.082-.191a.707.707 0 0 0-.04-.061zm-192.693-23.217c.119.139.36.254.495.216l.033-.009c.127-.038.082-.207-.05-.326-.082-.075-.166-.152-.245-.219-.069-.057-.103-.094-.165-.072-.126.045-.212.243-.096.378l.028.032zm-89.566-13.094c.152.45 1.245.649 1.107.199l-.003-.009c-.042-.124-.429-.39-.581-.4-.152-.009-.565.086-.523.21zm8.288 3.43c.123.008.005-.131-.124-.184-.06-.025-.12-.05-.177-.066-.049-.014-.073.042-.081.08-.012.064.075.151.152.156l.23.014zm11.252.111c.054-.036.024-.158-.059-.193-.068-.028-.135-.056-.198-.07-.038-.009-.07.002-.09.024l-.039.04c-.025.026-.036.07.002.108.037.036.091.061.157.093.076.037.178.031.227-.002zm125.94 17.89c-.049.033-.021.114.04.174.086.082.143.163.248.247a.159.159 0 0 0 .11.038.395.395 0 0 0 .097-.025c.086-.03.051-.237-.045-.315-.096-.078-.365-.173-.438-.127l-.012.008zm-71.029-7.665c.03.02.026.007.055.004.075-.007.141-.041.21-.066.049-.018.045-.105-.013-.145a.092.092 0 0 0-.048-.018l-.231-.014c-.121-.008-.09.158.027.239zm8.552 1.656c.135.197.477.227.644.155.057-.025.046-.045.034-.113-.045-.258-.423-.655-.556-.663-.093-.006-.155.081-.179.178-.025.101-.057.222-.002.342a.652.652 0 0 0 .059.101zM17.497-2.182c.08.056.237.104.304.078.13-.052.302-.063.27-.158a.907.907 0 0 0-.07-.165c-.08-.142-.273-.155-.379-.09l-.145.086c-.085.051-.097.168.02.25zm238.037 119.61c.156.155.456.105.471-.057.009-.095-.065-.086-.164-.171-.09-.079-.184-.167-.275-.247-.103-.091-.275-.057-.339.009-.063.066-.003.14.087.237.075.081.149.158.22.229zm223.244 232.419c.012-.064-.08-.179-.161-.213-.073-.03-.145-.061-.212-.075-.033-.006-.059.003-.076.021-.044.046-.015.135.064.187.107.07.211.131.305.159.048.015.073-.041.08-.079zm250.535 29.882c-.017-.05-.077-.106-.131-.114a.243.243 0 0 1-.074-.022c-.073-.034-.126.036-.104.102.015.043.049.037.093.037a.2.2 0 0 0 .052-.005c.069-.019.19.079.164.002zM191.291 187.954c.023.002.035-.015.028-.036-.011-.033-.059-.054-.078-.034-.021.022.012.068.05.07zm39.864-83.949a.631.631 0 0 0-.139-.191c-.091-.1-.273-.197-.251-.087l.003.011a.582.582 0 0 0 .129.181l.258.086zm534.721 278.558c.02-.021-.002-.054-.037-.079l-.08-.054c-.03-.021-.064-.035-.092-.029-.034.007-.075.026-.071.078.001.02.019.041.04.056l.034.023c.05.034.177.034.206.005zm31.803 2.57c.04.117-.096.236-.22.229l.043.002c.144.009.223-.094.177-.231zm-592.64-182.977c-.136-.009-.305-.116-.447-.146a.083.083 0 0 0-.077.021c-.043.046-.013.136.055.199l.061.058c.091.085.163.007.217-.058a.228.228 0 0 1 .191-.074zm529.155 179.913c.05.027.105.031.132.003.033-.035.011-.102-.048-.143l-.036-.024c-.03-.021-.065-.035-.093-.031-.098.016-.081.112-.215.103a.69.69 0 0 1 .26.092zm-425.711-72.652c.036.001.056-.024.045-.059a.109.109 0 0 0-.087-.066l-.086-.005c-.084-.005-.13.055-.103.134l.035.104c-.036-.106.07-.114.196-.108zM768.14 384.37c-.163.015.029.313.212.365a.25.25 0 0 0 .037.009.079.079 0 0 0 .076-.021c.044-.045.014-.135-.055-.199-.089-.084-.142-.147-.249-.154h-.021zm30.922 2.709c.047-.02.044-.107-.015-.148a.08.08 0 0 0-.047-.016.374.374 0 0 0-.165.048c-.043.025-.02.093.038.134l.004.002c.045.031.097.034.128.012a.409.409 0 0 1 .057-.032zm-379.258-44.104c-.119.018.001.154.105.264l.054.059c.113.122.35.195.304.059a.679.679 0 0 0-.131-.254.415.415 0 0 0-.332-.128zm173.246 21.179l-.194-.133.194.133zm-102.321-10.336c.05-.026-.028-.095-.096-.099l-.156-.01c-.061-.004-.065.066-.006.106a.092.092 0 0 0 .048.018c.084.005.166.008.21-.015zm48.49 2.672c-.011-.033-.059-.054-.078-.033-.021.021.012.067.05.07.023.001.035-.015.028-.037zm-31.89-4.269c-.053-.003-.056.057-.005.092.027.018.058.02.073.005.029-.03-.016-.093-.068-.097zm-44.968-3.602c.027-.039.008-.104-.051-.144-.047-.033-.102-.036-.129-.008-.033.034-.01.102.048.142l.276.19c-.145-.1-.181-.125-.144-.18z" fill="#F8F5F0"/></svg>