<svg width="1440" height="3765" viewBox="0 0 1440 3765" fill="none" xmlns="http://www.w3.org/2000/svg">
<path d="M714.146 4340.27C715.889 4333.91 709.011 4327.26 705.852 4321.47C704.534 4319.05 704.452 4315.79 705.377 4313.2C707.241 4307.98 708.781 4302.66 715.993 4299.2C721.321 4296.64 724.85 4289.85 727.881 4283.63C728.029 4283.33 728.145 4283.14 728.301 4282.84C730.5 4278.62 732.272 4274.14 736.973 4274.89C738.891 4275.19 740.811 4275.5 742.785 4275.84C744.835 4276.2 746.907 4275.34 747.793 4273.45C748.02 4272.97 748.253 4272.46 748.492 4271.91C749.8 4268.95 747.131 4265.8 744.2 4267.19C743.774 4267.39 743.47 4267.45 743.001 4267.49C738.838 4267.86 737.128 4266.96 736.409 4263.79C736.201 4262.88 736.155 4262.26 736.957 4261.78C738.155 4261.05 739.641 4259.41 739.623 4258.01C739.519 4250.13 743.584 4244.3 748.339 4238.93C750.586 4235.62 755.005 4242.21 756.364 4245.97C756.536 4246.45 756.779 4246.89 757.104 4247.33C759.614 4250.69 765.378 4248.69 767.163 4244.9C767.623 4243.92 768.038 4242.94 768.35 4241.98C771.795 4233.56 772.648 4224.28 778.407 4217.56C779.306 4216.51 780.333 4215.47 780.537 4214.11C780.755 4212.65 780.547 4210.85 780.226 4208.81C779.468 4203.99 781.336 4199.76 785.735 4197.65C790.133 4195.54 793.129 4190.62 793.603 4185.77C793.962 4182.09 795.176 4178.69 798.459 4175.98C800.064 4174.87 800.689 4172.59 801.298 4170.14C801.834 4167.98 802.172 4165.63 802.76 4163.49C803.312 4161.47 804.687 4159.99 806.31 4158.67C809.033 4156.47 811.907 4154.37 813.79 4151.6C816.241 4147.99 816.172 4142.68 818.622 4139.07C828.214 4121.33 840.814 4104.59 852.925 4088.57C856.355 4083.51 858.946 4077.89 857.548 4072.73C856.64 4066.84 858.11 4064.67 861.399 4061.64C861.641 4061.47 861.853 4061.3 862.039 4061.13C867.391 4056.22 856.672 4046.4 862.902 4042.66C868.583 4039.25 877.064 4038.34 877.896 4031.77C878.07 4030.39 878.139 4028.99 878.155 4027.59C878.231 4020.91 881.115 4014.77 885.832 4010.03C888.3 4007.55 890.596 4005.09 892.766 4002.81C896.837 3998.54 897.855 3992.2 904.554 3989.71C905.222 3989.46 905.982 3989.4 906.565 3988.99C908.103 3987.91 907.665 3985.52 908.167 3983.7C911.15 3972.94 919.62 3965.08 925.947 3955.77C929.867 3950 928.96 3944.11 930.711 3937.92C931.831 3934.46 934.631 3932.14 935.262 3929.41C935.649 3928.22 935.978 3927.11 936.289 3926.02C937.41 3922.12 935.729 3918.38 934.096 3914.66C933.796 3913.98 933.515 3913.28 933.376 3912.54C932.815 3909.57 935.312 3906.25 936.807 3907.27C944.014 3911.11 946.954 3906.78 949.894 3902.45C951.854 3899.56 953.814 3896.68 954.935 3893.22C960.888 3877.23 968.519 3862.38 977.83 3848.68C983.22 3840.74 987.421 3830.94 987.775 3819.58C987.007 3811.68 992.257 3805.76 998.555 3803.71C1009.33 3800.49 1013.74 3793.99 1014.45 3783.93C1014.52 3776.6 1017.6 3770.26 1023.2 3765.62C1025.12 3764.04 1026.02 3762.25 1026.75 3760.18C1027.47 3758.16 1027.83 3756.04 1028.27 3753.94C1029.63 3747.36 1032.7 3741.37 1036.84 3736.05C1037.98 3734.6 1039.4 3733.39 1040.48 3731.89C1041.99 3729.8 1042.81 3727.24 1043.64 3724.69C1048.33 3714.17 1053.37 3704.94 1060.58 3696.13C1062.51 3694.22 1063.22 3691.76 1063.15 3688.35C1062.99 3680.66 1066.52 3673.72 1072.29 3668.65C1073.2 3667.85 1074.05 3666.99 1074.83 3666.05C1077.97 3662.26 1075.88 3658.15 1071.44 3660.28C1068.05 3661.91 1063.71 3659.43 1064.2 3655.7C1064.35 3654.58 1064.63 3653.64 1065.14 3652.95C1065.53 3652.42 1066.06 3652 1066.47 3651.49C1073.04 3643.21 1076.57 3634.63 1078.28 3623.98C1078.4 3623.25 1078.39 3622.9 1078.85 3622.31C1080.1 3620.7 1082.93 3620.51 1084.28 3622.04C1086.66 3624.72 1087.3 3627.87 1087.72 3631.07C1087.84 3631.98 1088.01 3632.9 1088.49 3633.69C1088.68 3633.99 1088.91 3634.32 1089.14 3634.63C1090.29 3636.15 1092.34 3637.1 1094.15 3636.51C1096.51 3635.73 1097.35 3633.06 1098.51 3630.86C1099.99 3628.05 1101.23 3624.92 1102.73 3621.43C1104.53 3617.23 1104.79 3616.63 1111.37 3618.33C1113.77 3618.95 1116.41 3618.48 1117.96 3616.56C1120.04 3614 1121.29 3611.08 1121.96 3607.85C1122.5 3605.26 1119.75 3603.94 1117.89 3605.82C1116.68 3607.05 1116.78 3608.96 1117.15 3610.64C1117.34 3611.46 1117.03 3612.17 1116.13 3612.92C1115.8 3613.19 1115.66 3613.46 1115.24 3613.54C1113.55 3613.84 1111.26 3611.77 1111.73 3610.12C1111.77 3609.98 1111.82 3609.85 1111.9 3609.74C1113.23 3607.78 1113.85 3605.53 1113.49 3603.19C1113.23 3601.48 1114.13 3599.99 1115.75 3598.65C1116.86 3597.73 1119.89 3594.75 1119.34 3593.42C1118.69 3591.82 1118.01 3590.15 1117.29 3588.35C1116.9 3587.35 1117.34 3586.19 1118.33 3585.77C1118.49 3585.7 1118.65 3585.63 1118.82 3585.57C1120.63 3584.84 1121.74 3582.56 1120.79 3580.86C1120.58 3580.48 1120.35 3580.07 1120.12 3579.66C1118.98 3577.67 1119.92 3575.11 1122.07 3574.34C1122.57 3574.16 1123.07 3573.97 1123.59 3573.78C1125.94 3572.86 1128.68 3573.73 1129.8 3575.99C1130.2 3576.8 1130.59 3577.61 1130.99 3578.43C1133.2 3583.05 1139.15 3584.05 1141.64 3579.57C1147.36 3569.26 1148.84 3557.02 1157.44 3550.54C1160.93 3547.91 1163.64 3541.28 1159.39 3542.28C1158.84 3542.42 1158.53 3542.56 1157.98 3542.71C1156.61 3543.08 1155.36 3543.43 1154.14 3543.78C1149.57 3545.09 1146.21 3548.5 1145.01 3553.1C1142.69 3561.97 1131.59 3559.19 1136.69 3551.57C1136.82 3551.37 1136.96 3551.16 1137.11 3550.95C1140.48 3545.99 1141.89 3539.69 1147.5 3536.71C1150.35 3535.19 1152.44 3531.99 1150.93 3529.13C1150.22 3527.8 1150.24 3526.09 1150.98 3524.79C1157.49 3513.31 1163.35 3501.38 1169.95 3489.96C1173.01 3483.9 1180.15 3479.83 1182.24 3472.88C1182.95 3470.54 1183.2 3467.15 1185.63 3466.88C1186.48 3466.78 1187.52 3466.39 1188.74 3466.23C1190.19 3466.04 1191.71 3466.81 1192.57 3467.99C1193.5 3469.26 1193.21 3470.8 1192.92 3472.35C1192.35 3475.32 1191.51 3478.1 1189.29 3479.95C1187.83 3481.18 1185.91 3481.79 1184.49 3483.08C1181.87 3485.44 1180.7 3488.65 1182.47 3493.2C1182.73 3493.85 1182.83 3494.4 1182.82 3494.85C1182.66 3501.64 1178 3506.25 1183.59 3502.39C1186.39 3500.08 1189.68 3497.04 1190.8 3493.58C1192.9 3488.68 1195 3483.78 1195.77 3479.04C1197.03 3473.57 1198.64 3469.39 1204.1 3466.77C1207.25 3465.75 1210.19 3461.42 1209.49 3458.84C1206.69 3448.5 1214.95 3443.57 1216.84 3435.36C1218.32 3428.98 1223.33 3425.91 1228.9 3422.46C1229.16 3422.3 1229.42 3422.12 1229.65 3421.92C1229.83 3421.8 1230 3421.68 1230.16 3421.55C1234.19 3418.46 1239.12 3416.39 1244.2 3416.36C1245.79 3416.36 1246.47 3415.52 1247.58 3414.38C1250.85 3411 1254.05 3407.15 1254.71 3403.1C1255.05 3398.18 1256.51 3394.01 1259.8 3390.52C1261.36 3388.87 1263.53 3387.87 1264.96 3386.1C1265.38 3385.58 1265.75 3385.04 1266.12 3384.49C1269.27 3379.85 1267.46 3371.83 1274.76 3369.18C1276.09 3368.7 1277.43 3368.19 1277.59 3366.78C1277.64 3366.34 1277.53 3365.66 1277.53 3365.21C1277.53 3361.29 1277.95 3357.66 1278.11 3353.85C1278.19 3352.06 1276.38 3350.63 1274.68 3350.05C1273.99 3349.82 1273.72 3349.28 1273.55 3348.57C1272.74 3345.16 1272.5 3342.23 1271.87 3339.9C1271.19 3337.37 1264.5 3336.8 1266.14 3332.21C1266.22 3331.99 1266.27 3331.89 1266.4 3331.7C1267.64 3329.85 1269.83 3327.92 1272.05 3327.99C1273.03 3328.02 1274 3328.07 1274.88 3328.24C1276.32 3328.51 1277.54 3329.11 1278.59 3329.43C1279.5 3329.72 1280.62 3329.14 1281.32 3328.49C1281.99 3327.86 1281.45 3326.96 1281.37 3326.04C1280.58 3316.64 1285.54 3311.09 1293.9 3306.96C1294.24 3306.79 1294.61 3306.68 1294.98 3306.68C1295.11 3306.68 1295.25 3306.68 1295.39 3306.69C1297.63 3306.78 1298.64 3309.82 1297.73 3311.88C1296.89 3313.75 1297.89 3315.89 1299.84 3316.5C1305 3318.09 1306.06 3316.97 1307.69 3308.93C1308.28 3306.08 1305.93 3303.31 1303.28 3302.1C1302.63 3301.8 1302.46 3301.47 1302.14 3300.83C1301.28 3299.1 1300.81 3297.01 1300.92 3295.32C1301.07 3293.3 1302.89 3292.43 1303.03 3290.42C1304.5 3280.31 1304.68 3279.08 1307.93 3275.41C1308.91 3274.3 1310.25 3273.7 1311.71 3273.93C1312.51 3274.06 1313.37 3274.1 1314.16 3274.3C1321.51 3276.19 1324.86 3274.35 1326.05 3269.16C1326.82 3264.41 1328.09 3258.94 1328.86 3254.19C1330.48 3243.06 1335.26 3234.06 1345.45 3228.74C1346.13 3228.39 1346.76 3227.87 1347.52 3227.77C1348.13 3227.69 1348.59 3227.18 1349.11 3226.86C1357.87 3221.43 1358.56 3220.6 1351.24 3211.04C1349.49 3208.75 1346.78 3208.22 1343.91 3208.54C1341.77 3208.79 1339.62 3207.15 1338.74 3205.18C1336.76 3200.73 1336.72 3196.53 1337.82 3192.51C1338.41 3190.36 1337 3187.98 1334.81 3188.41C1333.05 3188.76 1331.01 3187.64 1331.15 3185.85C1331.61 3180.09 1334.64 3175.51 1338.32 3171.34C1338.83 3170.76 1339.32 3170.16 1339.82 3169.57C1340.19 3169.12 1340.62 3168.64 1340.99 3168.13C1342.4 3166.22 1340.9 3163.71 1341.16 3161.35C1341.4 3159.17 1342.8 3157.63 1344.25 3156.05C1347 3153.03 1348.9 3148.73 1352.96 3148.26C1353.97 3148.15 1354.82 3150.36 1355.69 3152.25C1356.19 3153.33 1357.04 3154.2 1358.02 3154.87C1358.7 3155.33 1359.31 3155.88 1359.84 3156.51C1361.52 3158.54 1363.13 3160.52 1364.17 3162.11C1364.25 3162.22 1364.34 3162.3 1364.43 3162.41C1365.03 3163.17 1361.37 3164.53 1361.08 3163.61C1360.99 3163.32 1361.09 3163.14 1361.02 3162.85C1360.94 3162.52 1360.87 3162.19 1360.8 3161.85C1360.26 3159.1 1357.43 3158.62 1355.91 3160.97C1355.11 3162.2 1354.22 3163.34 1353.16 3164.22C1352.49 3164.89 1351.87 3165.59 1351.32 3166.33C1347.02 3172.01 1353.82 3177.53 1360.9 3176.67C1363.96 3176.29 1367.21 3174.85 1368.77 3172.19C1372.12 3166.51 1372.74 3160.1 1371.15 3152.19C1370.77 3149.03 1370.62 3145.53 1370.38 3142.16C1370.17 3139.3 1367.67 3135.61 1364.99 3136.6C1360.57 3138.22 1357.11 3138.01 1356.42 3133.36C1355.76 3128.92 1357.11 3124.87 1361.78 3122.63C1366.94 3120.16 1366.29 3116.56 1366.14 3111.7C1366.13 3111.11 1366.02 3110.71 1366.09 3110.13C1366.41 3107.37 1370.05 3106.15 1372.6 3107.24C1378.28 3109.68 1381.38 3114.2 1385.37 3118.61C1389.2 3122.63 1392.29 3115.62 1390.18 3110.49C1387.97 3105.1 1387.09 3099.94 1390.77 3095.29C1391.81 3093.98 1391.51 3091.45 1390.49 3090.13C1389.39 3088.72 1388.06 3089.63 1387.17 3091.19C1383.91 3096.88 1382.58 3098.1 1376.96 3099.27C1374.53 3099.77 1371.52 3097.46 1372.92 3095.4C1377.47 3086.89 1383.7 3079.53 1386.92 3071.17C1388.46 3066.42 1391.46 3064.65 1394.79 3063.39C1397.68 3062.3 1401.83 3062.49 1402.44 3065.52C1402.76 3067.08 1402.13 3068.53 1401.95 3069.94C1401.79 3071.25 1403.33 3072.6 1404.55 3072.09C1404.9 3071.94 1405.07 3071.68 1405.37 3071.44C1407.48 3069.8 1409.33 3067.2 1411.48 3065.71C1417.92 3061.65 1420.51 3056.03 1418.41 3048.28C1418.38 3048.16 1418.37 3048.03 1418.38 3047.89C1418.62 3045.54 1422.58 3046.57 1424.38 3048.1C1424.58 3048.27 1424.66 3048.35 1424.84 3048.54C1429.63 3053.71 1433.87 3054.46 1437.1 3051.48C1442.07 3047.37 1447.42 3042.69 1451.3 3037.66C1452.27 3036.4 1453.3 3035.17 1454.15 3033.82C1457.24 3028.89 1457.43 3021.98 1459.1 3016.08C1459.31 3015.35 1459.74 3014.35 1459.67 3013.6C1459.62 3012.98 1459.42 3012.7 1459.11 3012.16C1456.53 3007.63 1453.96 3004.78 1453.77 3001.65C1454.03 2997.93 1456.65 2996.21 1459.88 2995.3C1463.31 2994.34 1465.63 2990.49 1465.68 2986.92C1465.7 2985.44 1466.67 2985.43 1468 2984.76C1470.22 2983.65 1471.83 2982.12 1473.12 2980.38C1477.91 2973.9 1473.98 2962.05 1466.44 2964.93C1461.96 2966.1 1457.56 2959.95 1460.01 2956.34C1460.24 2956 1460.55 2955.63 1460.91 2955.26C1463.7 2952.32 1468.27 2953.17 1472.33 2953.28C1472.76 2953.29 1473.19 2953.27 1473.6 2953.22C1479.36 2952.52 1479.42 2942.71 1482.17 2937.61C1483.95 2934.3 1486.16 2930.87 1484.98 2927.31C1483.86 2923.94 1482.77 2920.56 1483.32 2917C1483.86 2913.49 1487.5 2912.02 1490.88 2913.11C1493.01 2913.8 1495.55 2913.66 1497.07 2912.01C1497.74 2911.3 1498.52 2910.68 1499.7 2910.55C1508.16 2908.92 1509.91 2902.73 1506 2895.85C1504.08 2892.85 1505.11 2891.25 1506.39 2889.69C1508.57 2887.03 1506.89 2883.78 1503.75 2882.37C1503 2882.03 1502.21 2881.69 1501.41 2881.36C1499.46 2880.54 1497.98 2878.89 1497.43 2876.85C1496.84 2874.63 1496.23 2872.23 1495.63 2869.68C1494.9 2866.56 1497.98 2864.01 1500.43 2866.08C1501.97 2867.37 1504.66 2867.68 1505.74 2865.98C1507.35 2863.42 1508.18 2860.63 1508.35 2857.68C1508.51 2855.06 1506.55 2853.18 1503.95 2853.48C1501.36 2853.77 1498.42 2852.03 1497.86 2849.48C1497.65 2848.54 1497.47 2847.63 1497.36 2846.75C1496.82 2842.32 1502.15 2842.97 1504.28 2846.89C1506.2 2850.45 1510.72 2850.98 1513.74 2848.28C1514.63 2847.49 1515.52 2846.67 1516.42 2845.85C1520.17 2842.44 1519.66 2837.43 1518.33 2832.54C1517.84 2830.72 1517.83 2828.18 1518.68 2826.28C1519.36 2824.75 1520.8 2823.71 1522.11 2822.67C1523.84 2821.3 1525.74 2820.18 1527.69 2819.06C1531.47 2816.89 1533.81 2812.68 1534.38 2808.35C1535.17 2802.39 1539.01 2797.42 1544.66 2795.35C1545.04 2795.21 1545.43 2795.06 1545.8 2794.92C1547.47 2794.26 1549.28 2793.35 1549.32 2791.55C1549.35 2790.64 1549.22 2789.67 1549.06 2789.1C1548.71 2787.81 1546.05 2788.11 1544.38 2786.97C1542.87 2785.95 1541.08 2784.9 1541.94 2783.3C1544.02 2779.42 1548.48 2778.38 1552.08 2777.44C1557.48 2776.32 1560.48 2773.56 1562.17 2769.91C1563.23 2767.61 1562.62 2765.17 1561.5 2762.89C1560.61 2761.1 1560.72 2758.85 1561.45 2756.98C1562.19 2755.07 1562.95 2753.13 1563.78 2751.1C1565 2748.11 1566.36 2744.93 1565.87 2741.75C1565.77 2741.12 1565.58 2740.52 1565.24 2739.99C1557.76 2727.53 1561.96 2717.73 1566.16 2707.93C1568.75 2702.31 1569.66 2695.55 1578.62 2693.2C1587.09 2691.57 1587.37 2687.54 1584.57 2677.21C1584.08 2675.38 1584.25 2673.47 1584.57 2672.26C1584.77 2671.5 1585.43 2670.72 1585.86 2670.07C1590.5 2662.97 1587.93 2654.4 1592.16 2647.06C1593.6 2644.55 1594.52 2641.76 1594.73 2638.78C1594.79 2632.57 1592.7 2625.66 1591.08 2618.55C1590.54 2616.19 1591.54 2613.76 1593.46 2612.29C1593.94 2611.93 1594.41 2611.56 1594.89 2611.2C1596.47 2609.99 1597.05 2607.81 1596.13 2606.05C1595.79 2605.41 1595.44 2604.75 1595.04 2604.07C1593.76 2601.83 1595.29 2598.96 1597.86 2599.25C1599.34 2599.41 1600.84 2598.44 1601.33 2597.04C1601.91 2595.33 1602.4 2593.64 1601.56 2592.1C1601.31 2591.64 1600.97 2591.22 1600.73 2590.74C1598.57 2586.43 1601.74 2586.7 1604.06 2585.91C1605.73 2585.34 1605.91 2583.33 1605.67 2581.58C1605.23 2578.46 1604.63 2574.89 1603.74 2571.06C1603.29 2569.09 1601.37 2568.08 1599.45 2568.7C1597.93 2569.19 1595.82 2568.39 1595.04 2566.99C1594.87 2566.69 1594.81 2566.41 1594.96 2566.18C1596.43 2564.02 1599.23 2561.7 1599.86 2558.97C1603.57 2541.87 1603.12 2539.23 1609.39 2533.7C1616.32 2527.58 1620 2519.23 1621.03 2510.05C1621.25 2508.1 1621.82 2506.29 1622.92 2504.67C1624.9 2501.71 1627.87 2499.15 1631.23 2495.65C1632.71 2494.11 1633.57 2493 1633.43 2490.87C1633.14 2486.25 1636 2481.28 1639.33 2478.07C1643.44 2474.09 1645.03 2468.08 1645.87 2460.54C1647.06 2449.75 1650.42 2439.38 1650.77 2428.02C1651.85 2412.66 1653.68 2397.81 1654.1 2382C1654.14 2380.48 1654.25 2378.75 1654.29 2377.23C1654.31 2376.46 1653.64 2376.15 1653.1 2375.61C1645.34 2367.84 1652.72 2363.74 1656.04 2358.85C1657.02 2357.41 1658.98 2354.52 1658.63 2353.23C1657.26 2350 1657.03 2346.98 1658.28 2344.41C1659.27 2342.38 1661.31 2340.9 1661.07 2338.67C1660.9 2337.17 1659.91 2335.73 1659.44 2334.3C1655.76 2323.09 1662.13 2312.82 1659.63 2301.19C1658.99 2298.83 1659.87 2295.73 1660.51 2293.13C1660.62 2292.66 1660.82 2292.21 1661.09 2291.82C1661.17 2291.7 1661.25 2291.59 1661.32 2291.48C1662.99 2289.07 1662.01 2284.84 1659.57 2283.23C1658.84 2282.74 1658.59 2282.19 1658.25 2281.38C1657.81 2280.35 1657.33 2279.28 1657.67 2278.78C1663.06 2270.84 1660.27 2260.51 1662.65 2251.59C1663.77 2248.13 1660.69 2241.82 1658.32 2238.1C1651.88 2229.51 1653.42 2220.01 1655.32 2211.81C1658.33 2200.15 1658.19 2189.52 1652.04 2176.9C1647.77 2168.73 1648.96 2157.94 1649.18 2148.6C1649.11 2143.28 1648.9 2139.98 1646.17 2134.96C1643.03 2130.04 1639.89 2125.12 1641.29 2119.69C1641.68 2118.15 1642.53 2116.67 1642.16 2115.12C1642.09 2114.8 1642 2114.47 1641.91 2114.14C1636.67 2094.77 1632.26 2075.96 1626.53 2057.31C1624.08 2048.27 1623.81 2039.64 1617.86 2030.34C1613.11 2022.89 1609.68 2015.29 1607.23 2006.25C1605.98 1999.07 1600.38 1991.05 1597.79 1984.02C1591.78 1969.39 1582.27 1954.5 1579.4 1938.85C1578.7 1936.26 1575.84 1933.26 1573.81 1930.83C1569.75 1925.96 1567.02 1920.95 1566.95 1915.63C1567.38 1909.59 1565.98 1904.42 1561.43 1900.28C1560.48 1899.22 1559.78 1898.05 1559.22 1896.84C1554.89 1887.46 1547.28 1878.64 1542.04 1869.73C1541.59 1868.96 1541.19 1868.17 1540.87 1867.34C1537.58 1857.73 1531.01 1851.15 1524.92 1843.85C1524.09 1842.85 1523.48 1841.83 1522.94 1840.74C1521.31 1837.45 1520.62 1833.73 1519.14 1830.36C1517.88 1827.48 1515.96 1824.71 1513.66 1822.5C1506.39 1813.34 1498.13 1805.63 1491.35 1795.75C1485.4 1786.44 1478.97 1777.85 1471.2 1769.41C1468.3 1765.93 1466.11 1762.22 1463.6 1758.82C1458.14 1751.44 1451.27 1744.32 1445.21 1737.41C1441.02 1732.63 1436.26 1728.19 1433.15 1722.48C1429.23 1715.6 1423.15 1708.31 1416.92 1703.02C1402.09 1688.73 1385.93 1674.6 1369.77 1660.46C1367.95 1658.55 1365.26 1656.48 1363.07 1655.44C1361.17 1654.54 1359.03 1655.31 1356.93 1655.37C1350.08 1655.57 1346.4 1649.72 1340.95 1645.1C1335.56 1640.38 1332.48 1634.07 1323.32 1633.12C1320.71 1632.92 1318.53 1630.08 1315.9 1626.63C1314.15 1624.32 1311.3 1623.17 1308.42 1623.5C1304.19 1623.98 1301.35 1621.09 1300.12 1617.01C1299.73 1615.69 1298.97 1614.47 1297.43 1613.43C1290.72 1608.87 1283.79 1601 1276.45 1599.17C1271.16 1597.57 1267.93 1594.55 1265.25 1591.19C1259.57 1584.06 1256.63 1572.95 1248.27 1569.34C1245.54 1568.16 1242.46 1567.47 1239.58 1566.75C1230.55 1563.79 1223.35 1559.95 1215.58 1551.51C1212.85 1547.87 1200.51 1541.49 1193.58 1540C1191.53 1539.57 1189.41 1539.67 1187.33 1539.55C1185.27 1539.44 1183.5 1539.21 1181.79 1538.05C1180.76 1537.35 1179.73 1536.65 1178.7 1535.95C1177.4 1535.07 1176.05 1534.27 1174.61 1533.65C1169.43 1531.44 1163.25 1529.67 1158.84 1526.68C1153.8 1523.25 1151.22 1516.23 1145.83 1511.51C1142.96 1508.51 1136.59 1505.24 1133.94 1505.54C1125.47 1507.17 1122.18 1497.56 1115.18 1497.02C1108.19 1496.49 1103.01 1495.08 1098.11 1489.65C1096.63 1487.87 1093.47 1486.64 1090.51 1486C1088.47 1485.56 1086.4 1485.24 1084.36 1484.83C1080.31 1484 1076.47 1483.59 1072.71 1481.88C1068.55 1480.51 1064.44 1478.18 1060.76 1476.16C1057.73 1474.51 1054.26 1472.48 1054.56 1469.05C1054.83 1466 1056 1462.84 1050.47 1460.45C1043.23 1456.92 1034.64 1461.17 1027.28 1457.9C1017.74 1453.67 1008.01 1449.86 998.062 1449.1C993.724 1448.26 989.526 1445.41 986.168 1443.13C985.445 1442.64 985.06 1441.99 984.721 1441.32C984.107 1440.09 984.281 1438.16 985.563 1437.68C986.936 1437.17 987.834 1435.23 986.782 1434.2C984.505 1431.99 981.893 1430.37 978.544 1432.68C975.744 1435 972.245 1434.73 968.397 1433.17C967.063 1432.84 965.714 1432.53 964.356 1432.25C953.198 1429.9 941.687 1424.44 930.686 1421.45C929.724 1421.19 928.805 1420.88 927.956 1420.46C921.589 1417.19 915.082 1415.94 907.735 1414.11C899.549 1411.71 890.383 1410.76 883.457 1402.89C880.567 1400.11 875.677 1399.17 871.208 1398.22C868.947 1397.74 867.185 1396.23 867.023 1393.93C866.843 1391.36 865.265 1388.87 862.867 1387.95C857.223 1385.78 851.428 1383.99 845.816 1387.87C838.887 1392.65 830.7 1390.25 824.474 1384.97C818.875 1381.17 813.276 1377.36 805.982 1376.06C805.256 1375.93 804.54 1375.94 803.818 1375.78C801.136 1375.21 799.821 1372.12 798.269 1369.86C795.707 1366.13 791.866 1364.28 787.778 1362.8C783.733 1361.33 781.903 1364.56 779.486 1368.12C777.525 1371 774.517 1370.02 771.509 1369.03C761.643 1365.49 751.778 1361.95 741.912 1358.41C735.056 1355.86 726.87 1353.47 719.033 1352.36C707.111 1350.4 695.866 1347.44 684.735 1344.31C680.448 1343.1 674.604 1337.34 679.022 1336.78C679.945 1336.66 681.005 1336.89 681.896 1337.15C686.459 1338.51 690.733 1340.29 695.77 1340.95C695.978 1340.98 696.19 1340.98 696.397 1340.95C696.528 1340.92 696.661 1340.89 696.798 1340.86C698.553 1340.44 699.894 1337.07 698.107 1336.82C697.785 1336.77 697.534 1336.77 697.222 1336.68C690.081 1334.63 683.19 1333.53 675.755 1332.16C673.989 1331.83 672.141 1332.19 670.845 1333.43C670.666 1333.61 670.489 1333.78 670.313 1333.95C668.41 1335.83 665.502 1335.72 663.562 1333.87C662.211 1332.59 660.953 1331.37 659.65 1330.12C657.766 1328.31 654.54 1329.89 654.013 1332.44C653.661 1334.15 652.005 1334.85 650.308 1334.43C639.299 1331.75 637.106 1331.92 618.152 1336.11C615.915 1336.61 614.992 1334.41 613.097 1333.12C605.051 1328.71 596.656 1323.01 588.538 1325.93C583.687 1327.51 579.792 1326.61 575.828 1326.39C573.44 1326.25 571.035 1326.32 568.652 1326.11C561.424 1325.46 554.627 1325.2 547.566 1325.4C546.475 1325.43 545.132 1325.27 544.045 1325.37C541.594 1325.6 539.43 1325.5 537.089 1324.75C526.089 1321.17 515.952 1322.87 505.129 1324.1C501.141 1324.56 496.313 1324.44 492.464 1322.88C479.241 1317.06 466.645 1321.16 453.839 1321.95C447.191 1322.71 440.194 1322.17 432.847 1320.34C431.732 1320.13 430.628 1319.95 429.528 1319.8C419.791 1318.48 407.929 1309.72 415.149 1303.05C420.748 1298.42 421.31 1290.37 426.419 1286.46C432.019 1281.83 433.77 1275.64 438.53 1270.43C441.358 1267.24 443.598 1263.35 445.697 1259.21C449.165 1252.38 444.768 1244.14 448.295 1237.34C449.105 1235.78 451.037 1234.79 452.718 1234.26C454.103 1233.83 455.622 1233.34 457.014 1232.38C467.295 1226.03 468.171 1223.27 461 1210.46C460.592 1209.73 460.246 1209.19 460.259 1208.35C460.268 1207.81 460.618 1207.09 460.914 1206.63C463.034 1203.39 467.05 1205.92 470.583 1206.36C472.495 1206.59 473.341 1204.51 472.502 1202.77C472.268 1202.29 472.023 1201.82 471.766 1201.37C470.025 1198.33 467.565 1190.82 470.646 1189.16C473.172 1187.81 473.729 1183.93 472.491 1181.34C471.109 1178.45 471.944 1175.51 472.444 1172.76C473.154 1168.85 473.189 1163.54 476.953 1162.26C480.052 1161.21 483.223 1161.5 486.13 1161.57C488.18 1161.62 490.472 1161.23 491.509 1159.46C493.357 1156.3 491.231 1151.66 493.075 1150.39C499.514 1146.33 498.606 1140.44 499.028 1134.4C499.449 1128.36 503.37 1122.59 503.792 1116.55C504.844 1107.78 506.735 1099.57 510.796 1091.79C512.816 1087.41 514.326 1082.68 515.723 1077.87C516.394 1075.56 518.55 1074.09 520.947 1073.93C522.903 1073.81 524.655 1072.32 525.178 1070.43C527.085 1063.55 530.153 1056.71 535.864 1050.93C536.32 1050.47 536.676 1050.11 537.009 1049.55C537.938 1048 538.06 1045.8 537.564 1044.06C536.714 1041.08 534.338 1037.7 537.193 1034.86C539.993 1032.55 543.282 1029.51 545.242 1026.62C545.725 1025.91 546.123 1024.89 546.419 1023.79C547.012 1021.6 547.287 1019.32 548.001 1017.17C549.642 1012.22 551.648 1007.52 553.087 1002.43C554.208 998.973 555.328 995.517 555.119 992.212C554.963 989.743 550.902 986.975 550.433 984.166C550.086 982.084 552.025 980.315 553.795 979.165C555.741 977.901 558.046 977.066 559.393 975.083C562.964 968.02 571.572 964.377 570.455 955.184C570.28 952.415 571.284 950.446 573.466 949.279C574.356 948.802 575.334 948.465 576.103 947.811C578.457 945.808 578.975 943.035 578.447 939.644C578.209 938.124 576.435 936.921 574.905 937.074C574.002 937.164 573.371 937.558 572.467 937.631C570.337 937.803 568.445 937.626 567.872 935.507C567.827 935.342 567.798 935.155 567.785 934.952C567.6 932.134 570.7 930.435 573.14 929.014C579.637 925.229 584.176 918.513 583.306 911.044C582.73 906.102 582.171 901.383 582.018 896.617C581.809 893.312 582.439 890.577 584.749 888.983C597.591 877.819 596.546 861.872 597.622 846.036C597.908 841.834 594.775 838.047 590.567 837.857C587.455 837.717 584.497 835.636 584.088 832.547C584.026 832.074 583.987 831.618 583.98 831.182C583.972 830.718 584.05 830.257 584.152 829.805C585.321 824.619 586.026 820.046 585.96 814.95C586.023 808.538 588.121 801.895 590.707 796.087C591.436 794.448 592.116 792.783 592.554 791.043C594.829 782.01 595.665 771.923 601.789 764.552C605.71 758.78 605.432 750.157 603.335 742.406C602.556 737.355 602.499 731.242 602.544 724.978C602.558 723.028 602.232 721.625 600.618 720.529C599.076 719.482 597.388 717.307 597.782 715.485C598.192 713.59 599.073 712.06 600.249 710.718C605.003 705.296 608.029 697.627 605.101 691.037C602.618 685.452 600.105 680.321 605.883 678.328C607.326 677.83 608.674 677.084 609.689 675.721C610.616 674.478 610.836 672.873 610.909 671.325C611.453 659.737 610.155 646.209 606.096 633.58C601.891 620.496 602.427 610.632 611.792 602.914C612.373 602.436 612.734 602.131 613.157 601.509C614.307 599.816 614.862 597.432 613.875 595.639C611.728 591.739 608.302 588.074 610.1 582.529C611.042 580.085 609.926 576.965 608.586 573.359C606.591 567.994 607.357 562.282 609.021 556.805C610.789 550.99 611.433 544.417 606.685 536.983C606.016 535.934 605.812 534.2 605.875 532.396C605.969 529.694 606.15 526.619 605.693 523.954C605.164 520.862 606.712 518.189 606.759 515.053C606.868 507.747 603.358 500.558 603.129 493.449C602.86 485.096 606.663 477.53 603.023 469.639C602.785 469.124 602.527 468.461 602.397 467.91C602.016 466.299 602.383 464.675 602.47 463.022C602.873 455.378 605.68 448.164 600.766 439.128C596.849 432.251 598.392 422.756 596.785 414.285C596.227 409.688 594.829 404.521 595.6 399.773C596.371 395.025 595.812 390.429 592.595 386.135C591.969 385.154 591.343 384.174 590.839 383.277C590.066 381.9 589.789 380.33 589.524 378.773C588.1 370.406 584.58 362.229 580.359 353.575C575.743 344.115 575.606 333.478 574.14 322.994C571.766 306.621 567.082 291.842 558.409 277.517C556.563 274.625 554.21 271.389 553.382 268.202C552.921 266.426 553.05 264.545 552.703 262.744C551.654 257.308 549.131 252.949 545.384 248.578C543.866 246.808 541.948 245.354 540.71 243.378C539.596 241.602 538.707 239.495 537.429 237.963C533.022 231.807 528.965 226.943 524.558 220.787C522.835 218.984 521.112 217.18 519.677 215.343C517.869 213.028 517.157 210.094 515.922 207.428C513.081 201.296 507.195 196.838 502.875 191.299C499.209 186.903 491.483 184.055 491.427 177.492C491.414 176.016 491.716 174.231 490.495 173.401C473.364 160.761 460.999 142.743 441.773 133.34C439.864 132.406 437.914 131.524 436.048 130.506C435.191 130.039 434.398 129.478 433.829 128.587C428.233 120.569 421.658 113.994 410.322 112.621C408.153 112.202 406.615 109.049 404.096 107.338C396.89 103.498 388.985 97.0735 381.148 95.9681C363.306 93.3378 350.363 83.4932 336.091 73.7995C333.651 72.1419 331.395 71.1666 328.867 70.1587C326.879 69.3659 324.815 68.7807 322.728 68.3098C315.044 66.5766 307.247 63.951 300.478 61.2078C288.444 57.2513 276.55 51.2818 265.214 49.9085C250.38 48.2675 238.136 41.006 224.282 37.9219C213.437 35.8271 204.203 29.5549 193.707 28.7518C190.208 28.4839 185.171 25.0622 181.323 23.5028C174.467 20.9544 168.099 17.6844 160.962 19.1622C160.136 19.2561 158.797 19.4084 157.498 19.2371C155.945 19.0321 154.583 18.1378 153.195 17.4097C148.475 14.9333 144.067 12.1738 139.552 10.9456C135.214 10.1078 130.104 14.0176 125.067 10.5964C119.19 6.60488 113.872 7.2103 108.554 7.81552C97.0779 8.45518 86.2324 6.36006 75.0377 2.97358C68.4802 1.34285 61.6442 -1.31665 55.3242 1.53137C53.748 2.24163 52.3162 3.37757 50.6005 3.59021C49.7508 3.69541 48.8596 3.6305 47.7479 3.41579C35.2233 0.180545 22.7669 2.26382 10.8011 3.62522C1.49409 4.6838 -7.81313 5.74225 -17.1201 6.80118C-26.4271 7.85976 -37.412 7.77749 -45.1805 11.9898C-47.0002 12.8625 -48.3295 13.0142 -50.9887 13.3167C-54.4884 13.3364 -57.7282 13.7029 -60.7083 14.4162C-73.4441 17.4648 -86.426 22.4957 -99.4834 21.4966C-102.982 21.2289 -106.971 21.6826 -110.12 22.7066C-117.748 24.9057 -126.216 26.535 -135.032 26.8723C-146.858 26.2205 -156.445 31.3051 -166.383 35.0985C-174.991 38.7407 -183.249 43.6748 -194.444 40.2885C-194.999 40.1814 -195.617 40.1686 -196.261 40.2233C-199.933 40.5357 -203.249 42.5506 -206.618 44.0433C-207.155 44.2812 -207.729 44.4629 -208.371 44.5361C-212.605 44.4339 -217.377 42.3444 -221.698 45.3414C-223.005 46.2481 -223.87 47.7047 -225.236 48.5191C-228.417 50.4142 -233.838 50.3387 -237.902 51.89C-253.439 60.3147 -270.164 66.8774 -285.211 74.5807C-292.49 78.0716 -299.419 82.8538 -306.697 86.3446C-312.156 88.9629 -317.964 90.2897 -322.583 93.478C-330.351 97.6904 -338.12 101.903 -344.209 107.256C-353.588 115.646 -360.449 125.746 -369.478 135.428C-373.748 139.908 -375.849 144.807 -381.307 147.425C-385.437 149.892 -389.217 153.65 -387.469 160.109C-387.175 161.196 -389.111 163.008 -390.108 165.185C-390.48 165.998 -390.571 166.893 -390.727 167.773C-391.349 171.3 -389.682 174.24 -387.752 177.257C-384.39 182.511 -385.813 188.063 -385.87 193.879C-386.151 197.905 -383.283 200.908 -378.944 201.746C-367.75 205.132 -359.981 200.92 -351.723 195.986C-346.586 193.522 -344.393 189.058 -342.096 184.285C-338.501 176.813 -330.603 173.293 -322.316 172.976C-317.795 172.803 -313.273 172.631 -308.752 172.458C-300.774 171.55 -294.476 169.502 -292.094 160.576C-290.591 155.264 -286.512 150.148 -282.686 145.973C-281.461 144.635 -280.391 143.091 -278.856 142.123C-276.777 140.811 -274.027 140.367 -271.725 139.619C-265.427 137.571 -259.129 135.523 -252.831 133.475C-248.503 131.644 -244.176 129.813 -240.346 127.108C-235.089 123.396 -224.007 121.814 -217.634 122.708C-213.492 123.289 -209.431 122.139 -206.343 119.317C-201.769 115.135 -197.569 114.043 -189.008 113.565C-187.637 113.409 -185.595 113.708 -183.806 113.837C-181.292 114.017 -179.323 112.252 -177.169 110.943C-171.138 107.279 -163.933 107.679 -156.119 108.492C-152.62 108.76 -148.631 108.306 -144.992 106.56C-139.395 103.876 -133.076 106.712 -127.026 105.323C-120.216 103.759 -112.583 104.444 -105.595 102.744C-104.763 102.65 -103.274 103.001 -102.191 103.594C-101.109 104.186 -100.617 105.434 -99.9046 106.44C-96.3715 111.426 -93.205 110.338 -89.8638 108.746C-88.1034 107.907 -87.5187 105.28 -88.4923 103.591C-89.5767 101.709 -88.4444 99.7742 -86.3483 99.2058C-85.925 99.091 -85.4982 98.971 -85.0637 98.8396C-82.7733 98.1476 -80.2013 99.0316 -79.3293 101.259C-79.195 101.603 -79.0621 101.945 -78.9274 102.289C-78.0727 104.47 -74.6616 106.564 -73.3935 104.594C-73.0558 104.069 -72.9775 103.421 -72.6403 102.896C-69.2736 97.6474 -63.2538 95.4552 -57.5047 93.0428C-49.6495 89.7465 -41.6827 85.2861 -33.1812 84.7417C-30.106 84.5446 -27.0029 84.4506 -23.8527 84.5302C-22.6928 84.5596 -21.8451 84.4356 -20.7608 84.8489C-17.9918 85.9047 -16.8431 89.2526 -14.7713 91.3713C-14.225 91.9304 -13.4097 92.094 -12.036 91.4351C-10.2165 90.5622 -8.74692 88.398 -7.76681 86.955C-5.62373 83.7998 -2.47741 83.0065 1.21129 83.8535C3.37286 84.3501 4.13786 86.7391 2.45841 88.1876C0.129067 90.1966 1.17929 94.4264 4.25165 94.2782C17.4362 93.6418 28.6874 92.7938 39.3942 91.5757C40.073 91.4984 40.7884 90.8965 41.5681 90.2096C42.9898 88.9573 44.7478 88.8852 46.315 89.9497C49.2479 91.9417 53.7682 90.8214 55.1588 87.56C55.4953 86.7704 55.8203 85.9378 56.1204 85.0128C58.1202 80.6741 59.6605 79.1645 64.5712 80.6607C67.4398 81.5345 68.5249 84.8117 66.8399 87.2926C64.8876 90.1669 66.3496 94.3827 69.7998 94.7936C73.2414 95.2037 76.5049 95.2768 79.5479 94.6668C83.4617 93.8824 87.6474 93.5386 91.3606 95.0035C95.6867 96.7102 100.133 97.773 104.503 97.4639C105.086 97.4226 105.672 97.4098 106.256 97.4356C107.36 97.4846 108.503 97.4761 109.656 97.4527C113.261 97.3795 116.273 93.3254 112.748 92.5663C112.439 92.4997 112.128 92.4506 111.824 92.4097C110.748 92.2642 109.793 91.6707 109.297 90.7041C109.229 90.5721 109.161 90.4363 109.096 90.2988C108.723 89.516 108.855 88.6527 109.342 87.9353C110.056 86.8847 111.384 86.3643 112.608 86.7008C115.748 87.5637 118.863 88.4616 121.845 89.5564C124.191 90.4174 125.711 92.6466 126.061 95.1202C126.091 95.3308 126.12 95.5372 126.148 95.74C126.423 97.7411 127.479 99.7425 129.15 100.878C129.587 101.175 129.983 101.354 130.485 101.52C133.244 102.434 136.028 103.44 139.104 105.529C147.99 110.51 156.175 112.908 166.181 114.433C180.525 116.795 195.079 122.462 209.283 126.838C219.148 130.376 228.804 130.608 238.529 136.159C239.3 136.683 240.662 136.718 242.248 136.629C245.144 136.467 247.423 133.29 246.468 130.551C245.7 128.349 246.682 126.139 248.931 125.522C249.744 125.298 250.527 125.054 251.197 124.733C261.613 119.737 269.159 127.186 277.972 131.58C278.819 132.002 279.558 132.361 280.303 132.944C281.768 134.09 281.959 136.155 282.169 138.002C283.05 145.743 290.294 147.913 296.462 150.206C306.328 153.744 315.073 160.738 325.22 160.249C325.353 160.234 325.49 160.232 325.63 160.241C328.162 160.405 329.872 162.835 331.865 164.406C339.181 170.169 348.084 170.018 356.495 172.003C362.512 173.981 367.341 174.097 373.077 180.102C376.988 184.443 383.623 185.926 389.808 188.304C392.885 189.487 396.058 190.494 399.095 191.777C399.895 192.116 400.627 192.489 401.202 192.88C411.626 201.014 422.049 209.148 431.983 218.004C438.209 223.287 443.946 229.291 447.023 235.598C450.939 242.476 457.796 245.026 461.222 252.624C467.027 263.947 475 275.688 483.954 285.987C486.822 288.989 490.389 294.575 489.758 297.31C487.867 305.514 493.113 312.24 495.7 319.268C498.637 327.589 502.903 335.758 501.011 343.962C500.539 346.008 501.007 348.691 502.268 351.472C503.151 353.421 504.611 355.034 505.829 356.794C507.821 359.674 509.334 363.29 509.121 366.339C509.467 380.28 515.481 394.907 515.826 408.848C516.035 412.153 515.754 416.179 517.293 419.333C522.398 428.072 522.675 436.696 522.462 446.04C521.9 454.093 525.677 462.983 525.954 471.606C525.882 478.937 524.13 485.128 526.227 492.878C531.12 510.961 530.345 528.359 529.08 546.477C528.799 550.503 529.358 555.1 530.406 558.975C531.664 566.155 530.752 572.916 532.009 580.096C533.267 587.276 534.524 594.455 533.613 601.216C533.547 602.154 533.664 603.215 533.878 604.343C534.394 607.066 534.84 609.809 535.263 612.548C535.888 616.593 536.978 620.669 536.405 624.199C534.023 633.124 533.81 642.468 535.767 652.232C537.723 661.995 534.851 671.642 535.128 680.265C536.804 694.054 534.141 707.006 533.648 720.377C532.889 731.24 529.837 745.08 528.968 755.935C528.961 756.021 528.955 756.108 528.949 756.195C528.751 759.02 529.209 761.77 528.363 764.209C527.591 766.434 524.688 769.115 526.635 770.438C536.22 778.002 529.291 782.785 527.539 788.975C525.017 799.914 521.165 811.004 519.482 822.513C518.862 826.333 519.329 830.891 519.753 835.969C519.944 838.258 519.186 840.094 517.282 841.376C515.047 842.881 514.131 846.201 515.33 848.614C515.873 849.707 516.33 850.8 516.578 851.855C517.755 856.854 513.272 862.425 514.342 867.448C515.457 872.686 516.001 877.813 514.945 882.632C513.588 888.831 510.988 895.115 508.22 900.825C506.072 905.257 503.389 909.407 503.851 914.164C504.128 922.787 501.397 930.42 499.996 937.903C497.614 946.828 493.902 955.905 492.36 965.4C490.818 974.896 487.106 983.972 483.395 993.049C482.274 996.505 481.154 999.961 479.684 1002.13C476.254 1007.18 474.643 1011.35 479.889 1018.08C484.995 1026.82 481.914 1033.16 473.656 1038.09C473.184 1038.32 472.622 1038.56 472.032 1038.81C468.913 1040.14 467.332 1043.16 465.668 1046.11C461.543 1053.44 454.207 1059.54 453.914 1068.97C453.633 1072.99 452.022 1077.17 450.902 1080.63C450.365 1082.96 449.827 1085.29 449.29 1087.62C449.104 1088.42 449.029 1089.28 449.119 1090.11C449.619 1094.66 448.163 1099.44 444.555 1102.26C442.068 1104.2 439.946 1106.44 438.564 1109.14C436.071 1114 434.305 1119.55 431.671 1124.33C426.834 1133.12 425.615 1144.15 418.202 1152.25C415.403 1154.57 414.632 1159.31 413.511 1162.77C411.046 1169.87 406.66 1176.09 403.472 1183.01C399.927 1190.71 395.594 1198.44 391.785 1206C387.359 1214.79 386.104 1225.18 382.981 1234.81C378.639 1246.62 371.778 1256.73 371.285 1270.1C370.811 1276.88 366.02 1281.38 364.045 1287.89C363.415 1289.97 361.959 1291.9 359.102 1293.45C354.973 1295.92 354.551 1301.96 353.29 1307.43C349.157 1322.54 339.919 1328.92 322.775 1328.87C319.276 1328.6 316.268 1327.62 313.119 1328.64C294.714 1334.06 275.401 1333.6 256.437 1334.42C254.37 1334.47 252.372 1334.97 250.39 1335.62C240.387 1338.89 228.442 1340.89 218.119 1338.85C218.04 1338.84 217.96 1338.82 217.881 1338.81C217.138 1338.56 216.315 1338.33 215.481 1338.14C211.501 1337.21 207.914 1339.93 203.975 1341.02C201.584 1341.68 199.068 1341.88 196.465 1341.75C194.786 1341.67 193.103 1341.55 191.424 1341.65C176.098 1342.63 161.937 1347.8 147.273 1348.84C140.626 1349.59 134.817 1350.92 127.82 1350.39C118.653 1349.43 110.046 1353.07 101.928 1355.99C98.7789 1357.02 96.4691 1358.61 93.3201 1359.64C91.8292 1360.24 90.2975 1360.82 88.7268 1361.36C77.8494 1365.04 65.1139 1368.34 53.8228 1370.44C52.9141 1370.61 52.032 1370.81 51.1922 1371.09C42.5843 1374.73 35.1651 1380.23 25.7177 1383.3C10.3215 1389.72 -4.58455 1395.41 -20.3304 1400.53C-23.4794 1401.55 -25.7893 1403.14 -28.0989 1404.74C-38.8077 1413.28 -50.5644 1417.95 -65.8886 1417.03C-72.8857 1416.49 -77.8548 1418.39 -81.7749 1424.16C-82.5487 1425.3 -82.2206 1426.89 -83.0931 1427.96C-87.2526 1433.04 -95.3672 1433.07 -100.768 1435.83C-102.283 1436.61 -103.466 1437.87 -104.639 1439.1C-109.418 1444.12 -114.734 1448.02 -122.718 1450.12C-133.004 1452.62 -142.592 1457.71 -150.152 1465.22C-153.441 1468.26 -157.571 1470.73 -160.861 1473.76C-162.434 1475.07 -164.007 1476.37 -165.046 1477.84C-166.622 1480.08 -166.398 1483.1 -167.276 1485.69C-169.088 1491.04 -172.459 1494.89 -178.361 1497.72C-180.181 1498.6 -181.651 1500.76 -183.121 1502.93C-191.311 1513.18 -199.501 1523.43 -206.361 1533.53C-210.772 1540.02 -214.692 1545.8 -220.781 1551.15C-225.401 1554.34 -230.16 1559.54 -228.553 1568.01C-228.344 1571.31 -232.125 1575.07 -234.924 1577.39C-237.615 1579.87 -240.306 1582.36 -241.618 1585.78C-242.22 1587.35 -242.552 1589.01 -242.962 1590.64C-244.569 1597.03 -245.222 1604.16 -252.846 1607.39C-253.717 1607.81 -254.043 1609.08 -254.307 1610.52C-254.868 1613.59 -256.073 1616.53 -257.001 1619.51C-260.87 1631.94 -264.329 1644.75 -269.515 1657.22C-274.206 1667.74 -271.41 1678.07 -269.944 1688.55C-269.036 1694.44 -268.128 1700.33 -267.22 1706.22C-266.889 1709.63 -266.715 1712.93 -266.668 1716.23C-266.547 1724.75 -263.66 1732.82 -258.084 1739.27C-255.035 1742.8 -252.506 1746.62 -251.489 1751.7C-250.057 1756.99 -245.615 1761.5 -240.283 1764.35C-238.204 1765.46 -236.744 1767.32 -237.211 1769.63C-237.645 1771.78 -236.855 1774.27 -235.062 1775.53C-234.242 1776.11 -233.415 1776.71 -232.578 1777.36C-229.445 1779.76 -229.351 1784.15 -228.344 1787.97C-227.928 1789.55 -226.972 1791.08 -225.331 1792.66C-219.105 1797.94 -212.039 1803.79 -205.323 1808.36C-203.539 1809.57 -201.333 1811.07 -199.253 1811.73C-197.665 1812.24 -195.949 1812.06 -194.29 1812.22C-185.242 1813.09 -176.043 1816.6 -167.187 1817.65C-160.951 1818.4 -154.591 1819.23 -148.4 1820.29C-139.547 1821.8 -131.148 1820.22 -122.476 1818.24C-113.583 1816.62 -104.633 1819.39 -96.2516 1816.65C-94.5321 1816.09 -93.2125 1815.52 -91.5593 1816.25C-88.7981 1817.48 -85.3502 1817.64 -82.6075 1816.37C-79.3622 1814.87 -76.2848 1813.25 -72.7928 1811.92C-70.9732 1811.05 -68.3139 1810.74 -68.6635 1809.45C-70.1298 1798.97 -62.0842 1803.38 -55.9264 1803.34C-48.4391 1803.16 -40.9522 1802.97 -34.5134 1798.91C-30.9402 1796.78 -27.105 1795.61 -22.4644 1795.78C-20.9812 1795.83 -19.4349 1795.96 -18.1301 1795.25C-17.8079 1795.08 -17.4929 1794.87 -17.1979 1794.64C-16.3691 1793.99 -15.6943 1793.14 -14.8735 1792.47C-11.0753 1789.39 -10.1938 1789.32 -6.14553 1793.24C-4.98451 1794.36 -2.61558 1794.54 -1.42782 1793.44C-1.16721 1793.2 -1.10036 1792.93 -1.03235 1792.59C0.370869 1785.4 2.54194 1780.65 9.64731 1777.24C16.9257 1773.75 23.0148 1768.4 29.1042 1763.05C32.884 1759.29 40.0905 1763.13 41.4923 1755.65C42.7534 1750.18 50.4492 1753.3 54.9279 1752.12C67.0345 1748.75 79.2817 1743.36 88.1708 1735.69C94.2601 1730.34 102.378 1727.42 106.439 1719.63C107.909 1717.47 111.058 1716.44 113.368 1714.85C115.883 1713.35 118.892 1711.79 121.145 1709.56C124.052 1706.69 124.849 1701.29 128.85 1700.46C129.005 1700.43 129.163 1700.4 129.326 1700.38C138.143 1700.05 143.393 1694.12 147.313 1688.35C153.104 1681.28 158.895 1674.2 167.042 1669.27C170.555 1667.15 172.528 1663.1 171.86 1659.05C171.793 1658.65 171.734 1658.24 171.683 1657.85C171.556 1656.85 172.149 1655.65 173.018 1655.15C173.741 1654.73 174.285 1654.76 175.12 1654.82C183.525 1655.41 188.7 1652.71 193.369 1645.83C199.739 1636.45 208.279 1627.49 218.007 1620.39C225.426 1614.89 233.335 1608.67 242.433 1604.3C245.582 1603.28 248.522 1598.95 249.643 1595.49C253.145 1583.11 263.504 1573.28 262.319 1558.77C262.11 1555.46 265.89 1551.7 269.529 1549.96C274.498 1548.06 275.618 1544.61 277.578 1541.72C279.048 1539.55 281.848 1537.24 284.507 1536.94C288.818 1536.83 290.555 1533.93 292.522 1531.34C295.078 1527.97 298.696 1524.83 299.281 1520.64C299.753 1517.27 301.708 1513.69 304.609 1511.9C311.684 1507.52 317.659 1501.25 319.718 1492.32C320.489 1487.57 326.647 1487.54 327.908 1482.07C331.27 1471.7 338.829 1464.18 341.351 1453.25C342.693 1448.5 345.31 1444 349.893 1441.17C352.482 1439.57 354.59 1436.91 354.212 1433.89C354.204 1433.82 354.194 1433.75 354.185 1433.68C353.798 1430.7 355.301 1428.18 358.255 1427.64C358.488 1427.6 358.728 1427.55 358.974 1427.49C359.858 1427.29 360.599 1426.72 361.108 1425.96C361.555 1425.31 361.795 1424.53 361.829 1423.74C362.499 1407.94 370.893 1401.3 387.27 1400.09C394.758 1399.9 402.245 1399.72 409.591 1401.54C416.099 1402.8 424.775 1404.48 430.234 1401.86C441.152 1396.62 451.857 1400.73 463.192 1402.1C476.696 1403.9 490.06 1407.7 502.657 1403.61C504.476 1402.73 506.995 1404.44 510.494 1404.71C514.832 1405.55 519.17 1406.39 523.159 1405.93C536.454 1404.42 549.468 1406.94 562.623 1407.44C566.122 1407.7 570.111 1407.25 573.959 1408.81C579.137 1410.22 582.636 1410.48 587.114 1409.31C590.264 1408.29 594.602 1409.12 597.96 1411.4C606.005 1415.82 613.842 1416.92 622.659 1416.58C632.315 1416.82 642.321 1418.34 652.677 1421.16C665.201 1424.39 678.706 1426.18 692.21 1427.98C693.684 1428.26 695.159 1428.55 696.216 1428.88C697.027 1429.13 697.665 1429.72 698.207 1430.37C698.456 1430.67 698.706 1430.97 698.957 1431.28C701.815 1434.79 705.418 1433.13 709.912 1432.62C711.867 1432.4 714.276 1432.48 716.805 1432.65C718.645 1432.77 720.469 1433.07 722.253 1433.54C739.474 1438.01 756.839 1444.25 774.683 1447.47C782.582 1448.89 790.582 1451.72 798.016 1454.75C801.838 1456.31 805.287 1458.41 806.677 1463.55C807.376 1466.14 811.225 1467.7 814.233 1468.68C820.076 1470.86 825.664 1472.09 831.734 1473.54C833.499 1473.96 835.303 1472.84 835.954 1471.15C836.689 1469.23 838.924 1468.22 840.746 1469.16C844.061 1470.88 847.196 1472.6 850.409 1473.22C853.418 1474.21 858.386 1472.32 861.394 1473.3C868.251 1475.85 875.947 1478.97 882.314 1482.24C890.85 1485.93 899.386 1489.62 907.572 1492.02C913.071 1494.06 913.62 1494.1 918.313 1491.78C920.806 1490.55 923.563 1491.44 924.938 1493.86C925.214 1494.34 925.484 1494.92 925.652 1495.46C927.128 1500.13 930.003 1502.92 935.699 1504.8C947.733 1508.75 959.767 1512.71 969.351 1520.27C974.415 1524.7 980.376 1527.41 986.239 1530.25C998.344 1536.1 1013.6 1538.81 1026.02 1543.97C1028.64 1545.06 1031.23 1546.49 1033.79 1548.23C1040.51 1552.79 1047.22 1557.35 1053.59 1560.62C1059.96 1563.89 1065.83 1567.88 1073.46 1565.68C1076.61 1564.66 1081.51 1570.09 1085.84 1570.93C1093.68 1572.04 1099.7 1574.01 1104.45 1581.46C1105.99 1584.61 1111.17 1586.02 1113.69 1587.73C1114.07 1588 1114.51 1588.18 1114.98 1588.33C1118.11 1589.3 1120.69 1591.08 1123.03 1593.38C1132.03 1602.2 1143.73 1605.79 1154.27 1611.08C1167 1617.62 1178.89 1623.59 1191.14 1630.85C1197.5 1634.12 1205.2 1637.24 1208.77 1642.82C1212.12 1647.12 1215.5 1648.43 1219.64 1649.43C1222.16 1650.05 1224.22 1647.04 1222.63 1644.99C1221.22 1643.18 1222.54 1640.79 1224.64 1641.71C1230.47 1644.27 1235.05 1649.62 1240.63 1651.79C1245.35 1653.63 1250.75 1655.23 1253.74 1659.32C1257.23 1664.1 1261.27 1668.32 1267.05 1670.81C1270.06 1671.8 1271.59 1674.95 1271.8 1678.26C1273.27 1688.74 1280.69 1695.89 1289.92 1702.16C1297.08 1707.03 1303.82 1711.6 1310.74 1716.3C1314.4 1718.79 1318.78 1715.24 1322.2 1712.42C1323.61 1711.27 1325.53 1711.28 1326.87 1712.51C1329.72 1715.14 1332.1 1719.93 1332.92 1725.57C1333.3 1728.17 1335.46 1730.08 1338.01 1729.47C1339.43 1729.13 1340.91 1729.73 1341.92 1730.78C1345.84 1734.85 1350.74 1738.06 1354.86 1741.84C1363.6 1749.84 1370.63 1760.88 1379.18 1769.08C1384.28 1773.97 1388.1 1780 1389.89 1787.98C1390.73 1791.1 1392.54 1794.11 1394.34 1797.26C1396.63 1801.29 1399.94 1804.95 1404.39 1806.27C1404.83 1806.4 1405.27 1806.52 1405.7 1806.62C1407.69 1807.11 1409.89 1807.53 1411.13 1809.16C1411.58 1809.75 1411.81 1810.47 1412.11 1811.15C1413.41 1814.1 1414.39 1817.5 1415.77 1820.32C1416.15 1821.29 1416.5 1822.09 1416.87 1822.77C1421.49 1831.27 1430.67 1836.29 1434.88 1845C1438.06 1851.58 1442.22 1857.96 1447.45 1863.98C1455.57 1873.71 1463.68 1883.44 1474.6 1890.85C1479.74 1894.35 1482.63 1901.16 1486.23 1906.93C1487.14 1908.4 1487.08 1910.49 1486.02 1911.85C1484.58 1913.69 1483.94 1916.24 1485.07 1918.27C1488.96 1925.26 1493.78 1932.19 1501.31 1936.41C1505.51 1939.26 1507.89 1942.99 1505.93 1945.87C1504.87 1947.85 1504.6 1949.45 1504.85 1950.78C1506.49 1959.46 1514.36 1964.56 1516.14 1973.21C1516.28 1973.9 1516.44 1974.59 1516.63 1975.28C1518.02 1980.45 1519.91 1984.89 1523.13 1989.19C1533.13 2003.36 1538.66 2018.71 1542.85 2034.21C1544.59 2039.43 1546.44 2044.49 1548.7 2049.34C1553.37 2059.38 1555.04 2070.99 1556.43 2081.97C1557.83 2092.99 1562.83 2103.79 1566.69 2114.71C1572.56 2131.35 1580.25 2147.12 1578.64 2163.95C1577.98 2169.9 1577.83 2176.2 1579.7 2182.45C1582.89 2193.11 1587.82 2203.96 1585.77 2214.89C1585.47 2216.54 1585.16 2218.18 1584.85 2219.83C1584.76 2221.05 1584.99 2222.48 1585.15 2223.87C1585.34 2225.57 1585.39 2227.37 1585.84 2229.02C1588.27 2237.86 1583.15 2248.74 1585.77 2257.52C1586.05 2258.46 1586.4 2259.36 1586.87 2260.21C1590.78 2267.08 1590.36 2273.12 1588.61 2279.31C1584.69 2297.74 1582.09 2316.01 1582.51 2335.26C1582.17 2340.1 1579.05 2344.39 1579.83 2349.44C1580.25 2352.2 1580.99 2354.81 1579.12 2356.88C1578.6 2357.44 1578.12 2357.98 1577.81 2358.43C1572.91 2365.65 1573.61 2368.23 1582.84 2374.5C1586.02 2376.66 1584.38 2381.18 1580.86 2382.7C1578.04 2383.91 1578.05 2386.33 1579.87 2391.45C1581 2394.6 1579.65 2397.9 1576.31 2398.09C1573.65 2398.24 1571.28 2400.3 1570.89 2402.93C1570.06 2408.56 1569.01 2414.14 1568.32 2420.32C1568 2423.26 1569.96 2426.17 1572.64 2427.41C1573.43 2427.77 1574.25 2428.14 1575.12 2428.45C1575.39 2428.54 1575.59 2428.75 1575.67 2429.03C1575.79 2429.49 1575.5 2429.96 1575.04 2430.11C1569.46 2431.99 1570.24 2439.66 1565.86 2442.49C1564.97 2443.07 1563.81 2443.34 1563.42 2444.32C1563.11 2445.12 1562.92 2446.23 1562.92 2447.3C1562.93 2449.12 1564.3 2450.54 1564.95 2452.24C1566.54 2456.46 1563.33 2460.95 1564.57 2465.23C1564.94 2466.49 1565.98 2467.63 1565.37 2468.78C1565.03 2469.43 1564.63 2470.11 1564.36 2470.79C1562.88 2474.62 1561.34 2478.41 1559.09 2481.72C1555.17 2487.5 1553.42 2493.69 1552.02 2501.17C1550.76 2506.64 1549.5 2512.11 1551.24 2518.57C1553.34 2526.32 1552.43 2533.08 1547.67 2538.28C1542.07 2542.91 1540.67 2550.39 1538.92 2556.58C1537.43 2560.05 1537.87 2564.31 1538.58 2568.59C1539.12 2571.84 1537.89 2575.09 1535.01 2576.7C1532.23 2578.27 1530.92 2581.4 1531.31 2584.57C1531.34 2584.85 1531.38 2585.12 1531.41 2585.39C1531.9 2589.09 1530.93 2592.85 1528.57 2595.74C1525.6 2599.38 1523.34 2603.29 1522.95 2609C1521.24 2621.68 1515.4 2632.49 1513.87 2645.42C1513.67 2647.13 1513.49 2648.93 1512.4 2650.26C1511.07 2651.88 1509.17 2653.31 1508.73 2655.22C1507.61 2658.67 1507.82 2661.98 1507.19 2664.71C1506.56 2667.45 1507.6 2671.32 1506.62 2672.76C1500.39 2680.13 1499.2 2690.92 1497.31 2699.12C1495.8 2709.47 1492.64 2717.86 1486.52 2724.91C1485.14 2726.5 1483.62 2728.06 1483 2730.08C1482.52 2731.66 1482.34 2733.44 1482.46 2735.43C1482.27 2738.23 1482.72 2740.96 1482.91 2743.71C1483.06 2745.82 1481.7 2747.56 1479.62 2747.96C1477.24 2748.42 1474.83 2750.24 1474.63 2752.66C1474.27 2757.01 1473.83 2761.55 1473.52 2766.25C1473.18 2771.44 1470.06 2774.16 1465.22 2776.07C1463.91 2776.59 1462.81 2777.6 1462.23 2779.67C1459.71 2790.61 1454.66 2799.84 1448.78 2808.5C1447.59 2810.26 1447.2 2812.18 1446.82 2814.2C1446.33 2816.84 1445.97 2819.55 1445.16 2822.11C1444.89 2822.97 1444.55 2823.76 1444.16 2824.33C1435.97 2834.58 1433.73 2841.5 1434.57 2854.72C1434.74 2856.11 1434.75 2857.4 1434.69 2858.67C1434.43 2864.28 1430.56 2869.3 1425.49 2871.72C1424.34 2872.27 1423.01 2873 1422.66 2874.23C1421.71 2877.61 1424.76 2882.77 1420.14 2884.98C1416.01 2887.45 1413.56 2891.06 1413.63 2896.38C1413.56 2897.43 1413.25 2898.33 1412.84 2899.15C1412.09 2900.64 1410.95 2901.87 1409.88 2903.15C1397.53 2917.93 1394.93 2938.44 1384.92 2954.9C1383.29 2957.3 1383.06 2960.99 1383.17 2965.05C1383.34 2971.56 1381.38 2977.76 1377.3 2982.83C1376.16 2984.26 1374.99 2985.78 1373.86 2987.44C1372.39 2989.61 1371.76 2992.34 1371.97 2995.65C1372.18 2998.95 1372.04 3000.97 1369.24 3003.28C1363.64 3007.91 1360.21 3012.96 1359.64 3021.02C1359.08 3029.07 1356.84 3035.98 1349.56 3039.47C1342.24 3042.98 1345.42 3056.11 1340.11 3062.25C1338.48 3064.13 1336.77 3066 1336.12 3068.3C1334.51 3072.47 1329.54 3074.37 1327.93 3078.55C1326.75 3081.61 1326.47 3085.3 1325.77 3088.69C1325.27 3091.08 1325.03 3093.66 1323.66 3095.68C1320.06 3100.97 1317.59 3106.64 1316.74 3112.77C1315.93 3118.58 1311.35 3126.57 1306.97 3130.46C1304.26 3132.87 1300.27 3134.42 1298.35 3137.5C1296.41 3140.6 1294.51 3143.45 1293.69 3147.02C1292.81 3150.82 1293.15 3155.44 1293.54 3160.81C1293.87 3165.52 1292.89 3169.18 1289.19 3172.12C1284.49 3175.84 1282.15 3182.9 1281.59 3188.87C1281.3 3191.93 1280.21 3194.85 1277.86 3197.42C1276.17 3199.26 1275.14 3201.28 1274.58 3203.41C1272.72 3210.53 1271.33 3219.03 1264.7 3222.21C1252.45 3227.6 1251.82 3230.34 1253.99 3243.4C1255.94 3253.17 1250.2 3259.81 1244.46 3266.46C1242.5 3269.34 1234.81 3266.22 1234.04 3270.97C1233.76 3275 1230.96 3277.31 1228.51 3280.92C1223.12 3288.86 1216.05 3295.65 1217.02 3306.86C1217.51 3318.79 1211.98 3328.74 1201.41 3335.26C1193.64 3339.48 1188.88 3344.68 1190.35 3355.16C1191.17 3358.21 1187.43 3360.48 1185.53 3362.99C1180.08 3370.23 1177.68 3379.13 1172.79 3385.94C1168.49 3391.91 1168.15 3396.21 1167.84 3403.57C1167.82 3404.23 1167.58 3404.95 1167.03 3405.75C1166.16 3407.03 1166.05 3408.61 1166.24 3410.38C1166.6 3413.69 1163.47 3416.08 1160.32 3415.02C1158.57 3414.43 1156.89 3415.11 1155.76 3416.57C1151.38 3422.25 1149.49 3425.02 1148.88 3428.79C1147.64 3436.43 1145.79 3444.12 1140.2 3449.48C1137.74 3451.83 1135.33 3454.1 1132.73 3456.25C1127.97 3461.45 1122.02 3464.79 1126.64 3474.25C1127.96 3476.97 1126.22 3481.53 1124.68 3485.41C1124.21 3486.6 1123.65 3487.79 1122.68 3488.63C1122.15 3489.09 1121.54 3489.51 1120.9 3489.92C1116.75 3492.54 1115.02 3497.41 1118.16 3501.18C1120.54 3504.9 1119.77 3509.65 1116.62 3510.68C1110.32 3512.72 1108.71 3516.9 1106.96 3523.09C1105.35 3527.27 1101.22 3529.74 1097.93 3532.77C1095.13 3535.09 1094.5 3537.82 1094.22 3541.85C1091.9 3556.09 1085.74 3568.78 1072.87 3576.9C1071.89 3577.37 1071.5 3578.53 1071.19 3579.74C1070.72 3581.61 1070.3 3584.03 1070.47 3585.95C1070.61 3587.54 1069.6 3588.22 1068.36 3589.22C1062.03 3594.39 1061.71 3602.83 1059.98 3610.32C1058.96 3614.73 1056.54 3618.86 1053.66 3622.27C1052.3 3623.88 1050.94 3625.5 1049.62 3627.15C1046.02 3631.61 1041.75 3635.08 1037.72 3639.48C1033.45 3643.96 1030.02 3649.01 1029.95 3656.34C1029.81 3658.36 1028.34 3660.52 1027.36 3661.96C1025.89 3664.13 1023.58 3665.72 1023.44 3667.74C1023.92 3679.66 1014.68 3686.04 1008.45 3693.41C999.284 3705.1 995.292 3718.2 989.97 3731.46C987.353 3739.53 989.689 3751.05 981.848 3754.3C980.495 3754.86 978.894 3755.14 976.956 3755.01C976.628 3754.98 976.159 3755 975.839 3755.07C974.152 3755.47 973.396 3757.12 972.876 3758.77C971.228 3764.01 965.365 3766.38 963.858 3771.71C961.016 3781.75 953.985 3789.65 952.326 3799.63C951.603 3803.99 948.045 3808.39 948.52 3812.78C948.696 3814.4 949.363 3816.14 949.911 3817.88C950.594 3820.06 948.964 3822 946.699 3822.26C946.096 3822.33 945.32 3822.28 944.528 3822.22C943.131 3822.11 942.505 3823.8 943.227 3825C943.512 3825.47 943.704 3825.38 944.235 3825.54C947.333 3826.45 949.112 3827.03 949.963 3828.04C953.316 3832.03 945.505 3836.55 940.298 3836.51C936.043 3836.48 932.12 3838.78 930.151 3842.55C926.886 3848.81 923.882 3854.93 921.077 3861.79C919.535 3865.13 919.035 3866.94 919.928 3870.13C921.567 3875.97 920.82 3882.2 916.165 3886.09C913.166 3888.6 911.688 3892.36 911.823 3896.27C911.924 3899.19 911.939 3901.98 911.477 3904.82C911.337 3906.83 909.867 3909 907.557 3910.59C904.758 3912.91 897.901 3910.36 897.479 3916.4C897.306 3918.89 896.999 3920.88 895.932 3922.45C894.474 3924.6 890.29 3925.28 890.968 3927.79C895.303 3941.28 879.557 3946.4 879.553 3959.05C879.413 3961.06 875.773 3962.81 873.464 3964.4C867.627 3967.89 869.165 3977.07 864.489 3982C857.898 3988.96 852.988 3997.05 850.709 4006.93C849.589 4010.39 846.299 4013.43 844.689 4017.6C842.588 4022.5 836.639 4025.84 837.057 4032.45C837.111 4036.62 832.686 4035.16 830.642 4036.28C829.449 4036.93 829.401 4038.61 829.097 4039.93C828.476 4042.63 828.23 4045.58 828.019 4048.56C827.979 4049.12 828.252 4049.65 828.671 4050.02C829.273 4050.56 829.688 4051.12 830.167 4051.67C830.624 4052.2 830.466 4053.17 829.772 4053.25C829.403 4053.29 828.93 4053.08 828.837 4052.72C828.707 4052.21 828.589 4051.69 828.51 4051.1C828.331 4049.77 827.445 4048.57 826.106 4048.41C825.993 4048.39 825.879 4048.38 825.763 4048.36C823.786 4048.1 821.803 4049.42 821.665 4051.41C821.491 4053.89 821.317 4056.38 821.144 4058.87C821.111 4059.33 821.038 4059.79 820.955 4060.25C820.776 4061.24 820.675 4062.28 820.543 4063.3C820.143 4066.4 818.83 4069.39 816.923 4071.86C815.816 4073.3 814.616 4074.52 813.813 4075.71C811.007 4079.84 810.507 4085.38 805.731 4086.84C802.103 4087.95 798.578 4088.73 797.224 4092.9C795.963 4098.37 790.014 4101.71 787.073 4106.04C784.133 4110.37 782.872 4115.84 781.121 4122.03C779.86 4127.5 782.447 4134.53 777.687 4139.73C773.907 4143.49 774.325 4150.1 771.735 4155.72C766.413 4168.97 759.412 4181.09 754.929 4194.91C752.688 4201.82 748.768 4207.6 740.999 4211.81C736.38 4215 730.082 4217.04 733.858 4225.94C734.077 4226.74 733.581 4227.9 733.06 4228.82C732.562 4229.71 732.035 4230.59 731.623 4231.51C728.557 4238.41 727.815 4240.41 727.834 4245.85C727.847 4249.27 724.834 4251.98 721.446 4251.47C717.736 4250.9 713.888 4254.81 710.727 4256.83C707.647 4258.81 703.255 4259.82 702.218 4263.49C700.879 4268.22 699.047 4272.63 697.101 4276.95C696.014 4279.36 696.945 4283.43 699.553 4282.97C703.785 4282.22 704.97 4286.05 701.031 4284.33C700.401 4284.06 699.661 4283.7 698.777 4283.26C698.69 4283.22 698.63 4283.19 698.55 4283.14C697.185 4282.21 695.271 4283.19 695.041 4284.82C693.832 4293.41 688.356 4299.69 682.613 4304.99C676.524 4310.35 673.443 4316.69 671.202 4323.6C667.35 4334.69 663.149 4344.49 656.778 4353.87C655.521 4355.72 654.954 4358.04 654.285 4360.57C653.671 4362.88 655.456 4365.47 657.82 4365.87C660.464 4366.3 661.754 4369.08 660.623 4371.51C658.957 4375.09 657.329 4378.35 655.3 4381.33C652.36 4385.66 647.741 4388.85 644.311 4393.9C643.804 4394.65 643.035 4395.78 642.575 4396.96C641.787 4398.97 643.19 4401.08 643.332 4403.24C643.562 4406.74 641.067 4408.39 637.519 4409.32C629.891 4411.52 625.971 4417.29 622.54 4422.34C622.322 4422.66 622.121 4423.05 621.95 4423.46C620.975 4425.8 622.876 4427.9 624.032 4430.16C626.873 4435.72 619.049 4436.51 616.937 4439.62C613.844 4445.28 608.932 4450.9 607.91 4457.67C606.582 4466.48 605.346 4474.75 600.341 4482.12C595.639 4489.04 589.894 4495.55 584.726 4502.13C582.739 4504.66 581.106 4507.85 578.92 4511.85C572.899 4522.52 571.566 4535.32 567.224 4547.13C563.302 4555.92 558.208 4563.92 552.635 4572.21C550.803 4574.93 546.992 4575.8 544.059 4574.32C542.256 4573.41 540.011 4573.06 538.518 4574.42C534.986 4577.63 535.716 4582.78 535.119 4587.72C534.75 4590.78 536.012 4594.25 538.791 4595.58C540.387 4596.34 541.045 4597.73 541.096 4599.5C541.179 4602.41 540.95 4605.35 541.06 4608.25C541.121 4609.86 541.208 4611.48 541.025 4613.08C540.443 4618.18 539.099 4622.86 536.132 4627.23C529.158 4639.29 522.67 4650.64 516.529 4663.27C516.482 4663.37 516.473 4663.4 516.406 4663.49C515.231 4664.96 512.546 4663.1 512.786 4661.23C513.84 4653.06 516.182 4645.76 520.314 4639.68C523.155 4635.49 525.409 4630.91 527.224 4625.91C529.688 4619.12 521.871 4614.67 520.249 4621.71C516.69 4638.42 506.223 4650.44 497.255 4664.26C495.558 4666.87 495.873 4670 497.855 4672.4C498.385 4673.04 498.79 4673.93 498.317 4674.62C497.679 4675.54 496.258 4676.37 495.322 4676.47C488.588 4676.64 485.249 4679.11 482.761 4683.7C482.187 4684.76 481.643 4685.83 480.739 4686.63C478.974 4688.17 477.196 4689.77 475.457 4691.34C467.407 4698.63 461.773 4708.79 454.178 4716.31C453.035 4717.44 451.958 4718.64 451.055 4719.97C450.007 4721.51 449.204 4723.21 448.539 4724.95C443.712 4737.57 434.553 4748.11 428.332 4760.65C427.352 4762.09 426.371 4763.54 426.231 4765.55C426.065 4767.93 426.362 4770.25 426.648 4772.85C427.015 4776.19 429.636 4778.97 432.988 4779.22C433.989 4779.3 434.99 4779.38 435.992 4779.45C436.933 4779.52 437.778 4780.66 437.797 4781.61C437.817 4782.63 437.054 4782.99 436.064 4783.26C426.22 4785.96 422.267 4796.1 412.856 4799.69C408.916 4801.58 412.1 4807.11 412.6 4811.45C413.269 4817.27 409.426 4821.98 407.247 4827.42C407.005 4828.02 406.777 4828.31 406.673 4828.95C406.354 4830.91 407.337 4833.2 408.594 4834.74C409.558 4835.92 410.454 4837.05 411.178 4838.07C411.648 4838.73 412.256 4839.61 412.095 4840.41C411.974 4841.01 411.627 4841.39 411.323 4841.92C409.596 4844.93 404.536 4849.15 399.99 4850.97C396.672 4852.29 391.943 4851.56 391.01 4848.11C390.66 4846.82 390.801 4844.81 391.781 4843.36C393.741 4840.48 398.219 4839.3 392.833 4834.59C389.475 4832.31 387.515 4835.2 385.205 4836.79C371.543 4848.09 370.748 4849.05 382.684 4865.06C383.276 4865.85 384.493 4866.74 383.937 4867.56C383.936 4867.56 383.936 4867.56 383.936 4867.56C383.446 4868.28 383.306 4870.29 382.816 4871.01C372.316 4882.86 363.146 4894.55 358.523 4910.39C355.651 4920.04 347.252 4926.99 341.372 4935.64C341.046 4936.12 340.813 4936.67 340.611 4937.23C339.943 4939.09 340.952 4941.61 342.769 4942.39C344.587 4943.18 346.522 4942.47 347.463 4940.73C349.49 4936.98 351.324 4933.03 354.808 4932.12C362.926 4929.2 366.147 4920.84 372.586 4916.78C373.553 4916.32 374.283 4915.69 374.776 4914.91C375.692 4913.44 375.385 4911.58 375.465 4909.86C375.887 4900.77 383.402 4898.13 391.625 4895.97C395.861 4895.16 399.712 4893.56 402.95 4891.27C409.074 4886.95 408.459 4878.85 403.743 4873.03C403.162 4872.31 402.617 4871.59 402.138 4870.84C399.289 4866.39 403.062 4861.48 407.194 4858.19C411.91 4854.44 416.381 4850.18 420.921 4845.62C422.996 4843.53 422.543 4840.24 419.911 4838.93C418.032 4837.99 417.271 4835.81 417.993 4833.84C419.272 4830.35 420.722 4826.93 422.181 4823.33C423.869 4819.16 428.078 4816.34 432.521 4817.03C436.247 4817.61 439.929 4816.33 442.445 4813.52C445.043 4810.62 447.523 4807.68 449.133 4804.25C452.359 4797.38 453.202 4789.31 457.933 4783.38C459.292 4781.67 460.622 4779.94 461.844 4778.14C465.964 4773.37 467.127 4772.03 467.405 4767.71C467.673 4763.54 469.619 4759.88 473.333 4757.97C476.656 4756.25 478.758 4752.6 479.404 4748.91C481.046 4739.54 486.18 4731.7 492.336 4724.38C495.079 4721.11 495.568 4716.65 492.974 4713.27C489.801 4709.13 490.335 4702.73 494.892 4700.19C497.487 4698.74 500.127 4697.54 502.923 4696.71C505.692 4695.89 507.823 4693.67 507.319 4690.82C506.661 4687.11 509.967 4683.76 513.518 4685.01C514.563 4685.38 515.53 4685.73 516.428 4686.04C517.409 4686.38 518.48 4686.55 519.442 4686.15C522.719 4684.81 525.139 4680.63 523.801 4677.89C522.629 4675.29 522.104 4673.01 522.043 4670.88C521.823 4663.12 530.678 4656.07 537.872 4658.98C541.251 4660.63 542.852 4659.5 544.386 4658.43C545.189 4657.87 545.342 4656.03 544.437 4655.66C544.335 4655.62 544.234 4655.58 544.134 4655.54C543.422 4655.23 543.671 4654.49 544.31 4654.92C544.311 4654.92 544.311 4654.92 544.311 4654.92C545.701 4655.87 547.716 4655.56 548.404 4654.03C548.543 4653.72 548.641 4653.43 548.675 4653.18C548.749 4652.65 548.288 4652.22 548.01 4651.77C544.767 4646.44 543.636 4641.46 547.395 4635.93C547.427 4635.88 547.458 4635.84 547.488 4635.79C549.168 4633.1 548.075 4629.55 548.63 4626.44C549.912 4619.23 553.798 4613.32 560.208 4609.84C564.337 4607.37 564.618 4603.35 565.739 4599.89C567.307 4596.23 563.882 4593.89 562.017 4590.72C560.807 4588.66 562.046 4586.28 563.986 4584.89C564.937 4584.21 565.908 4583.52 566.897 4582.83C572.333 4579.01 579.527 4585.64 576.654 4591.63C575.231 4594.59 576.864 4598.68 579.735 4597.07C580.366 4596.72 580.897 4596.23 581.382 4595.77C582.265 4594.93 583.225 4594.15 584.021 4593.22C589.288 4587.13 594.09 4581.5 597.865 4574.27C601.637 4567.22 603.919 4559.88 606.982 4551.99C608.023 4549.31 606.994 4546.4 604.283 4545.45C601.646 4544.52 600.011 4540.81 602.699 4540.04C604.472 4539.53 606.559 4539.99 608.807 4540.62C610.632 4541.14 612.695 4541.36 614.182 4540.18C616.037 4538.72 617.311 4535.96 619.191 4530.49C620.715 4526.05 618.377 4521.77 614.692 4524.68C614.259 4525.02 613.785 4525.27 613.325 4525.57C611.807 4526.58 610.396 4528.24 608.094 4528.5C607.193 4528.6 605.519 4528.18 604.426 4527.5C603.578 4526.96 603.017 4525.95 602.893 4524.96C602.659 4523.09 604.21 4521.63 605.771 4520.59C609.866 4517.86 609.894 4511.99 613.348 4509.93C617.967 4506.74 616.22 4500.28 622.518 4498.23C626.93 4497.23 625.529 4492.27 625.828 4488.93C625.993 4487.08 627.716 4486.01 629.163 4484.85C636.892 4478.66 636.83 4467.98 641.002 4460.18C641.876 4457.91 643.739 4456.32 645.999 4454.82C648.464 4453.19 651.994 4454.54 652.219 4457.48C652.423 4460.15 655.681 4462.21 657.848 4460.64C660.163 4458.96 661.844 4457.55 662.678 4455.63C662.849 4455.24 663.005 4454.84 663.208 4454.46C667.269 4446.88 673.255 4439.66 675.578 4430.95C677.96 4422.03 682.511 4413.52 686.572 4405.73C691.123 4397.23 695.673 4388.72 699.385 4379.64C701.586 4373.94 705.191 4368.69 708.817 4363.64C711.868 4359.39 711.866 4353.65 712.393 4348.45C712.651 4345.89 713.349 4343.18 714.146 4340.27ZM1249.62 3343.76C1249.28 3344.26 1248.52 3344.49 1247.93 3344.83C1247.54 3345.05 1247.61 3345.56 1247.99 3345.82C1248.62 3346.25 1249.74 3345.62 1249.75 3344.86C1249.76 3344.52 1249.73 3344.17 1249.62 3343.76C1245.56 3342.42 1243.66 3337.7 1246.46 3334.47C1247.06 3333.78 1247.67 3333.14 1248.33 3332.53C1248.85 3332.05 1249.36 3331.54 1249.69 3330.92C1249.92 3330.47 1250.09 3330.05 1250.21 3329.63C1251.63 3324.65 1251.67 3319.36 1256.79 3318.58C1257.37 3318.49 1257.94 3318.39 1258.5 3318.27C1259.31 3318.1 1259.87 3317.91 1260.36 3318.58C1260.73 3319.07 1260.85 3320.14 1260.61 3320.71C1258.96 3324.61 1256.48 3328.61 1257.46 3332.22C1258.72 3339.4 1252.91 3340.72 1249.62 3343.76ZM1249.4 3391.05C1237.5 3385.08 1237.5 3385.08 1231.13 3394.46C1228.44 3398.42 1226.9 3390.9 1228.1 3386.26C1230.13 3378.39 1229.05 3368.78 1235.85 3362.05C1237.5 3360.41 1240.09 3360.5 1242.07 3361.7C1243.34 3362.47 1244.62 3363.21 1245.95 3363.98C1249.21 3365.87 1247.49 3370.63 1243.75 3371.06C1241.64 3371.3 1240.68 3373.04 1240.92 3375.15C1241.7 3381.76 1244.12 3386.57 1249.4 3391.05C1250.03 3388.32 1249.33 3385.73 1249.96 3383C1251.1 3378.06 1254.18 3385.21 1250.91 3389.08C1250.35 3389.74 1249.84 3390.4 1249.4 3391.05ZM99.5275 1428.16C101.013 1433.66 104.587 1435.1 110.061 1433.54C111.215 1433.22 112.415 1432.89 113.731 1432.54C123.528 1430.76 133.674 1430.27 142.981 1429.21C151.448 1427.58 161.944 1428.39 167.543 1423.76C174.963 1418.25 184.687 1423.8 191.966 1420.31C193.912 1419.68 196.631 1419.97 199.169 1420.05C202.029 1420.14 204.6 1418.73 207.281 1417.73C211.876 1416.02 216.476 1416.4 220.833 1417.96C226.142 1419.86 231.907 1420.95 237.225 1419.07C237.967 1418.81 238.709 1418.55 239.452 1418.29C251.84 1413.96 265.129 1426.95 255.556 1435.93C254.591 1436.83 253.46 1437.44 252.333 1438.13C251.248 1438.79 250.412 1439.63 250.318 1440.97C249.475 1453.05 239.048 1457.56 232.328 1465.65C227.078 1471.57 221.828 1477.5 220.776 1486.27C219.864 1493.03 216.784 1499.37 210.345 1503.43C200.616 1510.53 194.246 1519.91 190.394 1531C189.132 1536.47 186.542 1542.09 179.404 1543.57C177.147 1544.3 174.385 1545.78 172.77 1547.56C171.61 1548.84 171.502 1550.68 171.124 1552.37C168.877 1562.4 158.142 1565.84 153.155 1573.18C149.725 1578.23 143.426 1580.28 139.506 1586.05C136.076 1591.1 131.806 1595.58 126.697 1599.49C122.078 1602.68 118.298 1606.44 116.547 1612.63C115.596 1615.56 112.982 1619.64 108.235 1620.05C106.406 1620.2 104.524 1619.69 102.756 1620.19C99.8012 1621.03 98.1773 1623.42 96.2501 1626.26C91.8398 1632.75 85.7505 1638.1 80.5007 1644.03C79.942 1644.85 78.838 1645.3 77.4993 1645.59C75.334 1646.07 73.1399 1646.44 70.951 1646.79C68.8256 1647.13 66.7748 1647.37 65.2453 1648.43C62.1375 1651.29 58.6397 1652.72 54.9363 1653.39C47.6689 1654.7 42.0504 1661.2 35.1512 1663.83C29.343 1665.16 22.5544 1667.93 20.4538 1672.83C14.9229 1682.78 5.47543 1685.85 -3.62258 1690.21C-14.0501 1694.73 -22.9385 1702.39 -33.0165 1708.2C-39.4554 1712.26 -44.5648 1716.17 -51.2124 1716.93C-53.8716 1717.23 -57.8602 1717.68 -59.3303 1719.85C-61.7805 1723.46 -64.93 1724.48 -69.7583 1724.36C-76.406 1725.12 -82.2139 1726.45 -88.6528 1730.51C-93.2719 1733.7 -99.9201 1734.45 -105.728 1735.78C-114.196 1737.41 -122.663 1739.04 -130.291 1741.24C-143.378 1746.05 -154.572 1742.67 -163.876 1731.08C-165.904 1728.65 -168.073 1728.23 -170.242 1727.81C-180.248 1726.28 -181.437 1724.42 -183.393 1714.66C-184.724 1706.02 -196.458 1703.41 -199.479 1695.21C-201.782 1688.96 -203.077 1682.68 -200.816 1676.17C-200.285 1674.65 -199.333 1673.37 -199.568 1671.77C-199.859 1669.79 -200.181 1667.61 -200.087 1665.61C-199.938 1662.42 -198.839 1659.73 -196.952 1656.95C-192.541 1650.46 -188.131 1643.96 -184.56 1636.9C-183.197 1634.89 -181.428 1633.16 -180.547 1631.18C-179.771 1629.44 -179.942 1627.43 -179.58 1625.56C-177.87 1616.71 -172.916 1609.38 -166.046 1603.29C-165.059 1602.42 -163.569 1601.66 -162.722 1600.65C-161.561 1599.26 -162.094 1597.46 -161.677 1595.7C-160.117 1589.11 -154.786 1584.45 -149.836 1580.36C-144.019 1575.24 -142.48 1568.19 -138.204 1563.03C-137.804 1562.55 -137.4 1561.97 -136.777 1561.9C-136.014 1561.8 -135.495 1561.17 -134.958 1560.62C-128.298 1553.81 -121.649 1547.01 -115.289 1540.63C-113.94 1539.28 -114.154 1537.04 -116.046 1536.77C-117.688 1536.53 -119.217 1534.73 -118.306 1533.35C-117.335 1531.87 -116.213 1530.66 -114.884 1529.84C-111.403 1527.71 -107.637 1524.57 -105.13 1521.35C-104.334 1520.33 -103.151 1519.54 -101.4 1519.03C-100.937 1518.89 -100.47 1518.76 -100.026 1518.57C-87.4728 1513.23 -77.9192 1503.2 -65.579 1497.53C-64.2345 1496.91 -62.7837 1496.84 -61.7849 1495.75C-61.0873 1494.99 -60.3697 1493.96 -59.6241 1493.24C-56.2647 1490.02 -52.9388 1487.71 -46.3172 1489.36C-43.3086 1490.35 -38.3399 1488.45 -36.8698 1486.29C-30.4993 1476.91 -21.1926 1475.85 -10.5561 1474.64C0.919929 1474 11.2071 1471.5 19.6059 1464.55C24.7153 1460.64 29.6843 1458.75 35.4926 1457.42C42.6303 1455.94 49.7679 1454.46 55.7165 1451.12C67.6445 1444.18 68.9666 1442.66 79.229 1442.38C83.3959 1442.27 86.9846 1440.05 87.7638 1435.95C88.473 1432.23 91.2064 1428.49 94.9578 1427.93C96.6015 1427.68 98.0806 1427.69 99.5275 1428.16C101.514 1426.79 103.436 1425.18 105.389 1423.48C109.884 1419.56 120.066 1423.03 114.973 1426.13C114.335 1426.52 113.779 1426.55 113.036 1426.62C108.156 1427.1 103.691 1427.07 99.5275 1428.16ZM1410.03 3003.94C1415.18 3004.18 1421.29 3003.25 1424.07 2998.91C1424.45 2998.31 1424.8 2997.66 1425.08 2996.93C1427.18 2992.03 1427.95 2987.28 1430.05 2982.38C1431.29 2977.99 1432.79 2973.22 1436.28 2970.05C1439.12 2967.46 1442.79 2968.73 1440.64 2971.91C1440.32 2972.37 1440.34 2972.82 1440.24 2973.38C1439.81 2975.93 1439.93 2978.86 1439.36 2981.32C1438.34 2985.75 1439.29 2990.83 1436.52 2994.38C1435.12 2996.18 1432.76 2997.29 1432.87 2999.57C1432.93 3000.72 1433.24 3001.93 1433.06 3003.06C1432.7 3005.39 1431.12 3006.89 1427.87 3007.26C1427.47 3007.31 1427.06 3007.37 1426.64 3007.45C1422.72 3008.21 1420.98 3012.42 1418.9 3015.84C1416.67 3019.5 1414.83 3023.29 1417.16 3028.45C1418.7 3031.61 1416.74 3034.49 1413.24 3034.22C1409.74 3033.96 1408.2 3030.8 1407.99 3027.5C1407.86 3025.44 1407.73 3023.38 1407.72 3021.14C1407.71 3019.23 1405.28 3018.07 1403.59 3018.96C1401.85 3019.88 1400.01 3018.48 1400.11 3016.51C1400.36 3011.82 1401.38 3008.42 1403.74 3006.43C1405.07 3005.3 1406.65 3004.16 1408.38 3003.97C1408.88 3003.92 1409.43 3003.92 1410.03 3003.94ZM625.406 4436.83C626.087 4433.51 628.726 4430.78 631.859 4429.52C632.442 4429.28 632.859 4428.98 633.347 4428.58C635.827 4426.58 637.972 4425.07 640.524 4422.96C643.074 4420.6 646.549 4420.14 649.776 4420.78C651.627 4421.15 653.465 4421.67 655.211 4422.38C656.729 4423 657.971 4423.9 658.726 4425.14C660.242 4427.63 658.352 4430.6 656.245 4432.62C653.895 4434.86 651.371 4437.13 648.996 4439.37C646.927 4441.33 643.374 4441.06 641.504 4438.91C639.63 4436.76 636.613 4436.84 634.735 4438.99C634.153 4439.66 633.578 4440.33 632.996 4441C630.895 4443.41 626.756 4444.21 625.52 4441.26C624.933 4439.86 625.085 4438.39 625.406 4436.83ZM1206.26 3436.19C1203.24 3442.35 1192.06 3442.61 1195.94 3436.96C1196.48 3436.19 1196.9 3436.01 1197.42 3435.22C1198.46 3433.62 1198.55 3432.22 1198.15 3430.9C1196.5 3425.46 1197.26 3420.74 1202.9 3420.14C1208.35 3419.57 1211.55 3425.86 1209.03 3430.72C1208.07 3432.56 1207.15 3434.37 1206.26 3436.19ZM838.046 4055.12C838.658 4054.96 839.315 4055.05 839.683 4055.57C840.387 4056.55 840.487 4058.11 839.806 4059.11C837.942 4061.86 836.078 4064.6 834.213 4067.35C833.864 4067.86 833.556 4068.46 833.337 4069.04C831.334 4074.33 826.608 4074.96 827.88 4069.45C828.027 4068.81 828.082 4068.11 828.068 4067.36C827.972 4062.39 829.7 4057.44 834.484 4056.08C835.656 4055.75 836.849 4055.43 838.046 4055.12ZM1195.65 3368.9C1193.87 3375.53 1184.08 3370.75 1186.74 3364.42C1186.97 3363.86 1187.26 3363.32 1187.62 3362.8C1188.6 3361.35 1192.59 3360.9 1193.42 3361.47C1193.86 3361.76 1194.7 3362.9 1195.35 3364.03C1196.22 3365.54 1196.1 3367.21 1195.65 3368.9ZM806.408 4100.71C805.349 4105.27 798.929 4100.13 801.972 4096.58C804.104 4094.09 807.097 4096.46 806.602 4099.7C806.55 4100.05 806.485 4100.38 806.408 4100.71ZM1448.58 2912.78C1444.76 2913.02 1441.28 2909.67 1441.55 2905.85C1441.78 2902.52 1444.88 2899.62 1447.82 2901.22C1450.29 2902.57 1451.33 2904.92 1451.9 2908.66C1452.62 2911.32 1451.99 2912.56 1448.58 2912.78ZM1305.77 3244.84C1307.61 3247.72 1305.21 3251.26 1301.85 3250.61C1298.41 3249.94 1297.26 3248.18 1296.82 3245.83C1296.59 3244.55 1296.22 3243.09 1296.95 3242.01C1297.69 3240.93 1299.19 3240.66 1300.49 3240.7C1302.74 3240.77 1304.56 3242.36 1305.77 3244.84ZM1337.27 3225.42C1335.27 3226.81 1332.64 3225.56 1332.28 3223.15C1331.82 3220.13 1332.6 3219.07 1335.79 3219.29C1338.92 3219.51 1339.85 3223.64 1337.27 3225.42ZM1518.77 2799.75C1521.06 2802.08 1518.89 2806.03 1515.63 2806.12C1512.97 2806.19 1511.43 2803.48 1512.38 2800.99C1512.49 2800.71 1512.59 2800.43 1512.7 2800.16C1513.6 2797.95 1516.34 2797.4 1518.06 2799.05C1518.3 2799.28 1518.54 2799.51 1518.77 2799.75ZM761.877 4230.23C757.906 4230.53 757.035 4223.85 760.478 4221.85C763.278 4220.23 766.093 4224.02 764.963 4227.05C764.207 4229.08 763.237 4230.13 761.877 4230.23ZM1451.42 2942.32C1449.31 2944.28 1445.9 2942.21 1445.15 2939.43C1444.95 2938.7 1445.03 2938.35 1445.29 2937.64C1445.94 2935.79 1447.17 2934.5 1449.57 2934.99C1450.49 2935.17 1451.31 2935.69 1451.8 2936.5C1452.14 2937.06 1452.46 2937.74 1452.67 2938.35C1452.99 2939.31 1452.85 2940.44 1452.3 2941.3C1452.08 2941.65 1451.78 2941.99 1451.42 2942.32ZM1448.13 2986.46C1449.46 2984.51 1452.71 2984.78 1453.03 2987.12C1453.43 2989.97 1452.64 2990.61 1450.2 2990.47C1448.16 2990.35 1446.98 2988.16 1448.13 2986.46ZM289.688 143.46C288.518 142.56 289.397 140.418 290.855 140.195C290.96 140.179 291.062 140.179 291.168 140.188C294.422 140.481 296.807 142.054 297.918 145.502C298.024 145.833 297.961 146.195 297.765 146.483C297.395 147.029 296.649 147.173 296.066 146.864C294.368 145.967 292.102 145.135 290.727 144.201C290.454 144.016 290.093 143.771 289.688 143.46ZM1284.93 3272.95C1285.94 3270.36 1289.92 3270.55 1289.4 3273.28C1289.21 3274.27 1288.81 3275.22 1288.2 3276.13C1288.07 3276.31 1287.89 3276.46 1287.7 3276.57C1286.92 3277.03 1285.96 3276.71 1285.39 3276.01C1285.33 3275.93 1285.27 3275.86 1285.2 3275.78C1284.63 3275.04 1284.58 3273.83 1284.93 3272.95ZM1195.87 1636.17C1194.38 1635.16 1195.53 1632.86 1196.9 1634.02C1197.22 1634.29 1197.51 1634.61 1197.75 1634.98C1198.48 1636.1 1196.97 1636.92 1195.87 1636.17ZM689.401 4328.19C691.46 4327.92 694.091 4329.09 693.202 4330.97C692.756 4331.91 692.096 4332.68 691.212 4333.32C688.355 4335.4 685.376 4331.08 688.111 4328.84C688.194 4328.77 688.279 4328.71 688.364 4328.64C688.711 4328.37 688.966 4328.24 689.401 4328.19ZM229.358 1387.73C231.473 1385.91 236.178 1386.91 235.957 1389.69C235.915 1390.22 235.817 1390.31 235.562 1390.77C234.367 1392.96 230.495 1393.77 228.221 1392.22C227.381 1391.65 227.032 1390.36 227.522 1389.64C227.927 1389.04 228.559 1388.42 229.358 1387.73ZM425.638 4808.5C425.228 4808.78 424.65 4808.76 424.238 4808.48C423.688 4808.1 423.583 4807.38 423.956 4806.83C425.201 4805 426.445 4803.17 427.69 4801.33C428.18 4800.61 430.349 4801.03 431.189 4801.6C431.528 4801.83 431.707 4802.3 431.768 4802.82C431.931 4804.22 430.719 4805.21 429.512 4805.94C428.301 4806.68 426.978 4807.58 425.638 4808.5ZM1047.39 3695.27C1046.65 3693.74 1047.2 3691.61 1048.88 3691.37C1049.68 3691.25 1050.46 3691.36 1051.21 3691.87C1051.59 3692.13 1051.94 3692.8 1052.21 3693.46C1052.61 3694.43 1052.36 3695.51 1051.46 3696.04C1051.27 3696.15 1051.08 3696.26 1050.87 3696.37C1049.6 3697.05 1048.03 3696.56 1047.39 3695.27ZM1218.63 3417.7C1217.05 3418.9 1214.84 3417.79 1214.11 3415.95C1214.09 3415.89 1214.07 3415.84 1214.05 3415.79C1213.36 3414.07 1214.38 3412.06 1216.17 3411.57C1216.86 3411.38 1217.53 3411.58 1218.15 3411.95C1219.82 3412.95 1221.94 3414.23 1220.37 3415.96C1220.1 3416.25 1219.82 3416.55 1219.56 3416.85C1219.29 3417.16 1218.97 3417.44 1218.63 3417.7ZM923.229 3860.88C922.597 3860.95 921.602 3860.48 921.566 3859.85C921.479 3858.27 921.126 3856.52 921.13 3855C921.131 3854.69 921.377 3854.43 921.692 3854.4C922.101 3854.35 922.453 3854.69 922.462 3855.1C922.493 3856.55 922.813 3858.2 922.896 3859.69C922.931 3860.33 923.86 3860.81 923.229 3860.88ZM969.292 1449.02C971.066 1450.35 968.949 1452.77 966.753 1452.49C966.188 1452.42 965.622 1452.34 965.047 1452.23C964.08 1452.04 963.617 1450.46 963.729 1449.48C963.789 1448.95 964.068 1448.86 964.567 1448.67C966.367 1447.99 967.985 1448.05 969.292 1449.02ZM1254.9 3357.69C1254.54 3358.33 1253.34 3359.39 1252.62 3359.23C1252.27 3359.14 1251.93 3359.03 1251.64 3358.84C1251.52 3358.76 1251.44 3358.66 1251.38 3358.54C1250.94 3357.59 1253.28 3356.27 1254.26 3356.62C1254.37 3356.66 1254.48 3356.7 1254.58 3356.74C1254.98 3356.91 1255.12 3357.31 1254.9 3357.69ZM42.8033 1744.95C42.9605 1747.04 40.2102 1749.81 38.4885 1748.62C37.9317 1748.24 37.7475 1747.8 37.5445 1747.16C37.1649 1745.95 37.1433 1743.99 37.5073 1743.45C37.9975 1742.73 41.4955 1743 42.3351 1743.57C42.6421 1743.78 42.7525 1744.27 42.8033 1744.95ZM700.545 4275.93C699.905 4275.27 700.516 4274.27 701.346 4273.88C701.684 4273.72 702.028 4273.56 702.465 4273.46C702.708 4273.41 702.964 4273.47 703.141 4273.65C703.216 4273.72 703.288 4273.8 703.356 4273.89C703.892 4274.55 703.048 4275.99 702.29 4276.39C701.838 4276.62 701.374 4276.64 700.978 4276.32C700.827 4276.2 700.682 4276.07 700.545 4275.93ZM1233.17 3325.4C1233.86 3326.39 1233.5 3328.36 1232.41 3328.88C1231.71 3329.21 1231.13 3328.65 1230.81 3327.95C1230.47 3327.21 1230.05 3326.42 1229.74 3325.7C1229.51 3325.16 1229.44 3324.75 1229.95 3324.47C1230.7 3324.06 1232.23 3323.98 1232.7 3324.7C1232.86 3324.94 1233.02 3325.17 1233.17 3325.4ZM1462.73 2877.02C1465.07 2878.77 1462.31 2884.1 1459.89 2882.46C1459.05 2881.89 1458.35 2879.3 1458.84 2878.58C1459.33 2877.86 1461.64 2876.27 1462.48 2876.84C1462.57 2876.9 1462.65 2876.96 1462.73 2877.02ZM1459.06 2925.22C1458.57 2925.83 1458.04 2924.72 1458.09 2923.94C1458.11 2923.7 1458.13 2923.46 1458.17 2923.23C1458.23 2922.85 1458.91 2922.84 1459.29 2922.92C1459.88 2923.05 1460.05 2923.76 1459.71 2924.26C1459.51 2924.56 1459.31 2924.86 1459.11 2925.15C1459.09 2925.18 1459.08 2925.2 1459.06 2925.22ZM1417.72 2976.91C1417.26 2977.07 1416.6 2976.58 1416.64 2976.1C1416.67 2975.72 1416.68 2975.34 1416.77 2975C1416.85 2974.7 1417.15 2974.53 1417.46 2974.5L1417.96 2974.44C1418.18 2974.41 1418.41 2974.46 1418.55 2974.62C1418.76 2974.86 1418.81 2975.13 1418.83 2975.46C1418.86 2975.99 1418.22 2976.73 1417.72 2976.91ZM1091.56 3606.13C1092.02 3606.01 1092.46 3606.32 1092.68 3606.75C1093.02 3607.42 1093.46 3607.93 1093.76 3608.65C1093.88 3608.94 1093.82 3609.28 1093.57 3609.47C1093.49 3609.53 1093.41 3609.58 1093.33 3609.63C1092.63 3610.04 1091.06 3609.32 1090.77 3608.57C1090.48 3607.81 1090.72 3606.36 1091.49 3606.15C1091.51 3606.14 1091.54 3606.14 1091.56 3606.13ZM1295.1 3258.59C1295.18 3258.87 1295.04 3258.85 1294.8 3259.03C1294.49 3259.27 1294.07 3259.44 1293.69 3259.63C1293.3 3259.83 1292.64 3259.64 1292.53 3259.22C1292.49 3259.08 1292.52 3258.93 1292.6 3258.81C1292.78 3258.54 1292.97 3258.26 1293.19 3257.94C1293.67 3257.22 1294.87 3257.75 1295.1 3258.59ZM1276.69 3302.95C1277.49 3303.94 1276.41 3305.65 1275.25 3306.17C1274.91 3306.33 1274.9 3306.22 1274.56 3306.07C1272.56 3305.23 1270.59 3302.04 1271.04 3301.38C1271.4 3300.85 1272.65 3300.93 1273.63 3301.24C1274.25 3301.43 1274.94 3301.55 1275.51 3301.87C1275.91 3302.1 1276.3 3302.48 1276.69 3302.95ZM170.794 108.686C170.985 109.394 170.632 110.651 170 111.023C169.284 111.444 168.683 111.915 168.141 111.547C167.912 111.391 167.682 111.235 167.463 111.064C166.458 110.284 167.237 108.89 168.446 108.497C168.748 108.399 169.049 108.302 169.342 108.216C170.008 108.021 170.612 108.016 170.794 108.686ZM243.273 1561.03C243.982 1562.26 242.376 1563.82 241.066 1563.28C240.555 1563.07 240.832 1562.9 240.62 1562.39C240.353 1561.75 239.99 1561.05 239.667 1560.37C239.273 1559.54 240.337 1558.6 241.247 1558.5C241.815 1558.44 241.872 1558.76 242.178 1559.24C242.566 1559.85 242.942 1560.46 243.273 1561.03ZM1277.86 3291.5C1277.27 3291.37 1276.86 3290.54 1276.9 3289.94C1276.92 3289.65 1276.95 3289.37 1277.02 3289.12C1277.1 3288.83 1277.37 3288.68 1277.67 3288.64C1278.17 3288.59 1278.64 3288.9 1278.76 3289.39C1278.92 3290.05 1279.03 3290.67 1278.97 3291.19C1278.93 3291.57 1278.24 3291.58 1277.86 3291.5ZM582.404 4525.81C582.139 4525.63 582.095 4525.28 582.23 4524.99C582.241 4524.97 582.252 4524.94 582.261 4524.92C582.438 4524.44 583.156 4524.21 583.577 4524.5C583.828 4524.67 583.623 4524.83 583.42 4525.06C583.413 4525.06 583.406 4525.07 583.399 4525.08C583.03 4525.47 583.014 4526.23 582.569 4525.92C582.518 4525.89 582.463 4525.85 582.404 4525.81ZM1050.27 1484.23C1050.18 1484.35 1050.01 1484.39 1049.89 1484.3C1049.67 1484.16 1049.76 1483.83 1050.01 1483.8C1050.24 1483.78 1050.4 1484.04 1050.27 1484.23ZM226.607 1409.05C226.606 1409.05 226.606 1409.05 226.606 1409.05C226.162 1408.75 225.855 1408.24 225.541 1407.75C225.094 1407.05 225.223 1406 225.907 1406.46C226.351 1406.77 226.658 1407.27 226.973 1407.76C226.973 1407.76 226.607 1409.05 226.607 1409.05ZM468.71 4701.47C468.525 4701.49 468.478 4701.36 468.43 4701.18L468.287 4700.65C468.209 4700.36 468.254 4700.03 468.521 4699.91C468.723 4699.81 469.005 4699.77 469.356 4699.96C469.448 4700.01 469.509 4700.1 469.537 4700.2L469.579 4700.36C469.67 4700.7 469.056 4701.43 468.71 4701.47ZM370.785 4854.41C371.469 4854.87 372.979 4854.79 373.444 4854.11C372.903 4854.9 371.818 4855.11 371.021 4854.57C370.95 4854.52 370.872 4854.47 370.785 4854.41ZM1113.06 1590.47C1113.46 1589.87 1113.29 1588.89 1113.5 1588.16C1113.58 1587.87 1113.86 1587.71 1114.15 1587.68C1114.65 1587.62 1115.11 1587.94 1115.33 1588.4C1115.39 1588.53 1115.46 1588.65 1115.52 1588.77C1115.9 1589.5 1115.11 1589.75 1114.28 1589.83C1113.77 1589.88 1113.31 1590.1 1113.06 1590.47ZM583.2 4555.19C583.223 4555.6 582.953 4555.99 582.551 4556.04C582.226 4556.08 581.923 4555.87 581.837 4555.55L581.758 4555.26C581.681 4554.98 581.715 4554.64 581.981 4554.51C582.46 4554.27 583.068 4554.51 583.456 4553.94C583.216 4554.29 583.177 4554.78 583.2 4555.19ZM1589.01 2390.73C1588.84 2390.95 1588.53 2391.02 1588.3 2390.86C1588.07 2390.7 1588 2390.39 1588.16 2390.15C1588.22 2390.06 1588.29 2389.96 1588.37 2389.85C1588.64 2389.45 1589.18 2389.35 1589.58 2389.62C1589.84 2389.8 1590.04 2389.93 1590.54 2390.27C1589.86 2389.81 1589.41 2390.19 1589.01 2390.73ZM475.373 4717.09C476.36 4716.79 477.335 4718.22 477.139 4719.23C477.126 4719.29 477.112 4719.36 477.095 4719.42C477.015 4719.7 476.737 4719.86 476.443 4719.89C475.945 4719.95 475.484 4719.63 475.267 4719.18C474.901 4718.42 474.505 4717.96 474.878 4717.41C474.98 4717.26 475.157 4717.16 475.373 4717.09ZM381.325 4866.65C380.925 4866.82 380.262 4866.64 380.149 4866.22C380.111 4866.08 380.137 4865.93 380.244 4865.83C380.425 4865.65 380.777 4865.39 381.35 4865.23C381.665 4865.14 381.971 4865.36 382.056 4865.67L382.069 4865.72C382.168 4866.09 381.914 4866.45 381.553 4866.57C381.472 4866.59 381.396 4866.62 381.325 4866.65ZM1443.16 3001.31C1443.75 3000.99 1444.18 3001.79 1444.5 3002.38C1444.67 3002.68 1444.85 3002.94 1445.02 3003.22C1445.52 3004.03 1445.11 3005.26 1444.32 3004.73C1444.32 3004.73 1444.32 3004.73 1444.32 3004.73C1443.78 3004.36 1443.25 3004 1442.84 3003.45C1442.35 3002.79 1442.44 3001.71 1443.16 3001.31ZM966.282 3856.65L965.932 3855.35L966.282 3856.65ZM1265.23 3358.23C1264.79 3358.35 1264.66 3357.75 1264.91 3357.37C1265.04 3357.18 1265.17 3356.99 1265.3 3356.8C1265.54 3356.44 1266.09 3356.53 1266.21 3356.95C1266.25 3357.1 1266.22 3357.25 1266.14 3357.37C1265.86 3357.77 1265.58 3358.13 1265.23 3358.23ZM1105.73 3587.63C1105.52 3587.48 1105.6 3587.16 1105.86 3587.13C1106.09 3587.1 1106.25 3587.36 1106.11 3587.55C1106.03 3587.68 1105.86 3587.71 1105.73 3587.63ZM1190.47 3429.04C1190.66 3428.76 1191.09 3428.83 1191.18 3429.17C1191.25 3429.4 1191.09 3429.64 1190.84 3429.67C1190.5 3429.71 1190.27 3429.33 1190.47 3429.04ZM1329.23 3212.88C1328.9 3212.91 1328.6 3212.71 1328.51 3212.39C1328.4 3212 1328.67 3211.61 1329.07 3211.56C1329.4 3211.52 1329.7 3211.73 1329.79 3212.05C1330 3212.82 1330.05 3213 1330.34 3214.08C1330.05 3213.01 1330 3212.83 1329.23 3212.88Z" fill="#0B3C43"/>
</svg>
