<svg width="606" height="618" viewBox="0 0 606 618" fill="none" xmlns="http://www.w3.org/2000/svg">
<mask id="mask0_815_17659" style="mask-type:alpha" maskUnits="userSpaceOnUse" x="0" y="0" width="606" height="618">
<rect width="606" height="618" fill="#C4C4C4"/>
</mask>
<g mask="url(#mask0_815_17659)">
<path d="M81.2925 864.201C81.7935 862.998 83.8493 862.756 85.0234 862.191C85.4523 861.984 85.8153 861.548 85.9645 861.096C86.3823 859.83 86.9502 858.635 86.3037 856.878C85.8433 855.627 86.2381 853.871 86.6109 852.313C86.7367 851.18 87.12 850.085 86.1855 849.433C85.9279 849.253 85.6683 849.073 85.4006 848.891C85.0563 848.659 84.8647 848.255 84.9624 847.851C85.0021 847.687 85.0489 847.51 85.101 847.321C85.2773 846.681 86.1029 846.569 86.3343 847.191C86.3649 847.274 86.3977 847.323 86.4539 847.391C87.0197 848.067 87.3883 848.164 87.9043 847.719C88.064 847.582 88.1496 847.481 88.0945 847.277C88.0108 846.969 88.0052 846.48 88.1986 846.226C89.2342 844.862 89.3956 843.253 89.3957 841.626C89.4825 840.844 87.9791 841.18 87.3541 841.658C87.2307 841.752 87.0973 841.811 86.9378 841.844C86.1612 842.003 85.6021 841.044 85.7793 840.271C85.8608 839.916 85.9476 839.568 86.0635 839.256C86.6558 837.273 87.7428 835.518 87.7649 833.496C87.7681 833.196 87.7505 832.884 87.8918 832.62C88.0421 832.339 88.2971 832.059 88.6005 831.755C89.3772 830.978 89.6581 829.998 89.2785 828.966C88.8989 827.935 89.109 826.667 89.679 825.727C90.0988 825.035 90.3572 824.268 90.2297 823.323C90.139 822.9 90.3403 822.413 90.5674 821.9C90.7736 821.435 91.0345 820.967 91.2291 820.497C91.4047 820.072 91.3966 819.625 91.3311 819.17C91.2176 818.383 91.0659 817.592 91.1508 816.828C91.2605 815.84 91.962 814.918 92.0717 813.931C92.9708 809.432 93.2999 804.67 93.607 800.105C93.7606 798.723 94.1114 797.362 94.9884 796.66C95.8873 795.76 95.9531 795.167 95.8655 794.158C95.5348 792.613 98.5358 792.122 98.1084 790.6C98.0994 790.568 98.0898 790.536 98.0795 790.504C97.6559 789.19 96.5811 787.927 97.2311 786.709C97.4252 786.345 97.6542 786.006 97.8958 785.679C98.7308 784.546 99.0787 783.165 99.002 781.76C98.955 780.9 98.9376 780.071 98.9136 779.301C98.8719 777.965 99.5441 776.709 98.8936 775.305C98.8252 775.158 98.7165 775.03 98.6854 774.87C98.6067 774.465 98.9755 774.111 99.1343 773.73C100.102 771.409 99.8802 768.798 100.164 766.244C100.339 764.663 101.238 763.764 101.786 762.425C102.071 761.657 101.962 760.845 102.225 760.274C102.346 759.948 102.463 759.658 102.579 759.374C102.885 758.625 103.602 758.261 104.306 757.864C104.442 757.787 104.581 757.699 104.695 757.593C105.163 757.154 105.23 756.209 104.878 756.17C103.321 755.797 103.453 754.612 103.585 753.427C103.672 752.637 103.76 751.847 104.045 751.079C105.251 747.414 106.062 743.705 106.479 739.953C106.72 737.78 107.378 735.454 108.803 733.413C109.943 732.14 109.944 730.34 109.286 729.068C108.124 726.939 108.321 725.162 109.527 723.296C110.47 722.001 110.843 720.443 110.624 718.819C110.426 717.353 111.512 716.049 111.951 714.636C112.075 714.237 112.176 713.83 112.256 713.416C112.557 711.846 112.392 710.18 112.948 708.68C113.628 706.157 114.088 703.808 114.176 701.219C114.141 700.571 114.384 700.012 114.891 699.385C115.904 698.132 116.294 696.542 116.063 694.947C116.007 694.558 115.982 694.164 116.003 693.766C116.055 692.728 116.887 692.387 117.246 693.362C117.512 694.084 118.532 694.268 118.91 693.598C119.043 693.363 119.124 693.143 119.126 692.936C119.127 692.824 119.111 692.713 119.116 692.602C119.222 690.161 119.823 688.125 120.977 685.985C121.046 685.856 121.086 685.803 121.096 685.658C121.128 685.183 120.665 684.713 120.203 684.827C119.557 684.987 119.081 685.435 118.624 685.916C118.509 686.037 118.387 686.155 118.233 686.217C118.2 686.23 118.167 686.243 118.132 686.255C117.68 686.409 117.145 686.247 116.961 685.807C116.778 685.368 116.981 684.885 117.073 684.418C117.221 683.667 117.457 682.899 117.707 682.017C117.99 681.016 118.029 680.876 116.835 680.214C116.408 679.978 116.096 679.557 116.103 679.069C116.114 678.323 116.291 677.634 116.592 676.976C116.836 676.442 117.486 676.597 117.518 677.183C117.537 677.522 117.284 677.805 117.017 678.014C116.858 678.139 116.806 678.322 116.855 678.623C116.866 678.691 116.856 678.738 116.887 678.8C117.047 679.114 117.725 679.054 117.859 678.727C117.871 678.698 117.879 678.668 117.882 678.637C117.943 678.094 118.224 677.613 118.565 677.186C118.771 676.927 118.818 676.565 118.76 676.135C118.717 675.822 118.627 674.871 118.898 674.707C119.211 674.518 119.538 674.317 119.887 674.098C120.074 673.981 120.155 673.748 120.072 673.544C120.054 673.497 120.034 673.45 120.013 673.403C119.834 672.993 119.975 672.446 120.385 672.265C120.448 672.236 120.514 672.207 120.582 672.178C121.03 671.984 121.232 671.453 121.02 671.013C120.982 670.934 120.943 670.854 120.905 670.772C120.648 670.218 119.996 669.945 119.453 670.226C119.347 670.281 119.24 670.337 119.133 670.394C118.258 670.857 117.235 670.271 117.397 669.295C117.861 666.507 119.385 664.032 118.875 661.526C118.693 660.63 119.184 659.151 119.681 659.918C119.75 660.024 119.779 660.104 119.843 660.214C120.039 660.551 120.21 660.856 120.38 661.16C120.815 661.938 120.849 662.875 120.487 663.69C120.447 663.781 120.407 663.872 120.368 663.964C119.6 665.764 121.613 666.624 121.829 664.68C121.984 663.287 122.623 661.948 122.123 660.579C121.888 659.935 121.995 659.156 122.614 658.863C122.91 658.723 123.134 658.434 123.192 658.112C123.73 655.146 124.425 652.198 124.943 649.23C125.282 647.725 124.766 645.978 125.358 644.459C125.558 643.946 125.989 643.34 125.645 642.91C125.541 642.78 125.445 642.581 125.307 642.39C125.109 642.117 124.726 642.011 124.407 642.121C124.146 642.211 124.042 642.464 123.915 642.709C123.632 643.258 123.392 643.813 123.39 644.393C123.387 645.002 123.719 645.574 123.719 646.183C123.718 646.872 123.44 647.502 122.685 647.979C122.488 648.105 122.384 648.234 122.345 648.367C121.954 649.702 121.617 650.788 121.326 649.428C121.216 648.616 121.129 647.607 121.414 646.839C121.743 645.675 122.072 644.512 122.576 643.569C123.102 642.427 123.409 641.462 122.949 640.211C122.62 639.575 122.752 638.39 123.19 638.038C124.944 636.634 124.374 634.571 125.163 632.859C125.784 631.513 125.354 630.214 125.052 628.762C125.044 628.724 125.037 628.685 125.032 628.646C125.01 628.542 124.993 628.438 124.981 628.334C124.862 627.285 124.354 626.304 123.612 625.552C123.391 625.328 123.4 625.107 123.387 624.792C123.342 623.706 123.365 622.534 123.805 621.711C124.312 620.927 124.625 620.122 124.684 619.219C124.737 618.409 124.461 617.603 124.55 616.796C124.691 615.527 125.995 614.387 125.277 612.869C125.144 612.587 125.009 612.312 125.164 612.041C125.216 611.949 125.329 611.838 125.391 611.753C125.908 611.056 126.322 610.347 126.804 609.646C127.001 609.36 127.461 609.384 127.778 609.523C127.908 609.58 128.011 609.526 128.119 609.435C128.688 608.953 129.106 608.469 129.505 608.149C129.934 607.805 130.991 608.678 131.346 607.631C131.362 607.582 131.368 607.559 131.374 607.507C131.435 606.989 131.347 606.326 130.961 605.974C130.835 605.86 130.709 605.752 130.58 605.669C130.332 605.508 130.075 605.435 129.878 605.34C129.705 605.255 129.628 605.009 129.607 604.818C129.583 604.595 129.797 604.479 129.943 604.309C131.257 602.78 131.241 601.094 130.551 599.163C130.527 599.097 130.51 599.054 130.462 599.003C130.13 598.649 129.508 598.926 129.382 599.395C129.379 599.406 129.375 599.418 129.372 599.43C129.255 599.866 128.75 600.149 128.349 599.942C127.461 599.484 127.501 599.096 128.336 597.405C128.582 596.907 129.28 596.8 129.809 596.968C129.948 597.012 130.017 596.978 130.147 596.912C130.497 596.733 130.838 596.436 131.041 596.123C131.282 595.75 131.128 595.333 131.37 594.959C132.493 592.928 132.607 592.722 132.602 591.539C132.601 591.253 132.497 590.985 132.261 590.825C132.108 590.722 131.963 590.595 131.803 590.505C130.505 589.773 130.26 588.97 130.756 587.893C131.26 586.95 131.787 585.808 132.291 584.865C133.5 582.677 133.971 580.408 133.166 577.997C133.112 577.837 133.092 577.66 132.988 577.526C132.906 577.421 132.909 577.27 132.876 577.141C132.301 574.939 132.299 574.675 134.549 574.075C135.134 573.919 135.64 574.209 136.018 574.682C136.287 575.017 136.846 575.053 137.219 574.841C138.112 574.334 138.67 573.574 139.031 572.677C139.193 572.272 139.717 572.101 139.962 572.463C140.168 572.767 140.644 572.871 140.84 572.561C141.57 571.409 141.693 570.068 141.675 568.712C141.783 567.737 142.657 567.113 142.774 566.139C142.803 565.897 142.798 565.645 142.795 565.389C142.785 564.491 143.091 563.51 142.53 562.809C142.395 562.64 141.975 562.913 141.599 563.117C141.395 563.228 141.16 563.256 140.93 563.231C140.77 563.213 140.609 563.221 140.451 563.255C139.947 563.364 139.459 563.475 139.101 563.601C139.064 563.614 139.02 563.611 138.986 563.632C138.972 563.641 138.961 563.655 138.953 563.672C138.865 563.86 139.176 564.44 139.343 564.318C139.392 564.282 139.4 564.236 139.447 564.196C139.49 564.16 139.533 564.122 139.577 564.083C140.004 563.696 140.532 563.977 140.453 564.549C140.404 564.901 140.382 565.25 140.425 565.574C140.437 565.784 140.436 565.992 140.423 566.198C140.325 567.709 138.504 567.684 137.565 566.496C137.227 566.069 136.993 565.494 137.062 564.954C137.267 563.359 138.021 562.076 139.351 560.856C139.824 560.352 140.308 559.753 140.787 559.191C141.172 558.739 142.006 558.468 142.272 558.999C142.717 559.884 143.343 560.355 144.021 559.633C144.654 558.959 144.951 558.074 144.569 557.037C144.137 555.861 144.692 555.325 145.343 554.499C145.427 554.392 145.498 554.336 145.566 554.218C145.88 553.674 145.474 552.92 144.873 552.736C143.766 552.395 142.753 552.721 141.632 552.912C140.456 553.071 140.986 551.397 141.999 550.778C143.042 550.142 143.849 549.341 143.876 547.935C143.882 547.608 144.246 547.265 144.562 547.184C144.919 547.092 145.014 547.405 144.948 547.768C144.673 549.282 144.696 549.694 145.355 550.702C145.639 551.137 146.42 551.166 146.477 550.65C146.916 548.5 146.96 546.305 147.574 544.374C147.977 543.286 147.743 542.528 147.401 541.804C147.135 541.244 146.473 540.716 146.021 541.14C145.784 541.363 145.688 541.696 145.537 541.962C145.397 542.209 144.941 542.23 144.861 541.958C144.843 541.897 144.848 541.841 144.837 541.778C144.732 541.179 144.805 540.437 144.68 539.854C144.263 538.208 144.614 536.848 145.93 535.794C145.983 535.751 146.016 535.682 146.035 535.596C146.135 535.153 145.537 534.887 145.082 534.896C145.025 534.898 145.002 534.9 144.946 534.908C143.576 535.116 142.859 534.633 142.773 533.644C142.554 532.02 142.357 530.199 142.532 528.619C142.511 527.09 143.568 525.682 144.16 524.221C144.217 524.082 144.274 523.865 144.371 523.749C144.468 523.634 144.552 523.604 144.691 523.545C145.643 523.137 146.378 523.007 146.807 522.495C147.248 521.813 147.095 521.14 146.749 520.519C146.36 519.821 146.501 518.838 146.97 518.192C147.165 517.924 147.022 517.777 146.913 517.465C146.689 516.821 146.689 516.203 146.776 515.594C147.01 513.961 149.037 512.722 149.724 514.222C150.228 515.077 151.675 514.638 151.784 513.651C151.793 513.578 151.796 513.495 151.795 513.407C151.787 512.455 150.629 511.797 150.104 511.003C149.371 509.895 150.721 508.441 150.973 507.136C151.129 506.327 151.249 505.401 151.921 504.923C152.566 504.465 153.203 503.996 153.572 503.193C153.86 502.569 153.531 501.908 152.91 501.613C152.489 501.413 152.109 501.033 152.111 500.567C152.112 500.325 152.087 500.082 151.917 499.869C150.886 498.355 151.435 497.017 152.903 496.38C153.659 496.101 153.637 495.59 153.652 495.068C153.671 494.412 154.344 494.138 154.969 494.338C155.071 494.371 155.174 494.405 155.278 494.442C155.78 494.615 156.337 494.532 156.749 494.197C157.139 493.881 157.557 493.534 157.991 493.158C158.471 492.74 158.308 491.97 157.672 491.971C157.241 491.971 156.766 491.648 156.822 491.22C156.915 490.513 157.165 489.882 157.54 489.323C157.832 488.888 158.386 488.843 158.713 489.253C159.041 489.662 159.728 489.789 160.121 489.443C160.321 489.267 160.508 489.093 160.666 488.907C161.232 488.24 160.305 487.693 159.511 488.058C158.795 488.387 158.055 487.89 157.973 487.107C157.931 486.707 157.895 486.303 157.856 485.888C157.759 484.849 158.513 484.15 159.328 483.497C159.637 483.25 159.967 482.807 160.09 482.351C160.189 481.984 160.115 481.593 160.056 481.217C159.979 480.725 159.846 480.25 159.704 479.769C159.428 478.832 159.636 477.779 160.119 476.931C160.792 475.748 160.864 474.361 160.286 473.13C160.261 473.075 160.236 473.022 160.211 472.968C160.034 472.578 159.881 472.131 160.135 471.786C160.246 471.636 160.378 471.5 160.468 471.428C160.687 471.252 161.038 471.691 161.433 471.735C161.782 471.773 162.172 471.858 162.252 471.517C162.491 470.504 161.957 469.651 161.543 468.948C160.88 467.945 160.81 467.008 161.057 466.106C161.197 465.592 161.599 465.267 162.072 465.022C162.424 464.84 162.681 464.467 162.801 464.089C162.952 463.612 163.104 463.124 163.26 462.604C163.464 461.923 163.66 461.192 164.164 460.69C164.26 460.595 164.364 460.519 164.481 460.476C167.199 459.379 167.857 457.052 168.515 454.726C168.866 453.366 169.611 452.049 168.603 450.337C167.573 448.823 168.055 448.077 169.809 446.672C170.247 446.321 170.51 445.751 170.532 445.553C170.505 443.576 172.274 442.233 172.618 440.286C172.732 439.638 172.96 439.017 173.317 438.464C174.108 437.378 175.3 436.477 176.453 435.477C176.867 435.118 177.041 434.559 176.949 434.018C176.923 433.862 176.896 433.704 176.87 433.548C176.798 433.132 176.995 432.706 177.375 432.524C177.504 432.463 177.637 432.402 177.778 432.341C178.299 432.118 178.454 431.44 178.007 431.092C177.757 430.897 177.657 430.537 177.762 430.238C177.895 429.859 178.035 429.489 178.336 429.321C178.46 429.252 178.604 429.221 178.729 429.154C179.613 428.685 178.964 428.245 178.769 427.726C178.661 427.439 178.862 427.156 179.075 426.935C179.557 426.435 180.129 425.874 180.786 425.305C181.098 425.036 181.546 425.135 181.736 425.501C181.889 425.796 182.36 425.996 182.645 425.823C182.688 425.797 182.717 425.762 182.723 425.713C182.789 425.12 182.679 424.308 182.942 423.738C184.648 420.147 185.044 419.794 184.821 417.835C184.59 415.804 185.149 413.86 186.194 412.103C186.417 411.728 186.569 411.327 186.62 410.894C186.717 410.075 186.611 409.183 186.573 408.059C186.557 407.593 186.576 407.29 186.876 406.933C187.536 406.147 187.76 404.915 187.678 403.892C187.572 402.579 188.123 401.281 188.994 399.817C190.222 397.754 191.077 395.45 192.502 393.409C194.35 390.551 196.016 387.673 198.022 384.832C198.199 384.581 198.411 384.284 198.576 384.024C198.676 383.867 198.846 383.904 199.031 383.881C201.115 383.622 200.577 381.852 200.724 380.526C200.733 380.447 200.743 380.352 200.757 380.249C200.852 379.492 201.482 379.032 201.93 378.414C202.112 378.163 202.237 377.881 202.296 377.566C202.377 377.132 202.291 376.655 202.568 376.311C202.801 376.023 203.195 375.899 203.492 375.678C205.427 374.234 205.841 371.556 207.696 369.903C208.101 369.579 208.375 368.899 208.622 368.348C208.662 368.258 208.689 368.164 208.699 368.066C208.712 367.95 208.724 367.833 208.734 367.716C208.782 367.151 209.456 366.689 210.018 366.761C210.207 366.785 210.325 366.721 210.489 366.624C210.683 366.509 210.882 366.395 210.897 366.26C211.139 364.087 212.893 362.683 213.704 360.773C213.989 360.005 215.26 359.347 216.094 359.039C218.154 358.468 219.163 356.581 219.952 354.869C221.027 352.389 222.43 350.546 224.973 349.228C226.661 348.416 227.889 346.353 229.073 344.685C229.774 343.763 230.235 343.215 231.287 342.732C232.537 342.271 233.787 341.81 234.159 340.251C234.181 340.054 234.4 339.878 234.62 339.703C237.908 337.069 241 334.413 244.266 331.977C245.801 330.747 246.963 329.277 249.046 328.509C250.712 327.894 252.203 327.06 253.738 325.831C254.856 324.755 256.719 324.162 258.013 323.306C260.797 321.616 264.13 320.386 266.585 318.06C267.024 317.709 267.835 317.599 268.449 317.467C269.676 317.204 270.729 316.721 271.43 315.799C272.154 314.679 273.031 313.977 274.237 313.911C274.338 313.894 274.436 313.869 274.532 313.838C276.803 313.107 279.521 312.4 281.537 311.123C283.269 309.916 285.089 309.718 286.93 309.322C288.148 309.061 289.017 307.934 290.18 307.49C290.263 307.459 290.346 307.43 290.429 307.403C291.032 307.212 291.667 307.135 292.287 307.009C294.226 306.613 296.144 306.41 298.111 305.766C300.194 304.997 302.255 304.426 304.491 304.075C307.841 303.356 311.639 302.622 314.963 301.79C315.373 301.687 315.779 301.556 316.176 301.374C317.645 300.737 319.487 300.342 321.087 300.319C325.121 299.968 329.331 299.835 333.54 299.703C335.048 299.499 336.009 301.216 337.527 301.319C338.215 301.366 338.974 301.205 339.766 301.194C341.169 301.15 342.441 300.491 343.909 301.654C344.312 301.992 344.985 301.822 345.801 301.603C346.372 301.45 346.971 301.66 347.34 302.123C347.879 302.797 348.708 302.742 349.389 302.211C349.622 302.03 349.897 301.919 350.267 301.96C351.846 302.135 353.885 301.762 355.2 302.508C355.49 302.652 355.771 302.748 356.043 302.807C358.95 303.434 362.237 300.71 364.824 302.177C366.534 302.967 368.091 303.34 370.327 302.988C370.995 302.803 372.695 303.153 374 303.661C375.12 304.097 375.841 305.4 377.035 305.533C377.823 305.62 378.605 305.769 379.341 306.062C380.188 306.398 381.065 306.78 381.88 306.871C383.064 307.002 384.358 306.146 385.761 306.102C386.572 305.992 387.931 306.343 388.282 306.782C389.312 308.296 391.044 307.088 392.14 308.01C393.237 308.931 394.179 309.436 395.604 309.194C397.116 308.87 398.315 310.536 399.688 311.246C399.896 311.353 400.111 311.447 400.34 311.52C400.44 311.566 400.543 311.61 400.647 311.651C402.673 312.451 404.329 310.287 406.39 310.992C408.036 311.458 408.702 313.435 410.324 313.977C412.205 314.606 414.05 315.344 415.554 316.608C416.299 317.091 417.286 317.201 418.075 317.288C418.219 317.304 418.343 317.265 418.461 317.21C418.748 317.078 418.999 316.689 418.864 316.402C418.723 316.103 418.863 315.657 419.193 315.631C419.797 315.583 420.367 315.695 420.553 316.564C420.639 317.204 420.998 317.625 421.522 317.915C421.813 318.076 422.126 318.204 422.412 318.375C424.518 319.642 427.095 320.834 429.392 321.706C429.449 321.728 429.506 321.747 429.563 321.763C430.922 322.114 432.04 322.838 433.355 323.584C434.868 324.352 436.337 325.514 438.376 325.141C439.143 325.074 439.961 325.592 440.724 326.065C441.143 326.325 441.64 326.324 441.959 325.948C442.305 325.539 442.903 325.337 443.4 325.535C444.489 325.969 445.538 326.505 445.852 327.971C446.246 329.814 447.759 330.582 449.359 330.56C450.668 330.705 451.976 330.85 453.21 331.667C453.348 331.759 453.469 331.88 453.611 331.964C454.073 332.235 454.62 331.905 455.126 331.729C455.943 331.446 456.709 331.631 457.461 331.932C458.363 332.293 458.257 333.17 458.15 334.135C458.062 334.925 458.632 335.188 459.202 335.452C461.11 336.263 463.017 337.075 464.924 337.887C466.262 338.435 467.774 339.203 469.068 340.146C471.038 341.509 473.038 342.607 475.043 343.658C475.88 344.096 477.545 343.95 476.956 343.212C476.837 343.064 476.657 342.951 476.487 342.866C475.648 342.446 474.796 342.139 473.978 341.533C473.934 341.501 473.895 341.463 473.865 341.419C473.838 341.38 473.812 341.337 473.786 341.291C473.6 340.965 473.828 340.249 474.146 340.45C474.212 340.492 474.256 340.537 474.326 340.573C475.623 341.242 476.763 342.04 478.016 342.867C478.335 343.078 478.567 343.405 478.596 343.788C478.602 343.873 478.607 343.957 478.612 344.042C478.643 344.606 479.129 344.995 479.692 344.949C479.962 344.927 480.22 344.904 480.482 344.882C481.087 344.829 481.452 345.564 481.187 346.11C481.018 346.458 481.188 346.808 481.523 347.001C483.451 348.111 483.761 348.478 485.987 351.947C486.235 352.334 486.653 352.096 487.11 352.147C488.864 352.542 490.837 352.761 491.648 354.45C491.783 354.712 491.931 354.933 492.088 355.126C493.173 356.469 494.677 357.424 495.959 358.581C496.567 359.13 497.151 359.697 497.728 360.302C497.884 360.466 498.099 360.632 498.245 360.805C498.578 361.202 498.928 361.507 499.396 361.729C501.447 362.705 502.705 364.46 504.122 366.233C504.648 366.891 505.371 367.571 506.139 367.856C508.835 368.755 510.15 371.301 511.926 373.297C512.803 374.394 513.899 375.316 515.214 376.062C515.333 376.139 515.449 376.218 515.564 376.298C517.275 377.506 520.241 377.687 520.06 375.6C519.84 373.976 520.805 372.484 520.564 371.058C520.345 369.434 520.893 368.095 520.871 366.493C520.871 365.478 521.067 364.42 521.312 363.341C521.679 361.725 523.416 360.886 523.745 359.263C523.818 358.904 523.677 358.442 523.505 358.119C523.354 357.837 523.189 357.524 523.108 357.144C522.429 354.552 522.654 353.935 525.335 352.742C525.515 352.662 525.663 352.605 525.772 352.441C525.83 352.354 525.865 352.199 525.88 352.095C526.023 351.135 524.955 351.041 524.391 350.524C524.146 350.298 524.329 349.901 524.622 349.743C525.301 349.377 526.939 348.208 526.689 347.478C526.496 346.912 526.97 346.233 527.494 345.946C528.061 345.635 528.318 345.004 528.6 344.455C528.99 343.696 529.697 342.81 529.336 342.037C529.025 341.373 528.513 340.951 528.066 340.533C527.742 340.229 527.462 339.828 527.527 339.388C527.65 338.553 528.586 338.042 528.48 337.547C528.064 335.901 528.962 335.001 529.686 333.882C530.41 332.762 530.585 331.182 531.308 330.063C532.295 328.373 533.084 326.661 533.501 324.708C533.78 323.627 534.183 322.561 534.611 321.497C534.805 321.017 534.667 320.486 534.325 320.098C534.056 319.792 533.985 319.319 534.142 318.943C534.773 317.44 535.227 315.771 535.136 313.897C535.129 313.76 535.125 313.652 535.146 313.517C535.21 313.107 535.476 312.692 535.807 312.442C536.319 312.056 537.08 311.801 537.031 310.904C536.922 310.092 536.834 309.083 536.922 308.293C537.029 307.33 537.662 306.505 537.975 305.588C538.279 304.696 538.555 303.801 538.917 302.916C539.202 302.148 539.487 301.38 539.948 300.831C540.017 300.749 540.111 300.687 540.22 300.638C541.604 300.013 541.381 298.72 541.548 297.21C541.943 295.454 541.154 293.567 542.513 292.119C542.913 291.642 543.015 291.133 542.82 290.59C542.759 290.42 542.681 290.254 542.653 290.075C542.543 289.365 542.816 288.792 543.331 288.267C543.567 288.027 544.046 288.065 544.244 288.336C544.339 288.467 544.366 288.591 544.47 288.715C544.77 289.072 545.079 289.344 545.451 289.046C545.467 289.033 545.482 289.019 545.498 289.003C545.966 288.526 545.691 287.72 545.503 287.078C545.038 285.481 545.237 283.737 546.37 282.519C547.096 281.737 547.791 280.992 548.433 280.18C548.894 279.631 549.157 279.06 549.025 278.446C548.587 274.576 550.879 271.915 552.796 268.938C553.239 268.251 554.203 268.089 554.811 268.636C555.276 269.055 556.013 269.117 556.448 268.668C556.533 268.58 556.609 268.492 556.676 268.403C556.722 268.34 556.759 268.27 556.792 268.199C557.301 267.106 557.795 266.192 558.475 265.299C558.976 264.611 559.378 263.799 559.701 262.955C560.258 261.496 560.682 259.988 561.356 258.58C562.025 257.184 562.663 255.755 562.707 254.173C562.882 252.593 564.044 251.122 565.36 250.069C566.144 249.283 566.963 248.196 567.785 247.071C568.007 246.767 568.227 246.588 568.602 246.63C568.961 246.67 569.479 246.544 569.643 246.222C569.932 245.655 569.971 245.079 569.907 244.478C569.759 243.096 570.458 241.613 571.647 240.891C572.751 240.221 573.92 239.654 573.334 238.503C573.167 238.174 573.053 237.81 573.109 237.369C573.145 237.081 573.287 236.821 573.449 236.58C574.88 234.451 576.846 232.242 579.106 230.601C581.426 228.918 582.63 227.111 582.258 224.397C582.235 224.233 582.222 224.13 582.24 223.965C582.293 223.492 582.536 222.982 582.972 222.793C583.778 222.444 584.714 222.272 585.158 221.076C585.923 218.669 588.012 217.092 589.545 215.085C590.02 214.462 590.663 213.931 591.582 213.592C591.815 213.506 592.069 213.235 592.293 212.912C592.638 212.416 593.01 211.857 593.442 211.433C593.914 210.97 594.011 210.322 594.392 209.782C595.325 208.459 596.796 207.706 597.764 206.481C598.883 205.066 599.311 203.204 600.846 202.341C600.967 202.274 601.109 202.186 601.214 202.095C601.472 201.869 601.608 201.556 601.8 201.272C602.746 199.869 603.267 198.182 605.175 197.307C606.644 196.67 607.652 194.783 608.99 193.532C609.669 192.807 610.547 192.105 611.051 191.161C611.555 190.217 612.235 189.493 613.265 189.208C613.991 188.94 614.571 188.428 615.156 187.921C616.354 186.882 617.76 186.073 619.294 185.279C621.202 184.291 622.605 182.447 624.183 180.823C626.661 178.299 629.27 176.389 632.405 175.138C632.696 175.031 633.011 174.926 633.319 174.803C634.418 174.365 635.092 173.265 636.113 172.668C636.351 172.529 636.596 172.411 636.85 172.31C638.069 171.828 639.345 171.527 640.626 171.252C641.791 170.899 642.814 170.659 643.924 170.35C644.474 170.197 645.071 170.078 645.634 169.979C646.599 169.808 647.34 169.142 648.256 168.792C649.354 168.373 650.592 168.388 651.764 168.09C652.884 167.85 654.407 168.487 655.264 167.298C655.439 167.056 655.611 166.718 655.907 166.751C659.871 167.01 663.835 165.783 667.7 166.659C668.485 166.836 669.293 167.4 670.048 167.122C671.911 166.529 673.731 166.331 675.572 167.735C675.945 167.977 676.581 167.648 677.173 167.713C678.729 168.086 680.724 168.107 682.018 169.051C684.977 171.179 688.156 171.332 691.51 171.705C692.981 171.868 694.249 172.776 695.57 173.444C696.511 173.921 697.472 174.331 698.372 174.666C700.652 175.719 703.173 176.399 705.015 177.803C707.404 179.668 710.145 180.172 712.578 181.642C714.442 182.849 716.612 183.09 718.256 184.472C718.804 184.933 719.988 185.064 720.755 185.349C722.093 185.898 723.452 186.249 724.307 187.543C724.8 188.16 725.61 188.353 726.38 188.528C727.147 188.702 727.886 188.873 728.516 189.21C729.261 189.693 729.503 191.119 730.686 191.251C732.068 191.404 732.769 192.282 733.471 193.16C735.071 194.937 736.934 196.143 739.017 197.174C740.038 197.753 741.191 198.227 741.841 199.272C742.244 199.921 742.321 200.796 742.963 201.212C745.221 202.462 746.777 204.635 748.356 206.609C749.583 208.145 750.811 209.681 752.039 211.217C753.266 212.753 754.889 214.333 755.48 216.198C755.634 216.615 755.809 216.834 756.16 217.273C756.799 217.913 757.308 218.589 757.687 219.302C758.93 221.639 760.184 224.039 762.21 225.743C762.758 226.203 763.285 226.862 763.613 227.498C764.446 228.99 765.477 230.504 766.726 231.843C768.546 233.444 769.291 235.726 770.255 237.833C771.045 239.72 771.615 241.783 773.697 242.814C773.81 242.887 773.919 242.996 774.02 243.125C774.48 243.709 774.717 244.441 774.96 245.143C775.067 245.453 775.305 245.695 775.569 245.889C776.259 246.399 777.077 246.848 777.095 248.19C776.985 249.177 778.082 250.099 778.564 251.152C779.747 254.882 781.348 258.459 782.553 261.992C783.167 263.66 783.562 265.503 784.175 267.171C784.636 268.421 785.315 269.497 785.578 270.725C786.17 272.591 786.762 274.456 786.959 276.277C787.244 279.108 786.937 281.873 787.002 284.88C787.046 286.284 786.717 287.447 787.178 288.698C787.463 289.729 787.528 290.936 786.432 291.814C786.242 291.967 786.299 292.599 786.146 293.136C786.1 293.297 786.015 293.438 785.936 293.586C785.553 294.31 784.827 294.59 784.08 294.927C783.018 295.405 782.518 296.521 781.806 297.499C781.324 298.245 780.513 298.355 779.767 297.872C777.685 296.841 777.093 294.976 776.523 292.913C776.408 292.602 776.342 292.296 776.312 291.993C775.961 288.461 775.7 285.15 773.279 282.556C772.226 281.239 771.569 279.967 772.38 278.057C772.658 277.378 772.795 276.58 772.857 275.775C772.972 274.273 772.808 272.768 772.117 271.43C771.46 270.157 770.802 268.885 770.144 267.612C769.699 266.545 769.253 265.479 769.072 264.298C768.88 263.049 767.383 261.347 766.361 260.604C765.703 260.125 765.234 259.434 765.184 258.622C765.089 257.076 764.63 256.262 763.371 254.863C762.594 253.892 762.186 252.839 761.602 251.742C761.063 250.731 760.177 249.972 759.206 249.202C758.658 248.741 758.131 248.083 757.824 247.249C757.395 246.081 756.082 245.661 755.45 244.589C754.658 243.247 753.38 242.232 752.541 240.864C752.445 240.743 752.228 240.609 752.016 240.542C751.727 240.451 751.437 240.628 751.145 240.71C750.014 241.025 749.713 240.344 749.431 239.572C749.29 239.187 749.543 238.693 749.921 238.532C750.345 238.35 750.437 237.896 750.204 237.497C750.157 237.415 750.109 237.332 750.062 237.246C749.808 236.784 749.238 236.567 748.793 236.849C748.786 236.853 748.779 236.858 748.772 236.862C748.337 237.137 747.468 236.981 747.583 236.48C747.608 236.372 747.665 236.266 747.68 236.157C747.83 235.136 747.563 234.195 747.202 233.276C746.227 230.79 745.22 228.103 743.333 226.214C743.188 226.069 743.04 225.926 742.89 225.786C742.735 225.641 742.64 225.511 742.445 225.428C741.894 225.195 741.299 225.599 740.708 225.692C740.551 225.716 740.406 225.63 740.287 225.307C740.133 224.891 740.199 224.298 740.243 223.903C740.336 223.071 740.006 222.488 739.4 222.1C738.995 221.842 738.523 222.118 738.578 222.595C738.656 223.271 737.837 223.781 737.378 223.278C735.593 221.321 734.098 219.589 732.724 217.87C732.629 217.751 732.605 217.524 732.578 217.275C732.536 216.881 732.27 216.619 731.876 216.576C731.2 216.5 730.689 215.795 730.863 215.137C730.934 214.869 731.012 214.594 731.124 214.293C731.381 213.296 731.367 212.805 730.582 212.373C730.001 212.053 729.331 212.453 729.257 213.112C729.171 213.888 728.282 214.375 727.673 213.887C727.162 213.478 726.718 213.034 726.383 212.511C725.946 211.828 725.364 211.207 724.608 210.912C723.779 210.588 723.014 210.14 722.426 209.476C722.332 209.37 722.233 209.268 722.128 209.172C721.936 208.997 721.746 208.802 721.557 208.605C721.073 208.102 721.101 207.033 721.728 207.34C721.806 207.379 721.88 207.427 721.951 207.477C722.152 207.621 722.406 207.665 722.626 207.552C722.633 207.549 722.64 207.545 722.647 207.541C722.819 207.452 722.913 207.285 722.935 207.093C722.968 206.797 722.819 206.499 722.555 206.359C722.03 206.081 721.504 205.812 720.974 205.587C720.478 205.377 719.912 205.543 719.536 205.928C719.49 205.975 719.446 206.021 719.403 206.066C719.136 206.345 718.739 206.519 718.356 206.477C718.248 206.465 718.161 206.437 718.061 206.392C717.54 206.153 717.002 205.926 716.282 205.846C714.331 205.43 712.818 204.662 711.152 203.477C708.74 201.81 705.869 200.691 703.216 199.397C701.309 198.585 699.862 197.225 697.713 196.786C697.531 196.766 697.325 196.572 697.102 196.324C696.677 195.851 696.748 195.017 697.271 194.657C697.689 194.369 697.837 193.875 697.583 193.435C697.488 193.271 697.4 193.107 697.341 192.946C696.468 190.576 694.415 190.767 692.56 190.271C692.356 190.216 692.177 190.163 691.965 190.161C691.621 190.156 691.358 190.45 691.132 190.71C689.984 192.029 688.612 191.343 687.388 190.841C685.481 190.03 683.288 189.986 681.863 188.428C681.516 187.994 680.816 188.217 680.26 188.189C678.484 188.098 677.215 186.808 675.747 185.949C674.607 185.423 673.883 184.743 672.261 184.962C671.261 185.132 670.239 184.61 669.181 184.155C668.296 183.774 667.431 183.226 666.473 183.12C663.886 183.033 661.3 182.945 658.691 183.056C657.09 183.078 655.468 183.297 654.196 183.956C652.727 184.593 651.39 184.044 649.899 184.879C647.575 186.02 644.879 186.92 642.226 187.425C641.415 187.535 640.165 187.996 639.902 188.567C639.113 190.279 637.468 190.696 636.175 191.552C634.662 192.584 632.974 193.396 632.185 195.108C631.544 196.497 629.471 196.409 628.385 197.486C628.27 197.599 628.169 197.721 628.085 197.852C626.221 200.244 623.437 201.934 621.573 204.326C621.113 204.875 620.631 205.621 619.995 205.95C618.109 206.741 616.947 208.211 615.763 209.879C614.799 211.372 613.089 212.381 611.927 213.852C610.984 215.147 610.436 216.486 609.12 217.539C606.051 219.997 603.902 223.158 601.732 226.516C601.249 227.262 600.57 227.986 599.912 228.513C598.794 229.589 598.048 230.905 596.93 231.981C595.812 233.056 594.694 234.132 593.948 235.449C593.387 236.317 592.508 236.939 591.759 237.653C591.288 238.101 590.831 238.545 590.55 239.07C589.739 240.979 588.555 242.647 586.998 244.074C585.442 245.501 584.608 247.608 583.446 249.078C581.407 251.251 580.114 253.906 578.447 256.321C577.102 258.402 575.824 261.197 574.479 263.278C574.133 263.814 573.696 264.237 573.509 264.806C573.352 265.289 573.471 266.165 572.966 266.109C570.576 266.044 570.971 267.887 570.423 269.226C569.37 271.508 568.493 274.01 567.244 276.27C566.839 277.028 566.18 277.757 565.46 278.582C565.123 278.969 564.995 279.375 565.109 279.875C565.248 280.488 564.908 281.202 564.354 281.501C564.135 281.619 563.933 281.751 563.77 281.909C562.972 282.687 562.993 284.14 562.162 284.882C561.298 285.654 560.537 286.492 560.065 287.517C559.477 288.798 559.052 290.221 558.72 291.591C558.454 292.689 558.312 293.821 557.618 294.596C556.456 296.066 555.864 297.8 555.097 299.314C554.286 301.224 553.65 303.352 552.641 305.24C551.633 307.127 550.997 309.256 550.361 311.385C550.076 312.153 549.791 312.921 549.725 313.513C549.671 313.999 549.598 314.434 549.455 314.811C548.874 316.34 546.474 316.393 545.887 317.92C545.594 318.682 545.636 319.618 545.932 320.69C546.281 321.64 546.146 322.613 546.002 323.615C545.744 325.404 545.922 327.376 544.813 328.963C544.331 329.71 544.024 330.675 543.739 331.443C543.514 331.932 543.289 332.42 543.063 332.909C542.988 333.072 542.883 333.238 542.761 333.37C542.092 334.097 541.667 335.067 541.837 336.039C541.967 336.779 541.997 337.52 541.841 338.23C541.577 339.432 541.113 340.64 540.884 341.85C540.459 344.106 539.188 346.226 539.222 348.737C539.331 349.549 538.827 350.492 538.542 351.26C536.804 356.217 536.396 361.937 534.292 366.75C534.066 367.265 533.848 367.785 533.652 368.312C532.753 371.012 532.446 373.777 530.78 376.191C529.936 377.496 529.98 378.989 529.49 380.464C529.346 380.898 529.329 381.416 529.53 382.05C529.815 383.082 529.091 384.201 528.565 385.342C527.206 388.59 527.732 391.048 530.253 393.527C530.801 393.988 531.371 394.251 531.7 394.888C533.695 398.508 536.588 401.229 539.263 404.125C539.658 404.537 539.931 405.07 540.194 405.618C541.036 407.37 542.276 409.234 543.942 410.236C544.191 410.386 544.484 410.544 544.736 410.688C544.767 410.706 544.798 410.724 544.828 410.743C545.531 411.167 545.655 412.066 546.043 412.789C546.214 413.106 546.42 413.395 546.656 413.66C547.166 414.234 547.779 414.711 548.268 415.303C550.168 417.606 551.518 420.333 553.402 422.491C554.279 423.588 554.959 424.663 556.055 425.584C557.524 426.747 558.313 428.634 559.124 430.324C559.453 430.96 559.584 431.575 559.913 432.211C559.965 432.33 560.017 432.449 560.071 432.567C561.262 435.186 563.284 437.774 564.604 440.33C565.393 442.217 565.766 444.258 566.753 446.167C568.177 449.524 569.624 452.684 571.268 455.865C571.597 456.502 571.729 457.116 571.86 457.731C572.32 460.781 573.438 463.304 575.806 465.367C576.902 466.288 577.384 467.342 577.209 468.922C577.175 469.222 576.921 469.456 576.909 469.758C576.838 471.476 578.41 472.783 578.612 474.276C578.611 476.075 578.831 477.699 579.839 479.411C581.023 481.342 581.768 483.624 581.899 486.038C581.987 487.047 582.272 488.079 582.36 489.088C582.56 490.571 581.597 491.909 581.454 493.399C581.381 494.17 581.492 494.959 581.811 495.825C581.965 496.242 581.899 496.835 581.833 497.427C581.701 500.412 581.57 503.396 581.263 506.161C581.065 507.939 580.89 509.519 581.087 511.34C581.35 512.569 581.372 514.171 580.034 515.422C579.574 515.971 579.64 517.178 579.749 517.99C579.837 518.999 579.925 520.009 579.42 520.952C578.85 522.489 577.688 523.959 578.477 525.846C578.905 527.007 577.67 528.167 577.222 529.32C576.253 531.813 575.226 534.324 574.443 536.995C573.763 539.518 572.009 540.923 570.431 542.547C569.532 543.447 568.633 544.347 567.734 545.247C565.563 547.671 562.438 548.682 559.848 550.652C559.735 550.737 559.623 550.831 559.512 550.932C558.646 551.626 557.464 551.785 556.347 551.551C555.831 551.443 555.307 551.549 555.076 552.023C554.869 552.446 554.396 552.758 553.926 552.718C553.745 552.703 553.56 552.69 553.369 552.683C552.615 552.652 552.066 553.257 551.541 553.8C551.256 554.094 550.878 554.267 550.348 554.313C548.748 554.335 546.95 554.336 545.372 554.16C545.286 554.151 545.195 554.141 545.103 554.129C544.044 553.998 543.25 553.175 542.357 552.591C538.843 550.293 534.754 548.156 532.438 544.654C532.268 544.397 532.101 544.135 531.933 543.871C530.824 542.276 529.122 541.462 528.259 539.719C528.106 539.41 528.003 539.153 527.676 539.043C527.097 538.849 526.575 538.4 526.355 537.83C526.062 537.072 525.816 536.319 525.466 535.555C525.313 535.138 524.962 534.699 525.181 534.523C526.76 532.899 525.006 532.504 524.107 531.605C523.033 530.486 521.959 529.367 521.542 527.721C521.304 526.857 520.911 526.117 520.249 525.486C519.986 525.236 519.693 524.992 519.596 524.642C519.573 524.558 519.556 524.471 519.547 524.381C519.529 524.195 519.535 524.006 519.51 523.821C519.352 522.696 519.254 522.521 518.223 522.603C517.856 522.632 517.424 522.315 517.399 521.947C517.394 521.878 517.415 521.831 517.446 521.769C518.18 520.3 518.483 519.15 517.882 517.517C517.268 515.85 517.071 514.028 516.874 512.207C516.808 511 515.251 510.627 516.019 509.113C516.545 507.972 515.01 507.401 514.506 506.545C513.169 504.198 512.073 501.477 511.766 498.843C511.569 497.022 510.758 495.332 511.174 493.379C511.24 492.787 510.911 492.15 510.78 491.536C510.613 490.932 510.386 490.254 510.332 489.566C510.255 488.583 510.935 487.456 510.32 486.686C509.07 485.348 509.07 483.548 509.246 481.968C509.317 479.865 509.388 477.762 508.814 475.695C508.574 474.832 508.814 473.901 509.453 473.275C509.518 473.212 509.581 473.148 509.642 473.083C509.789 472.928 509.857 472.65 509.799 472.444C509.745 472.252 509.644 472.161 509.494 472.03C508.211 470.921 507.812 469.702 508.019 467.836C508.304 465.268 508.216 462.46 507.712 459.804C507.34 457.764 506.989 455.525 506.222 453.441C505.893 452.804 506.025 451.619 506.31 450.851C507.406 448.174 507.165 444.948 509.226 442.577C509.686 442.029 509.621 440.822 509.314 439.988C508.832 438.935 509.117 438.167 509.204 437.377C509.27 436.784 509.161 435.972 508.81 435.533C508.19 434.888 508.315 434.125 508.363 433.385C508.425 432.421 508.291 431.373 508.764 430.531C509.139 429.862 509.314 428.979 509.119 428.237C508.649 426.442 508.586 424.473 509.446 422.608C509.95 421.664 509.052 420.764 509.578 419.623C510.433 417.319 510.302 414.905 511.354 412.622C511.778 411.587 511.979 410.408 511.663 409.237C511.489 408.591 511.516 407.862 511.975 407.376C511.989 407.36 512.003 407.345 512.018 407.33C512.47 406.856 512.58 406.224 512.206 405.687C512.18 405.649 512.154 405.61 512.128 405.57C512.016 405.394 511.98 405.182 512.003 404.975C512.024 404.795 512.091 404.623 512.193 404.473C514.143 401.612 513.773 399.233 511.53 396.647C510.456 395.528 509.382 394.409 508.067 393.663C506.948 392.939 505.458 391.974 504.997 390.723C504.077 388.221 501.972 387.388 500.131 385.983C497.916 384.338 495.461 383.066 494.146 380.52C493.992 380.103 493.4 380.038 492.852 379.577C492.107 379.094 491.362 378.611 490.836 377.953C489.082 375.759 486.846 374.311 484.851 372.49C484.303 372.029 483.777 371.371 483.009 371.086C482.067 370.581 481.519 370.121 481.014 369.265C480.686 368.628 479.94 368.146 479.151 368.058C477.397 367.663 476.104 366.72 474.854 365.382C473.407 364.021 471.741 362.837 469.856 361.827C467.598 360.577 465.384 358.931 463.169 357.286C462.921 357.125 462.672 356.964 462.475 356.868C462.318 356.791 462.169 356.794 461.998 356.831C461.037 357.04 460.582 356.298 459.969 355.531C459.143 354.497 457.946 353.835 456.774 353.223C454.758 352.17 452.672 351.186 450.663 350.041C447.883 348.456 444.249 344.909 441.751 346.91C441.312 347.261 440.545 346.976 439.975 346.712C438.858 346.255 437.895 345.674 436.841 345.061C436.482 344.852 436.339 344.397 436.466 344.001C436.612 343.544 436.368 343.035 435.902 342.918C435.297 342.766 434.714 342.624 434.222 342.346C434.124 342.291 434.025 342.238 433.932 342.174C433.424 341.82 432.977 340.92 432.456 340.679C431.118 340.131 429.584 339.56 428.225 339.209C426.493 338.617 424.761 338.025 423.248 337.257C422.152 336.808 422.087 336.741 421.677 335.585C421.493 335.067 420.958 334.846 420.453 335.063C420.354 335.106 420.246 335.164 420.16 335.228C419.331 335.841 418.545 335.915 417.46 335.415C415.18 334.362 412.9 333.309 410.511 333.243C409.86 333.264 409.231 333.179 408.614 333.046C404.973 332.258 401.125 329.202 397.423 328.791C395.844 328.615 394.266 328.44 392.907 328.089C391.547 327.738 390.166 327.585 389.333 326.093C389.004 325.457 387.579 325.698 386.834 325.216C385.541 324.272 384.401 323.746 382.734 324.36C382.099 324.69 381.156 324.185 380.564 324.119C379.731 324.027 379.009 323.728 378.171 323.775C375.822 323.909 373.723 322.9 371.576 322.321C368.857 321.62 366.336 320.94 363.596 320.435C362.236 320.085 360.702 319.514 359.452 319.975C358.398 320.243 357.731 319.978 356.99 319.551C356.495 319.266 356.582 318.485 357.135 318.344C357.616 318.222 357.742 317.635 357.271 317.478C356.193 317.117 354.966 317.307 353.926 317.026C352.767 316.712 351.515 316.142 350.351 316.439C349.336 316.697 348.312 316.781 347.263 316.422C346.693 316.159 346.057 316.488 345.597 317.037C344.018 318.661 342.001 318.837 339.831 318.596C338.225 318.418 336.711 318.25 335.164 318.078C334.166 317.967 333.883 316.757 333.767 315.76C333.716 315.321 333.364 315.005 332.925 315.061C332.185 315.157 331.274 315.646 330.468 316.468C330.097 316.848 329.501 316.851 329.222 316.4C329.064 316.142 328.748 316.031 328.448 316.069C327.359 316.206 326.242 316.063 325.161 316.124C322.771 316.257 320.237 317.127 317.857 317.385C316.535 317.529 315.25 318.038 314.005 319.127C313.469 319.557 312.801 319.822 312.118 320.119C311.28 320.483 310.302 320.633 309.487 320.22C309.411 320.181 309.337 320.141 309.264 320.1C308.906 319.895 308.516 319.644 308.121 319.759C307.989 319.797 307.87 319.883 307.751 319.951C307.172 320.28 306.578 320.74 306.003 321.038C304.124 322.228 301.634 321.788 299.638 322.768C298.413 323.37 297.092 323.82 295.677 324.09C293.222 324.617 290.766 325.144 288.201 324.859C287.022 324.728 285.748 325.46 284.5 325.951C284.117 326.101 283.813 326.499 283.793 326.911C283.768 327.441 283.519 327.958 283.033 328.172C281.571 328.818 279.987 329.312 278.357 328.964C277.371 328.855 276.538 329.162 276.45 329.952C276.417 330.112 276.378 330.253 276.333 330.377C275.588 332.429 272.76 332.188 271.057 333.552C270.18 334.254 269.325 334.759 268.294 335.045C264.984 336.077 262.177 337.964 259.546 340.072C256.012 342.576 252.566 345.907 249.039 348.421C247.919 349.22 246.725 349.937 245.581 350.717C242.555 352.78 239.376 354.427 237.425 357.609C236.998 358.327 236.523 359.04 235.957 359.675C233.852 362.041 230.679 363.673 229.247 366.498C229.108 366.714 228.903 366.922 228.708 367.131C228.435 367.424 228.186 367.745 227.871 367.992C226.298 369.23 225.813 371.742 224.223 372.959C224.057 373.087 223.883 373.196 223.7 373.28C222.231 373.917 221.508 375.036 220.96 376.375C219.14 380.171 217.145 383.749 214.579 387.063C214.098 387.808 213.946 388.767 213.465 389.513C212.957 390.302 212.359 390.87 212.255 391.803C212.036 393.778 211.597 394.13 209.427 393.889C208.619 393.799 208.197 394.737 208.579 395.455C208.954 396.163 208.672 396.6 207.675 397.278C207.07 397.689 206.829 398.424 207.318 398.968C207.702 399.395 207.787 400.053 207.509 400.556C206.87 401.714 206.276 402.892 205.533 404.132C205.246 404.613 204.586 404.805 204.051 404.64C203.893 404.591 203.73 404.537 203.567 404.469C203.503 404.442 203.429 404.451 203.375 404.494C203.301 404.553 203.285 404.659 203.329 404.743C203.92 405.87 202.835 407.088 203.066 408.213C203.12 408.476 203.271 408.729 203.182 408.983C203.14 409.104 203.075 409.238 202.997 409.366C202.726 409.808 202.146 409.896 201.763 410.245C201.156 410.798 200.997 411.849 200.367 412.388C200.127 412.593 199.776 412.68 199.721 412.991C199.697 413.123 199.672 413.266 199.631 413.393C199.345 414.295 199.071 415.198 198.968 416.12C198.793 417.7 198.245 419.039 197.477 420.553C196.951 421.695 196.425 422.836 195.329 423.714C194.013 424.767 193.268 426.084 193.29 427.686C193.509 429.31 192.741 430.824 192.193 432.163C191.965 432.971 191.366 433.641 190.721 434.277C190.188 434.802 189.933 435.54 190.15 436.256C190.359 436.947 190.136 437.675 189.641 438.201C189.615 438.229 189.588 438.257 189.562 438.284C189 438.873 188.645 439.641 188.621 440.455C188.588 441.55 188.418 442.584 187.72 443.663C186.556 445.72 185.98 447.964 184.979 450.092C184.411 451.301 184.355 452.611 183.796 453.824C183.511 454.592 183.05 455.141 182.787 455.711C182.524 456.282 181.866 456.809 181.822 457.204C181.778 459.398 180.551 461.461 179.761 463.173C178.85 464.821 178.266 466.398 178.066 468.067C177.915 469.331 178.036 470.713 177.218 471.688C176.876 472.217 176.446 472.636 176.052 473.1C175.759 473.447 175.748 473.916 176.002 474.292C176.301 474.732 176.431 475.359 176.147 475.809C175.626 476.637 175.091 477.511 174.514 478.397C173.888 479.358 174.048 480.287 174.478 481.351C174.589 481.623 174.607 481.949 174.433 482.376C173.38 484.658 172.92 487.006 172.657 489.376C172.625 489.663 172.544 489.919 172.44 490.164C172.062 491.055 171.382 491.86 171.275 492.822C171.144 495.806 170.574 497.343 168.732 499.537C168.52 499.763 168.347 499.993 168.187 500.23C167.487 501.272 167.41 502.643 167.847 503.82C167.948 504.091 168.05 504.414 167.941 504.682C167.643 505.412 166.522 505.873 166.912 506.933C167.197 507.964 167.087 508.952 166.386 509.874C166.144 510.247 166.101 510.642 166.057 511.037C166.144 515.645 163.688 519.771 162.987 524.292C162.955 524.575 162.855 524.861 162.709 525.15C161.648 527.245 160.637 529.266 160.377 531.6C160.312 532.193 160.049 532.763 159.588 533.312C159.128 533.861 158.886 534.234 158.996 535.046C159.215 536.67 159.062 538.052 158.097 539.544C157.132 541.037 156.562 542.573 157.176 544.241C157.819 545.987 155.617 547.842 155.6 549.703C155.596 550.237 155.591 550.774 155.4 551.241C155.093 552.207 155.575 553.26 155.268 554.226C155.043 554.935 154.605 555.62 154.266 556.316C154.026 556.81 153.728 557.302 153.668 557.847C153.505 559.309 153.126 560.67 152.443 561.875C151.785 563.035 151.47 564.992 151.588 566.32C151.661 567.148 152.063 568.011 151.943 568.833C151.823 569.663 151.732 570.441 151.387 571.19C151.027 571.971 150.389 572.722 149.649 573.589C148.956 574.403 148.619 575.17 148.782 576.227C148.992 577.595 148.35 579.182 147.659 580.38C147.339 580.936 147.145 581.572 147.155 582.317C147.162 582.854 147.064 583.335 146.888 583.769C146.257 585.327 145.281 586.994 145.861 588.571C146.957 591.292 146.694 591.863 144.677 593.838C143.12 595.265 143.098 597.262 143.076 599.259C142.989 600.049 144.523 600.619 144.019 601.563C143.537 602.309 143.646 603.121 143.537 604.108C143.295 606.281 143.449 608.497 141.848 610.319C140.226 612.338 139.743 614.884 140.445 617.561C141.037 619.426 141.058 621.028 139.48 622.652C138.931 623.092 139.216 623.996 139.17 624.698C139.042 626.646 138.314 628.459 138.089 630.259C137.855 632.134 136.531 633.02 136.322 634.898C136.278 635.293 136.043 635.616 135.734 635.932C135.258 636.416 135.451 637.204 136.069 637.483C136.424 637.643 136.593 637.985 136.571 638.373C136.471 640.104 136.387 640.866 135.943 641.651C135.132 643.083 134.444 644.607 134.558 646.249C134.616 647.089 134.676 647.903 134.787 648.724C134.809 650.326 135.247 651.774 133.34 652.762C132.789 653.047 132.452 654.107 132.172 655.013C132.089 655.282 132.019 655.56 132.049 655.84C132.079 656.111 132.154 656.39 132.238 656.682C132.485 657.539 132.156 658.45 131.29 658.661C131.167 658.691 131.02 658.728 130.907 658.785C130.18 659.15 129.768 660.006 130.073 660.596C130.73 661.869 130.423 662.835 129.875 664.173C129.568 665.139 129.853 666.17 129.941 667.18C130.05 667.992 129.787 668.562 129.305 669.309C127.792 672.14 127.047 675.256 127.88 678.548C127.964 678.777 127.863 679.046 127.747 679.307C127.577 679.693 127.332 680.166 127.053 680.483C126.824 680.742 126.885 681 126.935 681.343C127.2 683.174 126.147 684.705 125.424 686.273C125.274 686.597 125.155 686.941 125.062 687.294C124.6 689.053 124.691 690.917 124.805 692.731C124.843 693.344 124.888 693.963 124.897 694.612C124.941 696.016 124.787 697.399 123.845 698.694C123.603 699.067 123.538 699.659 123.494 700.054C123.428 700.647 123.559 701.261 123.318 701.634C121.696 703.653 122.222 706.111 122.178 708.306C122.002 711.685 120.884 714.56 119.941 717.654C119.296 719.393 117.492 720.96 118.113 722.708C118.232 723.041 118.435 723.362 118.769 723.652C118.832 723.707 118.913 723.792 118.956 723.864C119.148 724.181 119.046 724.543 118.91 724.887C118.447 726.052 119.014 727.332 118.538 728.495C117.646 730.674 117.653 733.084 116.59 735.077C116.129 735.941 116.122 737.133 115.483 737.875C115.242 738.155 114.898 738.374 114.572 738.614C114.174 738.908 114.172 739.455 114.481 739.842C114.568 739.951 114.704 740.065 114.841 740.18C115.052 740.358 114.922 740.707 114.667 740.812C114.538 740.865 114.497 740.815 114.373 740.752C113.725 740.425 113.387 740.279 113.119 740.431C112.173 740.969 112.774 742.496 113.553 743.254C114.198 743.882 114.483 744.79 114.297 745.67C113.955 747.285 113.593 748.832 113.099 750.485C112.915 751.199 112.768 751.586 112.362 751.961C111.324 752.921 110.482 754.084 110.664 755.486C110.776 756.351 110.501 757.203 109.959 757.887C109.57 758.378 109.21 758.859 108.912 759.417C108.671 759.79 108.605 760.383 108.736 760.997C108.846 761.809 110.183 762.358 109.46 763.477C109.159 763.942 108.943 764.339 108.898 764.774C108.838 765.347 109.383 766.057 108.933 766.418C106.543 768.152 108.188 771.333 106.543 773.55C106.302 773.923 106.609 774.757 106.74 775.371C107.14 776.817 105.713 778.149 105.765 779.648C105.842 781.86 105.514 784.028 104.548 786.125C104.262 786.893 104.35 787.902 104.043 788.868C103.714 790.031 104.153 791.479 103.232 792.577C102.656 793.333 103.601 793.72 103.692 794.247C103.736 794.502 103.562 794.742 103.456 794.978C103.194 795.561 102.835 796.133 102.467 796.704C102.398 796.811 102.274 796.865 102.147 796.874C102.001 796.884 101.875 796.919 101.741 796.945C101.597 796.972 101.488 797.143 101.579 797.257C101.636 797.328 101.755 797.359 101.825 797.301C101.906 797.234 101.987 797.161 102.07 797.074C102.26 796.874 102.56 796.808 102.78 796.974C102.812 796.998 102.844 797.022 102.878 797.046C103.184 797.267 103.312 797.688 103.107 798.005C102.782 798.507 102.457 799.01 102.132 799.513C102.076 799.6 102.027 799.69 101.98 799.782C101.899 799.94 101.806 800.096 101.715 800.252C101.313 800.942 101.087 801.737 101.054 802.535C101.039 802.898 101.049 803.239 101.017 803.527C100.894 804.639 100.229 805.676 100.76 806.661C101.146 807.378 101.557 808.024 101.214 808.948C100.688 810.089 101.126 811.537 100.995 812.722C100.863 813.907 100.337 815.049 99.7886 816.387C99.2624 817.529 97.9689 818.385 97.9907 819.987C98.0564 821.194 97.1356 822.291 96.7848 823.651C95.8419 826.746 95.2936 829.884 94.1534 832.957C93.5834 834.493 93.4079 836.073 93.9997 837.938C94.2388 839.055 94.804 840.208 93.6203 841.168C93.3629 841.376 93.0739 841.567 92.9917 841.888C92.9748 841.954 92.9609 842.021 92.9493 842.085C92.91 842.303 92.874 842.524 92.8161 842.738C92.3544 844.447 92.209 844.883 91.4455 845.89C91.0059 846.471 91.1238 847.306 91.717 847.728C92.3679 848.19 92.4054 849.263 92.5484 850.048C92.7024 850.894 93.3163 851.77 92.9686 852.619C92.5319 853.686 92.2204 854.766 91.9344 855.849C91.8013 856.354 91.1864 856.866 90.8575 856.461C90.2882 855.76 89.5697 856.151 90.4248 856.441C90.5528 856.485 90.7082 856.529 90.8945 856.582C90.9173 856.588 90.9337 856.592 90.9572 856.595C91.2891 856.632 91.4654 857.021 91.2976 857.31C90.3085 859.011 90.2912 860.943 90.4469 862.736C90.6441 864.558 90.2713 866.116 89.7012 867.652C88.8242 870.154 88.1664 872.48 87.8812 875.048C87.8214 875.586 87.5784 876.104 87.3324 876.685C87.1509 877.114 86.5546 877.265 86.1711 877C85.7432 876.705 85.1856 876.947 85.0565 877.45C84.8208 878.369 84.622 879.215 84.5267 880.074C84.3951 881.259 84.6581 882.488 84.5046 883.87C84.3938 884.867 83.173 885.394 83.1281 886.397C83.1114 886.768 83.2607 887.158 83.4959 887.557C84.3289 889.049 84.1535 890.629 83.9999 892.012C83.9176 892.753 82.999 892.845 82.4687 893.369C81.8352 893.995 82.6591 895.092 82.5747 895.852C82.3073 897.216 82.2838 898.808 81.6631 900.106C80.7805 901.952 79.7088 903.672 79.483 905.706C79.2708 907.617 79.2817 909.603 79.1689 911.522C79.1266 912.242 78.9547 913.026 78.7591 914.023C78.2548 916.766 76.7858 919.202 75.8868 921.902C75.3002 924.08 75.0074 926.29 74.7409 928.632C74.6701 929.254 75.1135 929.855 75.7174 930.019C76.1147 930.126 76.4942 930.386 76.5433 930.795C76.6829 931.956 75.7945 932.789 75.2293 933.829C74.9499 934.343 74.3456 934.689 73.7841 934.523C73.4372 934.421 73.15 934.563 72.9259 934.847C72.5167 935.366 72.1539 935.942 71.7392 936.453C71.5451 936.693 71.3488 936.932 71.1905 937.196C70.5942 938.192 70.1678 939.225 70.0322 940.446C69.484 943.584 68.9577 946.525 68.2121 949.641C68.1684 950.035 68.8594 950.099 69.0555 949.755C69.9522 948.182 70.55 946.575 70.7336 944.923C70.8598 943.786 71.1224 942.664 71.5018 941.532C71.975 940.122 73.7026 940.433 73.0795 941.784C71.4034 945.281 71.401 948.964 70.8971 952.747C70.8167 953.351 70.3913 953.784 69.7959 953.91C69.6189 953.947 69.4385 954.049 69.4176 954.229C69.3879 954.484 69.4904 954.84 69.615 954.995C70.5818 956.003 70.7494 956.921 70.5174 958.087C70.4644 958.353 70.4041 958.619 70.4337 958.889C70.4916 959.419 70.5453 959.957 70.5957 960.488C70.8272 962.931 70.3341 965.525 70.4704 967.942C70.491 968.308 70.4927 968.675 70.4523 969.039C70.4053 969.462 70.3023 969.877 70.1726 970.282C69.2408 973.192 69.213 976.367 68.4956 979.464C68.4518 979.859 68.4079 980.254 68.1667 980.627C67.869 981.088 67.5045 981.465 67.1042 981.902C66.6613 982.387 65.9045 982.468 65.4022 982.046C65.2623 981.929 65.1223 981.811 64.9824 981.693C64.8071 981.546 64.4806 981.629 64.3439 981.812C64.2268 981.97 64.2974 982.092 64.3971 982.261C65.5247 984.171 64.7688 986.54 65.6889 988.55C66.0257 989.465 64.7548 989.988 64.1228 990.731C63.3328 991.659 63.2808 993.014 62.8966 994.253C62.8597 994.372 62.8553 994.443 62.8005 994.554C62.6013 994.962 62.1065 995.228 61.6647 995.329C61.4212 995.386 61.1907 995.443 60.9875 995.504C60.8033 995.559 60.5698 995.629 60.4994 995.808C60.4564 995.918 60.4506 996.023 60.4283 996.138C60.277 996.921 60.4795 998.465 60.9337 999.455C61.2307 1000.1 62.0413 1000.65 62.5972 1000.2C62.8164 1000.03 63.0576 999.654 63.1015 999.259C63.1196 999.095 63.1124 998.929 63.102 998.768C63.0215 997.519 64.6593 997.838 64.9211 999.061C65.4551 1003.02 65.4478 1003.31 61.6306 1004.38C61.4303 1004.43 61.1291 1004.43 61.1061 1004.64C61.1061 1004.64 61.1061 1004.64 61.1061 1004.64C61.0842 1004.83 60.843 1005.21 60.8211 1005.4C60.8209 1009 60.6454 1012.38 59.264 1015.83C58.4308 1017.93 58.7596 1020.37 58.4964 1022.74C58.4779 1022.91 58.4245 1023.07 58.3656 1023.23C58.2326 1023.6 57.7814 1023.85 57.4138 1023.72C57.0462 1023.59 56.8454 1023.24 56.9195 1022.86C57.1114 1021.87 57.3913 1020.87 56.9838 1020.17C56.1727 1018.48 56.7867 1016.55 56.3702 1014.91C56.085 1014.13 56.8502 1013.44 57.1731 1012.68C57.7832 1011.25 57.0974 1009.88 56.2828 1008.5C55.7324 1007.69 55.3634 1006.79 55.1993 1005.85C54.9232 1004.28 56.0766 1003.08 57.6211 1002.69C57.7719 1002.65 57.9192 1002.61 58.0611 1002.55C59.0806 1002.16 59.1079 1000.86 58.9366 999.777C58.7064 998.326 58.6003 996.812 58.5238 995.224C58.4966 994.657 58.9788 994.242 59.525 994.392C59.9341 994.505 60.3347 994.263 60.4702 993.86C60.7693 992.973 61.0236 992.071 61.3119 991.125C61.575 990.261 61.3209 989.281 60.5846 988.759C59.9352 988.298 59.5549 987.584 59.5501 986.788C59.5443 985.845 59.5569 984.913 59.7893 984.027C60.2093 982.427 61.1212 980.938 61.1921 979.285C61.2153 978.744 61.2452 978.203 61.3049 977.666C61.3206 976.241 61.3251 975.833 61.8355 975.047C62.3492 974.256 62.5455 973.358 62.2436 972.465C61.9742 971.667 62.1433 970.741 62.5312 969.994C63.5364 968.06 63.7895 965.872 63.8273 963.629C63.842 962.758 64.3476 962.001 65.1898 961.779C66.2128 961.51 66.9579 960.471 66.6656 959.455C66.4577 958.732 66.2063 958.053 65.8632 957.43C65.5572 956.874 65.5235 956.215 65.9816 955.776C66.5994 955.184 66.5029 954.138 65.7169 953.8C65.5817 953.742 65.4533 953.687 65.3317 953.634C65.1055 953.536 64.8958 953.387 64.8036 953.158C64.5173 952.447 64.7082 951.394 65.2524 951.112C65.8441 950.781 66.2528 950.398 66.5538 949.959C67.4739 948.618 67.1719 946.324 65.6473 945.757C64.8919 945.544 64.8408 945.07 64.7469 944.638C64.7023 944.433 64.9139 944.149 65.1108 944.221C65.1289 944.228 65.1471 944.234 65.1652 944.241C65.323 944.297 65.3973 944.13 65.2309 944.112C65.2309 944.112 65.2309 944.112 65.2308 944.112C64.904 944.075 64.6546 943.778 64.7236 943.457C64.7447 943.358 64.7701 943.27 64.8012 943.204C64.8582 943.083 65.0118 943.057 65.1358 943.007C66.2839 942.545 67.0816 941.835 67.248 940.337C67.3281 939.615 67.99 939.105 68.3199 938.458C69.0543 937.019 69.2454 935.433 68.761 933.907C68.4761 932.875 68.9584 932.129 69.2435 931.361C69.5046 930.437 70.4016 930.593 71.1113 930.235C71.4822 930.047 71.5696 929.591 71.4902 929.184C71.4405 928.928 71.3885 928.669 71.3347 928.407C71.058 927.057 69.0104 927.111 68.6877 928.45C68.5316 929.098 67.7529 929.476 67.5574 928.839C67.5031 928.662 67.4924 928.473 67.4794 928.303C67.4619 928.073 67.4253 927.842 67.4277 927.611C67.4475 925.752 67.4706 924.049 67.8628 922.21C68.2356 920.382 68.8777 918.728 69.466 916.844C69.6326 916.311 70.1622 916.011 70.6752 916.233C71.1703 916.447 71.867 916.145 71.6674 915.644C71.5017 915.228 71.1095 914.979 70.6584 914.742C70.3084 914.557 69.9748 914.291 69.9065 913.902C69.8119 913.362 69.9884 912.68 70.4488 911.385C70.788 910.432 71.6856 910.103 71.8464 911.102C71.863 911.205 71.8955 911.308 71.9204 911.409C72.0192 911.81 72.0032 912.319 72.3137 912.707C72.4196 912.84 72.6696 912.989 72.8993 913.047C73.1434 913.108 73.4262 912.971 73.592 912.781C73.8402 912.498 73.7997 912.092 73.7013 911.728C73.4042 910.631 74.2017 909.573 73.9582 908.691C73.6951 907.462 74.7914 906.584 74.1337 905.312C74.0197 905.131 73.9723 904.958 73.9719 904.792C73.9681 903.143 74.6328 901.774 74.9819 900.162C75.2966 898.709 76.0847 897.364 76.3704 895.963C76.5408 895.427 76.468 894.864 76.3246 894.259C76.189 893.687 75.4544 893.423 75.0708 893.869C74.7212 894.274 73.9524 894.18 73.8503 893.654C73.7196 892.981 73.6483 892.467 73.7922 891.987C73.8134 891.916 73.8354 891.845 73.8503 891.773C74.246 889.847 74.3031 887.699 75.0993 885.825C75.9106 883.915 76.3492 881.765 76.7658 879.812C77.2044 877.661 77.643 875.51 78.2789 873.381C78.7334 871.952 78.8755 870.378 79.0077 868.855C79.0928 867.875 79.7576 867.039 80.3046 866.221C80.6778 865.664 80.9738 864.966 81.2925 864.201ZM132.268 612.054C132.252 612.196 132.337 612.349 132.379 612.496C132.405 612.589 132.321 612.66 132.226 612.649C132.071 612.632 131.985 612.407 132.071 612.277C132.121 612.201 132.178 612.126 132.268 612.054C133.025 612.404 133.9 611.967 133.933 611.133C133.945 610.826 133.941 610.54 133.915 610.255C133.901 610.109 133.895 609.96 133.924 609.816C133.953 609.67 133.994 609.543 134.044 609.434C134.505 608.433 135.23 607.574 134.562 606.698C134.464 606.569 134.37 606.438 134.281 606.303C134.183 606.154 134.113 606.036 133.944 606.091C133.838 606.125 133.696 606.273 133.665 606.38C133.392 607.312 133.24 608.397 132.619 608.894C131.5 609.97 132.18 611.045 132.268 612.054ZM126.151 620.372C128.672 621.052 128.672 621.052 128.387 623.62C128.275 624.62 129.455 623.712 129.833 622.779C130.537 621.041 132.039 619.486 131.909 617.248C131.879 616.735 131.443 616.364 130.937 616.275C130.743 616.24 130.549 616.203 130.35 616.164C129.508 615.999 129.055 617.033 129.591 617.703C129.871 618.053 129.795 618.453 129.491 618.783C128.507 619.851 127.522 620.353 126.151 620.372C126.414 619.802 126.852 619.451 127.115 618.88C127.565 617.905 126.188 618.561 126.187 619.634C126.187 619.895 126.176 620.143 126.151 620.372ZM550.091 443.317C549.156 444.066 548.45 443.803 547.862 442.759C547.73 442.526 547.593 442.284 547.438 442.022C546.233 440.289 544.808 438.731 543.58 437.195C542.55 435.681 540.906 434.299 540.686 432.675C540.314 430.634 538.165 430.196 537.552 428.528C537.359 428.156 536.957 427.829 536.59 427.494C536.107 427.053 535.908 426.413 535.626 425.822C535.19 424.906 534.505 424.323 533.708 423.965C532.656 423.491 531.62 422.867 531.115 421.83C531.084 421.766 531.053 421.703 531.023 421.64C529.805 419.146 525.947 419.366 526.201 422.13C526.222 422.364 526.287 422.582 526.355 422.807C526.447 423.11 526.482 423.407 526.305 423.68C524.858 425.919 525.801 428.223 525.735 430.615C525.735 432.414 525.735 434.214 524.748 435.904C524.003 437.22 523.63 438.779 524.046 440.424C524.55 443.08 524.265 445.647 523.388 448.149C522.862 449.29 522.511 450.651 523.366 451.945C524.077 453.322 523.108 454.832 523.039 456.38C522.969 457.922 523.529 459.473 523.365 460.943C523.212 462.325 523.87 463.598 523.694 465.178C523.541 466.561 523.584 467.965 523.825 469.392C524.088 470.62 524.154 471.827 523.606 473.166C523.546 473.326 523.493 473.514 523.455 473.716C523.135 475.436 525.005 476.76 524.812 478.498C524.614 480.276 524.811 482.097 524.811 483.897C524.704 484.866 525.797 485.542 526.28 486.389C526.37 486.546 526.44 486.707 526.477 486.881C526.552 487.745 526.828 488.449 527.219 489.06C528.139 490.499 528.177 492.394 528.888 493.947C529.568 495.022 530.204 496.492 529.875 497.655C529.392 500.201 530.379 502.11 531.146 504.195C532.089 506.499 532.395 509.132 533.119 511.612C533.535 513.257 533.776 514.684 534.653 515.781C535.004 516.22 535.53 516.878 535.464 517.47C535.455 517.557 535.448 517.641 535.445 517.723C535.39 519.285 536.998 520.332 537.698 521.73C537.971 522.276 538.2 522.881 538.38 523.593C538.643 524.821 539.52 525.918 540.199 526.994C541.23 528.508 542.26 530.022 543.093 531.514C544.386 534.257 546.469 535.288 549.341 534.607C549.955 534.475 550.327 534.717 550.7 534.958C552.366 536.143 552.783 535.989 554.339 534.562C555.569 533.331 557.765 534.455 559.217 533.496C560.504 532.647 561.613 531.608 562.057 529.821C562.143 529.041 563.088 528.642 563.429 527.935C563.649 527.48 563.77 526.986 563.833 526.419C564.03 524.642 564.227 522.864 564.622 521.108C564.786 519.631 565.53 518.341 565.948 516.915C566.358 515.518 566.436 514.03 566.274 512.511C566.244 512.23 566.131 511.891 566.132 511.608C566.135 511.191 566.462 510.929 566.633 510.549C567.25 509.173 567.074 507.592 566.881 506.164C566.684 504.342 567.451 502.828 567.429 501.226C567.437 501.154 567.416 501.105 567.387 501.063C567.279 500.906 567.272 500.713 567.264 500.523C567.172 498.323 567.079 496.129 566.972 494.057C566.953 493.689 567.275 493.394 567.573 493.61C567.842 493.804 568.316 493.743 568.361 493.414C568.425 492.947 568.415 492.512 568.29 492.132C568.031 491.341 567.794 490.386 567.965 489.571C568.041 489.21 567.994 488.833 567.758 488.405C567.704 488.305 567.648 488.204 567.604 488.099C566.465 485.356 566.364 482.231 565.304 479.459C565.18 479.135 564.964 478.888 564.966 478.541C564.967 478.326 564.992 478.054 564.978 477.84C564.905 476.775 564.725 475.879 563.528 475.2C562.958 474.937 562.476 473.884 562.542 473.291C562.827 470.724 561.599 469.188 560.196 467.432C558.596 465.655 557.412 463.724 557.084 461.288C556.842 459.862 556.36 458.809 555.681 457.733C554.826 456.439 553.971 455.144 553.532 453.696C552.705 450.814 552.689 450.312 551.315 448.853C550.655 448.152 550.379 447.229 550.813 446.369C551.197 445.608 551.284 444.587 550.769 443.907C550.567 443.64 550.355 443.439 550.091 443.317C549.97 442.751 549.895 442.149 549.827 441.524C549.69 440.286 547.748 439.54 548.095 440.736C548.135 440.874 548.207 440.96 548.298 441.071C548.956 441.869 549.619 442.516 550.091 443.317ZM152.973 529.286C152.173 528.538 151.407 527.552 151.505 526.461C151.523 526.258 151.561 526.047 151.63 525.83C151.959 524.667 152.464 523.723 152.792 522.56C153.182 521.61 153.582 520.56 153.483 519.497C153.406 518.664 152.746 518.392 152.597 519.215C152.579 519.314 152.531 519.381 152.485 519.47C152.216 519.992 151.807 520.499 151.565 521.024C151.135 521.957 150.323 522.714 150.281 523.751C150.261 524.246 150.461 524.77 150.149 525.155C149.987 525.354 149.779 525.527 149.658 525.753C149.412 526.212 149.45 526.702 149.876 527.235C150.537 528.061 150.222 529.214 150.043 530.257C149.89 531.143 149.629 531.978 148.692 532.502C148.056 532.831 147.969 533.621 148.517 534.082C149.065 534.543 149.701 534.213 150.161 533.665C150.446 533.325 150.73 532.986 151.02 532.6C151.255 532.287 151.795 532.439 151.918 532.81C152.043 533.192 152.53 533.207 152.753 532.873C153.358 531.968 153.646 531.19 153.506 530.466C153.448 530.165 153.404 529.836 153.233 529.581C153.167 529.483 153.078 529.385 152.973 529.286ZM81.7138 894.096C82.0366 893.423 82.0014 892.606 81.7021 891.923C81.6456 891.794 81.623 891.678 81.6028 891.539C81.4996 890.827 81.3815 890.251 81.2816 889.51C81.2184 888.783 80.8246 888.226 80.3222 887.865C79.9425 887.592 79.5198 887.363 79.0698 887.236C78.7809 887.155 78.4994 887.16 78.2445 887.289C77.7405 887.544 77.6704 888.206 77.7085 888.77C77.7649 889.604 77.8549 890.479 77.9154 891.318C77.9548 891.865 78.5149 892.268 79.0537 892.165C79.6002 892.062 80.0474 892.459 80.0463 893.015C80.0458 893.279 80.0411 893.543 80.0395 893.806C80.0353 894.505 80.6416 895.256 81.1956 894.831C81.4208 894.658 81.5717 894.392 81.7138 894.096ZM126.557 634.756C126.216 636.175 127.901 637.61 128.023 636.156C128.038 635.976 128.008 635.882 128.026 635.702C128.084 635.15 128.319 634.871 128.637 634.692C129.608 634.147 129.992 633.256 129.313 632.374C128.568 631.404 127.173 631.976 126.916 633.171C126.801 633.709 126.682 634.235 126.557 634.756ZM100.138 796.402C100.071 796.288 99.9544 796.209 99.8277 796.249C99.6055 796.32 99.3961 796.54 99.3703 796.772C99.2831 797.557 99.1958 798.343 99.1085 799.129C99.0948 799.252 99.0692 799.374 99.0311 799.492C99.0154 799.54 98.9997 799.589 98.984 799.637C98.6039 800.8 99.2551 801.501 99.7675 800.39C99.8447 800.222 99.9558 800.059 100.091 799.898C100.741 799.123 101.11 798.123 100.619 797.238C100.465 796.96 100.302 796.681 100.138 796.402ZM136.964 624.18C136.336 625.565 138.544 626.101 138.852 624.612C138.867 624.538 138.879 624.463 138.888 624.386C138.932 623.991 138.406 623.333 138.208 623.311C138.095 623.298 137.77 623.395 137.511 623.517C137.234 623.647 137.09 623.902 136.964 624.18ZM98.8527 808.98C98.4577 809.838 100.029 809.828 100.04 808.883C100.048 808.2 99.2522 808.213 98.9331 808.817C98.9046 808.871 98.8778 808.926 98.8527 808.98ZM159.076 507.619C159.589 508.231 160.625 508.153 161.058 507.483C161.472 506.843 161.378 505.837 160.623 505.741C160.134 505.68 159.703 505.943 159.173 506.474C158.739 506.821 158.658 507.121 159.076 507.619ZM136.895 586.576C136.199 586.832 136.097 587.752 136.719 588.156C137.305 588.535 137.701 588.399 138.068 588.057C138.279 587.86 138.523 587.648 138.555 587.36C138.587 587.072 138.407 586.795 138.191 586.603C137.853 586.303 137.387 586.321 136.895 586.576ZM134.782 578.532C134.893 579.075 135.55 579.243 135.92 578.83C136.267 578.445 136.272 578.168 135.883 577.807C135.398 577.357 134.651 577.883 134.782 578.532ZM163.423 477.702C162.776 477.789 162.603 478.673 163.052 479.147C163.469 479.587 164.142 479.344 164.325 478.766C164.343 478.709 164.36 478.652 164.377 478.596C164.523 478.1 164.148 477.627 163.633 477.678C163.565 477.684 163.495 477.693 163.423 477.702ZM88.5081 838.096C88.9886 838.768 90.0434 837.768 89.8594 836.963C89.6932 836.235 88.6981 836.485 88.4808 837.199C88.3589 837.6 88.3625 837.892 88.5081 838.096ZM154.87 512.472C154.929 513.059 155.721 513.197 156.182 512.828C156.287 512.744 156.311 512.688 156.357 512.562C156.511 512.147 156.525 511.74 156.154 511.466C155.964 511.326 155.716 511.298 155.502 511.394C155.38 511.449 155.252 511.523 155.154 511.598C155.011 511.708 154.921 511.883 154.884 512.06C154.858 512.181 154.854 512.319 154.87 512.472ZM149.607 520.668C149.664 520.158 149.063 519.759 148.723 520.143C148.406 520.502 148.429 520.716 148.716 520.99C149.036 521.296 149.558 521.108 149.607 520.668ZM689.217 190.64C689.552 190.66 689.713 190.178 689.516 189.906C689.5 189.884 689.482 189.866 689.461 189.849C688.948 189.433 688.396 189.365 687.787 189.805C687.727 189.849 687.69 189.917 687.682 189.991C687.665 190.145 687.776 190.286 687.926 190.325C688.283 190.417 688.7 190.587 689.01 190.621C689.065 190.628 689.135 190.635 689.217 190.64ZM136.293 594.537C136.481 593.937 135.783 593.472 135.542 594.053C135.472 594.222 135.426 594.407 135.403 594.608C135.398 594.659 135.405 594.711 135.419 594.76C135.472 594.945 135.667 595.034 135.853 594.989C135.855 594.988 135.858 594.988 135.86 594.987C136.061 594.938 136.231 594.733 136.293 594.537ZM362.234 320.684C362.616 320.727 362.777 320.178 362.393 320.156C362.285 320.15 362.176 320.165 362.068 320.207C361.805 320.31 361.953 320.653 362.234 320.684ZM86.4462 865.828C86.1829 865.492 85.6161 865.34 85.5144 865.756C85.4667 865.951 85.4582 866.146 85.4854 866.348C85.585 867.089 86.6426 866.859 86.5396 866.119C86.5348 866.084 86.5295 866.05 86.5236 866.016C86.5099 865.937 86.4953 865.891 86.4462 865.828ZM536.295 417.326C536.223 416.763 535.337 416.293 535.072 416.794C535.031 416.872 535.031 416.894 535.008 416.979C534.862 417.542 535.336 418.285 535.886 418.346C536.083 418.368 536.302 418.192 536.324 417.995C536.344 417.816 536.328 417.592 536.295 417.326ZM62.6725 988.256C62.6934 988.353 62.7818 988.427 62.8805 988.438C63.0071 988.452 63.1134 988.36 63.1275 988.233C63.1848 987.717 63.2421 987.201 63.2994 986.685C63.3213 986.487 62.9487 986.246 62.7514 986.224C62.6578 986.214 62.5543 986.292 62.469 986.399C62.2969 986.614 62.3433 986.906 62.4171 987.172C62.5066 987.494 62.5899 987.871 62.6725 988.256ZM116.281 702.952C116.565 702.805 116.74 702.455 116.577 702.18C116.466 701.993 116.322 701.857 116.105 701.833C116.01 701.822 115.858 701.899 115.727 701.981C115.556 702.088 115.461 702.278 115.512 702.473C115.526 702.527 115.543 702.586 115.562 702.647C115.659 702.952 115.997 703.099 116.281 702.952ZM127.189 629.448C127.252 629.888 127.97 629.917 128.355 629.695C128.666 629.515 128.583 629.211 128.414 628.894C128.406 628.878 128.398 628.863 128.389 628.847C128.299 628.683 128.129 628.586 127.945 628.554C127.576 628.49 127.146 628.449 127.171 628.981C127.174 629.049 127.175 629.119 127.173 629.187C127.171 629.273 127.177 629.36 127.189 629.448ZM112.902 750.013C112.981 750.112 113.194 750.179 113.274 750.081C113.498 749.809 113.79 749.544 113.988 749.269C114.022 749.223 114.018 749.16 113.982 749.115C113.926 749.044 113.815 749.049 113.759 749.121C113.564 749.371 113.303 749.613 113.099 749.862C113.018 749.959 112.823 749.915 112.902 750.013ZM419.695 320.769C419.256 320.795 419.291 321.43 419.642 321.696C419.736 321.768 419.831 321.839 419.93 321.906C420.12 322.035 420.436 321.831 420.554 321.635C420.608 321.545 420.576 321.508 420.533 321.412C420.341 320.985 420.064 320.747 419.695 320.769ZM129.678 613.742C129.645 613.908 129.697 614.265 129.846 614.345C129.899 614.374 129.953 614.397 130.009 614.403C130.066 614.409 130.11 614.381 130.149 614.334C130.286 614.169 130.128 613.726 129.931 613.642C129.915 613.635 129.9 613.628 129.885 613.622C129.787 613.583 129.699 613.639 129.678 613.742ZM517.148 507.133C516.881 507.466 516.923 508.215 517.339 508.312C517.5 508.35 517.61 508.274 517.739 508.17C517.943 508.003 518.174 507.693 518.189 507.554C518.211 507.357 517.663 506.896 517.466 506.874C517.377 506.864 517.274 506.975 517.148 507.133ZM91.6257 855.038C91.8021 855.007 91.8268 854.785 91.7641 854.617C91.7301 854.526 91.7001 854.435 91.6411 854.341C91.6095 854.291 91.5535 854.259 91.4947 854.268C91.4873 854.269 91.4799 854.27 91.4725 854.272C91.2846 854.307 91.2096 854.675 91.2757 854.855C91.3167 854.966 91.3978 855.05 91.5164 855.048C91.5526 855.047 91.5889 855.044 91.6257 855.038ZM137.066 611.224C136.831 611.3 136.627 611.607 136.695 611.844C136.696 611.849 136.697 611.854 136.699 611.859C136.752 612.04 136.973 612.072 137.139 611.983C137.274 611.911 137.419 611.84 137.543 611.767C137.643 611.708 137.706 611.669 137.671 611.558C137.609 611.367 137.352 611.127 137.161 611.192C137.129 611.203 137.097 611.214 137.066 611.224ZM161.735 499.36C161.091 499.304 160.767 500.652 161.409 500.724C161.607 500.746 162.045 500.394 162.067 500.197C162.089 499.999 161.958 499.385 161.76 499.363C161.752 499.362 161.743 499.361 161.735 499.36ZM155.972 508.317C155.953 508.49 156.183 508.399 156.278 508.253C156.312 508.2 156.347 508.147 156.372 508.093C156.403 508.026 156.31 507.944 156.247 507.907C156.145 507.846 156.015 507.926 156.002 508.044C155.992 508.135 155.982 508.226 155.972 508.317ZM155.3 523.363C155.349 523.459 155.527 523.483 155.585 523.392C155.631 523.321 155.679 523.249 155.707 523.176C155.729 523.121 155.709 523.06 155.672 523.014L155.608 522.934C155.574 522.891 155.522 522.857 155.47 522.873C155.407 522.891 155.365 522.941 155.315 523.004C155.248 523.089 155.25 523.267 155.3 523.363ZM121.34 680.964C121.289 680.875 121.172 680.863 121.079 680.908C120.944 680.974 120.814 680.998 120.676 681.085C120.626 681.116 120.595 681.172 120.603 681.231C120.608 681.266 120.618 681.302 120.629 681.339C120.677 681.49 121.001 681.583 121.135 681.498C121.269 681.413 121.427 681.119 121.35 680.98C121.347 680.975 121.343 680.969 121.34 680.964ZM136.667 590.537C136.626 590.57 136.648 590.577 136.654 590.63C136.666 590.727 136.711 590.828 136.745 590.928C136.774 591.011 136.903 591.068 136.972 591.012C136.993 590.996 137.006 590.972 137.009 590.946C137.018 590.862 137.027 590.776 137.039 590.673C137.058 590.497 136.805 590.426 136.667 590.537ZM133.631 600.972C133.352 601.029 133.287 601.476 133.392 601.741C133.425 601.826 133.448 601.815 133.535 601.841C133.942 601.964 134.616 601.698 134.636 601.52C134.651 601.388 134.487 601.235 134.318 601.143C134.18 601.067 134.03 600.969 133.873 600.953C133.801 600.946 133.719 600.954 133.631 600.972ZM711.17 201.843C711.069 201.925 710.975 202.137 711.015 202.26C711.08 202.459 711.097 202.672 711.24 202.687C711.317 202.696 711.393 202.704 711.472 202.701C711.701 202.692 711.745 202.404 711.639 202.2C711.6 202.125 711.561 202.049 711.522 201.976C711.446 201.835 711.295 201.743 711.17 201.843ZM511.691 445.753C511.43 445.866 511.479 446.336 511.741 446.446C511.867 446.498 511.85 446.412 511.968 446.343C512.092 446.271 512.237 446.201 512.37 446.129C512.528 446.044 512.487 445.758 512.375 445.617C512.287 445.507 512.206 445.55 512.074 445.6C511.94 445.65 511.81 445.701 511.691 445.753ZM134.909 598.793C135.011 598.853 135.188 598.786 135.252 598.686C135.295 598.619 135.338 598.553 135.362 598.484C135.38 598.434 135.363 598.381 135.33 598.34C135.262 598.254 135.136 598.239 135.052 598.31C134.939 598.407 134.839 598.505 134.786 598.608C134.752 598.673 134.846 598.756 134.909 598.793ZM76.3862 915.959C76.4599 915.967 76.5457 915.916 76.5646 915.844C76.5693 915.826 76.5752 915.81 76.5833 915.795C76.6324 915.704 76.5402 915.576 76.4372 915.565C76.3733 915.558 76.3824 915.611 76.3814 915.676C76.3813 915.685 76.3814 915.694 76.382 915.702C76.3903 915.822 76.2674 915.946 76.3862 915.959ZM403.327 315.192C403.324 315.224 403.347 315.253 403.379 315.256C403.43 315.262 403.463 315.203 403.431 315.162C403.398 315.122 403.333 315.14 403.327 315.192ZM533.935 421.528C533.935 421.528 533.935 421.528 533.935 421.528C534.034 421.539 534.139 421.5 534.243 421.462C534.406 421.401 534.373 421.177 534.373 421.177C534.274 421.166 534.169 421.205 534.064 421.244C534.064 421.244 533.935 421.528 533.935 421.528ZM70.2578 963.223C70.2862 963.259 70.323 963.245 70.3585 963.217L70.4493 963.144C70.4903 963.111 70.5193 963.062 70.506 963.011C70.493 962.962 70.46 962.904 70.3786 962.881C70.3532 962.874 70.3265 962.883 70.3059 962.899L70.2738 962.925C70.2166 962.971 70.212 963.166 70.2578 963.223ZM64.7455 1004.24C64.5726 1004.22 64.3755 1003.97 64.3947 1003.8C64.3705 1004.02 64.5275 1004.22 64.7455 1004.24ZM380.301 324.69C380.32 324.519 380.486 324.365 380.545 324.199C380.563 324.15 380.546 324.096 380.513 324.055C380.444 323.969 380.319 323.956 380.221 324.006C380.191 324.021 380.163 324.034 380.137 324.047C379.991 324.117 380.093 324.27 380.198 324.393C380.27 324.477 380.312 324.586 380.301 324.69ZM72.4791 921.014C72.428 921.072 72.4183 921.161 72.4667 921.222C72.5151 921.283 72.6036 921.292 72.6641 921.244L72.7095 921.208C72.7506 921.175 72.7817 921.126 72.7694 921.074C72.7388 920.947 72.6017 920.906 72.6202 920.739C72.6085 920.845 72.5401 920.945 72.4791 921.014ZM206.411 395.853C206.407 395.908 206.446 395.957 206.5 395.963C206.555 395.969 206.604 395.93 206.61 395.875C206.613 395.846 206.617 395.813 206.621 395.776C206.633 395.667 206.554 395.569 206.445 395.557C206.396 395.551 206.347 395.546 206.248 395.535C206.412 395.553 206.425 395.693 206.411 395.853ZM67.2813 965.057C67.2099 964.837 66.8108 964.932 66.7135 965.143C66.7069 965.157 66.7009 965.172 66.6957 965.186C66.6781 965.236 66.6952 965.289 66.728 965.33C66.7965 965.416 66.922 965.429 67.0198 965.379C67.164 965.306 67.2745 965.279 67.2905 965.134C67.2933 965.109 67.2897 965.083 67.2813 965.057ZM61.6099 1004.86C61.6434 1004.94 61.7723 1005 61.8414 1004.95C61.8619 1004.93 61.8751 1004.91 61.8739 1004.88C61.8715 1004.83 61.8578 1004.73 61.7977 1004.62C61.7609 1004.55 61.6709 1004.54 61.6103 1004.59L61.6044 1004.6C61.5472 1004.64 61.5393 1004.73 61.5748 1004.79C61.5887 1004.82 61.6003 1004.84 61.6099 1004.86ZM148.413 523.998C148.379 523.84 148.186 523.92 148.036 523.982C147.988 524.002 147.941 524.018 147.894 524.036C147.706 524.107 147.593 524.382 147.794 524.404C147.794 524.404 147.794 524.404 147.794 524.404C147.923 524.419 148.051 524.433 148.186 524.392C148.342 524.346 148.447 524.157 148.413 523.998ZM107.137 743.025L107.356 742.849L107.137 743.025ZM128.093 612.317C128.136 612.403 128.242 612.328 128.253 612.233C128.26 612.172 128.266 612.112 128.273 612.052C128.283 611.964 128.181 611.908 128.112 611.964C128.092 611.98 128.079 612.004 128.076 612.03C128.064 612.14 128.057 612.245 128.093 612.317ZM121.667 675.658C121.719 675.664 121.752 675.605 121.719 675.564C121.687 675.524 121.622 675.543 121.616 675.594C121.612 675.626 121.635 675.655 121.667 675.658ZM129.855 635.579C129.863 635.507 129.779 635.46 129.722 635.506C129.686 635.535 129.68 635.586 129.709 635.622C129.755 635.679 129.847 635.652 129.855 635.579ZM137.595 577.558C137.647 577.615 137.734 577.627 137.794 577.578C137.855 577.53 137.864 577.441 137.816 577.381C137.768 577.32 137.679 577.31 137.618 577.359C137.5 577.454 137.465 577.482 137.29 577.622C137.464 577.483 137.5 577.454 137.595 577.558Z" fill="currentColor"/>
</g>
</svg>
