<svg width="606" height="440" viewBox="0 0 606 440" fill="none" xmlns="http://www.w3.org/2000/svg">
<mask id="mask0_1967_16274" style="mask-type:alpha" maskUnits="userSpaceOnUse" x="0" y="0" width="606" height="440">
<rect width="606" height="440" fill="#145058"/>
</mask>
<g mask="url(#mask0_1967_16274)">
<path d="M54.4316 713.759C54.9093 712.612 56.8689 712.382 57.9881 711.843C58.3968 711.646 58.7429 711.23 58.8852 710.799C59.2833 709.593 59.8247 708.453 59.2084 706.779C58.7696 705.586 59.1459 703.913 59.5012 702.428C59.6211 701.348 59.9866 700.304 59.0958 699.682C58.8502 699.51 58.6028 699.339 58.3476 699.166C58.0194 698.944 57.8367 698.56 57.9299 698.175C57.9677 698.018 58.0124 697.849 58.062 697.669C58.23 697.059 59.017 696.953 59.2376 697.546C59.2667 697.624 59.2981 697.671 59.3516 697.735C59.8909 698.38 60.2423 698.473 60.7341 698.049C60.8864 697.918 60.968 697.822 60.9154 697.628C60.8357 697.333 60.8303 696.868 61.0147 696.625C62.0018 695.325 62.1556 693.791 62.1557 692.24C62.2385 691.495 60.8055 691.815 60.2097 692.271C60.092 692.361 59.9649 692.417 59.8129 692.448C59.0726 692.6 58.5397 691.686 58.7086 690.949C58.7862 690.611 58.869 690.279 58.9794 689.981C59.5441 688.091 60.5802 686.419 60.6012 684.491C60.6044 684.205 60.5876 683.908 60.7222 683.656C60.8655 683.388 61.1086 683.121 61.3978 682.832C62.1381 682.091 62.4059 681.156 62.044 680.173C61.6822 679.19 61.8825 677.981 62.4258 677.085C62.826 676.426 63.0723 675.695 62.9507 674.794C62.8643 674.39 63.0561 673.927 63.2727 673.438C63.4692 672.994 63.7179 672.548 63.9034 672.1C64.0708 671.695 64.0631 671.269 64.0006 670.835C63.8924 670.085 63.7478 669.331 63.8288 668.602C63.9333 667.661 64.602 666.782 64.7066 665.841C65.5636 661.553 65.8773 657.013 66.1701 652.662C66.3164 651.345 66.6509 650.048 67.4868 649.378C68.3437 648.52 68.4064 647.956 68.3229 646.993C68.0076 645.521 70.8682 645.052 70.4609 643.602C70.4523 643.571 70.4431 643.541 70.4333 643.511C70.0296 642.258 69.005 641.054 69.6246 639.893C69.8096 639.546 70.0279 639.223 70.2582 638.911C71.0541 637.831 71.3857 636.515 71.3126 635.176C71.2678 634.356 71.2512 633.565 71.2283 632.831C71.1887 631.558 71.8294 630.361 71.2093 629.023C71.1441 628.882 71.0405 628.76 71.0109 628.608C70.9358 628.222 71.2873 627.884 71.4387 627.521C72.3609 625.309 72.1498 622.82 72.4202 620.385C72.5874 618.879 73.4442 618.021 73.9667 616.745C74.2385 616.013 74.134 615.239 74.3848 614.695C74.5 614.384 74.6115 614.108 74.7224 613.836C75.0138 613.123 75.6979 612.776 76.3687 612.397C76.4979 612.324 76.631 612.24 76.7394 612.139C77.1857 611.721 77.2488 610.82 76.9136 610.783C75.4299 610.427 75.5554 609.298 75.6808 608.168C75.7645 607.415 75.848 606.662 76.1198 605.93C77.2693 602.436 78.0427 598.901 78.44 595.324C78.6699 593.253 79.297 591.036 80.6555 589.09C81.7422 587.877 81.7423 586.161 81.1154 584.948C80.008 582.919 80.1961 581.225 81.3456 579.447C82.2442 578.213 82.5995 576.727 82.3906 575.179C82.2021 573.782 83.237 572.538 83.6558 571.192C83.7725 570.817 83.8677 570.434 83.943 570.045C84.2348 568.538 84.0722 566.954 84.6063 565.515C85.2542 563.109 85.6932 560.871 85.7769 558.403C85.7433 557.785 85.9746 557.252 86.4578 556.654C87.4237 555.46 87.7956 553.944 87.5756 552.424C87.522 552.053 87.4985 551.678 87.5179 551.298C87.5682 550.309 88.3609 549.984 88.703 550.913C88.9563 551.602 89.9293 551.777 90.2893 551.138C90.4157 550.914 90.493 550.704 90.495 550.507C90.496 550.401 90.4809 550.295 90.4855 550.189C90.5865 547.862 91.1599 545.921 92.2595 543.881C92.3255 543.759 92.3632 543.708 92.3726 543.569C92.4033 543.116 91.9625 542.669 91.5219 542.778C90.906 542.93 90.4522 543.357 90.0165 543.815C89.9069 543.931 89.7909 544.043 89.6436 544.103C89.6128 544.115 89.5805 544.127 89.5473 544.139C89.1172 544.286 88.6066 544.131 88.4314 543.712C88.2566 543.293 88.4505 542.833 88.5381 542.388C88.6789 541.672 88.9046 540.939 89.1424 540.099C89.412 539.145 89.4498 539.012 88.3115 538.381C87.9046 538.155 87.6068 537.754 87.6134 537.289C87.6235 536.578 87.7925 535.921 88.0797 535.294C88.3123 534.785 88.9315 534.933 88.9625 535.491C88.9805 535.815 88.7392 536.084 88.4845 536.284C88.3333 536.403 88.284 536.577 88.3301 536.864C88.3405 536.928 88.3316 536.974 88.3612 537.032C88.5137 537.332 89.1599 537.275 89.2873 536.963C89.2988 536.935 89.3065 536.906 89.3098 536.877C89.3672 536.36 89.6358 535.901 89.9602 535.494C90.1568 535.247 90.2011 534.902 90.1458 534.492C90.1054 534.194 90.0198 533.288 90.2777 533.131C90.5758 532.951 90.8874 532.759 91.2204 532.551C91.3984 532.439 91.4759 532.217 91.3973 532.022C91.3793 531.978 91.3606 531.933 91.341 531.888C91.1699 531.497 91.3045 530.976 91.6948 530.803C91.7557 530.776 91.8185 530.748 91.8833 530.72C92.3102 530.535 92.503 530.029 92.3004 529.61C92.2639 529.535 92.2275 529.458 92.1913 529.38C91.946 528.852 91.324 528.592 90.8071 528.86C90.7057 528.912 90.6042 528.965 90.5018 529.02C89.6679 529.461 88.6926 528.903 88.8473 527.972C89.2889 525.314 90.7421 522.955 90.2561 520.567C90.0823 519.713 90.5507 518.303 91.0245 519.034C91.09 519.135 91.1179 519.212 91.1786 519.316C91.3657 519.637 91.5288 519.928 91.6903 520.217C92.1048 520.96 92.1375 521.853 91.7928 522.63C91.7545 522.716 91.7165 522.803 91.6792 522.891C90.9471 524.607 92.8661 525.427 93.072 523.573C93.2194 522.245 93.8285 520.969 93.3521 519.664C93.1281 519.051 93.2295 518.308 93.8203 518.028C94.1019 517.895 94.3155 517.619 94.371 517.312C94.8835 514.485 95.546 511.675 96.0402 508.846C96.3628 507.411 95.8714 505.746 96.4355 504.298C96.626 503.81 97.0369 503.231 96.7093 502.821C96.6104 502.698 96.5188 502.508 96.3869 502.326C96.1981 502.066 95.8327 501.965 95.5287 502.07C95.28 502.156 95.181 502.396 95.0604 502.63C94.7904 503.154 94.5618 503.682 94.5591 504.236C94.5563 504.816 94.8734 505.361 94.873 505.941C94.8726 506.599 94.6069 507.198 93.8878 507.654C93.6994 507.773 93.6008 507.896 93.5636 508.023C93.1904 509.295 92.8696 510.331 92.5921 509.035C92.4876 508.261 92.4041 507.299 92.6758 506.566C92.9894 505.458 93.3029 504.349 93.7836 503.449C94.2852 502.362 94.5778 501.441 94.139 500.249C93.8256 499.642 93.951 498.513 94.369 498.178C96.0409 496.839 95.4976 494.873 96.25 493.241C96.8417 491.958 96.4319 490.719 96.1439 489.336C96.1363 489.299 96.1299 489.262 96.1248 489.225C96.1036 489.126 96.0877 489.027 96.0765 488.928C95.9628 487.927 95.4783 486.993 94.7714 486.276C94.5607 486.062 94.5688 485.851 94.5565 485.552C94.5138 484.516 94.5361 483.399 94.9549 482.615C95.438 481.867 95.7366 481.1 95.7931 480.239C95.8438 479.467 95.5802 478.699 95.6657 477.929C95.8 476.72 97.0431 475.633 96.3585 474.186C96.2314 473.917 96.103 473.655 96.2503 473.397C96.3001 473.31 96.4075 473.203 96.4672 473.122C96.9596 472.458 97.3547 471.782 97.8142 471.114C98.0013 470.842 98.4402 470.864 98.7425 470.997C98.8658 471.051 98.9647 471 99.0674 470.913C99.6097 470.453 100.008 469.992 100.389 469.687C100.797 469.359 101.805 470.191 102.143 469.194C102.159 469.147 102.165 469.124 102.171 469.075C102.228 468.581 102.144 467.949 101.776 467.614C101.657 467.505 101.536 467.402 101.413 467.323C101.177 467.17 100.932 467.1 100.744 467.009C100.579 466.929 100.506 466.694 100.486 466.512C100.463 466.299 100.667 466.189 100.806 466.026C102.058 464.569 102.044 462.962 101.385 461.122C101.363 461.059 101.346 461.018 101.3 460.969C100.984 460.632 100.391 460.896 100.271 461.342C100.268 461.353 100.265 461.365 100.262 461.376C100.15 461.792 99.6693 462.062 99.2863 461.864C98.4399 461.428 98.4782 461.058 99.2744 459.446C99.5091 458.971 100.174 458.869 100.679 459.029C100.811 459.071 100.877 459.038 101 458.975C101.334 458.805 101.66 458.522 101.852 458.223C102.082 457.868 101.936 457.47 102.166 457.115C103.236 455.178 103.345 454.982 103.341 453.854C103.34 453.581 103.241 453.326 103.015 453.174C102.87 453.076 102.732 452.954 102.579 452.868C101.341 452.17 101.108 451.405 101.581 450.379C102.062 449.48 102.563 448.392 103.044 447.492C104.197 445.407 104.645 443.244 103.878 440.946C103.827 440.793 103.808 440.624 103.709 440.497C103.631 440.397 103.634 440.253 103.601 440.13C103.053 438.03 103.052 437.779 105.196 437.207C105.754 437.058 106.237 437.335 106.597 437.786C106.853 438.106 107.386 438.14 107.742 437.937C108.593 437.454 109.125 436.73 109.469 435.875C109.624 435.488 110.123 435.326 110.357 435.671C110.553 435.96 111.006 436.06 111.193 435.764C111.889 434.666 112.007 433.388 111.989 432.095C112.092 431.166 112.925 430.571 113.037 429.643C113.065 429.412 113.06 429.171 113.057 428.928C113.047 428.072 113.339 427.137 112.804 426.468C112.676 426.307 112.275 426.567 111.916 426.762C111.722 426.868 111.499 426.895 111.279 426.87C111.127 426.853 110.973 426.861 110.823 426.893C110.342 426.998 109.877 427.104 109.535 427.223C109.5 427.236 109.458 427.233 109.426 427.252C109.412 427.261 109.402 427.274 109.394 427.291C109.311 427.47 109.607 428.023 109.766 427.907C109.813 427.872 109.821 427.829 109.866 427.791C109.907 427.756 109.948 427.72 109.989 427.683C110.397 427.313 110.899 427.582 110.824 428.127C110.778 428.463 110.756 428.795 110.798 429.104C110.809 429.304 110.808 429.502 110.796 429.699C110.702 431.139 108.966 431.115 108.071 429.983C107.749 429.576 107.526 429.028 107.592 428.513C107.787 426.993 108.506 425.769 109.774 424.607C110.225 424.126 110.686 423.555 111.143 423.019C111.51 422.589 112.305 422.331 112.559 422.836C112.982 423.68 113.579 424.129 114.226 423.441C114.829 422.799 115.112 421.955 114.748 420.966C114.336 419.845 114.865 419.334 115.486 418.547C115.566 418.445 115.633 418.391 115.698 418.279C115.998 417.761 115.611 417.042 115.038 416.866C113.982 416.542 113.017 416.853 111.948 417.034C110.827 417.186 111.332 415.59 112.298 415.001C113.292 414.394 114.061 413.631 114.087 412.29C114.093 411.979 114.44 411.652 114.741 411.574C115.082 411.486 115.172 411.785 115.109 412.131C114.847 413.574 114.869 413.967 115.497 414.928C115.768 415.342 116.512 415.37 116.567 414.879C116.985 412.829 117.027 410.737 117.612 408.896C117.997 407.858 117.773 407.136 117.447 406.446C117.194 405.912 116.563 405.409 116.132 405.813C115.906 406.026 115.814 406.343 115.67 406.597C115.537 406.832 115.102 406.853 115.026 406.593C115.009 406.534 115.014 406.482 115.003 406.422C114.903 405.85 114.972 405.143 114.853 404.587C114.456 403.018 114.791 401.722 116.045 400.717C116.096 400.676 116.127 400.61 116.145 400.529C116.241 400.106 115.67 399.852 115.237 399.862C115.183 399.863 115.16 399.865 115.107 399.873C113.801 400.071 113.118 399.611 113.036 398.668C112.827 397.12 112.639 395.384 112.806 393.878C112.786 392.421 113.793 391.078 114.358 389.686C114.412 389.553 114.467 389.346 114.559 389.236C114.651 389.126 114.732 389.098 114.864 389.041C115.771 388.653 116.472 388.529 116.881 388.041C117.302 387.391 117.155 386.749 116.826 386.157C116.455 385.491 116.589 384.555 117.037 383.939C117.222 383.683 117.086 383.543 116.982 383.245C116.769 382.632 116.768 382.043 116.852 381.462C117.075 379.906 119.006 378.724 119.661 380.154C120.142 380.97 121.521 380.551 121.626 379.61C121.633 379.541 121.636 379.462 121.636 379.377C121.628 378.471 120.524 377.843 120.024 377.087C119.325 376.03 120.612 374.644 120.852 373.4C121.001 372.629 121.115 371.746 121.756 371.291C122.371 370.854 122.977 370.407 123.33 369.641C123.604 369.046 123.29 368.416 122.698 368.136C122.297 367.945 121.935 367.583 121.937 367.139C121.938 366.908 121.914 366.676 121.752 366.473C120.769 365.03 121.292 363.754 122.692 363.147C123.413 362.881 123.392 362.394 123.406 361.897C123.424 361.271 124.065 361.01 124.661 361.201C124.758 361.232 124.856 361.265 124.956 361.299C125.434 361.465 125.965 361.386 126.358 361.067C126.73 360.765 127.129 360.435 127.541 360.076C127.999 359.678 127.844 358.944 127.237 358.944C126.826 358.945 126.374 358.636 126.427 358.229C126.516 357.554 126.754 356.953 127.112 356.421C127.39 356.006 127.918 355.963 128.23 356.353C128.542 356.744 129.198 356.865 129.573 356.534C129.763 356.367 129.941 356.202 130.092 356.024C130.631 355.388 129.747 354.866 128.99 355.215C128.308 355.528 127.602 355.055 127.525 354.308C127.485 353.927 127.45 353.541 127.413 353.146C127.321 352.155 128.039 351.49 128.816 350.867C129.11 350.632 129.426 350.209 129.542 349.775C129.636 349.425 129.566 349.052 129.51 348.694C129.437 348.224 129.31 347.772 129.175 347.313C128.912 346.42 129.11 345.417 129.57 344.608C130.212 343.481 130.281 342.158 129.729 340.985C129.705 340.933 129.681 340.882 129.658 340.831C129.49 340.459 129.343 340.032 129.586 339.704C129.691 339.561 129.817 339.431 129.903 339.362C130.112 339.195 130.446 339.613 130.823 339.655C131.155 339.692 131.527 339.773 131.603 339.448C131.831 338.482 131.323 337.669 130.927 336.998C130.296 336.042 130.229 335.149 130.464 334.289C130.598 333.8 130.981 333.49 131.432 333.257C131.767 333.083 132.013 332.727 132.127 332.367C132.271 331.912 132.416 331.448 132.564 330.952C132.759 330.302 132.945 329.605 133.426 329.127C133.517 329.037 133.617 328.965 133.728 328.924C136.319 327.877 136.946 325.66 137.573 323.442C137.908 322.145 138.618 320.89 137.657 319.259C136.675 317.816 137.135 317.104 138.807 315.765C139.225 315.431 139.475 314.887 139.496 314.698C139.471 312.813 141.157 311.534 141.484 309.677C141.593 309.06 141.811 308.468 142.151 307.941C142.905 306.906 144.041 306.047 145.14 305.093C145.534 304.751 145.701 304.218 145.613 303.703C145.588 303.554 145.563 303.403 145.537 303.255C145.469 302.859 145.656 302.453 146.019 302.279C146.142 302.22 146.269 302.162 146.403 302.105C146.899 301.892 147.047 301.245 146.621 300.913C146.383 300.728 146.288 300.385 146.388 300.099C146.515 299.739 146.648 299.386 146.935 299.226C147.053 299.16 147.19 299.13 147.31 299.067C148.152 298.619 147.533 298.2 147.348 297.705C147.245 297.432 147.436 297.162 147.639 296.951C148.099 296.475 148.644 295.94 149.271 295.398C149.567 295.141 149.995 295.236 150.175 295.584C150.322 295.866 150.771 296.056 151.042 295.891C151.084 295.866 151.111 295.834 151.116 295.786C151.179 295.222 151.075 294.448 151.326 293.904C152.952 290.481 153.329 290.145 153.117 288.278C152.896 286.341 153.429 284.488 154.426 282.813C154.638 282.456 154.782 282.074 154.831 281.661C154.924 280.88 154.823 280.03 154.787 278.959C154.771 278.515 154.79 278.225 155.076 277.885C155.705 277.136 155.918 275.961 155.84 274.986C155.739 273.735 156.264 272.498 157.094 271.102C158.265 269.136 159.08 266.939 160.438 264.994C162.199 262.269 163.788 259.526 165.699 256.818C165.869 256.579 166.07 256.295 166.228 256.048C166.323 255.898 166.486 255.933 166.662 255.912C168.649 255.665 168.135 253.978 168.276 252.713C168.284 252.638 168.294 252.547 168.306 252.449C168.398 251.728 168.998 251.289 169.425 250.7C169.598 250.461 169.717 250.192 169.774 249.893C169.852 249.479 169.769 249.023 170.033 248.696C170.255 248.421 170.631 248.303 170.914 248.092C172.758 246.716 173.153 244.164 174.922 242.588C175.307 242.279 175.569 241.631 175.804 241.105C175.842 241.02 175.867 240.93 175.877 240.837C175.89 240.726 175.901 240.615 175.91 240.503C175.956 239.965 176.599 239.524 177.134 239.592C177.315 239.615 177.427 239.555 177.583 239.462C177.769 239.353 177.958 239.244 177.973 239.115C178.203 237.044 179.875 235.705 180.648 233.885C180.92 233.153 182.132 232.525 182.926 232.232C184.89 231.688 185.852 229.889 186.604 228.257C187.628 225.893 188.966 224.136 191.39 222.88C192.999 222.106 194.169 220.14 195.298 218.55C195.967 217.671 196.406 217.148 197.409 216.688C198.6 216.248 199.791 215.809 200.146 214.323C200.167 214.135 200.376 213.968 200.585 213.8C203.72 211.29 206.667 208.758 209.781 206.436C211.244 205.264 212.351 203.862 214.336 203.13C215.925 202.544 217.346 201.749 218.809 200.577C219.875 199.552 221.651 198.987 222.884 198.171C225.538 196.56 228.714 195.388 231.055 193.17C231.473 192.835 232.246 192.731 232.831 192.605C234.002 192.354 235.005 191.893 235.674 191.015C236.363 189.948 237.199 189.278 238.349 189.215C238.445 189.199 238.539 189.175 238.63 189.146C240.795 188.449 243.386 187.775 245.308 186.558C246.959 185.407 248.693 185.218 250.448 184.841C251.609 184.592 252.438 183.518 253.547 183.095C253.625 183.065 253.704 183.037 253.784 183.012C254.359 182.83 254.963 182.757 255.554 182.636C257.403 182.258 259.231 182.065 261.106 181.451C263.092 180.718 265.056 180.174 267.188 179.839C270.381 179.154 274.001 178.454 277.169 177.662C277.561 177.564 277.948 177.438 278.326 177.264C279.726 176.658 281.482 176.281 283.007 176.26C286.853 175.924 290.865 175.798 294.877 175.672C296.314 175.477 297.231 177.114 298.678 177.213C299.334 177.257 300.057 177.104 300.812 177.093C302.15 177.051 303.362 176.423 304.762 177.532C305.145 177.854 305.787 177.692 306.565 177.484C307.11 177.337 307.68 177.538 308.032 177.978C308.546 178.621 309.336 178.569 309.985 178.063C310.207 177.89 310.469 177.784 310.822 177.824C312.327 177.991 314.27 177.635 315.524 178.346C315.801 178.483 316.068 178.574 316.327 178.63C319.098 179.228 322.232 176.632 324.698 178.031C326.328 178.783 327.812 179.139 329.943 178.804C330.58 178.627 332.201 178.961 333.444 179.445C334.512 179.861 335.199 181.103 336.338 181.229C337.089 181.312 337.834 181.455 338.536 181.734C339.343 182.054 340.179 182.418 340.956 182.504C342.085 182.63 343.318 181.814 344.655 181.772C345.428 181.667 346.724 182.001 347.058 182.42C348.04 183.863 349.691 182.712 350.736 183.59C351.781 184.469 352.68 184.95 354.038 184.719C355.479 184.41 356.622 185.998 357.931 186.675C358.129 186.777 358.334 186.866 358.552 186.936C358.648 186.98 358.745 187.022 358.844 187.061C360.776 187.823 362.355 185.761 364.32 186.433C365.889 186.877 366.523 188.761 368.069 189.279C369.862 189.878 371.621 190.581 373.054 191.786C373.765 192.247 374.705 192.351 375.458 192.435C375.595 192.45 375.713 192.412 375.825 192.36C376.099 192.234 376.338 191.863 376.209 191.59C376.075 191.305 376.208 190.88 376.523 190.855C377.099 190.809 377.642 190.916 377.819 191.744C377.901 192.354 378.243 192.756 378.743 193.032C379.021 193.186 379.319 193.307 379.592 193.471C381.599 194.678 384.055 195.814 386.245 196.646C386.299 196.666 386.353 196.685 386.408 196.7C387.703 197.034 388.769 197.725 390.023 198.436C391.465 199.167 392.865 200.276 394.808 199.92C395.54 199.856 396.32 200.349 397.047 200.801C397.446 201.049 397.92 201.047 398.224 200.689C398.554 200.299 399.123 200.107 399.598 200.296C400.636 200.709 401.635 201.22 401.934 202.617C402.311 204.374 403.752 205.106 405.278 205.085C406.525 205.224 407.773 205.362 408.949 206.141C409.08 206.228 409.195 206.343 409.331 206.423C409.771 206.682 410.292 206.367 410.775 206.2C411.554 205.93 412.283 206.106 413.001 206.393C413.861 206.737 413.76 207.573 413.658 208.493C413.574 209.246 414.117 209.497 414.661 209.748C416.479 210.522 418.297 211.295 420.115 212.069C421.39 212.592 422.831 213.324 424.064 214.223C425.943 215.522 427.849 216.569 429.76 217.57C430.558 217.988 432.145 217.849 431.583 217.146C431.47 217.004 431.298 216.897 431.137 216.816C430.337 216.415 429.525 216.123 428.745 215.545C428.703 215.514 428.666 215.478 428.637 215.436C428.612 215.399 428.587 215.358 428.562 215.315C428.384 215.003 428.602 214.321 428.905 214.513C428.968 214.553 429.01 214.595 429.077 214.63C430.313 215.268 431.4 216.028 432.594 216.817C432.898 217.018 433.119 217.33 433.147 217.694C433.153 217.775 433.157 217.856 433.162 217.937C433.191 218.474 433.655 218.845 434.192 218.801C434.448 218.78 434.695 218.759 434.944 218.737C435.521 218.687 435.869 219.387 435.616 219.908C435.456 220.239 435.618 220.573 435.937 220.757C437.775 221.815 438.07 222.165 440.192 225.472C440.428 225.841 440.827 225.614 441.263 225.662C442.934 226.038 444.815 226.247 445.588 227.858C445.717 228.107 445.858 228.318 446.007 228.502C447.042 229.783 448.475 230.693 449.697 231.796C450.277 232.319 450.834 232.859 451.384 233.436C451.532 233.592 451.738 233.75 451.876 233.915C452.194 234.293 452.528 234.584 452.974 234.796C454.929 235.726 456.128 237.399 457.478 239.089C457.98 239.716 458.669 240.365 459.401 240.637C461.971 241.494 463.225 243.92 464.918 245.823C465.753 246.869 466.798 247.747 468.052 248.458C468.165 248.532 468.276 248.607 468.385 248.684C470.016 249.835 472.843 250.007 472.67 248.018C472.462 246.47 473.381 245.048 473.151 243.688C472.942 242.14 473.465 240.864 473.444 239.337C473.444 238.369 473.63 237.361 473.864 236.332C474.214 234.792 475.87 233.993 476.184 232.445C476.253 232.103 476.119 231.663 475.955 231.355C475.811 231.086 475.654 230.788 475.576 230.426C474.929 227.955 475.143 227.367 477.7 226.23C477.871 226.154 478.012 226.099 478.116 225.943C478.171 225.859 478.204 225.712 478.219 225.613C478.355 224.698 477.337 224.608 476.8 224.115C476.565 223.9 476.74 223.522 477.02 223.371C477.667 223.022 479.228 221.907 478.99 221.211C478.806 220.672 479.258 220.025 479.758 219.751C480.297 219.455 480.542 218.854 480.811 218.33C481.183 217.606 481.857 216.762 481.512 216.025C481.217 215.392 480.728 214.99 480.303 214.592C479.993 214.302 479.726 213.92 479.788 213.501C479.906 212.704 480.798 212.218 480.697 211.745C480.3 210.176 481.157 209.319 481.847 208.252C482.536 207.185 482.703 205.679 483.393 204.612C484.334 203.001 485.086 201.369 485.483 199.507C485.749 198.477 486.133 197.46 486.542 196.446C486.726 195.989 486.594 195.483 486.268 195.112C486.012 194.821 485.944 194.37 486.094 194.012C486.696 192.579 487.128 190.989 487.042 189.202C487.035 189.072 487.031 188.968 487.051 188.839C487.112 188.449 487.366 188.053 487.681 187.815C488.169 187.447 488.895 187.204 488.848 186.349C488.744 185.575 488.66 184.613 488.744 183.86C488.846 182.942 489.449 182.156 489.747 181.281C490.037 180.431 490.3 179.579 490.646 178.735C490.918 178.003 491.189 177.27 491.628 176.747C491.694 176.669 491.783 176.61 491.887 176.563C493.207 175.968 492.994 174.735 493.154 173.296C493.53 171.622 492.778 169.823 494.074 168.442C494.455 167.988 494.552 167.503 494.366 166.986C494.308 166.823 494.233 166.665 494.207 166.494C494.102 165.818 494.362 165.272 494.854 164.771C495.078 164.542 495.535 164.578 495.723 164.837C495.814 164.961 495.84 165.08 495.939 165.198C496.224 165.539 496.519 165.798 496.874 165.513C496.889 165.502 496.904 165.488 496.919 165.473C497.365 165.018 497.103 164.249 496.924 163.638C496.48 162.115 496.67 160.453 497.75 159.292C498.442 158.547 499.105 157.836 499.717 157.062C500.155 156.539 500.406 155.995 500.281 155.409C499.864 151.721 502.048 149.184 503.875 146.347C504.298 145.691 505.216 145.538 505.796 146.059C506.239 146.458 506.942 146.517 507.357 146.089C507.437 146.005 507.51 145.921 507.573 145.836C507.618 145.776 507.653 145.71 507.685 145.642C508.169 144.6 508.641 143.729 509.288 142.878C509.746 142.25 510.117 141.513 510.417 140.746C510.987 139.292 511.41 137.783 512.082 136.374C512.702 135.075 513.282 133.743 513.322 132.272C513.49 130.766 514.597 129.364 515.851 128.36C516.599 127.611 517.379 126.575 518.163 125.503C518.375 125.213 518.585 125.042 518.941 125.082C519.284 125.12 519.778 125.001 519.935 124.693C520.21 124.152 520.246 123.604 520.185 123.031C520.045 121.713 520.711 120.3 521.844 119.612C522.897 118.973 524.011 118.433 523.452 117.335C523.293 117.022 523.185 116.675 523.238 116.254C523.272 115.98 523.408 115.732 523.562 115.503C524.926 113.473 526.8 111.367 528.955 109.803C531.166 108.199 532.314 106.476 531.959 103.89C531.937 103.733 531.925 103.635 531.942 103.477C531.992 103.027 532.223 102.541 532.639 102.361C533.408 102.028 534.3 101.864 534.723 100.724C535.453 98.429 537.443 96.9264 538.905 95.0127C539.358 94.4192 539.971 93.9129 540.846 93.5899C541.069 93.508 541.31 93.2491 541.524 92.9417C541.853 92.4685 542.208 91.9359 542.619 91.5323C543.07 91.0905 543.162 90.4732 543.526 89.9576C544.415 88.6975 545.817 87.9795 546.74 86.8115C547.806 85.4624 548.214 83.6875 549.677 82.8657C549.792 82.8011 549.928 82.7174 550.028 82.6305C550.274 82.4157 550.404 82.1174 550.587 81.8465C551.489 80.509 551.985 78.9011 553.804 78.0665C555.204 77.4596 556.165 75.6606 557.44 74.468C558.088 73.7776 558.924 73.108 559.405 72.2085C559.885 71.3089 560.533 70.6185 561.515 70.3464C562.207 70.0912 562.76 69.6029 563.317 69.1199C564.46 68.1291 565.8 67.3584 567.262 66.6013C569.081 65.6597 570.418 63.9024 571.923 62.3541C574.284 59.9482 576.771 58.1278 579.76 56.935C580.037 56.8326 580.337 56.7328 580.631 56.6159C581.678 56.198 582.321 55.15 583.294 54.5803C583.521 54.4478 583.754 54.3354 583.997 54.2394C585.158 53.7797 586.375 53.4933 587.596 53.2311C588.707 52.8941 589.682 52.6657 590.739 52.371C591.264 52.2249 591.833 52.112 592.37 52.017C593.289 51.854 593.996 51.2191 594.869 50.8861C595.916 50.4866 597.096 50.5005 598.213 50.2172C599.281 49.9879 600.732 50.5951 601.549 49.4616C601.716 49.231 601.88 48.9091 602.162 48.9405C605.941 49.1869 609.719 48.0174 613.403 48.8522C614.151 49.0217 614.922 49.5593 615.641 49.2939C617.418 48.7288 619.152 48.5402 620.907 49.8787C621.263 50.1088 621.869 49.7949 622.433 49.8576C623.917 50.2129 625.818 50.2334 627.051 51.1326C629.872 53.1612 632.903 53.3072 636.1 53.6623C637.502 53.818 638.711 54.6831 639.969 55.3205C640.866 55.7751 641.782 56.1661 642.641 56.4851C644.814 57.4888 647.217 58.1369 648.972 59.4754C651.25 61.2531 653.862 61.7337 656.182 63.1349C657.958 64.2851 660.027 64.5148 661.594 65.8323C662.117 66.2715 663.245 66.3967 663.977 66.6685C665.251 67.1912 666.547 67.5257 667.362 68.7598C667.832 69.3476 668.604 69.5317 669.338 69.6984C670.069 69.8647 670.773 70.0271 671.374 70.3489C672.085 70.8089 672.314 72.1686 673.443 72.2939C674.759 72.4401 675.428 73.2768 676.097 74.1135C677.622 75.8076 679.399 76.9577 681.384 77.9405C682.357 78.4924 683.456 78.9435 684.075 79.9395C684.46 80.5584 684.533 81.3927 685.145 81.7888C687.297 82.9808 688.781 85.0515 690.286 86.9339C691.456 88.3979 692.626 89.8619 693.796 91.326C694.966 92.7901 696.513 94.2957 697.077 96.0737C697.223 96.4711 697.39 96.6803 697.725 97.0986C698.334 97.7087 698.819 98.3533 699.18 99.0323C700.365 101.26 701.561 103.548 703.492 105.172C704.014 105.611 704.516 106.239 704.829 106.845C705.623 108.268 706.605 109.711 707.797 110.987C709.531 112.513 710.241 114.689 711.161 116.697C711.913 118.495 712.456 120.462 714.441 121.444C714.549 121.514 714.653 121.618 714.749 121.741C715.188 122.298 715.413 122.996 715.645 123.665C715.747 123.96 715.974 124.191 716.225 124.376C716.883 124.862 717.663 125.29 717.68 126.569C717.576 127.51 718.621 128.389 719.08 129.393C720.209 132.948 721.734 136.358 722.883 139.725C723.468 141.315 723.844 143.072 724.429 144.662C724.868 145.854 725.516 146.879 725.767 148.05C726.331 149.828 726.895 151.606 727.083 153.342C727.354 156.041 727.062 158.676 727.124 161.542C727.166 162.881 726.852 163.99 727.291 165.182C727.563 166.165 727.626 167.316 726.581 168.152C726.399 168.298 726.454 168.9 726.307 169.412C726.263 169.566 726.183 169.7 726.108 169.841C725.742 170.531 725.05 170.799 724.338 171.119C723.326 171.575 722.85 172.638 722.171 173.571C721.711 174.282 720.938 174.387 720.227 173.927C718.242 172.944 717.678 171.166 717.135 169.2C717.026 168.903 716.962 168.612 716.934 168.322C716.6 164.956 716.351 161.8 714.042 159.327C713.039 158.072 712.413 156.859 713.186 155.039C713.451 154.391 713.582 153.631 713.641 152.863C713.75 151.432 713.594 149.997 712.935 148.722C712.308 147.509 711.682 146.296 711.055 145.082C710.63 144.066 710.205 143.049 710.032 141.923C709.85 140.733 708.422 139.11 707.448 138.402C706.821 137.946 706.374 137.287 706.326 136.513C706.236 135.04 705.799 134.263 704.598 132.93C703.858 132.004 703.469 131.001 702.912 129.955C702.398 128.992 701.554 128.267 700.628 127.534C700.105 127.095 699.604 126.467 699.311 125.672C698.902 124.559 697.65 124.159 697.048 123.137C696.293 121.858 695.075 120.89 694.275 119.586C694.183 119.471 693.977 119.343 693.775 119.279C693.5 119.192 693.223 119.361 692.945 119.439C691.867 119.739 691.579 119.09 691.31 118.355C691.176 117.987 691.418 117.516 691.777 117.363C692.182 117.19 692.269 116.757 692.048 116.376C692.002 116.298 691.957 116.219 691.912 116.137C691.669 115.697 691.127 115.49 690.702 115.759C690.695 115.763 690.689 115.767 690.682 115.771C690.268 116.034 689.439 115.884 689.549 115.407C689.573 115.304 689.627 115.203 689.642 115.099C689.784 114.126 689.53 113.228 689.186 112.353C688.256 109.984 687.297 107.422 685.498 105.621C685.359 105.483 685.219 105.347 685.075 105.213C684.928 105.075 684.837 104.951 684.651 104.872C684.126 104.65 683.559 105.035 682.996 105.123C682.846 105.147 682.708 105.065 682.594 104.757C682.448 104.36 682.511 103.795 682.553 103.419C682.641 102.625 682.327 102.069 681.749 101.7C681.363 101.454 680.913 101.717 680.966 102.172C681.04 102.816 680.259 103.302 679.822 102.823C678.12 100.958 676.695 99.306 675.385 97.6673C675.295 97.5545 675.272 97.338 675.246 97.1002C675.206 96.7247 674.952 96.4755 674.577 96.4338C673.932 96.3623 673.446 95.6894 673.611 95.0626C673.679 94.8066 673.753 94.5451 673.86 94.2578C674.105 93.3072 674.092 92.8399 673.343 92.4276C672.79 92.1228 672.15 92.5044 672.081 93.1322C671.999 93.8719 671.151 94.336 670.57 93.8707C670.084 93.4809 669.66 93.0583 669.341 92.5599C668.924 91.9086 668.37 91.3164 667.649 91.0351C666.858 90.7265 666.129 90.299 665.569 89.6664C665.48 89.5652 665.385 89.4678 665.285 89.3768C665.102 89.21 664.921 89.0243 664.74 88.8364C664.279 88.3567 664.306 87.3378 664.903 87.6308C664.978 87.6673 665.049 87.7133 665.116 87.7613C665.308 87.8987 665.55 87.94 665.76 87.8326C665.767 87.8292 665.773 87.8257 665.78 87.8223C665.943 87.7371 666.034 87.5778 666.054 87.3948C666.085 87.1125 665.943 86.8285 665.692 86.6955C665.192 86.4303 664.691 86.1741 664.185 85.9593C663.712 85.7588 663.173 85.9172 662.815 86.2847C662.771 86.3296 662.728 86.3733 662.687 86.4162C662.433 86.6816 662.055 86.8481 661.69 86.8076C661.586 86.7961 661.503 86.7698 661.408 86.7263C660.911 86.4986 660.399 86.2829 659.712 86.2067C657.853 85.8095 656.411 85.0779 654.822 83.9485C652.524 82.3592 649.786 81.2926 647.258 80.0589C645.44 79.2852 644.061 77.9885 642.013 77.5705C641.839 77.5512 641.642 77.3661 641.43 77.1294C641.025 76.679 641.093 75.884 641.591 75.5404C641.989 75.2658 642.131 74.7949 641.889 74.3761C641.798 74.2192 641.714 74.0631 641.658 73.9101C640.826 71.6504 638.868 71.8329 637.1 71.36C636.906 71.3079 636.735 71.2574 636.534 71.2549C636.205 71.2507 635.955 71.5303 635.739 71.7782C634.645 73.0361 633.337 72.3822 632.17 71.9036C630.352 71.1299 628.262 71.0884 626.904 69.6034C626.573 69.189 625.905 69.4022 625.376 69.3751C623.682 69.2885 622.473 68.0589 621.074 67.2406C619.987 66.7388 619.297 66.0903 617.751 66.2998C616.798 66.4614 615.824 65.9638 614.815 65.5298C613.971 65.1669 613.147 64.645 612.234 64.5436C609.768 64.4604 607.302 64.3771 604.816 64.4821C603.29 64.5033 601.744 64.7127 600.532 65.3404C599.131 65.9473 597.857 65.4247 596.435 66.2198C594.22 67.3079 591.65 68.1659 589.121 68.6474C588.348 68.7522 587.157 69.1918 586.906 69.7357C586.154 71.3674 584.586 71.765 583.353 72.581C581.911 73.5645 580.302 74.3387 579.55 75.9704C578.939 77.2943 576.963 77.2106 575.928 78.2372C575.819 78.3454 575.722 78.4617 575.642 78.5858C573.865 80.8662 571.211 82.4772 569.435 84.7576C568.996 85.2806 568.536 85.992 567.93 86.3058C566.133 87.0592 565.025 88.461 563.897 90.051C562.977 91.4736 561.347 92.436 560.239 93.8377C559.341 95.072 558.818 96.3481 557.564 97.3523C554.639 99.6957 552.59 102.708 550.521 105.909C550.062 106.62 549.414 107.311 548.787 107.813C547.721 108.838 547.01 110.093 545.945 111.118C544.879 112.144 543.813 113.169 543.102 114.424C542.567 115.252 541.729 115.844 541.015 116.525C540.566 116.953 540.13 117.375 539.863 117.876C539.09 119.696 537.961 121.286 536.477 122.646C534.994 124.006 534.199 126.014 533.092 127.416C531.148 129.487 529.915 132.018 528.327 134.319C527.044 136.303 525.826 138.968 524.544 140.951C524.214 141.462 523.797 141.865 523.62 142.408C523.469 142.868 523.583 143.703 523.102 143.65C520.824 143.587 521.2 145.344 520.678 146.621C519.674 148.796 518.838 151.181 517.647 153.336C517.261 154.058 516.633 154.752 515.947 155.539C515.625 155.908 515.504 156.295 515.612 156.772C515.745 157.357 515.42 158.037 514.892 158.321C514.684 158.434 514.491 158.56 514.336 158.71C513.575 159.452 513.595 160.837 512.803 161.545C511.98 162.28 511.254 163.079 510.805 164.056C510.243 165.277 509.839 166.634 509.522 167.939C509.268 168.987 509.133 170.066 508.472 170.804C507.364 172.206 506.8 173.858 506.069 175.302C505.295 177.122 504.689 179.151 503.728 180.95C502.766 182.749 502.16 184.778 501.554 186.807C501.282 187.54 501.011 188.272 500.948 188.836C500.902 189.254 500.841 189.631 500.729 189.965C500.211 191.516 497.769 191.594 497.251 193.145C497.015 193.851 497.064 194.705 497.332 195.677C497.666 196.583 497.537 197.51 497.399 198.465C497.153 200.171 497.323 202.05 496.266 203.563C495.806 204.275 495.514 205.195 495.242 205.927C495.027 206.393 494.813 206.859 494.598 207.324C494.526 207.48 494.426 207.638 494.31 207.764C493.672 208.457 493.267 209.381 493.429 210.308C493.553 211.013 493.582 211.72 493.433 212.396C493.181 213.542 492.738 214.694 492.521 215.847C492.115 217.998 490.904 220.019 490.936 222.412C491.041 223.186 490.56 224.085 490.288 224.817C488.632 229.542 488.243 234.995 486.237 239.582C486.022 240.074 485.814 240.568 485.627 241.071C484.77 243.644 484.478 246.28 482.889 248.581C482.085 249.825 482.127 251.249 481.66 252.654C481.522 253.068 481.506 253.562 481.698 254.167C481.969 255.15 481.28 256.217 480.778 257.305C479.482 260.401 479.984 262.743 482.387 265.107C482.909 265.546 483.453 265.797 483.766 266.403C485.668 269.855 488.426 272.448 490.975 275.209C491.352 275.601 491.612 276.109 491.863 276.631C492.665 278.301 493.848 280.079 495.436 281.034C495.673 281.176 495.952 281.327 496.192 281.465C496.222 281.482 496.251 281.499 496.281 281.517C496.95 281.921 497.068 282.778 497.438 283.467C497.601 283.769 497.798 284.044 498.023 284.297C498.509 284.844 499.093 285.299 499.559 285.864C501.37 288.059 502.657 290.658 504.453 292.715C505.289 293.761 505.937 294.785 506.982 295.664C508.382 296.772 509.134 298.571 509.907 300.182C510.221 300.788 510.346 301.374 510.659 301.98C510.708 302.094 510.759 302.207 510.81 302.32C511.945 304.816 513.872 307.284 515.131 309.719C515.883 311.518 516.239 313.464 517.179 315.283C518.537 318.484 519.916 321.495 521.483 324.528C521.797 325.135 521.922 325.721 522.047 326.306C522.486 329.214 523.552 331.619 525.809 333.585C526.853 334.463 527.313 335.467 527.146 336.974C527.114 337.26 526.872 337.483 526.86 337.771C526.793 339.409 528.291 340.655 528.483 342.077C528.483 343.793 528.692 345.34 529.653 346.972C530.782 348.813 531.492 350.988 531.617 353.289C531.701 354.251 531.972 355.234 532.056 356.196C532.247 357.61 531.329 358.886 531.193 360.306C531.123 361.04 531.229 361.793 531.533 362.618C531.679 363.016 531.617 363.581 531.554 364.145C531.428 366.99 531.303 369.835 531.01 372.471C530.822 374.165 530.655 375.671 530.843 377.408C531.093 378.579 531.114 380.106 529.839 381.298C529.401 381.821 529.463 382.972 529.568 383.746C529.651 384.708 529.735 385.67 529.254 386.57C528.711 388.034 527.603 389.436 528.355 391.235C528.762 392.341 527.586 393.447 527.159 394.546C526.235 396.922 525.256 399.316 524.51 401.862C523.862 404.268 522.19 405.607 520.685 407.155C519.828 408.013 518.971 408.87 518.114 409.728C516.045 412.039 513.066 413.002 510.597 414.88C510.49 414.962 510.383 415.05 510.278 415.147C509.452 415.809 508.325 415.961 507.26 415.737C506.768 415.634 506.269 415.735 506.048 416.187C505.851 416.59 505.4 416.887 504.952 416.85C504.78 416.835 504.603 416.823 504.422 416.816C503.703 416.787 503.179 417.363 502.679 417.88C502.408 418.161 502.047 418.326 501.542 418.37C500.017 418.391 498.303 418.391 496.798 418.224C496.716 418.215 496.63 418.206 496.542 418.195C495.532 418.069 494.776 417.285 493.924 416.728C490.575 414.538 486.678 412.501 484.47 409.163C484.308 408.918 484.148 408.668 483.989 408.416C482.932 406.896 481.309 406.12 480.486 404.459C480.34 404.164 480.243 403.919 479.931 403.814C479.379 403.629 478.882 403.201 478.672 402.658C478.392 401.935 478.158 401.218 477.824 400.489C477.678 400.092 477.344 399.673 477.553 399.506C479.057 397.958 477.386 397.582 476.529 396.724C475.505 395.657 474.481 394.591 474.084 393.022C473.857 392.199 473.483 391.493 472.851 390.892C472.6 390.653 472.321 390.421 472.229 390.087C472.207 390.007 472.191 389.924 472.182 389.839C472.164 389.661 472.171 389.481 472.146 389.305C471.996 388.232 471.902 388.065 470.92 388.143C470.57 388.171 470.158 387.869 470.134 387.518C470.13 387.453 470.15 387.407 470.179 387.348C470.879 385.948 471.168 384.852 470.595 383.296C470.01 381.706 469.822 379.97 469.634 378.234C469.571 377.083 468.087 376.728 468.819 375.284C469.32 374.196 467.858 373.653 467.377 372.837C466.102 370.599 465.058 368.005 464.765 365.495C464.577 363.759 463.804 362.149 464.201 360.287C464.264 359.722 463.95 359.115 463.825 358.53C463.666 357.955 463.45 357.308 463.398 356.652C463.325 355.716 463.973 354.641 463.386 353.907C462.195 352.631 462.195 350.916 462.363 349.41C462.431 347.405 462.499 345.401 461.951 343.43C461.723 342.608 461.951 341.72 462.56 341.123C462.622 341.063 462.682 341.002 462.74 340.94C462.88 340.793 462.945 340.527 462.89 340.331C462.838 340.148 462.743 340.061 462.599 339.937C461.376 338.879 460.996 337.717 461.193 335.939C461.465 333.491 461.381 330.814 460.901 328.283C460.546 326.337 460.211 324.204 459.48 322.217C459.167 321.61 459.292 320.481 459.564 319.749C460.609 317.196 460.379 314.121 462.344 311.862C462.783 311.339 462.72 310.188 462.428 309.394C461.968 308.39 462.239 307.657 462.323 306.904C462.386 306.34 462.281 305.566 461.947 305.147C461.356 304.532 461.475 303.805 461.521 303.099C461.58 302.181 461.453 301.181 461.903 300.379C462.261 299.741 462.427 298.9 462.242 298.193C461.793 296.481 461.734 294.605 462.554 292.826C463.034 291.927 462.178 291.069 462.679 289.982C463.494 287.785 463.369 285.484 464.372 283.308C464.776 282.322 464.968 281.198 464.667 280.081C464.501 279.466 464.527 278.771 464.964 278.307C464.977 278.293 464.991 278.278 465.005 278.263C465.436 277.812 465.541 277.209 465.185 276.697C465.16 276.662 465.135 276.624 465.11 276.586C465.003 276.418 464.969 276.216 464.991 276.019C465.01 275.847 465.075 275.683 465.172 275.54C467.03 272.813 466.678 270.546 464.54 268.08C463.516 267.013 462.492 265.947 461.239 265.236C460.173 264.546 458.752 263.626 458.313 262.433C457.435 260.049 455.429 259.254 453.674 257.916C451.563 256.347 449.223 255.134 447.969 252.708C447.823 252.311 447.259 252.248 446.736 251.809C446.026 251.349 445.315 250.889 444.814 250.261C443.142 248.17 441.011 246.79 439.109 245.054C438.587 244.614 438.085 243.987 437.354 243.715C436.455 243.234 435.933 242.795 435.452 241.979C435.139 241.373 434.428 240.913 433.676 240.829C432.004 240.453 430.771 239.554 429.58 238.278C428.201 236.981 426.613 235.852 424.816 234.89C422.663 233.698 420.553 232.129 418.442 230.561C418.205 230.407 417.968 230.254 417.78 230.162C417.63 230.089 417.488 230.092 417.325 230.127C416.41 230.326 415.976 229.62 415.391 228.888C414.604 227.903 413.463 227.272 412.345 226.688C410.424 225.684 408.436 224.746 406.521 223.655C403.871 222.144 400.407 218.763 398.026 220.67C397.608 221.005 396.876 220.733 396.333 220.482C395.269 220.046 394.35 219.493 393.346 218.908C393.003 218.709 392.867 218.275 392.987 217.898C393.127 217.461 392.895 216.977 392.45 216.865C391.873 216.72 391.318 216.585 390.849 216.32C390.756 216.267 390.661 216.217 390.573 216.156C390.088 215.818 389.662 214.96 389.165 214.731C387.891 214.208 386.428 213.665 385.132 213.33C383.481 212.766 381.83 212.201 380.388 211.469C379.344 211.041 379.282 210.977 378.891 209.876C378.716 209.381 378.206 209.171 377.724 209.378C377.63 209.418 377.527 209.474 377.445 209.535C376.655 210.119 375.905 210.19 374.872 209.713C372.698 208.709 370.525 207.706 368.247 207.643C367.627 207.663 367.027 207.582 366.439 207.455C362.968 206.704 359.301 203.791 355.772 203.399C354.267 203.232 352.762 203.065 351.467 202.73C350.171 202.396 348.854 202.25 348.06 200.827C347.747 200.221 346.389 200.451 345.678 199.991C344.445 199.092 343.359 198.59 341.77 199.176C341.164 199.49 340.266 199.009 339.701 198.946C338.907 198.858 338.219 198.573 337.421 198.618C335.181 198.746 333.18 197.784 331.134 197.232C328.542 196.563 326.139 195.915 323.527 195.434C322.231 195.1 320.768 194.556 319.577 194.996C318.572 195.251 317.937 194.998 317.23 194.591C316.759 194.32 316.842 193.575 317.369 193.441C317.827 193.324 317.947 192.766 317.498 192.615C316.471 192.271 315.301 192.453 314.31 192.184C313.205 191.885 312.012 191.342 310.902 191.625C309.934 191.871 308.958 191.951 307.958 191.609C307.415 191.358 306.809 191.672 306.37 192.195C304.865 193.743 302.943 193.911 300.874 193.681C299.344 193.511 297.9 193.351 296.425 193.187C295.474 193.082 295.205 191.928 295.094 190.978C295.045 190.559 294.71 190.258 294.292 190.312C293.586 190.403 292.718 190.869 291.949 191.653C291.595 192.014 291.028 192.018 290.762 191.588C290.61 191.342 290.31 191.236 290.024 191.272C288.986 191.403 287.921 191.267 286.89 191.324C284.612 191.452 282.197 192.281 279.928 192.527C278.668 192.664 277.443 193.149 276.257 194.187C275.745 194.597 275.109 194.85 274.458 195.133C273.659 195.48 272.727 195.623 271.95 195.229C271.878 195.192 271.806 195.154 271.737 195.114C271.396 194.92 271.025 194.68 270.647 194.79C270.522 194.826 270.409 194.908 270.295 194.973C269.743 195.286 269.177 195.724 268.629 196.009C266.838 197.143 264.464 196.723 262.561 197.658C261.394 198.232 260.135 198.661 258.786 198.918C256.445 199.42 254.105 199.923 251.66 199.651C250.536 199.526 249.322 200.224 248.132 200.692C247.767 200.835 247.477 201.215 247.458 201.607C247.434 202.112 247.196 202.605 246.733 202.81C245.34 203.425 243.83 203.896 242.277 203.564C241.336 203.46 240.542 203.753 240.458 204.506C240.427 204.658 240.39 204.793 240.347 204.911C239.637 206.867 236.941 206.637 235.317 207.937C234.482 208.607 233.666 209.088 232.684 209.36C229.529 210.344 226.854 212.143 224.346 214.152C220.977 216.54 217.692 219.715 214.33 222.111C213.262 222.872 212.124 223.556 211.034 224.299C208.15 226.266 205.119 227.836 203.259 230.869C202.852 231.553 202.399 232.233 201.86 232.838C199.853 235.093 196.829 236.649 195.464 239.342C195.331 239.547 195.136 239.746 194.95 239.945C194.69 240.225 194.452 240.53 194.152 240.766C192.653 241.947 192.19 244.341 190.675 245.501C190.516 245.623 190.351 245.727 190.177 245.807C188.776 246.414 188.087 247.481 187.564 248.757C185.83 252.376 183.928 255.786 181.483 258.945C181.023 259.655 180.879 260.569 180.421 261.28C179.936 262.032 179.366 262.574 179.267 263.463C179.058 265.346 178.64 265.681 176.571 265.451C175.801 265.366 175.399 266.26 175.763 266.944C176.121 267.619 175.852 268.035 174.901 268.682C174.325 269.073 174.095 269.774 174.561 270.292C174.927 270.7 175.008 271.327 174.743 271.807C174.134 272.911 173.568 274.034 172.86 275.215C172.586 275.673 171.957 275.857 171.447 275.7C171.296 275.653 171.14 275.601 170.986 275.536C170.924 275.511 170.854 275.519 170.802 275.56C170.732 275.617 170.717 275.718 170.759 275.798C171.322 276.872 170.288 278.033 170.508 279.105C170.559 279.356 170.703 279.597 170.619 279.839C170.579 279.955 170.517 280.082 170.442 280.204C170.183 280.625 169.631 280.709 169.266 281.042C168.688 281.569 168.536 282.572 167.935 283.085C167.706 283.281 167.372 283.363 167.319 283.66C167.297 283.785 167.272 283.922 167.234 284.043C166.961 284.903 166.7 285.764 166.602 286.643C166.435 288.149 165.912 289.425 165.181 290.868C164.679 291.956 164.178 293.044 163.133 293.881C161.879 294.885 161.168 296.14 161.189 297.667C161.398 299.215 160.666 300.659 160.144 301.935C159.926 302.705 159.356 303.344 158.74 303.95C158.232 304.45 157.989 305.153 158.196 305.836C158.395 306.495 158.183 307.189 157.711 307.69C157.686 307.717 157.661 307.743 157.636 307.769C157.1 308.331 156.761 309.063 156.738 309.838C156.708 310.883 156.545 311.868 155.88 312.897C154.77 314.857 154.221 316.996 153.267 319.025C152.726 320.177 152.672 321.426 152.139 322.582C151.867 323.314 151.428 323.837 151.178 324.381C150.927 324.925 150.3 325.427 150.258 325.804C150.216 327.896 149.046 329.862 148.293 331.494C147.425 333.064 146.868 334.568 146.678 336.159C146.534 337.364 146.649 338.681 145.869 339.611C145.543 340.115 145.133 340.514 144.758 340.957C144.479 341.287 144.468 341.734 144.71 342.092C144.995 342.512 145.119 343.11 144.849 343.539C144.352 344.328 143.841 345.161 143.291 346.005C142.695 346.921 142.848 347.808 143.258 348.821C143.363 349.081 143.381 349.392 143.214 349.798C142.211 351.974 141.772 354.212 141.521 356.471C141.491 356.745 141.414 356.988 141.315 357.222C140.954 358.072 140.306 358.838 140.205 359.756C140.079 362.601 139.536 364.065 137.78 366.157C137.578 366.372 137.413 366.591 137.261 366.817C136.593 367.81 136.52 369.117 136.937 370.239C137.033 370.497 137.13 370.806 137.026 371.06C136.742 371.757 135.673 372.196 136.045 373.207C136.317 374.19 136.212 375.131 135.544 376.01C135.314 376.365 135.272 376.742 135.23 377.119C135.313 381.511 132.973 385.444 132.304 389.753C132.274 390.023 132.179 390.296 132.039 390.572C131.027 392.569 130.064 394.495 129.817 396.72C129.754 397.284 129.503 397.828 129.064 398.351C128.625 398.874 128.395 399.23 128.5 400.004C128.709 401.552 128.562 402.87 127.643 404.292C126.723 405.715 126.18 407.179 126.765 408.769C127.378 410.434 125.279 412.202 125.263 413.975C125.258 414.485 125.254 414.997 125.072 415.442C124.779 416.362 125.239 417.366 124.946 418.287C124.731 418.963 124.314 419.616 123.991 420.279C123.763 420.75 123.478 421.219 123.421 421.739C123.266 423.132 122.904 424.43 122.253 425.578C121.626 426.683 121.326 428.55 121.438 429.815C121.508 430.604 121.891 431.427 121.777 432.21C121.662 433.002 121.576 433.743 121.247 434.457C120.903 435.202 120.295 435.917 119.591 436.744C118.929 437.52 118.608 438.251 118.763 439.259C118.964 440.563 118.352 442.075 117.693 443.218C117.388 443.747 117.203 444.353 117.213 445.063C117.22 445.576 117.126 446.034 116.958 446.448C116.357 447.933 115.426 449.522 115.98 451.025C117.024 453.619 116.773 454.163 114.851 456.046C113.367 457.406 113.346 459.309 113.325 461.213C113.241 461.966 114.704 462.509 114.223 463.409C113.764 464.12 113.868 464.894 113.764 465.835C113.534 467.906 113.68 470.019 112.154 471.756C110.608 473.68 110.148 476.107 110.816 478.659C111.381 480.437 111.401 481.964 109.897 483.512C109.374 483.931 109.645 484.793 109.601 485.462C109.479 487.318 108.785 489.046 108.571 490.763C108.348 492.55 107.086 493.395 106.887 495.185C106.845 495.561 106.621 495.869 106.326 496.17C105.873 496.632 106.056 497.383 106.646 497.648C106.984 497.801 107.145 498.127 107.124 498.497C107.029 500.147 106.949 500.873 106.525 501.621C105.752 502.987 105.097 504.439 105.205 506.004C105.26 506.805 105.318 507.581 105.423 508.363C105.444 509.89 105.862 511.271 104.044 512.212C103.519 512.484 103.198 513.494 102.931 514.358C102.851 514.615 102.785 514.88 102.814 515.147C102.842 515.405 102.914 515.671 102.994 515.949C103.229 516.766 102.916 517.634 102.09 517.836C101.973 517.865 101.833 517.9 101.725 517.954C101.032 518.302 100.639 519.118 100.93 519.681C101.557 520.894 101.264 521.814 100.741 523.09C100.449 524.011 100.72 524.994 100.804 525.956C100.908 526.73 100.658 527.274 100.198 527.985C98.7558 530.684 98.0451 533.654 98.8391 536.792C98.9195 537.01 98.8231 537.267 98.713 537.516C98.5504 537.884 98.3175 538.335 98.0514 538.637C97.8333 538.884 97.8913 539.13 97.9387 539.456C98.1918 541.202 97.1872 542.661 96.4981 544.155C96.373 544.427 96.27 544.712 96.1868 545.006C95.6916 546.755 95.8006 548.625 95.9165 550.439C95.9511 550.982 95.9884 551.531 95.9962 552.104C96.0379 553.443 95.8915 554.761 94.9929 555.995C94.763 556.351 94.7003 556.916 94.6585 557.292C94.5958 557.857 94.7211 558.443 94.4912 558.798C92.9447 560.723 93.4461 563.066 93.4042 565.158C93.2369 568.379 92.1709 571.12 91.2722 574.069C90.6572 575.726 88.9376 577.22 89.5297 578.886C89.6428 579.204 89.8366 579.51 90.1547 579.786C90.2151 579.839 90.292 579.92 90.3334 579.988C90.5163 580.29 90.4191 580.635 90.2889 580.963C89.8478 582.074 90.3884 583.294 89.9342 584.403C89.0841 586.479 89.0914 588.777 88.0774 590.676C87.6379 591.5 87.6318 592.637 87.0228 593.344C86.7929 593.611 86.4645 593.819 86.1544 594.048C85.7744 594.328 85.7728 594.849 86.0676 595.218C86.1508 595.322 86.2805 595.431 86.4104 595.541C86.6119 595.71 86.4881 596.043 86.2448 596.143C86.1221 596.194 86.0829 596.146 85.9644 596.086C85.3466 595.774 85.0244 595.635 84.7688 595.78C83.8675 596.292 84.4402 597.748 85.183 598.471C85.7975 599.07 86.0697 599.935 85.892 600.774C85.5658 602.314 85.2211 603.788 84.7505 605.364C84.5751 606.044 84.4343 606.413 84.0475 606.771C83.0578 607.686 82.2559 608.794 82.4289 610.131C82.5356 610.955 82.2732 611.768 81.7568 612.419C81.3858 612.887 81.043 613.346 80.7587 613.878C80.5288 614.234 80.4661 614.798 80.5914 615.384C80.6959 616.158 81.9706 616.681 81.2809 617.748C80.9943 618.191 80.7889 618.569 80.7457 618.984C80.6887 619.531 81.2081 620.207 80.7792 620.551C78.5013 622.204 80.0684 625.237 78.501 627.35C78.2711 627.705 78.5636 628.5 78.689 629.086C79.0697 630.464 77.7092 631.733 77.759 633.162C77.8324 635.271 77.5203 637.337 76.5987 639.336C76.327 640.068 76.4105 641.03 76.1179 641.951C75.8044 643.059 76.2223 644.44 75.3446 645.486C74.7956 646.207 75.6968 646.576 75.7832 647.078C75.8251 647.322 75.6596 647.55 75.5584 647.775C75.3089 648.331 74.9666 648.876 74.6158 649.42C74.5501 649.522 74.4318 649.574 74.3108 649.582C74.1714 649.592 74.0511 649.625 73.9235 649.65C73.7863 649.676 73.6819 649.839 73.7691 649.948C73.8232 650.015 73.9368 650.045 74.0034 649.989C74.0805 649.925 74.1582 649.856 74.2374 649.773C74.4184 649.582 74.7044 649.519 74.9142 649.678C74.9445 649.7 74.9753 649.723 75.0071 649.746C75.2985 649.957 75.4205 650.358 75.2254 650.66C74.9155 651.139 74.6056 651.619 74.2958 652.098C74.2425 652.18 74.1959 652.267 74.151 652.354C74.0739 652.505 73.9858 652.654 73.8989 652.803C73.5155 653.46 73.2998 654.218 73.2689 654.978C73.2548 655.324 73.2639 655.649 73.2334 655.924C73.1157 656.984 72.482 657.973 72.988 658.911C73.3565 659.594 73.7481 660.21 73.4212 661.091C72.9196 662.179 73.3374 663.56 73.212 664.689C73.0866 665.819 72.5849 666.907 72.0624 668.183C71.5608 669.27 70.3278 670.087 70.3487 671.614C70.4113 672.764 69.5336 673.81 69.1991 675.107C68.3004 678.057 67.7777 681.048 66.6909 683.977C66.1475 685.441 65.9803 686.947 66.5444 688.725C66.7723 689.79 67.311 690.889 66.1827 691.804C65.9373 692.002 65.6619 692.184 65.5835 692.49C65.5674 692.553 65.5541 692.617 65.5431 692.678C65.5057 692.886 65.4713 693.097 65.4162 693.301C64.9761 694.929 64.8374 695.345 64.1096 696.305C63.6906 696.858 63.803 697.655 64.3685 698.057C64.9889 698.498 65.0247 699.52 65.161 700.269C65.3078 701.075 65.8929 701.91 65.5615 702.719C65.1452 703.736 64.8483 704.766 64.5757 705.798C64.4488 706.279 63.8627 706.767 63.5492 706.381C63.0065 705.713 62.3217 706.086 63.1367 706.362C63.2588 706.404 63.4069 706.446 63.5845 706.497C63.6062 706.503 63.6218 706.506 63.6442 706.509C63.9605 706.544 64.1286 706.915 63.9687 707.191C63.0258 708.812 63.0094 710.654 63.1578 712.363C63.3458 714.099 62.9904 715.584 62.447 717.049C61.611 719.434 60.984 721.651 60.7122 724.098C60.6552 724.612 60.4235 725.105 60.1891 725.659C60.016 726.068 59.4476 726.212 59.0821 725.96C58.6742 725.679 58.1426 725.909 58.0196 726.388C57.7949 727.264 57.6054 728.071 57.5146 728.889C57.3891 730.019 57.6398 731.19 57.4935 732.508C57.3879 733.459 56.2242 733.961 56.1814 734.917C56.1655 735.271 56.3078 735.642 56.532 736.022C57.3261 737.445 57.1588 738.951 57.0124 740.269C56.934 740.975 56.0584 741.064 55.5529 741.563C54.949 742.16 55.7343 743.206 55.6539 743.93C55.399 745.229 55.3766 746.748 54.785 747.985C53.9436 749.744 52.9221 751.384 52.7069 753.322C52.5046 755.144 52.5149 757.037 52.4074 758.867C52.3671 759.553 52.2033 760.3 52.0168 761.25C51.5361 763.865 50.1358 766.187 49.2789 768.76C48.7197 770.837 48.4407 772.944 48.1866 775.176C48.1191 775.769 48.5418 776.341 49.1174 776.498C49.4961 776.6 49.8579 776.848 49.9047 777.238C50.0377 778.344 49.1909 779.138 48.6522 780.13C48.3858 780.62 47.8098 780.949 47.2746 780.791C46.9439 780.694 46.6702 780.83 46.4565 781.1C46.0665 781.594 45.7207 782.144 45.3254 782.631C45.1403 782.859 44.9533 783.087 44.8023 783.339C44.2339 784.288 43.8275 785.273 43.6983 786.437C43.1757 789.428 42.674 792.232 41.9633 795.202C41.9216 795.577 42.5802 795.639 42.7673 795.31C43.622 793.811 44.1918 792.279 44.3668 790.704C44.4871 789.62 44.7374 788.551 45.0991 787.473C45.5501 786.128 47.1969 786.425 46.603 787.713C45.0052 791.046 45.003 794.557 44.5226 798.163C44.446 798.738 44.0405 799.151 43.473 799.271C43.3043 799.307 43.1323 799.404 43.1124 799.575C43.0841 799.819 43.1818 800.157 43.3005 800.306C44.2221 801.266 44.3819 802.141 44.1607 803.253C44.1102 803.507 44.0528 803.76 44.0809 804.017C44.1362 804.523 44.1873 805.036 44.2353 805.542C44.456 807.87 43.986 810.343 44.1159 812.646C44.1356 812.995 44.1372 813.345 44.0986 813.693C44.0539 814.096 43.9557 814.491 43.832 814.877C42.9439 817.651 42.9174 820.677 42.2335 823.63C42.1917 824.006 42.1499 824.383 41.92 824.738C41.6363 825.177 41.2888 825.537 40.9072 825.954C40.4851 826.416 39.7636 826.493 39.2849 826.091C39.1515 825.979 39.0181 825.867 38.8847 825.754C38.7176 825.614 38.4064 825.693 38.276 825.868C38.1644 826.018 38.2317 826.135 38.3268 826.296C39.4016 828.116 38.6811 830.375 39.5582 832.29C39.8792 833.162 38.6677 833.662 38.0653 834.369C37.3123 835.254 37.2627 836.546 36.8965 837.727C36.8613 837.84 36.8571 837.907 36.8049 838.014C36.615 838.402 36.1433 838.656 35.7222 838.753C35.4901 838.806 35.2704 838.861 35.0767 838.919C34.9011 838.971 34.6785 839.039 34.6114 839.209C34.5704 839.313 34.5649 839.414 34.5436 839.524C34.3994 840.27 34.5924 841.742 35.0254 842.685C35.3085 843.302 36.0812 843.822 36.611 843.398C36.82 843.231 37.0499 842.875 37.0917 842.499C37.1091 842.343 37.1022 842.184 37.0923 842.03C37.0156 840.84 38.5767 841.144 38.8263 842.31C39.3353 846.082 39.3283 846.356 35.6897 847.375C35.4987 847.429 35.2117 847.427 35.1898 847.624C35.1898 847.624 35.1898 847.624 35.1898 847.624C35.1688 847.812 34.939 848.168 34.9181 848.356C34.9179 851.787 34.7506 855.008 33.4339 858.292C32.6396 860.301 32.953 862.622 32.7021 864.882C32.6845 865.04 32.6336 865.195 32.5775 865.349C32.4507 865.697 32.0206 865.935 31.6702 865.815C31.3198 865.695 31.1283 865.357 31.199 864.994C31.3819 864.054 31.6487 863.094 31.2603 862.434C30.4872 860.824 31.0724 858.983 30.6754 857.414C30.4036 856.676 31.1329 856.021 31.4408 855.296C32.0223 853.928 31.3686 852.624 30.5921 851.306C30.0674 850.535 29.7157 849.674 29.5593 848.785C29.2961 847.288 30.3955 846.144 31.8678 845.767C32.0115 845.731 32.1519 845.688 32.2872 845.636C33.259 845.259 33.285 844.021 33.1217 842.992C32.9023 841.609 32.8012 840.166 32.7283 838.652C32.7023 838.112 33.1619 837.716 33.6826 837.86C34.0725 837.967 34.4544 837.736 34.5836 837.353C34.8687 836.507 35.1111 835.647 35.3859 834.745C35.6367 833.922 35.3945 832.987 34.6926 832.489C34.0736 832.051 33.7111 831.369 33.7065 830.611C33.701 829.713 33.713 828.823 33.9346 827.979C34.3349 826.454 35.2041 825.034 35.2717 823.459C35.2938 822.943 35.3223 822.428 35.3792 821.915C35.3942 820.558 35.3985 820.168 35.8851 819.419C36.3746 818.665 36.5618 817.809 36.274 816.958C36.0172 816.198 36.1784 815.315 36.5482 814.603C37.5063 812.759 37.7476 810.673 37.7837 808.535C37.7976 807.705 38.2795 806.984 39.0824 806.772C40.0575 806.515 40.7678 805.526 40.4891 804.556C40.291 803.867 40.0513 803.221 39.7242 802.626C39.4326 802.097 39.4005 801.468 39.8371 801.05C40.426 800.486 40.3341 799.488 39.5848 799.166C39.456 799.111 39.3335 799.058 39.2177 799.008C39.002 798.915 38.8021 798.772 38.7143 798.554C38.4413 797.877 38.6233 796.873 39.1421 796.604C39.7061 796.288 40.0957 795.923 40.3826 795.505C41.2596 794.227 40.9717 792.04 39.5185 791.5C38.7984 791.296 38.7497 790.845 38.6602 790.433C38.6177 790.238 38.8194 789.967 39.0071 790.036C39.0244 790.042 39.0417 790.048 39.059 790.054C39.2093 790.108 39.2801 789.949 39.1215 789.931C39.1215 789.931 39.1215 789.931 39.1215 789.931C38.8099 789.897 38.5722 789.613 38.638 789.307C38.6581 789.213 38.6823 789.129 38.712 789.066C38.7663 788.95 38.9127 788.926 39.0309 788.878C40.1253 788.437 40.8856 787.762 41.0443 786.333C41.1207 785.645 41.7516 785.159 42.066 784.543C42.7661 783.17 42.9482 781.659 42.4865 780.204C42.2149 779.221 42.6747 778.509 42.9464 777.777C43.1953 776.897 44.0504 777.045 44.7268 776.704C45.0804 776.525 45.1637 776.09 45.088 775.702C45.0406 775.458 44.9911 775.212 44.9397 774.961C44.676 773.675 42.7242 773.726 42.4166 775.003C42.2678 775.62 41.5255 775.981 41.3392 775.373C41.2874 775.205 41.2772 775.024 41.2649 774.862C41.2482 774.643 41.2133 774.423 41.2156 774.203C41.2344 772.43 41.2564 770.807 41.6303 769.055C41.9857 767.312 42.5978 765.735 43.1585 763.94C43.3173 763.431 43.8221 763.145 44.3112 763.357C44.7831 763.561 45.4472 763.273 45.2569 762.795C45.0989 762.399 44.7251 762.162 44.2952 761.935C43.9615 761.76 43.6435 761.506 43.5784 761.135C43.4883 760.621 43.6565 759.97 44.0953 758.736C44.4186 757.827 45.2743 757.514 45.4275 758.466C45.4433 758.564 45.4743 758.662 45.4981 758.759C45.5922 759.141 45.577 759.626 45.873 759.996C45.974 760.123 46.2122 760.264 46.4311 760.32C46.6639 760.379 46.9334 760.248 47.0915 760.067C47.328 759.797 47.2895 759.41 47.1956 759.063C46.9124 758.017 47.6727 757.008 47.4405 756.168C47.1898 754.997 48.2347 754.16 47.6078 752.947C47.5253 752.816 47.4794 752.689 47.4619 752.566C47.2304 750.934 48.0649 749.53 48.4418 747.925C48.7569 746.583 49.475 745.334 49.7399 744.035C49.9023 743.524 49.8329 742.988 49.6962 742.411C49.567 741.866 48.8667 741.615 48.5011 742.039C48.1678 742.426 47.435 742.336 47.3377 741.835C47.2131 741.193 47.1451 740.703 47.2823 740.245C47.3025 740.178 47.3234 740.11 47.3376 740.041C47.7149 738.206 47.7693 736.158 48.5283 734.371C49.3016 732.551 49.7197 730.501 50.1168 728.639C50.5349 726.589 50.953 724.539 51.5591 722.51C51.9924 721.147 52.1278 719.647 52.2538 718.196C52.3349 717.261 52.9686 716.465 53.4901 715.685C53.8458 715.153 54.1279 714.488 54.4316 713.759ZM103.022 473.41C103.007 473.544 103.088 473.69 103.128 473.831C103.153 473.919 103.073 473.987 102.982 473.977C102.835 473.961 102.752 473.746 102.834 473.622C102.882 473.55 102.936 473.478 103.022 473.41C103.744 473.743 104.578 473.326 104.609 472.531C104.621 472.239 104.617 471.966 104.592 471.695C104.579 471.555 104.573 471.413 104.6 471.276C104.628 471.137 104.667 471.016 104.715 470.912C105.155 469.958 105.845 469.139 105.209 468.304C105.115 468.181 105.026 468.056 104.941 467.927C104.848 467.786 104.781 467.672 104.62 467.725C104.519 467.758 104.384 467.899 104.354 468.001C104.093 468.89 103.948 469.923 103.356 470.397C102.291 471.423 102.938 472.447 103.022 473.41ZM97.191 481.339C99.5942 481.987 99.5942 481.987 99.3224 484.434C99.2165 485.388 100.341 484.522 100.701 483.632C101.372 481.975 102.804 480.494 102.68 478.36C102.652 477.871 102.236 477.518 101.754 477.433C101.568 477.4 101.383 477.364 101.194 477.327C100.392 477.17 99.9596 478.155 100.47 478.794C100.737 479.128 100.665 479.509 100.376 479.823C99.4369 480.842 98.498 481.32 97.191 481.339C97.4418 480.795 97.8598 480.46 98.1106 479.916C98.539 478.987 97.2264 479.611 97.2257 480.635C97.2255 480.883 97.2153 481.12 97.191 481.339ZM501.297 312.567C500.405 313.281 499.733 313.03 499.172 312.035C499.047 311.813 498.915 311.583 498.768 311.333C497.619 309.681 496.261 308.196 495.091 306.732C494.108 305.288 492.541 303.971 492.332 302.423C491.977 300.478 489.929 300.06 489.344 298.47C489.161 298.115 488.777 297.803 488.428 297.484C487.967 297.064 487.777 296.454 487.509 295.891C487.093 295.017 486.44 294.462 485.68 294.12C484.678 293.669 483.69 293.074 483.209 292.085C483.179 292.025 483.15 291.964 483.121 291.904C481.96 289.527 478.282 289.737 478.524 292.371C478.545 292.594 478.607 292.802 478.672 293.017C478.759 293.306 478.792 293.588 478.624 293.849C477.245 295.983 478.143 298.179 478.08 300.459C478.08 302.174 478.08 303.89 477.14 305.5C476.429 306.756 476.074 308.241 476.471 309.81C476.951 312.341 476.679 314.788 475.843 317.173C475.342 318.261 475.007 319.558 475.822 320.792C476.5 322.104 475.577 323.544 475.51 325.019C475.444 326.489 475.977 327.967 475.822 329.368C475.675 330.686 476.302 331.899 476.135 333.405C475.989 334.723 476.03 336.062 476.26 337.421C476.511 338.593 476.574 339.743 476.051 341.019C475.994 341.172 475.943 341.351 475.907 341.544C475.602 343.183 477.384 344.445 477.2 346.102C477.012 347.797 477.2 349.533 477.2 351.248C477.097 352.172 478.139 352.817 478.6 353.624C478.685 353.773 478.752 353.927 478.788 354.093C478.859 354.916 479.122 355.587 479.495 356.17C480.372 357.541 480.409 359.348 481.086 360.828C481.734 361.853 482.34 363.254 482.027 364.363C481.567 366.789 482.507 368.609 483.238 370.596C484.137 372.793 484.429 375.303 485.119 377.666C485.516 379.235 485.745 380.595 486.581 381.64C486.916 382.059 487.417 382.686 487.354 383.251C487.35 383.295 487.346 383.339 487.342 383.382C487.231 384.941 488.852 386.003 489.532 387.41C489.771 387.905 489.973 388.451 490.134 389.087C490.384 390.258 491.22 391.304 491.868 392.329C492.85 393.772 493.832 395.215 494.626 396.637C495.859 399.252 497.844 400.235 500.582 399.586C501.167 399.46 501.522 399.69 501.878 399.92C503.466 401.05 503.863 400.903 505.347 399.543C506.519 398.369 508.612 399.441 509.996 398.527C511.223 397.718 512.28 396.728 512.703 395.024C512.785 394.28 513.686 393.899 514.011 393.226C514.221 392.792 514.336 392.321 514.396 391.781C514.584 390.087 514.772 388.392 515.148 386.719C515.304 385.311 516.014 384.081 516.412 382.722C516.803 381.39 516.877 379.972 516.723 378.524C516.694 378.256 516.586 377.932 516.588 377.663C516.59 377.265 516.902 377.016 517.065 376.653C517.653 375.342 517.485 373.835 517.301 372.473C517.113 370.737 517.845 369.294 517.824 367.767C517.832 367.698 517.811 367.651 517.784 367.611C517.681 367.461 517.674 367.278 517.666 367.097C517.578 365 517.49 362.908 517.388 360.933C517.37 360.582 517.677 360.301 517.961 360.507C518.218 360.692 518.669 360.633 518.712 360.32C518.773 359.875 518.764 359.46 518.645 359.098C518.397 358.344 518.172 357.434 518.335 356.657C518.407 356.313 518.362 355.953 518.138 355.545C518.086 355.45 518.032 355.354 517.991 355.254C516.905 352.639 516.808 349.66 515.798 347.018C515.68 346.709 515.474 346.473 515.476 346.143C515.477 345.938 515.501 345.679 515.487 345.475C515.418 344.46 515.246 343.605 514.105 342.958C513.562 342.707 513.103 341.703 513.165 341.139C513.437 338.691 512.267 337.227 510.93 335.554C509.404 333.86 508.276 332.019 507.962 329.697C507.732 328.338 507.273 327.334 506.625 326.309C505.81 325.075 504.995 323.841 504.577 322.46C503.788 319.713 503.774 319.235 502.464 317.844C501.834 317.176 501.572 316.296 501.985 315.476C502.351 314.751 502.434 313.777 501.943 313.129C501.751 312.875 501.548 312.683 501.297 312.567C501.181 312.028 501.11 311.453 501.045 310.858C500.915 309.678 499.063 308.966 499.394 310.106C499.432 310.238 499.501 310.32 499.588 310.426C500.215 311.187 500.847 311.804 501.297 312.567ZM122.758 394.514C121.996 393.8 121.266 392.861 121.359 391.821C121.377 391.627 121.413 391.427 121.479 391.219C121.792 390.111 122.273 389.211 122.586 388.103C122.957 387.197 123.339 386.196 123.245 385.183C123.171 384.388 122.542 384.129 122.4 384.914C122.383 385.009 122.337 385.072 122.294 385.157C122.037 385.655 121.647 386.138 121.416 386.639C121.006 387.528 120.233 388.249 120.193 389.238C120.174 389.71 120.364 390.209 120.067 390.576C119.913 390.766 119.714 390.93 119.599 391.146C119.365 391.583 119.401 392.05 119.807 392.559C120.436 393.346 120.136 394.445 119.965 395.439C119.82 396.283 119.571 397.08 118.678 397.579C118.072 397.893 117.988 398.646 118.511 399.085C119.033 399.524 119.639 399.21 120.078 398.687C120.35 398.364 120.621 398.041 120.897 397.673C121.121 397.374 121.636 397.519 121.752 397.873C121.872 398.237 122.336 398.251 122.549 397.933C123.125 397.071 123.4 396.329 123.266 395.638C123.211 395.352 123.17 395.038 123.007 394.795C122.944 394.701 122.859 394.608 122.758 394.514ZM54.8333 742.256C55.141 741.615 55.1074 740.836 54.8221 740.184C54.7683 740.061 54.7467 739.951 54.7275 739.818C54.6291 739.14 54.5165 738.59 54.4213 737.885C54.361 737.191 53.9857 736.66 53.5068 736.316C53.1449 736.056 52.7419 735.837 52.313 735.716C52.0376 735.639 51.7693 735.644 51.5263 735.767C51.0459 736.01 50.9791 736.642 51.0154 737.179C51.0691 737.973 51.155 738.808 51.2126 739.608C51.2502 740.129 51.7841 740.513 52.2976 740.415C52.8186 740.316 53.2448 740.695 53.2438 741.225C53.2433 741.477 53.2389 741.728 53.2373 741.979C53.2333 742.645 53.8113 743.362 54.3394 742.956C54.554 742.792 54.6979 742.538 54.8333 742.256ZM97.5783 495.049C97.2535 496.401 98.8592 497.769 98.976 496.384C98.9905 496.212 98.9614 496.122 98.9792 495.951C99.0335 495.425 99.2584 495.159 99.561 494.988C100.486 494.468 100.853 493.62 100.206 492.778C99.4953 491.854 98.1654 492.399 97.9207 493.539C97.8106 494.052 97.6978 494.552 97.5783 495.049ZM72.3955 649.133C72.3312 649.023 72.2205 648.948 72.0997 648.987C71.8879 649.054 71.6883 649.264 71.6637 649.485C71.5805 650.234 71.4973 650.983 71.4141 651.732C71.4011 651.849 71.3767 651.965 71.3404 652.077C71.3254 652.124 71.3104 652.17 71.2955 652.216C70.9332 653.325 71.5539 653.993 72.0423 652.933C72.1159 652.774 72.2218 652.618 72.3507 652.464C72.9704 651.726 73.322 650.772 72.8542 649.93C72.7071 649.665 72.552 649.399 72.3955 649.133ZM107.498 484.968C106.9 486.289 109.005 486.799 109.298 485.379C109.313 485.309 109.324 485.238 109.332 485.164C109.374 484.788 108.873 484.16 108.685 484.14C108.576 484.128 108.267 484.22 108.02 484.336C107.756 484.46 107.619 484.703 107.498 484.968ZM71.1703 661.122C70.7938 661.94 72.292 661.93 72.3022 661.03C72.3095 660.379 71.5512 660.391 71.247 660.967C71.2198 661.018 71.1943 661.07 71.1703 661.122ZM128.576 373.861C129.065 374.444 130.052 374.37 130.466 373.731C130.86 373.121 130.771 372.162 130.05 372.071C129.584 372.012 129.173 372.263 128.668 372.769C128.255 373.1 128.178 373.386 128.576 373.861ZM107.433 449.123C106.769 449.368 106.672 450.245 107.265 450.629C107.824 450.991 108.201 450.861 108.551 450.535C108.752 450.347 108.985 450.145 109.015 449.871C109.046 449.596 108.874 449.332 108.668 449.149C108.346 448.863 107.902 448.88 107.433 449.123ZM105.419 441.455C105.524 441.973 106.15 442.133 106.504 441.74C106.834 441.372 106.839 441.109 106.468 440.765C106.006 440.336 105.294 440.837 105.419 441.455ZM132.72 345.344C132.103 345.426 131.938 346.269 132.366 346.72C132.764 347.14 133.405 346.909 133.579 346.357C133.596 346.303 133.613 346.249 133.629 346.196C133.768 345.723 133.41 345.271 132.92 345.32C132.855 345.326 132.788 345.334 132.72 345.344ZM61.3097 688.875C61.7677 689.516 62.7732 688.563 62.5978 687.795C62.4394 687.101 61.4908 687.34 61.2837 688.021C61.1674 688.403 61.1709 688.681 61.3097 688.875ZM124.567 378.486C124.623 379.046 125.378 379.177 125.817 378.826C125.917 378.746 125.94 378.692 125.985 378.572C126.131 378.177 126.144 377.788 125.79 377.527C125.61 377.394 125.373 377.367 125.169 377.459C125.052 377.511 124.931 377.581 124.837 377.653C124.701 377.758 124.616 377.925 124.58 378.094C124.555 378.209 124.552 378.341 124.567 378.486ZM119.55 386.299C119.604 385.813 119.031 385.432 118.707 385.799C118.405 386.141 118.427 386.345 118.701 386.606C119.006 386.897 119.503 386.718 119.55 386.299ZM633.914 71.7118C634.233 71.7304 634.387 71.271 634.199 71.0121C634.184 70.9914 634.166 70.9741 634.147 70.958C633.657 70.5613 633.131 70.4962 632.551 70.9157C632.494 70.9574 632.458 71.0228 632.45 71.0933C632.434 71.2404 632.54 71.3742 632.683 71.4113C633.023 71.4996 633.421 71.6612 633.717 71.694C633.769 71.6998 633.836 71.7072 633.914 71.7118ZM106.858 456.712C107.039 456.14 106.373 455.697 106.143 456.25C106.076 456.412 106.032 456.588 106.011 456.779C106.006 456.828 106.013 456.878 106.026 456.925C106.076 457.101 106.262 457.185 106.439 457.143C106.442 457.142 106.444 457.142 106.447 457.141C106.637 457.094 106.799 456.899 106.858 456.712ZM322.229 195.672C322.593 195.712 322.747 195.189 322.381 195.168C322.277 195.162 322.174 195.176 322.071 195.217C321.82 195.315 321.961 195.642 322.229 195.672ZM59.3442 715.311C59.0932 714.99 58.553 714.845 58.4561 715.241C58.4106 715.427 58.4025 715.613 58.4284 715.806C58.5234 716.512 59.5315 716.293 59.4333 715.587C59.4287 715.554 59.4237 715.522 59.418 715.489C59.405 715.414 59.391 715.37 59.3442 715.311ZM488.146 287.792C488.078 287.255 487.233 286.807 486.98 287.285C486.941 287.359 486.941 287.38 486.92 287.461C486.78 287.997 487.232 288.706 487.756 288.764C487.945 288.785 488.153 288.618 488.174 288.429C488.193 288.259 488.178 288.046 488.146 287.792ZM36.6829 832.01C36.7027 832.103 36.787 832.173 36.8811 832.183C37.0018 832.197 37.1031 832.109 37.1165 831.988C37.1712 831.496 37.2258 831.004 37.2804 830.513C37.3013 830.324 36.9461 830.094 36.758 830.073C36.6688 830.063 36.5702 830.138 36.4889 830.24C36.3248 830.445 36.369 830.724 36.4394 830.977C36.5247 831.284 36.6041 831.644 36.6829 832.01ZM87.7834 560.054C88.0541 559.914 88.221 559.581 88.0653 559.319C87.9594 559.141 87.8222 559.011 87.6159 558.988C87.5249 558.978 87.3802 559.051 87.255 559.129C87.092 559.231 87.0015 559.412 87.0498 559.598C87.0633 559.65 87.0796 559.705 87.098 559.763C87.1899 560.054 87.5124 560.195 87.7834 560.054ZM98.1813 489.99C98.2405 490.409 98.9257 490.437 99.2923 490.225C99.5886 490.054 99.5099 489.763 99.349 489.462C99.3409 489.446 99.3329 489.432 99.3248 489.417C99.2394 489.261 99.077 489.168 98.9016 489.137C98.5498 489.076 98.1403 489.037 98.1636 489.544C98.1666 489.609 98.1679 489.676 98.166 489.741C98.1637 489.823 98.1694 489.906 98.1813 489.99ZM84.5625 604.914C84.6376 605.008 84.8405 605.072 84.9168 604.979C85.1299 604.719 85.4083 604.467 85.5976 604.205C85.6295 604.161 85.6262 604.101 85.5921 604.058C85.538 603.99 85.4327 603.995 85.3793 604.063C85.1934 604.302 84.9443 604.533 84.7497 604.77C84.6733 604.863 84.4874 604.82 84.5625 604.914ZM377.002 195.753C376.583 195.778 376.617 196.382 376.951 196.636C377.041 196.704 377.131 196.772 377.226 196.837C377.406 196.959 377.708 196.765 377.82 196.578C377.872 196.492 377.842 196.457 377.801 196.365C377.617 195.958 377.354 195.732 377.002 195.753ZM100.554 475.018C100.522 475.177 100.571 475.516 100.713 475.593C100.764 475.621 100.816 475.642 100.869 475.648C100.923 475.654 100.965 475.628 101.002 475.583C101.133 475.425 100.983 475.003 100.795 474.923C100.78 474.916 100.765 474.91 100.75 474.904C100.657 474.867 100.573 474.92 100.554 475.018ZM469.895 373.397C469.64 373.714 469.681 374.428 470.077 374.521C470.231 374.557 470.335 374.485 470.458 374.385C470.653 374.227 470.873 373.931 470.888 373.799C470.909 373.61 470.386 373.171 470.198 373.15C470.113 373.141 470.015 373.247 469.895 373.397ZM64.2814 705.025C64.4496 704.995 64.4731 704.784 64.4134 704.624C64.3809 704.537 64.3523 704.45 64.2961 704.361C64.266 704.313 64.2127 704.283 64.1566 704.291C64.1495 704.292 64.1425 704.293 64.1354 704.294C63.9563 704.329 63.8848 704.679 63.9478 704.85C63.9869 704.956 64.0642 705.037 64.1773 705.034C64.2117 705.034 64.2464 705.031 64.2814 705.025ZM107.596 472.618C107.372 472.691 107.177 472.983 107.242 473.21C107.243 473.214 107.244 473.219 107.246 473.223C107.297 473.396 107.507 473.426 107.666 473.341C107.794 473.273 107.933 473.205 108.051 473.136C108.146 473.079 108.206 473.042 108.172 472.937C108.113 472.755 107.868 472.526 107.687 472.588C107.656 472.598 107.626 472.609 107.596 472.618ZM131.11 365.988C130.497 365.934 130.188 367.22 130.8 367.288C130.988 367.309 131.406 366.974 131.427 366.786C131.448 366.597 131.323 366.012 131.135 365.991C131.126 365.99 131.118 365.989 131.11 365.988ZM125.617 374.526C125.599 374.691 125.819 374.604 125.909 374.465C125.942 374.414 125.974 374.364 125.999 374.312C126.028 374.249 125.939 374.17 125.879 374.135C125.782 374.077 125.659 374.153 125.646 374.265C125.637 374.352 125.627 374.439 125.617 374.526ZM124.976 388.868C125.024 388.96 125.193 388.982 125.249 388.896C125.292 388.828 125.338 388.76 125.365 388.69C125.385 388.637 125.367 388.579 125.331 388.535L125.271 388.459C125.238 388.418 125.189 388.386 125.138 388.401C125.079 388.418 125.038 388.466 124.991 388.526C124.927 388.607 124.929 388.777 124.976 388.868ZM92.6057 539.095C92.5567 539.01 92.4452 538.999 92.357 539.042C92.2283 539.105 92.1039 539.128 91.973 539.21C91.9251 539.24 91.8952 539.294 91.9033 539.35C91.9082 539.383 91.917 539.418 91.9279 539.452C91.9733 539.597 92.2824 539.685 92.4103 539.604C92.5381 539.523 92.6888 539.243 92.6148 539.111C92.6118 539.106 92.6088 539.1 92.6057 539.095ZM107.215 452.899C107.176 452.93 107.197 452.938 107.203 452.987C107.215 453.08 107.257 453.176 107.29 453.271C107.317 453.351 107.44 453.405 107.506 453.352C107.526 453.336 107.538 453.314 107.541 453.289C107.55 453.209 107.559 453.127 107.57 453.029C107.589 452.861 107.347 452.794 107.215 452.899ZM104.321 462.846C104.055 462.9 103.994 463.326 104.093 463.579C104.125 463.659 104.147 463.649 104.23 463.674C104.618 463.791 105.26 463.538 105.279 463.369C105.293 463.242 105.137 463.097 104.976 463.008C104.845 462.936 104.702 462.843 104.553 462.828C104.484 462.821 104.406 462.828 104.321 462.846ZM654.84 82.3909C654.743 82.4683 654.654 82.6705 654.692 82.7882C654.754 82.978 654.77 83.1803 654.906 83.1954C654.979 83.2035 655.053 83.2117 655.127 83.2087C655.346 83.1999 655.388 82.925 655.287 82.7306C655.25 82.6596 655.213 82.587 655.175 82.5178C655.103 82.3829 654.959 82.2952 654.84 82.3909ZM464.693 314.889C464.445 314.996 464.492 315.445 464.741 315.549C464.861 315.599 464.845 315.517 464.957 315.452C465.076 315.383 465.214 315.316 465.34 315.248C465.492 315.166 465.452 314.894 465.345 314.759C465.261 314.655 465.184 314.695 465.059 314.743C464.931 314.791 464.807 314.839 464.693 314.889ZM105.54 460.769C105.637 460.826 105.805 460.762 105.867 460.667C105.908 460.603 105.949 460.54 105.972 460.474C105.989 460.427 105.972 460.376 105.941 460.337C105.876 460.255 105.756 460.241 105.676 460.309C105.568 460.401 105.473 460.494 105.422 460.592C105.39 460.654 105.48 460.733 105.54 460.769ZM49.7549 763.096C49.8252 763.104 49.907 763.054 49.925 762.986C49.9295 762.969 49.9351 762.954 49.9428 762.94C49.9897 762.853 49.9017 762.731 49.8035 762.72C49.7427 762.713 49.7513 762.764 49.7504 762.826C49.7502 762.835 49.7504 762.843 49.751 762.851C49.7589 762.965 49.6417 763.083 49.7549 763.096ZM361.4 190.436C361.396 190.467 361.418 190.494 361.449 190.498C361.498 190.503 361.529 190.446 361.498 190.408C361.467 190.369 361.405 190.387 361.4 190.436ZM485.896 291.797C485.896 291.798 485.896 291.798 485.896 291.798C485.991 291.808 486.091 291.771 486.191 291.734C486.346 291.677 486.314 291.463 486.314 291.463C486.22 291.452 486.12 291.489 486.02 291.526C486.02 291.526 485.896 291.797 485.896 291.797ZM43.9132 808.148C43.9403 808.182 43.9754 808.17 44.0092 808.143L44.0958 808.073C44.1349 808.042 44.1626 807.995 44.1498 807.947C44.1374 807.9 44.106 807.844 44.0284 807.823C44.0042 807.816 43.9787 807.824 43.9591 807.84L43.9285 807.864C43.874 807.908 43.8696 808.094 43.9132 808.148ZM38.6588 847.247C38.494 847.228 38.3062 846.993 38.3245 846.828C38.3014 847.036 38.4511 847.224 38.6588 847.247ZM339.451 199.49C339.469 199.327 339.627 199.18 339.683 199.022C339.7 198.975 339.684 198.924 339.653 198.885C339.587 198.803 339.468 198.791 339.375 198.838C339.346 198.853 339.319 198.865 339.294 198.877C339.155 198.944 339.253 199.09 339.353 199.207C339.421 199.287 339.462 199.391 339.451 199.49ZM46.0306 767.914C45.9819 767.97 45.9726 768.055 46.0188 768.112C46.065 768.17 46.1493 768.18 46.207 768.133L46.2503 768.099C46.2894 768.067 46.3191 768.021 46.3074 767.972C46.2782 767.851 46.1475 767.811 46.1652 767.652C46.154 767.753 46.0887 767.848 46.0306 767.914ZM173.697 267.324C173.693 267.376 173.729 267.422 173.781 267.428C173.833 267.434 173.88 267.397 173.886 267.345C173.889 267.317 173.892 267.285 173.896 267.25C173.908 267.146 173.833 267.053 173.729 267.041C173.682 267.036 173.635 267.031 173.541 267.02C173.698 267.038 173.709 267.171 173.697 267.324ZM41.076 809.897C41.0079 809.687 40.6276 809.778 40.5348 809.979C40.5285 809.992 40.5228 810.006 40.5178 810.02C40.501 810.067 40.5173 810.118 40.5486 810.157C40.6139 810.239 40.7335 810.251 40.8267 810.204C40.9642 810.134 41.0695 810.108 41.0848 809.97C41.0875 809.946 41.0841 809.922 41.076 809.897ZM35.6699 847.84C35.7019 847.918 35.8248 847.973 35.8906 847.92C35.9102 847.904 35.9227 847.882 35.9216 847.857C35.9193 847.807 35.9062 847.716 35.849 847.61C35.8139 847.545 35.7281 847.536 35.6704 847.582L35.6647 847.586C35.6102 847.63 35.6027 847.709 35.6365 847.771C35.6498 847.795 35.6608 847.818 35.6699 847.84ZM118.412 389.474C118.38 389.322 118.195 389.399 118.052 389.458C118.007 389.477 117.962 389.492 117.917 389.509C117.738 389.577 117.631 389.839 117.822 389.86C117.822 389.86 117.822 389.86 117.822 389.86C117.945 389.874 118.067 389.888 118.196 389.849C118.344 389.804 118.444 389.625 118.412 389.474ZM79.0667 598.253L79.2757 598.085L79.0667 598.253ZM99.0424 473.66C99.0833 473.742 99.1849 473.671 99.1951 473.58C99.2014 473.522 99.2078 473.465 99.2142 473.407C99.2235 473.324 99.1268 473.27 99.061 473.323C99.0414 473.339 99.0288 473.362 99.0262 473.386C99.0151 473.491 99.0085 473.592 99.0424 473.66ZM92.9176 534.038C92.9667 534.043 92.9979 533.987 92.967 533.948C92.9362 533.91 92.874 533.928 92.8686 533.977C92.8652 534.007 92.8871 534.035 92.9176 534.038ZM100.722 495.834C100.73 495.765 100.65 495.721 100.595 495.764C100.561 495.791 100.556 495.841 100.583 495.874C100.626 495.929 100.714 495.904 100.722 495.834ZM108.1 440.527C108.15 440.581 108.232 440.593 108.29 440.546C108.348 440.5 108.357 440.416 108.311 440.358C108.265 440.301 108.18 440.291 108.122 440.337C108.01 440.428 107.976 440.455 107.809 440.588C107.975 440.456 108.009 440.428 108.1 440.527Z" fill="#145058"/>
</g>
</svg>
