<svg width="384" height="320" viewBox="0 0 384 320" fill="none" xmlns="http://www.w3.org/2000/svg">
    <mask id="mask0_6147_11591" style="mask-type:alpha" maskUnits="userSpaceOnUse" x="0" y="0" width="384" height="320">
        <rect width="384" height="320" rx="15" fill="#DCDFFB"/>
    </mask>
    <g mask="url(#mask0_6147_11591)">
        <path d="M527.184 -17.8498C526.493 -17.6378 525.664 -18.4235 525.007 -18.7242C524.765 -18.8348 524.448 -18.8349 524.201 -18.7381C523.52 -18.4713 522.815 -18.2902 522.305 -17.3996C521.941 -16.7638 521.059 -16.3136 520.268 -15.9235C519.746 -15.5782 519.147 -15.356 519.204 -14.7331C519.219 -14.5591 519.236 -14.3843 519.255 -14.2057C519.279 -13.9773 519.176 -13.753 518.969 -13.6518C518.887 -13.6114 518.797 -13.5694 518.7 -13.5257C518.365 -13.3746 518.024 -13.6846 518.205 -14.003C518.229 -14.0452 518.238 -14.0769 518.246 -14.1248C518.33 -14.6029 518.24 -14.7934 517.869 -14.8561C517.754 -14.8754 517.681 -14.8763 517.615 -14.7813C517.514 -14.6373 517.31 -14.4628 517.134 -14.4553C516.189 -14.4151 515.452 -13.9173 514.766 -13.3447C514.402 -13.1046 515.082 -12.5873 515.508 -12.4885C515.59 -12.4694 515.661 -12.434 515.731 -12.3789C516.076 -12.1054 515.867 -11.5265 515.474 -11.3282C515.297 -11.2393 515.122 -11.1551 514.952 -11.0953C513.904 -10.649 512.776 -10.4931 511.915 -9.79086C511.787 -9.68657 511.661 -9.56918 511.499 -9.53618C511.326 -9.50106 511.117 -9.51105 510.881 -9.53308C510.278 -9.58925 509.763 -9.36291 509.463 -8.83918C509.163 -8.31545 508.553 -7.95772 507.954 -7.86925C507.512 -7.80401 507.096 -7.64398 506.743 -7.25714C506.596 -7.06941 506.319 -6.98371 506.021 -6.8996C505.752 -6.82336 505.462 -6.76966 505.194 -6.68681C504.952 -6.61193 504.766 -6.45093 504.597 -6.26283C504.305 -5.93781 504.026 -5.5951 503.673 -5.36208C503.217 -5.06108 502.578 -5.03463 502.122 -4.73363C499.903 -3.53207 497.775 -1.99576 495.739 -0.519644C495.101 -0.0982444 494.402 0.231627 493.793 0.106351C493.093 0.0412729 492.82 0.221848 492.425 0.614366C491.888 1.30183 490.609 0.197119 490.121 0.9194C490.112 0.932546 490.103 0.945834 490.095 0.959264C489.689 1.60338 489.537 2.50541 488.789 2.65726C488.569 2.7019 488.347 2.72367 488.125 2.7363C487.349 2.78054 486.639 3.12015 486.071 3.64898C485.726 3.97036 485.383 4.26865 485.068 4.54896C484.519 5.03682 483.749 5.19347 483.388 5.96397C483.35 6.04475 483.335 6.1359 483.279 6.20521C483.136 6.38157 482.855 6.34938 482.637 6.41612C481.313 6.82218 480.29 7.83505 479.111 8.61363C478.381 9.09523 477.681 9.03017 476.921 9.26853C476.495 9.41782 476.192 9.75015 475.857 9.83923C475.678 9.90198 475.515 9.9541 475.355 10.0045C474.928 10.1389 474.518 9.96259 474.099 9.80358C474.018 9.773 473.931 9.74469 473.846 9.73386C473.494 9.68934 473.072 9.99381 473.18 10.1569C473.577 10.9492 473.03 11.3105 472.483 11.6716C472.118 11.9124 471.753 12.1532 471.328 12.3025C469.351 13.0802 467.497 14.041 465.764 15.1848C464.761 15.847 463.545 16.3864 462.176 16.4994C461.233 16.4632 460.473 17.0966 460.17 17.8238C459.685 19.0665 458.865 19.6083 457.648 19.7527C456.766 19.808 455.975 20.1981 455.368 20.8627C454.82 21.4625 453.883 21.4606 453.13 21.771C452.92 21.8576 452.715 21.9567 452.514 22.0667C451.738 22.4932 451.097 23.1506 450.26 23.444C448.953 24.0435 447.798 24.6744 446.673 25.5485C446.413 25.7908 446.092 25.8848 445.649 25.8906C444.757 25.9023 443.944 26.2986 443.35 26.9595C443.207 27.1176 443.052 27.2645 442.879 27.3943C442.421 27.7388 441.98 27.5068 442.264 27.01C442.475 26.6416 442.191 26.1444 441.772 26.2201C441.625 26.2465 441.504 26.2892 441.416 26.3608C441.368 26.3999 441.326 26.4466 441.276 26.4842C440.209 27.2975 439.136 27.7585 437.822 28.0218C437.743 28.0377 437.706 28.0395 437.641 28.0869C437.429 28.2404 437.395 28.6 437.605 28.7556C437.903 28.9755 438.262 29.0203 438.629 29.0455C438.722 29.0518 438.816 29.0622 438.898 29.1061C438.916 29.1158 438.934 29.1264 438.952 29.1377C439.175 29.2743 439.296 29.5556 439.177 29.7876C439.057 30.0223 438.779 30.107 438.547 30.2333C438.178 30.434 437.77 30.6036 437.311 30.8075C436.788 31.0394 436.714 31.0719 436.86 31.8116C436.912 32.0764 436.845 32.3583 436.635 32.5281C436.316 32.7861 435.961 32.9528 435.576 33.0562C435.264 33.14 435.099 32.8109 435.335 32.5908C435.473 32.4625 435.683 32.4702 435.868 32.5094C435.976 32.5325 436.071 32.4902 436.181 32.3646C436.206 32.3356 436.23 32.3228 436.244 32.2874C436.319 32.1076 436.054 31.8421 435.868 31.9007C435.851 31.906 435.836 31.9131 435.821 31.9224C435.571 32.0877 435.269 32.1391 434.969 32.1432C434.785 32.1457 434.615 32.2537 434.453 32.4305C434.336 32.559 433.966 32.9311 433.801 32.874C433.61 32.808 433.409 32.74 433.192 32.6687C433.076 32.6306 432.948 32.6786 432.891 32.7859C432.878 32.8101 432.866 32.8346 432.853 32.8596C432.744 33.0797 432.463 33.2127 432.242 33.1033C432.207 33.0858 432.171 33.0678 432.134 33.049C431.893 32.9275 431.596 33.0293 431.486 33.2746C431.466 33.3194 431.445 33.3645 431.424 33.4102C431.282 33.713 431.397 34.0827 431.706 34.2132C431.769 34.2397 431.832 34.266 431.896 34.2923C432.404 34.5016 432.519 35.1435 432.045 35.42C430.705 36.2012 429.122 36.4259 428.247 37.5206C427.932 37.9142 427.132 38.2279 427.279 37.7464C427.3 37.68 427.323 37.6397 427.346 37.5743C427.418 37.3745 427.485 37.196 427.552 37.0192C427.728 36.5569 428.115 36.2095 428.592 36.0746C428.641 36.0607 428.69 36.0466 428.739 36.0321C429.777 35.7238 429.427 34.5627 428.524 35.1586C427.882 35.5825 427.091 35.7823 426.69 36.4747C426.501 36.8015 426.133 37.0319 425.789 36.872C425.625 36.7959 425.423 36.8031 425.266 36.8917C423.823 37.707 422.331 38.4495 420.894 39.2737C420.138 39.6597 419.584 40.4936 418.732 40.7768C418.445 40.8724 418.035 40.9037 417.976 41.2001C417.958 41.2902 417.908 41.4015 417.877 41.528C417.833 41.7077 417.924 41.9061 418.083 42.0026C418.214 42.0827 418.36 42.038 418.51 42.0049C418.842 41.9318 419.161 41.8384 419.406 41.6354C419.664 41.4223 419.786 41.081 420.043 40.8668C420.334 40.6239 420.699 40.5206 421.17 40.673C421.291 40.7121 421.381 40.7114 421.451 40.6828C422.162 40.3899 422.738 40.1355 422.265 40.7405C421.962 41.0728 421.567 41.4653 421.141 41.6146C420.533 41.8842 419.925 42.1539 419.347 42.2719C418.678 42.4501 418.161 42.6595 417.797 43.2953C417.645 43.6589 417.098 44.0201 416.794 43.9575C415.577 43.7069 414.909 44.675 413.905 44.9423C413.116 45.1523 412.72 45.7897 412.217 46.4297C412.203 46.4473 412.188 46.4644 412.173 46.481C412.138 46.5259 412.101 46.5684 412.063 46.609C411.662 47.0317 411.426 47.593 411.373 48.1726C411.357 48.3457 411.26 48.4203 411.131 48.5373C410.689 48.9383 410.186 49.3403 409.683 49.443C409.171 49.5037 408.72 49.6542 408.318 49.9466C407.957 50.2094 407.715 50.6103 407.342 50.8565C406.757 51.2432 405.811 51.0903 405.426 51.9301C405.354 52.0859 405.286 52.24 405.116 52.2695C405.059 52.2795 404.972 52.271 404.915 52.2741C404.437 52.3001 403.99 52.3734 403.523 52.4154C403.331 52.4327 403.177 52.2293 403.123 52.0452C403.101 51.9702 403.041 51.945 402.964 51.9313C402.558 51.8594 402.205 51.8523 401.928 51.7953C401.631 51.734 401.623 50.9781 401.055 51.1957C401.028 51.206 401.016 51.2116 400.992 51.2272C400.752 51.3839 400.503 51.6541 400.492 51.9399C400.488 52.0345 400.488 52.1268 400.499 52.2118C400.519 52.3734 400.58 52.5085 400.61 52.6254C400.636 52.7286 400.559 52.8485 400.485 52.9251C400.4 53.0135 400.276 52.963 400.153 52.9608C399.039 52.9406 398.333 53.5403 397.763 54.5134C397.744 54.547 397.731 54.5697 397.727 54.6084C397.696 54.8745 398.035 55.0398 398.279 54.9277C398.285 54.9254 398.29 54.9231 398.295 54.9208C398.521 54.817 398.819 54.9298 398.875 55.1721C398.999 55.7124 398.823 55.8321 397.813 56.0724C397.512 56.1439 397.218 55.8858 397.1 55.6012C397.07 55.5269 397.03 55.5098 396.956 55.4779C396.756 55.3919 396.509 55.3517 396.305 55.3759C396.062 55.4048 395.94 55.6168 395.697 55.6456C394.441 55.8834 394.312 55.9077 393.816 56.3248C393.694 56.4266 393.618 56.5658 393.635 56.723C393.645 56.8233 393.643 56.9294 393.662 57.0285C393.816 57.8383 393.564 58.2251 392.932 58.3932C392.355 58.5112 391.686 58.6894 391.108 58.8073C389.754 59.0635 388.628 59.6625 387.897 60.853C387.849 60.9322 387.781 61.0032 387.762 61.094C387.746 61.1658 387.682 61.2177 387.639 61.2776C386.914 62.2975 386.803 62.3902 385.747 61.6448C385.474 61.4517 385.417 61.1353 385.482 60.8082C385.528 60.5754 385.345 60.3263 385.122 60.2421C384.591 60.0413 384.072 60.0714 383.565 60.2337C383.335 60.3076 383.076 60.1459 383.142 59.9136C383.197 59.7185 383.072 59.4808 382.87 59.5066C382.124 59.6019 381.514 60.0216 380.948 60.5068C380.498 60.8042 379.925 60.652 379.472 60.9449C379.359 61.0178 379.255 61.1086 379.148 61.1996C378.772 61.5207 378.248 61.7372 378.152 62.2213C378.129 62.3379 378.393 62.4204 378.614 62.5081C378.733 62.5558 378.829 62.6455 378.9 62.7525C378.949 62.8266 379.01 62.8924 379.08 62.9471C379.306 63.1232 379.527 63.2912 379.708 63.3993C379.726 63.4104 379.74 63.4296 379.76 63.4367C379.769 63.4397 379.778 63.4396 379.788 63.4373C379.899 63.4111 380.035 63.0717 379.924 63.0439C379.891 63.0356 379.869 63.0482 379.835 63.0422C379.804 63.0367 379.772 63.0316 379.74 63.027C379.424 62.9819 379.357 62.6589 379.627 62.4903C379.793 62.3872 379.948 62.2743 380.069 62.1419C380.153 62.0632 380.241 61.99 380.333 61.9231C381.008 61.4312 381.644 62.2111 381.477 63.0279C381.416 63.3244 381.255 63.6296 380.999 63.792C380.254 64.2637 379.446 64.3943 378.459 64.2587C378.079 64.2352 377.654 64.2409 377.246 64.2351C376.918 64.2305 376.506 63.9714 376.636 63.6711C376.852 63.1701 376.83 62.7403 376.283 62.7057C375.772 62.6734 375.292 62.8584 374.989 63.3867C374.647 63.9845 374.223 63.937 373.642 63.9512C373.568 63.9531 373.519 63.9431 373.445 63.9555C373.104 64.0132 372.93 64.45 373.064 64.7683C373.314 65.3603 373.814 65.6761 374.294 66.0862C374.778 66.5279 373.884 66.8938 373.263 66.6814C372.624 66.4625 371.999 66.4012 371.396 66.8832C371.255 66.996 370.979 66.9629 370.832 66.8572C370.667 66.7382 370.766 66.5872 370.944 66.487C371.68 66.0714 371.845 65.9168 372.036 65.2812C372.118 65.0073 371.854 64.6662 371.615 64.8241C370.551 65.3948 369.609 66.1485 368.575 66.5675C367.972 66.7787 367.736 67.1442 367.552 67.5437C367.409 67.8549 367.421 68.3219 367.762 68.365C367.941 68.3875 368.116 68.3109 368.282 68.2813C368.436 68.2538 368.607 68.439 368.521 68.5695C368.501 68.5993 368.476 68.6169 368.453 68.6442C368.237 68.8994 367.898 69.1294 367.697 69.3875C367.15 70.1436 366.451 70.4735 365.538 70.2856C365.502 70.2781 365.462 70.2879 365.42 70.3087C365.194 70.421 365.295 70.7718 365.461 70.9616C365.481 70.9852 365.491 70.9944 365.514 71.0152C366.09 71.5237 366.141 71.9986 365.754 72.3832C365.147 73.0479 364.448 73.7727 363.718 74.2543C363.081 74.8009 362.11 74.848 361.283 75.1103C361.204 75.1355 361.091 75.1876 361.008 75.187C360.925 75.1864 360.883 75.1612 360.809 75.1235C360.298 74.8627 359.981 74.5958 359.612 74.5935C359.167 74.6464 358.937 74.9489 358.798 75.3146C358.642 75.7248 358.176 76.011 357.737 76.039C357.555 76.0506 357.543 76.1628 357.45 76.319C357.26 76.6378 357.002 76.8547 356.717 77.031C355.942 77.5109 354.691 77.0892 355.081 76.2669C355.263 75.7516 354.562 75.2916 354.106 75.5926C354.072 75.6151 354.036 75.6432 353.998 75.6753C353.6 76.0135 353.734 76.7361 353.587 77.2363C353.382 77.9358 352.286 77.8779 351.646 78.2299C351.248 78.4488 350.814 78.7235 350.374 78.6065C349.952 78.4943 349.529 78.3892 349.06 78.5127C348.691 78.6098 348.528 78.9846 348.624 79.3523C348.69 79.6009 348.664 79.8956 348.466 80.0597C348.364 80.1442 348.271 80.2407 348.242 80.387C347.969 81.3575 347.209 81.5959 346.417 81.196C346.033 80.9743 345.825 81.1607 345.601 81.3369C345.315 81.5621 344.958 81.3734 344.82 81.0368C344.797 80.9806 344.774 80.9229 344.752 80.8641C344.648 80.5931 344.417 80.3886 344.131 80.3318C343.859 80.2775 343.565 80.2217 343.252 80.1704C342.903 80.1131 342.633 80.4543 342.86 80.7243C343.013 80.9064 343.045 81.2213 342.843 81.3483C342.512 81.5573 342.157 81.6731 341.789 81.7104C341.5 81.7396 341.284 81.5208 341.34 81.2369C341.397 80.953 341.206 80.6169 340.919 80.5719C340.776 80.5494 340.637 80.5311 340.504 80.5292C340.018 80.5224 340.114 81.1095 340.552 81.3186C340.947 81.5071 340.999 81.9973 340.695 82.31C340.543 82.466 340.388 82.6213 340.229 82.7811C339.823 83.1902 339.259 83.1182 338.692 83.0016C338.478 82.9575 338.173 82.9731 337.937 83.0814C337.747 83.1687 337.608 83.3374 337.47 83.4947C337.29 83.7008 337.137 83.9244 336.984 84.1539C336.687 84.6006 336.169 84.8833 335.638 84.9767C334.901 85.1068 334.288 85.565 333.975 86.2428C333.961 86.2734 333.946 86.3036 333.932 86.3334C333.831 86.5449 333.697 86.7672 333.462 86.7805C333.359 86.7863 333.254 86.7783 333.191 86.7653C333.039 86.734 333.099 86.4306 332.977 86.2475C332.87 86.0857 332.766 85.89 332.592 85.977C332.081 86.2325 331.911 86.7584 331.762 87.1819C331.574 87.8155 331.204 88.1751 330.737 88.3879C330.469 88.5097 330.188 88.4535 329.917 88.3389C329.714 88.2534 329.464 88.2755 329.261 88.3583C329.006 88.4619 328.747 88.5684 328.473 88.6848C328.113 88.8382 327.734 89.0125 327.343 88.9748C327.269 88.9676 327.2 88.9498 327.14 88.9155C325.709 88.1471 324.493 88.6865 323.276 89.2258C322.577 89.5557 321.756 89.7025 321.392 90.7333C321.12 91.7038 320.633 91.7615 319.416 91.511C319.112 91.4484 318.777 91.5374 318.686 91.5976C317.859 92.3067 316.662 92.0303 315.714 92.569C315.402 92.7467 315.06 92.8673 314.702 92.9098C313.962 92.9562 313.157 92.7669 312.324 92.6294C312.026 92.5802 311.728 92.703 311.532 92.932C311.476 92.998 311.419 93.0644 311.363 93.1299C311.213 93.3073 310.962 93.3742 310.75 93.2768C310.678 93.2438 310.605 93.2086 310.529 93.17C310.251 93.028 309.908 93.2019 309.92 93.5131C309.927 93.6876 309.81 93.857 309.646 93.9178C309.439 93.9945 309.232 94.0655 309.054 93.9956C308.982 93.9673 308.918 93.918 308.847 93.8885C308.335 93.6779 308.378 94.1048 308.23 94.3707C308.147 94.52 307.954 94.5349 307.783 94.522C307.4 94.4932 306.961 94.4475 306.488 94.3687C306.263 94.3313 306.146 94.1065 306.233 93.8968C306.303 93.7273 306.22 93.4591 306.046 93.3976C306.019 93.388 305.994 93.3876 305.971 93.4029C305.698 93.5835 305.394 93.9158 305.059 94.0049C302.938 94.5437 302.647 94.5002 301.9 95.2826C301.124 96.0961 300.103 96.5441 298.99 96.7187C298.752 96.7559 298.529 96.8328 298.328 96.9635C297.948 97.2105 297.609 97.5689 297.149 97.9803C296.957 98.1515 296.822 98.2504 296.565 98.2488C295.999 98.2451 295.398 98.5842 294.995 98.9795C294.479 99.4858 293.735 99.7085 292.807 99.8536C291.499 100.058 290.222 100.506 288.853 100.619C286.989 100.84 285.181 101.145 283.269 101.293C283.099 101.307 282.898 101.322 282.728 101.343C282.627 101.355 282.583 101.27 282.508 101.201C281.656 100.404 281.1 101.257 280.488 101.661C280.451 101.686 280.406 101.715 280.357 101.746C280.005 101.971 279.589 101.866 279.171 101.892C279 101.903 278.836 101.948 278.681 102.034C278.467 102.153 278.295 102.359 278.05 102.362C277.847 102.364 277.656 102.241 277.459 102.193C276.159 101.878 274.881 102.645 273.522 102.439C273.241 102.381 272.857 102.504 272.536 102.593C272.484 102.607 272.434 102.63 272.389 102.659C272.337 102.694 272.285 102.729 272.234 102.764C271.976 102.944 271.538 102.822 271.368 102.558C271.312 102.47 271.243 102.442 271.144 102.407C271.026 102.365 270.907 102.32 270.844 102.361C269.841 103.024 268.624 102.773 267.529 103.1C267.103 103.25 266.373 102.941 265.946 102.696C264.972 102.021 263.816 102.257 262.812 102.524C261.383 102.941 260.105 102.994 258.644 102.377C257.7 101.946 256.392 102.151 255.267 102.235C254.628 102.261 254.232 102.259 253.654 101.982C253.014 101.613 252.375 101.245 251.584 101.635C251.493 101.695 251.341 101.664 251.189 101.633C248.906 101.163 246.685 100.784 244.493 100.254C243.428 100.035 242.394 100.059 241.328 99.4451C240.475 98.9537 239.592 98.6141 238.527 98.3948C237.675 98.2984 236.762 97.7155 235.94 97.4674C234.235 96.8797 232.53 95.897 230.673 95.6729C230.369 95.6102 230.034 95.3043 229.76 95.09C229.212 94.6613 228.633 94.3843 227.994 94.4107C227.264 94.4974 226.655 94.3721 226.198 93.8832C226.155 93.8463 226.11 93.8133 226.063 93.7836C224.946 93.0756 223.682 92.1713 222.422 91.7636C221.296 91.4529 220.565 90.7496 219.743 90.1065C219.2 89.6821 218.412 89.7084 217.811 89.3704C217.768 89.3462 217.726 89.3207 217.684 89.2941C217.391 89.106 217.134 88.8651 216.861 88.6477C216.003 87.9627 215.234 87.2187 214.261 86.6093C213.195 85.9951 212.22 85.3207 211.276 84.4946C209.779 83.324 208.119 81.9697 206.583 80.8501C206.394 80.7123 206.194 80.5864 205.976 80.482C205.184 80.0822 204.362 79.4391 203.783 78.7671C202.198 77.1775 200.644 75.4362 199.09 73.6949C198.467 73.1265 198.849 72.1114 198.352 71.431C198.127 71.123 197.789 70.8575 197.503 70.5256C196.985 69.9451 196.254 69.6368 196.222 68.6037C196.222 68.3135 195.909 68.0871 195.526 67.8174C195.259 67.6288 195.135 67.3013 195.199 66.9812C195.291 66.5143 194.973 66.1828 194.506 66.08C194.347 66.0448 194.202 65.967 194.088 65.7954C193.6 65.0633 192.717 64.3287 192.563 63.5075C192.52 63.3327 192.461 63.1792 192.388 63.0425C191.618 61.5894 189.299 61.1511 188.998 59.5359C188.722 58.5317 188.326 57.7393 187.381 56.9132C187.065 56.6945 186.607 55.8489 186.358 55.116C186.143 54.4875 186.436 53.7214 186.067 53.1682C185.824 52.8028 185.608 52.4184 185.47 52.0023C185.31 51.5243 185.159 51.0174 184.907 50.6395C184.541 50.0904 183.719 49.8422 183.201 49.2618C182.866 48.9559 182.531 48.2551 182.591 47.9517C182.863 46.9811 181.737 46.6704 181.736 45.8805C181.735 45.0906 181.612 44.5125 181.003 43.9923C180.328 43.4646 180.604 42.3683 180.415 41.5352C180.386 41.4093 180.349 41.2851 180.299 41.1626C180.282 41.1017 180.263 41.0411 180.243 40.9808C179.859 39.8422 178.357 39.8986 177.922 38.7782C177.534 37.9185 178.131 36.9389 177.784 36.0624C177.379 35.0403 177.032 33.9952 177.031 32.9092C176.969 32.4227 176.664 31.9651 176.42 31.599C176.375 31.5316 176.314 31.4929 176.248 31.4619C176.091 31.3874 175.838 31.4178 175.766 31.5753C175.69 31.7402 175.451 31.8386 175.324 31.7087C175.088 31.4686 174.932 31.1871 175.232 30.8018C175.472 30.5399 175.522 30.2391 175.458 29.9147C175.422 29.7338 175.364 29.5559 175.335 29.3739C175.12 28.0328 174.704 26.5226 174.257 25.2393C174.246 25.2069 174.234 25.1753 174.22 25.1447C173.884 24.4438 173.792 23.7141 173.638 22.8929C173.424 21.9801 173.392 20.947 172.509 20.2124C172.207 19.9096 172.134 19.3791 172.063 18.8879C172.023 18.6193 171.846 18.4099 171.574 18.4067C171.278 18.4032 170.98 18.2218 170.887 17.9413C170.682 17.3256 170.534 16.691 171.042 16.0411C171.68 15.2248 171.465 14.312 170.886 13.6401C170.482 13.0329 170.077 12.4258 169.983 11.6137C169.972 11.5235 169.98 11.4302 169.965 11.3407C169.916 11.0486 169.58 10.9321 169.326 10.7784C168.915 10.5299 168.721 10.1378 168.58 9.71071C168.412 9.20399 168.82 8.94189 169.266 8.64759C169.631 8.4068 169.539 8.07207 169.447 7.73731C169.111 6.64153 168.775 5.54572 168.438 4.44992C168.194 3.68889 167.979 2.77616 167.917 1.89473C167.791 0.576987 167.542 -0.660204 167.272 -1.88273C167.159 -2.39068 166.505 -3.04505 166.403 -2.53524C166.383 -2.43253 166.4 -2.31621 166.424 -2.2143C166.546 -1.70969 166.719 -1.23977 166.755 -0.678365C166.756 -0.648984 166.755 -0.619378 166.747 -0.591062C166.74 -0.566553 166.731 -0.540918 166.722 -0.514576C166.65 -0.319927 166.265 -0.163989 166.238 -0.369548C166.232 -0.41228 166.235 -0.446299 166.225 -0.488342C166.046 -1.27521 165.977 -2.04085 165.88 -2.86436C165.856 -3.07399 165.912 -3.28763 166.063 -3.43467C166.096 -3.46665 166.13 -3.49802 166.163 -3.52928C166.391 -3.74175 166.383 -4.08452 166.164 -4.30686C166.057 -4.41569 165.953 -4.51923 165.849 -4.62417C165.613 -4.86069 165.795 -5.27224 166.12 -5.35181C166.327 -5.40255 166.415 -5.59802 166.377 -5.80707C166.159 -7.0176 166.203 -7.27803 166.876 -9.44483C166.951 -9.68735 166.701 -9.78088 166.56 -9.99263C166.103 -10.8765 165.493 -11.7917 165.917 -12.7309C165.979 -12.88 166.02 -13.0204 166.046 -13.1545C166.227 -14.0897 166.094 -15.0641 166.127 -16.0164C166.142 -16.4677 166.173 -16.915 166.223 -17.3731C166.237 -17.4969 166.23 -17.6467 166.251 -17.7695C166.3 -18.0506 166.305 -18.3063 166.232 -18.5825C165.913 -19.7973 166.206 -20.9498 166.451 -22.1761C166.541 -22.6313 166.571 -23.1779 166.418 -23.6042C165.838 -25.0661 166.444 -26.5206 166.655 -27.9776C166.806 -28.7362 166.804 -29.5261 166.651 -30.3473C166.641 -30.4273 166.633 -30.5068 166.626 -30.5862C166.528 -31.7352 165.55 -33.0565 164.731 -32.2428C164.124 -31.5782 163.151 -31.4627 162.634 -30.8582C162.027 -30.1936 161.267 -29.9552 160.598 -29.3821C160.17 -29.0254 159.655 -28.7367 159.114 -28.4614C158.299 -28.0476 157.328 -28.4902 156.523 -28.0582C156.345 -27.9626 156.2 -27.74 156.125 -27.5529C156.06 -27.3899 155.987 -27.2097 155.855 -27.0416C155.003 -25.8405 154.662 -25.7191 153.203 -26.4391C153.106 -26.487 153.03 -26.5293 152.922 -26.5179C152.864 -26.5118 152.786 -26.4719 152.736 -26.4417C152.283 -26.1652 152.619 -25.6811 152.604 -25.2605C152.597 -25.075 152.389 -25.0023 152.216 -25.0705C152.208 -25.0734 152.201 -25.0764 152.194 -25.0793C151.798 -25.2381 150.721 -25.5262 150.502 -25.1634C150.331 -24.8814 149.875 -24.8414 149.567 -24.9631C149.234 -25.0946 148.876 -24.9818 148.544 -24.9083C148.084 -24.8064 147.457 -24.794 147.26 -24.3674C147.091 -24.0024 147.096 -23.637 147.078 -23.3006C147.065 -23.0563 146.996 -22.7959 146.786 -22.6686C146.39 -22.4276 145.842 -22.6452 145.67 -22.4257C145.124 -21.6696 144.424 -21.7346 143.694 -21.648C142.964 -21.5614 142.234 -21.0798 141.504 -20.9931C140.439 -20.8174 139.436 -20.5501 138.463 -20.0397C137.908 -19.7779 137.315 -19.5738 136.714 -19.3815C136.442 -19.2945 136.266 -19.0488 136.224 -18.7671C136.19 -18.5451 136.015 -18.3479 135.8 -18.2823C134.941 -18.0212 134.076 -17.6268 133.318 -16.9293C133.262 -16.8782 133.218 -16.8381 133.153 -16.7993C132.957 -16.6824 132.687 -16.6495 132.465 -16.7017C132.12 -16.7829 131.741 -17.0172 131.379 -16.6807C131.076 -16.3484 130.681 -15.9559 130.316 -15.7151C129.871 -15.4213 129.298 -15.4 128.799 -15.21C128.314 -15.0253 127.838 -14.8276 127.336 -14.6701C126.91 -14.5208 126.484 -14.3715 126.089 -14.374C126.028 -14.3743 125.967 -14.3933 125.906 -14.4236C125.156 -14.7951 124.688 -14.2398 123.99 -13.7792C123.109 -13.329 122.593 -12.3296 121.498 -12.3971C121.155 -12.3992 120.904 -12.2638 120.744 -11.9909C120.693 -11.904 120.651 -11.8114 120.584 -11.7358C120.324 -11.4399 119.985 -11.3548 119.579 -11.3891C119.394 -11.4047 119.241 -11.6202 119.285 -11.7999C119.306 -11.8869 119.349 -11.9432 119.365 -12.0314C119.409 -12.284 119.413 -12.5103 119.155 -12.5635C119.144 -12.5658 119.131 -12.5674 119.119 -12.5684C118.752 -12.5975 118.51 -12.199 118.306 -11.8945C117.798 -11.1344 116.989 -10.6042 116.073 -10.6563C115.484 -10.6897 114.922 -10.7227 114.351 -10.7095C113.955 -10.7119 113.62 -10.6228 113.408 -10.3507C111.931 -8.80376 109.994 -8.83942 108.055 -8.60644C107.605 -8.55227 107.193 -8.90377 107.207 -9.3558C107.218 -9.70108 106.983 -10.0354 106.637 -10.0619C106.571 -10.0671 106.507 -10.0686 106.446 -10.0654C106.402 -10.0631 106.359 -10.0541 106.317 -10.043C105.674 -9.87425 105.113 -9.76291 104.494 -9.7373C102.663 -9.62248 100.928 -8.87175 99.2376 -8.16345C98.903 -8.02323 98.5836 -7.84896 98.291 -7.6185C97.5615 -7.13691 96.5271 -7.11292 95.6141 -7.30083C95.0036 -7.35761 94.2543 -7.32271 93.4873 -7.27616C93.2785 -7.26347 93.1241 -7.29373 93.0083 -7.46751C92.897 -7.63445 92.6594 -7.81036 92.4634 -7.76605C92.1262 -7.68982 91.8723 -7.50735 91.644 -7.27323C91.1065 -6.72192 90.2279 -6.48999 89.498 -6.7425C88.8227 -6.97617 88.1706 -7.27109 87.8924 -6.61598C87.8136 -6.43028 87.7008 -6.25509 87.4966 -6.12363C87.3613 -6.03653 87.1989 -6.00512 87.0386 -5.98902C85.6309 -5.8477 83.999 -5.9053 82.5026 -6.28796C80.9663 -6.6808 79.7749 -6.55628 78.7619 -5.44308C78.7003 -5.37533 78.6618 -5.33367 78.5853 -5.28314C78.3673 -5.13923 78.0661 -5.06268 77.8325 -5.18061C77.3973 -5.40028 76.9915 -5.73854 76.3275 -5.50572C75.0347 -4.98179 73.626 -5.31238 72.2305 -5.26008C71.8003 -5.24393 71.3491 -5.33053 70.8814 -5.60008C70.7621 -5.66881 70.5571 -5.68098 70.341 -5.66276C70.0088 -5.63472 69.6405 -5.59585 69.3088 -5.63025C68.9447 -5.66802 68.6358 -5.48079 68.271 -5.45262C67.3813 -5.38398 66.5402 -5.74329 65.6786 -5.72329C64.6827 -5.70017 63.7441 -5.22619 62.8333 -5.5756C62.7623 -5.60285 62.675 -5.63223 62.5999 -5.64446C62.4126 -5.67496 62.2311 -5.62277 62.0424 -5.60406C61.1135 -5.51198 60.2163 -5.13989 59.1678 -5.64192C58.3762 -6.04175 57.2205 -5.8058 56.2162 -5.93351C55.6685 -5.96727 55.0598 -6.09253 54.4819 -5.97459C53.904 -5.8566 53.3563 -5.8904 52.869 -6.22759C52.4978 -6.44149 52.0742 -6.50778 51.6514 -6.57788C50.7864 -6.72135 49.945 -7.03389 49.0642 -7.40556C47.9683 -7.86803 46.6905 -7.81515 45.4429 -7.914C43.4955 -8.07788 41.7606 -8.51388 40.1163 -9.40508C39.9694 -9.48975 39.8152 -9.58527 39.6564 -9.67177C39.0771 -9.98711 38.3654 -9.88666 37.7459 -10.1134C37.6052 -10.1649 37.4705 -10.2267 37.3398 -10.298C36.7022 -10.6461 36.1213 -11.0823 35.5493 -11.5295C34.985 -11.9002 34.5195 -12.2505 33.9935 -12.6133C33.7336 -12.7925 33.4718 -13.0039 33.2303 -13.2071C32.8141 -13.5574 32.2665 -13.6386 31.7922 -13.9058C31.2255 -14.2251 30.7915 -14.7549 30.25 -15.1472C29.7497 -15.5383 29.4767 -16.4086 28.6704 -16.3551C28.5055 -16.3442 28.3011 -16.2985 28.2096 -16.4357C26.9077 -18.2104 24.9786 -19.4622 23.9724 -21.4122C23.7682 -21.808 23.7191 -22.3496 23.3323 -22.5724C22.4187 -23.1553 21.6874 -23.8586 21.6246 -25.135C21.5938 -25.3782 21.2285 -25.5324 21.0456 -25.8069C20.6489 -26.5993 19.9477 -27.4542 19.8855 -28.3356C19.7303 -30.3418 18.6634 -31.7459 17.6266 -33.3017C17.172 -33.9838 17.1036 -34.8426 16.9157 -35.6392C16.7819 -36.2066 16.6132 -36.7586 16.434 -37.2586C16.0669 -38.5976 15.4564 -39.9078 15.3937 -41.1842C15.3303 -42.8555 14.5676 -44.197 14.3219 -45.7479C14.1679 -46.9641 13.497 -47.9708 13.4952 -49.1557C13.4946 -49.5506 13.1286 -50.0997 12.9758 -50.526C12.7313 -51.287 12.3955 -51.9879 12.6377 -52.8067C12.7227 -53.2338 12.516 -53.6447 12.3161 -54.0325C12.1163 -54.4203 11.9251 -54.7943 11.843 -55.1813C11.7814 -55.6678 12.2978 -56.2722 11.9318 -56.8213C11.5049 -57.462 11.6257 -58.0689 11.7465 -58.6758C11.9271 -59.981 11.7731 -61.1972 11.4669 -62.4447C11.3479 -63.0818 11.1374 -63.7377 11.3466 -64.3809C11.4769 -64.7813 11.8194 -65.1238 11.7665 -65.5417C11.4906 -66.9409 11.8535 -68.3666 12.1253 -69.7321C12.3366 -70.7941 12.548 -71.8562 12.7593 -72.9182C12.9707 -73.9802 13.06 -75.2253 13.6367 -76.1331C13.758 -76.345 13.7883 -76.4967 13.8487 -76.8002C13.8908 -77.2922 13.9934 -77.7424 14.1565 -78.1508C14.6982 -79.5075 15.2724 -80.8903 15.2702 -82.3512C15.2696 -82.7461 15.3602 -83.2013 15.5118 -83.565C15.8451 -84.444 16.1175 -85.4145 16.2377 -86.4163C16.266 -87.7529 16.9641 -88.8726 17.5099 -90.0237C18.0256 -91.0231 18.6935 -91.9912 18.3874 -93.2388C18.3781 -93.3123 18.3855 -93.397 18.4037 -93.4851C18.4863 -93.8856 18.7115 -94.2444 18.9218 -94.5955C19.014 -94.7496 19.0312 -94.9353 19.0197 -95.1145C18.9893 -95.5877 18.8867 -96.0936 19.4472 -96.5741C19.9031 -96.8751 19.9019 -97.6651 20.1749 -98.2406C21.3283 -100.056 22.2685 -101.995 23.3306 -103.75C23.8161 -104.598 24.4538 -105.415 24.9393 -106.262C25.3035 -106.898 25.5154 -107.565 25.9405 -108.109C26.5172 -109.017 27.0939 -109.925 27.7926 -110.65C28.8862 -111.767 30.1627 -112.61 31.4085 -113.696C31.9858 -114.209 32.5939 -114.479 32.958 -115.114C33.292 -115.598 33.778 -116.051 34.5389 -115.895C34.6708 -115.867 34.9166 -116.114 35.1977 -116.238C35.2829 -116.275 35.3733 -116.289 35.4646 -116.308C35.9061 -116.4 36.2809 -116.192 36.6856 -115.993C37.2666 -115.707 37.9171 -115.888 38.5853 -115.93C39.072 -115.988 39.4072 -115.682 39.4687 -115.196C39.7749 -113.948 39.1982 -113.04 38.5304 -112.072C38.4421 -111.918 38.3395 -111.785 38.2258 -111.668C36.8632 -110.263 35.5458 -108.99 35.313 -107.049C35.1318 -106.139 34.8287 -105.411 33.7339 -105.084C33.3486 -104.963 32.9635 -104.741 32.6022 -104.484C31.9262 -104.004 31.3482 -103.404 31.0298 -102.64C30.7267 -101.912 30.4235 -101.185 30.1203 -100.458C29.8303 -99.8959 29.5404 -99.334 29.1097 -98.8431C28.6487 -98.3177 28.4586 -97.0816 28.5087 -96.3849C28.541 -95.9361 28.414 -95.4924 28.0869 -95.1826C27.4718 -94.5999 27.2917 -94.1184 27.1499 -93.0935C27.0162 -92.4216 26.7157 -91.8767 26.461 -91.2406C26.2273 -90.6568 26.2217 -90.0144 26.2429 -89.3319C26.2435 -88.937 26.1529 -88.4818 25.9102 -88.0579C25.5685 -87.4614 25.8581 -86.7566 25.6309 -86.1081C25.348 -85.301 25.3738 -84.4025 25.0955 -83.5665C25.0787 -83.4823 25.0996 -83.3416 25.1475 -83.2278C25.2118 -83.0751 25.3883 -83.0147 25.5252 -82.9206C26.0626 -82.5511 25.8833 -82.1835 25.6583 -81.792C25.5457 -81.5962 25.2456 -81.5291 25.0437 -81.6324C24.8164 -81.7488 24.5913 -81.6269 24.5055 -81.3874C24.4882 -81.3392 24.4704 -81.2907 24.4514 -81.2413C24.3465 -80.9695 24.4566 -80.6512 24.735 -80.5611C24.7402 -80.5594 24.7454 -80.5577 24.7507 -80.556C25.0207 -80.4685 25.2628 -80.0466 25.0103 -79.9179C24.9556 -79.89 24.8902 -79.8767 24.8378 -79.8446C24.3569 -79.5503 24.0556 -79.1091 23.7973 -78.6362C23.0914 -77.3435 22.314 -75.963 22.1889 -74.496C22.1795 -74.3847 22.1718 -74.2731 22.1661 -74.1611C22.1601 -74.0435 22.139 -73.9571 22.1738 -73.8445C22.2716 -73.5286 22.6544 -73.4187 22.9033 -73.1999C22.9694 -73.1417 22.9845 -73.0498 22.8907 -72.8861C22.7694 -72.6741 22.4958 -72.4936 22.3135 -72.3732C21.9286 -72.1191 21.7998 -71.7731 21.853 -71.3781C21.8883 -71.1162 22.1727 -71.0149 22.3549 -71.2066C22.6129 -71.4779 23.1193 -71.3132 23.0705 -70.9425C22.8795 -69.4929 22.6802 -68.2461 22.4433 -67.0557C22.427 -66.9741 22.3403 -66.8841 22.2448 -66.7853C22.0927 -66.6283 22.0769 -66.4231 22.1983 -66.241C22.4074 -65.9272 22.2885 -65.4596 21.9462 -65.3007C21.8095 -65.2372 21.6676 -65.1748 21.503 -65.1171C20.9891 -64.8747 20.7873 -64.696 20.8862 -64.2071C20.9584 -63.8499 21.3649 -63.7081 21.6695 -63.9092C22.028 -64.1459 22.5486 -63.9432 22.5599 -63.5146C22.5694 -63.1525 22.5408 -62.8066 22.4393 -62.4792C22.3067 -62.0515 22.2503 -61.5853 22.3947 -61.161C22.5537 -60.694 22.637 -60.2105 22.5657 -59.7268C22.5544 -59.65 22.5465 -59.5726 22.5436 -59.495C22.5381 -59.3528 22.5237 -59.2046 22.5082 -59.0556C22.4679 -58.6714 22.0035 -58.3069 21.9122 -58.6826C21.901 -58.7287 21.895 -58.7764 21.8913 -58.8234C21.8807 -58.9588 21.809 -59.0811 21.6836 -59.1349C21.6791 -59.1369 21.6745 -59.1388 21.6699 -59.1407C21.5716 -59.1818 21.4672 -59.1632 21.3785 -59.1046C21.242 -59.0145 21.1692 -58.847 21.2037 -58.6873C21.2735 -58.3649 21.3475 -58.0453 21.4419 -57.7392C21.5293 -57.4559 21.8 -57.2754 22.0964 -57.2514C22.1321 -57.2485 22.1668 -57.2458 22.2006 -57.2433C22.4143 -57.228 22.6301 -57.121 22.7487 -56.943C22.7822 -56.8927 22.8014 -56.8462 22.8176 -56.788C22.9024 -56.4823 22.9982 -56.1743 23.2208 -55.8403C23.7396 -54.8649 23.954 -53.9522 24.047 -52.8275C24.2016 -51.2164 24.7516 -49.6027 25.1495 -48.0205C25.4859 -46.9247 25.4266 -45.8313 26.0063 -44.7644C26.0627 -44.6798 26.0542 -44.524 26.0287 -44.3419C25.9804 -43.9962 25.6019 -43.7321 25.2645 -43.827C24.9947 -43.903 24.7328 -43.7914 24.6377 -43.529C24.6022 -43.4309 24.5645 -43.336 24.5179 -43.2546C23.8275 -42.0492 24.6403 -41.244 25.0909 -40.2813C25.1402 -40.1759 25.1813 -40.0821 25.2548 -39.9919C25.3759 -39.8433 25.5946 -39.8351 25.7864 -39.8302C26.7502 -39.8056 26.9487 -38.9823 27.1724 -38.2861C27.5087 -37.1904 28.2708 -36.2438 28.1204 -35.0903C28.0604 -34.7887 28.4042 -34.571 28.5899 -34.3251C29.1841 -33.5386 29.0912 -32.5455 29.2514 -31.6198C29.4349 -30.9503 29.4053 -30.4036 30.0755 -29.7919C30.5032 -29.4267 30.6465 -28.8089 30.8311 -28.1991C30.9855 -27.6891 31.0623 -27.129 31.3581 -26.6851C32.2422 -25.5556 33.1262 -24.426 34.1014 -23.3567C34.6805 -22.6848 35.3508 -22.073 36.0814 -21.7646C36.873 -21.3648 37.1177 -20.6038 38.0005 -20.2642C39.3097 -19.6788 40.6495 -18.8503 41.8071 -17.9013C42.1423 -17.5955 42.7818 -17.227 43.1164 -17.316C44.12 -17.5833 44.8814 -17.0317 45.7032 -16.7836C46.6772 -16.5041 47.6211 -16.073 48.6247 -16.3403C49.4415 -16.5578 50.1373 -15.6469 50.9791 -15.5635C51.0685 -15.5546 51.1568 -15.5545 51.2423 -15.5646C52.9156 -15.615 54.6203 -15.0273 56.2935 -15.0777C56.6891 -15.0753 57.1758 -15.133 57.5411 -14.9789C58.5459 -14.4562 59.5804 -14.4803 60.706 -14.5645C61.6794 -14.68 62.7144 -14.309 63.7487 -14.333C64.631 -14.3883 65.3913 -14.6267 66.3043 -14.4388C68.4347 -14.0003 70.5337 -14.2 72.7239 -14.46C73.2106 -14.5177 73.7582 -14.484 74.2148 -14.39C75.0668 -14.2936 75.8881 -14.4405 76.7401 -14.3441C77.5921 -14.2477 78.4441 -14.1513 79.2654 -14.2981C79.833 -14.3655 80.4076 -14.2106 80.9755 -14.1438C81.3326 -14.1017 81.6824 -14.0637 82.0039 -14.1293C83.0986 -14.4568 84.2242 -14.541 85.3806 -14.3819C86.537 -14.2229 87.723 -14.6106 88.7574 -14.6346C90.4005 -14.5333 91.982 -14.9184 93.5942 -15.0604C94.9495 -15.2212 96.5886 -15.6627 97.9438 -15.8235C98.293 -15.865 98.6267 -15.8283 98.9333 -15.9493C99.1939 -16.0521 99.5223 -16.4103 99.6775 -16.1774C100.501 -15.1393 101.138 -15.9557 101.898 -16.1941C103.237 -16.5504 104.605 -17.0584 106.004 -17.3232C106.468 -17.4179 107.01 -17.3947 107.615 -17.3793C107.898 -17.3721 108.115 -17.4614 108.286 -17.6857C108.495 -17.9603 108.917 -18.0678 109.238 -17.9379C109.365 -17.8862 109.493 -17.8465 109.618 -17.8329C110.229 -17.7657 110.84 -18.2873 111.449 -18.1959C112.081 -18.1008 112.705 -18.0722 113.306 -18.2324C114.056 -18.4328 114.809 -18.7541 115.506 -19.0956C116.065 -19.3691 116.593 -19.7069 117.166 -19.6849C118.201 -19.7089 119.143 -20.0677 120.056 -20.2747C121.151 -20.6022 122.276 -21.0813 123.431 -21.3172C124.587 -21.5531 125.712 -22.0323 126.837 -22.5115C127.263 -22.6607 127.689 -22.81 127.962 -22.9906C129.121 -23.7558 130.773 -22.3649 131.81 -23.2872C131.996 -23.4527 132.173 -23.6606 132.342 -23.9054C132.618 -24.3882 133.077 -24.6734 133.552 -24.9651C134.399 -25.4853 135.168 -26.2544 136.232 -26.3423C136.719 -26.4001 137.236 -26.6095 137.662 -26.7588C137.948 -26.835 138.234 -26.9113 138.521 -26.9875C138.617 -27.0131 138.724 -27.0268 138.823 -27.0216C139.368 -26.9931 139.93 -27.1558 140.281 -27.571C140.546 -27.8852 140.848 -28.158 141.202 -28.3412C141.804 -28.6522 142.48 -28.8806 143.072 -29.2096C144.176 -29.8227 145.523 -30.029 146.57 -30.9269C146.874 -31.2592 147.452 -31.3771 147.877 -31.5264C150.587 -32.5325 153.15 -34.3733 155.929 -35.1729C156.227 -35.2586 156.524 -35.3486 156.816 -35.4512C158.276 -36.0194 159.552 -36.8623 161.165 -37.0042C162.014 -37.1051 162.628 -37.6503 163.425 -37.9592C163.661 -38.0505 163.886 -38.2257 164.083 -38.5357C164.417 -39.0197 165.147 -39.1064 165.816 -39.2845C167.671 -39.8503 168.521 -40.9388 168.671 -42.8822C168.67 -43.2772 168.578 -43.6119 168.73 -43.9756C169.548 -46.0972 169.666 -48.2839 169.937 -50.4393C169.962 -50.6762 170.041 -50.908 170.138 -51.1389C170.611 -52.2661 170.966 -53.6262 170.812 -54.8391C170.64 -55.4671 171.111 -56.0255 171.274 -56.6554C171.298 -56.7493 171.317 -56.8444 171.331 -56.9405C171.39 -57.3562 171.374 -57.7809 171.449 -58.1941C171.744 -59.8132 172.416 -61.3479 172.656 -62.9091C172.807 -63.6677 173.019 -64.3348 173.018 -65.1247C172.986 -66.1579 173.502 -67.1573 173.926 -68.0965C174.078 -68.4601 174.29 -68.7322 174.442 -69.0958C174.474 -69.1601 174.506 -69.225 174.537 -69.2905C175.218 -70.7179 175.591 -72.4864 176.199 -73.946C176.715 -74.9454 177.444 -75.8219 177.898 -76.9129C178.808 -78.6997 179.627 -80.4264 180.385 -82.2445C180.537 -82.6082 180.749 -82.8803 180.962 -83.1525C182.086 -84.4215 182.753 -85.7845 182.781 -87.5161C182.779 -88.306 183.052 -88.8816 183.782 -89.3632C183.921 -89.4548 184.11 -89.4293 184.242 -89.5304C184.992 -90.1053 184.984 -91.2327 185.543 -91.8435C186.302 -92.4769 186.91 -93.1415 187.273 -94.1722C187.667 -95.3546 188.365 -96.4744 189.337 -97.3798C189.732 -97.7724 190.066 -98.2564 190.461 -98.649C191.016 -99.256 191.923 -99.3177 192.603 -99.7818C192.955 -100.022 193.248 -100.347 193.5 -100.787C193.622 -100.999 193.895 -101.18 194.169 -101.36C195.476 -102.355 196.782 -103.349 198.059 -104.192C198.88 -104.734 199.609 -105.216 200.308 -105.94C200.733 -106.485 201.401 -107.058 202.405 -106.93C202.801 -106.928 203.287 -107.38 203.591 -107.713C203.986 -108.105 204.381 -108.498 204.959 -108.616C205.81 -108.914 206.844 -108.938 207.36 -109.938C207.698 -110.527 208.627 -110.412 209.273 -110.627C210.671 -111.093 212.097 -111.541 213.502 -112.148C214.81 -112.748 216.027 -112.497 217.275 -112.398C217.975 -112.333 218.675 -112.268 219.374 -112.203C221.17 -112.134 222.703 -111.173 224.451 -110.758C224.531 -110.739 224.614 -110.724 224.701 -110.712C225.304 -110.588 225.792 -110.14 226.091 -109.582C226.228 -109.326 226.458 -109.143 226.74 -109.211C226.993 -109.272 227.293 -109.182 227.442 -108.969C227.501 -108.887 227.561 -108.803 227.626 -108.719C227.882 -108.388 228.336 -108.369 228.754 -108.335C228.978 -108.316 229.184 -108.216 229.39 -108.009C229.97 -107.337 230.61 -106.574 231.098 -105.842C231.124 -105.802 231.152 -105.76 231.18 -105.717C231.501 -105.221 231.437 -104.593 231.508 -104.007C231.79 -101.707 232.344 -99.2228 231.688 -97.0016C231.641 -96.8391 231.59 -96.6761 231.538 -96.5121C231.26 -95.4806 231.521 -94.4714 231.094 -93.4921C231.018 -93.3171 230.945 -93.1819 231.015 -93.0042C231.14 -92.6905 231.135 -92.3101 230.972 -92.0149C230.757 -91.6243 230.527 -91.2553 230.329 -90.8383C230.208 -90.6263 230.148 -90.3229 229.995 -90.3542C228.748 -90.453 229.205 -89.5692 229.146 -88.8708C229.056 -88.0207 228.966 -87.1706 228.419 -86.4144C228.139 -86.0084 227.966 -85.5803 227.936 -85.0761C227.924 -84.8777 227.926 -84.6692 227.813 -84.5054C227.786 -84.4662 227.755 -84.4282 227.721 -84.393C227.649 -84.3184 227.565 -84.2541 227.495 -84.177C227.077 -83.7146 227.039 -83.6112 227.442 -83.201C227.584 -83.0564 227.603 -82.7626 227.457 -82.6224C227.43 -82.596 227.402 -82.5882 227.364 -82.5795C226.483 -82.374 225.89 -82.0982 225.415 -81.2681C224.93 -80.4205 224.231 -79.6957 223.532 -78.9708C223.046 -78.5181 223.443 -77.7257 222.53 -77.5187C221.861 -77.3405 222.167 -76.488 221.985 -75.9726C221.47 -74.5783 220.712 -73.1551 219.709 -72.0979C219.01 -71.3731 218.586 -70.4339 217.613 -69.9234C217.34 -69.7428 217.188 -69.3791 216.975 -69.107C216.78 -68.8239 216.574 -68.4889 216.304 -68.2239C215.916 -67.8451 215.198 -67.7352 215.092 -67.2046C214.972 -66.2028 214.212 -65.5695 213.483 -65.0879C212.57 -64.3784 211.657 -63.6688 210.989 -62.6977C210.71 -62.2921 210.231 -62.0652 209.739 -62.1162C209.69 -62.1213 209.64 -62.1256 209.591 -62.1288C209.473 -62.1366 209.331 -62.0672 209.265 -61.97C209.204 -61.8799 209.201 -61.8057 209.199 -61.6966C209.188 -60.7606 208.815 -60.1615 207.954 -59.5926C206.768 -58.81 205.614 -57.7842 204.672 -56.6355C203.944 -55.759 203.124 -54.8222 202.517 -53.7626C202.365 -53.399 201.818 -53.0378 201.392 -52.8885C199.872 -52.4118 198.596 -51.174 196.861 -51.2151C196.466 -51.2175 195.98 -50.7648 195.737 -50.341C195.464 -49.7655 195.038 -49.6162 194.674 -49.3754C194.4 -49.1948 194.096 -48.8624 194.036 -48.559C193.984 -48.0686 193.618 -47.8531 193.288 -47.6129C192.859 -47.3003 192.464 -46.8744 191.941 -46.7787C191.525 -46.7026 191.09 -46.4658 190.846 -46.1222C190.256 -45.2905 189.447 -44.5712 188.353 -44.2799C187.775 -44.162 187.715 -43.4636 187.046 -43.2854C185.769 -42.8376 184.797 -41.9322 183.459 -41.5758C182.871 -41.3916 182.302 -41.0621 181.92 -40.5161C181.709 -40.215 181.391 -39.9692 181.023 -39.9927C181.011 -39.9934 181 -39.9942 180.988 -39.995C180.628 -40.0202 180.321 -39.8441 180.228 -39.4966C180.221 -39.4722 180.214 -39.4473 180.206 -39.4217C180.172 -39.3125 180.095 -39.2232 179.999 -39.1601C179.916 -39.1052 179.82 -39.0732 179.72 -39.0639C177.818 -38.885 176.946 -37.8908 176.652 -36.0277C176.562 -35.1775 176.472 -34.3275 176.626 -33.5062C176.718 -32.7765 176.841 -31.8036 176.477 -31.1678C175.749 -29.8963 176.146 -28.709 176.209 -27.4326C176.302 -25.9129 176.639 -24.4222 176.033 -22.9677C175.912 -22.7558 176.095 -22.4812 176.095 -22.0862C176.157 -21.5998 176.218 -21.1133 176.128 -20.6581C175.826 -19.1409 176.011 -17.6815 175.952 -16.1932C175.953 -15.7983 175.862 -15.3431 176.015 -14.9168C176.137 -14.3388 176.138 -13.9439 175.956 -13.4285C175.805 -13.0648 175.866 -12.5784 176.11 -12.2123C176.568 -11.3284 176.63 -10.447 176.51 -9.44518C176.451 -8.35184 176.544 -7.22716 176.789 -6.07117C177.065 -4.67194 177.158 -3.15232 177.252 -1.6327C177.273 -1.47012 177.293 -1.30755 177.323 -1.19028C177.346 -1.09667 177.413 -1.02417 177.49 -0.964828C177.494 -0.961936 177.497 -0.959014 177.501 -0.956109C177.93 -0.624065 177.756 -0.185474 177.651 0.344551C177.508 1.05999 177.655 1.79978 177.813 2.51231C178.086 3.73875 178.413 4.97096 178.645 6.22669C178.966 7.96717 178.756 10.7588 180.496 11.117C180.801 11.1796 180.954 11.6059 181.045 11.9406C181.25 12.5768 181.348 13.191 181.464 13.855C181.503 14.0797 181.362 14.3002 181.15 14.3857C180.905 14.4845 180.777 14.7657 180.892 15.0028C181.059 15.3458 181.221 15.6723 181.265 16.0131C181.356 16.3478 181.083 16.9233 181.175 17.2581C181.42 18.0191 181.725 18.8717 182.061 19.5725C182.428 20.5166 182.794 21.4607 183.008 22.3734C183.209 22.9964 183.204 23.0481 182.863 23.6274C182.709 23.8896 182.805 24.1946 183.077 24.3328C183.13 24.3598 183.194 24.3851 183.251 24.3994C183.805 24.5358 184.116 24.8437 184.291 25.4802C184.658 26.8193 185.025 28.1582 185.848 29.1963C186.09 29.4672 186.279 29.7659 186.443 30.0772C187.404 31.9008 187.484 34.6064 188.628 36.3225C189.116 37.0547 189.604 37.7869 189.939 38.4877C190.275 39.1886 190.702 39.8292 190.369 40.7082C190.217 41.0718 190.826 41.592 190.888 42.0785C190.95 42.9599 191.134 43.6295 191.986 44.1208C192.352 44.275 192.474 44.853 192.657 45.1275C192.915 45.5138 193.045 45.9261 193.363 46.2648C194.256 47.2157 194.578 48.4624 195.098 49.5782C195.769 50.9799 196.38 52.29 197.142 53.6315C197.478 54.3323 197.784 55.1849 198.423 55.5534C198.911 55.907 199.037 56.2833 199.121 56.7484C199.176 57.0572 198.814 57.2961 198.559 57.1117C198.337 56.9512 198.045 57.1047 198.145 57.3589C198.378 57.9468 198.899 58.4027 199.149 58.9474C199.424 59.5465 199.625 60.2717 200.161 60.6577C200.636 60.9991 201.039 61.4062 201.263 61.9813C201.354 62.3161 201.72 62.4702 202.115 62.4726C203.363 62.5715 204.155 63.3663 204.826 64.373C205.323 65.1195 205.793 65.8238 206.272 66.5433C206.578 67.0028 206.166 67.5471 205.786 67.9477C205.62 68.1236 205.611 68.3822 205.789 68.5474C206.092 68.8295 206.624 69.0457 207.26 69.0987C207.553 69.1231 207.767 69.3737 207.675 69.6518C207.623 69.8102 207.688 69.9828 207.81 70.0967C208.255 70.5102 208.592 71.0338 209.001 71.4712C209.908 72.4407 211.18 73.2114 212.137 74.1321C212.668 74.6433 213.34 75.0101 214.243 75.1555C214.615 75.2321 214.965 75.422 215.333 75.6076C215.786 75.8356 216.197 76.1978 216.313 76.6894C216.324 76.7355 216.333 76.7815 216.342 76.8272C216.383 77.051 216.415 77.3045 216.605 77.4323C216.668 77.4751 216.747 77.4953 216.818 77.5223C217.163 77.6523 217.568 77.7425 217.899 77.882C219.073 78.2623 219.772 79.4739 220.899 79.9783C221.587 80.2864 222.247 80.6886 222.863 81.1937C223.959 82.0512 225.056 82.9086 225.849 84.0984C226.214 84.6458 226.978 84.9294 227.63 85.2874C227.828 85.3964 228.103 85.3848 228.283 85.2488C228.516 85.0731 228.824 84.9964 229.086 85.1264C229.879 85.5201 230.652 86.0191 231.086 86.8346C231.391 87.2921 231.817 87.5378 232.182 87.297C232.263 87.2535 232.339 87.2198 232.409 87.195C233.545 86.7937 234.44 88.0777 235.622 88.3208C236.23 88.4461 236.748 88.6315 237.235 88.9688C238.849 90.0116 240.645 90.5392 242.471 90.915C244.789 91.5352 247.428 91.8265 249.747 92.4422C250.479 92.6365 251.203 92.8898 251.936 93.1001C253.884 93.6589 255.711 94.4297 257.749 94.1385C258.208 94.0667 258.682 94.0174 259.155 94.0352C260.901 94.1009 262.71 94.8697 264.413 94.4834C264.553 94.4667 264.715 94.4806 264.873 94.4897C265.093 94.5024 265.317 94.4955 265.532 94.5417C266.613 94.7734 267.852 94.0968 268.929 94.3432C269.042 94.3691 269.15 94.4044 269.25 94.4524C270.042 94.8523 270.772 94.7656 271.532 94.5273C273.783 93.9639 276.003 93.5523 278.315 93.4754C278.802 93.4176 279.262 93.1434 279.749 93.0858C280.262 93.0251 280.713 93.0785 281.144 92.7941C282.055 92.1921 282.36 92.2547 283.031 93.2614C283.28 93.6349 283.826 93.4807 283.996 93.066C284.161 92.6614 284.446 92.6285 285.086 92.8129C285.473 92.9247 285.87 92.7677 285.926 92.3697C285.969 92.0564 286.218 91.788 286.529 91.7288C287.244 91.5929 287.952 91.4309 288.738 91.3102C289.045 91.263 289.362 91.475 289.483 91.7609C289.519 91.8453 289.554 91.9339 289.583 92.0272C289.595 92.0635 289.624 92.0915 289.662 92.0992C289.713 92.1098 289.764 92.0788 289.784 92.0303C290.05 91.383 290.951 91.4152 291.343 90.9206C291.434 90.8055 291.486 90.6533 291.624 90.6016C291.691 90.5764 291.772 90.5566 291.855 90.5449C292.138 90.505 292.378 90.7187 292.661 90.7594C293.111 90.8242 293.614 90.5194 294.067 90.5987C294.238 90.6287 294.398 90.747 294.549 90.6614C294.613 90.6247 294.684 90.5847 294.753 90.5567C295.235 90.3608 295.713 90.1596 296.139 89.8788C296.868 89.3972 297.628 89.1588 298.541 88.9518C299.21 88.7736 299.879 88.5955 300.64 88.7521C301.553 88.94 302.374 88.7931 303.042 88.22C303.65 87.5554 304.562 87.3483 305.323 87.11C305.745 86.9225 306.242 86.941 306.74 86.9916C307.151 87.0332 307.553 86.8813 307.778 86.5375C307.995 86.2057 308.382 86.0436 308.779 86.069C308.801 86.0703 308.822 86.0718 308.844 86.0733C309.292 86.1045 309.743 85.9847 310.096 85.708C310.569 85.3368 311.066 85.0458 311.769 84.9623C313.053 84.7329 314.205 84.1874 315.46 83.8634C316.172 83.6796 316.745 83.2421 317.456 83.053C317.882 82.9037 318.277 82.9062 318.612 82.8171C318.946 82.728 319.403 82.822 319.585 82.7016C320.527 81.9478 321.835 81.7432 322.839 81.476C323.858 81.283 324.732 80.9764 325.507 80.474C326.095 80.0929 326.637 79.555 327.339 79.5594C327.683 79.5185 328.013 79.5536 328.349 79.5571C328.6 79.5597 328.802 79.3995 328.87 79.159C328.95 78.8775 329.169 78.6015 329.46 78.5632C329.995 78.4931 330.554 78.4132 331.133 78.3467C331.761 78.2743 332.097 77.8801 332.392 77.3229C332.468 77.1797 332.599 77.0566 332.842 76.9805C334.18 76.6242 335.335 75.9933 336.429 75.2709C336.562 75.1834 336.698 75.128 336.839 75.0858C337.35 74.9325 337.931 74.9384 338.375 74.6449C339.682 73.6504 340.534 73.3518 342.116 73.3616C342.286 73.3721 342.444 73.3649 342.601 73.3492C343.29 73.2802 343.897 72.8294 344.238 72.2298C344.317 72.0919 344.417 71.9347 344.569 71.8869C344.983 71.7565 345.577 72.0703 345.885 71.5316C346.219 71.0475 346.675 70.7465 347.314 70.7201C347.558 70.6912 347.74 70.5708 347.922 70.4504C349.837 68.7913 352.452 68.382 354.611 67.089C354.742 67.0023 354.9 66.9437 355.076 66.9041C356.337 66.6199 357.547 66.3364 358.624 65.6251C358.898 65.4445 359.233 65.3554 359.628 65.3578C360.024 65.3603 360.267 65.3314 360.571 64.9991C361.178 64.3345 361.816 63.913 362.79 63.7975C363.763 63.682 364.615 63.3834 365.1 62.5358C365.608 61.6497 367.174 61.9317 367.965 61.2841C368.193 61.0975 368.422 60.9096 368.688 60.8262C369.205 60.6167 369.478 60.0411 369.994 59.8316C370.374 59.6779 370.819 59.6227 371.233 59.5214C371.527 59.4496 371.841 59.4033 372.093 59.237C372.767 58.7916 373.477 58.4735 374.228 58.3396C374.951 58.2108 375.893 57.6549 376.411 57.1373C376.734 56.8149 376.955 56.3412 377.344 56.1026C377.738 55.8615 378.098 55.6264 378.537 55.5094C378.996 55.3874 379.54 55.3942 380.17 55.4029C380.759 55.411 381.203 55.2837 381.591 54.8427C382.093 54.2726 382.99 53.9856 383.741 53.8586C384.091 53.7995 384.429 53.6579 384.741 53.3907C384.965 53.1979 385.204 53.0705 385.451 52.9923C386.332 52.7129 387.383 52.5389 387.841 51.7388C388.6 50.3156 388.934 50.2265 390.486 50.388C391.643 50.547 392.494 49.8535 393.344 49.16C393.709 48.9192 393.404 48.0666 393.981 47.9486C394.468 47.8909 394.772 47.5586 395.228 47.2576C396.231 46.5954 397.112 45.7501 398.451 45.7888C399.881 45.7672 401.127 45.0761 402.007 43.8359C402.584 42.9281 403.253 42.3549 404.5 42.4538C404.88 42.5319 405.162 42.0929 405.474 41.8653C406.341 41.2352 407.363 40.9063 408.202 40.3698C409.08 39.8083 409.924 40.0591 410.793 39.4849C410.975 39.3652 411.194 39.3508 411.435 39.3708C411.81 39.4017 412.077 39.0422 411.974 38.6817C411.916 38.4753 412 38.2829 412.173 38.1552C412.937 37.5902 413.288 37.3577 413.776 37.2697C414.671 37.1085 415.562 36.8636 416.217 36.2356C416.549 35.9165 416.871 35.6053 417.176 35.2709C417.845 34.6978 418.3 34.0018 419.396 34.4643C419.712 34.5978 420.28 34.3681 420.762 34.1681C420.905 34.1086 421.048 34.0404 421.155 33.9286C421.236 33.8446 421.309 33.7468 421.382 33.6422C421.7 33.1841 422.27 32.9858 422.711 33.3302C423.137 33.5759 423.715 33.458 423.866 33.0943C424.17 32.367 424.686 32.1576 425.447 31.9192C425.964 31.7097 426.297 31.2257 426.692 30.8332C426.996 30.5008 427.331 30.4118 427.817 30.354C429.551 30.0001 431.132 29.22 432.225 27.7076C432.292 27.5913 432.441 27.5396 432.592 27.4966C432.816 27.4331 433.103 27.3704 433.336 27.3775C433.527 27.3833 433.614 27.2666 433.741 27.1248C434.42 26.3678 435.441 26.2765 436.36 26.0318C437.712 25.6719 438.715 24.5592 439.741 23.6124C439.847 23.5146 439.955 23.4171 440.068 23.3204C440.645 22.8075 441.283 22.3861 442.166 22.3308C442.409 22.3019 442.683 22.1213 442.865 22.0009C443.138 21.8203 443.351 21.5481 443.594 21.5193C445.024 21.4977 445.875 20.4092 446.817 19.6555C448.306 18.5406 449.917 18.0037 451.559 17.315C452.524 16.9767 453.831 17.1906 454.345 16.31C454.443 16.1426 454.505 15.9439 454.508 15.7012C454.509 15.6554 454.516 15.5918 454.531 15.5485C454.596 15.3555 454.786 15.2706 454.98 15.2073C455.636 14.9933 455.975 14.3027 456.635 14.0956C457.872 13.7078 458.887 12.8564 460.107 12.6066C460.635 12.4983 461.143 12.0805 461.684 12.0915C461.887 12.0956 462.101 12.1648 462.318 12.2184C462.584 12.2842 462.816 12.0922 462.869 11.825C462.884 11.7499 462.884 11.6523 462.884 11.5546C462.883 11.4019 463.078 11.3335 463.213 11.405C463.281 11.4406 463.274 11.4752 463.291 11.5493C463.384 11.9375 463.442 12.1329 463.599 12.1948C464.159 12.4153 464.597 11.6151 464.64 11.0175C464.675 10.5234 464.958 10.0818 465.398 9.85043C466.2 9.42774 466.981 9.03736 467.854 8.66579C468.223 8.49158 468.44 8.41811 468.746 8.46027C469.517 8.56646 470.305 8.51051 470.831 7.94064C471.157 7.58849 471.615 7.40497 472.096 7.39461C472.442 7.38715 472.773 7.37048 473.115 7.30068C473.358 7.27179 473.632 7.0912 473.845 6.81909C474.148 6.48676 473.904 5.72572 474.634 5.63908C474.937 5.6031 475.181 5.55494 475.381 5.42124C475.645 5.24474 475.751 4.76351 476.063 4.82761C477.645 5.23232 478.403 3.41415 479.924 3.33238C480.168 3.3035 480.41 2.87964 480.623 2.60752C481.091 1.92879 482.162 2.06532 482.777 1.51507C483.684 0.704437 484.715 0.0812115 485.943 -0.245877C486.369 -0.395161 486.764 -0.787648 487.28 -0.997127C487.888 -1.26681 488.344 -1.9628 489.135 -1.95792C489.658 -1.97958 489.487 -2.51508 489.675 -2.73988C489.767 -2.84997 489.932 -2.86055 490.07 -2.8989C490.409 -2.99252 490.778 -3.04121 491.149 -3.08575C491.219 -3.0941 491.286 -3.06089 491.334 -3.01033C491.391 -2.95142 491.451 -2.91009 491.509 -2.86212C491.572 -2.81082 491.683 -2.82483 491.699 -2.90404C491.709 -2.95284 491.68 -3.0138 491.631 -3.02298C491.574 -3.03369 491.514 -3.04283 491.447 -3.04739C491.295 -3.0578 491.16 -3.16135 491.152 -3.31322C491.151 -3.33472 491.149 -3.35644 491.148 -3.37867C491.132 -3.58707 491.266 -3.79095 491.474 -3.81567C491.801 -3.85444 492.128 -3.89322 492.455 -3.93199C492.511 -3.93869 492.567 -3.94987 492.622 -3.96216C492.717 -3.98321 492.816 -3.99895 492.914 -4.01524C493.349 -4.08721 493.766 -4.27101 494.114 -4.53853C494.273 -4.65973 494.413 -4.78359 494.546 -4.8715C495.06 -5.21061 495.734 -5.29362 495.96 -5.86467C496.125 -6.28128 496.252 -6.68332 496.764 -6.86297C497.433 -7.04113 497.888 -7.73711 498.435 -8.09831C498.983 -8.45951 499.652 -8.63762 500.412 -8.87599C501.081 -9.05414 501.903 -8.80606 502.571 -9.37918C503.057 -9.8319 503.848 -9.82701 504.548 -10.1569C506.19 -10.8455 507.71 -11.7172 509.412 -12.3143C510.264 -12.6129 510.993 -13.0945 511.57 -14.0024C511.957 -14.4975 512.243 -15.1442 513.07 -14.9774C513.249 -14.9415 513.431 -14.8863 513.595 -14.9639C513.629 -14.98 513.663 -14.9979 513.694 -15.0157C513.801 -15.0759 513.907 -15.1384 514.018 -15.1893C514.902 -15.5939 515.139 -15.6858 515.834 -15.7163C516.236 -15.7339 516.548 -16.0787 516.515 -16.4782C516.479 -16.9165 516.921 -17.3127 517.202 -17.6518C517.502 -18.0152 517.654 -18.581 518.135 -18.7317C518.739 -18.9212 519.305 -19.1686 519.863 -19.4279C520.125 -19.5497 520.562 -19.4686 520.507 -19.1857C520.412 -18.6975 520.835 -18.5327 520.653 -18.9965C520.626 -19.0662 520.59 -19.1479 520.545 -19.2456C520.54 -19.2574 520.536 -19.2657 520.529 -19.2765C520.426 -19.4302 520.53 -19.6427 520.712 -19.6733C521.781 -19.8527 522.602 -20.5248 523.303 -21.2215C524.002 -21.9463 524.792 -22.3364 525.643 -22.6349C527.012 -23.143 528.228 -23.6823 529.413 -24.4649C529.661 -24.6286 529.965 -24.7077 530.297 -24.8073C530.545 -24.8817 530.821 -24.6821 530.846 -24.4257C530.874 -24.1396 531.176 -23.9888 531.436 -24.1121C531.906 -24.3348 532.334 -24.548 532.729 -24.8091C533.276 -25.1703 533.701 -25.7145 534.34 -26.1359C534.801 -26.4402 535.456 -26.1066 535.896 -26.4401C536.059 -26.5636 536.17 -26.7644 536.255 -27.0051C536.588 -27.8841 537.318 -28.3657 537.956 -28.7871C538.299 -29.0133 538.663 -28.658 539.072 -28.6149C539.563 -28.5632 539.733 -29.3016 540.085 -29.5335C540.757 -29.9008 541.44 -30.4533 542.211 -30.6452C543.304 -30.917 544.406 -31.069 545.345 -31.6885C546.227 -32.2708 547.061 -32.974 547.911 -33.6017C548.23 -33.8373 548.622 -34.0402 549.114 -34.3084C550.451 -35.0597 552.002 -35.2932 553.462 -35.8615C554.589 -36.3781 555.625 -37.0307 556.706 -37.7406C556.997 -37.931 557.094 -38.3326 556.948 -38.6472C556.853 -38.8535 556.827 -39.1061 556.983 -39.2715C557.423 -39.7371 558.088 -39.6547 558.726 -39.7794C559.046 -39.8417 559.408 -39.7072 559.539 -39.4101C559.619 -39.227 559.781 -39.1555 559.982 -39.1603C560.345 -39.169 560.717 -39.2175 561.079 -39.2214C561.251 -39.2233 561.423 -39.2241 561.592 -39.2501C562.224 -39.3474 562.811 -39.5299 563.374 -39.9017C564.894 -40.7734 566.323 -41.5849 567.904 -42.3651C568.087 -42.4858 567.868 -42.8013 567.652 -42.7633C566.668 -42.5905 565.777 -42.279 565.014 -41.7753C564.489 -41.4286 563.922 -41.1451 563.309 -40.9081C562.542 -40.6112 562.059 -41.4552 562.854 -41.6671C564.926 -42.1856 566.481 -43.4794 568.256 -44.5965C568.541 -44.776 568.877 -44.7484 569.142 -44.5398C569.221 -44.4781 569.328 -44.4373 569.411 -44.4919C569.53 -44.5693 569.643 -44.7377 569.665 -44.8454C569.746 -45.6106 570.074 -46.0051 570.648 -46.3168C570.78 -46.3881 570.913 -46.4561 571.017 -46.5637C571.22 -46.7749 571.428 -46.9871 571.634 -47.1953C572.583 -48.1535 573.854 -48.8571 574.825 -49.7655C574.972 -49.903 575.127 -50.0331 575.295 -50.1441C575.49 -50.2731 575.702 -50.3751 575.919 -50.4627C577.479 -51.0913 578.829 -52.1967 580.392 -52.9822C580.575 -53.1026 580.757 -53.223 581 -53.2519C581.3 -53.2875 581.588 -53.2655 581.915 -53.2495C582.279 -53.2317 582.583 -52.9397 582.583 -52.5769C582.584 -52.4754 582.584 -52.374 582.584 -52.2725C582.584 -52.1471 582.734 -52.0388 582.86 -52.0452C582.969 -52.0508 582.996 -52.1247 583.032 -52.2271C583.437 -53.3772 584.706 -53.8901 585.227 -54.9879C585.493 -55.4527 586.164 -55.0986 586.702 -55.0905C587.376 -55.0803 587.967 -55.5358 588.628 -55.809C588.691 -55.8354 588.723 -55.8586 588.79 -55.8747C589.033 -55.9329 589.32 -55.8173 589.519 -55.6666C589.631 -55.582 589.738 -55.5035 589.837 -55.4379C589.925 -55.3796 590.037 -55.3057 590.138 -55.3383C590.2 -55.3585 590.246 -55.3934 590.304 -55.4248C590.687 -55.6362 591.266 -56.2642 591.522 -56.805C591.691 -57.1605 591.633 -57.6966 591.247 -57.7762C591.094 -57.8075 590.851 -57.7787 590.669 -57.6583C590.304 -57.4175 590.122 -56.9021 589.604 -57.4826C589.36 -57.8486 589.725 -58.0894 589.937 -58.3615C591.418 -59.9812 591.542 -60.0793 593.352 -58.834C593.447 -58.7688 593.553 -58.6399 593.649 -58.7032C593.649 -58.7032 593.649 -58.7032 593.649 -58.7032C593.74 -58.7634 593.983 -58.7923 594.074 -58.8525C595.594 -60.1191 597.083 -61.2341 599.029 -61.8601C600.215 -62.2477 601.126 -63.2447 602.22 -63.9671C602.296 -64.0172 602.383 -64.0515 602.471 -64.0831C602.674 -64.1557 602.941 -64.0524 603.019 -63.852C603.097 -63.6516 603.018 -63.4408 602.829 -63.3374C602.345 -63.0722 601.822 -62.8368 601.675 -62.421C601.251 -61.4818 600.217 -61.0628 599.67 -60.3067C599.445 -59.9132 598.883 -59.9959 598.447 -59.8659C597.624 -59.6201 597.29 -58.847 596.996 -58.0142C596.851 -57.4973 596.603 -57.0241 596.269 -56.6267C595.703 -55.9541 594.784 -56.0192 594.07 -56.5354C594 -56.5863 593.928 -56.6335 593.854 -56.6749C593.325 -56.9692 592.764 -56.5229 592.367 -56.0683C591.838 -55.4622 591.239 -54.8862 590.598 -54.2969C590.367 -54.0844 590.018 -54.1415 589.887 -54.4269C589.789 -54.6401 589.544 -54.7242 589.324 -54.6397C588.846 -54.4552 588.376 -54.2467 587.877 -54.0372C587.416 -53.8439 587.09 -53.3889 587.132 -52.8923C587.169 -52.4553 587.002 -52.0417 586.666 -51.7584C586.272 -51.4254 585.874 -51.1035 585.419 -50.891C584.593 -50.5051 583.638 -50.3676 582.914 -49.815C582.678 -49.635 582.44 -49.4581 582.193 -49.295C581.586 -48.8002 581.412 -48.6584 580.898 -48.5986C580.382 -48.5385 579.932 -48.3053 579.663 -47.863C579.423 -47.4683 578.971 -47.2138 578.518 -47.1158C577.345 -46.8622 576.332 -46.2009 575.373 -45.4289C574.998 -45.1271 574.497 -45.074 574.104 -45.3533C573.626 -45.6926 572.92 -45.6413 572.593 -45.1569C572.364 -44.8159 572.168 -44.4721 572.028 -44.109C571.902 -43.7837 571.635 -43.5369 571.287 -43.5769C570.819 -43.6308 570.41 -43.2223 570.546 -42.7726C570.571 -42.6927 570.594 -42.6171 570.615 -42.5454C570.654 -42.4159 570.665 -42.2752 570.602 -42.1559C570.404 -41.7838 569.891 -41.4935 569.578 -41.6256C569.23 -41.7595 568.925 -41.7987 568.634 -41.7731C567.738 -41.6943 566.875 -40.753 567.177 -39.9087C567.355 -39.5137 567.175 -39.3252 567.027 -39.1338C566.956 -39.0426 566.759 -39.0317 566.72 -39.1402C566.716 -39.1503 566.712 -39.1604 566.709 -39.1705C566.676 -39.2568 566.58 -39.2293 566.631 -39.1525C566.631 -39.1525 566.631 -39.1525 566.631 -39.1525C566.732 -39.0009 566.694 -38.7896 566.533 -38.7054C566.484 -38.68 566.438 -38.6601 566.4 -38.6503C566.329 -38.6322 566.264 -38.6881 566.199 -38.7228C565.595 -39.0482 565.012 -39.1378 564.319 -38.6807C563.986 -38.4605 563.535 -38.5624 563.145 -38.4749C562.276 -38.2801 561.538 -37.8032 561.066 -37.0602C560.732 -36.5761 560.246 -36.5184 559.82 -36.3691C559.338 -36.1556 559.085 -36.5882 558.683 -36.7645C558.471 -36.8577 558.244 -36.7329 558.098 -36.5532C558.008 -36.4421 557.917 -36.3288 557.825 -36.2134C557.352 -35.6184 558.103 -34.7714 558.786 -35.1071C559.117 -35.2696 559.556 -35.0737 559.356 -34.7651C559.301 -34.6804 559.225 -34.6095 559.158 -34.5447C559.067 -34.4556 558.981 -34.3577 558.882 -34.2769C558.091 -33.6313 557.364 -33.0422 556.449 -32.5619C555.545 -32.0773 554.619 -31.7681 553.616 -31.3556C553.329 -31.2378 553.013 -31.356 552.924 -31.6523C552.838 -31.9383 552.46 -32.127 552.32 -31.8633C552.206 -31.647 552.241 -31.394 552.301 -31.1199C552.347 -30.9068 552.354 -30.6715 552.213 -30.5048C552.019 -30.2755 551.669 -30.1103 550.96 -29.8508C550.436 -29.6588 549.976 -29.923 550.341 -30.3438C550.379 -30.3875 550.411 -30.4376 550.445 -30.4842C550.579 -30.6671 550.799 -30.8393 550.853 -31.1077C550.871 -31.2 550.844 -31.3599 550.786 -31.4781C550.726 -31.6018 550.569 -31.6727 550.431 -31.6766C550.222 -31.6826 550.064 -31.5214 549.944 -31.3508C549.586 -30.84 548.857 -30.806 548.572 -30.3926C548.147 -29.8484 547.386 -30.005 547.083 -29.2777C546.747 -28.2221 545.351 -28.1363 544.331 -27.6948C543.673 -27.4097 542.947 -27.2628 542.34 -26.9373C542.053 -26.8211 541.842 -26.5924 541.638 -26.3189C541.443 -26.0586 541.593 -25.6544 541.918 -25.6481C542.215 -25.6424 542.448 -25.2829 542.262 -25.0532C542.025 -24.7615 541.833 -24.5508 541.58 -24.4431C541.542 -24.4269 541.504 -24.4111 541.468 -24.3917C540.514 -23.882 539.587 -23.1503 538.513 -22.829C537.418 -22.5016 536.354 -21.9309 535.381 -21.4204C534.317 -20.8497 533.253 -20.2791 532.128 -19.7999C531.366 -19.4908 530.653 -18.9996 529.965 -18.5214C529.517 -18.2096 528.923 -18.1968 528.379 -18.1396C528.013 -18.1012 527.616 -17.9824 527.184 -17.8498ZM402.594 49.2474C402.659 49.2043 402.693 49.1144 402.74 49.0446C402.77 49.0007 402.83 49.0112 402.86 49.0554C402.907 49.127 402.842 49.2437 402.756 49.2526C402.707 49.2577 402.655 49.26 402.594 49.2474C402.472 48.802 401.973 48.5861 401.607 48.8681C401.475 48.9695 401.357 49.0707 401.248 49.1805C401.191 49.2381 401.13 49.2935 401.059 49.3321C400.987 49.3706 400.92 49.3976 400.857 49.4147C400.269 49.5727 399.648 49.5695 399.515 50.1613C399.496 50.2474 399.474 50.3324 399.449 50.4166C399.421 50.5104 399.396 50.5816 399.479 50.634C399.531 50.6671 399.645 50.6751 399.702 50.6505C400.192 50.4385 400.704 50.1219 401.135 50.2106C401.987 50.3069 402.199 49.6399 402.594 49.2474ZM408.283 48.9179C407.672 47.6077 407.672 47.6077 408.857 46.8251C409.321 46.519 408.514 46.3401 407.983 46.508C407 46.8194 405.812 46.73 404.914 47.5715C404.708 47.7649 404.706 48.0795 404.847 48.3244C404.904 48.4215 404.958 48.5196 405.014 48.6198C405.242 49.0325 405.839 48.8583 405.931 48.3966C405.979 48.1545 406.176 48.0452 406.424 48.0583C407.224 48.1008 407.787 48.3425 408.283 48.9179C407.948 49.007 407.644 48.9443 407.309 49.0334C406.736 49.186 407.506 49.538 407.961 49.1596C408.07 49.0689 408.178 48.9871 408.283 48.9179ZM182.626 -68.8327C183.275 -68.6991 183.416 -68.3068 183.184 -67.6888C183.133 -67.5511 183.08 -67.4078 183.024 -67.2504C182.722 -66.1282 182.571 -64.9747 182.36 -63.9127C182.088 -62.9421 182.09 -61.7573 181.482 -61.0926C180.753 -60.2161 181.333 -59.1492 180.847 -58.3015C180.759 -58.0899 180.764 -57.8058 180.753 -57.5335C180.739 -57.1704 180.538 -56.8573 180.388 -56.5262C180.159 -56.0192 180.158 -55.5241 180.29 -55.0603C180.465 -54.448 180.569 -53.7887 180.31 -53.2074C180.293 -53.1699 180.277 -53.1323 180.26 -53.0947C179.639 -51.6973 181.105 -50.1428 182.186 -51.2266C182.278 -51.3193 182.348 -51.4249 182.419 -51.5342C182.514 -51.6789 182.627 -51.7972 182.804 -51.8183C184.265 -51.9915 184.902 -53.2028 185.935 -54.0167C186.694 -54.6501 187.454 -55.2834 188.519 -55.4592C189.34 -55.606 190.13 -55.996 190.677 -56.7522C191.618 -57.9009 192.804 -58.6835 194.172 -59.1915C194.841 -59.3697 195.54 -59.6995 195.783 -60.5183C196.11 -61.3037 197.093 -61.4249 197.771 -61.9405C198.447 -62.4539 198.902 -63.2369 199.581 -63.6849C200.219 -64.1063 200.522 -64.8336 201.252 -65.3152C201.89 -65.7366 202.467 -66.2495 202.984 -66.854C203.409 -67.3982 203.895 -67.8509 204.655 -68.0893C204.744 -68.1206 204.843 -68.1638 204.942 -68.2194C205.782 -68.6898 205.673 -69.9477 206.477 -70.4781C207.298 -71.0199 207.996 -71.7448 208.756 -72.3781C209.204 -72.6742 209.1 -73.3753 209.285 -73.8786C209.319 -73.972 209.362 -74.0589 209.423 -74.1361C209.762 -74.4738 209.961 -74.8405 210.08 -75.2237C210.357 -76.1183 211.146 -76.8009 211.547 -77.6472C211.759 -78.3143 212.153 -79.1018 212.761 -79.3714C214.008 -80.0625 214.462 -81.1534 215.069 -82.213C215.706 -83.4243 216.709 -84.4814 217.498 -85.6614C218.044 -86.4176 218.561 -87.022 218.712 -87.7806C218.772 -88.0841 218.863 -88.5392 219.136 -88.7198C219.933 -89.2456 219.792 -90.4311 220.196 -91.2936C220.321 -91.5605 220.479 -91.8305 220.683 -92.113C221.108 -92.6572 221.259 -93.4158 221.471 -94.0829C221.743 -95.0534 222.015 -96.0239 222.349 -96.9029C223.046 -98.4177 222.74 -99.6652 221.43 -100.645C221.156 -100.86 221.125 -101.103 221.095 -101.346C221.002 -102.471 220.788 -102.594 219.632 -102.753C218.671 -102.842 218.369 -104.17 217.445 -104.45C216.629 -104.697 215.796 -104.803 214.883 -104.362C214.523 -104.124 214.019 -104.385 213.598 -104.281C213.328 -104.214 213.077 -104.092 212.815 -103.919C211.995 -103.377 211.174 -102.835 210.292 -102.385C209.61 -101.935 208.802 -101.797 208.051 -101.473C207.315 -101.155 206.659 -100.665 206.076 -100.061C205.967 -99.9493 205.864 -99.7813 205.744 -99.6823C205.567 -99.5369 205.34 -99.5838 205.119 -99.5225C204.319 -99.3005 203.714 -98.6692 203.179 -98.0845C202.481 -97.3596 201.568 -97.1526 200.9 -96.5795C200.867 -96.5577 200.854 -96.532 200.846 -96.505C200.818 -96.4034 200.739 -96.3318 200.661 -96.2608C199.766 -95.4484 198.874 -94.6377 198.039 -93.8643C197.889 -93.7256 197.649 -93.7572 197.633 -93.9606C197.62 -94.1435 197.425 -94.3219 197.269 -94.2247C197.051 -94.0885 196.872 -93.9322 196.756 -93.7472C196.512 -93.3574 196.19 -92.9202 195.784 -92.702C195.607 -92.6069 195.466 -92.4545 195.37 -92.2061C195.348 -92.1479 195.325 -92.0892 195.296 -92.0337C194.544 -90.5842 193.26 -89.4408 192.468 -88.0145C192.375 -87.8481 192.348 -87.6704 192.201 -87.5491C192.109 -87.4736 191.986 -87.3885 191.9 -87.3065C191.477 -86.9012 191.163 -86.5089 191.302 -85.7622C191.394 -85.4275 191.121 -84.8519 190.847 -84.6713C189.662 -83.8887 189.451 -82.8267 189.209 -81.613C189.029 -80.3077 188.635 -79.1252 187.724 -78.1283C187.207 -77.5238 186.934 -76.9482 186.722 -76.2812C186.48 -75.4624 186.238 -74.6436 185.783 -73.9476C184.86 -72.58 184.654 -72.3982 184.527 -71.2978C184.467 -70.7731 184.175 -70.3323 183.658 -70.2141C183.201 -70.1093 182.738 -69.7859 182.635 -69.3294C182.594 -69.1495 182.584 -68.988 182.626 -68.8327C182.431 -68.5831 182.204 -68.34 181.966 -68.0916C181.49 -67.5962 181.864 -66.5063 182.247 -67.076C182.292 -67.1421 182.302 -67.2032 182.317 -67.2815C182.42 -67.8417 182.456 -68.3509 182.626 -68.8327ZM360.283 69.5866C360.253 70.1888 360.108 70.8618 359.61 71.2045C359.519 71.2673 359.418 71.3246 359.303 71.3713C358.694 71.6409 358.117 71.7589 357.508 72.0286C356.969 72.1978 356.383 72.3973 355.969 72.8134C355.645 73.1401 355.765 73.5175 356.165 73.289C356.214 73.2613 356.26 73.2586 356.314 73.2465C356.63 73.1771 356.989 73.1725 357.297 73.0906C357.844 72.945 358.452 73.023 358.904 72.6765C359.121 72.5104 359.271 72.2411 359.545 72.2381C359.687 72.2366 359.833 72.2642 359.972 72.2361C360.253 72.1791 360.447 71.9906 360.52 71.6218C360.633 71.0515 361.233 70.7783 361.738 70.487C362.165 70.2401 362.611 70.0579 363.165 70.271C363.53 70.4251 363.895 70.1843 363.894 69.7894C363.894 69.3944 363.528 69.2403 363.133 69.2378C362.888 69.2363 362.643 69.2348 362.377 69.2476C362.161 69.2579 362.033 68.976 362.147 68.7925C362.264 68.6041 362.098 68.3926 361.876 68.4155C361.28 68.477 360.85 68.6279 360.594 68.9407C360.486 69.0726 360.361 69.209 360.315 69.373C360.297 69.4355 360.287 69.5073 360.283 69.5866ZM539.651 -28.5501C539.252 -28.4504 538.918 -28.1472 538.736 -27.7797C538.702 -27.7103 538.661 -27.6601 538.61 -27.6025C538.346 -27.3082 538.145 -27.0552 537.868 -26.7522C537.582 -26.468 537.488 -26.1031 537.515 -25.7616C537.536 -25.5068 537.589 -25.2494 537.693 -25.0159C537.762 -24.8636 537.864 -24.745 538.009 -24.6814C538.296 -24.5554 538.604 -24.7603 538.83 -24.9766C539.16 -25.2923 539.496 -25.6366 539.826 -25.9558C540.045 -26.1668 540.017 -26.5474 539.782 -26.7405C539.543 -26.9363 539.553 -27.2666 539.79 -27.4634C539.9 -27.555 540.012 -27.6447 540.123 -27.7358C540.42 -27.9803 540.523 -28.5003 540.148 -28.5877C539.994 -28.6235 539.827 -28.5941 539.651 -28.5501ZM414.205 43.6851C414.927 43.3294 414.939 42.1065 414.279 42.5668C414.197 42.6243 414.168 42.6704 414.085 42.7263C413.834 42.8943 413.634 42.8936 413.447 42.8234C412.868 42.6058 412.352 42.7542 412.222 43.3558C412.079 44.0121 412.816 44.3999 413.413 44.0878C413.68 43.9484 413.942 43.8147 414.205 43.6851ZM491.851 -1.99034C491.827 -1.92126 491.835 -1.84447 491.897 -1.80488C492.006 -1.73518 492.174 -1.72401 492.282 -1.79524C492.644 -2.03432 493.006 -2.27341 493.368 -2.51249C493.425 -2.55025 493.486 -2.58231 493.55 -2.60777C493.575 -2.6177 493.599 -2.62749 493.624 -2.63718C494.252 -2.88585 494.319 -3.41018 493.666 -3.23633C493.569 -3.21047 493.462 -3.20003 493.347 -3.20056C492.787 -3.20311 492.23 -3.00601 492.031 -2.48466C491.969 -2.32263 491.91 -2.15682 491.851 -1.99034ZM406.043 42.984C406.852 42.762 406.296 41.637 405.555 42.0286C405.517 42.0487 405.479 42.0708 405.443 42.095C405.26 42.2154 405.17 42.6706 405.231 42.7621C405.266 42.8146 405.421 42.9177 405.564 42.9848C405.718 43.0572 405.879 43.029 406.043 42.984ZM497.618 -5.87145C498.124 -6.00645 497.56 -6.67183 497.155 -6.34199C496.863 -6.10377 497.15 -5.77087 497.52 -5.84803C497.553 -5.85497 497.586 -5.8628 497.618 -5.87145ZM348.965 74.6166C349.04 74.1831 348.64 73.7724 348.201 73.8244C347.785 73.8739 347.394 74.2663 347.619 74.6194C347.767 74.851 348.032 74.9419 348.446 74.9804C348.748 75.0426 348.904 74.9709 348.965 74.6166ZM390.191 56.2497C390.546 56.4542 390.972 56.173 390.92 55.7681C390.872 55.3856 390.673 55.2651 390.399 55.2299C390.24 55.2096 390.064 55.1805 389.931 55.2683C389.798 55.3561 389.745 55.5301 389.741 55.689C389.734 55.9385 389.908 56.1302 390.191 56.2497ZM387.548 59.9767C387.738 59.7387 387.577 59.403 387.272 59.3899C386.982 59.3774 386.863 59.4726 386.849 59.7682C386.833 60.1322 387.321 60.2617 387.548 59.9767ZM334.786 83.2997C335.053 83.5441 335.49 83.3051 335.53 82.9466C335.567 82.6157 335.227 82.4179 334.918 82.5437C334.887 82.5561 334.857 82.5685 334.828 82.5813C334.565 82.6939 334.498 83.0198 334.701 83.2198C334.729 83.2464 334.757 83.2729 334.786 83.2997ZM513.592 -11.7266C513.703 -12.1684 512.905 -12.2623 512.631 -11.8984C512.384 -11.5713 512.842 -11.2387 513.221 -11.3973C513.435 -11.4871 513.558 -11.592 513.592 -11.7266ZM352.51 74.6975C352.738 74.4645 352.514 74.0804 352.194 74.0145C352.121 73.9994 352.088 74.009 352.018 74.0338C351.787 74.1148 351.611 74.2531 351.629 74.508C351.638 74.6363 351.713 74.7502 351.829 74.807C351.895 74.8396 351.972 74.8684 352.039 74.8837C352.137 74.9062 352.244 74.8823 352.333 74.8352C352.393 74.8036 352.451 74.7571 352.51 74.6975ZM357.843 74.0478C357.607 74.2037 357.65 74.598 357.934 74.6078C358.202 74.6171 358.284 74.5315 358.297 74.31C358.311 74.0671 358.047 73.9134 357.843 74.0478ZM26.4355 -38.9934C26.3251 -39.1414 26.0641 -39.0396 26.0199 -38.8608C26.0164 -38.8466 26.0153 -38.8326 26.0155 -38.8179C26.0226 -38.4533 26.1902 -38.1947 26.5927 -38.0912C26.6325 -38.0809 26.6748 -38.0894 26.7091 -38.112C26.7802 -38.1589 26.8 -38.255 26.7633 -38.3319C26.6753 -38.5159 26.598 -38.7538 26.5021 -38.8978C26.4849 -38.9236 26.4629 -38.9565 26.4355 -38.9934ZM393.766 53.7035C393.445 53.8344 393.494 54.2943 393.825 54.1934C393.923 54.1636 394.019 54.1179 394.112 54.056C394.136 54.0406 394.155 54.019 394.171 53.9956C394.231 53.9082 394.199 53.7946 394.114 53.7314C394.112 53.7302 394.111 53.7291 394.109 53.728C394.018 53.6605 393.871 53.6605 393.766 53.7035ZM197.732 54.1228C197.615 53.9464 197.326 54.0724 197.453 54.2418C197.489 54.2894 197.534 54.3297 197.589 54.3604C197.726 54.4361 197.819 54.2527 197.732 54.1228ZM526.032 -20.6101C525.984 -20.3794 526.121 -20.0856 526.333 -20.1891C526.433 -20.2374 526.518 -20.3025 526.594 -20.3853C526.873 -20.6901 526.397 -21.0569 526.12 -20.7503C526.108 -20.737 526.096 -20.7236 526.084 -20.7099C526.056 -20.6761 526.041 -20.6533 526.032 -20.6101ZM176.567 -53.826C176.354 -53.5966 176.469 -53.0553 176.776 -53.1182C176.825 -53.1281 176.834 -53.1358 176.878 -53.1568C177.168 -53.2931 177.312 -53.7554 177.142 -54.0102C177.081 -54.1017 176.929 -54.1331 176.838 -54.0729C176.756 -54.0186 176.667 -53.9335 176.567 -53.826ZM586.176 -53.6029C586.21 -53.6462 586.21 -53.7098 586.179 -53.7555C586.14 -53.8143 586.063 -53.8268 586.004 -53.7879C585.766 -53.6308 585.528 -53.4737 585.29 -53.3166C585.199 -53.2564 585.23 -53.0131 585.291 -52.9216C585.319 -52.8785 585.389 -52.8621 585.463 -52.8631C585.616 -52.8652 585.724 -52.9889 585.811 -53.1145C585.914 -53.2654 586.044 -53.4331 586.176 -53.6029ZM446.657 24.0452C446.493 23.976 446.281 24.0258 446.224 24.1934C446.185 24.3054 446.18 24.4134 446.246 24.513C446.275 24.5571 446.361 24.5945 446.442 24.6214C446.549 24.6567 446.663 24.6298 446.728 24.5389C446.746 24.5138 446.764 24.4862 446.783 24.4568C446.878 24.3084 446.82 24.1138 446.657 24.0452ZM411.745 45.2812C411.908 45.0996 411.666 44.786 411.436 44.7012C411.248 44.632 411.147 44.7755 411.073 44.9604C411.069 44.9688 411.066 44.9772 411.063 44.9856C411.026 45.0806 411.045 45.1858 411.096 45.2741C411.201 45.4537 411.336 45.6527 411.553 45.4551C411.581 45.4294 411.61 45.404 411.64 45.3804C411.677 45.3509 411.712 45.3175 411.745 45.2812ZM467.725 8.91561C467.738 8.84724 467.691 8.73346 467.621 8.73376C467.427 8.7346 467.211 8.70381 467.025 8.71619C466.993 8.71831 466.967 8.74216 466.961 8.77335C466.951 8.82241 466.993 8.86714 467.043 8.86567C467.218 8.86055 467.413 8.88623 467.591 8.88545C467.661 8.88515 467.711 8.98397 467.725 8.91561ZM177.311 29.6839C177.478 29.8622 177.736 29.623 177.723 29.38C177.72 29.3148 177.716 29.2495 177.709 29.1835C177.696 29.0588 177.498 28.997 177.373 29.016C177.316 29.0249 177.311 29.0516 177.286 29.1041C177.175 29.3349 177.172 29.5352 177.311 29.6839ZM404.228 49.7534C404.309 49.7089 404.442 49.5617 404.423 49.4706C404.416 49.4374 404.406 49.4062 404.389 49.38C404.372 49.3543 404.345 49.3453 404.312 49.345C404.194 49.3436 404.061 49.5684 404.096 49.6816C404.098 49.6908 404.101 49.6999 404.104 49.7087C404.122 49.7633 404.177 49.7809 404.228 49.7534ZM221.29 -77.3013C221.526 -77.3047 221.83 -77.5887 221.722 -77.7984C221.681 -77.8793 221.611 -77.899 221.521 -77.917C221.378 -77.9457 221.164 -77.9344 221.1 -77.8921C221.009 -77.8319 221.009 -77.4369 221.07 -77.3454C221.098 -77.3044 221.18 -77.2997 221.29 -77.3013ZM519.634 -19.012C519.558 -19.0763 519.455 -19.0082 519.406 -18.922C519.38 -18.8758 519.352 -18.8314 519.334 -18.7736C519.324 -18.7426 519.33 -18.7081 519.355 -18.6863C519.358 -18.6832 519.362 -18.6803 519.365 -18.6774C519.447 -18.6108 519.629 -18.7087 519.681 -18.7998C519.713 -18.8562 519.72 -18.9196 519.677 -18.9689C519.664 -18.9841 519.65 -18.9986 519.634 -19.012ZM400.534 47.5009C400.65 47.5739 400.854 47.5521 400.931 47.4387C400.932 47.4367 400.933 47.4347 400.935 47.4327C400.992 47.3466 400.927 47.2429 400.831 47.2039C400.752 47.172 400.67 47.1348 400.595 47.1078C400.534 47.086 400.495 47.0733 400.461 47.1277C400.402 47.221 400.391 47.4136 400.486 47.4711C400.502 47.4811 400.518 47.491 400.534 47.5009ZM344.532 76.3968C344.737 76.6882 345.42 76.3504 345.223 76.0543C345.162 75.9627 344.858 75.9001 344.767 75.9603C344.675 76.0205 344.463 76.2926 344.524 76.3841C344.527 76.3884 344.529 76.3927 344.532 76.3968ZM350.364 75.691C350.444 75.6381 350.323 75.5724 350.228 75.5838C350.193 75.5878 350.159 75.5919 350.128 75.6C350.088 75.6101 350.087 75.6791 350.093 75.7192C350.104 75.7838 350.184 75.8101 350.239 75.774C350.28 75.7463 350.322 75.7187 350.364 75.691ZM356.955 70.6802C356.978 70.6254 356.925 70.5423 356.866 70.5494C356.819 70.555 356.772 70.5596 356.731 70.5735C356.7 70.584 356.681 70.6137 356.675 70.646L356.664 70.7014C356.658 70.7308 356.662 70.7641 356.687 70.781C356.717 70.8012 356.753 70.802 356.797 70.8009C356.857 70.7994 356.932 70.7351 356.955 70.6802ZM435.573 29.635C435.553 29.6883 435.59 29.7417 435.642 29.7651C435.718 29.7993 435.774 29.8462 435.86 29.8742C435.891 29.8845 435.926 29.878 435.948 29.8535C435.961 29.839 435.973 29.8227 435.984 29.8055C436.031 29.7316 435.955 29.5611 435.871 29.534C435.787 29.5069 435.607 29.5431 435.576 29.6252C435.575 29.6285 435.574 29.6318 435.573 29.635ZM391.944 54.9522C391.973 54.9581 391.968 54.9458 391.988 54.9244C392.025 54.8853 392.051 54.831 392.081 54.7816C392.106 54.7398 392.085 54.6652 392.037 54.6554C392.022 54.6524 392.007 54.6553 391.995 54.6633C391.957 54.6887 391.917 54.7147 391.87 54.7459C391.788 54.7998 391.848 54.9325 391.944 54.9522ZM397.431 52.5695C397.554 52.6674 397.765 52.537 397.84 52.3994C397.864 52.356 397.851 52.3501 397.832 52.3046C397.739 52.0882 397.386 51.8949 397.304 51.949C397.242 51.9897 397.236 52.1138 397.258 52.2183C397.275 52.3029 397.287 52.3998 397.335 52.4715C397.358 52.5053 397.391 52.5378 397.431 52.5695ZM23.3497 -52.2603C23.4204 -52.2457 23.5442 -52.281 23.5824 -52.3419C23.6432 -52.4392 23.7264 -52.5205 23.6822 -52.5867C23.6586 -52.6221 23.635 -52.6575 23.6061 -52.6895C23.5206 -52.784 23.3823 -52.7006 23.3338 -52.5832C23.3162 -52.5407 23.2979 -52.4977 23.2813 -52.4558C23.2487 -52.3739 23.263 -52.2782 23.3497 -52.2603ZM197.324 -53.38C197.464 -53.3092 197.646 -53.4959 197.599 -53.6454C197.576 -53.7165 197.546 -53.6792 197.476 -53.7049C197.401 -53.7323 197.32 -53.769 197.243 -53.8003C197.15 -53.8377 197.043 -53.719 197.024 -53.6213C197.009 -53.5459 197.055 -53.5275 197.122 -53.4893C197.191 -53.4501 197.259 -53.4126 197.324 -53.38ZM396.055 52.7925C396.044 52.7279 395.953 52.6773 395.888 52.685C395.844 52.6901 395.801 52.6954 395.764 52.709C395.736 52.719 395.72 52.7453 395.714 52.774C395.702 52.8332 395.741 52.8915 395.8 52.902C395.881 52.9162 395.958 52.924 396.02 52.9107C396.06 52.9022 396.062 52.8326 396.055 52.7925ZM550.775 -33.9822C550.753 -34.0162 550.7 -34.0343 550.663 -34.0171C550.654 -34.013 550.646 -34.0101 550.637 -34.0082C550.581 -33.9965 550.559 -33.9123 550.591 -33.8647C550.611 -33.8351 550.63 -33.858 550.658 -33.8803C550.661 -33.8832 550.665 -33.8861 550.668 -33.8891C550.716 -33.9345 550.812 -33.9271 550.775 -33.9822ZM180.785 38.601C180.8 38.5913 180.804 38.5714 180.794 38.5567C180.778 38.5328 180.741 38.54 180.736 38.5681C180.73 38.596 180.761 38.6168 180.785 38.601ZM179.18 -54.3014C179.18 -54.3015 179.18 -54.3015 179.18 -54.3015C179.149 -54.3477 179.095 -54.3785 179.042 -54.4094C178.958 -54.4574 178.822 -54.444 178.876 -54.3641C178.906 -54.318 178.96 -54.2871 179.014 -54.2562C179.014 -54.2562 179.18 -54.3014 179.18 -54.3014ZM572.909 -48.0148C572.914 -48.0392 572.895 -48.0499 572.871 -48.0549L572.808 -48.0679C572.779 -48.0738 572.748 -48.0688 572.731 -48.0449C572.715 -48.0218 572.702 -47.9874 572.722 -47.9451C572.728 -47.932 572.741 -47.9238 572.755 -47.9209L572.777 -47.9163C572.817 -47.9081 572.901 -47.9752 572.909 -48.0148ZM592.186 -60.1098C592.239 -60.0299 592.206 -59.8592 592.126 -59.8063C592.226 -59.8728 592.253 -60.0094 592.186 -60.1098ZM192.992 45.0385C192.913 45.0903 192.789 45.0743 192.698 45.1073C192.671 45.1173 192.654 45.1437 192.648 45.1723C192.636 45.2315 192.675 45.2889 192.731 45.3129C192.748 45.3201 192.763 45.3275 192.778 45.3342C192.859 45.3717 192.888 45.2745 192.903 45.1864C192.913 45.1265 192.944 45.07 192.992 45.0385ZM554.3 -34.1017C554.343 -34.1006 554.384 -34.128 554.393 -34.1701C554.401 -34.2118 554.374 -34.2524 554.332 -34.261L554.3 -34.2675C554.272 -34.2734 554.239 -34.2693 554.222 -34.2457C554.18 -34.1881 554.211 -34.1154 554.134 -34.0648C554.183 -34.0969 554.249 -34.103 554.3 -34.1017ZM284.933 93.8511C284.958 93.8336 284.965 93.7998 284.948 93.7746C284.931 93.7493 284.897 93.7423 284.872 93.7591C284.859 93.7677 284.843 93.7779 284.827 93.789C284.776 93.8222 284.763 93.8899 284.796 93.9401C284.811 93.9631 284.827 93.986 284.857 94.0322C284.807 93.9562 284.861 93.9018 284.933 93.8511ZM574.742 -47.3945C574.676 -47.2858 574.857 -47.1519 574.981 -47.1845C574.989 -47.1868 574.997 -47.1893 575.005 -47.1922C575.033 -47.2022 575.049 -47.2285 575.055 -47.2571C575.067 -47.3163 575.028 -47.3738 574.972 -47.3978C574.89 -47.4333 574.839 -47.471 574.772 -47.4267C574.76 -47.4188 574.75 -47.4077 574.742 -47.3945ZM593.565 -58.997C593.588 -59.0402 593.566 -59.115 593.518 -59.1249C593.504 -59.1278 593.489 -59.125 593.478 -59.1151C593.457 -59.0957 593.422 -59.0561 593.396 -58.9913C593.38 -58.9517 593.408 -58.9106 593.45 -58.902L593.454 -58.9012C593.494 -58.893 593.532 -58.9191 593.547 -58.957C593.553 -58.9715 593.559 -58.9848 593.565 -58.997ZM359.674 73.383C359.62 73.4532 359.722 73.5067 359.801 73.548C359.827 73.5614 359.851 73.5758 359.875 73.5898C359.972 73.6447 360.128 73.5952 360.066 73.5026C360.066 73.5026 360.066 73.5026 360.066 73.5026C360.027 73.443 359.987 73.3833 359.922 73.3403C359.847 73.2908 359.729 73.3121 359.674 73.383ZM466.827 13.8242L466.675 13.7929L466.827 13.8242ZM404.191 50.9279C404.212 50.8792 404.142 50.8607 404.098 50.89C404.07 50.9082 404.042 50.9265 404.015 50.9447C403.974 50.9717 403.986 51.0344 404.034 51.0442C404.049 51.0472 404.064 51.0444 404.076 51.0362C404.126 51.0026 404.173 50.9683 404.191 50.9279ZM433.217 31.3633C433.201 31.3394 433.164 31.3466 433.158 31.3747C433.153 31.4026 433.184 31.4234 433.208 31.4077C433.223 31.3979 433.227 31.378 433.217 31.3633ZM413.383 41.9921C413.35 42.0144 413.36 42.0662 413.399 42.0743C413.424 42.0794 413.448 42.0635 413.453 42.0388C413.461 41.9992 413.417 41.9698 413.383 41.9921ZM386.135 59.1259C386.141 59.0837 386.115 59.0432 386.073 59.0346C386.031 59.0259 385.99 59.0531 385.981 59.0952C385.973 59.1369 386 59.1776 386.042 59.1862C386.125 59.2032 386.149 59.2082 386.271 59.2332C386.15 59.2083 386.125 59.2032 386.135 59.1259Z"
              fill="currentColor"/>
    </g>
</svg>
