<svg width="11" height="10" viewBox="0 0 11 10" fill="none" xmlns="http://www.w3.org/2000/svg">
<path d="M0.390625 1.74067C0.390625 1.42832 0.502059 1.17064 0.724917 0.96762C0.947775 0.764594 1.2375 0.663086 1.59408 0.663086C1.94429 0.663086 2.22764 0.763029 2.44413 0.962935C2.66699 1.16908 2.77842 1.43769 2.77842 1.76878C2.77842 2.06863 2.67018 2.3185 2.45368 2.5184C2.23083 2.72455 1.93792 2.82762 1.57497 2.82762H1.56542C1.21521 2.82762 0.931863 2.72455 0.715366 2.5184C0.498869 2.31226 0.390625 2.05301 0.390625 1.74067ZM0.514791 9.93967V3.68032H2.63516V9.93967H0.514791ZM3.80995 9.93967H5.93032V6.44455C5.93032 6.22591 5.95579 6.05724 6.00673 5.93856C6.09587 5.72616 6.23118 5.54656 6.41266 5.39977C6.59413 5.25296 6.82176 5.17957 7.09557 5.17957C7.80873 5.17957 8.1653 5.6512 8.1653 6.59448V9.93967H10.2857V6.35085C10.2857 5.42631 10.0628 4.72511 9.61708 4.24722C9.17136 3.76934 8.58237 3.53039 7.85011 3.53039C7.02871 3.53039 6.38878 3.8771 5.93032 4.5705V4.58924H5.92077L5.93032 4.5705V3.68032H3.80995C3.82269 3.88022 3.82906 4.50178 3.82906 5.54501C3.82906 6.58823 3.82269 8.05311 3.80995 9.93967Z" fill="currentColor"/>
</svg>
