<svg width="22" height="22" viewBox="0 0 22 22" fill="none" xmlns="http://www.w3.org/2000/svg">
<path fill-rule="evenodd" clip-rule="evenodd" d="M19.2768 0H2.14187C0.958947 0 0 0.958947 0 2.14187V19.2768C0 20.4597 0.958947 21.4187 2.14187 21.4187H19.2768C20.4597 21.4187 21.4187 20.4597 21.4187 19.2768V2.14187C21.4187 0.958947 20.4597 0 19.2768 0ZM4.28374 4.88778C4.28374 5.81249 5.03373 6.56374 5.96122 6.56374C6.88579 6.56374 7.63773 5.81249 7.63773 4.88778C7.63773 3.96406 6.88579 3.2128 5.96122 3.2128C5.0347 3.2128 4.28374 3.96308 4.28374 4.88778ZM4.55194 17.1349H7.42902V7.886H4.55194V17.1349ZM18.2059 17.1349H15.3307V12.6371C15.3307 11.5643 15.3112 10.1846 13.8356 10.1846C12.3386 10.1846 12.1084 11.3529 12.1084 12.5592V17.1349H9.23329V7.886H11.9933V9.14978H12.0323C12.4166 8.42289 13.3548 7.65604 14.7544 7.65604C17.6675 7.65604 18.2059 9.5717 18.2059 12.0622V17.1349Z" fill="currentColor"/>
</svg>
