<svg width="22" height="22" viewBox="0 0 22 22" fill="none" xmlns="http://www.w3.org/2000/svg">
<path fillRule="evenodd" clipRule="evenodd" d="M19.8588 0H2.7239C1.54098 0 0.582031 0.958947 0.582031 2.14187V19.2768C0.582031 20.4597 1.54098 21.4187 2.7239 21.4187H19.8588C21.0418 21.4187 22.0007 20.4597 22.0007 19.2768V2.14187C22.0007 0.958947 21.0418 0 19.8588 0ZM17.0211 6.68194C17.6433 6.61002 18.2361 6.45057 18.7879 6.21361C18.3756 6.80962 17.8538 7.33315 17.2523 7.75298C17.2581 7.88066 17.261 8.00889 17.261 8.13768C17.261 12.0678 14.1679 16.5995 8.50997 16.5995C6.77257 16.5995 5.15627 16.1072 3.79483 15.2636C4.03587 15.2915 4.28094 15.3054 4.52889 15.3054C5.97048 15.3054 7.29673 14.8298 8.34909 14.032C7.00323 14.008 5.86726 13.1477 5.47572 11.9663C5.66313 12.0003 5.8563 12.0193 6.05409 12.0193C6.33491 12.0193 6.60708 11.983 6.86484 11.915C5.45727 11.6424 4.39742 10.4403 4.39742 8.99908V8.96173C4.81202 9.18419 5.28659 9.318 5.79056 9.33361C4.9654 8.8006 4.42279 7.89014 4.42279 6.85869C4.42279 6.31285 4.57444 5.80215 4.83854 5.3628C6.35624 7.16255 8.62242 8.34676 11.1786 8.47054C11.1267 8.25365 11.0991 8.02618 11.0991 7.79312C11.0991 6.15117 12.4761 4.8192 14.1748 4.8192C15.0594 4.8192 15.8586 5.18049 16.4197 5.75866C17.1209 5.62485 17.7794 5.3773 18.3733 5.03664C18.1438 5.73134 17.6566 6.31397 17.0211 6.68194Z" fill="currentColor"/>
</svg>
